<svg xmlns="http://www.w3.org/2000/svg"  viewBox="0 0 94 84">
  <g id="Прямоугольник_175" data-name="Прямоугольник 175" fill="#fed841" stroke="#e7335d" stroke-width="7">
    <rect width="94" height="84" stroke="none"/>
    <rect x="3.5" y="3.5" width="87" height="77" fill="none"/>
  </g>
  <g id="Сгруппировать_3222" data-name="Сгруппировать 3222" transform="translate(21.972 16.972)">
    <path id="Контур_4108" data-name="Контур 4108" d="M0,0H50.057V50.057H0Z" fill="none"/>
    <path id="Контур_4109" data-name="Контур 4109" d="M39.542,4H6.171A4.166,4.166,0,0,0,2.021,8.171L2,33.2a4.184,4.184,0,0,0,4.171,4.171H39.542A4.184,4.184,0,0,0,43.714,33.2V8.171A4.184,4.184,0,0,0,39.542,4ZM37.457,33.2H8.257a2.092,2.092,0,0,1-2.086-2.086V12.343l14.475,9.052a4.131,4.131,0,0,0,4.422,0l14.475-9.052V31.114A2.092,2.092,0,0,1,37.457,33.2Zm-14.6-14.6L6.171,8.171H39.542Z" transform="translate(2.171 4.343)"/>
  </g>
</svg>
