<!-- <svg xmlns="http://www.w3.org/2000/svg" xmlns:xlink="http://www.w3.org/1999/xlink" width="379" height="1096" viewBox="0 0 379 1096">
  <defs>
    <clipPath id="clip-path">
      <rect y="-62" width="379" height="1096" fill="none"/>
    </clipPath>
  </defs>
  <g id="Группа_прокрутки_1" data-name="Группа прокрутки 1" transform="translate(0 62)" clip-path="url(#clip-path)" style="isolation: isolate">
    <rect id="Прямоугольник_169" data-name="Прямоугольник 169" width="379" height="1143" transform="translate(0 -62)"/>
    <g id="Сгруппировать_263" data-name="Сгруппировать 263" transform="translate(-57 -6081)">
      <rect id="Прямоугольник_170" data-name="Прямоугольник 170" width="189" height="60" rx="4" transform="translate(103 6034)" fill="#fff"/>
      <path id="Многоугольник_14" data-name="Многоугольник 14" d="M11.779.75a1,1,0,0,1,1.442,0L23.372,11.307A1,1,0,0,1,22.651,13H2.349a1,1,0,0,1-.721-1.693Z" transform="translate(92 6081)" fill="#fff"/>
      <text id="Nik" transform="translate(125 6050)" font-size="15" font-family="ArialNarrow, Arial"><tspan x="0" y="0">NIK</tspan></text>
      <text id="The_quick_brown_fox_jumps_over_a_lazy_dog._DJs_flock_by_when_MTV_ax_quiz_prog._Junk" data-name="The quick, brown fox jumps over a lazy dog. DJs flock by when MTV ax quiz prog. Junk" transform="translate(125 6053)" font-size="10" font-family="Arial-BoldMT, Arial" font-weight="700"><tspan x="0" y="9">The quick, brown fox jumps </tspan><tspan x="0" y="20">over a lazy dog. DJs flock by </tspan><tspan x="0" y="31">when MTV ax quiz prog. Junk</tspan></text>
    </g>
    <g id="Сгруппировать_265" data-name="Сгруппировать 265" transform="translate(-57 -5861)">
      <rect id="Прямоугольник_170-2" data-name="Прямоугольник 170" width="189" height="60" rx="4" transform="translate(103 6034)" fill="#fff"/>
      <path id="Многоугольник_14-2" data-name="Многоугольник 14" d="M11.779.75a1,1,0,0,1,1.442,0L23.372,11.307A1,1,0,0,1,22.651,13H2.349a1,1,0,0,1-.721-1.693Z" transform="translate(92 6081)" fill="#fff"/>
      <text id="Nik-2" data-name="Nik" transform="translate(125 6050)" font-size="15" font-family="ArialNarrow, Arial"><tspan x="0" y="0">NIK</tspan></text>
      <text id="The_quick_brown_fox_jumps_over_a_lazy_dog._DJs_flock_by_when_MTV_ax_quiz_prog._Junk-2" data-name="The quick, brown fox jumps over a lazy dog. DJs flock by when MTV ax quiz prog. Junk" transform="translate(125 6053)" font-size="10" font-family="Arial-BoldMT, Arial" font-weight="700"><tspan x="0" y="9">The quick, brown fox jumps </tspan><tspan x="0" y="20">over a lazy dog. DJs flock by </tspan><tspan x="0" y="31">when MTV ax quiz prog. Junk</tspan></text>
    </g>
    <g id="Сгруппировать_267" data-name="Сгруппировать 267" transform="translate(-57 -5641)">
      <rect id="Прямоугольник_170-3" data-name="Прямоугольник 170" width="189" height="60" rx="4" transform="translate(103 6034)" fill="#fff"/>
      <path id="Многоугольник_14-3" data-name="Многоугольник 14" d="M11.779.75a1,1,0,0,1,1.442,0L23.372,11.307A1,1,0,0,1,22.651,13H2.349a1,1,0,0,1-.721-1.693Z" transform="translate(92 6081)" fill="#fff"/>
      <text id="Nik-3" data-name="Nik" transform="translate(125 6050)" font-size="15" font-family="ArialNarrow, Arial"><tspan x="0" y="0">NIK</tspan></text>
      <text id="The_quick_brown_fox_jumps_over_a_lazy_dog._DJs_flock_by_when_MTV_ax_quiz_prog._Junk-3" data-name="The quick, brown fox jumps over a lazy dog. DJs flock by when MTV ax quiz prog. Junk" transform="translate(125 6053)" font-size="10" font-family="Arial-BoldMT, Arial" font-weight="700"><tspan x="0" y="9">The quick, brown fox jumps </tspan><tspan x="0" y="20">over a lazy dog. DJs flock by </tspan><tspan x="0" y="31">when MTV ax quiz prog. Junk</tspan></text>
    </g>
    <g id="Сгруппировать_269" data-name="Сгруппировать 269" transform="translate(-57 -5421)">
      <rect id="Прямоугольник_170-4" data-name="Прямоугольник 170" width="189" height="60" rx="4" transform="translate(103 6034)" fill="#fff"/>
      <path id="Многоугольник_14-4" data-name="Многоугольник 14" d="M11.779.75a1,1,0,0,1,1.442,0L23.372,11.307A1,1,0,0,1,22.651,13H2.349a1,1,0,0,1-.721-1.693Z" transform="translate(92 6081)" fill="#fff"/>
      <text id="Nik-4" data-name="Nik" transform="translate(125 6050)" font-size="15" font-family="ArialNarrow, Arial"><tspan x="0" y="0">NIK</tspan></text>
      <text id="The_quick_brown_fox_jumps_over_a_lazy_dog._DJs_flock_by_when_MTV_ax_quiz_prog._Junk-4" data-name="The quick, brown fox jumps over a lazy dog. DJs flock by when MTV ax quiz prog. Junk" transform="translate(125 6053)" font-size="10" font-family="Arial-BoldMT, Arial" font-weight="700"><tspan x="0" y="9">The quick, brown fox jumps </tspan><tspan x="0" y="20">over a lazy dog. DJs flock by </tspan><tspan x="0" y="31">when MTV ax quiz prog. Junk</tspan></text>
    </g>
    <g id="Сгруппировать_271" data-name="Сгруппировать 271" transform="translate(-57 -5201)">
      <rect id="Прямоугольник_170-5" data-name="Прямоугольник 170" width="189" height="60" rx="4" transform="translate(103 6034)" fill="#fff"/>
      <path id="Многоугольник_14-5" data-name="Многоугольник 14" d="M11.779.75a1,1,0,0,1,1.442,0L23.372,11.307A1,1,0,0,1,22.651,13H2.349a1,1,0,0,1-.721-1.693Z" transform="translate(92 6081)" fill="#fff"/>
      <text id="Nik-5" data-name="Nik" transform="translate(125 6050)" font-size="15" font-family="ArialNarrow, Arial"><tspan x="0" y="0">NIK</tspan></text>
      <text id="The_quick_brown_fox_jumps_over_a_lazy_dog._DJs_flock_by_when_MTV_ax_quiz_prog._Junk-5" data-name="The quick, brown fox jumps over a lazy dog. DJs flock by when MTV ax quiz prog. Junk" transform="translate(125 6053)" font-size="10" font-family="Arial-BoldMT, Arial" font-weight="700"><tspan x="0" y="9">The quick, brown fox jumps </tspan><tspan x="0" y="20">over a lazy dog. DJs flock by </tspan><tspan x="0" y="31">when MTV ax quiz prog. Junk</tspan></text>
    </g>
    <g id="Сгруппировать_264" data-name="Сгруппировать 264" transform="translate(144 63)">
      <rect id="Прямоугольник_170-6" data-name="Прямоугольник 170" width="189" height="60" rx="4" fill="#fff"/>
      <path id="Многоугольник_14-6" data-name="Многоугольник 14" d="M11.779.75a1,1,0,0,1,1.442,0L23.372,11.307A1,1,0,0,1,22.651,13H2.349a1,1,0,0,1-.721-1.693Z" transform="translate(175 47)" fill="#fff"/>
      <text id="Jonh" transform="translate(142 16)" font-size="15" font-family="ArialNarrow, Arial"><tspan x="0" y="0">JONH</tspan></text>
      <text id="The_quick_brown_fox_jumps_over_a_lazy_dog._DJs_flock_by_when_MTV_ax_quiz_prog._Junk-6" data-name="The quick, brown fox jumps over a lazy dog. DJs flock by when MTV ax quiz prog. Junk" transform="translate(33 19)" font-size="10" font-family="Arial-BoldMT, Arial" font-weight="700"><tspan x="0" y="9">The quick, brown fox jumps </tspan><tspan x="0" y="20">over a lazy dog. DJs flock by </tspan><tspan x="0" y="31">when MTV ax quiz prog. Junk</tspan></text>
    </g>
    <g id="Сгруппировать_266" data-name="Сгруппировать 266" transform="translate(144 283)">
      <rect id="Прямоугольник_170-7" data-name="Прямоугольник 170" width="189" height="60" rx="4" fill="#fff"/>
      <path id="Многоугольник_14-7" data-name="Многоугольник 14" d="M11.779.75a1,1,0,0,1,1.442,0L23.372,11.307A1,1,0,0,1,22.651,13H2.349a1,1,0,0,1-.721-1.693Z" transform="translate(175 47)" fill="#fff"/>
      <text id="Jonh-2" data-name="Jonh" transform="translate(142 16)" font-size="15" font-family="ArialNarrow, Arial"><tspan x="0" y="0">JONH</tspan></text>
      <text id="The_quick_brown_fox_jumps_over_a_lazy_dog._DJs_flock_by_when_MTV_ax_quiz_prog._Junk-7" data-name="The quick, brown fox jumps over a lazy dog. DJs flock by when MTV ax quiz prog. Junk" transform="translate(33 19)" font-size="10" font-family="Arial-BoldMT, Arial" font-weight="700"><tspan x="0" y="9">The quick, brown fox jumps </tspan><tspan x="0" y="20">over a lazy dog. DJs flock by </tspan><tspan x="0" y="31">when MTV ax quiz prog. Junk</tspan></text>
    </g>
    <g id="Сгруппировать_268" data-name="Сгруппировать 268" transform="translate(144 503)">
      <rect id="Прямоугольник_170-8" data-name="Прямоугольник 170" width="189" height="60" rx="4" fill="#fff"/>
      <path id="Многоугольник_14-8" data-name="Многоугольник 14" d="M11.779.75a1,1,0,0,1,1.442,0L23.372,11.307A1,1,0,0,1,22.651,13H2.349a1,1,0,0,1-.721-1.693Z" transform="translate(175 47)" fill="#fff"/>
      <text id="Jonh-3" data-name="Jonh" transform="translate(142 16)" font-size="15" font-family="ArialNarrow, Arial"><tspan x="0" y="0">JONH</tspan></text>
      <text id="The_quick_brown_fox_jumps_over_a_lazy_dog._DJs_flock_by_when_MTV_ax_quiz_prog._Junk-8" data-name="The quick, brown fox jumps over a lazy dog. DJs flock by when MTV ax quiz prog. Junk" transform="translate(33 19)" font-size="10" font-family="Arial-BoldMT, Arial" font-weight="700"><tspan x="0" y="9">The quick, brown fox jumps </tspan><tspan x="0" y="20">over a lazy dog. DJs flock by </tspan><tspan x="0" y="31">when MTV ax quiz prog. Junk</tspan></text>
    </g>
    <g id="Сгруппировать_270" data-name="Сгруппировать 270" transform="translate(144 723)">
      <rect id="Прямоугольник_170-9" data-name="Прямоугольник 170" width="189" height="60" rx="4" fill="#fff"/>
      <path id="Многоугольник_14-9" data-name="Многоугольник 14" d="M11.779.75a1,1,0,0,1,1.442,0L23.372,11.307A1,1,0,0,1,22.651,13H2.349a1,1,0,0,1-.721-1.693Z" transform="translate(175 47)" fill="#fff"/>
      <text id="Jonh-4" data-name="Jonh" transform="translate(142 16)" font-size="15" font-family="ArialNarrow, Arial"><tspan x="0" y="0">JONH</tspan></text>
      <text id="The_quick_brown_fox_jumps_over_a_lazy_dog._DJs_flock_by_when_MTV_ax_quiz_prog._Junk-9" data-name="The quick, brown fox jumps over a lazy dog. DJs flock by when MTV ax quiz prog. Junk" transform="translate(33 19)" font-size="10" font-family="Arial-BoldMT, Arial" font-weight="700"><tspan x="0" y="9">The quick, brown fox jumps </tspan><tspan x="0" y="20">over a lazy dog. DJs flock by </tspan><tspan x="0" y="31">when MTV ax quiz prog. Junk</tspan></text>
    </g>
    <g id="Сгруппировать_272" data-name="Сгруппировать 272" transform="translate(144 943)">
      <rect id="Прямоугольник_170-10" data-name="Прямоугольник 170" width="189" height="60" rx="4" fill="#fff"/>
      <path id="Многоугольник_14-10" data-name="Многоугольник 14" d="M11.779.75a1,1,0,0,1,1.442,0L23.372,11.307A1,1,0,0,1,22.651,13H2.349a1,1,0,0,1-.721-1.693Z" transform="translate(175 47)" fill="#fff"/>
      <text id="Jonh-5" data-name="Jonh" transform="translate(142 16)" font-size="15" font-family="ArialNarrow, Arial"><tspan x="0" y="0">JONH</tspan></text>
      <text id="The_quick_brown_fox_jumps_over_a_lazy_dog._DJs_flock_by_when_MTV_ax_quiz_prog._Junk-10" data-name="The quick, brown fox jumps over a lazy dog. DJs flock by when MTV ax quiz prog. Junk" transform="translate(33 19)" font-size="10" font-family="Arial-BoldMT, Arial" font-weight="700"><tspan x="0" y="9">The quick, brown fox jumps </tspan><tspan x="0" y="20">over a lazy dog. DJs flock by </tspan><tspan x="0" y="31">when MTV ax quiz prog. Junk</tspan></text>
    </g>
  </g>
</svg> -->

<svg xmlns="http://www.w3.org/2000/svg" width="306.299" height="293.706" viewBox="0 0 306.299 293.706">
  <g id="Сгруппировать_3234" data-name="Сгруппировать 3234" transform="translate(-3293.849 -12032.445)">
    <g id="Сгруппировать_263" data-name="Сгруппировать 263" transform="translate(3200.5 5998.445)">
      <rect id="Прямоугольник_170" data-name="Прямоугольник 170" width="249.831" height="79.312" rx="4" transform="translate(106.54 6034)" fill="#fff"/>
      <path id="Многоугольник_14" data-name="Многоугольник 14" d="M15.8.75a1,1,0,0,1,1.442,0L31.418,15.491a1,1,0,0,1-.721,1.693H2.349a1,1,0,0,1-.721-1.693Z" transform="translate(92 6096.127)" fill="#fff"/>
      <text id="Nik" transform="translate(135.621 6067.644)" font-size="18" font-family="Arial-Black, Arial" font-weight="800"><tspan x="0" y="0">NIK</tspan></text>
      <text id="Hello._how_can_I_help_" data-name="Hello. how can I help?" transform="translate(135.621 6087.115)" font-size="16" font-family="Arial-BoldMT, Arial" font-weight="700"><tspan x="0" y="0">Hello. how can I help?</tspan></text>
    </g>
    <g id="Сгруппировать_265" data-name="Сгруппировать 265" transform="translate(3200.5 6217.16)">
      <rect id="Прямоугольник_170-2" data-name="Прямоугольник 170" width="275.962" height="74.99" rx="4" transform="translate(108.061 6034)" fill="#fff"/>
      <path id="Многоугольник_14-2" data-name="Многоугольник 14" d="M17.564.651a1,1,0,0,1,1.375,0L34.681,15.564a1,1,0,0,1-.688,1.726H2.51a1,1,0,0,1-.688-1.726Z" transform="translate(92 6091.701)" fill="#fff"/>
      <text id="Nik-2" data-name="Nik" transform="translate(140.184 6065.574)" font-size="17" font-family="Arial-Black, Arial" font-weight="800"><tspan x="0" y="0">NIK</tspan></text>
      <text id="Easily._t.me_wnf_agency" data-name="Easily. t.me/wnf_agency" transform="translate(140.184 6082.46)" font-size="16" font-family="Arial-BoldMT, Arial" font-weight="700"><tspan x="0" y="0">Easily. t.me/wnf_agency</tspan></text>
    </g>
    <g id="Сгруппировать_264" data-name="Сгруппировать 264" transform="translate(3350.685 12132.216)">
      <rect id="Прямоугольник_170-3" data-name="Прямоугольник 170" width="237.02" height="99.927" rx="4" fill="#fff"/>
      <path id="Многоугольник_14-3" data-name="Многоугольник 14" d="M14.955.75A1,1,0,0,1,16.4.75L29.724,14.61A1,1,0,0,1,29,16.3H2.349a1,1,0,0,1-.721-1.693Z" transform="translate(219.463 83.624)" fill="#fff"/>
      <text id="Jonh" transform="translate(164.079 23.508)" font-size="17" font-family="Arial-Black, Arial" font-weight="800"><tspan x="0" y="0">JONH</tspan></text>
      <g id="Сгруппировать">
        <text id="What_is_the_address_of_" data-name="What is the address of " transform="translate(44.8 49.51)" font-size="16" font-family="Arial-BoldMT, Arial" font-weight="700"><tspan x="0" y="0">What is the address of </tspan></text>
        <text id="your_community_" data-name="your community?" transform="translate(81.261 67.51)" font-size="16" font-family="Arial-BoldMT, Arial" font-weight="700"><tspan x="0" y="0">your community?</tspan></text>
        <text id="I_want_to_join" data-name="I want to join" transform="translate(117.73 85.51)" font-size="16" font-family="Arial-BoldMT, Arial" font-weight="700"><tspan x="0" y="0">I want to join</tspan></text>
      </g>
    </g>
  </g>
</svg>

