<svg xmlns="http://www.w3.org/2000/svg"  viewBox="0 0 231.816 264.5">
  <g id="Компонент_19_1" data-name="Компонент 19 – 1" transform="translate(2.5 2.5)">
    <circle id="Эллипс_2" data-name="Эллипс 2" cx="73.129" cy="73.129" r="73.129" transform="translate(14.724 58.045)" fill="#fed841"/>
    <!-- <path id="Контур_34" data-name="Контур 34" d="M2635.114,1810.766l71.195,94.507L2861.93,1740.2l-151.841,102.7Z" transform="translate(-2635.114 -1740.201)" fill="#e7335d" opacity="0"/>
    <path id="Контур_545" data-name="Контур 545" d="M2635.114,1810.766l71.195,94.507L2861.93,1740.2l-151.841,102.7Z" transform="translate(-2635.114 -1740.201)" fill="none" stroke="#e7335d" stroke-linecap="round" stroke-linejoin="round" stroke-width="5" stroke-dasharray="13" opacity="0"/> -->
    <!-- <text id="Picked_3625" data-name="Picked 3625" transform="translate(163.816 257)" fill="#fff" font-size="25" font-family="WombyRUSbyDaymarius, 'Womby \[RUS by Daymarius\]'"><tspan x="-148.825" y="0">PICKED 3625</tspan></text> -->
  </g>
  <!-- <g id="Сгруппировать_244" data-name="Сгруппировать 244" transform="translate(-273.681 -149.134)">
    <g id="Сгруппировать_243" data-name="Сгруппировать 243" transform="translate(318.488 184.337)">
      <path id="Контур_1901" data-name="Контур 1901" d="M328.774,186.738a5.1,5.1,0,0,1,2.264,1.351,5.161,5.161,0,0,1,1.263,5,5.1,5.1,0,0,1-1.353,2.266,5.017,5.017,0,0,1-2.33,1.3l-3.8.958,1.524,6.04-3.823.964-4.034-15.986,7.618-1.924A5.012,5.012,0,0,1,328.774,186.738Zm-.766,3.535a1.617,1.617,0,0,0-1.209-.26l-3.755.948.857,3.393,3.753-.948a1.576,1.576,0,0,0,.937-.828,1.8,1.8,0,0,0,.146-1.275A1.706,1.706,0,0,0,328.009,190.273Z" transform="translate(-318.488 -182.26)" fill="#fff"/>
      <path id="Контур_1902" data-name="Контур 1902" d="M330.265,185.428l2.909,16.227-4.132.742-2.909-16.229Z" transform="translate(-311.276 -183.308)" fill="#fff"/>
      <path id="Контур_1903" data-name="Контур 1903" d="M340.255,196.778a4.613,4.613,0,0,0,1.3-1.061l3.127,2.534a8.4,8.4,0,0,1-2.48,2.077,8.37,8.37,0,0,1-7.4.292,8.336,8.336,0,0,1-3.329-2.7,8.371,8.371,0,0,1-.871-8.314,8.353,8.353,0,0,1,2.7-3.345,8.352,8.352,0,0,1,7.3-1.244,8.344,8.344,0,0,1,2.855,1.518l-2.532,3.123a4.656,4.656,0,0,0-1.487-.766,4.231,4.231,0,0,0-3.757.637,4.385,4.385,0,0,0-1.388,1.728,4.184,4.184,0,0,0-.358,2.206,4.142,4.142,0,0,0,.8,2.076,4.43,4.43,0,0,0,1.716,1.39,4.231,4.231,0,0,0,3.805-.154Z" transform="translate(-307.751 -184.024)" fill="#fff"/>
      <path id="Контур_1904" data-name="Контур 1904" d="M346.137,192.5l4.932,8.322-4.664.006-4.066-6.643.006,6.646-4.194,0-.021-16.488,4.2,0,.008,6.437,4.05-6.44,4.664-.006Z" transform="translate(-299.958 -184.337)" fill="#fff"/>
      <path id="Контур_1905" data-name="Контур 1905" d="M364.223,186.767l4.145.68L365.7,203.715l-4.143-.678.018-.091.161-.991,1.329-8.1-2.629,3.35-.122.169-4.143-.68-.086-.2-.187-.573-1.209-3.438-1.331,8.1-.163.989-.014.093-.552-.091-3.613-.593,2.67-16.272,4.165.684,3.053,7.616Z" transform="translate(-289.692 -183.988)" fill="#fff"/>
      <path id="Контур_1906" data-name="Контур 1906" d="M370.085,202.019l-.96,3.434-6.738-1.879-4.066-1.133,4.431-15.881,4.064,1.135,6.54,1.823-.962,3.438-6.536-1.825-.777,2.785,5.5,1.537-.958,3.436-5.5-1.535-.779,2.785Z" transform="translate(-280.909 -182.241)" fill="#fff"/>
    </g>
  </g> -->
</svg>