<svg xmlns="http://www.w3.org/2000/svg" width="65.14" height="114.951" viewBox="0 0 65.14 114.951">
  <g id="Сгруппировать_5" data-name="Сгруппировать 5" transform="translate(0)">
    <ellipse id="Эллипс_1" data-name="Эллипс 1" cx="30.435" cy="9.611" rx="30.435" ry="9.611" transform="translate(2.136 26.7)" fill="#fff"/>
    <path id="Контур_31" data-name="Контур 31" d="M796.1,1456.981c2.136-3.2,9.611-12.815,9.611-21.358,0-5.9-14.581-10.678-32.57-10.678s-32.571,4.781-32.571,10.678a3.59,3.59,0,0,0,.051.584,2.8,2.8,0,0,0-.051.484,32.229,32.229,0,0,0,5.339,17.087c3.2,6.408,28.832,21.358,30.969,29.9.734,2.938-4.1,8.323-5.151,9.417a2.511,2.511,0,0,1-.363.31c-.911.643-5.049,4.016-4.1,11.631.652,5.22,1.7,7.649,3.155,8.75a2.556,2.556,0,0,0,4-2.069c.077-2.624,1.261-10.525,7.8-14.156,8.784-4.879,13.882-6.408,16.164-9.853a11.472,11.472,0,0,0-1.028-13.376C792.9,1468.727,793.989,1460.146,796.1,1456.981Zm-22.959-11.747c-16.809,0-30.436-4.3-30.436-9.611s13.627-9.611,30.436-9.611,30.434,4.3,30.434,9.611S789.948,1445.234,773.14,1445.234Z" transform="translate(-740.569 -1399.313)"/>
    <g id="Компонент_18_8" data-name="Компонент 18 – 8" transform="translate(15.713)">
      <path id="Контур_32" data-name="Контур 32" d="M786.376,1426.071c-1.808-5.468-4.255-8.555-9.592-8.555-2.183,0-4.189-3.66-7.474-6.394a47.779,47.779,0,0,0-10.694-6.417,140.1,140.1,0,0,1,3.219,13.891c1.19,7.364,1.19,13.869-1.08,13.869-3.2,0-3.2-13.869-3.2-13.869s-5.975,19.667-4.278,21.344a9.423,9.423,0,0,0,1.963,1.389,16.9,16.9,0,0,0,4.234,1.653,34.773,34.773,0,0,0,4.712.937l.028,0c3.54.879,13.58-.2,18.411-2.015l.006,0a5.029,5.029,0,0,0,.743-.262,3.319,3.319,0,0,0,1.94-1.7A18.229,18.229,0,0,0,786.376,1426.071Z" transform="translate(-752.976 -1404.705)" fill="#e7335d"/>
    </g>
    <path id="Контур_33" data-name="Контур 33" d="M781.766,1437.2a.8.8,0,0,1-.552.881c-4.971,1.864-15.474,2.962-18.72,1.94-4.212-1.94-4.212-9.239-4.212-9.239a11.863,11.863,0,0,0,8.357,4.189,3.062,3.062,0,0,0,3.2-1.984c.705-1.587.75-4.1.176-7.54a26.169,26.169,0,0,0-2.095-6.394c.154.066.794.375,1.677.86h.021a35.668,35.668,0,0,1,3.616,2.337c3.2,2.4,4.234,4.035,5.115,5.822v.021c.288.6.552,1.19.883,1.853C780.773,1433.053,781.766,1435.964,781.766,1437.2Z" transform="translate(-735.85 -1400.883)" fill="#fed841"/>
  </g>
</svg>
