<svg xmlns="http://www.w3.org/2000/svg" width="65.14" height="89.319" viewBox="0 0 65.14 89.319">
  <path id="Контур_31" data-name="Контур 31" d="M796.1,1456.981c2.136-3.2,9.611-12.815,9.611-21.358,0-5.9-14.581-10.678-32.57-10.678s-32.571,4.781-32.571,10.678a3.59,3.59,0,0,0,.051.584,2.8,2.8,0,0,0-.051.484,32.229,32.229,0,0,0,5.339,17.087c3.2,6.408,28.832,21.358,30.969,29.9.734,2.938-4.1,8.323-5.151,9.417a2.511,2.511,0,0,1-.363.31c-.911.643-5.049,4.016-4.1,11.631.652,5.22,1.7,7.649,3.155,8.75a2.556,2.556,0,0,0,4-2.069c.077-2.624,1.261-10.525,7.8-14.156,8.784-4.879,13.882-6.408,16.164-9.853a11.472,11.472,0,0,0-1.028-13.376C792.9,1468.727,793.989,1460.146,796.1,1456.981Zm-22.959-11.747c-16.809,0-30.436-4.3-30.436-9.611s13.627-9.611,30.436-9.611,30.434,4.3,30.434,9.611S789.948,1445.234,773.14,1445.234Z" transform="translate(-740.569 -1424.945)" fill="#fff"/>
</svg>
