<svg xmlns="http://www.w3.org/2000/svg" width="576.746" height="66.226" viewBox="0 0 576.746 66.226">
  <g id="Сгруппировать_25" data-name="Сгруппировать 25" transform="translate(0 -1404.705)">
    <g id="Сгруппировать_4" data-name="Сгруппировать 4" transform="translate(0 1404.945)">
      <g id="Сгруппировать_3" data-name="Сгруппировать 3">
        <path id="Контур_22" data-name="Контур 22" d="M52.366,1406.046H66.723v65.066H50.157l-16.75-27.7-16.841,27.7H0v-65.066H16.566v36.72l8.1-14.725.46-.736H41.691l.368.736,8.1,14.725v-36.72Z" transform="translate(0 -1405.309)" fill="#fff"/>
        <path id="Контур_23" data-name="Контур 23" d="M128.664,1406.046v65.066H112.1v-65.066Z" transform="translate(-30.467 -1405.309)" fill="#fff"/>
        <path id="Контур_24" data-name="Контур 24" d="M191.12,1406.046h16.566v65.066H191.12l-19.142-34.88v34.88H155.32v-65.066h16.658l19.142,34.88Z" transform="translate(-42.214 -1405.309)" fill="#fff"/>
        <path id="Контур_25" data-name="Контур 25" d="M276.233,1405.54a38.432,38.432,0,0,1,9.8,2.347,28.184,28.184,0,0,1,8.973,5.614,32.3,32.3,0,0,1,7.961,11.181,33.415,33.415,0,0,1,2.807,13.391,31.668,31.668,0,0,1-3.589,15,29.738,29.738,0,0,1-10.078,11.5,35.348,35.348,0,0,1-13.253,5.2,96.588,96.588,0,0,1-16.427,1.242l-7.546-.092q-2.394-.094-7.179-.093v-65.8H264.36Q271.262,1405.034,276.233,1405.54Zm13.712,32.533a16.677,16.677,0,0,0-2.209-8.329,17.483,17.483,0,0,0-6.028-6.3,16.04,16.04,0,0,0-8.329-2.485h-9.02v33.959a70.9,70.9,0,0,0,11.366-.782,19.345,19.345,0,0,0,8.559-3.635,14.464,14.464,0,0,0,5.2-8.559A18.383,18.383,0,0,0,289.945,1438.074Z" transform="translate(-67.323 -1405.034)" fill="#fff"/>
        <path id="Контур_26" data-name="Контур 26" d="M381.194,1406.046H397.76v65.066H381.194l-19.142-34.88v34.88H345.394v-65.066h16.658l19.142,34.88Z" transform="translate(-93.875 -1405.309)" fill="#fff"/>
        <path id="Контур_27" data-name="Контур 27" d="M483.056,1420.126H454.342v11.413H477.35v14.08H454.342v25.493H437.777v-65.066h45.279Z" transform="translate(-118.984 -1405.309)" fill="#fff"/>
        <path id="Контур_28" data-name="Контур 28" d="M534.466,1406.046v65.066H517.9v-65.066Z" transform="translate(-140.76 -1405.309)" fill="#fff"/>
        <path id="Контур_29" data-name="Контур 29" d="M614.224,1471.112H597.567l-10.309-24.572H576.675v24.572H561.122v-65.066h31.015a20.252,20.252,0,0,1,20.246,20.247A19.629,19.629,0,0,1,609.9,1436a21.038,21.038,0,0,1-6.718,7.317Zm-18.314-49.559a6.172,6.172,0,0,0-4.326-2.162H576.307v13.8h15.278a6.526,6.526,0,0,0,4.326-2.255,6.919,6.919,0,0,0,1.748-4.74A6.8,6.8,0,0,0,595.91,1421.552Z" transform="translate(-152.507 -1405.309)" fill="#fff"/>
        <path id="Контур_30" data-name="Контур 30" d="M696.256,1457.031v14.08H651.989v-65.066h43.438v14.08H668.647v11.413h22.547v14.08H668.647v11.412Z" transform="translate(-177.204 -1405.309)" fill="#fff"/>
      </g>
    </g>
   
  </g>
</svg>
