<!-- <svg id="Сгруппировать_3350" data-name="Сгруппировать 3350" xmlns="http://www.w3.org/2000/svg" width="178" height="45" viewBox="0 0 178 45">
  <rect id="Прямоугольник_165" data-name="Прямоугольник 165" width="178" height="45" fill="#fed841"/>
  <g id="Сгруппировать_3349" data-name="Сгруппировать 3349" transform="translate(34 10.554)">
    <text id="Lets_rock" data-name="Lets rock" transform="translate(0 19.446)" fill="#e7335d" font-size="16" font-family="WombyRUSbyDaymarius, 'Womby \[RUS by Daymarius\]'"><tspan x="0" y="0">LETS ROCK</tspan></text>
    <path id="Контур_1917" data-name="Контур 1917" d="M20.417,4.333A2.917,2.917,0,0,0,17.5,7.25v1.4a2.472,2.472,0,0,0-.833-.153h-.833a2.484,2.484,0,0,0-1.667.65A2.484,2.484,0,0,0,12.5,8.5h-.833a2.472,2.472,0,0,0-.833.153V3.917A2.917,2.917,0,0,0,5,3.917V16.834a9.246,9.246,0,0,0,.184,1.835v0a9.167,9.167,0,0,0,18.151-1.833V7.25A2.917,2.917,0,0,0,20.417,4.333Zm-4.584,5.834h.833A.833.833,0,0,1,17.5,11v4.584a1.25,1.25,0,0,1-2.5,0V11A.833.833,0,0,1,15.834,10.167ZM6.667,16.834v-2.5h5a1.659,1.659,0,0,1,1.119.437A1.624,1.624,0,0,1,13.334,16a1.667,1.667,0,0,1-1.667,1.667H6.713A7.734,7.734,0,0,1,6.667,16.834Zm5-6.667H12.5a.833.833,0,0,1,.833.833v2.115a3.251,3.251,0,0,0-.442-.211c-.038-.016-.078-.026-.116-.04a3.228,3.228,0,0,0-.417-.118c-.05-.011-.1-.022-.149-.03a3.39,3.39,0,0,0-.543-.05h-.833V11A.833.833,0,0,1,11.667,10.167Zm-5-6.25a1.25,1.25,0,0,1,2.5,0v8.75h-2.5Zm15,12.917a7.5,7.5,0,0,1-14.573,2.5h4.573a3.323,3.323,0,0,0,.6-.061c.042-.008.083-.014.124-.023a3.4,3.4,0,0,0,.543-.167c.029-.013.057-.028.083-.04a3.3,3.3,0,0,0,.453-.25c.026-.017.053-.031.078-.048a3.322,3.322,0,0,0,.43-.355l.083-.083a3.277,3.277,0,0,0,.359-.435l0-.006c.035.028.077.05.113.077.054.039.109.076.167.112a2.834,2.834,0,0,0,.293.159c.06.028.119.058.182.083a2.822,2.822,0,0,0,.346.108c.057.015.112.034.167.045a2.9,2.9,0,0,0,3.472-2.865V7.25a1.25,1.25,0,0,1,2.5,0Z" transform="translate(87.269 -1)" fill="#e7335d"/>
  </g>
</svg> -->
<svg xmlns="http://www.w3.org/2000/svg" width="178" height="45" viewBox="0 0 178 45">
  <g id="Сгруппировать_3428" data-name="Сгруппировать 3428" transform="translate(-4411 -9543)">
    <g id="hand2" transform="translate(4411 9543)">
      <rect id="Прямоугольник_165" data-name="Прямоугольник 165" width="178" height="45" fill="#fed841"/>
      <g id="Сгруппировать_3349" data-name="Сгруппировать 3349" transform="translate(34 10.554)">
        <path id="Lets_rock" data-name="Lets rock" d="M3.52-2.72H7.968V0H.64V-11.312H3.52Zm13.264.272V0h-7.7V-11.312H16.64v2.448H11.984V-6.88H15.9v2.448h-3.92v1.984Zm9.808-8.864v2.88H23.7V0H20.8V-8.432H17.9v-2.88h8.688ZM32.88-7.728v-.208a1,1,0,0,0-.392-.792,1.434,1.434,0,0,0-.952-.328,1.521,1.521,0,0,0-.984.328.986.986,0,0,0-.408.792.733.733,0,0,0,.416.688,3.481,3.481,0,0,0,1.088.448q.112.016.248.048l.28.064a5.543,5.543,0,0,1,2.288.944l.144.128a3.428,3.428,0,0,1,.76,1.1,3.171,3.171,0,0,1,.28,1.28,3.166,3.166,0,0,1-.312,1.376,3.561,3.561,0,0,1-.9,1.168,4.281,4.281,0,0,1-1.344.76A4.7,4.7,0,0,1,31.52.336,4.63,4.63,0,0,1,29.96.072a4.3,4.3,0,0,1-1.336-.76,3.66,3.66,0,0,1-.912-1.168,3.1,3.1,0,0,1-.32-1.376V-3.44h2.8v.208a1,1,0,0,0,.392.792,1.412,1.412,0,0,0,.936.328A1.521,1.521,0,0,0,32.5-2.44a.986.986,0,0,0,.408-.792.923.923,0,0,0-.432-.7,1.788,1.788,0,0,0-.448-.24,6.431,6.431,0,0,0-.624-.192L30.88-4.5Q30-4.72,29.5-4.9a2.764,2.764,0,0,1-.912-.544L28.528-5.5a3.6,3.6,0,0,1-.84-1.12,3.025,3.025,0,0,1-.3-1.312,3.1,3.1,0,0,1,.32-1.376,3.66,3.66,0,0,1,.912-1.168,4.3,4.3,0,0,1,1.336-.76,4.63,4.63,0,0,1,1.56-.264,4.7,4.7,0,0,1,1.568.264,4.281,4.281,0,0,1,1.344.76,3.561,3.561,0,0,1,.9,1.168,3.166,3.166,0,0,1,.312,1.376v.208ZM50.64,0h-2.9L45.952-4.272h-1.84V0h-2.7V-11.312H46.8a3.456,3.456,0,0,1,1.76.472,3.471,3.471,0,0,1,1.288,1.288,3.456,3.456,0,0,1,.472,1.76A3.413,3.413,0,0,1,49.888-6.1,3.659,3.659,0,0,1,48.72-4.832ZM47.76-7.808a1.181,1.181,0,0,0-.3-.808,1.072,1.072,0,0,0-.752-.376H44.048v2.4H46.7a1.134,1.134,0,0,0,.752-.392A1.2,1.2,0,0,0,47.76-7.808Zm9.248-3.5a5.568,5.568,0,0,1,2.864.768,5.7,5.7,0,0,1,2.08,2.088,5.611,5.611,0,0,1,.768,2.872,5.569,5.569,0,0,1-.768,2.864,5.72,5.72,0,0,1-2.08,2.08,5.569,5.569,0,0,1-2.864.768A5.611,5.611,0,0,1,54.136-.64a5.7,5.7,0,0,1-2.088-2.08,5.568,5.568,0,0,1-.768-2.864,5.611,5.611,0,0,1,.768-2.872,5.682,5.682,0,0,1,2.088-2.088A5.611,5.611,0,0,1,57.008-11.312Zm0,8.672a2.825,2.825,0,0,0,1.472-.4,3.036,3.036,0,0,0,1.072-1.072,2.825,2.825,0,0,0,.4-1.472,2.867,2.867,0,0,0-.4-1.48,3.015,3.015,0,0,0-1.072-1.08,2.825,2.825,0,0,0-1.472-.4,2.867,2.867,0,0,0-1.48.4,3,3,0,0,0-1.08,1.08,2.867,2.867,0,0,0-.4,1.48,2.825,2.825,0,0,0,.4,1.472,3.015,3.015,0,0,0,1.08,1.072A2.867,2.867,0,0,0,57.008-2.64Zm12.064-.032A2.867,2.867,0,0,0,70.208-2.9a3.161,3.161,0,0,0,.96-.632L73.12-1.584a5.743,5.743,0,0,1-1.84,1.24A5.608,5.608,0,0,1,69.072.1a5.568,5.568,0,0,1-2.864-.768,5.72,5.72,0,0,1-2.08-2.08,5.568,5.568,0,0,1-.768-2.864,5.611,5.611,0,0,1,.768-2.872,5.7,5.7,0,0,1,2.08-2.088,5.568,5.568,0,0,1,2.864-.768,5.608,5.608,0,0,1,2.208.44,5.744,5.744,0,0,1,1.84,1.24L71.168-7.712a3.161,3.161,0,0,0-.96-.632,2.867,2.867,0,0,0-1.136-.232,2.825,2.825,0,0,0-1.472.4A3.015,3.015,0,0,0,66.528-7.1a2.867,2.867,0,0,0-.4,1.48,2.825,2.825,0,0,0,.4,1.472A3.035,3.035,0,0,0,67.6-3.072,2.825,2.825,0,0,0,69.072-2.672Zm10.5-3.04L82.944,0h-3.2L76.96-4.56V0H74.08V-11.312h2.88V-6.9l2.784-4.416h3.2Z" transform="translate(0 19.446)" fill="#e7335d"/>
        <path id="Контур_1917" data-name="Контур 1917" d="M20.417,4.333A2.917,2.917,0,0,0,17.5,7.25v1.4a2.472,2.472,0,0,0-.833-.153h-.833a2.484,2.484,0,0,0-1.667.65A2.484,2.484,0,0,0,12.5,8.5h-.833a2.472,2.472,0,0,0-.833.153V3.917A2.917,2.917,0,1,0,5,3.917V16.834a9.245,9.245,0,0,0,.184,1.835h0a9.167,9.167,0,0,0,18.151-1.833V7.25A2.917,2.917,0,0,0,20.417,4.333Zm-4.584,5.834h.833A.833.833,0,0,1,17.5,11v4.584a1.25,1.25,0,0,1-2.5,0V11a.833.833,0,0,1,.834-.833ZM6.667,16.834v-2.5h5a1.659,1.659,0,0,1,1.119.437A1.624,1.624,0,0,1,13.334,16a1.667,1.667,0,0,1-1.667,1.667H6.713A7.734,7.734,0,0,1,6.667,16.834Zm5-6.667H12.5a.833.833,0,0,1,.833.833v2.115a3.251,3.251,0,0,0-.442-.211c-.038-.016-.078-.026-.116-.04a3.228,3.228,0,0,0-.417-.118c-.05-.011-.1-.022-.149-.03a3.39,3.39,0,0,0-.543-.05h-.833V11a.833.833,0,0,1,.834-.833Zm-5-6.25a1.25,1.25,0,0,1,2.5,0v8.75h-2.5Zm15,12.917a7.5,7.5,0,0,1-14.573,2.5h4.573a3.323,3.323,0,0,0,.6-.061c.042-.008.083-.014.124-.023a3.4,3.4,0,0,0,.543-.167l.083-.04a3.3,3.3,0,0,0,.453-.25c.026-.017.053-.031.078-.048a3.322,3.322,0,0,0,.43-.355l.083-.083a3.277,3.277,0,0,0,.359-.435v-.006c.035.028.077.05.113.077.054.039.109.076.167.112a2.834,2.834,0,0,0,.293.159c.06.028.119.058.182.083a2.822,2.822,0,0,0,.346.108c.057.015.112.034.167.045a2.9,2.9,0,0,0,3.472-2.865V7.25a1.25,1.25,0,0,1,2.5,0Z" transform="translate(87.269 -1)" fill="#e7335d"/>
      </g>
    </g>
  </g>
</svg>

