<svg xmlns="http://www.w3.org/2000/svg" width="54.788" height="96.683" viewBox="0 0 54.788 96.683">
  <g id="Сгруппировать_5" data-name="Сгруппировать 5" transform="translate(0 0)">
    <ellipse id="Эллипс_1" data-name="Эллипс 1" cx="25.598" cy="8.084" rx="25.598" ry="8.084" transform="translate(1.796 22.457)" fill="#fff"/>
    <path id="Контур_31" data-name="Контур 31" d="M787.274,1451.89c1.8-2.695,8.083-10.778,8.083-17.964,0-4.96-12.264-8.981-27.394-8.981s-27.395,4.021-27.395,8.981a3.021,3.021,0,0,0,.043.491,2.357,2.357,0,0,0-.043.407,27.107,27.107,0,0,0,4.491,14.371c2.695,5.39,24.25,17.964,26.047,25.149.618,2.471-3.446,7-4.332,7.92a2.1,2.1,0,0,1-.306.261c-.766.541-4.247,3.378-3.446,9.782.548,4.391,1.433,6.434,2.653,7.359a2.15,2.15,0,0,0,3.364-1.74c.065-2.207,1.061-8.853,6.557-11.906,7.388-4.1,11.676-5.39,13.6-8.287a9.649,9.649,0,0,0-.865-11.25C784.58,1461.769,785.5,1454.552,787.274,1451.89Zm-19.31-9.88c-14.138,0-25.6-3.619-25.6-8.083s11.461-8.083,25.6-8.083,25.6,3.62,25.6,8.083S782.1,1442.01,767.964,1442.01Z" transform="translate(-740.569 -1403.386)"/>
    <g id="Компонент_18_9" data-name="Компонент 18 – 9" transform="translate(13.216)">
      <path id="Контур_32" data-name="Контур 32" d="M781.068,1422.675c-1.521-4.6-3.579-7.2-8.067-7.2-1.836,0-3.523-3.078-6.286-5.378a40.187,40.187,0,0,0-8.994-5.4,117.836,117.836,0,0,1,2.708,11.684c1,6.194,1,11.665-.909,11.665-2.69,0-2.69-11.665-2.69-11.665s-5.025,16.542-3.6,17.952a7.918,7.918,0,0,0,1.651,1.169,14.222,14.222,0,0,0,3.561,1.39,29.253,29.253,0,0,0,3.963.788l.023,0c2.977.739,11.422-.17,15.485-1.695l.005,0a4.238,4.238,0,0,0,.625-.22,2.791,2.791,0,0,0,1.632-1.427A15.332,15.332,0,0,0,781.068,1422.675Z" transform="translate(-752.976 -1404.705)" fill="#e7335d"/>
    </g>
    <path id="Контур_33" data-name="Контур 33" d="M778.034,1434.315a.672.672,0,0,1-.464.741c-4.181,1.568-13.015,2.491-15.745,1.632-3.543-1.632-3.543-7.77-3.543-7.77a9.978,9.978,0,0,0,7.029,3.523,2.575,2.575,0,0,0,2.69-1.669c.593-1.335.631-3.449.148-6.342a22.011,22.011,0,0,0-1.762-5.378c.13.056.668.315,1.41.723h.018a30,30,0,0,1,3.041,1.965,12.387,12.387,0,0,1,4.3,4.9v.018c.242.5.464,1,.742,1.558A18.914,18.914,0,0,1,778.034,1434.315Z" transform="translate(-739.415 -1403.77)" fill="#fed841"/>
  </g>
</svg>

