<svg xmlns="http://www.w3.org/2000/svg"  viewBox="0 0 1003.006 202.463">
  <g id="Сгруппировать_6" data-name="Сгруппировать 6" transform="translate(0 -1404.705)">
    <g id="Сгруппировать_2" data-name="Сгруппировать 2" transform="translate(0.703 1555.058)">
      <path id="Контур_1" data-name="Контур 1" d="M31.663,1561.767a14.384,14.384,0,0,0,4.362-2.872l8.866,8.868a26.132,26.132,0,0,1-8.357,5.633,25.477,25.477,0,0,1-10.031,2,25.3,25.3,0,0,1-13.009-3.488,25.99,25.99,0,0,1-9.449-9.449,26.058,26.058,0,0,1,0-26.055,25.881,25.881,0,0,1,9.449-9.483,25.282,25.282,0,0,1,13.009-3.49,25.5,25.5,0,0,1,10.031,2,26.168,26.168,0,0,1,8.357,5.632l-8.866,8.868a14.454,14.454,0,0,0-4.362-2.872A13.065,13.065,0,0,0,26.5,1536a12.852,12.852,0,0,0-6.687,1.816,13.7,13.7,0,0,0-4.867,4.906,13.011,13.011,0,0,0-1.82,6.723,12.823,12.823,0,0,0,1.82,6.687A13.776,13.776,0,0,0,19.816,1561a12.828,12.828,0,0,0,6.687,1.817A13.045,13.045,0,0,0,31.663,1561.767Z" transform="translate(-0.555 -1523.429)" fill="#fff"/>
      <path id="Контур_2" data-name="Контур 2" d="M80.939,1574.927H67.785l-8.138-19.405h-8.36v19.405H39.006v-51.382H63.5a15.992,15.992,0,0,1,15.99,15.989,15.493,15.493,0,0,1-1.963,7.668,16.6,16.6,0,0,1-5.305,5.776Zm-14.461-39.136a4.87,4.87,0,0,0-3.416-1.708H51v10.9H63.063a5.149,5.149,0,0,0,3.416-1.779,5.466,5.466,0,0,0,1.382-3.743A5.37,5.37,0,0,0,66.478,1535.791Z" transform="translate(9.689 -1523.398)" fill="#fff"/>
      <path id="Контур_3" data-name="Контур 3" d="M103.5,1523.545h13.08L101.464,1554v20.931H88.384V1554l-15.117-30.451H86.349l8.576,17.514Z" transform="translate(18.816 -1523.398)" fill="#fff"/>
      <path id="Контур_4" data-name="Контур 4" d="M142.289,1525.689a15.949,15.949,0,0,1,5.814,5.814,16.119,16.119,0,0,1,0,16.061,15.959,15.959,0,0,1-5.814,5.814,15.646,15.646,0,0,1-8.033,2.144H122.047v19.405H109.765v-51.382h24.491A15.645,15.645,0,0,1,142.289,1525.689Zm-5.016,10.1a4.99,4.99,0,0,0-3.451-1.708H121.757v10.9h12.065a4.891,4.891,0,0,0,3.451-1.779,5.538,5.538,0,0,0,1.417-3.743A5.275,5.275,0,0,0,137.273,1535.791Z" transform="translate(28.54 -1523.398)" fill="#fff"/>
      <path id="Контур_5" data-name="Контур 5" d="M184.062,1523.545v13.081H170.909v38.3H157.755v-38.3H144.6v-13.081h39.464Z" transform="translate(37.82 -1523.398)" fill="#fff"/>
      <path id="Контур_6" data-name="Контур 6" d="M217.659,1527.033a25.933,25.933,0,0,1,9.449,9.484,26.081,26.081,0,0,1,0,26.054,26,26,0,0,1-9.449,9.449,26.077,26.077,0,0,1-26.056,0,25.91,25.91,0,0,1-9.483-9.449,26.08,26.08,0,0,1,0-26.054,25.844,25.844,0,0,1,9.483-9.484,26.078,26.078,0,0,1,26.056,0Zm-6.322,34.086a13.768,13.768,0,0,0,4.867-4.869,12.816,12.816,0,0,0,1.82-6.687,13.02,13.02,0,0,0-1.82-6.723,13.7,13.7,0,0,0-4.867-4.9,12.84,12.84,0,0,0-6.687-1.816,13.037,13.037,0,0,0-6.725,1.816,13.607,13.607,0,0,0-4.9,4.9,13.031,13.031,0,0,0-1.819,6.723,12.827,12.827,0,0,0,1.819,6.687,13.679,13.679,0,0,0,4.9,4.869,13.024,13.024,0,0,0,6.725,1.817A12.828,12.828,0,0,0,211.337,1561.118Z" transform="translate(46.887 -1523.398)" fill="#fff"/>
      <path id="Контур_7" data-name="Контур 7" d="M279.932,1523.545h13.082v51.382H279.932v-29l-6.4,11.629-.29.581H260.162l-.363-.581-.873-1.672-5.449-9.958v29H240.322v-51.382h13.154L266.7,1545.42Z" transform="translate(63.322 -1523.398)" fill="#fff"/>
      <path id="Контур_8" data-name="Контур 8" d="M314.181,1523.946l16.788,50.874H318.323l-3.345-10.394H299.064l-3.271,10.394H283.074l16.862-50.874Zm-11.7,29.87h9.159l-4.578-14.389Z" transform="translate(74.711 -1523.291)" fill="#fff"/>
      <path id="Контур_9" data-name="Контур 9" d="M363.973,1574.927H350.819l-8.138-19.405h-8.36v19.405H322.04v-51.382h24.492a15.993,15.993,0,0,1,15.99,15.989,15.494,15.494,0,0,1-1.964,7.668,16.6,16.6,0,0,1-5.3,5.776Zm-14.461-39.136a4.87,4.87,0,0,0-3.415-1.708H334.032v10.9H346.1a5.149,5.149,0,0,0,3.415-1.779,5.46,5.46,0,0,0,1.382-3.743A5.365,5.365,0,0,0,349.512,1535.791Z" transform="translate(85.092 -1523.398)" fill="#fff"/>
      <path id="Контур_10" data-name="Контур 10" d="M383.527,1548.981l15.332,25.946H384.324l-12.645-20.714v20.714H358.6v-51.382h13.083V1543.6l12.645-20.057h14.535Z" transform="translate(94.831 -1523.398)" fill="#fff"/>
      <path id="Контур_11" data-name="Контур 11" d="M429.938,1563.808v11.119H394.98v-51.382h34.3v11.119h-21.15v9.012H425.94v11.119H408.134v9.013Z" transform="translate(104.525 -1523.398)" fill="#fff"/>
      <path id="Контур_12" data-name="Контур 12" d="M466.064,1523.545v13.081H452.911v38.3H439.757v-38.3H426.6v-13.081h39.464Z" transform="translate(112.949 -1523.398)" fill="#fff"/>
      <path id="Контур_13" data-name="Контур 13" d="M474.861,1523.545v51.382H461.779v-51.382Z" transform="translate(122.321 -1523.398)" fill="#fff"/>
      <path id="Контур_14" data-name="Контур 14" d="M504.971,1523.545h13.083v51.382H504.971l-15.117-27.546v27.546H476.7v-51.382h13.154l15.117,27.543Z" transform="translate(126.296 -1523.398)" fill="#fff"/>
      <path id="Контур_15" data-name="Контур 15" d="M564.758,1549.506a25.288,25.288,0,0,1-3.487,13.009,25.913,25.913,0,0,1-9.484,9.449,26.074,26.074,0,0,1-26.055,0,25.981,25.981,0,0,1-9.449-9.449,26.081,26.081,0,0,1,0-26.054,25.9,25.9,0,0,1,9.449-9.484,25.284,25.284,0,0,1,13.009-3.49,25.694,25.694,0,0,1,18.459,7.7l-11.7,6.687a12.985,12.985,0,0,0-6.76-1.816,12.852,12.852,0,0,0-6.687,1.816,13.71,13.71,0,0,0-4.867,4.906,13.018,13.018,0,0,0-1.82,6.723,12.816,12.816,0,0,0,1.82,6.687,13.791,13.791,0,0,0,4.867,4.869,12.839,12.839,0,0,0,6.687,1.816,13.032,13.032,0,0,0,7.05-2,13.617,13.617,0,0,0,4.942-5.342H534.6v-12.065h29.437A28.089,28.089,0,0,1,564.758,1549.506Z" transform="translate(135.912 -1523.414)" fill="#fff"/>
      <path id="Контур_16" data-name="Контур 16" d="M602.149,1523.946l16.789,50.874H606.293l-3.345-10.394H587.032l-3.271,10.394H571.042l16.862-50.874Zm-11.7,29.87h9.159l-4.578-14.389Z" transform="translate(151.43 -1523.291)" fill="#fff"/>
      <path id="Контур_17" data-name="Контур 17" d="M660.826,1549.506a25.3,25.3,0,0,1-3.486,13.009,25.923,25.923,0,0,1-9.484,9.449,26.077,26.077,0,0,1-26.056,0,25.99,25.99,0,0,1-9.449-9.449,26.081,26.081,0,0,1,0-26.054,25.905,25.905,0,0,1,9.449-9.484,25.287,25.287,0,0,1,13.009-3.49,25.694,25.694,0,0,1,18.459,7.7l-11.7,6.687a13.354,13.354,0,0,0-13.447,0,13.71,13.71,0,0,0-4.867,4.906,13.016,13.016,0,0,0-1.819,6.723,12.814,12.814,0,0,0,1.819,6.687,13.79,13.79,0,0,0,4.867,4.869,12.842,12.842,0,0,0,6.687,1.816,13.033,13.033,0,0,0,7.05-2,13.607,13.607,0,0,0,4.942-5.342H630.665v-12.065H660.1A28.17,28.17,0,0,1,660.826,1549.506Z" transform="translate(161.506 -1523.414)" fill="#fff"/>
      <path id="Контур_18" data-name="Контур 18" d="M688.294,1563.808v11.119H653.337v-51.382h34.3v11.119H666.49v9.012H684.3v11.119H666.49v9.013Z" transform="translate(173.354 -1523.398)" fill="#fff"/>
      <path id="Контур_19" data-name="Контур 19" d="M713.8,1523.545h13.083v51.382H713.8l-15.117-27.546v27.546H685.531v-51.382h13.154l15.117,27.543Z" transform="translate(181.931 -1523.398)" fill="#fff"/>
      <path id="Контур_20" data-name="Контур 20" d="M752.734,1561.767a14.383,14.383,0,0,0,4.362-2.872l8.866,8.868a26.132,26.132,0,0,1-8.357,5.633,26.078,26.078,0,0,1-23.04-1.489,25.991,25.991,0,0,1-9.449-9.449,26.083,26.083,0,0,1,0-26.055,25.881,25.881,0,0,1,9.449-9.483,26.06,26.06,0,0,1,23.04-1.491,26.168,26.168,0,0,1,8.357,5.632l-8.866,8.868a14.454,14.454,0,0,0-4.362-2.872,13.065,13.065,0,0,0-5.161-1.052,12.855,12.855,0,0,0-6.687,1.816,13.7,13.7,0,0,0-4.867,4.906,13.01,13.01,0,0,0-1.818,6.723,12.822,12.822,0,0,0,1.818,6.687,13.776,13.776,0,0,0,4.867,4.868,12.831,12.831,0,0,0,6.687,1.817A13.045,13.045,0,0,0,752.734,1561.767Z" transform="translate(191.548 -1523.429)" fill="#fff"/>
      <path id="Контур_21" data-name="Контур 21" d="M788.018,1523.545H801.1L785.98,1554v20.931H772.9V1554l-15.118-30.451h13.083l8.576,17.514Z" transform="translate(201.179 -1523.398)" fill="#fff"/>
    </g>
    <g id="Сгруппировать_4" data-name="Сгруппировать 4" transform="translate(0 1405.122)">
      <g id="Сгруппировать_3" data-name="Сгруппировать 3">
        <path id="Контур_22" data-name="Контур 22" d="M91.069,1406.045h24.967V1519.2H87.227L58.1,1471.026,28.81,1519.2H0V1406.045H28.81v63.86L42.893,1444.3l.8-1.28H72.5l.64,1.28,14.084,25.608v-63.86Z" transform="translate(0 -1404.765)" fill="#fff"/>
        <path id="Контур_23" data-name="Контур 23" d="M140.907,1406.045V1519.2H112.1V1406.045Z" transform="translate(29.865 -1404.765)" fill="#fff"/>
        <path id="Контур_24" data-name="Контур 24" d="M217.579,1406.045h28.81V1519.2h-28.81l-33.29-60.658V1519.2H155.32V1406.045h28.969l33.29,60.658Z" transform="translate(41.379 -1404.765)" fill="#fff"/>
        <path id="Контур_25" data-name="Контур 25" d="M297.319,1405.914A66.831,66.831,0,0,1,314.363,1410a49.023,49.023,0,0,1,15.6,9.763,56.161,56.161,0,0,1,13.844,19.446,58.109,58.109,0,0,1,4.882,23.288,55.076,55.076,0,0,1-6.242,26.088q-6.884,13.124-17.526,20.005a61.46,61.46,0,0,1-23.047,9.043,168.039,168.039,0,0,1-28.568,2.161l-13.124-.16q-4.164-.163-12.484-.161V1405.034h28.968Q288.675,1405.034,297.319,1405.914Zm23.847,56.578a29,29,0,0,0-3.841-14.485,30.4,30.4,0,0,0-10.483-10.963,27.889,27.889,0,0,0-14.484-4.321H276.671v59.058a123.3,123.3,0,0,0,19.766-1.36,33.636,33.636,0,0,0,14.885-6.322q6.639-4.958,9.043-14.884A31.965,31.965,0,0,0,321.165,1462.492Z" transform="translate(65.991 -1405.034)" fill="#fff"/>
        <path id="Контур_26" data-name="Контур 26" d="M407.653,1406.045h28.81V1519.2h-28.81l-33.29-60.658V1519.2H345.394V1406.045h28.969l33.29,60.658Z" transform="translate(92.017 -1404.765)" fill="#fff"/>
        <path id="Контур_27" data-name="Контур 27" d="M516.521,1430.532H466.585v19.847H506.6v24.487H466.585V1519.2H437.777V1406.045h78.744Z" transform="translate(116.629 -1404.765)" fill="#fff"/>
        <path id="Контур_28" data-name="Контур 28" d="M546.71,1406.045V1519.2H517.9V1406.045Z" transform="translate(137.975 -1404.765)" fill="#fff"/>
        <path id="Контур_29" data-name="Контур 29" d="M653.47,1519.2H624.5l-17.927-42.733h-18.4V1519.2H561.122V1406.045h53.937a35.22,35.22,0,0,1,35.21,35.211,34.139,34.139,0,0,1-4.321,16.885,36.59,36.59,0,0,1-11.684,12.725Zm-31.849-86.187a10.735,10.735,0,0,0-7.522-3.76H587.529v24.008H614.1a11.347,11.347,0,0,0,7.522-3.922,12.033,12.033,0,0,0,3.041-8.243A11.832,11.832,0,0,0,621.621,1433.013Z" transform="translate(149.49 -1404.765)" fill="#fff"/>
        <path id="Контур_30" data-name="Контур 30" d="M728.973,1494.713V1519.2H651.989V1406.045h75.543v24.487H680.958v19.847H720.17v24.487H680.958v19.846Z" transform="translate(173.698 -1404.765)" fill="#fff"/>
      </g>
    </g>
   
  </g>
</svg>
