<svg xmlns="http://www.w3.org/2000/svg"  viewBox="0 0 480 1080">
  <g id="Сгруппировать_183" data-name="Сгруппировать 183">
    <g id="Path_1885" data-name="Path 1885" fill="#e7335d" stroke-dasharray="36 35">
      <path d="M0,0H480V1080H0Z" stroke="none"/>
      <path d="M 0 0 L 36 0 L 36 10 L 0 10 L 0 0 Z M 71 0 L 107 0 L 107 10 L 71 10 L 71 0 Z M 142 0 L 178 0 L 178 10 L 142 10 L 142 0 Z M 213 0 L 249 0 L 249 10 L 213 10 L 213 0 Z M 284 0 L 320 0 L 320 10 L 284 10 L 284 0 Z M 355 0 L 391 0 L 391 10 L 355 10 L 355 0 Z M 426 0 L 462 0 L 462 10 L 426 10 L 426 0 Z M 470 17 L 480 17 C 480 17 480 53 480 53 L 470 53 L 470 17 Z M 470 88 L 480 88 C 480 88 480 124 480 124 L 470 124 L 470 88 Z M 470 159 L 480 159 C 480 159 480 195 480 195 L 470 195 L 470 159 Z M 470 230 L 480 230 C 480 230 480 266 480 266 L 470 266 L 470 230 Z M 470 301 L 480 301 C 480 301 480 337 480 337 L 470 337 L 470 301 Z M 470 372 L 480 372 C 480 372 480 408 480 408 L 470 408 L 470 372 Z M 470 443 L 480 443 C 480 443 480 479 480 479 L 470 479 L 470 443 Z M 470 514 L 480 514 C 480 514 480 550 480 550 L 470 550 L 470 514 Z M 470 585 L 480 585 C 480 585 480 621 480 621 L 470 621 L 470 585 Z M 470 656 L 480 656 C 480 656 480 692 480 692 L 470 692 L 470 656 Z M 470 727 L 480 727 C 480 727 480 763 480 763 L 470 763 L 470 727 Z M 470 798 L 480 798 C 480 798 480 834 480 834 L 470 834 L 470 798 Z M 470 869 L 480 869 C 480 869 480 905 480 905 L 470 905 L 470 869 Z M 470 940 L 480 940 C 480 940 480 976 480 976 L 470 976 L 470 940 Z M 470 1011 L 480 1011 C 480 1011 480 1047 480 1047 L 470 1047 L 470 1011 Z M 442 1070 L 478 1070 L 478 1080 C 478 1080 442 1080 442 1080 L 442 1070 Z M 371 1070 L 407 1070 L 407 1080 C 407 1080 371 1080 371 1080 L 371 1070 Z M 300 1070 L 336 1070 L 336 1080 C 336 1080 300 1080 300 1080 L 300 1070 Z M 229 1070 L 265 1070 L 265 1080 C 265 1080 229 1080 229 1080 L 229 1070 Z M 158 1070 L 194 1070 L 194 1080 C 194 1080 158 1080 158 1080 L 158 1070 Z M 87 1070 L 123 1070 L 123 1080 C 123 1080 87 1080 87 1080 L 87 1070 Z M 16 1070 L 52 1070 L 52 1080 C 52 1080 16 1080 16 1080 L 16 1070 Z M 0 1025 L 10 1025 L 10 1061 L 0 1061 L 0 1025 Z M 0 954 L 10 954 L 10 990 L 0 990 L 0 954 Z M 0 883 L 10 883 L 10 919 L 0 919 L 0 883 Z M 0 812 L 10 812 L 10 848 L 0 848 L 0 812 Z M 0 741 L 10 741 L 10 777 L 0 777 L 0 741 Z M 0 670 L 10 670 L 10 706 L 0 706 L 0 670 Z M 0 599 L 10 599 L 10 635 L 0 635 L 0 599 Z M 0 528 L 10 528 L 10 564 L 0 564 L 0 528 Z M 0 457 L 10 457 L 10 493 L 0 493 L 0 457 Z M 0 386 L 10 386 L 10 422 L 0 422 L 0 386 Z M 0 315 L 10 315 L 10 351 L 0 351 L 0 315 Z M 0 244 L 10 244 L 10 280 L 0 280 L 0 244 Z M 0 173 L 10 173 L 10 209 L 0 209 L 0 173 Z M 0 102 L 10 102 L 10 138 L 0 138 L 0 102 Z M 0 31 L 10 31 L 10 67 L 0 67 L 0 31 Z" stroke="none" fill="#fed841"/>
    </g>
  </g>
  <path id="Прямоугольник_130" data-name="Прямоугольник 130" d="M0,0H91V83H0Z" fill="#fed841"/>
</svg>


