<svg id="Сгруппировать_5" data-name="Сгруппировать 5" xmlns="http://www.w3.org/2000/svg" width="38.813" height="68.492" viewBox="0 0 38.813 68.492">
  <ellipse id="Эллипс_1" data-name="Эллипс 1" cx="18.134" cy="5.727" rx="18.134" ry="5.727" transform="translate(1.273 15.909)"/>
  <path id="Контур_31" data-name="Контур 31" d="M773.655,1444.033c1.273-1.909,5.726-7.635,5.726-12.726,0-3.514-8.688-6.363-19.406-6.363s-19.407,2.848-19.407,6.363a2.137,2.137,0,0,0,.03.348,1.668,1.668,0,0,0-.03.288,19.2,19.2,0,0,0,3.181,10.181c1.909,3.818,17.179,12.726,18.452,17.816.438,1.751-2.441,4.959-3.069,5.611a1.5,1.5,0,0,1-.217.185c-.542.383-3.008,2.393-2.441,6.93.389,3.11,1.015,4.558,1.88,5.213a1.523,1.523,0,0,0,2.383-1.233c.046-1.563.752-6.271,4.645-8.435,5.234-2.907,8.272-3.818,9.631-5.87a6.835,6.835,0,0,0-.613-7.97A10.016,10.016,0,0,1,773.655,1444.033Zm-13.68-7c-10.015,0-18.135-2.564-18.135-5.726s8.119-5.727,18.135-5.727,18.134,2.564,18.134,5.727S769.99,1437.034,759.976,1437.034Z" transform="translate(-740.569 -1409.673)" fill="#fff"/>
  <g id="Компонент_18_6" data-name="Компонент 18 – 6" transform="translate(9.362)">
    <path id="Контур_32" data-name="Контур 32" d="M772.877,1417.435c-1.078-3.258-2.535-5.1-5.715-5.1-1.3,0-2.5-2.181-4.453-3.81a28.474,28.474,0,0,0-6.372-3.823,83.485,83.485,0,0,1,1.918,8.277c.709,4.388.709,8.263-.644,8.263-1.905,0-1.905-8.263-1.905-8.263s-3.56,11.719-2.549,12.717a5.608,5.608,0,0,0,1.17.828,10.065,10.065,0,0,0,2.523.985,20.711,20.711,0,0,0,2.808.558l.017,0c2.109.524,8.091-.121,10.97-1.2l0,0a3.008,3.008,0,0,0,.443-.156,1.977,1.977,0,0,0,1.156-1.011A10.862,10.862,0,0,0,772.877,1417.435Z" transform="translate(-752.976 -1404.705)" fill="#e7335d"/>
  </g>
  <path id="Контур_33" data-name="Контур 33" d="M772.275,1429.864a.476.476,0,0,1-.329.525c-2.962,1.111-9.22,1.765-11.154,1.156-2.51-1.156-2.51-5.5-2.51-5.5a7.068,7.068,0,0,0,4.979,2.5,1.824,1.824,0,0,0,1.905-1.182,8.424,8.424,0,0,0,.1-4.493,15.6,15.6,0,0,0-1.248-3.81c.092.039.473.223,1,.512h.013a21.278,21.278,0,0,1,2.154,1.392,8.775,8.775,0,0,1,3.048,3.469v.013c.171.355.329.709.526,1.1A13.4,13.4,0,0,1,772.275,1429.864Z" transform="translate(-744.916 -1408.226)" fill="#fed841"/>
</svg>
