<svg xmlns="http://www.w3.org/2000/svg" width="42.267" height="42.267" viewBox="0 0 42.267 42.267">
  <path id="Контур_4071" data-name="Контур 4071" d="M48.745,10H13.522A3.533,3.533,0,0,0,10,13.522V48.745a3.533,3.533,0,0,0,3.522,3.522H48.745a3.533,3.533,0,0,0,3.522-3.522V13.522A3.533,3.533,0,0,0,48.745,10ZM41.972,44.452a1.832,1.832,0,0,1-2.631.968l-7.135-5.8-4.575,4.427a.767.767,0,0,1-.75.107s-.337-.034-.76-1.444-2.559-8.854-2.559-8.854l-7.082-2.53s-1.087-.409-1.19-1.3,1.228-1.377,1.228-1.377l28.15-11.715s2.315-1.078,2.315.707Z" transform="translate(-10 -10)"/>
</svg>
