<svg xmlns="http://www.w3.org/2000/svg" width="105.688" height="89.396" viewBox="0 0 105.688 89.396">
  <path id="telegram" d="M2830.431,1213.552l-94.722,35.865c-5.18,1.5-5.014,6.614-1.183,7.845l23.732,7.407,9.082,27.842c1.1,3.047,2.005,4.2,3.891,4.221,1.981.027,2.74-.7,4.8-2.516,2.409-2.262,6.079-5.823,11.877-11.461l24.687,18.24c4.543,2.506,7.823,1.208,8.954-4.219l15.478-76.562C2838.685,1213.563,2834.776,1211.579,2830.431,1213.552Zm-68.448,49.415,53.959-33.855c2.658-1.783,3.49.206,2.291,1.581l-44.781,40.282-2.3,20.106Z" transform="translate(-2731.727 -1212.825)" fill="#fff"/>
</svg>

