<!-- <svg xmlns="http://www.w3.org/2000/svg" width="43.477" height="43.477" viewBox="0 0 43.477 43.477">
  <g id="youtube__x2C__social__x2C_media__x2C__icons_x2C_" transform="translate(-16 -16)">
    <path id="Контур_4081" data-name="Контур 4081" d="M222.9,205.461v8.5l7.837-4.235-4.3-2.341Z" transform="translate(-188.159 -172.3)" fill-rule="evenodd"/>
    <path id="Контур_4082" data-name="Контур 4082" d="M53.9,16H21.572A5.593,5.593,0,0,0,16,21.572V53.9a5.592,5.592,0,0,0,5.572,5.572H53.9A5.593,5.593,0,0,0,59.477,53.9V21.572A5.593,5.593,0,0,0,53.9,16ZM52.231,37.008v1.871a48.817,48.817,0,0,1-.283,4.9,6.679,6.679,0,0,1-1.148,3,4.054,4.054,0,0,1-2.9,1.283c-4.063.3-10.159.315-10.159.315s-7.544-.074-9.866-.3a4.8,4.8,0,0,1-3.2-1.293,6.672,6.672,0,0,1-1.142-3,49.05,49.05,0,0,1-.282-4.9V36.584a49,49,0,0,1,.282-4.9,6.709,6.709,0,0,1,1.147-3,4,4,0,0,1,2.907-1.258c4.059-.306,10.15-.284,10.15-.284h.013s6.09-.022,10.153.282a4.033,4.033,0,0,1,2.9,1.271,6.643,6.643,0,0,1,1.144,3,48.647,48.647,0,0,1,.283,4.892Z" fill-rule="evenodd"/>
  </g>
</svg> -->
<svg xmlns="http://www.w3.org/2000/svg" width="24" height="24" viewBox="0 0 24 24"><path d="M10 9.333l5.333 2.662-5.333 2.672v-5.334zm14-9.333v24h-24v-24h24zm-4 12c-.02-4.123-.323-5.7-2.923-5.877-2.403-.164-7.754-.163-10.153 0-2.598.177-2.904 1.747-2.924 5.877.02 4.123.323 5.7 2.923 5.877 2.399.163 7.75.164 10.153 0 2.598-.177 2.904-1.747 2.924-5.877z"/></svg>