<svg xmlns="http://www.w3.org/2000/svg" width="42.74" height="43.477" viewBox="0 0 42.74 43.477">
  <path id="Контур_4080" data-name="Контур 4080" d="M55.907,16H18.841A2.868,2.868,0,0,0,16,18.89v37.7a2.868,2.868,0,0,0,2.841,2.89H55.9a2.868,2.868,0,0,0,2.841-2.89V18.89A2.855,2.855,0,0,0,55.907,16Zm-5.86,15.419c-.009.009-.018.009-.018.018.009.145.018.3.018.444.009.163.009.317.009.48a17.675,17.675,0,0,1-17.518,17.82A17.218,17.218,0,0,1,23.454,47.6s5.014.435,8.461-2.827a7.5,7.5,0,0,1-5.637-4.412,8.4,8.4,0,0,0,2.85,0S24.2,38.3,24.318,34.137a9.817,9.817,0,0,0,2.556.725s-4.391-3.08-1.781-8.815c0,0,3.384,6.641,12.646,6.7l.009-.009a6.045,6.045,0,0,1-.1-1.142,6.261,6.261,0,0,1,6.207-6.315,6.127,6.127,0,0,1,4.462,1.93l.045-.027s.365-.1.873-.245a18.662,18.662,0,0,0,2.574-.9,5.976,5.976,0,0,1-2.048,3.035.881.881,0,0,1-.151.1s.062,0,.169-.009a7.663,7.663,0,0,0,3.1-.843A19.558,19.558,0,0,1,50.047,31.419Z" transform="translate(-16 -16)"/>
</svg>
