<svg id="Слой_1" data-name="Слой 1" xmlns="http://www.w3.org/2000/svg" viewBox="0 0 405 405"><defs><style>.cls-1{fill:#010101;}.cls-2{fill:#fed841;}.cls-3{fill:#e7335d;}.cls-4{fill:#fff;}</style></defs><rect class="cls-1" width="405" height="405"/><polygon class="cls-2" points="36.63 231.22 73.45 231.22 78.28 57.85 31.32 57.85 36.63 231.22"/><polygon class="cls-2" points="12.92 80.93 54.8 11.75 96.68 80.93 12.92 80.93"/><circle class="cls-3" cx="121.85" cy="144.52" r="62.08"/><path d="M57.8,189.48l-1.59-2.16,8.5-6.22,1.58,2.17-2.72,5.83,4.55-3.34,1.59,2.18-8.49,6.22L59.63,192l2.72-5.83Z"/><path d="M58.82,175.17l2-1.1L63,178l1.3,2.36-9.21,5.09-1.31-2.36-2.09-3.8,2-1.1,2.09,3.8,1.62-.9-1.77-3.19,2-1.1L59.36,180l1.62-.89Z"/><path d="M47.51,169.16,46.69,167l9.86-3.71.94,2.51-3.24,4.11,5.16,1,.94,2.51-9.85,3.71-.94-2.51.46-.17.19-.07,4.91-1.85-2.7-.39-.13,0-.95-2.51.09-.1,1.77-2.07-4.91,1.85-.59.23-.06,0Z"/><path d="M44.17,154.16l-.39-2.65L54.2,150l.38,2.65-3.89.56.43,3,3.89-.57.38,2.66L45,159.79l-.39-2.65,3.88-.56-.43-3Z"/><path d="M44.32,141.44a5.28,5.28,0,0,1,2-1.92,5.34,5.34,0,0,1,5.34,0,5.33,5.33,0,0,1,1.92,1.94,5.34,5.34,0,0,1,0,5.34,5.23,5.23,0,0,1-2,1.93,5.32,5.32,0,0,1-5.33,0,5.3,5.3,0,0,1-2.64-4.63A5.15,5.15,0,0,1,44.32,141.44Zm7,1.34a2.82,2.82,0,0,0-1-1,2.77,2.77,0,0,0-3.76,1,2.59,2.59,0,0,0-.38,1.37,2.7,2.7,0,0,0,.37,1.38,2.74,2.74,0,0,0,1,1,2.78,2.78,0,0,0,1.38.38,2.61,2.61,0,0,0,1.37-.37,2.74,2.74,0,0,0,1-1,2.53,2.53,0,0,0,.38-1.37A2.49,2.49,0,0,0,51.29,142.78Z"/><path d="M52.19,135.3l.59-4.1,2.51.36-1,6.75-2.65-.38-7.77-1.11.38-2.65Z"/><path d="M46.41,123.58a6.41,6.41,0,0,1,.79-1.42A4.53,4.53,0,0,1,48.46,121a5.42,5.42,0,0,1,4.3-.62,5.11,5.11,0,0,1,2.18,1.2,4.79,4.79,0,0,1,1.36,2.07,5.56,5.56,0,0,1,.24,2.29,14.81,14.81,0,0,1-.51,2.62l-.34,1.17c-.08.25-.19.62-.32,1.11L45.1,128l.72-2.6C46,124.7,46.22,124.09,46.41,123.58Zm5.67-.73a2.77,2.77,0,0,0-1.4,0,2.84,2.84,0,0,0-1.24.67,2.63,2.63,0,0,0-.75,1.19l-.38,1.41,5.29,1.46a12.29,12.29,0,0,0,.37-1.8,3.18,3.18,0,0,0-.2-1.5,2.41,2.41,0,0,0-1.11-1.18A3.66,3.66,0,0,0,52.08,122.85Z"/><path d="M58.84,113.78l2.09.89-1.74,4.11-1,2.48-9.69-4.11,1-2.48,1.69-4,2.1.89-1.69,4,1.69.72,1.43-3.36,2.1.89-1.43,3.36,1.7.72Z"/><path d="M65.62,106.47l-1.36,2.33L60,108.23l-.87,1.48,3.43,2-1.27,2.17-9.08-5.31.51-.87.76-1.3,1.26-2.16a3.26,3.26,0,0,1,2.84-1.62,3.23,3.23,0,0,1,2.79,1.58,3.52,3.52,0,0,1,.48,1.54ZM57.2,105a1,1,0,0,0-.65.42l-1.25,2.14,1.93,1.13,1.24-2.14a1,1,0,0,0,0-.79,1.11,1.11,0,0,0-.52-.63A1.09,1.09,0,0,0,57.2,105Z"/><path d="M63.24,97.82l-.16-.12a.9.9,0,0,0-.8-.16,1.35,1.35,0,0,0-.79.51,1.45,1.45,0,0,0-.31.91.88.88,0,0,0,.35.75.67.67,0,0,0,.74.09,3.19,3.19,0,0,0,.95-.55l.18-.15.2-.17a5.27,5.27,0,0,1,2-1.16l.17,0a3.12,3.12,0,0,1,1.25.07,2.87,2.87,0,0,1,1.1.52,2.94,2.94,0,0,1,.84,1,3.45,3.45,0,0,1,.35,1.33,3.86,3.86,0,0,1-.21,1.42,4.23,4.23,0,0,1-.69,1.31,4.45,4.45,0,0,1-1.08,1A4,4,0,0,1,66,105a3.38,3.38,0,0,1-1.38,0,2.86,2.86,0,0,1-1.2-.55l-.15-.11,1.59-2.07.15.12a.92.92,0,0,0,.81.16,1.28,1.28,0,0,0,.77-.5,1.39,1.39,0,0,0,.32-.91.9.9,0,0,0-.35-.75.88.88,0,0,0-.77-.09,1.83,1.83,0,0,0-.43.2,4.7,4.7,0,0,0-.49.35l-.4.32c-.44.34-.8.61-1.07.78a2.66,2.66,0,0,1-.92.37H62.4a3.34,3.34,0,0,1-1.3,0,2.74,2.74,0,0,1-1.13-.53,2.83,2.83,0,0,1-.84-1,3.49,3.49,0,0,1-.34-1.34A4.07,4.07,0,0,1,59,98a4.41,4.41,0,0,1,.69-1.3,4.32,4.32,0,0,1,1.09-1,3.84,3.84,0,0,1,1.32-.56,3.16,3.16,0,0,1,1.37,0,2.89,2.89,0,0,1,1.19.55l.16.11Z"/><path class="cls-2" d="M186,100.92a5.39,5.39,0,0,1-.43,2.71,5.26,5.26,0,0,1-1.74,2.15,5.17,5.17,0,0,1-2.57,1,5.42,5.42,0,0,1-2.7-.42,5.19,5.19,0,0,1-2.15-1.73,5.25,5.25,0,0,1-1-2.58,5.33,5.33,0,0,1,.42-2.71,5.34,5.34,0,0,1,4.31-3.15,5.33,5.33,0,0,1,5.87,4.73ZM179.61,104a2.91,2.91,0,0,0,1.4.22,2.69,2.69,0,0,0,1.32-.51,2.61,2.61,0,0,0,.89-1.11,2.82,2.82,0,0,0,.23-1.4,2.72,2.72,0,0,0-.51-1.33,2.67,2.67,0,0,0-1.11-.89,2.84,2.84,0,0,0-1.41-.22,2.61,2.61,0,0,0-1.33.52,2.64,2.64,0,0,0-.89,1.1,2.81,2.81,0,0,0-.21,1.4,2.76,2.76,0,0,0,.51,1.34A2.71,2.71,0,0,0,179.61,104Z"/><path class="cls-2" d="M183.34,110.53l2,3.64-2.23,1.2-3.24-6,2.35-1.28,6.9-3.74,1.28,2.36Z"/><path class="cls-2" d="M195,116.51a5.81,5.81,0,0,1,.22,1.62,4.63,4.63,0,0,1-.32,1.68,5.43,5.43,0,0,1-3.09,3,5,5,0,0,1-2.47.33,4.76,4.76,0,0,1-2.32-.85,5.63,5.63,0,0,1-1.56-1.7,15.59,15.59,0,0,1-1.14-2.41l-.43-1.14c-.08-.24-.22-.61-.4-1.09l9.93-3.83,1,2.52A17.64,17.64,0,0,1,195,116.51Zm-4.11,4a2.62,2.62,0,0,0,1.13-.82,2.77,2.77,0,0,0,.6-1.27,2.56,2.56,0,0,0-.11-1.4l-.52-1.37-5.13,2a12.1,12.1,0,0,0,.78,1.67,3,3,0,0,0,1.05,1.08,2.35,2.35,0,0,0,1.59.29A3,3,0,0,0,190.85,120.47Z"/><path class="cls-2" d="M199.35,133.39l.43,2.65-10.39,1.7L189,135.1l3.88-.64-.49-3-3.88.64-.43-2.65,10.39-1.7.43,2.65-3.86.63.48,3Z"/><path class="cls-2" d="M199.44,146.1a5.31,5.31,0,0,1-4.58,2.71,5.15,5.15,0,0,1-2.67-.67,5.36,5.36,0,0,1-2-1.91,5.33,5.33,0,0,1,1.83-7.31,5.13,5.13,0,0,1,2.66-.75,5.22,5.22,0,0,1,2.68.68,5.31,5.31,0,0,1,2,1.91,5.34,5.34,0,0,1,.07,5.34Zm-7-1.2a2.82,2.82,0,0,0,1,1,2.63,2.63,0,0,0,1.38.35,2.75,2.75,0,0,0,1.37-.39,2.82,2.82,0,0,0,1-1,2.63,2.63,0,0,0,.35-1.38,2.56,2.56,0,0,0-.39-1.37,2.69,2.69,0,0,0-1-1,2.63,2.63,0,0,0-1.38-.35,2.5,2.5,0,0,0-1.36.39,2.77,2.77,0,0,0-1,1,2.63,2.63,0,0,0-.35,1.38A2.69,2.69,0,0,0,192.44,144.9Z"/><path class="cls-2" d="M191.69,152.39l-.51,4.11-2.51-.31.83-6.77,2.66.32,7.79,1-.33,2.66Z"/><path class="cls-2" d="M197.69,164a6.21,6.21,0,0,1-.76,1.44,4.41,4.41,0,0,1-1.24,1.19,5.29,5.29,0,0,1-2.07.8,5.48,5.48,0,0,1-2.21-.1,5.11,5.11,0,0,1-2.21-1.16,4.9,4.9,0,0,1-1.4-2,5.76,5.76,0,0,1-.28-2.29,15.26,15.26,0,0,1,.46-2.62l.32-1.18c.07-.25.17-.62.3-1.12l10.31,2.63-.66,2.61A19.13,19.13,0,0,1,197.69,164Zm-5.65.85a2.77,2.77,0,0,0,1.4,0,3,3,0,0,0,1.23-.69,2.63,2.63,0,0,0,.72-1.21l.36-1.42-5.32-1.35a11.68,11.68,0,0,0-.34,1.81,3.25,3.25,0,0,0,.23,1.48,2.35,2.35,0,0,0,1.13,1.16A3,3,0,0,0,192,164.85Z"/><path class="cls-2" d="M185.46,174l-2.11-.85L185,169l1-2.5,9.77,3.92-1,2.5-1.61,4-2.12-.85,1.62-4-1.72-.68-1.36,3.38-2.11-.85,1.36-3.38-1.71-.69Z"/><path class="cls-2" d="M178.82,181.48l1.31-2.35,4.29.48.83-1.5-3.47-1.93L183,174l9.19,5.13-.5.89-.73,1.31-1.22,2.18a3.29,3.29,0,0,1-1.18,1.22,3.26,3.26,0,0,1-4.45-1.07,3.34,3.34,0,0,1-.5-1.53Zm8.44,1.32a1,1,0,0,0,.65-.44l1.2-2.16-1.94-1.08L186,181.27a1,1,0,0,0,0,.79,1.08,1.08,0,0,0,.53.62A1.09,1.09,0,0,0,187.26,182.8Z"/><path class="cls-2" d="M181.38,190.07l.16.12a.91.91,0,0,0,.81.14,1.34,1.34,0,0,0,.77-.53,1.42,1.42,0,0,0,.3-.91,1,1,0,0,0-.37-.75.69.69,0,0,0-.74-.07,3.14,3.14,0,0,0-.94.57l-.17.16L181,189a5.11,5.11,0,0,1-2,1.19l-.18,0a3.25,3.25,0,0,1-1.24,0,3,3,0,0,1-1.11-.5,3,3,0,0,1-.86-1,3.25,3.25,0,0,1-.37-1.32,3.9,3.9,0,0,1,.17-1.43,4.57,4.57,0,0,1,.67-1.32,4.46,4.46,0,0,1,1.06-1,4.27,4.27,0,0,1,1.31-.58,3.57,3.57,0,0,1,1.38,0,2.8,2.8,0,0,1,1.2.52l.16.11-1.55,2.1-.16-.12a.93.93,0,0,0-.8-.14,1.31,1.31,0,0,0-.77.52,1.45,1.45,0,0,0-.3.92.94.94,0,0,0,.37.74.86.86,0,0,0,.77.07,1.65,1.65,0,0,0,.42-.21,5,5,0,0,0,.49-.36l.39-.32c.44-.36.79-.63,1.06-.81a2.55,2.55,0,0,1,.91-.38h.09a3.35,3.35,0,0,1,1.3,0,2.79,2.79,0,0,1,1.14.5,3,3,0,0,1,.86,1,3.45,3.45,0,0,1,.36,1.33,4,4,0,0,1-.16,1.42,4.57,4.57,0,0,1-.67,1.32,4.51,4.51,0,0,1-1.07,1,3.86,3.86,0,0,1-1.31.59,3.34,3.34,0,0,1-1.37,0,2.89,2.89,0,0,1-1.2-.53l-.16-.11Z"/><path class="cls-2" d="M162.21,104.16l-40.36,40.36,40.36,40.36a57.07,57.07,0,1,1,0-80.72Z"/><circle class="cls-3" cx="124.38" cy="110.34" r="6.81"/><path class="cls-4" d="M206.33,39.77l10.17,30.8h-7.66l-2-6.29h-9.64l-2,6.29h-7.7l10.21-30.8Zm-7.08,18.09h5.54L202,49.15Z"/><path class="cls-4" d="M225.3,39.47v31.1h-7.92V39.47Z"/><path class="cls-4" d="M254.2,70.57h-8l-4.93-11.74h-5.06V70.57h-7.44V39.47h14.83a9.66,9.66,0,0,1,9.68,9.68,9.39,9.39,0,0,1-1.18,4.64,10.19,10.19,0,0,1-3.22,3.5Zm-8.75-23.69a3,3,0,0,0-2.07-1h-7.3v6.6h7.3a3.15,3.15,0,0,0,2.07-1.08,3.34,3.34,0,0,0,.83-2.27A3.27,3.27,0,0,0,245.45,46.88Z"/><path class="cls-4" d="M270.48,39.36a18.11,18.11,0,0,1,4.69,1.12,13.57,13.57,0,0,1,4.29,2.68,15.58,15.58,0,0,1,3.81,5.35,16,16,0,0,1,1.34,6.4,15.07,15.07,0,0,1-1.72,7.17,14.18,14.18,0,0,1-4.82,5.5,17,17,0,0,1-6.33,2.49,46.91,46.91,0,0,1-7.86.59l-3.61,0c-.76,0-1.9-.05-3.43-.05V39.11h8C267,39.11,268.9,39.2,270.48,39.36ZM277,54.91a7.91,7.91,0,0,0-1.06-4,8.34,8.34,0,0,0-2.88-3,7.68,7.68,0,0,0-4-1.18h-4.31V63a33.86,33.86,0,0,0,5.43-.37,9.22,9.22,0,0,0,4.09-1.74,6.9,6.9,0,0,0,2.49-4.09A8.58,8.58,0,0,0,277,54.91Z"/><path class="cls-4" d="M312.63,70.57h-8l-4.93-11.74h-5.06V70.57h-7.43V39.47h14.82a9.66,9.66,0,0,1,9.68,9.68,9.39,9.39,0,0,1-1.18,4.64,10.19,10.19,0,0,1-3.22,3.5Zm-8.75-23.69a3,3,0,0,0-2.07-1h-7.3v6.6h7.3a3.15,3.15,0,0,0,2.07-1.08,3.3,3.3,0,0,0,.83-2.27A3.23,3.23,0,0,0,303.88,46.88Z"/><path class="cls-4" d="M338,41.58a15.67,15.67,0,0,1,5.72,5.74,15.79,15.79,0,0,1,0,15.77A15.61,15.61,0,0,1,338,68.81a15.72,15.72,0,0,1-15.77,0,15.52,15.52,0,0,1-5.74-5.72,15.72,15.72,0,0,1,0-15.77,15.57,15.57,0,0,1,5.74-5.74,15.79,15.79,0,0,1,15.77,0Zm-3.83,20.63a8.23,8.23,0,0,0,2.95-2.94,7.73,7.73,0,0,0,1.1-4.05,7.82,7.82,0,0,0-1.1-4.07,8.16,8.16,0,0,0-2.95-3,7.78,7.78,0,0,0-4-1.1,7.89,7.89,0,0,0-4.07,1.1,8.13,8.13,0,0,0-3,3,7.82,7.82,0,0,0-1.1,4.07,7.73,7.73,0,0,0,1.1,4.05,8.21,8.21,0,0,0,3,2.94,7.8,7.8,0,0,0,4.07,1.1A7.69,7.69,0,0,0,334.19,62.21Z"/><path class="cls-4" d="M368.18,40.76a9.59,9.59,0,0,1,3.52,3.52,9.75,9.75,0,0,1,0,9.73,9.66,9.66,0,0,1-8.38,4.82h-7.39V70.57h-7.44V39.47h14.83A9.5,9.5,0,0,1,368.18,40.76Zm-3,6.12a3,3,0,0,0-2.09-1h-7.31v6.6h7.31a3,3,0,0,0,2.09-1.08A3.38,3.38,0,0,0,366,49.1,3.21,3.21,0,0,0,365.15,46.88Z"/><path class="cls-3" d="M35,289v9.9H32.43V289Z"/><path class="cls-3" d="M43.53,289v2.52H41v7.38H38.46V291.5H35.93V289h7.6Z"/><path class="cls-3" d="M53.86,289.08l3.23,9.8H54.66l-.64-2H51l-.63,2H47.87l3.25-9.8Zm-2.25,5.75h1.76l-.88-2.77Z"/><path class="cls-3" d="M59.9,296.5h3.89v2.38H57.38V289H59.9Z"/><path class="cls-3" d="M67.29,296.5h3.89v2.38H64.77V289h2.52Z"/><path class="cls-3" d="M79.4,289.65a5.07,5.07,0,0,1,1.82,1.83,5,5,0,0,1,0,5,5,5,0,0,1-1.82,1.82,5,5,0,0,1-5,0,5,5,0,0,1-1.83-1.82,5,5,0,0,1,0-5,5,5,0,0,1,4.34-2.5A5,5,0,0,1,79.4,289.65Zm-1.22,6.57a2.73,2.73,0,0,0,.94-.94,2.5,2.5,0,0,0,.35-1.29,2.55,2.55,0,0,0-.35-1.29,2.76,2.76,0,0,0-.94-.95,2.55,2.55,0,0,0-2.58,0,2.62,2.62,0,0,0-.95.95A2.55,2.55,0,0,0,74.3,294a2.5,2.5,0,0,0,.35,1.29,2.6,2.6,0,0,0,.95.94,2.55,2.55,0,0,0,2.58,0Z"/><path class="cls-3" d="M90.7,289h2.18v9.9H90.36l-2.55-4.21-2.56,4.21H82.73V289h2.52v5.59l1.23-2.24.07-.11h2.52l.06.11,1.23,2.24V289Z"/><path class="cls-3" d="M98.52,292.12v-.18a.88.88,0,0,0-.34-.7,1.27,1.27,0,0,0-.84-.28,1.35,1.35,0,0,0-.86.28.89.89,0,0,0-.35.7.64.64,0,0,0,.36.6,2.92,2.92,0,0,0,1,.39l.22,0,.25.06a5,5,0,0,1,2,.82l.12.12a3,3,0,0,1,.67,1,2.79,2.79,0,0,1,0,2.33,3.19,3.19,0,0,1-.79,1,3.7,3.7,0,0,1-1.18.66,3.94,3.94,0,0,1-1.37.23,3.89,3.89,0,0,1-1.36-.23,3.55,3.55,0,0,1-1.17-.66,3.23,3.23,0,0,1-.8-1,2.72,2.72,0,0,1-.28-1.21v-.18h2.45v.18a.89.89,0,0,0,.34.7,1.24,1.24,0,0,0,.82.28,1.33,1.33,0,0,0,.86-.28.89.89,0,0,0,.36-.7.8.8,0,0,0-.38-.61,1.22,1.22,0,0,0-.39-.21,3.64,3.64,0,0,0-.55-.17l-.46-.11c-.51-.13-.91-.25-1.2-.35a2.62,2.62,0,0,1-.8-.48l-.06-.06a3.14,3.14,0,0,1-.73-1,2.64,2.64,0,0,1-.26-1.14,2.69,2.69,0,0,1,.28-1.21,3.23,3.23,0,0,1,.8-1A3.76,3.76,0,0,1,96,289a4.13,4.13,0,0,1,1.36-.23,4.19,4.19,0,0,1,1.37.23,3.93,3.93,0,0,1,1.18.67,3.19,3.19,0,0,1,.79,1,2.81,2.81,0,0,1,.27,1.21v.18Z"/><path class="cls-3" d="M111.25,289h2.52l-2.91,5.87v4h-2.53v-4L105.42,289h2.52l1.65,3.38Z"/><path class="cls-3" d="M121.56,289.65a5,5,0,0,1,0,8.67,5,5,0,0,1-5,0,5,5,0,0,1-1.83-1.82,5,5,0,0,1,0-5,5,5,0,0,1,1.83-1.83,5,5,0,0,1,5,0Zm-1.21,6.57a2.73,2.73,0,0,0,.94-.94,2.49,2.49,0,0,0,.34-1.29,2.54,2.54,0,0,0-.34-1.29,2.76,2.76,0,0,0-.94-.95,2.5,2.5,0,0,0-1.29-.35,2.56,2.56,0,0,0-1.3.35,2.67,2.67,0,0,0-.94.95,2.45,2.45,0,0,0-.35,1.29,2.41,2.41,0,0,0,.35,1.29,2.65,2.65,0,0,0,.94.94,2.56,2.56,0,0,0,1.3.35A2.5,2.5,0,0,0,120.35,296.22Z"/><path class="cls-3" d="M133,289v6.11a3.79,3.79,0,0,1-.53,2A3.85,3.85,0,0,1,131,298.5a3.91,3.91,0,0,1-2,.52h-.23a3.91,3.91,0,0,1-2-.52,4,4,0,0,1-1.42-1.43,3.78,3.78,0,0,1-.52-2V289h2.33v5.55a2.49,2.49,0,0,0,.42,1.45,1.36,1.36,0,0,0,1.15.57H129a1.38,1.38,0,0,0,1.14-.58,2.35,2.35,0,0,0,.44-1.44V289Z"/><path class="cls-3" d="M145.73,289v2.52h-2.54v7.38h-2.53V291.5h-2.53V289h7.6Z"/><path class="cls-3" d="M154,289.65a5.07,5.07,0,0,1,1.82,1.83,5,5,0,0,1-1.82,6.84,5,5,0,0,1-5,0,5,5,0,0,1-1.83-1.82,5,5,0,0,1,0-5,5,5,0,0,1,4.34-2.5A5,5,0,0,1,154,289.65Zm-1.22,6.57a2.73,2.73,0,0,0,.94-.94A2.5,2.5,0,0,0,154,294a2.55,2.55,0,0,0-.35-1.29,2.76,2.76,0,0,0-.94-.95,2.55,2.55,0,0,0-2.58,0,2.62,2.62,0,0,0-1,.95,2.55,2.55,0,0,0-.35,1.29,2.5,2.5,0,0,0,.35,1.29,2.6,2.6,0,0,0,1,.94,2.55,2.55,0,0,0,2.58,0Z"/><path class="cls-3" d="M168.21,296.74v2.14h-6.73V289h6.61v2.14H164v1.74h3.43V295H164v1.74Z"/><path class="cls-3" d="M174.48,289.08l3.24,9.8h-2.44l-.64-2h-3.07l-.63,2h-2.45l3.25-9.8Zm-2.25,5.75H174l-.88-2.77Z"/><path class="cls-3" d="M182.52,292.12v-.18a.88.88,0,0,0-.34-.7,1.27,1.27,0,0,0-.84-.28,1.35,1.35,0,0,0-.86.28.89.89,0,0,0-.35.7.64.64,0,0,0,.36.6,2.92,2.92,0,0,0,.95.39l.22,0,.24.06a5,5,0,0,1,2,.82l.12.12a3.13,3.13,0,0,1,.67,1,2.79,2.79,0,0,1,0,2.33,3.19,3.19,0,0,1-.79,1,3.7,3.7,0,0,1-1.18.66,4.2,4.2,0,0,1-2.74,0,3.6,3.6,0,0,1-1.16-.66,3.09,3.09,0,0,1-.8-1,2.72,2.72,0,0,1-.28-1.21v-.18h2.45v.18a.89.89,0,0,0,.34.7,1.24,1.24,0,0,0,.82.28,1.33,1.33,0,0,0,.86-.28.89.89,0,0,0,.36-.7.8.8,0,0,0-.38-.61,1.22,1.22,0,0,0-.39-.21,3.64,3.64,0,0,0-.55-.17l-.46-.11c-.51-.13-.92-.25-1.2-.35a2.62,2.62,0,0,1-.8-.48l-.06-.06a3,3,0,0,1-.73-1,2.51,2.51,0,0,1-.26-1.14,2.69,2.69,0,0,1,.28-1.21,3.09,3.09,0,0,1,.8-1A3.83,3.83,0,0,1,180,289a4.2,4.2,0,0,1,2.74,0,3.93,3.93,0,0,1,1.18.67,3.19,3.19,0,0,1,.79,1,2.81,2.81,0,0,1,.27,1.21v.18Z"/><path class="cls-3" d="M188.3,289v9.9h-2.52V289Z"/><path class="cls-3" d="M191.94,296.5h3.89v2.38h-6.41V289h2.52Z"/><path class="cls-3" d="M202.08,289h2.52l-2.91,5.87v4h-2.52v-4L196.25,289h2.52l1.66,3.38Z"/><path class="cls-3" d="M219.09,294a5,5,0,0,1-.67,2.51,5.07,5.07,0,0,1-1.83,1.82,5,5,0,0,1-2.51.67,4.94,4.94,0,0,1-2.51-.67,5,5,0,0,1-1.82-1.82,5,5,0,0,1,0-5,5,5,0,0,1,1.82-1.83,4.84,4.84,0,0,1,2.51-.67,4.92,4.92,0,0,1,1.95.39,5,5,0,0,1,1.6,1.09l-2.25,1.29a2.53,2.53,0,0,0-1.3-.35,2.5,2.5,0,0,0-1.29.35,2.6,2.6,0,0,0-.94.95,2.55,2.55,0,0,0,0,2.58,2.73,2.73,0,0,0,.94.94,2.5,2.5,0,0,0,1.29.35,2.47,2.47,0,0,0,1.35-.39,2.72,2.72,0,0,0,1-1h-3.11v-2.32H219A5.62,5.62,0,0,1,219.09,294Z"/><path class="cls-3" d="M225.08,289.08l3.23,9.8h-2.43l-.65-2h-3.06l-.63,2h-2.45l3.24-9.8Zm-2.25,5.75h1.76l-.88-2.77Z"/><path class="cls-3" d="M236.06,289v2.52h-2.54v7.38H231V291.5h-2.54V289h7.61Z"/><path class="cls-3" d="M242.38,289h2.52v9.9h-2.52v-3.7h-2.83v3.7H237V289h2.51v3.68h2.83Z"/><path class="cls-3" d="M252.76,296.74v2.14H246V289h6.61v2.14h-4.07v1.74H252V295h-3.43v1.74Z"/><path class="cls-3" d="M262,298.88h-2.53l-1.57-3.74h-1.61v3.74h-2.36V289h4.71a3.07,3.07,0,0,1,3.08,3.08,3,3,0,0,1-.37,1.48,3.32,3.32,0,0,1-1,1.11Zm-2.78-7.54a1,1,0,0,0-.66-.33h-2.32v2.1h2.32a1,1,0,0,0,.66-.34,1.11,1.11,0,0,0,0-1.43Z"/><path class="cls-3" d="M272.15,289.08l3.23,9.8h-2.44l-.64-2h-3.07l-.63,2h-2.45l3.25-9.8Zm-2.26,5.75h1.77l-.89-2.77Z"/><path class="cls-3" d="M285.57,296.34a2.84,2.84,0,0,0,.84-.55l1.71,1.7a5,5,0,0,1-1.61,1.09,5.06,5.06,0,0,1-4.44-.29,5,5,0,0,1-1.82-1.82,4.83,4.83,0,0,1-.67-2.5,4.9,4.9,0,0,1,.67-2.52,5,5,0,0,1,1.82-1.82,5,5,0,0,1,4.44-.29,5.18,5.18,0,0,1,1.61,1.08l-1.71,1.71a2.66,2.66,0,0,0-.84-.55,2.55,2.55,0,0,0-2.28.15,2.65,2.65,0,0,0-.94.94A2.56,2.56,0,0,0,282,294a2.49,2.49,0,0,0,.35,1.28,2.65,2.65,0,0,0,.94.94,2.41,2.41,0,0,0,1.29.35A2.57,2.57,0,0,0,285.57,296.34Z"/><path class="cls-3" d="M296.2,289.65a5.07,5.07,0,0,1,1.82,1.83,5,5,0,0,1,0,5,5,5,0,0,1-1.82,1.82,5,5,0,0,1-5,0,5,5,0,0,1-1.83-1.82,5,5,0,0,1,0-5,5,5,0,0,1,4.34-2.5A5,5,0,0,1,296.2,289.65ZM295,296.22a2.73,2.73,0,0,0,.94-.94,2.5,2.5,0,0,0,.35-1.29,2.55,2.55,0,0,0-.35-1.29,2.76,2.76,0,0,0-.94-.95,2.5,2.5,0,0,0-1.29-.35,2.52,2.52,0,0,0-1.29.35,2.7,2.7,0,0,0-.95.95,2.55,2.55,0,0,0-.35,1.29,2.5,2.5,0,0,0,.35,1.29,2.67,2.67,0,0,0,.95.94,2.52,2.52,0,0,0,1.29.35A2.5,2.5,0,0,0,295,296.22Z"/><path class="cls-3" d="M307.16,289h2.52v9.9h-2.52v-5.59l-1.23,2.24-.06.12h-2.52l-.07-.12-.17-.32-1.05-1.92v5.59h-2.53V289h2.53l2.55,4.22Z"/><path class="cls-3" d="M318.43,289H321v9.9h-2.52v-5.59l-1.23,2.24-.06.12h-2.52l-.07-.12-.17-.32-1.05-1.92v5.59H310.8V289h2.53l2.55,4.22Z"/><path class="cls-3" d="M330.12,289v6.11a4,4,0,0,1-1.95,3.39,4,4,0,0,1-2,.52H326a3.88,3.88,0,0,1-2-.52,3.92,3.92,0,0,1-1.43-1.43,3.88,3.88,0,0,1-.52-2V289h2.34v5.55a2.41,2.41,0,0,0,.42,1.45,1.35,1.35,0,0,0,1.15.57h.22a1.35,1.35,0,0,0,1.14-.58,2.35,2.35,0,0,0,.44-1.44V289Z"/><path class="cls-3" d="M336.69,289h2.52v9.9h-2.52l-2.92-5.31v5.31h-2.53V289h2.53l2.92,5.31Z"/><path class="cls-3" d="M342.85,289v9.9h-2.52V289Z"/><path class="cls-3" d="M351.43,289v2.52h-2.54v7.38h-2.53V291.5h-2.53V289h7.6Z"/><path class="cls-3" d="M357.67,289h2.52l-2.91,5.87v4h-2.52v-4L351.85,289h2.52l1.65,3.38Z"/><path class="cls-3" d="M37.58,305.88l3.23,9.8H38.38l-.65-2H34.67l-.63,2H31.59l3.24-9.8Zm-2.25,5.75h1.76l-.88-2.77Z"/><path class="cls-3" d="M46.54,305.78h2.52v9.9H46.54l-2.91-5.31v5.31H41.09v-9.9h2.54l2.91,5.31Z"/><path class="cls-3" d="M54.52,305.75a6.08,6.08,0,0,1,1.49.35,4.44,4.44,0,0,1,1.37.86,4.93,4.93,0,0,1,1.21,1.7,5.17,5.17,0,0,1,.42,2,4.85,4.85,0,0,1-.54,2.28,4.56,4.56,0,0,1-1.54,1.75,5.45,5.45,0,0,1-2,.79,15.34,15.34,0,0,1-2.5.19l-1.15,0H50.18v-10h2.53C53.41,305.67,54,305.7,54.52,305.75Zm2.09,4.95a2.6,2.6,0,0,0-.34-1.27,2.65,2.65,0,0,0-.92-1,2.48,2.48,0,0,0-1.27-.38H52.71v5.17a10.65,10.65,0,0,0,1.73-.12,2.9,2.9,0,0,0,1.3-.55,2.22,2.22,0,0,0,.8-1.31A3.25,3.25,0,0,0,56.61,310.7Z"/><path class="cls-3" d="M70.79,313.54v2.14H64.05v-9.9h6.61v2.14H66.59v1.74H70v2.14H66.59v1.74Z"/><path class="cls-3" d="M76.43,308.92v-.18a.91.91,0,0,0-.34-.7,1.27,1.27,0,0,0-.84-.28,1.35,1.35,0,0,0-.86.28.86.86,0,0,0-.35.7.64.64,0,0,0,.36.6,2.92,2.92,0,0,0,.95.39l.22,0,.24.06a4.88,4.88,0,0,1,2,.82l.13.12a3.13,3.13,0,0,1,.67,1,2.79,2.79,0,0,1,0,2.33,3.19,3.19,0,0,1-.79,1,3.7,3.7,0,0,1-1.18.66,4,4,0,0,1-1.37.23,3.94,3.94,0,0,1-1.37-.23,3.6,3.6,0,0,1-1.16-.66,3.09,3.09,0,0,1-.8-1,2.72,2.72,0,0,1-.28-1.21v-.18h2.45v.18a.86.86,0,0,0,.34.69,1.19,1.19,0,0,0,.82.29,1.28,1.28,0,0,0,.86-.29.85.85,0,0,0,.36-.69.8.8,0,0,0-.38-.61,1.22,1.22,0,0,0-.39-.21,3.64,3.64,0,0,0-.55-.17l-.46-.11c-.51-.13-.92-.25-1.21-.35a2.7,2.7,0,0,1-.79-.48l-.06-.06a3,3,0,0,1-.73-1,2.51,2.51,0,0,1-.26-1.14,2.69,2.69,0,0,1,.28-1.21,3.09,3.09,0,0,1,.8-1,3.83,3.83,0,0,1,1.16-.67,4.19,4.19,0,0,1,1.37-.23,4.24,4.24,0,0,1,1.37.23,3.93,3.93,0,0,1,1.18.67,3.19,3.19,0,0,1,.79,1,2.81,2.81,0,0,1,.27,1.21v.18Z"/><path class="cls-3" d="M87.15,305.78v2.52H84.62v7.38H82.08V308.3H79.55v-2.52h7.6Z"/><path class="cls-3" d="M93.29,305.88l3.23,9.8H94.08l-.64-2H90.37l-.63,2H87.29l3.25-9.8ZM91,311.63h1.76l-.88-2.77Z"/><path class="cls-3" d="M104.26,311.5a2.9,2.9,0,0,1-.05,2.74,2.93,2.93,0,0,1-1,1,2.89,2.89,0,0,1-1.44.4H96.8v-9.9h4.49a2.74,2.74,0,0,1,1.45.39,3,3,0,0,1,1,1,2.72,2.72,0,0,1,.37,1.4,2.58,2.58,0,0,1-.2,1,2.71,2.71,0,0,1-.54.88A2.74,2.74,0,0,1,104.26,311.5Zm-2.61-3.4a1,1,0,0,0-.72-.3H99.11v2.1h1.82l.33-.06a.84.84,0,0,0,.26-.14,1.07,1.07,0,0,0,.32-.38,1.14,1.14,0,0,0,.11-.49A1,1,0,0,0,101.65,308.1Zm.42,5.23a1,1,0,0,0,.29-.74,1,1,0,0,0-.24-.67,1,1,0,0,0-.6-.36H99.11v2.1h2.24A1,1,0,0,0,102.07,313.33Z"/><path class="cls-3" d="M107.94,313.3h3.89v2.38h-6.41v-9.9h2.52Z"/><path class="cls-3" d="M115.33,305.78v9.9h-2.51v-9.9Z"/><path class="cls-3" d="M121,308.92v-.18a.89.89,0,0,0-.35-.7,1.23,1.23,0,0,0-.83-.28,1.33,1.33,0,0,0-.86.28.87.87,0,0,0-.36.7.63.63,0,0,0,.37.6,2.92,2.92,0,0,0,1,.39l.22,0,.24.06a4.88,4.88,0,0,1,2,.82l.13.12a2.94,2.94,0,0,1,.66,1,2.68,2.68,0,0,1,.25,1.12,2.85,2.85,0,0,1-.27,1.21,3.23,3.23,0,0,1-.8,1,3.55,3.55,0,0,1-1.17.66,4,4,0,0,1-1.37.23,3.94,3.94,0,0,1-1.37-.23,3.76,3.76,0,0,1-1.17-.66,3.19,3.19,0,0,1-.79-1,2.73,2.73,0,0,1-.29-1.21v-.18h2.46v.18a.86.86,0,0,0,.34.69,1.19,1.19,0,0,0,.82.29,1.3,1.3,0,0,0,.86-.29.84.84,0,0,0,.35-.69.79.79,0,0,0-.37-.61,1.33,1.33,0,0,0-.39-.21,4,4,0,0,0-.55-.17l-.46-.11c-.52-.13-.92-.25-1.21-.35a2.58,2.58,0,0,1-.79-.48l-.06-.06a3.17,3.17,0,0,1-.74-1,2.64,2.64,0,0,1-.26-1.14,2.7,2.7,0,0,1,.29-1.21,3.19,3.19,0,0,1,.79-1,4,4,0,0,1,1.17-.67,4.19,4.19,0,0,1,1.37-.23,4.24,4.24,0,0,1,1.37.23,3.76,3.76,0,0,1,1.17.67,3.23,3.23,0,0,1,.8,1,2.81,2.81,0,0,1,.27,1.21v.18Z"/><path class="cls-3" d="M129.59,305.78h2.52v9.9h-2.52V312h-2.83v3.7h-2.52v-9.9h2.52v3.68h2.83Z"/><path class="cls-3" d="M143.14,313.14a2.84,2.84,0,0,0,.84-.55l1.71,1.7a5.15,5.15,0,0,1-1.61,1.09,5.06,5.06,0,0,1-4.44-.29,5,5,0,0,1-1.82-1.82,4.83,4.83,0,0,1-.67-2.5,5,5,0,0,1,2.49-4.34,5,5,0,0,1,4.44-.29,5.3,5.3,0,0,1,1.61,1.08L144,308.93a2.66,2.66,0,0,0-.84-.55,2.45,2.45,0,0,0-1-.2,2.4,2.4,0,0,0-1.28.35,2.5,2.5,0,0,0-.94.94,2.56,2.56,0,0,0-.35,1.3,2.59,2.59,0,0,0,1.29,2.22,2.4,2.4,0,0,0,1.28.35A2.62,2.62,0,0,0,143.14,313.14Z"/><path class="cls-3" d="M153.76,306.45a5,5,0,0,1,0,8.67,5,5,0,0,1-5,0,5.07,5.07,0,0,1-1.83-1.82,5,5,0,0,1,0-5,5,5,0,0,1,1.83-1.83,5,5,0,0,1,5,0ZM152.55,313a2.73,2.73,0,0,0,.94-.94,2.49,2.49,0,0,0,.34-1.29,2.54,2.54,0,0,0-.34-1.29,2.76,2.76,0,0,0-.94-.95,2.5,2.5,0,0,0-1.29-.35,2.56,2.56,0,0,0-1.3.35,2.67,2.67,0,0,0-.94.95,2.55,2.55,0,0,0-.35,1.29,2.5,2.5,0,0,0,.35,1.29,2.65,2.65,0,0,0,.94.94,2.56,2.56,0,0,0,1.3.35A2.5,2.5,0,0,0,152.55,313Z"/><path class="cls-3" d="M164.73,305.78h2.52v9.9h-2.52v-5.59l-1.23,2.24-.06.12h-2.52l-.07-.12-.17-.32-1.05-1.92v5.59H157.1v-9.9h2.53l2.55,4.22Z"/><path class="cls-3" d="M176,305.78h2.52v9.9H176v-5.59l-1.24,2.24,0,.12h-2.52l-.07-.12L172,312l-1-1.92v5.59h-2.53v-9.9h2.53l2.55,4.22Z"/><path class="cls-3" d="M187.69,305.8v6.11a3.93,3.93,0,0,1-3.92,3.91h-.23a3.82,3.82,0,0,1-2-.53,3.94,3.94,0,0,1-1.42-1.42,3.78,3.78,0,0,1-.52-2V305.8H182v5.55a2.49,2.49,0,0,0,.42,1.45,1.36,1.36,0,0,0,1.15.57h.23a1.38,1.38,0,0,0,1.14-.58,2.35,2.35,0,0,0,.44-1.44V305.8Z"/><path class="cls-3" d="M194.25,305.78h2.52v9.9h-2.52l-2.91-5.31v5.31h-2.53v-9.9h2.53l2.91,5.31Z"/><path class="cls-3" d="M200.41,305.78v9.9h-2.52v-9.9Z"/><path class="cls-3" d="M207.25,313.14a2.93,2.93,0,0,0,.83-.55l1.71,1.7a4.93,4.93,0,0,1-1.61,1.09,5,5,0,0,1-4.43-.29,5,5,0,0,1-1.83-1.82,4.93,4.93,0,0,1-.67-2.5,5,5,0,0,1,.67-2.52,4.92,4.92,0,0,1,1.83-1.82,5,5,0,0,1,4.43-.29,5.06,5.06,0,0,1,1.61,1.08l-1.71,1.71a2.73,2.73,0,0,0-.83-.55,2.45,2.45,0,0,0-1-.2,2.41,2.41,0,0,0-1.29.35,2.65,2.65,0,0,0-.94.94,2.56,2.56,0,0,0-.35,1.3,2.49,2.49,0,0,0,.35,1.28,2.65,2.65,0,0,0,.94.94,2.41,2.41,0,0,0,1.29.35A2.62,2.62,0,0,0,207.25,313.14Z"/><path class="cls-3" d="M215.79,305.88l3.23,9.8h-2.44l-.64-2h-3.07l-.63,2h-2.45l3.25-9.8Zm-2.26,5.75h1.76l-.88-2.77Z"/><path class="cls-3" d="M226.76,305.78v2.52h-2.53v7.38h-2.54V308.3h-2.53v-2.52h7.6Z"/><path class="cls-3" d="M230.26,305.78v9.9h-2.52v-9.9Z"/><path class="cls-3" d="M238.62,306.45a5.07,5.07,0,0,1,1.82,1.83,5,5,0,0,1,0,5,5.12,5.12,0,0,1-1.82,1.82,5,5,0,0,1-5,0,5.07,5.07,0,0,1-1.83-1.82,5,5,0,0,1,0-5,5,5,0,0,1,4.34-2.5A5,5,0,0,1,238.62,306.45ZM237.4,313a2.65,2.65,0,0,0,.94-.94,2.5,2.5,0,0,0,.35-1.29,2.55,2.55,0,0,0-.35-1.29,2.67,2.67,0,0,0-.94-.95,2.5,2.5,0,0,0-1.29-.35,2.52,2.52,0,0,0-1.29.35,2.7,2.7,0,0,0-.95.95,2.55,2.55,0,0,0-.35,1.29,2.5,2.5,0,0,0,.35,1.29,2.67,2.67,0,0,0,.95.94,2.52,2.52,0,0,0,1.29.35A2.5,2.5,0,0,0,237.4,313Z"/><path class="cls-3" d="M247.4,305.78h2.52v9.9H247.4l-2.92-5.31v5.31H242v-9.9h2.53l2.92,5.31Z"/><path class="cls-3" d="M263.2,305.78h2.19v9.9h-2.52l-2.55-4.21-2.56,4.21h-2.52v-9.9h2.52v5.59l1.23-2.24.07-.11h2.52l.05.11,1.24,2.24v-5.59Z"/><path class="cls-3" d="M269,305.78v9.9h-2.52v-9.9Z"/><path class="cls-3" d="M277.61,305.78v2.52h-2.54v7.38h-2.53V308.3H270v-2.52h7.6Z"/><path class="cls-3" d="M283.94,305.78h2.52v9.9h-2.52V312h-2.83v3.7h-2.52v-9.9h2.52v3.68h2.83Z"/><path class="cls-3" d="M299.24,305.78v2.52h-2.53v7.38h-2.54V308.3h-2.53v-2.52h7.6Z"/><path class="cls-3" d="M305.57,305.78h2.52v9.9h-2.52V312h-2.83v3.7h-2.52v-9.9h2.52v3.68h2.83Z"/><path class="cls-3" d="M315.94,313.54v2.14h-6.73v-9.9h6.61v2.14h-4.08v1.74h3.43v2.14h-3.43v1.74Z"/><path class="cls-3" d="M328.72,305.78v2.52h-2.53v7.38h-2.53V308.3h-2.54v-2.52h7.6Z"/><path class="cls-3" d="M334.86,305.88l3.23,9.8h-2.44l-.64-2h-3.07l-.63,2h-2.45l3.25-9.8Zm-2.26,5.75h1.77l-.89-2.77Z"/><path class="cls-3" d="M346.45,315.68h-2.54l-1.56-3.74h-1.61v3.74h-2.37v-9.9h4.72a3,3,0,0,1,2.66,1.54,3.05,3.05,0,0,1,0,3,3.19,3.19,0,0,1-1,1.11Zm-2.79-7.54a1,1,0,0,0-.66-.33h-2.32v2.1H343a1,1,0,0,0,.66-.34,1.08,1.08,0,0,0,0-1.43Z"/><path class="cls-3" d="M357,310.78a5,5,0,0,1-.67,2.51,5.07,5.07,0,0,1-1.83,1.82,5,5,0,0,1-2.51.67,4.94,4.94,0,0,1-2.51-.67,5,5,0,0,1-1.82-1.82,5,5,0,0,1,0-5,5,5,0,0,1,1.82-1.83,4.84,4.84,0,0,1,2.51-.67,4.92,4.92,0,0,1,1.95.39,5,5,0,0,1,1.6,1.09l-2.25,1.29a2.53,2.53,0,0,0-1.3-.35,2.5,2.5,0,0,0-1.29.35,2.65,2.65,0,0,0-.94.94,2.56,2.56,0,0,0-.35,1.3,2.5,2.5,0,0,0,.35,1.29,2.73,2.73,0,0,0,.94.94,2.5,2.5,0,0,0,1.29.35,2.47,2.47,0,0,0,1.35-.39,2.72,2.72,0,0,0,1-1h-3.11v-2.32h5.67A5.62,5.62,0,0,1,357,310.78Z"/><path class="cls-3" d="M364.59,313.54v2.14h-6.73v-9.9h6.61v2.14h-4.08v1.74h3.43v2.14h-3.43v1.74Z"/><path class="cls-3" d="M373.17,305.78v2.52h-2.53v7.38h-2.53V308.3h-2.54v-2.52h7.6Z"/><path class="cls-3" d="M37.58,322.68l3.23,9.8H38.38l-.65-2H34.67l-.63,2H31.59l3.24-9.8Zm-2.25,5.75h1.76l-.88-2.77Z"/><path class="cls-3" d="M49.14,322.6v6.11a3.78,3.78,0,0,1-.52,2,3.9,3.9,0,0,1-1.43,1.42,3.85,3.85,0,0,1-2,.53H45a3.82,3.82,0,0,1-2-.53,3.87,3.87,0,0,1-1.42-1.42,3.79,3.79,0,0,1-.53-2V322.6h2.34v5.55a2.41,2.41,0,0,0,.42,1.45,1.35,1.35,0,0,0,1.15.57h.22a1.35,1.35,0,0,0,1.14-.58,2.29,2.29,0,0,0,.45-1.44V322.6Z"/><path class="cls-3" d="M54.6,322.55a6,6,0,0,1,1.49.35,4.44,4.44,0,0,1,1.37.86,4.8,4.8,0,0,1,1.21,1.7,5,5,0,0,1,.43,2,4.74,4.74,0,0,1-.55,2.28A4.54,4.54,0,0,1,57,331.53a5.43,5.43,0,0,1-2,.79,15.24,15.24,0,0,1-2.5.19l-1.14,0h-1.1v-10H52.8C53.5,322.47,54.1,322.5,54.6,322.55Zm2.09,4.95a2.49,2.49,0,0,0-.34-1.27,2.62,2.62,0,0,0-.91-1,2.48,2.48,0,0,0-1.27-.38H52.8v5.17a10.73,10.73,0,0,0,1.73-.12,3.07,3.07,0,0,0,1.3-.55,2.21,2.21,0,0,0,.79-1.31A2.54,2.54,0,0,0,56.69,327.5Z"/><path class="cls-3" d="M62.46,322.58v9.9H59.94v-9.9Z"/><path class="cls-3" d="M70.31,330.34v2.14H63.58v-9.9h6.61v2.14H66.11v1.74h3.43v2.14H66.11v1.74Z"/><path class="cls-3" d="M76.88,322.58H79.4v9.9H76.88L74,327.17v5.31H71.43v-9.9H74l2.91,5.31Z"/><path class="cls-3" d="M86.23,329.94a2.84,2.84,0,0,0,.84-.55l1.71,1.7a5.15,5.15,0,0,1-1.61,1.09,5.06,5.06,0,0,1-4.44-.29,5,5,0,0,1-1.82-1.82,4.83,4.83,0,0,1-.67-2.5,5,5,0,0,1,2.49-4.34,5,5,0,0,1,4.44-.29A5.3,5.3,0,0,1,88.78,324l-1.71,1.71a2.66,2.66,0,0,0-.84-.55,2.43,2.43,0,0,0-1-.2,2.41,2.41,0,0,0-1.29.35,2.59,2.59,0,0,0-1.29,2.24,2.49,2.49,0,0,0,.35,1.28,2.57,2.57,0,0,0,.94.94,2.5,2.5,0,0,0,1.29.35A2.61,2.61,0,0,0,86.23,329.94Z"/><path class="cls-3" d="M96.35,330.34v2.14H89.62v-9.9h6.61v2.14H92.15v1.74h3.43v2.14H92.15v1.74Z"/><path class="cls-3" d="M98,330.76h2.36l-1,3.16H97.19Z"/><path class="cls-3" d="M111.62,323a3.16,3.16,0,0,1,1.12,1.12,3.13,3.13,0,0,1,0,3.1,3.16,3.16,0,0,1-1.12,1.12,3.07,3.07,0,0,1-1.55.41h-2.35v3.74h-2.37v-9.9h4.72A3.07,3.07,0,0,1,111.62,323Zm-1,1.95a1,1,0,0,0-.66-.33h-2.33v2.1H110a.93.93,0,0,0,.66-.34,1.08,1.08,0,0,0,.27-.72A1,1,0,0,0,110.65,324.94Z"/><path class="cls-3" d="M119.14,322.68l3.24,9.8h-2.44l-.64-2h-3.07l-.63,2h-2.45l3.25-9.8Zm-2.25,5.75h1.76l-.88-2.77Z"/><path class="cls-3" d="M127.92,322.58h2.52l-2.91,5.87v4H125v-4l-2.91-5.87h2.52l1.65,3.38Z"/><path class="cls-3" d="M133.52,322.58v9.9H131v-9.9Z"/><path class="cls-3" d="M140.09,322.58h2.52v9.9h-2.52l-2.92-5.31v5.31h-2.53v-9.9h2.53l2.92,5.31Z"/><path class="cls-3" d="M153.46,327.58a4.9,4.9,0,0,1-.68,2.51,5,5,0,0,1-6.84,1.82,5,5,0,0,1-1.82-1.82,5,5,0,0,1,0-5,5,5,0,0,1,1.82-1.83,4.83,4.83,0,0,1,2.5-.67,5,5,0,0,1,2,.39,4.89,4.89,0,0,1,1.6,1.09l-2.25,1.29a2.57,2.57,0,0,0-1.31-.35,2.49,2.49,0,0,0-1.28.35,2.57,2.57,0,0,0-.94.94,2.46,2.46,0,0,0-.35,1.3,2.41,2.41,0,0,0,.35,1.29,2.65,2.65,0,0,0,.94.94,2.54,2.54,0,0,0,2.64,0,2.62,2.62,0,0,0,.95-1h-3.1v-2.32h5.67A5.62,5.62,0,0,1,153.46,327.58Z"/><path class="cls-3" d="M165.38,324.72H161v1.74h3.5v2.14H161v3.88H158.5v-9.9h6.88Z"/><path class="cls-3" d="M173.46,323.25a5,5,0,0,1,1.82,1.83,5,5,0,0,1,0,5,5,5,0,0,1-1.82,1.82,4.83,4.83,0,0,1-2.5.67,4.9,4.9,0,0,1-2.52-.67,5,5,0,0,1-1.82-1.82,5,5,0,0,1,1.82-6.85,5,5,0,0,1,2.52-.67A4.93,4.93,0,0,1,173.46,323.25Zm-1.22,6.57a2.57,2.57,0,0,0,.94-.94,2.41,2.41,0,0,0,.35-1.29,2.45,2.45,0,0,0-.35-1.29,2.59,2.59,0,0,0-.94-.95A2.49,2.49,0,0,0,171,325a2.56,2.56,0,0,0-1.3.35,2.59,2.59,0,0,0-.94.95,2.45,2.45,0,0,0-.35,1.29,2.41,2.41,0,0,0,.35,1.29,2.59,2.59,0,0,0,2.24,1.29A2.49,2.49,0,0,0,172.24,329.82Z"/><path class="cls-3" d="M184.87,332.48h-2.53l-1.57-3.74h-1.61v3.74h-2.37v-9.9h4.72a3.06,3.06,0,0,1,1.54.41,3.14,3.14,0,0,1,1.13,1.13,3.09,3.09,0,0,1,.41,1.54,2.91,2.91,0,0,1-.38,1.48,3.19,3.19,0,0,1-1,1.11Zm-2.78-7.54a1,1,0,0,0-.66-.33H179.1v2.1h2.33a1,1,0,0,0,.66-.34,1.11,1.11,0,0,0,0-1.43Z"/><path class="cls-3" d="M197.37,322.58v2.52h-2.53v7.38h-2.53V325.1h-2.54v-2.52h7.6Z"/><path class="cls-3" d="M203.5,322.68l3.24,9.8H204.3l-.64-2h-3.07l-.63,2h-2.45l3.25-9.8Zm-2.25,5.75H203l-.89-2.77Z"/><path class="cls-3" d="M215.1,332.48h-2.54L211,328.74h-1.62v3.74H207v-9.9h4.72a3,3,0,0,1,2.66,1.54,3.05,3.05,0,0,1,0,3,3.19,3.19,0,0,1-1,1.11Zm-2.79-7.54a1,1,0,0,0-.66-.33h-2.32v2.1h2.32a1,1,0,0,0,.66-.34,1.08,1.08,0,0,0,0-1.43Z"/><path class="cls-3" d="M225.67,327.58a5,5,0,0,1-.67,2.51,5.07,5.07,0,0,1-1.83,1.82,5,5,0,0,1-2.51.67,4.94,4.94,0,0,1-2.51-.67,5,5,0,0,1-1.82-1.82,5,5,0,0,1,0-5,5,5,0,0,1,1.82-1.83,4.84,4.84,0,0,1,2.51-.67,4.93,4.93,0,0,1,3.55,1.48L222,325.34a2.53,2.53,0,0,0-1.3-.35,2.5,2.5,0,0,0-1.29.35,2.65,2.65,0,0,0-.94.94,2.56,2.56,0,0,0-.35,1.3,2.5,2.5,0,0,0,.35,1.29,2.73,2.73,0,0,0,.94.94,2.5,2.5,0,0,0,1.29.35,2.47,2.47,0,0,0,1.35-.39,2.62,2.62,0,0,0,1-1h-3.1v-2.32h5.67A5.62,5.62,0,0,1,225.67,327.58Z"/><path class="cls-3" d="M233.24,330.34v2.14h-6.73v-9.9h6.61v2.14H229v1.74h3.43v2.14H229v1.74Z"/><path class="cls-3" d="M241.82,322.58v2.52h-2.53v7.38h-2.54V325.1h-2.53v-2.52h7.6Z"/><path class="cls-3" d="M249.54,330.34v2.14H242.8v-9.9h6.61v2.14h-4.07v1.74h3.43v2.14h-3.43v1.74Z"/><path class="cls-3" d="M255,322.55a6.08,6.08,0,0,1,1.49.35,4.39,4.39,0,0,1,1.36.86,4.68,4.68,0,0,1,1.21,1.7,5,5,0,0,1,.43,2,4.74,4.74,0,0,1-.55,2.28,4.54,4.54,0,0,1-1.53,1.75,5.45,5.45,0,0,1-2,.79,15.43,15.43,0,0,1-2.5.19l-1.15,0h-1.09v-10h2.53C253.89,322.47,254.49,322.5,255,322.55Zm2.08,4.95a2.59,2.59,0,0,0-.33-1.27,2.65,2.65,0,0,0-.92-1,2.48,2.48,0,0,0-1.27-.38h-1.37v5.17a10.73,10.73,0,0,0,1.73-.12,3.07,3.07,0,0,0,1.3-.55,2.21,2.21,0,0,0,.79-1.31A2.54,2.54,0,0,0,257.08,327.5Z"/><path class="cls-3" d="M272.58,322.6v6.11a3.78,3.78,0,0,1-.52,2,3.9,3.9,0,0,1-1.43,1.42,3.85,3.85,0,0,1-2,.53h-.22a3.79,3.79,0,0,1-2-.53,3.87,3.87,0,0,1-1.42-1.42,3.79,3.79,0,0,1-.53-2V322.6h2.34v5.55a2.41,2.41,0,0,0,.42,1.45,1.35,1.35,0,0,0,1.15.57h.22a1.35,1.35,0,0,0,1.14-.58,2.29,2.29,0,0,0,.44-1.44V322.6Z"/><path class="cls-3" d="M278.22,325.72v-.18a.88.88,0,0,0-.34-.7,1.26,1.26,0,0,0-.83-.28,1.31,1.31,0,0,0-.86.28.87.87,0,0,0-.36.7.64.64,0,0,0,.36.6,3,3,0,0,0,.95.39l.22,0,.25.06a4.94,4.94,0,0,1,2,.82l.12.12a3,3,0,0,1,.67,1,2.79,2.79,0,0,1,0,2.33,3.06,3.06,0,0,1-.79,1,3.59,3.59,0,0,1-1.18.66,4.17,4.17,0,0,1-2.73,0,3.55,3.55,0,0,1-1.17-.66,3.23,3.23,0,0,1-.8-1,2.72,2.72,0,0,1-.28-1.21v-.18h2.45v.18a.86.86,0,0,0,.34.69,1.19,1.19,0,0,0,.82.29,1.26,1.26,0,0,0,.86-.29.85.85,0,0,0,.36-.69.78.78,0,0,0-.38-.61,1.22,1.22,0,0,0-.39-.21,3.64,3.64,0,0,0-.55-.17l-.46-.11c-.51-.13-.91-.25-1.2-.35a2.62,2.62,0,0,1-.8-.48l-.05-.06a3,3,0,0,1-.74-1,2.64,2.64,0,0,1-.26-1.14,2.69,2.69,0,0,1,.28-1.21,3.23,3.23,0,0,1,.8-1,3.76,3.76,0,0,1,1.17-.67,4.17,4.17,0,0,1,2.73,0,3.81,3.81,0,0,1,1.18.67,3.06,3.06,0,0,1,.79,1,2.81,2.81,0,0,1,.27,1.21v.18Z"/><path class="cls-3" d="M288.22,330.34v2.14h-6.74v-9.9h6.61v2.14H284v1.74h3.43v2.14H284v1.74Z"/><path class="cls-3" d="M297.42,332.48h-2.54l-1.57-3.74H291.7v3.74h-2.36v-9.9h4.72a3,3,0,0,1,2.66,1.54,3.05,3.05,0,0,1,0,3,3.19,3.19,0,0,1-1,1.11Zm-2.79-7.54a1,1,0,0,0-.66-.33h-2.32v2.1H294a1,1,0,0,0,.66-.34,1.08,1.08,0,0,0,0-1.43Z"/><path class="cls-3" d="M307.61,322.68l3.23,9.8h-2.43l-.65-2H304.7l-.63,2h-2.45l3.24-9.8Zm-2.26,5.75h1.77l-.88-2.77Z"/><path class="cls-3" d="M316.83,329.94a2.84,2.84,0,0,0,.84-.55l1.71,1.7a4.93,4.93,0,0,1-1.61,1.09,4.82,4.82,0,0,1-1.93.38,4.89,4.89,0,0,1-2.51-.67,5,5,0,0,1-1.82-1.82,4.93,4.93,0,0,1-.67-2.5,5,5,0,0,1,2.49-4.34,4.9,4.9,0,0,1,2.51-.68,4.82,4.82,0,0,1,1.93.39,5.06,5.06,0,0,1,1.61,1.08l-1.71,1.71a2.66,2.66,0,0,0-.84-.55,2.37,2.37,0,0,0-1-.2,2.41,2.41,0,0,0-1.29.35,2.65,2.65,0,0,0-.94.94,2.56,2.56,0,0,0-.35,1.3,2.49,2.49,0,0,0,.35,1.28,2.65,2.65,0,0,0,.94.94,2.5,2.5,0,0,0,1.29.35A2.54,2.54,0,0,0,316.83,329.94Z"/><path class="cls-3" d="M327.68,322.58v2.52h-2.53v7.38h-2.53V325.1h-2.54v-2.52h7.6Z"/><path class="cls-3" d="M331.18,322.58v9.9h-2.52v-9.9Z"/><path class="cls-3" d="M339.54,323.25a5,5,0,0,1,1.82,1.83,5,5,0,0,1,0,5,5,5,0,0,1-1.82,1.82,4.83,4.83,0,0,1-2.5.67,4.9,4.9,0,0,1-2.52-.67,5,5,0,0,1-1.82-1.82,5,5,0,0,1,1.82-6.85,5,5,0,0,1,2.52-.67A4.93,4.93,0,0,1,339.54,323.25Zm-1.22,6.57a2.57,2.57,0,0,0,.94-.94,2.41,2.41,0,0,0,.35-1.29,2.45,2.45,0,0,0-.35-1.29,2.59,2.59,0,0,0-.94-.95A2.49,2.49,0,0,0,337,325a2.56,2.56,0,0,0-1.3.35,2.59,2.59,0,0,0-.94.95,2.45,2.45,0,0,0-.35,1.29,2.41,2.41,0,0,0,.35,1.29,2.59,2.59,0,0,0,2.24,1.29A2.49,2.49,0,0,0,338.32,329.82Z"/><path class="cls-3" d="M348.32,322.58h2.52v9.9h-2.52l-2.91-5.31v5.31h-2.54v-9.9h2.54l2.91,5.31Z"/><path class="cls-3" d="M356.48,325.72v-.18a.88.88,0,0,0-.34-.7,1.26,1.26,0,0,0-.83-.28,1.31,1.31,0,0,0-.86.28.87.87,0,0,0-.36.7.64.64,0,0,0,.36.6,3,3,0,0,0,.95.39l.22,0,.25.06a4.94,4.94,0,0,1,2,.82l.12.12a3,3,0,0,1,.67,1,2.79,2.79,0,0,1,0,2.33,3.06,3.06,0,0,1-.79,1,3.59,3.59,0,0,1-1.18.66,4.17,4.17,0,0,1-2.73,0,3.55,3.55,0,0,1-1.17-.66,3.23,3.23,0,0,1-.8-1,2.72,2.72,0,0,1-.28-1.21v-.18h2.45v.18a.86.86,0,0,0,.34.69,1.19,1.19,0,0,0,.82.29,1.26,1.26,0,0,0,.86-.29.85.85,0,0,0,.36-.69.8.8,0,0,0-.38-.61,1.22,1.22,0,0,0-.39-.21,3.64,3.64,0,0,0-.55-.17l-.46-.11c-.51-.13-.91-.25-1.2-.35a2.62,2.62,0,0,1-.8-.48l-.06-.06a3.14,3.14,0,0,1-.73-1,2.64,2.64,0,0,1-.26-1.14,2.69,2.69,0,0,1,.28-1.21,3.23,3.23,0,0,1,.8-1,3.76,3.76,0,0,1,1.17-.67,4.17,4.17,0,0,1,2.73,0,3.81,3.81,0,0,1,1.18.67,3.06,3.06,0,0,1,.79,1,2.81,2.81,0,0,1,.27,1.21v.18Z"/><path class="cls-3" d="M33.91,350.16a12.87,12.87,0,0,1-1.43-4.6c0-.37,0-.77,0-1.21a11.14,11.14,0,0,1,.28-2.55,10.15,10.15,0,0,1,.74-2.26,9.45,9.45,0,0,1,.66-1.22l1.52,1.06c0,.07-.12.22-.26.46a10.94,10.94,0,0,0-.45,1,8.93,8.93,0,0,0-.42,1.43,10.24,10.24,0,0,0-.21,2.07,8.49,8.49,0,0,0,.06,1.07,10.86,10.86,0,0,0,1.21,3.87Z"/><path class="cls-3" d="M44.83,349.28H42.3l-1.57-3.74H39.12v3.74H36.75v-9.9h4.72a3.06,3.06,0,0,1,1.54.41,3.14,3.14,0,0,1,1.13,1.13,3.09,3.09,0,0,1,.41,1.54,3,3,0,0,1-.38,1.48,3.19,3.19,0,0,1-1,1.11ZM42,341.74a.92.92,0,0,0-.65-.33H39.06v2.1h2.33a1,1,0,0,0,.65-.34,1.08,1.08,0,0,0,0-1.43Z"/><path class="cls-3" d="M52.41,347.14v2.14H45.67v-9.9h6.61v2.14H48.21v1.74h3.42v2.14H48.21v1.74Z"/><path class="cls-3" d="M63.25,344.38a4.87,4.87,0,0,1-.67,2.51,5,5,0,0,1-4.34,2.49,4.93,4.93,0,0,1-2.5-.67,5,5,0,0,1-1.82-1.82,5,5,0,0,1,0-5A5,5,0,0,1,55.74,340a4.83,4.83,0,0,1,2.5-.67,4.93,4.93,0,0,1,3.56,1.48l-2.26,1.29a2.55,2.55,0,0,0-2.58,0,2.57,2.57,0,0,0-.94.94,2.46,2.46,0,0,0-.35,1.3,2.41,2.41,0,0,0,.35,1.29,2.65,2.65,0,0,0,.94.94,2.54,2.54,0,0,0,2.64,0,2.62,2.62,0,0,0,.95-1h-3.1v-2.32h5.67A5.56,5.56,0,0,1,63.25,344.38Z"/><path class="cls-3" d="M66.62,339.38v9.9H64.09v-9.9Z"/><path class="cls-3" d="M72.26,342.52v-.18a.89.89,0,0,0-.35-.7,1.23,1.23,0,0,0-.83-.28,1.35,1.35,0,0,0-.86.28.87.87,0,0,0-.36.7.63.63,0,0,0,.37.6,2.92,2.92,0,0,0,1,.39l.22,0,.24.06a4.88,4.88,0,0,1,2,.82l.13.12a2.94,2.94,0,0,1,.66,1,2.71,2.71,0,0,1,.25,1.12,2.85,2.85,0,0,1-.27,1.21,3.34,3.34,0,0,1-.79,1,3.7,3.7,0,0,1-1.18.66,4,4,0,0,1-1.37.23,3.94,3.94,0,0,1-1.37-.23,3.76,3.76,0,0,1-1.17-.66,3.19,3.19,0,0,1-.79-1,2.72,2.72,0,0,1-.28-1.21v-.18h2.45v.18a.89.89,0,0,0,.34.7,1.24,1.24,0,0,0,.82.28,1.35,1.35,0,0,0,.86-.28.89.89,0,0,0,.36-.7.8.8,0,0,0-.38-.61,1.39,1.39,0,0,0-.4-.21,3.48,3.48,0,0,0-.54-.17l-.46-.11c-.52-.13-.92-.25-1.21-.35a2.75,2.75,0,0,1-.8-.48l0-.06a3.17,3.17,0,0,1-.74-1,2.63,2.63,0,0,1-.25-1.14,2.69,2.69,0,0,1,.28-1.21,3.19,3.19,0,0,1,.79-1,4,4,0,0,1,1.17-.67,4.19,4.19,0,0,1,1.37-.23,4.24,4.24,0,0,1,1.37.23,3.93,3.93,0,0,1,1.18.67,3.34,3.34,0,0,1,.79,1,2.81,2.81,0,0,1,.27,1.21v.18Z"/><path class="cls-3" d="M83,339.38v2.52H80.45v7.38H77.91V341.9H75.38v-2.52H83Z"/><path class="cls-3" d="M92,349.28H89.5l-1.56-3.74H86.33v3.74H84v-9.9h4.72a3.09,3.09,0,0,1,1.54.41,3.14,3.14,0,0,1,1.13,1.13,3.09,3.09,0,0,1,.41,1.54,3,3,0,0,1-.38,1.48,3.19,3.19,0,0,1-1,1.11Zm-2.79-7.54a.92.92,0,0,0-.66-.33H86.27v2.1h2.32a1,1,0,0,0,.66-.34,1.08,1.08,0,0,0,0-1.43Z"/><path class="cls-3" d="M98,339.48l3.23,9.8H98.83l-.64-2H95.12l-.63,2H92l3.25-9.8Zm-2.25,5.75h1.76l-.88-2.77Z"/><path class="cls-3" d="M109,339.38v2.52h-2.54v7.38h-2.53V341.9h-2.53v-2.52H109Z"/><path class="cls-3" d="M112.51,339.38v9.9H110v-9.9Z"/><path class="cls-3" d="M120.87,340.05a5.07,5.07,0,0,1,1.82,1.83,5,5,0,0,1-1.82,6.84,5,5,0,0,1-5,0A5,5,0,0,1,114,346.9a5,5,0,0,1,0-5,5,5,0,0,1,1.83-1.83,5,5,0,0,1,5,0Zm-1.22,6.57a2.62,2.62,0,0,0,.93-.94,2.41,2.41,0,0,0,.36-1.29,2.46,2.46,0,0,0-.36-1.29,2.65,2.65,0,0,0-.93-1,2.52,2.52,0,0,0-1.29-.35,2.56,2.56,0,0,0-1.3.35,2.67,2.67,0,0,0-.94,1,2.55,2.55,0,0,0-.35,1.29,2.5,2.5,0,0,0,.35,1.29,2.65,2.65,0,0,0,.94.94,2.56,2.56,0,0,0,1.3.35A2.52,2.52,0,0,0,119.65,346.62Z"/><path class="cls-3" d="M129.64,339.38h2.52v9.9h-2.52L126.73,344v5.31H124.2v-9.9h2.53l2.91,5.31Z"/><path class="cls-3" d="M145.45,339.38h2.18v9.9h-2.52l-2.55-4.21L140,349.28h-2.52v-9.9H140V345l1.23-2.24.07-.11h2.52l.06.11,1.23,2.24v-5.59Z"/><path class="cls-3" d="M155.49,347.14v2.14h-6.74v-9.9h6.61v2.14h-4.07v1.74h3.43v2.14h-3.43v1.74Z"/><path class="cls-3" d="M164.07,345.1a2.86,2.86,0,0,1,.32,1.32,2.86,2.86,0,0,1-1.41,2.46,2.82,2.82,0,0,1-1.43.4h-4.94v-9.9h4.49a2.73,2.73,0,0,1,1.44.39,2.9,2.9,0,0,1,1,1,2.82,2.82,0,0,1,.37,1.4,2.76,2.76,0,0,1-.2,1,2.71,2.71,0,0,1-.54.88A2.83,2.83,0,0,1,164.07,345.1Zm-2.61-3.4a1,1,0,0,0-.72-.3h-1.82v2.1h1.82l.33-.06a.72.72,0,0,0,.25-.14,1.1,1.1,0,0,0,.33-.38,1.14,1.14,0,0,0,.11-.49A1,1,0,0,0,161.46,341.7Zm.42,5.23a1,1,0,0,0,.29-.74,1.06,1.06,0,0,0-.24-.67,1,1,0,0,0-.61-.36h-2.4v2.1h2.24A1,1,0,0,0,161.88,346.93Z"/><path class="cls-3" d="M165.71,347.56h2.36l-1,3.16H165Z"/><path class="cls-3" d="M177.63,342.52v-.18a.88.88,0,0,0-.34-.7,1.26,1.26,0,0,0-.83-.28,1.31,1.31,0,0,0-.86.28.87.87,0,0,0-.36.7.64.64,0,0,0,.36.6,3,3,0,0,0,1,.39l.21,0,.25.06a4.94,4.94,0,0,1,2,.82l.13.12a2.94,2.94,0,0,1,.66,1,2.7,2.7,0,0,1,0,2.33,3.06,3.06,0,0,1-.79,1,3.65,3.65,0,0,1-1.17.66,4,4,0,0,1-1.38.23,3.89,3.89,0,0,1-1.36-.23,3.55,3.55,0,0,1-1.17-.66,3.23,3.23,0,0,1-.8-1,2.72,2.72,0,0,1-.28-1.21v-.18h2.45v.18a.9.9,0,0,0,.35.7,1.21,1.21,0,0,0,.81.28,1.31,1.31,0,0,0,.86-.28.89.89,0,0,0,.36-.7.78.78,0,0,0-.38-.61,1.22,1.22,0,0,0-.39-.21,3.86,3.86,0,0,0-.54-.17l-.47-.11c-.51-.13-.91-.25-1.2-.35a2.75,2.75,0,0,1-.8-.48l0-.06a3,3,0,0,1-.74-1,2.64,2.64,0,0,1-.26-1.14,2.69,2.69,0,0,1,.28-1.21,3.23,3.23,0,0,1,.8-1,3.76,3.76,0,0,1,1.17-.67,4.13,4.13,0,0,1,1.36-.23,4.25,4.25,0,0,1,1.38.23,3.88,3.88,0,0,1,1.17.67,3.06,3.06,0,0,1,.79,1,2.82,2.82,0,0,1,.28,1.21v.18Z"/><path class="cls-3" d="M189,339.4v6.11a3.79,3.79,0,0,1-.53,2A4,4,0,0,1,187,348.9a3.91,3.91,0,0,1-2,.52h-.23a3.91,3.91,0,0,1-2-.52,4.05,4.05,0,0,1-1.42-1.43,3.78,3.78,0,0,1-.52-2V339.4h2.33V345a2.41,2.41,0,0,0,.42,1.45,1.36,1.36,0,0,0,1.15.57H185a1.38,1.38,0,0,0,1.14-.58,2.35,2.35,0,0,0,.44-1.44V339.4Z"/><path class="cls-3" d="M197.53,345.1a2.86,2.86,0,0,1,.32,1.32,2.86,2.86,0,0,1-1.41,2.46,2.82,2.82,0,0,1-1.43.4h-4.94v-9.9h4.49a2.73,2.73,0,0,1,1.44.39,2.9,2.9,0,0,1,1,1,2.82,2.82,0,0,1,.37,1.4,2.76,2.76,0,0,1-.2,1,2.71,2.71,0,0,1-.54.88A2.83,2.83,0,0,1,197.53,345.1Zm-2.61-3.4a1,1,0,0,0-.72-.3h-1.82v2.1h1.82l.33-.06a.72.72,0,0,0,.25-.14,1.1,1.1,0,0,0,.33-.38,1.14,1.14,0,0,0,.11-.49A1,1,0,0,0,194.92,341.7Zm.42,5.23a1,1,0,0,0,.28-.74,1,1,0,0,0-.84-1h-2.4v2.1h2.24A1,1,0,0,0,195.34,346.93Z"/><path class="cls-3" d="M203.21,342.52v-.18a.88.88,0,0,0-.34-.7,1.26,1.26,0,0,0-.83-.28,1.35,1.35,0,0,0-.87.28.89.89,0,0,0-.35.7.64.64,0,0,0,.36.6,3,3,0,0,0,.95.39l.22,0,.25.06a5,5,0,0,1,2,.82l.12.12a3,3,0,0,1,.67,1,2.79,2.79,0,0,1,0,2.33,3.06,3.06,0,0,1-.79,1,3.7,3.7,0,0,1-1.18.66,4.17,4.17,0,0,1-2.73,0,3.55,3.55,0,0,1-1.17-.66,3.23,3.23,0,0,1-.8-1,2.72,2.72,0,0,1-.28-1.21v-.18h2.45v.18a.89.89,0,0,0,.34.7,1.26,1.26,0,0,0,.82.28,1.31,1.31,0,0,0,.86-.28.89.89,0,0,0,.36-.7.8.8,0,0,0-.38-.61,1.22,1.22,0,0,0-.39-.21,3.64,3.64,0,0,0-.55-.17l-.46-.11c-.51-.13-.91-.25-1.2-.35a2.62,2.62,0,0,1-.8-.48l-.06-.06a3.14,3.14,0,0,1-.73-1,2.64,2.64,0,0,1-.26-1.14,2.69,2.69,0,0,1,.28-1.21,3.23,3.23,0,0,1,.8-1,3.76,3.76,0,0,1,1.17-.67,4.17,4.17,0,0,1,2.73,0,3.93,3.93,0,0,1,1.18.67,3.06,3.06,0,0,1,.79,1,2.81,2.81,0,0,1,.27,1.21v.18Z"/><path class="cls-3" d="M212.19,346.74a3.13,3.13,0,0,0,.84-.55l1.7,1.7a4.93,4.93,0,0,1-1.61,1.09,5,5,0,0,1-4.43-.29,4.89,4.89,0,0,1-1.82-1.82,4.84,4.84,0,0,1-.68-2.5,4.91,4.91,0,0,1,.68-2.52,5,5,0,0,1,6.25-2.11,5.06,5.06,0,0,1,1.61,1.08l-1.7,1.71a2.91,2.91,0,0,0-.84-.55,2.57,2.57,0,0,0-2.29.15,2.54,2.54,0,0,0-.93.94,2.46,2.46,0,0,0-.35,1.3,2.4,2.4,0,0,0,.35,1.28,2.54,2.54,0,0,0,.93.94,2.45,2.45,0,0,0,1.29.35A2.62,2.62,0,0,0,212.19,346.74Z"/><path class="cls-3" d="M223.65,349.28h-2.53l-1.57-3.74h-1.61v3.74h-2.37v-9.9h4.72a3.06,3.06,0,0,1,1.54.41,3.14,3.14,0,0,1,1.13,1.13,3.09,3.09,0,0,1,.41,1.54,2.91,2.91,0,0,1-.38,1.48,3.19,3.19,0,0,1-1,1.11Zm-2.78-7.54a1,1,0,0,0-.66-.33h-2.33v2.1h2.33a1,1,0,0,0,.66-.34,1.11,1.11,0,0,0,0-1.43Z"/><path class="cls-3" d="M227,339.38v9.9h-2.52v-9.9Z"/><path class="cls-3" d="M234.4,339.79a3.16,3.16,0,0,1,1.12,1.12,3.13,3.13,0,0,1,0,3.1,3.16,3.16,0,0,1-1.12,1.12,3.07,3.07,0,0,1-1.55.41H230.5v3.74h-2.37v-9.9h4.72A3.07,3.07,0,0,1,234.4,339.79Zm-1,1.95a1,1,0,0,0-.66-.33h-2.33v2.1h2.33a.93.93,0,0,0,.66-.34,1.08,1.08,0,0,0,.27-.72A1,1,0,0,0,233.43,341.74Z"/><path class="cls-3" d="M244.23,339.38v2.52H241.7v7.38h-2.54V341.9h-2.53v-2.52h7.6Z"/><path class="cls-3" d="M247.73,339.38v9.9h-2.52v-9.9Z"/><path class="cls-3" d="M256.09,340.05a5,5,0,0,1,1.82,1.83,5,5,0,0,1,0,5,5,5,0,0,1-1.82,1.82,5,5,0,0,1-5,0,5,5,0,0,1,5-8.67Zm-1.22,6.57a2.65,2.65,0,0,0,.94-.94,2.5,2.5,0,0,0,.35-1.29,2.55,2.55,0,0,0-.35-1.29,2.67,2.67,0,0,0-.94-1,2.5,2.5,0,0,0-1.29-.35,2.55,2.55,0,0,0-1.29.35,2.7,2.7,0,0,0-.95,1,2.55,2.55,0,0,0-.35,1.29,2.5,2.5,0,0,0,.35,1.29,2.67,2.67,0,0,0,.95.94,2.55,2.55,0,0,0,1.29.35A2.5,2.5,0,0,0,254.87,346.62Z"/><path class="cls-3" d="M264.87,339.38h2.52v9.9h-2.52L262,344v5.31h-2.54v-9.9H262l2.91,5.31Z"/><path class="cls-3" d="M280.17,339.38v2.52h-2.53v7.38H275.1V341.9h-2.53v-2.52h7.6Z"/><path class="cls-3" d="M288.39,340.05a5.07,5.07,0,0,1,1.82,1.83,5,5,0,0,1,0,5,5,5,0,0,1-1.82,1.82,5,5,0,0,1-5,0,5,5,0,0,1-1.83-1.82,5,5,0,0,1,0-5,5,5,0,0,1,4.34-2.5A5,5,0,0,1,288.39,340.05Zm-1.22,6.57a2.65,2.65,0,0,0,.94-.94,2.5,2.5,0,0,0,.35-1.29,2.55,2.55,0,0,0-.35-1.29,2.67,2.67,0,0,0-.94-1,2.5,2.5,0,0,0-1.29-.35,2.52,2.52,0,0,0-1.29.35,2.7,2.7,0,0,0-.95,1,2.55,2.55,0,0,0-.35,1.29,2.5,2.5,0,0,0,.35,1.29,2.67,2.67,0,0,0,.95.94,2.52,2.52,0,0,0,1.29.35A2.5,2.5,0,0,0,287.17,346.62Z"/><path class="cls-3" d="M39.89,356.18v2.52H37.36v7.38H34.82V358.7H32.29v-2.52h7.6Z"/><path class="cls-3" d="M47.6,363.94v2.14H40.87v-9.9h6.61v2.14H43.4v1.74h3.43v2.14H43.4v1.74Z"/><path class="cls-3" d="M51.24,363.7h3.9v2.38H48.72v-9.9h2.52Z"/><path class="cls-3" d="M62.85,363.94v2.14H56.12v-9.9h6.6v2.14H58.65v1.74h3.43v2.14H58.65v1.74Z"/><path class="cls-3" d="M73.7,361.18a4.89,4.89,0,0,1-.67,2.51,5.07,5.07,0,0,1-1.83,1.82,5,5,0,0,1-5,0,5.12,5.12,0,0,1-1.82-1.82,5,5,0,0,1,0-5,5.07,5.07,0,0,1,1.82-1.83,4.87,4.87,0,0,1,2.51-.67,4.93,4.93,0,0,1,3.55,1.48L70,358.94a2.53,2.53,0,0,0-1.3-.35,2.5,2.5,0,0,0-1.29.35,2.65,2.65,0,0,0-.94.94,2.56,2.56,0,0,0-.35,1.3,2.5,2.5,0,0,0,.35,1.29,2.73,2.73,0,0,0,.94.94,2.5,2.5,0,0,0,1.29.35,2.53,2.53,0,0,0,1.36-.39,2.69,2.69,0,0,0,1-1H67.89V360h5.67A5.62,5.62,0,0,1,73.7,361.18Z"/><path class="cls-3" d="M82.62,366.08H80.08l-1.56-3.74H76.91v3.74H74.54v-9.9h4.72a3,3,0,0,1,2.66,1.54,3.05,3.05,0,0,1,0,3,3.19,3.19,0,0,1-1,1.11Zm-2.79-7.54a1,1,0,0,0-.66-.33H76.85v2.1h2.32a1,1,0,0,0,.66-.34,1.08,1.08,0,0,0,0-1.43Z"/><path class="cls-3" d="M88.61,356.28l3.23,9.8H89.41l-.65-2H85.7l-.63,2H82.62l3.25-9.8ZM86.36,362h1.76l-.88-2.77Z"/><path class="cls-3" d="M99.75,356.18h2.52v9.9H99.75v-5.59l-1.23,2.24-.06.12H96l-.07-.12-.17-.32-1-1.92v5.59H92.12v-9.9h2.54l2.55,4.22Z"/><path class="cls-3" d="M103.87,364.36h2.37l-1,3.16h-2.09Z"/><path class="cls-3" d="M118.74,356.18v2.52H116.2v7.38h-2.53V358.7h-2.54v-2.52h7.61Z"/><path class="cls-3" d="M127.68,356.18h2.19v9.9h-2.52l-2.55-4.21-2.56,4.21h-2.52v-9.9h2.52v5.59l1.23-2.24.07-.11h2.52l0,.11,1.24,2.24v-5.59Z"/><path class="cls-3" d="M133.51,356.18v9.9H131v-9.9Z"/><path class="cls-3" d="M142.09,356.18v2.52h-2.54v7.38H137V358.7h-2.53v-2.52h7.6Z"/><path class="cls-3" d="M150.53,356.18v2.52H148v7.38h-2.54V358.7h-2.53v-2.52h7.6Z"/><path class="cls-3" d="M158.24,363.94v2.14h-6.73v-9.9h6.61v2.14H154v1.74h3.43v2.14H154v1.74Z"/><path class="cls-3" d="M167.44,366.08h-2.53l-1.57-3.74h-1.61v3.74h-2.37v-9.9h4.72a3.06,3.06,0,0,1,1.54.41,3.14,3.14,0,0,1,1.13,1.13,3.09,3.09,0,0,1,.41,1.54,2.91,2.91,0,0,1-.38,1.48,3.19,3.19,0,0,1-1,1.11Zm-2.78-7.54a1,1,0,0,0-.66-.33h-2.33v2.1H164a1,1,0,0,0,.66-.34,1.11,1.11,0,0,0,0-1.43Z"/><path class="cls-3" d="M168.76,364.36h2.36l-1,3.16H168Z"/><path class="cls-3" d="M183.05,358.32h-4.37v1.74h3.5v2.14h-3.5v3.88h-2.52v-9.9h6.89Z"/><path class="cls-3" d="M189,356.28l3.24,9.8h-2.44l-.64-2h-3.07l-.63,2h-2.45l3.25-9.8ZM186.79,362h1.76l-.88-2.77Z"/><path class="cls-3" d="M198.27,363.54a2.84,2.84,0,0,0,.84-.55l1.71,1.7a5.15,5.15,0,0,1-1.61,1.09,5.06,5.06,0,0,1-4.44-.29,5,5,0,0,1-1.82-1.82,4.83,4.83,0,0,1-.67-2.5,5,5,0,0,1,6.93-4.63,5.3,5.3,0,0,1,1.61,1.08l-1.71,1.71a2.66,2.66,0,0,0-.84-.55,2.43,2.43,0,0,0-1-.2,2.41,2.41,0,0,0-1.29.35,2.59,2.59,0,0,0-1.29,2.24,2.49,2.49,0,0,0,.35,1.28,2.57,2.57,0,0,0,.94.94,2.41,2.41,0,0,0,1.29.35A2.61,2.61,0,0,0,198.27,363.54Z"/><path class="cls-3" d="M208.39,363.94v2.14h-6.73v-9.9h6.61v2.14h-4.08v1.74h3.43v2.14h-3.43v1.74Z"/><path class="cls-3" d="M217,361.9a2.82,2.82,0,0,1-.05,2.74,2.88,2.88,0,0,1-2.47,1.44h-4.94v-9.9H214a2.73,2.73,0,0,1,1.44.39,2.8,2.8,0,0,1,1,1,2.69,2.69,0,0,1,.37,1.4,2.75,2.75,0,0,1-.19,1,2.57,2.57,0,0,1-.55.88A2.74,2.74,0,0,1,217,361.9Zm-2.61-3.4a1,1,0,0,0-.72-.3h-1.82v2.1h1.82l.34-.06a.82.82,0,0,0,.25-.14,1,1,0,0,0,.32-.38,1,1,0,0,0,.11-.49A1,1,0,0,0,214.36,358.5Zm.42,5.23a1.07,1.07,0,0,0,.05-1.41,1,1,0,0,0-.6-.36h-2.41v2.1h2.24A1,1,0,0,0,214.78,363.73Z"/><path class="cls-3" d="M225.37,356.85a5,5,0,0,1,0,8.67,4.83,4.83,0,0,1-2.5.67,4.93,4.93,0,0,1-2.52-.67,5,5,0,0,1-1.82-1.82,5,5,0,0,1,0-5,5,5,0,0,1,4.34-2.5A4.93,4.93,0,0,1,225.37,356.85Zm-1.21,6.57a2.62,2.62,0,0,0,.93-.94,2.41,2.41,0,0,0,.35-1.29,2.45,2.45,0,0,0-.35-1.29,2.65,2.65,0,0,0-.93-.95,2.57,2.57,0,0,0-2.59,0,2.67,2.67,0,0,0-.94.95,2.45,2.45,0,0,0-.35,1.29,2.41,2.41,0,0,0,.35,1.29,2.65,2.65,0,0,0,.94.94,2.57,2.57,0,0,0,2.59,0Z"/><path class="cls-3" d="M235.94,356.85a5,5,0,0,1,0,8.67,4.83,4.83,0,0,1-2.5.67,4.9,4.9,0,0,1-2.52-.67,5,5,0,0,1-1.82-1.82,5,5,0,0,1,0-5,5,5,0,0,1,4.34-2.5A4.93,4.93,0,0,1,235.94,356.85Zm-1.21,6.57a2.62,2.62,0,0,0,.93-.94,2.41,2.41,0,0,0,.35-1.29,2.45,2.45,0,0,0-.35-1.29,2.65,2.65,0,0,0-.93-.95,2.57,2.57,0,0,0-2.59,0,2.67,2.67,0,0,0-.94.95,2.45,2.45,0,0,0-.35,1.29,2.41,2.41,0,0,0,.35,1.29,2.65,2.65,0,0,0,.94.94,2.57,2.57,0,0,0,2.59,0Z"/><path class="cls-3" d="M244.08,361.08l2.95,5h-2.8l-2.44-4v4h-2.51v-9.9h2.51v3.87l2.44-3.87H247Z"/><path class="cls-3" d="M248.63,364.36H251l-1,3.16h-2.09Z"/><path class="cls-3" d="M262.77,363.94v2.14H256v-9.9h6.61v2.14h-4.07v1.74H262v2.14h-3.43v1.74Z"/><path class="cls-3" d="M271.35,356.18v2.52h-2.54v7.38h-2.53V358.7h-2.53v-2.52h7.6Z"/><path class="cls-3" d="M278,363.54a2.84,2.84,0,0,0,.84-.55l1.71,1.7a5.15,5.15,0,0,1-1.61,1.09,5.06,5.06,0,0,1-4.44-.29,5,5,0,0,1-1.82-1.82,4.83,4.83,0,0,1-.67-2.5,4.9,4.9,0,0,1,.67-2.52,5,5,0,0,1,1.82-1.82,5,5,0,0,1,4.44-.29,5.3,5.3,0,0,1,1.61,1.08l-1.71,1.71a2.66,2.66,0,0,0-.84-.55,2.43,2.43,0,0,0-1-.2,2.41,2.41,0,0,0-1.29.35,2.59,2.59,0,0,0-1.29,2.24,2.49,2.49,0,0,0,.35,1.28,2.57,2.57,0,0,0,.94.94,2.41,2.41,0,0,0,1.29.35A2.61,2.61,0,0,0,278,363.54Z"/><path class="cls-3" d="M281.53,365.67a1.33,1.33,0,0,1-.38-1,1.24,1.24,0,0,1,.38-.91,1.33,1.33,0,1,1,.92,2.28A1.22,1.22,0,0,1,281.53,365.67Z"/><path class="cls-3" d="M286.34,367l-1.65-.87a10.88,10.88,0,0,0,1.22-3.87,8.64,8.64,0,0,0,0-1.07,10,10,0,0,0-.66-3.6,7,7,0,0,0-.48-1.05l-.2-.32,1.53-1.06a8.6,8.6,0,0,1,.65,1.22,10.67,10.67,0,0,1,.75,2.26,11.72,11.72,0,0,1,.28,2.55,11.26,11.26,0,0,1-.06,1.21A12.67,12.67,0,0,1,286.34,367Z"/><path class="cls-3" d="M40.39,373h2.19v9.9H40.06l-2.55-4.21L35,382.88H32.43V373H35v5.59l1.23-2.24.07-.11h2.52l.06.11,1.23,2.24V373Z"/><path class="cls-3" d="M46.22,373v9.9H43.7V373Z"/><path class="cls-3" d="M54.8,373v2.52H52.27v7.38H49.73V375.5H47.2V373h7.6Z"/><path class="cls-3" d="M61.13,373h2.52v9.9H61.13v-3.7H58.3v3.7H55.78V373H58.3v3.68h2.83Z"/><path class="cls-3" d="M75.23,373.4a3.1,3.1,0,0,1,1.12,4.21,3.08,3.08,0,0,1-1.12,1.12,3,3,0,0,1-1.55.41H71.33v3.74H69V373h4.71A3,3,0,0,1,75.23,373.4Zm-1,1.94a1,1,0,0,0-.67-.33H71.28v2.1H73.6a1,1,0,0,0,.67-.34,1.08,1.08,0,0,0,.27-.72A1,1,0,0,0,74.27,375.34Z"/><path class="cls-3" d="M85.68,382.88H83.15l-1.57-3.74H80v3.74H77.6V373h4.72a3,3,0,0,1,1.54.42A3,3,0,0,1,85,374.52a3.09,3.09,0,0,1,.41,1.54,2.91,2.91,0,0,1-.38,1.48,3.19,3.19,0,0,1-1,1.11Zm-2.78-7.54a1,1,0,0,0-.66-.33H79.92v2.1h2.32a1,1,0,0,0,.66-.34,1.11,1.11,0,0,0,0-1.43Z"/><path class="cls-3" d="M93.76,373.65a5,5,0,0,1,1.82,1.83,5,5,0,0,1,0,5,5,5,0,0,1-1.82,1.82,4.84,4.84,0,0,1-2.51.67,5,5,0,0,1-2.51-9.34,5,5,0,0,1,2.51-.67A4.94,4.94,0,0,1,93.76,373.65Zm-1.22,6.57a2.65,2.65,0,0,0,.94-.94,2.5,2.5,0,0,0,.35-1.29,2.55,2.55,0,0,0-.35-1.29,2.67,2.67,0,0,0-.94-.95,2.5,2.5,0,0,0-1.29-.35,2.55,2.55,0,0,0-1.29.35,2.7,2.7,0,0,0-.95.95,2.54,2.54,0,0,0-.34,1.29,2.49,2.49,0,0,0,.34,1.29,2.67,2.67,0,0,0,.95.94,2.55,2.55,0,0,0,1.29.35A2.5,2.5,0,0,0,92.54,380.22Z"/><path class="cls-3" d="M102.29,373h2.33v6.12a3.81,3.81,0,0,1-.52,2,3.87,3.87,0,0,1-1.42,1.42,3.89,3.89,0,0,1-3.92,0A3.87,3.87,0,0,1,97.34,381a3.82,3.82,0,0,1-.53-2v-.4h2.34A2.19,2.19,0,0,0,99.6,380a1.36,1.36,0,0,0,1.12.53,1.38,1.38,0,0,0,1.13-.58,2.35,2.35,0,0,0,.44-1.44Z"/><path class="cls-3" d="M112.48,380.74v2.14h-6.74V373h6.61v2.14h-4.07v1.74h3.43V379h-3.43v1.74Z"/><path class="cls-3" d="M119.31,380.34a2.84,2.84,0,0,0,.84-.55l1.71,1.7a5.15,5.15,0,0,1-1.61,1.09,5.06,5.06,0,0,1-4.44-.29,5,5,0,0,1-1.82-1.82,4.83,4.83,0,0,1-.67-2.5,5,5,0,0,1,6.93-4.63,5.3,5.3,0,0,1,1.61,1.08l-1.71,1.71a2.66,2.66,0,0,0-.84-.55,2.43,2.43,0,0,0-1-.2,2.41,2.41,0,0,0-1.29.35,2.59,2.59,0,0,0-1.29,2.24,2.49,2.49,0,0,0,.35,1.28,2.57,2.57,0,0,0,.94.94,2.41,2.41,0,0,0,1.29.35A2.61,2.61,0,0,0,119.31,380.34Z"/><path class="cls-3" d="M130.16,373v2.52h-2.53v7.38h-2.54V375.5h-2.53V373h7.6Z"/><path class="cls-3" d="M142.8,373v2.52h-2.53v7.38h-2.54V375.5H135.2V373h7.6Z"/><path class="cls-3" d="M151,373.65a5,5,0,0,1,1.82,1.83,5,5,0,0,1,0,5,5,5,0,0,1-1.82,1.82,5,5,0,0,1-5,0,5,5,0,0,1,5-8.67Zm-1.22,6.57a2.65,2.65,0,0,0,.94-.94,2.5,2.5,0,0,0,.35-1.29,2.55,2.55,0,0,0-.35-1.29,2.67,2.67,0,0,0-.94-.95,2.5,2.5,0,0,0-1.29-.35,2.55,2.55,0,0,0-1.29.35,2.7,2.7,0,0,0-.95.95,2.55,2.55,0,0,0-.35,1.29,2.5,2.5,0,0,0,.35,1.29,2.67,2.67,0,0,0,.95.94,2.55,2.55,0,0,0,1.29.35A2.5,2.5,0,0,0,149.8,380.22Z"/><path class="cls-3" d="M159.15,377.88l3,5h-2.8l-2.44-4v4h-2.52V373h2.52v3.87l2.44-3.87h2.8Z"/><path class="cls-3" d="M170,380.74v2.14h-6.73V373h6.61v2.14h-4.08v1.74h3.43V379h-3.43v1.74Z"/><path class="cls-3" d="M176.53,373h2.52v9.9h-2.52l-2.91-5.31v5.31h-2.54V373h2.54l2.91,5.31Z"/><path class="cls-3" d="M184.69,376.12v-.18a.88.88,0,0,0-.34-.7,1.27,1.27,0,0,0-.84-.28,1.35,1.35,0,0,0-.86.28.89.89,0,0,0-.35.7.64.64,0,0,0,.36.6,2.92,2.92,0,0,0,1,.39l.22,0,.24.06a5,5,0,0,1,2,.82l.12.12a3.13,3.13,0,0,1,.67,1,2.79,2.79,0,0,1,0,2.33,3.19,3.19,0,0,1-.79,1,3.7,3.7,0,0,1-1.18.66,4.2,4.2,0,0,1-2.74,0,3.6,3.6,0,0,1-1.16-.66,3.09,3.09,0,0,1-.8-1,2.72,2.72,0,0,1-.28-1.21v-.18h2.45v.18a.89.89,0,0,0,.34.7,1.24,1.24,0,0,0,.82.28,1.33,1.33,0,0,0,.86-.28.89.89,0,0,0,.36-.7.8.8,0,0,0-.38-.61,1.22,1.22,0,0,0-.39-.21,3.64,3.64,0,0,0-.55-.17l-.46-.11c-.51-.13-.92-.25-1.2-.35a2.62,2.62,0,0,1-.8-.48l-.06-.06a3,3,0,0,1-.73-1,2.51,2.51,0,0,1-.26-1.14,2.69,2.69,0,0,1,.28-1.21,3.09,3.09,0,0,1,.8-1,3.83,3.83,0,0,1,1.16-.67,4.2,4.2,0,0,1,2.74,0,3.93,3.93,0,0,1,1.18.67,3.19,3.19,0,0,1,.79,1,2.81,2.81,0,0,1,.27,1.21v.18Z"/><path class="cls-3" d="M188.05,382.47a1.37,1.37,0,0,1-.38-1,1.21,1.21,0,0,1,.39-.91,1.25,1.25,0,0,1,.91-.38,1.28,1.28,0,0,1,.94.39,1.33,1.33,0,0,1,0,1.88,1.28,1.28,0,0,1-.94.39A1.22,1.22,0,0,1,188.05,382.47Z"/><path class="cls-4" d="M44.1,261.64h3.13v14.14H43.62l-3.66-6-3.67,6H32.67V261.64h3.62v8l1.76-3.2.1-.16h3.62l.08.16,1.77,3.2v-8Z"/><path class="cls-4" d="M56.51,261.64h3.62v14.14H56.51V270.5H52.45v5.28H48.84V261.64h3.61v5.26h4.06Z"/><path class="cls-4" d="M69.12,261.78l4.64,14H70.27l-.93-2.86H65L64,275.78H60.53l4.66-14ZM65.89,270h2.53l-1.26-4Z"/><path class="cls-4" d="M84.87,261.64v3.6H81.23v10.54H77.6V265.24H74v-3.6H84.87Z"/><path class="cls-4" d="M95.92,261.64v14.14H92.3V261.64Z"/><path class="cls-4" d="M108.23,261.64v3.6h-3.64v10.54H101V265.24H97.32v-3.6h10.91Z"/><path class="cls-4" d="M119.27,261.64v14.14h-3.61V261.64Z"/><path class="cls-4" d="M127.37,266.12v-.26a1.24,1.24,0,0,0-.5-1,1.79,1.79,0,0,0-1.19-.41,2,2,0,0,0-1.24.41,1.22,1.22,0,0,0-.51,1,.93.93,0,0,0,.52.86,4.42,4.42,0,0,0,1.37.56l.31.06.35.08a7,7,0,0,1,2.87,1.18l.19.16a4.47,4.47,0,0,1,1,1.38,4,4,0,0,1,.35,1.6,4,4,0,0,1-.39,1.72,4.4,4.4,0,0,1-1.14,1.46,5.34,5.34,0,0,1-1.68.95,6,6,0,0,1-2,.33,5.85,5.85,0,0,1-2-.33,5.57,5.57,0,0,1-1.68-.95,4.67,4.67,0,0,1-1.14-1.46,3.84,3.84,0,0,1-.4-1.72v-.26H124v.26a1.26,1.26,0,0,0,.49,1,1.8,1.8,0,0,0,1.18.41,1.92,1.92,0,0,0,1.23-.41,1.21,1.21,0,0,0,.52-1,1.14,1.14,0,0,0-.55-.88,2.12,2.12,0,0,0-.56-.3,7.5,7.5,0,0,0-.78-.24l-.66-.16c-.74-.19-1.32-.35-1.73-.5A3.46,3.46,0,0,1,122,269l-.08-.08a4.56,4.56,0,0,1-1.05-1.4,3.74,3.74,0,0,1-.37-1.64,3.84,3.84,0,0,1,.4-1.72,4.67,4.67,0,0,1,1.14-1.46,5.57,5.57,0,0,1,1.68-.95,5.85,5.85,0,0,1,2-.33,6,6,0,0,1,2,.33,5.34,5.34,0,0,1,1.68.95,4.4,4.4,0,0,1,1.14,1.46,4,4,0,0,1,.39,1.72v.26Z"/><path class="cls-4" d="M149.62,261.66v8.74a5.44,5.44,0,0,1-.75,2.8,5.7,5.7,0,0,1-2.05,2A5.56,5.56,0,0,1,144,276h-.33a5.5,5.5,0,0,1-2.81-.75,5.75,5.75,0,0,1-2-2,5.44,5.44,0,0,1-.75-2.8v-8.74h3.35v7.94a3.4,3.4,0,0,0,.61,2.06,1.92,1.92,0,0,0,1.64.82H144a2,2,0,0,0,1.63-.83,3.3,3.3,0,0,0,.64-2v-7.94Z"/><path class="cls-4" d="M157.71,266.12v-.26a1.23,1.23,0,0,0-.49-1,1.83,1.83,0,0,0-1.19-.41,1.93,1.93,0,0,0-1.24.41,1.22,1.22,0,0,0-.51,1,.91.91,0,0,0,.52.86,4.42,4.42,0,0,0,1.37.56l.31.06.35.08a7,7,0,0,1,2.87,1.18l.18.16a4.5,4.5,0,0,1,1,1.38,4,4,0,0,1,.35,1.6,4,4,0,0,1-.39,1.72,4.4,4.4,0,0,1-1.14,1.46,5.39,5.39,0,0,1-1.69.95,6,6,0,0,1-3.92,0,5.57,5.57,0,0,1-1.68-.95,4.53,4.53,0,0,1-1.14-1.46,3.85,3.85,0,0,1-.41-1.72v-.26h3.52v.26a1.23,1.23,0,0,0,.49,1,1.8,1.8,0,0,0,1.18.41,1.92,1.92,0,0,0,1.23-.41,1.22,1.22,0,0,0,.51-1,1.15,1.15,0,0,0-.54-.88,2.29,2.29,0,0,0-.56-.3q-.33-.12-.78-.24l-.67-.16c-.73-.19-1.31-.35-1.72-.5a3.46,3.46,0,0,1-1.15-.68l-.08-.08a4.41,4.41,0,0,1-1.05-1.4,3.75,3.75,0,0,1-.38-1.64,3.85,3.85,0,0,1,.41-1.72,4.53,4.53,0,0,1,1.14-1.46,5.57,5.57,0,0,1,1.68-.95,6,6,0,0,1,3.92,0,5.39,5.39,0,0,1,1.69.95,4.4,4.4,0,0,1,1.14,1.46,4,4,0,0,1,.39,1.72v.26Z"/><path class="cls-4" d="M172.05,272.72v3.06h-9.66V261.64h9.48v3.06H166v2.48H171v3.06H166v2.48Z"/><path class="cls-4" d="M179.89,261.59a8.23,8.23,0,0,1,2.14.51,6.12,6.12,0,0,1,1.95,1.22,7,7,0,0,1,1.74,2.43,7.2,7.2,0,0,1,.61,2.91,6.88,6.88,0,0,1-.78,3.26,6.51,6.51,0,0,1-2.2,2.5,7.76,7.76,0,0,1-2.89,1.13,21.18,21.18,0,0,1-3.59.27l-1.64,0-1.57,0v-14.3h3.64C178.3,261.48,179.16,261.52,179.89,261.59Zm3,7.07a3.63,3.63,0,0,0-.48-1.81,3.77,3.77,0,0,0-1.32-1.37,3.43,3.43,0,0,0-1.82-.54h-2v7.38a16,16,0,0,0,2.48-.17,4.18,4.18,0,0,0,1.86-.79,3.1,3.1,0,0,0,1.14-1.86A3.82,3.82,0,0,0,182.88,268.66Z"/><path class="cls-4" d="M203.44,264.7h-6.26v2.48h5v3.06h-5v5.54h-3.62V261.64h9.88Z"/><path class="cls-4" d="M215,262.6a7.1,7.1,0,0,1,2.61,2.61,7.11,7.11,0,0,1,0,7.17A7.15,7.15,0,0,1,215,275a7,7,0,0,1-3.59,1,7.09,7.09,0,0,1-3.61-1,7.18,7.18,0,0,1-2.62-2.6,7.17,7.17,0,0,1,0-7.17,7.18,7.18,0,0,1,6.23-3.57A7,7,0,0,1,215,262.6ZM213.29,272a3.74,3.74,0,0,0,1.34-1.34,3.46,3.46,0,0,0,.5-1.84,3.52,3.52,0,0,0-.5-1.85,3.69,3.69,0,0,0-1.34-1.35,3.69,3.69,0,0,0-3.71,0,3.75,3.75,0,0,0-1.36,1.35,3.62,3.62,0,0,0-.5,1.85,3.55,3.55,0,0,0,.5,1.84,3.8,3.8,0,0,0,1.36,1.34,3.69,3.69,0,0,0,3.71,0Z"/><path class="cls-4" d="M231.4,275.78h-3.63l-2.25-5.34h-2.31v5.34h-3.4V261.64h6.77A4.4,4.4,0,0,1,231,266a4.28,4.28,0,0,1-.54,2.11,4.48,4.48,0,0,1-1.47,1.59Zm-4-10.77a1.32,1.32,0,0,0-.94-.47h-3.33v3h3.33a1.38,1.38,0,0,0,.94-.49,1.49,1.49,0,0,0,.39-1A1.45,1.45,0,0,0,227.4,265Z"/><path class="cls-4" d="M233.21,269.08a1.73,1.73,0,0,1-.5-1.16,1.53,1.53,0,0,1,.46-1.17,1.56,1.56,0,0,1,1.16-.49,1.62,1.62,0,0,1,1.19.48,1.6,1.6,0,0,1,.48,1.18,1.56,1.56,0,0,1-.49,1.16,1.63,1.63,0,0,1-1.18.48A1.5,1.5,0,0,1,233.21,269.08Zm0,6.22a1.73,1.73,0,0,1-.5-1.16,1.53,1.53,0,0,1,.46-1.17,1.56,1.56,0,0,1,1.16-.49,1.62,1.62,0,0,1,1.19.48,1.6,1.6,0,0,1,.48,1.18,1.56,1.56,0,0,1-.49,1.16,1.63,1.63,0,0,1-1.18.48A1.5,1.5,0,0,1,233.21,275.3Z"/></svg>