<svg id="Слой_1" data-name="Слой 1" xmlns="http://www.w3.org/2000/svg" viewBox="0 0 405 405"><defs><style>.cls-1{fill:#fed841;}.cls-2{fill:#e7335d;}</style></defs><rect class="cls-1" width="405" height="405"/><path d="M44.12,39h3.12V53.09h-3.6l-3.64-6-3.66,6h-3.6V39h3.6v8l1.76-3.2.1-.16h3.6l.08.16,1.76,3.2V39Z"/><path d="M56.48,39h3.6V53.09h-3.6V47.81h-4v5.28h-3.6V39h3.6v5.26h4Z"/><path d="M69,39.09l4.62,14H70.18l-.92-2.86H64.88L64,53.09h-3.5l4.64-14Zm-3.22,8.22h2.52l-1.26-4Z"/><path d="M84.72,39v3.6H81.1V53.09H77.48V42.55H73.86V39H84.72Z"/><path d="M95.72,39V53.09h-3.6V39Z"/><path d="M103.78,43.43v-.26a1.23,1.23,0,0,0-.49-1,1.76,1.76,0,0,0-1.19-.41,1.87,1.87,0,0,0-1.23.41,1.22,1.22,0,0,0-.51,1,.92.92,0,0,0,.52.86,4.6,4.6,0,0,0,1.36.56l.31.06.35.08a6.82,6.82,0,0,1,2.86,1.18l.18.16a4.1,4.1,0,0,1,1,1.38,3.91,3.91,0,0,1,0,3.32,4.6,4.6,0,0,1-1.13,1.46,5.34,5.34,0,0,1-1.68,1,5.89,5.89,0,0,1-2,.33,5.79,5.79,0,0,1-2-.33,5.41,5.41,0,0,1-1.67-1,4.79,4.79,0,0,1-1.14-1.46,3.84,3.84,0,0,1-.4-1.72v-.26h3.5v.26a1.26,1.26,0,0,0,.49,1,1.79,1.79,0,0,0,1.17.41,1.92,1.92,0,0,0,1.23-.41,1.25,1.25,0,0,0,.51-1,1.15,1.15,0,0,0-.54-.88,2.29,2.29,0,0,0-.56-.3,7.5,7.5,0,0,0-.78-.24l-.66-.16c-.73-.19-1.31-.36-1.72-.5a3.71,3.71,0,0,1-1.14-.68l-.08-.08a4.68,4.68,0,0,1-1-1.4,3.74,3.74,0,0,1-.37-1.64,3.81,3.81,0,0,1,.4-1.72A4.56,4.56,0,0,1,98.46,40a5.21,5.21,0,0,1,1.67-1,5.79,5.79,0,0,1,2-.33,5.89,5.89,0,0,1,2,.33,5.15,5.15,0,0,1,1.68,1,4.39,4.39,0,0,1,1.13,1.46,3.94,3.94,0,0,1,.39,1.72v.26Z"/><path d="M118,39V53.09h-3.6V39Z"/><path d="M127.42,39H131V53.09h-3.6l-4.16-7.58v7.58h-3.62V39h3.62l4.16,7.58Z"/><path d="M140.78,49.46a4.24,4.24,0,0,0,1.2-.79l2.44,2.44a7.35,7.35,0,0,1-2.3,1.55,7.15,7.15,0,0,1-2.76.55,7,7,0,0,1-3.58-1,7.2,7.2,0,0,1-2.6-2.6,7.17,7.17,0,0,1,0-7.17,7.15,7.15,0,0,1,2.6-2.61A7.13,7.13,0,0,1,144.42,41L142,43.45a3.85,3.85,0,0,0-1.2-.79,3.63,3.63,0,0,0-3.26.21,3.69,3.69,0,0,0-1.34,1.35,3.65,3.65,0,0,0,0,3.69,3.82,3.82,0,0,0,1.34,1.34,3.55,3.55,0,0,0,1.84.5A3.64,3.64,0,0,0,140.78,49.46Z"/><path d="M149.22,49.69h5.56v3.4h-9.16V39h3.6Z"/><path d="M167.68,39v8.74a5.47,5.47,0,0,1-.75,2.8,5.59,5.59,0,0,1-2,2,5.5,5.5,0,0,1-2.81.75h-.32a5.44,5.44,0,0,1-2.8-.75,5.64,5.64,0,0,1-2-2,5.47,5.47,0,0,1-.75-2.8V39h3.34v7.94a3.42,3.42,0,0,0,.6,2.06,1.94,1.94,0,0,0,1.64.82h.32a2,2,0,0,0,1.63-.83,3.31,3.31,0,0,0,.63-2.05V39Z"/><path d="M175.48,38.9a8.07,8.07,0,0,1,2.13.51,6,6,0,0,1,1.95,1.22,7,7,0,0,1,1.73,2.43A7.2,7.2,0,0,1,181.9,46a6.91,6.91,0,0,1-.78,3.26,6.48,6.48,0,0,1-2.19,2.5,7.78,7.78,0,0,1-2.88,1.13,20.94,20.94,0,0,1-3.57.27l-1.64,0c-.35,0-.87,0-1.56,0V38.79h3.62A24.06,24.06,0,0,1,175.48,38.9Zm3,7.07a3.61,3.61,0,0,0-.48-1.81,3.74,3.74,0,0,0-1.31-1.37,3.42,3.42,0,0,0-1.81-.54h-2v7.38a15.85,15.85,0,0,0,2.47-.17,4.29,4.29,0,0,0,1.86-.79,3.2,3.2,0,0,0,1.13-1.86A3.82,3.82,0,0,0,178.46,46Z"/><path d="M192.72,50v3.06H183.1V39h9.44V42h-5.82v2.48h4.9v3.06h-4.9V50Z"/><path d="M200.52,38.9a8.07,8.07,0,0,1,2.13.51,6,6,0,0,1,1.95,1.22,7,7,0,0,1,1.73,2.43,7.2,7.2,0,0,1,.61,2.91,6.91,6.91,0,0,1-.78,3.26,6.48,6.48,0,0,1-2.19,2.5,7.78,7.78,0,0,1-2.88,1.13,20.94,20.94,0,0,1-3.57.27l-1.64,0c-.35,0-.87,0-1.56,0V38.79h3.62A24.06,24.06,0,0,1,200.52,38.9Zm3,7.07a3.61,3.61,0,0,0-.48-1.81,3.74,3.74,0,0,0-1.31-1.37,3.42,3.42,0,0,0-1.81-.54h-2v7.38a15.85,15.85,0,0,0,2.47-.17,4.29,4.29,0,0,0,1.86-.79,3.2,3.2,0,0,0,1.13-1.86A3.82,3.82,0,0,0,203.5,46Z"/><path d="M36.34,63V77.09h-3.6V63Z"/><path d="M45.72,63h3.6V77.09h-3.6l-4.16-7.58v7.58H37.94V63h3.62l4.16,7.58Z"/><path d="M67.58,63v3.6H64V77.09H60.34V66.55H56.72V63H67.58Z"/><path d="M76.62,63h3.6V77.09h-3.6V71.81h-4v5.28H69V63h3.6v5.26h4Z"/><path d="M91.44,74v3.06H81.82V63h9.44V66H85.44v2.48h4.9v3.06h-4.9V74Z"/><path d="M105.5,67.43v-.26a1.23,1.23,0,0,0-.49-1,1.76,1.76,0,0,0-1.19-.41,1.87,1.87,0,0,0-1.23.41,1.22,1.22,0,0,0-.51,1,.92.92,0,0,0,.52.86,4.6,4.6,0,0,0,1.36.56l.31.06.35.08a6.82,6.82,0,0,1,2.86,1.18l.18.16a4.1,4.1,0,0,1,1,1.38,3.91,3.91,0,0,1,0,3.32,4.6,4.6,0,0,1-1.13,1.46,5.34,5.34,0,0,1-1.68,1,5.89,5.89,0,0,1-2,.33,5.79,5.79,0,0,1-2-.33,5.41,5.41,0,0,1-1.67-1A4.79,4.79,0,0,1,99,74.77a3.84,3.84,0,0,1-.4-1.72v-.26h3.5v.26a1.26,1.26,0,0,0,.49,1,1.79,1.79,0,0,0,1.17.41A1.92,1.92,0,0,0,105,74a1.25,1.25,0,0,0,.51-1,1.15,1.15,0,0,0-.54-.88,2.29,2.29,0,0,0-.56-.3,7.5,7.5,0,0,0-.78-.24l-.66-.16c-.73-.19-1.31-.36-1.72-.5a3.71,3.71,0,0,1-1.14-.68l-.08-.08a4.68,4.68,0,0,1-1-1.4,3.74,3.74,0,0,1-.37-1.64,3.81,3.81,0,0,1,.4-1.72A4.56,4.56,0,0,1,100.18,64a5.21,5.21,0,0,1,1.67-1,5.79,5.79,0,0,1,2-.33,5.89,5.89,0,0,1,2,.33,5.15,5.15,0,0,1,1.68,1,4.39,4.39,0,0,1,1.13,1.46,3.94,3.94,0,0,1,.39,1.72v.26Z"/><path d="M119.78,74v3.06h-9.62V63h9.44V66h-5.82v2.48h4.9v3.06h-4.9V74Z"/><path d="M132.92,77.09H129.3l-2.24-5.34h-2.3v5.34h-3.38V63h6.74a4.25,4.25,0,0,1,2.2.59,4.29,4.29,0,0,1,1.61,1.61,4.34,4.34,0,0,1,.59,2.2,4.28,4.28,0,0,1-.54,2.11,4.73,4.73,0,0,1-1.46,1.59Zm-4-10.77a1.34,1.34,0,0,0-.94-.47h-3.32v3H128a1.45,1.45,0,0,0,.94-.49,1.52,1.52,0,0,0,.38-1A1.47,1.47,0,0,0,128.94,66.32Z"/><path d="M143.42,62.91h3.92l-4.62,14.18h-4.4l-4.6-14.18h4l2.86,8.84Z"/><path d="M152.14,63V77.09h-3.6V63Z"/><path d="M161.9,73.46a4.24,4.24,0,0,0,1.2-.79l2.44,2.44a7.35,7.35,0,0,1-2.3,1.55,7.15,7.15,0,0,1-2.76.55,7,7,0,0,1-3.58-1,7.2,7.2,0,0,1-2.6-2.6,7.17,7.17,0,0,1,0-7.17,7.15,7.15,0,0,1,2.6-2.61A7.13,7.13,0,0,1,165.54,65l-2.44,2.44a3.85,3.85,0,0,0-1.2-.79,3.63,3.63,0,0,0-3.26.21,3.69,3.69,0,0,0-1.34,1.35,3.65,3.65,0,0,0,0,3.69,3.82,3.82,0,0,0,1.34,1.34,3.55,3.55,0,0,0,1.84.5A3.64,3.64,0,0,0,161.9,73.46Z"/><path d="M176.36,74v3.06h-9.62V63h9.44V66h-5.82v2.48h4.9v3.06h-4.9V74Z"/><path d="M178.56,70.39a1.78,1.78,0,0,1-.5-1.16,1.54,1.54,0,0,1,.46-1.17,1.56,1.56,0,0,1,1.16-.49,1.64,1.64,0,0,1,1.66,1.66,1.56,1.56,0,0,1-.49,1.16,1.62,1.62,0,0,1-1.17.48A1.5,1.5,0,0,1,178.56,70.39Zm0,6.22a1.78,1.78,0,0,1-.5-1.16,1.54,1.54,0,0,1,.46-1.17,1.56,1.56,0,0,1,1.16-.49,1.64,1.64,0,0,1,1.66,1.66,1.56,1.56,0,0,1-.49,1.16,1.62,1.62,0,0,1-1.17.48A1.5,1.5,0,0,1,178.56,76.61Z"/><path d="M44.12,247.72h3.12v14.14h-3.6l-3.64-6-3.66,6h-3.6V247.72h3.6v8l1.76-3.2.1-.16h3.6l.08.16,1.76,3.2v-8Z"/><path d="M56.48,247.72h3.6v14.14h-3.6v-5.28h-4v5.28h-3.6V247.72h3.6V253h4Z"/><path d="M71.3,258.8v3.06H61.68V247.72h9.44v3.06H65.3v2.48h4.9v3.06H65.3v2.48Z"/><path d="M84.44,261.86H80.82l-2.24-5.34h-2.3v5.34H72.9V247.72h6.74a4.34,4.34,0,0,1,2.2.59,4.29,4.29,0,0,1,1.61,1.61,4.39,4.39,0,0,1,0,4.31A4.46,4.46,0,0,1,82,255.82Zm-4-10.77a1.34,1.34,0,0,0-.94-.47H76.2v3h3.32a1.4,1.4,0,0,0,.94-.49,1.52,1.52,0,0,0,.38-1A1.49,1.49,0,0,0,80.46,251.09Z"/><path d="M95.26,258.8v3.06H85.64V247.72h9.44v3.06H89.26v2.48h4.9v3.06h-4.9v2.48Z"/><path d="M110.38,247.72H114l-4.16,8.38v5.76h-3.6V256.1l-4.16-8.38h3.6l2.36,4.82Z"/><path d="M125.12,248.68a7.15,7.15,0,0,1,2.6,2.61,7.17,7.17,0,0,1,0,7.17,7.2,7.2,0,0,1-2.6,2.6,7.17,7.17,0,0,1-7.17,0,7.15,7.15,0,0,1-2.61-2.6,7.17,7.17,0,0,1,0-7.17,7.1,7.1,0,0,1,2.61-2.61,7.17,7.17,0,0,1,7.17,0Zm-1.74,9.38a3.74,3.74,0,0,0,1.34-1.34,3.55,3.55,0,0,0,.5-1.84,3.62,3.62,0,0,0-.5-1.85,3.69,3.69,0,0,0-1.34-1.35,3.55,3.55,0,0,0-1.84-.5,3.71,3.71,0,0,0-3.7,3.7,3.55,3.55,0,0,0,.5,1.84,3.69,3.69,0,0,0,1.35,1.34,3.62,3.62,0,0,0,1.85.5A3.55,3.55,0,0,0,123.38,258.06Z"/><path d="M141.38,247.74v8.74a5.44,5.44,0,0,1-.75,2.8,5.59,5.59,0,0,1-2,2,5.5,5.5,0,0,1-2.81.75h-.32a5.44,5.44,0,0,1-2.8-.75,5.64,5.64,0,0,1-2-2,5.44,5.44,0,0,1-.75-2.8v-8.74h3.34v7.94a3.4,3.4,0,0,0,.6,2.06,1.92,1.92,0,0,0,1.64.82h.32a2,2,0,0,0,1.63-.83,3.29,3.29,0,0,0,.63-2.05v-7.94Z"/><path d="M157.14,258.23a4,4,0,0,0,1.2-.79l2.44,2.44a7.18,7.18,0,0,1-2.3,1.55,7.17,7.17,0,0,1-6.34-.41,7.2,7.2,0,0,1-2.6-2.6,7.17,7.17,0,0,1,0-7.17,7.15,7.15,0,0,1,2.6-2.61,7.17,7.17,0,0,1,6.34-.41,7.18,7.18,0,0,1,2.3,1.55l-2.44,2.44a4,4,0,0,0-1.2-.79,3.64,3.64,0,0,0-1.42-.29,3.55,3.55,0,0,0-1.84.5,3.69,3.69,0,0,0-1.34,1.35,3.62,3.62,0,0,0-.5,1.85,3.55,3.55,0,0,0,.5,1.84,3.74,3.74,0,0,0,1.34,1.34,3.55,3.55,0,0,0,1.84.5A3.64,3.64,0,0,0,157.14,258.23Z"/><path d="M169.34,247.86l4.62,14h-3.48l-.92-2.86h-4.38l-.9,2.86h-3.5l4.64-14Zm-3.22,8.22h2.52l-1.26-4Z"/><path d="M182.14,247.72h3.6v14.14h-3.6L178,254.28v7.58h-3.62V247.72H178l4.16,7.58Z"/><path d="M202.64,247.68h3.92l-4.62,14.18h-4.4l-4.6-14.18h4l2.86,8.84Z"/><path d="M211.36,247.72v14.14h-3.6V247.72Z"/><path d="M222.58,258.8v3.06H213V247.72h9.44v3.06h-5.82v2.48h4.9v3.06h-4.9v2.48Z"/><path d="M235.56,247.72h3.12v14.14h-3.6l-3.64-6-3.66,6h-3.6V247.72h3.6v8l1.76-3.2.1-.16h3.6l.08.16,1.76,3.2v-8Z"/><path d="M42.36,282.8v3.06H32.74V271.72h9.44v3.06H36.36v2.48h4.9v3.06h-4.9v2.48Z"/><path d="M56.38,285.86H52.2L50,282.18l-2.22,3.68H43.56l4.32-7.14-4.24-7h4.18L50,275.26l2.14-3.54h4.2l-4.24,7Z"/><path d="M64.94,271.86l4.62,14H66.08L65.16,283H60.78l-.9,2.86h-3.5l4.64-14Zm-3.22,8.22h2.52l-1.26-4Z"/><path d="M80.86,271.72h3.6v14.14h-3.6v-8l-1.76,3.2-.08.16h-3.6l-.1-.16-.24-.46-1.5-2.74v8H70V271.72h3.62l3.64,6Z"/><path d="M95,272.31a4.31,4.31,0,0,1,1.6,1.6,4.43,4.43,0,0,1,0,4.42,4.39,4.39,0,0,1-3.81,2.19H89.44v5.34H86.06V271.72H92.8A4.33,4.33,0,0,1,95,272.31Zm-1.38,2.78a1.38,1.38,0,0,0-.95-.47H89.36v3h3.32a1.37,1.37,0,0,0,.95-.49,1.52,1.52,0,0,0,.39-1A1.45,1.45,0,0,0,93.63,275.09Z"/><path d="M102,282.46h5.56v3.4H98.4V271.72H102Z"/><path d="M118.58,282.8v3.06H109V271.72h9.44v3.06h-5.82v2.48h4.9v3.06h-4.9v2.48Z"/><path d="M126.64,276.2v-.26a1.23,1.23,0,0,0-.49-1,1.79,1.79,0,0,0-1.19-.41,1.92,1.92,0,0,0-1.23.41,1.22,1.22,0,0,0-.51,1,.91.91,0,0,0,.52.86,4.46,4.46,0,0,0,1.36.56l.31.06.35.08a7,7,0,0,1,2.86,1.18l.18.16a4.31,4.31,0,0,1,.95,1.38,4,4,0,0,1,.35,1.6,4,4,0,0,1-.39,1.72,4.36,4.36,0,0,1-1.13,1.46,5.34,5.34,0,0,1-1.68.95,6,6,0,0,1-3.91,0,5.41,5.41,0,0,1-1.67-.95,4.67,4.67,0,0,1-1.14-1.46,4,4,0,0,1-.4-1.72v-.26h3.5v.26a1.26,1.26,0,0,0,.49,1,1.79,1.79,0,0,0,1.17.41,1.92,1.92,0,0,0,1.23-.41,1.22,1.22,0,0,0,.51-1,1.15,1.15,0,0,0-.54-.88,2.29,2.29,0,0,0-.56-.3,7.5,7.5,0,0,0-.78-.24l-.66-.16c-.73-.19-1.31-.35-1.72-.5a3.52,3.52,0,0,1-1.14-.68l-.08-.08a4.56,4.56,0,0,1-1-1.4,3.74,3.74,0,0,1-.37-1.64,4,4,0,0,1,.4-1.72,4.67,4.67,0,0,1,1.14-1.46,5.41,5.41,0,0,1,1.67-.95,6,6,0,0,1,3.91,0,5.34,5.34,0,0,1,1.68.95,4.36,4.36,0,0,1,1.13,1.46,4,4,0,0,1,.39,1.72v.26Z"/><path d="M131.9,279.16a1.83,1.83,0,0,1-.5-1.16,1.62,1.62,0,0,1,1.62-1.66,1.64,1.64,0,0,1,1.66,1.66,1.56,1.56,0,0,1-.49,1.16,1.61,1.61,0,0,1-1.17.48A1.5,1.5,0,0,1,131.9,279.16Zm0,6.22a1.83,1.83,0,0,1-.5-1.16,1.62,1.62,0,0,1,1.62-1.66,1.64,1.64,0,0,1,1.66,1.66,1.56,1.56,0,0,1-.49,1.16,1.61,1.61,0,0,1-1.17.48A1.5,1.5,0,0,1,131.9,285.38Z"/><path class="cls-2" d="M36.31,94.25a5.37,5.37,0,0,1,1.41.34,4,4,0,0,1,1.29.8,4.88,4.88,0,0,1,1.55,3.53,4.48,4.48,0,0,1-.52,2.16,4.27,4.27,0,0,1-1.45,1.65,5,5,0,0,1-1.9.75,13.74,13.74,0,0,1-2.36.18l-1.08,0h-1V94.18h2.4A16.6,16.6,0,0,1,36.31,94.25Zm2,4.67A2.38,2.38,0,0,0,38,97.73a2.53,2.53,0,0,0-.87-.91,2.34,2.34,0,0,0-1.2-.36H34.61v4.88a9.63,9.63,0,0,0,1.63-.11,2.8,2.8,0,0,0,1.23-.52,2.08,2.08,0,0,0,.75-1.23A2.89,2.89,0,0,0,38.28,98.92Z"/><path class="cls-2" d="M47.71,101.61v2H41.35V94.28h6.24v2H43.74V98H47v2H43.74v1.64Z"/><path class="cls-2" d="M54.92,94.26h2.59l-3.06,9.37H51.54l-3-9.37h2.62L53,100.1Z"/><path class="cls-2" d="M64.66,101.61v2H58.3V94.28h6.24v2H60.69V98h3.24v2H60.69v1.64Z"/><path class="cls-2" d="M68.1,101.38h3.67v2.25h-6V94.28H68.1Z"/><path class="cls-2" d="M79.54,94.92a4.7,4.7,0,0,1,1.71,1.72A4.59,4.59,0,0,1,81.89,99a4.52,4.52,0,0,1-.64,2.36,4.71,4.71,0,0,1-4.08,2.36,4.53,4.53,0,0,1-2.37-.64A4.68,4.68,0,0,1,72.44,99a4.68,4.68,0,0,1,2.36-4.1,4.63,4.63,0,0,1,2.37-.64A4.68,4.68,0,0,1,79.54,94.92Zm-1.15,6.2a2.5,2.5,0,0,0,.88-.89A2.32,2.32,0,0,0,79.6,99a2.41,2.41,0,0,0-.33-1.23,2.5,2.5,0,0,0-.88-.89,2.42,2.42,0,0,0-2.44,0,2.48,2.48,0,0,0-.9.89A2.41,2.41,0,0,0,74.72,99a2.32,2.32,0,0,0,.33,1.21,2.48,2.48,0,0,0,.9.89,2.42,2.42,0,0,0,2.44,0Z"/><path class="cls-2" d="M88.6,94.67a3,3,0,0,1,1.06,1.06,2.93,2.93,0,0,1,0,2.92,2.91,2.91,0,0,1-1.06,1.06,2.85,2.85,0,0,1-1.46.39H84.92v3.53H82.68V94.28h4.46A2.85,2.85,0,0,1,88.6,94.67Zm-.91,1.84a.91.91,0,0,0-.63-.31h-2.2v2h2.2a.85.85,0,0,0,.63-.32,1,1,0,0,0,.26-.68A1,1,0,0,0,87.69,96.51Z"/><path class="cls-2" d="M98.05,94.28h2.38v9.35H98.05V98.36l-1.17,2.11,0,.11H94.45l-.07-.11-.16-.3-1-1.81v5.27H90.84V94.28h2.39l2.41,4Z"/><path class="cls-2" d="M107.84,101.61v2h-6.36V94.28h6.24v2h-3.84V98h3.24v2h-3.24v1.64Z"/><path class="cls-2" d="M114,94.28h2.38v9.35H114l-2.75-5v5H108.9V94.28h2.39l2.75,5Z"/><path class="cls-2" d="M124.53,94.28v2.38h-2.39v7h-2.4v-7h-2.39V94.28h7.18Z"/><path class="cls-2" d="M136.26,94.92A4.81,4.81,0,0,1,138,96.64a4.68,4.68,0,0,1,.63,2.38,4.61,4.61,0,0,1-.63,2.36,4.73,4.73,0,0,1-1.72,1.72,4.53,4.53,0,0,1-2.37.64A4.71,4.71,0,0,1,129.16,99a4.74,4.74,0,0,1,4.73-4.74A4.63,4.63,0,0,1,136.26,94.92Zm-1.15,6.2a2.5,2.5,0,0,0,.88-.89,2.32,2.32,0,0,0,.33-1.21,2.41,2.41,0,0,0-.33-1.23,2.5,2.5,0,0,0-.88-.89,2.42,2.42,0,0,0-2.44,0,2.45,2.45,0,0,0-.89.89,2.33,2.33,0,0,0-.34,1.23,2.24,2.24,0,0,0,.34,1.21,2.45,2.45,0,0,0,.89.89,2.42,2.42,0,0,0,2.44,0Z"/><path class="cls-2" d="M145.91,96.31h-4.13V98h3.31v2h-3.31v3.66H139.4V94.28h6.51Z"/><path class="cls-2" d="M157.88,94.28h2.37v9.35h-2.37V98.36l-1.17,2.11-.05.11h-2.38l-.07-.11-.16-.3-1-1.81v5.27h-2.39V94.28h2.39l2.41,4Z"/><path class="cls-2" d="M168.92,94.3v5.78a3.62,3.62,0,0,1-.5,1.85,3.69,3.69,0,0,1-1.35,1.34,3.64,3.64,0,0,1-1.86.49H165a3.58,3.58,0,0,1-1.85-.49,3.74,3.74,0,0,1-1.34-1.34,3.62,3.62,0,0,1-.5-1.85V94.3h2.21v5.25a2.21,2.21,0,0,0,.4,1.36,1.26,1.26,0,0,0,1.08.54h.21a1.29,1.29,0,0,0,1.08-.55,2.15,2.15,0,0,0,.42-1.35V94.3Z"/><path class="cls-2" d="M172.35,101.38H176v2.25H170V94.28h2.38Z"/><path class="cls-2" d="M184,94.28v2.38h-2.39v7h-2.39v-7h-2.4V94.28H184Z"/><path class="cls-2" d="M187.31,94.28v9.35h-2.38V94.28Z"/><path class="cls-2" d="M194.28,94.67a2.91,2.91,0,0,1,1.06,1.06,2.91,2.91,0,0,1-2.52,4.37H190.6v3.53h-2.23V94.28h4.45A2.83,2.83,0,0,1,194.28,94.67Zm-.91,1.84a.91.91,0,0,0-.63-.31h-2.19v2h2.19a.85.85,0,0,0,.63-.32,1,1,0,0,0,.26-.68A1,1,0,0,0,193.37,96.51Z"/><path class="cls-2" d="M198.9,101.38h3.68v2.25h-6.06V94.28h2.38Z"/><path class="cls-2" d="M209.86,101.61v2H203.5V94.28h6.25v2H205.9V98h3.24v2H205.9v1.64Z"/><path class="cls-2" d="M219.75,94.38l3.06,9.25h-2.3l-.61-1.89H217l-.59,1.89h-2.32l3.07-9.25Zm-2.12,5.43h1.66l-.83-2.62Z"/><path class="cls-2" d="M227.17,94.25a5.37,5.37,0,0,1,1.41.34,4,4,0,0,1,1.29.8,4.88,4.88,0,0,1,1.55,3.53,4.6,4.6,0,0,1-.52,2.16,4.27,4.27,0,0,1-1.45,1.65,5,5,0,0,1-1.9.75,13.74,13.74,0,0,1-2.36.18l-1.09,0h-1V94.18h2.4A16.6,16.6,0,0,1,227.17,94.25Zm2,4.67a2.29,2.29,0,0,0-.32-1.19,2.5,2.5,0,0,0-.86-.91,2.34,2.34,0,0,0-1.2-.36h-1.29v4.88a9.71,9.71,0,0,0,1.63-.11,2.8,2.8,0,0,0,1.23-.52,2.13,2.13,0,0,0,.75-1.23A2.89,2.89,0,0,0,229.14,98.92Z"/><path class="cls-2" d="M243.22,94.28v2.38h-2.39v7h-2.39v-7H236V94.28h7.18Z"/><path class="cls-2" d="M250.51,101.61v2h-6.36V94.28h6.24v2h-3.85V98h3.24v2h-3.24v1.64Z"/><path class="cls-2" d="M259.78,103.63H257l-1.48-2.43-1.47,2.43H251.3l2.86-4.72-2.81-4.63h2.77l1.41,2.34L257,94.28h2.77l-2.8,4.63Z"/><path class="cls-2" d="M267.62,94.28v2.38h-2.4v7h-2.39v-7h-2.39V94.28h7.18Z"/><path class="cls-2" d="M272.81,97.25v-.18a.81.81,0,0,0-.32-.65,1.2,1.2,0,0,0-.79-.27,1.28,1.28,0,0,0-.81.27.83.83,0,0,0-.34.65.6.6,0,0,0,.35.57,2.71,2.71,0,0,0,.9.37l.2,0,.23.06a4.4,4.4,0,0,1,1.89.77l.12.11a2.81,2.81,0,0,1,.86,2,2.51,2.51,0,0,1-.26,1.14,3,3,0,0,1-.74,1,3.4,3.4,0,0,1-1.11.63,3.82,3.82,0,0,1-1.3.22,3.72,3.72,0,0,1-1.29-.22,3.25,3.25,0,0,1-1.1-.63,3,3,0,0,1-.76-1,2.64,2.64,0,0,1-.26-1.14v-.17h2.31V101a.82.82,0,0,0,.33.66,1.15,1.15,0,0,0,.77.27,1.24,1.24,0,0,0,.81-.27.81.81,0,0,0,.34-.66.76.76,0,0,0-.36-.58,1.31,1.31,0,0,0-.37-.2l-.51-.16-.44-.1L270,99.59a2.42,2.42,0,0,1-.75-.45l0-.06a3.08,3.08,0,0,1-.7-.92,2.58,2.58,0,0,1-.24-1.09,2.63,2.63,0,0,1,.26-1.13,3.05,3.05,0,0,1,.76-1,3.63,3.63,0,0,1,1.1-.63,4,4,0,0,1,1.29-.21,4.07,4.07,0,0,1,1.3.21,3.8,3.8,0,0,1,1.11.63,3,3,0,0,1,.74,1,2.49,2.49,0,0,1,.26,1.13v.18Z"/><path class="cls-2" d="M276.34,102h2.24l-1,3h-2Z"/><path class="cls-2" d="M287.61,97.25v-.18a.84.84,0,0,0-.32-.65,1.2,1.2,0,0,0-.79-.27,1.24,1.24,0,0,0-.81.27.8.8,0,0,0-.34.65.6.6,0,0,0,.34.57,2.71,2.71,0,0,0,.9.37l.21,0,.23.06a4.52,4.52,0,0,1,1.89.77L289,99a3.08,3.08,0,0,1,.63.91,2.74,2.74,0,0,1,.23,1.06,2.64,2.64,0,0,1-.26,1.14,2.85,2.85,0,0,1-.75,1,3.21,3.21,0,0,1-1.11.63,3.76,3.76,0,0,1-1.29.22,3.72,3.72,0,0,1-1.29-.22,3.4,3.4,0,0,1-1.11-.63,3,3,0,0,1-.75-1,2.52,2.52,0,0,1-.27-1.14v-.17h2.32V101a.84.84,0,0,0,.32.66,1.19,1.19,0,0,0,.78.27,1.28,1.28,0,0,0,.81-.27.83.83,0,0,0,.34-.66.76.76,0,0,0-.36-.58,1.46,1.46,0,0,0-.37-.2l-.52-.16-.43-.1q-.73-.19-1.14-.33a2.31,2.31,0,0,1-.75-.45l-.06-.06a2.89,2.89,0,0,1-.69-.92,2.59,2.59,0,0,1-.25-1.09,2.51,2.51,0,0,1,.27-1.13,3,3,0,0,1,.75-1,3.8,3.8,0,0,1,1.11-.63,4,4,0,0,1,1.29-.21,4,4,0,0,1,1.29.21,3.56,3.56,0,0,1,1.11.63,2.89,2.89,0,0,1,.75,1,2.63,2.63,0,0,1,.26,1.13v.18Z"/><path class="cls-2" d="M297.05,101.61v2h-6.36V94.28h6.24v2h-3.85V98h3.24v2h-3.24v1.64Z"/><path class="cls-2" d="M303.25,94.28h2.38v9.35h-2.38l-2.75-5v5h-2.39V94.28h2.39l2.75,5Z"/><path class="cls-2" d="M310.79,94.25a5.57,5.57,0,0,1,1.41.34,3.87,3.87,0,0,1,1.28.8A4.62,4.62,0,0,1,314.63,97a4.76,4.76,0,0,1,.4,1.92,4.59,4.59,0,0,1-.51,2.16,4.36,4.36,0,0,1-1.45,1.65,5.09,5.09,0,0,1-1.91.75,13.74,13.74,0,0,1-2.36.18l-1.08,0h-1V94.18h2.39A16.94,16.94,0,0,1,310.79,94.25Zm2,4.67a2.39,2.39,0,0,0-.32-1.19,2.45,2.45,0,0,0-.87-.91,2.28,2.28,0,0,0-1.19-.36h-1.3v4.88a9.56,9.56,0,0,0,1.63-.11,2.71,2.71,0,0,0,1.23-.52,2,2,0,0,0,.75-1.23A2.32,2.32,0,0,0,312.76,98.92Z"/><path class="cls-2" d="M318.2,94.28v9.35h-2.38V94.28Z"/><path class="cls-2" d="M324.41,94.28h2.38v9.35h-2.38l-2.75-5v5h-2.4V94.28h2.4l2.75,5Z"/><path class="cls-2" d="M337,99a4.62,4.62,0,0,1-.63,2.37,4.76,4.76,0,0,1-1.73,1.72,4.77,4.77,0,0,1-4.74,0,4.81,4.81,0,0,1-1.72-1.72,4.62,4.62,0,0,1-.63-2.37,4.67,4.67,0,0,1,.63-2.37,4.73,4.73,0,0,1,1.72-1.72,4.73,4.73,0,0,1,4.21-.27,4.7,4.7,0,0,1,1.52,1l-2.13,1.22a2.44,2.44,0,0,0-2.45,0,2.5,2.5,0,0,0-.88.89,2.38,2.38,0,0,0-.33,1.22,2.33,2.33,0,0,0,.33,1.22,2.5,2.5,0,0,0,.88.89,2.35,2.35,0,0,0,1.22.33,2.3,2.3,0,0,0,1.28-.37,2.4,2.4,0,0,0,.9-1h-2.94V97.91h5.36A4.89,4.89,0,0,1,337,99Z"/><path class="cls-2" d="M34.59,110.15v9.35H32.21v-9.35Z"/><path class="cls-2" d="M40.79,110.15h2.38v9.35H40.79l-2.75-5v5H35.65v-9.35H38l2.75,5Z"/><path class="cls-2" d="M50.74,112.17H46.61v1.64h3.31v2H46.61v3.66H44.23v-9.35h6.51Z"/><path class="cls-2" d="M58.37,110.79a4.73,4.73,0,0,1,1.72,1.72,4.67,4.67,0,0,1,.63,2.37,4.62,4.62,0,0,1-.63,2.37A4.81,4.81,0,0,1,58.37,119a4.73,4.73,0,1,1-4.74-8.18,4.71,4.71,0,0,1,4.74,0ZM57.22,117a2.5,2.5,0,0,0,.88-.89,2.35,2.35,0,0,0,.33-1.22,2.38,2.38,0,0,0-.33-1.22,2.5,2.5,0,0,0-.88-.89,2.42,2.42,0,0,0-2.44,0,2.48,2.48,0,0,0-.9.89,2.38,2.38,0,0,0-.33,1.22,2.35,2.35,0,0,0,.33,1.22,2.48,2.48,0,0,0,.9.89,2.42,2.42,0,0,0,2.44,0Z"/><path class="cls-2" d="M69.14,119.5H66.75L65.27,116H63.75v3.53H61.51v-9.35H66a2.84,2.84,0,0,1,1.45.39,2.89,2.89,0,0,1,1.07,1.07,2.82,2.82,0,0,1,.39,1.45,2.77,2.77,0,0,1-.36,1.39,3.15,3.15,0,0,1-1,1.06Zm-2.63-7.12a.89.89,0,0,0-.62-.31H63.7v2h2.19a.94.94,0,0,0,.62-.32,1,1,0,0,0,.25-.68A1,1,0,0,0,66.51,112.38Z"/><path class="cls-2" d="M77.14,110.15h2.38v9.35H77.14v-5.28L76,116.34l0,.1H73.55l-.07-.1-.16-.31-1-1.81v5.28H69.94v-9.35h2.39l2.41,4Z"/><path class="cls-2" d="M85.45,110.24l3,9.26H86.2l-.61-1.89H82.7l-.6,1.89H79.79l3.06-9.26Zm-2.13,5.44H85l-.83-2.62Z"/><path class="cls-2" d="M95.81,110.15v2.38H93.42v7H91v-7h-2.4v-2.38h7.18Z"/><path class="cls-2" d="M99.12,110.15v9.35H96.74v-9.35Z"/><path class="cls-2" d="M107,110.79a4.75,4.75,0,0,1,1.72,6.46A4.73,4.73,0,0,1,107,119a4.62,4.62,0,0,1-2.37.63,4.67,4.67,0,0,1-2.37-.63,4.76,4.76,0,0,1-1.73-1.72,4.62,4.62,0,0,1-.63-2.37,4.68,4.68,0,0,1,2.36-4.09,4.58,4.58,0,0,1,2.37-.64A4.53,4.53,0,0,1,107,110.79Zm-1.15,6.2a2.53,2.53,0,0,0,.89-.89,2.35,2.35,0,0,0,.33-1.22,2.38,2.38,0,0,0-.33-1.22,2.53,2.53,0,0,0-.89-.89,2.42,2.42,0,0,0-2.44,0,2.53,2.53,0,0,0-.89.89,2.38,2.38,0,0,0-.33,1.22,2.35,2.35,0,0,0,.33,1.22,2.53,2.53,0,0,0,.89.89,2.42,2.42,0,0,0,2.44,0Z"/><path class="cls-2" d="M115.3,110.15h2.38v9.35H115.3l-2.75-5v5h-2.39v-9.35h2.39l2.75,5Z"/><path class="cls-2" d="M129.75,110.15v2.38h-2.39v7H125v-7h-2.4v-2.38h7.18Z"/><path class="cls-2" d="M137.51,110.79a4.74,4.74,0,0,1,2.36,4.09,4.53,4.53,0,0,1-.64,2.37,4.75,4.75,0,0,1-6.46,1.72,4.73,4.73,0,0,1-1.72-1.72,4.63,4.63,0,0,1-.64-2.37,4.74,4.74,0,0,1,2.36-4.09,4.59,4.59,0,0,1,2.38-.64A4.52,4.52,0,0,1,137.51,110.79Zm-1.15,6.2a2.53,2.53,0,0,0,.89-.89,2.35,2.35,0,0,0,.33-1.22,2.38,2.38,0,0,0-.33-1.22,2.53,2.53,0,0,0-.89-.89,2.32,2.32,0,0,0-1.21-.33,2.41,2.41,0,0,0-1.23.33,2.53,2.53,0,0,0-.89.89,2.38,2.38,0,0,0-.33,1.22,2.35,2.35,0,0,0,.33,1.22,2.53,2.53,0,0,0,.89.89,2.41,2.41,0,0,0,1.23.33A2.32,2.32,0,0,0,136.36,117Z"/><path class="cls-2" d="M150,117.1a2.64,2.64,0,0,0,.79-.52l1.62,1.61a4.73,4.73,0,0,1-1.52,1,4.73,4.73,0,0,1-6.55-4.35,4.59,4.59,0,0,1,.64-2.38,4.74,4.74,0,0,1,4.08-2.36,4.75,4.75,0,0,1,3.35,1.39l-1.62,1.62a2.67,2.67,0,0,0-.79-.53,2.5,2.5,0,0,0-.94-.19,2.32,2.32,0,0,0-1.21.33,2.53,2.53,0,0,0-.89.89,2.41,2.41,0,0,0-.33,1.23,2.32,2.32,0,0,0,.33,1.21,2.53,2.53,0,0,0,.89.89,2.4,2.4,0,0,0,2.15.14Z"/><path class="cls-2" d="M160.06,110.79a4.73,4.73,0,0,1,1.72,1.72,4.67,4.67,0,0,1,.63,2.37,4.62,4.62,0,0,1-.63,2.37,4.81,4.81,0,0,1-1.72,1.72,4.67,4.67,0,0,1-2.37.63,4.62,4.62,0,0,1-2.37-.63,4.68,4.68,0,0,1-1.73-1.72,4.62,4.62,0,0,1-.63-2.37,4.67,4.67,0,0,1,.63-2.37,4.61,4.61,0,0,1,1.73-1.72,4.53,4.53,0,0,1,2.37-.64A4.58,4.58,0,0,1,160.06,110.79Zm-1.15,6.2a2.5,2.5,0,0,0,.88-.89,2.35,2.35,0,0,0,.33-1.22,2.38,2.38,0,0,0-.33-1.22,2.5,2.5,0,0,0-.88-.89,2.42,2.42,0,0,0-2.44,0,2.48,2.48,0,0,0-.9.89,2.38,2.38,0,0,0-.33,1.22,2.35,2.35,0,0,0,.33,1.22,2.48,2.48,0,0,0,.9.89,2.42,2.42,0,0,0,2.44,0Z"/><path class="cls-2" d="M170.41,110.15h2.38v9.35h-2.38v-5.28l-1.16,2.12-.06.1h-2.38l-.06-.1-.16-.31-1-1.81v5.28h-2.4v-9.35h2.4l2.4,4Z"/><path class="cls-2" d="M181.05,110.15h2.38v9.35h-2.38v-5.28l-1.16,2.12,0,.1h-2.38l-.07-.1-.16-.31-1-1.81v5.28h-2.39v-9.35h2.39l2.41,4Z"/><path class="cls-2" d="M192.09,110.16v5.78a3.64,3.64,0,0,1-1.84,3.19,3.65,3.65,0,0,1-1.86.5h-.21a3.7,3.7,0,0,1-3.69-3.69v-5.78h2.21v5.25a2.31,2.31,0,0,0,.39,1.37,1.29,1.29,0,0,0,1.09.54h.21a1.32,1.32,0,0,0,1.08-.55,2.18,2.18,0,0,0,.41-1.36v-5.25Z"/><path class="cls-2" d="M198.29,110.15h2.38v9.35h-2.38l-2.75-5v5h-2.39v-9.35h2.39l2.75,5Z"/><path class="cls-2" d="M204.11,110.15v9.35h-2.38v-9.35Z"/><path class="cls-2" d="M212.22,110.15v2.38h-2.4v7h-2.39v-7H205v-2.38h7.18Z"/><path class="cls-2" d="M215.52,110.15v9.35h-2.38v-9.35Z"/><path class="cls-2" d="M222.94,117.48v2h-6.36v-9.35h6.24v2H219v1.64h3.24v2H219v1.64Z"/><path class="cls-2" d="M228.27,113.11v-.17a.81.81,0,0,0-.33-.65,1.16,1.16,0,0,0-.78-.28,1.29,1.29,0,0,0-.82.28.81.81,0,0,0-.33.65.6.6,0,0,0,.34.57,2.94,2.94,0,0,0,.9.37l.21,0,.23,0a4.64,4.64,0,0,1,1.89.78l.12.11a2.77,2.77,0,0,1,.62.91,2.52,2.52,0,0,1,.24,1.06,2.63,2.63,0,0,1-.26,1.13,2.79,2.79,0,0,1-.75,1,3.8,3.8,0,0,1-1.11.63,4,4,0,0,1-1.3.22,3.87,3.87,0,0,1-1.28-.22,3.8,3.8,0,0,1-1.11-.63,2.79,2.79,0,0,1-.75-1,2.51,2.51,0,0,1-.27-1.13v-.17h2.32v.17a.81.81,0,0,0,.32.65,1.17,1.17,0,0,0,.77.27,1.28,1.28,0,0,0,.82-.27.82.82,0,0,0,.33-.65.74.74,0,0,0-.35-.58,1.46,1.46,0,0,0-.37-.2,3.61,3.61,0,0,0-.52-.16l-.43-.11a11,11,0,0,1-1.14-.33,2.13,2.13,0,0,1-.76-.45l-.05,0A2.82,2.82,0,0,1,224,114a2.38,2.38,0,0,1-.25-1.08,2.52,2.52,0,0,1,.27-1.14,2.85,2.85,0,0,1,.75-1,3.59,3.59,0,0,1,1.11-.63,3.63,3.63,0,0,1,1.28-.22,3.78,3.78,0,0,1,1.3.22,3.59,3.59,0,0,1,1.11.63,2.85,2.85,0,0,1,.75,1,2.64,2.64,0,0,1,.26,1.14v.17Z"/><path class="cls-2" d="M240.18,110.24l3.06,9.26h-2.31l-.6-1.89h-2.9l-.59,1.89h-2.32l3.07-9.26Zm-2.13,5.44h1.67l-.83-2.62Z"/><path class="cls-2" d="M248.64,110.15H251v9.35h-2.38l-2.75-5v5H243.5v-9.35h2.39l2.75,5Z"/><path class="cls-2" d="M256.18,110.12a5.37,5.37,0,0,1,1.41.34,4,4,0,0,1,1.29.8,4.82,4.82,0,0,1,1.54,3.53,4.62,4.62,0,0,1-.51,2.16,4.27,4.27,0,0,1-1.45,1.65,5.11,5.11,0,0,1-1.9.75,14.92,14.92,0,0,1-2.36.18l-1.09,0h-1V110h2.39A16.65,16.65,0,0,1,256.18,110.12Zm2,4.67a2.45,2.45,0,0,0-.32-1.2,2.56,2.56,0,0,0-.86-.9,2.34,2.34,0,0,0-1.2-.36h-1.3v4.88a10.94,10.94,0,0,0,1.64-.11,2.92,2.92,0,0,0,1.23-.52,2.13,2.13,0,0,0,.74-1.23A2.38,2.38,0,0,0,258.15,114.79Z"/><path class="cls-2" d="M271.1,110.54a2.91,2.91,0,0,1,1.06,1.06,2.93,2.93,0,0,1,0,2.92,2.91,2.91,0,0,1-1.06,1.06,2.83,2.83,0,0,1-1.46.39h-2.22v3.53h-2.24v-9.35h4.46A2.83,2.83,0,0,1,271.1,110.54Zm-.91,1.84a.91.91,0,0,0-.63-.31h-2.19v2h2.19a.88.88,0,0,0,.63-.32,1,1,0,0,0,.26-.68A1,1,0,0,0,270.19,112.38Z"/><path class="cls-2" d="M275.72,117.25h3.68v2.25h-6.06v-9.35h2.38Z"/><path class="cls-2" d="M285.19,110.24l3.05,9.26h-2.3l-.61-1.89h-2.89l-.6,1.89h-2.31l3.07-9.26Zm-2.13,5.44h1.67l-.84-2.62Z"/><path class="cls-2" d="M295.55,110.15v2.38h-2.39v7h-2.39v-7h-2.39v-2.38h7.17Z"/><path class="cls-2" d="M303,112.17h-4.13v1.64h3.31v2h-3.31v3.66h-2.38v-9.35H303Z"/><path class="cls-2" d="M310.61,110.79a4.74,4.74,0,0,1,2.36,4.09,4.53,4.53,0,0,1-.64,2.37,4.75,4.75,0,0,1-6.46,1.72,4.73,4.73,0,0,1-1.72-1.72,4.63,4.63,0,0,1-.64-2.37,4.74,4.74,0,0,1,2.36-4.09,4.59,4.59,0,0,1,2.38-.64A4.52,4.52,0,0,1,310.61,110.79Zm-1.15,6.2a2.53,2.53,0,0,0,.89-.89,2.35,2.35,0,0,0,.33-1.22,2.38,2.38,0,0,0-.33-1.22,2.53,2.53,0,0,0-.89-.89,2.32,2.32,0,0,0-1.21-.33,2.41,2.41,0,0,0-1.23.33,2.53,2.53,0,0,0-.89.89,2.38,2.38,0,0,0-.33,1.22,2.35,2.35,0,0,0,.33,1.22,2.53,2.53,0,0,0,.89.89,2.41,2.41,0,0,0,1.23.33A2.32,2.32,0,0,0,309.46,117Z"/><path class="cls-2" d="M321.39,119.5H319L317.52,116H316v3.53h-2.24v-9.35h4.46a2.84,2.84,0,0,1,1.45.39,2.89,2.89,0,0,1,1.07,1.07,2.82,2.82,0,0,1,.39,1.45,2.77,2.77,0,0,1-.36,1.39,3.08,3.08,0,0,1-1,1.06Zm-2.63-7.12a.91.91,0,0,0-.62-.31h-2.2v2h2.2a1,1,0,0,0,.62-.32,1,1,0,0,0,.25-.68A1,1,0,0,0,318.76,112.38Z"/><path class="cls-2" d="M329.39,110.15h2.38v9.35h-2.38v-5.28l-1.16,2.12-.06.1h-2.38l-.06-.1-.16-.31-1-1.81v5.28h-2.4v-9.35h2.4l2.4,4Z"/><path class="cls-2" d="M337.1,113.11v-.17a.81.81,0,0,0-.33-.65A1.16,1.16,0,0,0,336,112a1.29,1.29,0,0,0-.82.28.81.81,0,0,0-.33.65.6.6,0,0,0,.34.57,2.94,2.94,0,0,0,.9.37l.2,0,.24,0a4.64,4.64,0,0,1,1.89.78l.12.11a2.77,2.77,0,0,1,.62.91,2.5,2.5,0,0,1,.23,1.06,2.62,2.62,0,0,1-.25,1.13,2.79,2.79,0,0,1-.75,1,3.8,3.8,0,0,1-1.11.63,4,4,0,0,1-1.3.22,4,4,0,0,1-1.29-.22,3.75,3.75,0,0,1-1.1-.63,2.79,2.79,0,0,1-.75-1,2.51,2.51,0,0,1-.27-1.13v-.17h2.32v.17a.81.81,0,0,0,.32.65,1.17,1.17,0,0,0,.77.27,1.28,1.28,0,0,0,.82-.27.82.82,0,0,0,.33-.65.77.77,0,0,0-.35-.58,1.46,1.46,0,0,0-.37-.2,3.61,3.61,0,0,0-.52-.16l-.43-.11a11,11,0,0,1-1.14-.33,2,2,0,0,1-.76-.45l-.05,0a2.82,2.82,0,0,1-.69-.93,2.38,2.38,0,0,1-.25-1.08,2.52,2.52,0,0,1,.27-1.14,2.85,2.85,0,0,1,.75-1,3.54,3.54,0,0,1,1.1-.63A3.72,3.72,0,0,1,336,110a3.78,3.78,0,0,1,1.3.22,3.59,3.59,0,0,1,1.11.63,2.85,2.85,0,0,1,.75,1,2.63,2.63,0,0,1,.25,1.14v.17Z"/><path class="cls-2" d="M340.27,119.12a1.32,1.32,0,0,1-.36-.92,1.19,1.19,0,0,1,.37-.86,1.24,1.24,0,0,1,1.75,0,1.18,1.18,0,0,1,.37.88,1.26,1.26,0,0,1-1.26,1.26A1.17,1.17,0,0,1,340.27,119.12Z"/><path class="cls-2" d="M39.41,302.89v2.38H37v7h-2.4v-7H32.23v-2.38h7.18Z"/><path class="cls-2" d="M45.39,302.89h2.38v9.35H45.39v-3.5H42.71v3.5H40.33v-9.35h2.38v3.48h2.68Z"/><path class="cls-2" d="M55.18,310.21v2H48.82v-9.35h6.24v2H51.22v1.64h3.24v2H51.22v1.64Z"/><path class="cls-2" d="M62.59,310h3.67v2.25H60.21v-9.35h2.38Z"/><path class="cls-2" d="M69.57,302.89v9.35H67.19v-9.35Z"/><path class="cls-2" d="M74.9,305.85v-.17a.82.82,0,0,0-.33-.66,1.17,1.17,0,0,0-.78-.27A1.28,1.28,0,0,0,73,305a.82.82,0,0,0-.33.66.62.62,0,0,0,.34.57,2.94,2.94,0,0,0,.9.37l.2,0,.24,0a4.64,4.64,0,0,1,1.89.78l.12.1a2.82,2.82,0,0,1,.62.92,2.49,2.49,0,0,1,.23,1.05,2.63,2.63,0,0,1-.25,1.14,3.13,3.13,0,0,1-.75,1,3.56,3.56,0,0,1-1.11.62,3.82,3.82,0,0,1-1.3.22,3.72,3.72,0,0,1-1.29-.22,3.51,3.51,0,0,1-1.1-.62,3,3,0,0,1-.75-1,2.52,2.52,0,0,1-.27-1.14v-.17h2.32v.17a.81.81,0,0,0,.32.66,1.17,1.17,0,0,0,.77.27,1.28,1.28,0,0,0,.82-.27.82.82,0,0,0,.33-.66.78.78,0,0,0-.35-.58,1.86,1.86,0,0,0-.37-.2l-.52-.15-.44-.11a11.45,11.45,0,0,1-1.13-.33,2.35,2.35,0,0,1-.76-.45l0-.05a2.93,2.93,0,0,1-.69-.93,2.38,2.38,0,0,1-.25-1.08,2.52,2.52,0,0,1,.27-1.14,3,3,0,0,1,.75-1,3.51,3.51,0,0,1,1.1-.62,3.72,3.72,0,0,1,1.29-.22,3.82,3.82,0,0,1,1.3.22,3.56,3.56,0,0,1,1.11.62,3.13,3.13,0,0,1,.75,1,2.63,2.63,0,0,1,.25,1.14v.17Z"/><path class="cls-2" d="M85,302.89v2.38h-2.4v7H80.24v-7H77.85v-2.38H85Z"/><path class="cls-2" d="M96.75,303.52a4.68,4.68,0,0,1,1.72,1.73,4.71,4.71,0,0,1,0,4.74,4.73,4.73,0,0,1-1.72,1.72,4.61,4.61,0,0,1-2.36.63,4.68,4.68,0,0,1-2.38-.63A4.81,4.81,0,0,1,90.29,310a4.71,4.71,0,0,1,0-4.74A4.76,4.76,0,0,1,92,303.52a4.68,4.68,0,0,1,2.38-.63A4.61,4.61,0,0,1,96.75,303.52Zm-1.15,6.2a2.5,2.5,0,0,0,.89-.88,2.42,2.42,0,0,0,0-2.44,2.45,2.45,0,0,0-.89-.89,2.33,2.33,0,0,0-1.21-.34,2.42,2.42,0,0,0-1.23.34,2.45,2.45,0,0,0-.89.89,2.42,2.42,0,0,0,0,2.44,2.5,2.5,0,0,0,.89.88,2.41,2.41,0,0,0,1.23.33A2.32,2.32,0,0,0,95.6,309.72Z"/><path class="cls-2" d="M106.41,304.91h-4.13v1.64h3.3v2h-3.3v3.67H99.9v-9.35h6.51Z"/><path class="cls-2" d="M116.56,309.84a2.67,2.67,0,0,0,.79-.53l1.62,1.62a4.84,4.84,0,0,1-1.52,1,4.74,4.74,0,0,1-1.83.36,4.67,4.67,0,0,1-2.37-.63,4.81,4.81,0,0,1-1.72-1.72,4.62,4.62,0,0,1-.63-2.37,4.67,4.67,0,0,1,.63-2.37,4.73,4.73,0,0,1,1.72-1.72,4.58,4.58,0,0,1,2.37-.64,4.74,4.74,0,0,1,1.83.36,5,5,0,0,1,1.52,1l-1.62,1.61a2.64,2.64,0,0,0-.79-.52,2.32,2.32,0,0,0-.94-.19,2.35,2.35,0,0,0-1.22.33,2.5,2.5,0,0,0-.88.89,2.38,2.38,0,0,0-.33,1.22,2.33,2.33,0,0,0,.33,1.22,2.5,2.5,0,0,0,.88.89,2.35,2.35,0,0,0,1.22.33A2.5,2.5,0,0,0,116.56,309.84Z"/><path class="cls-2" d="M126.59,303.52a4.68,4.68,0,0,1,1.72,1.73,4.71,4.71,0,0,1,0,4.74,4.73,4.73,0,0,1-1.72,1.72,4.61,4.61,0,0,1-2.36.63,4.68,4.68,0,0,1-2.38-.63,4.81,4.81,0,0,1-1.72-1.72,4.71,4.71,0,0,1,0-4.74,4.76,4.76,0,0,1,1.72-1.73,4.68,4.68,0,0,1,2.38-.63A4.61,4.61,0,0,1,126.59,303.52Zm-1.15,6.2a2.5,2.5,0,0,0,.89-.88,2.42,2.42,0,0,0,0-2.44,2.45,2.45,0,0,0-.89-.89,2.33,2.33,0,0,0-1.21-.34,2.42,2.42,0,0,0-1.23.34,2.45,2.45,0,0,0-.89.89,2.42,2.42,0,0,0,0,2.44,2.5,2.5,0,0,0,.89.88,2.41,2.41,0,0,0,1.23.33A2.32,2.32,0,0,0,125.44,309.72Z"/><path class="cls-2" d="M137,302.89h2.38v9.35H137V307l-1.17,2.12-.05.1h-2.38l-.07-.1-.15-.31-1-1.81v5.28h-2.39v-9.35h2.39l2.41,4Z"/><path class="cls-2" d="M147.59,302.89H150v9.35h-2.38V307l-1.16,2.12-.06.1H144l-.06-.1-.16-.31-1-1.81v5.28h-2.4v-9.35h2.4l2.4,4Z"/><path class="cls-2" d="M158.63,302.9v5.78a3.5,3.5,0,0,1-.5,1.85,3.7,3.7,0,0,1-3.2,1.84h-.21a3.59,3.59,0,0,1-1.85-.5,3.69,3.69,0,0,1-1.35-1.34,3.58,3.58,0,0,1-.49-1.85V302.9h2.21v5.25a2.26,2.26,0,0,0,.39,1.36,1.29,1.29,0,0,0,1.09.54h.21a1.29,1.29,0,0,0,1.08-.55,2.19,2.19,0,0,0,.41-1.35V302.9Z"/><path class="cls-2" d="M164.83,302.89h2.38v9.35h-2.38l-2.75-5v5h-2.39v-9.35h2.39l2.75,5Z"/><path class="cls-2" d="M170.65,302.89v9.35h-2.38v-9.35Z"/><path class="cls-2" d="M178.75,302.89v2.38h-2.39v7H174v-7h-2.39v-2.38h7.17Z"/><path class="cls-2" d="M182.06,302.89v9.35h-2.38v-9.35Z"/><path class="cls-2" d="M189.48,310.21v2h-6.36v-9.35h6.24v2h-3.85v1.64h3.24v2h-3.24v1.64Z"/><path class="cls-2" d="M194.81,305.85v-.17a.82.82,0,0,0-.33-.66,1.17,1.17,0,0,0-.78-.27,1.28,1.28,0,0,0-.82.27.83.83,0,0,0-.34.66.62.62,0,0,0,.35.57,2.94,2.94,0,0,0,.9.37l.2,0,.23,0a4.63,4.63,0,0,1,1.9.78l.11.1a2.69,2.69,0,0,1,.63.92,2.49,2.49,0,0,1,.23,1.05,2.63,2.63,0,0,1-.25,1.14,3.13,3.13,0,0,1-.75,1,3.56,3.56,0,0,1-1.11.62,3.82,3.82,0,0,1-1.3.22,3.72,3.72,0,0,1-1.29-.22,3.51,3.51,0,0,1-1.1-.62,3,3,0,0,1-.75-1,2.52,2.52,0,0,1-.27-1.14v-.17h2.31v.17a.82.82,0,0,0,.33.66,1.17,1.17,0,0,0,.77.27,1.28,1.28,0,0,0,.82-.27.82.82,0,0,0,.33-.66.78.78,0,0,0-.35-.58,1.86,1.86,0,0,0-.37-.2l-.52-.15-.44-.11a11.45,11.45,0,0,1-1.13-.33,2.35,2.35,0,0,1-.76-.45l0-.05a2.93,2.93,0,0,1-.69-.93,2.38,2.38,0,0,1-.25-1.08,2.52,2.52,0,0,1,.27-1.14,3,3,0,0,1,.75-1,3.51,3.51,0,0,1,1.1-.62,3.72,3.72,0,0,1,1.29-.22,3.82,3.82,0,0,1,1.3.22,3.56,3.56,0,0,1,1.11.62,3.13,3.13,0,0,1,.75,1,2.63,2.63,0,0,1,.25,1.14v.17Z"/><path class="cls-2" d="M209.38,302.89h2.06v9.35h-2.38l-2.41-4-2.42,4h-2.38v-9.35h2.38v5.27l1.17-2.11.06-.11h2.38l.06.11,1.16,2.11v-5.27Z"/><path class="cls-2" d="M218.86,310.21v2H212.5v-9.35h6.24v2h-3.85v1.64h3.24v2h-3.24v1.64Z"/><path class="cls-2" d="M231.4,302.89h2.07v9.35h-2.38l-2.41-4-2.42,4h-2.38v-9.35h2.38v5.27l1.16-2.11.07-.11h2.38l0,.11,1.17,2.11v-5.27Z"/><path class="cls-2" d="M241.36,303.52a4.76,4.76,0,0,1,1.72,1.73,4.77,4.77,0,0,1,0,4.74,4.81,4.81,0,0,1-1.72,1.72,4.62,4.62,0,0,1-2.37.63,4.67,4.67,0,0,1-2.37-.63,4.83,4.83,0,0,1-1.73-1.72,4.77,4.77,0,0,1,0-4.74,4.78,4.78,0,0,1,1.73-1.73,4.67,4.67,0,0,1,2.37-.63A4.62,4.62,0,0,1,241.36,303.52Zm-1.15,6.2a2.5,2.5,0,0,0,.89-.88,2.42,2.42,0,0,0,0-2.44,2.45,2.45,0,0,0-.89-.89,2.36,2.36,0,0,0-2.44,0,2.45,2.45,0,0,0-.89.89,2.42,2.42,0,0,0,0,2.44,2.5,2.5,0,0,0,.89.88,2.42,2.42,0,0,0,2.44,0Z"/><path class="cls-2" d="M252.14,312.24h-2.4l-1.48-3.53h-1.52v3.53h-2.23v-9.35H249a2.88,2.88,0,0,1,1.46.39,2.84,2.84,0,0,1,1.06,1.06,2.88,2.88,0,0,1,.39,1.46,2.8,2.8,0,0,1-.36,1.39,2.93,2.93,0,0,1-1,1.05Zm-2.64-7.12a.88.88,0,0,0-.62-.32h-2.19v2h2.19a.93.93,0,0,0,.62-.33,1,1,0,0,0,.26-.68A1,1,0,0,0,249.5,305.12Z"/><path class="cls-2" d="M257.46,307.52l2.79,4.72h-2.64l-2.3-3.77v3.77h-2.38v-9.35h2.38v3.65l2.3-3.65h2.64Z"/><path class="cls-2" d="M272.8,302.89h2.06v9.35h-2.38l-2.4-4-2.42,4h-2.38v-9.35h2.38v5.27l1.16-2.11.07-.11h2.38l.05.11,1.16,2.11v-5.27Z"/><path class="cls-2" d="M278.3,302.89v9.35h-2.38v-9.35Z"/><path class="cls-2" d="M286.41,302.89v2.38H284v7h-2.39v-7h-2.39v-2.38h7.18Z"/><path class="cls-2" d="M292.38,302.89h2.38v9.35h-2.38v-3.5h-2.67v3.5h-2.38v-9.35h2.38v3.48h2.67Z"/><path class="cls-2" d="M305.18,309.84a2.72,2.72,0,0,0,.8-.53l1.61,1.62a4.73,4.73,0,0,1-1.52,1,4.67,4.67,0,0,1-1.83.36,4.7,4.7,0,0,1-4.08-2.35,4.53,4.53,0,0,1-.64-2.37,4.74,4.74,0,0,1,2.36-4.09,4.52,4.52,0,0,1,2.36-.64,4.67,4.67,0,0,1,1.83.36,4.92,4.92,0,0,1,1.52,1L306,305.86a2.69,2.69,0,0,0-.8-.52,2.4,2.4,0,0,0-2.15.14,2.53,2.53,0,0,0-.89.89,2.38,2.38,0,0,0-.33,1.22,2.33,2.33,0,0,0,.33,1.22,2.53,2.53,0,0,0,.89.89,2.32,2.32,0,0,0,1.21.33A2.5,2.5,0,0,0,305.18,309.84Z"/><path class="cls-2" d="M313.25,303l3.05,9.26H314l-.61-1.9H310.5l-.6,1.9h-2.31l3.07-9.26Zm-2.13,5.43h1.67L312,305.8Z"/><path class="cls-2" d="M321.71,302.89h2.38v9.35h-2.38l-2.75-5v5h-2.39v-9.35H319l2.75,5Z"/><path class="cls-2" d="M336.16,308.29a2.65,2.65,0,0,1,.3,1.25,2.61,2.61,0,0,1-.35,1.34,2.68,2.68,0,0,1-1,1,2.78,2.78,0,0,1-1.36.38h-4.67v-9.37h4.25a2.64,2.64,0,0,1,1.36.37,2.81,2.81,0,0,1,1,1,2.66,2.66,0,0,1,.35,1.32,2.55,2.55,0,0,1-.19,1,2.47,2.47,0,0,1-.51.82A2.71,2.71,0,0,1,336.16,308.29Zm-2.46-3.21a.94.94,0,0,0-.69-.29h-1.72v2H333a1.42,1.42,0,0,0,.32,0,1,1,0,0,0,.24-.13,1,1,0,0,0,.3-.36,1,1,0,0,0,.11-.46A1,1,0,0,0,333.7,305.08Zm.39,4.93a.9.9,0,0,0,.27-.7.94.94,0,0,0-.22-.62.9.9,0,0,0-.57-.34c-.05,0-.68,0-1.88,0h-.4v2h2.12A1,1,0,0,0,334.09,310Z"/><path class="cls-2" d="M343.62,310.21v2h-6.36v-9.35h6.24v2h-3.85v1.64h3.24v2h-3.24v1.64Z"/><path class="cls-2" d="M38.87,320.78H34.74v1.64h3.31v2H34.74v3.66H32.36v-9.35h6.51Z"/><path class="cls-2" d="M46.5,319.39a4.7,4.7,0,0,1,1.71,1.72,4.59,4.59,0,0,1,.64,2.38,4.52,4.52,0,0,1-.64,2.36,4.71,4.71,0,0,1-4.08,2.36,4.53,4.53,0,0,1-2.37-.64,4.68,4.68,0,0,1-2.36-4.08,4.68,4.68,0,0,1,2.36-4.1,4.53,4.53,0,0,1,2.37-.64A4.58,4.58,0,0,1,46.5,319.39Zm-1.15,6.2a2.5,2.5,0,0,0,.88-.89,2.32,2.32,0,0,0,.33-1.21,2.41,2.41,0,0,0-.33-1.23,2.5,2.5,0,0,0-.88-.89,2.42,2.42,0,0,0-2.44,0,2.48,2.48,0,0,0-.9.89,2.41,2.41,0,0,0-.33,1.23A2.32,2.32,0,0,0,42,324.7a2.48,2.48,0,0,0,.9.89,2.42,2.42,0,0,0,2.44,0Z"/><path class="cls-2" d="M57.25,318.77v5.77a3.65,3.65,0,0,1-.5,1.86,3.69,3.69,0,0,1-1.35,1.34,3.64,3.64,0,0,1-1.86.49h-.21a3.58,3.58,0,0,1-1.85-.49,3.74,3.74,0,0,1-1.34-1.34,3.65,3.65,0,0,1-.5-1.86v-5.77h2.21V324a2.21,2.21,0,0,0,.4,1.36,1.26,1.26,0,0,0,1.08.54h.21a1.29,1.29,0,0,0,1.08-.55A2.15,2.15,0,0,0,55,324v-5.25Z"/><path class="cls-2" d="M63.45,318.75h2.38v9.35H63.45l-2.75-5v5H58.3v-9.35h2.4l2.75,5Z"/><path class="cls-2" d="M71,318.72a5.37,5.37,0,0,1,1.41.34,3.88,3.88,0,0,1,1.29.81,4.59,4.59,0,0,1,1.14,1.6,4.77,4.77,0,0,1,.41,1.92,4.48,4.48,0,0,1-.52,2.16,4.27,4.27,0,0,1-1.45,1.65,5,5,0,0,1-1.9.75,13.74,13.74,0,0,1-2.36.18H67.92l-1,0v-9.45h2.4A16.6,16.6,0,0,1,71,318.72Zm2,4.67a2.38,2.38,0,0,0-.31-1.19,2.53,2.53,0,0,0-.87-.91,2.24,2.24,0,0,0-1.2-.35H69.28v4.87a9.63,9.63,0,0,0,1.63-.11,2.8,2.8,0,0,0,1.23-.52,2.08,2.08,0,0,0,.75-1.23A2.89,2.89,0,0,0,73,323.39Z"/><path class="cls-2" d="M33.76,382.87a12.08,12.08,0,0,1-1.35-4.35c0-.34,0-.72,0-1.14a10.38,10.38,0,0,1,.27-2.4,9.26,9.26,0,0,1,.7-2.14,10.57,10.57,0,0,1,.62-1.16l1.44,1c0,.06-.12.21-.25.44a9.44,9.44,0,0,0-.43.95,8.68,8.68,0,0,0-.39,1.35,9.81,9.81,0,0,0-.15,3,10.57,10.57,0,0,0,1.15,3.66Z"/><path class="cls-2" d="M43.49,372.69v2.38H41.1v7H38.71v-7h-2.4v-2.38h7.18Z"/><path class="cls-2" d="M49.47,372.69h2.38V382H49.47v-3.49H46.8V382H44.42v-9.35H46.8v3.48h2.67Z"/><path class="cls-2" d="M59.27,380v2H52.91v-9.35h6.24v2H55.3v1.64h3.24v2H55.3V380Z"/><path class="cls-2" d="M66.67,379.79h3.68V382H64.29v-9.35h2.38Z"/><path class="cls-2" d="M73.65,372.69V382H71.27v-9.35Z"/><path class="cls-2" d="M79,375.65v-.17a.86.86,0,0,0-.32-.66,1.2,1.2,0,0,0-.79-.27,1.24,1.24,0,0,0-.81.27.82.82,0,0,0-.34.66.61.61,0,0,0,.35.57,2.87,2.87,0,0,0,.89.37l.21,0,.23.05a4.64,4.64,0,0,1,1.89.78l.12.11a3,3,0,0,1,.63.91,2.66,2.66,0,0,1,.23,1.06A2.63,2.63,0,0,1,81,380.5a2.79,2.79,0,0,1-.75,1,3.56,3.56,0,0,1-1.11.63,3.89,3.89,0,0,1-2.58,0,3.63,3.63,0,0,1-1.1-.63,3,3,0,0,1-.76-1,2.63,2.63,0,0,1-.26-1.13v-.17h2.31v.17a.84.84,0,0,0,.32.65,1.19,1.19,0,0,0,.78.27,1.24,1.24,0,0,0,.81-.27.8.8,0,0,0,.34-.65.74.74,0,0,0-.36-.58,1.31,1.31,0,0,0-.37-.2,3.45,3.45,0,0,0-.51-.16l-.44-.11a11.78,11.78,0,0,1-1.14-.33,2.24,2.24,0,0,1-.75-.45l0-.05a2.85,2.85,0,0,1-.7-.93,2.51,2.51,0,0,1-.24-1.08,2.64,2.64,0,0,1,.26-1.14,3,3,0,0,1,.76-1,3.25,3.25,0,0,1,1.1-.63,3.89,3.89,0,0,1,2.58,0,3.21,3.21,0,0,1,1.11.63,2.85,2.85,0,0,1,.75,1,2.64,2.64,0,0,1,.26,1.14v.17Z"/><path class="cls-2" d="M89.11,372.69v2.38H86.72v7h-2.4v-7H81.93v-2.38h7.18Z"/><path class="cls-2" d="M96.38,372.69V382H94v-9.35Z"/><path class="cls-2" d="M101.71,375.65v-.17a.86.86,0,0,0-.32-.66,1.2,1.2,0,0,0-.79-.27,1.24,1.24,0,0,0-.81.27.82.82,0,0,0-.34.66.61.61,0,0,0,.34.57,2.94,2.94,0,0,0,.9.37l.21,0,.23.05a4.64,4.64,0,0,1,1.89.78l.12.11a3,3,0,0,1,.63.91,2.66,2.66,0,0,1,.23,1.06,2.63,2.63,0,0,1-.26,1.13,2.79,2.79,0,0,1-.75,1,3.56,3.56,0,0,1-1.11.63,3.89,3.89,0,0,1-2.58,0,3.8,3.8,0,0,1-1.11-.63,3.05,3.05,0,0,1-.75-1,2.49,2.49,0,0,1-.26-1.13v-.17h2.31v.17a.84.84,0,0,0,.32.65,1.19,1.19,0,0,0,.78.27,1.26,1.26,0,0,0,.81-.27.8.8,0,0,0,.34-.65.74.74,0,0,0-.36-.58,1.46,1.46,0,0,0-.37-.2,3.25,3.25,0,0,0-.52-.16l-.43-.11a11,11,0,0,1-1.14-.33,2.24,2.24,0,0,1-.75-.45l-.06-.05a2.82,2.82,0,0,1-.69-.93,2.59,2.59,0,0,1,0-2.22,3.13,3.13,0,0,1,.75-1,3.4,3.4,0,0,1,1.11-.63,3.89,3.89,0,0,1,2.58,0,3.21,3.21,0,0,1,1.11.63,2.85,2.85,0,0,1,.75,1,2.64,2.64,0,0,1,.26,1.14v.17Z"/><path class="cls-2" d="M114.15,379.64a2.69,2.69,0,0,0,.8-.52l1.61,1.61a4.73,4.73,0,0,1-1.52,1,4.69,4.69,0,0,1-4.19-.27,4.74,4.74,0,0,1-2.36-4.08,4.74,4.74,0,0,1,2.36-4.1,4.62,4.62,0,0,1,2.36-.64A4.5,4.5,0,0,1,115,373a4.73,4.73,0,0,1,1.52,1L115,375.66a2.69,2.69,0,0,0-.8-.52,2.4,2.4,0,0,0-2.15.14,2.53,2.53,0,0,0-.89.89,2.41,2.41,0,0,0-.33,1.23,2.32,2.32,0,0,0,.33,1.21,2.53,2.53,0,0,0,.89.89,2.4,2.4,0,0,0,2.15.14Z"/><path class="cls-2" d="M124.19,373.32a4.83,4.83,0,0,1,1.72,1.73,4.67,4.67,0,0,1,.63,2.37,4.62,4.62,0,0,1-.63,2.37,4.81,4.81,0,0,1-1.72,1.72,4.62,4.62,0,0,1-2.37.63,4.67,4.67,0,0,1-2.37-.63,4.76,4.76,0,0,1-1.73-1.72,4.62,4.62,0,0,1-.63-2.37,4.67,4.67,0,0,1,.63-2.37,4.78,4.78,0,0,1,1.73-1.73,4.67,4.67,0,0,1,2.37-.63A4.62,4.62,0,0,1,124.19,373.32ZM123,379.53a2.58,2.58,0,0,0,.88-.89,2.42,2.42,0,0,0,0-2.44,2.5,2.5,0,0,0-.88-.89,2.42,2.42,0,0,0-2.44,0,2.45,2.45,0,0,0-.89.89,2.42,2.42,0,0,0,0,2.44,2.53,2.53,0,0,0,.89.89,2.42,2.42,0,0,0,2.44,0Z"/><path class="cls-2" d="M132.48,372.69h2.38V382h-2.38l-2.75-5v5h-2.4v-9.35h2.4l2.75,5Z"/><path class="cls-2" d="M140.19,375.65v-.17a.84.84,0,0,0-.33-.66,1.17,1.17,0,0,0-.78-.27,1.28,1.28,0,0,0-.82.27.84.84,0,0,0-.33.66.61.61,0,0,0,.34.57,2.94,2.94,0,0,0,.9.37l.2,0,.23.05a4.63,4.63,0,0,1,1.9.78l.11.11a2.65,2.65,0,0,1,.63.91,2.5,2.5,0,0,1,.23,1.06,2.62,2.62,0,0,1-.25,1.13,3.05,3.05,0,0,1-.75,1,3.8,3.8,0,0,1-1.11.63,4.08,4.08,0,0,1-1.3.22,4,4,0,0,1-1.29-.22,3.75,3.75,0,0,1-1.1-.63,2.79,2.79,0,0,1-.75-1,2.51,2.51,0,0,1-.27-1.13v-.17H138v.17a.82.82,0,0,0,.33.65,1.15,1.15,0,0,0,.77.27,1.28,1.28,0,0,0,.82-.27.82.82,0,0,0,.33-.65.75.75,0,0,0-.35-.58,1.46,1.46,0,0,0-.37-.2,4.06,4.06,0,0,0-.52-.16l-.44-.11a11.45,11.45,0,0,1-1.13-.33,2.19,2.19,0,0,1-.76-.45l0-.05a2.82,2.82,0,0,1-.69-.93,2.38,2.38,0,0,1-.25-1.08,2.52,2.52,0,0,1,.27-1.14,2.85,2.85,0,0,1,.75-1,3.35,3.35,0,0,1,1.1-.63,3.72,3.72,0,0,1,1.29-.22,3.82,3.82,0,0,1,1.3.22,3.4,3.4,0,0,1,1.11.63,3.13,3.13,0,0,1,.75,1,2.63,2.63,0,0,1,.25,1.14v.17Z"/><path class="cls-2" d="M150.31,372.69v2.38h-2.39v7h-2.39v-7h-2.4v-2.38h7.18Z"/><path class="cls-2" d="M156.11,372.78l3,9.26h-2.3l-.61-1.89h-2.89l-.6,1.89h-2.31l3.06-9.26ZM154,378.22h1.66l-.83-2.62Z"/><path class="cls-2" d="M164.57,372.69H167V382h-2.38l-2.75-5v5h-2.4v-9.35h2.4l2.75,5Z"/><path class="cls-2" d="M175.05,372.69v2.38h-2.39v7h-2.39v-7h-2.4v-2.38h7.18Z"/><path class="cls-2" d="M178.36,379.79H182V382H176v-9.35h2.38Z"/><path class="cls-2" d="M187.93,372.69h2.38l-2.75,5.54V382h-2.38v-3.81l-2.75-5.54h2.38l1.56,3.19Z"/><path class="cls-2" d="M202.41,372.7v5.78a3.5,3.5,0,0,1-.5,1.85,3.7,3.7,0,0,1-3.2,1.84h-.21a3.67,3.67,0,0,1-3.69-3.69V372.7H197V378a2.26,2.26,0,0,0,.39,1.36,1.27,1.27,0,0,0,1.09.55h.21a1.32,1.32,0,0,0,1.08-.55,2.24,2.24,0,0,0,.41-1.36V372.7Z"/><path class="cls-2" d="M209.38,373.08a2.92,2.92,0,0,1,1.06,4,2.91,2.91,0,0,1-1.06,1.06,2.83,2.83,0,0,1-1.46.39H205.7V382h-2.23v-9.35h4.45A2.83,2.83,0,0,1,209.38,373.08Zm-.91,1.84a.91.91,0,0,0-.63-.31h-2.19v2h2.19a.92.92,0,0,0,.63-.32,1,1,0,0,0,.26-.69A1,1,0,0,0,208.47,374.92Z"/><path class="cls-2" d="M215.73,372.66a5.81,5.81,0,0,1,1.4.33,4,4,0,0,1,1.29.81,4.62,4.62,0,0,1,1.15,1.61,4.93,4.93,0,0,1,.4,1.92,4.51,4.51,0,0,1-.52,2.16,4.25,4.25,0,0,1-1.44,1.65,5.09,5.09,0,0,1-1.91.75,14.92,14.92,0,0,1-2.36.17h-2.11v-9.46H214A16.65,16.65,0,0,1,215.73,372.66Zm2,4.67a2.45,2.45,0,0,0-.32-1.2,2.5,2.5,0,0,0-.87-.9,2.28,2.28,0,0,0-1.19-.36H214v4.88a10.8,10.8,0,0,0,1.63-.11,2.82,2.82,0,0,0,1.23-.52,2.09,2.09,0,0,0,.75-1.23A3.05,3.05,0,0,0,217.7,377.33Z"/><path class="cls-2" d="M225.63,372.78l3.05,9.26h-2.3l-.61-1.89h-2.89l-.6,1.89H220l3.07-9.26Zm-2.13,5.44h1.67l-.84-2.62Z"/><path class="cls-2" d="M236,372.69v2.38H233.6v7h-2.39v-7h-2.4v-2.38H236Z"/><path class="cls-2" d="M243.28,380v2h-6.36v-9.35h6.24v2h-3.85v1.64h3.24v2h-3.24V380Z"/><path class="cls-2" d="M248.44,372.66a5.81,5.81,0,0,1,1.4.33,4,4,0,0,1,1.29.81,4.62,4.62,0,0,1,1.15,1.61,4.76,4.76,0,0,1,.4,1.92,4.62,4.62,0,0,1-.51,2.16,4.36,4.36,0,0,1-1.45,1.65,5.09,5.09,0,0,1-1.91.75,14.92,14.92,0,0,1-2.36.17h-2.11v-9.46h2.39A16.65,16.65,0,0,1,248.44,372.66Zm2,4.67a2.45,2.45,0,0,0-.32-1.2,2.5,2.5,0,0,0-.87-.9,2.28,2.28,0,0,0-1.19-.36h-1.3v4.88a10.7,10.7,0,0,0,1.63-.11,2.82,2.82,0,0,0,1.23-.52,2.09,2.09,0,0,0,.75-1.23A3.05,3.05,0,0,0,250.41,377.33Z"/><path class="cls-2" d="M255.1,382.87l-1.56-.82a10.37,10.37,0,0,0,1.15-3.66,7.65,7.65,0,0,0,.05-1,9.09,9.09,0,0,0-.2-1.95,8.54,8.54,0,0,0-.42-1.44,7.92,7.92,0,0,0-.46-1l-.19-.3,1.45-1a12.73,12.73,0,0,1,.62,1.16,10.33,10.33,0,0,1,.7,2.14,11,11,0,0,1,.26,2.4c0,.42,0,.8-.05,1.14A12.08,12.08,0,0,1,255.1,382.87Z"/></svg>