<svg id="Слой_1" data-name="Слой 1" xmlns="http://www.w3.org/2000/svg" viewBox="0 0 405 405"><defs><style>.cls-1{fill:#fff;}.cls-2{fill:#e7335d;}.cls-3{fill:#fdd825;}</style></defs><rect class="cls-1" width="405" height="405"/><path d="M37.79,316.15a2.64,2.64,0,0,0,.79-.52l1.62,1.61a4.92,4.92,0,0,1-1.52,1,4.74,4.74,0,0,1-1.83.36,4.67,4.67,0,0,1-2.37-.63,4.78,4.78,0,0,1-1.71-1.72,4.71,4.71,0,0,1,0-4.74,4.65,4.65,0,0,1,4.08-2.36,4.64,4.64,0,0,1,3.35,1.39l-1.62,1.61a2.47,2.47,0,0,0-.79-.52,2.33,2.33,0,0,0-.94-.2,2.45,2.45,0,0,0-1.22.33,2.53,2.53,0,0,0-.88.9,2.42,2.42,0,0,0,0,2.44,2.47,2.47,0,0,0,.88.88,2.35,2.35,0,0,0,1.22.33A2.32,2.32,0,0,0,37.79,316.15Z"/><path d="M47.71,309.84a4.7,4.7,0,0,1,1.71,1.72,4.59,4.59,0,0,1,.64,2.38,4.52,4.52,0,0,1-.64,2.36,4.71,4.71,0,0,1-4.08,2.36A4.53,4.53,0,0,1,43,318a4.68,4.68,0,0,1-2.36-4.08,4.68,4.68,0,0,1,2.36-4.1,4.63,4.63,0,0,1,2.37-.64A4.68,4.68,0,0,1,47.71,309.84ZM46.56,316a2.5,2.5,0,0,0,.88-.89,2.32,2.32,0,0,0,.33-1.21,2.41,2.41,0,0,0-.33-1.23,2.5,2.5,0,0,0-.88-.89,2.42,2.42,0,0,0-2.44,0,2.48,2.48,0,0,0-.9.89,2.41,2.41,0,0,0-.33,1.23,2.32,2.32,0,0,0,.33,1.21,2.48,2.48,0,0,0,.9.89,2.42,2.42,0,0,0,2.44,0Z"/><path d="M55.88,309.2h2.38v9.35H55.88l-2.75-5v5h-2.4V309.2h2.4l2.75,5Z"/><path d="M66.24,309.2v2.38H63.85v7H61.46v-7h-2.4V309.2h7.18Z"/><path d="M73.41,316.53v2H67.05V309.2h6.24v2H69.44v1.64h3.24v2H69.44v1.64Z"/><path d="M79.49,309.2h2.38v9.35H79.49l-2.75-5v5H74.35V309.2h2.39l2.75,5Z"/><path d="M89.86,309.2v2.38h-2.4v7H85.07v-7H82.68V309.2h7.18Z"/><path d="M98.78,312.17V312a.84.84,0,0,0-.32-.65,1.2,1.2,0,0,0-.79-.27,1.24,1.24,0,0,0-.81.27.8.8,0,0,0-.34.65.6.6,0,0,0,.35.57,3,3,0,0,0,.89.37l.21,0,.23,0a4.64,4.64,0,0,1,1.89.78l.12.11a2.91,2.91,0,0,1,.63.91,2.74,2.74,0,0,1,.23,1.06,2.64,2.64,0,0,1-.26,1.14,3,3,0,0,1-.74,1,3.4,3.4,0,0,1-1.11.63,3.82,3.82,0,0,1-1.3.22,3.72,3.72,0,0,1-1.29-.22,3.25,3.25,0,0,1-1.1-.63,3,3,0,0,1-.76-1,2.64,2.64,0,0,1-.26-1.14v-.17h2.31v.17a.84.84,0,0,0,.33.66,1.15,1.15,0,0,0,.77.27,1.24,1.24,0,0,0,.81-.27.82.82,0,0,0,.34-.66.76.76,0,0,0-.36-.58,1.31,1.31,0,0,0-.37-.2l-.51-.16-.44-.1L96,314.51a2.42,2.42,0,0,1-.75-.45l0-.06a3.08,3.08,0,0,1-.7-.92,2.58,2.58,0,0,1-.24-1.09,2.63,2.63,0,0,1,.26-1.13,3.05,3.05,0,0,1,.76-1,3.63,3.63,0,0,1,1.1-.63,4,4,0,0,1,1.29-.22,4.08,4.08,0,0,1,1.3.22,3.8,3.8,0,0,1,1.11.63,3,3,0,0,1,.74,1,2.63,2.63,0,0,1,.26,1.13v.18Z"/><path d="M108.1,316.53v2h-6.35V309.2H108v2h-3.85v1.64h3.24v2h-3.24v1.64Z"/><path d="M115.4,316.53v2H109V309.2h6.24v2h-3.84v1.64h3.24v2h-3.24v1.64Z"/><path d="M120.44,309.17a5.37,5.37,0,0,1,1.41.34,4,4,0,0,1,1.29.8,4.82,4.82,0,0,1,1.54,3.53,4.59,4.59,0,0,1-.51,2.16,4.27,4.27,0,0,1-1.45,1.65,5.11,5.11,0,0,1-1.9.75,13.82,13.82,0,0,1-2.36.18l-1.09,0h-1V309.1h2.39A16.81,16.81,0,0,1,120.44,309.17Zm2,4.67a2.39,2.39,0,0,0-.32-1.19,2.5,2.5,0,0,0-.86-.91,2.34,2.34,0,0,0-1.2-.36h-1.3v4.88a9.76,9.76,0,0,0,1.64-.11,2.8,2.8,0,0,0,1.23-.52,2.07,2.07,0,0,0,.74-1.23A2.32,2.32,0,0,0,122.41,313.84Z"/><path d="M127.74,309.2v9.35h-2.38V309.2Z"/><path d="M133.82,309.2h2.38v9.35h-2.38l-2.75-5v5h-2.39V309.2h2.39l2.75,5Z"/><path d="M146.33,313.92a4.53,4.53,0,0,1-.64,2.37,4.75,4.75,0,0,1-6.46,1.72,4.73,4.73,0,0,1-1.72-1.72,4.62,4.62,0,0,1-.63-2.37,4.7,4.7,0,0,1,2.35-4.09,4.53,4.53,0,0,1,2.37-.64,4.58,4.58,0,0,1,1.84.37,4.66,4.66,0,0,1,1.51,1l-2.12,1.22a2.39,2.39,0,0,0-1.23-.33,2.33,2.33,0,0,0-1.22.33,2.53,2.53,0,0,0-.89.89,2.38,2.38,0,0,0-.33,1.22,2.35,2.35,0,0,0,.33,1.22,2.53,2.53,0,0,0,.89.89,2.41,2.41,0,0,0,2.5,0,2.4,2.4,0,0,0,.9-1h-2.94v-2.19h5.36A4.89,4.89,0,0,1,146.33,313.92Z"/><path d="M155.72,309.3l3.05,9.25h-2.3l-.61-1.89H153l-.6,1.89h-2.31l3.07-9.25Zm-2.13,5.43h1.66l-.83-2.62Z"/><path d="M161.3,316.3H165v2.25h-6.05V309.2h2.38Z"/><path d="M168.16,316.3h3.67v2.25h-6.05V309.2h2.38Z"/><path d="M179.48,309.84a4.81,4.81,0,0,1,1.72,1.72,4.68,4.68,0,0,1,.63,2.38,4.61,4.61,0,0,1-.63,2.36,4.73,4.73,0,0,1-1.72,1.72,4.58,4.58,0,0,1-2.37.64,4.53,4.53,0,0,1-2.37-.64,4.68,4.68,0,0,1-2.36-4.08,4.68,4.68,0,0,1,2.36-4.1,4.63,4.63,0,0,1,2.37-.64A4.68,4.68,0,0,1,179.48,309.84Zm-1.15,6.2a2.5,2.5,0,0,0,.88-.89,2.32,2.32,0,0,0,.33-1.21,2.41,2.41,0,0,0-.33-1.23,2.5,2.5,0,0,0-.88-.89,2.42,2.42,0,0,0-2.44,0,2.48,2.48,0,0,0-.9.89,2.41,2.41,0,0,0-.33,1.23,2.32,2.32,0,0,0,.33,1.21,2.48,2.48,0,0,0,.9.89,2.42,2.42,0,0,0,2.44,0Z"/><path d="M190,309.2h2.06v9.35h-2.38l-2.41-4-2.42,4H182.5V309.2h2.38v5.28l1.17-2.12.06-.1h2.38l.06.1,1.16,2.12V309.2Z"/><path d="M197.3,312.17V312a.84.84,0,0,0-.32-.65,1.2,1.2,0,0,0-.79-.27,1.24,1.24,0,0,0-.81.27.8.8,0,0,0-.34.65.6.6,0,0,0,.34.57,2.94,2.94,0,0,0,.9.37l.21,0,.23,0a4.64,4.64,0,0,1,1.89.78l.12.11a3.08,3.08,0,0,1,.63.91,2.74,2.74,0,0,1,.23,1.06,2.64,2.64,0,0,1-.26,1.14,2.85,2.85,0,0,1-.75,1,3.21,3.21,0,0,1-1.11.63,3.89,3.89,0,0,1-2.58,0,3.4,3.4,0,0,1-1.11-.63,3.13,3.13,0,0,1-.75-1,2.52,2.52,0,0,1-.27-1.14v-.17h2.32v.17a.86.86,0,0,0,.32.66,1.19,1.19,0,0,0,.78.27,1.28,1.28,0,0,0,.81-.27.85.85,0,0,0,.34-.66.76.76,0,0,0-.36-.58,1.46,1.46,0,0,0-.37-.2l-.52-.16-.43-.1q-.74-.19-1.14-.33a2.42,2.42,0,0,1-.75-.45l-.06-.06a2.89,2.89,0,0,1-.69-.92,2.59,2.59,0,0,1-.25-1.09,2.51,2.51,0,0,1,.27-1.13,3.17,3.17,0,0,1,.75-1,3.8,3.8,0,0,1,1.11-.63,3.89,3.89,0,0,1,2.58,0,3.56,3.56,0,0,1,1.11.63,2.89,2.89,0,0,1,.75,1,2.63,2.63,0,0,1,.26,1.13v.18Z"/><path d="M209.08,309.2h2.38l-2.75,5.54v3.81h-2.38v-3.81l-2.75-5.54H206l1.56,3.19Z"/><path d="M218.71,309.84a4.7,4.7,0,0,1,1.71,1.72,4.59,4.59,0,0,1,.64,2.38,4.52,4.52,0,0,1-.64,2.36,4.71,4.71,0,0,1-4.08,2.36A4.53,4.53,0,0,1,214,318a4.68,4.68,0,0,1-2.36-4.08,4.68,4.68,0,0,1,2.36-4.1,4.63,4.63,0,0,1,2.37-.64A4.68,4.68,0,0,1,218.71,309.84Zm-1.15,6.2a2.5,2.5,0,0,0,.88-.89,2.32,2.32,0,0,0,.33-1.21,2.41,2.41,0,0,0-.33-1.23,2.5,2.5,0,0,0-.88-.89,2.42,2.42,0,0,0-2.44,0,2.48,2.48,0,0,0-.9.89,2.41,2.41,0,0,0-.33,1.23,2.32,2.32,0,0,0,.33,1.21,2.48,2.48,0,0,0,.9.89,2.42,2.42,0,0,0,2.44,0Z"/><path d="M229.34,309.22V315a3.62,3.62,0,0,1-.5,1.85,3.69,3.69,0,0,1-1.35,1.34,3.64,3.64,0,0,1-1.86.49h-.21a3.58,3.58,0,0,1-1.85-.49,3.74,3.74,0,0,1-1.34-1.34,3.62,3.62,0,0,1-.5-1.85v-5.78h2.21v5.25a2.21,2.21,0,0,0,.4,1.36,1.26,1.26,0,0,0,1.08.54h.21a1.29,1.29,0,0,0,1.08-.55,2.15,2.15,0,0,0,.42-1.35v-5.25Z"/><path d="M241.17,309.2v2.38h-2.39v7h-2.4v-7H234V309.2h7.18Z"/><path d="M248.81,309.84a4.72,4.72,0,0,1,1.72,6.46,4.58,4.58,0,0,1-1.72,1.72,4.52,4.52,0,0,1-2.36.64,4.74,4.74,0,0,1-4.1-2.36,4.52,4.52,0,0,1-.64-2.36,4.59,4.59,0,0,1,.64-2.38,4.72,4.72,0,0,1,6.46-1.72Zm-1.15,6.2a2.53,2.53,0,0,0,.89-.89,2.32,2.32,0,0,0,.33-1.21,2.41,2.41,0,0,0-.33-1.23,2.53,2.53,0,0,0-.89-.89,2.32,2.32,0,0,0-1.21-.33,2.39,2.39,0,0,0-1.23.33,2.53,2.53,0,0,0-.89.89,2.41,2.41,0,0,0-.33,1.23,2.32,2.32,0,0,0,.33,1.21,2.53,2.53,0,0,0,.89.89,2.39,2.39,0,0,0,1.23.33A2.32,2.32,0,0,0,247.66,316Z"/><path d="M263.32,318.55h-2.4L259.44,315h-1.52v3.53h-2.23V309.2h4.45a2.89,2.89,0,0,1,2.52,1.46,2.84,2.84,0,0,1,.39,1.45,2.94,2.94,0,0,1-.35,1.4,3.15,3.15,0,0,1-1,1.05Zm-2.63-7.12a.91.91,0,0,0-.63-.31h-2.19v2h2.19a.92.92,0,0,0,.63-.32,1,1,0,0,0,.25-.68A1,1,0,0,0,260.69,311.43Z"/><path d="M270.35,316.53v2H264V309.2h6.24v2h-3.85v1.64h3.24v2h-3.24v1.64Z"/><path d="M276.15,309.3l3.06,9.25h-2.3l-.61-1.89h-2.9l-.59,1.89H270.5l3.06-9.25ZM274,314.73h1.66l-.83-2.62Z"/><path d="M284.75,316.15a2.64,2.64,0,0,0,.79-.52l1.62,1.61a5,5,0,0,1-1.53,1,4.78,4.78,0,0,1-4.19-.27,4.89,4.89,0,0,1-1.72-1.72,4.77,4.77,0,0,1,0-4.74,4.76,4.76,0,0,1,1.72-1.73,4.78,4.78,0,0,1,4.19-.27,4.8,4.8,0,0,1,1.53,1l-1.62,1.61a2.47,2.47,0,0,0-.79-.52,2.33,2.33,0,0,0-.94-.2,2.45,2.45,0,0,0-1.22.33,2.53,2.53,0,0,0-.88.9,2.42,2.42,0,0,0,0,2.44,2.47,2.47,0,0,0,.88.88,2.35,2.35,0,0,0,1.22.33A2.32,2.32,0,0,0,284.75,316.15Z"/><path d="M292.88,309.2h2.38v9.35h-2.38v-3.49h-2.67v3.49h-2.38V309.2h2.38v3.48h2.67Z"/><path d="M307.09,309.2v2.38H304.7v7h-2.39v-7h-2.4V309.2h7.18Z"/><path d="M313,309.2h2.38v9.35H313v-3.49h-2.67v3.49H307.9V309.2h2.38v3.48H313Z"/><path d="M322.63,316.53v2h-6.36V309.2h6.24v2h-3.85v1.64h3.24v2h-3.24v1.64Z"/><path d="M34.78,332.17h3.67v2.25H32.4v-9.35h2.38Z"/><path d="M44.12,325.16l3.06,9.26h-2.3l-.61-1.89h-2.9l-.59,1.89H38.46l3.07-9.26ZM42,330.6h1.66L42.83,328Z"/><path d="M55,334.42H52.56l-1.48-3.53H49.56v3.53H47.32v-9.35h4.46a2.84,2.84,0,0,1,1.45.39,2.94,2.94,0,0,1,1.07,1.06,2.88,2.88,0,0,1,.39,1.46,2.77,2.77,0,0,1-.36,1.39,3,3,0,0,1-1,1.05Zm-2.63-7.12a.85.85,0,0,0-.62-.31H49.5v2h2.2a.94.94,0,0,0,.62-.32,1,1,0,0,0,.25-.68A1,1,0,0,0,52.32,327.3Z"/><path d="M64.82,329.79a4.65,4.65,0,0,1-.64,2.37,4.81,4.81,0,0,1-1.72,1.72,4.68,4.68,0,0,1-2.38.63,4.61,4.61,0,0,1-2.36-.63A4.73,4.73,0,0,1,56,332.16a4.71,4.71,0,0,1,0-4.74,4.71,4.71,0,0,1,7.44-1l-2.13,1.21a2.46,2.46,0,0,0-1.23-.33,2.41,2.41,0,0,0-1.21.33,2.56,2.56,0,0,0-.89.9A2.42,2.42,0,0,0,58,331a2.5,2.5,0,0,0,.89.88,2.32,2.32,0,0,0,1.21.33,2.41,2.41,0,0,0,1.29-.36,2.52,2.52,0,0,0,.89-1H59.33v-2.2h5.35A5.1,5.1,0,0,1,64.82,329.79Z"/><path d="M71.85,332.4v2H65.49v-9.35h6.24v2H67.88v1.64h3.24v2H67.88v1.64Z"/><path d="M77.06,328v-.17a.82.82,0,0,0-.32-.65,1.21,1.21,0,0,0-.79-.28,1.24,1.24,0,0,0-.81.28.79.79,0,0,0-.34.65.6.6,0,0,0,.34.57,2.94,2.94,0,0,0,.9.37l.21,0,.23.05a4.64,4.64,0,0,1,1.89.78l.12.11a3,3,0,0,1,.63.91,2.66,2.66,0,0,1,.23,1.06,2.63,2.63,0,0,1-.26,1.13,2.79,2.79,0,0,1-.75,1,3.56,3.56,0,0,1-1.11.63,4,4,0,0,1-1.29.22,4,4,0,0,1-1.29-.22,3.8,3.8,0,0,1-1.11-.63,2.92,2.92,0,0,1-.75-1,2.51,2.51,0,0,1-.27-1.13v-.17h2.32v.17a.84.84,0,0,0,.32.65,1.19,1.19,0,0,0,.78.27,1.28,1.28,0,0,0,.81-.27.83.83,0,0,0,.34-.65.74.74,0,0,0-.36-.58,1.46,1.46,0,0,0-.37-.2,3.25,3.25,0,0,0-.52-.16l-.43-.11a11,11,0,0,1-1.14-.33,2.09,2.09,0,0,1-.75-.45l-.06-.05a2.82,2.82,0,0,1-.69-.93,2.5,2.5,0,0,1,0-2.22,3,3,0,0,1,.75-1,3.59,3.59,0,0,1,1.11-.63,3.72,3.72,0,0,1,1.29-.22,3.76,3.76,0,0,1,1.29.22,3.37,3.37,0,0,1,1.11.63,2.85,2.85,0,0,1,.75,1,2.64,2.64,0,0,1,.26,1.14V328Z"/><path d="M87.07,325.07v2.38H84.68v7h-2.4v-7H79.89v-2.38h7.18Z"/><path d="M97.64,325.46a2.91,2.91,0,0,1,1.06,1.06,2.93,2.93,0,0,1,0,2.92,2.91,2.91,0,0,1-1.06,1.06,2.85,2.85,0,0,1-1.46.39H94v3.53H91.72v-9.35h4.46A2.85,2.85,0,0,1,97.64,325.46Zm-.91,1.84a.87.87,0,0,0-.63-.31H93.9v2h2.2a.92.92,0,0,0,.63-.32A1,1,0,0,0,97,328,1,1,0,0,0,96.73,327.3Z"/><path d="M106.6,325.71a4.73,4.73,0,0,1,1.72,1.72,4.67,4.67,0,0,1,.63,2.37,4.62,4.62,0,0,1-.63,2.37,4.81,4.81,0,0,1-1.72,1.72,4.77,4.77,0,0,1-4.74,0,4.76,4.76,0,0,1-1.73-1.72,4.62,4.62,0,0,1-.63-2.37,4.68,4.68,0,0,1,2.36-4.09,4.71,4.71,0,0,1,4.74,0Zm-1.15,6.2a2.5,2.5,0,0,0,.88-.89,2.35,2.35,0,0,0,.33-1.22,2.38,2.38,0,0,0-.33-1.22,2.5,2.5,0,0,0-.88-.89,2.42,2.42,0,0,0-2.44,0,2.45,2.45,0,0,0-.89.89,2.38,2.38,0,0,0-.33,1.22,2.35,2.35,0,0,0,.33,1.22,2.45,2.45,0,0,0,.89.89,2.42,2.42,0,0,0,2.44,0Z"/><path d="M113.9,328v-.17a.81.81,0,0,0-.33-.65,1.18,1.18,0,0,0-.78-.28,1.29,1.29,0,0,0-.82.28.82.82,0,0,0-.34.65.6.6,0,0,0,.35.57,2.94,2.94,0,0,0,.9.37l.2,0,.23.05a4.63,4.63,0,0,1,1.9.78l.11.11a2.65,2.65,0,0,1,.63.91,2.5,2.5,0,0,1,.23,1.06,2.62,2.62,0,0,1-.25,1.13,3.05,3.05,0,0,1-.75,1,3.8,3.8,0,0,1-1.11.63,4.08,4.08,0,0,1-1.3.22,4,4,0,0,1-1.29-.22,3.75,3.75,0,0,1-1.1-.63,2.79,2.79,0,0,1-.75-1,2.51,2.51,0,0,1-.27-1.13v-.17h2.31v.17a.82.82,0,0,0,.33.65,1.15,1.15,0,0,0,.77.27,1.24,1.24,0,0,0,.81-.27.8.8,0,0,0,.34-.65.75.75,0,0,0-.35-.58,1.46,1.46,0,0,0-.37-.2,4.06,4.06,0,0,0-.52-.16l-.44-.11a11.45,11.45,0,0,1-1.13-.33,2,2,0,0,1-.76-.45l0-.05a2.82,2.82,0,0,1-.69-.93,2.38,2.38,0,0,1-.25-1.08,2.52,2.52,0,0,1,.27-1.14,2.85,2.85,0,0,1,.75-1,3.54,3.54,0,0,1,1.1-.63,3.72,3.72,0,0,1,1.29-.22,3.82,3.82,0,0,1,1.3.22,3.59,3.59,0,0,1,1.11.63,3.13,3.13,0,0,1,.75,1,2.63,2.63,0,0,1,.25,1.14V328Z"/><path d="M121.13,328v-.17a.81.81,0,0,0-.33-.65,1.16,1.16,0,0,0-.78-.28,1.24,1.24,0,0,0-.81.28.79.79,0,0,0-.34.65.6.6,0,0,0,.34.57,2.94,2.94,0,0,0,.9.37l.21,0,.23.05a4.64,4.64,0,0,1,1.89.78l.12.11a2.77,2.77,0,0,1,.62.91,2.52,2.52,0,0,1,.24,1.06,2.63,2.63,0,0,1-.26,1.13,2.79,2.79,0,0,1-.75,1,3.8,3.8,0,0,1-1.11.63,4,4,0,0,1-1.3.22,3.91,3.91,0,0,1-1.28-.22,3.8,3.8,0,0,1-1.11-.63,2.92,2.92,0,0,1-.75-1,2.51,2.51,0,0,1-.27-1.13v-.17h2.32v.17a.81.81,0,0,0,.32.65,1.19,1.19,0,0,0,.77.27,1.28,1.28,0,0,0,.82-.27.83.83,0,0,0,.34-.65.74.74,0,0,0-.36-.58,1.46,1.46,0,0,0-.37-.2,3.25,3.25,0,0,0-.52-.16l-.43-.11a11,11,0,0,1-1.14-.33,2.13,2.13,0,0,1-.76-.45l0-.05a2.82,2.82,0,0,1-.69-.93,2.38,2.38,0,0,1-.25-1.08,2.52,2.52,0,0,1,.27-1.14,3,3,0,0,1,.75-1,3.59,3.59,0,0,1,1.11-.63,3.67,3.67,0,0,1,1.28-.22,3.78,3.78,0,0,1,1.3.22,3.59,3.59,0,0,1,1.11.63,2.85,2.85,0,0,1,.75,1,2.64,2.64,0,0,1,.26,1.14V328Z"/><path d="M126.47,325.07v9.35h-2.38v-9.35Z"/><path d="M134.46,330.47a2.65,2.65,0,0,1,.3,1.25,2.7,2.7,0,0,1-1.33,2.32,2.74,2.74,0,0,1-1.35.38h-4.67v-9.35h4.24a2.56,2.56,0,0,1,1.37.37,2.63,2.63,0,0,1,.95,1,2.51,2.51,0,0,1,.35,1.32,2.69,2.69,0,0,1-.18,1,2.65,2.65,0,0,1-.52.83A2.62,2.62,0,0,1,134.46,330.47ZM132,327.26a.94.94,0,0,0-.68-.29h-1.72v2h1.72l.32-.06a.72.72,0,0,0,.24-.13.92.92,0,0,0,.3-.35,1.07,1.07,0,0,0,.1-.47A.94.94,0,0,0,132,327.26Zm.4,4.94a.93.93,0,0,0,.27-.7,1,1,0,0,0-.23-.63,1,1,0,0,0-.56-.34h-2.28v2h2.12A1,1,0,0,0,132.39,332.2Z"/><path d="M137.81,332.17h3.68v2.25h-6.06v-9.35h2.38Z"/><path d="M148.66,332.4v2H142.3v-9.35h6.24v2h-3.85v1.64h3.24v2h-3.24v1.64Z"/><path d="M158.31,325.16l3.05,9.26h-2.3l-.61-1.89h-2.89l-.6,1.89h-2.31l3.07-9.26Zm-2.13,5.44h1.67L157,328Z"/><path d="M169.11,325.08v5.78a3.64,3.64,0,0,1-1.84,3.19,3.65,3.65,0,0,1-1.86.5h-.21a3.67,3.67,0,0,1-3.69-3.69v-5.78h2.21v5.25a2.26,2.26,0,0,0,.39,1.36,1.27,1.27,0,0,0,1.09.55h.21a1.32,1.32,0,0,0,1.08-.55,2.24,2.24,0,0,0,.41-1.36v-5.25Z"/><path d="M174.15,325a5.89,5.89,0,0,1,1.41.33,4.23,4.23,0,0,1,1.29.81,4.82,4.82,0,0,1,1.54,3.53,4.62,4.62,0,0,1-.51,2.16,4.27,4.27,0,0,1-1.45,1.65,5.11,5.11,0,0,1-1.9.75,15,15,0,0,1-2.36.17h-2.12V325h2.39A16.65,16.65,0,0,1,174.15,325Zm2,4.67a2.45,2.45,0,0,0-.32-1.2,2.56,2.56,0,0,0-.86-.9,2.34,2.34,0,0,0-1.2-.36h-1.3v4.88a10.94,10.94,0,0,0,1.64-.11,2.92,2.92,0,0,0,1.23-.52,2.13,2.13,0,0,0,.74-1.23A2.38,2.38,0,0,0,176.12,329.71Z"/><path d="M181.45,325.07v9.35h-2.38v-9.35Z"/><path d="M188.75,332.4v2h-6.36v-9.35h6.24v2h-3.85v1.64H188v2h-3.24v1.64Z"/><path d="M194.83,325.07h2.38v9.35h-2.38l-2.75-5v5h-2.4v-9.35h2.4l2.75,5Z"/><path d="M203.54,332a2.52,2.52,0,0,0,.79-.52l1.62,1.61a4.73,4.73,0,0,1-1.52,1,4.73,4.73,0,0,1-6.55-4.35,4.59,4.59,0,0,1,.64-2.38,4.65,4.65,0,0,1,1.72-1.72,4.52,4.52,0,0,1,2.36-.64,4.75,4.75,0,0,1,3.35,1.39L204.33,328a2.71,2.71,0,0,0-.79-.52,2.5,2.5,0,0,0-.94-.19,2.32,2.32,0,0,0-1.21.33,2.53,2.53,0,0,0-.89.89,2.41,2.41,0,0,0-.33,1.23,2.32,2.32,0,0,0,.33,1.21,2.53,2.53,0,0,0,.89.89,2.4,2.4,0,0,0,2.15.14Z"/><path d="M213,332.4v2h-6.36v-9.35h6.24v2H209v1.64h3.24v2H209v1.64Z"/><path d="M222.63,325.16l3.06,9.26h-2.3l-.61-1.89h-2.9l-.59,1.89H217l3.07-9.26Zm-2.13,5.44h1.67l-.83-2.62Z"/><path d="M231,325.07h2.38v9.35H231l-2.75-5v5h-2.4v-9.35h2.4l2.75,5Z"/><path d="M238.39,325a5.78,5.78,0,0,1,1.41.33,4.23,4.23,0,0,1,1.29.81,4.75,4.75,0,0,1,1.15,1.61,4.93,4.93,0,0,1,.4,1.92,4.51,4.51,0,0,1-.52,2.16,4.27,4.27,0,0,1-1.45,1.65,5,5,0,0,1-1.9.75,14.92,14.92,0,0,1-2.36.17h-2.12V325h2.4A16.3,16.3,0,0,1,238.39,325Zm2,4.67a2.44,2.44,0,0,0-.31-1.2,2.58,2.58,0,0,0-.87-.9,2.28,2.28,0,0,0-1.2-.36h-1.29v4.88a10.8,10.8,0,0,0,1.63-.11,2.82,2.82,0,0,0,1.23-.52,2.09,2.09,0,0,0,.75-1.23A3,3,0,0,0,240.36,329.71Z"/><path d="M252,325.16l3.05,9.26h-2.3l-.61-1.89h-2.89l-.6,1.89h-2.31l3.06-9.26Zm-2.13,5.44h1.66l-.83-2.62Z"/><path d="M262.27,325.07v2.38h-2.39v7h-2.39v-7h-2.4v-2.38h7.18Z"/><path d="M270.13,325.07v2.38h-2.4v7h-2.39v-7H263v-2.38h7.18Z"/><path d="M278.56,334.42h-2.39l-1.48-3.53h-1.52v3.53h-2.24v-9.35h4.46a2.84,2.84,0,0,1,1.45.39,2.94,2.94,0,0,1,1.07,1.06,2.88,2.88,0,0,1,.39,1.46,2.77,2.77,0,0,1-.36,1.39,3,3,0,0,1-1,1.05Zm-2.63-7.12a.85.85,0,0,0-.62-.31h-2.19v2h2.19a.94.94,0,0,0,.62-.32,1,1,0,0,0,.25-.68A1,1,0,0,0,275.93,327.3Z"/><path d="M284.1,325.16l3.06,9.26h-2.3l-.61-1.89h-2.9l-.59,1.89h-2.32l3.07-9.26ZM282,330.6h1.67l-.83-2.62Z"/><path d="M292.7,332a2.64,2.64,0,0,0,.79-.52l1.61,1.61a4.62,4.62,0,0,1-1.52,1,4.69,4.69,0,0,1-4.19-.27,4.73,4.73,0,0,1-1.72-1.72,4.61,4.61,0,0,1-.63-2.36,4.68,4.68,0,0,1,.63-2.38,4.81,4.81,0,0,1,1.72-1.72,4.53,4.53,0,0,1,2.37-.64,4.75,4.75,0,0,1,3.34,1.39L293.49,328a2.85,2.85,0,0,0-.79-.52,2.54,2.54,0,0,0-.94-.19,2.35,2.35,0,0,0-1.22.33,2.5,2.5,0,0,0-.88.89,2.41,2.41,0,0,0-.33,1.23,2.32,2.32,0,0,0,.33,1.21,2.5,2.5,0,0,0,.88.89,2.42,2.42,0,0,0,2.16.14Z"/><path d="M302.83,325.07v2.38h-2.4v7H298v-7h-2.39v-2.38h7.18Z"/><path d="M314.53,325.07v2.38h-2.4v7h-2.39v-7h-2.39v-2.38h7.18Z"/><path d="M320.38,325.07h2.38v9.35h-2.38v-3.49h-2.67v3.49h-2.38v-9.35h2.38v3.48h2.67Z"/><path d="M330.06,332.4v2H323.7v-9.35h6.24v2H326.1v1.64h3.24v2H326.1v1.64Z"/><path d="M37.26,341l3.06,9.26H38l-.6-1.9h-2.9l-.59,1.9H31.6L34.67,341Zm-2.13,5.43H36.8L36,343.85Z"/><path d="M47.51,340.94v2.38H45.12v7h-2.4v-7H40.33v-2.38h7.18Z"/><path d="M55.36,340.94v2.38H53v7H50.58v-7h-2.4v-2.38h7.18Z"/><path d="M62.53,348.26v2H56.17v-9.35h6.24v2H58.56v1.64H61.8v2H58.56v1.64Z"/><path d="M68.61,340.94H71v9.35H68.61l-2.75-5v5H63.47v-9.35h2.39l2.75,5Z"/><path d="M79,340.94v2.38h-2.4v7H74.19v-7H71.8v-2.38H79Z"/><path d="M82.16,340.94v9.35H79.78v-9.35Z"/><path d="M89.94,341.57a4.76,4.76,0,0,1,1.72,1.73,4.77,4.77,0,0,1,0,4.74,4.89,4.89,0,0,1-1.72,1.72,4.62,4.62,0,0,1-2.37.63,4.67,4.67,0,0,1-2.37-.63A4.83,4.83,0,0,1,83.47,348a4.77,4.77,0,0,1,0-4.74,4.71,4.71,0,0,1,4.1-2.36A4.62,4.62,0,0,1,89.94,341.57Zm-1.15,6.2a2.47,2.47,0,0,0,.88-.88,2.42,2.42,0,0,0,0-2.44,2.53,2.53,0,0,0-.88-.9,2.42,2.42,0,0,0-2.44,0,2.48,2.48,0,0,0-.89.9,2.42,2.42,0,0,0,0,2.44,2.42,2.42,0,0,0,.89.88,2.42,2.42,0,0,0,2.44,0Z"/><path d="M98.11,340.94h2.38v9.35H98.11l-2.75-5v5H93v-9.35h2.39l2.75,5Z"/><path d="M112.11,341.57a4.76,4.76,0,0,1,1.72,6.47,4.81,4.81,0,0,1-1.72,1.72,4.62,4.62,0,0,1-2.37.63,4.67,4.67,0,0,1-2.37-.63,4.73,4.73,0,0,1-1.72-1.72,4.71,4.71,0,0,1,0-4.74,4.61,4.61,0,0,1,1.72-1.73,4.67,4.67,0,0,1,2.37-.63A4.62,4.62,0,0,1,112.11,341.57Zm-1.15,6.2a2.5,2.5,0,0,0,.89-.88,2.42,2.42,0,0,0,0-2.44,2.56,2.56,0,0,0-.89-.9,2.35,2.35,0,0,0-1.22-.33,2.38,2.38,0,0,0-1.22.33,2.56,2.56,0,0,0-.89.9,2.42,2.42,0,0,0,0,2.44,2.5,2.5,0,0,0,.89.88,2.38,2.38,0,0,0,1.22.33A2.35,2.35,0,0,0,111,347.77Z"/><path d="M121.64,343h-4.12v1.64h3.3v2h-3.3v3.67h-2.38v-9.35h6.5Z"/><path d="M131.31,340.94h2.38v9.35h-2.38l-2.75-5v5h-2.39v-9.35h2.39l2.75,5Z"/><path d="M141,348.26v2h-6.36v-9.35h6.24v2H137v1.64h3.24v2H137v1.64Z"/><path d="M149.45,340.94h2.06v9.35h-2.38l-2.4-4-2.42,4h-2.38v-9.35h2.38v5.27l1.16-2.11.07-.11h2.38l.05.11,1.16,2.11v-5.27Z"/><path d="M163.9,341v5.78a3.5,3.5,0,0,1-.5,1.85,3.7,3.7,0,0,1-3.2,1.84H160a3.59,3.59,0,0,1-1.85-.5,3.69,3.69,0,0,1-1.35-1.34,3.58,3.58,0,0,1-.49-1.85V341h2.21v5.25a2.26,2.26,0,0,0,.39,1.36,1.29,1.29,0,0,0,1.09.54h.21a1.29,1.29,0,0,0,1.08-.55,2.19,2.19,0,0,0,.41-1.35V341Z"/><path d="M169.11,343.9v-.17a.84.84,0,0,0-.32-.66,1.2,1.2,0,0,0-.79-.27,1.24,1.24,0,0,0-.81.27.81.81,0,0,0-.34.66.59.59,0,0,0,.34.56,2.71,2.71,0,0,0,.9.38,1,1,0,0,1,.21,0l.23.05a4.64,4.64,0,0,1,1.89.78l.12.1a3,3,0,0,1,.63.92,2.57,2.57,0,0,1,0,2.19,3,3,0,0,1-.75,1,3.35,3.35,0,0,1-1.11.62,3.89,3.89,0,0,1-2.58,0,3.56,3.56,0,0,1-1.11-.62,3.29,3.29,0,0,1-.75-1,2.51,2.51,0,0,1-.26-1.14v-.17h2.31v.17a.84.84,0,0,0,.32.66,1.19,1.19,0,0,0,.78.27,1.28,1.28,0,0,0,.81-.27.83.83,0,0,0,.34-.66.77.77,0,0,0-.36-.58,1.86,1.86,0,0,0-.37-.2l-.52-.16-.43-.1a11,11,0,0,1-1.14-.33,2.42,2.42,0,0,1-.75-.45l-.06-.05a3,3,0,0,1-.69-.93,2.59,2.59,0,0,1,0-2.22,3.29,3.29,0,0,1,.75-1,3.56,3.56,0,0,1,1.11-.62,3.89,3.89,0,0,1,2.58,0,3.35,3.35,0,0,1,1.11.62,3,3,0,0,1,.75,1,2.64,2.64,0,0,1,.26,1.14v.17Z"/><path d="M178.43,348.26v2h-6.36v-9.35h6.24v2h-3.85v1.64h3.24v2h-3.24v1.64Z"/><path d="M187,350.29h-2.39l-1.48-3.54h-1.52v3.54h-2.24v-9.35h4.46a2.9,2.9,0,0,1,2.51,1.45,2.86,2.86,0,0,1,0,2.85,3,3,0,0,1-1,1.05Zm-2.63-7.12a.92.92,0,0,0-.62-.32h-2.2v2h2.2a1,1,0,0,0,.87-1A.94.94,0,0,0,184.37,343.17Z"/><path d="M191.94,343.9v-.17a.81.81,0,0,0-.32-.66,1.2,1.2,0,0,0-.79-.27,1.28,1.28,0,0,0-.81.27.83.83,0,0,0-.34.66.6.6,0,0,0,.35.56,2.71,2.71,0,0,0,.9.38.79.79,0,0,1,.2,0l.23.05a4.51,4.51,0,0,1,1.89.78l.12.1a2.69,2.69,0,0,1,.63.92,2.65,2.65,0,0,1,.23,1.05,2.51,2.51,0,0,1-.26,1.14,3.1,3.1,0,0,1-.74,1,3.56,3.56,0,0,1-1.11.62,3.82,3.82,0,0,1-1.3.22,3.72,3.72,0,0,1-1.29-.22,3.4,3.4,0,0,1-1.1-.62,3.17,3.17,0,0,1-.76-1,2.64,2.64,0,0,1-.26-1.14v-.17h2.31v.17a.82.82,0,0,0,.33.66,1.15,1.15,0,0,0,.77.27,1.24,1.24,0,0,0,.81-.27.81.81,0,0,0,.34-.66.77.77,0,0,0-.36-.58,1.61,1.61,0,0,0-.37-.2l-.51-.16-.44-.1q-.72-.18-1.14-.33a2.42,2.42,0,0,1-.75-.45l-.05-.05a3.25,3.25,0,0,1-.7-.93,2.51,2.51,0,0,1-.24-1.08,2.64,2.64,0,0,1,.26-1.14,3.17,3.17,0,0,1,.76-1,3.4,3.4,0,0,1,1.1-.62,3.72,3.72,0,0,1,1.29-.22,3.82,3.82,0,0,1,1.3.22,3.56,3.56,0,0,1,1.11.62,3.1,3.1,0,0,1,.74,1,2.51,2.51,0,0,1,.26,1.14v.17Z"/><path d="M205.8,340.94v2.38h-2.39v7H201v-7h-2.39v-2.38h7.18Z"/><path d="M213.44,341.57a4.61,4.61,0,0,1,1.72,1.73,4.71,4.71,0,0,1,0,4.74,4.73,4.73,0,0,1-1.72,1.72,4.61,4.61,0,0,1-2.36.63,4.68,4.68,0,0,1-2.38-.63A4.81,4.81,0,0,1,207,348a4.71,4.71,0,0,1,0-4.74,4.68,4.68,0,0,1,4.1-2.36A4.61,4.61,0,0,1,213.44,341.57Zm-1.15,6.2a2.5,2.5,0,0,0,.89-.88,2.42,2.42,0,0,0,0-2.44,2.56,2.56,0,0,0-.89-.9,2.32,2.32,0,0,0-1.21-.33,2.41,2.41,0,0,0-1.23.33,2.56,2.56,0,0,0-.89.9,2.42,2.42,0,0,0,0,2.44,2.5,2.5,0,0,0,.89.88,2.41,2.41,0,0,0,1.23.33A2.32,2.32,0,0,0,212.29,347.77Z"/><path d="M225.29,340.94h2.38l-2.75,5.54v3.81h-2.38v-3.81l-2.75-5.54h2.38l1.56,3.18Z"/><path d="M234.92,341.57a4.65,4.65,0,0,1,1.71,1.73,4.71,4.71,0,0,1,0,4.74,4.78,4.78,0,0,1-1.71,1.72,4.67,4.67,0,0,1-2.37.63,4.62,4.62,0,0,1-2.37-.63,4.76,4.76,0,0,1-1.73-1.72,4.74,4.74,0,0,1,6.47-6.47Zm-1.15,6.2a2.47,2.47,0,0,0,.88-.88,2.42,2.42,0,0,0,0-2.44,2.53,2.53,0,0,0-.88-.9,2.42,2.42,0,0,0-2.44,0,2.5,2.5,0,0,0-.9.9,2.42,2.42,0,0,0,0,2.44,2.45,2.45,0,0,0,.9.88,2.42,2.42,0,0,0,2.44,0Z"/><path d="M245.55,341v5.78a3.59,3.59,0,0,1-.5,1.85,3.69,3.69,0,0,1-1.35,1.34,3.65,3.65,0,0,1-1.86.5h-.21a3.59,3.59,0,0,1-1.85-.5,3.74,3.74,0,0,1-1.34-1.34,3.59,3.59,0,0,1-.5-1.85V341h2.21v5.25a2.19,2.19,0,0,0,.4,1.36,1.26,1.26,0,0,0,1.08.54h.21a1.29,1.29,0,0,0,1.08-.55,2.13,2.13,0,0,0,.42-1.35V341Z"/><path d="M254.11,350.29h-2.39l-1.48-3.54h-1.52v3.54h-2.24v-9.35h4.46a2.88,2.88,0,0,1,1.46.39,2.91,2.91,0,0,1,1.06,1.06,2.88,2.88,0,0,1,.39,1.46,2.8,2.8,0,0,1-.36,1.39,3,3,0,0,1-1,1.05Zm-2.63-7.12a.88.88,0,0,0-.62-.32h-2.19v2h2.19a.93.93,0,0,0,.62-.33,1,1,0,0,0,.25-.68A.94.94,0,0,0,251.48,343.17Z"/><path d="M264.55,341.33a2.87,2.87,0,0,1,1.45,2.52,2.85,2.85,0,0,1-.39,1.46,2.89,2.89,0,0,1-1.06,1.05,2.73,2.73,0,0,1-1.46.39h-2.22v3.54h-2.23v-9.35h4.45A2.83,2.83,0,0,1,264.55,341.33Zm-.91,1.84a.92.92,0,0,0-.63-.32h-2.19v2H263a.89.89,0,0,0,.63-.33,1,1,0,0,0,.26-.68A1,1,0,0,0,263.64,343.17Z"/><path d="M274.3,350.29h-2.39l-1.48-3.54h-1.52v3.54h-2.24v-9.35h4.46a2.94,2.94,0,0,1,2.52,1.45,2.88,2.88,0,0,1,.39,1.46,2.8,2.8,0,0,1-.36,1.39,3,3,0,0,1-1,1.05Zm-2.63-7.12a.9.9,0,0,0-.62-.32h-2.19v2h2.19a1,1,0,0,0,.62-.33,1,1,0,0,0,.25-.68A.94.94,0,0,0,271.67,343.17Z"/><path d="M281.81,341.57a4.61,4.61,0,0,1,1.72,1.73,4.71,4.71,0,0,1,0,4.74,4.73,4.73,0,0,1-1.72,1.72,4.61,4.61,0,0,1-2.36.63,4.68,4.68,0,0,1-2.38-.63,4.81,4.81,0,0,1-1.72-1.72,4.71,4.71,0,0,1,0-4.74,4.68,4.68,0,0,1,4.1-2.36A4.61,4.61,0,0,1,281.81,341.57Zm-1.15,6.2a2.5,2.5,0,0,0,.89-.88,2.42,2.42,0,0,0,0-2.44,2.56,2.56,0,0,0-.89-.9,2.32,2.32,0,0,0-1.21-.33,2.41,2.41,0,0,0-1.23.33,2.56,2.56,0,0,0-.89.9,2.42,2.42,0,0,0,0,2.44,2.5,2.5,0,0,0,.89.88,2.41,2.41,0,0,0,1.23.33A2.32,2.32,0,0,0,280.66,347.77Z"/><path d="M289.75,340.91H292v5.78a3.59,3.59,0,0,1-.5,1.85,3.74,3.74,0,0,1-1.34,1.34,3.67,3.67,0,0,1-3.7,0,3.69,3.69,0,0,1-1.35-1.34,3.58,3.58,0,0,1-.49-1.85v-.39h2.21a2,2,0,0,0,.42,1.27,1.34,1.34,0,0,0,2.12-.06,2.13,2.13,0,0,0,.42-1.35Z"/><path d="M299.25,348.26v2h-6.36v-9.35h6.24v2h-3.84v1.64h3.24v2h-3.24v1.64Z"/><path d="M305.59,347.88a2.47,2.47,0,0,0,.79-.52L308,349a4.73,4.73,0,0,1-1.52,1,4.78,4.78,0,0,1-4.19-.27,4.81,4.81,0,0,1-1.72-1.72,4.62,4.62,0,0,1-.63-2.37,4.67,4.67,0,0,1,.63-2.37,4.83,4.83,0,0,1,1.72-1.73,4.78,4.78,0,0,1,4.19-.27,4.92,4.92,0,0,1,1.52,1l-1.61,1.61a2.64,2.64,0,0,0-.79-.52,2.42,2.42,0,0,0-2.16.14,2.61,2.61,0,0,0-.89.89,2.48,2.48,0,0,0-.33,1.22,2.45,2.45,0,0,0,.33,1.22,2.61,2.61,0,0,0,.89.89,2.37,2.37,0,0,0,2.16.13Z"/><path d="M315.71,340.94v2.38h-2.39v7h-2.39v-7h-2.39v-2.38h7.17Z"/><path d="M316.61,349.9a1.31,1.31,0,0,1-.35-.91,1.16,1.16,0,0,1,.36-.86,1.19,1.19,0,0,1,.87-.36,1.22,1.22,0,0,1,.88.37,1.2,1.2,0,0,1,.37.89,1.26,1.26,0,0,1-1.25,1.26A1.15,1.15,0,0,1,316.61,349.9Z"/><path d="M330.79,340.94h2.06v9.35h-2.38l-2.41-4-2.42,4h-2.38v-9.35h2.38v5.27l1.17-2.11.06-.11h2.38l.06.11,1.16,2.11v-5.27Z"/><path d="M340.15,348.26v2h-6.36v-9.35H340v2h-3.85v1.64h3.24v2h-3.24v1.64Z"/><path d="M352.54,341v5.78a3.59,3.59,0,0,1-.5,1.85,3.69,3.69,0,0,1-1.35,1.34,3.65,3.65,0,0,1-1.86.5h-.21a3.62,3.62,0,0,1-1.85-.5,3.74,3.74,0,0,1-1.34-1.34,3.59,3.59,0,0,1-.5-1.85V341h2.21v5.25a2.19,2.19,0,0,0,.4,1.36,1.27,1.27,0,0,0,1.08.54h.21a1.28,1.28,0,0,0,1.08-.55,2.13,2.13,0,0,0,.42-1.35V341Z"/><path d="M357.75,343.9v-.17a.82.82,0,0,0-.33-.66,1.16,1.16,0,0,0-.78-.27,1.28,1.28,0,0,0-.82.27.82.82,0,0,0-.33.66.59.59,0,0,0,.34.56,2.71,2.71,0,0,0,.9.38.79.79,0,0,1,.2,0l.24.05a4.64,4.64,0,0,1,1.89.78l.11.1a2.69,2.69,0,0,1,.63.92,2.49,2.49,0,0,1,.23,1.05,2.63,2.63,0,0,1-.25,1.14,3.13,3.13,0,0,1-.75,1,3.56,3.56,0,0,1-1.11.62,3.82,3.82,0,0,1-1.3.22,3.72,3.72,0,0,1-1.29-.22,3.51,3.51,0,0,1-1.1-.62,3,3,0,0,1-.75-1,2.52,2.52,0,0,1-.27-1.14v-.17h2.32v.17a.81.81,0,0,0,.32.66,1.17,1.17,0,0,0,.77.27,1.28,1.28,0,0,0,.82-.27.82.82,0,0,0,.33-.66.78.78,0,0,0-.35-.58,1.86,1.86,0,0,0-.37-.2l-.52-.16-.44-.1a11.45,11.45,0,0,1-1.13-.33,2.35,2.35,0,0,1-.76-.45l-.05-.05a3,3,0,0,1-.69-.93,2.38,2.38,0,0,1-.25-1.08,2.52,2.52,0,0,1,.27-1.14,3,3,0,0,1,.75-1,3.51,3.51,0,0,1,1.1-.62,3.72,3.72,0,0,1,1.29-.22,3.82,3.82,0,0,1,1.3.22,3.56,3.56,0,0,1,1.11.62,3.13,3.13,0,0,1,.75,1,2.63,2.63,0,0,1,.25,1.14v.17Z"/><path d="M367.07,348.26v2h-6.36v-9.35H367v2H363.1v1.64h3.24v2H363.1v1.64Z"/><path d="M38.75,364.13v2H32.4V356.8h6.24v2H34.79v1.64H38v2H34.79v1.64Z"/><path d="M47.9,366.15H45.14l-1.48-2.43-1.47,2.43H39.43l2.86-4.72-2.81-4.63h2.77l1.41,2.34,1.42-2.34h2.77l-2.8,4.63Z"/><path d="M55.63,356.8v2.38h-2.4v7H50.84v-7H48.45V356.8h7.18Z"/><path d="M62.79,364.13v2H56.43V356.8h6.24v2H58.83v1.64h3.24v2H58.83v1.64Z"/><path d="M71.36,366.15H69l-1.48-3.53H66v3.53H63.73V356.8h4.46a2.84,2.84,0,0,1,1.45.39,2.89,2.89,0,0,1,1.07,1.07,2.9,2.9,0,0,1,0,2.85,3,3,0,0,1-1,1.05ZM68.73,359a.89.89,0,0,0-.62-.31h-2.2v2h2.2a.9.9,0,0,0,.62-.32,1,1,0,0,0,.25-.68A1,1,0,0,0,68.73,359Z"/><path d="M77.18,356.8h2.38v9.35H77.18l-2.75-5v5H72V356.8h2.39l2.75,5Z"/><path d="M85.36,356.9l3.06,9.25h-2.3l-.61-1.89h-2.9L82,366.15H79.7l3.07-9.25Zm-2.13,5.43H84.9l-.83-2.62Z"/><path d="M90.94,363.9h3.68v2.25H88.56V356.8h2.38Z"/><path d="M105.19,357.19a3,3,0,0,1,1.06,1.06,2.93,2.93,0,0,1,0,2.92,2.91,2.91,0,0,1-1.06,1.06,2.85,2.85,0,0,1-1.46.39h-2.22v3.53H99.27V356.8h4.46A2.85,2.85,0,0,1,105.19,357.19Zm-.91,1.84a.91.91,0,0,0-.63-.31h-2.2v2h2.2a.85.85,0,0,0,.63-.32,1,1,0,0,0,.26-.68A1,1,0,0,0,104.28,359Z"/><path d="M109.69,363.9h3.68v2.25h-6.06V356.8h2.38Z"/><path d="M119,356.9l3,9.25h-2.3l-.6-1.89h-2.9l-.6,1.89h-2.31l3.07-9.25Zm-2.13,5.43h1.67l-.84-2.62Z"/><path d="M129.29,356.8v2.38h-2.4v7H124.5v-7h-2.39V356.8h7.18Z"/><path d="M136.6,358.83h-4.13v1.64h3.31v2h-3.31v3.66h-2.38V356.8h6.51Z"/><path d="M144.11,357.44a4.7,4.7,0,0,1,2.35,4.1,4.7,4.7,0,0,1-2.35,4.08,4.53,4.53,0,0,1-2.37.64,4.58,4.58,0,0,1-2.37-.64,4.68,4.68,0,0,1-1.73-1.72,4.61,4.61,0,0,1-.63-2.36,4.68,4.68,0,0,1,.63-2.38,4.76,4.76,0,0,1,1.73-1.72,4.58,4.58,0,0,1,2.37-.64A4.53,4.53,0,0,1,144.11,357.44Zm-1.15,6.2a2.5,2.5,0,0,0,.88-.89,2.23,2.23,0,0,0,.33-1.21,2.32,2.32,0,0,0-.33-1.23,2.5,2.5,0,0,0-.88-.89,2.42,2.42,0,0,0-2.44,0,2.45,2.45,0,0,0-.89.89,2.41,2.41,0,0,0-.33,1.23,2.32,2.32,0,0,0,.33,1.21,2.45,2.45,0,0,0,.89.89,2.42,2.42,0,0,0,2.44,0Z"/><path d="M154.77,366.15h-2.4l-1.48-3.53h-1.52v3.53h-2.23V356.8h4.45a2.89,2.89,0,0,1,2.52,1.46,2.9,2.9,0,0,1,0,2.85,2.93,2.93,0,0,1-1,1.05ZM152.13,359a.87.87,0,0,0-.62-.31h-2.19v2h2.19a.88.88,0,0,0,.62-.32,1,1,0,0,0,.26-.68A1,1,0,0,0,152.13,359Z"/><path d="M162.65,356.8H165v9.35h-2.38v-5.27L161.48,363l0,.11h-2.38L159,363l-.15-.3-1-1.81v5.27h-2.39V356.8h2.39l2.41,4Z"/><path d="M170.24,359.77v-.18a.82.82,0,0,0-.33-.65,1.17,1.17,0,0,0-.78-.27,1.28,1.28,0,0,0-.82.27.83.83,0,0,0-.34.65.6.6,0,0,0,.35.57,2.71,2.71,0,0,0,.9.37l.2,0,.23.06a4.26,4.26,0,0,1,1.89.78l.12.1a2.75,2.75,0,0,1,.63.91,2.57,2.57,0,0,1,.23,1.06,2.51,2.51,0,0,1-.26,1.14,3,3,0,0,1-.74,1,3.4,3.4,0,0,1-1.11.63,3.82,3.82,0,0,1-1.3.22,3.72,3.72,0,0,1-1.29-.22,3.25,3.25,0,0,1-1.1-.63,3,3,0,0,1-.76-1,2.64,2.64,0,0,1-.26-1.14v-.17H168v.17a.79.79,0,0,0,.33.65,1.11,1.11,0,0,0,.77.28,1.19,1.19,0,0,0,.81-.28.72.72,0,0,0,0-1.23,1.46,1.46,0,0,0-.37-.2c-.15-.05-.32-.11-.52-.16l-.44-.1c-.48-.13-.86-.24-1.13-.33a2.35,2.35,0,0,1-.76-.45l-.05-.06a2.89,2.89,0,0,1-.69-.92,2.45,2.45,0,0,1-.25-1.09,2.63,2.63,0,0,1,.26-1.13,3,3,0,0,1,.76-1,3.63,3.63,0,0,1,1.1-.63,4,4,0,0,1,1.29-.22,4.08,4.08,0,0,1,1.3.22,3.8,3.8,0,0,1,1.11.63,2.89,2.89,0,0,1,.74,1,2.49,2.49,0,0,1,.26,1.13v.18Z"/><path d="M178.45,367a12.08,12.08,0,0,1-1.35-4.35,9.77,9.77,0,0,1-.06-1.13,10.41,10.41,0,0,1,.27-2.41A9.49,9.49,0,0,1,178,357a8.9,8.9,0,0,1,.62-1.16l1.44,1c0,.07-.11.21-.24.44a8.36,8.36,0,0,0-.43.95,9.35,9.35,0,0,0-.4,1.35,9.87,9.87,0,0,0-.2,2,7.36,7.36,0,0,0,.06,1,10.15,10.15,0,0,0,1.15,3.67Z"/><path d="M186.41,363.75a2.64,2.64,0,0,0,.79-.52l1.61,1.61a4.76,4.76,0,0,1-1.52,1,4.78,4.78,0,0,1-4.19-.27,4.81,4.81,0,0,1-1.72-1.72,4.72,4.72,0,0,1,7.43-5.71l-1.61,1.61a2.47,2.47,0,0,0-.79-.52,2.37,2.37,0,0,0-.94-.2,2.27,2.27,0,0,0-1.22.34,2.45,2.45,0,0,0-.89.89,2.42,2.42,0,0,0,0,2.44,2.5,2.5,0,0,0,.89.88,2.42,2.42,0,0,0,2.16.14Z"/><path d="M196.32,357.44a4.74,4.74,0,0,1,2.36,4.1,4.74,4.74,0,0,1-2.36,4.08,4.52,4.52,0,0,1-2.36.64,4.74,4.74,0,0,1-4.1-2.36,4.52,4.52,0,0,1-.64-2.36,4.59,4.59,0,0,1,.64-2.38,4.65,4.65,0,0,1,1.72-1.72,4.59,4.59,0,0,1,2.38-.64A4.52,4.52,0,0,1,196.32,357.44Zm-1.15,6.2a2.53,2.53,0,0,0,.89-.89,2.32,2.32,0,0,0,.33-1.21,2.41,2.41,0,0,0-.33-1.23,2.53,2.53,0,0,0-.89-.89,2.32,2.32,0,0,0-1.21-.33,2.39,2.39,0,0,0-1.23.33,2.53,2.53,0,0,0-.89.89,2.41,2.41,0,0,0-.33,1.23,2.32,2.32,0,0,0,.33,1.21,2.53,2.53,0,0,0,.89.89A2.39,2.39,0,0,0,194,364,2.32,2.32,0,0,0,195.17,363.64Z"/><path d="M206.56,356.8h2.38v9.35h-2.38v-5.27L205.39,363l0,.11H203l-.07-.11-.16-.3-1-1.81v5.27h-2.39V356.8h2.39l2.41,4Z"/><path d="M217.08,356.8h2.38v9.35h-2.38v-5.27L215.92,363l-.06.11h-2.38l-.06-.11-.16-.3-1-1.81v5.27h-2.4V356.8h2.4l2.4,4Z"/><path d="M228,356.82v5.77a3.64,3.64,0,0,1-.49,1.86,3.77,3.77,0,0,1-1.35,1.34,3.64,3.64,0,0,1-1.86.49h-.21a3.58,3.58,0,0,1-1.85-.49,3.77,3.77,0,0,1-1.35-1.34,3.64,3.64,0,0,1-.49-1.86v-5.77h2.21v5.25a2.28,2.28,0,0,0,.39,1.36,1.29,1.29,0,0,0,1.09.54h.21a1.29,1.29,0,0,0,1.08-.55,2.21,2.21,0,0,0,.41-1.35v-5.25Z"/><path d="M234.08,356.8h2.38v9.35h-2.38l-2.75-5v5h-2.39V356.8h2.39l2.75,5Z"/><path d="M239.78,356.8v9.35H237.4V356.8Z"/><path d="M247.77,356.8v2.38h-2.39v7H243v-7h-2.39V356.8h7.18Z"/><path d="M251,356.8v9.35h-2.38V356.8Z"/><path d="M258.25,364.13v2h-6.36V356.8h6.24v2h-3.84v1.64h3.24v2h-3.24v1.64Z"/><path d="M263.46,359.77v-.18a.84.84,0,0,0-.32-.65,1.2,1.2,0,0,0-.79-.27,1.26,1.26,0,0,0-.81.27.8.8,0,0,0-.34.65.6.6,0,0,0,.35.57,2.71,2.71,0,0,0,.9.37l.2,0,.23.06a4.32,4.32,0,0,1,1.89.78l.12.1a2.91,2.91,0,0,1,.63.91,2.74,2.74,0,0,1,.23,1.06,2.64,2.64,0,0,1-.26,1.14,3,3,0,0,1-.74,1,3.34,3.34,0,0,1-1.12.63,3.89,3.89,0,0,1-2.58,0,3.25,3.25,0,0,1-1.1-.63,3,3,0,0,1-.76-1,2.64,2.64,0,0,1-.26-1.14v-.17h2.31v.17a.79.79,0,0,0,.33.65,1.11,1.11,0,0,0,.77.28,1.19,1.19,0,0,0,.81-.28.78.78,0,0,0,.34-.65.76.76,0,0,0-.36-.58,1.31,1.31,0,0,0-.37-.2,5.27,5.27,0,0,0-.51-.16l-.44-.1-1.14-.33a2.42,2.42,0,0,1-.75-.45l-.05-.06a2.92,2.92,0,0,1-.7-.92,2.58,2.58,0,0,1-.24-1.09,2.63,2.63,0,0,1,.26-1.13,3,3,0,0,1,.76-1,3.63,3.63,0,0,1,1.1-.63,3.89,3.89,0,0,1,2.58,0,3.73,3.73,0,0,1,1.12.63,2.89,2.89,0,0,1,.74,1,2.63,2.63,0,0,1,.26,1.13v.18Z"/><path d="M275.14,356.9l3.05,9.25h-2.3l-.61-1.89h-2.89l-.6,1.89h-2.31l3.07-9.25ZM273,362.33h1.66l-.83-2.62Z"/><path d="M283.48,356.8h2.38v9.35h-2.38l-2.75-5v5h-2.39V356.8h2.39l2.75,5Z"/><path d="M290.9,356.77a5.47,5.47,0,0,1,1.41.34,4,4,0,0,1,1.29.8,4.82,4.82,0,0,1,1.54,3.53,4.59,4.59,0,0,1-.51,2.16,4.27,4.27,0,0,1-1.45,1.65,5.11,5.11,0,0,1-1.9.75,13.82,13.82,0,0,1-2.36.18h-1.09l-1,0V356.7h2.39A16.94,16.94,0,0,1,290.9,356.77Zm2,4.67a2.39,2.39,0,0,0-.32-1.19,2.5,2.5,0,0,0-.86-.91,2.24,2.24,0,0,0-1.2-.35h-1.3v4.87a9.76,9.76,0,0,0,1.64-.11,2.8,2.8,0,0,0,1.23-.52,2.07,2.07,0,0,0,.74-1.23A2.32,2.32,0,0,0,292.87,361.44Z"/><path d="M307.29,366.15H304.9l-1.48-3.53H301.9v3.53h-2.24V356.8h4.46a2.82,2.82,0,0,1,1.45.39,2.89,2.89,0,0,1,1.07,1.07,2.9,2.9,0,0,1,0,2.85,3,3,0,0,1-1,1.05ZM304.66,359a.89.89,0,0,0-.62-.31h-2.19v2H304a.9.9,0,0,0,.62-.32,1,1,0,0,0,.25-.68A1,1,0,0,0,304.66,359Z"/><path d="M314.33,364.13v2H308V356.8h6.24v2h-3.85v1.64h3.24v2h-3.24v1.64Z"/><path d="M321.41,356.78H324L321,366.15H318l-3-9.37h2.62l1.89,5.84Z"/><path d="M327.06,356.8v9.35h-2.38V356.8Z"/><path d="M334.36,364.13v2H328V356.8h6.24v2h-3.85v1.64h3.24v2h-3.24v1.64Z"/><path d="M342.82,356.8h2.06v9.35H342.5l-2.4-4-2.42,4H335.3V356.8h2.38v5.28l1.16-2.12.07-.1h2.38l0,.1,1.16,2.12V356.8Z"/><path d="M36.67,375.63v-.17a.81.81,0,0,0-.33-.65,1.18,1.18,0,0,0-.78-.28,1.29,1.29,0,0,0-.82.28.81.81,0,0,0-.33.65.6.6,0,0,0,.34.57,2.94,2.94,0,0,0,.9.37l.2,0,.23.05a4.63,4.63,0,0,1,1.9.78l.11.11a2.65,2.65,0,0,1,.63.91,2.54,2.54,0,0,1,.23,1.06,2.62,2.62,0,0,1-.25,1.13,3.05,3.05,0,0,1-.75,1,3.8,3.8,0,0,1-1.11.63,4.08,4.08,0,0,1-1.3.22,4,4,0,0,1-1.29-.22,3.63,3.63,0,0,1-1.1-.63,2.79,2.79,0,0,1-.75-1,2.51,2.51,0,0,1-.27-1.13v-.17h2.31v.17a.82.82,0,0,0,.33.65,1.15,1.15,0,0,0,.77.27,1.28,1.28,0,0,0,.82-.27.82.82,0,0,0,.33-.65.75.75,0,0,0-.35-.58,1.46,1.46,0,0,0-.37-.2,4.06,4.06,0,0,0-.52-.16L35,378.3a11.45,11.45,0,0,1-1.13-.33,2,2,0,0,1-.76-.45l0,0a2.82,2.82,0,0,1-.69-.93,2.38,2.38,0,0,1-.25-1.08,2.52,2.52,0,0,1,.27-1.14,2.85,2.85,0,0,1,.75-1,3.43,3.43,0,0,1,1.1-.63,3.72,3.72,0,0,1,1.29-.22,3.82,3.82,0,0,1,1.3.22,3.59,3.59,0,0,1,1.11.63,3.13,3.13,0,0,1,.75,1,2.63,2.63,0,0,1,.25,1.14v.17Z"/><path d="M42,372.67V382H39.63v-9.35Z"/><path d="M50,372.67v2.38H47.6v7H45.21v-7h-2.4v-2.38H50Z"/><path d="M57.16,380v2H50.8v-9.35H57v2H53.19v1.64h3.24v2H53.19V380Z"/><path d="M62.37,375.63v-.17a.82.82,0,0,0-.32-.65,1.21,1.21,0,0,0-.79-.28,1.24,1.24,0,0,0-.81.28.79.79,0,0,0-.34.65.6.6,0,0,0,.34.57,2.94,2.94,0,0,0,.9.37l.21,0,.23.05a4.64,4.64,0,0,1,1.89.78l.12.11a3,3,0,0,1,.63.91,2.7,2.7,0,0,1,.23,1.06,2.63,2.63,0,0,1-.26,1.13,2.79,2.79,0,0,1-.75,1,3.56,3.56,0,0,1-1.11.63,3.89,3.89,0,0,1-2.58,0,3.8,3.8,0,0,1-1.11-.63,3.05,3.05,0,0,1-.75-1,2.51,2.51,0,0,1-.27-1.13v-.17h2.32v.17a.84.84,0,0,0,.32.65,1.19,1.19,0,0,0,.78.27,1.28,1.28,0,0,0,.81-.27.83.83,0,0,0,.34-.65.74.74,0,0,0-.36-.58,1.46,1.46,0,0,0-.37-.2,3.25,3.25,0,0,0-.52-.16l-.43-.11a11,11,0,0,1-1.14-.33,2.09,2.09,0,0,1-.75-.45l-.06,0a2.82,2.82,0,0,1-.69-.93,2.5,2.5,0,0,1,0-2.22,3.13,3.13,0,0,1,.75-1,3.59,3.59,0,0,1,1.11-.63,3.89,3.89,0,0,1,2.58,0,3.37,3.37,0,0,1,1.11.63,2.85,2.85,0,0,1,.75,1,2.64,2.64,0,0,1,.26,1.14v.17Z"/><path d="M67,382.85,65.4,382a10.3,10.3,0,0,0,1.15-3.66,9.81,9.81,0,0,0-.15-3A8.56,8.56,0,0,0,66,374a6.91,6.91,0,0,0-.45-1,2.43,2.43,0,0,1-.19-.3l1.44-1a8.07,8.07,0,0,1,.62,1.15,9.26,9.26,0,0,1,.7,2.14,10.38,10.38,0,0,1,.27,2.4c0,.42,0,.8,0,1.14A12.08,12.08,0,0,1,67,382.85Z"/><path d="M80.19,372.67v2.38H77.8v7H75.41v-7H73v-2.38h7.18Z"/><path d="M87.83,373.3A4.68,4.68,0,0,1,89.55,375a4.58,4.58,0,0,1,.64,2.37,4.53,4.53,0,0,1-.64,2.37,4.75,4.75,0,0,1-6.46,1.72,4.73,4.73,0,0,1-1.72-1.72,4.62,4.62,0,0,1-.63-2.37,4.67,4.67,0,0,1,.63-2.37,4.76,4.76,0,0,1,1.72-1.73,4.68,4.68,0,0,1,2.38-.63A4.61,4.61,0,0,1,87.83,373.3Zm-1.15,6.21a2.53,2.53,0,0,0,.89-.89,2.35,2.35,0,0,0,.33-1.22,2.38,2.38,0,0,0-.33-1.22,2.53,2.53,0,0,0-.89-.89,2.32,2.32,0,0,0-1.21-.33,2.35,2.35,0,0,0-1.22.33,2.48,2.48,0,0,0-.9.89A2.38,2.38,0,0,0,83,377.4a2.35,2.35,0,0,0,.33,1.22,2.48,2.48,0,0,0,.9.89,2.35,2.35,0,0,0,1.22.33A2.32,2.32,0,0,0,86.68,379.51Z"/><path d="M100.63,373.06a2.89,2.89,0,0,1,1.05,1.06,2.86,2.86,0,0,1,0,2.92,2.89,2.89,0,0,1-1.05,1.06,2.85,2.85,0,0,1-1.46.39H97V382H94.71v-9.35h4.46A2.85,2.85,0,0,1,100.63,373.06Zm-.92,1.84a.91.91,0,0,0-.62-.31h-2.2v2h2.2a.88.88,0,0,0,.62-.32,1,1,0,0,0,.26-.68A.93.93,0,0,0,99.71,374.9Z"/><path d="M110.35,372.68v5.78a3.7,3.7,0,0,1-3.7,3.69h-.21a3.5,3.5,0,0,1-1.85-.5,3.7,3.7,0,0,1-1.84-3.19v-5.78H105v5.25a2.26,2.26,0,0,0,.39,1.36,1.27,1.27,0,0,0,1.09.55h.21a1.32,1.32,0,0,0,1.08-.55,2.24,2.24,0,0,0,.41-1.36v-5.25Z"/><path d="M118.34,378.07a2.75,2.75,0,0,1,0,2.59,2.71,2.71,0,0,1-1,1A2.74,2.74,0,0,1,116,382h-4.67v-9.36h4.25a2.55,2.55,0,0,1,1.36.37,2.73,2.73,0,0,1,1,1,2.61,2.61,0,0,1,.35,1.32,2.7,2.7,0,0,1-.19,1,2.48,2.48,0,0,1-.52.83A2.53,2.53,0,0,1,118.34,378.07Zm-2.47-3.21a.92.92,0,0,0-.68-.29h-1.72v2h1.72l.32-.06a.72.72,0,0,0,.24-.13.92.92,0,0,0,.3-.35,1,1,0,0,0,.11-.47A.94.94,0,0,0,115.87,374.86Zm.4,4.94a.93.93,0,0,0,.27-.7,1,1,0,0,0-.22-.63.94.94,0,0,0-.57-.34h-2.28v2h2.12A1,1,0,0,0,116.27,379.8Z"/><path d="M121.7,379.77h3.67V382h-6.05v-9.35h2.38Z"/><path d="M128.56,372.67V382h-2.38v-9.35Z"/><path d="M133.77,375.63v-.17a.81.81,0,0,0-.33-.65,1.16,1.16,0,0,0-.78-.28,1.29,1.29,0,0,0-.82.28.81.81,0,0,0-.33.65.6.6,0,0,0,.34.57,2.94,2.94,0,0,0,.9.37l.21,0,.23.05a4.64,4.64,0,0,1,1.89.78l.12.11a3,3,0,0,1,.63.91,2.7,2.7,0,0,1,.23,1.06,2.63,2.63,0,0,1-.26,1.13,2.79,2.79,0,0,1-.75,1,3.8,3.8,0,0,1-1.11.63,4,4,0,0,1-1.3.22,4,4,0,0,1-1.28-.22,3.8,3.8,0,0,1-1.11-.63,2.92,2.92,0,0,1-.75-1,2.51,2.51,0,0,1-.27-1.13v-.17h2.32v.17a.84.84,0,0,0,.32.65,1.17,1.17,0,0,0,.77.27,1.28,1.28,0,0,0,.82-.27.82.82,0,0,0,.33-.65.73.73,0,0,0-.35-.58,1.46,1.46,0,0,0-.37-.2,3.61,3.61,0,0,0-.52-.16l-.43-.11A11,11,0,0,1,131,378a2,2,0,0,1-.75-.45l-.06,0a2.82,2.82,0,0,1-.69-.93,2.38,2.38,0,0,1-.25-1.08,2.52,2.52,0,0,1,.27-1.14,3,3,0,0,1,.75-1,3.59,3.59,0,0,1,1.11-.63,3.71,3.71,0,0,1,1.28-.22,3.78,3.78,0,0,1,1.3.22,3.59,3.59,0,0,1,1.11.63,2.85,2.85,0,0,1,.75,1,2.64,2.64,0,0,1,.26,1.14v.17Z"/><path d="M141.78,372.67h2.38V382h-2.38v-3.49h-2.67V382h-2.38v-9.35h2.38v3.48h2.67Z"/><path d="M151.33,372.67V382H149v-9.35Z"/><path d="M157.41,372.67h2.38V382h-2.38l-2.75-5v5h-2.39v-9.35h2.39l2.75,5Z"/><path d="M167.23,374.69h-4.12v1.64h3.3v2h-3.3V382h-2.38v-9.35h6.5Z"/><path d="M174.74,373.3a4.68,4.68,0,0,1,1.72,1.73,4.58,4.58,0,0,1,.64,2.37,4.53,4.53,0,0,1-.64,2.37,4.75,4.75,0,0,1-6.46,1.72,4.73,4.73,0,0,1-1.72-1.72,4.53,4.53,0,0,1-.64-2.37,4.58,4.58,0,0,1,.64-2.37A4.76,4.76,0,0,1,170,373.3a4.68,4.68,0,0,1,2.38-.63A4.61,4.61,0,0,1,174.74,373.3Zm-1.15,6.21a2.53,2.53,0,0,0,.89-.89,2.35,2.35,0,0,0,.33-1.22,2.38,2.38,0,0,0-.33-1.22,2.53,2.53,0,0,0-.89-.89,2.32,2.32,0,0,0-1.21-.33,2.41,2.41,0,0,0-1.23.33,2.53,2.53,0,0,0-.89.89,2.38,2.38,0,0,0-.33,1.22,2.35,2.35,0,0,0,.33,1.22,2.53,2.53,0,0,0,.89.89,2.41,2.41,0,0,0,1.23.33A2.32,2.32,0,0,0,173.59,379.51Z"/><path d="M185.4,382H183l-1.48-3.53H180V382h-2.24v-9.35h4.46a2.92,2.92,0,0,1,2.91,2.91,2.77,2.77,0,0,1-.36,1.39,3.08,3.08,0,0,1-1,1.06Zm-2.63-7.12a.91.91,0,0,0-.62-.31H180v2h2.2a1,1,0,0,0,.62-.32,1,1,0,0,0,.25-.68A1,1,0,0,0,182.77,374.9Z"/><path d="M193.28,372.67h2.38V382h-2.38v-5.28l-1.16,2.12-.06.1h-2.38l-.06-.1-.16-.31-1-1.81V382h-2.4v-9.35h2.4l2.4,4Z"/><path d="M201.46,372.76l3.06,9.26h-2.3l-.61-1.89h-2.9l-.59,1.89h-2.31l3.06-9.26Zm-2.12,5.44H201l-.83-2.62Z"/><path d="M211.71,372.67v2.38h-2.39v7h-2.39v-7h-2.4v-2.38h7.18Z"/><path d="M214.9,372.67V382h-2.38v-9.35Z"/><path d="M222.67,373.3a4.68,4.68,0,0,1,1.72,1.73,4.58,4.58,0,0,1,.64,2.37,4.53,4.53,0,0,1-.64,2.37,4.75,4.75,0,0,1-6.46,1.72,4.73,4.73,0,0,1-1.72-1.72,4.53,4.53,0,0,1-.64-2.37,4.58,4.58,0,0,1,.64-2.37,4.76,4.76,0,0,1,1.72-1.73,4.68,4.68,0,0,1,2.38-.63A4.61,4.61,0,0,1,222.67,373.3Zm-1.15,6.21a2.53,2.53,0,0,0,.89-.89,2.35,2.35,0,0,0,.33-1.22,2.38,2.38,0,0,0-.33-1.22,2.53,2.53,0,0,0-.89-.89,2.32,2.32,0,0,0-1.21-.33,2.41,2.41,0,0,0-1.23.33,2.53,2.53,0,0,0-.89.89,2.38,2.38,0,0,0-.33,1.22,2.35,2.35,0,0,0,.33,1.22,2.53,2.53,0,0,0,.89.89,2.41,2.41,0,0,0,1.23.33A2.32,2.32,0,0,0,221.52,379.51Z"/><path d="M230.84,372.67h2.38V382h-2.38l-2.75-5v5H225.7v-9.35h2.39l2.75,5Z"/><path d="M242.88,372.76l3.05,9.26h-2.3l-.61-1.89h-2.89l-.6,1.89h-2.31l3.06-9.26Zm-2.13,5.44h1.66l-.83-2.62Z"/><path d="M253.12,378.07a2.67,2.67,0,0,1-.05,2.59,2.68,2.68,0,0,1-1,1,2.75,2.75,0,0,1-1.36.38h-4.66v-9.36h4.24a2.53,2.53,0,0,1,1.36.37,2.68,2.68,0,0,1,1.31,2.3,2.69,2.69,0,0,1-.18,1,2.84,2.84,0,0,1-.52.83A2.59,2.59,0,0,1,253.12,378.07Zm-2.46-3.21a.94.94,0,0,0-.68-.29h-1.72v2H250l.31-.06a.72.72,0,0,0,.24-.13.93.93,0,0,0,.41-.82A.94.94,0,0,0,250.66,374.86Zm.39,4.94a1,1,0,0,0,.28-.7,1,1,0,0,0-.23-.63.94.94,0,0,0-.57-.34h-2.27v2h2.11A1,1,0,0,0,251.05,379.8Z"/><path d="M260.94,373.3a4.83,4.83,0,0,1,1.72,1.73,4.67,4.67,0,0,1,.63,2.37,4.62,4.62,0,0,1-.63,2.37,4.81,4.81,0,0,1-1.72,1.72,4.73,4.73,0,0,1-6.47-6.46,4.71,4.71,0,0,1,1.73-1.73,4.77,4.77,0,0,1,4.74,0Zm-1.15,6.21a2.5,2.5,0,0,0,.88-.89,2.35,2.35,0,0,0,.33-1.22,2.38,2.38,0,0,0-.33-1.22,2.5,2.5,0,0,0-.88-.89,2.42,2.42,0,0,0-2.44,0,2.38,2.38,0,0,0-.89.89,2.29,2.29,0,0,0-.34,1.22,2.27,2.27,0,0,0,.34,1.22,2.38,2.38,0,0,0,.89.89,2.42,2.42,0,0,0,2.44,0Z"/><path d="M271.57,372.68v5.78a3.68,3.68,0,0,1-1.85,3.19,3.52,3.52,0,0,1-1.85.5h-.22a3.52,3.52,0,0,1-1.85-.5,3.66,3.66,0,0,1-1.34-1.34,3.59,3.59,0,0,1-.5-1.85v-5.78h2.21v5.25a2.19,2.19,0,0,0,.4,1.36,1.26,1.26,0,0,0,1.08.55h.22a1.29,1.29,0,0,0,1.07-.55,2.18,2.18,0,0,0,.42-1.36v-5.25Z"/><path d="M279.55,372.67v2.38h-2.39v7h-2.39v-7h-2.4v-2.38h7.18Z"/><path d="M291.25,372.67v2.38h-2.39v7h-2.39v-7h-2.39v-2.38h7.17Z"/><path d="M297.11,372.67h2.38V382h-2.38v-3.49h-2.67V382h-2.38v-9.35h2.38v3.48h2.67Z"/><path d="M306.79,380v2h-6.36v-9.35h6.24v2h-3.84v1.64h3.23v2h-3.23V380Z"/><path d="M317.5,373.06a2.89,2.89,0,0,1,1.05,1.06,2.93,2.93,0,0,1,0,2.92,2.87,2.87,0,0,1-2.52,1.45h-2.22V382h-2.23v-9.35H316A2.89,2.89,0,0,1,317.5,373.06Zm-.92,1.84a.91.91,0,0,0-.63-.31h-2.19v2H316a.88.88,0,0,0,.63-.32,1,1,0,0,0,.26-.68A1,1,0,0,0,316.58,374.9Z"/><path d="M327.25,382h-2.4l-1.48-3.53h-1.52V382h-2.23v-9.35h4.45a2.88,2.88,0,0,1,1.46.39,2.94,2.94,0,0,1,1.45,2.52,2.87,2.87,0,0,1-.35,1.39,3.18,3.18,0,0,1-1,1.06Zm-2.63-7.12a.91.91,0,0,0-.63-.31H321.8v2H324a1,1,0,0,0,.63-.32,1,1,0,0,0,.25-.68A1,1,0,0,0,324.62,374.9Z"/><path d="M334.76,373.3a4.73,4.73,0,0,1,1.71,1.73,4.58,4.58,0,0,1,.64,2.37,4.53,4.53,0,0,1-.64,2.37,4.67,4.67,0,0,1-4.08,2.35,4.62,4.62,0,0,1-2.37-.63,4.68,4.68,0,0,1-1.73-1.72,4.62,4.62,0,0,1-.63-2.37,4.71,4.71,0,0,1,2.36-4.1,4.62,4.62,0,0,1,2.37-.63A4.67,4.67,0,0,1,334.76,373.3Zm-1.15,6.21a2.5,2.5,0,0,0,.88-.89,2.35,2.35,0,0,0,.33-1.22,2.38,2.38,0,0,0-.33-1.22,2.5,2.5,0,0,0-.88-.89,2.42,2.42,0,0,0-2.44,0,2.48,2.48,0,0,0-.9.89,2.38,2.38,0,0,0-.33,1.22,2.35,2.35,0,0,0,.33,1.22,2.48,2.48,0,0,0,.9.89,2.42,2.42,0,0,0,2.44,0Z"/><path d="M342.69,372.64h2.21v5.78a3.59,3.59,0,0,1-.5,1.85,3.77,3.77,0,0,1-1.34,1.35,3.74,3.74,0,0,1-3.7,0,3.8,3.8,0,0,1-1.35-1.35,3.58,3.58,0,0,1-.49-1.85V378h2.21a2.11,2.11,0,0,0,.42,1.26,1.3,1.3,0,0,0,1.06.5,1.28,1.28,0,0,0,1.06-.55,2.18,2.18,0,0,0,.42-1.36Z"/><path d="M352.2,380v2h-6.36v-9.35h6.24v2h-3.85v1.64h3.24v2h-3.24V380Z"/><path d="M358.53,379.62a2.64,2.64,0,0,0,.79-.52l1.62,1.61a4.73,4.73,0,0,1-1.52,1,4.71,4.71,0,0,1-4.2-.27,4.73,4.73,0,0,1-1.72-1.72,4.61,4.61,0,0,1-.63-2.36,4.68,4.68,0,0,1,.63-2.38,4.81,4.81,0,0,1,1.72-1.72,4.68,4.68,0,0,1,2.37-.64,4.57,4.57,0,0,1,1.83.37,4.73,4.73,0,0,1,1.52,1l-1.62,1.62a2.46,2.46,0,0,0-1.73-.72,2.35,2.35,0,0,0-1.22.33,2.5,2.5,0,0,0-.88.89,2.41,2.41,0,0,0-.33,1.23,2.32,2.32,0,0,0,.33,1.21,2.5,2.5,0,0,0,.88.89,2.35,2.35,0,0,0,1.22.33A2.32,2.32,0,0,0,358.53,379.62Z"/><path d="M368.66,372.67v2.38h-2.4v7h-2.39v-7h-2.39v-2.38h7.18Z"/><path d="M369.56,381.63a1.26,1.26,0,0,1-.36-.91,1.18,1.18,0,0,1,.36-.86,1.23,1.23,0,0,1,.87-.35,1.26,1.26,0,0,1,1.26,1.25,1.24,1.24,0,0,1-.37.89,1.26,1.26,0,0,1-.89.37A1.13,1.13,0,0,1,369.56,381.63Z"/><path class="cls-2" d="M44.05,282.38h3.12v14.14h-3.6l-3.64-6-3.66,6h-3.6V282.38h3.6v8l1.76-3.2.1-.16h3.6l.08.16,1.76,3.2v-8Z"/><path class="cls-2" d="M56.41,282.38H60v14.14h-3.6v-5.28h-4v5.28h-3.6V282.38h3.6v5.26h4Z"/><path class="cls-2" d="M69,282.52l4.62,14H70.11l-.92-2.86H64.81l-.9,2.86h-3.5l4.64-14Zm-3.22,8.22h2.52l-1.26-4Z"/><path class="cls-2" d="M84.65,282.38V286H81v10.54H77.41V286H73.79v-3.6H84.65Z"/><path class="cls-2" d="M95.65,282.38v14.14h-3.6V282.38Z"/><path class="cls-2" d="M107.91,282.38V286h-3.62v10.54h-3.62V286H97.05v-3.6h10.86Z"/><path class="cls-2" d="M118.91,282.38v14.14h-3.6V282.38Z"/><path class="cls-2" d="M127,286.86v-.26a1.29,1.29,0,0,0-.49-1,1.83,1.83,0,0,0-1.19-.41,1.92,1.92,0,0,0-1.23.41,1.25,1.25,0,0,0-.51,1,.9.9,0,0,0,.52.86,4,4,0,0,0,1.36.56l.31.06.35.08a7,7,0,0,1,2.86,1.18l.18.16a4.47,4.47,0,0,1,1,1.38,4.06,4.06,0,0,1,.35,1.6,3.94,3.94,0,0,1-.39,1.72,4.39,4.39,0,0,1-1.13,1.46,5.37,5.37,0,0,1-1.68.95,5.89,5.89,0,0,1-2,.33,5.79,5.79,0,0,1-2-.33,5.21,5.21,0,0,1-1.67-.95,4.3,4.3,0,0,1-1.14-1.46,3.81,3.81,0,0,1-.4-1.72v-.26h3.5v.26a1.23,1.23,0,0,0,.49,1,1.71,1.71,0,0,0,1.17.41,1.87,1.87,0,0,0,1.23-.41,1.22,1.22,0,0,0,.51-1,1.16,1.16,0,0,0-.54-.88,2.29,2.29,0,0,0-.56-.3q-.33-.12-.78-.24l-.66-.16a16.59,16.59,0,0,1-1.72-.5,3.18,3.18,0,0,1-1.14-.68l-.08-.08a4.26,4.26,0,0,1-1-1.4,3.71,3.71,0,0,1-.37-1.64,3.84,3.84,0,0,1,.4-1.72,4.5,4.5,0,0,1,1.14-1.46,5.41,5.41,0,0,1,1.67-.95,5.79,5.79,0,0,1,2-.33,5.89,5.89,0,0,1,2,.33,5.57,5.57,0,0,1,1.68.95,4.6,4.6,0,0,1,1.13,1.46,4,4,0,0,1,.39,1.72v.26Z"/><path class="cls-2" d="M149.13,282.4v8.74a5.41,5.41,0,0,1-.75,2.8,5.6,5.6,0,0,1-4.85,2.78h-.32a5.41,5.41,0,0,1-2.8-.75,5.49,5.49,0,0,1-2-2,5.41,5.41,0,0,1-.75-2.8V282.4H141v7.94a3.38,3.38,0,0,0,.6,2.06,1.91,1.91,0,0,0,1.64.82h.32a2,2,0,0,0,1.63-.83,3.27,3.27,0,0,0,.63-2.05V282.4Z"/><path class="cls-2" d="M157.19,286.86v-.26a1.29,1.29,0,0,0-.49-1,1.83,1.83,0,0,0-1.19-.41,1.92,1.92,0,0,0-1.23.41,1.25,1.25,0,0,0-.51,1,.9.9,0,0,0,.52.86,4,4,0,0,0,1.36.56l.31.06.35.08a7,7,0,0,1,2.86,1.18l.18.16a4.47,4.47,0,0,1,1,1.38,4.06,4.06,0,0,1,.35,1.6,3.94,3.94,0,0,1-.39,1.72,4.39,4.39,0,0,1-1.13,1.46,5.37,5.37,0,0,1-1.68.95,5.89,5.89,0,0,1-2,.33,5.79,5.79,0,0,1-2-.33,5.21,5.21,0,0,1-1.67-.95,4.3,4.3,0,0,1-1.14-1.46,3.81,3.81,0,0,1-.4-1.72v-.26h3.5v.26a1.23,1.23,0,0,0,.49,1,1.71,1.71,0,0,0,1.17.41,1.87,1.87,0,0,0,1.23-.41,1.22,1.22,0,0,0,.51-1,1.16,1.16,0,0,0-.54-.88,2.29,2.29,0,0,0-.56-.3q-.33-.12-.78-.24l-.66-.16a16.59,16.59,0,0,1-1.72-.5,3.18,3.18,0,0,1-1.14-.68l-.08-.08a4.26,4.26,0,0,1-1.05-1.4,3.71,3.71,0,0,1-.37-1.64,3.84,3.84,0,0,1,.4-1.72,4.5,4.5,0,0,1,1.14-1.46,5.41,5.41,0,0,1,1.67-.95,5.79,5.79,0,0,1,2-.33,5.89,5.89,0,0,1,2,.33,5.57,5.57,0,0,1,1.68.95,4.6,4.6,0,0,1,1.13,1.46,4,4,0,0,1,.39,1.72v.26Z"/><path class="cls-2" d="M171.47,293.46v3.06h-9.62V282.38h9.44v3.06h-5.82v2.48h4.9V291h-4.9v2.48Z"/><path class="cls-2" d="M179.27,282.33a8.93,8.93,0,0,1,2.13.51,6.31,6.31,0,0,1,1.95,1.22,7.15,7.15,0,0,1,1.73,2.43,7.37,7.37,0,0,1,.61,2.91,6.86,6.86,0,0,1-.78,3.26,6.5,6.5,0,0,1-2.19,2.5,7.61,7.61,0,0,1-2.88,1.13,21.1,21.1,0,0,1-3.57.27l-1.64,0-1.56,0v-14.3h3.62C177.69,282.22,178.55,282.26,179.27,282.33Zm3,7.07a3.63,3.63,0,0,0-.48-1.81,3.9,3.9,0,0,0-1.31-1.37,3.64,3.64,0,0,0-1.81-.54h-2v7.38a14.71,14.71,0,0,0,2.47-.17,4.16,4.16,0,0,0,1.86-.79,3.14,3.14,0,0,0,1.13-1.86A4.35,4.35,0,0,0,182.25,289.4Z"/><path class="cls-2" d="M202.73,285.44h-6.24v2.48h5V291h-5v5.54h-3.6V282.38h9.84Z"/><path class="cls-2" d="M214.27,283.34a7.17,7.17,0,0,1,3.56,6.2,7,7,0,0,1-1,3.58,7.12,7.12,0,0,1-2.6,2.6,7.17,7.17,0,0,1-7.17,0,7.08,7.08,0,0,1-2.61-2.6,6.93,6.93,0,0,1-1-3.58,7,7,0,0,1,1-3.59,7.1,7.1,0,0,1,2.61-2.61,7.17,7.17,0,0,1,7.17,0Zm-1.74,9.38a3.91,3.91,0,0,0,1.34-1.34,3.55,3.55,0,0,0,.5-1.84,3.64,3.64,0,0,0-.5-1.85,4,4,0,0,0-1.34-1.35,3.61,3.61,0,0,0-1.84-.5,3.65,3.65,0,0,0-1.86.5,3.85,3.85,0,0,0-1.34,1.35,3.55,3.55,0,0,0-.5,1.85,3.46,3.46,0,0,0,.5,1.84,3.74,3.74,0,0,0,1.34,1.34,3.56,3.56,0,0,0,1.86.5A3.51,3.51,0,0,0,212.53,292.72Z"/><path class="cls-2" d="M230.56,296.52H227l-2.24-5.34h-2.3v5.34H219V282.38h6.74a4.32,4.32,0,0,1,2.2.59,4.47,4.47,0,0,1,1.62,1.61,4.39,4.39,0,0,1,0,4.31,4.64,4.64,0,0,1-1.46,1.59Zm-4-10.77a1.36,1.36,0,0,0-.94-.47h-3.31v3h3.31a1.38,1.38,0,0,0,.94-.49,1.56,1.56,0,0,0,0-2Z"/><path class="cls-2" d="M232.36,289.82a1.81,1.81,0,0,1-.5-1.16,1.57,1.57,0,0,1,.46-1.17,1.6,1.6,0,0,1,1.16-.49,1.62,1.62,0,0,1,1.66,1.66,1.54,1.54,0,0,1-.49,1.16,1.59,1.59,0,0,1-1.17.48A1.5,1.5,0,0,1,232.36,289.82Zm0,6.22a1.81,1.81,0,0,1-.5-1.16,1.57,1.57,0,0,1,.46-1.17,1.6,1.6,0,0,1,1.16-.49,1.62,1.62,0,0,1,1.66,1.66,1.54,1.54,0,0,1-.49,1.16,1.59,1.59,0,0,1-1.17.48A1.5,1.5,0,0,1,232.36,296Z"/><path class="cls-2" d="M50.7,39l10.17,30.8H53.21l-2-6.29H41.55l-2,6.29h-7.7L42.08,39ZM43.62,57.1h5.54l-2.77-8.71Z"/><path class="cls-2" d="M85.73,38.71h7.92V69.82H85.73V52.26l-3.87,7-.18.35H73.76l-.22-.35-.53-1-3.3-6V69.82h-8V38.71h8l8,13.24Z"/><path class="cls-2" d="M113.36,39l10.16,30.8h-7.65l-2-6.29h-9.63l-2,6.29h-7.7L104.74,39ZM106.28,57.1h5.54l-2.77-8.71Z"/><path id="Контур_4203" data-name="Контур 4203" class="cls-3" d="M288.53,119.68c2.17-.05,3.48-1.37,3.74-4,.65-6.54.27-13.1.2-19.65,0-1.67-.24-3.35-.15-5,.23-4.21-2.51-7.62-6-7.55-13.07.27-41.11,1.22-50.18,1.4-2.66.06-3,.59-3.21,3.92-.46,6.2-.32,12.41-.41,18.61a22.13,22.13,0,0,1-3.05,11.31c-.26.42-.75.81-.46,1.43s.81.34,1.24.34C246,120.45,284.19,119.76,288.53,119.68Z"/><path class="cls-1" d="M184.57,164.66a11.54,11.54,0,0,1-11.52-11.52,30.73,30.73,0,0,1,16-26.81,21,21,0,1,1,29,0,30.72,30.72,0,0,1,16,26.81,11.54,11.54,0,0,1-11.53,11.52Z"/><path class="cls-2" d="M213.62,126.91a18.72,18.72,0,1,0-20.15,0,28.27,28.27,0,0,0-18.16,26.37,9.21,9.21,0,0,0,9.19,9.2h38.1a9.21,9.21,0,0,0,9.19-9.2A28.27,28.27,0,0,0,213.62,126.91Z"/><polygon points="266.33 102.83 262.56 102.83 262.56 76.95 267.69 76.95 266.33 102.83"/><ellipse cx="264.31" cy="108.98" rx="3.19" ry="3.58"/><polygon points="246.03 261.97 160.16 261.97 153.63 147.37 249.89 147.37 246.03 261.97"/></svg>