<svg id="Слой_1" data-name="Слой 1" xmlns="http://www.w3.org/2000/svg" viewBox="0 0 405 405"><defs><style>.cls-1{fill:#e7335d;}.cls-2{fill:#fff;}</style></defs><rect class="cls-1" width="405" height="405"/><path class="cls-2" d="M44.12,39h3.12V53.09h-3.6l-3.64-6-3.66,6h-3.6V39h3.6v8l1.76-3.2.1-.16h3.6l.08.16,1.76,3.2V39Z"/><path class="cls-2" d="M56.48,39h3.6V53.09h-3.6V47.81h-4v5.28h-3.6V39h3.6v5.26h4Z"/><path class="cls-2" d="M69,39.09l4.62,14H70.18l-.92-2.86H64.88L64,53.09h-3.5l4.64-14Zm-3.22,8.22h2.52l-1.26-4Z"/><path class="cls-2" d="M84.72,39v3.6H81.1V53.09H77.48V42.55H73.86V39H84.72Z"/><path class="cls-2" d="M95.72,39V53.09h-3.6V39Z"/><path class="cls-2" d="M103.78,43.43v-.26a1.23,1.23,0,0,0-.49-1,1.76,1.76,0,0,0-1.19-.41,1.87,1.87,0,0,0-1.23.41,1.22,1.22,0,0,0-.51,1,.92.92,0,0,0,.52.86,4.6,4.6,0,0,0,1.36.56l.31.06.35.08a6.82,6.82,0,0,1,2.86,1.18l.18.16a4.1,4.1,0,0,1,1,1.38,3.91,3.91,0,0,1,0,3.32,4.6,4.6,0,0,1-1.13,1.46,5.34,5.34,0,0,1-1.68,1,5.89,5.89,0,0,1-2,.33,5.79,5.79,0,0,1-2-.33,5.41,5.41,0,0,1-1.67-1,4.79,4.79,0,0,1-1.14-1.46,3.84,3.84,0,0,1-.4-1.72v-.26h3.5v.26a1.26,1.26,0,0,0,.49,1,1.79,1.79,0,0,0,1.17.41,1.92,1.92,0,0,0,1.23-.41,1.25,1.25,0,0,0,.51-1,1.15,1.15,0,0,0-.54-.88,2.29,2.29,0,0,0-.56-.3,7.5,7.5,0,0,0-.78-.24l-.66-.16c-.73-.19-1.31-.36-1.72-.5a3.71,3.71,0,0,1-1.14-.68l-.08-.08a4.68,4.68,0,0,1-1-1.4,3.74,3.74,0,0,1-.37-1.64,3.81,3.81,0,0,1,.4-1.72A4.56,4.56,0,0,1,98.46,40a5.21,5.21,0,0,1,1.67-1,5.79,5.79,0,0,1,2-.33,5.89,5.89,0,0,1,2,.33,5.15,5.15,0,0,1,1.68,1,4.39,4.39,0,0,1,1.13,1.46,3.94,3.94,0,0,1,.39,1.72v.26Z"/><path class="cls-2" d="M118,39V53.09h-3.6V39Z"/><path class="cls-2" d="M127.42,39H131V53.09h-3.6l-4.16-7.58v7.58h-3.62V39h3.62l4.16,7.58Z"/><path class="cls-2" d="M140.78,49.46a4.24,4.24,0,0,0,1.2-.79l2.44,2.44a7.35,7.35,0,0,1-2.3,1.55,7.15,7.15,0,0,1-2.76.55,7,7,0,0,1-3.58-1,7.2,7.2,0,0,1-2.6-2.6,7.17,7.17,0,0,1,0-7.17,7.15,7.15,0,0,1,2.6-2.61A7.13,7.13,0,0,1,144.42,41L142,43.45a3.85,3.85,0,0,0-1.2-.79,3.63,3.63,0,0,0-3.26.21,3.69,3.69,0,0,0-1.34,1.35,3.65,3.65,0,0,0,0,3.69,3.82,3.82,0,0,0,1.34,1.34,3.55,3.55,0,0,0,1.84.5A3.64,3.64,0,0,0,140.78,49.46Z"/><path class="cls-2" d="M149.22,49.69h5.56v3.4h-9.16V39h3.6Z"/><path class="cls-2" d="M167.68,39v8.74a5.47,5.47,0,0,1-.75,2.8,5.59,5.59,0,0,1-2,2,5.5,5.5,0,0,1-2.81.75h-.32a5.44,5.44,0,0,1-2.8-.75,5.64,5.64,0,0,1-2-2,5.47,5.47,0,0,1-.75-2.8V39h3.34v7.94a3.42,3.42,0,0,0,.6,2.06,1.94,1.94,0,0,0,1.64.82h.32a2,2,0,0,0,1.63-.83,3.31,3.31,0,0,0,.63-2.05V39Z"/><path class="cls-2" d="M175.48,38.9a8.07,8.07,0,0,1,2.13.51,6,6,0,0,1,1.95,1.22,7,7,0,0,1,1.73,2.43A7.2,7.2,0,0,1,181.9,46a6.91,6.91,0,0,1-.78,3.26,6.48,6.48,0,0,1-2.19,2.5,7.78,7.78,0,0,1-2.88,1.13,20.94,20.94,0,0,1-3.57.27l-1.64,0c-.35,0-.87,0-1.56,0V38.79h3.62A24.06,24.06,0,0,1,175.48,38.9Zm3,7.07a3.61,3.61,0,0,0-.48-1.81,3.74,3.74,0,0,0-1.31-1.37,3.42,3.42,0,0,0-1.81-.54h-2v7.38a15.85,15.85,0,0,0,2.47-.17,4.29,4.29,0,0,0,1.86-.79,3.2,3.2,0,0,0,1.13-1.86A3.82,3.82,0,0,0,178.46,46Z"/><path class="cls-2" d="M192.72,50v3.06H183.1V39h9.44V42h-5.82v2.48h4.9v3.06h-4.9V50Z"/><path class="cls-2" d="M200.52,38.9a8.07,8.07,0,0,1,2.13.51,6,6,0,0,1,1.95,1.22,7,7,0,0,1,1.73,2.43,7.2,7.2,0,0,1,.61,2.91,6.91,6.91,0,0,1-.78,3.26,6.48,6.48,0,0,1-2.19,2.5,7.78,7.78,0,0,1-2.88,1.13,20.94,20.94,0,0,1-3.57.27l-1.64,0c-.35,0-.87,0-1.56,0V38.79h3.62A24.06,24.06,0,0,1,200.52,38.9Zm3,7.07a3.61,3.61,0,0,0-.48-1.81,3.74,3.74,0,0,0-1.31-1.37,3.42,3.42,0,0,0-1.81-.54h-2v7.38a15.85,15.85,0,0,0,2.47-.17,4.29,4.29,0,0,0,1.86-.79,3.2,3.2,0,0,0,1.13-1.86A3.82,3.82,0,0,0,203.5,46Z"/><path class="cls-2" d="M36.34,63V77.09h-3.6V63Z"/><path class="cls-2" d="M45.72,63h3.6V77.09h-3.6l-4.16-7.58v7.58H37.94V63h3.62l4.16,7.58Z"/><path class="cls-2" d="M67.58,63v3.6H64V77.09H60.34V66.55H56.72V63H67.58Z"/><path class="cls-2" d="M76.62,63h3.6V77.09h-3.6V71.81h-4v5.28H69V63h3.6v5.26h4Z"/><path class="cls-2" d="M91.44,74v3.06H81.82V63h9.44V66H85.44v2.48h4.9v3.06h-4.9V74Z"/><path class="cls-2" d="M105.5,67.43v-.26a1.23,1.23,0,0,0-.49-1,1.76,1.76,0,0,0-1.19-.41,1.87,1.87,0,0,0-1.23.41,1.22,1.22,0,0,0-.51,1,.92.92,0,0,0,.52.86,4.6,4.6,0,0,0,1.36.56l.31.06.35.08a6.82,6.82,0,0,1,2.86,1.18l.18.16a4.1,4.1,0,0,1,1,1.38,3.91,3.91,0,0,1,0,3.32,4.6,4.6,0,0,1-1.13,1.46,5.34,5.34,0,0,1-1.68,1,5.89,5.89,0,0,1-2,.33,5.79,5.79,0,0,1-2-.33,5.41,5.41,0,0,1-1.67-1A4.79,4.79,0,0,1,99,74.77a3.84,3.84,0,0,1-.4-1.72v-.26h3.5v.26a1.26,1.26,0,0,0,.49,1,1.79,1.79,0,0,0,1.17.41A1.92,1.92,0,0,0,105,74a1.25,1.25,0,0,0,.51-1,1.15,1.15,0,0,0-.54-.88,2.29,2.29,0,0,0-.56-.3,7.5,7.5,0,0,0-.78-.24l-.66-.16c-.73-.19-1.31-.36-1.72-.5a3.71,3.71,0,0,1-1.14-.68l-.08-.08a4.68,4.68,0,0,1-1-1.4,3.74,3.74,0,0,1-.37-1.64,3.81,3.81,0,0,1,.4-1.72A4.56,4.56,0,0,1,100.18,64a5.21,5.21,0,0,1,1.67-1,5.79,5.79,0,0,1,2-.33,5.89,5.89,0,0,1,2,.33,5.15,5.15,0,0,1,1.68,1,4.39,4.39,0,0,1,1.13,1.46,3.94,3.94,0,0,1,.39,1.72v.26Z"/><path class="cls-2" d="M119.78,74v3.06h-9.62V63h9.44V66h-5.82v2.48h4.9v3.06h-4.9V74Z"/><path class="cls-2" d="M132.92,77.09H129.3l-2.24-5.34h-2.3v5.34h-3.38V63h6.74a4.25,4.25,0,0,1,2.2.59,4.29,4.29,0,0,1,1.61,1.61,4.34,4.34,0,0,1,.59,2.2,4.28,4.28,0,0,1-.54,2.11,4.73,4.73,0,0,1-1.46,1.59Zm-4-10.77a1.34,1.34,0,0,0-.94-.47h-3.32v3H128a1.45,1.45,0,0,0,.94-.49,1.52,1.52,0,0,0,.38-1A1.47,1.47,0,0,0,128.94,66.32Z"/><path class="cls-2" d="M143.42,62.91h3.92l-4.62,14.18h-4.4l-4.6-14.18h4l2.86,8.84Z"/><path class="cls-2" d="M152.14,63V77.09h-3.6V63Z"/><path class="cls-2" d="M161.9,73.46a4.24,4.24,0,0,0,1.2-.79l2.44,2.44a7.35,7.35,0,0,1-2.3,1.55,7.15,7.15,0,0,1-2.76.55,7,7,0,0,1-3.58-1,7.2,7.2,0,0,1-2.6-2.6,7.17,7.17,0,0,1,0-7.17,7.15,7.15,0,0,1,2.6-2.61A7.13,7.13,0,0,1,165.54,65l-2.44,2.44a3.85,3.85,0,0,0-1.2-.79,3.63,3.63,0,0,0-3.26.21,3.69,3.69,0,0,0-1.34,1.35,3.65,3.65,0,0,0,0,3.69,3.82,3.82,0,0,0,1.34,1.34,3.55,3.55,0,0,0,1.84.5A3.64,3.64,0,0,0,161.9,73.46Z"/><path class="cls-2" d="M176.36,74v3.06h-9.62V63h9.44V66h-5.82v2.48h4.9v3.06h-4.9V74Z"/><path class="cls-2" d="M178.56,70.39a1.78,1.78,0,0,1-.5-1.16,1.54,1.54,0,0,1,.46-1.17,1.56,1.56,0,0,1,1.16-.49,1.64,1.64,0,0,1,1.66,1.66,1.56,1.56,0,0,1-.49,1.16,1.62,1.62,0,0,1-1.17.48A1.5,1.5,0,0,1,178.56,70.39Zm0,6.22a1.78,1.78,0,0,1-.5-1.16,1.54,1.54,0,0,1,.46-1.17,1.56,1.56,0,0,1,1.16-.49,1.64,1.64,0,0,1,1.66,1.66,1.56,1.56,0,0,1-.49,1.16,1.62,1.62,0,0,1-1.17.48A1.5,1.5,0,0,1,178.56,76.61Z"/><path class="cls-2" d="M44.12,245.21h3.12v14.14h-3.6l-3.64-6-3.66,6h-3.6V245.21h3.6v8L38.1,250l.1-.16h3.6l.08.16,1.76,3.2v-8Z"/><path class="cls-2" d="M56.48,245.21h3.6v14.14h-3.6v-5.28h-4v5.28h-3.6V245.21h3.6v5.26h4Z"/><path class="cls-2" d="M71.3,256.29v3.06H61.68V245.21h9.44v3.06H65.3v2.48h4.9v3.06H65.3v2.48Z"/><path class="cls-2" d="M84.44,259.35H80.82L78.58,254h-2.3v5.34H72.9V245.21h6.74a4.4,4.4,0,0,1,3.81,2.2,4.39,4.39,0,0,1,0,4.31A4.46,4.46,0,0,1,82,253.31Zm-4-10.77a1.34,1.34,0,0,0-.94-.47H76.2v3h3.32a1.4,1.4,0,0,0,.94-.49,1.56,1.56,0,0,0,0-2Z"/><path class="cls-2" d="M95.26,256.29v3.06H85.64V245.21h9.44v3.06H89.26v2.48h4.9v3.06h-4.9v2.48Z"/><path class="cls-2" d="M110.38,245.21H114l-4.16,8.38v5.76h-3.6v-5.76l-4.16-8.38h3.6L108,250Z"/><path class="cls-2" d="M125.12,246.17a7.15,7.15,0,0,1,2.6,2.61,7,7,0,0,1,1,3.59,6.93,6.93,0,0,1-1,3.58,7.2,7.2,0,0,1-2.6,2.6,7.17,7.17,0,0,1-7.17,0,7.15,7.15,0,0,1-2.61-2.6,6.93,6.93,0,0,1-1-3.58,7,7,0,0,1,1-3.59,7.1,7.1,0,0,1,2.61-2.61,7.17,7.17,0,0,1,7.17,0Zm-1.74,9.38a3.74,3.74,0,0,0,1.34-1.34,3.55,3.55,0,0,0,.5-1.84,3.64,3.64,0,0,0-.5-1.85,3.77,3.77,0,0,0-1.34-1.35,3.55,3.55,0,0,0-1.84-.5,3.62,3.62,0,0,0-1.85.5,3.72,3.72,0,0,0-1.35,1.35,3.64,3.64,0,0,0-.5,1.85,3.55,3.55,0,0,0,.5,1.84,3.69,3.69,0,0,0,1.35,1.34,3.62,3.62,0,0,0,1.85.5A3.55,3.55,0,0,0,123.38,255.55Z"/><path class="cls-2" d="M141.38,245.23V254a5.44,5.44,0,0,1-.75,2.8,5.6,5.6,0,0,1-4.85,2.78h-.32a5.44,5.44,0,0,1-2.8-.75,5.57,5.57,0,0,1-2-2,5.44,5.44,0,0,1-.75-2.8v-8.74h3.34v7.94a3.38,3.38,0,0,0,.6,2.06,1.92,1.92,0,0,0,1.64.82h.32a1.94,1.94,0,0,0,1.63-.83,3.29,3.29,0,0,0,.63-2.05v-7.94Z"/><path class="cls-2" d="M157.14,255.72a3.85,3.85,0,0,0,1.2-.79l2.44,2.44a7.18,7.18,0,0,1-2.3,1.55,7.17,7.17,0,0,1-6.34-.41,7.2,7.2,0,0,1-2.6-2.6,6.93,6.93,0,0,1-1-3.58,7,7,0,0,1,1-3.59,7.15,7.15,0,0,1,2.6-2.61,7,7,0,0,1,3.58-1,7.15,7.15,0,0,1,2.76.55,7.35,7.35,0,0,1,2.3,1.55l-2.44,2.44a4.24,4.24,0,0,0-1.2-.79,3.64,3.64,0,0,0-1.42-.29,3.55,3.55,0,0,0-1.84.5,3.77,3.77,0,0,0-1.34,1.35,3.64,3.64,0,0,0-.5,1.85,3.55,3.55,0,0,0,.5,1.84,3.74,3.74,0,0,0,1.34,1.34,3.63,3.63,0,0,0,3.26.21Z"/><path class="cls-2" d="M169.34,245.35l4.62,14h-3.48l-.92-2.86h-4.38l-.9,2.86h-3.5l4.64-14Zm-3.22,8.22h2.52l-1.26-4Z"/><path class="cls-2" d="M182.14,245.21h3.6v14.14h-3.6L178,251.77v7.58h-3.62V245.21H178l4.16,7.58Z"/><path class="cls-2" d="M202.64,245.17h3.92l-4.62,14.18h-4.4l-4.6-14.18h4l2.86,8.84Z"/><path class="cls-2" d="M211.36,245.21v14.14h-3.6V245.21Z"/><path class="cls-2" d="M222.58,256.29v3.06H213V245.21h9.44v3.06h-5.82v2.48h4.9v3.06h-4.9v2.48Z"/><path class="cls-2" d="M235.56,245.21h3.12v14.14h-3.6l-3.64-6-3.66,6h-3.6V245.21h3.6v8l1.76-3.2.1-.16h3.6l.08.16,1.76,3.2v-8Z"/><path class="cls-2" d="M42.36,280.29v3.06H32.74V269.21h9.44v3.06H36.36v2.48h4.9v3.06h-4.9v2.48Z"/><path class="cls-2" d="M56.38,283.35H52.2L50,279.67l-2.22,3.68H43.56l4.32-7.14-4.24-7h4.18L50,272.75l2.14-3.54h4.2l-4.24,7Z"/><path class="cls-2" d="M64.94,269.35l4.62,14H66.08l-.92-2.86H60.78l-.9,2.86h-3.5l4.64-14Zm-3.22,8.22h2.52l-1.26-4Z"/><path class="cls-2" d="M80.86,269.21h3.6v14.14h-3.6v-8l-1.76,3.2-.08.16h-3.6l-.1-.16-.24-.46-1.5-2.74v8H70V269.21h3.62l3.64,6Z"/><path class="cls-2" d="M95,269.8a4.38,4.38,0,0,1,1.6,1.6,4.4,4.4,0,0,1-1.6,6,4.33,4.33,0,0,1-2.21.59H89.44v5.34H86.06V269.21H92.8A4.33,4.33,0,0,1,95,269.8Zm-1.38,2.78a1.38,1.38,0,0,0-.95-.47H89.36v3h3.32a1.37,1.37,0,0,0,.95-.49,1.52,1.52,0,0,0,.39-1A1.47,1.47,0,0,0,93.63,272.58Z"/><path class="cls-2" d="M102,280h5.56v3.4H98.4V269.21H102Z"/><path class="cls-2" d="M118.58,280.29v3.06H109V269.21h9.44v3.06h-5.82v2.48h4.9v3.06h-4.9v2.48Z"/><path class="cls-2" d="M126.64,273.69v-.26a1.23,1.23,0,0,0-.49-1A1.79,1.79,0,0,0,125,272a1.92,1.92,0,0,0-1.23.41,1.22,1.22,0,0,0-.51,1,.9.9,0,0,0,.52.86,4.22,4.22,0,0,0,1.36.56l.31.06.35.08a7,7,0,0,1,2.86,1.18l.18.16a4.31,4.31,0,0,1,.95,1.38,4.06,4.06,0,0,1,.35,1.6,4,4,0,0,1-.39,1.72,4.36,4.36,0,0,1-1.13,1.46,5.34,5.34,0,0,1-1.68.95,6,6,0,0,1-3.91,0,5.41,5.41,0,0,1-1.67-.95,4.67,4.67,0,0,1-1.14-1.46,4,4,0,0,1-.4-1.72v-.26h3.5v.26a1.26,1.26,0,0,0,.49,1,1.74,1.74,0,0,0,1.17.41,1.87,1.87,0,0,0,1.23-.41,1.22,1.22,0,0,0,.51-1,1.15,1.15,0,0,0-.54-.88,2.29,2.29,0,0,0-.56-.3,7.5,7.5,0,0,0-.78-.24l-.66-.16c-.73-.19-1.31-.35-1.72-.5a3.52,3.52,0,0,1-1.14-.68l-.08-.08a4.56,4.56,0,0,1-1-1.4,3.74,3.74,0,0,1-.37-1.64,4,4,0,0,1,.4-1.72,4.79,4.79,0,0,1,1.14-1.46,5.41,5.41,0,0,1,1.67-.95,6,6,0,0,1,3.91,0,5.34,5.34,0,0,1,1.68.95,4.46,4.46,0,0,1,1.13,1.46,4,4,0,0,1,.39,1.72v.26Z"/><path class="cls-2" d="M131.9,276.65a1.81,1.81,0,0,1-.5-1.16,1.57,1.57,0,0,1,.46-1.17,1.65,1.65,0,0,1,2.34,0,1.61,1.61,0,0,1,.48,1.18,1.54,1.54,0,0,1-.49,1.16,1.61,1.61,0,0,1-1.17.48A1.5,1.5,0,0,1,131.9,276.65Zm0,6.22a1.81,1.81,0,0,1-.5-1.16,1.62,1.62,0,0,1,1.62-1.66,1.64,1.64,0,0,1,1.66,1.66,1.54,1.54,0,0,1-.49,1.16,1.61,1.61,0,0,1-1.17.48A1.5,1.5,0,0,1,131.9,282.87Z"/><path d="M38.51,94.81a3.16,3.16,0,0,1,1.12,1.12A3,3,0,0,1,40,97.48,2.94,2.94,0,0,1,39.63,99,3.1,3.1,0,0,1,37,100.56H34.61v3.74H32.25V94.4H37A3.07,3.07,0,0,1,38.51,94.81Zm-1,2a1,1,0,0,0-.66-.33H34.56v2.1h2.32a.94.94,0,0,0,.66-.35,1,1,0,0,0,.28-.72A1,1,0,0,0,37.54,96.76Z"/><path d="M49,104.3H46.43l-1.57-3.74H43.25v3.74H40.88V94.4H45.6A3.08,3.08,0,0,1,48.3,99a3.19,3.19,0,0,1-1,1.11Zm-2.79-7.54a.92.92,0,0,0-.65-.33H43.19v2.1h2.33a.94.94,0,0,0,.65-.35,1,1,0,0,0,.27-.72A1,1,0,0,0,46.17,96.76Z"/><path d="M56.54,102.15v2.15H49.8V94.4h6.61v2.14H52.33v1.74h3.43v2.14H52.33v1.73Z"/><path d="M63.92,94.81A3.16,3.16,0,0,1,65,95.93a3,3,0,0,1,.41,1.55A2.94,2.94,0,0,1,65,99a3.1,3.1,0,0,1-2.67,1.54H60v3.74H57.66V94.4h4.71A3.07,3.07,0,0,1,63.92,94.81Zm-1,2a1,1,0,0,0-.66-.33H60v2.1h2.33a.94.94,0,0,0,.66-.35,1,1,0,0,0,.28-.72A1,1,0,0,0,63,96.76Z"/><path d="M71.44,94.5l3.24,9.8H72.24l-.64-2H68.53l-.63,2H65.45l3.25-9.8Zm-2.25,5.75H71l-.89-2.77Z"/><path d="M83,104.3H80.5l-1.57-3.74H77.32v3.74H75V94.4h4.72a3.09,3.09,0,0,1,1.54.41,3,3,0,0,1,1.12,1.13,3,3,0,0,1,.42,1.54A3,3,0,0,1,82.38,99a3.19,3.19,0,0,1-1,1.11Zm-2.79-7.54a1,1,0,0,0-.66-.33H77.27v2.1h2.32a1,1,0,0,0,.66-.35,1,1,0,0,0,.27-.72A1,1,0,0,0,80.25,96.76Z"/><path d="M89,94.5l3.23,9.8H89.83l-.65-2H86.12l-.63,2H83l3.24-9.8Zm-2.26,5.75h1.77l-.88-2.77Z"/><path d="M100,94.4v2.52H97.47v7.38H94.94V96.92H92.4V94.4H100Z"/><path d="M103.5,94.4v9.9H101V94.4Z"/><path d="M111.86,95.07a5,5,0,0,1,1.82,1.83,5,5,0,0,1,0,5,5,5,0,0,1-1.82,1.82,4.93,4.93,0,0,1-2.5.67,5,5,0,0,1-4.34-2.49,5,5,0,0,1,6.84-6.85Zm-1.22,6.57a2.65,2.65,0,0,0,.94-.94,2.41,2.41,0,0,0,.35-1.29,2.46,2.46,0,0,0-.35-1.3,2.57,2.57,0,0,0-.94-.94,2.49,2.49,0,0,0-1.28-.35,2.56,2.56,0,0,0-1.3.35,2.65,2.65,0,0,0-.94.94,2.46,2.46,0,0,0-.35,1.3,2.41,2.41,0,0,0,.35,1.29,2.73,2.73,0,0,0,.94.94,2.56,2.56,0,0,0,1.3.35A2.49,2.49,0,0,0,110.64,101.64Z"/><path d="M120.64,94.4h2.52v9.9h-2.52L117.73,99v5.31h-2.54V94.4h2.54l2.91,5.3Z"/><path d="M135.72,95.07a5.07,5.07,0,0,1,1.82,1.83,5,5,0,0,1,0,5,5.12,5.12,0,0,1-1.82,1.82,5,5,0,0,1-5,0,5.07,5.07,0,0,1-1.83-1.82,5,5,0,0,1,0-5,5,5,0,0,1,1.83-1.83,5,5,0,0,1,5,0Zm-1.22,6.57a2.73,2.73,0,0,0,.94-.94,2.5,2.5,0,0,0,.35-1.29,2.56,2.56,0,0,0-.35-1.3,2.65,2.65,0,0,0-.94-.94,2.5,2.5,0,0,0-1.29-.35,2.52,2.52,0,0,0-1.29.35,2.67,2.67,0,0,0-.95.94,2.56,2.56,0,0,0-.35,1.3,2.5,2.5,0,0,0,.35,1.29,2.76,2.76,0,0,0,.95.94,2.52,2.52,0,0,0,1.29.35A2.5,2.5,0,0,0,134.5,101.64Z"/><path d="M145.94,96.54h-4.37v1.74h3.5v2.14h-3.5v3.88h-2.52V94.4h6.89Z"/><path d="M156.13,94.5l3.23,9.8h-2.43l-.65-2h-3.06l-.63,2h-2.45l3.25-9.8Zm-2.25,5.75h1.76l-.88-2.77Z"/><path d="M170.11,94.81a3.16,3.16,0,0,1,1.12,1.12,3.07,3.07,0,0,1,.41,1.55,3.06,3.06,0,0,1-1.53,2.66,3,3,0,0,1-1.55.42h-2.35v3.74h-2.37V94.4h4.72A3.07,3.07,0,0,1,170.11,94.81Zm-1,2a1,1,0,0,0-.66-.33h-2.33v2.1h2.33a.94.94,0,0,0,.66-.35,1.09,1.09,0,0,0,.28-.72A1,1,0,0,0,169.14,96.76Z"/><path d="M180.56,104.3H178l-1.57-3.74h-1.61v3.74h-2.37V94.4h4.72a3.09,3.09,0,0,1,1.54.41,3.14,3.14,0,0,1,1.13,1.13,3.08,3.08,0,0,1,0,3,3.19,3.19,0,0,1-1,1.11Zm-2.79-7.54a.92.92,0,0,0-.65-.33h-2.33v2.1h2.33a.94.94,0,0,0,.65-.35,1,1,0,0,0,.27-.72A1,1,0,0,0,177.77,96.76Z"/><path d="M188.13,102.15v2.15H181.4V94.4H188v2.14h-4.08v1.74h3.43v2.14h-3.43v1.73Z"/><path d="M193.78,97.53v-.18a.87.87,0,0,0-.35-.69,1.25,1.25,0,0,0-.83-.29,1.33,1.33,0,0,0-.86.29.85.85,0,0,0-.36.69.63.63,0,0,0,.37.6,3.15,3.15,0,0,0,.95.4l.21,0,.25,0a4.86,4.86,0,0,1,2,.83l.13.11a2.88,2.88,0,0,1,.66,1,2.67,2.67,0,0,1,0,2.32,3,3,0,0,1-.79,1,3.57,3.57,0,0,1-1.17.67,4.25,4.25,0,0,1-1.38.23,4.13,4.13,0,0,1-1.36-.23,3.79,3.79,0,0,1-1.17-.67,3.26,3.26,0,0,1-.8-1,2.78,2.78,0,0,1-.28-1.2v-.18h2.45v.18a.87.87,0,0,0,.35.69,1.24,1.24,0,0,0,.81.29,1.36,1.36,0,0,0,.87-.29.87.87,0,0,0,.35-.69.79.79,0,0,0-.38-.62,1.79,1.79,0,0,0-.39-.21l-.54-.17-.46-.11c-.52-.13-.92-.25-1.21-.35a2.51,2.51,0,0,1-.8-.47l-.05-.06a3.13,3.13,0,0,1-.74-1,2.69,2.69,0,0,1-.26-1.15,2.78,2.78,0,0,1,.28-1.2,3.15,3.15,0,0,1,.8-1,3.79,3.79,0,0,1,1.17-.67,4.13,4.13,0,0,1,1.36-.23,4.25,4.25,0,0,1,1.38.23,3.57,3.57,0,0,1,1.17.67,2.87,2.87,0,0,1,.79,1,2.64,2.64,0,0,1,.28,1.2v.18Z"/><path d="M203.77,102.15v2.15H197V94.4h6.61v2.14h-4.08v1.74H203v2.14h-3.43v1.73Z"/><path d="M210.34,94.4h2.52v9.9h-2.52L207.43,99v5.31h-2.54V94.4h2.54l2.91,5.3Z"/><path d="M221.44,94.4v2.52h-2.53v7.38h-2.54V96.92h-2.53V94.4h7.6Z"/><path d="M227.57,94.5l3.23,9.8h-2.43l-.64-2h-3.07l-.63,2h-2.45l3.25-9.8Zm-2.25,5.75h1.76l-.88-2.77Z"/><path d="M238.55,94.4v2.52H236v7.38h-2.53V96.92H231V94.4h7.6Z"/><path d="M242.05,94.4v9.9h-2.52V94.4Z"/><path d="M250.41,95.07a5.07,5.07,0,0,1,1.82,1.83,5,5,0,0,1,0,5,5.12,5.12,0,0,1-1.82,1.82,5,5,0,0,1-5,0,5.07,5.07,0,0,1-1.83-1.82,5,5,0,0,1,0-5,5,5,0,0,1,1.83-1.83,5,5,0,0,1,5,0Zm-1.22,6.57a2.82,2.82,0,0,0,.94-.94,2.5,2.5,0,0,0,.35-1.29,2.56,2.56,0,0,0-.35-1.3,2.73,2.73,0,0,0-.94-.94,2.52,2.52,0,0,0-1.29-.35,2.56,2.56,0,0,0-1.3.35,2.65,2.65,0,0,0-.94.94,2.56,2.56,0,0,0-.35,1.3,2.5,2.5,0,0,0,.35,1.29,2.73,2.73,0,0,0,.94.94,2.56,2.56,0,0,0,1.3.35A2.52,2.52,0,0,0,249.19,101.64Z"/><path d="M259.18,94.4h2.52v9.9h-2.52L256.27,99v5.31h-2.53V94.4h2.53l2.91,5.3Z"/><path d="M268.51,105.18a12.72,12.72,0,0,1-1.43-4.61,10.93,10.93,0,0,1-.06-1.2,11.58,11.58,0,0,1,.28-2.55,11.09,11.09,0,0,1,.74-2.26,10.64,10.64,0,0,1,.66-1.23l1.53,1.07c0,.06-.13.22-.26.46a7.86,7.86,0,0,0-.46,1,9.69,9.69,0,0,0-.63,3.5,8.32,8.32,0,0,0,.06,1.06,10.93,10.93,0,0,0,1.22,3.88Z"/><path d="M277.61,94.81a3.08,3.08,0,0,1,1.12,1.12,3,3,0,0,1,.42,1.55,3.1,3.1,0,0,1-3.08,3.08h-2.36v3.74h-2.36V94.4h4.72A3,3,0,0,1,277.61,94.81Zm-1,2a1,1,0,0,0-.67-.33h-2.32v2.1H276a1,1,0,0,0,.67-.35,1.08,1.08,0,0,0,.27-.72A1,1,0,0,0,276.65,96.76Z"/><path d="M288.06,104.3h-2.53L284,100.56h-1.61v3.74H280V94.4h4.71a3.06,3.06,0,0,1,1.54.41,3.07,3.07,0,0,1,1.54,2.67,3,3,0,0,1-.37,1.48,3.32,3.32,0,0,1-1,1.11Zm-2.78-7.54a1,1,0,0,0-.66-.33H282.3v2.1h2.32a1,1,0,0,0,.66-.35,1,1,0,0,0,.26-.72A1,1,0,0,0,285.28,96.76Z"/><path d="M295.64,102.15v2.15H288.9V94.4h6.61v2.14h-4.07v1.74h3.43v2.14h-3.43v1.73Z"/><path d="M301.28,97.53v-.18a.86.86,0,0,0-.34-.69,1.28,1.28,0,0,0-.84-.29,1.35,1.35,0,0,0-.86.29.84.84,0,0,0-.35.69.64.64,0,0,0,.36.6,3.15,3.15,0,0,0,.95.4l.22,0,.24,0a5,5,0,0,1,2,.83l.12.11a3.06,3.06,0,0,1,.67,1,2.77,2.77,0,0,1,0,2.32,3.09,3.09,0,0,1-.79,1,3.72,3.72,0,0,1-1.18.67,4.2,4.2,0,0,1-2.74,0,3.63,3.63,0,0,1-1.16-.67,3,3,0,0,1-.8-1,2.64,2.64,0,0,1-.28-1.2v-.18h2.45v.18a.86.86,0,0,0,.34.69,1.24,1.24,0,0,0,.82.29,1.33,1.33,0,0,0,.86-.29.85.85,0,0,0,.36-.69.82.82,0,0,0-.38-.62,1.79,1.79,0,0,0-.39-.21l-.55-.17-.46-.11c-.51-.13-.91-.25-1.2-.35a2.41,2.41,0,0,1-.8-.47l-.06-.06a3.1,3.1,0,0,1-.73-1,2.55,2.55,0,0,1-.26-1.15,2.64,2.64,0,0,1,.28-1.2,2.9,2.9,0,0,1,.8-1,3.63,3.63,0,0,1,1.16-.67,4.2,4.2,0,0,1,2.74,0,3.72,3.72,0,0,1,1.18.67,3,3,0,0,1,.79,1,2.77,2.77,0,0,1,.27,1.2v.18Z"/><path d="M309.06,97.53v-.18a.86.86,0,0,0-.34-.69,1.27,1.27,0,0,0-.83-.29,1.33,1.33,0,0,0-.86.29.85.85,0,0,0-.36.69.64.64,0,0,0,.36.6,3.22,3.22,0,0,0,1,.4l.21,0,.25,0a4.92,4.92,0,0,1,2,.83l.13.11a2.88,2.88,0,0,1,.66,1,2.8,2.8,0,0,1,.25,1.12,2.64,2.64,0,0,1-.28,1.2,3,3,0,0,1-.79,1,3.68,3.68,0,0,1-1.17.67,4.25,4.25,0,0,1-1.38.23,4.13,4.13,0,0,1-1.36-.23,3.79,3.79,0,0,1-1.17-.67,3.26,3.26,0,0,1-.8-1,2.78,2.78,0,0,1-.28-1.2v-.18h2.45v.18a.87.87,0,0,0,.35.69,1.22,1.22,0,0,0,.81.29,1.36,1.36,0,0,0,.87-.29.87.87,0,0,0,.35-.69.79.79,0,0,0-.38-.62,1.79,1.79,0,0,0-.39-.21l-.54-.17-.47-.11c-.51-.13-.91-.25-1.2-.35a2.41,2.41,0,0,1-.8-.47l-.05-.06a3.13,3.13,0,0,1-.74-1,2.69,2.69,0,0,1-.26-1.15,2.78,2.78,0,0,1,.28-1.2,3.15,3.15,0,0,1,.8-1,3.79,3.79,0,0,1,1.17-.67,4.13,4.13,0,0,1,1.36-.23,4.25,4.25,0,0,1,1.38.23,3.68,3.68,0,0,1,1.17.67,2.87,2.87,0,0,1,.79,1,2.64,2.64,0,0,1,.28,1.2v.18Z"/><path d="M38.51,111.61a3.16,3.16,0,0,1,1.12,1.12,3,3,0,0,1,.41,1.55,2.94,2.94,0,0,1-.41,1.54A3.1,3.1,0,0,1,37,117.36H34.61v3.74H32.25v-9.9H37A3,3,0,0,1,38.51,111.61Zm-1,2a1,1,0,0,0-.66-.33H34.56v2.1h2.32a.94.94,0,0,0,.66-.35,1,1,0,0,0,.28-.72A1,1,0,0,0,37.54,113.56Z"/><path d="M46,111.3l3.23,9.8H46.83l-.64-2H43.12l-.63,2H40l3.25-9.8Zm-2.26,5.75h1.76l-.88-2.77Z"/><path d="M55.26,118.55a2.5,2.5,0,0,0,.84-.55l1.71,1.71a5,5,0,0,1-6.05.8,5.12,5.12,0,0,1-1.82-1.82,5,5,0,0,1,0-5,5.07,5.07,0,0,1,1.82-1.83,4.87,4.87,0,0,1,2.51-.67,4.91,4.91,0,0,1,3.54,1.47l-1.71,1.71a2.69,2.69,0,0,0-.84-.56,2.61,2.61,0,0,0-1-.2,2.5,2.5,0,0,0-1.29.35,2.6,2.6,0,0,0-.94,1,2.55,2.55,0,0,0,0,2.58,2.73,2.73,0,0,0,.94.94,2.5,2.5,0,0,0,1.29.35A2.45,2.45,0,0,0,55.26,118.55Z"/><path d="M63.45,116.1l3,5h-2.8l-2.44-4v4H58.65v-9.9h2.52v3.86l2.44-3.86h2.8Z"/><path d="M72.68,111.3l3.23,9.8H73.47l-.64-2H69.76l-.63,2H66.69l3.24-9.8Zm-2.26,5.75h1.77l-.89-2.77Z"/><path d="M85.92,116.2a4.83,4.83,0,0,1-.67,2.5,5,5,0,0,1-1.83,1.82,5,5,0,0,1-5,0,5,5,0,0,1-1.82-1.82,4.83,4.83,0,0,1-.67-2.5,4.9,4.9,0,0,1,.67-2.52,5,5,0,0,1,1.82-1.82,4.87,4.87,0,0,1,2.51-.68,5,5,0,0,1,3.55,1.49L82.21,114a2.44,2.44,0,0,0-1.3-.35,2.41,2.41,0,0,0-1.29.35,2.65,2.65,0,0,0-.94.94,2.56,2.56,0,0,0-.35,1.3,2.49,2.49,0,0,0,.35,1.28,2.65,2.65,0,0,0,.94.94,2.41,2.41,0,0,0,1.29.35,2.58,2.58,0,0,0,1.36-.38,2.62,2.62,0,0,0,1-1H80.11V115h5.67A5.63,5.63,0,0,1,85.92,116.2Z"/><path d="M93.5,119v2.15H86.76v-9.9h6.61v2.14H89.29v1.74h3.43v2.14H89.29V119Z"/><path d="M96.34,122l-1.66-.87a10.73,10.73,0,0,0,1.22-3.88,8.32,8.32,0,0,0,.06-1.06,10.24,10.24,0,0,0-.21-2.07,8.73,8.73,0,0,0-.46-1.53,6.51,6.51,0,0,0-.48-1l-.19-.32,1.52-1.07a10.64,10.64,0,0,1,.66,1.23,10.51,10.51,0,0,1,.74,2.26,11.84,11.84,0,0,1,.22,3.75A12.7,12.7,0,0,1,96.34,122Z"/><path d="M110.38,111.87a5.07,5.07,0,0,1,1.82,1.83,5,5,0,0,1,0,5,5.12,5.12,0,0,1-1.82,1.82,5,5,0,0,1-5,0,5.07,5.07,0,0,1-1.83-1.82,5,5,0,0,1,0-5,5,5,0,0,1,1.83-1.83,5,5,0,0,1,5,0Zm-1.22,6.57a2.73,2.73,0,0,0,.94-.94,2.5,2.5,0,0,0,.35-1.29,2.56,2.56,0,0,0-.35-1.3,2.65,2.65,0,0,0-.94-.94,2.5,2.5,0,0,0-1.29-.35,2.52,2.52,0,0,0-1.29.35,2.67,2.67,0,0,0-1,.94,2.56,2.56,0,0,0-.35,1.3,2.5,2.5,0,0,0,.35,1.29,2.76,2.76,0,0,0,1,.94,2.52,2.52,0,0,0,1.29.35A2.5,2.5,0,0,0,109.16,118.44Z"/><path d="M120.6,113.34h-4.37v1.74h3.5v2.14h-3.5v3.88h-2.52v-9.9h6.89Z"/><path d="M133.1,111.2v2.52h-2.53v7.38H128v-7.38H125.5V111.2h7.6Z"/><path d="M139.43,111.2H142v9.9h-2.52v-3.7H136.6v3.7h-2.52v-9.9h2.52v3.68h2.83Z"/><path d="M149.8,119v2.15h-6.73v-9.9h6.61v2.14H145.6v1.74H149v2.14H145.6V119Z"/><path d="M161.39,111.61a3.16,3.16,0,0,1,1.12,1.12,3.07,3.07,0,0,1,.41,1.55,3.06,3.06,0,0,1-1.53,2.66,3,3,0,0,1-1.55.42h-2.35v3.74h-2.37v-9.9h4.72A3,3,0,0,1,161.39,111.61Zm-1,2a1,1,0,0,0-.67-.33h-2.32v2.1h2.32a1,1,0,0,0,.67-.35,1.08,1.08,0,0,0,.27-.72A1,1,0,0,0,160.42,113.56Z"/><path d="M171.84,121.1H169.3l-1.56-3.74h-1.61v3.74h-2.37v-9.9h4.72a3,3,0,0,1,1.54.41,3,3,0,0,1,1.12,1.13,3,3,0,0,1,0,3,3.14,3.14,0,0,1-1,1.12Zm-2.79-7.54a1,1,0,0,0-.66-.33h-2.32v2.1h2.32a1,1,0,0,0,.66-.35,1,1,0,0,0,.27-.72A1,1,0,0,0,169.05,113.56Z"/><path d="M179.92,111.87a5.07,5.07,0,0,1,1.82,1.83,5,5,0,0,1,0,5,5.12,5.12,0,0,1-1.82,1.82,5,5,0,0,1-5,0,5.07,5.07,0,0,1-1.83-1.82,5,5,0,0,1,0-5,5,5,0,0,1,1.83-1.83,5,5,0,0,1,5,0Zm-1.22,6.57a2.7,2.7,0,0,0,.93-.94,2.41,2.41,0,0,0,.36-1.29,2.47,2.47,0,0,0-.36-1.3,2.62,2.62,0,0,0-.93-.94,2.52,2.52,0,0,0-1.29-.35,2.56,2.56,0,0,0-1.3.35,2.65,2.65,0,0,0-.94.94,2.56,2.56,0,0,0-.35,1.3,2.5,2.5,0,0,0,.35,1.29,2.73,2.73,0,0,0,.94.94,2.56,2.56,0,0,0,1.3.35A2.52,2.52,0,0,0,178.7,118.44Z"/><path d="M188.44,111.17h2.34v6.12a3.82,3.82,0,0,1-.53,2,3.94,3.94,0,0,1-1.42,1.42,4,4,0,0,1-3.92,0,4,4,0,0,1-1.42-1.42,3.81,3.81,0,0,1-.52-2v-.41h2.33a2.22,2.22,0,0,0,.45,1.34,1.37,1.37,0,0,0,1.12.52,1.35,1.35,0,0,0,1.13-.58,2.3,2.3,0,0,0,.44-1.43Z"/><path d="M198.63,119v2.15H191.9v-9.9h6.61v2.14h-4.08v1.74h3.43v2.14h-3.43V119Z"/><path d="M205.46,118.55a2.5,2.5,0,0,0,.84-.55l1.71,1.71a4.76,4.76,0,0,1-1.61,1.08,4.82,4.82,0,0,1-1.93.39,4.89,4.89,0,0,1-2.51-.67,5.12,5.12,0,0,1-1.82-1.82,5,5,0,0,1,0-5,5.07,5.07,0,0,1,1.82-1.83,4.89,4.89,0,0,1,2.51-.67,5,5,0,0,1,1.93.38,4.93,4.93,0,0,1,1.61,1.09l-1.71,1.71a2.69,2.69,0,0,0-.84-.56,2.54,2.54,0,0,0-1-.2,2.5,2.5,0,0,0-1.29.35,2.67,2.67,0,0,0-.94,1,2.55,2.55,0,0,0,0,2.58,2.82,2.82,0,0,0,.94.94,2.5,2.5,0,0,0,1.29.35A2.38,2.38,0,0,0,205.46,118.55Z"/><path d="M216.31,111.2v2.52h-2.53v7.38h-2.53v-7.38h-2.54V111.2h7.6Z"/><path d="M217.77,119.37h2.37l-1,3.17H217Z"/><path d="M230.89,118.55a2.5,2.5,0,0,0,.84-.55l1.71,1.71a5,5,0,0,1-1.61,1.08,5,5,0,0,1-4.44-.28,5,5,0,0,1-1.82-1.82,5,5,0,0,1,0-5,5,5,0,0,1,1.82-1.83,4.83,4.83,0,0,1,2.5-.67,5,5,0,0,1,1.94.38,5.15,5.15,0,0,1,1.61,1.09l-1.71,1.71a2.69,2.69,0,0,0-.84-.56,2.62,2.62,0,0,0-1-.2,2.49,2.49,0,0,0-1.28.35,2.52,2.52,0,0,0-.94,1,2.55,2.55,0,0,0,0,2.58,2.65,2.65,0,0,0,.94.94,2.49,2.49,0,0,0,1.28.35A2.46,2.46,0,0,0,230.89,118.55Z"/><path d="M241.51,111.87a5,5,0,0,1-5,8.67,5,5,0,0,1-1.83-1.82,5,5,0,0,1,0-5,4.94,4.94,0,0,1,1.83-1.83,5,5,0,0,1,5,0Zm-1.21,6.57a2.7,2.7,0,0,0,.93-.94,2.41,2.41,0,0,0,.35-1.29,2.46,2.46,0,0,0-.35-1.3,2.62,2.62,0,0,0-.93-.94,2.57,2.57,0,0,0-2.59,0,2.65,2.65,0,0,0-.94.94,2.46,2.46,0,0,0-.35,1.3,2.41,2.41,0,0,0,.35,1.29,2.73,2.73,0,0,0,.94.94,2.57,2.57,0,0,0,2.59,0Z"/><path d="M252.48,111.2H255v9.9h-2.52v-5.59l-1.24,2.24-.05.11h-2.52l-.07-.11-.17-.32-1.05-1.92v5.59h-2.53v-9.9h2.53l2.55,4.21Z"/><path d="M263.75,111.2h2.52v9.9h-2.52v-5.59l-1.24,2.24-.05.11h-2.52l-.07-.11-.17-.32-1.05-1.92v5.59h-2.53v-9.9h2.53l2.55,4.21Z"/><path d="M275.44,111.21v6.12a3.82,3.82,0,0,1-.53,2,3.9,3.9,0,0,1-1.43,1.42,3.82,3.82,0,0,1-2,.53h-.23a3.82,3.82,0,0,1-2-.53,3.87,3.87,0,0,1-1.42-1.42,3.81,3.81,0,0,1-.52-2v-6.12h2.33v5.56a2.36,2.36,0,0,0,.42,1.44,1.37,1.37,0,0,0,1.15.58h.23a1.39,1.39,0,0,0,1.14-.59,2.3,2.3,0,0,0,.44-1.43v-5.56Z"/><path d="M282,111.2h2.52v9.9H282l-2.91-5.31v5.31h-2.53v-9.9h2.53l2.91,5.3Z"/><path d="M288.16,111.2v9.9h-2.52v-9.9Z"/><path d="M295,118.55a2.5,2.5,0,0,0,.84-.55l1.71,1.71a4.76,4.76,0,0,1-1.61,1.08,5,5,0,0,1-4.44-.28,5.12,5.12,0,0,1-1.82-1.82,5,5,0,0,1,0-5,5.07,5.07,0,0,1,1.82-1.83,4.87,4.87,0,0,1,2.51-.67,5,5,0,0,1,1.93.38,4.93,4.93,0,0,1,1.61,1.09l-1.71,1.71a2.69,2.69,0,0,0-.84-.56,2.57,2.57,0,0,0-1-.2,2.5,2.5,0,0,0-1.29.35,2.67,2.67,0,0,0-.94,1,2.55,2.55,0,0,0,0,2.58,2.82,2.82,0,0,0,.94.94,2.5,2.5,0,0,0,1.29.35A2.41,2.41,0,0,0,295,118.55Z"/><path d="M303.53,111.3l3.24,9.8h-2.44l-.64-2h-3.07l-.63,2h-2.45l3.25-9.8Zm-2.25,5.75H303l-.88-2.77Z"/><path d="M314.51,111.2v2.52H312v7.38h-2.54v-7.38h-2.53V111.2h7.6Z"/><path d="M318,111.2v9.9h-2.52v-9.9Z"/><path d="M326.37,111.87a5.07,5.07,0,0,1,1.82,1.83,5,5,0,0,1,0,5,5.12,5.12,0,0,1-1.82,1.82,5,5,0,0,1-5,0,5.07,5.07,0,0,1-1.83-1.82,5,5,0,0,1,0-5,5,5,0,0,1,1.83-1.83,5,5,0,0,1,5,0Zm-1.22,6.57a2.82,2.82,0,0,0,.94-.94,2.5,2.5,0,0,0,.35-1.29,2.56,2.56,0,0,0-.35-1.3,2.73,2.73,0,0,0-.94-.94,2.5,2.5,0,0,0-1.29-.35,2.52,2.52,0,0,0-1.29.35,2.67,2.67,0,0,0-.95.94,2.56,2.56,0,0,0-.35,1.3,2.5,2.5,0,0,0,.35,1.29,2.76,2.76,0,0,0,.95.94,2.52,2.52,0,0,0,1.29.35A2.5,2.5,0,0,0,325.15,118.44Z"/><path d="M335.15,111.2h2.52v9.9h-2.52l-2.92-5.31v5.31H329.7v-9.9h2.53l2.92,5.3Z"/><path d="M40.21,128H42.4v9.9H39.88l-2.55-4.22-2.56,4.22H32.25V128h2.52v5.58L36,131.34l.07-.11h2.52l0,.11,1.24,2.24V128Z"/><path d="M46,128v9.9H43.52V128Z"/><path d="M54.62,128v2.52H52.08v7.38H49.55v-7.38H47V128h7.6Z"/><path d="M61,128h2.52v9.9H61v-3.7H58.12v3.7H55.6V128h2.52v3.68H61Z"/><path d="M75.05,128.41a3.16,3.16,0,0,1,1.12,1.12,3,3,0,0,1,.41,1.55,2.94,2.94,0,0,1-.41,1.54,3.1,3.1,0,0,1-2.67,1.54H71.15v3.74H68.79V128H73.5A3,3,0,0,1,75.05,128.41Zm-1,2a1,1,0,0,0-.66-.33H71.09v2.1h2.33a.94.94,0,0,0,.66-.35,1,1,0,0,0,.28-.72A1,1,0,0,0,74.08,130.36Z"/><path d="M85.47,128v6.12a3.81,3.81,0,0,1-.52,2,3.9,3.9,0,0,1-1.43,1.42,3.85,3.85,0,0,1-2,.53h-.22a3.82,3.82,0,0,1-2-.53A3.87,3.87,0,0,1,78,136.09a3.82,3.82,0,0,1-.53-2V128h2.34v5.56a2.36,2.36,0,0,0,.42,1.44,1.35,1.35,0,0,0,1.15.57h.22a1.35,1.35,0,0,0,1.14-.58,2.24,2.24,0,0,0,.44-1.43V128Z"/><path d="M94.05,133.72a2.69,2.69,0,0,1,.33,1.32,2.8,2.8,0,0,1-.38,1.42,2.88,2.88,0,0,1-2.47,1.44H86.59V128h4.5a2.65,2.65,0,0,1,1.44.4,2.77,2.77,0,0,1,1,1,2.86,2.86,0,0,1,.18,2.43,2.63,2.63,0,0,1-.55.87A2.76,2.76,0,0,1,94.05,133.72Zm-2.61-3.41a1,1,0,0,0-.72-.3H88.9v2.1h1.82l.34-.05a1.11,1.11,0,0,0,.25-.14,1.05,1.05,0,0,0,.32-.38,1.09,1.09,0,0,0-.19-1.23Zm.42,5.23a1,1,0,0,0,.29-.74,1,1,0,0,0-.24-.66,1,1,0,0,0-.6-.36H88.9v2.1h2.24A1,1,0,0,0,91.86,135.54Z"/><path d="M97.74,135.52h3.89v2.38H95.22V128h2.52Z"/><path d="M105.13,128v9.9h-2.52V128Z"/><path d="M112,135.35a2.5,2.5,0,0,0,.84-.55l1.71,1.71a5,5,0,0,1-1.61,1.08A4.86,4.86,0,0,1,111,138a5,5,0,0,1-2.51-.67,5.12,5.12,0,0,1-1.82-1.82,5,5,0,0,1,0-5,5.07,5.07,0,0,1,1.82-1.83A4.87,4.87,0,0,1,111,128a5,5,0,0,1,1.93.38,5.15,5.15,0,0,1,1.61,1.09l-1.71,1.71a2.69,2.69,0,0,0-.84-.56,2.61,2.61,0,0,0-1-.2,2.5,2.5,0,0,0-1.29.35,2.6,2.6,0,0,0-.94.95,2.55,2.55,0,0,0,0,2.58,2.73,2.73,0,0,0,.94.94,2.5,2.5,0,0,0,1.29.35A2.45,2.45,0,0,0,112,135.35Z"/><path d="M120.5,128.1l3.23,9.8H121.3l-.64-2h-3.07l-.63,2h-2.45l3.25-9.8Zm-2.25,5.75H120l-.88-2.77Z"/><path d="M131.48,128v2.52h-2.54v7.38h-2.53v-7.38h-2.53V128h7.6Z"/><path d="M135,128v9.9h-2.52V128Z"/><path d="M143.33,128.67a5,5,0,0,1,1.83,1.83,5,5,0,0,1-1.83,6.83,5,5,0,0,1-5,0,5,5,0,0,1-1.83-1.81,5,5,0,0,1,0-5,5,5,0,0,1,1.83-1.83,5,5,0,0,1,5,0Zm-1.21,6.57a2.7,2.7,0,0,0,.93-.94,2.41,2.41,0,0,0,.36-1.29,2.47,2.47,0,0,0-.36-1.3,2.62,2.62,0,0,0-.93-.94,2.52,2.52,0,0,0-1.29-.35,2.56,2.56,0,0,0-1.3.35,2.65,2.65,0,0,0-.94.94,2.56,2.56,0,0,0-.35,1.3,2.5,2.5,0,0,0,.35,1.29,2.73,2.73,0,0,0,.94.94,2.55,2.55,0,0,0,1.3.34A2.51,2.51,0,0,0,142.12,135.24Z"/><path d="M152.11,128h2.52v9.9h-2.52l-2.91-5.31v5.31h-2.53V128h2.53l2.91,5.3Z"/><path d="M160.27,131.13V131a.86.86,0,0,0-.34-.69,1.27,1.27,0,0,0-.83-.29,1.33,1.33,0,0,0-.86.29.85.85,0,0,0-.36.69.64.64,0,0,0,.36.6,3.22,3.22,0,0,0,1,.4l.21,0,.25,0a4.92,4.92,0,0,1,2,.83l.13.11a2.88,2.88,0,0,1,.66,1,2.67,2.67,0,0,1,0,2.32,3,3,0,0,1-.79,1,3.76,3.76,0,0,1-1.17.67,4.25,4.25,0,0,1-1.38.23,4.13,4.13,0,0,1-1.36-.23,4,4,0,0,1-1.17-.67,3.26,3.26,0,0,1-.8-1,2.78,2.78,0,0,1-.28-1.2v-.18h2.45v.18a.87.87,0,0,0,.35.69,1.22,1.22,0,0,0,.81.29,1.36,1.36,0,0,0,.87-.29.87.87,0,0,0,.35-.69.79.79,0,0,0-.38-.62,1.79,1.79,0,0,0-.39-.21l-.54-.17-.47-.11c-.51-.13-.91-.25-1.2-.35a2.51,2.51,0,0,1-.8-.47l-.05-.06a3.13,3.13,0,0,1-.74-1,2.69,2.69,0,0,1-.26-1.15,2.78,2.78,0,0,1,.28-1.2,3.15,3.15,0,0,1,.8-1,3.79,3.79,0,0,1,1.17-.67,4.13,4.13,0,0,1,1.36-.23,4.25,4.25,0,0,1,1.38.23,3.57,3.57,0,0,1,1.17.67,2.87,2.87,0,0,1,.79,1,2.64,2.64,0,0,1,.28,1.2v.18Z"/><path d="M172.89,128.1l3.23,9.8h-2.43l-.65-2H170l-.63,2H166.9l3.24-9.8Zm-2.26,5.75h1.77l-.88-2.77Z"/><path d="M181.85,128h2.52v9.9h-2.52l-2.91-5.31v5.31H176.4V128h2.54l2.91,5.3Z"/><path d="M189.83,128a5.68,5.68,0,0,1,1.49.36,4.36,4.36,0,0,1,1.36.85,5,5,0,0,1,1.22,1.7,5.17,5.17,0,0,1,.42,2,4.85,4.85,0,0,1-.54,2.28,4.49,4.49,0,0,1-1.54,1.75,5.29,5.29,0,0,1-2,.79,14.37,14.37,0,0,1-2.5.19h-2.24v-10H188C188.72,127.89,189.32,127.91,189.83,128Zm2.08,5a2.59,2.59,0,0,0-.33-1.27,2.7,2.7,0,0,0-.92-.95,2.39,2.39,0,0,0-1.27-.38H188v5.16a10.73,10.73,0,0,0,1.73-.12,2.79,2.79,0,0,0,1.3-.55,2.18,2.18,0,0,0,.79-1.3A2.55,2.55,0,0,0,191.91,132.91Z"/><path d="M201.88,128v9.9h-2.52V128Z"/><path d="M208.45,128H211v9.9h-2.52l-2.91-5.31v5.31H203V128h2.54l2.91,5.3Z"/><path d="M216.43,128a5.68,5.68,0,0,1,1.49.36,4.36,4.36,0,0,1,1.36.85,5,5,0,0,1,1.22,1.7,5.17,5.17,0,0,1,.42,2,4.85,4.85,0,0,1-.54,2.28,4.57,4.57,0,0,1-1.54,1.75,5.29,5.29,0,0,1-2,.79,14.37,14.37,0,0,1-2.5.19h-2.24v-10h2.53C215.32,127.89,215.92,127.91,216.43,128Zm2.08,5a2.59,2.59,0,0,0-.33-1.27,2.7,2.7,0,0,0-.92-.95,2.39,2.39,0,0,0-1.27-.38h-1.37v5.16a10.73,10.73,0,0,0,1.73-.12,2.79,2.79,0,0,0,1.3-.55,2.18,2.18,0,0,0,.79-1.3A2.55,2.55,0,0,0,218.51,132.91Z"/><path d="M224.28,128v9.9h-2.52V128Z"/><path d="M231.91,128h2.75l-3.24,9.93h-3.08L225.12,128h2.77l2,6.19Z"/><path d="M238,128v9.9H235.5V128Z"/><path d="M243.48,128a5.68,5.68,0,0,1,1.49.36,4.36,4.36,0,0,1,1.36.85,5.11,5.11,0,0,1,1.64,3.74,4.74,4.74,0,0,1-.55,2.28,4.47,4.47,0,0,1-1.53,1.75,5.29,5.29,0,0,1-2,.79,14.37,14.37,0,0,1-2.5.19h-2.24v-10h2.53C242.37,127.89,243,127.91,243.48,128Zm2.08,5a2.59,2.59,0,0,0-.33-1.27,2.7,2.7,0,0,0-.92-.95,2.39,2.39,0,0,0-1.27-.38h-1.37v5.16a10.73,10.73,0,0,0,1.73-.12,2.84,2.84,0,0,0,1.3-.55,2.18,2.18,0,0,0,.79-1.3A2.55,2.55,0,0,0,245.56,132.91Z"/><path d="M256.86,128v6.12a3.82,3.82,0,0,1-.53,2,3.92,3.92,0,0,1-3.39,1.95h-.22a3.79,3.79,0,0,1-2-.53,3.9,3.9,0,0,1-1.43-1.42,3.81,3.81,0,0,1-.52-2V128h2.34v5.56a2.36,2.36,0,0,0,.42,1.44,1.35,1.35,0,0,0,1.15.57h.22a1.35,1.35,0,0,0,1.14-.58,2.24,2.24,0,0,0,.44-1.43V128Z"/><path d="M263.13,128.1l3.24,9.8h-2.44l-.64-2h-3.07l-.63,2h-2.45l3.25-9.8Zm-2.25,5.75h1.76l-.88-2.77Z"/><path d="M269.17,135.52h3.89v2.38h-6.41V128h2.52Z"/><path d="M283.39,128.1l3.23,9.8h-2.43l-.65-2h-3.06l-.63,2H277.4l3.25-9.8Zm-2.25,5.75h1.76l-.88-2.77Z"/><path d="M295,128v6.12a3.81,3.81,0,0,1-.52,2,3.9,3.9,0,0,1-1.43,1.42,3.85,3.85,0,0,1-2,.53h-.22a3.82,3.82,0,0,1-2-.53,3.87,3.87,0,0,1-1.42-1.42,3.82,3.82,0,0,1-.53-2V128h2.34v5.56a2.36,2.36,0,0,0,.42,1.44,1.35,1.35,0,0,0,1.15.57H291a1.35,1.35,0,0,0,1.14-.58,2.24,2.24,0,0,0,.45-1.43V128Z"/><path d="M303.54,128v2.52H301v7.38h-2.53v-7.38h-2.54V128h7.61Z"/><path d="M309.86,128h2.52v9.9h-2.52v-3.7H307v3.7h-2.52V128H307v3.68h2.82Z"/><path d="M320.74,128.67a5,5,0,0,1,1.82,1.83,5,5,0,0,1,0,5,4.94,4.94,0,0,1-1.82,1.81,4.84,4.84,0,0,1-2.5.68,5,5,0,1,1,0-10A4.83,4.83,0,0,1,320.74,128.67Zm-1.22,6.57a2.65,2.65,0,0,0,.94-.94,2.5,2.5,0,0,0,.35-1.29,2.59,2.59,0,0,0-1.29-2.24,2.49,2.49,0,0,0-1.28-.35,2.59,2.59,0,0,0-2.24,1.29,2.46,2.46,0,0,0-.35,1.3,2.41,2.41,0,0,0,.35,1.29,2.65,2.65,0,0,0,.94.94,2.55,2.55,0,0,0,1.3.34A2.48,2.48,0,0,0,319.52,135.24Z"/><path d="M332.15,137.9h-2.53l-1.57-3.74h-1.61v3.74h-2.37V128h4.72a3,3,0,0,1,1.54.41,3.07,3.07,0,0,1,1.54,2.67,2.88,2.88,0,0,1-.38,1.47,3.14,3.14,0,0,1-1,1.12Zm-2.78-7.54a1,1,0,0,0-.66-.33h-2.33v2.1h2.33a1,1,0,0,0,.66-.35,1.08,1.08,0,0,0,.26-.72A1,1,0,0,0,329.37,130.36Z"/><path d="M337.51,131.13V131a.86.86,0,0,0-.34-.69,1.27,1.27,0,0,0-.83-.29,1.31,1.31,0,0,0-.86.29.85.85,0,0,0-.36.69.64.64,0,0,0,.36.6,3.27,3.27,0,0,0,.95.4l.22,0,.25,0a4.92,4.92,0,0,1,2,.83l.13.11a3,3,0,0,1,.66,1,2.77,2.77,0,0,1,0,2.32,3,3,0,0,1-.79,1,3.88,3.88,0,0,1-1.17.67,4.25,4.25,0,0,1-1.38.23A4.13,4.13,0,0,1,335,138a3.76,3.76,0,0,1-1.17-.67,3.12,3.12,0,0,1-.8-1,2.64,2.64,0,0,1-.28-1.2v-.18h2.45v.18a.89.89,0,0,0,.34.69,1.26,1.26,0,0,0,.82.29,1.31,1.31,0,0,0,.86-.29.85.85,0,0,0,.36-.69.79.79,0,0,0-.38-.62,1.79,1.79,0,0,0-.39-.21l-.55-.17-.46-.11c-.51-.13-.91-.25-1.2-.35a2.41,2.41,0,0,1-.8-.47l-.05-.06a3.13,3.13,0,0,1-.74-1,2.69,2.69,0,0,1-.26-1.15,2.64,2.64,0,0,1,.28-1.2,3,3,0,0,1,.8-1,3.57,3.57,0,0,1,1.17-.67,4.13,4.13,0,0,1,1.36-.23,4.25,4.25,0,0,1,1.38.23,3.68,3.68,0,0,1,1.17.67,2.87,2.87,0,0,1,.79,1,2.77,2.77,0,0,1,.27,1.2v.18Z"/><path d="M341.25,136.17h2.37l-1,3.17H340.5Z"/><path d="M36.58,144.76a5.66,5.66,0,0,1,1.5.36,4.36,4.36,0,0,1,1.36.85,5.11,5.11,0,0,1,1.64,3.74,4.74,4.74,0,0,1-.55,2.28A4.47,4.47,0,0,1,39,153.74a5.27,5.27,0,0,1-2,.79,14.17,14.17,0,0,1-2.49.19H32.25v-10h2.53C35.48,144.69,36.08,144.71,36.58,144.76Zm2.09,5a2.49,2.49,0,0,0-.34-1.27,2.59,2.59,0,0,0-.91-.95,2.39,2.39,0,0,0-1.27-.38H34.78v5.16a10.73,10.73,0,0,0,1.73-.12,2.84,2.84,0,0,0,1.3-.55,2.18,2.18,0,0,0,.79-1.3A2.62,2.62,0,0,0,38.67,149.71Z"/><path d="M44.44,144.8v9.9H41.92v-9.9Z"/><path d="M50.08,147.93v-.18a.86.86,0,0,0-.34-.69,1.27,1.27,0,0,0-.83-.29,1.36,1.36,0,0,0-.87.29.87.87,0,0,0-.35.69.64.64,0,0,0,.36.6,3.15,3.15,0,0,0,1,.4.93.93,0,0,1,.22,0l.24.05a5,5,0,0,1,2,.83l.12.11a3.06,3.06,0,0,1,.67,1,2.77,2.77,0,0,1,0,2.32,3.19,3.19,0,0,1-.79,1,3.93,3.93,0,0,1-1.18.67,4.19,4.19,0,0,1-1.37.23,4.13,4.13,0,0,1-1.36-.23,3.76,3.76,0,0,1-1.17-.67,3.23,3.23,0,0,1-.8-1,2.64,2.64,0,0,1-.28-1.2v-.18h2.45v.18a.86.86,0,0,0,.34.69,1.24,1.24,0,0,0,.82.29,1.33,1.33,0,0,0,.86-.29.85.85,0,0,0,.36-.69.82.82,0,0,0-.38-.62,1.79,1.79,0,0,0-.39-.21l-.55-.17-.46-.11c-.51-.13-.91-.25-1.2-.35a2.41,2.41,0,0,1-.8-.47l-.06-.06a3.26,3.26,0,0,1-.73-1,2.69,2.69,0,0,1-.26-1.15,2.64,2.64,0,0,1,.28-1.2,3.12,3.12,0,0,1,.8-1,3.57,3.57,0,0,1,1.17-.67,4.13,4.13,0,0,1,1.36-.23,4.19,4.19,0,0,1,1.37.23,3.72,3.72,0,0,1,1.18.67,3.09,3.09,0,0,1,.79,1,2.77,2.77,0,0,1,.27,1.2v.18Z"/><path d="M59.06,152.15a2.91,2.91,0,0,0,.84-.55l1.7,1.71A4.76,4.76,0,0,1,60,154.39a5,5,0,0,1-4.43-.28,5,5,0,0,1-1.82-1.82,5,5,0,0,1,4.32-7.52,5,5,0,0,1,1.93.38,4.93,4.93,0,0,1,1.61,1.09L59.9,148a2.94,2.94,0,0,0-.84-.56,2.62,2.62,0,0,0-1-.2,2.52,2.52,0,0,0-1.29.35,2.76,2.76,0,0,0-.94,1,2.51,2.51,0,0,0-.34,1.29,2.49,2.49,0,0,0,.34,1.29,2.82,2.82,0,0,0,.94.94,2.52,2.52,0,0,0,1.29.35A2.46,2.46,0,0,0,59.06,152.15Z"/><path d="M70.49,144.81v6.12a3.81,3.81,0,0,1-.52,2,3.9,3.9,0,0,1-1.43,1.42,3.85,3.85,0,0,1-2,.53h-.22a3.82,3.82,0,0,1-2-.53A3.87,3.87,0,0,1,63,152.89a3.82,3.82,0,0,1-.53-2v-6.12h2.34v5.56a2.36,2.36,0,0,0,.42,1.44,1.36,1.36,0,0,0,1.15.58h.22a1.36,1.36,0,0,0,1.14-.59,2.24,2.24,0,0,0,.45-1.43v-5.56Z"/><path d="M76.14,147.93v-.18a.87.87,0,0,0-.35-.69,1.25,1.25,0,0,0-.83-.29,1.33,1.33,0,0,0-.86.29.85.85,0,0,0-.36.69.63.63,0,0,0,.37.6,3.15,3.15,0,0,0,1,.4.86.86,0,0,1,.21,0l.25.05a4.86,4.86,0,0,1,2,.83l.13.11a2.88,2.88,0,0,1,.66,1,2.67,2.67,0,0,1,0,2.32,3.06,3.06,0,0,1-.79,1,3.76,3.76,0,0,1-1.17.67A4.24,4.24,0,0,1,75,155a4.15,4.15,0,0,1-1.37-.23,4,4,0,0,1-1.17-.67,3.38,3.38,0,0,1-.8-1,2.78,2.78,0,0,1-.28-1.2v-.18h2.45v.18a.87.87,0,0,0,.35.69,1.24,1.24,0,0,0,.82.29,1.35,1.35,0,0,0,.86-.29.87.87,0,0,0,.35-.69.81.81,0,0,0-.37-.62,2.15,2.15,0,0,0-.4-.21l-.54-.17-.46-.11c-.52-.13-.92-.25-1.21-.35a2.51,2.51,0,0,1-.8-.47l0-.06a3.13,3.13,0,0,1-.74-1,2.69,2.69,0,0,1-.26-1.15,2.78,2.78,0,0,1,.28-1.2,3.26,3.26,0,0,1,.8-1,3.79,3.79,0,0,1,1.17-.67,4.15,4.15,0,0,1,1.37-.23,4.24,4.24,0,0,1,1.37.23,3.57,3.57,0,0,1,1.17.67,3,3,0,0,1,.79,1,2.64,2.64,0,0,1,.28,1.2v.18Z"/><path d="M83.92,147.93v-.18a.86.86,0,0,0-.34-.69,1.28,1.28,0,0,0-.84-.29,1.35,1.35,0,0,0-.86.29.84.84,0,0,0-.35.69.64.64,0,0,0,.36.6,3.15,3.15,0,0,0,1,.4.93.93,0,0,1,.22,0l.24.05a5,5,0,0,1,2,.83l.12.11a3.06,3.06,0,0,1,.67,1,2.77,2.77,0,0,1,0,2.32,3.19,3.19,0,0,1-.79,1,3.93,3.93,0,0,1-1.18.67,4.2,4.2,0,0,1-2.74,0,3.83,3.83,0,0,1-1.16-.67,3.09,3.09,0,0,1-.8-1,2.64,2.64,0,0,1-.28-1.2v-.18h2.45v.18a.86.86,0,0,0,.34.69,1.24,1.24,0,0,0,.82.29,1.33,1.33,0,0,0,.86-.29.85.85,0,0,0,.36-.69.82.82,0,0,0-.38-.62,1.79,1.79,0,0,0-.39-.21l-.55-.17-.46-.11c-.51-.13-.92-.25-1.2-.35a2.41,2.41,0,0,1-.8-.47l-.06-.06a3.1,3.1,0,0,1-.73-1,2.55,2.55,0,0,1-.26-1.15,2.64,2.64,0,0,1,.28-1.2,3,3,0,0,1,.8-1,3.63,3.63,0,0,1,1.16-.67,4.2,4.2,0,0,1,2.74,0,3.72,3.72,0,0,1,1.18.67,3.09,3.09,0,0,1,.79,1,2.77,2.77,0,0,1,.27,1.2v.18Z"/><path d="M89.7,144.8v9.9H87.18v-9.9Z"/><path d="M98.06,145.47a5,5,0,0,1,1.82,1.83,5,5,0,0,1,0,5,5,5,0,0,1-1.82,1.82,5,5,0,0,1-5,0,5.07,5.07,0,0,1-1.83-1.82A5,5,0,0,1,93,145.47a5,5,0,0,1,5,0ZM96.84,152a2.73,2.73,0,0,0,.94-.94,2.5,2.5,0,0,0,.35-1.29,2.56,2.56,0,0,0-.35-1.3,2.65,2.65,0,0,0-.94-.94,2.5,2.5,0,0,0-1.29-.35,2.55,2.55,0,0,0-1.29.35,2.67,2.67,0,0,0-1,.94,2.56,2.56,0,0,0-.35,1.3,2.5,2.5,0,0,0,.35,1.29,2.76,2.76,0,0,0,1,.94,2.55,2.55,0,0,0,1.29.35A2.5,2.5,0,0,0,96.84,152Z"/><path d="M106.84,144.8h2.52v9.9h-2.52l-2.91-5.31v5.31h-2.54v-9.9h2.54l2.91,5.3Z"/><path d="M119.83,144.9l3.23,9.8h-2.43l-.65-2h-3.06l-.63,2h-2.45l3.24-9.8Zm-2.25,5.75h1.76l-.88-2.77Z"/><path d="M128.79,144.8h2.52v9.9h-2.52l-2.91-5.31v5.31h-2.54v-9.9h2.54l2.91,5.3Z"/><path d="M136.77,144.76a5.68,5.68,0,0,1,1.49.36,4.4,4.4,0,0,1,1.37.85,5.05,5.05,0,0,1,1.63,3.74,4.85,4.85,0,0,1-.54,2.28,4.49,4.49,0,0,1-1.54,1.75,5.29,5.29,0,0,1-2,.79,14.29,14.29,0,0,1-2.5.19h-2.24v-10H135C135.66,144.69,136.27,144.71,136.77,144.76Zm2.09,5a2.6,2.6,0,0,0-.34-1.27,2.7,2.7,0,0,0-.92-.95,2.39,2.39,0,0,0-1.27-.38H135v5.16a10.65,10.65,0,0,0,1.73-.12,2.79,2.79,0,0,0,1.3-.55,2.19,2.19,0,0,0,.8-1.3A3.36,3.36,0,0,0,138.86,149.71Z"/><path d="M156,149.8a4.83,4.83,0,0,1-.67,2.5,5,5,0,0,1-1.83,1.82,5,5,0,0,1-5,0,4.94,4.94,0,0,1-1.81-1.82,4.84,4.84,0,0,1-.68-2.5,5,5,0,0,1,5-5,4.76,4.76,0,0,1,1.95.4,4.93,4.93,0,0,1,1.61,1.09l-2.26,1.29a2.57,2.57,0,0,0-2.59,0,2.65,2.65,0,0,0-.94.94,2.55,2.55,0,0,0-.34,1.3,2.48,2.48,0,0,0,.34,1.28,2.65,2.65,0,0,0,.94.94,2.52,2.52,0,0,0,1.29.35,2.56,2.56,0,0,0,1.36-.38,2.62,2.62,0,0,0,1-1h-3.11v-2.33h5.67A5,5,0,0,1,156,149.8Z"/><path d="M163.61,152.55v2.15h-6.74v-9.9h6.61v2.14h-4.07v1.74h3.43v2.14h-3.43v1.73Z"/><path d="M170.17,144.8h2.52v9.9h-2.52l-2.91-5.31v5.31h-2.53v-9.9h2.53l2.91,5.3Z"/><path d="M180.55,152.55v2.15h-6.74v-9.9h6.61v2.14h-4.07v1.74h3.43v2.14h-3.43v1.73Z"/><path d="M189.75,154.7h-2.54L185.64,151H184v3.74h-2.36v-9.9h4.71a3,3,0,0,1,1.54.41,3.09,3.09,0,0,1,1.17,4.14,3.26,3.26,0,0,1-1,1.12ZM187,147.16a1,1,0,0,0-.66-.33H184v2.1h2.32a1,1,0,0,0,.66-.35,1,1,0,0,0,.26-.72A1,1,0,0,0,187,147.16Z"/><path d="M195.74,144.9l3.23,9.8h-2.44l-.64-2h-3.07l-.63,2h-2.44l3.24-9.8Zm-2.26,5.75h1.77l-.89-2.77Z"/><path d="M206.71,144.8v2.52h-2.53v7.38h-2.54v-7.38h-2.53V144.8h7.6Z"/><path d="M210.21,144.8v9.9h-2.52v-9.9Z"/><path d="M218.57,145.47a5,5,0,0,1,1.82,1.83,5,5,0,0,1,0,5,5,5,0,0,1-1.82,1.82,4.94,4.94,0,0,1-2.51.67,5,5,0,0,1-2.51-.67,5.07,5.07,0,0,1-1.83-1.82,5,5,0,0,1,1.83-6.85,4.89,4.89,0,0,1,2.51-.67A4.84,4.84,0,0,1,218.57,145.47ZM217.35,152a2.65,2.65,0,0,0,.94-.94,2.5,2.5,0,0,0,.35-1.29,2.59,2.59,0,0,0-1.29-2.24,2.5,2.5,0,0,0-1.29-.35,2.55,2.55,0,0,0-1.29.35,2.67,2.67,0,0,0-1,.94,2.56,2.56,0,0,0-.35,1.3,2.5,2.5,0,0,0,.35,1.29,2.76,2.76,0,0,0,1,.94,2.55,2.55,0,0,0,1.29.35A2.5,2.5,0,0,0,217.35,152Z"/><path d="M227.35,144.8h2.52v9.9h-2.52l-2.91-5.31v5.31H221.9v-9.9h2.54l2.91,5.3Z"/><path d="M242.43,145.47a5.07,5.07,0,0,1,1.82,1.83,5,5,0,0,1,0,5,5.12,5.12,0,0,1-1.82,1.82,5,5,0,0,1-5,0,5.07,5.07,0,0,1-1.83-1.82,5,5,0,0,1,0-5,5,5,0,0,1,1.83-1.83,5,5,0,0,1,5,0ZM241.21,152a2.82,2.82,0,0,0,.94-.94,2.5,2.5,0,0,0,.35-1.29,2.56,2.56,0,0,0-.35-1.3,2.73,2.73,0,0,0-.94-.94,2.55,2.55,0,0,0-2.58,0,2.6,2.6,0,0,0-.95.94,2.56,2.56,0,0,0-.35,1.3,2.5,2.5,0,0,0,.35,1.29,2.67,2.67,0,0,0,.95.94,2.55,2.55,0,0,0,2.58,0Z"/><path d="M252.65,146.94h-4.37v1.74h3.5v2.14h-3.5v3.88h-2.52v-9.9h6.89Z"/><path d="M265.15,144.8v2.52h-2.54v7.38h-2.53v-7.38h-2.53V144.8h7.6Z"/><path d="M273.37,145.47a5.07,5.07,0,0,1,1.82,1.83,5,5,0,0,1,0,5,5.12,5.12,0,0,1-1.82,1.82,5,5,0,0,1-5,0,5.07,5.07,0,0,1-1.83-1.82,5,5,0,0,1,0-5,5,5,0,0,1,1.83-1.83,5,5,0,0,1,5,0ZM272.15,152a2.82,2.82,0,0,0,.94-.94,2.5,2.5,0,0,0,.35-1.29,2.56,2.56,0,0,0-.35-1.3,2.73,2.73,0,0,0-.94-.94,2.5,2.5,0,0,0-1.29-.35,2.56,2.56,0,0,0-1.3.35,2.65,2.65,0,0,0-.94.94,2.56,2.56,0,0,0-.35,1.3,2.5,2.5,0,0,0,.35,1.29,2.73,2.73,0,0,0,.94.94,2.56,2.56,0,0,0,1.3.35A2.5,2.5,0,0,0,272.15,152Z"/><path d="M283,145.21a3.08,3.08,0,0,1,1.12,1.12,3,3,0,0,1,.42,1.55,3.1,3.1,0,0,1-3.08,3.08h-2.36v3.74H276.7v-9.9h4.72A3,3,0,0,1,283,145.21Zm-1,1.95a1,1,0,0,0-.67-.33H279v2.1h2.32a1,1,0,0,0,.67-.35,1.06,1.06,0,0,0,.27-.72A1,1,0,0,0,282,147.16Z"/><path d="M287.86,144.8v9.9h-2.53v-9.9Z"/><path d="M294.69,152.15a2.91,2.91,0,0,0,.84-.55l1.71,1.71a5,5,0,0,1-1.61,1.08,4.91,4.91,0,0,1-1.94.39,4.83,4.83,0,0,1-2.5-.67,5,5,0,0,1-1.82-1.82,5,5,0,0,1,0-5,5,5,0,0,1,1.82-1.83,4.83,4.83,0,0,1,2.5-.67,5.08,5.08,0,0,1,1.94.38,5.15,5.15,0,0,1,1.61,1.09L295.53,148a2.94,2.94,0,0,0-.84-.56,2.62,2.62,0,0,0-1-.2,2.49,2.49,0,0,0-1.28.35,2.59,2.59,0,0,0-.94,1,2.43,2.43,0,0,0-.35,1.29,2.41,2.41,0,0,0,.35,1.29,2.65,2.65,0,0,0,.94.94,2.49,2.49,0,0,0,1.28.35A2.46,2.46,0,0,0,294.69,152.15Z"/><path d="M302.6,147.93v-.18a.87.87,0,0,0-.35-.69,1.23,1.23,0,0,0-.83-.29,1.33,1.33,0,0,0-.86.29.85.85,0,0,0-.36.69.63.63,0,0,0,.37.6,3.15,3.15,0,0,0,.95.4,1,1,0,0,1,.22,0l.24.05a4.86,4.86,0,0,1,2,.83l.13.11a2.88,2.88,0,0,1,.66,1,2.64,2.64,0,0,1,.25,1.12,2.77,2.77,0,0,1-.27,1.2,3.34,3.34,0,0,1-.79,1,3.93,3.93,0,0,1-1.18.67,4.24,4.24,0,0,1-1.37.23,4.19,4.19,0,0,1-1.37-.23,4,4,0,0,1-1.17-.67,3.19,3.19,0,0,1-.79-1,2.65,2.65,0,0,1-.29-1.2v-.18h2.46v.18a.86.86,0,0,0,.34.69,1.24,1.24,0,0,0,.82.29,1.35,1.35,0,0,0,.86-.29.85.85,0,0,0,.36-.69.82.82,0,0,0-.38-.62,2.06,2.06,0,0,0-.39-.21l-.55-.17-.46-.11c-.52-.13-.92-.25-1.21-.35a2.37,2.37,0,0,1-.79-.47l-.06-.06a3.29,3.29,0,0,1-.74-1,2.69,2.69,0,0,1-.26-1.15,2.65,2.65,0,0,1,.29-1.2,3.09,3.09,0,0,1,.79-1,3.79,3.79,0,0,1,1.17-.67,4.19,4.19,0,0,1,1.37-.23,4.24,4.24,0,0,1,1.37.23,3.72,3.72,0,0,1,1.18.67,3.23,3.23,0,0,1,.79,1,2.77,2.77,0,0,1,.27,1.2v.18Z"/><path d="M306.34,153h2.36l-1,3.17h-2.09Z"/><path d="M38,169a2.91,2.91,0,0,0,.84-.55l1.7,1.71a4.81,4.81,0,0,1-1.6,1.08,4.91,4.91,0,0,1-1.94.39,4.83,4.83,0,0,1-2.5-.67,5,5,0,0,1-1.82-1.82A5,5,0,0,1,37,161.57a5.08,5.08,0,0,1,1.94.38A5,5,0,0,1,40.5,163l-1.7,1.71a2.94,2.94,0,0,0-.84-.56,2.62,2.62,0,0,0-1-.2,2.49,2.49,0,0,0-1.28.35,2.59,2.59,0,0,0-.94.95,2.43,2.43,0,0,0-.35,1.29,2.41,2.41,0,0,0,.35,1.29,2.65,2.65,0,0,0,.94.94,2.49,2.49,0,0,0,1.28.35A2.46,2.46,0,0,0,38,169Z"/><path d="M48.58,162.27a5,5,0,0,1-2.5,9.34,5,5,0,0,1-4.34-2.49,5,5,0,0,1,0-5,5,5,0,0,1,1.82-1.83,4.9,4.9,0,0,1,2.52-.67A4.83,4.83,0,0,1,48.58,162.27Zm-1.21,6.56a2.59,2.59,0,0,0,.93-.93,2.43,2.43,0,0,0,.35-1.29,2.46,2.46,0,0,0-.35-1.3,2.62,2.62,0,0,0-.93-.94,2.57,2.57,0,0,0-2.59,0,2.65,2.65,0,0,0-.94.94,2.46,2.46,0,0,0-.35,1.3,2.43,2.43,0,0,0,.35,1.29,2.62,2.62,0,0,0,.94.93,2.51,2.51,0,0,0,2.59,0Z"/><path d="M57.36,161.6h2.52v9.9H57.36l-2.91-5.31v5.31H51.92v-9.9h2.53l2.91,5.3Z"/><path d="M68.46,161.6v2.52H65.93v7.38H63.4v-7.38H60.86V161.6h7.6Z"/><path d="M77.52,171.5H75l-1.57-3.74H71.81v3.74H69.44v-9.9h4.72a3.07,3.07,0,0,1,3.08,3.08,2.88,2.88,0,0,1-.38,1.47,3.14,3.14,0,0,1-1,1.12ZM74.74,164a1,1,0,0,0-.66-.33H71.75v2.1h2.33a1,1,0,0,0,.66-.35,1.08,1.08,0,0,0,.26-.72A1,1,0,0,0,74.74,164Z"/><path d="M85.6,162.27a5.07,5.07,0,0,1,1.82,1.83,5,5,0,0,1,0,5,5.12,5.12,0,0,1-1.82,1.82,5,5,0,0,1-5,0,5.07,5.07,0,0,1-1.83-1.82,5,5,0,0,1,0-5,5,5,0,0,1,1.83-1.83,5,5,0,0,1,5,0Zm-1.22,6.56a2.62,2.62,0,0,0,.94-.93,2.52,2.52,0,0,0,.35-1.29,2.56,2.56,0,0,0-.35-1.3,2.65,2.65,0,0,0-.94-.94,2.5,2.5,0,0,0-1.29-.35,2.52,2.52,0,0,0-1.29.35,2.67,2.67,0,0,0-1,.94,2.56,2.56,0,0,0-.35,1.3,2.52,2.52,0,0,0,.35,1.29,2.65,2.65,0,0,0,1,.93,2.44,2.44,0,0,0,1.29.36A2.41,2.41,0,0,0,84.38,168.83Z"/><path d="M91.45,169.12h3.89v2.38H88.93v-9.9h2.52Z"/><path d="M107.76,162.27a5,5,0,0,1,1.82,1.83,5,5,0,0,1,0,5,5,5,0,0,1-1.82,1.82,4.94,4.94,0,0,1-2.51.67,5,5,0,0,1-4.33-2.49,5,5,0,0,1,4.33-7.52A4.84,4.84,0,0,1,107.76,162.27Zm-1.22,6.56a2.62,2.62,0,0,0,.94-.93,2.52,2.52,0,0,0,.35-1.29,2.56,2.56,0,0,0-.35-1.3,2.65,2.65,0,0,0-.94-.94,2.5,2.5,0,0,0-1.29-.35,2.55,2.55,0,0,0-1.29.35,2.67,2.67,0,0,0-.95.94,2.55,2.55,0,0,0-.34,1.3,2.51,2.51,0,0,0,.34,1.29,2.65,2.65,0,0,0,.95.93,2.46,2.46,0,0,0,1.29.36A2.41,2.41,0,0,0,106.54,168.83Z"/><path d="M118,163.74h-4.37v1.74h3.5v2.14h-3.5v3.88h-2.52v-9.9H118Z"/><path d="M129.29,162a3.16,3.16,0,0,1,1.12,1.12,3.07,3.07,0,0,1,.41,1.55,3.08,3.08,0,0,1-3.08,3.08h-2.35v3.74H123v-9.9h4.72A3.1,3.1,0,0,1,129.29,162Zm-1,2a1,1,0,0,0-.67-.33h-2.32v2.1h2.32a1,1,0,0,0,.67-.35,1.08,1.08,0,0,0,.27-.72A1,1,0,0,0,128.32,164Z"/><path d="M139.71,161.61v6.12a3.93,3.93,0,0,1-3.92,3.91h-.23a3.82,3.82,0,0,1-2-.53,3.94,3.94,0,0,1-1.42-1.42,3.81,3.81,0,0,1-.52-2v-6.12H134v5.56a2.36,2.36,0,0,0,.42,1.44,1.35,1.35,0,0,0,1.14.58h.23a1.39,1.39,0,0,0,1.14-.59,2.3,2.3,0,0,0,.44-1.43v-5.56Z"/><path d="M148.29,167.32a2.8,2.8,0,0,1,.32,1.32,2.7,2.7,0,0,1-.38,1.42,2.9,2.9,0,0,1-1,1,3,3,0,0,1-1.44.4h-4.94v-9.92h4.49a2.65,2.65,0,0,1,1.44.4,2.88,2.88,0,0,1,1,1,2.74,2.74,0,0,1,.37,1.4,2.78,2.78,0,0,1-.2,1,2.94,2.94,0,0,1-.54.88A2.74,2.74,0,0,1,148.29,167.32Zm-2.61-3.41a1,1,0,0,0-.72-.3h-1.82v2.1H145a2.36,2.36,0,0,0,.33-.05,1.14,1.14,0,0,0,.26-.14,1.07,1.07,0,0,0,.32-.38,1.14,1.14,0,0,0,.11-.49A1,1,0,0,0,145.68,163.91Zm.42,5.23a1.05,1.05,0,0,0-.55-1.76h-2.41v2.1h2.24A1,1,0,0,0,146.1,169.14Z"/><path d="M152,169.12h3.89v2.38h-6.41v-9.9H152Z"/><path d="M159.36,161.6v9.9h-2.52v-9.9Z"/><path d="M166.2,169a2.91,2.91,0,0,0,.84-.55l1.7,1.71a4.76,4.76,0,0,1-1.61,1.08,5,5,0,0,1-4.43-.28,5,5,0,0,1-1.82-1.82,5,5,0,0,1,4.32-7.52,5,5,0,0,1,1.93.38,4.93,4.93,0,0,1,1.61,1.09l-1.7,1.71a2.94,2.94,0,0,0-.84-.56,2.62,2.62,0,0,0-1-.2,2.55,2.55,0,0,0-1.29.35,2.65,2.65,0,0,0-.93.95,2.43,2.43,0,0,0-.35,1.29,2.41,2.41,0,0,0,.35,1.29,2.7,2.7,0,0,0,.93.94,2.55,2.55,0,0,0,1.29.35A2.46,2.46,0,0,0,166.2,169Z"/><path d="M174.74,161.7l3.23,9.8h-2.44l-.64-2h-3.07l-.63,2h-2.45l3.25-9.8Zm-2.26,5.75h1.77l-.89-2.77Z"/><path d="M185.71,161.6v2.52h-2.53v7.38h-2.54v-7.38h-2.53V161.6h7.6Z"/><path d="M189.21,161.6v9.9h-2.52v-9.9Z"/><path d="M197.57,162.27a5.07,5.07,0,0,1,1.82,1.83,5,5,0,0,1,0,5,5.12,5.12,0,0,1-1.82,1.82,5,5,0,0,1-5,0,5.07,5.07,0,0,1-1.83-1.82,5,5,0,0,1,1.83-6.85,5,5,0,0,1,5,0Zm-1.22,6.56a2.62,2.62,0,0,0,.94-.93,2.52,2.52,0,0,0,.35-1.29,2.56,2.56,0,0,0-.35-1.3,2.65,2.65,0,0,0-.94-.94,2.5,2.5,0,0,0-1.29-.35,2.55,2.55,0,0,0-1.29.35,2.67,2.67,0,0,0-1,.94,2.56,2.56,0,0,0-.35,1.3,2.52,2.52,0,0,0,.35,1.29,2.65,2.65,0,0,0,1,.93,2.46,2.46,0,0,0,1.29.36A2.41,2.41,0,0,0,196.35,168.83Z"/><path d="M206.35,161.6h2.52v9.9h-2.52l-2.91-5.31v5.31H200.9v-9.9h2.54l2.91,5.3Z"/><path d="M221.43,162.27a5.07,5.07,0,0,1,1.82,1.83,5,5,0,0,1,0,5,5.12,5.12,0,0,1-1.82,1.82,5,5,0,0,1-5,0,5.07,5.07,0,0,1-1.83-1.82,5,5,0,0,1,0-5,5,5,0,0,1,1.83-1.83,5,5,0,0,1,5,0Zm-1.22,6.56a2.7,2.7,0,0,0,.94-.93,2.52,2.52,0,0,0,.35-1.29,2.56,2.56,0,0,0-.35-1.3,2.73,2.73,0,0,0-.94-.94,2.55,2.55,0,0,0-2.58,0,2.6,2.6,0,0,0-.95.94,2.56,2.56,0,0,0-.35,1.3,2.52,2.52,0,0,0,.35,1.29,2.57,2.57,0,0,0,.95.93,2.49,2.49,0,0,0,2.58,0Z"/><path d="M232.81,161.61v6.12a3.93,3.93,0,0,1-3.92,3.91h-.23a3.82,3.82,0,0,1-2-.53,3.94,3.94,0,0,1-1.42-1.42,3.81,3.81,0,0,1-.52-2v-6.12h2.34v5.56a2.36,2.36,0,0,0,.42,1.44,1.35,1.35,0,0,0,1.14.58h.23a1.39,1.39,0,0,0,1.14-.59,2.3,2.3,0,0,0,.44-1.43v-5.56Z"/><path d="M241.39,161.6v2.52h-2.53v7.38h-2.54v-7.38h-2.53V161.6h7.6Z"/><path d="M248.63,162a3.1,3.1,0,0,1,1.54,2.67,3,3,0,0,1-.42,1.54,2.87,2.87,0,0,1-1.12,1.12,3,3,0,0,1-1.54.42h-2.35v3.74h-2.37v-9.9h4.72A3,3,0,0,1,248.63,162Zm-1,2a1,1,0,0,0-.67-.33h-2.32v2.1H247a1,1,0,0,0,.67-.35,1.08,1.08,0,0,0,.27-.72A1,1,0,0,0,247.67,164Z"/><path d="M259.06,161.61v6.12a3.93,3.93,0,0,1-3.92,3.91h-.23a3.82,3.82,0,0,1-2-.53,3.94,3.94,0,0,1-1.42-1.42,3.81,3.81,0,0,1-.52-2v-6.12h2.33v5.56a2.43,2.43,0,0,0,.42,1.44,1.37,1.37,0,0,0,1.15.58h.23a1.39,1.39,0,0,0,1.14-.59,2.3,2.3,0,0,0,.44-1.43v-5.56Z"/><path d="M267.64,161.6v2.52H265.1v7.38h-2.53v-7.38H260V161.6h7.6Z"/><path d="M268.72,171.09a1.33,1.33,0,0,1-.38-1,1.27,1.27,0,0,1,.38-.91,1.3,1.3,0,0,1,1.86,0,1.34,1.34,0,0,1-.94,2.27A1.22,1.22,0,0,1,268.72,171.09Z"/><path d="M37.74,300.49h2.52v9.9H37.74V306.7H34.91v3.69H32.39v-9.9h2.52v3.69h2.83Z"/><path d="M48.11,308.25v2.14H41.38v-9.9H48v2.14H43.92v1.74h3.42v2.14H43.92v1.74Z"/><path d="M57.31,310.39H54.78l-1.57-3.74H51.6v3.74H49.23v-9.9H54a3,3,0,0,1,1.54.42A3,3,0,0,1,56.62,302a3.09,3.09,0,0,1,.41,1.54,2.89,2.89,0,0,1-.38,1.48,3.19,3.19,0,0,1-1,1.11Zm-2.78-7.54a1,1,0,0,0-.66-.33H51.54v2.1h2.33a1,1,0,0,0,.66-.34,1.11,1.11,0,0,0,0-1.43Z"/><path d="M64.89,308.25v2.14H58.15v-9.9h6.61v2.14H60.69v1.74h3.43v2.14H60.69v1.74Z"/><path d="M75.36,300.59l3.23,9.8H76.16l-.65-2H72.45l-.63,2H69.37l3.24-9.8Zm-2.26,5.76h1.77L74,303.57Z"/><path d="M87,310.39H84.42l-1.57-3.74H81.24v3.74H78.87v-9.9h4.72a3,3,0,0,1,1.54.42A3,3,0,0,1,86.26,302a3.09,3.09,0,0,1,.41,1.54,3,3,0,0,1-.38,1.48,3.19,3.19,0,0,1-1,1.11Zm-2.79-7.54a.92.92,0,0,0-.65-.33H81.18v2.1h2.33a.93.93,0,0,0,.65-.34,1.08,1.08,0,0,0,0-1.43Z"/><path d="M94.52,308.25v2.14H87.79v-9.9H94.4v2.14H90.32v1.74h3.43v2.14H90.32v1.74Z"/><path d="M104.37,303.63v-.18a.9.9,0,0,0-.35-.7,1.25,1.25,0,0,0-.83-.28,1.33,1.33,0,0,0-.86.28.89.89,0,0,0-.36.7.63.63,0,0,0,.37.6,2.92,2.92,0,0,0,1,.39l.21,0,.25.06a4.72,4.72,0,0,1,2,.83l.13.11a2.94,2.94,0,0,1,.66,1,2.7,2.7,0,0,1,0,2.33,3.06,3.06,0,0,1-.79,1,3.55,3.55,0,0,1-1.17.66,4,4,0,0,1-1.37.24,4,4,0,0,1-1.37-.24,3.76,3.76,0,0,1-1.17-.66,3.38,3.38,0,0,1-.8-1,2.86,2.86,0,0,1-.28-1.21v-.18H102v.18a.9.9,0,0,0,.35.7,1.24,1.24,0,0,0,.82.28,1.35,1.35,0,0,0,.86-.28.87.87,0,0,0,.35-.7A.79.79,0,0,0,104,307a1.39,1.39,0,0,0-.4-.21c-.15-.06-.33-.11-.54-.17l-.46-.11c-.52-.13-.92-.25-1.21-.35a2.55,2.55,0,0,1-.8-.48l0-.05a3.29,3.29,0,0,1-.74-1,2.72,2.72,0,0,1-.26-1.15,2.86,2.86,0,0,1,.28-1.21,3.38,3.38,0,0,1,.8-1,3.76,3.76,0,0,1,1.17-.66,3.94,3.94,0,0,1,1.37-.23,4,4,0,0,1,1.37.23,3.55,3.55,0,0,1,1.17.66,3.06,3.06,0,0,1,.79,1,2.72,2.72,0,0,1,.28,1.21v.18Z"/><path d="M114.87,301.17a5,5,0,0,1,1.82,6.84,5,5,0,0,1-1.82,1.82,5,5,0,0,1-5,0A5,5,0,0,1,108,308a4.84,4.84,0,0,1-.67-2.51,5,5,0,0,1,7.52-4.33Zm-1.22,6.56a2.65,2.65,0,0,0,.94-.94,2.5,2.5,0,0,0,.35-1.29,2.55,2.55,0,0,0-.35-1.29,2.65,2.65,0,0,0-.94-.94,2.55,2.55,0,0,0-2.58,0,2.52,2.52,0,0,0-.95.94,2.55,2.55,0,0,0-.35,1.29,2.58,2.58,0,0,0,3.88,2.23Z"/><path d="M125.83,300.49h2.52v9.9h-2.52V304.8L124.6,307l-.06.12H122L122,307l-.17-.32-1-1.92v5.59H118.2v-9.9h2.53l2.55,4.22Z"/><path d="M136.2,308.25v2.14h-6.73v-9.9h6.61v2.14H132v1.74h3.43v2.14H132v1.74Z"/><path d="M148.26,308.25v2.14h-6.74v-9.9h6.61v2.14h-4.07v1.74h3.43v2.14h-3.43v1.74Z"/><path d="M158.07,310.39h-2.93l-1.56-2.58L152,310.39H149.1l3-5-3-4.9h2.93l1.5,2.48,1.49-2.48H158l-3,4.9Z"/><path d="M164.06,300.59l3.24,9.8h-2.44l-.64-2h-3.07l-.63,2h-2.45l3.25-9.8Zm-2.25,5.76h1.76l-.88-2.78Z"/><path d="M175.21,300.49h2.52v9.9h-2.52V304.8L174,307l-.05.12H171.4l-.07-.12-.17-.32-1-1.92v5.59h-2.53v-9.9h2.53l2.55,4.22Z"/><path d="M185.11,300.91a3.06,3.06,0,0,1,1.53,2.66,3,3,0,0,1-.41,1.55,3.08,3.08,0,0,1-1.12,1.12,3,3,0,0,1-1.55.41h-2.35v3.74h-2.36v-9.9h4.71A3,3,0,0,1,185.11,300.91Zm-1,1.94a1,1,0,0,0-.66-.33h-2.32v2.1h2.32a.93.93,0,0,0,.66-.34,1,1,0,0,0,.28-.72A1,1,0,0,0,184.14,302.85Z"/><path d="M190,308h3.9v2.38h-6.42v-9.9H190Z"/><path d="M201.61,308.25v2.14h-6.73v-9.9h6.6v2.14h-4.07v1.74h3.43v2.14h-3.43v1.74Z"/><path d="M207.25,303.63v-.18a.89.89,0,0,0-.34-.7,1.26,1.26,0,0,0-.83-.28,1.35,1.35,0,0,0-.87.28.9.9,0,0,0-.35.7.64.64,0,0,0,.36.6,3,3,0,0,0,.95.39l.22,0,.25.06a4.85,4.85,0,0,1,2,.83l.12.11a3,3,0,0,1,.67,1,2.79,2.79,0,0,1,0,2.33,3.06,3.06,0,0,1-.79,1,3.7,3.7,0,0,1-1.18.66,4,4,0,0,1-2.73,0,3.55,3.55,0,0,1-1.17-.66,3.23,3.23,0,0,1-.8-1,2.72,2.72,0,0,1-.28-1.21v-.18h2.45v.18a.89.89,0,0,0,.34.7,1.24,1.24,0,0,0,.82.28,1.33,1.33,0,0,0,.86-.28.89.89,0,0,0,.36-.7.8.8,0,0,0-.38-.61,1.22,1.22,0,0,0-.39-.21,5.31,5.31,0,0,0-.55-.17l-.46-.11c-.51-.13-.91-.25-1.2-.35a2.44,2.44,0,0,1-.8-.48l-.06-.05a3.26,3.26,0,0,1-.73-1,2.71,2.71,0,0,1,0-2.36,3.23,3.23,0,0,1,.8-1,3.55,3.55,0,0,1,1.17-.66,4.17,4.17,0,0,1,2.73,0,3.7,3.7,0,0,1,1.18.66,3.06,3.06,0,0,1,.79,1,2.85,2.85,0,0,1,.27,1.21v.18Z"/><path d="M222,301.17a5,5,0,0,1,2.49,4.33,4.84,4.84,0,0,1-.67,2.51,5,5,0,0,1-1.82,1.82,4.83,4.83,0,0,1-2.5.67,5,5,0,0,1-4.34-2.49,4.85,4.85,0,0,1-.68-2.51,4.9,4.9,0,0,1,.68-2.51,4.82,4.82,0,0,1,1.82-1.82,4.91,4.91,0,0,1,2.52-.68A4.84,4.84,0,0,1,222,301.17Zm-1.22,6.56A2.59,2.59,0,0,0,222,305.5a2.55,2.55,0,0,0-.35-1.29,2.5,2.5,0,0,0-.94-.94,2.4,2.4,0,0,0-1.28-.35,2.46,2.46,0,0,0-1.3.35,2.5,2.5,0,0,0-.94.94,2.45,2.45,0,0,0-.35,1.29,2.41,2.41,0,0,0,.35,1.29,2.5,2.5,0,0,0,.94.94,2.56,2.56,0,0,0,1.3.35A2.49,2.49,0,0,0,220.73,307.73Z"/><path d="M232.17,302.63H227.8v1.74h3.5v2.14h-3.5v3.88h-2.52v-9.9h6.89Z"/><path d="M243.48,300.91a3.06,3.06,0,0,1,1.53,2.66,3.07,3.07,0,0,1-.41,1.55,3.16,3.16,0,0,1-1.12,1.12,3,3,0,0,1-1.55.41h-2.35v3.74h-2.37v-9.9h4.72A3,3,0,0,1,243.48,300.91Zm-1,1.94a1,1,0,0,0-.67-.33h-2.32v2.1h2.32a.93.93,0,0,0,.67-.34,1.08,1.08,0,0,0,.27-.72A1,1,0,0,0,242.51,302.85Z"/><path d="M253.9,300.51v6.12a3.78,3.78,0,0,1-.53,1.95,3.86,3.86,0,0,1-3.39,1.95h-.23a3.83,3.83,0,0,1-2-.52,4,4,0,0,1-1.42-1.43,3.77,3.77,0,0,1-.52-1.95v-6.12h2.34v5.55a2.39,2.39,0,0,0,.42,1.45,1.34,1.34,0,0,0,1.14.57H250a1.35,1.35,0,0,0,1.14-.58,2.35,2.35,0,0,0,.44-1.44v-5.55Z"/><path d="M262.48,306.21a2.88,2.88,0,0,1-.06,2.75,2.8,2.8,0,0,1-1,1,2.89,2.89,0,0,1-1.44.4H255v-9.9h4.49a2.76,2.76,0,0,1,1.45.39,3,3,0,0,1,1,1,2.72,2.72,0,0,1,.37,1.4,2.66,2.66,0,0,1-.2,1,2.77,2.77,0,0,1-.54.87A2.82,2.82,0,0,1,262.48,306.21Zm-2.61-3.4a1,1,0,0,0-.72-.3h-1.82v2.1h1.82l.33-.06a.67.67,0,0,0,.26-.14,1.13,1.13,0,0,0,.32-.37,1.18,1.18,0,0,0,.11-.5A1,1,0,0,0,259.87,302.81Zm.42,5.23a1,1,0,0,0,.29-.74,1,1,0,0,0-.24-.67,1,1,0,0,0-.6-.35c-.06,0-.72,0-2,0h-.42v2.1h2.24A1,1,0,0,0,260.29,308Z"/><path d="M266.16,308h3.89v2.38h-6.41v-9.9h2.52Z"/><path d="M273.55,300.49v9.9H271v-9.9Z"/><path d="M279.2,303.63v-.18a.9.9,0,0,0-.35-.7,1.23,1.23,0,0,0-.83-.28,1.33,1.33,0,0,0-.86.28.89.89,0,0,0-.36.7.63.63,0,0,0,.37.6,2.92,2.92,0,0,0,.95.39l.22,0,.24.06a4.72,4.72,0,0,1,2,.83l.13.11a2.94,2.94,0,0,1,.66,1,2.71,2.71,0,0,1,.25,1.12,2.85,2.85,0,0,1-.27,1.21,3.23,3.23,0,0,1-.8,1,3.55,3.55,0,0,1-1.17.66,4,4,0,0,1-1.37.24,4,4,0,0,1-1.37-.24,3.76,3.76,0,0,1-1.17-.66,3.38,3.38,0,0,1-.8-1,2.86,2.86,0,0,1-.28-1.21v-.18h2.45v.18a.9.9,0,0,0,.35.7,1.24,1.24,0,0,0,.82.28,1.35,1.35,0,0,0,.86-.28.87.87,0,0,0,.35-.7.79.79,0,0,0-.37-.61,1.33,1.33,0,0,0-.39-.21c-.15-.06-.34-.11-.55-.17l-.46-.11c-.52-.13-.92-.25-1.21-.35a2.4,2.4,0,0,1-.79-.48l-.06-.05a3.29,3.29,0,0,1-.74-1,2.72,2.72,0,0,1-.26-1.15,2.86,2.86,0,0,1,.28-1.21,3.38,3.38,0,0,1,.8-1,3.76,3.76,0,0,1,1.17-.66,3.94,3.94,0,0,1,1.37-.23,4,4,0,0,1,1.37.23,3.55,3.55,0,0,1,1.17.66,3.23,3.23,0,0,1,.8,1,2.85,2.85,0,0,1,.27,1.21v.18Z"/><path d="M287.81,300.49h2.52v9.9h-2.52V306.7H285v3.69h-2.52v-9.9H285v3.69h2.83Z"/><path d="M298.18,308.25v2.14h-6.73v-9.9h6.6v2.14H294v1.74h3.43v2.14H294v1.74Z"/><path d="M303.64,300.46a6.08,6.08,0,0,1,1.49.35,4.44,4.44,0,0,1,1.37.86,4.93,4.93,0,0,1,1.21,1.7,5.17,5.17,0,0,1,.42,2,4.85,4.85,0,0,1-.54,2.28,4.47,4.47,0,0,1-1.53,1.75,5.5,5.5,0,0,1-2,.79,14.29,14.29,0,0,1-2.5.19h-1.15l-1.09,0v-10h2.53C302.54,300.38,303.14,300.41,303.64,300.46Zm2.09,5a2.49,2.49,0,0,0-.34-1.27,2.57,2.57,0,0,0-.92-1,2.45,2.45,0,0,0-1.26-.38h-1.38V308a10.65,10.65,0,0,0,1.73-.12,3,3,0,0,0,1.31-.55,2.26,2.26,0,0,0,.79-1.3A3.47,3.47,0,0,0,305.73,305.41Z"/><path d="M320.8,300.49h2.52v9.9H320.8V304.8L319.57,307l-.05.12H317l-.07-.12-.17-.32-1.05-1.92v5.59h-2.54v-9.9h2.54l2.55,4.22Z"/><path d="M331.18,308.25v2.14h-6.74v-9.9h6.61v2.14H327v1.74h3.43v2.14H327v1.74Z"/><path d="M336.64,300.46a6.08,6.08,0,0,1,1.49.35,4.39,4.39,0,0,1,1.36.86,4.83,4.83,0,0,1,1.22,1.7,5.17,5.17,0,0,1,.42,2,4.85,4.85,0,0,1-.54,2.28,4.49,4.49,0,0,1-1.54,1.75,5.45,5.45,0,0,1-2,.79,14.37,14.37,0,0,1-2.5.19h-1.15l-1.09,0v-10h2.53C335.53,300.38,336.13,300.41,336.64,300.46Zm2.08,5a2.59,2.59,0,0,0-.33-1.27,2.65,2.65,0,0,0-.92-1,2.48,2.48,0,0,0-1.27-.38h-1.37V308a10.73,10.73,0,0,0,1.73-.12,2.9,2.9,0,0,0,1.3-.55,2.21,2.21,0,0,0,.79-1.3A2.68,2.68,0,0,0,338.72,305.41Z"/><path d="M344.49,300.49v9.9H342v-9.9Z"/><path d="M350.76,300.59l3.24,9.8h-2.44l-.64-2h-3.07l-.63,2h-2.45l3.25-9.8Zm-2.25,5.76h1.76l-.88-2.78Z"/><path d="M40.36,317.29h2.18v9.9H40L37.47,323l-2.56,4.21H32.39v-9.9h2.52v5.59l1.23-2.24.07-.11h2.52l.06.11L40,322.88v-5.59Z"/><path d="M49,317.29h2.52v9.9H49V323.5H46.18v3.69H43.66v-9.9h2.52V321H49Z"/><path d="M59.38,325.05v2.14H52.65v-9.9h6.61v2.15H55.18v1.73h3.43v2.14H55.18v1.74Z"/><path d="M68.58,327.19H66.05l-1.57-3.74H62.87v3.74H60.5v-9.9h4.72a3,3,0,0,1,1.54.42,3,3,0,0,1,1.13,1.12,3,3,0,0,1,.41,1.54,2.91,2.91,0,0,1-.38,1.48,3.19,3.19,0,0,1-1,1.11Zm-2.78-7.54a1,1,0,0,0-.66-.33H62.81v2.1h2.33a1,1,0,0,0,.66-.34,1.11,1.11,0,0,0,0-1.43Z"/><path d="M76.16,325.05v2.14H69.42v-9.9H76v2.15H72v1.73h3.43v2.14H72v1.74Z"/><path d="M89.44,317.29h2.19v9.9H89.11L86.56,323,84,327.19H81.48v-9.9H84v5.59l1.23-2.24.07-.11h2.52l.05.11,1.24,2.24v-5.59Z"/><path d="M99.48,325.05v2.14H92.75v-9.9h6.6v2.15H95.28v1.73h3.43v2.14H95.28v1.74Z"/><path d="M110.15,317.29h2.52v9.9h-2.52V323.5h-2.83v3.69H104.8v-9.9h2.52V321h2.83Z"/><path d="M118.94,317.39l3.23,9.8h-2.43l-.65-2H116l-.63,2H113l3.25-9.8Zm-2.25,5.75h1.76l-.88-2.77Z"/><path d="M129,317.27h2.75l-3.24,9.92h-3.08l-3.22-9.92H125l2,6.18Z"/><path d="M139.28,325.05v2.14h-6.73v-9.9h6.61v2.15h-4.08v1.73h3.43v2.14h-3.43v1.74Z"/><path d="M150.87,317.71a3.06,3.06,0,0,1,1.53,2.66,3.07,3.07,0,0,1-.41,1.55,3.16,3.16,0,0,1-1.12,1.12,3,3,0,0,1-1.55.41H147v3.74H144.6v-9.9h4.72A3,3,0,0,1,150.87,317.71Zm-1,1.94a1,1,0,0,0-.66-.33h-2.33v2.1h2.33a.93.93,0,0,0,.66-.34,1.08,1.08,0,0,0,.27-.72A1,1,0,0,0,149.9,319.65Z"/><path d="M160.48,318a5.07,5.07,0,0,1,1.82,1.83,4.89,4.89,0,0,1,.67,2.51,4.84,4.84,0,0,1-.67,2.51,5,5,0,0,1-1.82,1.82,5,5,0,0,1-5,0,5,5,0,0,1-1.83-1.82,4.84,4.84,0,0,1-.67-2.51,4.89,4.89,0,0,1,.67-2.51,5,5,0,0,1,4.34-2.5A5,5,0,0,1,160.48,318Zm-1.22,6.57a2.73,2.73,0,0,0,.94-.94,2.5,2.5,0,0,0,.35-1.29,2.55,2.55,0,0,0-.35-1.29,2.76,2.76,0,0,0-.94-.95,2.55,2.55,0,0,0-2.58,0,2.62,2.62,0,0,0-1,.95,2.55,2.55,0,0,0-.35,1.29,2.5,2.5,0,0,0,.35,1.29,2.6,2.6,0,0,0,1,.94,2.55,2.55,0,0,0,2.58,0Z"/><path d="M168.33,320.43v-.18a.89.89,0,0,0-.34-.7,1.27,1.27,0,0,0-.84-.28,1.35,1.35,0,0,0-.86.28.9.9,0,0,0-.35.7.64.64,0,0,0,.36.6,2.92,2.92,0,0,0,.95.39l.22,0,.24.06a4.84,4.84,0,0,1,2,.83l.12.11a3.13,3.13,0,0,1,.67,1,2.79,2.79,0,0,1,0,2.33,3.19,3.19,0,0,1-.79,1,3.7,3.7,0,0,1-1.18.66,3.94,3.94,0,0,1-1.37.23,3.89,3.89,0,0,1-1.36-.23,3.55,3.55,0,0,1-1.17-.66,3.23,3.23,0,0,1-.8-1,2.72,2.72,0,0,1-.28-1.21v-.18H166v.18a.88.88,0,0,0,.34.7,1.24,1.24,0,0,0,.82.28,1.33,1.33,0,0,0,.86-.28.87.87,0,0,0,.36-.7.8.8,0,0,0-.38-.61,1.22,1.22,0,0,0-.39-.21,3.64,3.64,0,0,0-.55-.17l-.46-.11c-.51-.13-.91-.25-1.2-.35a2.44,2.44,0,0,1-.8-.48l-.06-.05a3.18,3.18,0,0,1-.73-1,2.64,2.64,0,0,1-.26-1.14,2.72,2.72,0,0,1,.28-1.21,3.23,3.23,0,0,1,.8-1,3.55,3.55,0,0,1,1.17-.66,3.89,3.89,0,0,1,1.36-.23,3.94,3.94,0,0,1,1.37.23,3.7,3.7,0,0,1,1.18.66,3.19,3.19,0,0,1,.79,1,2.85,2.85,0,0,1,.27,1.21v.18Z"/><path d="M179.05,317.29v2.52h-2.53v7.38H174v-7.38h-2.54v-2.52h7.6Z"/><path d="M186.77,325.05v2.14H180v-9.9h6.6v2.15h-4.07v1.73H186v2.14h-3.43v1.74Z"/><path d="M192.23,317.26a5.68,5.68,0,0,1,1.49.36,4.08,4.08,0,0,1,1.36.85,4.92,4.92,0,0,1,1.22,1.7,5.17,5.17,0,0,1,.42,2,4.85,4.85,0,0,1-.54,2.28,4.56,4.56,0,0,1-1.54,1.75,5.45,5.45,0,0,1-2,.79,14.37,14.37,0,0,1-2.5.19H189l-1.09,0v-10h2.53C191.12,317.18,191.72,317.21,192.23,317.26Zm2.08,4.95a2.59,2.59,0,0,0-.33-1.27,2.65,2.65,0,0,0-.92-1,2.48,2.48,0,0,0-1.27-.38h-1.37v5.17a10.73,10.73,0,0,0,1.73-.12,2.9,2.9,0,0,0,1.3-.55,2.27,2.27,0,0,0,.8-1.31A3.17,3.17,0,0,0,194.31,322.21Z"/><path d="M209,318a5,5,0,0,1,1.82,1.83,4.89,4.89,0,0,1,.67,2.51,4.84,4.84,0,0,1-.67,2.51,5,5,0,0,1-1.82,1.82,4.84,4.84,0,0,1-2.51.67,4.89,4.89,0,0,1-2.51-.67,5,5,0,0,1-1.83-1.82,4.94,4.94,0,0,1-.67-2.51,5,5,0,0,1,5-5A4.94,4.94,0,0,1,209,318Zm-1.22,6.57a2.65,2.65,0,0,0,.94-.94,2.5,2.5,0,0,0,.35-1.29,2.55,2.55,0,0,0-.35-1.29,2.67,2.67,0,0,0-.94-.95,2.5,2.5,0,0,0-1.29-.35,2.55,2.55,0,0,0-1.29.35,2.7,2.7,0,0,0-.95.95,2.55,2.55,0,0,0-.35,1.29,2.5,2.5,0,0,0,.35,1.29,2.67,2.67,0,0,0,.95.94,2.55,2.55,0,0,0,1.29.35A2.5,2.5,0,0,0,207.78,324.53Z"/><path d="M220.38,317.31v6.11a3.78,3.78,0,0,1-.52,2,3.92,3.92,0,0,1-1.43,1.43,3.84,3.84,0,0,1-2,.52h-.22a3.81,3.81,0,0,1-2-.52,3.9,3.9,0,0,1-1.42-1.43,3.79,3.79,0,0,1-.53-2v-6.11h2.34v5.56a2.4,2.4,0,0,0,.42,1.44,1.35,1.35,0,0,0,1.15.57h.22a1.35,1.35,0,0,0,1.14-.58,2.28,2.28,0,0,0,.44-1.43v-5.56Z"/><path d="M229.58,327.19h-2.53l-1.57-3.74h-1.61v3.74H221.5v-9.9h4.72a3,3,0,0,1,1.54.42,3,3,0,0,1,1.13,1.12,3.09,3.09,0,0,1,.41,1.54,3,3,0,0,1-.38,1.48,3.19,3.19,0,0,1-1,1.11Zm-2.79-7.54a.92.92,0,0,0-.65-.33h-2.33v2.1h2.33a1,1,0,0,0,.65-.34,1.08,1.08,0,0,0,0-1.43Z"/><path d="M240.33,324.65a2.84,2.84,0,0,0,.84-.55l1.71,1.7a5,5,0,0,1-1.61,1.09,5,5,0,0,1-4.44-.29,5,5,0,0,1-1.82-1.82,4.83,4.83,0,0,1-.67-2.5,4.9,4.9,0,0,1,.67-2.52,5,5,0,0,1,1.82-1.82,5.06,5.06,0,0,1,4.44-.29,5.18,5.18,0,0,1,1.61,1.08l-1.71,1.71a2.84,2.84,0,0,0-.84-.55,2.43,2.43,0,0,0-1-.2,2.41,2.41,0,0,0-1.29.35,2.65,2.65,0,0,0-.94.94,2.56,2.56,0,0,0-.35,1.3,2.49,2.49,0,0,0,.35,1.28,2.57,2.57,0,0,0,.94.94,2.41,2.41,0,0,0,1.29.35A2.43,2.43,0,0,0,240.33,324.65Z"/><path d="M246.24,324.81h3.89v2.38h-6.41v-9.9h2.52Z"/><path d="M253.63,317.29v9.9h-2.52v-9.9Z"/><path d="M261.49,325.05v2.14h-6.74v-9.9h6.61v2.15h-4.07v1.73h3.43v2.14h-3.43v1.74Z"/><path d="M268.05,317.29h2.52v9.9h-2.52l-2.91-5.31v5.31h-2.53v-9.9h2.53l2.91,5.31Z"/><path d="M279.15,317.29v2.52h-2.53v7.38h-2.53v-7.38h-2.54v-2.52h7.6Z"/><path d="M284.66,320.43v-.18a.9.9,0,0,0-.35-.7,1.25,1.25,0,0,0-.83-.28,1.33,1.33,0,0,0-.86.28.89.89,0,0,0-.36.7.63.63,0,0,0,.37.6,2.92,2.92,0,0,0,.95.39l.21,0,.25.06a4.72,4.72,0,0,1,2,.83l.13.11a2.94,2.94,0,0,1,.66,1,2.7,2.7,0,0,1,0,2.33,3.06,3.06,0,0,1-.79,1,3.55,3.55,0,0,1-1.17.66,4,4,0,0,1-1.37.23,3.94,3.94,0,0,1-1.37-.23,3.76,3.76,0,0,1-1.17-.66,3.38,3.38,0,0,1-.8-1,2.86,2.86,0,0,1-.28-1.21v-.18h2.45v.18a.89.89,0,0,0,.35.7,1.24,1.24,0,0,0,.82.28,1.35,1.35,0,0,0,.86-.28.86.86,0,0,0,.35-.7.79.79,0,0,0-.37-.61,1.39,1.39,0,0,0-.4-.21,3.86,3.86,0,0,0-.54-.17l-.46-.11c-.52-.13-.92-.25-1.21-.35a2.55,2.55,0,0,1-.8-.48l0-.05a3.21,3.21,0,0,1-.74-1,2.64,2.64,0,0,1-.26-1.14,2.86,2.86,0,0,1,.28-1.21,3.38,3.38,0,0,1,.8-1,3.76,3.76,0,0,1,1.17-.66,3.94,3.94,0,0,1,1.37-.23,4,4,0,0,1,1.37.23A3.55,3.55,0,0,1,286,318a3.06,3.06,0,0,1,.79,1,2.72,2.72,0,0,1,.28,1.21v.18Z"/><path d="M290.05,317.31v3.44h-2.27v-3.44Z"/><path d="M38.66,334.51a3.06,3.06,0,0,1,1.53,2.66,3.07,3.07,0,0,1-.41,1.55,3.16,3.16,0,0,1-1.12,1.12,3,3,0,0,1-1.55.41H34.76V344H32.39v-9.9h4.72A3,3,0,0,1,38.66,334.51Zm-1,1.94a1,1,0,0,0-.66-.33H34.7v2.1H37a.93.93,0,0,0,.66-.34,1.08,1.08,0,0,0,.27-.72A1,1,0,0,0,37.69,336.45Z"/><path d="M49.11,344H46.57L45,340.25H43.4V344H41v-9.9h4.72a3,3,0,0,1,1.54.42,3,3,0,0,1,1.54,2.66,3,3,0,0,1-.38,1.48,3.19,3.19,0,0,1-1,1.11Zm-2.79-7.54a.92.92,0,0,0-.66-.33H43.34v2.1h2.32a.93.93,0,0,0,.66-.34,1.08,1.08,0,0,0,0-1.43Z"/><path d="M56.68,341.85V344H50v-9.9h6.61v2.14H52.48V338h3.43v2.14H52.48v1.74Z"/><path d="M57.66,338.08h4.52v2H57.66Z"/><path d="M71.24,344H68.71l-1.57-3.74H65.53V344H63.16v-9.9h4.72a3,3,0,0,1,1.54.42,3,3,0,0,1,1.13,1.12,3.09,3.09,0,0,1,.41,1.54,2.89,2.89,0,0,1-.38,1.48,3.19,3.19,0,0,1-1,1.11Zm-2.78-7.54a1,1,0,0,0-.66-.33H65.47v2.1H67.8a1,1,0,0,0,.66-.34,1.11,1.11,0,0,0,0-1.43Z"/><path d="M78.82,341.85V344H72.08v-9.9h6.61v2.14H74.62V338h3.43v2.14H74.62v1.74Z"/><path d="M82.46,341.61h3.89V344H79.94v-9.9h2.52Z"/><path d="M94.06,341.85V344H87.33v-9.9h6.61v2.14H89.86V338h3.43v2.14H89.86v1.74Z"/><path d="M100.33,334.19l3.24,9.8h-2.44l-.64-2H97.42l-.63,2H94.34l3.25-9.8ZM98.08,340h1.76L99,337.17Z"/><path d="M108.37,337.23v-.18a.88.88,0,0,0-.34-.7,1.27,1.27,0,0,0-.84-.28,1.35,1.35,0,0,0-.86.28.89.89,0,0,0-.35.7.64.64,0,0,0,.36.6,2.92,2.92,0,0,0,1,.39l.22,0,.24.06a5,5,0,0,1,2,.82l.12.12a3.13,3.13,0,0,1,.67,1,2.79,2.79,0,0,1,0,2.33,3.19,3.19,0,0,1-.79,1,3.7,3.7,0,0,1-1.18.66,4,4,0,0,1-1.37.24,3.85,3.85,0,0,1-1.36-.24,3.55,3.55,0,0,1-1.17-.66,3.23,3.23,0,0,1-.8-1,2.72,2.72,0,0,1-.28-1.21V341H106v.18a.89.89,0,0,0,.34.7,1.24,1.24,0,0,0,.82.28,1.33,1.33,0,0,0,.86-.28.89.89,0,0,0,.36-.7.8.8,0,0,0-.38-.61,1.22,1.22,0,0,0-.39-.21,3.64,3.64,0,0,0-.55-.17l-.46-.11c-.51-.13-.91-.25-1.2-.35a2.44,2.44,0,0,1-.8-.48l-.06-.06a3.1,3.1,0,0,1-.73-1,2.58,2.58,0,0,1-.26-1.15,2.72,2.72,0,0,1,.28-1.21,3.23,3.23,0,0,1,.8-1,3.55,3.55,0,0,1,1.17-.66,3.85,3.85,0,0,1,1.36-.24,4,4,0,0,1,1.37.24,3.7,3.7,0,0,1,1.18.66,3.19,3.19,0,0,1,.79,1,2.85,2.85,0,0,1,.27,1.21v.18Z"/><path d="M118.37,341.85V344h-6.74v-9.9h6.61v2.14h-4.07V338h3.43v2.14h-3.43v1.74Z"/><path d="M124,337.23v-.18a.91.91,0,0,0-.34-.7,1.27,1.27,0,0,0-.84-.28,1.35,1.35,0,0,0-.86.28.87.87,0,0,0-.36.7.65.65,0,0,0,.37.6,2.92,2.92,0,0,0,1,.39l.22,0,.24.06a4.88,4.88,0,0,1,2,.82l.13.12a3.13,3.13,0,0,1,.67,1,2.79,2.79,0,0,1,0,2.33,3.19,3.19,0,0,1-.79,1,3.7,3.7,0,0,1-1.18.66,4,4,0,0,1-1.37.24,4,4,0,0,1-1.37-.24,3.76,3.76,0,0,1-1.17-.66,3.19,3.19,0,0,1-.79-1,2.72,2.72,0,0,1-.28-1.21V341h2.45v.18a.89.89,0,0,0,.34.7,1.24,1.24,0,0,0,.82.28,1.35,1.35,0,0,0,.86-.28.89.89,0,0,0,.36-.7.8.8,0,0,0-.38-.61,1.22,1.22,0,0,0-.39-.21,3.64,3.64,0,0,0-.55-.17l-.46-.11c-.51-.13-.92-.25-1.21-.35a2.4,2.4,0,0,1-.79-.48l-.06-.06a3,3,0,0,1-.73-1,2.58,2.58,0,0,1-.26-1.15,2.72,2.72,0,0,1,.28-1.21,3.19,3.19,0,0,1,.79-1,3.76,3.76,0,0,1,1.17-.66,4,4,0,0,1,1.37-.24,4,4,0,0,1,1.37.24,3.7,3.7,0,0,1,1.18.66,3.19,3.19,0,0,1,.79,1,2.85,2.85,0,0,1,.27,1.21v.18Z"/><path d="M127.37,343.58a1.37,1.37,0,0,1-.38-1,1.21,1.21,0,0,1,.39-.91,1.25,1.25,0,0,1,.91-.38,1.28,1.28,0,0,1,.94.39,1.29,1.29,0,0,1,.39.94,1.33,1.33,0,0,1-1.33,1.33A1.18,1.18,0,0,1,127.37,343.58Z"/></svg>