<svg id="Слой_1" data-name="Слой 1" xmlns="http://www.w3.org/2000/svg" viewBox="0 0 405 405"><defs><style>.cls-1{fill:#e7335d;}.cls-2{fill:#fff;}.cls-3{isolation:isolate;}.cls-4{fill:#fdd825;}</style></defs><rect class="cls-1" x="37.67" y="76.5" width="329.67" height="168"/><rect class="cls-1" width="405" height="405"/><path class="cls-2" d="M51.58,63.24a8.42,8.42,0,0,0,2.64-1.74l5.37,5.37a15.9,15.9,0,0,1-5.06,3.41,15.8,15.8,0,0,1-14-.9,15.76,15.76,0,0,1-5.72-5.72,15.79,15.79,0,0,1,0-15.77,15.62,15.62,0,0,1,5.72-5.75,15.8,15.8,0,0,1,14-.9,15.9,15.9,0,0,1,5.06,3.41L54.22,50a8.78,8.78,0,0,0-2.64-1.74,8,8,0,0,0-3.12-.64,7.79,7.79,0,0,0-4.05,1.1,8.31,8.31,0,0,0-2.95,3,7.94,7.94,0,0,0-1.1,4.07,7.79,7.79,0,0,0,1.1,4,8.26,8.26,0,0,0,2.95,3,8,8,0,0,0,7.17.46Z"/><path class="cls-2" d="M87.62,71.23h-8L74.72,59.48H69.66V71.23H62.23V40.12H77.05A9.72,9.72,0,0,1,85.44,45a9.56,9.56,0,0,1,1.29,4.84,9.39,9.39,0,0,1-1.18,4.64,10.19,10.19,0,0,1-3.22,3.5Zm-8.76-23.7a3,3,0,0,0-2.07-1h-7.3v6.6h7.3A3.15,3.15,0,0,0,78.86,52a3.28,3.28,0,0,0,.83-2.27A3.23,3.23,0,0,0,78.86,47.53Z"/><path class="cls-2" d="M113,42.23A15.67,15.67,0,0,1,118.72,48a15.81,15.81,0,0,1,0,15.78A15.76,15.76,0,0,1,113,69.47a15.79,15.79,0,0,1-15.77,0,15.67,15.67,0,0,1-5.74-5.72,15.74,15.74,0,0,1,0-15.78,15.57,15.57,0,0,1,5.74-5.74,15.79,15.79,0,0,1,15.77,0Zm-3.83,20.64a8.34,8.34,0,0,0,3-2.95,7.7,7.7,0,0,0,1.1-4.05,7.82,7.82,0,0,0-1.1-4.07,8.16,8.16,0,0,0-3-3,7.78,7.78,0,0,0-4-1.1,7.89,7.89,0,0,0-4.07,1.1,8.13,8.13,0,0,0-3,3A7.82,7.82,0,0,0,97,55.87a7.7,7.7,0,0,0,1.1,4.05,8.31,8.31,0,0,0,3,2.95,7.89,7.89,0,0,0,4.07,1.1A7.78,7.78,0,0,0,109.17,62.87Z"/><path class="cls-2" d="M148.51,40.12h6.86V71.23h-7.92l-8-13.25-8.06,13.25h-7.92V40.12h7.92V57.68l3.88-7,.22-.36h7.92l.17.36,3.87,7V40.12Z"/><path class="cls-2" d="M172.53,40a18.11,18.11,0,0,1,4.69,1.12,13.57,13.57,0,0,1,4.29,2.68,15.58,15.58,0,0,1,3.81,5.35,16,16,0,0,1,1.34,6.4,15.07,15.07,0,0,1-1.72,7.17,14.18,14.18,0,0,1-4.82,5.5,16.65,16.65,0,0,1-6.33,2.49,45.87,45.87,0,0,1-7.86.59l-3.6,0c-.77,0-1.91,0-3.44,0V39.77h8Q170.16,39.77,172.53,40Zm6.56,15.55a7.94,7.94,0,0,0-1.06-4,8.23,8.23,0,0,0-2.88-3,7.6,7.6,0,0,0-4-1.19h-4.31V63.62a33.75,33.75,0,0,0,5.43-.38,9.22,9.22,0,0,0,4.09-1.74,6.9,6.9,0,0,0,2.49-4.09A8.51,8.51,0,0,0,179.09,55.56Z"/><path class="cls-2" d="M203.51,50V49.4a2.73,2.73,0,0,0-1.08-2.17,3.91,3.91,0,0,0-2.62-.91,4.14,4.14,0,0,0-2.7.91A2.69,2.69,0,0,0,196,49.4a2,2,0,0,0,1.14,1.89,9.67,9.67,0,0,0,3,1.24c.21,0,.43.07.68.13l.77.17c3.14.77,5.24,1.63,6.3,2.6l.39.35a9.42,9.42,0,0,1,2.09,3,8.59,8.59,0,0,1-.09,7.3,9.65,9.65,0,0,1-2.48,3.21,12,12,0,0,1-3.7,2.1,13,13,0,0,1-4.31.72,12.79,12.79,0,0,1-4.29-.72,12.09,12.09,0,0,1-3.68-2.1,9.84,9.84,0,0,1-2.5-3.21,8.46,8.46,0,0,1-.88-3.78v-.57h7.7v.57a2.75,2.75,0,0,0,1.08,2.18,3.86,3.86,0,0,0,2.57.9,4.2,4.2,0,0,0,2.71-.9,2.73,2.73,0,0,0,1.12-2.18,2.55,2.55,0,0,0-1.19-1.94,5.12,5.12,0,0,0-1.23-.66c-.47-.17-1-.35-1.72-.53L198,58.86c-1.61-.41-2.88-.77-3.78-1.1a7.59,7.59,0,0,1-2.51-1.49l-.18-.18A9.74,9.74,0,0,1,189.23,53a8.35,8.35,0,0,1-.81-3.61,8.46,8.46,0,0,1,.88-3.78,10.06,10.06,0,0,1,2.5-3.21,11.86,11.86,0,0,1,3.68-2.09,12.56,12.56,0,0,1,4.29-.73,12.8,12.8,0,0,1,4.31.73,11.74,11.74,0,0,1,3.7,2.09,9.85,9.85,0,0,1,2.48,3.21,8.71,8.71,0,0,1,.86,3.78V50Z"/><path class="cls-2" d="M230.57,40.12h7.92V71.23h-7.92V59.61h-8.89V71.23h-7.92V40.12h7.92V51.69h8.89Z"/><path class="cls-2" d="M249.93,40.12V71.23H242V40.12Z"/><path class="cls-2" d="M261.37,63.75H273.6v7.48H253.45V40.12h7.92Z"/><path class="cls-2" d="M284.6,63.75h12.23v7.48H276.68V40.12h7.92Z"/><path class="cls-2" d="M307.83,40.12V71.23h-7.92V40.12Z"/><path class="cls-2" d="M328.47,40.12h7.92V71.23h-7.92l-9.15-16.68V71.23h-8V40.12h8l9.15,16.67Z"/><path class="cls-2" d="M370.49,55.83a15.37,15.37,0,0,1-2.11,7.87,15.62,15.62,0,0,1-5.75,5.72,15.72,15.72,0,0,1-15.77,0,15.69,15.69,0,0,1-5.72-5.72,15.79,15.79,0,0,1,0-15.77,15.74,15.74,0,0,1,5.72-5.74,15.82,15.82,0,0,1,14-.88,15.49,15.49,0,0,1,5,3.43l-7.08,4a7.79,7.79,0,0,0-4.09-1.1,7.7,7.7,0,0,0-4.05,1.1,8.23,8.23,0,0,0-2.95,3,8,8,0,0,0,0,8.12,8.31,8.31,0,0,0,2.95,2.94,7.7,7.7,0,0,0,4.05,1.1A7.85,7.85,0,0,0,359,62.71a8.25,8.25,0,0,0,3-3.23h-9.77v-7.3h17.82A17.08,17.08,0,0,1,370.49,55.83Z"/><path class="cls-2" d="M44.05,230.13h3.12v14.14h-3.6l-3.64-6-3.66,6h-3.6V230.13h3.6v8l1.76-3.2.1-.16h3.6l.08.16,1.76,3.2v-8Z"/><path class="cls-2" d="M56.41,230.13H60v14.14h-3.6V239h-4v5.28h-3.6V230.13h3.6v5.26h4Z"/><path class="cls-2" d="M69,230.27l4.62,14H70.11l-.92-2.86H64.81l-.9,2.86h-3.5l4.64-14Zm-3.22,8.22h2.52l-1.26-4Z"/><path class="cls-2" d="M84.65,230.13v3.6H81v10.54H77.41V233.73H73.79v-3.6H84.65Z"/><path class="cls-2" d="M95.65,230.13v14.14h-3.6V230.13Z"/><path class="cls-2" d="M107.91,230.13v3.6h-3.62v10.54h-3.62V233.73H97.05v-3.6h10.86Z"/><path class="cls-2" d="M118.91,230.13v14.14h-3.6V230.13Z"/><path class="cls-2" d="M127,234.61v-.26a1.26,1.26,0,0,0-.49-1,1.78,1.78,0,0,0-1.19-.41,1.87,1.87,0,0,0-1.23.41,1.22,1.22,0,0,0-.51,1,.92.92,0,0,0,.52.86,4.49,4.49,0,0,0,1.36.56l.31.06.35.08a6.88,6.88,0,0,1,2.86,1.18l.18.16a4.25,4.25,0,0,1,1,1.38,3.91,3.91,0,0,1,0,3.32,4.6,4.6,0,0,1-1.13,1.46,5.57,5.57,0,0,1-1.68,1,5.89,5.89,0,0,1-2,.33,5.79,5.79,0,0,1-2-.33,5.41,5.41,0,0,1-1.67-1,4.5,4.5,0,0,1-1.14-1.46,3.84,3.84,0,0,1-.4-1.72V240h3.5v.26a1.26,1.26,0,0,0,.49,1,1.76,1.76,0,0,0,1.17.41,1.92,1.92,0,0,0,1.23-.41,1.25,1.25,0,0,0,.51-1,1.15,1.15,0,0,0-.54-.88,2.29,2.29,0,0,0-.56-.3q-.33-.12-.78-.24l-.66-.16c-.74-.19-1.31-.36-1.72-.5a3.49,3.49,0,0,1-1.14-.68l-.08-.08a4.37,4.37,0,0,1-1-1.4,3.74,3.74,0,0,1-.37-1.64,3.81,3.81,0,0,1,.4-1.72,4.3,4.3,0,0,1,1.14-1.46,5.21,5.21,0,0,1,1.67-.95,5.79,5.79,0,0,1,2-.33,5.89,5.89,0,0,1,2,.33,5.37,5.37,0,0,1,1.68.95,4.39,4.39,0,0,1,1.13,1.46,3.94,3.94,0,0,1,.39,1.72v.26Z"/><path class="cls-2" d="M149.13,230.15v8.74a5.47,5.47,0,0,1-.75,2.8,5.59,5.59,0,0,1-2,2,5.5,5.5,0,0,1-2.81.75h-.32a5.41,5.41,0,0,1-2.8-.75,5.57,5.57,0,0,1-2-2,5.47,5.47,0,0,1-.75-2.8v-8.74H141v7.94a3.4,3.4,0,0,0,.6,2.06,1.93,1.93,0,0,0,1.64.82h.32a2,2,0,0,0,1.63-.83,3.31,3.31,0,0,0,.63-2v-7.94Z"/><path class="cls-2" d="M157.19,234.61v-.26a1.26,1.26,0,0,0-.49-1,1.78,1.78,0,0,0-1.19-.41,1.87,1.87,0,0,0-1.23.41,1.22,1.22,0,0,0-.51,1,.92.92,0,0,0,.52.86,4.49,4.49,0,0,0,1.36.56l.31.06.35.08a6.88,6.88,0,0,1,2.86,1.18l.18.16a4.25,4.25,0,0,1,1,1.38,3.91,3.91,0,0,1,0,3.32,4.6,4.6,0,0,1-1.13,1.46,5.57,5.57,0,0,1-1.68,1,5.89,5.89,0,0,1-2,.33,5.79,5.79,0,0,1-2-.33,5.41,5.41,0,0,1-1.67-1,4.5,4.5,0,0,1-1.14-1.46,3.84,3.84,0,0,1-.4-1.72V240h3.5v.26a1.26,1.26,0,0,0,.49,1,1.76,1.76,0,0,0,1.17.41,1.92,1.92,0,0,0,1.23-.41,1.25,1.25,0,0,0,.51-1,1.15,1.15,0,0,0-.54-.88,2.29,2.29,0,0,0-.56-.3q-.33-.12-.78-.24l-.66-.16c-.74-.19-1.31-.36-1.72-.5a3.49,3.49,0,0,1-1.14-.68l-.08-.08a4.37,4.37,0,0,1-1.05-1.4,3.74,3.74,0,0,1-.37-1.64,3.81,3.81,0,0,1,.4-1.72,4.3,4.3,0,0,1,1.14-1.46,5.21,5.21,0,0,1,1.67-.95,5.79,5.79,0,0,1,2-.33,5.89,5.89,0,0,1,2,.33,5.37,5.37,0,0,1,1.68.95,4.39,4.39,0,0,1,1.13,1.46,3.94,3.94,0,0,1,.39,1.72v.26Z"/><path class="cls-2" d="M171.47,241.21v3.06h-9.62V230.13h9.44v3.06h-5.82v2.48h4.9v3.06h-4.9v2.48Z"/><path class="cls-2" d="M179.27,230.08a8.07,8.07,0,0,1,2.13.51,6,6,0,0,1,1.95,1.22,7.15,7.15,0,0,1,1.73,2.43,7.37,7.37,0,0,1,.61,2.91,6.91,6.91,0,0,1-.78,3.26,6.65,6.65,0,0,1-2.19,2.5,7.78,7.78,0,0,1-2.88,1.13,21.1,21.1,0,0,1-3.57.27l-1.64,0c-.35,0-.87,0-1.56,0V230h3.62A24.06,24.06,0,0,1,179.27,230.08Zm3,7.07a3.61,3.61,0,0,0-.48-1.81,3.74,3.74,0,0,0-1.31-1.37,3.45,3.45,0,0,0-1.81-.54h-2v7.38a15.85,15.85,0,0,0,2.47-.17,4.4,4.4,0,0,0,1.86-.79,3.2,3.2,0,0,0,1.13-1.86A4.54,4.54,0,0,0,182.25,237.15Z"/><path class="cls-2" d="M202.73,233.19h-6.24v2.48h5v3.06h-5v5.54h-3.6V230.13h9.84Z"/><path class="cls-2" d="M214.27,231.09a7.16,7.16,0,0,1,0,12.38,7.17,7.17,0,0,1-7.17,0,7.15,7.15,0,0,1-2.61-2.6,7.17,7.17,0,0,1,0-7.17,7.1,7.1,0,0,1,2.61-2.61,7.17,7.17,0,0,1,7.17,0Zm-1.74,9.38a4,4,0,0,0,1.34-1.34,3.65,3.65,0,0,0,0-3.69,3.85,3.85,0,0,0-1.34-1.35,3.51,3.51,0,0,0-1.84-.5,3.56,3.56,0,0,0-1.86.5,3.69,3.69,0,0,0-1.34,1.35,3.65,3.65,0,0,0,0,3.69,3.82,3.82,0,0,0,1.34,1.34,3.65,3.65,0,0,0,1.86.5A3.61,3.61,0,0,0,212.53,240.47Z"/><path class="cls-2" d="M230.56,244.27H227l-2.24-5.34h-2.3v5.34H219V230.13h6.74a4.22,4.22,0,0,1,2.2.59,4.39,4.39,0,0,1,1.62,1.61,4.39,4.39,0,0,1,0,4.31,4.83,4.83,0,0,1-1.46,1.59Zm-4-10.77a1.28,1.28,0,0,0-.94-.47h-3.31v3h3.31a1.42,1.42,0,0,0,.94-.49,1.48,1.48,0,0,0,.38-1A1.43,1.43,0,0,0,226.58,233.5Z"/><path class="cls-2" d="M232.36,237.57a1.83,1.83,0,0,1-.5-1.16,1.54,1.54,0,0,1,.46-1.17,1.56,1.56,0,0,1,1.16-.49,1.62,1.62,0,0,1,1.66,1.66,1.56,1.56,0,0,1-.49,1.16,1.59,1.59,0,0,1-1.17.48A1.5,1.5,0,0,1,232.36,237.57Zm0,6.22a1.83,1.83,0,0,1-.5-1.16,1.54,1.54,0,0,1,.46-1.17,1.56,1.56,0,0,1,1.16-.49,1.62,1.62,0,0,1,1.66,1.66,1.56,1.56,0,0,1-.49,1.16,1.59,1.59,0,0,1-1.17.48A1.5,1.5,0,0,1,232.36,243.79Z"/><path id="Контур_4204" data-name="Контур 4204" class="cls-2" d="M202.91,142.52c-18.13,0-37.16,0-56.2,0-6.3,0-12.61-.14-18.92-.2-3.16,0-5.07-1-5.45-2.93-1-4.8-.4-9.62-.29-14.43a28.35,28.35,0,0,0,.22-3.67c-.33-3.1,3.65-5.6,8.77-5.55,19,.2,38.07,0,57.09.19,16.24.19,32.48,0,48.71.3,17.14.28,34.28,0,51.42.31,13.2.24,26.4.1,39.6.23,3.87,0,4.31.43,4.67,2.88.68,4.55.46,9.11.6,13.66a11,11,0,0,0,4.44,8.3c.38.31,1.09.6.67,1.06s-1.18.24-1.8.24c-23,0-45.94.12-68.91-.12C246.29,142.55,225.05,142.76,202.91,142.52Z"/><g class="cls-3"><path d="M140.27,129.42a3.52,3.52,0,0,1-.48,1.8,3.63,3.63,0,0,1-1.31,1.3,3.52,3.52,0,0,1-1.8.48,3.48,3.48,0,0,1-1.79-.48,3.71,3.71,0,0,1-1.31-1.3,3.61,3.61,0,0,1,0-3.6,3.63,3.63,0,0,1,1.31-1.3,3.4,3.4,0,0,1,1.79-.49,3.47,3.47,0,0,1,1.4.29,3.35,3.35,0,0,1,1.15.78l-1.62.92a1.84,1.84,0,0,0-1.85,0,1.82,1.82,0,0,0-.67.68,1.74,1.74,0,0,0-.25.92,1.72,1.72,0,0,0,.25.92,1.9,1.9,0,0,0,.67.68,1.84,1.84,0,0,0,.92.25,1.87,1.87,0,0,0,1.65-1h-2.22v-1.66h4.06A3.67,3.67,0,0,1,140.27,129.42Z"/><path d="M142.67,125.84v7.09h-1.8v-7.09Z"/><path d="M148.94,125.84h1.8v7.09h-1.8v-4l-.89,1.6,0,.08h-1.8l-.05-.08-.12-.23-.75-1.37v4h-1.81v-7.09h1.81l1.82,3Z"/><path d="M157,125.84h1.81v7.09H157v-4l-.88,1.6,0,.08h-1.8l-.05-.08-.12-.23-.75-1.37v4h-1.82v-7.09h1.82l1.82,3Z"/><path d="M164.43,131.4v1.53h-4.82v-7.09h4.73v1.54h-2.92v1.24h2.46v1.53h-2.46v1.25Z"/><path d="M170.57,125.84v1.81h-1.81v5.28h-1.82v-5.28h-1.81v-1.81h5.44Z"/><path d="M175.1,125.84h1.8v7.09h-1.8v-2.65h-2v2.65h-1.81v-7.09h1.81v2.64h2Z"/><path d="M182.53,131.4v1.53h-4.82v-7.09h4.73v1.54h-2.92v1.24H182v1.53h-2.46v1.25Z"/><path d="M188.14,131.23h2.78v1.7h-4.59v-7.09h1.81Z"/><path d="M193.43,125.84v7.09h-1.8v-7.09Z"/><path d="M198.13,125.84h1.8v7.09h-1.8l-2.09-3.8v3.8h-1.81v-7.09H196l2.09,3.8Z"/><path d="M204.17,129.35l2.12,3.58h-2l-1.74-2.86v2.86h-1.81v-7.09h1.81v2.77l1.74-2.77h2Z"/><path d="M215.27,126.33a3.59,3.59,0,0,1,1.31,4.9,3.63,3.63,0,0,1-1.31,1.3,3.45,3.45,0,0,1-1.79.48,3.52,3.52,0,0,1-1.8-.48,3.63,3.63,0,0,1-1.31-1.3,3.57,3.57,0,0,1,1.31-4.9,3.43,3.43,0,0,1,1.8-.49A3.37,3.37,0,0,1,215.27,126.33Zm-.87,4.7a1.9,1.9,0,0,0,.67-.68,1.72,1.72,0,0,0,.25-.92,1.8,1.8,0,0,0-.25-.93,1.87,1.87,0,0,0-.67-.67,1.74,1.74,0,0,0-.92-.25,1.8,1.8,0,0,0-.93.25,1.87,1.87,0,0,0-.67.67,1.8,1.8,0,0,0-.25.93,1.72,1.72,0,0,0,.25.92,1.83,1.83,0,0,0,1.6.93A1.84,1.84,0,0,0,214.4,131Z"/><path d="M221.56,125.84h1.8v7.09h-1.8l-2.09-3.8v3.8h-1.81v-7.09h1.81l2.09,3.8Z"/><path d="M232.51,125.84v1.81H230.7v5.28h-1.82v-5.28h-1.81v-1.81h5.44Z"/><path d="M237,125.84h1.8v7.09H237v-2.65h-2v2.65h-1.81v-7.09H235v2.64h2Z"/><path d="M241.45,125.84v7.09h-1.8v-7.09Z"/><path d="M245.49,128.09V128a.63.63,0,0,0-.25-.5.92.92,0,0,0-.59-.2,1,1,0,0,0-.62.2.64.64,0,0,0-.26.5.46.46,0,0,0,.26.43,2.24,2.24,0,0,0,.69.28l.15,0,.18,0a3.44,3.44,0,0,1,1.43.59l.09.08a2.38,2.38,0,0,1,.48.69,2.13,2.13,0,0,1,.17.8,2,2,0,0,1-.19.87,2.3,2.3,0,0,1-.57.73,2.67,2.67,0,0,1-.84.47,3,3,0,0,1-1,.17,2.88,2.88,0,0,1-1-.17,2.67,2.67,0,0,1-.84-.47,2.3,2.3,0,0,1-.57-.73,2,2,0,0,1-.2-.87v-.13h1.75v.13a.64.64,0,0,0,.25.5.87.87,0,0,0,.59.21.92.92,0,0,0,.61-.21.63.63,0,0,0,.26-.5.58.58,0,0,0-.27-.44,1.25,1.25,0,0,0-.28-.15l-.39-.12-.34-.08a8.17,8.17,0,0,1-.86-.25,1.69,1.69,0,0,1-.57-.34l0,0a2.17,2.17,0,0,1-.52-.7,1.8,1.8,0,0,1-.19-.82,2,2,0,0,1,.2-.86,2.1,2.1,0,0,1,.57-.73,2.7,2.7,0,0,1,.84-.48,2.88,2.88,0,0,1,1-.17,3,3,0,0,1,1,.17,2.7,2.7,0,0,1,.84.48,2.1,2.1,0,0,1,.57.73,2,2,0,0,1,.19.86v.13Z"/><path d="M255.31,126.14a2.12,2.12,0,0,1,.8.8,2.2,2.2,0,0,1,0,2.22,2.19,2.19,0,0,1-.8.8,2.08,2.08,0,0,1-1.1.29h-1.69v2.68h-1.69v-7.09h3.38A2.09,2.09,0,0,1,255.31,126.14Zm-.69,1.39a.68.68,0,0,0-.47-.23h-1.67v1.5h1.67a.66.66,0,0,0,.47-.24.81.81,0,0,0,.2-.52A.76.76,0,0,0,254.62,127.53Z"/><path d="M262.79,132.93H261l-1.12-2.68H258.7v2.68H257v-7.09h3.38a2.14,2.14,0,0,1,1.1.3,2.25,2.25,0,0,1,.81.81,2.2,2.2,0,0,1,.29,1.1,2.17,2.17,0,0,1-.27,1.06,2.21,2.21,0,0,1-.73.79Zm-2-5.4a.66.66,0,0,0-.47-.23h-1.67v1.5h1.67a.72.72,0,0,0,.47-.24.79.79,0,0,0,0-1Z"/><path d="M268.58,126.33a3.6,3.6,0,0,1,1.3,1.3,3.62,3.62,0,0,1,0,3.6,3.68,3.68,0,0,1-1.3,1.3,3.62,3.62,0,0,1-3.6,0,3.6,3.6,0,0,1-1.3-1.3,3.55,3.55,0,0,1,0-3.6,3.52,3.52,0,0,1,1.3-1.3,3.55,3.55,0,0,1,3.6,0Zm-.88,4.7a2,2,0,0,0,.68-.68,1.81,1.81,0,0,0,.25-.92,1.91,1.91,0,0,0-.25-.93,2,2,0,0,0-.68-.67,1.72,1.72,0,0,0-.92-.25,1.8,1.8,0,0,0-.93.25,2,2,0,0,0-.67.67,1.8,1.8,0,0,0-.25.93,1.72,1.72,0,0,0,.25.92,2,2,0,0,0,.67.68,1.91,1.91,0,0,0,.93.25A1.81,1.81,0,0,0,267.7,131Z"/><path d="M274.68,125.82h1.67v4.38a2.75,2.75,0,0,1-.37,1.41,2.9,2.9,0,0,1-1,1,2.79,2.79,0,0,1-2.81,0,2.79,2.79,0,0,1-1-1,2.67,2.67,0,0,1-.38-1.41v-.29h1.67a1.62,1.62,0,0,0,.32,1,1,1,0,0,0,.81.38,1,1,0,0,0,.8-.42,1.66,1.66,0,0,0,.32-1Z"/><path d="M282,131.4v1.53h-4.82v-7.09h4.73v1.54H279v1.24h2.45v1.53H279v1.25Z"/><path d="M286.86,131.11a1.91,1.91,0,0,0,.6-.4l1.23,1.23a3.62,3.62,0,0,1-1.16.77,3.37,3.37,0,0,1-1.38.28,3.48,3.48,0,0,1-1.79-.48,3.6,3.6,0,0,1-1.3-1.3,3.55,3.55,0,0,1,0-3.6,3.52,3.52,0,0,1,1.3-1.3,3.4,3.4,0,0,1,1.79-.49,3.54,3.54,0,0,1,1.38.28,3.49,3.49,0,0,1,1.16.78l-1.23,1.22a1.91,1.91,0,0,0-.6-.4,1.87,1.87,0,0,0-.71-.14,1.74,1.74,0,0,0-.92.25,2,2,0,0,0-.67.67,1.8,1.8,0,0,0-.25.93,1.72,1.72,0,0,0,.25.92,2,2,0,0,0,.67.68,1.84,1.84,0,0,0,.92.25A1.71,1.71,0,0,0,286.86,131.11Z"/><path d="M294.63,125.84v1.81h-1.81v5.28H291v-5.28h-1.81v-1.81h5.44Z"/><path d="M302.82,126.14a2.12,2.12,0,0,1,.8.8,2.2,2.2,0,0,1,0,2.22,2.19,2.19,0,0,1-.8.8,2.14,2.14,0,0,1-1.11.29H300v2.68h-1.69v-7.09h3.37A2.15,2.15,0,0,1,302.82,126.14Zm-.69,1.39a.69.69,0,0,0-.48-.23H300v1.5h1.66a.66.66,0,0,0,.48-.24.81.81,0,0,0,.2-.52A.76.76,0,0,0,302.13,127.53Z"/><path d="M306.32,131.23h2.79v1.7h-4.59v-7.09h1.8Z"/><path d="M313.05,128.09V128a.63.63,0,0,0-.25-.5.92.92,0,0,0-.59-.2,1,1,0,0,0-.62.2.64.64,0,0,0-.26.5.46.46,0,0,0,.26.43,2.24,2.24,0,0,0,.69.28l.15,0,.18,0a3.44,3.44,0,0,1,1.43.59l.09.08a2.38,2.38,0,0,1,.48.69,2.13,2.13,0,0,1,.17.8,2,2,0,0,1-.19.87,2.3,2.3,0,0,1-.57.73,2.67,2.67,0,0,1-.84.47,3,3,0,0,1-1,.17,2.88,2.88,0,0,1-1-.17,2.67,2.67,0,0,1-.84-.47,2.3,2.3,0,0,1-.57-.73,2,2,0,0,1-.2-.87v-.13h1.75v.13a.64.64,0,0,0,.25.5.87.87,0,0,0,.59.21.92.92,0,0,0,.61-.21.63.63,0,0,0,.26-.5.58.58,0,0,0-.27-.44,1.25,1.25,0,0,0-.28-.15l-.39-.12-.34-.08a8.17,8.17,0,0,1-.86-.25,1.69,1.69,0,0,1-.57-.34l0,0a2.17,2.17,0,0,1-.52-.7,1.8,1.8,0,0,1-.19-.82,2,2,0,0,1,.2-.86,2.1,2.1,0,0,1,.57-.73,2.7,2.7,0,0,1,.84-.48,2.88,2.88,0,0,1,1-.17,3,3,0,0,1,1,.17,2.7,2.7,0,0,1,.84.48,2.1,2.1,0,0,1,.57.73,2,2,0,0,1,.19.86v.13Z"/></g><path id="Контур_4203" data-name="Контур 4203" class="cls-4" d="M180.7,179.49c15.2,0,31.16,0,47.12,0,5.29,0,10.58-.14,15.87-.2,2.65,0,4.24-1,4.56-3,.8-4.89.34-9.8.25-14.71a33.74,33.74,0,0,1-.18-3.75c.27-3.15-3.06-5.7-7.36-5.65-16,.2-31.92,0-47.87.2-13.61.19-27.23,0-40.84.3-14.37.28-28.74,0-43.1.32-11.07.24-22.14.09-33.21.23-3.24,0-3.61.44-3.92,2.94-.56,4.64-.38,9.28-.49,13.93a12.17,12.17,0,0,1-3.73,8.46c-.32.31-.91.6-.56,1.07s1,.25,1.51.25c19.26,0,38.52.12,57.77-.12C144.33,179.53,162.14,179.74,180.7,179.49Z"/><g id="here_-_wnf_agency" data-name="here - wnf agency" class="cls-3"><g class="cls-3"><path d="M115.31,164h1.8v7.09h-1.8v-2.65h-2v2.65h-1.8V164h1.8v2.64h2Z"/><path d="M122.73,169.55v1.54h-4.82V164h4.73v1.54h-2.91v1.24h2.45v1.53h-2.45v1.24Z"/><path d="M129.31,171.09H127.5l-1.12-2.68h-1.15v2.68h-1.7V164h3.38a2.14,2.14,0,0,1,1.1.3,2.22,2.22,0,0,1,.81.8,2.17,2.17,0,0,1,.29,1.11,2.11,2.11,0,0,1-.27,1,2.24,2.24,0,0,1-.73.8Zm-2-5.4a.66.66,0,0,0-.47-.23h-1.66V167h1.66a.69.69,0,0,0,.47-.25.78.78,0,0,0,0-1Z"/><path d="M134.74,169.55v1.54h-4.82V164h4.73v1.54h-2.92v1.24h2.46v1.53h-2.46v1.24Z"/><path d="M138.44,166.86h3.24v1.42h-3.24Z"/><path d="M149.75,170.47a1.31,1.31,0,0,1-.44-.67,2.43,2.43,0,0,1-1,.27,1.17,1.17,0,0,1-1-.45,1.65,1.65,0,0,1-.36-1.09,2.51,2.51,0,0,1,.21-1,2.2,2.2,0,0,1,.6-.84,2.56,2.56,0,0,1,1.76-.71,2.27,2.27,0,0,1,.65.08,2.37,2.37,0,0,1,.48.17l.23.12c0,.08-.08.28-.17.57s-.16.64-.24,1a5.93,5.93,0,0,0-.11,1c0,.36.07.59.21.67a.46.46,0,0,0,.26.08.77.77,0,0,0,.62-.44,2.88,2.88,0,0,0,.38-1.08,1.42,1.42,0,0,0,0-.23,2.89,2.89,0,0,0-.69-1.88,2.81,2.81,0,0,0-.93-.71,2.55,2.55,0,0,0-1.12-.25,2.65,2.65,0,0,0-.87.15,2.79,2.79,0,0,0-1,.66,3.21,3.21,0,0,0-.71,1,3.1,3.1,0,0,0-.25,1.22,3,3,0,0,0,.71,1.9,2.89,2.89,0,0,0,.95.71,2.63,2.63,0,0,0,1.14.25v1.05h-.29a3.87,3.87,0,0,1-2.15-.77,3.61,3.61,0,0,1-1.29-1.84,4,4,0,0,1-.2-1.26,4.58,4.58,0,0,1,.41-1.88,4.28,4.28,0,0,1,1.16-1.52,4,4,0,0,1,1.16-.65,3.88,3.88,0,0,1,1.31-.23,3.82,3.82,0,0,1,2.6,1,3.86,3.86,0,0,1,.92,1.36,4.08,4.08,0,0,1,.31,1.58,4,4,0,0,1-.42,1.81,1.29,1.29,0,0,1-.26.38,2.4,2.4,0,0,1-.64.55,1.55,1.55,0,0,1-.82.22l-.32,0A1.62,1.62,0,0,1,149.75,170.47Zm-.26-3.18a.83.83,0,0,1,.08-.18l-.1,0h-.17a1.57,1.57,0,0,0-.68.16,1.41,1.41,0,0,0-.6.59,1.2,1.2,0,0,0-.18.62.61.61,0,0,0,.12.39.42.42,0,0,0,.34.15,1.77,1.77,0,0,0,1-.48,2.65,2.65,0,0,1,0-.33,4.52,4.52,0,0,1,.07-.46C149.42,167.54,149.46,167.4,149.49,167.29Z"/><path d="M159.17,164h1.56v7.09h-1.8l-1.83-3-1.83,3h-1.81V164h1.81v4l.88-1.6,0-.08H158l0,.08.89,1.6v-4Z"/><path d="M165.43,164h1.8v7.09h-1.8l-2.08-3.8v3.8h-1.82V164h1.82l2.08,3.8Z"/><path d="M173,165.54h-3.13v1.24h2.5v1.53h-2.5v2.78H168V164H173Z"/><path d="M173.37,169.66h4.22v1.43h-4.22Z"/><path d="M181.88,164.07l2.32,7h-1.75l-.46-1.44H179.8l-.45,1.44h-1.76l2.33-7Zm-1.61,4.12h1.26l-.63-2Z"/><path d="M191.36,167.58a3.45,3.45,0,0,1-.48,1.79,3.59,3.59,0,0,1-4.9,1.31,3.55,3.55,0,0,1-1.3-1.31,3.45,3.45,0,0,1-.48-1.79,3.57,3.57,0,0,1,3.58-3.59,3.59,3.59,0,0,1,1.39.28,3.66,3.66,0,0,1,1.15.78l-1.61.93a1.85,1.85,0,0,0-1.86,0,1.87,1.87,0,0,0-.67.67,1.91,1.91,0,0,0-.25.93,1.84,1.84,0,0,0,.25.92,1.87,1.87,0,0,0,.67.67,1.75,1.75,0,0,0,.93.25,1.84,1.84,0,0,0,1-.27,1.94,1.94,0,0,0,.68-.74H187.2v-1.66h4.06A3.67,3.67,0,0,1,191.36,167.58Z"/><path d="M196.78,169.55v1.54H192V164h4.73v1.54h-2.91v1.24h2.45v1.53h-2.45v1.24Z"/><path d="M201.48,164h1.81v7.09h-1.81l-2.08-3.8v3.8h-1.81V164h1.81l2.08,3.8Z"/><path d="M208.18,169.27a2.17,2.17,0,0,0,.6-.4L210,170.1a3.58,3.58,0,0,1-1.15.77,3.44,3.44,0,0,1-1.38.28,3.55,3.55,0,0,1-3.1-1.79,3.45,3.45,0,0,1-.48-1.79,3.57,3.57,0,0,1,3.58-3.59,3.44,3.44,0,0,1,1.38.28A3.58,3.58,0,0,1,210,165l-1.22,1.23a2.17,2.17,0,0,0-.6-.4,1.86,1.86,0,0,0-1.64.11,1.87,1.87,0,0,0-.67.67,1.91,1.91,0,0,0-.25.93,1.84,1.84,0,0,0,.25.92,1.87,1.87,0,0,0,.67.67,1.86,1.86,0,0,0,1.64.11Z"/><path d="M214.37,164h1.8l-2.08,4.2v2.89h-1.8V168.2L210.2,164H212l1.18,2.42Z"/></g></g><path id="Контур_4205" data-name="Контур 4205" class="cls-2" d="M215.6,210.53c-16.13,0-33.06,0-50,0-5.61,0-11.22-.12-16.84-.17-2.81,0-4.5-.88-4.84-2.57-.84-4.21-.36-8.44-.26-12.66a24.86,24.86,0,0,0,.2-3.22c-.3-2.71,3.24-4.91,7.8-4.86,16.92.17,33.86,0,50.78.16,14.44.17,28.89,0,43.32.27,15.25.24,30.5,0,45.74.27,11.74.21,23.48.08,35.22.2,3.45,0,3.84.38,4.16,2.52.6,4,.41,8,.53,12a9.64,9.64,0,0,0,3.95,7.27c.34.28,1,.52.6.93s-1.05.22-1.6.21c-20.44,0-40.87.11-61.3-.1C254.18,210.56,235.29,210.74,215.6,210.53Z"/><g id="Wow_great_community_tnq_" data-name="Wow great community tnq " class="cls-3"><g class="cls-3"><path d="M165.36,196.7h1.56v7.09h-1.8l-1.83-3-1.83,3h-1.81V196.7h1.81v4l.88-1.6,0-.08h1.8l0,.08.89,1.6v-4Z"/><path d="M172.9,197.19a3.52,3.52,0,0,1,1.3,1.3,3.55,3.55,0,0,1,0,3.6,3.6,3.6,0,0,1-1.3,1.3,3.48,3.48,0,0,1-1.79.48,3.52,3.52,0,0,1-1.8-.48,3.63,3.63,0,0,1-1.31-1.3,3.58,3.58,0,0,1,4.9-4.9Zm-.87,4.7a2,2,0,0,0,.67-.68,1.72,1.72,0,0,0,.25-.92,1.74,1.74,0,0,0-.25-.92,1.9,1.9,0,0,0-.67-.68,1.74,1.74,0,0,0-.92-.25,1.78,1.78,0,0,0-.93.25,1.93,1.93,0,0,0-.68.68,1.84,1.84,0,0,0-.25.92,1.81,1.81,0,0,0,.25.92,2,2,0,0,0,.68.68,1.88,1.88,0,0,0,.93.25A1.84,1.84,0,0,0,172,201.89Z"/><path d="M181,196.7h1.56v7.09h-1.8l-1.83-3-1.83,3h-1.8V196.7h1.8v4l.88-1.6L178,199h1.81l0,.08.88,1.6v-4Z"/><path d="M183.35,196.77h2l-.1,4.94h-1.76ZM185,203.6a.91.91,0,0,1-1.27,0,.84.84,0,0,1-.26-.62.9.9,0,0,1,1.79,0A.84.84,0,0,1,185,203.6Z"/><path d="M196.08,200.28a3.52,3.52,0,0,1-.48,1.8,3.63,3.63,0,0,1-1.31,1.3,3.52,3.52,0,0,1-1.8.48,3.48,3.48,0,0,1-1.79-.48,3.6,3.6,0,0,1-1.3-1.3,3.58,3.58,0,0,1,1.3-4.9,3.4,3.4,0,0,1,1.79-.49,3.47,3.47,0,0,1,1.4.29,3.35,3.35,0,0,1,1.15.78l-1.62.92a1.84,1.84,0,0,0-1.85,0,1.9,1.9,0,0,0-.67.68,1.74,1.74,0,0,0-.25.92,1.72,1.72,0,0,0,.25.92,2,2,0,0,0,.67.68,1.84,1.84,0,0,0,.92.25,1.8,1.8,0,0,0,1-.28,1.82,1.82,0,0,0,.69-.74h-2.23v-1.66H196A3.67,3.67,0,0,1,196.08,200.28Z"/><path d="M202.46,203.79h-1.81l-1.12-2.68h-1.16v2.68h-1.69V196.7h3.38a2.14,2.14,0,0,1,1.1.3,2.19,2.19,0,0,1,1.1,1.91A2.17,2.17,0,0,1,202,200a2.21,2.21,0,0,1-.73.79Zm-2-5.4a.66.66,0,0,0-.47-.23h-1.67v1.5H200a.72.72,0,0,0,.47-.24.79.79,0,0,0,0-1Z"/><path d="M207.88,202.26v1.53h-4.82V196.7h4.73v1.54h-2.91v1.24h2.45V201h-2.45v1.25Z"/><path d="M212.37,196.77l2.32,7h-1.75l-.46-1.43h-2.19l-.45,1.43h-1.76l2.33-7Zm-1.61,4.12H212l-.63-2Z"/><path d="M220.23,196.7v1.81h-1.81v5.28H216.6v-5.28h-1.81V196.7h5.44Z"/><path d="M228,202a2.17,2.17,0,0,0,.6-.4l1.22,1.23a3.58,3.58,0,0,1-1.15.77,3.45,3.45,0,0,1-1.39.28,3.51,3.51,0,0,1-1.79-.48,3.6,3.6,0,0,1-1.3-1.3,3.59,3.59,0,0,1,3.09-5.39,3.63,3.63,0,0,1,1.39.28,3.45,3.45,0,0,1,1.15.78L228.63,199a2.17,2.17,0,0,0-.6-.4,2,2,0,0,0-.72-.14,1.74,1.74,0,0,0-.92.25,1.9,1.9,0,0,0-.67.68,1.74,1.74,0,0,0-.25.92,1.72,1.72,0,0,0,.25.92,2,2,0,0,0,.67.68,1.84,1.84,0,0,0,.92.25A1.79,1.79,0,0,0,228,202Z"/><path d="M235.63,197.19a3.52,3.52,0,0,1,1.3,1.3,3.55,3.55,0,0,1,0,3.6,3.6,3.6,0,0,1-1.3,1.3,3.48,3.48,0,0,1-1.79.48,3.52,3.52,0,0,1-1.8-.48,3.63,3.63,0,0,1-1.31-1.3,3.58,3.58,0,0,1,4.9-4.9Zm-.87,4.7a2,2,0,0,0,.67-.68,1.72,1.72,0,0,0,.25-.92,1.74,1.74,0,0,0-.25-.92,1.9,1.9,0,0,0-.67-.68,1.74,1.74,0,0,0-.92-.25,1.78,1.78,0,0,0-.93.25,1.93,1.93,0,0,0-.68.68,1.84,1.84,0,0,0-.25.92,1.81,1.81,0,0,0,.25.92,2,2,0,0,0,.68.68,1.88,1.88,0,0,0,.93.25A1.84,1.84,0,0,0,234.76,201.89Z"/><path d="M243.48,196.7h1.8v7.09h-1.8v-4l-.88,1.6,0,.08h-1.81l-.05-.08-.12-.23-.75-1.37v4H238V196.7h1.81l1.82,3Z"/><path d="M251.54,196.7h1.81v7.09h-1.81v-4l-.88,1.6,0,.08h-1.8l0-.08-.12-.23-.75-1.37v4h-1.82V196.7h1.82l1.82,3Z"/><path d="M259.91,196.71v4.38a2.81,2.81,0,0,1-2.8,2.8H257a2.76,2.76,0,0,1-1.41-.38,2.87,2.87,0,0,1-1-1,2.76,2.76,0,0,1-.38-1.41v-4.38h1.67v4a1.73,1.73,0,0,0,.3,1,1,1,0,0,0,.83.41h.16a1,1,0,0,0,.81-.42,1.66,1.66,0,0,0,.32-1v-4Z"/><path d="M264.61,196.7h1.81v7.09h-1.81l-2.08-3.8v3.8h-1.82V196.7h1.82l2.08,3.8Z"/><path d="M269,196.7v7.09h-1.8V196.7Z"/><path d="M275.16,196.7v1.81h-1.81v5.28h-1.81v-5.28h-1.82V196.7h5.44Z"/><path d="M279.63,196.7h1.81l-2.09,4.2v2.89h-1.8V200.9l-2.09-4.2h1.81l1.18,2.42Z"/><path d="M282.18,202.56h1.69l-.74,2.26h-1.49Z"/><path d="M292.82,196.7v1.81H291v5.28h-1.82v-5.28h-1.81V196.7h5.44Z"/><path d="M297.42,196.7h1.8v7.09h-1.8l-2.08-3.8v3.8h-1.82V196.7h1.82l2.08,3.8Z"/><path d="M306.71,201.64a3.81,3.81,0,0,1-.75,1.15l.63,1-1.38.86-.62-1a3.67,3.67,0,0,1-1.19.2,3.48,3.48,0,0,1-1.79-.48,3.6,3.6,0,0,1-1.3-1.3,3.55,3.55,0,0,1,0-3.6,3.52,3.52,0,0,1,1.3-1.3,3.4,3.4,0,0,1,1.79-.49,3.43,3.43,0,0,1,1.8.49,3.6,3.6,0,0,1,1.3,1.3,3.52,3.52,0,0,1,.48,1.8A3.47,3.47,0,0,1,306.71,201.64Zm-4.91-.44a1.93,1.93,0,0,0,.68.68,1.84,1.84,0,0,0,.92.25,1.88,1.88,0,0,0,.93-.25,1.9,1.9,0,0,0,.67-.68,1.81,1.81,0,0,0,.25-.92,1.88,1.88,0,0,0-.92-1.6,1.78,1.78,0,0,0-.93-.25,1.74,1.74,0,0,0-.92.25,1.82,1.82,0,0,0-.92,1.6A1.8,1.8,0,0,0,301.8,201.2Z"/><path d="M307.58,196.77h1.95l-.1,4.94h-1.75Zm1.6,6.83a.86.86,0,0,1-.63.26.88.88,0,0,1-.63-.26.84.84,0,0,1-.26-.62.86.86,0,0,1,.26-.63.84.84,0,0,1,.63-.26.89.89,0,0,1,.89.89A.8.8,0,0,1,309.18,203.6Z"/></g></g><circle class="cls-2" cx="182.36" cy="96.91" r="5.67"/><circle class="cls-2" cx="202.54" cy="96.91" r="5.67"/><circle class="cls-2" cx="222.73" cy="96.91" r="5.67"/><path d="M34.78,262.78v9.35H32.4v-9.35Z"/><path d="M42.88,262.78v2.38H40.49v7h-2.4v-7H35.7v-2.38h7.18Z"/><path d="M52.64,262.88l3,9.25h-2.3l-.61-1.89H49.89l-.6,1.89H47l3.07-9.25Zm-2.13,5.43h1.67l-.84-2.62Z"/><path d="M58.34,269.88H62v2.25H56v-9.35h2.38Z"/><path d="M65.32,269.88H69v2.25h-6v-9.35h2.38Z"/><path d="M76.76,263.42a4.7,4.7,0,0,1,1.71,1.72,4.59,4.59,0,0,1,.64,2.38,4.52,4.52,0,0,1-.64,2.36,4.71,4.71,0,0,1-4.08,2.36A4.53,4.53,0,0,1,72,271.6a4.68,4.68,0,0,1-2.36-4.08,4.68,4.68,0,0,1,2.36-4.1,4.53,4.53,0,0,1,2.37-.64A4.58,4.58,0,0,1,76.76,263.42Zm-1.15,6.2a2.5,2.5,0,0,0,.88-.89,2.32,2.32,0,0,0,.33-1.21,2.41,2.41,0,0,0-.33-1.23,2.5,2.5,0,0,0-.88-.89,2.42,2.42,0,0,0-2.44,0,2.48,2.48,0,0,0-.9.89,2.41,2.41,0,0,0-.33,1.23,2.32,2.32,0,0,0,.33,1.21,2.48,2.48,0,0,0,.9.89,2.42,2.42,0,0,0,2.44,0Z"/><path d="M87.43,262.78h2.06v9.35H87.11l-2.41-4-2.42,4H79.9v-9.35h2.38v5.28l1.17-2.12.06-.1h2.38l.06.1,1.16,2.12v-5.28Z"/><path d="M94.82,265.75v-.18a.82.82,0,0,0-.33-.65,1.17,1.17,0,0,0-.78-.27,1.28,1.28,0,0,0-.82.27.82.82,0,0,0-.33.65.6.6,0,0,0,.34.57,2.71,2.71,0,0,0,.9.37l.2,0,.24.05a4.64,4.64,0,0,1,1.89.78l.12.11a2.88,2.88,0,0,1,.62.91,2.57,2.57,0,0,1,.23,1.06,2.63,2.63,0,0,1-.25,1.14,3,3,0,0,1-.75,1,3.4,3.4,0,0,1-1.11.63,3.82,3.82,0,0,1-1.3.22,3.72,3.72,0,0,1-1.29-.22,3.35,3.35,0,0,1-1.1-.63,2.85,2.85,0,0,1-.75-1,2.52,2.52,0,0,1-.27-1.14v-.17H92.6v.17a.8.8,0,0,0,.32.65,1.13,1.13,0,0,0,.77.28,1.24,1.24,0,0,0,.82-.28.81.81,0,0,0,.33-.65.77.77,0,0,0-.35-.58,1.46,1.46,0,0,0-.37-.2c-.14-.05-.32-.11-.52-.16l-.44-.1c-.48-.13-.86-.24-1.13-.33a2.35,2.35,0,0,1-.76-.45l0-.06a2.89,2.89,0,0,1-.69-.92,2.45,2.45,0,0,1-.25-1.09,2.51,2.51,0,0,1,.27-1.13,2.79,2.79,0,0,1,.75-1,3.75,3.75,0,0,1,1.1-.63,4,4,0,0,1,1.29-.22,4.08,4.08,0,0,1,1.3.22,3.8,3.8,0,0,1,1.11.63,2.92,2.92,0,0,1,.75,1,2.62,2.62,0,0,1,.25,1.13v.18Z"/><path d="M106.84,262.78h2.38l-2.75,5.54v3.81h-2.39v-3.81l-2.75-5.54h2.38l1.57,3.19Z"/><path d="M116.58,263.42a4.7,4.7,0,0,1,2.35,4.1,4.7,4.7,0,0,1-2.35,4.08,4.53,4.53,0,0,1-2.37.64,4.58,4.58,0,0,1-2.37-.64,4.68,4.68,0,0,1-1.73-1.72,4.61,4.61,0,0,1-.63-2.36,4.68,4.68,0,0,1,.63-2.38,4.76,4.76,0,0,1,1.73-1.72,4.58,4.58,0,0,1,2.37-.64A4.53,4.53,0,0,1,116.58,263.42Zm-1.15,6.2a2.53,2.53,0,0,0,.89-.89,2.32,2.32,0,0,0,.33-1.21,2.41,2.41,0,0,0-.33-1.23,2.53,2.53,0,0,0-.89-.89,2.35,2.35,0,0,0-1.22-.33,2.38,2.38,0,0,0-1.22.33,2.53,2.53,0,0,0-.89.89,2.41,2.41,0,0,0-.33,1.23,2.32,2.32,0,0,0,.33,1.21,2.53,2.53,0,0,0,.89.89,2.38,2.38,0,0,0,1.22.33A2.35,2.35,0,0,0,115.43,269.62Z"/><path d="M127.33,262.8v5.77a3.65,3.65,0,0,1-.5,1.86,3.74,3.74,0,0,1-1.34,1.34,3.64,3.64,0,0,1-1.86.49h-.21a3.64,3.64,0,0,1-1.86-.49,3.74,3.74,0,0,1-1.34-1.34,3.64,3.64,0,0,1-.49-1.86V262.8h2.2v5.25a2.28,2.28,0,0,0,.4,1.36,1.29,1.29,0,0,0,1.09.54h.21a1.29,1.29,0,0,0,1.08-.55,2.21,2.21,0,0,0,.41-1.35V262.8Z"/><path d="M139.4,262.78v2.38H137v7h-2.39v-7h-2.4v-2.38h7.18Z"/><path d="M147.16,263.42a4.72,4.72,0,0,1,1.72,6.46,4.58,4.58,0,0,1-1.72,1.72,4.52,4.52,0,0,1-2.36.64,4.59,4.59,0,0,1-2.38-.64,4.65,4.65,0,0,1-1.72-1.72,4.52,4.52,0,0,1-.64-2.36,4.59,4.59,0,0,1,.64-2.38,4.73,4.73,0,0,1,1.72-1.72,4.59,4.59,0,0,1,2.38-.64A4.52,4.52,0,0,1,147.16,263.42Zm-1.15,6.2a2.53,2.53,0,0,0,.89-.89,2.32,2.32,0,0,0,.33-1.21,2.41,2.41,0,0,0-.33-1.23,2.53,2.53,0,0,0-.89-.89,2.32,2.32,0,0,0-1.21-.33,2.41,2.41,0,0,0-1.23.33,2.53,2.53,0,0,0-.89.89,2.41,2.41,0,0,0-.33,1.23,2.32,2.32,0,0,0,.33,1.21,2.53,2.53,0,0,0,.89.89,2.41,2.41,0,0,0,1.23.33A2.32,2.32,0,0,0,146,269.62Z"/><path d="M159.67,269.73a2.64,2.64,0,0,0,.79-.52l1.62,1.61a4.92,4.92,0,0,1-1.52,1,4.7,4.7,0,0,1-1.83.36,4.61,4.61,0,0,1-2.36-.63,4.73,4.73,0,0,1-1.72-1.72,4.71,4.71,0,0,1,0-4.74,4.68,4.68,0,0,1,4.08-2.36,4.7,4.7,0,0,1,1.83.36,4.6,4.6,0,0,1,1.52,1l-1.62,1.61a2.47,2.47,0,0,0-.79-.52,2.33,2.33,0,0,0-.94-.2,2.24,2.24,0,0,0-1.21.34,2.38,2.38,0,0,0-.89.89,2.42,2.42,0,0,0,0,2.44,2.42,2.42,0,0,0,.89.88,2.4,2.4,0,0,0,2.15.14Z"/><path d="M170.5,272.13h-2.39l-1.48-3.53H165.1v3.53h-2.23v-9.35h4.46a2.92,2.92,0,0,1,2.55,4.31,3,3,0,0,1-1,1.05ZM167.87,265a.91.91,0,0,0-.62-.31h-2.2v2h2.2a.92.92,0,0,0,.62-.32,1,1,0,0,0,.25-.68A1,1,0,0,0,167.87,265Z"/><path d="M177.65,270.11v2h-6.36v-9.35h6.24v2h-3.84v1.64h3.23v2h-3.23v1.64Z"/><path d="M183.58,262.88l3,9.25h-2.3l-.61-1.89h-2.89l-.6,1.89h-2.31l3.06-9.25Zm-2.13,5.43h1.66l-.83-2.62Z"/><path d="M193.94,262.78v2.38h-2.39v7h-2.39v-7h-2.4v-2.38h7.18Z"/><path d="M201.23,270.11v2h-6.36v-9.35h6.24v2h-3.85v1.64h3.24v2h-3.24v1.64Z"/><path d="M211.12,262.88l3,9.25h-2.3l-.61-1.89h-2.89l-.6,1.89h-2.31l3.07-9.25ZM209,268.31h1.66l-.83-2.62Z"/><path d="M224.32,263.17a3,3,0,0,1,1.06,1.06,2.93,2.93,0,0,1,0,2.92,2.91,2.91,0,0,1-1.06,1.06,2.85,2.85,0,0,1-1.46.39h-2.22v3.53H218.4v-9.35h4.46A2.85,2.85,0,0,1,224.32,263.17Zm-.91,1.84a.91.91,0,0,0-.63-.31h-2.2v2h2.2a.85.85,0,0,0,.63-.32,1,1,0,0,0,.26-.68A1,1,0,0,0,223.41,265Z"/><path d="M233.4,263.42a4.7,4.7,0,0,1,1.71,1.72,4.59,4.59,0,0,1,.64,2.38,4.52,4.52,0,0,1-.64,2.36,4.71,4.71,0,0,1-4.08,2.36,4.53,4.53,0,0,1-2.37-.64,4.68,4.68,0,0,1-2.36-4.08,4.68,4.68,0,0,1,2.36-4.1,4.53,4.53,0,0,1,2.37-.64A4.58,4.58,0,0,1,233.4,263.42Zm-1.15,6.2a2.5,2.5,0,0,0,.88-.89,2.32,2.32,0,0,0,.33-1.21,2.41,2.41,0,0,0-.33-1.23,2.5,2.5,0,0,0-.88-.89,2.42,2.42,0,0,0-2.44,0,2.48,2.48,0,0,0-.9.89,2.41,2.41,0,0,0-.33,1.23,2.32,2.32,0,0,0,.33,1.21,2.48,2.48,0,0,0,.9.89,2.42,2.42,0,0,0,2.44,0Z"/><path d="M240.81,265.75v-.18a.81.81,0,0,0-.32-.65,1.2,1.2,0,0,0-.79-.27,1.24,1.24,0,0,0-.81.27.8.8,0,0,0-.34.65.6.6,0,0,0,.35.57,2.74,2.74,0,0,0,.89.37l.21,0,.23.05a4.64,4.64,0,0,1,1.89.78l.12.11a2.91,2.91,0,0,1,.63.91,2.74,2.74,0,0,1,.23,1.06,2.64,2.64,0,0,1-.26,1.14,3,3,0,0,1-.74,1,3.4,3.4,0,0,1-1.11.63,3.82,3.82,0,0,1-1.3.22,3.72,3.72,0,0,1-1.29-.22,3.25,3.25,0,0,1-1.1-.63,3,3,0,0,1-.76-1,2.64,2.64,0,0,1-.26-1.14v-.17h2.31v.17a.81.81,0,0,0,.33.65,1.11,1.11,0,0,0,.77.28,1.19,1.19,0,0,0,.81-.28.79.79,0,0,0,.34-.65.76.76,0,0,0-.36-.58,1.31,1.31,0,0,0-.37-.2,5.27,5.27,0,0,0-.51-.16l-.44-.1-1.14-.33a2.42,2.42,0,0,1-.75-.45l-.05-.06a3.08,3.08,0,0,1-.7-.92,2.58,2.58,0,0,1-.24-1.09,2.63,2.63,0,0,1,.26-1.13,3,3,0,0,1,.76-1,3.63,3.63,0,0,1,1.1-.63,4,4,0,0,1,1.29-.22,4.08,4.08,0,0,1,1.3.22,3.8,3.8,0,0,1,1.11.63,2.89,2.89,0,0,1,.74,1,2.63,2.63,0,0,1,.26,1.13v.18Z"/><path d="M246.27,262.78v9.35h-2.38v-9.35Z"/><path d="M254.38,262.78v2.38H252v7h-2.4v-7H247.2v-2.38h7.18Z"/><path d="M257.68,262.78v9.35H255.3v-9.35Z"/><path d="M264.89,262.76h2.59l-3.05,9.37h-2.91l-3-9.37h2.62L263,268.6Z"/><path d="M274.63,270.11v2h-6.35v-9.35h6.24v2h-3.85v1.64h3.24v2h-3.24v1.64Z"/><path d="M282,262.78v9.35h-2.38v-9.35Z"/><path d="M290.3,262.78h2.38v9.35H290.3v-5.27L289.14,269l-.05.11h-2.38l-.07-.11-.16-.3-1-1.81v5.27H283.1v-9.35h2.39l2.41,4Z"/><path d="M298.61,262.88l3.05,9.25h-2.3l-.61-1.89h-2.89l-.6,1.89H293l3.06-9.25Zm-2.13,5.43h1.66l-.83-2.62Z"/><path d="M311.11,267.5a4.62,4.62,0,0,1-.63,2.37,4.68,4.68,0,0,1-1.73,1.72,4.62,4.62,0,0,1-2.37.63,4.67,4.67,0,0,1-2.37-.63,4.81,4.81,0,0,1-1.72-1.72,4.62,4.62,0,0,1-.63-2.37,4.67,4.67,0,0,1,.63-2.37A4.83,4.83,0,0,1,304,263.4a4.67,4.67,0,0,1,2.37-.63,4.55,4.55,0,0,1,1.84.37,4.7,4.7,0,0,1,1.52,1l-2.13,1.22a2.44,2.44,0,0,0-2.45,0,2.5,2.5,0,0,0-.88.89,2.38,2.38,0,0,0-.33,1.22,2.35,2.35,0,0,0,.33,1.22,2.5,2.5,0,0,0,.88.89,2.35,2.35,0,0,0,1.22.33,2.28,2.28,0,0,0,1.28-.37,2.4,2.4,0,0,0,.9-1h-2.93v-2.19H311A4.89,4.89,0,0,1,311.11,267.5Z"/><path d="M318.27,270.11v2h-6.36v-9.35h6.24v2H314.3v1.64h3.24v2H314.3v1.64Z"/><path d="M330.13,263.42a4.81,4.81,0,0,1,1.72,1.72,4.68,4.68,0,0,1,.63,2.38,4.61,4.61,0,0,1-.63,2.36,4.73,4.73,0,0,1-1.72,1.72,4.71,4.71,0,0,1-4.74,0,4.68,4.68,0,0,1-2.36-4.08,4.68,4.68,0,0,1,2.36-4.1,4.71,4.71,0,0,1,4.74,0Zm-1.15,6.2a2.5,2.5,0,0,0,.88-.89,2.32,2.32,0,0,0,.33-1.21,2.41,2.41,0,0,0-.33-1.23,2.5,2.5,0,0,0-.88-.89,2.42,2.42,0,0,0-2.44,0,2.48,2.48,0,0,0-.9.89,2.41,2.41,0,0,0-.33,1.23,2.32,2.32,0,0,0,.33,1.21,2.48,2.48,0,0,0,.9.89,2.42,2.42,0,0,0,2.44,0Z"/><path d="M339.78,264.81h-4.13v1.64H339v2h-3.31v3.66h-2.38v-9.35h6.51Z"/><path d="M351.58,262.78v2.38h-2.39v7H346.8v-7h-2.39v-2.38h7.17Z"/><path d="M357.56,262.78h2.38v9.35h-2.38v-3.49h-2.67v3.49h-2.38v-9.35h2.38v3.48h2.67Z"/><path d="M367.36,270.11v2H361v-9.35h6.24v2h-3.85v1.64h3.24v2h-3.24v1.64Z"/><path d="M38.31,279a2.91,2.91,0,0,1-1.46,5.43H34.63V288H32.4v-9.35h4.45A2.83,2.83,0,0,1,38.31,279Zm-.91,1.84a.87.87,0,0,0-.63-.31H34.58v2h2.19a.92.92,0,0,0,.63-.32,1,1,0,0,0,.26-.68A1,1,0,0,0,37.4,280.88Z"/><path d="M48.18,288H45.79l-1.48-3.53H42.79V288H40.55v-9.35H45a2.94,2.94,0,0,1,2.52,1.45,2.88,2.88,0,0,1,.39,1.46,2.77,2.77,0,0,1-.36,1.39,3,3,0,0,1-1,1.05Zm-2.63-7.12a.85.85,0,0,0-.62-.31H42.74v2h2.19a.94.94,0,0,0,.62-.32,1,1,0,0,0,.25-.68A1,1,0,0,0,45.55,280.88Z"/><path d="M55.81,279.28a4.77,4.77,0,0,1,2.36,4.1,4.71,4.71,0,0,1-4.72,4.72,4.7,4.7,0,0,1-4.1-2.35,4.53,4.53,0,0,1-.64-2.37,4.58,4.58,0,0,1,.64-2.37,4.68,4.68,0,0,1,4.1-2.36A4.61,4.61,0,0,1,55.81,279.28Zm-1.15,6.21a2.53,2.53,0,0,0,.89-.89,2.35,2.35,0,0,0,.33-1.22,2.38,2.38,0,0,0-.33-1.22,2.53,2.53,0,0,0-.89-.89,2.32,2.32,0,0,0-1.21-.33,2.39,2.39,0,0,0-1.23.33,2.53,2.53,0,0,0-.89.89,2.38,2.38,0,0,0-.33,1.22,2.35,2.35,0,0,0,.33,1.22,2.53,2.53,0,0,0,.89.89,2.39,2.39,0,0,0,1.23.33A2.32,2.32,0,0,0,54.66,285.49Z"/><path d="M63.86,278.62h2.21v5.78a3.64,3.64,0,0,1-1.84,3.19,3.67,3.67,0,0,1-3.7,0,3.66,3.66,0,0,1-1.34-1.34,3.59,3.59,0,0,1-.5-1.85V284H60.9a2.06,2.06,0,0,0,.43,1.26,1.27,1.27,0,0,0,1.05.5,1.3,1.3,0,0,0,1.07-.55,2.18,2.18,0,0,0,.41-1.36Z"/><path d="M73.49,286v2H67.13v-9.35h6.24v2H69.52v1.64h3.24v2H69.52V286Z"/><path d="M79.94,285.6a2.69,2.69,0,0,0,.8-.52l1.61,1.61a4.73,4.73,0,0,1-1.52,1,4.72,4.72,0,0,1-5.91-2,4.62,4.62,0,0,1-.64-2.36,4.74,4.74,0,0,1,2.36-4.1,4.69,4.69,0,0,1,4.19-.27,4.73,4.73,0,0,1,1.52,1l-1.61,1.62a2.54,2.54,0,0,0-.8-.53,2.5,2.5,0,0,0-.94-.19,2.32,2.32,0,0,0-1.21.33,2.53,2.53,0,0,0-.89.89,2.41,2.41,0,0,0-.33,1.23,2.32,2.32,0,0,0,.33,1.21,2.53,2.53,0,0,0,.89.89,2.4,2.4,0,0,0,2.15.14Z"/><path d="M90.19,278.65V281H87.8v7H85.4v-7H83v-2.38h7.18Z"/><path d="M91.56,286.37H93.8l-1,3h-2Z"/><path d="M103.7,278.65h2.38V288H103.7L101,283v5H98.56v-9.35H101l2.75,5Z"/><path d="M112,278.74l3.06,9.26h-2.3l-.61-1.89h-2.9l-.59,1.89h-2.31l3.06-9.26Zm-2.12,5.44h1.66l-.83-2.62Z"/><path d="M122.37,278.65V281H120v7h-2.4v-7h-2.39v-2.38h7.18Z"/><path d="M125.68,278.65V288H123.3v-9.35Z"/><path d="M132.88,278.62h2.59L132.42,288h-2.91l-3-9.38h2.62l1.89,5.85Z"/><path d="M142.63,286v2h-6.36v-9.35h6.24v2h-3.85v1.64h3.24v2h-3.24V286Z"/><path d="M155.28,288h-2.39l-1.48-3.53h-1.52V288h-2.24v-9.35h4.46a2.94,2.94,0,0,1,2.52,1.45,2.88,2.88,0,0,1,.39,1.46,2.77,2.77,0,0,1-.36,1.39,3,3,0,0,1-1,1.05Zm-2.63-7.12a.85.85,0,0,0-.62-.31h-2.2v2H152a.94.94,0,0,0,.62-.32,1,1,0,0,0,.25-.68A1,1,0,0,0,152.65,280.88Z"/><path d="M162.43,286v2h-6.36v-9.35h6.25v2h-3.85v1.64h3.24v2h-3.24V286Z"/><path d="M169.64,278.62h2.59l-3,9.38h-2.91l-3-9.38h2.61l1.9,5.85Z"/><path d="M175.4,278.65V288H173v-9.35Z"/><path d="M182.82,286v2h-6.36v-9.35h6.24v2h-3.84v1.64h3.23v2h-3.23V286Z"/><path d="M191.4,278.65h2.07V288h-2.38l-2.41-4-2.42,4h-2.38v-9.35h2.38v5.28l1.16-2.12.07-.11h2.38l0,.11,1.17,2.12v-5.28Z"/><path d="M198.79,281.61v-.17a.8.8,0,0,0-.32-.65,1.16,1.16,0,0,0-.79-.28,1.21,1.21,0,0,0-.81.28.82.82,0,0,0-.34.65.6.6,0,0,0,.35.57,2.94,2.94,0,0,0,.9.37l.2,0,.23.05a4.51,4.51,0,0,1,1.89.78l.12.11a2.81,2.81,0,0,1,.86,2,2.49,2.49,0,0,1-.26,1.13,2.89,2.89,0,0,1-.74,1,3.8,3.8,0,0,1-1.11.63,4.08,4.08,0,0,1-1.3.22,4,4,0,0,1-1.29-.22,3.63,3.63,0,0,1-1.1-.63,3,3,0,0,1-.76-1,2.63,2.63,0,0,1-.26-1.13v-.17h2.31v.17a.82.82,0,0,0,.33.65,1.15,1.15,0,0,0,.77.27,1.24,1.24,0,0,0,.81-.27.8.8,0,0,0,.34-.65.74.74,0,0,0-.36-.58,1.31,1.31,0,0,0-.37-.2,3.45,3.45,0,0,0-.51-.16l-.44-.11q-.72-.18-1.14-.33a2.24,2.24,0,0,1-.75-.45l-.05-.05a3,3,0,0,1-.7-.93,2.51,2.51,0,0,1-.24-1.08,2.64,2.64,0,0,1,.26-1.14,3,3,0,0,1,.76-1,3.25,3.25,0,0,1,1.1-.63,3.72,3.72,0,0,1,1.29-.22,3.82,3.82,0,0,1,1.3.22,3.4,3.4,0,0,1,1.11.63,3,3,0,0,1,.74,1,2.51,2.51,0,0,1,.26,1.14v.17Z"/><path d="M202.32,286.37h2.24l-1,3h-2Z"/><path d="M214.18,278.74l3.06,9.26h-2.3l-.61-1.89h-2.9l-.59,1.89h-2.32l3.07-9.26Zm-2.12,5.44h1.66l-.83-2.62Z"/><path d="M222.65,278.65H225V288h-2.38l-2.75-5v5h-2.4v-9.35h2.4l2.75,5Z"/><path d="M230.18,278.62a5.78,5.78,0,0,1,1.41.33,4.23,4.23,0,0,1,1.29.81,4.88,4.88,0,0,1,1.55,3.53,4.62,4.62,0,0,1-.52,2.16,4.27,4.27,0,0,1-1.45,1.65,5,5,0,0,1-1.9.75,14.92,14.92,0,0,1-2.36.17h-2.12v-9.46h2.4A16.3,16.3,0,0,1,230.18,278.62Zm2,4.67a2.44,2.44,0,0,0-.31-1.2,2.68,2.68,0,0,0-.87-.9,2.31,2.31,0,0,0-1.2-.36h-1.29v4.88a10.8,10.8,0,0,0,1.63-.11,2.92,2.92,0,0,0,1.23-.52,2.14,2.14,0,0,0,.75-1.23A3,3,0,0,0,232.15,283.29Z"/><path d="M244.05,278.74l3.06,9.26h-2.3l-.61-1.89h-2.9l-.59,1.89h-2.32l3.07-9.26Zm-2.13,5.44h1.67l-.83-2.62Z"/><path d="M254.42,278.65V281H252v7h-2.4v-7h-2.39v-2.38h7.18Z"/><path d="M262.39,278.65V281H260v7h-2.39v-7h-2.4v-2.38h7.18Z"/><path d="M271,288h-2.4l-1.48-3.53h-1.52V288h-2.23v-9.35h4.45a2.88,2.88,0,0,1,1.46.39,2.84,2.84,0,0,1,1.06,1.06,2.93,2.93,0,0,1,0,2.85,3.05,3.05,0,0,1-1,1.05Zm-2.63-7.12a.87.87,0,0,0-.63-.31H265.5v2h2.19a1,1,0,0,0,.63-.32,1,1,0,0,0,.25-.68A1,1,0,0,0,268.32,280.88Z"/><path d="M276.61,278.74l3.05,9.26h-2.3l-.61-1.89h-2.89l-.6,1.89H271l3.06-9.26Zm-2.13,5.44h1.66l-.83-2.62Z"/><path d="M285.32,285.6a2.64,2.64,0,0,0,.79-.52l1.62,1.61a4.84,4.84,0,0,1-1.52,1,4.71,4.71,0,0,1-4.2-.27,4.73,4.73,0,0,1-1.72-1.72,4.61,4.61,0,0,1-.63-2.36,4.68,4.68,0,0,1,.63-2.38,4.81,4.81,0,0,1,1.72-1.72,4.71,4.71,0,0,1,4.2-.27,4.84,4.84,0,0,1,1.52,1l-1.62,1.62a2.46,2.46,0,0,0-1.73-.72,2.35,2.35,0,0,0-1.22.33,2.5,2.5,0,0,0-.88.89,2.41,2.41,0,0,0-.33,1.23,2.32,2.32,0,0,0,.33,1.21,2.5,2.5,0,0,0,.88.89,2.35,2.35,0,0,0,1.22.33A2.32,2.32,0,0,0,285.32,285.6Z"/><path d="M295.57,278.65V281h-2.4v7h-2.39v-7h-2.39v-2.38h7.18Z"/><path d="M307.5,278.65V281h-2.39v7h-2.39v-7h-2.39v-2.38h7.17Z"/><path d="M313.48,278.65h2.38V288h-2.38v-3.49h-2.67V288h-2.38v-9.35h2.38v3.48h2.67Z"/><path d="M323.28,286v2h-6.36v-9.35h6.24v2h-3.85v1.64h3.24v2h-3.24V286Z"/><path d="M37.26,294.61l3.06,9.25H38L37.41,302h-2.9l-.59,1.89H31.6l3.07-9.25ZM35.13,300H36.8L36,297.43Z"/><path d="M47.63,294.52v2.38h-2.4v7H42.84v-7H40.45v-2.38h7.18Z"/><path d="M55.6,294.52v2.38H53.21v7h-2.4v-7H48.42v-2.38H55.6Z"/><path d="M62.89,301.84v2H56.53v-9.34h6.24v2H58.92v1.64h3.24v2H58.92v1.64Z"/><path d="M69.09,294.52h2.38v9.34H69.09l-2.75-5v5h-2.4v-9.34h2.4l2.75,5Z"/><path d="M79.57,294.52v2.38H77.18v7H74.79v-7h-2.4v-2.38h7.18Z"/><path d="M82.88,294.52v9.34H80.5v-9.34Z"/><path d="M90.77,295.15a4.73,4.73,0,0,1,1.72,6.47,4.81,4.81,0,0,1-1.72,1.72,4.61,4.61,0,0,1-2.36.63,4.7,4.7,0,0,1-4.1-2.35,4.71,4.71,0,0,1,0-4.74A4.61,4.61,0,0,1,86,295.15a4.68,4.68,0,0,1,2.38-.63A4.61,4.61,0,0,1,90.77,295.15Zm-1.15,6.2a2.5,2.5,0,0,0,.89-.88,2.42,2.42,0,0,0,0-2.44,2.48,2.48,0,0,0-.89-.9,2.32,2.32,0,0,0-1.21-.33,2.39,2.39,0,0,0-1.23.33,2.48,2.48,0,0,0-.89.9,2.42,2.42,0,0,0,0,2.44,2.5,2.5,0,0,0,.89.88,2.39,2.39,0,0,0,1.23.33A2.32,2.32,0,0,0,89.62,301.35Z"/><path d="M99.06,294.52h2.38v9.34H99.06l-2.75-5v5H93.92v-9.34h2.39l2.75,5Z"/><path d="M113.3,295.15a4.73,4.73,0,0,1,1.72,6.47,4.81,4.81,0,0,1-1.72,1.72,4.62,4.62,0,0,1-2.37.63,4.67,4.67,0,0,1-2.37-.63,4.73,4.73,0,0,1-1.72-1.72,4.71,4.71,0,0,1,0-4.74,4.61,4.61,0,0,1,1.72-1.73,4.67,4.67,0,0,1,2.37-.63A4.62,4.62,0,0,1,113.3,295.15Zm-1.15,6.2a2.5,2.5,0,0,0,.89-.88,2.42,2.42,0,0,0,0-2.44,2.48,2.48,0,0,0-.89-.9,2.33,2.33,0,0,0-1.22-.33,2.38,2.38,0,0,0-1.22.33,2.48,2.48,0,0,0-.89.9,2.42,2.42,0,0,0,0,2.44,2.5,2.5,0,0,0,.89.88,2.38,2.38,0,0,0,1.22.33A2.33,2.33,0,0,0,112.15,301.35Z"/><path d="M123,296.54h-4.12v1.64h3.3v2h-3.3v3.66h-2.38v-9.34H123Z"/><path d="M135.32,294.53v5.78a3.59,3.59,0,0,1-.5,1.85,3.69,3.69,0,0,1-1.35,1.34,3.65,3.65,0,0,1-1.86.5h-.21a3.59,3.59,0,0,1-1.85-.5,3.74,3.74,0,0,1-1.34-1.34,3.59,3.59,0,0,1-.5-1.85v-5.78h2.21v5.25a2.19,2.19,0,0,0,.4,1.36,1.26,1.26,0,0,0,1.08.54h.21a1.29,1.29,0,0,0,1.08-.55,2.13,2.13,0,0,0,.42-1.35v-5.25Z"/><path d="M140.64,297.48v-.17a.81.81,0,0,0-.32-.66,1.2,1.2,0,0,0-.79-.27,1.28,1.28,0,0,0-.81.27.83.83,0,0,0-.34.66.62.62,0,0,0,.35.57,3.21,3.21,0,0,0,.9.37.79.79,0,0,1,.2,0l.23,0a4.51,4.51,0,0,1,1.89.78l.12.1a2.69,2.69,0,0,1,.63.92,2.65,2.65,0,0,1,.23,1.05,2.51,2.51,0,0,1-.26,1.14,3.1,3.1,0,0,1-.74,1,3.56,3.56,0,0,1-1.11.62,3.82,3.82,0,0,1-1.3.22,3.72,3.72,0,0,1-1.29-.22,3.4,3.4,0,0,1-1.1-.62,3.17,3.17,0,0,1-.76-1,2.64,2.64,0,0,1-.26-1.14V301h2.31v.17a.82.82,0,0,0,.33.66,1.15,1.15,0,0,0,.77.27,1.24,1.24,0,0,0,.81-.27.81.81,0,0,0,.34-.66.77.77,0,0,0-.36-.58,1.61,1.61,0,0,0-.37-.2l-.51-.16-.44-.1q-.72-.18-1.14-.33a2.42,2.42,0,0,1-.75-.45l0-.05a3.25,3.25,0,0,1-.7-.93,2.51,2.51,0,0,1-.24-1.08,2.64,2.64,0,0,1,.26-1.14,3.17,3.17,0,0,1,.76-1,3.4,3.4,0,0,1,1.1-.62,3.72,3.72,0,0,1,1.29-.22,3.82,3.82,0,0,1,1.3.22,3.56,3.56,0,0,1,1.11.62,3.1,3.1,0,0,1,.74,1,2.51,2.51,0,0,1,.26,1.14v.17Z"/><path d="M150.08,301.84v2h-6.36v-9.34H150v2h-3.85v1.64h3.24v2h-3.24v1.64Z"/><path d="M158.77,303.86h-2.39l-1.48-3.53h-1.52v3.53h-2.24v-9.34h4.46a2.94,2.94,0,0,1,2.52,1.45,2.88,2.88,0,0,1,.39,1.46,2.8,2.8,0,0,1-.36,1.39,3,3,0,0,1-1,1.05Zm-2.63-7.12a.93.93,0,0,0-.62-.31h-2.2v2h2.2a1,1,0,0,0,.62-.33,1,1,0,0,0,.25-.68A1,1,0,0,0,156.14,296.74Z"/><path d="M163.84,297.48v-.17a.82.82,0,0,0-.33-.66,1.18,1.18,0,0,0-.79-.27,1.28,1.28,0,0,0-.81.27.83.83,0,0,0-.34.66.62.62,0,0,0,.35.57,3.21,3.21,0,0,0,.9.37.79.79,0,0,1,.2,0l.23,0a4.51,4.51,0,0,1,1.89.78l.12.1a2.69,2.69,0,0,1,.63.92,2.49,2.49,0,0,1,.23,1.05,2.63,2.63,0,0,1-.25,1.14,3.29,3.29,0,0,1-.75,1,3.56,3.56,0,0,1-1.11.62,3.82,3.82,0,0,1-1.3.22,3.72,3.72,0,0,1-1.29-.22,3.4,3.4,0,0,1-1.1-.62,3.17,3.17,0,0,1-.76-1,2.64,2.64,0,0,1-.26-1.14V301h2.31v.17a.82.82,0,0,0,.33.66,1.15,1.15,0,0,0,.77.27,1.24,1.24,0,0,0,.81-.27.81.81,0,0,0,.34-.66.77.77,0,0,0-.36-.58,1.43,1.43,0,0,0-.37-.2l-.51-.16-.44-.1a11.45,11.45,0,0,1-1.13-.33,2.35,2.35,0,0,1-.76-.45l0-.05a3.25,3.25,0,0,1-.7-.93,2.51,2.51,0,0,1-.24-1.08,2.64,2.64,0,0,1,.26-1.14,3.17,3.17,0,0,1,.76-1,3.4,3.4,0,0,1,1.1-.62,3.72,3.72,0,0,1,1.29-.22,3.82,3.82,0,0,1,1.3.22,3.56,3.56,0,0,1,1.11.62,3.29,3.29,0,0,1,.75,1,2.63,2.63,0,0,1,.25,1.14v.17Z"/><path d="M167,303.48a1.28,1.28,0,0,1-.36-.91,1.14,1.14,0,0,1,.37-.86,1.18,1.18,0,0,1,.86-.36,1.26,1.26,0,0,1,1.26,1.26,1.22,1.22,0,0,1-.37.88,1.2,1.2,0,0,1-.89.37A1.13,1.13,0,0,1,167,303.48Z"/><path d="M178.17,297.48v-.17a.82.82,0,0,0-.33-.66,1.16,1.16,0,0,0-.78-.27,1.28,1.28,0,0,0-.82.27.82.82,0,0,0-.33.66.62.62,0,0,0,.34.57,3.21,3.21,0,0,0,.9.37.79.79,0,0,1,.2,0l.24,0a4.64,4.64,0,0,1,1.89.78l.12.1a2.82,2.82,0,0,1,.62.92,2.51,2.51,0,0,1,.24,1.05,2.64,2.64,0,0,1-.26,1.14,3,3,0,0,1-.75,1,3.56,3.56,0,0,1-1.11.62,3.92,3.92,0,0,1-2.59,0,3.51,3.51,0,0,1-1.1-.62,3.13,3.13,0,0,1-.75-1,2.52,2.52,0,0,1-.27-1.14V301H176v.17a.81.81,0,0,0,.32.66,1.17,1.17,0,0,0,.77.27,1.28,1.28,0,0,0,.82-.27.82.82,0,0,0,.33-.66.76.76,0,0,0-.35-.58,1.86,1.86,0,0,0-.37-.2l-.52-.16-.43-.1a11,11,0,0,1-1.14-.33,2.21,2.21,0,0,1-.75-.45l-.06-.05a3,3,0,0,1-.69-.93,2.38,2.38,0,0,1-.25-1.08,2.52,2.52,0,0,1,.27-1.14,3.13,3.13,0,0,1,.75-1,3.51,3.51,0,0,1,1.1-.62,3.92,3.92,0,0,1,2.59,0,3.56,3.56,0,0,1,1.11.62,3,3,0,0,1,.75,1,2.64,2.64,0,0,1,.26,1.14v.17Z"/><path d="M186.3,294.52h2.38v9.34H186.3v-3.49h-2.67v3.49h-2.38v-9.34h2.38V298h2.67Z"/><path d="M192.12,294.52v9.34h-2.38v-9.34Z"/><path d="M195.55,301.62h3.68v2.24h-6.06v-9.34h2.38Z"/><path d="M202.54,301.62h3.67v2.24h-6.05v-9.34h2.38Z"/><path d="M209.52,294.52v9.34h-2.38v-9.34Z"/><path d="M215.72,294.52h2.38v9.34h-2.38l-2.75-5v5h-2.39v-9.34H213l2.75,5Z"/><path d="M228.35,299.24a4.74,4.74,0,0,1-4.74,4.72,4.52,4.52,0,0,1-2.36-.64,4.58,4.58,0,0,1-1.72-1.72,4.52,4.52,0,0,1-.64-2.36,4.59,4.59,0,0,1,.64-2.38,4.65,4.65,0,0,1,1.72-1.72,4.52,4.52,0,0,1,2.36-.64,4.66,4.66,0,0,1,3.36,1.4l-2.13,1.22a2.36,2.36,0,0,0-1.23-.33,2.32,2.32,0,0,0-1.21.33,2.53,2.53,0,0,0-.89.89,2.41,2.41,0,0,0-.33,1.23,2.32,2.32,0,0,0,.33,1.21,2.53,2.53,0,0,0,.89.89,2.32,2.32,0,0,0,1.21.33,2.36,2.36,0,0,0,1.28-.36,2.5,2.5,0,0,0,.9-1h-2.93v-2.19h5.35A5,5,0,0,1,228.35,299.24Z"/><path d="M235.49,294.52v9.34h-2.38v-9.34Z"/><path d="M241.69,294.52h2.38v9.34h-2.38l-2.75-5v5h-2.4v-9.34h2.4l2.75,5Z"/><path d="M251.27,294.49h2.59l-3.05,9.37H247.9l-3-9.37h2.62l1.89,5.84Z"/><path d="M261.49,295.15a4.61,4.61,0,0,1,1.72,1.73,4.71,4.71,0,0,1,0,4.74,4.73,4.73,0,0,1-1.72,1.72,4.61,4.61,0,0,1-2.36.63,4.68,4.68,0,0,1-2.38-.63,4.81,4.81,0,0,1-1.72-1.72,4.71,4.71,0,0,1,0-4.74,4.68,4.68,0,0,1,4.1-2.36A4.61,4.61,0,0,1,261.49,295.15Zm-1.15,6.2a2.5,2.5,0,0,0,.89-.88,2.42,2.42,0,0,0,0-2.44,2.48,2.48,0,0,0-.89-.9,2.32,2.32,0,0,0-1.21-.33,2.41,2.41,0,0,0-1.23.33,2.48,2.48,0,0,0-.89.9,2.42,2.42,0,0,0,0,2.44,2.5,2.5,0,0,0,.89.88,2.41,2.41,0,0,0,1.23.33A2.32,2.32,0,0,0,260.34,301.35Z"/><path d="M267,301.62h3.68v2.24h-6.06v-9.34H267Z"/><path d="M277.77,294.49h2.59l-3.05,9.37H274.4l-3-9.37H274l1.9,5.84Z"/><path d="M287.51,301.84v2h-6.36v-9.34h6.25v2h-3.85v1.64h3.24v2h-3.24v1.64Z"/><path d="M292.84,297.48v-.17a.84.84,0,0,0-.32-.66,1.2,1.2,0,0,0-.79-.27,1.24,1.24,0,0,0-.81.27.81.81,0,0,0-.34.66.63.63,0,0,0,.34.57,3.49,3.49,0,0,0,.9.37.86.86,0,0,1,.21,0l.23,0a4.64,4.64,0,0,1,1.89.78l.12.1a2.84,2.84,0,0,1,.63.92,2.57,2.57,0,0,1,0,2.19,3.1,3.1,0,0,1-.74,1,3.5,3.5,0,0,1-1.12.62,3.89,3.89,0,0,1-2.58,0,3.4,3.4,0,0,1-1.1-.62,3.17,3.17,0,0,1-.76-1,2.64,2.64,0,0,1-.26-1.14V301h2.31v.17a.82.82,0,0,0,.33.66,1.15,1.15,0,0,0,.77.27,1.24,1.24,0,0,0,.81-.27.81.81,0,0,0,.34-.66.77.77,0,0,0-.36-.58,1.61,1.61,0,0,0-.37-.2l-.51-.16-.44-.1q-.72-.18-1.14-.33a2.42,2.42,0,0,1-.75-.45l-.05-.05a3.08,3.08,0,0,1-.7-.93,2.51,2.51,0,0,1-.24-1.08,2.64,2.64,0,0,1,.26-1.14,3.17,3.17,0,0,1,.76-1,3.4,3.4,0,0,1,1.1-.62,3.89,3.89,0,0,1,2.58,0,3.5,3.5,0,0,1,1.12.62,3.1,3.1,0,0,1,.74,1,2.64,2.64,0,0,1,.26,1.14v.17Z"/><path d="M305.28,301.46a2.51,2.51,0,0,0,.8-.52l1.61,1.62a4.73,4.73,0,0,1-1.52,1,4.78,4.78,0,0,1-4.19-.27,4.73,4.73,0,0,1-1.72-1.72,4.62,4.62,0,0,1-.63-2.37,4.7,4.7,0,0,1,2.35-4.09,4.53,4.53,0,0,1,2.37-.64,4.65,4.65,0,0,1,1.82.36,4.92,4.92,0,0,1,1.52,1l-1.61,1.61a2.69,2.69,0,0,0-.8-.52,2.4,2.4,0,0,0-2.15.14,2.53,2.53,0,0,0-.89.89,2.38,2.38,0,0,0-.33,1.22,2.35,2.35,0,0,0,.33,1.22,2.53,2.53,0,0,0,.89.89,2.35,2.35,0,0,0,2.15.13Z"/><path d="M316.11,303.86h-2.39l-1.48-3.53h-1.52v3.53h-2.24v-9.34h4.46a2.94,2.94,0,0,1,2.52,1.45,2.88,2.88,0,0,1,.39,1.46,2.8,2.8,0,0,1-.36,1.39,3,3,0,0,1-1,1.05Zm-2.63-7.12a.93.93,0,0,0-.62-.31h-2.19v2h2.19a1,1,0,0,0,.62-.33,1,1,0,0,0,.25-.68A1,1,0,0,0,313.48,296.74Z"/><path d="M323.27,301.84v2h-6.36v-9.34h6.24v2H319.3v1.64h3.24v2H319.3v1.64Z"/><path d="M329.19,294.61l3.05,9.25h-2.3l-.61-1.89h-2.89l-.6,1.89h-2.31l3.07-9.25ZM327.06,300h1.67l-.84-2.61Z"/><path d="M339.56,294.52v2.38h-2.4v7h-2.39v-7h-2.39v-2.38h7.18Z"/><path d="M342.86,294.52v9.34h-2.38v-9.34Z"/><path d="M349.06,294.52h2.38v9.34h-2.38l-2.75-5v5h-2.39v-9.34h2.39l2.75,5Z"/><path d="M361.69,299.24a4.52,4.52,0,0,1-.64,2.36A4.74,4.74,0,0,1,357,304a4.53,4.53,0,0,1-2.37-.64,4.75,4.75,0,0,1-1.72-6.46,4.73,4.73,0,0,1,1.72-1.72,4.53,4.53,0,0,1,2.37-.64,4.76,4.76,0,0,1,1.84.37,4.66,4.66,0,0,1,1.51,1l-2.12,1.22a2.36,2.36,0,0,0-1.23-.33,2.33,2.33,0,0,0-1.22.33,2.53,2.53,0,0,0-.89.89,2.41,2.41,0,0,0-.33,1.23,2.32,2.32,0,0,0,.33,1.21,2.53,2.53,0,0,0,.89.89,2.33,2.33,0,0,0,1.22.33,2.4,2.4,0,0,0,1.28-.36,2.5,2.5,0,0,0,.9-1H356.2v-2.19h5.36A5,5,0,0,1,361.69,299.24Z"/><path d="M37.26,310.48l3.06,9.25H38l-.61-1.89h-2.9l-.59,1.89H31.6l3.07-9.25Zm-2.13,5.43H36.8L36,313.29Z"/><path d="M46,317.33a2.69,2.69,0,0,0,.8-.52l1.61,1.61a4.92,4.92,0,0,1-1.52,1,4.78,4.78,0,0,1-4.19-.27A4.81,4.81,0,0,1,41,317.46a4.72,4.72,0,0,1,7.43-5.71l-1.61,1.61a2.51,2.51,0,0,0-.8-.52,2.32,2.32,0,0,0-2.15.14,2.45,2.45,0,0,0-.89.89,2.42,2.42,0,0,0,0,2.44,2.5,2.5,0,0,0,.89.88,2.35,2.35,0,0,0,1.22.33A2.28,2.28,0,0,0,46,317.33Z"/><path d="M56.22,310.38v2.38H53.83v7H51.44v-7H49v-2.38h7.18Z"/><path d="M59.53,310.38v9.35H57.15v-9.35Z"/><path d="M66.73,310.36h2.6l-3.06,9.37H63.36l-3-9.37h2.62l1.89,5.84Z"/><path d="M72.5,310.38v9.35H70.12v-9.35Z"/><path d="M80.6,310.38v2.38H78.21v7H75.82v-7h-2.4v-2.38H80.6Z"/><path d="M86.5,310.38h2.38l-2.75,5.54v3.81H83.75v-3.81L81,310.38h2.38l1.56,3.19Z"/><path d="M95.76,310.38v9.35H93.38v-9.35Z"/><path d="M102,310.38h2.38v9.35H102l-2.75-5v5h-2.4v-9.35h2.4l2.75,5Z"/><path d="M116.41,310.38v2.38H114v7h-2.39v-7h-2.39v-2.38h7.18Z"/><path d="M122.38,310.38h2.38v9.35h-2.38v-3.49h-2.67v3.49h-2.38v-9.35h2.38v3.48h2.67Z"/><path d="M132.18,317.71v2h-6.36v-9.35h6.24v2h-3.84v1.64h3.24v2h-3.24v1.64Z"/><path d="M139.59,310.38v9.35h-2.38v-9.35Z"/><path d="M145.79,310.38h2.38v9.35h-2.38l-2.75-5v5h-2.4v-9.35H143l2.75,5Z"/><path d="M155.73,312.41H151.6v1.64h3.31v2H151.6v3.66h-2.38v-9.35h6.51Z"/><path d="M163.36,311a4.7,4.7,0,0,1,2.35,4.1,4.7,4.7,0,0,1-2.35,4.08,4.53,4.53,0,0,1-2.37.64,4.58,4.58,0,0,1-2.37-.64,4.68,4.68,0,0,1-1.73-1.72,4.61,4.61,0,0,1-.63-2.36,4.68,4.68,0,0,1,.63-2.38,4.76,4.76,0,0,1,1.73-1.72,4.58,4.58,0,0,1,2.37-.64A4.53,4.53,0,0,1,163.36,311Zm-1.15,6.2a2.5,2.5,0,0,0,.88-.89,2.23,2.23,0,0,0,.33-1.21,2.32,2.32,0,0,0-.33-1.23,2.5,2.5,0,0,0-.88-.89,2.42,2.42,0,0,0-2.44,0,2.45,2.45,0,0,0-.89.89,2.41,2.41,0,0,0-.33,1.23,2.32,2.32,0,0,0,.33,1.21,2.45,2.45,0,0,0,.89.89,2.42,2.42,0,0,0,2.44,0Z"/><path d="M174.13,319.73h-2.39l-1.48-3.53h-1.52v3.53h-2.23v-9.35H171a2.89,2.89,0,0,1,2.52,1.46,2.9,2.9,0,0,1,0,2.85,3,3,0,0,1-1,1.05Zm-2.63-7.12a.87.87,0,0,0-.62-.31h-2.19v2h2.19a.88.88,0,0,0,.62-.32,1,1,0,0,0,.25-.68A1,1,0,0,0,171.5,312.61Z"/><path d="M182.13,310.38h2.38v9.35h-2.38v-5.27L181,316.57l-.05.11h-2.38l-.07-.11-.16-.3-1-1.81v5.27h-2.39v-9.35h2.39l2.41,4Z"/><path d="M190.44,310.48l3.05,9.25h-2.3l-.61-1.89h-2.89l-.6,1.89h-2.31l3.07-9.25Zm-2.13,5.43H190l-.83-2.62Z"/><path d="M200.8,310.38v2.38h-2.39v7H196v-7h-2.4v-2.38h7.18Z"/><path d="M204.11,310.38v9.35h-2.38v-9.35Z"/><path d="M212,311a4.72,4.72,0,0,1,1.72,6.46A4.58,4.58,0,0,1,212,319.2a4.52,4.52,0,0,1-2.36.64,4.59,4.59,0,0,1-2.38-.64,4.65,4.65,0,0,1-1.72-1.72,4.52,4.52,0,0,1-.64-2.36,4.59,4.59,0,0,1,.64-2.38,4.73,4.73,0,0,1,1.72-1.72,4.59,4.59,0,0,1,2.38-.64A4.52,4.52,0,0,1,212,311Zm-1.15,6.2a2.53,2.53,0,0,0,.89-.89,2.32,2.32,0,0,0,.33-1.21,2.41,2.41,0,0,0-.33-1.23,2.53,2.53,0,0,0-.89-.89,2.32,2.32,0,0,0-1.21-.33,2.41,2.41,0,0,0-1.23.33,2.53,2.53,0,0,0-.89.89,2.41,2.41,0,0,0-.33,1.23,2.32,2.32,0,0,0,.33,1.21,2.53,2.53,0,0,0,.89.89,2.41,2.41,0,0,0,1.23.33A2.32,2.32,0,0,0,210.85,317.22Z"/><path d="M220.29,310.38h2.38v9.35h-2.38l-2.75-5v5h-2.39v-9.35h2.39l2.75,5Z"/><path d="M232,313.35v-.18a.82.82,0,0,0-.33-.65,1.16,1.16,0,0,0-.78-.27,1.28,1.28,0,0,0-.82.27.82.82,0,0,0-.33.65.6.6,0,0,0,.34.57,2.71,2.71,0,0,0,.9.37l.2,0,.24.05a4.64,4.64,0,0,1,1.89.78l.12.11a2.88,2.88,0,0,1,.62.91,2.57,2.57,0,0,1,.23,1.06,2.63,2.63,0,0,1-.25,1.14,2.85,2.85,0,0,1-.75,1,3.4,3.4,0,0,1-1.11.63,3.82,3.82,0,0,1-1.3.22,3.72,3.72,0,0,1-1.29-.22,3.35,3.35,0,0,1-1.1-.63,2.85,2.85,0,0,1-.75-1,2.52,2.52,0,0,1-.27-1.14v-.17h2.32v.17a.8.8,0,0,0,.32.65,1.13,1.13,0,0,0,.77.28,1.24,1.24,0,0,0,.82-.28.81.81,0,0,0,.33-.65.74.74,0,0,0-.35-.58,1.46,1.46,0,0,0-.37-.2c-.14,0-.32-.11-.52-.16l-.44-.1c-.48-.13-.86-.24-1.13-.33a2.35,2.35,0,0,1-.76-.45l0-.06a2.89,2.89,0,0,1-.69-.92,2.45,2.45,0,0,1-.25-1.09,2.51,2.51,0,0,1,.27-1.13,2.79,2.79,0,0,1,.75-1,3.75,3.75,0,0,1,1.1-.63,4,4,0,0,1,1.29-.22,4.08,4.08,0,0,1,1.3.22,3.8,3.8,0,0,1,1.11.63,2.79,2.79,0,0,1,.75,1,2.62,2.62,0,0,1,.25,1.13v.18Z"/><path d="M241,310.77a2.91,2.91,0,0,1,1.06,1.06,2.91,2.91,0,0,1-2.52,4.37h-2.22v3.53h-2.23v-9.35h4.45A2.83,2.83,0,0,1,241,310.77Zm-.91,1.84a.91.91,0,0,0-.63-.31h-2.19v2h2.19a.85.85,0,0,0,.63-.32,1,1,0,0,0,.26-.68A1,1,0,0,0,240.05,312.61Z"/><path d="M248.07,310.48l3.06,9.25h-2.3l-.61-1.89h-2.9l-.59,1.89h-2.32l3.07-9.25Zm-2.13,5.43h1.67l-.83-2.62Z"/><path d="M256.79,317.33a2.78,2.78,0,0,0,.79-.52l1.61,1.61a4.92,4.92,0,0,1-1.52,1,4.78,4.78,0,0,1-4.19-.27,4.81,4.81,0,0,1-1.72-1.72,4.72,4.72,0,0,1,7.43-5.71l-1.61,1.61a2.58,2.58,0,0,0-.79-.52,2.37,2.37,0,0,0-.94-.2,2.27,2.27,0,0,0-1.22.34,2.45,2.45,0,0,0-.89.89,2.42,2.42,0,0,0,0,2.44,2.5,2.5,0,0,0,.89.88,2.42,2.42,0,0,0,2.16.14Z"/><path d="M266.34,317.71v2H260v-9.35h6.24v2h-3.85v1.64h3.24v2h-3.24v1.64Z"/><path d="M267.27,314.15h4.27V316h-4.27Z"/><path d="M278.38,310.77a2.91,2.91,0,0,1,1.06,1.06,2.91,2.91,0,0,1-2.52,4.37H274.7v3.53h-2.23v-9.35h4.45A2.83,2.83,0,0,1,278.38,310.77Zm-.91,1.84a.91.91,0,0,0-.63-.31h-2.19v2h2.19a.85.85,0,0,0,.63-.32,1,1,0,0,0,.26-.68A1,1,0,0,0,277.47,312.61Z"/><path d="M288.23,310.4v5.77a3.65,3.65,0,0,1-.5,1.86,3.69,3.69,0,0,1-1.35,1.34,3.63,3.63,0,0,1-1.85.49h-.22a3.61,3.61,0,0,1-1.85-.49,3.74,3.74,0,0,1-1.34-1.34,3.65,3.65,0,0,1-.5-1.86V310.4h2.21v5.25a2.21,2.21,0,0,0,.4,1.36,1.26,1.26,0,0,0,1.08.54h.22a1.26,1.26,0,0,0,1.07-.55,2.15,2.15,0,0,0,.42-1.35V310.4Z"/><path d="M296.33,315.78a2.57,2.57,0,0,1,.31,1.25,2.62,2.62,0,0,1-.36,1.35,2.74,2.74,0,0,1-2.33,1.35h-4.66v-9.35h4.24a2.53,2.53,0,0,1,1.36.37,2.65,2.65,0,0,1,1,1,2.61,2.61,0,0,1,.35,1.32,2.47,2.47,0,0,1-.19,1,2.51,2.51,0,0,1-.51.83A2.68,2.68,0,0,1,296.33,315.78Zm-2.46-3.21a.93.93,0,0,0-.68-.28h-1.72v2h1.72a2.49,2.49,0,0,0,.31,0,1,1,0,0,0,.24-.13,1,1,0,0,0,.3-.36.92.92,0,0,0,.11-.46A.94.94,0,0,0,293.87,312.57Zm.39,4.94a.91.91,0,0,0,.27-.7,1,1,0,0,0-.22-.63,1,1,0,0,0-.57-.34h-2.27v2h2.11A.93.93,0,0,0,294.26,317.51Z"/><path d="M299.81,317.48h3.68v2.25h-6.06v-9.35h2.38Z"/><path d="M306.79,310.38v9.35h-2.38v-9.35Z"/><path d="M312.12,313.35v-.18a.84.84,0,0,0-.32-.65,1.2,1.2,0,0,0-.79-.27,1.24,1.24,0,0,0-.81.27.8.8,0,0,0-.34.65.6.6,0,0,0,.34.57,2.71,2.71,0,0,0,.9.37l.21,0,.23.05a4.64,4.64,0,0,1,1.89.78l.12.11a3.08,3.08,0,0,1,.63.91,2.74,2.74,0,0,1,.23,1.06,2.64,2.64,0,0,1-.26,1.14,2.85,2.85,0,0,1-.75,1,3.21,3.21,0,0,1-1.11.63,3.89,3.89,0,0,1-2.58,0,3.4,3.4,0,0,1-1.11-.63,3.13,3.13,0,0,1-.75-1,2.52,2.52,0,0,1-.27-1.14v-.17h2.32v.17a.82.82,0,0,0,.32.65,1.15,1.15,0,0,0,.78.28,1.23,1.23,0,0,0,.81-.28.82.82,0,0,0,.34-.65.76.76,0,0,0-.36-.58,1.46,1.46,0,0,0-.37-.2,4.76,4.76,0,0,0-.52-.16l-.43-.1q-.74-.19-1.14-.33a2.42,2.42,0,0,1-.75-.45l-.06-.06a2.89,2.89,0,0,1-.69-.92,2.59,2.59,0,0,1-.25-1.09,2.51,2.51,0,0,1,.27-1.13,3.05,3.05,0,0,1,.75-1,3.8,3.8,0,0,1,1.11-.63,3.89,3.89,0,0,1,2.58,0,3.56,3.56,0,0,1,1.11.63,2.79,2.79,0,0,1,.75,1,2.63,2.63,0,0,1,.26,1.13v.18Z"/><path d="M320.25,310.38h2.38v9.35h-2.38v-3.49h-2.67v3.49H315.2v-9.35h2.38v3.48h2.67Z"/><path d="M326.07,310.38v9.35h-2.38v-9.35Z"/><path d="M332.27,310.38h2.38v9.35h-2.38l-2.75-5v5h-2.39v-9.35h2.39l2.75,5Z"/><path d="M344.9,315.1a4.53,4.53,0,0,1-.64,2.37,4.7,4.7,0,0,1-4.1,2.35,4.72,4.72,0,0,1-4.72-4.72,4.77,4.77,0,0,1,2.36-4.1,4.77,4.77,0,0,1,4.21-.26,4.66,4.66,0,0,1,1.51,1L341.39,313a2.36,2.36,0,0,0-1.23-.33A2.32,2.32,0,0,0,339,313a2.53,2.53,0,0,0-.89.89,2.38,2.38,0,0,0-.33,1.22,2.35,2.35,0,0,0,.33,1.22,2.53,2.53,0,0,0,.89.89,2.41,2.41,0,0,0,2.5,0,2.55,2.55,0,0,0,.9-1h-2.94V314h5.35A4.94,4.94,0,0,1,344.9,315.1Z"/><path d="M40,335.6h-2.4l-1.48-3.53H34.63v3.53H32.4v-9.35h4.45a2.88,2.88,0,0,1,1.46.39,2.84,2.84,0,0,1,1.06,1.06,2.88,2.88,0,0,1,.39,1.46,2.77,2.77,0,0,1-.36,1.39,2.93,2.93,0,0,1-1,1.05Zm-2.64-7.12a.87.87,0,0,0-.62-.31H34.58v2h2.19a.92.92,0,0,0,.62-.32,1,1,0,0,0,.26-.68A1,1,0,0,0,37.39,328.48Z"/><path d="M47.18,333.58v2H40.82v-9.35h6.24v2H43.21v1.64h3.24v2H43.21v1.64Z"/><path d="M54.38,326.22H57l-3.06,9.38H51l-3-9.38h2.62l1.89,5.85Z"/><path d="M60.15,326.25v9.35H57.77v-9.35Z"/><path d="M67.57,333.58v2H61.21v-9.35h6.24v2H63.6v1.64h3.24v2H63.6v1.64Z"/><path d="M76.15,326.25h2.06v9.35H75.83l-2.41-4-2.42,4H68.62v-9.35H71v5.28l1.17-2.12.06-.11h2.38l.06.11,1.16,2.12v-5.28Z"/><path d="M83.54,329.21V329a.81.81,0,0,0-.33-.65,1.16,1.16,0,0,0-.78-.28,1.29,1.29,0,0,0-.82.28.81.81,0,0,0-.33.65.6.6,0,0,0,.34.57,2.94,2.94,0,0,0,.9.37l.2,0,.24.05a4.64,4.64,0,0,1,1.89.78L85,331a2.77,2.77,0,0,1,.62.91,2.52,2.52,0,0,1,.24,1.06,2.63,2.63,0,0,1-.26,1.13,2.79,2.79,0,0,1-.75,1,3.8,3.8,0,0,1-1.11.63,4,4,0,0,1-1.3.22,3.91,3.91,0,0,1-1.28-.22A3.68,3.68,0,0,1,80,335a2.92,2.92,0,0,1-.75-1,2.51,2.51,0,0,1-.27-1.13v-.17h2.32v.17a.81.81,0,0,0,.32.65,1.17,1.17,0,0,0,.77.27,1.28,1.28,0,0,0,.82-.27.82.82,0,0,0,.33-.65.73.73,0,0,0-.35-.58,1.46,1.46,0,0,0-.37-.2,3.61,3.61,0,0,0-.52-.16l-.43-.11a11,11,0,0,1-1.14-.33,1.93,1.93,0,0,1-.75-.45l-.06-.05a2.82,2.82,0,0,1-.69-.93A2.38,2.38,0,0,1,79,329a2.52,2.52,0,0,1,.27-1.14,3,3,0,0,1,.75-1,3.48,3.48,0,0,1,1.11-.63,3.67,3.67,0,0,1,1.28-.22,3.78,3.78,0,0,1,1.3.22,3.59,3.59,0,0,1,1.11.63,2.85,2.85,0,0,1,.75,1,2.64,2.64,0,0,1,.26,1.14v.17Z"/><path d="M97.09,328.27H93v1.64h3.31v2H93v3.66H90.58v-9.35h6.51Z"/><path d="M105.51,335.6h-2.39l-1.48-3.53h-1.52v3.53H97.88v-9.35h4.46a2.94,2.94,0,0,1,2.52,1.45,2.88,2.88,0,0,1,.39,1.46,2.77,2.77,0,0,1-.36,1.39,3,3,0,0,1-1,1.05Zm-2.63-7.12a.89.89,0,0,0-.62-.31h-2.19v2h2.19a.94.94,0,0,0,.62-.32,1,1,0,0,0,.25-.68A1,1,0,0,0,102.88,328.48Z"/><path d="M113.14,326.88a4.76,4.76,0,0,1,1.72,1.73,4.68,4.68,0,0,1,.64,2.37,4.63,4.63,0,0,1-.64,2.37,4.73,4.73,0,0,1-1.72,1.72,4.61,4.61,0,0,1-2.36.63,4.7,4.7,0,0,1-4.1-2.35A4.53,4.53,0,0,1,106,331a4.58,4.58,0,0,1,.64-2.37,4.68,4.68,0,0,1,4.1-2.36A4.61,4.61,0,0,1,113.14,326.88ZM112,333.09a2.53,2.53,0,0,0,.89-.89,2.35,2.35,0,0,0,.33-1.22,2.38,2.38,0,0,0-.33-1.22,2.53,2.53,0,0,0-.89-.89,2.32,2.32,0,0,0-1.21-.33,2.39,2.39,0,0,0-1.23.33,2.53,2.53,0,0,0-.89.89,2.38,2.38,0,0,0-.33,1.22,2.35,2.35,0,0,0,.33,1.22,2.53,2.53,0,0,0,.89.89,2.39,2.39,0,0,0,1.23.33A2.32,2.32,0,0,0,112,333.09Z"/><path d="M123.49,326.25h2.39v9.35h-2.39v-5.28l-1.16,2.12,0,.1H119.9l-.07-.1-.16-.31-1-1.81v5.28h-2.39v-9.35h2.39l2.41,4Z"/><path d="M138,331.65a2.65,2.65,0,0,1,.3,1.25,2.7,2.7,0,0,1-1.33,2.32,2.74,2.74,0,0,1-1.35.38H130.9v-9.36h4.24a2.5,2.5,0,0,1,1.36.37,2.58,2.58,0,0,1,1,1,2.51,2.51,0,0,1,.35,1.32,2.69,2.69,0,0,1-.18,1,2.84,2.84,0,0,1-.52.83A2.72,2.72,0,0,1,138,331.65Zm-2.47-3.21a.94.94,0,0,0-.68-.29h-1.72v2h1.72l.32-.06a.61.61,0,0,0,.23-.13.87.87,0,0,0,.31-.35,1.07,1.07,0,0,0,.1-.47A.94.94,0,0,0,135.48,328.44Zm.4,4.94a.93.93,0,0,0,.27-.7,1,1,0,0,0-.23-.63.94.94,0,0,0-.57-.34h-2.27v2h2.12A1,1,0,0,0,135.88,333.38Z"/><path d="M141.42,333.35h3.68v2.25H139v-9.35h2.38Z"/><path d="M152.86,326.88a4.76,4.76,0,0,1,1.72,1.73,4.67,4.67,0,0,1,.63,2.37,4.62,4.62,0,0,1-.63,2.37,4.73,4.73,0,0,1-1.72,1.72,4.62,4.62,0,0,1-2.37.63,4.67,4.67,0,0,1-2.37-.63,4.76,4.76,0,0,1-1.73-1.72,4.62,4.62,0,0,1-.63-2.37,4.67,4.67,0,0,1,.63-2.37,4.78,4.78,0,0,1,1.73-1.73,4.67,4.67,0,0,1,2.37-.63A4.62,4.62,0,0,1,152.86,326.88Zm-1.15,6.21a2.53,2.53,0,0,0,.89-.89,2.35,2.35,0,0,0,.33-1.22,2.38,2.38,0,0,0-.33-1.22,2.53,2.53,0,0,0-.89-.89,2.35,2.35,0,0,0-1.22-.33,2.38,2.38,0,0,0-1.22.33,2.53,2.53,0,0,0-.89.89,2.38,2.38,0,0,0-.33,1.22,2.35,2.35,0,0,0,.33,1.22,2.53,2.53,0,0,0,.89.89,2.38,2.38,0,0,0,1.22.33A2.35,2.35,0,0,0,151.71,333.09Z"/><path d="M165.2,331a4.56,4.56,0,0,1-.64,2.37,4.81,4.81,0,0,1-1.72,1.72,4.68,4.68,0,0,1-2.38.63,4.61,4.61,0,0,1-2.36-.63,4.73,4.73,0,0,1-1.72-1.72,4.71,4.71,0,0,1,0-4.74,4.71,4.71,0,0,1,7.44-1l-2.13,1.21a2.36,2.36,0,0,0-1.23-.33,2.32,2.32,0,0,0-1.21.33,2.56,2.56,0,0,0-.89.9,2.42,2.42,0,0,0,0,2.44,2.5,2.5,0,0,0,.89.88,2.32,2.32,0,0,0,1.21.33,2.41,2.41,0,0,0,1.29-.36,2.52,2.52,0,0,0,.89-1h-2.93v-2.2h5.35A5.1,5.1,0,0,1,165.2,331Z"/><path d="M175.18,331a4.56,4.56,0,0,1-.64,2.37,4.73,4.73,0,0,1-1.72,1.72,4.67,4.67,0,0,1-2.37.63,4.62,4.62,0,0,1-2.37-.63,4.81,4.81,0,0,1-1.72-1.72,4.72,4.72,0,0,1,4.09-7.1,4.58,4.58,0,0,1,1.84.37,4.51,4.51,0,0,1,1.51,1l-2.13,1.21a2.42,2.42,0,0,0-2.44,0,2.56,2.56,0,0,0-.89.9,2.42,2.42,0,0,0,0,2.44,2.5,2.5,0,0,0,.89.88,2.33,2.33,0,0,0,1.22.33,2.4,2.4,0,0,0,1.28-.36,2.47,2.47,0,0,0,.9-1h-2.94v-2.2h5.36A5.74,5.74,0,0,1,175.18,331Z"/><path d="M182.33,333.58v2H176v-9.35h6.24v2h-3.84v1.64h3.23v2h-3.23v1.64Z"/><path d="M191,335.6h-2.39l-1.49-3.53h-1.52v3.53h-2.23v-9.35h4.46a2.9,2.9,0,0,1,2.51,1.45,2.88,2.88,0,0,1,.39,1.46,2.76,2.76,0,0,1-.35,1.39,3,3,0,0,1-1,1.05Zm-2.63-7.12a.91.91,0,0,0-.62-.31h-2.2v2h2.2a1,1,0,0,0,.62-.32,1,1,0,0,0,.25-.68A1,1,0,0,0,188.39,328.48Z"/><path d="M196.08,329.21V329a.82.82,0,0,0-.32-.65,1.21,1.21,0,0,0-.79-.28,1.24,1.24,0,0,0-.81.28.79.79,0,0,0-.34.65.6.6,0,0,0,.35.57,3,3,0,0,0,.89.37l.21,0,.23.05a4.64,4.64,0,0,1,1.89.78l.12.11a2.8,2.8,0,0,1,.63.91,2.66,2.66,0,0,1,.23,1.06,2.63,2.63,0,0,1-.26,1.13,2.89,2.89,0,0,1-.74,1,3.73,3.73,0,0,1-1.12.63,3.89,3.89,0,0,1-2.58,0,3.63,3.63,0,0,1-1.1-.63,3,3,0,0,1-.76-1,2.63,2.63,0,0,1-.26-1.13v-.17h2.31v.17a.82.82,0,0,0,.33.65,1.15,1.15,0,0,0,.77.27,1.24,1.24,0,0,0,.81-.27.8.8,0,0,0,.34-.65.74.74,0,0,0-.36-.58,1.31,1.31,0,0,0-.37-.2,3.45,3.45,0,0,0-.51-.16l-.44-.11q-.72-.18-1.14-.33a2.09,2.09,0,0,1-.75-.45l0-.05a3,3,0,0,1-.7-.93,2.51,2.51,0,0,1-.24-1.08,2.64,2.64,0,0,1,.26-1.14,3,3,0,0,1,.76-1,3.43,3.43,0,0,1,1.1-.63,3.89,3.89,0,0,1,2.58,0,3.53,3.53,0,0,1,1.12.63,3,3,0,0,1,.74,1,2.64,2.64,0,0,1,.26,1.14v.17Z"/><path d="M208,326.34l3.05,9.26h-2.3l-.61-1.89h-2.89l-.6,1.89h-2.31l3.06-9.26Zm-2.13,5.44h1.66l-.83-2.62Z"/><path d="M216.46,326.25h2.38v9.35h-2.38l-2.75-5v5h-2.4v-9.35h2.4l2.75,5Z"/><path d="M224,326.22a5.78,5.78,0,0,1,1.41.33,4.11,4.11,0,0,1,1.29.81,4.47,4.47,0,0,1,1.14,1.61,4.77,4.77,0,0,1,.41,1.92,4.51,4.51,0,0,1-.52,2.16,4.33,4.33,0,0,1-1.44,1.65,5.16,5.16,0,0,1-1.91.75,14.92,14.92,0,0,1-2.36.17H219.9v-9.46h2.39A16.3,16.3,0,0,1,224,326.22Zm2,4.67a2.44,2.44,0,0,0-.31-1.2,2.5,2.5,0,0,0-.87-.9,2.28,2.28,0,0,0-1.2-.36h-1.29v4.88a10.8,10.8,0,0,0,1.63-.11,2.82,2.82,0,0,0,1.23-.52,2.09,2.09,0,0,0,.75-1.23A3,3,0,0,0,226,330.89Z"/><path d="M239.83,326.88a4.68,4.68,0,0,1,1.72,1.73,4.58,4.58,0,0,1,.64,2.37,4.53,4.53,0,0,1-.64,2.37,4.75,4.75,0,0,1-6.46,1.72,4.73,4.73,0,0,1-1.72-1.72,4.63,4.63,0,0,1-.64-2.37,4.68,4.68,0,0,1,.64-2.37,4.76,4.76,0,0,1,1.72-1.73,4.68,4.68,0,0,1,2.38-.63A4.61,4.61,0,0,1,239.83,326.88Zm-1.15,6.21a2.53,2.53,0,0,0,.89-.89,2.35,2.35,0,0,0,.33-1.22,2.38,2.38,0,0,0-.33-1.22,2.53,2.53,0,0,0-.89-.89,2.32,2.32,0,0,0-1.21-.33,2.41,2.41,0,0,0-1.23.33,2.53,2.53,0,0,0-.89.89A2.38,2.38,0,0,0,235,331a2.35,2.35,0,0,0,.33,1.22,2.53,2.53,0,0,0,.89.89,2.41,2.41,0,0,0,1.23.33A2.32,2.32,0,0,0,238.68,333.09Z"/><path d="M248.9,326.64a2.87,2.87,0,0,1,1.44,2.52,2.94,2.94,0,0,1-.38,1.46,2.91,2.91,0,0,1-1.06,1.06,2.88,2.88,0,0,1-1.46.39h-2.23v3.53H243v-9.35h4.46A2.88,2.88,0,0,1,248.9,326.64Zm-.91,1.84a1,1,0,0,0-.63-.31h-2.2v2h2.2a1,1,0,0,0,.63-.32,1,1,0,0,0,.25-.68A1,1,0,0,0,248,328.48Z"/><path d="M253.52,326.25v9.35h-2.38v-9.35Z"/><path d="M259.72,326.25h2.38v9.35h-2.38l-2.75-5v5h-2.39v-9.35H257l2.75,5Z"/><path d="M265.54,326.25v9.35h-2.38v-9.35Z"/><path d="M273.43,326.88a4.76,4.76,0,0,1,1.72,1.73,4.67,4.67,0,0,1,.63,2.37,4.62,4.62,0,0,1-.63,2.37,4.73,4.73,0,0,1-1.72,1.72,4.62,4.62,0,0,1-2.37.63,4.67,4.67,0,0,1-2.37-.63,4.76,4.76,0,0,1-1.73-1.72,4.62,4.62,0,0,1-.63-2.37,4.67,4.67,0,0,1,.63-2.37,4.78,4.78,0,0,1,1.73-1.73,4.67,4.67,0,0,1,2.37-.63A4.62,4.62,0,0,1,273.43,326.88Zm-1.15,6.21a2.53,2.53,0,0,0,.89-.89,2.35,2.35,0,0,0,.33-1.22,2.38,2.38,0,0,0-.33-1.22,2.53,2.53,0,0,0-.89-.89,2.42,2.42,0,0,0-2.44,0,2.53,2.53,0,0,0-.89.89,2.38,2.38,0,0,0-.33,1.22,2.35,2.35,0,0,0,.33,1.22,2.53,2.53,0,0,0,.89.89,2.42,2.42,0,0,0,2.44,0Z"/><path d="M281.72,326.25h2.38v9.35h-2.38l-2.75-5v5h-2.39v-9.35H279l2.75,5Z"/><path d="M291.5,333.35h3.68v2.25h-6.06v-9.35h2.38Z"/><path d="M302.46,333.58v2h-6.35v-9.35h6.24v2H298.5v1.64h3.24v2H298.5v1.64Z"/><path d="M308.39,326.34l3.05,9.26h-2.3l-.61-1.89h-2.89l-.6,1.89h-2.31l3.07-9.26Zm-2.13,5.44h1.67l-.84-2.62Z"/><path d="M315.81,326.22a5.81,5.81,0,0,1,1.4.33,4,4,0,0,1,1.29.81,4.62,4.62,0,0,1,1.15,1.61,4.76,4.76,0,0,1,.4,1.92,4.62,4.62,0,0,1-.51,2.16,4.36,4.36,0,0,1-1.45,1.65,5.09,5.09,0,0,1-1.91.75,14.92,14.92,0,0,1-2.36.17h-2.11v-9.46h2.39A16.65,16.65,0,0,1,315.81,326.22Zm2,4.67a2.45,2.45,0,0,0-.32-1.2,2.5,2.5,0,0,0-.87-.9,2.28,2.28,0,0,0-1.19-.36h-1.3v4.88a10.7,10.7,0,0,0,1.63-.11,2.82,2.82,0,0,0,1.23-.52,2.09,2.09,0,0,0,.75-1.23A3.05,3.05,0,0,0,317.78,330.89Z"/><path d="M327.2,333.58v2h-6.36v-9.35h6.24v2h-3.84v1.64h3.24v2h-3.24v1.64Z"/><path d="M335.89,335.6H333.5L332,332.07H330.5v3.53h-2.24v-9.35h4.46a2.94,2.94,0,0,1,2.52,1.45,2.88,2.88,0,0,1,.39,1.46,2.77,2.77,0,0,1-.36,1.39,3,3,0,0,1-1,1.05Zm-2.63-7.12a.91.91,0,0,0-.62-.31h-2.2v2h2.2a1,1,0,0,0,.62-.32,1,1,0,0,0,.25-.68A1,1,0,0,0,333.26,328.48Z"/><path d="M341,329.21V329a.8.8,0,0,0-.32-.65,1.21,1.21,0,0,0-.79-.28,1.26,1.26,0,0,0-.81.28.82.82,0,0,0-.34.65.6.6,0,0,0,.35.57,2.94,2.94,0,0,0,.9.37l.2,0,.23.05a4.51,4.51,0,0,1,1.89.78l.12.11a2.81,2.81,0,0,1,.86,2,2.49,2.49,0,0,1-.26,1.13,2.89,2.89,0,0,1-.74,1,3.8,3.8,0,0,1-1.11.63,4.08,4.08,0,0,1-1.3.22,4,4,0,0,1-1.29-.22,3.63,3.63,0,0,1-1.1-.63,3,3,0,0,1-.76-1,2.63,2.63,0,0,1-.26-1.13v-.17h2.31v.17a.82.82,0,0,0,.33.65,1.15,1.15,0,0,0,.77.27,1.24,1.24,0,0,0,.81-.27.8.8,0,0,0,.34-.65.74.74,0,0,0-.36-.58,1.31,1.31,0,0,0-.37-.2,3.45,3.45,0,0,0-.51-.16l-.44-.11q-.72-.18-1.14-.33a2.09,2.09,0,0,1-.75-.45l-.05-.05a3,3,0,0,1-.7-.93,2.51,2.51,0,0,1-.24-1.08,2.64,2.64,0,0,1,.26-1.14,3,3,0,0,1,.76-1,3.43,3.43,0,0,1,1.1-.63,3.72,3.72,0,0,1,1.29-.22,3.82,3.82,0,0,1,1.3.22,3.59,3.59,0,0,1,1.11.63,3,3,0,0,1,.74,1,2.51,2.51,0,0,1,.26,1.14v.17Z"/><path d="M344.48,334h2.24l-1,3h-2Z"/><path d="M37.26,342.21l3.06,9.25H38l-.61-1.89h-2.9l-.59,1.89H31.6l3.07-9.25Zm-2.13,5.43H36.8L36,345Z"/><path d="M47.63,342.12v2.38h-2.4v7H42.84v-7H40.45v-2.38h7.18Z"/><path d="M55.6,342.12v2.38H53.21v7h-2.4v-7H48.42v-2.38H55.6Z"/><path d="M64.16,351.46h-2.4l-1.48-3.53H58.76v3.53H56.53v-9.34H61a2.88,2.88,0,0,1,1.46.39,2.84,2.84,0,0,1,1.06,1.06,2.88,2.88,0,0,1,.39,1.46,2.8,2.8,0,0,1-.36,1.39,2.93,2.93,0,0,1-1,1.05Zm-2.64-7.12a.91.91,0,0,0-.62-.31H58.71v2H60.9a.93.93,0,0,0,.62-.33,1,1,0,0,0,.26-.68A1,1,0,0,0,61.52,344.34Z"/><path d="M69.81,342.21l3.06,9.25h-2.3L70,349.57h-2.9l-.59,1.89H64.16l3.06-9.25Zm-2.12,5.43h1.66L68.52,345Z"/><path d="M78.53,349.06a2.47,2.47,0,0,0,.79-.52l1.61,1.62a4.75,4.75,0,0,1-5.71.75,4.81,4.81,0,0,1-1.72-1.72,4.62,4.62,0,0,1-.63-2.37,4.67,4.67,0,0,1,.63-2.37,4.73,4.73,0,0,1,1.72-1.72,4.56,4.56,0,0,1,2.37-.64,4.65,4.65,0,0,1,1.82.36,4.81,4.81,0,0,1,1.52,1l-1.61,1.61a2.64,2.64,0,0,0-.79-.52,2.32,2.32,0,0,0-.94-.19,2.35,2.35,0,0,0-1.22.33,2.5,2.5,0,0,0-.88.89,2.38,2.38,0,0,0-.33,1.22,2.35,2.35,0,0,0,.33,1.22,2.5,2.5,0,0,0,.88.89,2.37,2.37,0,0,0,2.16.13Z"/><path d="M88.78,342.12v2.38h-2.4v7H84v-7H81.6v-2.38h7.18Z"/><path d="M92.08,342.12v9.34H89.7v-9.34Z"/><path d="M98.28,342.12h2.38v9.34H98.28l-2.75-5v5H93.14v-9.34h2.39l2.75,5Z"/><path d="M110.91,346.84a4.52,4.52,0,0,1-.64,2.36,4.74,4.74,0,0,1-4.09,2.36,4.53,4.53,0,0,1-2.37-.64,4.75,4.75,0,0,1-1.72-6.46,4.73,4.73,0,0,1,1.72-1.72,4.53,4.53,0,0,1,2.37-.64,4.76,4.76,0,0,1,1.84.37,4.66,4.66,0,0,1,1.51,1l-2.12,1.22a2.36,2.36,0,0,0-1.23-.33,2.33,2.33,0,0,0-1.22.33,2.53,2.53,0,0,0-.89.89,2.41,2.41,0,0,0-.33,1.23,2.32,2.32,0,0,0,.33,1.21,2.53,2.53,0,0,0,.89.89,2.33,2.33,0,0,0,1.22.33,2.4,2.4,0,0,0,1.28-.36,2.5,2.5,0,0,0,.9-1h-2.94v-2.19h5.36A5,5,0,0,1,110.91,346.84Z"/><path d="M122.72,342.12v2.38h-2.4v7h-2.39v-7h-2.39v-2.38h7.18Z"/><path d="M128.69,342.12h2.38v9.34h-2.38V348H126v3.49h-2.38v-9.34H126v3.47h2.67Z"/><path d="M138.49,349.44v2h-6.36v-9.34h6.24v2h-3.85v1.64h3.24v2h-3.24v1.64Z"/><path d="M146.75,342.12h2.38v9.34h-2.38v-5.27l-1.16,2.11-.05.11h-2.38l-.07-.11-.16-.3-1-1.81v5.27h-2.39v-9.34h2.39l2.41,4Z"/><path d="M161.21,342.12v2.38h-2.4v7h-2.39v-7H154v-2.38h7.18Z"/><path d="M169,342.75a4.76,4.76,0,0,1,1.72,1.73,4.77,4.77,0,0,1,0,4.74,4.89,4.89,0,0,1-1.72,1.72,4.77,4.77,0,0,1-4.74,0,4.76,4.76,0,0,1-1.73-1.72,4.74,4.74,0,0,1,6.47-6.47Zm-1.15,6.2a2.47,2.47,0,0,0,.88-.88,2.42,2.42,0,0,0,0-2.44,2.53,2.53,0,0,0-.88-.9,2.42,2.42,0,0,0-2.44,0,2.5,2.5,0,0,0-.9.9,2.42,2.42,0,0,0,0,2.44,2.45,2.45,0,0,0,.9.88,2.42,2.42,0,0,0,2.44,0Z"/><path d="M182,342.51a2.94,2.94,0,0,1,1.05,1.05,2.95,2.95,0,0,1,0,2.93,2.94,2.94,0,0,1-1.05,1.05,2.88,2.88,0,0,1-1.46.39h-2.23v3.53h-2.23v-9.34h4.46A2.88,2.88,0,0,1,182,342.51Zm-.92,1.83a1,1,0,0,0-.62-.31h-2.2v2h2.2a.89.89,0,0,0,.62-.33,1,1,0,0,0,0-1.35Z"/><path d="M191.87,351.46h-2.4L188,347.93h-1.52v3.53h-2.23v-9.34h4.45a2.88,2.88,0,0,1,1.46.39,2.84,2.84,0,0,1,1.06,1.06,2.93,2.93,0,0,1,0,2.85,3,3,0,0,1-1,1.05Zm-2.63-7.12a1,1,0,0,0-.63-.31h-2.19v2h2.19a1,1,0,0,0,.63-.33,1,1,0,0,0,.25-.68A1,1,0,0,0,189.24,344.34Z"/><path d="M199.5,342.75a4.65,4.65,0,0,1,1.71,1.73,4.71,4.71,0,0,1,0,4.74,4.78,4.78,0,0,1-1.71,1.72,4.67,4.67,0,0,1-2.37.63,4.62,4.62,0,0,1-2.37-.63,4.76,4.76,0,0,1-1.73-1.72,4.74,4.74,0,0,1,6.47-6.47Zm-1.15,6.2a2.47,2.47,0,0,0,.88-.88,2.42,2.42,0,0,0,0-2.44,2.53,2.53,0,0,0-.88-.9,2.42,2.42,0,0,0-2.44,0,2.5,2.5,0,0,0-.9.9,2.42,2.42,0,0,0,0,2.44,2.45,2.45,0,0,0,.9.88,2.42,2.42,0,0,0,2.44,0Z"/><path d="M209.85,342.12h2.38v9.34h-2.38v-5.27l-1.17,2.11-.05.11h-2.38l-.06-.11L206,348l-1-1.81v5.27h-2.4v-9.34H205l2.4,4Z"/><path d="M220.12,342.75a4.73,4.73,0,0,1,1.72,6.47,4.81,4.81,0,0,1-1.72,1.72,4.62,4.62,0,0,1-2.37.63,4.67,4.67,0,0,1-2.37-.63,4.73,4.73,0,0,1-1.72-1.72,4.71,4.71,0,0,1,0-4.74,4.61,4.61,0,0,1,1.72-1.73,4.67,4.67,0,0,1,2.37-.63A4.62,4.62,0,0,1,220.12,342.75ZM219,349a2.5,2.5,0,0,0,.89-.88,2.42,2.42,0,0,0,0-2.44,2.56,2.56,0,0,0-.89-.9,2.33,2.33,0,0,0-1.22-.33,2.38,2.38,0,0,0-1.22.33,2.56,2.56,0,0,0-.89.9,2.42,2.42,0,0,0,0,2.44,2.5,2.5,0,0,0,.89.88,2.38,2.38,0,0,0,1.22.33A2.33,2.33,0,0,0,219,349Z"/><path d="M230.32,342.12v2.38h-2.4v7h-2.39v-7h-2.39v-2.38h7.18Z"/><path d="M237.6,349.44v2h-6.36v-9.34h6.24v2h-3.85v1.64h3.24v2h-3.24v1.64Z"/><path d="M247.49,342.21l3.06,9.25h-2.3l-.61-1.89h-2.9l-.59,1.89h-2.32l3.07-9.25Zm-2.13,5.43H247L246.2,345Z"/><path d="M256,342.12h2.38v9.34H256l-2.75-5v5h-2.39v-9.34h2.39l2.75,5Z"/><path d="M263.49,342.08a5.37,5.37,0,0,1,1.41.34,4.23,4.23,0,0,1,1.29.81,4.68,4.68,0,0,1,1.14,1.6,4.84,4.84,0,0,1,.4,1.93,4.58,4.58,0,0,1-.51,2.15,4.23,4.23,0,0,1-1.45,1.66,5.27,5.27,0,0,1-1.9.74,13.82,13.82,0,0,1-2.36.18h-1.09l-1,0V342h2.39C262.45,342,263,342,263.49,342.08Zm2,4.68a2.42,2.42,0,0,0-.32-1.2,2.48,2.48,0,0,0-.86-.9,2.34,2.34,0,0,0-1.2-.36h-1.3v4.88a9.66,9.66,0,0,0,1.64-.12,2.69,2.69,0,0,0,1.23-.52,2.07,2.07,0,0,0,.74-1.23A2.24,2.24,0,0,0,265.46,346.76Z"/><path d="M276.59,342.08a5.37,5.37,0,0,1,1.41.34,4.23,4.23,0,0,1,1.29.81,4.68,4.68,0,0,1,1.14,1.6,4.85,4.85,0,0,1,.41,1.93,4.47,4.47,0,0,1-.52,2.15,4.23,4.23,0,0,1-1.45,1.66,5.2,5.2,0,0,1-1.9.74,13.74,13.74,0,0,1-2.36.18h-1.09l-1,0V342h2.4C275.55,342,276.12,342,276.59,342.08Zm2,4.68a2.41,2.41,0,0,0-.31-1.2,2.5,2.5,0,0,0-.87-.9,2.34,2.34,0,0,0-1.2-.36h-1.29v4.88a9.53,9.53,0,0,0,1.63-.12,2.69,2.69,0,0,0,1.23-.52,2.08,2.08,0,0,0,.75-1.23A2.8,2.8,0,0,0,278.56,346.76Z"/><path d="M284,342.12v9.34h-2.38v-9.34Z"/><path d="M289.34,345.08v-.17a.82.82,0,0,0-.33-.66,1.16,1.16,0,0,0-.78-.27,1.28,1.28,0,0,0-.82.27.82.82,0,0,0-.33.66.62.62,0,0,0,.34.57,2.94,2.94,0,0,0,.9.37.79.79,0,0,1,.2,0l.24.05a4.64,4.64,0,0,1,1.89.78l.12.1a2.82,2.82,0,0,1,.62.92,2.51,2.51,0,0,1,.24,1.05,2.64,2.64,0,0,1-.26,1.14,3,3,0,0,1-.75,1,3.56,3.56,0,0,1-1.11.62,3.78,3.78,0,0,1-1.3.22,3.72,3.72,0,0,1-1.29-.22,3.51,3.51,0,0,1-1.1-.62,3.13,3.13,0,0,1-.75-1,2.52,2.52,0,0,1-.27-1.14v-.17h2.32v.17a.81.81,0,0,0,.32.66,1.17,1.17,0,0,0,.77.27,1.28,1.28,0,0,0,.82-.27.82.82,0,0,0,.33-.66.76.76,0,0,0-.35-.58,1.86,1.86,0,0,0-.37-.2l-.52-.16-.43-.1a11,11,0,0,1-1.14-.33,2.35,2.35,0,0,1-.76-.45l-.05-.05a3,3,0,0,1-.69-.93,2.38,2.38,0,0,1-.25-1.08,2.52,2.52,0,0,1,.27-1.14,3.13,3.13,0,0,1,.75-1,3.51,3.51,0,0,1,1.1-.62,3.72,3.72,0,0,1,1.29-.22,3.78,3.78,0,0,1,1.3.22,3.56,3.56,0,0,1,1.11.62,3,3,0,0,1,.75,1,2.64,2.64,0,0,1,.26,1.14v.17Z"/><path d="M297.81,349.06a2.51,2.51,0,0,0,.8-.52l1.61,1.62a4.73,4.73,0,0,1-1.52,1,4.78,4.78,0,0,1-4.19-.27,4.73,4.73,0,0,1-1.72-1.72,4.63,4.63,0,0,1-.64-2.37,4.74,4.74,0,0,1,2.36-4.09,4.53,4.53,0,0,1,2.37-.64,4.65,4.65,0,0,1,1.82.36,4.92,4.92,0,0,1,1.52,1l-1.61,1.61a2.69,2.69,0,0,0-.8-.52,2.4,2.4,0,0,0-2.15.14,2.53,2.53,0,0,0-.89.89,2.38,2.38,0,0,0-.33,1.22,2.35,2.35,0,0,0,.33,1.22,2.53,2.53,0,0,0,.89.89,2.35,2.35,0,0,0,2.15.13Z"/><path d="M308.62,342.13v5.78a3.59,3.59,0,0,1-.5,1.85,3.69,3.69,0,0,1-1.35,1.34,3.65,3.65,0,0,1-1.86.5h-.21a3.62,3.62,0,0,1-1.85-.5,3.74,3.74,0,0,1-1.34-1.34,3.59,3.59,0,0,1-.5-1.85v-5.78h2.21v5.25a2.19,2.19,0,0,0,.4,1.36,1.26,1.26,0,0,0,1.08.54h.21a1.29,1.29,0,0,0,1.08-.55,2.13,2.13,0,0,0,.42-1.35v-5.25Z"/><path d="M313.94,345.08v-.17a.81.81,0,0,0-.32-.66,1.2,1.2,0,0,0-.79-.27,1.28,1.28,0,0,0-.81.27.83.83,0,0,0-.34.66.62.62,0,0,0,.35.57,2.94,2.94,0,0,0,.9.37.79.79,0,0,1,.2,0l.23.05a4.51,4.51,0,0,1,1.89.78l.12.1a2.69,2.69,0,0,1,.63.92,2.65,2.65,0,0,1,.23,1.05,2.51,2.51,0,0,1-.26,1.14,3.1,3.1,0,0,1-.74,1,3.56,3.56,0,0,1-1.11.62,3.82,3.82,0,0,1-1.3.22,3.72,3.72,0,0,1-1.29-.22,3.4,3.4,0,0,1-1.1-.62,3.17,3.17,0,0,1-.76-1,2.64,2.64,0,0,1-.26-1.14v-.17h2.31v.17a.82.82,0,0,0,.33.66,1.15,1.15,0,0,0,.77.27,1.24,1.24,0,0,0,.81-.27.81.81,0,0,0,.34-.66.77.77,0,0,0-.36-.58,1.61,1.61,0,0,0-.37-.2l-.51-.16-.44-.1q-.72-.18-1.14-.33a2.42,2.42,0,0,1-.75-.45l0-.05a3.25,3.25,0,0,1-.7-.93,2.51,2.51,0,0,1-.24-1.08,2.64,2.64,0,0,1,.26-1.14,3.17,3.17,0,0,1,.76-1,3.4,3.4,0,0,1,1.1-.62,3.72,3.72,0,0,1,1.29-.22,3.82,3.82,0,0,1,1.3.22,3.56,3.56,0,0,1,1.11.62,3.1,3.1,0,0,1,.74,1,2.51,2.51,0,0,1,.26,1.14v.17Z"/><path d="M321.3,345.08v-.17a.82.82,0,0,0-.33-.66,1.17,1.17,0,0,0-.78-.27,1.28,1.28,0,0,0-.82.27.82.82,0,0,0-.33.66.62.62,0,0,0,.34.57,2.94,2.94,0,0,0,.9.37.79.79,0,0,1,.2,0l.23.05a4.63,4.63,0,0,1,1.9.78l.11.1a2.69,2.69,0,0,1,.63.92,2.49,2.49,0,0,1,.23,1.05,2.63,2.63,0,0,1-.25,1.14,3.29,3.29,0,0,1-.75,1,3.56,3.56,0,0,1-1.11.62,3.82,3.82,0,0,1-1.3.22,3.72,3.72,0,0,1-1.29-.22,3.4,3.4,0,0,1-1.1-.62,3,3,0,0,1-.75-1,2.52,2.52,0,0,1-.27-1.14v-.17h2.31v.17a.82.82,0,0,0,.33.66,1.15,1.15,0,0,0,.77.27,1.28,1.28,0,0,0,.82-.27.82.82,0,0,0,.33-.66.78.78,0,0,0-.35-.58,1.86,1.86,0,0,0-.37-.2l-.52-.16-.44-.1a11.45,11.45,0,0,1-1.13-.33,2.35,2.35,0,0,1-.76-.45l-.05-.05A3,3,0,0,1,317,346a2.38,2.38,0,0,1-.25-1.08,2.52,2.52,0,0,1,.27-1.14,3,3,0,0,1,.75-1,3.4,3.4,0,0,1,1.1-.62,3.72,3.72,0,0,1,1.29-.22,3.82,3.82,0,0,1,1.3.22,3.56,3.56,0,0,1,1.11.62,3.29,3.29,0,0,1,.75,1,2.63,2.63,0,0,1,.25,1.14v.17Z"/><path d="M333.31,342.12h2.38l-2.75,5.54v3.8h-2.38v-3.8l-2.75-5.54h2.38l1.56,3.18Z"/><path d="M343.06,342.75a4.76,4.76,0,0,1,1.72,6.47,4.81,4.81,0,0,1-1.72,1.72,4.62,4.62,0,0,1-2.37.63,4.67,4.67,0,0,1-2.37-.63,4.83,4.83,0,0,1-1.73-1.72,4.77,4.77,0,0,1,0-4.74,4.71,4.71,0,0,1,4.1-2.36A4.62,4.62,0,0,1,343.06,342.75Zm-1.15,6.2a2.47,2.47,0,0,0,.88-.88,2.36,2.36,0,0,0,0-2.44,2.53,2.53,0,0,0-.88-.9,2.42,2.42,0,0,0-2.44,0,2.48,2.48,0,0,0-.89.9,2.42,2.42,0,0,0,0,2.44,2.42,2.42,0,0,0,.89.88,2.42,2.42,0,0,0,2.44,0Z"/><path d="M353.81,342.13v5.78a3.59,3.59,0,0,1-.5,1.85A3.69,3.69,0,0,1,352,351.1a3.59,3.59,0,0,1-1.85.5h-.22a3.62,3.62,0,0,1-1.85-.5,3.74,3.74,0,0,1-1.34-1.34,3.58,3.58,0,0,1-.49-1.85v-5.78h2.2v5.25a2.26,2.26,0,0,0,.4,1.36,1.28,1.28,0,0,0,1.08.54h.22a1.26,1.26,0,0,0,1.07-.55,2.13,2.13,0,0,0,.42-1.35v-5.25Z"/><path d="M362.5,351.46h-2.4l-1.48-3.53H357.1v3.53h-2.23v-9.34h4.45a2.88,2.88,0,0,1,1.46.39,2.84,2.84,0,0,1,1.06,1.06,2.88,2.88,0,0,1,.39,1.46,2.8,2.8,0,0,1-.36,1.39,2.93,2.93,0,0,1-1,1.05Zm-2.64-7.12a.91.91,0,0,0-.62-.31h-2.19v2h2.19a.93.93,0,0,0,.62-.33,1,1,0,0,0,.26-.68A1,1,0,0,0,359.86,344.34Z"/><path d="M38.31,358.37a2.91,2.91,0,0,1,1.06,1.06,2.91,2.91,0,0,1-2.52,4.37H34.63v3.53H32.4V358h4.45A2.83,2.83,0,0,1,38.31,358.37Zm-.91,1.84a.91.91,0,0,0-.63-.31H34.58v2h2.19a.85.85,0,0,0,.63-.32,1,1,0,0,0,.26-.68A1,1,0,0,0,37.4,360.21Z"/><path d="M48.18,367.33H45.79l-1.48-3.53H42.79v3.53H40.55V358H45a2.84,2.84,0,0,1,1.45.39,2.89,2.89,0,0,1,1.07,1.07,2.9,2.9,0,0,1,0,2.85,3.12,3.12,0,0,1-1,1Zm-2.63-7.12a.89.89,0,0,0-.62-.31H42.74v2h2.19a.9.9,0,0,0,.62-.32,1,1,0,0,0,.25-.68A1,1,0,0,0,45.55,360.21Z"/><path d="M55.81,358.62a4.72,4.72,0,0,1,1.72,6.46,4.58,4.58,0,0,1-1.72,1.72,4.52,4.52,0,0,1-2.36.64,4.74,4.74,0,0,1-4.1-2.36,4.52,4.52,0,0,1-.64-2.36,4.59,4.59,0,0,1,.64-2.38,4.65,4.65,0,0,1,1.72-1.72,4.59,4.59,0,0,1,2.38-.64A4.52,4.52,0,0,1,55.81,358.62Zm-1.15,6.2a2.53,2.53,0,0,0,.89-.89,2.32,2.32,0,0,0,.33-1.21,2.41,2.41,0,0,0-.33-1.23,2.53,2.53,0,0,0-.89-.89,2.32,2.32,0,0,0-1.21-.33,2.39,2.39,0,0,0-1.23.33,2.53,2.53,0,0,0-.89.89,2.41,2.41,0,0,0-.33,1.23,2.32,2.32,0,0,0,.33,1.21,2.53,2.53,0,0,0,.89.89,2.39,2.39,0,0,0,1.23.33A2.32,2.32,0,0,0,54.66,364.82Z"/><path d="M63.86,358h2.21v5.77a3.62,3.62,0,0,1-.49,1.86,3.69,3.69,0,0,1-1.35,1.34,3.74,3.74,0,0,1-3.7,0,3.74,3.74,0,0,1-1.34-1.34,3.63,3.63,0,0,1-.5-1.86v-.38H60.9a2.06,2.06,0,0,0,.43,1.26,1.33,1.33,0,0,0,2.12-.05,2.15,2.15,0,0,0,.41-1.35Z"/><path d="M73.49,365.31v2H67.13V358h6.24v2H69.52v1.64h3.24v2H69.52v1.64Z"/><path d="M79.94,364.93a2.69,2.69,0,0,0,.8-.52L82.35,366a4.92,4.92,0,0,1-1.52,1,4.7,4.7,0,0,1-1.83.36,4.61,4.61,0,0,1-2.36-.63,4.73,4.73,0,0,1-1.72-1.72,4.71,4.71,0,0,1,0-4.74A4.68,4.68,0,0,1,79,358a4.7,4.7,0,0,1,1.83.36,4.6,4.6,0,0,1,1.52,1L80.74,361a2.51,2.51,0,0,0-.8-.52,2.33,2.33,0,0,0-.94-.2,2.24,2.24,0,0,0-1.21.34,2.45,2.45,0,0,0-.89.89,2.42,2.42,0,0,0,0,2.44,2.5,2.5,0,0,0,.89.88,2.4,2.4,0,0,0,2.15.14Z"/><path d="M90.19,358v2.38H87.8v7H85.4v-7H83V358h7.18Z"/><path d="M91.21,367a1.29,1.29,0,0,1-.36-.91,1.15,1.15,0,0,1,.36-.86,1.24,1.24,0,0,1,1.76,0A1.24,1.24,0,0,1,93,367a1.22,1.22,0,0,1-.89.37A1.17,1.17,0,0,1,91.21,367Z"/><path d="M105.14,363.38a2.57,2.57,0,0,1,.31,1.25,2.62,2.62,0,0,1-.36,1.35,2.74,2.74,0,0,1-2.33,1.35H98.1V358h4.24a2.53,2.53,0,0,1,1.36.37,2.68,2.68,0,0,1,1.13,3.27,2.71,2.71,0,0,1-.52.83A2.68,2.68,0,0,1,105.14,363.38Zm-2.46-3.21a.93.93,0,0,0-.68-.28h-1.72v2H102a2.19,2.19,0,0,0,.31-.05.72.72,0,0,0,.24-.13,1.06,1.06,0,0,0,.31-.36,1,1,0,0,0,.1-.46A.94.94,0,0,0,102.68,360.17Zm.39,4.94a1,1,0,0,0,.05-1.33,1,1,0,0,0-.57-.34h-2.27v2h2.11A.93.93,0,0,0,103.07,365.11Z"/><path d="M113.08,358.62a4.81,4.81,0,0,1,1.72,1.72,4.68,4.68,0,0,1,.63,2.38,4.61,4.61,0,0,1-.63,2.36,4.73,4.73,0,0,1-1.72,1.72,4.71,4.71,0,0,1-4.74,0,4.68,4.68,0,0,1-2.36-4.08,4.68,4.68,0,0,1,2.36-4.1,4.71,4.71,0,0,1,4.74,0Zm-1.15,6.2a2.5,2.5,0,0,0,.88-.89,2.32,2.32,0,0,0,.33-1.21,2.41,2.41,0,0,0-.33-1.23,2.5,2.5,0,0,0-.88-.89,2.42,2.42,0,0,0-2.44,0,2.48,2.48,0,0,0-.9.89,2.41,2.41,0,0,0-.33,1.23,2.32,2.32,0,0,0,.33,1.21,2.48,2.48,0,0,0,.9.89,2.42,2.42,0,0,0,2.44,0Z"/><path d="M123.27,358v2.38h-2.39v7h-2.4v-7h-2.39V358h7.18Z"/><path d="M129.25,358h2.38v9.35h-2.38v-3.49h-2.67v3.49H124.2V358h2.38v3.48h2.67Z"/><path d="M139,358v9.35h-2.38V358Z"/><path d="M145.23,358h2.38v9.35h-2.38l-2.75-5v5h-2.39V358h2.39l2.75,5Z"/><path d="M154.82,358h2.59l-3,9.37h-2.91l-3-9.37H151l1.9,5.84Z"/><path d="M160.58,358v9.35H158.2V358Z"/><path d="M168.69,358v2.38h-2.4v7H163.9v-7h-2.39V358h7.18Z"/><path d="M176,365.31v2h-6.36V358h6.25v2H172v1.64h3.24v2H172v1.64Z"/><path d="M181.13,358a5.37,5.37,0,0,1,1.41.34,4,4,0,0,1,1.29.8,4.88,4.88,0,0,1,1.55,3.53,4.6,4.6,0,0,1-.52,2.16,4.27,4.27,0,0,1-1.45,1.65,5,5,0,0,1-1.9.75,13.82,13.82,0,0,1-2.36.18l-1.09,0h-1v-9.45h2.39A16.81,16.81,0,0,1,181.13,358Zm2,4.67a2.29,2.29,0,0,0-.32-1.19,2.5,2.5,0,0,0-.86-.91,2.24,2.24,0,0,0-1.2-.35h-1.3V365a9.76,9.76,0,0,0,1.64-.11,2.8,2.8,0,0,0,1.23-.52,2.07,2.07,0,0,0,.74-1.23A2.32,2.32,0,0,0,183.1,362.62Z"/><path d="M192.51,358v9.35h-2.38V358Z"/><path d="M198.71,358h2.38v9.35h-2.38l-2.75-5v5h-2.39V358H196l2.75,5Z"/><path d="M208.66,360h-4.13v1.64h3.31v2h-3.31v3.66h-2.38V358h6.51Z"/><path d="M211.83,365.08h3.68v2.25h-6.06V358h2.38Z"/><path d="M224,358v5.77a3.65,3.65,0,0,1-.5,1.86,3.69,3.69,0,0,1-1.35,1.34,3.64,3.64,0,0,1-1.86.49h-.21a3.58,3.58,0,0,1-1.85-.49,3.74,3.74,0,0,1-1.34-1.34,3.65,3.65,0,0,1-.5-1.86V358h2.21v5.25a2.21,2.21,0,0,0,.4,1.36,1.26,1.26,0,0,0,1.08.54h.21a1.29,1.29,0,0,0,1.08-.55,2.15,2.15,0,0,0,.42-1.35V358Z"/><path d="M231.45,365.31v2h-6.36V358h6.24v2h-3.84v1.64h3.24v2h-3.24v1.64Z"/><path d="M237.65,358H240v9.35h-2.38l-2.75-5v5h-2.39V358h2.39l2.75,5Z"/><path d="M246.49,364.93a2.64,2.64,0,0,0,.79-.52l1.61,1.61a4.81,4.81,0,0,1-1.52,1,4.78,4.78,0,0,1-4.19-.27,4.81,4.81,0,0,1-1.72-1.72,4.73,4.73,0,0,1,5.91-6.74,4.5,4.5,0,0,1,1.52,1L247.28,361a2.47,2.47,0,0,0-.79-.52,2.37,2.37,0,0,0-.94-.2,2.27,2.27,0,0,0-1.22.34,2.42,2.42,0,0,0-.88.89,2.36,2.36,0,0,0,0,2.44,2.47,2.47,0,0,0,.88.88,2.42,2.42,0,0,0,2.16.14Z"/><path d="M256.05,365.31v2h-6.36V358h6.24v2h-3.85v1.64h3.24v2h-3.24v1.64Z"/><path d="M264.73,367.33h-2.39l-1.48-3.53h-1.52v3.53H257.1V358h4.46a2.84,2.84,0,0,1,1.45.39,2.89,2.89,0,0,1,1.07,1.07,2.9,2.9,0,0,1,0,2.85,3.12,3.12,0,0,1-1,1Zm-2.63-7.12a.89.89,0,0,0-.62-.31h-2.19v2h2.19a.9.9,0,0,0,.62-.32,1,1,0,0,0,.25-.68A1,1,0,0,0,262.1,360.21Z"/><path d="M269.8,361v-.18a.82.82,0,0,0-.33-.65,1.17,1.17,0,0,0-.78-.27,1.28,1.28,0,0,0-.82.27.82.82,0,0,0-.33.65.6.6,0,0,0,.34.57,2.71,2.71,0,0,0,.9.37l.2,0,.23.05a4.63,4.63,0,0,1,1.9.78l.11.11a2.75,2.75,0,0,1,.63.91,2.57,2.57,0,0,1,.23,1.06,2.63,2.63,0,0,1-.25,1.14,3,3,0,0,1-.75,1,3.4,3.4,0,0,1-1.11.63,3.82,3.82,0,0,1-1.3.22,3.72,3.72,0,0,1-1.29-.22,3.35,3.35,0,0,1-1.1-.63,2.85,2.85,0,0,1-.75-1,2.52,2.52,0,0,1-.27-1.14v-.17h2.32v.17a.8.8,0,0,0,.32.65,1.13,1.13,0,0,0,.77.28,1.24,1.24,0,0,0,.82-.28.81.81,0,0,0,.33-.65.77.77,0,0,0-.35-.58,1.46,1.46,0,0,0-.37-.2c-.14-.05-.32-.11-.52-.16l-.44-.1c-.48-.13-.86-.24-1.13-.33a2.35,2.35,0,0,1-.76-.45l-.05-.06a2.89,2.89,0,0,1-.69-.92,2.45,2.45,0,0,1-.25-1.09,2.51,2.51,0,0,1,.27-1.13,2.79,2.79,0,0,1,.75-1,3.75,3.75,0,0,1,1.1-.63,4,4,0,0,1,1.29-.22,4.08,4.08,0,0,1,1.3.22,3.8,3.8,0,0,1,1.11.63,2.92,2.92,0,0,1,.75,1,2.62,2.62,0,0,1,.25,1.13V361Z"/><path d="M281.71,358.08l3.05,9.25h-2.3l-.61-1.89H279l-.6,1.89h-2.31l3.07-9.25Zm-2.13,5.43h1.67l-.84-2.62Z"/><path d="M290.17,358h2.38v9.35h-2.38l-2.75-5v5H285V358h2.39l2.75,5Z"/><path d="M297.71,358a5.57,5.57,0,0,1,1.41.34,4,4,0,0,1,1.29.8,4.82,4.82,0,0,1,1.54,3.53,4.59,4.59,0,0,1-.51,2.16,4.27,4.27,0,0,1-1.45,1.65,5.09,5.09,0,0,1-1.91.75,13.66,13.66,0,0,1-2.36.18l-1.08,0h-1v-9.45H296A16.94,16.94,0,0,1,297.71,358Zm2,4.67a2.39,2.39,0,0,0-.32-1.19,2.5,2.5,0,0,0-.86-.91,2.24,2.24,0,0,0-1.2-.35H296V365a9.76,9.76,0,0,0,1.64-.11,2.8,2.8,0,0,0,1.23-.52,2.07,2.07,0,0,0,.74-1.23A2.32,2.32,0,0,0,299.68,362.62Z"/><path d="M37.26,373.94l3.06,9.26H38l-.61-1.89h-2.9l-.59,1.89H31.6l3.07-9.26Zm-2.13,5.44H36.8L36,376.76Z"/><path d="M46,380.8a2.69,2.69,0,0,0,.8-.52l1.61,1.61a4.73,4.73,0,0,1-1.52,1,4.69,4.69,0,0,1-4.19-.27A4.75,4.75,0,0,1,41,376.18a4.73,4.73,0,0,1,1.72-1.72,4.63,4.63,0,0,1,2.37-.64,4.49,4.49,0,0,1,1.82.37,4.73,4.73,0,0,1,1.52,1l-1.61,1.62a2.54,2.54,0,0,0-.8-.53,2.45,2.45,0,0,0-.93-.19,2.35,2.35,0,0,0-1.22.33,2.53,2.53,0,0,0-.89.89,2.41,2.41,0,0,0-.33,1.23,2.32,2.32,0,0,0,.33,1.21,2.53,2.53,0,0,0,.89.89A2.35,2.35,0,0,0,45,381,2.28,2.28,0,0,0,46,380.8Z"/><path d="M54.57,380.8a2.64,2.64,0,0,0,.79-.52L57,381.89a4.73,4.73,0,0,1-1.52,1,4.71,4.71,0,0,1-4.2-.27,4.73,4.73,0,0,1-1.72-1.72,4.61,4.61,0,0,1-.63-2.36,4.68,4.68,0,0,1,.63-2.38,4.81,4.81,0,0,1,1.72-1.72,4.68,4.68,0,0,1,2.37-.64,4.57,4.57,0,0,1,1.83.37,4.73,4.73,0,0,1,1.52,1l-1.62,1.62a2.46,2.46,0,0,0-1.73-.72,2.35,2.35,0,0,0-1.22.33,2.5,2.5,0,0,0-.88.89,2.41,2.41,0,0,0-.33,1.23,2.32,2.32,0,0,0,.33,1.21,2.5,2.5,0,0,0,.88.89,2.35,2.35,0,0,0,1.22.33A2.32,2.32,0,0,0,54.57,380.8Z"/><path d="M64.6,374.48a4.68,4.68,0,0,1,1.72,1.73,4.58,4.58,0,0,1,.64,2.37,4.53,4.53,0,0,1-.64,2.37,4.75,4.75,0,0,1-6.46,1.72A4.73,4.73,0,0,1,58.14,381a4.63,4.63,0,0,1-.64-2.37,4.68,4.68,0,0,1,.64-2.37,4.76,4.76,0,0,1,1.72-1.73,4.68,4.68,0,0,1,2.38-.63A4.61,4.61,0,0,1,64.6,374.48Zm-1.15,6.21a2.53,2.53,0,0,0,.89-.89,2.35,2.35,0,0,0,.33-1.22,2.38,2.38,0,0,0-.33-1.22,2.53,2.53,0,0,0-.89-.89,2.32,2.32,0,0,0-1.21-.33,2.41,2.41,0,0,0-1.23.33,2.53,2.53,0,0,0-.89.89,2.38,2.38,0,0,0-.33,1.22,2.35,2.35,0,0,0,.33,1.22,2.53,2.53,0,0,0,.89.89,2.41,2.41,0,0,0,1.23.33A2.32,2.32,0,0,0,63.45,380.69Z"/><path d="M75.35,373.86v5.78a3.7,3.7,0,0,1-3.7,3.69h-.21a3.5,3.5,0,0,1-1.85-.5,3.66,3.66,0,0,1-1.34-1.34,3.59,3.59,0,0,1-.5-1.85v-5.78H70v5.25a2.19,2.19,0,0,0,.4,1.36,1.24,1.24,0,0,0,1.08.55h.21a1.32,1.32,0,0,0,1.08-.55,2.18,2.18,0,0,0,.42-1.36v-5.25Z"/><path d="M81.56,373.85h2.38v9.35H81.56l-2.76-5v5H76.41v-9.35H78.8l2.76,5Z"/><path d="M92,373.85v2.38H89.65v7h-2.4v-7H84.86v-2.38H92Z"/><path d="M97.24,376.81v-.17a.81.81,0,0,0-.33-.65,1.18,1.18,0,0,0-.78-.28,1.29,1.29,0,0,0-.82.28.81.81,0,0,0-.33.65.6.6,0,0,0,.34.57,2.94,2.94,0,0,0,.9.37l.2,0,.24.05a4.64,4.64,0,0,1,1.89.78l.12.11a2.77,2.77,0,0,1,.62.91,2.5,2.5,0,0,1,.23,1.06,2.62,2.62,0,0,1-.25,1.13,2.92,2.92,0,0,1-.75,1,3.8,3.8,0,0,1-1.11.63,4.08,4.08,0,0,1-1.3.22,4,4,0,0,1-1.29-.22,3.75,3.75,0,0,1-1.1-.63,2.79,2.79,0,0,1-.75-1,2.51,2.51,0,0,1-.27-1.13v-.17H95v.17a.81.81,0,0,0,.32.65,1.17,1.17,0,0,0,.77.27,1.28,1.28,0,0,0,.82-.27.82.82,0,0,0,.33-.65.75.75,0,0,0-.35-.58,1.46,1.46,0,0,0-.37-.2,3.61,3.61,0,0,0-.52-.16l-.44-.11a11.45,11.45,0,0,1-1.13-.33,2,2,0,0,1-.76-.45l0-.05a2.82,2.82,0,0,1-.69-.93,2.38,2.38,0,0,1-.25-1.08A2.52,2.52,0,0,1,93,375.5a2.85,2.85,0,0,1,.75-1,3.54,3.54,0,0,1,1.1-.63,3.72,3.72,0,0,1,1.29-.22,3.82,3.82,0,0,1,1.3.22,3.59,3.59,0,0,1,1.11.63,3,3,0,0,1,.75,1,2.63,2.63,0,0,1,.25,1.14v.17Z"/><path d="M111.81,373.85h2.06v9.35h-2.38l-2.41-4-2.42,4h-2.38v-9.35h2.38v5.28l1.17-2.12.06-.11h2.38l.06.11,1.16,2.12v-5.28Z"/><path d="M117.31,373.85v9.35h-2.38v-9.35Z"/><path d="M125.41,373.85v2.38H123v7h-2.39v-7h-2.4v-2.38h7.18Z"/><path d="M131.39,373.85h2.38v9.35h-2.38v-3.49h-2.67v3.49h-2.38v-9.35h2.38v3.48h2.67Z"/><path d="M143.66,373.94l3.05,9.26h-2.3l-.61-1.89h-2.89l-.6,1.89H138l3.07-9.26Zm-2.13,5.44h1.67l-.84-2.62Z"/><path d="M153.32,381H157v2.25h-6.06v-9.35h2.38Z"/><path d="M164.76,374.48a4.76,4.76,0,0,1,1.72,1.73,4.68,4.68,0,0,1,.64,2.37,4.63,4.63,0,0,1-.64,2.37,4.73,4.73,0,0,1-1.72,1.72,4.62,4.62,0,0,1-2.37.63A4.7,4.7,0,0,1,158.3,381a4.53,4.53,0,0,1-.64-2.37,4.58,4.58,0,0,1,.64-2.37,4.68,4.68,0,0,1,4.09-2.36A4.62,4.62,0,0,1,164.76,374.48Zm-1.15,6.21a2.53,2.53,0,0,0,.89-.89,2.35,2.35,0,0,0,.33-1.22,2.38,2.38,0,0,0-.33-1.22,2.53,2.53,0,0,0-.89-.89,2.35,2.35,0,0,0-1.22-.33,2.38,2.38,0,0,0-1.22.33,2.53,2.53,0,0,0-.89.89,2.38,2.38,0,0,0-.33,1.22,2.35,2.35,0,0,0,.33,1.22,2.53,2.53,0,0,0,.89.89,2.38,2.38,0,0,0,1.22.33A2.35,2.35,0,0,0,163.61,380.69Z"/><path d="M173.05,373.85h2.38v9.35h-2.38l-2.75-5v5h-2.39v-9.35h2.39l2.75,5Z"/><path d="M185.68,378.57a4.56,4.56,0,0,1-.64,2.37,4.73,4.73,0,0,1-1.72,1.72,4.67,4.67,0,0,1-2.37.63,4.62,4.62,0,0,1-2.37-.63,4.81,4.81,0,0,1-1.72-1.72,4.72,4.72,0,0,1,4.09-7.1,4.58,4.58,0,0,1,1.84.37,4.51,4.51,0,0,1,1.51,1l-2.13,1.22a2.27,2.27,0,0,0-1.22-.34,2.25,2.25,0,0,0-1.22.34,2.45,2.45,0,0,0-.89.89,2.42,2.42,0,0,0,0,2.44,2.5,2.5,0,0,0,.89.88A2.33,2.33,0,0,0,181,381a2.4,2.4,0,0,0,1.28-.36,2.47,2.47,0,0,0,.9-1h-2.94v-2.2h5.36A5.74,5.74,0,0,1,185.68,378.57Z"/><path d="M195.49,373.85h2.38v9.35h-2.38v-3.49h-2.67v3.49h-2.38v-9.35h2.38v3.48h2.67Z"/><path d="M201.31,373.85v9.35h-2.38v-9.35Z"/><path d="M206.63,376.81v-.17a.8.8,0,0,0-.32-.65,1.21,1.21,0,0,0-.79-.28,1.28,1.28,0,0,0-.81.28.82.82,0,0,0-.34.65.6.6,0,0,0,.35.57,2.94,2.94,0,0,0,.9.37l.2,0,.23.05a4.51,4.51,0,0,1,1.89.78l.12.11a2.81,2.81,0,0,1,.86,2,2.49,2.49,0,0,1-.26,1.13,2.89,2.89,0,0,1-.74,1,3.8,3.8,0,0,1-1.11.63,4.08,4.08,0,0,1-1.3.22,4,4,0,0,1-1.29-.22,3.63,3.63,0,0,1-1.1-.63,3,3,0,0,1-.76-1,2.63,2.63,0,0,1-.26-1.13v-.17h2.31v.17a.82.82,0,0,0,.33.65,1.15,1.15,0,0,0,.77.27,1.24,1.24,0,0,0,.81-.27.8.8,0,0,0,.34-.65.74.74,0,0,0-.36-.58,1.18,1.18,0,0,0-.37-.2,3.45,3.45,0,0,0-.51-.16l-.44-.11q-.72-.18-1.14-.33a2.09,2.09,0,0,1-.75-.45l-.05-.05a3,3,0,0,1-.7-.93,2.51,2.51,0,0,1-.24-1.08,2.64,2.64,0,0,1,.26-1.14,3,3,0,0,1,.76-1,3.43,3.43,0,0,1,1.1-.63,3.72,3.72,0,0,1,1.29-.22,3.82,3.82,0,0,1,1.3.22,3.59,3.59,0,0,1,1.11.63,3,3,0,0,1,.74,1,2.51,2.51,0,0,1,.26,1.14v.17Z"/><path d="M216.76,373.85v2.38h-2.39v7H212v-7h-2.4v-2.38h7.18Z"/><path d="M224.52,374.48a4.68,4.68,0,0,1,1.72,1.73,4.58,4.58,0,0,1,.64,2.37,4.53,4.53,0,0,1-.64,2.37,4.75,4.75,0,0,1-6.46,1.72,4.73,4.73,0,0,1-1.72-1.72,4.63,4.63,0,0,1-.64-2.37,4.68,4.68,0,0,1,.64-2.37,4.76,4.76,0,0,1,1.72-1.73,4.68,4.68,0,0,1,2.38-.63A4.61,4.61,0,0,1,224.52,374.48Zm-1.15,6.21a2.53,2.53,0,0,0,.89-.89,2.35,2.35,0,0,0,.33-1.22,2.38,2.38,0,0,0-.33-1.22,2.53,2.53,0,0,0-.89-.89,2.32,2.32,0,0,0-1.21-.33,2.41,2.41,0,0,0-1.23.33,2.53,2.53,0,0,0-.89.89,2.38,2.38,0,0,0-.33,1.22,2.35,2.35,0,0,0,.33,1.22,2.53,2.53,0,0,0,.89.89,2.41,2.41,0,0,0,1.23.33A2.32,2.32,0,0,0,223.37,380.69Z"/><path d="M235.3,383.2h-2.39l-1.48-3.53h-1.52v3.53h-2.24v-9.35h4.46a2.94,2.94,0,0,1,2.52,1.45,2.88,2.88,0,0,1,.39,1.46,2.77,2.77,0,0,1-.36,1.39,3.08,3.08,0,0,1-1,1.06Zm-2.63-7.12a.91.91,0,0,0-.62-.31h-2.2v2h2.2a1,1,0,0,0,.62-.32,1,1,0,0,0,.25-.68A1,1,0,0,0,232.67,376.08Z"/><path d="M241.07,373.85h2.38l-2.75,5.54v3.81h-2.39v-3.81l-2.75-5.54h2.38L239.5,377Z"/><path d="M252.81,373.94l3.05,9.26h-2.3l-.61-1.89h-2.89l-.6,1.89h-2.31l3.06-9.26Zm-2.13,5.44h1.66l-.83-2.62Z"/><path d="M263.75,383.2h-2.39l-1.48-3.53h-1.52v3.53h-2.23v-9.35h4.45a2.88,2.88,0,0,1,1.46.39,2.91,2.91,0,0,1,1.06,1.06,2.88,2.88,0,0,1,.39,1.46,2.77,2.77,0,0,1-.36,1.39,3.15,3.15,0,0,1-1,1.06Zm-2.63-7.12a.87.87,0,0,0-.62-.31h-2.19v2h2.19a.92.92,0,0,0,.62-.32,1,1,0,0,0,.25-.68A1,1,0,0,0,261.12,376.08Z"/><path d="M270.91,381.18v2h-6.36v-9.35h6.24v2h-3.85v1.64h3.24v2h-3.24v1.64Z"/><path d="M283.53,373.86v5.78a3.7,3.7,0,0,1-3.7,3.69h-.21a3.5,3.5,0,0,1-1.85-.5,3.66,3.66,0,0,1-1.34-1.34,3.59,3.59,0,0,1-.5-1.85v-5.78h2.21v5.25a2.19,2.19,0,0,0,.4,1.36,1.24,1.24,0,0,0,1.08.55h.21a1.32,1.32,0,0,0,1.08-.55,2.18,2.18,0,0,0,.42-1.36v-5.25Z"/><path d="M288.86,376.81v-.17a.82.82,0,0,0-.32-.65,1.21,1.21,0,0,0-.79-.28,1.24,1.24,0,0,0-.81.28.79.79,0,0,0-.34.65.6.6,0,0,0,.35.57,2.87,2.87,0,0,0,.89.37l.21,0,.23.05a4.64,4.64,0,0,1,1.89.78l.12.11a3,3,0,0,1,.63.91,2.66,2.66,0,0,1,.23,1.06,2.63,2.63,0,0,1-.26,1.13,2.79,2.79,0,0,1-.75,1,3.56,3.56,0,0,1-1.11.63,3.89,3.89,0,0,1-2.58,0,3.63,3.63,0,0,1-1.1-.63,3,3,0,0,1-.76-1,2.63,2.63,0,0,1-.26-1.13v-.17h2.31v.17a.84.84,0,0,0,.32.65,1.19,1.19,0,0,0,.78.27,1.24,1.24,0,0,0,.81-.27.8.8,0,0,0,.34-.65.74.74,0,0,0-.36-.58,1.31,1.31,0,0,0-.37-.2,3.45,3.45,0,0,0-.51-.16l-.44-.11a11.78,11.78,0,0,1-1.14-.33,2.09,2.09,0,0,1-.75-.45l-.05-.05a2.85,2.85,0,0,1-.7-.93,2.51,2.51,0,0,1-.24-1.08,2.64,2.64,0,0,1,.26-1.14,3,3,0,0,1,.76-1,3.43,3.43,0,0,1,1.1-.63,3.89,3.89,0,0,1,2.58,0,3.37,3.37,0,0,1,1.11.63,2.85,2.85,0,0,1,.75,1,2.64,2.64,0,0,1,.26,1.14v.17Z"/><path d="M298.3,381.18v2h-6.36v-9.35h6.24v2h-3.84v1.64h3.24v2h-3.24v1.64Z"/><path d="M303.46,373.82a5.78,5.78,0,0,1,1.41.33,4.23,4.23,0,0,1,1.29.81,4.82,4.82,0,0,1,1.54,3.53,4.62,4.62,0,0,1-.51,2.16,4.27,4.27,0,0,1-1.45,1.65,5.11,5.11,0,0,1-1.9.75,13.89,13.89,0,0,1-2.36.17h-2.12v-9.46h2.39A16.51,16.51,0,0,1,303.46,373.82Zm2,4.67a2.45,2.45,0,0,0-.32-1.2,2.56,2.56,0,0,0-.86-.9,2.34,2.34,0,0,0-1.2-.36h-1.3v4.88a10.94,10.94,0,0,0,1.64-.11,2.92,2.92,0,0,0,1.23-.52,2.13,2.13,0,0,0,.74-1.23A2.38,2.38,0,0,0,305.43,378.49Z"/><path d="M308.59,382.81a1.28,1.28,0,0,1-.36-.91,1.15,1.15,0,0,1,.37-.86,1.26,1.26,0,0,1,2.12.9,1.26,1.26,0,0,1-1.26,1.26A1.14,1.14,0,0,1,308.59,382.81Z"/></svg>