<svg id="Слой_1" data-name="Слой 1" xmlns="http://www.w3.org/2000/svg" viewBox="0 0 405 405"><defs><style>.cls-1{fill:#e7335d;}.cls-2{fill:#fed841;}</style></defs><rect width="405" height="405"/><path class="cls-1" d="M44.12,39h3.12V53.09h-3.6l-3.64-6-3.66,6h-3.6V39h3.6v8l1.76-3.2.1-.16h3.6l.08.16,1.76,3.2V39Z"/><path class="cls-1" d="M56.48,39h3.6V53.09h-3.6V47.81h-4v5.28h-3.6V39h3.6v5.26h4Z"/><path class="cls-1" d="M69,39.09l4.62,14H70.18l-.92-2.86H64.88L64,53.09h-3.5l4.64-14Zm-3.22,8.22h2.52l-1.26-4Z"/><path class="cls-1" d="M84.72,39v3.6H81.1V53.09H77.48V42.55H73.86V39H84.72Z"/><path class="cls-1" d="M95.72,39V53.09h-3.6V39Z"/><path class="cls-1" d="M103.78,43.43v-.26a1.23,1.23,0,0,0-.49-1,1.76,1.76,0,0,0-1.19-.41,1.87,1.87,0,0,0-1.23.41,1.22,1.22,0,0,0-.51,1,.92.92,0,0,0,.52.86,4.6,4.6,0,0,0,1.36.56l.31.06.35.08a6.82,6.82,0,0,1,2.86,1.18l.18.16a4.1,4.1,0,0,1,1,1.38,3.91,3.91,0,0,1,0,3.32,4.6,4.6,0,0,1-1.13,1.46,5.34,5.34,0,0,1-1.68,1,5.89,5.89,0,0,1-2,.33,5.79,5.79,0,0,1-2-.33,5.41,5.41,0,0,1-1.67-1,4.79,4.79,0,0,1-1.14-1.46,3.84,3.84,0,0,1-.4-1.72v-.26h3.5v.26a1.26,1.26,0,0,0,.49,1,1.79,1.79,0,0,0,1.17.41,1.92,1.92,0,0,0,1.23-.41,1.25,1.25,0,0,0,.51-1,1.15,1.15,0,0,0-.54-.88,2.29,2.29,0,0,0-.56-.3,7.5,7.5,0,0,0-.78-.24l-.66-.16c-.73-.19-1.31-.36-1.72-.5a3.71,3.71,0,0,1-1.14-.68l-.08-.08a4.68,4.68,0,0,1-1-1.4,3.74,3.74,0,0,1-.37-1.64,3.81,3.81,0,0,1,.4-1.72A4.56,4.56,0,0,1,98.46,40a5.21,5.21,0,0,1,1.67-1,5.79,5.79,0,0,1,2-.33,5.89,5.89,0,0,1,2,.33,5.15,5.15,0,0,1,1.68,1,4.39,4.39,0,0,1,1.13,1.46,3.94,3.94,0,0,1,.39,1.72v.26Z"/><path class="cls-1" d="M118,39V53.09h-3.6V39Z"/><path class="cls-1" d="M127.42,39H131V53.09h-3.6l-4.16-7.58v7.58h-3.62V39h3.62l4.16,7.58Z"/><path class="cls-1" d="M140.78,49.46a4.24,4.24,0,0,0,1.2-.79l2.44,2.44a7.35,7.35,0,0,1-2.3,1.55,7.15,7.15,0,0,1-2.76.55,7,7,0,0,1-3.58-1,7.2,7.2,0,0,1-2.6-2.6,7.17,7.17,0,0,1,0-7.17,7.15,7.15,0,0,1,2.6-2.61A7.13,7.13,0,0,1,144.42,41L142,43.45a3.85,3.85,0,0,0-1.2-.79,3.63,3.63,0,0,0-3.26.21,3.69,3.69,0,0,0-1.34,1.35,3.65,3.65,0,0,0,0,3.69,3.82,3.82,0,0,0,1.34,1.34,3.55,3.55,0,0,0,1.84.5A3.64,3.64,0,0,0,140.78,49.46Z"/><path class="cls-1" d="M149.22,49.69h5.56v3.4h-9.16V39h3.6Z"/><path class="cls-1" d="M167.68,39v8.74a5.47,5.47,0,0,1-.75,2.8,5.59,5.59,0,0,1-2,2,5.5,5.5,0,0,1-2.81.75h-.32a5.44,5.44,0,0,1-2.8-.75,5.64,5.64,0,0,1-2-2,5.47,5.47,0,0,1-.75-2.8V39h3.34v7.94a3.42,3.42,0,0,0,.6,2.06,1.94,1.94,0,0,0,1.64.82h.32a2,2,0,0,0,1.63-.83,3.31,3.31,0,0,0,.63-2.05V39Z"/><path class="cls-1" d="M175.48,38.9a8.07,8.07,0,0,1,2.13.51,6,6,0,0,1,1.95,1.22,7,7,0,0,1,1.73,2.43A7.2,7.2,0,0,1,181.9,46a6.91,6.91,0,0,1-.78,3.26,6.48,6.48,0,0,1-2.19,2.5,7.78,7.78,0,0,1-2.88,1.13,20.94,20.94,0,0,1-3.57.27l-1.64,0c-.35,0-.87,0-1.56,0V38.79h3.62A24.06,24.06,0,0,1,175.48,38.9Zm3,7.07a3.61,3.61,0,0,0-.48-1.81,3.74,3.74,0,0,0-1.31-1.37,3.42,3.42,0,0,0-1.81-.54h-2v7.38a15.85,15.85,0,0,0,2.47-.17,4.29,4.29,0,0,0,1.86-.79,3.2,3.2,0,0,0,1.13-1.86A3.82,3.82,0,0,0,178.46,46Z"/><path class="cls-1" d="M192.72,50v3.06H183.1V39h9.44V42h-5.82v2.48h4.9v3.06h-4.9V50Z"/><path class="cls-1" d="M200.52,38.9a8.07,8.07,0,0,1,2.13.51,6,6,0,0,1,1.95,1.22,7,7,0,0,1,1.73,2.43,7.2,7.2,0,0,1,.61,2.91,6.91,6.91,0,0,1-.78,3.26,6.48,6.48,0,0,1-2.19,2.5,7.78,7.78,0,0,1-2.88,1.13,20.94,20.94,0,0,1-3.57.27l-1.64,0c-.35,0-.87,0-1.56,0V38.79h3.62A24.06,24.06,0,0,1,200.52,38.9Zm3,7.07a3.61,3.61,0,0,0-.48-1.81,3.74,3.74,0,0,0-1.31-1.37,3.42,3.42,0,0,0-1.81-.54h-2v7.38a15.85,15.85,0,0,0,2.47-.17,4.29,4.29,0,0,0,1.86-.79,3.2,3.2,0,0,0,1.13-1.86A3.82,3.82,0,0,0,203.5,46Z"/><path class="cls-1" d="M36.34,63V77.09h-3.6V63Z"/><path class="cls-1" d="M45.72,63h3.6V77.09h-3.6l-4.16-7.58v7.58H37.94V63h3.62l4.16,7.58Z"/><path class="cls-1" d="M67.58,63v3.6H64V77.09H60.34V66.55H56.72V63H67.58Z"/><path class="cls-1" d="M76.62,63h3.6V77.09h-3.6V71.81h-4v5.28H69V63h3.6v5.26h4Z"/><path class="cls-1" d="M91.44,74v3.06H81.82V63h9.44V66H85.44v2.48h4.9v3.06h-4.9V74Z"/><path class="cls-1" d="M105.5,67.43v-.26a1.23,1.23,0,0,0-.49-1,1.76,1.76,0,0,0-1.19-.41,1.87,1.87,0,0,0-1.23.41,1.22,1.22,0,0,0-.51,1,.92.92,0,0,0,.52.86,4.6,4.6,0,0,0,1.36.56l.31.06.35.08a6.82,6.82,0,0,1,2.86,1.18l.18.16a4.1,4.1,0,0,1,1,1.38,3.91,3.91,0,0,1,0,3.32,4.6,4.6,0,0,1-1.13,1.46,5.34,5.34,0,0,1-1.68,1,5.89,5.89,0,0,1-2,.33,5.79,5.79,0,0,1-2-.33,5.41,5.41,0,0,1-1.67-1A4.79,4.79,0,0,1,99,74.77a3.84,3.84,0,0,1-.4-1.72v-.26h3.5v.26a1.26,1.26,0,0,0,.49,1,1.79,1.79,0,0,0,1.17.41A1.92,1.92,0,0,0,105,74a1.25,1.25,0,0,0,.51-1,1.15,1.15,0,0,0-.54-.88,2.29,2.29,0,0,0-.56-.3,7.5,7.5,0,0,0-.78-.24l-.66-.16c-.73-.19-1.31-.36-1.72-.5a3.71,3.71,0,0,1-1.14-.68l-.08-.08a4.68,4.68,0,0,1-1-1.4,3.74,3.74,0,0,1-.37-1.64,3.81,3.81,0,0,1,.4-1.72A4.56,4.56,0,0,1,100.18,64a5.21,5.21,0,0,1,1.67-1,5.79,5.79,0,0,1,2-.33,5.89,5.89,0,0,1,2,.33,5.15,5.15,0,0,1,1.68,1,4.39,4.39,0,0,1,1.13,1.46,3.94,3.94,0,0,1,.39,1.72v.26Z"/><path class="cls-1" d="M119.78,74v3.06h-9.62V63h9.44V66h-5.82v2.48h4.9v3.06h-4.9V74Z"/><path class="cls-1" d="M132.92,77.09H129.3l-2.24-5.34h-2.3v5.34h-3.38V63h6.74a4.25,4.25,0,0,1,2.2.59,4.29,4.29,0,0,1,1.61,1.61,4.34,4.34,0,0,1,.59,2.2,4.28,4.28,0,0,1-.54,2.11,4.73,4.73,0,0,1-1.46,1.59Zm-4-10.77a1.34,1.34,0,0,0-.94-.47h-3.32v3H128a1.45,1.45,0,0,0,.94-.49,1.52,1.52,0,0,0,.38-1A1.47,1.47,0,0,0,128.94,66.32Z"/><path class="cls-1" d="M143.42,62.91h3.92l-4.62,14.18h-4.4l-4.6-14.18h4l2.86,8.84Z"/><path class="cls-1" d="M152.14,63V77.09h-3.6V63Z"/><path class="cls-1" d="M161.9,73.46a4.24,4.24,0,0,0,1.2-.79l2.44,2.44a7.35,7.35,0,0,1-2.3,1.55,7.15,7.15,0,0,1-2.76.55,7,7,0,0,1-3.58-1,7.2,7.2,0,0,1-2.6-2.6,7.17,7.17,0,0,1,0-7.17,7.15,7.15,0,0,1,2.6-2.61A7.13,7.13,0,0,1,165.54,65l-2.44,2.44a3.85,3.85,0,0,0-1.2-.79,3.63,3.63,0,0,0-3.26.21,3.69,3.69,0,0,0-1.34,1.35,3.65,3.65,0,0,0,0,3.69,3.82,3.82,0,0,0,1.34,1.34,3.55,3.55,0,0,0,1.84.5A3.64,3.64,0,0,0,161.9,73.46Z"/><path class="cls-1" d="M176.36,74v3.06h-9.62V63h9.44V66h-5.82v2.48h4.9v3.06h-4.9V74Z"/><path class="cls-1" d="M178.56,70.39a1.78,1.78,0,0,1-.5-1.16,1.54,1.54,0,0,1,.46-1.17,1.56,1.56,0,0,1,1.16-.49,1.64,1.64,0,0,1,1.66,1.66,1.56,1.56,0,0,1-.49,1.16,1.62,1.62,0,0,1-1.17.48A1.5,1.5,0,0,1,178.56,70.39Zm0,6.22a1.78,1.78,0,0,1-.5-1.16,1.54,1.54,0,0,1,.46-1.17,1.56,1.56,0,0,1,1.16-.49,1.64,1.64,0,0,1,1.66,1.66,1.56,1.56,0,0,1-.49,1.16,1.62,1.62,0,0,1-1.17.48A1.5,1.5,0,0,1,178.56,76.61Z"/><path class="cls-1" d="M44.12,227.21h3.12v14.14h-3.6l-3.64-6-3.66,6h-3.6V227.21h3.6v8L38.1,232l.1-.16h3.6l.08.16,1.76,3.2v-8Z"/><path class="cls-1" d="M56.48,227.21h3.6v14.14h-3.6v-5.28h-4v5.28h-3.6V227.21h3.6v5.26h4Z"/><path class="cls-1" d="M71.3,238.29v3.06H61.68V227.21h9.44v3.06H65.3v2.48h4.9v3.06H65.3v2.48Z"/><path class="cls-1" d="M84.44,241.35H80.82L78.58,236h-2.3v5.34H72.9V227.21h6.74a4.34,4.34,0,0,1,2.2.59,4.29,4.29,0,0,1,1.61,1.61,4.39,4.39,0,0,1,0,4.31A4.46,4.46,0,0,1,82,235.31Zm-4-10.77a1.34,1.34,0,0,0-.94-.47H76.2v3h3.32a1.4,1.4,0,0,0,.94-.49,1.52,1.52,0,0,0,.38-1A1.49,1.49,0,0,0,80.46,230.58Z"/><path class="cls-1" d="M95.26,238.29v3.06H85.64V227.21h9.44v3.06H89.26v2.48h4.9v3.06h-4.9v2.48Z"/><path class="cls-1" d="M110.38,227.21H114l-4.16,8.38v5.76h-3.6v-5.76l-4.16-8.38h3.6L108,232Z"/><path class="cls-1" d="M125.12,228.17a7.15,7.15,0,0,1,2.6,2.61,7.17,7.17,0,0,1,0,7.17,7.2,7.2,0,0,1-2.6,2.6,7.17,7.17,0,0,1-7.17,0,7.15,7.15,0,0,1-2.61-2.6,7.17,7.17,0,0,1,0-7.17,7.1,7.1,0,0,1,2.61-2.61,7.17,7.17,0,0,1,7.17,0Zm-1.74,9.38a3.74,3.74,0,0,0,1.34-1.34,3.55,3.55,0,0,0,.5-1.84,3.62,3.62,0,0,0-.5-1.85,3.69,3.69,0,0,0-1.34-1.35,3.55,3.55,0,0,0-1.84-.5,3.71,3.71,0,0,0-3.7,3.7,3.55,3.55,0,0,0,.5,1.84,3.69,3.69,0,0,0,1.35,1.34,3.62,3.62,0,0,0,1.85.5A3.55,3.55,0,0,0,123.38,237.55Z"/><path class="cls-1" d="M141.38,227.23V236a5.44,5.44,0,0,1-.75,2.8,5.59,5.59,0,0,1-2,2,5.5,5.5,0,0,1-2.81.75h-.32a5.44,5.44,0,0,1-2.8-.75,5.64,5.64,0,0,1-2-2,5.44,5.44,0,0,1-.75-2.8v-8.74h3.34v7.94a3.4,3.4,0,0,0,.6,2.06,1.92,1.92,0,0,0,1.64.82h.32a2,2,0,0,0,1.63-.83,3.29,3.29,0,0,0,.63-2.05v-7.94Z"/><path class="cls-1" d="M157.14,237.72a4,4,0,0,0,1.2-.79l2.44,2.44a7.18,7.18,0,0,1-2.3,1.55,7.17,7.17,0,0,1-6.34-.41,7.2,7.2,0,0,1-2.6-2.6,7.17,7.17,0,0,1,0-7.17,7.15,7.15,0,0,1,2.6-2.61,7.17,7.17,0,0,1,6.34-.41,7.18,7.18,0,0,1,2.3,1.55l-2.44,2.44a4,4,0,0,0-1.2-.79,3.64,3.64,0,0,0-1.42-.29,3.55,3.55,0,0,0-1.84.5,3.69,3.69,0,0,0-1.34,1.35,3.62,3.62,0,0,0-.5,1.85,3.55,3.55,0,0,0,.5,1.84,3.74,3.74,0,0,0,1.34,1.34,3.55,3.55,0,0,0,1.84.5A3.64,3.64,0,0,0,157.14,237.72Z"/><path class="cls-1" d="M169.34,227.35l4.62,14h-3.48l-.92-2.86h-4.38l-.9,2.86h-3.5l4.64-14Zm-3.22,8.22h2.52l-1.26-4Z"/><path class="cls-1" d="M182.14,227.21h3.6v14.14h-3.6L178,233.77v7.58h-3.62V227.21H178l4.16,7.58Z"/><path class="cls-1" d="M202.64,227.17h3.92l-4.62,14.18h-4.4l-4.6-14.18h4l2.86,8.84Z"/><path class="cls-1" d="M211.36,227.21v14.14h-3.6V227.21Z"/><path class="cls-1" d="M222.58,238.29v3.06H213V227.21h9.44v3.06h-5.82v2.48h4.9v3.06h-4.9v2.48Z"/><path class="cls-1" d="M235.56,227.21h3.12v14.14h-3.6l-3.64-6-3.66,6h-3.6V227.21h3.6v8l1.76-3.2.1-.16h3.6l.08.16,1.76,3.2v-8Z"/><path class="cls-1" d="M42.36,262.29v3.06H32.74V251.21h9.44v3.06H36.36v2.48h4.9v3.06h-4.9v2.48Z"/><path class="cls-1" d="M56.38,265.35H52.2L50,261.67l-2.22,3.68H43.56l4.32-7.14-4.24-7h4.18L50,254.75l2.14-3.54h4.2l-4.24,7Z"/><path class="cls-1" d="M64.94,251.35l4.62,14H66.08l-.92-2.86H60.78l-.9,2.86h-3.5l4.64-14Zm-3.22,8.22h2.52l-1.26-4Z"/><path class="cls-1" d="M80.86,251.21h3.6v14.14h-3.6v-8l-1.76,3.2-.08.16h-3.6l-.1-.16-.24-.46-1.5-2.74v8H70V251.21h3.62l3.64,6Z"/><path class="cls-1" d="M95,251.8a4.31,4.31,0,0,1,1.6,1.6,4.43,4.43,0,0,1,0,4.42A4.39,4.39,0,0,1,92.8,260H89.44v5.34H86.06V251.21H92.8A4.33,4.33,0,0,1,95,251.8Zm-1.38,2.78a1.38,1.38,0,0,0-.95-.47H89.36v3h3.32a1.37,1.37,0,0,0,.95-.49,1.52,1.52,0,0,0,.39-1A1.45,1.45,0,0,0,93.63,254.58Z"/><path class="cls-1" d="M102,262h5.56v3.4H98.4V251.21H102Z"/><path class="cls-1" d="M118.58,262.29v3.06H109V251.21h9.44v3.06h-5.82v2.48h4.9v3.06h-4.9v2.48Z"/><path class="cls-1" d="M126.64,255.69v-.26a1.23,1.23,0,0,0-.49-1A1.79,1.79,0,0,0,125,254a1.92,1.92,0,0,0-1.23.41,1.22,1.22,0,0,0-.51,1,.91.91,0,0,0,.52.86,4.46,4.46,0,0,0,1.36.56l.31.06.35.08a7,7,0,0,1,2.86,1.18l.18.16a4.31,4.31,0,0,1,.95,1.38,4,4,0,0,1,.35,1.6,4,4,0,0,1-.39,1.72,4.36,4.36,0,0,1-1.13,1.46,5.34,5.34,0,0,1-1.68.95,6,6,0,0,1-3.91,0,5.41,5.41,0,0,1-1.67-.95,4.67,4.67,0,0,1-1.14-1.46,4,4,0,0,1-.4-1.72v-.26h3.5v.26a1.26,1.26,0,0,0,.49,1,1.79,1.79,0,0,0,1.17.41,1.92,1.92,0,0,0,1.23-.41,1.22,1.22,0,0,0,.51-1,1.15,1.15,0,0,0-.54-.88,2.29,2.29,0,0,0-.56-.3,7.5,7.5,0,0,0-.78-.24l-.66-.16c-.73-.19-1.31-.35-1.72-.5a3.52,3.52,0,0,1-1.14-.68l-.08-.08a4.56,4.56,0,0,1-1-1.4,3.74,3.74,0,0,1-.37-1.64,4,4,0,0,1,.4-1.72,4.67,4.67,0,0,1,1.14-1.46,5.41,5.41,0,0,1,1.67-.95,6,6,0,0,1,3.91,0,5.34,5.34,0,0,1,1.68.95,4.36,4.36,0,0,1,1.13,1.46,4,4,0,0,1,.39,1.72v.26Z"/><path class="cls-1" d="M131.9,258.65a1.83,1.83,0,0,1-.5-1.16,1.62,1.62,0,0,1,1.62-1.66,1.64,1.64,0,0,1,1.66,1.66,1.56,1.56,0,0,1-.49,1.16,1.61,1.61,0,0,1-1.17.48A1.5,1.5,0,0,1,131.9,258.65Zm0,6.22a1.83,1.83,0,0,1-.5-1.16,1.62,1.62,0,0,1,1.62-1.66,1.64,1.64,0,0,1,1.66,1.66,1.56,1.56,0,0,1-.49,1.16,1.61,1.61,0,0,1-1.17.48A1.5,1.5,0,0,1,131.9,264.87Z"/><path class="cls-2" d="M34.77,94.4v9.9H32.25V94.4Z"/><path class="cls-2" d="M41.33,94.4h2.52v9.9H41.33L38.42,99v5.31H35.89V94.4h2.53l2.91,5.3Z"/><path class="cls-2" d="M50.68,101.76a2.69,2.69,0,0,0,.84-.56l1.71,1.71a4.91,4.91,0,0,1-3.54,1.47,4.87,4.87,0,0,1-2.51-.67,5.12,5.12,0,0,1-1.82-1.82,5,5,0,0,1,0-5A5.07,5.07,0,0,1,47.18,95a5,5,0,0,1,6,.8l-1.71,1.71a2.66,2.66,0,0,0-.84-.55,2.41,2.41,0,0,0-1-.21,2.5,2.5,0,0,0-1.29.35,2.76,2.76,0,0,0-.94,1,2.52,2.52,0,0,0-.35,1.29,2.5,2.5,0,0,0,.35,1.29,2.73,2.73,0,0,0,.94.94,2.5,2.5,0,0,0,1.29.35A2.57,2.57,0,0,0,50.68,101.76Z"/><path class="cls-2" d="M56.59,101.92h3.89v2.38H54.07V94.4h2.52Z"/><path class="cls-2" d="M69.51,94.41v6.12a3.81,3.81,0,0,1-.52,2,3.9,3.9,0,0,1-1.43,1.42,3.85,3.85,0,0,1-2,.53h-.22a3.82,3.82,0,0,1-2-.53A3.87,3.87,0,0,1,62,102.49a3.82,3.82,0,0,1-.53-2V94.41H63.8V100a2.36,2.36,0,0,0,.42,1.44,1.33,1.33,0,0,0,1.15.58h.22a1.38,1.38,0,0,0,1.14-.58,2.29,2.29,0,0,0,.45-1.44V94.41Z"/><path class="cls-2" d="M75,94.36a5.59,5.59,0,0,1,1.49.36,4.4,4.4,0,0,1,1.37.85,5.16,5.16,0,0,1,1.64,3.74,4.74,4.74,0,0,1-.55,2.28,4.47,4.47,0,0,1-1.53,1.75,5.29,5.29,0,0,1-2,.8,15.33,15.33,0,0,1-2.5.18H70.63v-10h2.54C73.87,94.29,74.47,94.31,75,94.36Zm2.09,5a2.43,2.43,0,0,0-.34-1.26,2.62,2.62,0,0,0-.91-1,2.39,2.39,0,0,0-1.27-.38H73.17v5.16a12.17,12.17,0,0,0,1.73-.11,3,3,0,0,0,1.3-.56A2.18,2.18,0,0,0,77,99.9,2.55,2.55,0,0,0,77.06,99.31Z"/><path class="cls-2" d="M87,102.15v2.15H80.31V94.4h6.61v2.14H82.84v1.74h3.43v2.14H82.84v1.73Z"/><path class="cls-2" d="M92.68,97.53v-.18a.86.86,0,0,0-.34-.69,1.27,1.27,0,0,0-.83-.29,1.31,1.31,0,0,0-.86.29.85.85,0,0,0-.36.69.64.64,0,0,0,.36.6,3.22,3.22,0,0,0,1,.4l.21,0,.25,0a4.92,4.92,0,0,1,2,.83l.13.11a3,3,0,0,1,.66,1,2.84,2.84,0,0,1,.25,1.12,2.78,2.78,0,0,1-.28,1.2,2.87,2.87,0,0,1-.79,1,3.68,3.68,0,0,1-1.17.67,4.25,4.25,0,0,1-1.38.23,4.13,4.13,0,0,1-1.36-.23,3.57,3.57,0,0,1-1.17-.67,3,3,0,0,1-.8-1,2.64,2.64,0,0,1-.28-1.2v-.18h2.45v.18a.89.89,0,0,0,.34.69,1.26,1.26,0,0,0,.82.29,1.31,1.31,0,0,0,.86-.29.85.85,0,0,0,.36-.69.82.82,0,0,0-.38-.62,1.79,1.79,0,0,0-.39-.21l-.54-.17-.47-.11a12.08,12.08,0,0,1-1.2-.35,2.41,2.41,0,0,1-.8-.47l-.05-.06a3.13,3.13,0,0,1-.74-1,2.69,2.69,0,0,1-.26-1.15,2.64,2.64,0,0,1,.28-1.2,3.23,3.23,0,0,1,.8-1,3.76,3.76,0,0,1,1.17-.67,4.13,4.13,0,0,1,1.36-.23,4.25,4.25,0,0,1,1.38.23,3.88,3.88,0,0,1,1.17.67,3.06,3.06,0,0,1,.79,1,2.78,2.78,0,0,1,.28,1.2v.18Z"/><path class="cls-2" d="M104.49,94.36a5.68,5.68,0,0,1,1.49.36,4.36,4.36,0,0,1,1.36.85A5.16,5.16,0,0,1,109,99.31a4.74,4.74,0,0,1-.55,2.28,4.47,4.47,0,0,1-1.53,1.75,5.29,5.29,0,0,1-2,.8,15.33,15.33,0,0,1-2.5.18h-2.23v-10h2.53C103.38,94.29,104,94.31,104.49,94.36Zm2.08,5a2.52,2.52,0,0,0-.33-1.26,2.65,2.65,0,0,0-.92-1,2.39,2.39,0,0,0-1.27-.38h-1.37v5.16a12.17,12.17,0,0,0,1.73-.11,3,3,0,0,0,1.3-.56,2.18,2.18,0,0,0,.79-1.3A2.55,2.55,0,0,0,106.57,99.31Z"/><path class="cls-2" d="M116.55,102.15v2.15h-6.73V94.4h6.61v2.14h-4.08v1.74h3.43v2.14h-3.43v1.73Z"/><path class="cls-2" d="M124.18,94.37h2.75l-3.24,9.93h-3.08l-3.22-9.93h2.78l2,6.19Z"/><path class="cls-2" d="M134.5,102.15v2.15h-6.73V94.4h6.61v2.14H130.3v1.74h3.43v2.14H130.3v1.73Z"/><path class="cls-2" d="M138.14,101.92H142v2.38h-6.41V94.4h2.52Z"/><path class="cls-2" d="M150.25,95.07a5,5,0,0,1,1.82,1.83,5,5,0,0,1,0,5,5,5,0,0,1-1.82,1.82,4.93,4.93,0,0,1-2.5.67,5,5,0,0,1-4.34-2.49,5,5,0,0,1,6.84-6.85ZM149,101.64a2.73,2.73,0,0,0,.94-.94,2.55,2.55,0,0,0,0-2.58,2.6,2.6,0,0,0-.94-1,2.49,2.49,0,0,0-1.28-.35,2.56,2.56,0,0,0-1.3.35,2.62,2.62,0,0,0-.95,1,2.62,2.62,0,0,0,0,2.58,2.76,2.76,0,0,0,.95.94,2.56,2.56,0,0,0,1.3.35A2.49,2.49,0,0,0,149,101.64Z"/><path class="cls-2" d="M159.85,94.81A3.16,3.16,0,0,1,161,95.93a3.13,3.13,0,0,1,0,3.1,3.16,3.16,0,0,1-1.12,1.12,3.07,3.07,0,0,1-1.55.41H156v3.74h-2.37V94.4h4.72A3.07,3.07,0,0,1,159.85,94.81Zm-1,2a1,1,0,0,0-.66-.33h-2.33v2.1h2.33a.93.93,0,0,0,.66-.34,1.08,1.08,0,0,0,.27-.73A1,1,0,0,0,158.88,96.76Z"/><path class="cls-2" d="M169.85,94.4h2.52v9.9h-2.52V98.71L168.62,101l-.06.11H166L166,101l-.17-.32-1.05-1.92v5.59h-2.53V94.4h2.53l2.55,4.21Z"/><path class="cls-2" d="M180.22,102.15v2.15h-6.73V94.4h6.61v2.14H176v1.74h3.43v2.14H176v1.73Z"/><path class="cls-2" d="M186.79,94.4h2.52v9.9h-2.52L183.88,99v5.31h-2.54V94.4h2.54l2.91,5.3Z"/><path class="cls-2" d="M197.89,94.4v2.52h-2.53v7.38h-2.54V96.92h-2.53V94.4h7.6Z"/><path class="cls-2" d="M210.31,95.07a5,5,0,0,1,1.82,1.83,5,5,0,0,1,0,5,5,5,0,0,1-1.82,1.82,5,5,0,0,1-5,0,5.07,5.07,0,0,1-1.83-1.82,5,5,0,0,1,0-5,5,5,0,0,1,1.83-1.83,5,5,0,0,1,5,0Zm-1.22,6.57a2.73,2.73,0,0,0,.94-.94,2.55,2.55,0,0,0,0-2.58,2.6,2.6,0,0,0-.94-1,2.5,2.5,0,0,0-1.29-.35,2.55,2.55,0,0,0-1.29.35,2.62,2.62,0,0,0-.95,1,2.55,2.55,0,0,0,0,2.58,2.76,2.76,0,0,0,.95.94,2.55,2.55,0,0,0,1.29.35A2.5,2.5,0,0,0,209.09,101.64Z"/><path class="cls-2" d="M220.53,96.54h-4.37v1.74h3.5v2.14h-3.5v3.88h-2.52V94.4h6.89Z"/><path class="cls-2" d="M233.62,94.41v6.12a3.82,3.82,0,0,1-.53,2,3.92,3.92,0,0,1-3.39,2h-.22a3.79,3.79,0,0,1-2-.53,3.9,3.9,0,0,1-1.43-1.42,3.81,3.81,0,0,1-.52-2V94.41h2.34V100a2.36,2.36,0,0,0,.42,1.44,1.33,1.33,0,0,0,1.15.58h.22a1.38,1.38,0,0,0,1.14-.58,2.35,2.35,0,0,0,.44-1.44V94.41Z"/><path class="cls-2" d="M240.19,94.4h2.52v9.9h-2.52L237.27,99v5.31h-2.53V94.4h2.53l2.92,5.3Z"/><path class="cls-2" d="M246.35,94.4v9.9h-2.52V94.4Z"/><path class="cls-2" d="M254.93,94.4v2.52h-2.54v7.38h-2.53V96.92h-2.53V94.4h7.6Z"/><path class="cls-2" d="M264.45,94.36a5.68,5.68,0,0,1,1.49.36,4.36,4.36,0,0,1,1.36.85,4.81,4.81,0,0,1,1.21,1.71,4.94,4.94,0,0,1,.43,2,4.85,4.85,0,0,1-.54,2.28,4.57,4.57,0,0,1-1.54,1.75,5.31,5.31,0,0,1-2,.8,15.51,15.51,0,0,1-2.5.18h-2.24v-10h2.53C263.34,94.29,263.94,94.31,264.45,94.36Zm2.08,5a2.52,2.52,0,0,0-.33-1.26,2.65,2.65,0,0,0-.92-1,2.39,2.39,0,0,0-1.27-.38h-1.37v5.16a12.17,12.17,0,0,0,1.73-.11,2.92,2.92,0,0,0,1.3-.56,2.18,2.18,0,0,0,.79-1.3A2.55,2.55,0,0,0,266.53,99.31Z"/><path class="cls-2" d="M276.51,102.15v2.15h-6.73V94.4h6.61v2.14h-4.07v1.74h3.43v2.14h-3.43v1.73Z"/><path class="cls-2" d="M280.16,101.92h3.89v2.38h-6.42V94.4h2.53Z"/><path class="cls-2" d="M293.08,94.41v6.12a3.93,3.93,0,0,1-3.92,3.91h-.23a3.82,3.82,0,0,1-2-.53,3.94,3.94,0,0,1-1.42-1.42,3.81,3.81,0,0,1-.52-2V94.41h2.34V100a2.3,2.3,0,0,0,.42,1.44,1.33,1.33,0,0,0,1.14.58h.23a1.4,1.4,0,0,0,1.14-.58,2.35,2.35,0,0,0,.44-1.44V94.41Z"/><path class="cls-2" d="M302.89,104.3H300l-1.56-2.58-1.56,2.58h-2.92l3-5-3-4.9h2.93l1.5,2.48,1.49-2.48h2.94l-3,4.9Z"/><path class="cls-2" d="M310.46,102.15v2.15h-6.73V94.4h6.61v2.14h-4.07v1.74h3.43v2.14h-3.43v1.73Z"/><path class="cls-2" d="M323.75,94.4h2.18v9.9h-2.51l-2.55-4.22-2.57,4.22h-2.51V94.4h2.51V100l1.24-2.24.07-.11h2.52l.05.11,1.24,2.24V94.4Z"/><path class="cls-2" d="M332.4,94.4h2.52v9.9H332.4v-3.7h-2.82v3.7h-2.53V94.4h2.53v3.68h2.82Z"/><path class="cls-2" d="M338.56,94.4v9.9H336V94.4Z"/><path class="cls-2" d="M344.21,97.53v-.18a.87.87,0,0,0-.35-.69,1.25,1.25,0,0,0-.83-.29,1.33,1.33,0,0,0-.86.29.85.85,0,0,0-.36.69.64.64,0,0,0,.36.6,3.34,3.34,0,0,0,1,.4l.21,0,.25,0a4.92,4.92,0,0,1,2,.83l.13.11a3,3,0,0,1,.66,1,2.84,2.84,0,0,1,.25,1.12,2.64,2.64,0,0,1-.28,1.2,2.87,2.87,0,0,1-.79,1,3.57,3.57,0,0,1-1.17.67,4.25,4.25,0,0,1-1.38.23,4.13,4.13,0,0,1-1.36-.23,3.79,3.79,0,0,1-1.17-.67,3.15,3.15,0,0,1-.8-1,2.78,2.78,0,0,1-.28-1.2v-.18h2.45v.18a.87.87,0,0,0,.35.69,1.22,1.22,0,0,0,.81.29,1.36,1.36,0,0,0,.87-.29.87.87,0,0,0,.35-.69.79.79,0,0,0-.38-.62,1.79,1.79,0,0,0-.39-.21l-.54-.17-.46-.11a11.63,11.63,0,0,1-1.21-.35,2.51,2.51,0,0,1-.8-.47l-.05-.06a3.13,3.13,0,0,1-.74-1,2.69,2.69,0,0,1-.26-1.15,2.78,2.78,0,0,1,.28-1.2,3.38,3.38,0,0,1,.8-1,4,4,0,0,1,1.17-.67,4.13,4.13,0,0,1,1.36-.23,4.25,4.25,0,0,1,1.38.23,3.76,3.76,0,0,1,1.17.67,3.06,3.06,0,0,1,.79,1,2.64,2.64,0,0,1,.28,1.2v.18Z"/><path class="cls-2" d="M39.71,111.2v2.52H37.17v7.38H34.64v-7.38H32.11V111.2h7.6Z"/><path class="cls-2" d="M47.92,111.87a5,5,0,0,1,2.5,4.34,5,5,0,0,1-.67,2.51,5.07,5.07,0,0,1-1.83,1.82,5,5,0,0,1-5,0,5.07,5.07,0,0,1-1.83-1.82,5,5,0,0,1,0-5,5,5,0,0,1,1.83-1.83,5,5,0,0,1,5,0Zm-1.21,6.57a2.82,2.82,0,0,0,.94-.94,2.55,2.55,0,0,0,0-2.58,2.67,2.67,0,0,0-.94-1,2.5,2.5,0,0,0-1.29-.35,2.56,2.56,0,0,0-1.3.35,2.6,2.6,0,0,0-.94,1,2.55,2.55,0,0,0,0,2.58,2.73,2.73,0,0,0,.94.94,2.56,2.56,0,0,0,1.3.35A2.5,2.5,0,0,0,46.71,118.44Z"/><path class="cls-2" d="M57.52,111.61a3.08,3.08,0,0,1,1.12,1.12,3.13,3.13,0,0,1,0,3.1A3.08,3.08,0,0,1,57.52,117a3,3,0,0,1-1.55.41H53.62v3.74H51.26v-9.9H56A3,3,0,0,1,57.52,111.61Zm-1,2a1,1,0,0,0-.67-.33H53.57v2.1h2.32a1,1,0,0,0,.67-.34,1.08,1.08,0,0,0,.27-.73A1,1,0,0,0,56.56,113.56Z"/><path class="cls-2" d="M62.42,111.2v9.9H59.89v-9.9Z"/><path class="cls-2" d="M69.25,118.56a2.94,2.94,0,0,0,.84-.56l1.7,1.71a4.93,4.93,0,0,1-1.61,1.09,5,5,0,0,1-1.93.38,4.83,4.83,0,0,1-2.5-.67,5,5,0,0,1-1.82-1.82,5,5,0,0,1,0-5,5,5,0,0,1,1.82-1.83,5,5,0,0,1,4.43-.28,4.76,4.76,0,0,1,1.61,1.08l-1.7,1.71a2.91,2.91,0,0,0-.84-.55,2.46,2.46,0,0,0-1-.21,2.55,2.55,0,0,0-1.29.35,2.65,2.65,0,0,0-.93,1,2.43,2.43,0,0,0-.35,1.29,2.41,2.41,0,0,0,.35,1.29,2.7,2.7,0,0,0,.93.94,2.55,2.55,0,0,0,1.29.35A2.62,2.62,0,0,0,69.25,118.56Z"/><path class="cls-2" d="M77.16,114.33v-.18a.87.87,0,0,0-.35-.69,1.25,1.25,0,0,0-.83-.29,1.33,1.33,0,0,0-.86.29.85.85,0,0,0-.36.69.63.63,0,0,0,.37.6,3.15,3.15,0,0,0,1,.4l.22,0,.24,0a4.86,4.86,0,0,1,2,.83l.13.11a2.88,2.88,0,0,1,.66,1,2.68,2.68,0,0,1,.25,1.12,2.77,2.77,0,0,1-.27,1.2,3.12,3.12,0,0,1-.8,1,3.57,3.57,0,0,1-1.17.67,4.24,4.24,0,0,1-1.37.23,4.19,4.19,0,0,1-1.37-.23,3.79,3.79,0,0,1-1.17-.67,3.26,3.26,0,0,1-.8-1,2.78,2.78,0,0,1-.28-1.2v-.18H74.8v.18a.87.87,0,0,0,.35.69,1.24,1.24,0,0,0,.82.29,1.35,1.35,0,0,0,.86-.29.84.84,0,0,0,.35-.69.81.81,0,0,0-.37-.62,2.06,2.06,0,0,0-.39-.21l-.55-.17-.46-.11a11.63,11.63,0,0,1-1.21-.35,2.37,2.37,0,0,1-.79-.47l-.06-.06a3.29,3.29,0,0,1-.74-1,2.69,2.69,0,0,1-.26-1.15,2.78,2.78,0,0,1,.28-1.2,3.38,3.38,0,0,1,.8-1,4,4,0,0,1,1.17-.67A4.19,4.19,0,0,1,76,111a4.24,4.24,0,0,1,1.37.23,3.76,3.76,0,0,1,1.17.67,3.23,3.23,0,0,1,.8,1,2.77,2.77,0,0,1,.27,1.2v.18Z"/><path class="cls-2" d="M90.88,111.61a3.08,3.08,0,0,1-1.54,5.75H87v3.74H84.62v-9.9h4.72A3,3,0,0,1,90.88,111.61Zm-1,2a1,1,0,0,0-.67-.33H86.93v2.1h2.32a1,1,0,0,0,.67-.34,1.08,1.08,0,0,0,.27-.73A1,1,0,0,0,89.92,113.56Z"/><path class="cls-2" d="M100,119v2.15H93.26v-9.9h6.6v2.14H95.79v1.74h3.43v2.14H95.79V119Z"/><path class="cls-2" d="M109.19,121.1h-2.54l-1.56-3.74h-1.61v3.74h-2.37v-9.9h4.72a3.09,3.09,0,0,1,1.54.41,3.14,3.14,0,0,1,1.13,1.13,3.08,3.08,0,0,1,0,3,3.19,3.19,0,0,1-1,1.11Zm-2.79-7.54a.92.92,0,0,0-.66-.33h-2.32v2.1h2.32a1,1,0,0,0,.66-.34,1.08,1.08,0,0,0,.27-.73A1,1,0,0,0,106.4,113.56Z"/><path class="cls-2" d="M114.55,114.33v-.18a.86.86,0,0,0-.34-.69,1.28,1.28,0,0,0-.84-.29,1.35,1.35,0,0,0-.86.29.87.87,0,0,0-.35.69.64.64,0,0,0,.36.6,3.15,3.15,0,0,0,1,.4l.22,0,.24,0a5,5,0,0,1,2,.83l.12.11a3.06,3.06,0,0,1,.67,1,2.82,2.82,0,0,1,.24,1.12,2.77,2.77,0,0,1-.27,1.2,3.09,3.09,0,0,1-.79,1,3.72,3.72,0,0,1-1.18.67,4.19,4.19,0,0,1-1.37.23,4.09,4.09,0,0,1-1.36-.23,3.57,3.57,0,0,1-1.17-.67,3,3,0,0,1-.8-1,2.64,2.64,0,0,1-.28-1.2v-.18h2.45v.18a.86.86,0,0,0,.34.69,1.24,1.24,0,0,0,.82.29,1.33,1.33,0,0,0,.86-.29.85.85,0,0,0,.36-.69.82.82,0,0,0-.38-.62,1.79,1.79,0,0,0-.39-.21l-.55-.17-.46-.11a12.08,12.08,0,0,1-1.2-.35,2.41,2.41,0,0,1-.8-.47l-.06-.06a3.1,3.1,0,0,1-.73-1,2.55,2.55,0,0,1-.26-1.15A2.64,2.64,0,0,1,110,113a3.09,3.09,0,0,1,.8-1,3.76,3.76,0,0,1,1.17-.67,4.09,4.09,0,0,1,1.36-.23,4.19,4.19,0,0,1,1.37.23,3.93,3.93,0,0,1,1.18.67,3.19,3.19,0,0,1,.79,1,2.77,2.77,0,0,1,.27,1.2v.18Z"/><path class="cls-2" d="M125.05,111.87a5,5,0,0,1,1.82,1.83,5,5,0,0,1,0,5,5,5,0,0,1-1.82,1.82,4.94,4.94,0,0,1-2.51.67,5,5,0,0,1-4.33-2.49,5,5,0,0,1,6.84-6.85Zm-1.22,6.57a2.73,2.73,0,0,0,.94-.94,2.55,2.55,0,0,0,0-2.58,2.6,2.6,0,0,0-.94-1,2.5,2.5,0,0,0-1.29-.35,2.55,2.55,0,0,0-1.29.35,2.62,2.62,0,0,0-1,1,2.62,2.62,0,0,0,0,2.58,2.76,2.76,0,0,0,1,.94,2.55,2.55,0,0,0,1.29.35A2.5,2.5,0,0,0,123.83,118.44Z"/><path class="cls-2" d="M133.83,111.2h2.52v9.9h-2.52l-2.91-5.31v5.31h-2.54v-9.9h2.54l2.91,5.3Z"/><path class="cls-2" d="M142.62,111.3l3.23,9.8h-2.43l-.65-2h-3.06l-.63,2h-2.45l3.25-9.8Zm-2.25,5.75h1.76l-.88-2.77Z"/><path class="cls-2" d="M148.65,118.72h3.9v2.38h-6.42v-9.9h2.52Z"/><path class="cls-2" d="M156.05,118.72h3.89v2.38h-6.41v-9.9h2.52Z"/><path class="cls-2" d="M166.18,111.2h2.52l-2.91,5.86v4h-2.52v-4l-2.91-5.86h2.52l1.65,3.37Z"/><path class="cls-2" d="M180.35,113.34H176v1.74h3.5v2.14H176v3.88h-2.52v-9.9h6.89Z"/><path class="cls-2" d="M188.43,111.87a5.07,5.07,0,0,1,1.82,1.83,5,5,0,0,1,0,5,5.12,5.12,0,0,1-1.82,1.82,5,5,0,0,1-5,0,5.07,5.07,0,0,1-1.83-1.82,5,5,0,0,1,0-5,5,5,0,0,1,1.83-1.83,5,5,0,0,1,5,0Zm-1.22,6.57a2.73,2.73,0,0,0,.94-.94,2.55,2.55,0,0,0,0-2.58,2.6,2.6,0,0,0-.94-1,2.5,2.5,0,0,0-1.29-.35,2.52,2.52,0,0,0-1.29.35,2.62,2.62,0,0,0-.95,1,2.55,2.55,0,0,0,0,2.58,2.76,2.76,0,0,0,.95.94,2.52,2.52,0,0,0,1.29.35A2.5,2.5,0,0,0,187.21,118.44Z"/><path class="cls-2" d="M199.84,121.1H197.3l-1.56-3.74h-1.61v3.74h-2.37v-9.9h4.72a3.09,3.09,0,0,1,1.54.41,3,3,0,0,1,1.12,1.13,3,3,0,0,1,.42,1.54,3,3,0,0,1-.38,1.48,3.19,3.19,0,0,1-1,1.11Zm-2.79-7.54a.92.92,0,0,0-.66-.33h-2.32v2.1h2.32a1,1,0,0,0,.66-.34,1.08,1.08,0,0,0,.27-.73A1,1,0,0,0,197.05,113.56Z"/><path class="cls-2" d="M211.61,119v2.15h-6.73v-9.9h6.61v2.14h-4.08v1.74h3.43v2.14h-3.43V119Z"/><path class="cls-2" d="M217.88,111.3l3.24,9.8h-2.44l-.64-2H215l-.63,2h-2.45l3.25-9.8Zm-2.25,5.75h1.76l-.88-2.77Z"/><path class="cls-2" d="M227.11,118.56A2.69,2.69,0,0,0,228,118l1.71,1.71a5.15,5.15,0,0,1-1.61,1.09,5,5,0,0,1-1.93.38,4.87,4.87,0,0,1-2.51-.67,5,5,0,0,1-1.82-1.82,5,5,0,0,1,0-5,5,5,0,0,1,1.82-1.83,5,5,0,0,1,4.44-.28,5,5,0,0,1,1.61,1.08L228,114.35a2.66,2.66,0,0,0-.84-.55,2.45,2.45,0,0,0-1-.21,2.5,2.5,0,0,0-1.29.35,2.67,2.67,0,0,0-.94,1,2.52,2.52,0,0,0-.35,1.29,2.5,2.5,0,0,0,.35,1.29,2.73,2.73,0,0,0,.94.94,2.5,2.5,0,0,0,1.29.35A2.61,2.61,0,0,0,227.11,118.56Z"/><path class="cls-2" d="M235.85,111.2h2.52v9.9h-2.52v-3.7H233v3.7H230.5v-9.9H233v3.68h2.83Z"/><path class="cls-2" d="M250,111.61a3.16,3.16,0,0,1,1.12,1.12,3.13,3.13,0,0,1,0,3.1A3.16,3.16,0,0,1,250,117a3.07,3.07,0,0,1-1.55.41h-2.35v3.74h-2.36v-9.9h4.71A3.07,3.07,0,0,1,250,111.61Zm-1,2a1,1,0,0,0-.66-.33H246v2.1h2.32A.93.93,0,0,0,249,115a1,1,0,0,0,.28-.73A1,1,0,0,0,249,113.56Z"/><path class="cls-2" d="M260.4,121.1h-2.53l-1.57-3.74h-1.61v3.74h-2.37v-9.9H257a3.07,3.07,0,0,1,3.08,3.08,2.94,2.94,0,0,1-.38,1.48,3.19,3.19,0,0,1-1,1.11Zm-2.78-7.54a1,1,0,0,0-.66-.33h-2.33v2.1H257a1,1,0,0,0,.66-.34,1.12,1.12,0,0,0,.26-.73A1,1,0,0,0,257.62,113.56Z"/><path class="cls-2" d="M268.48,111.87a5.07,5.07,0,0,1,1.82,1.83,5,5,0,0,1,0,5,5.12,5.12,0,0,1-1.82,1.82,5,5,0,0,1-5,0,5.07,5.07,0,0,1-1.83-1.82,5,5,0,0,1,0-5,5,5,0,0,1,1.83-1.83,5,5,0,0,1,5,0Zm-1.22,6.57a2.73,2.73,0,0,0,.94-.94,2.55,2.55,0,0,0,0-2.58,2.6,2.6,0,0,0-.94-1,2.5,2.5,0,0,0-1.29-.35,2.52,2.52,0,0,0-1.29.35,2.62,2.62,0,0,0-.95,1,2.55,2.55,0,0,0,0,2.58,2.76,2.76,0,0,0,.95.94,2.52,2.52,0,0,0,1.29.35A2.5,2.5,0,0,0,267.26,118.44Z"/><path class="cls-2" d="M277,111.17h2.34v6.12a3.81,3.81,0,0,1-.52,2,3.94,3.94,0,0,1-1.42,1.42,4,4,0,0,1-3.92,0,3.87,3.87,0,0,1-1.42-1.42,3.82,3.82,0,0,1-.53-2v-.41h2.34a2.22,2.22,0,0,0,.45,1.34,1.42,1.42,0,0,0,2.24-.06,2.24,2.24,0,0,0,.44-1.43Z"/><path class="cls-2" d="M287.2,119v2.15h-6.74v-9.9h6.61v2.14H283v1.74h3.43v2.14H283V119Z"/><path class="cls-2" d="M294,118.56a2.69,2.69,0,0,0,.84-.56l1.71,1.71A5.15,5.15,0,0,1,295,120.8a5,5,0,0,1-1.94.38,4.83,4.83,0,0,1-2.5-.67,5,5,0,0,1-1.82-1.82,5,5,0,0,1,0-5,5,5,0,0,1,1.82-1.83,5,5,0,0,1,4.44-.28,5,5,0,0,1,1.61,1.08l-1.71,1.71a2.66,2.66,0,0,0-.84-.55,2.46,2.46,0,0,0-1-.21,2.49,2.49,0,0,0-1.28.35,2.59,2.59,0,0,0-.94,1,2.52,2.52,0,0,0-.35,1.29,2.5,2.5,0,0,0,.35,1.29,2.65,2.65,0,0,0,.94.94,2.49,2.49,0,0,0,1.28.35A2.62,2.62,0,0,0,294,118.56Z"/><path class="cls-2" d="M304.88,111.2v2.52h-2.54v7.38h-2.53v-7.38h-2.53V111.2h7.6Z"/><path class="cls-2" d="M306,120.69a1.33,1.33,0,0,1-.38-1,1.27,1.27,0,0,1,.38-.91,1.33,1.33,0,0,1,2.25,1,1.35,1.35,0,0,1-1.33,1.33A1.22,1.22,0,0,1,306,120.69Z"/><path class="cls-2" d="M39,135.75v2.15H32.25V128h6.6v2.14H34.78v1.74h3.43V134H34.78v1.73Z"/><path class="cls-2" d="M45.25,128.1l3.24,9.8H46.05l-.64-2H42.34l-.63,2H39.26l3.25-9.8ZM43,133.85h1.76l-.88-2.77Z"/><path class="cls-2" d="M54.48,135.35a2.71,2.71,0,0,0,.84-.55L57,136.51a5.15,5.15,0,0,1-1.61,1.09,5.08,5.08,0,0,1-1.94.38,4.83,4.83,0,0,1-2.5-.67,5,5,0,0,1-1.82-1.82,5,5,0,0,1,0-5A5,5,0,0,1,51,128.64a4.83,4.83,0,0,1,2.5-.67,5.08,5.08,0,0,1,1.94.38A5.15,5.15,0,0,1,57,129.44l-1.71,1.71a2.91,2.91,0,0,0-.84-.55,2.46,2.46,0,0,0-1-.21,2.49,2.49,0,0,0-1.28.35,2.59,2.59,0,0,0-.94.95,2.43,2.43,0,0,0-.35,1.29,2.41,2.41,0,0,0,.35,1.29,2.65,2.65,0,0,0,.94.94,2.49,2.49,0,0,0,1.28.35A2.46,2.46,0,0,0,54.48,135.35Z"/><path class="cls-2" d="M63.21,128h2.52v9.9H63.21v-3.7H60.39v3.7H57.87V128h2.52v3.68h2.82Z"/><path class="cls-2" d="M75.39,128a5.59,5.59,0,0,1,1.49.36,4.4,4.4,0,0,1,1.37.85,5.16,5.16,0,0,1,1.64,3.74,4.74,4.74,0,0,1-.55,2.28,4.47,4.47,0,0,1-1.53,1.75,5.17,5.17,0,0,1-2,.79,14.22,14.22,0,0,1-2.5.19H71.05v-10h2.54C74.29,127.89,74.89,127.91,75.39,128Zm2.09,5a2.43,2.43,0,0,0-.34-1.26,2.62,2.62,0,0,0-.91-1,2.39,2.39,0,0,0-1.27-.38H73.59v5.16a10.82,10.82,0,0,0,1.73-.12,2.84,2.84,0,0,0,1.3-.55,2.23,2.23,0,0,0,.79-1.3A2.55,2.55,0,0,0,77.48,132.91Z"/><path class="cls-2" d="M83.25,128v9.9H80.73V128Z"/><path class="cls-2" d="M89.52,128.1l3.23,9.8H90.32l-.65-2H86.61l-.63,2H83.53l3.24-9.8Zm-2.26,5.75H89l-.88-2.77Z"/><path class="cls-2" d="M95.55,135.52h3.9v2.38H93V128h2.52Z"/><path class="cls-2" d="M107.66,128.67a5,5,0,0,1-2.5,9.34,5,5,0,0,1-4.34-2.49,5,5,0,0,1,6.84-6.85Zm-1.21,6.57a2.7,2.7,0,0,0,.93-.94,2.41,2.41,0,0,0,.35-1.29,2.46,2.46,0,0,0-.35-1.3,2.62,2.62,0,0,0-.93-.94,2.58,2.58,0,0,0-3.53.94,2.46,2.46,0,0,0-.35,1.3,2.41,2.41,0,0,0,.35,1.29,2.65,2.65,0,0,0,.94.94,2.57,2.57,0,0,0,2.59,0Z"/><path class="cls-2" d="M120.72,133a4.83,4.83,0,0,1-.67,2.5,5,5,0,0,1-1.82,1.82,4.9,4.9,0,0,1-2.52.67,4.83,4.83,0,0,1-2.5-.67,4.89,4.89,0,0,1-1.82-1.82,4.84,4.84,0,0,1-.68-2.5,4.91,4.91,0,0,1,.68-2.52,5,5,0,0,1,6.28-2.1,4.89,4.89,0,0,1,1.6,1.09L117,130.76a2.42,2.42,0,0,0-1.3-.35,2.45,2.45,0,0,0-1.29.35,2.54,2.54,0,0,0-.93.94,2.46,2.46,0,0,0-.35,1.3,2.4,2.4,0,0,0,.35,1.28,2.54,2.54,0,0,0,.93.94,2.45,2.45,0,0,0,1.29.35,2.56,2.56,0,0,0,1.36-.38,2.62,2.62,0,0,0,1-1h-3.1v-2.33h5.66A5,5,0,0,1,120.72,133Z"/><path class="cls-2" d="M129.61,128v6.12a3.81,3.81,0,0,1-.52,2,3.9,3.9,0,0,1-1.43,1.42,3.85,3.85,0,0,1-2,.53h-.22a3.82,3.82,0,0,1-2-.53,3.87,3.87,0,0,1-1.42-1.42,3.82,3.82,0,0,1-.53-2V128h2.34v5.56a2.36,2.36,0,0,0,.42,1.44,1.34,1.34,0,0,0,1.15.58h.22a1.39,1.39,0,0,0,1.15-.59,2.3,2.3,0,0,0,.44-1.43V128Z"/><path class="cls-2" d="M137.47,135.75v2.15h-6.74V128h6.61v2.14h-4.07v1.74h3.43V134h-3.43v1.73Z"/><path class="cls-2" d="M148.5,135.35a2.5,2.5,0,0,0,.84-.55l1.71,1.71a5.15,5.15,0,0,1-1.61,1.09,5,5,0,0,1-1.93.38,4.87,4.87,0,0,1-2.51-.67,5.12,5.12,0,0,1-1.82-1.82,5,5,0,0,1,0-5,5.07,5.07,0,0,1,1.82-1.83,4.87,4.87,0,0,1,2.51-.67,5,5,0,0,1,1.93.38,5.15,5.15,0,0,1,1.61,1.09l-1.71,1.71a2.66,2.66,0,0,0-.84-.55,2.45,2.45,0,0,0-1-.21,2.5,2.5,0,0,0-1.29.35,2.67,2.67,0,0,0-.94.95,2.52,2.52,0,0,0-.35,1.29,2.5,2.5,0,0,0,.35,1.29,2.73,2.73,0,0,0,.94.94,2.5,2.5,0,0,0,1.29.35A2.45,2.45,0,0,0,148.5,135.35Z"/><path class="cls-2" d="M159.13,128.67A5.07,5.07,0,0,1,161,130.5a5,5,0,0,1,0,5,5.12,5.12,0,0,1-1.82,1.82,5,5,0,0,1-5,0,5.07,5.07,0,0,1-1.83-1.82,5,5,0,0,1,0-5,5,5,0,0,1,1.83-1.83,5,5,0,0,1,5,0Zm-1.22,6.57a2.82,2.82,0,0,0,.94-.94,2.5,2.5,0,0,0,.35-1.29,2.56,2.56,0,0,0-.35-1.3,2.73,2.73,0,0,0-.94-.94,2.55,2.55,0,0,0-2.58,0,2.6,2.6,0,0,0-1,.94A2.56,2.56,0,0,0,154,133a2.5,2.5,0,0,0,.35,1.29,2.67,2.67,0,0,0,1,.94,2.55,2.55,0,0,0,2.58,0Z"/><path class="cls-2" d="M167.9,128h2.52v9.9H167.9L165,132.59v5.31h-2.53V128H165l2.91,5.3Z"/><path class="cls-2" d="M179,128v2.52h-2.54v7.38h-2.53v-7.38H171.4V128H179Z"/><path class="cls-2" d="M185.14,128.1l3.23,9.8h-2.43l-.65-2h-3.06l-.63,2h-2.45l3.24-9.8Zm-2.26,5.75h1.77l-.88-2.77Z"/><path class="cls-2" d="M191.17,128v9.9h-2.52V128Z"/><path class="cls-2" d="M197.74,128h2.52v9.9h-2.52l-2.91-5.31v5.31h-2.54V128h2.54l2.91,5.3Z"/><path class="cls-2" d="M205.9,131.13V131a.86.86,0,0,0-.34-.69,1.28,1.28,0,0,0-.84-.29,1.35,1.35,0,0,0-.86.29.87.87,0,0,0-.35.69.64.64,0,0,0,.36.6,3.15,3.15,0,0,0,.95.4l.22,0,.24,0a5,5,0,0,1,2,.83l.12.11a3.06,3.06,0,0,1,.67,1,2.77,2.77,0,0,1,0,2.32,3.09,3.09,0,0,1-.79,1,3.72,3.72,0,0,1-1.18.67,4.2,4.2,0,0,1-2.74,0,3.63,3.63,0,0,1-1.16-.67,3,3,0,0,1-.8-1,2.64,2.64,0,0,1-.28-1.2v-.18h2.45v.18a.86.86,0,0,0,.34.69,1.24,1.24,0,0,0,.82.29,1.33,1.33,0,0,0,.86-.29.85.85,0,0,0,.36-.69.82.82,0,0,0-.38-.62,1.79,1.79,0,0,0-.39-.21l-.55-.17-.46-.11c-.51-.13-.91-.25-1.2-.35a2.41,2.41,0,0,1-.8-.47l-.06-.06a3.1,3.1,0,0,1-.73-1,2.55,2.55,0,0,1-.26-1.15,2.64,2.64,0,0,1,.28-1.2,3,3,0,0,1,.8-1,3.63,3.63,0,0,1,1.16-.67,4.2,4.2,0,0,1,2.74,0,3.72,3.72,0,0,1,1.18.67,3.09,3.09,0,0,1,.79,1,2.77,2.77,0,0,1,.27,1.2v.18Z"/><path class="cls-2" d="M220.25,130.14h-4.37v1.74h3.5V134h-3.5v3.88h-2.52V128h6.89Z"/><path class="cls-2" d="M229.17,137.9h-2.54l-1.56-3.74h-1.61v3.74h-2.37V128h4.72a3.09,3.09,0,0,1,1.54.41,3,3,0,0,1,1.12,1.13,3,3,0,0,1,.42,1.54,3,3,0,0,1-.38,1.48,3.19,3.19,0,0,1-1,1.11Zm-2.79-7.54a.92.92,0,0,0-.66-.33H223.4v2.1h2.32a1,1,0,0,0,.66-.34,1.08,1.08,0,0,0,.27-.73A1,1,0,0,0,226.38,130.36Z"/><path class="cls-2" d="M237.25,128.67a5.07,5.07,0,0,1,1.82,1.83,5,5,0,0,1,0,5,5.12,5.12,0,0,1-1.82,1.82,5,5,0,0,1-5,0,5.07,5.07,0,0,1-1.83-1.82,5,5,0,0,1,0-5,5,5,0,0,1,1.83-1.83,5,5,0,0,1,5,0ZM236,135.24a2.82,2.82,0,0,0,.94-.94,2.5,2.5,0,0,0,.35-1.29,2.56,2.56,0,0,0-.35-1.3,2.73,2.73,0,0,0-.94-.94,2.55,2.55,0,0,0-2.58,0,2.6,2.6,0,0,0-.95.94,2.56,2.56,0,0,0-.35,1.3,2.5,2.5,0,0,0,.35,1.29,2.67,2.67,0,0,0,.95.94,2.55,2.55,0,0,0,2.58,0Z"/><path class="cls-2" d="M248.21,128h2.52v9.9h-2.52v-5.59L247,134.55l-.06.11H244.4l-.07-.11-.17-.32-1-1.92v5.59h-2.53V128h2.53l2.55,4.21Z"/><path class="cls-2" d="M262.88,130l-1.62,1.75a3.62,3.62,0,0,1,1.18,1.22,3.25,3.25,0,0,1,.44,1.64,3.2,3.2,0,0,1-.48,1.71,3.42,3.42,0,0,1-1.29,1.24,3.57,3.57,0,0,1-1.79.47,3.53,3.53,0,0,1-1.78-.47,3.44,3.44,0,0,1-1.3-1.24,3.28,3.28,0,0,1-.47-1.71h2.28a1.14,1.14,0,0,0,.37.86,1.25,1.25,0,0,0,.9.36,1.23,1.23,0,0,0,.89-.36,1.14,1.14,0,0,0,.37-.86v0a1.32,1.32,0,0,0-.13-.57,2.27,2.27,0,0,0-.61-.76,4,4,0,0,0-.91-.6v-1.19l.23-.25.78-.86.32-.35H256.1v-1.93h6.78Z"/><path class="cls-2" d="M275.52,128v2.52H273v7.38h-2.54v-7.38h-2.53V128h7.6Z"/><path class="cls-2" d="M283.74,128.67a5.07,5.07,0,0,1,1.82,1.83,5,5,0,0,1,0,5,5.12,5.12,0,0,1-1.82,1.82,5,5,0,0,1-5,0,5.07,5.07,0,0,1-1.83-1.82,5,5,0,0,1,0-5,5,5,0,0,1,1.83-1.83,5,5,0,0,1,5,0Zm-1.22,6.57a2.73,2.73,0,0,0,.94-.94,2.5,2.5,0,0,0,.35-1.29,2.56,2.56,0,0,0-.35-1.3,2.65,2.65,0,0,0-.94-.94,2.5,2.5,0,0,0-1.29-.35,2.52,2.52,0,0,0-1.29.35,2.67,2.67,0,0,0-.95.94,2.56,2.56,0,0,0-.35,1.3,2.5,2.5,0,0,0,.35,1.29,2.76,2.76,0,0,0,.95.94,2.52,2.52,0,0,0,1.29.35A2.5,2.5,0,0,0,282.52,135.24Z"/><path class="cls-2" d="M293.88,128H295v9.9H292.5v-7l-1.37.43v-2.46l1.37-.44Z"/><path class="cls-2" d="M302,128.66a4.55,4.55,0,0,1,1.48,1.82A5.79,5.79,0,0,1,304,133a5.88,5.88,0,0,1-.54,2.52,4.62,4.62,0,0,1-1.48,1.82A3.44,3.44,0,0,1,300,138a3.39,3.39,0,0,1-2-.67,4.55,4.55,0,0,1-1.49-1.82,5.74,5.74,0,0,1-.56-2.52,5.66,5.66,0,0,1,.56-2.5,4.49,4.49,0,0,1,1.49-1.82,3.4,3.4,0,0,1,2-.68A3.45,3.45,0,0,1,302,128.66ZM300.8,135a2,2,0,0,0,.62-.86,3.07,3.07,0,0,0,.22-1.19,2.86,2.86,0,0,0-.23-1.18,2.23,2.23,0,0,0-.61-.86,1.29,1.29,0,0,0-1.7,0,2.17,2.17,0,0,0-.63.86,3,3,0,0,0-.23,1.18,3.08,3.08,0,0,0,.23,1.19,2.1,2.1,0,0,0,.63.86,1.29,1.29,0,0,0,1.7,0Z"/><path class="cls-2" d="M316.69,128h2.52v9.9h-2.52v-5.59l-1.23,2.24,0,.11h-2.52l-.07-.11-.17-.32-1-1.92v5.59h-2.54V128h2.54l2.55,4.21Z"/><path class="cls-2" d="M327.07,135.75v2.15h-6.74V128h6.61v2.14h-4.07v1.74h3.43V134h-3.43v1.73Z"/><path class="cls-2" d="M332.71,131.13V131a.86.86,0,0,0-.34-.69,1.28,1.28,0,0,0-.84-.29,1.35,1.35,0,0,0-.86.29.87.87,0,0,0-.35.69.64.64,0,0,0,.36.6,3.15,3.15,0,0,0,.95.4l.22,0,.24,0a5,5,0,0,1,2,.83l.12.11a3.06,3.06,0,0,1,.67,1,2.77,2.77,0,0,1,0,2.32,3.09,3.09,0,0,1-.79,1,3.72,3.72,0,0,1-1.18.67,4.19,4.19,0,0,1-1.37.23,4.09,4.09,0,0,1-1.36-.23,3.57,3.57,0,0,1-1.17-.67,3.12,3.12,0,0,1-.8-1,2.64,2.64,0,0,1-.28-1.2v-.18h2.45v.18a.86.86,0,0,0,.34.69,1.24,1.24,0,0,0,.82.29,1.33,1.33,0,0,0,.86-.29.85.85,0,0,0,.36-.69.82.82,0,0,0-.38-.62,1.79,1.79,0,0,0-.39-.21l-.55-.17L331,134c-.51-.13-.92-.25-1.2-.35a2.41,2.41,0,0,1-.8-.47l-.06-.06a3.1,3.1,0,0,1-.73-1,2.55,2.55,0,0,1-.26-1.15,2.64,2.64,0,0,1,.28-1.2,3.12,3.12,0,0,1,.8-1,3.57,3.57,0,0,1,1.17-.67,4.09,4.09,0,0,1,1.36-.23,4.19,4.19,0,0,1,1.37.23,3.72,3.72,0,0,1,1.18.67,3.09,3.09,0,0,1,.79,1,2.77,2.77,0,0,1,.27,1.2v.18Z"/><path class="cls-2" d="M340.49,131.13V131a.86.86,0,0,0-.34-.69,1.27,1.27,0,0,0-.83-.29,1.33,1.33,0,0,0-.86.29.85.85,0,0,0-.36.69.64.64,0,0,0,.36.6,3.22,3.22,0,0,0,1,.4l.21,0,.25,0a4.92,4.92,0,0,1,2,.83l.13.11a2.88,2.88,0,0,1,.66,1,2.8,2.8,0,0,1,.25,1.12,2.64,2.64,0,0,1-.28,1.2,3,3,0,0,1-.79,1,3.57,3.57,0,0,1-1.17.67,4.25,4.25,0,0,1-1.38.23,4.13,4.13,0,0,1-1.36-.23,3.68,3.68,0,0,1-1.17-.67,3.12,3.12,0,0,1-.8-1,2.78,2.78,0,0,1-.28-1.2v-.18h2.45v.18a.87.87,0,0,0,.35.69,1.22,1.22,0,0,0,.81.29,1.36,1.36,0,0,0,.87-.29.87.87,0,0,0,.35-.69.79.79,0,0,0-.38-.62,1.79,1.79,0,0,0-.39-.21l-.54-.17-.47-.11c-.51-.13-.91-.25-1.2-.35a2.51,2.51,0,0,1-.8-.47l-.05-.06a3.13,3.13,0,0,1-.74-1,2.69,2.69,0,0,1-.26-1.15,2.78,2.78,0,0,1,.28-1.2,3.12,3.12,0,0,1,.8-1,3.68,3.68,0,0,1,1.17-.67,4.13,4.13,0,0,1,1.36-.23,4.25,4.25,0,0,1,1.38.23,3.57,3.57,0,0,1,1.17.67,3,3,0,0,1,.79,1,2.64,2.64,0,0,1,.28,1.2v.18Z"/><path class="cls-2" d="M348.91,128.1l3.23,9.8h-2.43l-.65-2H346l-.63,2h-2.45l3.24-9.8Zm-2.26,5.75h1.77l-.88-2.77Z"/><path class="cls-2" d="M362.15,133a4.83,4.83,0,0,1-.67,2.5,5,5,0,0,1-1.83,1.82,5,5,0,0,1-5,0,5,5,0,0,1-1.82-1.82,4.93,4.93,0,0,1-.67-2.5,5,5,0,0,1,2.49-4.34,4.9,4.9,0,0,1,2.51-.68,4.76,4.76,0,0,1,1.95.4,4.83,4.83,0,0,1,1.61,1.09l-2.26,1.29a2.57,2.57,0,0,0-2.59,0,2.65,2.65,0,0,0-.94.94,2.56,2.56,0,0,0-.35,1.3,2.49,2.49,0,0,0,.35,1.28,2.65,2.65,0,0,0,.94.94,2.41,2.41,0,0,0,1.29.35,2.58,2.58,0,0,0,1.36-.38,2.62,2.62,0,0,0,.95-1h-3.11v-2.33H362A5,5,0,0,1,362.15,133Z"/><path class="cls-2" d="M369.73,135.75v2.15H363V128h6.61v2.14h-4.07v1.74H369V134h-3.43v1.73Z"/><path class="cls-2" d="M37.54,282.59l3.24,9.8H38.34l-.64-2H34.63l-.63,2H31.55l3.25-9.8Zm-2.25,5.76h1.76l-.88-2.78Z"/><path class="cls-2" d="M43.58,290h3.89v2.38H41.06v-9.9h2.52Z"/><path class="cls-2" d="M53,285.63v-.18a.89.89,0,0,0-.34-.7,1.26,1.26,0,0,0-.83-.28,1.31,1.31,0,0,0-.86.28.89.89,0,0,0-.36.7.64.64,0,0,0,.36.6,3,3,0,0,0,1,.39l.22,0,.25.06a4.78,4.78,0,0,1,2,.83l.13.11a3.1,3.1,0,0,1,.66,1,2.79,2.79,0,0,1,0,2.33,3.06,3.06,0,0,1-.79,1,3.65,3.65,0,0,1-1.17.66,4,4,0,0,1-1.38.24,3.89,3.89,0,0,1-1.36-.24,3.55,3.55,0,0,1-1.17-.66,3.23,3.23,0,0,1-.8-1,2.72,2.72,0,0,1-.28-1.21v-.18h2.45v.18a.93.93,0,0,0,.34.7,1.26,1.26,0,0,0,.82.28,1.31,1.31,0,0,0,.86-.28.89.89,0,0,0,.36-.7.78.78,0,0,0-.38-.61,1.22,1.22,0,0,0-.39-.21,5.31,5.31,0,0,0-.55-.17l-.46-.11c-.51-.13-.91-.25-1.2-.35a2.44,2.44,0,0,1-.8-.48l0-.05a3.13,3.13,0,0,1-.74-1,2.71,2.71,0,0,1,0-2.36,3.23,3.23,0,0,1,.8-1,3.55,3.55,0,0,1,1.17-.66,3.89,3.89,0,0,1,1.36-.23,4,4,0,0,1,1.38.23,3.65,3.65,0,0,1,1.17.66,3.06,3.06,0,0,1,.79,1,2.85,2.85,0,0,1,.27,1.21v.18Z"/><path class="cls-2" d="M63.47,283.17A5,5,0,0,1,66,287.5a4.84,4.84,0,0,1-.67,2.51,5,5,0,0,1-1.82,1.82,4.83,4.83,0,0,1-2.5.67,4.9,4.9,0,0,1-2.52-.67A5,5,0,0,1,56.63,290,4.84,4.84,0,0,1,56,287.5a5,5,0,0,1,5-5A4.84,4.84,0,0,1,63.47,283.17Zm-1.22,6.56a2.5,2.5,0,0,0,.94-.94,2.41,2.41,0,0,0,.35-1.29,2.45,2.45,0,0,0-.35-1.29,2.5,2.5,0,0,0-.94-.94,2.4,2.4,0,0,0-1.28-.35,2.46,2.46,0,0,0-1.3.35,2.57,2.57,0,0,0-.94.94,2.45,2.45,0,0,0-.35,1.29,2.41,2.41,0,0,0,.35,1.29A2.59,2.59,0,0,0,61,290.08,2.49,2.49,0,0,0,62.25,289.73Z"/><path class="cls-2" d="M79,282.49h2.18v9.9H78.63l-2.54-4.21-2.57,4.21H71v-9.9h2.52v5.59l1.24-2.24.07-.11h2.52l.05.11,1.23,2.24v-5.59Z"/><path class="cls-2" d="M89,290.25v2.14H82.27v-9.9h6.61v2.15H84.81v1.73h3.43v2.14H84.81v1.74Z"/><path class="cls-2" d="M100,289.85a2.84,2.84,0,0,0,.84-.55l1.71,1.7a5.15,5.15,0,0,1-1.61,1.09,5,5,0,0,1-4.44-.29A5,5,0,0,1,94.72,290a4.83,4.83,0,0,1-.67-2.5,4.9,4.9,0,0,1,.67-2.52,5,5,0,0,1,1.82-1.82,5.06,5.06,0,0,1,4.44-.29,5.15,5.15,0,0,1,1.61,1.09l-1.71,1.7a2.84,2.84,0,0,0-.84-.55,2.61,2.61,0,0,0-1-.2,2.41,2.41,0,0,0-1.29.35,2.65,2.65,0,0,0-.94.94,2.57,2.57,0,0,0,0,2.59,2.62,2.62,0,0,0,.94.93,2.41,2.41,0,0,0,1.29.35A2.43,2.43,0,0,0,100,289.85Z"/><path class="cls-2" d="M108.58,282.59l3.23,9.8h-2.43l-.65-2h-3.06l-.63,2h-2.45l3.25-9.8Zm-2.25,5.76h1.76l-.88-2.78Z"/><path class="cls-2" d="M117.54,282.49h2.52v9.9h-2.52l-2.91-5.31v5.31h-2.54v-9.9h2.54l2.91,5.31Z"/><path class="cls-2" d="M129.72,282.46a6.08,6.08,0,0,1,1.49.35,4.44,4.44,0,0,1,1.37.86,5,5,0,0,1,1.21,1.7,5.17,5.17,0,0,1,.42,2,4.85,4.85,0,0,1-.54,2.28,4.48,4.48,0,0,1-1.54,1.75,5.45,5.45,0,0,1-2,.79,14.29,14.29,0,0,1-2.5.19h-1.15l-1.09,0v-10h2.53C128.61,282.38,129.22,282.41,129.72,282.46Zm2.09,5a2.6,2.6,0,0,0-.34-1.27,2.57,2.57,0,0,0-.92-1,2.45,2.45,0,0,0-1.26-.38h-1.38V290a10.65,10.65,0,0,0,1.73-.12,3,3,0,0,0,1.31-.55,2.26,2.26,0,0,0,.79-1.3A3.47,3.47,0,0,0,131.81,287.41Z"/><path class="cls-2" d="M142.29,283.17a5,5,0,0,1,2.49,4.33,4.84,4.84,0,0,1-.67,2.51,5,5,0,0,1-1.82,1.82,4.83,4.83,0,0,1-2.5.67,5,5,0,0,1-4.34-2.49,4.85,4.85,0,0,1-.68-2.51,4.9,4.9,0,0,1,.68-2.51,4.82,4.82,0,0,1,1.82-1.82,4.91,4.91,0,0,1,2.52-.68A4.84,4.84,0,0,1,142.29,283.17Zm-1.22,6.56a2.5,2.5,0,0,0,.94-.94,2.41,2.41,0,0,0,.35-1.29,2.45,2.45,0,0,0-.35-1.29,2.5,2.5,0,0,0-.94-.94,2.4,2.4,0,0,0-1.28-.35,2.46,2.46,0,0,0-1.3.35,2.5,2.5,0,0,0-.94.94,2.45,2.45,0,0,0-.35,1.29,2.41,2.41,0,0,0,.35,1.29,2.5,2.5,0,0,0,.94.94,2.56,2.56,0,0,0,1.3.35A2.49,2.49,0,0,0,141.07,289.73Z"/><path class="cls-2" d="M155,282.59l3.23,9.8h-2.44l-.64-2h-3.07l-.63,2H149l3.25-9.8Zm-2.26,5.76h1.77l-.89-2.78Z"/><path class="cls-2" d="M168.4,289.85a2.84,2.84,0,0,0,.84-.55L171,291a5,5,0,0,1-1.61,1.09,5,5,0,0,1-4.44-.29,5,5,0,0,1-1.82-1.82,4.83,4.83,0,0,1-.67-2.5,4.9,4.9,0,0,1,.67-2.52,5,5,0,0,1,1.82-1.82,5.06,5.06,0,0,1,4.44-.29,5,5,0,0,1,1.61,1.09l-1.71,1.7a2.84,2.84,0,0,0-.84-.55,2.61,2.61,0,0,0-1-.2,2.41,2.41,0,0,0-1.29.35,2.65,2.65,0,0,0-.94.94,2.57,2.57,0,0,0,0,2.59,2.62,2.62,0,0,0,.94.93,2.41,2.41,0,0,0,1.29.35A2.43,2.43,0,0,0,168.4,289.85Z"/><path class="cls-2" d="M179.87,292.39h-2.54l-1.56-3.74h-1.61v3.74h-2.37v-9.9h4.72a3.08,3.08,0,0,1,2.7,4.56,3.19,3.19,0,0,1-1,1.11Zm-2.79-7.54a1,1,0,0,0-.66-.33H174.1v2.1h2.32a1,1,0,0,0,.66-.34,1.08,1.08,0,0,0,0-1.43Z"/><path class="cls-2" d="M188,283.17a5,5,0,0,1,1.82,6.84,5,5,0,0,1-1.82,1.82,5,5,0,0,1-5,0A5,5,0,0,1,181.1,290a4.84,4.84,0,0,1-.67-2.51,5,5,0,0,1,7.52-4.33Zm-1.22,6.56a2.65,2.65,0,0,0,.94-.94,2.5,2.5,0,0,0,.35-1.29,2.55,2.55,0,0,0-.35-1.29,2.65,2.65,0,0,0-.94-.94,2.43,2.43,0,0,0-1.29-.35,2.46,2.46,0,0,0-1.3.35,2.59,2.59,0,0,0-1.29,2.23,2.5,2.5,0,0,0,.35,1.29,2.59,2.59,0,0,0,2.24,1.29A2.52,2.52,0,0,0,186.73,289.73Z"/><path class="cls-2" d="M199.24,282.49h2.19v9.9h-2.52l-2.55-4.21-2.56,4.21h-2.52v-9.9h2.52v5.59l1.23-2.24.07-.11h2.52l0,.11,1.24,2.24v-5.59Z"/><path class="cls-2" d="M206.89,282.46a6.08,6.08,0,0,1,1.49.35,4.39,4.39,0,0,1,1.36.86,4.77,4.77,0,0,1,1.21,1.7,5,5,0,0,1,.43,2,4.74,4.74,0,0,1-.55,2.28,4.54,4.54,0,0,1-1.53,1.75,5.45,5.45,0,0,1-2,.79,14.37,14.37,0,0,1-2.5.19h-1.15l-1.09,0v-10h2.53C205.78,282.38,206.38,282.41,206.89,282.46Zm2.08,5a2.59,2.59,0,0,0-.33-1.27,2.65,2.65,0,0,0-.92-1,2.48,2.48,0,0,0-1.27-.38h-1.37V290a10.73,10.73,0,0,0,1.73-.12,3,3,0,0,0,1.3-.55,2.21,2.21,0,0,0,.79-1.3A2.68,2.68,0,0,0,209,287.41Z"/><path class="cls-2" d="M216.74,285.63v-.18a.89.89,0,0,0-.34-.7,1.26,1.26,0,0,0-.83-.28,1.31,1.31,0,0,0-.86.28.89.89,0,0,0-.36.7.64.64,0,0,0,.36.6,3,3,0,0,0,1,.39l.21,0,.25.06a4.78,4.78,0,0,1,2,.83l.12.11a2.82,2.82,0,0,1,.67,1,2.7,2.7,0,0,1,0,2.33,3.06,3.06,0,0,1-.79,1,3.59,3.59,0,0,1-1.18.66,4,4,0,0,1-2.73,0,3.55,3.55,0,0,1-1.17-.66,3.23,3.23,0,0,1-.8-1,2.72,2.72,0,0,1-.28-1.21v-.18h2.45v.18a.89.89,0,0,0,.34.7,1.26,1.26,0,0,0,.82.28,1.31,1.31,0,0,0,.86-.28.89.89,0,0,0,.36-.7.8.8,0,0,0-.38-.61,1.22,1.22,0,0,0-.39-.21c-.15-.06-.33-.11-.54-.17l-.47-.11c-.51-.13-.91-.25-1.2-.35a2.44,2.44,0,0,1-.8-.48l-.06-.05a3.26,3.26,0,0,1-.73-1,2.71,2.71,0,0,1,0-2.36,3.23,3.23,0,0,1,.8-1,3.55,3.55,0,0,1,1.17-.66,4.17,4.17,0,0,1,2.73,0,3.59,3.59,0,0,1,1.18.66,3.06,3.06,0,0,1,.79,1,2.86,2.86,0,0,1,.28,1.21v.18Z"/><path class="cls-2" d="M225.35,282.49h2.52v9.9h-2.52V288.7h-2.82v3.69H220v-9.9h2.53v3.69h2.82Z"/><path class="cls-2" d="M231.51,282.49v9.9H229v-9.9Z"/><path class="cls-2" d="M235.15,290H239v2.38h-6.41v-9.9h2.52Z"/><path class="cls-2" d="M242.54,290h3.9v2.38H240v-9.9h2.51Z"/><path class="cls-2" d="M249.94,282.49v9.9h-2.52v-9.9Z"/><path class="cls-2" d="M256.5,282.49H259v9.9H256.5l-2.91-5.31v5.31h-2.53v-9.9h2.53l2.91,5.31Z"/><path class="cls-2" d="M269.87,287.49a4.87,4.87,0,0,1-.67,2.51,5.07,5.07,0,0,1-1.83,1.82,5,5,0,0,1-5,0,5,5,0,0,1-1.82-1.82,5,5,0,0,1,6.27-7.13,5,5,0,0,1,1.61,1.09l-2.26,1.29a2.57,2.57,0,0,0-2.59,0,2.67,2.67,0,0,0-.94.95,2.62,2.62,0,0,0,0,2.58,2.82,2.82,0,0,0,.94.94,2.56,2.56,0,0,0,2.65,0,2.55,2.55,0,0,0,.95-1h-3.11v-2.32h5.67A5,5,0,0,1,269.87,287.49Z"/><path class="cls-2" d="M277.43,282.49v9.9h-2.52v-9.9Z"/><path class="cls-2" d="M284,282.49h2.52v9.9H284l-2.91-5.31v5.31h-2.54v-9.9h2.54L284,287.8Z"/><path class="cls-2" d="M292.16,285.63v-.18a.89.89,0,0,0-.34-.7,1.27,1.27,0,0,0-.84-.28,1.35,1.35,0,0,0-.86.28.9.9,0,0,0-.35.7.64.64,0,0,0,.36.6,2.92,2.92,0,0,0,.95.39l.22,0,.24.06a4.84,4.84,0,0,1,2,.83l.12.11a3.13,3.13,0,0,1,.67,1,2.79,2.79,0,0,1,0,2.33,3.19,3.19,0,0,1-.79,1,3.7,3.7,0,0,1-1.18.66,4,4,0,0,1-1.37.24,3.89,3.89,0,0,1-1.36-.24,3.55,3.55,0,0,1-1.17-.66,3.23,3.23,0,0,1-.8-1,2.72,2.72,0,0,1-.28-1.21v-.18h2.45v.18a.89.89,0,0,0,.34.7,1.24,1.24,0,0,0,.82.28,1.33,1.33,0,0,0,.86-.28.89.89,0,0,0,.36-.7.8.8,0,0,0-.38-.61,1.22,1.22,0,0,0-.39-.21,5.31,5.31,0,0,0-.55-.17l-.46-.11c-.51-.13-.91-.25-1.2-.35a2.44,2.44,0,0,1-.8-.48l-.06-.05a3.26,3.26,0,0,1-.73-1,2.71,2.71,0,0,1,0-2.36,3.23,3.23,0,0,1,.8-1,3.55,3.55,0,0,1,1.17-.66,3.89,3.89,0,0,1,1.36-.23,3.94,3.94,0,0,1,1.37.23,3.7,3.7,0,0,1,1.18.66,3.19,3.19,0,0,1,.79,1,2.85,2.85,0,0,1,.27,1.21v.18Z"/><path class="cls-2" d="M297.94,282.49v9.9h-2.52v-9.9Z"/><path class="cls-2" d="M303.4,282.46a6,6,0,0,1,1.49.35,4.44,4.44,0,0,1,1.37.86,4.9,4.9,0,0,1,1.21,1.7,5.19,5.19,0,0,1,.43,2,4.86,4.86,0,0,1-.55,2.28,4.54,4.54,0,0,1-1.53,1.75,5.43,5.43,0,0,1-2,.79,14.22,14.22,0,0,1-2.5.19h-1.14l-1.1,0v-10h2.54C302.3,282.38,302.9,282.41,303.4,282.46Zm2.09,5a2.49,2.49,0,0,0-.34-1.27,2.62,2.62,0,0,0-.91-1,2.48,2.48,0,0,0-1.27-.38H301.6V290a10.73,10.73,0,0,0,1.73-.12,3,3,0,0,0,1.3-.55,2.21,2.21,0,0,0,.79-1.3A2.68,2.68,0,0,0,305.49,287.41Z"/><path class="cls-2" d="M315.47,290.25v2.14h-6.73v-9.9h6.6v2.15h-4.07v1.73h3.43v2.14h-3.43v1.74Z"/><path class="cls-2" d="M326.05,282.49h2.53l-2.92,5.87v4h-2.52v-4l-2.91-5.87h2.52l1.65,3.38Z"/><path class="cls-2" d="M336.37,283.17a5,5,0,0,1,2.49,4.33,4.84,4.84,0,0,1-.67,2.51,5,5,0,0,1-1.82,1.82,4.83,4.83,0,0,1-2.5.67,5,5,0,0,1-4.34-2.49,4.85,4.85,0,0,1-.68-2.51,4.9,4.9,0,0,1,.68-2.51,4.82,4.82,0,0,1,1.82-1.82,4.91,4.91,0,0,1,2.52-.68A4.84,4.84,0,0,1,336.37,283.17Zm-1.22,6.56a2.5,2.5,0,0,0,.94-.94,2.41,2.41,0,0,0,.35-1.29,2.45,2.45,0,0,0-.35-1.29,2.5,2.5,0,0,0-.94-.94,2.4,2.4,0,0,0-1.28-.35,2.46,2.46,0,0,0-1.3.35,2.5,2.5,0,0,0-.94.94,2.45,2.45,0,0,0-.35,1.29,2.41,2.41,0,0,0,.35,1.29,2.5,2.5,0,0,0,.94.94,2.56,2.56,0,0,0,1.3.35A2.49,2.49,0,0,0,335.15,289.73Z"/><path class="cls-2" d="M347.75,282.51v6.12a3.77,3.77,0,0,1-.52,1.95A3.92,3.92,0,0,1,345.8,292a3.84,3.84,0,0,1-2,.52h-.22a3.81,3.81,0,0,1-2-.52,3.9,3.9,0,0,1-1.42-1.43,3.78,3.78,0,0,1-.53-1.95v-6.12H342v5.55a2.41,2.41,0,0,0,.42,1.45,1.36,1.36,0,0,0,1.15.57h.22a1.38,1.38,0,0,0,1.15-.58,2.35,2.35,0,0,0,.44-1.44v-5.55Z"/><path class="cls-2" d="M357,292.39h-2.53l-1.57-3.74h-1.61v3.74h-2.37v-9.9h4.72a3,3,0,0,1,1.54.42,3,3,0,0,1,1.13,1.12,3.09,3.09,0,0,1,.41,1.54,2.91,2.91,0,0,1-.38,1.48,3.19,3.19,0,0,1-1,1.11Zm-2.78-7.54a1,1,0,0,0-.66-.33h-2.33v2.1h2.33a1,1,0,0,0,.66-.34,1.11,1.11,0,0,0,0-1.43Z"/><path class="cls-2" d="M38.1,306.65a2.84,2.84,0,0,0,.84-.55l1.71,1.7A4.93,4.93,0,0,1,39,308.89a4.82,4.82,0,0,1-1.93.38,5,5,0,0,1-4.32-2.49,4.84,4.84,0,0,1-.68-2.5,5,5,0,0,1,5-5,4.82,4.82,0,0,1,1.93.38,5.06,5.06,0,0,1,1.61,1.08l-1.71,1.71a2.84,2.84,0,0,0-.84-.55,2.37,2.37,0,0,0-1-.2,2.41,2.41,0,0,0-1.29.35,2.73,2.73,0,0,0-.94.94,2.55,2.55,0,0,0-.34,1.3,2.48,2.48,0,0,0,.34,1.28,2.65,2.65,0,0,0,.94.94,2.41,2.41,0,0,0,1.29.35A2.37,2.37,0,0,0,38.1,306.65Z"/><path class="cls-2" d="M48.73,300a5,5,0,0,1,1.82,1.83,4.89,4.89,0,0,1,.67,2.51,4.84,4.84,0,0,1-.67,2.51,5,5,0,0,1-1.82,1.82,4.84,4.84,0,0,1-2.51.67,4.89,4.89,0,0,1-2.51-.67,5,5,0,0,1-1.83-1.82,4.94,4.94,0,0,1-.67-2.51,5,5,0,0,1,5-5A4.94,4.94,0,0,1,48.73,300Zm-1.22,6.57a2.57,2.57,0,0,0,.94-.94,2.5,2.5,0,0,0,.35-1.29,2.55,2.55,0,0,0-.35-1.29,2.59,2.59,0,0,0-.94-.95,2.5,2.5,0,0,0-1.29-.35,2.55,2.55,0,0,0-1.29.35,2.7,2.7,0,0,0-1,.95,2.55,2.55,0,0,0-.35,1.29,2.5,2.5,0,0,0,.35,1.29,2.67,2.67,0,0,0,1,.94,2.55,2.55,0,0,0,1.29.35A2.5,2.5,0,0,0,47.51,306.53Z"/><path class="cls-2" d="M59.69,299.29h2.52v9.9H59.69V303.6l-1.23,2.24-.06.12H55.88l-.07-.12-.16-.32-1-1.92v5.59H52.06v-9.9H54.6l2.54,4.22Z"/><path class="cls-2" d="M71,299.29h2.52v9.9H71V303.6l-1.23,2.24-.06.12H67.15l-.07-.12-.16-.32-1-1.92v5.59H63.33v-9.9h2.54l2.55,4.22Z"/><path class="cls-2" d="M82.65,299.31v6.11a3.78,3.78,0,0,1-.52,2,3.92,3.92,0,0,1-1.43,1.43,3.84,3.84,0,0,1-2,.52h-.22a3.81,3.81,0,0,1-2-.52,3.9,3.9,0,0,1-1.42-1.43,3.79,3.79,0,0,1-.53-2v-6.11h2.34v5.55a2.41,2.41,0,0,0,.42,1.45,1.35,1.35,0,0,0,1.15.57h.22a1.35,1.35,0,0,0,1.14-.58,2.29,2.29,0,0,0,.44-1.44v-5.55Z"/><path class="cls-2" d="M89.22,299.29h2.52v9.9H89.22l-2.91-5.31v5.31H83.77v-9.9h2.54l2.91,5.31Z"/><path class="cls-2" d="M95.38,299.29v9.9H92.86v-9.9Z"/><path class="cls-2" d="M104,299.29v2.52h-2.53v7.38H98.89v-7.38H96.36v-2.52H104Z"/><path class="cls-2" d="M110.21,299.29h2.51l-2.91,5.87v4h-2.52v-4l-2.91-5.87h2.52l1.65,3.38Z"/></svg>