<svg id="Слой_1" data-name="Слой 1" xmlns="http://www.w3.org/2000/svg" viewBox="0 0 405 405"><defs><style>.cls-1{fill:#fff;}.cls-2{fill:#e7335d;}.cls-3,.cls-4,.cls-5{fill:none;stroke:#e7335d;stroke-miterlimit:10;stroke-width:2px;}.cls-4{stroke-dasharray:11.87 11.87;}.cls-5{stroke-dasharray:11.87 11.87;}</style></defs><rect class="cls-1" width="405" height="405"/><path d="M40,261.9v5.78a3.59,3.59,0,0,1-.5,1.85,3.72,3.72,0,0,1-1.35,1.35,3.61,3.61,0,0,1-1.85.49h-.22a3.61,3.61,0,0,1-1.85-.49,3.77,3.77,0,0,1-1.34-1.35,3.58,3.58,0,0,1-.49-1.85V261.9h2.2v5.25a2.31,2.31,0,0,0,.4,1.37,1.27,1.27,0,0,0,1.08.54h.22a1.26,1.26,0,0,0,1.07-.55,2.18,2.18,0,0,0,.42-1.36V261.9Z"/><path d="M45.33,264.85v-.17A.82.82,0,0,0,45,264a1.17,1.17,0,0,0-.78-.27,1.28,1.28,0,0,0-.82.27.82.82,0,0,0-.33.65.6.6,0,0,0,.34.57,2.94,2.94,0,0,0,.9.37l.2,0,.24,0a4.64,4.64,0,0,1,1.89.78l.11.11a2.65,2.65,0,0,1,.63.91,2.54,2.54,0,0,1,.23,1.06,2.7,2.7,0,0,1-.25,1.14,3,3,0,0,1-.75,1,3.74,3.74,0,0,1-2.41.85,3.69,3.69,0,0,1-2.39-.85,2.85,2.85,0,0,1-.75-1,2.58,2.58,0,0,1-.27-1.14v-.17h2.32v.17a.81.81,0,0,0,.32.65,1.17,1.17,0,0,0,.77.27,1.28,1.28,0,0,0,.82-.27.82.82,0,0,0,.33-.65A.77.77,0,0,0,45,268a1.46,1.46,0,0,0-.37-.2c-.14-.05-.32-.11-.52-.16l-.44-.11a11.45,11.45,0,0,1-1.13-.33,2,2,0,0,1-.76-.45l-.05-.05a2.89,2.89,0,0,1-.69-.92,2.45,2.45,0,0,1-.25-1.09,2.58,2.58,0,0,1,.27-1.14,2.85,2.85,0,0,1,.75-1,3.75,3.75,0,0,1,1.1-.63,4,4,0,0,1,1.29-.22,4.08,4.08,0,0,1,1.3.22,3.8,3.8,0,0,1,1.11.63,3,3,0,0,1,.75,1,2.7,2.7,0,0,1,.25,1.14v.17Z"/><path d="M50.79,261.89v9.35H48.41v-9.35Z"/><path d="M57,261.89h2.38v9.35H57l-2.75-5v5h-2.4v-9.35h2.4l2.75,5Z"/><path d="M69.62,266.61A4.63,4.63,0,0,1,69,269a4.81,4.81,0,0,1-1.72,1.72,4.68,4.68,0,0,1-2.38.63,4.61,4.61,0,0,1-2.36-.63A4.73,4.73,0,0,1,60.8,269a4.53,4.53,0,0,1-.64-2.37,4.58,4.58,0,0,1,.64-2.37,4.68,4.68,0,0,1,1.72-1.73,4.77,4.77,0,0,1,4.21-.26,4.77,4.77,0,0,1,1.51,1l-2.13,1.22a2.36,2.36,0,0,0-1.23-.33,2.32,2.32,0,0,0-1.21.33,2.38,2.38,0,0,0-.89.89,2.42,2.42,0,0,0,0,2.44,2.42,2.42,0,0,0,.89.88,2.32,2.32,0,0,0,1.21.33,2.36,2.36,0,0,0,1.28-.36,2.4,2.4,0,0,0,.9-1H64.13v-2.2h5.35A5.1,5.1,0,0,1,69.62,266.61Z"/><path d="M79.24,262l3.05,9.26H80l-.6-1.89h-2.9l-.59,1.89H73.58L76.65,262Zm-2.13,5.44h1.67L78,264.8Z"/><path d="M87.7,261.89h2.38v9.35H87.7l-2.75-5v5H82.56v-9.35H85l2.75,5Z"/><path d="M101.47,269.22v2H95.11v-9.35h6.24v2H97.5v1.64h3.24v2H97.5v1.64Z"/><path d="M102.39,265.66h4.27v1.88h-4.27Z"/><path d="M114.79,261.89h2.38v9.35h-2.38V266l-1.16,2.12,0,.11H111.2l-.07-.11-.16-.3L110,266v5.28h-2.39v-9.35H110l2.41,4Z"/><path d="M123.1,262l3.05,9.26h-2.3l-.61-1.89h-2.89l-.6,1.89h-2.31l3.07-9.26ZM121,267.42h1.66l-.83-2.62Z"/><path d="M128.8,261.89v9.35h-2.38v-9.35Z"/><path d="M132.23,269h3.68v2.25h-6.06v-9.35h2.38Z"/><path d="M146,261.89h2.38v9.35H146l-2.76-5v5H140.8v-9.35h2.39l2.76,5Z"/><path d="M155.74,269.22v2h-6.36v-9.35h6.24v2h-3.84v1.64H155v2h-3.24v1.64Z"/><path d="M164.32,261.89h2.07v9.35H164l-2.41-4-2.42,4H156.8v-9.35h2.38v5.28l1.16-2.12.07-.1h2.38l.05.1,1.17,2.12v-5.28Z"/><path d="M171.71,264.85v-.17a.81.81,0,0,0-.32-.65,1.2,1.2,0,0,0-.79-.27,1.28,1.28,0,0,0-.81.27.83.83,0,0,0-.34.65.6.6,0,0,0,.35.57,2.94,2.94,0,0,0,.9.37l.2,0,.23,0a4.51,4.51,0,0,1,1.89.78l.12.11a2.65,2.65,0,0,1,.63.91,2.7,2.7,0,0,1,.23,1.06,2.57,2.57,0,0,1-.26,1.14,3,3,0,0,1-.74,1,3.74,3.74,0,0,1-2.41.85,3.72,3.72,0,0,1-1.29-.22,3.63,3.63,0,0,1-1.1-.63,3,3,0,0,1-.76-1,2.71,2.71,0,0,1-.26-1.14v-.17h2.31v.17a.82.82,0,0,0,.33.65,1.15,1.15,0,0,0,.77.27,1.24,1.24,0,0,0,.81-.27.8.8,0,0,0,.34-.65.76.76,0,0,0-.36-.58,1.31,1.31,0,0,0-.37-.2,5.27,5.27,0,0,0-.51-.16l-.44-.11q-.72-.18-1.14-.33a2.09,2.09,0,0,1-.75-.45l0-.05a3.08,3.08,0,0,1-.7-.92,2.58,2.58,0,0,1-.24-1.09,2.71,2.71,0,0,1,.26-1.14,3,3,0,0,1,.76-1,3.63,3.63,0,0,1,1.1-.63,4,4,0,0,1,1.29-.22,4.08,4.08,0,0,1,1.3.22,3.8,3.8,0,0,1,1.11.63,3,3,0,0,1,.74,1,2.57,2.57,0,0,1,.26,1.14v.17Z"/><path d="M177.17,269h3.68v2.25h-6.06v-9.35h2.38Z"/><path d="M188.14,269.22v2h-6.36v-9.35H188v2h-3.85v1.64h3.24v2h-3.24v1.64Z"/><path d="M196.24,261.89v2.38h-2.39v7h-2.39v-7h-2.4v-2.38h7.18Z"/><path d="M204.21,261.89v2.38h-2.39v7h-2.39v-7H197v-2.38h7.17Z"/><path d="M211.5,269.22v2h-6.36v-9.35h6.24v2h-3.85v1.64h3.24v2h-3.24v1.64Z"/><path d="M220.19,271.24h-2.4l-1.48-3.53h-1.52v3.53h-2.23v-9.35H217a2.89,2.89,0,0,1,2.52,1.46,2.82,2.82,0,0,1,.39,1.45,2.94,2.94,0,0,1-.35,1.4,3.14,3.14,0,0,1-1,1.05Zm-2.63-7.12a.91.91,0,0,0-.63-.31h-2.19v2h2.19a.92.92,0,0,0,.63-.32,1,1,0,0,0,.25-.68A1,1,0,0,0,217.56,264.12Z"/><path d="M229.81,262l3.06,9.26h-2.3l-.61-1.89h-2.9l-.59,1.89h-2.32l3.07-9.26Zm-2.13,5.44h1.67l-.83-2.62Z"/><path d="M235.51,269h3.68v2.25h-6.06v-9.35h2.38Z"/><path d="M242.49,269h3.68v2.25h-6.06v-9.35h2.38Z"/><path d="M253.93,262.53a4.75,4.75,0,0,1,1.72,6.46,4.73,4.73,0,0,1-1.72,1.72,4.63,4.63,0,0,1-2.37.64,4.68,4.68,0,0,1-2.37-.64,4.76,4.76,0,0,1-1.73-1.72,4.61,4.61,0,0,1-.63-2.36,4.68,4.68,0,0,1,2.36-4.1,4.58,4.58,0,0,1,2.37-.64A4.53,4.53,0,0,1,253.93,262.53Zm-1.15,6.2a2.53,2.53,0,0,0,.89-.89,2.32,2.32,0,0,0,.33-1.21,2.39,2.39,0,0,0-.33-1.23,2.53,2.53,0,0,0-.89-.89,2.42,2.42,0,0,0-2.44,0,2.53,2.53,0,0,0-.89.89,2.39,2.39,0,0,0-.33,1.23,2.32,2.32,0,0,0,.33,1.21,2.53,2.53,0,0,0,.89.89,2.42,2.42,0,0,0,2.44,0Z"/><path d="M264.6,261.89h2.06v9.35h-2.38l-2.4-4-2.42,4h-2.38v-9.35h2.38v5.28l1.16-2.12.07-.1h2.38l.05.1,1.16,2.12v-5.28Z"/><path d="M272,264.85v-.17a.84.84,0,0,0-.32-.65,1.2,1.2,0,0,0-.79-.27,1.24,1.24,0,0,0-.81.27.8.8,0,0,0-.34.65.6.6,0,0,0,.34.57,2.94,2.94,0,0,0,.9.37l.21,0,.23,0a4.64,4.64,0,0,1,1.89.78l.12.11a3,3,0,0,1,.63.91,2.59,2.59,0,0,1,0,2.2,2.85,2.85,0,0,1-.75,1,3.56,3.56,0,0,1-1.11.63,3.89,3.89,0,0,1-2.58,0,3.8,3.8,0,0,1-1.11-.63,3.13,3.13,0,0,1-.75-1,2.57,2.57,0,0,1-.26-1.14v-.17h2.31v.17a.84.84,0,0,0,.32.65,1.19,1.19,0,0,0,.78.27,1.26,1.26,0,0,0,.81-.27.8.8,0,0,0,.34-.65.76.76,0,0,0-.36-.58,1.46,1.46,0,0,0-.37-.2,4.76,4.76,0,0,0-.52-.16l-.43-.11a11,11,0,0,1-1.14-.33,2.09,2.09,0,0,1-.75-.45l-.06-.05a2.89,2.89,0,0,1-.69-.92,2.61,2.61,0,0,1,0-2.23,3.13,3.13,0,0,1,.75-1,3.8,3.8,0,0,1,1.11-.63,3.89,3.89,0,0,1,2.58,0,3.56,3.56,0,0,1,1.11.63,2.85,2.85,0,0,1,.75,1,2.71,2.71,0,0,1,.26,1.14v.17Z"/><path d="M284,261.89h2.38l-2.75,5.54v3.81h-2.38v-3.81l-2.75-5.54h2.38l1.56,3.19Z"/><path d="M293.75,262.53a4.74,4.74,0,0,1,2.36,4.1,4.52,4.52,0,0,1-.64,2.36,4.72,4.72,0,0,1-6.46,1.72,4.73,4.73,0,0,1-1.72-1.72,4.62,4.62,0,0,1-.64-2.36,4.74,4.74,0,0,1,2.36-4.1,4.59,4.59,0,0,1,2.38-.64A4.52,4.52,0,0,1,293.75,262.53Zm-1.15,6.2a2.53,2.53,0,0,0,.89-.89,2.32,2.32,0,0,0,.33-1.21,2.39,2.39,0,0,0-.33-1.23,2.53,2.53,0,0,0-.89-.89,2.32,2.32,0,0,0-1.21-.33,2.41,2.41,0,0,0-1.23.33,2.53,2.53,0,0,0-.89.89,2.39,2.39,0,0,0-.33,1.23,2.32,2.32,0,0,0,.33,1.21,2.53,2.53,0,0,0,.89.89,2.41,2.41,0,0,0,1.23.33A2.32,2.32,0,0,0,292.6,268.73Z"/><path d="M304.5,261.9v5.78a3.58,3.58,0,0,1-.49,1.85,3.72,3.72,0,0,1-1.35,1.35,3.64,3.64,0,0,1-1.86.49h-.21a3.58,3.58,0,0,1-1.85-.49,3.69,3.69,0,0,1-1.34-1.35,3.59,3.59,0,0,1-.5-1.85V261.9h2.21v5.25a2.25,2.25,0,0,0,.4,1.37,1.26,1.26,0,0,0,1.08.54h.21a1.29,1.29,0,0,0,1.08-.55,2.18,2.18,0,0,0,.41-1.36V261.9Z"/><path d="M316.58,261.89v2.38h-2.4v7h-2.39v-7H309.4v-2.38h7.18Z"/><path d="M324.34,262.53a4.7,4.7,0,0,1,2.35,4.1,4.61,4.61,0,0,1-.63,2.36,4.81,4.81,0,0,1-1.72,1.72,4.73,4.73,0,0,1-6.47-6.46,4.61,4.61,0,0,1,1.73-1.72,4.71,4.71,0,0,1,4.74,0Zm-1.15,6.2a2.5,2.5,0,0,0,.88-.89,2.32,2.32,0,0,0,.33-1.21,2.39,2.39,0,0,0-.33-1.23,2.5,2.5,0,0,0-.88-.89,2.42,2.42,0,0,0-2.44,0,2.48,2.48,0,0,0-.9.89,2.39,2.39,0,0,0-.33,1.23,2.32,2.32,0,0,0,.33,1.21,2.48,2.48,0,0,0,.9.89,2.42,2.42,0,0,0,2.44,0Z"/><path d="M38.75,285.08v2H32.4v-9.35h6.24v2H34.79v1.64H38v2H34.79v1.64Z"/><path d="M44.08,280.72v-.17a.81.81,0,0,0-.32-.66,1.2,1.2,0,0,0-.79-.27,1.26,1.26,0,0,0-.81.27.81.81,0,0,0-.34.66.62.62,0,0,0,.35.57,2.94,2.94,0,0,0,.9.37l.2,0,.23.05a4.51,4.51,0,0,1,1.89.78l.12.1a2.79,2.79,0,0,1,.63.92,2.66,2.66,0,0,1,.23,1.06,2.49,2.49,0,0,1-.26,1.13,3,3,0,0,1-.74,1,3.8,3.8,0,0,1-1.11.63,4.07,4.07,0,0,1-1.3.21,4,4,0,0,1-1.29-.21,3.63,3.63,0,0,1-1.1-.63,3.05,3.05,0,0,1-.76-1,2.63,2.63,0,0,1-.26-1.13v-.18h2.31v.18a.82.82,0,0,0,.33.65,1.15,1.15,0,0,0,.77.27,1.24,1.24,0,0,0,.81-.27.8.8,0,0,0,.34-.65.77.77,0,0,0-.36-.59,1.29,1.29,0,0,0-.37-.19,3.45,3.45,0,0,0-.51-.16l-.44-.11q-.72-.18-1.14-.33a2.42,2.42,0,0,1-.75-.45l0-.05a3,3,0,0,1-.7-.93,2.51,2.51,0,0,1-.24-1.08,2.64,2.64,0,0,1,.26-1.14,3,3,0,0,1,.76-1,3.25,3.25,0,0,1,1.1-.63A3.72,3.72,0,0,1,43,277.6a3.82,3.82,0,0,1,1.3.22,3.4,3.4,0,0,1,1.11.63,3,3,0,0,1,.74,1,2.51,2.51,0,0,1,.26,1.14v.17Z"/><path d="M54.21,277.76v2.38H51.82v7H49.43v-7H47v-2.38h7.18Z"/><path d="M60,277.85l3.06,9.26h-2.3l-.61-1.89h-2.9l-.59,1.89H54.34l3.07-9.26Zm-2.12,5.44h1.66l-.83-2.62Z"/><path d="M70.37,283.16a2.65,2.65,0,0,1,.3,1.25,2.65,2.65,0,0,1-1.33,2.32,2.74,2.74,0,0,1-1.35.38H63.32v-9.36h4.25a2.55,2.55,0,0,1,1.36.37,2.79,2.79,0,0,1,1,1,2.67,2.67,0,0,1,.35,1.33,2.5,2.5,0,0,1-.19,1,2.47,2.47,0,0,1-.51.82A2.71,2.71,0,0,1,70.37,283.16ZM67.9,280a.92.92,0,0,0-.68-.29H65.5v2h1.72l.32-.06a.72.72,0,0,0,.24-.13,1,1,0,0,0,.3-.36,1,1,0,0,0,.11-.46A.94.94,0,0,0,67.9,280Zm.4,4.93a.9.9,0,0,0,.27-.7,1,1,0,0,0-.79-1H65.5v2h2.12A1,1,0,0,0,68.3,284.88Z"/><path d="M73.85,284.86h3.67v2.25h-6v-9.35h2.38Z"/><path d="M80.83,277.76v9.35H78.45v-9.35Z"/><path d="M86.16,280.72v-.17a.82.82,0,0,0-.33-.66,1.17,1.17,0,0,0-.78-.27,1.28,1.28,0,0,0-.82.27.82.82,0,0,0-.33.66.62.62,0,0,0,.34.57,2.94,2.94,0,0,0,.9.37l.2,0,.24.05a4.64,4.64,0,0,1,1.89.78l.11.1a2.79,2.79,0,0,1,.63.92,2.5,2.5,0,0,1,.23,1.06,2.62,2.62,0,0,1-.25,1.13,3,3,0,0,1-.75,1,3.8,3.8,0,0,1-1.11.63,4.07,4.07,0,0,1-1.3.21,4,4,0,0,1-1.29-.21,3.75,3.75,0,0,1-1.1-.63,2.89,2.89,0,0,1-.75-1,2.51,2.51,0,0,1-.27-1.13v-.18h2.32v.18a.81.81,0,0,0,.32.65,1.17,1.17,0,0,0,.77.27,1.28,1.28,0,0,0,.82-.27.82.82,0,0,0,.33-.65.78.78,0,0,0-.35-.59,1.43,1.43,0,0,0-.37-.19,3.61,3.61,0,0,0-.52-.16l-.44-.11a11.45,11.45,0,0,1-1.13-.33,2.35,2.35,0,0,1-.76-.45l0-.05a2.82,2.82,0,0,1-.69-.93,2.38,2.38,0,0,1-.25-1.08,2.52,2.52,0,0,1,.27-1.14,2.85,2.85,0,0,1,.75-1,3.35,3.35,0,0,1,1.1-.63A3.72,3.72,0,0,1,85,277.6a3.82,3.82,0,0,1,1.3.22,3.4,3.4,0,0,1,1.11.63,3,3,0,0,1,.75,1,2.63,2.63,0,0,1,.25,1.14v.17Z"/><path d="M94.29,277.76h2.38v9.35H94.29v-3.49H91.62v3.49H89.24v-9.35h2.38v3.48h2.67Z"/><path d="M107.09,284.71a2.67,2.67,0,0,0,.79-.53l1.61,1.62a4.71,4.71,0,0,1-5.71.75,4.81,4.81,0,0,1-1.72-1.72,4.62,4.62,0,0,1-.63-2.37,4.67,4.67,0,0,1,.63-2.37,4.81,4.81,0,0,1,1.72-1.72,4.69,4.69,0,0,1,4.19-.27,4.62,4.62,0,0,1,1.52,1l-1.61,1.61a2.64,2.64,0,0,0-.79-.52,2.42,2.42,0,0,0-2.16.14,2.5,2.5,0,0,0-.88.89,2.4,2.4,0,0,0-.33,1.22,2.33,2.33,0,0,0,.33,1.22,2.5,2.5,0,0,0,.88.89,2.35,2.35,0,0,0,1.22.33A2.54,2.54,0,0,0,107.09,284.71Z"/><path d="M117.12,278.39a4.77,4.77,0,0,1,2.36,4.1,4.63,4.63,0,0,1-.64,2.37,4.73,4.73,0,0,1-1.72,1.72,4.61,4.61,0,0,1-2.36.63,4.68,4.68,0,0,1-2.38-.63,4.81,4.81,0,0,1-1.72-1.72,4.53,4.53,0,0,1-.64-2.37,4.58,4.58,0,0,1,.64-2.37,4.76,4.76,0,0,1,1.72-1.73,4.68,4.68,0,0,1,2.38-.63A4.61,4.61,0,0,1,117.12,278.39Zm-1.15,6.2a2.5,2.5,0,0,0,.89-.88,2.42,2.42,0,0,0,0-2.44,2.45,2.45,0,0,0-.89-.89,2.32,2.32,0,0,0-1.21-.33,2.41,2.41,0,0,0-1.23.33,2.45,2.45,0,0,0-.89.89,2.42,2.42,0,0,0,0,2.44,2.5,2.5,0,0,0,.89.88,2.41,2.41,0,0,0,1.23.33A2.32,2.32,0,0,0,116,284.59Z"/><path d="M127.48,277.76h2.38v9.35h-2.38v-5.28L126.31,284l0,.1h-2.38l-.07-.1-.16-.31-1-1.81v5.28h-2.39v-9.35h2.39l2.41,4Z"/><path d="M138.12,277.76h2.38v9.35h-2.38v-5.28L137,284l-.06.1h-2.38l-.06-.1-.16-.31-1-1.81v5.28h-2.4v-9.35h2.4l2.4,4Z"/><path d="M149.16,277.77v5.78a3.59,3.59,0,0,1-.5,1.85,3.69,3.69,0,0,1-1.35,1.34,3.59,3.59,0,0,1-1.85.5h-.21a3.65,3.65,0,0,1-1.86-.5,3.74,3.74,0,0,1-1.34-1.34,3.58,3.58,0,0,1-.49-1.85v-5.78h2.2V283a2.26,2.26,0,0,0,.4,1.36,1.29,1.29,0,0,0,1.09.54h.21a1.28,1.28,0,0,0,1.07-.54A2.18,2.18,0,0,0,147,283v-5.25Z"/><path d="M155.36,277.76h2.38v9.35h-2.38l-2.75-5v5h-2.39v-9.35h2.39l2.75,5Z"/><path d="M161.18,277.76v9.35H158.8v-9.35Z"/><path d="M167.63,284.71a2.67,2.67,0,0,0,.79-.53L170,285.8a4.75,4.75,0,0,1-3.35,1.39,4.74,4.74,0,0,1-4.08-2.36,4.53,4.53,0,0,1-.64-2.37,4.58,4.58,0,0,1,.64-2.37,4.65,4.65,0,0,1,1.72-1.72,4.52,4.52,0,0,1,2.36-.64,4.57,4.57,0,0,1,1.83.37,4.73,4.73,0,0,1,1.52,1l-1.62,1.61a2.64,2.64,0,0,0-.79-.52,2.4,2.4,0,0,0-2.15.14,2.45,2.45,0,0,0-.89.89,2.4,2.4,0,0,0-.33,1.22,2.33,2.33,0,0,0,.33,1.22,2.45,2.45,0,0,0,.89.89,2.32,2.32,0,0,0,1.21.33A2.5,2.5,0,0,0,167.63,284.71Z"/><path d="M175.7,277.85l3.05,9.26h-2.3l-.61-1.89H173l-.6,1.89H170l3.06-9.26Zm-2.13,5.44h1.66l-.83-2.62Z"/><path d="M186.06,277.76v2.38h-2.39v7h-2.39v-7h-2.4v-2.38h7.18Z"/><path d="M189.37,277.76v9.35H187v-9.35Z"/><path d="M197.26,278.39a4.76,4.76,0,0,1,1.72,1.73,4.67,4.67,0,0,1,.63,2.37,4.62,4.62,0,0,1-.63,2.37,4.81,4.81,0,0,1-1.72,1.72,4.62,4.62,0,0,1-2.37.63,4.67,4.67,0,0,1-2.37-.63,4.83,4.83,0,0,1-1.73-1.72,4.62,4.62,0,0,1-.63-2.37,4.67,4.67,0,0,1,.63-2.37,4.78,4.78,0,0,1,1.73-1.73,4.67,4.67,0,0,1,2.37-.63A4.62,4.62,0,0,1,197.26,278.39Zm-1.15,6.2a2.5,2.5,0,0,0,.89-.88,2.42,2.42,0,0,0,0-2.44,2.45,2.45,0,0,0-.89-.89,2.35,2.35,0,0,0-1.22-.33,2.38,2.38,0,0,0-1.22.33,2.45,2.45,0,0,0-.89.89,2.42,2.42,0,0,0,0,2.44,2.5,2.5,0,0,0,.89.88,2.38,2.38,0,0,0,1.22.33A2.35,2.35,0,0,0,196.11,284.59Z"/><path d="M205.55,277.76h2.38v9.35h-2.38l-2.75-5v5h-2.39v-9.35h2.39l2.75,5Z"/><path d="M220.48,277.76h2.06v9.35h-2.38l-2.41-4-2.42,4H213v-9.35h2.37V283l1.17-2.11.06-.11h2.38l.06.11,1.16,2.11v-5.27Z"/><path d="M226,277.76v9.35H223.6v-9.35Z"/><path d="M234.08,277.76v2.38h-2.39v7H229.3v-7h-2.4v-2.38h7.18Z"/><path d="M240.06,277.76h2.38v9.35h-2.38v-3.49h-2.67v3.49H235v-9.35h2.38v3.48h2.67Z"/><path d="M254.51,277.76v2.38h-2.39v7h-2.39v-7h-2.4v-2.38h7.18Z"/><path d="M260.49,277.76h2.38v9.35h-2.38v-3.49h-2.67v3.49h-2.38v-9.35h2.38v3.48h2.67Z"/><path d="M270.29,285.08v2h-6.36v-9.35h6.24v2h-3.85v1.64h3.24v2h-3.24v1.64Z"/><path d="M280.18,277.85l3.05,9.26h-2.3l-.61-1.89h-2.89l-.6,1.89h-2.31l3.06-9.26Zm-2.13,5.44h1.66l-.83-2.62Z"/><path d="M291.1,277.77v5.78a3.59,3.59,0,0,1-.5,1.85,3.69,3.69,0,0,1-1.35,1.34,3.64,3.64,0,0,1-1.85.5h-.22a3.62,3.62,0,0,1-1.85-.5A3.74,3.74,0,0,1,284,285.4a3.59,3.59,0,0,1-.5-1.85v-5.78h2.21V283a2.19,2.19,0,0,0,.4,1.36,1.26,1.26,0,0,0,1.08.54h.22a1.28,1.28,0,0,0,1.07-.54,2.18,2.18,0,0,0,.42-1.36v-5.25Z"/><path d="M296.25,277.72a5.8,5.8,0,0,1,1.41.34,4.11,4.11,0,0,1,1.29.81,4.38,4.38,0,0,1,1.14,1.61,4.77,4.77,0,0,1,.41,1.92,4.47,4.47,0,0,1-.52,2.15,4.29,4.29,0,0,1-1.44,1.66,5.16,5.16,0,0,1-1.91.75,14.92,14.92,0,0,1-2.36.17h-2.11v-9.46h2.39C295.21,277.65,295.78,277.68,296.25,277.72Zm2,4.68a2.44,2.44,0,0,0-.31-1.2,2.5,2.5,0,0,0-.87-.9,2.31,2.31,0,0,0-1.2-.36h-1.29v4.88a10.8,10.8,0,0,0,1.63-.11,2.82,2.82,0,0,0,1.23-.53,2,2,0,0,0,.75-1.22A3,3,0,0,0,298.22,282.4Z"/><path d="M303.67,277.76v9.35h-2.38v-9.35Z"/><path d="M311.09,285.08v2h-6.36v-9.35H311v2h-3.85v1.64h3.24v2h-3.24v1.64Z"/><path d="M317.29,277.76h2.38v9.35h-2.38l-2.75-5v5h-2.39v-9.35h2.39l2.75,5Z"/><path d="M326.12,284.71a2.72,2.72,0,0,0,.8-.53l1.61,1.62a4.75,4.75,0,0,1-3.35,1.39,4.74,4.74,0,0,1-4.08-2.36,4.53,4.53,0,0,1-.64-2.37,4.58,4.58,0,0,1,.64-2.37,4.65,4.65,0,0,1,1.72-1.72,4.69,4.69,0,0,1,4.19-.27,4.73,4.73,0,0,1,1.52,1l-1.61,1.61a2.69,2.69,0,0,0-.8-.52,2.4,2.4,0,0,0-2.15.14,2.53,2.53,0,0,0-.89.89,2.4,2.4,0,0,0-.33,1.22,2.33,2.33,0,0,0,.33,1.22,2.53,2.53,0,0,0,.89.89,2.32,2.32,0,0,0,1.21.33A2.5,2.5,0,0,0,326.12,284.71Z"/><path d="M335.68,285.08v2h-6.36v-9.35h6.24v2h-3.85v1.64H335v2h-3.24v1.64Z"/><path d="M337.19,285.48h2.23l-1,3h-2Z"/><path d="M39.44,293.63V296H37.05v7H34.66v-7h-2.4v-2.37h7.18Z"/><path d="M46.73,301v2H40.37v-9.34h6.24v2H42.76v1.64H46v2H42.76V301Z"/><path d="M50.17,300.73h3.67V303H47.79v-9.34h2.38Z"/><path d="M57.15,300.73h3.67V303h-6v-9.34h2.38Z"/><path d="M72.76,293.63V296H70.37v7H68v-7h-2.4v-2.37h7.18Z"/><path d="M78.74,293.63h2.38V303H78.74v-3.49H76.07V303H73.69v-9.34h2.38v3.47h2.67Z"/><path d="M88.54,301v2H82.18v-9.34h6.24v2H84.57v1.64h3.24v2H84.57V301Z"/><path d="M96.8,293.63h2.38V303H96.8V297.7l-1.16,2.11-.06.11H93.2l-.06-.11-.16-.3-1-1.81V303h-2.4v-9.34H92l2.4,4Z"/><path d="M109.07,293.72l3.06,9.25h-2.31l-.6-1.89h-2.9l-.6,1.89h-2.31l3.07-9.25Zm-2.13,5.43h1.67l-.84-2.62Z"/><path d="M119.44,299a2.65,2.65,0,0,1,.3,1.25,2.61,2.61,0,0,1-.36,1.34,2.68,2.68,0,0,1-1,1,2.73,2.73,0,0,1-1.35.37h-4.67v-9.35h4.24A2.65,2.65,0,0,1,118,294a2.7,2.7,0,0,1,1,1,2.56,2.56,0,0,1,.35,1.32,2.65,2.65,0,0,1-.18,1,2.54,2.54,0,0,1-.52.83A2.65,2.65,0,0,1,119.44,299ZM117,295.81a.93.93,0,0,0-.68-.28h-1.72v2h1.72l.32-.05a.8.8,0,0,0,.23-.13,1,1,0,0,0,.31-.36,1,1,0,0,0,.1-.46A.94.94,0,0,0,117,295.81Zm.4,4.94a.91.91,0,0,0,.27-.7,1,1,0,0,0-.23-.63.93.93,0,0,0-.57-.33s-.67,0-1.87,0h-.4v2h2.12A1,1,0,0,0,117.37,300.75Z"/><path d="M127.37,294.26a4.68,4.68,0,0,1,1.72,1.73,4.62,4.62,0,0,1,.63,2.37,4.67,4.67,0,0,1-2.35,4.08,4.53,4.53,0,0,1-2.37.64,4.58,4.58,0,0,1-2.37-.64,4.73,4.73,0,0,1-1.73-1.71,4.67,4.67,0,0,1-.63-2.37,4.62,4.62,0,0,1,.63-2.37,4.71,4.71,0,0,1,4.1-2.36A4.62,4.62,0,0,1,127.37,294.26Zm-1.15,6.2a2.58,2.58,0,0,0,.89-.88,2.42,2.42,0,0,0,0-2.44,2.56,2.56,0,0,0-.89-.9,2.42,2.42,0,0,0-2.44,0,2.48,2.48,0,0,0-.89.9,2.42,2.42,0,0,0,0,2.44,2.5,2.5,0,0,0,.89.88,2.42,2.42,0,0,0,2.44,0Z"/><path d="M138.12,293.64v5.78a3.62,3.62,0,0,1-.5,1.85,3.69,3.69,0,0,1-1.35,1.34,3.59,3.59,0,0,1-1.85.5h-.21a3.65,3.65,0,0,1-1.86-.5,3.74,3.74,0,0,1-1.34-1.34,3.61,3.61,0,0,1-.49-1.85v-5.78h2.2v5.25a2.28,2.28,0,0,0,.4,1.36,1.29,1.29,0,0,0,1.09.54h.21a1.26,1.26,0,0,0,1.07-.55,2.13,2.13,0,0,0,.42-1.35v-5.25Z"/><path d="M146.22,293.63V296h-2.39v7h-2.39v-7H139v-2.37h7.18Z"/><path d="M156,293.72,159,303h-2.3l-.61-1.89h-2.9l-.59,1.89h-2.32l3.07-9.25Zm-2.13,5.43h1.67l-.83-2.62Z"/><path d="M168.41,293.63h2.38V303h-2.38l-2.75-5v5h-2.39v-9.34h2.39l2.75,5Z"/><path d="M178.21,301v2h-6.36v-9.34h6.24v2h-3.85v1.64h3.24v2h-3.24V301Z"/><path d="M186.79,293.63h2.06V303h-2.38l-2.4-4-2.42,4h-2.38v-9.34h2.38v5.27l1.16-2.11.07-.11h2.38l.05.11,1.16,2.11v-5.27Z"/><path d="M199.79,294a2.89,2.89,0,0,1,1.06,1.05,2.85,2.85,0,0,1,.39,1.46,2.87,2.87,0,0,1-1.45,2.52,2.83,2.83,0,0,1-1.46.39h-2.22V303h-2.23v-9.34h4.45A2.83,2.83,0,0,1,199.79,294Zm-.91,1.83a.91.91,0,0,0-.63-.31h-2.19v2h2.19a.89.89,0,0,0,.63-.33,1,1,0,0,0,.26-.68A1,1,0,0,0,198.88,295.85Z"/><path d="M209.66,303h-2.39l-1.48-3.53h-1.52V303H202v-9.34h4.46a2.82,2.82,0,0,1,1.45.39,2.89,2.89,0,0,1,1.46,2.51,2.81,2.81,0,0,1-.36,1.4,3,3,0,0,1-1,1.05ZM207,295.85a.89.89,0,0,0-.62-.31h-2.19v2h2.19a1,1,0,0,0,.62-.33,1,1,0,0,0,.25-.68A1,1,0,0,0,207,295.85Z"/><path d="M217.29,294.26A4.68,4.68,0,0,1,219,296a4.63,4.63,0,0,1,.64,2.37,4.71,4.71,0,0,1-2.36,4.08,4.52,4.52,0,0,1-2.36.64,4.59,4.59,0,0,1-2.38-.64,4.7,4.7,0,0,1-1.72-1.71,4.58,4.58,0,0,1-.64-2.37,4.53,4.53,0,0,1,.64-2.37,4.68,4.68,0,0,1,4.1-2.36A4.61,4.61,0,0,1,217.29,294.26Zm-1.15,6.2a2.5,2.5,0,0,0,.89-.88,2.42,2.42,0,0,0,0-2.44,2.48,2.48,0,0,0-.89-.9,2.32,2.32,0,0,0-1.21-.33,2.39,2.39,0,0,0-1.23.33,2.48,2.48,0,0,0-.89.9,2.42,2.42,0,0,0,0,2.44,2.5,2.5,0,0,0,.89.88,2.39,2.39,0,0,0,1.23.33A2.32,2.32,0,0,0,216.14,300.46Z"/><path d="M225.34,293.6h2.21v5.78a3.61,3.61,0,0,1-.49,1.85,3.69,3.69,0,0,1-1.35,1.34,3.67,3.67,0,0,1-3.7,0,3.74,3.74,0,0,1-1.34-1.34,3.62,3.62,0,0,1-.5-1.85V299h2.21a2.09,2.09,0,0,0,.43,1.27,1.26,1.26,0,0,0,1.05.49,1.29,1.29,0,0,0,1.07-.55,2.13,2.13,0,0,0,.41-1.35Z"/><path d="M235,301v2h-6.36v-9.34h6.24v2H231v1.64h3.24v2H231V301Z"/><path d="M241.42,300.57a2.51,2.51,0,0,0,.8-.52l1.61,1.61a4.6,4.6,0,0,1-1.52,1,4.67,4.67,0,0,1-1.83.36,4.61,4.61,0,0,1-2.36-.63,4.73,4.73,0,0,1-1.72-1.72,4.53,4.53,0,0,1-.64-2.37,4.58,4.58,0,0,1,.64-2.37,4.68,4.68,0,0,1,1.72-1.73,4.61,4.61,0,0,1,2.36-.63,4.67,4.67,0,0,1,1.83.36,4.92,4.92,0,0,1,1.52,1l-1.61,1.61a2.69,2.69,0,0,0-.8-.52,2.4,2.4,0,0,0-2.15.14,2.45,2.45,0,0,0-.89.89,2.42,2.42,0,0,0,0,2.44,2.5,2.5,0,0,0,.89.88,2.32,2.32,0,0,0,2.15.14Z"/><path d="M251.67,293.63V296h-2.39v7h-2.4v-7h-2.39v-2.37h7.18Z"/><path d="M263.4,294.26a4.76,4.76,0,0,1,1.72,1.73,4.62,4.62,0,0,1,.63,2.37,4.67,4.67,0,0,1-.63,2.37,4.78,4.78,0,0,1-1.72,1.71,4.71,4.71,0,0,1-4.74,0,4.73,4.73,0,0,1,4.74-8.18Zm-1.15,6.2a2.47,2.47,0,0,0,.88-.88,2.42,2.42,0,0,0,0-2.44,2.45,2.45,0,0,0-.88-.9,2.43,2.43,0,0,0-3.33.9,2.36,2.36,0,0,0,0,2.44,2.44,2.44,0,0,0,3.33.88Z"/><path d="M274.17,303h-2.39l-1.48-3.53h-1.52V303h-2.24v-9.34H271a2.9,2.9,0,0,1,2.91,2.9,2.81,2.81,0,0,1-.36,1.4,3,3,0,0,1-1,1.05Zm-2.63-7.12a.89.89,0,0,0-.62-.31h-2.19v2h2.19a1,1,0,0,0,.62-.33,1,1,0,0,0,.25-.68A1,1,0,0,0,271.54,295.85Z"/><path d="M284.08,293.63h2.38V303h-2.38l-2.75-5v5h-2.4v-9.34h2.4l2.75,5Z"/><path d="M293.87,301v2h-6.36v-9.34h6.24v2h-3.84v1.64h3.24v2h-3.24V301Z"/><path d="M302.45,293.63h2.07V303h-2.38l-2.41-4-2.42,4h-2.38v-9.34h2.38v5.27l1.16-2.11.07-.11h2.38l.05.11,1.17,2.11v-5.27Z"/><path d="M309.85,296.59v-.17a.82.82,0,0,0-.33-.66,1.18,1.18,0,0,0-.79-.27,1.28,1.28,0,0,0-.81.27.83.83,0,0,0-.34.66.6.6,0,0,0,.35.56,2.71,2.71,0,0,0,.9.37l.2,0,.23.06a4.51,4.51,0,0,1,1.89.78l.12.1a2.75,2.75,0,0,1,.63.91,2.57,2.57,0,0,1,.23,1.06,2.63,2.63,0,0,1-.25,1.14,3.13,3.13,0,0,1-.75,1A3.4,3.4,0,0,1,310,303a3.82,3.82,0,0,1-1.3.22,3.72,3.72,0,0,1-1.29-.22,3.25,3.25,0,0,1-1.1-.63,3,3,0,0,1-.76-1,2.64,2.64,0,0,1-.26-1.14v-.17h2.31v.17a.82.82,0,0,0,.33.66,1.15,1.15,0,0,0,.77.27,1.24,1.24,0,0,0,.81-.27.81.81,0,0,0,.34-.66.77.77,0,0,0-.36-.58,1.43,1.43,0,0,0-.37-.2l-.51-.16-.44-.1c-.48-.13-.86-.24-1.13-.33a2.35,2.35,0,0,1-.76-.45l-.05-.06a3.08,3.08,0,0,1-.7-.92,2.54,2.54,0,0,1-.24-1.08,2.64,2.64,0,0,1,.26-1.14,3.05,3.05,0,0,1,.76-1,3.63,3.63,0,0,1,1.1-.63,4,4,0,0,1,1.29-.21,4.07,4.07,0,0,1,1.3.21,3.8,3.8,0,0,1,1.11.63,3.17,3.17,0,0,1,.75,1,2.63,2.63,0,0,1,.25,1.14v.17Z"/><path d="M323.94,293.63V296h-2.39v7h-2.4v-7h-2.39v-2.37h7.18Z"/><path d="M329.92,293.63h2.38V303h-2.38v-3.49h-2.67V303h-2.38v-9.34h2.38v3.47h2.67Z"/><path d="M338.22,293.72l3,9.25H339l-.6-1.89h-2.9l-.59,1.89h-2.32l3.07-9.25Zm-2.13,5.43h1.67l-.84-2.62Z"/><path d="M348.59,293.63V296h-2.4v7H343.8v-7h-2.39v-2.37h7.18Z"/><path d="M355.86,293.63V303h-2.38v-9.34Z"/><path d="M361.19,296.59v-.17a.82.82,0,0,0-.33-.66,1.17,1.17,0,0,0-.78-.27,1.28,1.28,0,0,0-.82.27.82.82,0,0,0-.33.66.59.59,0,0,0,.34.56,2.71,2.71,0,0,0,.9.37l.2,0,.23.06a4.63,4.63,0,0,1,1.9.78l.11.1a2.75,2.75,0,0,1,.63.91,2.57,2.57,0,0,1,.23,1.06,2.63,2.63,0,0,1-.25,1.14,3.13,3.13,0,0,1-.75,1,3.4,3.4,0,0,1-1.11.63,3.82,3.82,0,0,1-1.3.22,3.72,3.72,0,0,1-1.29-.22,3.35,3.35,0,0,1-1.1-.63,2.85,2.85,0,0,1-.75-1,2.52,2.52,0,0,1-.27-1.14v-.17H359v.17a.82.82,0,0,0,.33.66,1.15,1.15,0,0,0,.77.27,1.28,1.28,0,0,0,.82-.27.82.82,0,0,0,.33-.66.78.78,0,0,0-.35-.58,1.86,1.86,0,0,0-.37-.2l-.52-.16-.44-.1c-.48-.13-.86-.24-1.13-.33a2.35,2.35,0,0,1-.76-.45l-.05-.06a2.89,2.89,0,0,1-.69-.92,2.41,2.41,0,0,1-.25-1.08,2.52,2.52,0,0,1,.27-1.14,2.89,2.89,0,0,1,.75-1,3.75,3.75,0,0,1,1.1-.63,4,4,0,0,1,1.29-.21,4.07,4.07,0,0,1,1.3.21,3.8,3.8,0,0,1,1.11.63,3.17,3.17,0,0,1,.75,1,2.63,2.63,0,0,1,.25,1.14v.17Z"/><path d="M37.45,309.49h2.38v9.35H37.45v-3.49H34.78v3.49H32.4v-9.35h2.38V313h2.67Z"/><path d="M45.75,309.58l3,9.26H46.5L45.9,317H43l-.6,1.89H40.09l3.07-9.26ZM43.62,315h1.67l-.84-2.62Z"/><path d="M55,309.88a2.89,2.89,0,0,1,1,1.06,2.93,2.93,0,0,1,0,2.92,2.87,2.87,0,0,1-2.52,1.45H51.3v3.53H49.07v-9.35h4.45A2.89,2.89,0,0,1,55,309.88Zm-.92,1.84a.91.91,0,0,0-.62-.31h-2.2v2h2.2a.84.84,0,0,0,.62-.32,1,1,0,0,0,.26-.68A.93.93,0,0,0,54.07,311.72Z"/><path d="M63.14,309.88a2.91,2.91,0,0,1-1.46,5.43H59.46v3.53H57.23v-9.35h4.45A2.83,2.83,0,0,1,63.14,309.88Zm-.91,1.84a.91.91,0,0,0-.63-.31H59.41v2H61.6a.85.85,0,0,0,.63-.32,1,1,0,0,0,.26-.68A1,1,0,0,0,62.23,311.72Z"/><path d="M71.74,316.82v2H65.38v-9.35h6.25v2H67.78v1.64H71v2H67.78v1.64Z"/><path d="M78,309.49h2.38v9.35H78l-2.75-5v5H72.8v-9.35h2.4l2.75,5Z"/><path d="M83.76,309.49v9.35H81.38v-9.35Z"/><path d="M90,309.49h2.38v9.35H90l-2.75-5v5H84.82v-9.35h2.39l2.75,5Z"/><path d="M102.59,314.21a4.62,4.62,0,0,1-.63,2.37,4.76,4.76,0,0,1-1.73,1.72,4.67,4.67,0,0,1-2.37.63,4.62,4.62,0,0,1-2.37-.63,4.81,4.81,0,0,1-1.72-1.72,4.62,4.62,0,0,1-.63-2.37,4.67,4.67,0,0,1,.63-2.37,4.83,4.83,0,0,1,1.72-1.73,4.62,4.62,0,0,1,2.37-.63,4.55,4.55,0,0,1,1.84.37,4.81,4.81,0,0,1,1.52,1l-2.13,1.22a2.44,2.44,0,0,0-2.45,0,2.53,2.53,0,0,0-.89.89,2.42,2.42,0,0,0,0,2.44,2.58,2.58,0,0,0,.89.88,2.26,2.26,0,0,0,1.22.33,2.4,2.4,0,0,0,1.28-.36,2.47,2.47,0,0,0,.9-1H97.1v-2.19h5.36A4.89,4.89,0,0,1,102.59,314.21Z"/><path d="M109.73,309.49v9.35h-2.38v-9.35Z"/><path d="M115.93,309.49h2.38v9.35h-2.38l-2.75-5v5h-2.39v-9.35h2.39l2.75,5Z"/><path d="M130.38,309.49v2.38H128v7H125.6v-7h-2.4v-2.38h7.18Z"/><path d="M136.36,309.49h2.38v9.35h-2.38v-3.49h-2.67v3.49h-2.38v-9.35h2.38V313h2.67Z"/><path d="M146.16,316.82v2H139.8v-9.35H146v2h-3.85v1.64h3.24v2h-3.24v1.64Z"/><path d="M157.1,309.88a2.91,2.91,0,0,1,1.06,1.06,2.93,2.93,0,0,1,0,2.92,2.91,2.91,0,0,1-1.06,1.06,2.85,2.85,0,0,1-1.46.39h-2.22v3.53h-2.24v-9.35h4.46A2.85,2.85,0,0,1,157.1,309.88Zm-.91,1.84a1,1,0,0,0-.63-.31h-2.2v2h2.2a.88.88,0,0,0,.63-.32,1,1,0,0,0,.25-.68A1,1,0,0,0,156.19,311.72Z"/><path d="M167,318.84h-2.4l-1.48-3.53h-1.52v3.53h-2.23v-9.35h4.45a2.89,2.89,0,0,1,2.52,1.46,2.91,2.91,0,0,1,0,2.84,3.08,3.08,0,0,1-1,1.06Zm-2.63-7.12a.91.91,0,0,0-.63-.31h-2.19v2h2.19a.92.92,0,0,0,.63-.32,1,1,0,0,0,.25-.68A1,1,0,0,0,164.34,311.72Z"/><path d="M174.6,310.13a4.81,4.81,0,0,1,1.72,1.72,4.67,4.67,0,0,1,.63,2.37,4.62,4.62,0,0,1-.63,2.37,4.81,4.81,0,0,1-1.72,1.72,4.75,4.75,0,0,1-6.47-1.72,4.62,4.62,0,0,1-.63-2.37,4.68,4.68,0,0,1,2.36-4.09,4.71,4.71,0,0,1,4.74,0Zm-1.15,6.2a2.5,2.5,0,0,0,.88-.89,2.33,2.33,0,0,0,.33-1.22,2.4,2.4,0,0,0-.33-1.22,2.5,2.5,0,0,0-.88-.89,2.42,2.42,0,0,0-2.44,0,2.48,2.48,0,0,0-.9.89,2.4,2.4,0,0,0-.33,1.22,2.33,2.33,0,0,0,.33,1.22,2.48,2.48,0,0,0,.9.89,2.42,2.42,0,0,0,2.44,0Z"/><path d="M182.65,309.46h2.21v5.78a3.59,3.59,0,0,1-.5,1.85,3.69,3.69,0,0,1-1.34,1.35,3.74,3.74,0,0,1-3.7,0,3.72,3.72,0,0,1-1.35-1.35,3.58,3.58,0,0,1-.49-1.85v-.38h2.21a2.11,2.11,0,0,0,.42,1.26,1.3,1.3,0,0,0,1.06.5,1.26,1.26,0,0,0,1.06-.55,2.18,2.18,0,0,0,.42-1.36Z"/><path d="M192.27,316.82v2h-6.35v-9.35h6.24v2h-3.85v1.64h3.24v2h-3.24v1.64Z"/><path d="M198.73,316.44a2.64,2.64,0,0,0,.79-.52l1.61,1.61a4.81,4.81,0,0,1-1.52,1,4.78,4.78,0,0,1-4.19-.27,4.89,4.89,0,0,1-1.72-1.72,4.67,4.67,0,0,1-.63-2.37,4.62,4.62,0,0,1,.63-2.37,4.76,4.76,0,0,1,1.72-1.73,4.72,4.72,0,0,1,5.71.75l-1.61,1.62a2.67,2.67,0,0,0-.79-.53,2.54,2.54,0,0,0-.94-.19,2.35,2.35,0,0,0-1.22.33,2.45,2.45,0,0,0-.88.9,2.35,2.35,0,0,0-.33,1.22,2.38,2.38,0,0,0,.33,1.22,2.47,2.47,0,0,0,.88.88,2.42,2.42,0,0,0,2.16.14Z"/><path d="M209,309.49v2.38h-2.39v7h-2.39v-7h-2.4v-2.38H209Z"/><path d="M210,318.46a1.29,1.29,0,0,1-.35-.92,1.18,1.18,0,0,1,.36-.86,1.22,1.22,0,0,1,.87-.35,1.26,1.26,0,0,1,0,2.51A1.17,1.17,0,0,1,210,318.46Z"/><path d="M223.39,311.51h-4.13v1.64h3.31v2h-3.31v3.66h-2.38v-9.35h6.51Z"/><path d="M231,310.13a4.65,4.65,0,0,1,1.72,1.72,4.58,4.58,0,0,1,.64,2.37,4.53,4.53,0,0,1-.64,2.37,4.72,4.72,0,0,1-6.46,1.72,4.73,4.73,0,0,1-1.72-1.72,4.62,4.62,0,0,1-.63-2.37,4.67,4.67,0,0,1,.63-2.37,4.73,4.73,0,0,1,1.72-1.72,4.59,4.59,0,0,1,2.38-.64A4.52,4.52,0,0,1,231,310.13Zm-1.15,6.2a2.53,2.53,0,0,0,.89-.89,2.33,2.33,0,0,0,.33-1.22,2.4,2.4,0,0,0-.33-1.22,2.53,2.53,0,0,0-.89-.89,2.32,2.32,0,0,0-1.21-.33,2.41,2.41,0,0,0-1.23.33,2.53,2.53,0,0,0-.89.89,2.4,2.4,0,0,0-.33,1.22,2.33,2.33,0,0,0,.33,1.22,2.53,2.53,0,0,0,.89.89,2.41,2.41,0,0,0,1.23.33A2.32,2.32,0,0,0,229.86,316.33Z"/><path d="M241.79,318.84H239.4l-1.48-3.53H236.4v3.53h-2.24v-9.35h4.46a2.84,2.84,0,0,1,1.45.39,2.89,2.89,0,0,1,1.07,1.07,2.84,2.84,0,0,1,.39,1.45,2.77,2.77,0,0,1-.36,1.39,3.08,3.08,0,0,1-1,1.06Zm-2.63-7.12a.89.89,0,0,0-.62-.31h-2.2v2h2.2a.9.9,0,0,0,.62-.32,1,1,0,0,0,.25-.68A1,1,0,0,0,239.16,311.72Z"/><path d="M253.6,309.49v2.38h-2.4v7h-2.39v-7h-2.39v-2.38h7.18Z"/><path d="M259.57,309.49H262v9.35h-2.38v-3.49H256.9v3.49h-2.38v-9.35h2.38V313h2.67Z"/><path d="M269.37,316.82v2H263v-9.35h6.24v2h-3.84v1.64h3.23v2h-3.23v1.64Z"/><path d="M279.54,309.49h2.38v9.35h-2.38l-2.75-5v5H274.4v-9.35h2.39l2.75,5Z"/><path d="M289.34,316.82v2H283v-9.35h6.24v2h-3.85v1.64h3.24v2h-3.24v1.64Z"/><path d="M297.92,309.49H300v9.35H297.6l-2.41-4-2.42,4h-2.38v-9.35h2.38v5.28l1.17-2.12.06-.1h2.38l.06.1,1.16,2.12v-5.28Z"/><path d="M305.31,312.45v-.17a.82.82,0,0,0-.33-.65,1.16,1.16,0,0,0-.78-.27,1.28,1.28,0,0,0-.82.27.82.82,0,0,0-.33.65.6.6,0,0,0,.34.57,2.94,2.94,0,0,0,.9.37l.21,0,.23.05a4.64,4.64,0,0,1,1.89.78l.12.11a3.08,3.08,0,0,1,.63.91,2.7,2.7,0,0,1,.23,1.06,2.64,2.64,0,0,1-.26,1.14,2.85,2.85,0,0,1-.75,1,3.8,3.8,0,0,1-1.11.63,4,4,0,0,1-1.3.22,4,4,0,0,1-1.28-.22,3.8,3.8,0,0,1-1.11-.63,3,3,0,0,1-.75-1,2.52,2.52,0,0,1-.27-1.14V316h2.32v.17a.84.84,0,0,0,.32.65,1.17,1.17,0,0,0,.77.27,1.28,1.28,0,0,0,.82-.27.82.82,0,0,0,.33-.65.74.74,0,0,0-.35-.58,1.46,1.46,0,0,0-.37-.2c-.14-.05-.32-.11-.52-.16l-.43-.1c-.49-.13-.87-.24-1.14-.34a2,2,0,0,1-.75-.45l-.06,0a2.89,2.89,0,0,1-.69-.92,2.45,2.45,0,0,1-.25-1.09,2.55,2.55,0,0,1,.27-1.14,3,3,0,0,1,.75-1,3.8,3.8,0,0,1,1.11-.63,4,4,0,0,1,1.28-.22,4,4,0,0,1,1.3.22,3.8,3.8,0,0,1,1.11.63,2.85,2.85,0,0,1,.75,1,2.68,2.68,0,0,1,.26,1.14v.17Z"/><path d="M310.77,316.59h3.68v2.25h-6.06v-9.35h2.38Z"/><path d="M321.73,316.82v2h-6.36v-9.35h6.24v2h-3.85v1.64H321v2h-3.24v1.64Z"/><path d="M329.84,309.49v2.38h-2.4v7h-2.39v-7h-2.39v-2.38h7.18Z"/><path d="M337.81,309.49v2.38h-2.39v7H333v-7h-2.39v-2.38h7.18Z"/><path d="M345.09,316.82v2h-6.36v-9.35H345v2h-3.85v1.64h3.24v2h-3.24v1.64Z"/><path d="M353.78,318.84h-2.39l-1.48-3.53h-1.52v3.53h-2.24v-9.35h4.46a2.84,2.84,0,0,1,1.45.39,2.89,2.89,0,0,1,1.07,1.07,2.84,2.84,0,0,1,.39,1.45,2.77,2.77,0,0,1-.36,1.39,3.08,3.08,0,0,1-1,1.06Zm-2.63-7.12a.89.89,0,0,0-.62-.31h-2.2v2h2.2a.9.9,0,0,0,.62-.32,1,1,0,0,0,.25-.68A1,1,0,0,0,351.15,311.72Z"/><path d="M355,317.21h2.24l-1,3h-2Z"/><path d="M39.92,325.36H42v9.35H39.6l-2.4-4-2.42,4H32.4v-9.35h2.38v5.27l1.16-2.11.06-.11h2.38l.06.11,1.16,2.11v-5.27Z"/><path d="M49.4,332.68v2H43v-9.35h6.24v2H45.43V329h3.24v2H45.43v1.64Z"/><path d="M62,325.37v5.78a3.59,3.59,0,0,1-.5,1.85,3.69,3.69,0,0,1-1.35,1.34,3.65,3.65,0,0,1-1.86.5h-.21a3.59,3.59,0,0,1-1.85-.5A3.74,3.74,0,0,1,54.92,333a3.59,3.59,0,0,1-.5-1.85v-5.78h2.21v5.25A2.19,2.19,0,0,0,57,332a1.27,1.27,0,0,0,1.08.55h.21A1.32,1.32,0,0,0,59.4,332a2.18,2.18,0,0,0,.42-1.36v-5.25Z"/><path d="M67.35,328.32v-.17a.81.81,0,0,0-.32-.66,1.2,1.2,0,0,0-.79-.27,1.28,1.28,0,0,0-.81.27.83.83,0,0,0-.34.66.62.62,0,0,0,.35.57,2.94,2.94,0,0,0,.9.37l.2,0,.23.05a4.51,4.51,0,0,1,1.89.78l.12.11a2.81,2.81,0,0,1,.86,2,2.49,2.49,0,0,1-.26,1.13,3,3,0,0,1-.74,1,3.8,3.8,0,0,1-1.11.63,4.07,4.07,0,0,1-1.3.21,4,4,0,0,1-1.29-.21,3.63,3.63,0,0,1-1.1-.63,3.05,3.05,0,0,1-.76-1,2.63,2.63,0,0,1-.26-1.13v-.18h2.31V332a.82.82,0,0,0,.33.65,1.15,1.15,0,0,0,.77.27,1.24,1.24,0,0,0,.81-.27.8.8,0,0,0,.34-.65.77.77,0,0,0-.36-.59,1.6,1.6,0,0,0-.37-.19,3.45,3.45,0,0,0-.51-.16L65.7,331q-.72-.18-1.14-.33a2.42,2.42,0,0,1-.75-.45l-.05,0a3.12,3.12,0,0,1-.7-.93,2.51,2.51,0,0,1-.24-1.08,2.64,2.64,0,0,1,.26-1.14,3,3,0,0,1,.76-1,3.25,3.25,0,0,1,1.1-.63,3.72,3.72,0,0,1,1.29-.22,3.82,3.82,0,0,1,1.3.22,3.4,3.4,0,0,1,1.11.63,3,3,0,0,1,.74,1,2.51,2.51,0,0,1,.26,1.14v.17Z"/><path d="M76.79,332.68v2H70.43v-9.35h6.25v2H72.83V329h3.24v2H72.83v1.64Z"/><path d="M88.65,326a4.68,4.68,0,0,1,1.72,1.73,4.58,4.58,0,0,1,.64,2.37,4.53,4.53,0,0,1-.64,2.37,4.73,4.73,0,0,1-1.72,1.72,4.61,4.61,0,0,1-2.36.63,4.68,4.68,0,0,1-2.38-.63,4.81,4.81,0,0,1-1.72-1.72,4.63,4.63,0,0,1-.64-2.37,4.68,4.68,0,0,1,.64-2.37A4.76,4.76,0,0,1,83.91,326a4.68,4.68,0,0,1,2.38-.63A4.61,4.61,0,0,1,88.65,326Zm-1.15,6.2a2.5,2.5,0,0,0,.89-.88,2.42,2.42,0,0,0,0-2.44,2.45,2.45,0,0,0-.89-.89,2.32,2.32,0,0,0-1.21-.33,2.41,2.41,0,0,0-1.23.33,2.45,2.45,0,0,0-.89.89,2.42,2.42,0,0,0,0,2.44,2.5,2.5,0,0,0,.89.88,2.42,2.42,0,0,0,1.23.34A2.33,2.33,0,0,0,87.5,332.19Z"/><path d="M99.4,325.37v5.78a3.58,3.58,0,0,1-.49,1.85,3.69,3.69,0,0,1-1.35,1.34,3.65,3.65,0,0,1-1.86.5h-.21a3.59,3.59,0,0,1-1.85-.5A3.74,3.74,0,0,1,92.3,333a3.59,3.59,0,0,1-.5-1.85v-5.78H94v5.25a2.19,2.19,0,0,0,.4,1.36,1.27,1.27,0,0,0,1.08.55h.21a1.32,1.32,0,0,0,1.08-.55,2.18,2.18,0,0,0,.42-1.36v-5.25Z"/><path d="M108.09,334.71H105.7l-1.48-3.53H102.7v3.53h-2.24v-9.35h4.46a2.94,2.94,0,0,1,2.52,1.45,2.88,2.88,0,0,1,.39,1.46,2.8,2.8,0,0,1-.36,1.39,3,3,0,0,1-1,1Zm-2.63-7.12a.87.87,0,0,0-.62-.31h-2.2v2h2.2a1,1,0,0,0,.62-.32,1,1,0,0,0,.25-.69A1,1,0,0,0,105.46,327.59Z"/><path d="M119.21,332.68v2h-6.36v-9.35h6.24v2h-3.85V329h3.24v2h-3.24v1.64Z"/><path d="M120.14,329.13h4.27V331h-4.27Z"/><path d="M132.54,325.36h2.38v9.35h-2.38v-5.28l-1.17,2.12-.05.1h-2.38l-.06-.1-.16-.31-1-1.81v5.28h-2.39v-9.35h2.39l2.41,4Z"/><path d="M140.84,325.45l3.06,9.26h-2.31l-.6-1.89h-2.9l-.59,1.89h-2.32l3.07-9.26Zm-2.13,5.43h1.67l-.83-2.61Z"/><path d="M146.54,325.36v9.35h-2.38v-9.35Z"/><path d="M150,332.46h3.67v2.25H147.6v-9.35H150Z"/><path d="M162.64,325.33a5.35,5.35,0,0,1,1.41.33,4.23,4.23,0,0,1,1.29.81,4.65,4.65,0,0,1,1.15,1.61,4.93,4.93,0,0,1,.4,1.92,4.47,4.47,0,0,1-.52,2.15,4.23,4.23,0,0,1-1.45,1.66,4.87,4.87,0,0,1-1.9.74,13.74,13.74,0,0,1-2.36.18h-2.12v-9.46h2.4A16.3,16.3,0,0,1,162.64,325.33Zm2,4.67a2.44,2.44,0,0,0-.31-1.2,2.58,2.58,0,0,0-.87-.9,2.28,2.28,0,0,0-1.2-.36h-1.29v4.88a10.8,10.8,0,0,0,1.63-.11,2.82,2.82,0,0,0,1.23-.52,2.09,2.09,0,0,0,.75-1.24A2.8,2.8,0,0,0,164.61,330Z"/><path d="M172.55,325.45l3,9.26h-2.3l-.61-1.89H169.8l-.6,1.89h-2.31l3.07-9.26Zm-2.13,5.43h1.66l-.83-2.61Z"/><path d="M182.91,325.36v2.38h-2.39v7h-2.39v-7h-2.4v-2.38h7.18Z"/><path d="M188.71,325.45l3,9.26h-2.3l-.61-1.89H186l-.6,1.89h-2.31l3.06-9.26Zm-2.13,5.43h1.66l-.83-2.61Z"/><path d="M199.07,330.76a2.66,2.66,0,0,1,.31,1.25,2.61,2.61,0,0,1-.36,1.34,2.68,2.68,0,0,1-1,1,2.78,2.78,0,0,1-1.36.38H192v-9.36h4.25a2.63,2.63,0,0,1,1.36.36,2.81,2.81,0,0,1,1,1,2.67,2.67,0,0,1,.35,1.33,2.5,2.5,0,0,1-.19,1,2.47,2.47,0,0,1-.51.82A2.71,2.71,0,0,1,199.07,330.76Zm-2.46-3.21a.94.94,0,0,0-.69-.29h-1.71v2h1.71l.32-.06a.72.72,0,0,0,.24-.13,1,1,0,0,0,.3-.36,1,1,0,0,0,.11-.46A1,1,0,0,0,196.61,327.55Zm.39,4.94a.93.93,0,0,0,.27-.7,1,1,0,0,0-.79-1h-2.27v2h2.11A1,1,0,0,0,197,332.49Z"/><path d="M205,325.45l3.06,9.26h-2.3l-.61-1.89h-2.9l-.59,1.89h-2.31l3.06-9.26Zm-2.12,5.43h1.66l-.83-2.61Z"/><path d="M212.62,328.32v-.17a.81.81,0,0,0-.32-.66,1.2,1.2,0,0,0-.79-.27,1.26,1.26,0,0,0-.81.27.83.83,0,0,0-.34.66.62.62,0,0,0,.35.57,2.94,2.94,0,0,0,.9.37l.2,0,.23.05a4.51,4.51,0,0,1,1.89.78l.12.11a2.81,2.81,0,0,1,.86,2,2.49,2.49,0,0,1-.26,1.13,3,3,0,0,1-.74,1,3.8,3.8,0,0,1-1.11.63,4.07,4.07,0,0,1-1.3.21,4,4,0,0,1-1.29-.21,3.63,3.63,0,0,1-1.1-.63,3.05,3.05,0,0,1-.76-1,2.63,2.63,0,0,1-.26-1.13v-.18h2.31V332a.82.82,0,0,0,.33.65,1.15,1.15,0,0,0,.77.27,1.24,1.24,0,0,0,.81-.27.8.8,0,0,0,.34-.65.77.77,0,0,0-.36-.59,1.6,1.6,0,0,0-.37-.19,3.45,3.45,0,0,0-.51-.16L211,331q-.72-.18-1.14-.33a2.42,2.42,0,0,1-.75-.45l-.05,0a3.12,3.12,0,0,1-.7-.93,2.51,2.51,0,0,1-.24-1.08,2.64,2.64,0,0,1,.26-1.14,3,3,0,0,1,.76-1,3.25,3.25,0,0,1,1.1-.63,3.72,3.72,0,0,1,1.29-.22,3.82,3.82,0,0,1,1.3.22,3.4,3.4,0,0,1,1.11.63,3,3,0,0,1,.74,1,2.51,2.51,0,0,1,.26,1.14v.17Z"/><path d="M222.06,332.68v2h-6.35v-9.35H222v2H218.1V329h3.24v2H218.1v1.64Z"/><path d="M227,329.13h6.12V331H227Z"/><path d="M245,325.36v2.38h-2.4v7h-2.39v-7h-2.39v-2.38H245Z"/><path d="M251,325.36h2.38v9.35H251v-3.49h-2.67v3.49h-2.38v-9.35h2.38v3.48H251Z"/><path d="M256.81,325.36v9.35h-2.38v-9.35Z"/><path d="M262.14,328.32v-.17a.84.84,0,0,0-.32-.66,1.2,1.2,0,0,0-.79-.27,1.24,1.24,0,0,0-.81.27.81.81,0,0,0-.34.66.62.62,0,0,0,.34.57,2.94,2.94,0,0,0,.9.37l.21,0,.23.05a4.64,4.64,0,0,1,1.89.78l.12.11a3,3,0,0,1,.63.91,2.66,2.66,0,0,1,.23,1.06,2.63,2.63,0,0,1-.26,1.13,2.89,2.89,0,0,1-.75,1,3.56,3.56,0,0,1-1.11.63,4.07,4.07,0,0,1-2.58,0,3.8,3.8,0,0,1-1.11-.63,3.17,3.17,0,0,1-.75-1,2.49,2.49,0,0,1-.26-1.13v-.18h2.31V332a.84.84,0,0,0,.32.65,1.19,1.19,0,0,0,.78.27,1.28,1.28,0,0,0,.81-.27.83.83,0,0,0,.34-.65.77.77,0,0,0-.36-.59,1.84,1.84,0,0,0-.37-.19,3.25,3.25,0,0,0-.52-.16l-.43-.11a11,11,0,0,1-1.14-.33,2.42,2.42,0,0,1-.75-.45l-.06,0a2.93,2.93,0,0,1-.69-.93,2.59,2.59,0,0,1,0-2.22,3.13,3.13,0,0,1,.75-1,3.4,3.4,0,0,1,1.11-.63,3.89,3.89,0,0,1,2.58,0,3.21,3.21,0,0,1,1.11.63,2.85,2.85,0,0,1,.75,1,2.64,2.64,0,0,1,.26,1.14v.17Z"/><path d="M271.57,325.36v9.35h-2.38v-9.35Z"/><path d="M276.9,328.32v-.17a.82.82,0,0,0-.33-.66,1.17,1.17,0,0,0-.78-.27,1.28,1.28,0,0,0-.82.27.83.83,0,0,0-.34.66.62.62,0,0,0,.35.57,2.94,2.94,0,0,0,.9.37l.2,0,.23.05a4.63,4.63,0,0,1,1.9.78l.11.11a2.65,2.65,0,0,1,.63.91,2.57,2.57,0,0,1,0,2.19,3,3,0,0,1-.74,1,3.8,3.8,0,0,1-1.11.63,4.07,4.07,0,0,1-1.3.21,4,4,0,0,1-1.29-.21,3.63,3.63,0,0,1-1.1-.63,2.89,2.89,0,0,1-.75-1,2.51,2.51,0,0,1-.27-1.13v-.18h2.31V332a.82.82,0,0,0,.33.65,1.15,1.15,0,0,0,.77.27,1.24,1.24,0,0,0,.81-.27.8.8,0,0,0,.34-.65.78.78,0,0,0-.35-.59,1.84,1.84,0,0,0-.37-.19,4.06,4.06,0,0,0-.52-.16l-.44-.11a11.45,11.45,0,0,1-1.13-.33,2.35,2.35,0,0,1-.76-.45l-.05,0a2.93,2.93,0,0,1-.69-.93,2.38,2.38,0,0,1-.25-1.08,2.52,2.52,0,0,1,.27-1.14,2.85,2.85,0,0,1,.75-1,3.25,3.25,0,0,1,1.1-.63,3.72,3.72,0,0,1,1.29-.22,3.82,3.82,0,0,1,1.3.22,3.4,3.4,0,0,1,1.11.63,3,3,0,0,1,.74,1,2.51,2.51,0,0,1,.26,1.14v.17Z"/><path d="M286.4,325.36h1.09v9.35h-2.38V328.1l-1.3.41v-2.33l1.3-.41Z"/><path d="M294.07,326a4.35,4.35,0,0,1,1.4,1.72,5.35,5.35,0,0,1,.52,2.37,5.41,5.41,0,0,1-.52,2.37,4.28,4.28,0,0,1-1.4,1.72,3.23,3.23,0,0,1-3.86,0,4.38,4.38,0,0,1-1.41-1.72,5.41,5.41,0,0,1-.52-2.37,5.35,5.35,0,0,1,.52-2.37,4.45,4.45,0,0,1,1.41-1.72,3.27,3.27,0,0,1,3.86,0ZM293,332a2.06,2.06,0,0,0,.58-.81,2.94,2.94,0,0,0,.21-1.12,2.73,2.73,0,0,0-.22-1.12,2.17,2.17,0,0,0-.58-.82,1.23,1.23,0,0,0-.8-.3,1.27,1.27,0,0,0-.81.3,2.17,2.17,0,0,0-.58.82,2.73,2.73,0,0,0-.22,1.12,2.76,2.76,0,0,0,.22,1.12,2.06,2.06,0,0,0,.58.81,1.24,1.24,0,0,0,1.62,0Z"/><path d="M301.32,330l2.79,4.72h-2.65l-2.3-3.77v3.77h-2.38v-9.35h2.38V329l2.3-3.65h2.65Z"/><path d="M316.73,325.37v5.78a3.58,3.58,0,0,1-.49,1.85,3.69,3.69,0,0,1-1.35,1.34,3.65,3.65,0,0,1-1.86.5h-.21a3.59,3.59,0,0,1-1.85-.5,3.66,3.66,0,0,1-1.34-1.34,3.59,3.59,0,0,1-.5-1.85v-5.78h2.21v5.25a2.19,2.19,0,0,0,.4,1.36,1.27,1.27,0,0,0,1.08.55H313a1.32,1.32,0,0,0,1.08-.55,2.18,2.18,0,0,0,.41-1.36v-5.25Z"/><path d="M322.06,328.32v-.17a.84.84,0,0,0-.32-.66,1.2,1.2,0,0,0-.79-.27,1.24,1.24,0,0,0-.81.27.81.81,0,0,0-.34.66.63.63,0,0,0,.34.57,2.94,2.94,0,0,0,.9.37l.21,0,.23.05a4.64,4.64,0,0,1,1.89.78l.12.11a3,3,0,0,1,.63.91,2.66,2.66,0,0,1,.23,1.06,2.63,2.63,0,0,1-.26,1.13,2.89,2.89,0,0,1-.75,1,3.56,3.56,0,0,1-1.11.63,4.07,4.07,0,0,1-2.58,0,3.8,3.8,0,0,1-1.11-.63,3.17,3.17,0,0,1-.75-1,2.49,2.49,0,0,1-.26-1.13v-.18h2.31V332a.84.84,0,0,0,.32.65,1.19,1.19,0,0,0,.78.27,1.26,1.26,0,0,0,.81-.27.8.8,0,0,0,.34-.65.77.77,0,0,0-.36-.59,1.6,1.6,0,0,0-.37-.19,3.25,3.25,0,0,0-.52-.16l-.43-.11a11,11,0,0,1-1.14-.33,2.42,2.42,0,0,1-.75-.45l-.06,0a3.09,3.09,0,0,1-.69-.93,2.59,2.59,0,0,1,0-2.22,3.13,3.13,0,0,1,.75-1,3.4,3.4,0,0,1,1.11-.63,3.89,3.89,0,0,1,2.58,0,3.21,3.21,0,0,1,1.11.63,2.85,2.85,0,0,1,.75,1,2.64,2.64,0,0,1,.26,1.14v.17Z"/><path d="M331.5,332.68v2h-6.36v-9.35h6.24v2h-3.84V329h3.24v2h-3.24v1.64Z"/><path d="M340.19,334.71H337.8l-1.48-3.53h-1.53v3.53h-2.23v-9.35H337a2.9,2.9,0,0,1,2.51,1.45,2.88,2.88,0,0,1,.39,1.46,2.79,2.79,0,0,1-.35,1.39,3,3,0,0,1-1,1Zm-2.63-7.12a.87.87,0,0,0-.62-.31h-2.2v2h2.2a1,1,0,0,0,.62-.32,1,1,0,0,0,.25-.69A1,1,0,0,0,337.56,327.59Z"/><path d="M345.25,328.32v-.17a.84.84,0,0,0-.32-.66,1.2,1.2,0,0,0-.79-.27,1.26,1.26,0,0,0-.81.27.81.81,0,0,0-.34.66.62.62,0,0,0,.35.57,2.94,2.94,0,0,0,.9.37l.2,0,.23.05a4.57,4.57,0,0,1,1.89.78l.12.11a2.8,2.8,0,0,1,.63.91,2.66,2.66,0,0,1,.23,1.06,2.63,2.63,0,0,1-.26,1.13,3,3,0,0,1-.74,1,3.73,3.73,0,0,1-1.12.63,4.07,4.07,0,0,1-2.58,0,3.63,3.63,0,0,1-1.1-.63,3.05,3.05,0,0,1-.76-1,2.63,2.63,0,0,1-.26-1.13v-.18H343V332a.82.82,0,0,0,.33.65,1.15,1.15,0,0,0,.77.27,1.24,1.24,0,0,0,.81-.27.8.8,0,0,0,.34-.65.77.77,0,0,0-.36-.59,1.6,1.6,0,0,0-.37-.19,3.45,3.45,0,0,0-.51-.16l-.44-.11q-.72-.18-1.14-.33a2.42,2.42,0,0,1-.75-.45l0,0a3.12,3.12,0,0,1-.7-.93,2.51,2.51,0,0,1-.24-1.08A2.64,2.64,0,0,1,341,327a3,3,0,0,1,.76-1,3.25,3.25,0,0,1,1.1-.63,3.89,3.89,0,0,1,2.58,0,3.34,3.34,0,0,1,1.12.63,3,3,0,0,1,.74,1,2.64,2.64,0,0,1,.26,1.14v.17Z"/><path d="M359.14,326a4.73,4.73,0,0,1,1.71,1.73,4.58,4.58,0,0,1,.64,2.37,4.53,4.53,0,0,1-.64,2.37,4.78,4.78,0,0,1-1.71,1.72,4.67,4.67,0,0,1-2.37.63,4.62,4.62,0,0,1-2.37-.63,4.76,4.76,0,0,1-1.73-1.72,4.62,4.62,0,0,1-.63-2.37,4.71,4.71,0,0,1,2.36-4.1,4.62,4.62,0,0,1,2.37-.63A4.67,4.67,0,0,1,359.14,326Zm-1.15,6.2a2.47,2.47,0,0,0,.88-.88,2.42,2.42,0,0,0,0-2.44A2.42,2.42,0,0,0,358,328a2.42,2.42,0,0,0-2.44,0,2.4,2.4,0,0,0-.9.89,2.42,2.42,0,0,0,0,2.44,2.45,2.45,0,0,0,.9.88,2.36,2.36,0,0,0,2.44,0Z"/><path d="M368.79,327.38h-4.13V329H368v2h-3.31v3.67h-2.38v-9.35h6.51Z"/><path d="M37.79,348.17a2.47,2.47,0,0,0,.79-.52l1.62,1.61a4.6,4.6,0,0,1-1.52,1,4.74,4.74,0,0,1-1.83.36,4.67,4.67,0,0,1-2.37-.63,4.78,4.78,0,0,1-1.71-1.72,4.53,4.53,0,0,1-.64-2.37,4.58,4.58,0,0,1,.64-2.37,4.73,4.73,0,0,1,1.71-1.73,4.67,4.67,0,0,1,2.37-.63,4.64,4.64,0,0,1,3.35,1.39l-1.62,1.61a2.64,2.64,0,0,0-.79-.52,2.32,2.32,0,0,0-.94-.19,2.35,2.35,0,0,0-1.22.33,2.42,2.42,0,0,0-.88.89,2.42,2.42,0,0,0,0,2.44,2.58,2.58,0,0,0,.88.89,2.45,2.45,0,0,0,1.22.33A2.33,2.33,0,0,0,37.79,348.17Z"/><path d="M48.62,350.57H46.23L44.75,347H43.22v3.53H41v-9.35h4.46a2.92,2.92,0,0,1,2.9,2.91,2.8,2.8,0,0,1-.35,1.4,3,3,0,0,1-1,1.05ZM46,343.45a.91.91,0,0,0-.62-.31h-2.2v2h2.2a1,1,0,0,0,.62-.33,1,1,0,0,0,0-1.35Z"/><path d="M54.38,341.22h2.38L54,346.77v3.8H51.63v-3.8l-2.75-5.55h2.38l1.56,3.19Z"/><path d="M63.21,341.62a3,3,0,0,1,1.06,1.05,2.95,2.95,0,0,1,0,2.93,3,3,0,0,1-1.06,1,2.85,2.85,0,0,1-1.46.39H59.53v3.53H57.29v-9.35h4.46A2.86,2.86,0,0,1,63.21,341.62Zm-.91,1.83a.91.91,0,0,0-.63-.31h-2.2v2h2.2a.89.89,0,0,0,.63-.33,1,1,0,0,0,.25-.68A1,1,0,0,0,62.3,343.45Z"/><path d="M72.5,341.22v2.39H70.1v7H67.71v-7H65.32v-2.39H72.5Z"/><path d="M80.26,341.86A4.76,4.76,0,0,1,82,343.59a4.62,4.62,0,0,1,.63,2.37,4.67,4.67,0,0,1-.63,2.37A4.78,4.78,0,0,1,80.26,350a4.53,4.53,0,0,1-2.37.64,4.58,4.58,0,0,1-2.37-.64,4.73,4.73,0,0,1-1.73-1.71,4.67,4.67,0,0,1-.63-2.37,4.62,4.62,0,0,1,.63-2.37,4.75,4.75,0,0,1,4.1-2.37A4.63,4.63,0,0,1,80.26,341.86Zm-1.15,6.2a2.56,2.56,0,0,0,.88-.88,2.39,2.39,0,0,0,.34-1.22,2.36,2.36,0,0,0-.34-1.22,2.45,2.45,0,0,0-.88-.9,2.42,2.42,0,0,0-2.44,0,2.4,2.4,0,0,0-.89.9,2.35,2.35,0,0,0-.33,1.22,2.38,2.38,0,0,0,.33,1.22,2.5,2.5,0,0,0,.89.88,2.42,2.42,0,0,0,2.44,0Z"/><path d="M92.24,341.32l3.05,9.25H93l-.61-1.89H89.49l-.6,1.89H86.58l3.07-9.25Zm-2.13,5.43h1.67l-.84-2.62Z"/><path d="M100.7,341.22h2.38v9.35H100.7l-2.75-5v5H95.56v-9.35H98l2.75,5Z"/><path d="M108.24,341.19a5.4,5.4,0,0,1,1.4.34,3.84,3.84,0,0,1,1.29.81,4.58,4.58,0,0,1,1.15,1.6,4.8,4.8,0,0,1,.4,1.93A4.47,4.47,0,0,1,112,348a4.25,4.25,0,0,1-1.44,1.65,5.09,5.09,0,0,1-1.91.75,13.74,13.74,0,0,1-2.36.18h-1.08l-1,0v-9.45h2.39A16.94,16.94,0,0,1,108.24,341.19Zm2,4.68a2.4,2.4,0,0,0-.32-1.2,2.45,2.45,0,0,0-.87-.91,2.36,2.36,0,0,0-1.19-.35h-1.3v4.88a9.45,9.45,0,0,0,1.63-.12,2.71,2.71,0,0,0,1.23-.52,2,2,0,0,0,.75-1.23A3,3,0,0,0,110.21,345.87Z"/><path d="M124.29,346.63a2.65,2.65,0,0,1,.3,1.25,2.61,2.61,0,0,1-.36,1.34,2.68,2.68,0,0,1-1,1,2.73,2.73,0,0,1-1.35.37h-4.67v-9.35h4.24a2.65,2.65,0,0,1,1.37.37,2.78,2.78,0,0,1,1,1,2.57,2.57,0,0,1,.36,1.32,2.66,2.66,0,0,1-.19,1,2.54,2.54,0,0,1-.52.83A2.65,2.65,0,0,1,124.29,346.63Zm-2.47-3.22a.91.91,0,0,0-.68-.28h-1.72v2h1.72a2.41,2.41,0,0,0,.32-.05,1,1,0,0,0,.24-.13,1,1,0,0,0,.3-.36,1,1,0,0,0,.11-.46A1,1,0,0,0,121.82,343.41Zm.4,4.94a.91.91,0,0,0,.27-.7,1,1,0,0,0-.23-.63.93.93,0,0,0-.56-.33c-.06,0-.68,0-1.88,0h-.4v2h2.12A1,1,0,0,0,122.22,348.35Z"/><path d="M127.76,348.33h3.68v2.24h-6.06v-9.35h2.38Z"/><path d="M139.2,341.86a4.68,4.68,0,0,1,1.72,1.73,4.63,4.63,0,0,1,.64,2.37A4.71,4.71,0,0,1,139.2,350a4.52,4.52,0,0,1-2.36.64,4.59,4.59,0,0,1-2.38-.64,4.7,4.7,0,0,1-1.72-1.71,4.58,4.58,0,0,1-.64-2.37,4.53,4.53,0,0,1,.64-2.37,4.72,4.72,0,0,1,4.1-2.37A4.62,4.62,0,0,1,139.2,341.86Zm-1.15,6.2a2.59,2.59,0,0,0,.89-.88,2.38,2.38,0,0,0,.33-1.22,2.35,2.35,0,0,0-.33-1.22,2.48,2.48,0,0,0-.89-.9,2.32,2.32,0,0,0-1.21-.33,2.39,2.39,0,0,0-1.23.33,2.48,2.48,0,0,0-.89.9,2.35,2.35,0,0,0-.33,1.22,2.38,2.38,0,0,0,.33,1.22,2.59,2.59,0,0,0,.89.88,2.39,2.39,0,0,0,1.23.33A2.32,2.32,0,0,0,138.05,348.06Z"/><path d="M147.74,348.17a2.51,2.51,0,0,0,.8-.52l1.61,1.61a4.6,4.6,0,0,1-1.52,1,4.67,4.67,0,0,1-1.83.36,4.61,4.61,0,0,1-2.36-.63,4.73,4.73,0,0,1-1.72-1.72,4.63,4.63,0,0,1-.64-2.37,4.77,4.77,0,0,1,2.36-4.1,4.61,4.61,0,0,1,2.36-.63,4.67,4.67,0,0,1,1.83.36,4.76,4.76,0,0,1,1.52,1l-1.61,1.61a2.69,2.69,0,0,0-.8-.52,2.4,2.4,0,0,0-2.15.14,2.45,2.45,0,0,0-.89.89,2.42,2.42,0,0,0,0,2.44,2.61,2.61,0,0,0,.89.89,2.41,2.41,0,0,0,1.21.33A2.33,2.33,0,0,0,147.74,348.17Z"/><path d="M155.48,345.85l2.79,4.72h-2.65l-2.3-3.77v3.77h-2.38v-9.35h2.38v3.66l2.3-3.66h2.65Z"/><path d="M164.72,348.17a2.36,2.36,0,0,0,.79-.52l1.62,1.61a4.6,4.6,0,0,1-1.52,1,4.74,4.74,0,0,1-1.83.36,4.61,4.61,0,0,1-2.36-.63,4.73,4.73,0,0,1-1.72-1.72,4.53,4.53,0,0,1-.64-2.37,4.58,4.58,0,0,1,.64-2.37,4.68,4.68,0,0,1,1.72-1.73,4.61,4.61,0,0,1,2.36-.63,4.64,4.64,0,0,1,3.35,1.39l-1.62,1.61a2.52,2.52,0,0,0-.79-.52,2.4,2.4,0,0,0-2.15.14,2.45,2.45,0,0,0-.89.89,2.42,2.42,0,0,0,0,2.44,2.61,2.61,0,0,0,.89.89,2.41,2.41,0,0,0,1.21.33A2.33,2.33,0,0,0,164.72,348.17Z"/><path d="M173,341.22h2.38v9.35H173v-3.49H170.3v3.49h-2.38v-9.35h2.38v3.48H173Z"/><path d="M181.27,341.32l3.06,9.25H182l-.61-1.89h-2.9l-.59,1.89h-2.31l3.06-9.25Zm-2.12,5.43h1.66l-.83-2.62Z"/><path d="M187,341.22v9.35h-2.38v-9.35Z"/><path d="M193.17,341.22h2.38v9.35h-2.38l-2.75-5v5H188v-9.35h2.39l2.75,5Z"/><path d="M206.5,341.62a2.94,2.94,0,0,1,1.05,1.05,2.95,2.95,0,0,1,0,2.93,2.94,2.94,0,0,1-1.05,1A2.89,2.89,0,0,1,205,347h-2.22v3.53h-2.23v-9.35H205A2.9,2.9,0,0,1,206.5,341.62Zm-.92,1.83a.91.91,0,0,0-.62-.31h-2.2v2H205a.89.89,0,0,0,.62-.33,1,1,0,0,0,.26-.68A1,1,0,0,0,205.58,343.45Z"/><path d="M216.37,350.57H214L212.49,347H211v3.53h-2.23v-9.35h4.45a2.89,2.89,0,0,1,1.46.4,2.9,2.9,0,0,1,1.45,2.51,2.81,2.81,0,0,1-.36,1.4,2.93,2.93,0,0,1-1,1.05Zm-2.64-7.12a.87.87,0,0,0-.62-.31h-2.19v2h2.19a.93.93,0,0,0,.62-.33,1,1,0,0,0,0-1.35Z"/><path d="M224,341.86a4.61,4.61,0,0,1,1.72,1.73,4.53,4.53,0,0,1,.64,2.37A4.71,4.71,0,0,1,224,350a4.52,4.52,0,0,1-2.36.64,4.59,4.59,0,0,1-2.38-.64,4.71,4.71,0,0,1-2.36-4.08,4.63,4.63,0,0,1,.64-2.37,4.72,4.72,0,0,1,4.1-2.37A4.62,4.62,0,0,1,224,341.86Zm-1.15,6.2a2.59,2.59,0,0,0,.89-.88,2.38,2.38,0,0,0,.33-1.22,2.35,2.35,0,0,0-.33-1.22,2.48,2.48,0,0,0-.89-.9,2.32,2.32,0,0,0-1.21-.33,2.41,2.41,0,0,0-1.23.33,2.48,2.48,0,0,0-.89.9,2.35,2.35,0,0,0-.33,1.22,2.38,2.38,0,0,0,.33,1.22,2.59,2.59,0,0,0,.89.88,2.41,2.41,0,0,0,1.23.33A2.32,2.32,0,0,0,222.84,348.06Z"/><path d="M232.05,341.2h2.2V347a3.61,3.61,0,0,1-.49,1.85,3.74,3.74,0,0,1-1.34,1.34,3.69,3.69,0,0,1-3.71,0,3.74,3.74,0,0,1-1.34-1.34,3.61,3.61,0,0,1-.49-1.85v-.39h2.2a2.09,2.09,0,0,0,.43,1.27,1.34,1.34,0,0,0,2.12-.06,2.13,2.13,0,0,0,.42-1.35Z"/><path d="M241.67,348.55v2h-6.36v-9.35h6.24v2h-3.84v1.64H241v2h-3.24v1.64Z"/><path d="M248.12,348.17a2.51,2.51,0,0,0,.8-.52l1.61,1.61a4.6,4.6,0,0,1-1.52,1,4.78,4.78,0,0,1-4.19-.27,4.81,4.81,0,0,1-1.72-1.72,4.62,4.62,0,0,1-.63-2.37,4.67,4.67,0,0,1,.63-2.37,4.76,4.76,0,0,1,1.72-1.73,4.78,4.78,0,0,1,4.19-.27,4.76,4.76,0,0,1,1.52,1l-1.61,1.61a2.69,2.69,0,0,0-.8-.52,2.28,2.28,0,0,0-.93-.19,2.35,2.35,0,0,0-1.22.33,2.45,2.45,0,0,0-.89.89,2.42,2.42,0,0,0,0,2.44,2.61,2.61,0,0,0,.89.89,2.45,2.45,0,0,0,1.22.33A2.29,2.29,0,0,0,248.12,348.17Z"/><path d="M258.37,341.22v2.39H256v7h-2.4v-7h-2.39v-2.39h7.18Z"/><path d="M263.57,344.19V344a.82.82,0,0,0-.33-.66,1.16,1.16,0,0,0-.78-.27,1.28,1.28,0,0,0-.82.27.82.82,0,0,0-.33.66.59.59,0,0,0,.34.56,2.71,2.71,0,0,0,.9.37l.2,0,.24.06a4.64,4.64,0,0,1,1.89.78l.12.1a2.88,2.88,0,0,1,.62.91,2.59,2.59,0,0,1,.24,1.06,2.64,2.64,0,0,1-.26,1.14,2.85,2.85,0,0,1-.75,1,3.4,3.4,0,0,1-1.11.63,3.78,3.78,0,0,1-1.3.22,3.63,3.63,0,0,1-1.28-.22,3.4,3.4,0,0,1-1.11-.63,2.85,2.85,0,0,1-.75-1,2.52,2.52,0,0,1-.27-1.14v-.17h2.32v.17a.81.81,0,0,0,.32.66,1.17,1.17,0,0,0,.77.27,1.28,1.28,0,0,0,.82-.27.82.82,0,0,0,.33-.66.76.76,0,0,0-.35-.58,1.86,1.86,0,0,0-.37-.2l-.52-.16-.43-.1c-.49-.13-.87-.23-1.14-.33a2.35,2.35,0,0,1-.76-.45l0-.05a3,3,0,0,1-.69-.93A2.41,2.41,0,0,1,259,344a2.52,2.52,0,0,1,.27-1.14,3,3,0,0,1,.75-1,3.56,3.56,0,0,1,1.11-.62,3.63,3.63,0,0,1,1.28-.22,3.78,3.78,0,0,1,1.3.22,3.56,3.56,0,0,1,1.11.62,3,3,0,0,1,.75,1,2.64,2.64,0,0,1,.26,1.14v.17Z"/><path d="M273,341.22v9.35h-2.38v-9.35Z"/><path d="M279.2,341.22h2.38v9.35H279.2l-2.75-5v5h-2.4v-9.35h2.4l2.75,5Z"/><path d="M289.68,341.22v2.39h-2.39v7h-2.4v-7H282.5v-2.39h7.18Z"/><path d="M297,348.55v2h-6.36v-9.35h6.24v2H293v1.64h3.24v2H293v1.64Z"/><path d="M305.65,350.57h-2.39L301.78,347h-1.52v3.53H298v-9.35h4.46a2.82,2.82,0,0,1,1.45.4,2.89,2.89,0,0,1,1.46,2.51,2.81,2.81,0,0,1-.36,1.4,3,3,0,0,1-1,1.05ZM303,343.45a.89.89,0,0,0-.62-.31h-2.19v2h2.19a1,1,0,0,0,.62-.33,1,1,0,0,0,0-1.35Z"/><path d="M312.81,348.55v2h-6.36v-9.35h6.24v2h-3.85v1.64h3.24v2h-3.24v1.64Z"/><path d="M318.13,344.19V344a.81.81,0,0,0-.32-.66,1.2,1.2,0,0,0-.79-.27,1.28,1.28,0,0,0-.81.27.83.83,0,0,0-.34.66.6.6,0,0,0,.35.56,2.71,2.71,0,0,0,.9.37l.2,0,.23.06a4.51,4.51,0,0,1,1.89.78l.12.1a2.81,2.81,0,0,1,.86,2,2.51,2.51,0,0,1-.26,1.14,3,3,0,0,1-.74,1,3.4,3.4,0,0,1-1.11.63,3.82,3.82,0,0,1-1.3.22,3.72,3.72,0,0,1-1.29-.22,3.25,3.25,0,0,1-1.1-.63,3,3,0,0,1-.76-1,2.64,2.64,0,0,1-.26-1.14v-.17h2.31v.17a.82.82,0,0,0,.33.66,1.15,1.15,0,0,0,.77.27,1.24,1.24,0,0,0,.81-.27.81.81,0,0,0,.34-.66.77.77,0,0,0-.36-.58,1.43,1.43,0,0,0-.37-.2l-.51-.16-.44-.1c-.48-.13-.86-.23-1.14-.33a2.42,2.42,0,0,1-.75-.45l0-.05a3.25,3.25,0,0,1-.7-.93,2.54,2.54,0,0,1-.24-1.08,2.64,2.64,0,0,1,.26-1.14,3.17,3.17,0,0,1,.76-1,3.4,3.4,0,0,1,1.1-.62,3.72,3.72,0,0,1,1.29-.22,3.82,3.82,0,0,1,1.3.22,3.56,3.56,0,0,1,1.11.62,3.1,3.1,0,0,1,.74,1,2.51,2.51,0,0,1,.26,1.14v.17Z"/><path d="M328.26,341.22v2.39h-2.39v7h-2.39v-7h-2.4v-2.39h7.18Z"/><path d="M335.55,348.55v2h-6.36v-9.35h6.24v2h-3.85v1.64h3.24v2h-3.24v1.64Z"/><path d="M340.71,341.19a5.4,5.4,0,0,1,1.4.34,3.84,3.84,0,0,1,1.29.81,4.58,4.58,0,0,1,1.15,1.6,4.8,4.8,0,0,1,.4,1.93,4.47,4.47,0,0,1-.52,2.15,4.33,4.33,0,0,1-1.44,1.65,5.16,5.16,0,0,1-1.91.75,13.74,13.74,0,0,1-2.36.18h-1.08l-1,0v-9.45H339A16.94,16.94,0,0,1,340.71,341.19Zm2,4.68a2.39,2.39,0,0,0-.31-1.2,2.45,2.45,0,0,0-.87-.91,2.37,2.37,0,0,0-1.2-.35H339v4.88a9.53,9.53,0,0,0,1.63-.12,2.71,2.71,0,0,0,1.23-.52,2,2,0,0,0,.75-1.23A2.88,2.88,0,0,0,342.67,345.87Z"/><path d="M352.09,341.22v9.35h-2.38v-9.35Z"/><path d="M358.29,341.22h2.38v9.35h-2.38l-2.75-5v5h-2.39v-9.35h2.39l2.75,5Z"/><path d="M34.78,357.09v9.35H32.4v-9.35Z"/><path d="M41,357.09h2.38v9.35H41l-2.75-5v5h-2.4v-9.35h2.4l2.75,5Z"/><path d="M50.92,359.12H46.79v1.63H50.1v2H46.79v3.66H44.41v-9.35h6.51Z"/><path d="M58.55,357.73a4.7,4.7,0,0,1,2.35,4.1,4.61,4.61,0,0,1-.63,2.36,4.73,4.73,0,0,1-1.72,1.72,4.63,4.63,0,0,1-2.37.64,4.77,4.77,0,0,1-4.1-2.36,4.61,4.61,0,0,1-.63-2.36,4.68,4.68,0,0,1,2.36-4.1,4.58,4.58,0,0,1,2.37-.64A4.53,4.53,0,0,1,58.55,357.73Zm-1.15,6.2a2.5,2.5,0,0,0,.88-.89,2.32,2.32,0,0,0,.33-1.21,2.39,2.39,0,0,0-.33-1.23,2.5,2.5,0,0,0-.88-.89,2.42,2.42,0,0,0-2.44,0,2.45,2.45,0,0,0-.89.89,2.39,2.39,0,0,0-.33,1.23,2.32,2.32,0,0,0,.33,1.21,2.45,2.45,0,0,0,.89.89,2.42,2.42,0,0,0,2.44,0Z"/><path d="M69.32,366.44H66.93l-1.48-3.53H63.93v3.53H61.69v-9.35h4.46a2.88,2.88,0,0,1,1.46.39,2.94,2.94,0,0,1,1.06,1.07,2.9,2.9,0,0,1,0,2.85,3.21,3.21,0,0,1-1,1.05Zm-2.63-7.12a.87.87,0,0,0-.62-.31H63.88v2h2.19a.88.88,0,0,0,.62-.32,1,1,0,0,0,.25-.68A1,1,0,0,0,66.69,359.32Z"/><path d="M77.32,357.09H79.7v9.35H77.32v-5.28l-1.16,2.12,0,.11H73.73l-.07-.11-.16-.3-1-1.82v5.28H70.12v-9.35h2.39l2.41,4Z"/><path d="M85.63,357.18l3.05,9.26h-2.3l-.61-1.89H82.88l-.6,1.89H80L83,357.18Zm-2.13,5.44h1.66L84.33,360Z"/><path d="M96,357.09v2.38H93.6v7H91.21v-7h-2.4v-2.38H96Z"/><path d="M99.3,357.09v9.35H96.92v-9.35Z"/><path d="M107.19,357.73a4.73,4.73,0,1,1-4.74,8.18,4.58,4.58,0,0,1-1.72-1.72,4.52,4.52,0,0,1-.64-2.36,4.74,4.74,0,0,1,4.74-4.74A4.52,4.52,0,0,1,107.19,357.73Zm-1.15,6.2a2.53,2.53,0,0,0,.89-.89,2.32,2.32,0,0,0,.33-1.21,2.39,2.39,0,0,0-.33-1.23,2.53,2.53,0,0,0-.89-.89,2.32,2.32,0,0,0-1.21-.33,2.39,2.39,0,0,0-1.23.33,2.53,2.53,0,0,0-.89.89,2.39,2.39,0,0,0-.33,1.23,2.32,2.32,0,0,0,.33,1.21,2.53,2.53,0,0,0,.89.89,2.39,2.39,0,0,0,1.23.33A2.32,2.32,0,0,0,106,363.93Z"/><path d="M115.48,357.09h2.38v9.35h-2.38l-2.75-5v5h-2.39v-9.35h2.39l2.75,5Z"/><path d="M127.75,357.18l3.06,9.26H128.5l-.6-1.89H125l-.59,1.89h-2.32l3.07-9.26Zm-2.13,5.44h1.67l-.83-2.62Z"/><path d="M138.12,362.49a2.68,2.68,0,0,1,.3,1.25,2.7,2.7,0,0,1-1.33,2.32,2.64,2.64,0,0,1-1.35.38h-4.67v-9.35h4.24a2.56,2.56,0,0,1,1.37.37,2.7,2.7,0,0,1,.95,1,2.52,2.52,0,0,1,.36,1.32,2.7,2.7,0,0,1-.19,1,2.65,2.65,0,0,1-.52.83A2.53,2.53,0,0,1,138.12,362.49Zm-2.47-3.21A.91.91,0,0,0,135,359h-1.72v2H135l.32-.05a.79.79,0,0,0,.24-.14.92.92,0,0,0,.3-.35,1,1,0,0,0,.11-.47A.94.94,0,0,0,135.65,359.28Zm.4,4.94a.91.91,0,0,0,.27-.7,1,1,0,0,0-.23-.63,1,1,0,0,0-.56-.34h-2.28v2h2.12A1,1,0,0,0,136.05,364.22Z"/><path d="M146.05,357.73a4.75,4.75,0,1,1-4.74,0,4.58,4.58,0,0,1,2.37-.64A4.53,4.53,0,0,1,146.05,357.73Zm-1.15,6.2a2.53,2.53,0,0,0,.89-.89,2.32,2.32,0,0,0,.33-1.21,2.39,2.39,0,0,0-.33-1.23,2.53,2.53,0,0,0-.89-.89,2.33,2.33,0,0,0-1.22-.33,2.38,2.38,0,0,0-1.22.33,2.53,2.53,0,0,0-.89.89,2.39,2.39,0,0,0-.33,1.23,2.32,2.32,0,0,0,.33,1.21,2.53,2.53,0,0,0,.89.89,2.38,2.38,0,0,0,1.22.33A2.33,2.33,0,0,0,144.9,363.93Z"/><path d="M156.8,357.11v5.77a3.59,3.59,0,0,1-.5,1.85,3.69,3.69,0,0,1-1.34,1.35,3.64,3.64,0,0,1-1.86.49h-.21a3.58,3.58,0,0,1-1.85-.49,3.64,3.64,0,0,1-1.35-1.35,3.58,3.58,0,0,1-.49-1.85v-5.77h2.21v5.24a2.29,2.29,0,0,0,.39,1.37,1.29,1.29,0,0,0,1.09.54h.21a1.29,1.29,0,0,0,1.08-.55,2.24,2.24,0,0,0,.41-1.36v-5.24Z"/><path d="M164.91,357.09v2.38h-2.4v7h-2.39v-7h-2.39v-2.38h7.18Z"/><path d="M174.94,357.09h2.38v9.35h-2.38l-2.75-5v5H169.8v-9.35h2.39l2.75,5Z"/><path d="M184.74,364.42v2h-6.36v-9.35h6.24v2h-3.85v1.63H184v2h-3.24v1.64Z"/><path d="M193.32,357.09h2.06v9.35H193l-2.4-4-2.42,4H185.8v-9.35h2.38v5.28l1.16-2.12.07-.1h2.38l.05.1,1.16,2.12v-5.28Z"/><path d="M202.79,357.09v9.35h-2.38v-9.35Z"/><path d="M209,357.09h2.38v9.35H209l-2.75-5v5h-2.4v-9.35h2.4l2.75,5Z"/><path d="M219.47,357.09v2.38h-2.39v7h-2.39v-7h-2.4v-2.38h7.18Z"/><path d="M226.76,364.42v2H220.4v-9.35h6.24v2h-3.85v1.63H226v2h-3.24v1.64Z"/><path d="M235.44,366.44h-2.39l-1.48-3.53h-1.52v3.53h-2.23v-9.35h4.45a2.88,2.88,0,0,1,1.46.39,2.94,2.94,0,0,1,1.06,1.07,2.9,2.9,0,0,1,0,2.85,3.21,3.21,0,0,1-1,1.05Zm-2.63-7.12a.87.87,0,0,0-.62-.31H230v2h2.19a.88.88,0,0,0,.62-.32,1,1,0,0,0,.25-.68A1,1,0,0,0,232.81,359.32Z"/><path d="M242.6,364.42v2h-6.36v-9.35h6.24v2h-3.85v1.63h3.24v2h-3.24v1.64Z"/><path d="M247.93,360.05v-.17a.82.82,0,0,0-.33-.65,1.17,1.17,0,0,0-.78-.27,1.28,1.28,0,0,0-.82.27.82.82,0,0,0-.33.65.6.6,0,0,0,.34.57,2.94,2.94,0,0,0,.9.37l.2,0,.23.05a4.63,4.63,0,0,1,1.9.78l.11.11a2.65,2.65,0,0,1,.63.91,2.54,2.54,0,0,1,.23,1.06,2.66,2.66,0,0,1-.25,1.14,3.13,3.13,0,0,1-.75,1,3.8,3.8,0,0,1-1.11.63,4.08,4.08,0,0,1-1.3.22,4,4,0,0,1-1.29-.22,3.63,3.63,0,0,1-1.1-.63,2.85,2.85,0,0,1-.75-1,2.55,2.55,0,0,1-.27-1.14v-.17h2.31v.17a.81.81,0,0,0,.33.65,1.16,1.16,0,0,0,.77.28,1.29,1.29,0,0,0,.82-.28.81.81,0,0,0,.33-.65.77.77,0,0,0-.35-.58,1.46,1.46,0,0,0-.37-.2c-.15-.05-.32-.11-.52-.16l-.44-.11a11.45,11.45,0,0,1-1.13-.33,2,2,0,0,1-.76-.45l0-.05a2.89,2.89,0,0,1-.69-.92,2.45,2.45,0,0,1-.25-1.09,2.55,2.55,0,0,1,.27-1.14,2.85,2.85,0,0,1,.75-1,3.63,3.63,0,0,1,1.1-.63,4,4,0,0,1,1.29-.22,4.08,4.08,0,0,1,1.3.22,3.8,3.8,0,0,1,1.11.63,3.13,3.13,0,0,1,.75,1,2.66,2.66,0,0,1,.25,1.14v.17Z"/><path d="M258.05,357.09v2.38h-2.39v7h-2.39v-7h-2.4v-2.38h7.18Z"/><path d="M261.36,357.09v9.35H259v-9.35Z"/><path d="M267.56,357.09h2.38v9.35h-2.38l-2.75-5v5h-2.39v-9.35h2.39l2.75,5Z"/><path d="M280.19,361.81a4.53,4.53,0,0,1-.64,2.37,4.81,4.81,0,0,1-1.72,1.72,4.68,4.68,0,0,1-2.38.63,4.61,4.61,0,0,1-2.36-.63,4.73,4.73,0,0,1-1.72-1.72,4.63,4.63,0,0,1-.64-2.37,4.77,4.77,0,0,1,2.36-4.1,4.77,4.77,0,0,1,4.21-.26,4.66,4.66,0,0,1,1.51,1l-2.13,1.22a2.36,2.36,0,0,0-1.23-.33,2.32,2.32,0,0,0-1.21.33,2.45,2.45,0,0,0-.89.89,2.42,2.42,0,0,0,0,2.44,2.5,2.5,0,0,0,.89.88,2.33,2.33,0,0,0,1.21.34,2.42,2.42,0,0,0,1.29-.37,2.54,2.54,0,0,0,.9-1H274.7v-2.2h5.36A5.74,5.74,0,0,1,280.19,361.81Z"/><path d="M39.23,373.59A4.76,4.76,0,0,1,41,375.32a4.67,4.67,0,0,1,.63,2.37,4.62,4.62,0,0,1-.63,2.37,4.81,4.81,0,0,1-1.72,1.72,4.62,4.62,0,0,1-2.37.63,4.67,4.67,0,0,1-2.37-.63,4.73,4.73,0,0,1-1.72-1.72,4.53,4.53,0,0,1-.64-2.37,4.58,4.58,0,0,1,.64-2.37A4.68,4.68,0,0,1,36.86,373,4.62,4.62,0,0,1,39.23,373.59Zm-1.15,6.2a2.5,2.5,0,0,0,.89-.88,2.42,2.42,0,0,0,0-2.44,2.45,2.45,0,0,0-.89-.89,2.35,2.35,0,0,0-1.22-.33,2.38,2.38,0,0,0-1.22.33,2.45,2.45,0,0,0-.89.89,2.42,2.42,0,0,0,0,2.44,2.5,2.5,0,0,0,.89.88,2.39,2.39,0,0,0,1.22.34A2.36,2.36,0,0,0,38.08,379.79Z"/><path d="M48.29,373.35a2.92,2.92,0,0,1,1.06,4,2.91,2.91,0,0,1-1.06,1.06,2.83,2.83,0,0,1-1.46.39H44.61v3.53H42.38V373h4.45A2.83,2.83,0,0,1,48.29,373.35Zm-.91,1.84a.87.87,0,0,0-.63-.31H44.56v2h2.19a.92.92,0,0,0,.63-.32,1,1,0,0,0,.26-.69A1,1,0,0,0,47.38,375.19Z"/><path d="M56.45,373.35a2.92,2.92,0,0,1,1.06,4,2.91,2.91,0,0,1-1.06,1.06,2.83,2.83,0,0,1-1.46.39H52.77v3.53H50.54V373H55A2.83,2.83,0,0,1,56.45,373.35Zm-.91,1.84a.87.87,0,0,0-.63-.31H52.72v2h2.19a.92.92,0,0,0,.63-.32,1,1,0,0,0,.26-.69A1,1,0,0,0,55.54,375.19Z"/><path d="M65.53,373.59a4.76,4.76,0,0,1,1.72,1.73,4.67,4.67,0,0,1,.63,2.37,4.62,4.62,0,0,1-.63,2.37,4.81,4.81,0,0,1-1.72,1.72,4.62,4.62,0,0,1-2.37.63,4.67,4.67,0,0,1-2.37-.63,4.83,4.83,0,0,1-1.73-1.72,4.62,4.62,0,0,1-.63-2.37,4.67,4.67,0,0,1,.63-2.37,4.78,4.78,0,0,1,1.73-1.73,4.67,4.67,0,0,1,2.37-.63A4.62,4.62,0,0,1,65.53,373.59Zm-1.15,6.2a2.58,2.58,0,0,0,.89-.88,2.42,2.42,0,0,0,0-2.44,2.53,2.53,0,0,0-.89-.89,2.42,2.42,0,0,0-2.44,0,2.45,2.45,0,0,0-.89.89,2.42,2.42,0,0,0,0,2.44,2.5,2.5,0,0,0,.89.88,2.36,2.36,0,0,0,2.44,0Z"/><path d="M76.31,382.31h-2.4l-1.48-3.53H70.91v3.53H68.68V373h4.45a2.88,2.88,0,0,1,1.46.39,2.84,2.84,0,0,1,1.06,1.06,2.88,2.88,0,0,1,.39,1.46,2.8,2.8,0,0,1-.36,1.39,2.93,2.93,0,0,1-1,1.05Zm-2.64-7.12a.83.83,0,0,0-.62-.31H70.86v2h2.19a1,1,0,0,0,.62-.32,1,1,0,0,0,.26-.69A1,1,0,0,0,73.67,375.19Z"/><path d="M84.15,373v2.38h-2.4v7H79.36v-7H77V373h7.18Z"/><path d="M92.67,373v5.78a3.64,3.64,0,0,1-1.84,3.19,3.65,3.65,0,0,1-1.86.5h-.21a3.59,3.59,0,0,1-1.85-.5,3.66,3.66,0,0,1-1.34-1.34,3.59,3.59,0,0,1-.5-1.85V373h2.21v5.25a2.19,2.19,0,0,0,.4,1.36,1.27,1.27,0,0,0,1.08.55H89a1.32,1.32,0,0,0,1.08-.55,2.18,2.18,0,0,0,.42-1.36V373Z"/><path d="M98.88,373h2.38v9.35H98.88l-2.75-5v5h-2.4V373h2.4l2.75,5Z"/><path d="M104.69,373v9.35h-2.38V373Z"/><path d="M112.8,373v2.38h-2.39v7H108v-7h-2.39V373h7.18Z"/><path d="M116.1,373v9.35h-2.38V373Z"/><path d="M123.52,380.28v2h-6.36V373h6.24v2h-3.85v1.64h3.24v2h-3.24v1.64Z"/><path d="M128.85,375.92v-.17a.86.86,0,0,0-.32-.66,1.2,1.2,0,0,0-.79-.27,1.24,1.24,0,0,0-.81.27.82.82,0,0,0-.34.66.62.62,0,0,0,.34.57,2.94,2.94,0,0,0,.9.37l.21,0,.23,0a4.64,4.64,0,0,1,1.89.78l.12.11a3,3,0,0,1,.63.91,2.66,2.66,0,0,1,.23,1.06,2.63,2.63,0,0,1-.26,1.13,2.89,2.89,0,0,1-.75,1,3.56,3.56,0,0,1-1.11.63,4.07,4.07,0,0,1-2.58,0,3.8,3.8,0,0,1-1.11-.63,3.17,3.17,0,0,1-.75-1,2.49,2.49,0,0,1-.26-1.13v-.18h2.31v.18a.84.84,0,0,0,.32.65,1.19,1.19,0,0,0,.78.27,1.28,1.28,0,0,0,.81-.27.83.83,0,0,0,.34-.65.77.77,0,0,0-.36-.59,1.43,1.43,0,0,0-.37-.19,3.25,3.25,0,0,0-.52-.16l-.43-.11a11,11,0,0,1-1.14-.33,2.42,2.42,0,0,1-.75-.45l-.06-.05a2.93,2.93,0,0,1-.69-.93,2.59,2.59,0,0,1,0-2.22,3.13,3.13,0,0,1,.75-1,3.4,3.4,0,0,1,1.11-.63,3.89,3.89,0,0,1,2.58,0,3.21,3.21,0,0,1,1.11.63,2.85,2.85,0,0,1,.75,1,2.64,2.64,0,0,1,.26,1.14v.17Z"/><path d="M132,381.92a1.31,1.31,0,0,1-.35-.91,1.23,1.23,0,0,1,1.23-1.22,1.26,1.26,0,0,1,0,2.52A1.15,1.15,0,0,1,132,381.92Z"/><path class="cls-2" d="M44.05,235.08h3.12v14.14h-3.6l-3.64-6-3.66,6h-3.6V235.08h3.6v8l1.76-3.2.1-.16h3.6l.08.16,1.76,3.2v-8Z"/><path class="cls-2" d="M56.41,235.08H60v14.14h-3.6v-5.28h-4v5.28h-3.6V235.08h3.6v5.26h4Z"/><path class="cls-2" d="M69,235.22l4.62,14H70.11l-.92-2.86H64.81l-.9,2.86h-3.5l4.64-14Zm-3.22,8.22h2.52l-1.26-4Z"/><path class="cls-2" d="M84.65,235.08v3.6H81v10.54H77.41V238.68H73.79v-3.6H84.65Z"/><path class="cls-2" d="M95.65,235.08v14.14h-3.6V235.08Z"/><path class="cls-2" d="M107.91,235.08v3.6h-3.62v10.54h-3.62V238.68H97.05v-3.6h10.86Z"/><path class="cls-2" d="M118.91,235.08v14.14h-3.6V235.08Z"/><path class="cls-2" d="M127,239.56v-.26a1.26,1.26,0,0,0-.49-1,1.78,1.78,0,0,0-1.19-.41,1.87,1.87,0,0,0-1.23.41,1.22,1.22,0,0,0-.51,1,.92.92,0,0,0,.52.86,4.49,4.49,0,0,0,1.36.56l.31.06.35.08A6.88,6.88,0,0,1,129,242l.18.16a4.25,4.25,0,0,1,1,1.38,3.91,3.91,0,0,1,0,3.32,4.6,4.6,0,0,1-1.13,1.46,5.57,5.57,0,0,1-1.68.95,5.89,5.89,0,0,1-2,.33,5.79,5.79,0,0,1-2-.33,5.41,5.41,0,0,1-1.67-.95,4.5,4.5,0,0,1-1.14-1.46,3.84,3.84,0,0,1-.4-1.72v-.26h3.5v.26a1.26,1.26,0,0,0,.49,1,1.76,1.76,0,0,0,1.17.41,1.92,1.92,0,0,0,1.23-.41,1.25,1.25,0,0,0,.51-1,1.15,1.15,0,0,0-.54-.88,2.29,2.29,0,0,0-.56-.3q-.33-.12-.78-.24l-.66-.16c-.74-.19-1.31-.36-1.72-.5a3.49,3.49,0,0,1-1.14-.68l-.08-.08a4.37,4.37,0,0,1-1-1.4,3.74,3.74,0,0,1-.37-1.64,3.81,3.81,0,0,1,.4-1.72,4.3,4.3,0,0,1,1.14-1.46,5.21,5.21,0,0,1,1.67-1,5.79,5.79,0,0,1,2-.33,5.89,5.89,0,0,1,2,.33,5.37,5.37,0,0,1,1.68,1,4.39,4.39,0,0,1,1.13,1.46,3.94,3.94,0,0,1,.39,1.72v.26Z"/><path class="cls-2" d="M149.13,235.1v8.74a5.47,5.47,0,0,1-.75,2.8,5.59,5.59,0,0,1-2,2,5.5,5.5,0,0,1-2.81.75h-.32a5.41,5.41,0,0,1-2.8-.75,5.57,5.57,0,0,1-2-2,5.47,5.47,0,0,1-.75-2.8V235.1H141V243a3.42,3.42,0,0,0,.6,2.06,1.93,1.93,0,0,0,1.64.82h.32a2,2,0,0,0,1.63-.83,3.31,3.31,0,0,0,.63-2.05V235.1Z"/><path class="cls-2" d="M157.19,239.56v-.26a1.26,1.26,0,0,0-.49-1,1.78,1.78,0,0,0-1.19-.41,1.87,1.87,0,0,0-1.23.41,1.22,1.22,0,0,0-.51,1,.92.92,0,0,0,.52.86,4.49,4.49,0,0,0,1.36.56l.31.06.35.08a6.88,6.88,0,0,1,2.86,1.18l.18.16a4.25,4.25,0,0,1,1,1.38,3.91,3.91,0,0,1,0,3.32,4.6,4.6,0,0,1-1.13,1.46,5.57,5.57,0,0,1-1.68.95,5.89,5.89,0,0,1-2,.33,5.79,5.79,0,0,1-2-.33,5.41,5.41,0,0,1-1.67-.95,4.5,4.5,0,0,1-1.14-1.46,3.84,3.84,0,0,1-.4-1.72v-.26h3.5v.26a1.26,1.26,0,0,0,.49,1,1.76,1.76,0,0,0,1.17.41,1.92,1.92,0,0,0,1.23-.41,1.25,1.25,0,0,0,.51-1,1.15,1.15,0,0,0-.54-.88,2.29,2.29,0,0,0-.56-.3q-.33-.12-.78-.24l-.66-.16c-.74-.19-1.31-.36-1.72-.5a3.49,3.49,0,0,1-1.14-.68l-.08-.08a4.37,4.37,0,0,1-1.05-1.4,3.74,3.74,0,0,1-.37-1.64,3.81,3.81,0,0,1,.4-1.72,4.3,4.3,0,0,1,1.14-1.46,5.21,5.21,0,0,1,1.67-1,5.79,5.79,0,0,1,2-.33,5.89,5.89,0,0,1,2,.33,5.37,5.37,0,0,1,1.68,1,4.39,4.39,0,0,1,1.13,1.46,3.94,3.94,0,0,1,.39,1.72v.26Z"/><path class="cls-2" d="M171.47,246.16v3.06h-9.62V235.08h9.44v3.06h-5.82v2.48h4.9v3.06h-4.9v2.48Z"/><path class="cls-2" d="M179.27,235a8.07,8.07,0,0,1,2.13.51,6,6,0,0,1,1.95,1.22,7.15,7.15,0,0,1,1.73,2.43,7.37,7.37,0,0,1,.61,2.91,6.91,6.91,0,0,1-.78,3.26,6.65,6.65,0,0,1-2.19,2.5,7.78,7.78,0,0,1-2.88,1.13,21.1,21.1,0,0,1-3.57.27l-1.64,0c-.35,0-.87,0-1.56,0v-14.3h3.62A24.06,24.06,0,0,1,179.27,235Zm3,7.07a3.61,3.61,0,0,0-.48-1.81,3.74,3.74,0,0,0-1.31-1.37,3.45,3.45,0,0,0-1.81-.54h-2v7.38a15.85,15.85,0,0,0,2.47-.17,4.4,4.4,0,0,0,1.86-.79,3.2,3.2,0,0,0,1.13-1.86A4.54,4.54,0,0,0,182.25,242.1Z"/><path class="cls-2" d="M202.73,238.14h-6.24v2.48h5v3.06h-5v5.54h-3.6V235.08h9.84Z"/><path class="cls-2" d="M214.27,236a7.16,7.16,0,0,1,0,12.38,7.17,7.17,0,0,1-7.17,0,7.15,7.15,0,0,1-2.61-2.6,7.17,7.17,0,0,1,0-7.17A7.1,7.1,0,0,1,207.1,236a7.17,7.17,0,0,1,7.17,0Zm-1.74,9.38a4,4,0,0,0,1.34-1.34,3.65,3.65,0,0,0,0-3.69,3.85,3.85,0,0,0-1.34-1.35,3.51,3.51,0,0,0-1.84-.5,3.56,3.56,0,0,0-1.86.5,3.69,3.69,0,0,0-1.34,1.35,3.65,3.65,0,0,0,0,3.69,3.82,3.82,0,0,0,1.34,1.34,3.65,3.65,0,0,0,1.86.5A3.61,3.61,0,0,0,212.53,245.42Z"/><path class="cls-2" d="M230.56,249.22H227l-2.24-5.34h-2.3v5.34H219V235.08h6.74a4.22,4.22,0,0,1,2.2.59,4.39,4.39,0,0,1,1.62,1.61,4.39,4.39,0,0,1,0,4.31,4.83,4.83,0,0,1-1.46,1.59Zm-4-10.77a1.28,1.28,0,0,0-.94-.47h-3.31v3h3.31a1.42,1.42,0,0,0,.94-.49,1.48,1.48,0,0,0,.38-1A1.43,1.43,0,0,0,226.58,238.45Z"/><path class="cls-2" d="M232.36,242.52a1.83,1.83,0,0,1-.5-1.16,1.54,1.54,0,0,1,.46-1.17,1.56,1.56,0,0,1,1.16-.49,1.62,1.62,0,0,1,1.66,1.66,1.56,1.56,0,0,1-.49,1.16,1.59,1.59,0,0,1-1.17.48A1.5,1.5,0,0,1,232.36,242.52Zm0,6.22a1.83,1.83,0,0,1-.5-1.16,1.54,1.54,0,0,1,.46-1.17,1.56,1.56,0,0,1,1.16-.49,1.62,1.62,0,0,1,1.66,1.66,1.56,1.56,0,0,1-.49,1.16,1.59,1.59,0,0,1-1.17.48A1.5,1.5,0,0,1,232.36,248.74Z"/><path class="cls-2" d="M46,40a18.55,18.55,0,0,1,4.68,1.12,13.6,13.6,0,0,1,4.29,2.69,15.41,15.41,0,0,1,3.81,5.34,16.09,16.09,0,0,1,1.34,6.41,15.07,15.07,0,0,1-1.72,7.17,14.23,14.23,0,0,1-4.81,5.5,16.84,16.84,0,0,1-6.34,2.48,45.67,45.67,0,0,1-7.85.6l-3.61,0c-.76,0-1.91,0-3.43,0V39.77h8C42.47,39.77,44.36,39.85,46,40ZM52.5,55.57a8,8,0,0,0-1-4,8.42,8.42,0,0,0-2.89-3,7.66,7.66,0,0,0-4-1.19H40.27V63.62a34,34,0,0,0,5.44-.38,9.25,9.25,0,0,0,4.09-1.73,7,7,0,0,0,2.48-4.1A8.5,8.5,0,0,0,52.5,55.57Z"/><path class="cls-2" d="M70.63,40.12V71.23H62.71V40.12Z"/><path class="cls-2" d="M99.54,71.23h-8L86.65,59.48H81.59V71.23H74.15V40.12H89a9.47,9.47,0,0,1,4.84,1.3A9.69,9.69,0,0,1,97.36,45a9.65,9.65,0,0,1,.11,9.48,10,10,0,0,1-3.21,3.5ZM90.78,47.54a3,3,0,0,0-2.07-1h-7.3v6.6h7.3A3.15,3.15,0,0,0,90.78,52a3.28,3.28,0,0,0,.84-2.26A3.23,3.23,0,0,0,90.78,47.54Z"/><path class="cls-2" d="M123.34,64.5v6.73H102.18V40.12H123v6.73H110.14v5.46h10.78V59H110.14V64.5Z"/><path class="cls-2" d="M144.81,63.24a8.57,8.57,0,0,0,2.64-1.73l5.37,5.36a15.63,15.63,0,0,1-5.06,3.41,15.8,15.8,0,0,1-13.95-.9,15.76,15.76,0,0,1-5.72-5.72,15.79,15.79,0,0,1,0-15.77,15.67,15.67,0,0,1,5.72-5.74A15.32,15.32,0,0,1,141.69,40a15.55,15.55,0,0,1,6.07,1.21,16,16,0,0,1,5.06,3.41L147.45,50a8.78,8.78,0,0,0-2.64-1.74,7.94,7.94,0,0,0-3.12-.63,7.7,7.7,0,0,0-4.05,1.1,8.31,8.31,0,0,0-2.95,3,7.89,7.89,0,0,0-1.1,4.07,7.78,7.78,0,0,0,1.1,4,8.34,8.34,0,0,0,2.95,3,8,8,0,0,0,7.17.46Z"/><path class="cls-2" d="M178.91,40.12V48h-8V71.23h-8V48h-8V40.12h23.89Z"/><path class="cls-2" d="M219.17,40.12h7.92V71.23h-7.92V53.67l-3.87,7-.18.36H207.2l-.22-.36-.52-1-3.3-6V71.23h-8V40.12h8l8,13.25Z"/><path class="cls-2" d="M246.8,40.43,257,71.23h-7.66l-2-6.29h-9.64l-2,6.29H228l10.21-30.8Zm-7.08,18.08h5.54l-2.77-8.71Z"/><path class="cls-2" d="M265.77,40.12V71.23h-7.92V40.12Z"/><path class="cls-2" d="M277.21,63.75h12.23v7.48H269.29V40.12h7.92Z"/><path d="M301,217.74H104.46a7.29,7.29,0,0,1-7.29-7.29l-.5-109.61c0-4,3.76-7.32,7.79-7.32l195.94.39a6.46,6.46,0,0,1,6.79,6.79l1.14,109.75A7.29,7.29,0,0,1,301,217.74Z"/><rect class="cls-2" x="100.66" y="96.34" width="204.17" height="118.59" rx="25.44"/><polygon class="cls-1" points="304.84 204.58 100.66 202.62 100.66 128.28 304.84 128.28 304.84 204.58"/><path d="M119.42,106h3.12v12.26h-3.12v-4.58h-3.5v4.58H112.8V106h3.12v4.56h3.5Z"/><path d="M132.27,115.55v2.66h-8.34V106h8.18v2.65h-5.05v2.15h4.25v2.65h-4.25v2.15Z"/><path d="M136.77,115.26h4.82v2.95h-7.94V106h3.12Z"/><path d="M145.93,115.26h4.81v2.95H142.8V106h3.13Z"/><path d="M160.92,106.78a6.17,6.17,0,0,1,2.25,2.26,6.06,6.06,0,0,1,.84,3.12,6,6,0,0,1-.84,3.1,6.07,6.07,0,0,1-2.25,2.25,6.22,6.22,0,0,1-6.21,0,6.2,6.2,0,0,1-2.27-8.47,6.23,6.23,0,0,1,2.27-2.26,6.22,6.22,0,0,1,6.21,0Zm-1.51,8.13a3.22,3.22,0,0,0,1.16-1.16,3.07,3.07,0,0,0,.44-1.59,3.12,3.12,0,0,0-.44-1.61,3.25,3.25,0,0,0-1.16-1.17,3,3,0,0,0-1.59-.43,3.11,3.11,0,0,0-1.61.43,3.28,3.28,0,0,0-1.17,1.17,3.11,3.11,0,0,0-.43,1.61,3.06,3.06,0,0,0,.43,1.59,3.25,3.25,0,0,0,1.17,1.16,3.11,3.11,0,0,0,1.61.43A3,3,0,0,0,159.41,114.91Z"/><path d="M165.05,106.07h3.38l-.18,8.53h-3Zm2.77,11.81a1.5,1.5,0,0,1-1.09.45,1.52,1.52,0,0,1-1.1-.45,1.44,1.44,0,0,1-.45-1.08,1.48,1.48,0,0,1,.45-1.09,1.52,1.52,0,0,1,1.1-.45,1.5,1.5,0,0,1,1.09.45,1.48,1.48,0,0,1,.45,1.09A1.44,1.44,0,0,1,167.82,117.88Z"/><path d="M184.46,106h3.12v12.26h-3.12v-6.92l-1.52,2.77-.07.14h-3.12l-.09-.14-.21-.4-1.3-2.37v6.92H175V106h3.14l3.16,5.22Z"/><path d="M195.49,106h3.12L195,113.21v5h-3.12v-5L188.27,106h3.13l2,4.18Z"/><path d="M211.24,106h3.12v12.26h-3.12l-3.6-6.58v6.58H204.5V106h3.14l3.6,6.57Z"/><path d="M222.13,106.07l4,12.14h-3l-.8-2.48h-3.8l-.78,2.48h-3l4-12.14Zm-2.79,7.13h2.18l-1.09-3.44Z"/><path d="M235.93,106h3.12v12.26h-3.12v-6.92l-1.53,2.77-.07.14h-3.12l-.08-.14-.21-.4-1.3-2.37v6.92h-3.14V106h3.14l3.15,5.22Z"/><path d="M248.77,115.55v2.66h-8.33V106h8.18v2.65h-5.05v2.15h4.25v2.65h-4.25v2.15Z"/><path d="M258.48,106v12.26h-3.12V106Z"/><path d="M265.47,109.83v-.22a1.07,1.07,0,0,0-.43-.86,1.52,1.52,0,0,0-1-.36,1.62,1.62,0,0,0-1.06.36,1.06,1.06,0,0,0-.45.86.79.79,0,0,0,.45.74,3.84,3.84,0,0,0,1.18.49l.27,0,.3.07a6,6,0,0,1,2.48,1l.16.14a3.61,3.61,0,0,1,.82,1.2,3.29,3.29,0,0,1,.31,1.38,3.49,3.49,0,0,1-.34,1.49,3.84,3.84,0,0,1-1,1.27,4.55,4.55,0,0,1-1.46.82,5.1,5.1,0,0,1-1.7.29,5,5,0,0,1-1.69-.29,4.57,4.57,0,0,1-1.44-.82,3.88,3.88,0,0,1-1-1.27,3.36,3.36,0,0,1-.35-1.49v-.22h3v.22a1.09,1.09,0,0,0,.42.86,1.51,1.51,0,0,0,1,.36,1.63,1.63,0,0,0,1.07-.36,1.08,1.08,0,0,0,.44-.86,1,1,0,0,0-.47-.76,2,2,0,0,0-.48-.26,7.11,7.11,0,0,0-.68-.21l-.57-.14c-.63-.16-1.13-.3-1.49-.43a3,3,0,0,1-1-.59l-.07-.07a4.06,4.06,0,0,1-.91-1.21,3.33,3.33,0,0,1,0-2.91,3.88,3.88,0,0,1,1-1.27,4.57,4.57,0,0,1,1.44-.82,5,5,0,0,1,1.69-.29,5.1,5.1,0,0,1,1.7.29,4.55,4.55,0,0,1,1.46.82,3.84,3.84,0,0,1,1,1.27,3.49,3.49,0,0,1,.34,1.49v.22Z"/><path class="cls-3" d="M126.73,162.62c.1.07,2.27.1,6,.08"/><path class="cls-4" d="M144.59,162.61c29.51-.34,87.69-1.4,112.74-1.86"/><path class="cls-3" d="M263.26,160.64l6-.12"/><path class="cls-3" d="M126.73,189.27c.1.08,2.27.13,6,.17"/><path class="cls-5" d="M144.59,189.52c29.51.1,87.69-.1,112.73-.2"/><path class="cls-3" d="M263.26,189.3l6,0"/><path d="M161.2,140a7.65,7.65,0,0,0-5.76-2,8.46,8.46,0,0,0-5.29,2.81,14.69,14.69,0,0,0-3.86,7.82,10.34,10.34,0,0,0-.19,2.74,13.71,13.71,0,0,0,.24,1.66,7.37,7.37,0,0,0,3.16,5.77,9.56,9.56,0,0,0,6.35,1.34,18.62,18.62,0,0,0,9.43-5.06c.8-.77,1.65-1.52,2.56-2.25a3.74,3.74,0,0,1,1.1,0c.38.07.6.35.65.85a40,40,0,0,1-5.91,5.55,18.26,18.26,0,0,1-8.45,3.56l-.5,0a10.49,10.49,0,0,1-7.54-2,9.38,9.38,0,0,1-3.93-6.9,17.48,17.48,0,0,1,.52-6.33,17.17,17.17,0,0,1,2.58-5.56,15,15,0,0,1,4.31-4.09,13,13,0,0,1,5.66-1.92c1.76-.17,2.93,0,3.52.41S161,138.23,161.2,140Z"/><path d="M171.35,144c1-1.2,2.91-1.94,5.77-2.22a15.55,15.55,0,0,1,4.55.11,10.43,10.43,0,0,1,2.84.9,1.74,1.74,0,0,1,1.05,1.27q.16,1.69-3.48,3.74c-.36.23-1.31.7-2.86,1.42l-3.12,1.48a15.9,15.9,0,0,0-2.3,1.35.33.33,0,0,0,.15.25,3.37,3.37,0,0,0,.6.32l1.41.61c.63.26,1.5.63,2.61,1.12q5,2.19,10.25,4.73c.17.11.39.25.67.45a.91.91,0,0,1,.46.67.61.61,0,0,1-.18.56,1.69,1.69,0,0,1-.55.29,3,3,0,0,1-.67.14l-.6.06a6.48,6.48,0,0,1-2.62-1.08l-3.51-2c-1-.57-2-1.11-3-1.64a25.66,25.66,0,0,0-5.63-2.4l.7,7.07c0,.41-.27.65-.95.72l-.33,0a1,1,0,0,1-1-.56,10.4,10.4,0,0,1-.78-3.6l-.53-6.22a72.24,72.24,0,0,0-1.18-8q.6-1.34,1.77-.09C171.09,143.71,171.24,143.88,171.35,144Zm10.11-.62-1.94.16q-6.74.66-7.59,2.37a1.92,1.92,0,0,0-.19,1.12,9.69,9.69,0,0,0,.17,1.16,3.22,3.22,0,0,0,.87,1.75,1.63,1.63,0,0,0,.32,0,5.34,5.34,0,0,0,.82-.21,14.49,14.49,0,0,0,1.59-.61c.67-.28,1.37-.62,2.11-1s1.46-.78,2.14-1.18c2.15-1.27,3.18-2.23,3.12-2.89C182.84,143.69,182.37,143.46,181.46,143.39Z"/><path d="M196.73,168.44a2.42,2.42,0,0,1-1.24-.24c-.88-.44-1.26-.86-1.13-1.27a17.55,17.55,0,0,0,.79-3.19l.64-3.41c.22-1.08.44-2.28.64-3.59L186,147.68a.94.94,0,0,1-.3-.56.43.43,0,0,1,.24-.43,2.5,2.5,0,0,1,1.1-.33,4.3,4.3,0,0,1,1.37.08,5.58,5.58,0,0,1,1.83.93,72,72,0,0,1,7.37,6.81,74.69,74.69,0,0,1,2.21-8.44,10,10,0,0,1,1.24-2.5,1.8,1.8,0,0,1,.93-.67,2.57,2.57,0,0,1,.77,0c.22,0,.39.18.51.47a55.35,55.35,0,0,0-1.56,5.7q-.72,3.16-1.45,6.55A110.54,110.54,0,0,1,196.73,168.44Z"/><path d="M207.92,159l-1.45.08-.76-7.74c-.06-1.67-.12-3.15-.18-4.45a24.48,24.48,0,0,1,0-3.35,7,7,0,0,1,.6-2.43,4,4,0,0,1,1.58-1.68c1.32-.85,3.84-1.45,7.56-1.82a14.9,14.9,0,0,1,4.12.08,12.79,12.79,0,0,1,2.56.67,2.87,2.87,0,0,1,2.09,2.41,5.27,5.27,0,0,1-.62,3.1,8.91,8.91,0,0,1-2.14,2.56,14.12,14.12,0,0,1-3.13,1.93,30.17,30.17,0,0,1-9.77,2.68l.6,7.45Q209,158.92,207.92,159Zm.07-11.71c.11,1.11.63,1.61,1.55,1.52l.67-.08c.32,0,.88-.13,1.67-.27a22.51,22.51,0,0,0,2.52-.58A27.61,27.61,0,0,0,217,147a11.41,11.41,0,0,0,2.36-1.24c1.55-1.09,2.26-2.35,2.11-3.79-.46-1.41-1.82-2.21-4.08-2.38a9.19,9.19,0,0,0-1.8,0c-.53,0-1.14.14-1.85.27a11.5,11.5,0,0,0-2.44.76,7.69,7.69,0,0,0-2.26,1.4,2.44,2.44,0,0,0-.89,1.8,5.5,5.5,0,0,1-.06.94A13.06,13.06,0,0,0,208,147.32Z"/><path d="M240.18,137.45l-3.08.23c-.45,0-.93.12-1.46.22a1.59,1.59,0,0,0-1.26,1.62c0,.68,0,1.45,0,2.32,0,5.29.13,8.72.29,10.28.07.69.13,1.3.19,1.81a1.57,1.57,0,0,1-1.26,1.75h0a1.56,1.56,0,0,1-1.82-1.53l-.55-14.31a1.58,1.58,0,0,0-1.62-1.55l-5.83.23q-.28,0-.48-.42a3,3,0,0,1-.24-.84,1.54,1.54,0,0,1,.23-.89.88.88,0,0,1,.67-.54c1.69-.09,3.39-.14,5.11-.14,3.18,0,5.88-.15,8.08-.37l2.14-.28a30.22,30.22,0,0,0,3.88-.76,1.56,1.56,0,0,1,1.9,1.23l0,.18a4.56,4.56,0,0,1,.09.57A18.1,18.1,0,0,1,240.18,137.45Z"/><path d="M248.34,149.76a21.4,21.4,0,0,1-1.07-5.12,23.58,23.58,0,0,1,0-5.33,15.18,15.18,0,0,1,1.1-4.12q1.65-3.65,4.67-3.95a6.38,6.38,0,0,1,5.45,2q2.6,2.7,3.13,8.16.67,6.77-.77,10.15a5.88,5.88,0,0,1-5.17,3.76Q250.53,155.87,248.34,149.76Zm.74-6.12q.94,9.6,6.43,9.07,2.69-.27,4.09-3.29a14.34,14.34,0,0,0,.95-7.53c-.28-2.85-1.17-5-2.65-6.32a5.48,5.48,0,0,0-4.49-1.53c-1.38.14-2.52,1.14-3.4,3A12.48,12.48,0,0,0,249.08,143.64Z"/><path d="M134.31,183.53a12.27,12.27,0,0,1,3.91,0l.14,1.47a16.16,16.16,0,0,1-2.13.35l-2.9.33a35.51,35.51,0,0,0-5.83,1,17,17,0,0,0-.14,3.33c.08.58.14,1,.19,1.35a25.41,25.41,0,0,1,.39,2.76,32.68,32.68,0,0,0,4.49-.81c1.67-.41,3-.71,3.88-.92a25.49,25.49,0,0,1,2.86-.45l.16,1.66-11,2.54.66,4.92q2.88-.28,5.86-.87l4.52-.87c1-.19,2.12-.34,3.28-.46a2.07,2.07,0,0,1-.24,1.18c-.4.69-.8.92-1.19.69-3.37.72-6.39,1.33-9.05,1.81l-5.37,1L125,184.35a10.87,10.87,0,0,0,2.81,0Z"/><path d="M157.38,189q.84,8.38.31,9.9l-2,0a81.46,81.46,0,0,0-5.66-6.89L147,188.58q-1.53-1.71-2.83-3.43a58.49,58.49,0,0,0,.44,9.89c.19,1.88.31,3.47.37,4.76a1.56,1.56,0,0,1-1.06.61,2.1,2.1,0,0,1-.85,0,.45.45,0,0,1-.29-.39c0-.2,0-.5,0-.92s0-1.12,0-2.1-.08-2-.14-3.11c-.14-2.85-.31-5.31-.51-7.36s-.39-3.74-.55-5.06c.35-.41.63-.71.82-.89a.57.57,0,0,1,.72-.06,4.52,4.52,0,0,1,1.14,1c.48.54,1.15,1.34,2,2.41q4.49,5.39,8.78,10.06l-.86-13.8a2.23,2.23,0,0,1,.51-.82,1.33,1.33,0,0,1,.76-.28c.62-.06,1,.49,1.1,1.67l.08,1Z"/><path d="M174,183.87l-2.63.2c-.39,0-.81.1-1.26.19a1.38,1.38,0,0,0-1.08,1.38c0,.58,0,1.25,0,2q0,6.8.25,8.8c.05.59.11,1.11.16,1.54a1.35,1.35,0,0,1-1.08,1.51h0a1.35,1.35,0,0,1-1.56-1.31l-.47-12.26a1.37,1.37,0,0,0-1.38-1.33l-5,.21c-.16,0-.29-.11-.41-.37a2.3,2.3,0,0,1-.2-.72,1.4,1.4,0,0,1,.19-.76.78.78,0,0,1,.58-.46c1.45-.08,2.9-.12,4.37-.12,2.73,0,5-.13,6.92-.31l1.83-.25c1.12-.14.59-.26,1.72-.18.82.06,1.46.29,1.62,1.06l0,.15c0,.21-.68.45-.67.57C174.67,183.93,175.59,183.71,174,183.87Z"/><path d="M182.69,189.06c0,.67.08,1.61.19,2.82a22.76,22.76,0,0,0,1,4.34l-2.1,1.38L180,189.8q-1,0-1.05-.6a1.67,1.67,0,0,1,.37-1,10.54,10.54,0,0,0,.6-1,2,2,0,0,0,.18-.84c0-.31,0-.85,0-1.63s-.05-1.61-.09-2.48-.07-1.71-.1-2.49-.06-1.32-.1-1.63a4.76,4.76,0,0,1,.82-.87c.45-.3.77-.23,1,.19l.73,9.17c4.62-.46,7.36-1,8.24-1.75l-.91-9.18c.08-.34.59-.56,1.52-.65a3.16,3.16,0,0,1,.51,0c0,.37.1.92.21,1.67s.21,1.58.33,2.53.25,1.94.4,3,.27,2,.41,3c.25,2,.44,3.42.57,4.34a13.23,13.23,0,0,0,1.93,5.5,7.12,7.12,0,0,1-2.73.8,25.75,25.75,0,0,1-2.23-8.55c-1.24.08-2.08.15-2.53.19s-.95.13-1.5.24A14,14,0,0,0,182.69,189.06Z"/><path d="M209.8,193.89c0,.33-.22.52-.78.57a2,2,0,0,1-.74-.05,1.22,1.22,0,0,1-.43-.16l-.09-3.57a19.74,19.74,0,0,1-3.3,3.09A7.67,7.67,0,0,1,201,195c-.23,0-.47,0-.72,0-2.62,0-4.09-1.63-4.4-4.78a41.48,41.48,0,0,1,.34-7.42,22.81,22.81,0,0,0,.16-3,1.13,1.13,0,0,1,.35-.07l.32,0a1.06,1.06,0,0,1,.23-.05c.57-.06.9.36,1,1.24a9.56,9.56,0,0,1-.12,2.3,31.26,31.26,0,0,0-.46,6.27,4.12,4.12,0,0,0,1.18,2.72,2.77,2.77,0,0,0,1.92.62l.32,0q4.35-.44,5.28-4.9a23.79,23.79,0,0,0,.32-6.22c0-1.11-.12-2.21-.19-3.3.14-.58.38-.88.72-.91a2,2,0,0,1,1.17.36c.16,1.06.29,2.11.39,3.14l.77,10.58C209.6,192.38,209.69,193.13,209.8,193.89Z"/><path d="M211.78,192.48a1.51,1.51,0,0,1,.38-1.11,6.07,6.07,0,0,1,.68-.71,3.76,3.76,0,0,0,.33-.31c.3,1.94,1.66,2.79,4.1,2.55a16,16,0,0,0,6.55-2.53,9.25,9.25,0,0,0,3.4-3,1.26,1.26,0,0,0,.24-.72.88.88,0,0,0-.14-.43l-13.16-1.71a2.84,2.84,0,0,1-1.14-.44c-.69-.41-1.05-.81-1.09-1.19q-.23-2.22,2.64-4.32a27.47,27.47,0,0,1,8.67-3.84c.84-.23,1.46-.38,1.87-.45a2.56,2.56,0,0,0,.58.06,7.59,7.59,0,0,1,.81.07c.66.08.95.34.89.75q.11,1.09-3.86,2.14a37.6,37.6,0,0,0-6.37,2,5.74,5.74,0,0,0-1.74,1.31A2,2,0,0,0,215,182c0,.11.26.2.75.28l1.75.3,2.64.47q4,.71,9.7,1.83a3.2,3.2,0,0,1,.44,1.29,4.35,4.35,0,0,1-1.59,3.46,18.34,18.34,0,0,1-5.73,3.59,18.59,18.59,0,0,1-5,1.5,7.91,7.91,0,0,1-3.07-.29,9.32,9.32,0,0,1-2.25-.91A1.51,1.51,0,0,1,211.78,192.48Z"/><path d="M251.47,180.62l.75-.08a4.31,4.31,0,0,1,.88,0c.28,0,.43.22.47.57.2.72-.19,1.12-1.15,1.2l-.74,0a2.7,2.7,0,0,0-.54,0c-.15,0-.2.08-.18.17.23.51.49,1.09.76,1.74s.56,1.28.87,1.92a14.46,14.46,0,0,0,2.16,3.35,4.08,4.08,0,0,1-.95,1.07,4.53,4.53,0,0,1-.61.45s0,0-.06,0l-4.57-7.83-7.1,2.57-.15,1.19a12.56,12.56,0,0,1-1.3,4.59c-.08.19-.31.23-.66.12-.59-.16-.89-.32-.91-.47s.13-.59.41-1.66.54-2.15.82-3.24.57-2.25.87-3.45.59-2.34.86-3.43.51-2.06.73-2.93.37-1.5.46-1.89a6.59,6.59,0,0,0,.16-1,2.68,2.68,0,0,1,.12-.75c.14-.44.56-.7,1.27-.77a4.93,4.93,0,0,1,2,1.55,14.22,14.22,0,0,1,1.29,2.18q.56,1.17,1.11,2.37a8.66,8.66,0,0,0,1.37,2.15.84.84,0,0,0,.76.34Zm-7.25-5.31a13.2,13.2,0,0,1-.62,3.55c-.38,1.23-.69,2.18-.93,2.86s-.43,1.32-.59,1.89a12,12,0,0,0,4.34-1.54c.43-.25.83-.48,1.23-.68C246.45,177.77,245.3,175.74,244.22,175.31Z"/><path d="M268.39,172.35a2,2,0,0,1-.24,1.18,6.2,6.2,0,0,1-.49.74,3.13,3.13,0,0,0-.23.32c-.29-2.08-1.33-3-3.15-2.86a9.27,9.27,0,0,0-4.8,2.5,7.58,7.58,0,0,0-2.43,3.09,1.67,1.67,0,0,0-.16.77,1.55,1.55,0,0,0,.11.46l9.88,2.26a1.78,1.78,0,0,1,.86.51,2.1,2.1,0,0,1,.85,1.3,5.64,5.64,0,0,1-1.83,4.54,16.57,16.57,0,0,1-6.34,3.83,10.25,10.25,0,0,1-1.38.42,1.31,1.31,0,0,0-.43-.08,4.55,4.55,0,0,1-.61-.1.74.74,0,0,1-.68-.84c-.08-.78.85-1.5,2.81-2.16a20.86,20.86,0,0,0,4.68-1.92,4.44,4.44,0,0,0,1.26-1.35,2.72,2.72,0,0,0,.3-1.52c0-.12-.2-.23-.56-.33l-1.32-.38-2-.58c-2-.6-4.41-1.35-7.29-2.28a4.57,4.57,0,0,1-.37-1.39,5.43,5.43,0,0,1,1.08-3.66,12.83,12.83,0,0,1,4.15-3.65,10,10,0,0,1,3.67-1.44,4.36,4.36,0,0,1,2.29.4,7.07,7.07,0,0,1,1.71,1.05A1.84,1.84,0,0,1,268.39,172.35Z"/><path d="M283.93,172.28l-2.38.18a13,13,0,0,0-2.14.43c0,.82.09,1.88.11,3.18.09,4.63.2,7.62.34,9s1.72,17.65,1.81,18.21l-3.21.54L277,172.89l-5.72.19c-.14,0-.26-.11-.37-.37a2.83,2.83,0,0,1-.2-.74,1.46,1.46,0,0,1,.17-.77c.13-.29.3-.44.52-.46,1.3-.07,2.62-.1,3.95-.09a61.49,61.49,0,0,0,6.24-.25l1.65-.23a7.15,7.15,0,0,0,2.28-.44c.29,0,.49.23.67,1.21,0,.2.09.67.1.8A4.64,4.64,0,0,1,283.93,172.28Z"/><path d="M235.34,190.76c0,.34-.18.53-.65.58a2.42,2.42,0,0,1-1.31-.39,13.12,13.12,0,0,1-.73-3.87c-.21-2.05-.35-3.75-.45-5.1s-.17-2.58-.25-3.71c-.12-2.48-.19-3.78-.21-3.92a3,3,0,0,1,1.35-.66c.37,0,.57.12.61.46Z"/><path d="M233.34,170c0-.43-.08-.65-.12-.65h-.08l-.41-.14-.45-.09a2.49,2.49,0,0,0-.62,0,.47.47,0,0,0-.42.43h0s0,.28,0,.83c0,.1,0,.22.05.34s0,.24,0,.34c.06.55.1.82.14.82h0a.46.46,0,0,0,.5.34,2.24,2.24,0,0,0,.6-.13l.43-.18.37-.21h.08s0-.22,0-.66c0-.15,0-.33-.06-.51S233.36,170.17,233.34,170Z"/></svg>