<svg id="Слой_1" data-name="Слой 1" xmlns="http://www.w3.org/2000/svg" viewBox="0 0 405 405"><defs><style>.cls-1{fill:#e7335d;}.cls-2{fill:#fff;}</style></defs><rect class="cls-1" width="405" height="405"/><path class="cls-2" d="M44.12,39h3.12V53.09h-3.6l-3.64-6-3.66,6h-3.6V39h3.6v8l1.76-3.2.1-.16h3.6l.08.16,1.76,3.2V39Z"/><path class="cls-2" d="M56.48,39h3.6V53.09h-3.6V47.81h-4v5.28h-3.6V39h3.6v5.26h4Z"/><path class="cls-2" d="M69,39.09l4.62,14H70.18l-.92-2.86H64.88L64,53.09h-3.5l4.64-14Zm-3.22,8.22h2.52l-1.26-4Z"/><path class="cls-2" d="M84.72,39v3.6H81.1V53.09H77.48V42.55H73.86V39H84.72Z"/><path class="cls-2" d="M95.72,39V53.09h-3.6V39Z"/><path class="cls-2" d="M103.78,43.43v-.26a1.23,1.23,0,0,0-.49-1,1.76,1.76,0,0,0-1.19-.41,1.87,1.87,0,0,0-1.23.41,1.22,1.22,0,0,0-.51,1,.92.92,0,0,0,.52.86,4.6,4.6,0,0,0,1.36.56l.31.06.35.08a6.82,6.82,0,0,1,2.86,1.18l.18.16a4.1,4.1,0,0,1,1,1.38,3.91,3.91,0,0,1,0,3.32,4.6,4.6,0,0,1-1.13,1.46,5.34,5.34,0,0,1-1.68,1,5.89,5.89,0,0,1-2,.33,5.79,5.79,0,0,1-2-.33,5.41,5.41,0,0,1-1.67-1,4.79,4.79,0,0,1-1.14-1.46,3.84,3.84,0,0,1-.4-1.72v-.26h3.5v.26a1.26,1.26,0,0,0,.49,1,1.79,1.79,0,0,0,1.17.41,1.92,1.92,0,0,0,1.23-.41,1.25,1.25,0,0,0,.51-1,1.15,1.15,0,0,0-.54-.88,2.29,2.29,0,0,0-.56-.3,7.5,7.5,0,0,0-.78-.24l-.66-.16c-.73-.19-1.31-.36-1.72-.5a3.71,3.71,0,0,1-1.14-.68l-.08-.08a4.68,4.68,0,0,1-1-1.4,3.74,3.74,0,0,1-.37-1.64,3.81,3.81,0,0,1,.4-1.72A4.56,4.56,0,0,1,98.46,40a5.21,5.21,0,0,1,1.67-1,5.79,5.79,0,0,1,2-.33,5.89,5.89,0,0,1,2,.33,5.15,5.15,0,0,1,1.68,1,4.39,4.39,0,0,1,1.13,1.46,3.94,3.94,0,0,1,.39,1.72v.26Z"/><path class="cls-2" d="M118,39V53.09h-3.6V39Z"/><path class="cls-2" d="M127.42,39H131V53.09h-3.6l-4.16-7.58v7.58h-3.62V39h3.62l4.16,7.58Z"/><path class="cls-2" d="M140.78,49.46a4.24,4.24,0,0,0,1.2-.79l2.44,2.44a7.35,7.35,0,0,1-2.3,1.55,7.15,7.15,0,0,1-2.76.55,7,7,0,0,1-3.58-1,7.2,7.2,0,0,1-2.6-2.6,7.17,7.17,0,0,1,0-7.17,7.15,7.15,0,0,1,2.6-2.61A7.13,7.13,0,0,1,144.42,41L142,43.45a3.85,3.85,0,0,0-1.2-.79,3.63,3.63,0,0,0-3.26.21,3.69,3.69,0,0,0-1.34,1.35,3.65,3.65,0,0,0,0,3.69,3.82,3.82,0,0,0,1.34,1.34,3.55,3.55,0,0,0,1.84.5A3.64,3.64,0,0,0,140.78,49.46Z"/><path class="cls-2" d="M149.22,49.69h5.56v3.4h-9.16V39h3.6Z"/><path class="cls-2" d="M167.68,39v8.74a5.47,5.47,0,0,1-.75,2.8,5.59,5.59,0,0,1-2,2,5.5,5.5,0,0,1-2.81.75h-.32a5.44,5.44,0,0,1-2.8-.75,5.64,5.64,0,0,1-2-2,5.47,5.47,0,0,1-.75-2.8V39h3.34v7.94a3.42,3.42,0,0,0,.6,2.06,1.94,1.94,0,0,0,1.64.82h.32a2,2,0,0,0,1.63-.83,3.31,3.31,0,0,0,.63-2.05V39Z"/><path class="cls-2" d="M175.48,38.9a8.07,8.07,0,0,1,2.13.51,6,6,0,0,1,1.95,1.22,7,7,0,0,1,1.73,2.43A7.2,7.2,0,0,1,181.9,46a6.91,6.91,0,0,1-.78,3.26,6.48,6.48,0,0,1-2.19,2.5,7.78,7.78,0,0,1-2.88,1.13,20.94,20.94,0,0,1-3.57.27l-1.64,0c-.35,0-.87,0-1.56,0V38.79h3.62A24.06,24.06,0,0,1,175.48,38.9Zm3,7.07a3.61,3.61,0,0,0-.48-1.81,3.74,3.74,0,0,0-1.31-1.37,3.42,3.42,0,0,0-1.81-.54h-2v7.38a15.85,15.85,0,0,0,2.47-.17,4.29,4.29,0,0,0,1.86-.79,3.2,3.2,0,0,0,1.13-1.86A3.82,3.82,0,0,0,178.46,46Z"/><path class="cls-2" d="M192.72,50v3.06H183.1V39h9.44V42h-5.82v2.48h4.9v3.06h-4.9V50Z"/><path class="cls-2" d="M200.52,38.9a8.07,8.07,0,0,1,2.13.51,6,6,0,0,1,1.95,1.22,7,7,0,0,1,1.73,2.43,7.2,7.2,0,0,1,.61,2.91,6.91,6.91,0,0,1-.78,3.26,6.48,6.48,0,0,1-2.19,2.5,7.78,7.78,0,0,1-2.88,1.13,20.94,20.94,0,0,1-3.57.27l-1.64,0c-.35,0-.87,0-1.56,0V38.79h3.62A24.06,24.06,0,0,1,200.52,38.9Zm3,7.07a3.61,3.61,0,0,0-.48-1.81,3.74,3.74,0,0,0-1.31-1.37,3.42,3.42,0,0,0-1.81-.54h-2v7.38a15.85,15.85,0,0,0,2.47-.17,4.29,4.29,0,0,0,1.86-.79,3.2,3.2,0,0,0,1.13-1.86A3.82,3.82,0,0,0,203.5,46Z"/><path class="cls-2" d="M36.34,63V77.09h-3.6V63Z"/><path class="cls-2" d="M45.72,63h3.6V77.09h-3.6l-4.16-7.58v7.58H37.94V63h3.62l4.16,7.58Z"/><path class="cls-2" d="M67.58,63v3.6H64V77.09H60.34V66.55H56.72V63H67.58Z"/><path class="cls-2" d="M76.62,63h3.6V77.09h-3.6V71.81h-4v5.28H69V63h3.6v5.26h4Z"/><path class="cls-2" d="M91.44,74v3.06H81.82V63h9.44V66H85.44v2.48h4.9v3.06h-4.9V74Z"/><path class="cls-2" d="M105.5,67.43v-.26a1.23,1.23,0,0,0-.49-1,1.76,1.76,0,0,0-1.19-.41,1.87,1.87,0,0,0-1.23.41,1.22,1.22,0,0,0-.51,1,.92.92,0,0,0,.52.86,4.6,4.6,0,0,0,1.36.56l.31.06.35.08a6.82,6.82,0,0,1,2.86,1.18l.18.16a4.1,4.1,0,0,1,1,1.38,3.91,3.91,0,0,1,0,3.32,4.6,4.6,0,0,1-1.13,1.46,5.34,5.34,0,0,1-1.68,1,5.89,5.89,0,0,1-2,.33,5.79,5.79,0,0,1-2-.33,5.41,5.41,0,0,1-1.67-1A4.79,4.79,0,0,1,99,74.77a3.84,3.84,0,0,1-.4-1.72v-.26h3.5v.26a1.26,1.26,0,0,0,.49,1,1.79,1.79,0,0,0,1.17.41A1.92,1.92,0,0,0,105,74a1.25,1.25,0,0,0,.51-1,1.15,1.15,0,0,0-.54-.88,2.29,2.29,0,0,0-.56-.3,7.5,7.5,0,0,0-.78-.24l-.66-.16c-.73-.19-1.31-.36-1.72-.5a3.71,3.71,0,0,1-1.14-.68l-.08-.08a4.68,4.68,0,0,1-1-1.4,3.74,3.74,0,0,1-.37-1.64,3.81,3.81,0,0,1,.4-1.72A4.56,4.56,0,0,1,100.18,64a5.21,5.21,0,0,1,1.67-1,5.79,5.79,0,0,1,2-.33,5.89,5.89,0,0,1,2,.33,5.15,5.15,0,0,1,1.68,1,4.39,4.39,0,0,1,1.13,1.46,3.94,3.94,0,0,1,.39,1.72v.26Z"/><path class="cls-2" d="M119.78,74v3.06h-9.62V63h9.44V66h-5.82v2.48h4.9v3.06h-4.9V74Z"/><path class="cls-2" d="M132.92,77.09H129.3l-2.24-5.34h-2.3v5.34h-3.38V63h6.74a4.25,4.25,0,0,1,2.2.59,4.29,4.29,0,0,1,1.61,1.61,4.34,4.34,0,0,1,.59,2.2,4.28,4.28,0,0,1-.54,2.11,4.73,4.73,0,0,1-1.46,1.59Zm-4-10.77a1.34,1.34,0,0,0-.94-.47h-3.32v3H128a1.45,1.45,0,0,0,.94-.49,1.52,1.52,0,0,0,.38-1A1.47,1.47,0,0,0,128.94,66.32Z"/><path class="cls-2" d="M143.42,62.91h3.92l-4.62,14.18h-4.4l-4.6-14.18h4l2.86,8.84Z"/><path class="cls-2" d="M152.14,63V77.09h-3.6V63Z"/><path class="cls-2" d="M161.9,73.46a4.24,4.24,0,0,0,1.2-.79l2.44,2.44a7.35,7.35,0,0,1-2.3,1.55,7.15,7.15,0,0,1-2.76.55,7,7,0,0,1-3.58-1,7.2,7.2,0,0,1-2.6-2.6,7.17,7.17,0,0,1,0-7.17,7.15,7.15,0,0,1,2.6-2.61A7.13,7.13,0,0,1,165.54,65l-2.44,2.44a3.85,3.85,0,0,0-1.2-.79,3.63,3.63,0,0,0-3.26.21,3.69,3.69,0,0,0-1.34,1.35,3.65,3.65,0,0,0,0,3.69,3.82,3.82,0,0,0,1.34,1.34,3.55,3.55,0,0,0,1.84.5A3.64,3.64,0,0,0,161.9,73.46Z"/><path class="cls-2" d="M176.36,74v3.06h-9.62V63h9.44V66h-5.82v2.48h4.9v3.06h-4.9V74Z"/><path class="cls-2" d="M178.56,70.39a1.78,1.78,0,0,1-.5-1.16,1.54,1.54,0,0,1,.46-1.17,1.56,1.56,0,0,1,1.16-.49,1.64,1.64,0,0,1,1.66,1.66,1.56,1.56,0,0,1-.49,1.16,1.62,1.62,0,0,1-1.17.48A1.5,1.5,0,0,1,178.56,70.39Zm0,6.22a1.78,1.78,0,0,1-.5-1.16,1.54,1.54,0,0,1,.46-1.17,1.56,1.56,0,0,1,1.16-.49,1.64,1.64,0,0,1,1.66,1.66,1.56,1.56,0,0,1-.49,1.16,1.62,1.62,0,0,1-1.17.48A1.5,1.5,0,0,1,178.56,76.61Z"/><path class="cls-2" d="M44.12,243.13h3.12v14.14h-3.6l-3.64-6-3.66,6h-3.6V243.13h3.6v8l1.76-3.2.1-.16h3.6l.08.16,1.76,3.2v-8Z"/><path class="cls-2" d="M56.48,243.13h3.6v14.14h-3.6V252h-4v5.28h-3.6V243.13h3.6v5.26h4Z"/><path class="cls-2" d="M71.3,254.21v3.06H61.68V243.13h9.44v3.06H65.3v2.48h4.9v3.06H65.3v2.48Z"/><path class="cls-2" d="M84.44,257.27H80.82l-2.24-5.34h-2.3v5.34H72.9V243.13h6.74a4.25,4.25,0,0,1,2.2.59,4.29,4.29,0,0,1,1.61,1.61,4.39,4.39,0,0,1,0,4.31A4.63,4.63,0,0,1,82,251.23Zm-4-10.77a1.3,1.3,0,0,0-.94-.47H76.2v3h3.32a1.45,1.45,0,0,0,.94-.49,1.52,1.52,0,0,0,.38-1A1.47,1.47,0,0,0,80.46,246.5Z"/><path class="cls-2" d="M95.26,254.21v3.06H85.64V243.13h9.44v3.06H89.26v2.48h4.9v3.06h-4.9v2.48Z"/><path class="cls-2" d="M110.38,243.13H114l-4.16,8.38v5.76h-3.6v-5.76l-4.16-8.38h3.6L108,248Z"/><path class="cls-2" d="M125.12,244.09a7.15,7.15,0,0,1,2.6,2.61,7.17,7.17,0,0,1,0,7.17,7.2,7.2,0,0,1-2.6,2.6,7.17,7.17,0,0,1-7.17,0,7.15,7.15,0,0,1-2.61-2.6,7.17,7.17,0,0,1,0-7.17,7.1,7.1,0,0,1,2.61-2.61,7.17,7.17,0,0,1,7.17,0Zm-1.74,9.38a3.82,3.82,0,0,0,1.34-1.34,3.65,3.65,0,0,0,0-3.69,3.69,3.69,0,0,0-1.34-1.35,3.46,3.46,0,0,0-1.84-.5,3.52,3.52,0,0,0-1.85.5,3.64,3.64,0,0,0-1.35,1.35,3.65,3.65,0,0,0,0,3.69,3.77,3.77,0,0,0,1.35,1.34,3.62,3.62,0,0,0,1.85.5A3.55,3.55,0,0,0,123.38,253.47Z"/><path class="cls-2" d="M141.38,243.15v8.74a5.47,5.47,0,0,1-.75,2.8,5.59,5.59,0,0,1-2,2,5.5,5.5,0,0,1-2.81.75h-.32a5.44,5.44,0,0,1-2.8-.75,5.64,5.64,0,0,1-2-2,5.47,5.47,0,0,1-.75-2.8v-8.74h3.34v7.94a3.42,3.42,0,0,0,.6,2.06,1.94,1.94,0,0,0,1.64.82h.32a2,2,0,0,0,1.63-.83,3.31,3.31,0,0,0,.63-2v-7.94Z"/><path class="cls-2" d="M157.14,253.64a4.24,4.24,0,0,0,1.2-.79l2.44,2.44a7.35,7.35,0,0,1-2.3,1.55,7.15,7.15,0,0,1-2.76.55,7,7,0,0,1-3.58-1,7.2,7.2,0,0,1-2.6-2.6,7.17,7.17,0,0,1,0-7.17,7.15,7.15,0,0,1,2.6-2.61,7.13,7.13,0,0,1,8.64,1.14l-2.44,2.44a3.85,3.85,0,0,0-1.2-.79,3.63,3.63,0,0,0-3.26.21,3.69,3.69,0,0,0-1.34,1.35,3.65,3.65,0,0,0,0,3.69,3.82,3.82,0,0,0,1.34,1.34,3.55,3.55,0,0,0,1.84.5A3.64,3.64,0,0,0,157.14,253.64Z"/><path class="cls-2" d="M169.34,243.27l4.62,14h-3.48l-.92-2.86h-4.38l-.9,2.86h-3.5l4.64-14Zm-3.22,8.22h2.52l-1.26-4Z"/><path class="cls-2" d="M182.14,243.13h3.6v14.14h-3.6L178,249.69v7.58h-3.62V243.13H178l4.16,7.58Z"/><path class="cls-2" d="M202.64,243.09h3.92l-4.62,14.18h-4.4l-4.6-14.18h4l2.86,8.84Z"/><path class="cls-2" d="M211.36,243.13v14.14h-3.6V243.13Z"/><path class="cls-2" d="M222.58,254.21v3.06H213V243.13h9.44v3.06h-5.82v2.48h4.9v3.06h-4.9v2.48Z"/><path class="cls-2" d="M235.56,243.13h3.12v14.14h-3.6l-3.64-6-3.66,6h-3.6V243.13h3.6v8l1.76-3.2.1-.16h3.6l.08.16,1.76,3.2v-8Z"/><path class="cls-2" d="M42.36,278.21v3.06H32.74V267.13h9.44v3.06H36.36v2.48h4.9v3.06h-4.9v2.48Z"/><path class="cls-2" d="M56.38,281.27H52.2L50,277.59l-2.22,3.68H43.56l4.32-7.14-4.24-7h4.18L50,270.67l2.14-3.54h4.2l-4.24,7Z"/><path class="cls-2" d="M64.94,267.27l4.62,14H66.08l-.92-2.86H60.78l-.9,2.86h-3.5l4.64-14Zm-3.22,8.22h2.52l-1.26-4Z"/><path class="cls-2" d="M80.86,267.13h3.6v14.14h-3.6v-8l-1.76,3.2-.08.16h-3.6l-.1-.16-.24-.46-1.5-2.74v8H70V267.13h3.62l3.64,6Z"/><path class="cls-2" d="M95,267.72a4.42,4.42,0,0,1,1.6,6,4.38,4.38,0,0,1-1.6,1.6,4.33,4.33,0,0,1-2.21.59H89.44v5.34H86.06V267.13H92.8A4.23,4.23,0,0,1,95,267.72Zm-1.38,2.78a1.34,1.34,0,0,0-.95-.47H89.36v3h3.32a1.37,1.37,0,0,0,.95-.49,1.54,1.54,0,0,0,.39-1A1.44,1.44,0,0,0,93.63,270.5Z"/><path class="cls-2" d="M102,277.87h5.56v3.4H98.4V267.13H102Z"/><path class="cls-2" d="M118.58,278.21v3.06H109V267.13h9.44v3.06h-5.82v2.48h4.9v3.06h-4.9v2.48Z"/><path class="cls-2" d="M126.64,271.61v-.26a1.23,1.23,0,0,0-.49-1A1.74,1.74,0,0,0,125,270a1.87,1.87,0,0,0-1.23.41,1.22,1.22,0,0,0-.51,1,.92.92,0,0,0,.52.86,4.72,4.72,0,0,0,1.36.56l.31.06.35.08a6.82,6.82,0,0,1,2.86,1.18l.18.16a4.1,4.1,0,0,1,.95,1.38,3.91,3.91,0,0,1,0,3.32,4.46,4.46,0,0,1-1.13,1.46,5.34,5.34,0,0,1-1.68.95,6,6,0,0,1-3.91,0,5.41,5.41,0,0,1-1.67-.95,4.79,4.79,0,0,1-1.14-1.46,4,4,0,0,1-.4-1.72V277h3.5v.26a1.29,1.29,0,0,0,.49,1,1.79,1.79,0,0,0,1.17.41,1.92,1.92,0,0,0,1.23-.41,1.25,1.25,0,0,0,.51-1,1.15,1.15,0,0,0-.54-.88,2.29,2.29,0,0,0-.56-.3,7.5,7.5,0,0,0-.78-.24l-.66-.16c-.73-.19-1.31-.36-1.72-.5a3.71,3.71,0,0,1-1.14-.68l-.08-.08a4.68,4.68,0,0,1-1-1.4,3.74,3.74,0,0,1-.37-1.64,4,4,0,0,1,.4-1.72,4.56,4.56,0,0,1,1.14-1.46,5.21,5.21,0,0,1,1.67-.95,6,6,0,0,1,3.91,0,5.15,5.15,0,0,1,1.68.95,4.27,4.27,0,0,1,1.13,1.46,3.94,3.94,0,0,1,.39,1.72v.26Z"/><path class="cls-2" d="M131.9,274.57a1.83,1.83,0,0,1-.5-1.16,1.54,1.54,0,0,1,.46-1.17,1.56,1.56,0,0,1,1.16-.49,1.64,1.64,0,0,1,1.66,1.66,1.56,1.56,0,0,1-.49,1.16,1.61,1.61,0,0,1-1.17.48A1.5,1.5,0,0,1,131.9,274.57Zm0,6.22a1.83,1.83,0,0,1-.5-1.16,1.54,1.54,0,0,1,.46-1.17A1.56,1.56,0,0,1,133,278a1.64,1.64,0,0,1,1.66,1.66,1.56,1.56,0,0,1-.49,1.16,1.61,1.61,0,0,1-1.17.48A1.5,1.5,0,0,1,131.9,280.79Z"/><path d="M37.4,94.5l3.23,9.8H38.2l-.65-2H34.49l-.63,2H31.41l3.24-9.8Zm-2.26,5.75h1.77L36,97.48Z"/><path d="M46.36,94.4h2.52v9.9H46.36L43.45,99v5.31H40.91V94.4h2.54l2.91,5.3Z"/><path d="M55.15,94.5l3.23,9.8H56l-.65-2H52.24l-.63,2H49.16l3.25-9.8Zm-2.25,5.75h1.76l-.88-2.77Z"/><path d="M61.18,101.92h3.9v2.38H58.66V94.4h2.52Z"/><path d="M71.32,94.4h2.52l-2.91,5.86v4H68.41v-4L65.5,94.4H68l1.65,3.37Z"/><path d="M78.92,97.53v-.18a.86.86,0,0,0-.34-.69,1.27,1.27,0,0,0-.83-.29,1.36,1.36,0,0,0-.87.29.87.87,0,0,0-.35.69.64.64,0,0,0,.36.6,3.15,3.15,0,0,0,1,.4l.22,0,.24,0a5,5,0,0,1,2,.83l.12.11a3.17,3.17,0,0,1,.67,1,2.82,2.82,0,0,1,.24,1.12,2.77,2.77,0,0,1-.27,1.2,3,3,0,0,1-.79,1,3.72,3.72,0,0,1-1.18.67,4.19,4.19,0,0,1-1.37.23,4.09,4.09,0,0,1-1.36-.23,3.57,3.57,0,0,1-1.17-.67,3,3,0,0,1-.8-1,2.64,2.64,0,0,1-.28-1.2v-.18h2.45v.18a.86.86,0,0,0,.34.69,1.24,1.24,0,0,0,.82.29,1.33,1.33,0,0,0,.86-.29.85.85,0,0,0,.36-.69.82.82,0,0,0-.38-.62,1.79,1.79,0,0,0-.39-.21l-.55-.17-.46-.11A12.08,12.08,0,0,1,76,100a2.41,2.41,0,0,1-.8-.47l-.06-.06a3.26,3.26,0,0,1-.73-1,2.69,2.69,0,0,1-.26-1.15,2.64,2.64,0,0,1,.28-1.2,3.23,3.23,0,0,1,.8-1,3.76,3.76,0,0,1,1.17-.67,4.09,4.09,0,0,1,1.36-.23,4.19,4.19,0,0,1,1.37.23,3.93,3.93,0,0,1,1.18.67,3.19,3.19,0,0,1,.79,1,2.77,2.77,0,0,1,.27,1.2v.18Z"/><path d="M84.7,94.4v9.9H82.18V94.4Z"/><path d="M90.35,97.53v-.18a.87.87,0,0,0-.35-.69,1.25,1.25,0,0,0-.83-.29,1.33,1.33,0,0,0-.86.29.85.85,0,0,0-.36.69.63.63,0,0,0,.37.6,3.15,3.15,0,0,0,1,.4l.21,0,.25,0a4.86,4.86,0,0,1,2,.83l.13.11a3,3,0,0,1,.66,1,2.68,2.68,0,0,1,.25,1.12,2.64,2.64,0,0,1-.28,1.2,2.87,2.87,0,0,1-.79,1,3.57,3.57,0,0,1-1.17.67,4.24,4.24,0,0,1-1.37.23,4.15,4.15,0,0,1-1.37-.23,3.79,3.79,0,0,1-1.17-.67,3.15,3.15,0,0,1-.8-1,2.78,2.78,0,0,1-.28-1.2v-.18H88v.18a.87.87,0,0,0,.35.69,1.24,1.24,0,0,0,.82.29,1.35,1.35,0,0,0,.86-.29.87.87,0,0,0,.35-.69.81.81,0,0,0-.37-.62,2.15,2.15,0,0,0-.4-.21l-.54-.17-.46-.11a11.63,11.63,0,0,1-1.21-.35,2.51,2.51,0,0,1-.8-.47l0-.06a3.13,3.13,0,0,1-.74-1,2.69,2.69,0,0,1-.26-1.15,2.78,2.78,0,0,1,.28-1.2,3.38,3.38,0,0,1,.8-1,4,4,0,0,1,1.17-.67,4.15,4.15,0,0,1,1.37-.23,4.24,4.24,0,0,1,1.37.23,3.76,3.76,0,0,1,1.17.67,3.06,3.06,0,0,1,.79,1,2.64,2.64,0,0,1,.28,1.2v.18Z"/><path d="M105,95.07a5,5,0,0,1,2.5,4.34,5,5,0,0,1-.67,2.51,5.07,5.07,0,0,1-1.83,1.82,5,5,0,0,1-5,0,5.07,5.07,0,0,1-1.83-1.82,5,5,0,0,1,0-5A5,5,0,0,1,100,95.07a5,5,0,0,1,5,0Zm-1.21,6.57a2.82,2.82,0,0,0,.94-.94,2.55,2.55,0,0,0,0-2.58,2.67,2.67,0,0,0-.94-1,2.5,2.5,0,0,0-1.29-.35,2.56,2.56,0,0,0-1.3.35,2.6,2.6,0,0,0-.94,1,2.55,2.55,0,0,0,0,2.58,2.73,2.73,0,0,0,.94.94,2.56,2.56,0,0,0,1.3.35A2.5,2.5,0,0,0,103.83,101.64Z"/><path d="M115.27,96.54H110.9v1.74h3.5v2.14h-3.5v3.88h-2.52V94.4h6.89Z"/><path d="M127.93,94.4h2.53v9.9h-2.53V98.71L126.7,101l0,.11h-2.52l-.07-.11-.17-.32-1-1.92v5.59H120.3V94.4h2.54l2.55,4.21Z"/><path d="M138.31,102.15v2.15h-6.73V94.4h6.6v2.14h-4.07v1.74h3.43v2.14h-3.43v1.73Z"/><path d="M143.77,94.36a5.68,5.68,0,0,1,1.49.36,4.4,4.4,0,0,1,1.37.85,5.1,5.1,0,0,1,1.63,3.74,4.85,4.85,0,0,1-.54,2.28,4.49,4.49,0,0,1-1.54,1.75,5.31,5.31,0,0,1-2,.8,15.51,15.51,0,0,1-2.5.18h-2.24v-10H142C142.66,94.29,143.26,94.31,143.77,94.36Zm2.08,5a2.52,2.52,0,0,0-.33-1.26,2.65,2.65,0,0,0-.92-1,2.39,2.39,0,0,0-1.27-.38H142v5.16a12.17,12.17,0,0,0,1.73-.11,2.92,2.92,0,0,0,1.3-.56,2.24,2.24,0,0,0,.8-1.3A3.19,3.19,0,0,0,145.85,99.31Z"/><path d="M151.62,94.4v9.9H149.1V94.4Z"/><path d="M157.89,94.5l3.24,9.8h-2.44l-.64-2H155l-.63,2H151.9l3.25-9.8Zm-2.25,5.75h1.77l-.89-2.77Z"/><path d="M171.87,94.81A3.08,3.08,0,0,1,173,95.93a3.07,3.07,0,0,1,0,3.1,3.08,3.08,0,0,1-1.12,1.12,3,3,0,0,1-1.54.41H168v3.74h-2.36V94.4h4.72A3,3,0,0,1,171.87,94.81Zm-1,2a1,1,0,0,0-.67-.33h-2.32v2.1h2.32a1,1,0,0,0,.67-.34,1.08,1.08,0,0,0,.27-.73A1,1,0,0,0,170.91,96.76Z"/><path d="M181,102.15v2.15h-6.73V94.4h6.6v2.14h-4.07v1.74h3.43v2.14h-3.43v1.73Z"/><path d="M190.18,104.3h-2.54l-1.56-3.74h-1.61v3.74H182.1V94.4h4.72a3.09,3.09,0,0,1,1.54.41,3.14,3.14,0,0,1,1.13,1.13,3.08,3.08,0,0,1,0,3,3.19,3.19,0,0,1-1,1.11Zm-2.79-7.54a.94.94,0,0,0-.66-.33h-2.32v2.1h2.32a1,1,0,0,0,.66-.34,1.08,1.08,0,0,0,.27-.73A1,1,0,0,0,187.39,96.76Z"/><path d="M195.54,97.53v-.18a.86.86,0,0,0-.34-.69,1.28,1.28,0,0,0-.84-.29,1.35,1.35,0,0,0-.86.29.87.87,0,0,0-.35.69.64.64,0,0,0,.36.6,3.15,3.15,0,0,0,1,.4l.22,0,.24,0a5,5,0,0,1,2,.83l.12.11a3.17,3.17,0,0,1,.67,1,2.82,2.82,0,0,1,.24,1.12,2.77,2.77,0,0,1-.27,1.2,3,3,0,0,1-.79,1,3.72,3.72,0,0,1-1.18.67,4.19,4.19,0,0,1-1.37.23,4.09,4.09,0,0,1-1.36-.23,3.57,3.57,0,0,1-1.17-.67,3,3,0,0,1-.8-1,2.64,2.64,0,0,1-.28-1.2v-.18h2.45v.18a.86.86,0,0,0,.34.69,1.24,1.24,0,0,0,.82.29,1.33,1.33,0,0,0,.86-.29.85.85,0,0,0,.36-.69.82.82,0,0,0-.38-.62,1.79,1.79,0,0,0-.39-.21l-.55-.17-.46-.11a12.08,12.08,0,0,1-1.2-.35,2.41,2.41,0,0,1-.8-.47l-.06-.06a3.26,3.26,0,0,1-.73-1,2.55,2.55,0,0,1-.26-1.15,2.64,2.64,0,0,1,.28-1.2,3.23,3.23,0,0,1,.8-1,3.76,3.76,0,0,1,1.17-.67,4.09,4.09,0,0,1,1.36-.23,4.19,4.19,0,0,1,1.37.23,3.93,3.93,0,0,1,1.18.67,3.19,3.19,0,0,1,.79,1,2.77,2.77,0,0,1,.27,1.2v.18Z"/><path d="M206,95.07a5,5,0,0,1,1.82,1.83,5,5,0,0,1,0,5,5,5,0,0,1-1.82,1.82,4.94,4.94,0,0,1-2.51.67,5,5,0,0,1-2.51-.67,5.07,5.07,0,0,1-1.83-1.82,5,5,0,0,1,0-5A5,5,0,0,1,201,95.07a4.89,4.89,0,0,1,2.51-.67A4.84,4.84,0,0,1,206,95.07Zm-1.22,6.57a2.73,2.73,0,0,0,.94-.94,2.55,2.55,0,0,0,0-2.58,2.6,2.6,0,0,0-.94-1,2.5,2.5,0,0,0-1.29-.35,2.55,2.55,0,0,0-1.29.35,2.62,2.62,0,0,0-1,1,2.55,2.55,0,0,0,0,2.58,2.76,2.76,0,0,0,1,.94,2.55,2.55,0,0,0,1.29.35A2.5,2.5,0,0,0,204.82,101.64Z"/><path d="M214.82,94.4h2.52v9.9h-2.52L211.91,99v5.31h-2.54V94.4h2.54l2.91,5.3Z"/><path d="M223,97.53v-.18a.86.86,0,0,0-.34-.69,1.28,1.28,0,0,0-.84-.29,1.35,1.35,0,0,0-.86.29.87.87,0,0,0-.35.69.64.64,0,0,0,.36.6,3.15,3.15,0,0,0,1,.4l.22,0,.24,0a5,5,0,0,1,2,.83l.12.11a3.17,3.17,0,0,1,.67,1,2.82,2.82,0,0,1,.24,1.12,2.77,2.77,0,0,1-.27,1.2,3,3,0,0,1-.79,1,3.72,3.72,0,0,1-1.18.67,4.2,4.2,0,0,1-2.74,0,3.63,3.63,0,0,1-1.16-.67,2.9,2.9,0,0,1-.8-1,2.64,2.64,0,0,1-.28-1.2v-.18h2.45v.18a.86.86,0,0,0,.34.69,1.24,1.24,0,0,0,.82.29,1.33,1.33,0,0,0,.86-.29.85.85,0,0,0,.36-.69.82.82,0,0,0-.38-.62,1.79,1.79,0,0,0-.39-.21l-.55-.17-.46-.11A12.08,12.08,0,0,1,220,100a2.41,2.41,0,0,1-.8-.47l-.06-.06a3.1,3.1,0,0,1-.73-1,2.55,2.55,0,0,1-.26-1.15,2.64,2.64,0,0,1,.28-1.2,3.09,3.09,0,0,1,.8-1,3.83,3.83,0,0,1,1.16-.67,4.2,4.2,0,0,1,2.74,0,3.93,3.93,0,0,1,1.18.67,3.19,3.19,0,0,1,.79,1,2.77,2.77,0,0,1,.27,1.2v.18Z"/><path d="M226.72,102.57h2.36l-1,3.17H226Z"/><path d="M238.65,97.53v-.18a.87.87,0,0,0-.35-.69,1.25,1.25,0,0,0-.83-.29,1.33,1.33,0,0,0-.86.29.85.85,0,0,0-.36.69.63.63,0,0,0,.37.6,3.15,3.15,0,0,0,.95.4l.22,0,.24,0a4.86,4.86,0,0,1,2,.83l.13.11a3,3,0,0,1,.66,1,2.68,2.68,0,0,1,.25,1.12,2.64,2.64,0,0,1-.28,1.2,2.87,2.87,0,0,1-.79,1,3.57,3.57,0,0,1-1.17.67,4.24,4.24,0,0,1-1.37.23,4.15,4.15,0,0,1-1.37-.23,3.79,3.79,0,0,1-1.17-.67,3.15,3.15,0,0,1-.8-1,2.78,2.78,0,0,1-.28-1.2v-.18h2.45v.18a.87.87,0,0,0,.35.69,1.24,1.24,0,0,0,.82.29,1.35,1.35,0,0,0,.86-.29.87.87,0,0,0,.35-.69.81.81,0,0,0-.37-.62,2.15,2.15,0,0,0-.4-.21l-.54-.17-.46-.11a11.63,11.63,0,0,1-1.21-.35,2.51,2.51,0,0,1-.8-.47l0-.06a3.29,3.29,0,0,1-.74-1,2.69,2.69,0,0,1-.26-1.15,2.78,2.78,0,0,1,.28-1.2,3.38,3.38,0,0,1,.8-1,4,4,0,0,1,1.17-.67,4.15,4.15,0,0,1,1.37-.23,4.24,4.24,0,0,1,1.37.23,3.76,3.76,0,0,1,1.17.67,3.06,3.06,0,0,1,.79,1,2.64,2.64,0,0,1,.28,1.2v.18Z"/><path d="M248.64,102.15v2.15h-6.73V94.4h6.61v2.14h-4.08v1.74h3.43v2.14h-3.43v1.73Z"/><path d="M252.28,101.92h3.89v2.38h-6.41V94.4h2.52Z"/><path d="M263.89,102.15v2.15h-6.74V94.4h6.61v2.14h-4.07v1.74h3.43v2.14h-3.43v1.73Z"/><path d="M270.72,101.76a2.69,2.69,0,0,0,.84-.56l1.71,1.71a5.15,5.15,0,0,1-1.61,1.09,5,5,0,0,1-1.93.38,4.87,4.87,0,0,1-2.51-.67,5.12,5.12,0,0,1-1.82-1.82,5,5,0,0,1,0-5A5.07,5.07,0,0,1,267.22,95a5,5,0,0,1,4.44-.28,5,5,0,0,1,1.61,1.08l-1.71,1.71a2.66,2.66,0,0,0-.84-.55,2.45,2.45,0,0,0-1-.21,2.5,2.5,0,0,0-1.29.35,2.67,2.67,0,0,0-.94,1,2.52,2.52,0,0,0-.35,1.29,2.5,2.5,0,0,0,.35,1.29,2.65,2.65,0,0,0,.94.94,2.5,2.5,0,0,0,1.29.35A2.61,2.61,0,0,0,270.72,101.76Z"/><path d="M281.57,94.4v2.52H279v7.38H276.5V96.92H274V94.4h7.6Z"/><path d="M285.07,94.4v9.9h-2.52V94.4Z"/><path d="M293.43,95.07a5.07,5.07,0,0,1,1.82,1.83,5,5,0,0,1,0,5,5.12,5.12,0,0,1-1.82,1.82,5,5,0,0,1-5,0,5.07,5.07,0,0,1-1.83-1.82,5,5,0,0,1,0-5,5,5,0,0,1,1.83-1.83,5,5,0,0,1,5,0Zm-1.22,6.57a2.73,2.73,0,0,0,.94-.94,2.55,2.55,0,0,0,0-2.58,2.6,2.6,0,0,0-.94-1,2.5,2.5,0,0,0-1.29-.35,2.52,2.52,0,0,0-1.29.35,2.62,2.62,0,0,0-.95,1,2.55,2.55,0,0,0,0,2.58,2.76,2.76,0,0,0,.95.94,2.52,2.52,0,0,0,1.29.35A2.5,2.5,0,0,0,292.21,101.64Z"/><path d="M302.21,94.4h2.52v9.9h-2.52L299.29,99v5.31h-2.53V94.4h2.53l2.92,5.3Z"/><path d="M317.28,95.07a5,5,0,0,1-2.5,9.34,5,5,0,0,1-4.34-2.49,5,5,0,0,1,0-5,5,5,0,0,1,1.82-1.83,4.9,4.9,0,0,1,2.52-.67A4.83,4.83,0,0,1,317.28,95.07Zm-1.21,6.57a2.7,2.7,0,0,0,.93-.94,2.55,2.55,0,0,0,0-2.58,2.56,2.56,0,0,0-3.52-1,2.6,2.6,0,0,0-.94,1,2.55,2.55,0,0,0,0,2.58,2.73,2.73,0,0,0,.94.94,2.57,2.57,0,0,0,2.59,0Z"/><path d="M327.5,96.54h-4.36v1.74h3.5v2.14h-3.5v3.88h-2.52V94.4h6.88Z"/><path d="M38.51,111.61a3.16,3.16,0,0,1,1.12,1.12,3.13,3.13,0,0,1,0,3.1A3.16,3.16,0,0,1,38.51,117a3.07,3.07,0,0,1-1.55.41H34.61v3.74H32.25v-9.9H37A3.07,3.07,0,0,1,38.51,111.61Zm-1,2a1,1,0,0,0-.66-.33H34.56v2.1h2.32a.93.93,0,0,0,.66-.34,1,1,0,0,0,.28-.73A1,1,0,0,0,37.54,113.56Z"/><path d="M47.62,119v2.15H40.88v-9.9h6.61v2.14H43.42v1.74h3.43v2.14H43.42V119Z"/><path d="M56.82,121.1H54.28l-1.57-3.74H51.1v3.74H48.74v-9.9h4.72a3.09,3.09,0,0,1,1.54.41,3,3,0,0,1,1.12,1.13,3,3,0,0,1,.42,1.54,3,3,0,0,1-.38,1.48,3.22,3.22,0,0,1-1,1.11ZM54,113.56a1,1,0,0,0-.66-.33H51.05v2.1h2.32A1,1,0,0,0,54,115a1.07,1.07,0,0,0,.26-.73A1,1,0,0,0,54,113.56Z"/><path d="M62.18,114.33v-.18a.87.87,0,0,0-.35-.69,1.23,1.23,0,0,0-.83-.29,1.35,1.35,0,0,0-.86.29.85.85,0,0,0-.36.69.63.63,0,0,0,.37.6,3.15,3.15,0,0,0,1,.4l.22,0,.24,0a4.86,4.86,0,0,1,2,.83l.13.11a2.88,2.88,0,0,1,.66,1,2.68,2.68,0,0,1,.25,1.12,2.77,2.77,0,0,1-.27,1.2,3.23,3.23,0,0,1-.79,1,3.72,3.72,0,0,1-1.18.67,4.24,4.24,0,0,1-1.37.23,4.19,4.19,0,0,1-1.37-.23,3.79,3.79,0,0,1-1.17-.67,3.09,3.09,0,0,1-.79-1,2.64,2.64,0,0,1-.28-1.2v-.18h2.45v.18a.86.86,0,0,0,.34.69,1.24,1.24,0,0,0,.82.29,1.35,1.35,0,0,0,.86-.29.85.85,0,0,0,.36-.69.82.82,0,0,0-.38-.62,2.15,2.15,0,0,0-.4-.21l-.54-.17-.46-.11a11.63,11.63,0,0,1-1.21-.35,2.51,2.51,0,0,1-.8-.47l-.05-.06a3.29,3.29,0,0,1-.74-1,2.68,2.68,0,0,1-.25-1.15,2.64,2.64,0,0,1,.28-1.2,3.19,3.19,0,0,1,.79-1,4,4,0,0,1,1.17-.67A4.19,4.19,0,0,1,61,111a4.24,4.24,0,0,1,1.37.23,3.93,3.93,0,0,1,1.18.67,3.34,3.34,0,0,1,.79,1,2.77,2.77,0,0,1,.27,1.2v.18Z"/><path d="M72.68,111.87a5.07,5.07,0,0,1,1.82,1.83,5,5,0,0,1,0,5,5.12,5.12,0,0,1-1.82,1.82,5,5,0,0,1-5,0,5.07,5.07,0,0,1-1.83-1.82,5,5,0,0,1,0-5,5,5,0,0,1,1.83-1.83,5,5,0,0,1,5,0Zm-1.22,6.57a2.82,2.82,0,0,0,.94-.94,2.55,2.55,0,0,0,0-2.58,2.67,2.67,0,0,0-.94-1,2.55,2.55,0,0,0-2.58,0,2.55,2.55,0,0,0-.95,1,2.55,2.55,0,0,0,0,2.58,2.67,2.67,0,0,0,.95.94,2.55,2.55,0,0,0,2.58,0Z"/><path d="M81.46,111.2H84v9.9H81.46l-2.92-5.31v5.31H76v-9.9h2.53l2.92,5.3Z"/><path d="M89.62,114.33v-.18a.87.87,0,0,0-.35-.69,1.25,1.25,0,0,0-.83-.29,1.33,1.33,0,0,0-.86.29.85.85,0,0,0-.36.69.63.63,0,0,0,.37.6,3.15,3.15,0,0,0,1,.4l.22,0,.24,0a4.86,4.86,0,0,1,2,.83l.13.11a2.88,2.88,0,0,1,.66,1,2.68,2.68,0,0,1,.25,1.12,2.77,2.77,0,0,1-.27,1.2,3.12,3.12,0,0,1-.8,1,3.57,3.57,0,0,1-1.17.67,4.24,4.24,0,0,1-1.37.23,4.19,4.19,0,0,1-1.37-.23,3.79,3.79,0,0,1-1.17-.67,3.26,3.26,0,0,1-.8-1,2.78,2.78,0,0,1-.28-1.2v-.18h2.45v.18a.87.87,0,0,0,.35.69,1.24,1.24,0,0,0,.82.29,1.35,1.35,0,0,0,.86-.29.84.84,0,0,0,.35-.69.81.81,0,0,0-.37-.62,2.06,2.06,0,0,0-.39-.21l-.55-.17-.46-.11a11.63,11.63,0,0,1-1.21-.35,2.37,2.37,0,0,1-.79-.47l-.06-.06a3.29,3.29,0,0,1-.74-1,2.69,2.69,0,0,1-.26-1.15,2.78,2.78,0,0,1,.28-1.2,3.38,3.38,0,0,1,.8-1,4,4,0,0,1,1.17-.67,4.19,4.19,0,0,1,1.37-.23,4.24,4.24,0,0,1,1.37.23,3.76,3.76,0,0,1,1.17.67,3.23,3.23,0,0,1,.8,1,2.77,2.77,0,0,1,.27,1.2v.18Z"/><path d="M104,113.34H99.6v1.74h3.5v2.14H99.6v3.88H97.08v-9.9H104Z"/><path d="M112,111.87a5,5,0,0,1,2.5,4.34,5,5,0,0,1-.67,2.51,5.07,5.07,0,0,1-1.83,1.82,5,5,0,0,1-5,0,5.07,5.07,0,0,1-1.83-1.82,5,5,0,0,1,0-5,5,5,0,0,1,1.83-1.83,5,5,0,0,1,5,0Zm-1.21,6.57a2.7,2.7,0,0,0,.93-.94,2.49,2.49,0,0,0,0-2.58,2.57,2.57,0,0,0-.93-1,2.52,2.52,0,0,0-1.29-.35,2.56,2.56,0,0,0-1.3.35,2.6,2.6,0,0,0-.94,1,2.55,2.55,0,0,0,0,2.58,2.73,2.73,0,0,0,.94.94,2.56,2.56,0,0,0,1.3.35A2.52,2.52,0,0,0,110.83,118.44Z"/><path d="M123.46,121.1h-2.54l-1.57-3.74h-1.61v3.74h-2.36v-9.9h4.71a3,3,0,0,1,1.54.41,3.07,3.07,0,0,1,1.54,2.67,3,3,0,0,1-.37,1.48,3.32,3.32,0,0,1-1,1.11Zm-2.79-7.54a1,1,0,0,0-.66-.33h-2.32v2.1H120a1,1,0,0,0,.66-.34,1.07,1.07,0,0,0,.26-.73A1,1,0,0,0,120.67,113.56Z"/><path d="M134.21,118.56a2.94,2.94,0,0,0,.84-.56l1.7,1.71a4.93,4.93,0,0,1-1.61,1.09,5,5,0,0,1-1.93.38,4.83,4.83,0,0,1-2.5-.67,5,5,0,0,1-1.82-1.82,5,5,0,0,1,4.32-7.52,4.82,4.82,0,0,1,1.93.39,4.76,4.76,0,0,1,1.61,1.08l-1.7,1.71a2.91,2.91,0,0,0-.84-.55,2.46,2.46,0,0,0-1-.21,2.55,2.55,0,0,0-1.29.35,2.65,2.65,0,0,0-.93,1,2.43,2.43,0,0,0-.35,1.29,2.41,2.41,0,0,0,.35,1.29,2.7,2.7,0,0,0,.93.94,2.55,2.55,0,0,0,1.29.35A2.62,2.62,0,0,0,134.21,118.56Z"/><path d="M144.83,111.87a5,5,0,0,1,1.82,1.83,5,5,0,0,1,0,5,5,5,0,0,1-1.82,1.82,4.93,4.93,0,0,1-2.5.67,5,5,0,0,1-4.34-2.49,5,5,0,0,1,6.84-6.85Zm-1.22,6.57a2.65,2.65,0,0,0,.94-.94,2.55,2.55,0,0,0,0-2.58,2.52,2.52,0,0,0-.94-1,2.49,2.49,0,0,0-1.28-.35,2.56,2.56,0,0,0-1.3.35,2.52,2.52,0,0,0-.94,1,2.55,2.55,0,0,0,0,2.58,2.65,2.65,0,0,0,.94.94,2.56,2.56,0,0,0,1.3.35A2.49,2.49,0,0,0,143.61,118.44Z"/><path d="M155.4,111.87a5,5,0,0,1,1.82,1.83,5,5,0,0,1,0,5,5,5,0,0,1-1.82,1.82,4.93,4.93,0,0,1-2.5.67,5,5,0,0,1-4.34-2.49,5,5,0,0,1,6.84-6.85Zm-1.22,6.57a2.65,2.65,0,0,0,.94-.94,2.55,2.55,0,0,0,0-2.58,2.52,2.52,0,0,0-.94-1,2.49,2.49,0,0,0-1.28-.35,2.56,2.56,0,0,0-1.3.35,2.52,2.52,0,0,0-.94,1,2.55,2.55,0,0,0,0,2.58,2.65,2.65,0,0,0,.94.94,2.56,2.56,0,0,0,1.3.35A2.49,2.49,0,0,0,154.18,118.44Z"/><path d="M165,111.61a3.16,3.16,0,0,1,1.12,1.12,3.13,3.13,0,0,1,0,3.1A3.16,3.16,0,0,1,165,117a3.07,3.07,0,0,1-1.55.41H161.1v3.74h-2.37v-9.9h4.72A3.07,3.07,0,0,1,165,111.61Zm-1,2a1,1,0,0,0-.66-.33H161v2.1h2.33A.93.93,0,0,0,164,115a1.09,1.09,0,0,0,.28-.73A1,1,0,0,0,164,113.56Z"/><path d="M174.11,119v2.15h-6.74v-9.9H174v2.14h-4.07v1.74h3.43v2.14h-3.43V119Z"/><path d="M183.3,121.1h-2.53l-1.57-3.74h-1.61v3.74h-2.36v-9.9h4.71a3.07,3.07,0,0,1,2.67,1.54,3,3,0,0,1,.41,1.54,3,3,0,0,1-.37,1.48,3.32,3.32,0,0,1-1,1.11Zm-2.78-7.54a1,1,0,0,0-.66-.33h-2.32v2.1h2.32a1,1,0,0,0,.66-.34,1.07,1.07,0,0,0,.26-.73A1,1,0,0,0,180.52,113.56Z"/><path d="M189.3,111.3l3.23,9.8h-2.44l-.64-2h-3.07l-.63,2H183.3l3.25-9.8ZM187,117.05h1.77l-.89-2.77Z"/><path d="M200.27,111.2v2.52h-2.53v7.38H195.2v-7.38h-2.53V111.2h7.6Z"/><path d="M203.77,111.2v9.9h-2.52v-9.9Z"/><path d="M212.13,111.87A5.07,5.07,0,0,1,214,113.7a5,5,0,0,1,0,5,5.12,5.12,0,0,1-1.82,1.82,5,5,0,0,1-5,0,5.07,5.07,0,0,1-1.83-1.82,5,5,0,0,1,0-5,5,5,0,0,1,1.83-1.83,5,5,0,0,1,5,0Zm-1.22,6.57a2.73,2.73,0,0,0,.94-.94,2.55,2.55,0,0,0,0-2.58,2.6,2.6,0,0,0-.94-1,2.5,2.5,0,0,0-1.29-.35,2.55,2.55,0,0,0-1.29.35,2.62,2.62,0,0,0-1,1,2.55,2.55,0,0,0,0,2.58,2.76,2.76,0,0,0,1,.94,2.55,2.55,0,0,0,1.29.35A2.5,2.5,0,0,0,210.91,118.44Z"/><path d="M220.91,111.2h2.52v9.9h-2.52L218,115.79v5.31h-2.54v-9.9H218l2.91,5.3Z"/><path d="M225,119.37h2.37l-1,3.17h-2.08Z"/><path d="M238.69,111.61a3.08,3.08,0,0,1-1.54,5.75h-2.36v3.74h-2.36v-9.9h4.72A3,3,0,0,1,238.69,111.61Zm-1,2a1,1,0,0,0-.67-.33h-2.32v2.1h2.32a1,1,0,0,0,.67-.34,1.08,1.08,0,0,0,.27-.73A1,1,0,0,0,237.73,113.56Z"/><path d="M249.14,121.1h-2.53L245,117.36h-1.61v3.74h-2.36v-9.9h4.71a3.06,3.06,0,0,1,1.54.41,3.07,3.07,0,0,1,1.54,2.67,3,3,0,0,1-.37,1.48,3.32,3.32,0,0,1-1,1.11Zm-2.78-7.54a1,1,0,0,0-.66-.33h-2.32v2.1h2.32a1,1,0,0,0,.66-.34,1.08,1.08,0,0,0,.27-.73A1,1,0,0,0,246.36,113.56Z"/><path d="M256.72,119v2.15H250v-9.9h6.61v2.14h-4.07v1.74H256v2.14h-3.43V119Z"/><path d="M264.1,111.61a3.08,3.08,0,0,1-1.54,5.75H260.2v3.74h-2.36v-9.9h4.72A3,3,0,0,1,264.1,111.61Zm-1,2a1,1,0,0,0-.67-.33h-2.32v2.1h2.32a1,1,0,0,0,.67-.34,1.08,1.08,0,0,0,.27-.73A1,1,0,0,0,263.14,113.56Z"/><path d="M271.63,111.3l3.23,9.8h-2.43l-.65-2h-3.06l-.63,2h-2.45l3.24-9.8Zm-2.26,5.75h1.77l-.88-2.77Z"/><path d="M283.22,121.1h-2.53l-1.57-3.74h-1.61v3.74h-2.37v-9.9h4.72a3.07,3.07,0,0,1,3.08,3.08,3,3,0,0,1-.38,1.48,3.19,3.19,0,0,1-1,1.11Zm-2.79-7.54a.92.92,0,0,0-.65-.33h-2.33v2.1h2.33a1,1,0,0,0,.65-.34,1.08,1.08,0,0,0,.27-.73A1,1,0,0,0,280.43,113.56Z"/><path d="M289.21,111.3l3.24,9.8H290l-.64-2H286.3l-.63,2h-2.45l3.25-9.8ZM287,117.05h1.76l-.88-2.77Z"/><path d="M300.19,111.2v2.52h-2.54v7.38h-2.53v-7.38h-2.53V111.2h7.6Z"/><path d="M303.69,111.2v9.9h-2.52v-9.9Z"/><path d="M312.05,111.87a5.07,5.07,0,0,1,1.82,1.83,5,5,0,0,1,0,5,5.12,5.12,0,0,1-1.82,1.82,5,5,0,0,1-5,0,5.07,5.07,0,0,1-1.83-1.82,5,5,0,0,1,0-5,5,5,0,0,1,1.83-1.83,5,5,0,0,1,5,0Zm-1.22,6.57a2.82,2.82,0,0,0,.94-.94,2.55,2.55,0,0,0,0-2.58,2.67,2.67,0,0,0-.94-1,2.55,2.55,0,0,0-2.58,0,2.55,2.55,0,0,0-.95,1,2.55,2.55,0,0,0,0,2.58,2.67,2.67,0,0,0,.95.94,2.55,2.55,0,0,0,2.58,0Z"/><path d="M320.82,111.2h2.52v9.9h-2.52l-2.91-5.31v5.31h-2.53v-9.9h2.53l2.91,5.3Z"/><path d="M335.9,111.87a5,5,0,0,1,1.82,1.83,5,5,0,0,1,0,5,5,5,0,0,1-1.82,1.82,4.93,4.93,0,0,1-2.5.67,5,5,0,0,1-4.34-2.49,5,5,0,0,1,6.84-6.85Zm-1.22,6.57a2.65,2.65,0,0,0,.94-.94,2.59,2.59,0,0,0-2.22-3.88,2.56,2.56,0,0,0-1.3.35,2.52,2.52,0,0,0-.94,1,2.55,2.55,0,0,0,0,2.58,2.65,2.65,0,0,0,.94.94,2.56,2.56,0,0,0,1.3.35A2.49,2.49,0,0,0,334.68,118.44Z"/><path d="M346.12,113.34h-4.37v1.74h3.5v2.14h-3.5v3.88h-2.52v-9.9h6.89Z"/><path d="M356.31,111.3l3.24,9.8h-2.44l-.64-2H353.4l-.63,2h-2.45l3.25-9.8Zm-2.25,5.75h1.76l-.88-2.77Z"/><path d="M38.51,128.41a3.16,3.16,0,0,1,1.12,1.12,3.13,3.13,0,0,1,0,3.1,3.16,3.16,0,0,1-1.12,1.12,3.07,3.07,0,0,1-1.55.41H34.61v3.74H32.25V128H37A3.07,3.07,0,0,1,38.51,128.41Zm-1,2a1,1,0,0,0-.66-.33H34.56v2.1h2.32a.93.93,0,0,0,.66-.34,1.06,1.06,0,0,0,.28-.73A1,1,0,0,0,37.54,130.36Z"/><path d="M48.93,128v6.12a3.81,3.81,0,0,1-.52,2A3.9,3.9,0,0,1,47,137.51a3.85,3.85,0,0,1-2,.53h-.22a3.82,3.82,0,0,1-2-.53,3.87,3.87,0,0,1-1.42-1.42,3.82,3.82,0,0,1-.53-2V128h2.34v5.56a2.36,2.36,0,0,0,.42,1.44,1.33,1.33,0,0,0,1.15.58H45a1.36,1.36,0,0,0,1.14-.59,2.24,2.24,0,0,0,.44-1.43V128Z"/><path d="M57.51,133.72a2.69,2.69,0,0,1,.33,1.32,2.8,2.8,0,0,1-.38,1.42,2.85,2.85,0,0,1-1,1,2.93,2.93,0,0,1-1.43.4h-5V128h4.5a2.65,2.65,0,0,1,1.44.4,2.82,2.82,0,0,1,.64,4.34A2.65,2.65,0,0,1,57.51,133.72Zm-2.61-3.41a1,1,0,0,0-.72-.3H52.36v2.1h1.82a1.65,1.65,0,0,0,.34-.05,1.11,1.11,0,0,0,.25-.14,1,1,0,0,0,.32-.38,1,1,0,0,0,.12-.49A1,1,0,0,0,54.9,130.31Zm.42,5.23a1,1,0,0,0,.29-.74,1,1,0,0,0-.24-.66,1,1,0,0,0-.6-.36H52.36v2.1H54.6A1,1,0,0,0,55.32,135.54Z"/><path d="M61.2,135.52h3.89v2.38H58.68V128H61.2Z"/><path d="M68.59,128v9.9H66.07V128Z"/><path d="M75.42,135.35a2.5,2.5,0,0,0,.84-.55L78,136.51A4.91,4.91,0,0,1,74.43,138a4.87,4.87,0,0,1-2.51-.67,5.12,5.12,0,0,1-1.82-1.82,5,5,0,0,1,0-5,5.07,5.07,0,0,1,1.82-1.83,4.87,4.87,0,0,1,2.51-.67A4.91,4.91,0,0,1,78,129.44l-1.71,1.71a2.66,2.66,0,0,0-.84-.55,2.45,2.45,0,0,0-1-.21,2.5,2.5,0,0,0-1.29.35,2.67,2.67,0,0,0-.94.95,2.52,2.52,0,0,0-.35,1.29,2.5,2.5,0,0,0,.35,1.29,2.73,2.73,0,0,0,.94.94,2.5,2.5,0,0,0,1.29.35A2.45,2.45,0,0,0,75.42,135.35Z"/><path d="M84,128.1l3.24,9.8H84.76l-.64-2H81.05l-.63,2H78l3.25-9.8Zm-2.25,5.75h1.76l-.88-2.77Z"/><path d="M94.94,128v2.52H92.4v7.38H89.87v-7.38H87.33V128h7.61Z"/><path d="M98.44,128v9.9H95.92V128Z"/><path d="M106.79,128.67a5,5,0,0,1,1.83,1.83,5,5,0,0,1,0,5,5.07,5.07,0,0,1-1.83,1.82,5,5,0,0,1-5,0,5.07,5.07,0,0,1-1.83-1.82,5,5,0,0,1,0-5,5,5,0,0,1,1.83-1.83,5,5,0,0,1,5,0Zm-1.21,6.57a2.82,2.82,0,0,0,.94-.94,2.5,2.5,0,0,0,.35-1.29,2.56,2.56,0,0,0-.35-1.3,2.73,2.73,0,0,0-.94-.94,2.5,2.5,0,0,0-1.29-.35,2.56,2.56,0,0,0-1.3.35,2.65,2.65,0,0,0-.94.94,2.56,2.56,0,0,0-.35,1.3,2.5,2.5,0,0,0,.35,1.29,2.73,2.73,0,0,0,.94.94,2.56,2.56,0,0,0,1.3.35A2.5,2.5,0,0,0,105.58,135.24Z"/><path d="M115.57,128h2.52v9.9h-2.52l-2.91-5.31v5.31h-2.53V128h2.53l2.91,5.3Z"/><path d="M129.68,128.41a3.16,3.16,0,0,1,1.12,1.12,3.13,3.13,0,0,1,0,3.1,3.16,3.16,0,0,1-1.12,1.12,3.07,3.07,0,0,1-1.55.41h-2.35v3.74h-2.37V128h4.72A3.07,3.07,0,0,1,129.68,128.41Zm-1,2a1,1,0,0,0-.66-.33h-2.33v2.1h2.33a.93.93,0,0,0,.66-.34,1.1,1.1,0,0,0,.27-.73A1,1,0,0,0,128.71,130.36Z"/><path d="M134.57,135.52h3.89v2.38h-6.41V128h2.52Z"/><path d="M144.59,128.1l3.24,9.8h-2.44l-.64-2h-3.07l-.63,2H138.6l3.25-9.8Zm-2.25,5.75h1.76l-.88-2.77Z"/><path d="M153.55,128h2.52v9.9h-2.52l-2.91-5.31v5.31h-2.53V128h2.53l2.91,5.3Z"/><path d="M157.67,136.17H160l-1,3.17h-2.09Z"/><path d="M170.79,135.35a2.6,2.6,0,0,0,.84-.55l1.71,1.71a5.15,5.15,0,0,1-1.61,1.09,5.08,5.08,0,0,1-1.94.38,4.83,4.83,0,0,1-2.5-.67,5,5,0,0,1-1.82-1.82,5,5,0,0,1,0-5,5,5,0,0,1,1.82-1.83,4.83,4.83,0,0,1,2.5-.67,5.08,5.08,0,0,1,1.94.38,5.15,5.15,0,0,1,1.61,1.09l-1.71,1.71a2.78,2.78,0,0,0-.84-.55,2.46,2.46,0,0,0-1-.21,2.49,2.49,0,0,0-1.28.35,2.59,2.59,0,0,0-.94.95,2.43,2.43,0,0,0-.35,1.29,2.41,2.41,0,0,0,.35,1.29,2.65,2.65,0,0,0,.94.94,2.49,2.49,0,0,0,1.28.35A2.46,2.46,0,0,0,170.79,135.35Z"/><path d="M182.25,137.9h-2.53l-1.57-3.74h-1.61v3.74h-2.36V128h4.71a3.06,3.06,0,0,1,1.54.41,3.07,3.07,0,0,1,1.54,2.67,3,3,0,0,1-.37,1.48,3.32,3.32,0,0,1-1,1.11Zm-2.78-7.54a1,1,0,0,0-.66-.33h-2.32v2.1h2.32a1,1,0,0,0,.66-.34,1.07,1.07,0,0,0,.26-.73A1,1,0,0,0,179.47,130.36Z"/><path d="M189.83,135.75v2.15h-6.74V128h6.61v2.14h-4.07v1.74h3.43V134h-3.43v1.73Z"/><path d="M196.1,128.1l3.23,9.8H196.9l-.65-2h-3.06l-.63,2h-2.45l3.25-9.8Zm-2.25,5.75h1.76l-.88-2.77Z"/><path d="M207.08,128v2.52h-2.54v7.38H202v-7.38h-2.54V128h7.61Z"/><path d="M210.58,128v9.9h-2.52V128Z"/><path d="M218.93,128.67a5,5,0,0,1-5,8.67,5,5,0,0,1-1.83-1.82,5,5,0,0,1,0-5,4.94,4.94,0,0,1,1.83-1.83,5,5,0,0,1,5,0Zm-1.21,6.57a2.7,2.7,0,0,0,.93-.94A2.41,2.41,0,0,0,219,133a2.46,2.46,0,0,0-.35-1.3,2.62,2.62,0,0,0-.93-.94,2.57,2.57,0,0,0-2.59,0,2.65,2.65,0,0,0-.94.94,2.46,2.46,0,0,0-.35,1.3,2.41,2.41,0,0,0,.35,1.29,2.73,2.73,0,0,0,.94.94,2.57,2.57,0,0,0,2.59,0Z"/><path d="M227.71,128h2.52v9.9h-2.52l-2.91-5.31v5.31h-2.53V128h2.53l2.91,5.3Z"/><path d="M242.79,128.67a5.07,5.07,0,0,1,1.82,1.83,5,5,0,0,1,0,5,5.12,5.12,0,0,1-1.82,1.82,5,5,0,0,1-5,0,5.07,5.07,0,0,1-1.83-1.82,5,5,0,0,1,0-5,5,5,0,0,1,1.83-1.83,5,5,0,0,1,5,0Zm-1.22,6.57a2.73,2.73,0,0,0,.94-.94,2.5,2.5,0,0,0,.35-1.29,2.56,2.56,0,0,0-.35-1.3,2.65,2.65,0,0,0-.94-.94,2.5,2.5,0,0,0-1.29-.35,2.52,2.52,0,0,0-1.29.35,2.67,2.67,0,0,0-1,.94,2.56,2.56,0,0,0-.35,1.3,2.5,2.5,0,0,0,.35,1.29,2.76,2.76,0,0,0,1,.94,2.52,2.52,0,0,0,1.29.35A2.5,2.5,0,0,0,241.57,135.24Z"/><path d="M253,130.14h-4.37v1.74h3.5V134h-3.5v3.88h-2.52V128H253Z"/><path d="M265.51,128v2.52H263v7.38h-2.54v-7.38h-2.53V128h7.6Z"/><path d="M273.22,135.75v2.15h-6.73V128h6.61v2.14H269v1.74h3.43V134H269v1.73Z"/><path d="M280.06,135.35a2.71,2.71,0,0,0,.84-.55l1.7,1.71a5,5,0,0,1-1.6,1.09,5.08,5.08,0,0,1-1.94.38,4.83,4.83,0,0,1-2.5-.67,5,5,0,0,1-1.82-1.82,5,5,0,0,1,4.32-7.52,5.08,5.08,0,0,1,1.94.38,5,5,0,0,1,1.6,1.09l-1.7,1.71a2.91,2.91,0,0,0-.84-.55,2.46,2.46,0,0,0-1-.21,2.49,2.49,0,0,0-1.28.35,2.59,2.59,0,0,0-.94.95,2.43,2.43,0,0,0-.35,1.29,2.41,2.41,0,0,0,.35,1.29,2.65,2.65,0,0,0,.94.94,2.49,2.49,0,0,0,1.28.35A2.46,2.46,0,0,0,280.06,135.35Z"/><path d="M288.79,128h2.52v9.9h-2.52v-3.7H286v3.7h-2.51V128H286v3.68h2.83Z"/><path d="M297.88,128h2.52v9.9h-2.52L295,132.59v5.31h-2.54V128H295l2.91,5.3Z"/><path d="M304,128v9.9h-2.52V128Z"/><path d="M310.87,135.35a2.5,2.5,0,0,0,.84-.55l1.71,1.71a4.91,4.91,0,0,1-3.54,1.47,4.87,4.87,0,0,1-2.51-.67,5.12,5.12,0,0,1-1.82-1.82,5,5,0,0,1,0-5,5.07,5.07,0,0,1,1.82-1.83,4.87,4.87,0,0,1,2.51-.67,4.91,4.91,0,0,1,3.54,1.47l-1.71,1.71a2.66,2.66,0,0,0-.84-.55,2.45,2.45,0,0,0-1-.21,2.5,2.5,0,0,0-1.29.35,2.67,2.67,0,0,0-.94.95,2.52,2.52,0,0,0-.35,1.29,2.5,2.5,0,0,0,.35,1.29,2.73,2.73,0,0,0,.94.94,2.5,2.5,0,0,0,1.29.35A2.45,2.45,0,0,0,310.87,135.35Z"/><path d="M319.41,128.1l3.23,9.8h-2.43l-.64-2H316.5l-.63,2h-2.45l3.25-9.8Zm-2.25,5.75h1.76l-.88-2.77Z"/><path d="M325.45,135.52h3.89v2.38h-6.42V128h2.53Z"/><path d="M36.77,147.93v-.18a.87.87,0,0,0-.35-.69,1.23,1.23,0,0,0-.83-.29,1.33,1.33,0,0,0-.86.29.85.85,0,0,0-.36.69.63.63,0,0,0,.37.6,3.15,3.15,0,0,0,.95.4l.22,0,.24.05a4.86,4.86,0,0,1,2,.83l.13.11a3,3,0,0,1,.66,1,2.68,2.68,0,0,1,.25,1.12,2.77,2.77,0,0,1-.27,1.2,3.12,3.12,0,0,1-.79,1,3.72,3.72,0,0,1-1.18.67,4.24,4.24,0,0,1-1.37.23,4.19,4.19,0,0,1-1.37-.23,3.79,3.79,0,0,1-1.17-.67,3,3,0,0,1-.79-1,2.65,2.65,0,0,1-.29-1.2v-.18h2.46v.18a.86.86,0,0,0,.34.69,1.24,1.24,0,0,0,.82.29,1.35,1.35,0,0,0,.86-.29.84.84,0,0,0,.35-.69.81.81,0,0,0-.37-.62A2.06,2.06,0,0,0,36,151l-.55-.17-.46-.11a11.63,11.63,0,0,1-1.21-.35,2.37,2.37,0,0,1-.79-.47l-.06-.06a3.29,3.29,0,0,1-.74-1,2.69,2.69,0,0,1-.26-1.15,2.65,2.65,0,0,1,.29-1.2,3.19,3.19,0,0,1,.79-1,4,4,0,0,1,1.17-.67,4.19,4.19,0,0,1,1.37-.23,4.24,4.24,0,0,1,1.37.23,3.93,3.93,0,0,1,1.18.67,3.34,3.34,0,0,1,.79,1,2.77,2.77,0,0,1,.27,1.2v.18Z"/><path d="M46.29,145.21A3.08,3.08,0,0,1,44.75,151H42.4v3.74H40v-9.9h4.72A3,3,0,0,1,46.29,145.21Zm-1,1.95a1,1,0,0,0-.67-.33H42.34v2.1h2.32a1,1,0,0,0,.67-.34,1.08,1.08,0,0,0,.27-.73A1,1,0,0,0,45.33,147.16Z"/><path d="M55.4,152.55v2.15H48.67v-9.9h6.61v2.14H51.2v1.74h3.43v2.14H51.2v1.73Z"/><path d="M62.23,152.16a2.69,2.69,0,0,0,.84-.56l1.71,1.71a4.91,4.91,0,0,1-3.54,1.47,4.87,4.87,0,0,1-2.51-.67,5.12,5.12,0,0,1-1.82-1.82,5,5,0,0,1,0-5,5.07,5.07,0,0,1,1.82-1.83,5,5,0,0,1,6.05.8L63.07,148a2.66,2.66,0,0,0-.84-.55,2.41,2.41,0,0,0-1-.21,2.5,2.5,0,0,0-1.29.35,2.76,2.76,0,0,0-.94,1,2.52,2.52,0,0,0-.35,1.29,2.5,2.5,0,0,0,.35,1.29A2.82,2.82,0,0,0,60,152a2.5,2.5,0,0,0,1.29.35A2.57,2.57,0,0,0,62.23,152.16Z"/><path d="M68.14,144.8v9.9H65.62v-9.9Z"/><path d="M76.15,146.94H71.78v1.74h3.5v2.14h-3.5v3.88H69.26v-9.9h6.89Z"/><path d="M79.51,144.8v9.9H77v-9.9Z"/><path d="M86.34,152.16a2.69,2.69,0,0,0,.84-.56l1.71,1.71a4.91,4.91,0,0,1-3.54,1.47,4.87,4.87,0,0,1-2.51-.67A5.12,5.12,0,0,1,81,152.29a5,5,0,0,1,0-5,5.07,5.07,0,0,1,1.82-1.83,5,5,0,0,1,6,.8L87.18,148a2.66,2.66,0,0,0-.84-.55,2.45,2.45,0,0,0-1-.21,2.5,2.5,0,0,0-1.29.35,2.67,2.67,0,0,0-.94,1,2.52,2.52,0,0,0-.35,1.29,2.5,2.5,0,0,0,.35,1.29,2.73,2.73,0,0,0,.94.94,2.5,2.5,0,0,0,1.29.35A2.61,2.61,0,0,0,86.34,152.16Z"/><path d="M94.88,144.9l3.24,9.8H95.68l-.64-2H92l-.63,2H88.89l3.25-9.8Zm-2.25,5.75h1.76l-.88-2.77Z"/><path d="M105.86,144.8v2.52h-2.54v7.38h-2.53v-7.38H98.26V144.8h7.6Z"/><path d="M109.36,144.8v9.9h-2.52v-9.9Z"/><path d="M117.72,145.47a5.07,5.07,0,0,1,1.82,1.83,5,5,0,0,1,0,5,5.12,5.12,0,0,1-1.82,1.82,5,5,0,0,1-5,0,5.07,5.07,0,0,1-1.83-1.82,5,5,0,0,1,0-5,5,5,0,0,1,1.83-1.83,5,5,0,0,1,5,0ZM116.5,152a2.82,2.82,0,0,0,.94-.94,2.55,2.55,0,0,0,0-2.58,2.67,2.67,0,0,0-.94-1,2.55,2.55,0,0,0-2.58,0,2.55,2.55,0,0,0-1,1,2.55,2.55,0,0,0,0,2.58,2.67,2.67,0,0,0,1,.94,2.55,2.55,0,0,0,2.58,0Z"/><path d="M126.49,144.8H129v9.9h-2.52l-2.91-5.31v5.31h-2.53v-9.9h2.53l2.91,5.3Z"/><path d="M134.66,147.93v-.18a.87.87,0,0,0-.35-.69,1.25,1.25,0,0,0-.83-.29,1.33,1.33,0,0,0-.86.29.85.85,0,0,0-.36.69.63.63,0,0,0,.37.6,3.15,3.15,0,0,0,1,.4l.21,0,.25.05a4.86,4.86,0,0,1,2,.83l.13.11a3,3,0,0,1,.66,1,2.68,2.68,0,0,1,.25,1.12,2.64,2.64,0,0,1-.28,1.2,2.87,2.87,0,0,1-.79,1,3.57,3.57,0,0,1-1.17.67,4.24,4.24,0,0,1-1.37.23,4.15,4.15,0,0,1-1.37-.23,3.79,3.79,0,0,1-1.17-.67,3.15,3.15,0,0,1-.8-1,2.78,2.78,0,0,1-.28-1.2v-.18h2.45v.18a.87.87,0,0,0,.35.69,1.24,1.24,0,0,0,.82.29,1.35,1.35,0,0,0,.86-.29.87.87,0,0,0,.35-.69.81.81,0,0,0-.37-.62,2.15,2.15,0,0,0-.4-.21l-.54-.17-.46-.11a11.63,11.63,0,0,1-1.21-.35,2.51,2.51,0,0,1-.8-.47l-.05-.06a3.29,3.29,0,0,1-.74-1,2.69,2.69,0,0,1-.26-1.15,2.78,2.78,0,0,1,.28-1.2,3.38,3.38,0,0,1,.8-1,4,4,0,0,1,1.17-.67,4.15,4.15,0,0,1,1.37-.23,4.24,4.24,0,0,1,1.37.23,3.76,3.76,0,0,1,1.17.67,3.06,3.06,0,0,1,.79,1,2.64,2.64,0,0,1,.28,1.2v.18Z"/><path d="M149,146.94h-4.37v1.74h3.5v2.14h-3.5v3.88h-2.52v-9.9H149Z"/><path d="M157.08,145.47a5,5,0,0,1-2.5,9.34,5,5,0,0,1-4.34-2.49,5,5,0,0,1,0-5,5,5,0,0,1,1.82-1.83,4.9,4.9,0,0,1,2.52-.67A4.83,4.83,0,0,1,157.08,145.47ZM155.87,152a2.7,2.7,0,0,0,.93-.94,2.55,2.55,0,0,0,0-2.58,2.56,2.56,0,0,0-3.52-1,2.6,2.6,0,0,0-.94,1,2.55,2.55,0,0,0,0,2.58,2.73,2.73,0,0,0,.94.94,2.57,2.57,0,0,0,2.59,0Z"/><path d="M168.49,154.7H166L164.39,151h-1.61v3.74h-2.36v-9.9h4.71a3.07,3.07,0,0,1,2.67,1.54,3.08,3.08,0,0,1,0,3,3.19,3.19,0,0,1-1,1.11Zm-2.78-7.54a1,1,0,0,0-.66-.33h-2.32v2.1h2.32a1,1,0,0,0,.66-.34,1.12,1.12,0,0,0,.26-.73A1,1,0,0,0,165.71,147.16Z"/><path d="M179.8,145.21a3.16,3.16,0,0,1,1.12,1.12,3.13,3.13,0,0,1,0,3.1,3.16,3.16,0,0,1-1.12,1.12,3.07,3.07,0,0,1-1.55.41H175.9v3.74h-2.37v-9.9h4.72A3.07,3.07,0,0,1,179.8,145.21Zm-1,1.95a1,1,0,0,0-.66-.33h-2.33v2.1h2.33a.93.93,0,0,0,.66-.34,1.08,1.08,0,0,0,.27-.73A1,1,0,0,0,178.83,147.16Z"/><path d="M190.25,154.7h-2.54L186.15,151h-1.61v3.74h-2.37v-9.9h4.72a3.09,3.09,0,0,1,1.54.41,3.14,3.14,0,0,1,1.13,1.13,3.08,3.08,0,0,1,0,3,3.19,3.19,0,0,1-1,1.11Zm-2.79-7.54a.92.92,0,0,0-.66-.33h-2.32v2.1h2.32a1,1,0,0,0,.66-.34,1.08,1.08,0,0,0,.27-.73A1,1,0,0,0,187.46,147.16Z"/><path d="M198.33,145.47a5.07,5.07,0,0,1,1.82,1.83,5,5,0,0,1,0,5,5.12,5.12,0,0,1-1.82,1.82,5,5,0,0,1-5,0,5.07,5.07,0,0,1-1.83-1.82,5,5,0,0,1,0-5,5,5,0,0,1,1.83-1.83,5,5,0,0,1,5,0ZM197.11,152a2.82,2.82,0,0,0,.94-.94,2.55,2.55,0,0,0,0-2.58,2.67,2.67,0,0,0-.94-1,2.55,2.55,0,0,0-2.58,0,2.55,2.55,0,0,0-.95,1,2.55,2.55,0,0,0,0,2.58,2.67,2.67,0,0,0,.95.94,2.55,2.55,0,0,0,2.58,0Z"/><path d="M206.85,144.77h2.34v6.12a3.81,3.81,0,0,1-.52,2,3.9,3.9,0,0,1-1.43,1.42,3.78,3.78,0,0,1-2,.52,3.83,3.83,0,0,1-2-.52,3.94,3.94,0,0,1-1.42-1.42,3.81,3.81,0,0,1-.52-2v-.41h2.34a2.22,2.22,0,0,0,.44,1.34,1.37,1.37,0,0,0,1.12.52,1.35,1.35,0,0,0,1.13-.58,2.24,2.24,0,0,0,.44-1.43Z"/><path d="M217,152.55v2.15h-6.73v-9.9h6.61v2.14h-4.08v1.74h3.43v2.14h-3.43v1.73Z"/><path d="M223.88,152.16a2.94,2.94,0,0,0,.84-.56l1.7,1.71a4.93,4.93,0,0,1-1.61,1.09,5,5,0,0,1-1.93.38,4.83,4.83,0,0,1-2.5-.67,5,5,0,0,1-1.82-1.82,5,5,0,0,1,4.32-7.52,4.82,4.82,0,0,1,1.93.39,4.76,4.76,0,0,1,1.61,1.08l-1.7,1.71a2.91,2.91,0,0,0-.84-.55,2.46,2.46,0,0,0-1-.21,2.55,2.55,0,0,0-1.29.35,2.65,2.65,0,0,0-.93,1,2.43,2.43,0,0,0-.35,1.29,2.41,2.41,0,0,0,.35,1.29,2.7,2.7,0,0,0,.93.94,2.55,2.55,0,0,0,1.29.35A2.62,2.62,0,0,0,223.88,152.16Z"/><path d="M234.73,144.8v2.52h-2.54v7.38h-2.53v-7.38h-2.54V144.8h7.61Z"/><path d="M245.62,152.16a2.81,2.81,0,0,0,.84-.56l1.71,1.71a5.15,5.15,0,0,1-1.61,1.09,5.08,5.08,0,0,1-1.94.38,4.83,4.83,0,0,1-2.5-.67,5,5,0,0,1-1.82-1.82,5,5,0,0,1,0-5,5,5,0,0,1,1.82-1.83,4.83,4.83,0,0,1,2.5-.67,4.91,4.91,0,0,1,1.94.39,5,5,0,0,1,1.61,1.08L246.46,148a2.78,2.78,0,0,0-.84-.55,2.46,2.46,0,0,0-1-.21,2.49,2.49,0,0,0-1.28.35,2.59,2.59,0,0,0-.94,1,2.43,2.43,0,0,0-.35,1.29,2.41,2.41,0,0,0,.35,1.29,2.65,2.65,0,0,0,.94.94,2.49,2.49,0,0,0,1.28.35A2.62,2.62,0,0,0,245.62,152.16Z"/><path d="M256.24,145.47a5,5,0,0,1-2.5,9.34,5,5,0,0,1-2.52-.67,5.12,5.12,0,0,1-1.82-1.82,5,5,0,0,1,0-5,5.07,5.07,0,0,1,1.82-1.83,4.93,4.93,0,0,1,2.52-.67A4.83,4.83,0,0,1,256.24,145.47ZM255,152a2.7,2.7,0,0,0,.93-.94,2.55,2.55,0,0,0,0-2.58,2.57,2.57,0,0,0-.93-1,2.52,2.52,0,0,0-1.29-.35,2.56,2.56,0,0,0-1.3.35,2.6,2.6,0,0,0-.94,1,2.55,2.55,0,0,0,0,2.58,2.73,2.73,0,0,0,.94.94,2.56,2.56,0,0,0,1.3.35A2.52,2.52,0,0,0,255,152Z"/><path d="M266.09,144.77h2.74l-3.23,9.93h-3.08l-3.22-9.93h2.77l2,6.19Z"/><path d="M276.4,152.55v2.15h-6.73v-9.9h6.61v2.14H272.2v1.74h3.43v2.14H272.2v1.73Z"/><path d="M285.6,154.7h-2.53L281.5,151h-1.61v3.74h-2.37v-9.9h4.72a3.07,3.07,0,0,1,3.08,3.08,2.94,2.94,0,0,1-.38,1.48,3.19,3.19,0,0,1-1,1.11Zm-2.78-7.54a1,1,0,0,0-.66-.33h-2.33v2.1h2.33a1,1,0,0,0,.66-.34,1.12,1.12,0,0,0,.26-.73A1,1,0,0,0,282.82,147.16Z"/><path d="M291.59,144.9l3.24,9.8h-2.44l-.64-2h-3.07l-.63,2H285.6l3.25-9.8Zm-2.25,5.75h1.76l-.88-2.77Z"/><path d="M304.84,149.8a4.93,4.93,0,0,1-.67,2.5,5,5,0,0,1-1.83,1.82,4.89,4.89,0,0,1-2.51.67,4.84,4.84,0,0,1-2.51-.67,5,5,0,0,1-1.82-1.82,4.83,4.83,0,0,1-.67-2.5,5,5,0,0,1,2.49-4.34,4.85,4.85,0,0,1,2.51-.68,5,5,0,0,1,3.55,1.49l-2.25,1.29a2.44,2.44,0,0,0-1.3-.35,2.41,2.41,0,0,0-1.29.35,2.59,2.59,0,0,0-1.29,2.24,2.49,2.49,0,0,0,.35,1.28,2.57,2.57,0,0,0,.94.94,2.41,2.41,0,0,0,1.29.35,2.55,2.55,0,0,0,1.35-.38,2.72,2.72,0,0,0,1-1H299v-2.33h5.67A5.63,5.63,0,0,1,304.84,149.8Z"/><path d="M312.41,152.55v2.15h-6.73v-9.9h6.61v2.14h-4.08v1.74h3.43v2.14h-3.43v1.73Z"/><path d="M314,153h2.36l-1,3.17h-2.09Z"/><path d="M38.51,162a3.16,3.16,0,0,1,1.12,1.12,3.13,3.13,0,0,1,0,3.1,3.16,3.16,0,0,1-1.12,1.12,3.07,3.07,0,0,1-1.55.41H34.61v3.74H32.25v-9.9H37A3.07,3.07,0,0,1,38.51,162Zm-1,2a1,1,0,0,0-.66-.33H34.56v2.1h2.32a.93.93,0,0,0,.66-.34,1,1,0,0,0,.28-.73A1,1,0,0,0,37.54,164Z"/><path d="M49,171.5H46.43l-1.57-3.74H43.25v3.74H40.88v-9.9H45.6a3.08,3.08,0,0,1,2.7,4.56,3.19,3.19,0,0,1-1,1.11ZM46.17,164a.92.92,0,0,0-.65-.33H43.19v2.1h2.33a1,1,0,0,0,.65-.34,1.08,1.08,0,0,0,.27-.73A1,1,0,0,0,46.17,164Z"/><path d="M57,162.27a5.07,5.07,0,0,1,1.82,1.83,5,5,0,0,1,0,5A5.12,5.12,0,0,1,57,170.94a5,5,0,0,1-5,0,5.07,5.07,0,0,1-1.83-1.82,5,5,0,0,1,0-5A5,5,0,0,1,52,162.27a5,5,0,0,1,5,0Zm-1.22,6.57a2.73,2.73,0,0,0,.94-.94,2.5,2.5,0,0,0,.35-1.29,2.56,2.56,0,0,0-.35-1.3,2.65,2.65,0,0,0-.94-.94,2.5,2.5,0,0,0-1.29-.35,2.52,2.52,0,0,0-1.29.35,2.67,2.67,0,0,0-1,.94,2.56,2.56,0,0,0-.35,1.3,2.5,2.5,0,0,0,.35,1.29,2.76,2.76,0,0,0,1,.94,2.52,2.52,0,0,0,1.29.35A2.5,2.5,0,0,0,55.82,168.84Z"/><path d="M66.88,161.57h2.75l-3.24,9.93H63.31l-3.22-9.93h2.77l2,6.19Z"/><path d="M73,161.6v9.9H70.46v-9.9Z"/><path d="M78.63,164.73v-.18a.87.87,0,0,0-.35-.69,1.25,1.25,0,0,0-.83-.29,1.33,1.33,0,0,0-.86.29.85.85,0,0,0-.36.69.63.63,0,0,0,.37.6,3.15,3.15,0,0,0,1,.4l.22,0,.24,0a4.86,4.86,0,0,1,2,.83l.13.11a2.88,2.88,0,0,1,.66,1,2.64,2.64,0,0,1,.25,1.12,2.77,2.77,0,0,1-.27,1.2,3.12,3.12,0,0,1-.8,1,3.57,3.57,0,0,1-1.17.67,4.24,4.24,0,0,1-1.37.23,4.19,4.19,0,0,1-1.37-.23,3.79,3.79,0,0,1-1.17-.67,3.26,3.26,0,0,1-.8-1,2.78,2.78,0,0,1-.28-1.2v-.18h2.45v.18a.87.87,0,0,0,.35.69,1.24,1.24,0,0,0,.82.29,1.35,1.35,0,0,0,.86-.29.84.84,0,0,0,.35-.69.81.81,0,0,0-.37-.62,1.88,1.88,0,0,0-.4-.21l-.54-.17-.46-.11c-.52-.13-.92-.25-1.21-.35a2.37,2.37,0,0,1-.79-.47l-.06-.06a3.29,3.29,0,0,1-.74-1,2.69,2.69,0,0,1-.26-1.15,2.78,2.78,0,0,1,.28-1.2,3.38,3.38,0,0,1,.8-1,3.79,3.79,0,0,1,1.17-.67,4.19,4.19,0,0,1,1.37-.23,4.24,4.24,0,0,1,1.37.23,3.57,3.57,0,0,1,1.17.67,3.23,3.23,0,0,1,.8,1,2.77,2.77,0,0,1,.27,1.2v.18Z"/><path d="M84.41,161.6v9.9H81.89v-9.9Z"/><path d="M92.77,162.27a5.07,5.07,0,0,1,1.82,1.83,5,5,0,0,1,0,5,5.12,5.12,0,0,1-1.82,1.82,5,5,0,0,1-5,0,5.07,5.07,0,0,1-1.83-1.82,5,5,0,0,1,0-5,5,5,0,0,1,1.83-1.83,5,5,0,0,1,5,0Zm-1.22,6.57a2.82,2.82,0,0,0,.94-.94,2.5,2.5,0,0,0,.35-1.29,2.56,2.56,0,0,0-.35-1.3,2.73,2.73,0,0,0-.94-.94,2.55,2.55,0,0,0-2.58,0,2.6,2.6,0,0,0-1,.94,2.56,2.56,0,0,0-.35,1.3A2.5,2.5,0,0,0,88,167.9a2.67,2.67,0,0,0,1,.94,2.55,2.55,0,0,0,2.58,0Z"/><path d="M101.54,161.6h2.52v9.9h-2.52l-2.91-5.31v5.31H96.1v-9.9h2.53l2.91,5.3Z"/><path d="M116.62,162.27a5,5,0,0,1,1.82,1.83,5,5,0,0,1,0,5,5,5,0,0,1-1.82,1.82,4.93,4.93,0,0,1-2.5.67,5,5,0,0,1-4.34-2.49,5,5,0,0,1,6.84-6.85Zm-1.22,6.57a2.65,2.65,0,0,0,.94-.94,2.41,2.41,0,0,0,.35-1.29,2.46,2.46,0,0,0-.35-1.3,2.57,2.57,0,0,0-.94-.94,2.49,2.49,0,0,0-1.28-.35,2.59,2.59,0,0,0-2.24,1.29,2.46,2.46,0,0,0-.35,1.3,2.41,2.41,0,0,0,.35,1.29,2.65,2.65,0,0,0,.94.94,2.56,2.56,0,0,0,1.3.35A2.49,2.49,0,0,0,115.4,168.84Z"/><path d="M126.84,163.74h-4.37v1.74H126v2.14h-3.5v3.88H120v-9.9h6.89Z"/><path d="M140,171.5h-2.53l-1.57-3.74h-1.61v3.74h-2.37v-9.9h4.72a3.07,3.07,0,0,1,3.08,3.08,3,3,0,0,1-.38,1.48,3.19,3.19,0,0,1-1,1.11ZM137.17,164a.92.92,0,0,0-.65-.33h-2.33v2.1h2.33a1,1,0,0,0,.65-.34,1.08,1.08,0,0,0,.27-.73A1,1,0,0,0,137.17,164Z"/><path d="M147.53,169.35v2.15H140.8v-9.9h6.61v2.14h-4.08v1.74h3.43v2.14h-3.43v1.73Z"/><path d="M154.92,162a3.16,3.16,0,0,1,1.12,1.12,3.13,3.13,0,0,1,0,3.1,3.16,3.16,0,0,1-1.12,1.12,3.07,3.07,0,0,1-1.55.41H151v3.74h-2.37v-9.9h4.72A3.07,3.07,0,0,1,154.92,162Zm-1,2a1,1,0,0,0-.66-.33H151v2.1h2.33a.93.93,0,0,0,.66-.34,1.09,1.09,0,0,0,.28-.73A1,1,0,0,0,154,164Z"/><path d="M164.53,162.27a5.07,5.07,0,0,1,1.82,1.83,5,5,0,0,1,0,5,5.12,5.12,0,0,1-1.82,1.82,5,5,0,0,1-5,0,5.07,5.07,0,0,1-1.83-1.82,5,5,0,0,1,0-5,5,5,0,0,1,1.83-1.83,5,5,0,0,1,5,0Zm-1.22,6.57a2.73,2.73,0,0,0,.94-.94,2.5,2.5,0,0,0,.35-1.29,2.56,2.56,0,0,0-.35-1.3,2.65,2.65,0,0,0-.94-.94A2.5,2.5,0,0,0,162,164a2.55,2.55,0,0,0-1.29.35,2.67,2.67,0,0,0-.95.94,2.56,2.56,0,0,0-.35,1.3,2.5,2.5,0,0,0,.35,1.29,2.76,2.76,0,0,0,.95.94,2.55,2.55,0,0,0,1.29.35A2.5,2.5,0,0,0,163.31,168.84Z"/><path d="M175.94,171.5h-2.53l-1.57-3.74h-1.61v3.74h-2.37v-9.9h4.72a3.07,3.07,0,0,1,3.08,3.08,3,3,0,0,1-.38,1.48,3.19,3.19,0,0,1-1,1.11ZM173.15,164a.92.92,0,0,0-.65-.33h-2.33v2.1h2.33a1,1,0,0,0,.65-.34,1.08,1.08,0,0,0,.27-.73A1,1,0,0,0,173.15,164Z"/><path d="M184.24,161.6v2.52h-2.53v7.38h-2.54v-7.38h-2.53V161.6h7.6Z"/><path d="M189.74,164.73v-.18a.86.86,0,0,0-.34-.69,1.27,1.27,0,0,0-.83-.29,1.31,1.31,0,0,0-.86.29.85.85,0,0,0-.36.69.64.64,0,0,0,.36.6,3.22,3.22,0,0,0,1,.4l.21,0,.25,0a4.92,4.92,0,0,1,2,.83l.13.11a2.88,2.88,0,0,1,.66,1,2.67,2.67,0,0,1,0,2.32,3,3,0,0,1-.79,1,3.68,3.68,0,0,1-1.17.67,4.25,4.25,0,0,1-1.38.23,4.13,4.13,0,0,1-1.36-.23,3.57,3.57,0,0,1-1.17-.67,3.12,3.12,0,0,1-.8-1,2.64,2.64,0,0,1-.28-1.2v-.18h2.45v.18a.89.89,0,0,0,.34.69,1.26,1.26,0,0,0,.82.29,1.31,1.31,0,0,0,.86-.29.85.85,0,0,0,.36-.69.79.79,0,0,0-.38-.62,1.79,1.79,0,0,0-.39-.21l-.54-.17-.47-.11c-.51-.13-.91-.25-1.2-.35a2.41,2.41,0,0,1-.8-.47l-.05-.06a3.13,3.13,0,0,1-.74-1,2.69,2.69,0,0,1-.26-1.15,2.64,2.64,0,0,1,.28-1.2,3.23,3.23,0,0,1,.8-1,3.57,3.57,0,0,1,1.17-.67,4.13,4.13,0,0,1,1.36-.23,4.25,4.25,0,0,1,1.38.23,3.68,3.68,0,0,1,1.17.67,3.06,3.06,0,0,1,.79,1,2.78,2.78,0,0,1,.28,1.2v.18Z"/><path d="M204.67,161.6v2.52h-2.54v7.38H199.6v-7.38h-2.53V161.6h7.6Z"/><path d="M212.88,162.27a5,5,0,0,1,2.5,4.34,5,5,0,0,1-.67,2.51,5.07,5.07,0,0,1-1.83,1.82,5,5,0,0,1-5,0,5.07,5.07,0,0,1-1.83-1.82,5,5,0,0,1,0-5,5,5,0,0,1,1.83-1.83,5,5,0,0,1,5,0Zm-1.21,6.57a2.82,2.82,0,0,0,.94-.94,2.5,2.5,0,0,0,.35-1.29,2.56,2.56,0,0,0-.35-1.3,2.73,2.73,0,0,0-.94-.94,2.5,2.5,0,0,0-1.29-.35,2.56,2.56,0,0,0-1.3.35,2.65,2.65,0,0,0-.94.94,2.56,2.56,0,0,0-.35,1.3,2.5,2.5,0,0,0,.35,1.29,2.73,2.73,0,0,0,.94.94,2.56,2.56,0,0,0,1.3.35A2.5,2.5,0,0,0,211.67,168.84Z"/><path d="M227.88,161.6v2.52h-2.54v7.38h-2.53v-7.38h-2.53V161.6h7.6Z"/><path d="M234.21,161.6h2.52v9.9h-2.52v-3.7h-2.83v3.7h-2.52v-9.9h2.52v3.68h2.83Z"/><path d="M244.58,169.35v2.15h-6.73v-9.9h6.6v2.14h-4.07v1.74h3.43v2.14h-3.43v1.73Z"/><path d="M255.61,169a2.69,2.69,0,0,0,.84-.56l1.71,1.71a4.91,4.91,0,0,1-3.54,1.47,4.87,4.87,0,0,1-2.51-.67,5.12,5.12,0,0,1-1.82-1.82,5,5,0,0,1,0-5,5.07,5.07,0,0,1,1.82-1.83,5,5,0,0,1,6.05.8l-1.71,1.71a2.66,2.66,0,0,0-.84-.55,2.45,2.45,0,0,0-1-.21,2.5,2.5,0,0,0-1.29.35,2.76,2.76,0,0,0-.94.95,2.52,2.52,0,0,0-.35,1.29,2.5,2.5,0,0,0,.35,1.29,2.82,2.82,0,0,0,.94.94,2.5,2.5,0,0,0,1.29.35A2.61,2.61,0,0,0,255.61,169Z"/><path d="M261.52,169.12h3.89v2.38H259v-9.9h2.52Z"/><path d="M268.91,161.6v9.9h-2.52v-9.9Z"/><path d="M276.77,169.35v2.15H270v-9.9h6.61v2.14h-4.07v1.74H276v2.14h-3.43v1.73Z"/><path d="M283.33,161.6h2.52v9.9h-2.52l-2.91-5.31v5.31h-2.53v-9.9h2.53l2.91,5.3Z"/><path d="M294.43,161.6v2.52H291.9v7.38h-2.53v-7.38h-2.54V161.6h7.6Z"/><path d="M295.51,171.09a1.38,1.38,0,0,1-.38-1,1.24,1.24,0,0,1,.39-.91,1.32,1.32,0,0,1,1.85,0,1.34,1.34,0,0,1-.93,2.27A1.22,1.22,0,0,1,295.51,171.09Z"/><path d="M37.66,298.41h2.52l-2.92,5.86v4H34.75v-4l-2.92-5.86h2.52L36,301.78Z"/><path d="M48,299.08a5,5,0,0,1-5,8.67,5.07,5.07,0,0,1-1.83-1.82,5,5,0,0,1,0-5A5,5,0,0,1,43,299.08a5,5,0,0,1,5,0Zm-1.21,6.57a2.7,2.7,0,0,0,.93-.94,2.55,2.55,0,0,0,0-2.58,2.57,2.57,0,0,0-.93-.95,2.52,2.52,0,0,0-1.29-.35,2.56,2.56,0,0,0-1.3.35,2.6,2.6,0,0,0-.94.95,2.55,2.55,0,0,0,0,2.58,2.73,2.73,0,0,0,.94.94,2.56,2.56,0,0,0,1.3.35A2.52,2.52,0,0,0,46.76,305.65Z"/><path d="M59.36,298.42v6.12a3.82,3.82,0,0,1-.53,2,3.9,3.9,0,0,1-1.43,1.42,3.82,3.82,0,0,1-2,.53h-.23a3.82,3.82,0,0,1-2-.53,3.94,3.94,0,0,1-1.42-1.42,3.81,3.81,0,0,1-.52-2v-6.12h2.33V304a2.36,2.36,0,0,0,.42,1.44,1.34,1.34,0,0,0,1.15.58h.23a1.4,1.4,0,0,0,1.14-.58A2.35,2.35,0,0,0,57,304v-5.56Z"/><path d="M70.39,305.77a2.69,2.69,0,0,0,.84-.56l1.71,1.71A5.15,5.15,0,0,1,71.33,308a5,5,0,0,1-1.94.38,4.83,4.83,0,0,1-2.5-.67,5,5,0,0,1-1.82-1.82,5,5,0,0,1,0-5,5,5,0,0,1,1.82-1.83,5,5,0,0,1,4.44-.28,5,5,0,0,1,1.61,1.08l-1.71,1.71a2.66,2.66,0,0,0-.84-.55,2.46,2.46,0,0,0-1-.21,2.49,2.49,0,0,0-1.28.35,2.59,2.59,0,0,0-.94,1,2.43,2.43,0,0,0-.35,1.29,2.41,2.41,0,0,0,.35,1.29,2.65,2.65,0,0,0,.94.94,2.49,2.49,0,0,0,1.28.35A2.62,2.62,0,0,0,70.39,305.77Z"/><path d="M78.93,298.51l3.23,9.8H79.73l-.65-2H76l-.63,2H72.94l3.24-9.8Zm-2.26,5.75h1.77l-.88-2.77Z"/><path d="M87.89,298.41h2.52v9.9H87.89L85,303v5.31H82.44v-9.9H85l2.91,5.3Z"/><path d="M100.25,301.54v-.18a.86.86,0,0,0-.34-.69,1.28,1.28,0,0,0-.84-.29,1.35,1.35,0,0,0-.86.29.84.84,0,0,0-.35.69.64.64,0,0,0,.36.6,3.15,3.15,0,0,0,1,.4l.22,0,.24.05a5,5,0,0,1,2,.83l.12.11a3.06,3.06,0,0,1,.67,1,2.77,2.77,0,0,1,0,2.32,3.09,3.09,0,0,1-.79,1,3.72,3.72,0,0,1-1.18.67,4.2,4.2,0,0,1-2.74,0,3.63,3.63,0,0,1-1.16-.67,3,3,0,0,1-.8-1,2.64,2.64,0,0,1-.28-1.2v-.18H97.9v.18a.86.86,0,0,0,.34.69,1.24,1.24,0,0,0,.82.29,1.33,1.33,0,0,0,.86-.29.85.85,0,0,0,.36-.69.82.82,0,0,0-.38-.62,1.79,1.79,0,0,0-.39-.21l-.55-.17-.46-.11a11.32,11.32,0,0,1-1.2-.35,2.41,2.41,0,0,1-.8-.47l-.06-.06a3.1,3.1,0,0,1-.73-1,2.55,2.55,0,0,1-.26-1.15,2.64,2.64,0,0,1,.28-1.2,3.09,3.09,0,0,1,.8-1,3.83,3.83,0,0,1,1.16-.67,4.2,4.2,0,0,1,2.74,0,3.93,3.93,0,0,1,1.18.67,3.19,3.19,0,0,1,.79,1,2.77,2.77,0,0,1,.27,1.2v.18Z"/><path d="M110.25,306.16v2.15h-6.74v-9.9h6.61v2.14h-4.07v1.74h3.43v2.14h-3.43v1.73Z"/><path d="M118.1,306.16v2.15h-6.73v-9.9H118v2.14H113.9v1.74h3.43v2.14H113.9v1.73Z"/><path d="M130.88,298.41v2.52h-2.53v7.38h-2.54v-7.38h-2.53v-2.52h7.6Z"/><path d="M137.21,298.41h2.52v9.9h-2.52v-3.7h-2.83v3.7h-2.52v-9.9h2.52v3.68h2.83Z"/><path d="M147.58,306.16v2.15h-6.73v-9.9h6.61v2.14h-4.08v1.74h3.43v2.14h-3.43v1.73Z"/><path d="M159.17,298.82a3.16,3.16,0,0,1,1.12,1.12,3.13,3.13,0,0,1,0,3.1,3.16,3.16,0,0,1-1.12,1.12,3.07,3.07,0,0,1-1.55.41h-2.35v3.74H152.9v-9.9h4.72A3.07,3.07,0,0,1,159.17,298.82Zm-1,1.95a1,1,0,0,0-.66-.33h-2.33v2.1h2.33a.93.93,0,0,0,.66-.34,1.08,1.08,0,0,0,.27-.73A1,1,0,0,0,158.2,300.77Z"/><path d="M166.69,298.51l3.24,9.8h-2.44l-.64-2h-3.07l-.63,2H160.7l3.25-9.8Zm-2.25,5.75h1.76l-.88-2.77Z"/><path d="M179.94,303.41a4.84,4.84,0,0,1-.68,2.5,5,5,0,0,1-4.34,2.49,4.83,4.83,0,0,1-2.5-.67,5,5,0,0,1-1.82-1.82,4.83,4.83,0,0,1-.67-2.5,5,5,0,0,1,2.49-4.34,4.84,4.84,0,0,1,2.5-.68,4.77,4.77,0,0,1,2,.4,4.89,4.89,0,0,1,1.6,1.09l-2.25,1.29a2.47,2.47,0,0,0-1.31-.35,2.4,2.4,0,0,0-1.28.35,2.57,2.57,0,0,0-.94.94,2.46,2.46,0,0,0-.35,1.3,2.4,2.4,0,0,0,.35,1.28,2.57,2.57,0,0,0,.94.94,2.4,2.4,0,0,0,1.28.35,2.56,2.56,0,0,0,1.36-.38,2.62,2.62,0,0,0,.95-1h-3.1v-2.33h5.67A5.63,5.63,0,0,1,179.94,303.41Z"/><path d="M187.51,306.16v2.15h-6.73v-9.9h6.6v2.14h-4.07v1.74h3.43v2.14h-3.43v1.73Z"/><path d="M193.15,301.54v-.18a.86.86,0,0,0-.34-.69,1.27,1.27,0,0,0-.83-.29,1.31,1.31,0,0,0-.86.29.85.85,0,0,0-.36.69.64.64,0,0,0,.36.6,3.27,3.27,0,0,0,.95.4l.22,0,.25.05a4.92,4.92,0,0,1,2,.83l.13.11a3,3,0,0,1,.66,1,2.77,2.77,0,0,1,0,2.32,3,3,0,0,1-.79,1,3.62,3.62,0,0,1-1.18.67,4.17,4.17,0,0,1-2.73,0,3.57,3.57,0,0,1-1.17-.67,3.12,3.12,0,0,1-.8-1,2.64,2.64,0,0,1-.28-1.2v-.18h2.45v.18a.89.89,0,0,0,.34.69,1.26,1.26,0,0,0,.82.29,1.31,1.31,0,0,0,.86-.29.85.85,0,0,0,.36-.69.82.82,0,0,0-.38-.62,1.79,1.79,0,0,0-.39-.21l-.55-.17-.46-.11a12.08,12.08,0,0,1-1.2-.35,2.41,2.41,0,0,1-.8-.47l-.06-.06a3.26,3.26,0,0,1-.73-1,2.69,2.69,0,0,1-.26-1.15,2.64,2.64,0,0,1,.28-1.2,3.23,3.23,0,0,1,.8-1,3.76,3.76,0,0,1,1.17-.67,4.17,4.17,0,0,1,2.73,0,3.81,3.81,0,0,1,1.18.67,3.06,3.06,0,0,1,.79,1,2.77,2.77,0,0,1,.27,1.2v.18Z"/><path d="M207.85,299.08a5,5,0,0,1,1.82,1.83,5,5,0,0,1,0,5,5,5,0,0,1-1.82,1.82,4.93,4.93,0,0,1-2.5.67,5,5,0,0,1-4.34-2.49,5,5,0,0,1,6.84-6.85Zm-1.22,6.57a2.65,2.65,0,0,0,.94-.94,2.55,2.55,0,0,0,0-2.58,2.52,2.52,0,0,0-.94-.95,2.49,2.49,0,0,0-1.28-.35,2.56,2.56,0,0,0-1.3.35,2.52,2.52,0,0,0-.94.95,2.55,2.55,0,0,0,0,2.58,2.65,2.65,0,0,0,.94.94,2.56,2.56,0,0,0,1.3.35A2.49,2.49,0,0,0,206.63,305.65Z"/><path d="M218.07,300.55H213.7v1.74h3.5v2.14h-3.5v3.88h-2.52v-9.9h6.89Z"/><path d="M230.57,298.41v2.52H228v7.38h-2.53v-7.38H223v-2.52h7.6Z"/><path d="M236.9,298.41h2.52v9.9H236.9v-3.7h-2.83v3.7h-2.52v-9.9h2.52v3.68h2.83Z"/><path d="M247.28,306.16v2.15h-6.74v-9.9h6.61v2.14h-4.07v1.74h3.43v2.14h-3.43v1.73Z"/><path d="M257.4,303.31l3,5h-2.8l-2.43-4v4H252.6v-9.9h2.52v3.86l2.43-3.86h2.8Z"/><path d="M268.21,306.16v2.15h-6.74v-9.9h6.61v2.14H264v1.74h3.43v2.14H264v1.73Z"/><path d="M274.59,298.41h2.52l-2.91,5.86v4h-2.52v-4l-2.91-5.86h2.52l1.65,3.37Z"/><path d="M284.39,298.41v9.9h-2.52v-9.9Z"/><path d="M291,298.41h2.51v9.9H291L288,303v5.31h-2.53v-9.9H288l2.92,5.3Z"/><path d="M301.48,300.55h-4.36v1.74h3.5v2.14h-3.5v3.88h-2.53v-9.9h6.89Z"/><path d="M304.84,305.93h3.9v2.38h-6.42v-9.9h2.52Z"/><path d="M317.76,298.42v6.12a3.81,3.81,0,0,1-.52,2,3.9,3.9,0,0,1-1.43,1.42,3.85,3.85,0,0,1-2,.53h-.22a3.82,3.82,0,0,1-2-.53,3.87,3.87,0,0,1-1.42-1.42,3.82,3.82,0,0,1-.53-2v-6.12h2.34V304a2.36,2.36,0,0,0,.42,1.44,1.34,1.34,0,0,0,1.15.58h.22a1.41,1.41,0,0,0,1.15-.58,2.35,2.35,0,0,0,.44-1.44v-5.56Z"/><path d="M325.62,306.16v2.15h-6.74v-9.9h6.61v2.14h-4.07v1.74h3.43v2.14h-3.43v1.73Z"/><path d="M332.18,298.41h2.53v9.9h-2.53L329.27,303v5.31h-2.53v-9.9h2.53l2.91,5.3Z"/><path d="M341.54,305.77a2.94,2.94,0,0,0,.84-.56l1.7,1.71a4.93,4.93,0,0,1-1.61,1.09,5,5,0,0,1-1.93.38,4.83,4.83,0,0,1-2.5-.67,5,5,0,0,1-1.82-1.82,5,5,0,0,1,0-5,5,5,0,0,1,1.82-1.83,5,5,0,0,1,4.43-.28,4.76,4.76,0,0,1,1.61,1.08l-1.7,1.71a2.91,2.91,0,0,0-.84-.55,2.46,2.46,0,0,0-1-.21,2.55,2.55,0,0,0-1.29.35,2.65,2.65,0,0,0-.93,1,2.43,2.43,0,0,0-.35,1.29,2.41,2.41,0,0,0,.35,1.29,2.7,2.7,0,0,0,.93.94,2.55,2.55,0,0,0,1.29.35A2.62,2.62,0,0,0,341.54,305.77Z"/><path d="M351.66,306.16v2.15h-6.74v-9.9h6.61v2.14h-4.07v1.74h3.43v2.14h-3.43v1.73Z"/><path d="M360.86,308.31h-2.54l-1.57-3.74h-1.61v3.74h-2.36v-9.9h4.72a3.09,3.09,0,0,1,1.54.41,3,3,0,0,1,1.12,1.13,3,3,0,0,1,.42,1.54,3,3,0,0,1-.38,1.48,3.19,3.19,0,0,1-1,1.11Zm-2.79-7.54a1,1,0,0,0-.66-.33h-2.32v2.1h2.32a1,1,0,0,0,.66-.34,1.08,1.08,0,0,0,.27-.73A1,1,0,0,0,358.07,300.77Z"/><path d="M366.22,301.54v-.18a.89.89,0,0,0-.34-.69,1.28,1.28,0,0,0-.84-.29,1.35,1.35,0,0,0-.86.29.84.84,0,0,0-.35.69.64.64,0,0,0,.36.6,3.15,3.15,0,0,0,.95.4l.22,0,.24.05a4.86,4.86,0,0,1,2,.83l.13.11a3.06,3.06,0,0,1,.67,1,2.77,2.77,0,0,1,0,2.32,3.09,3.09,0,0,1-.79,1,3.72,3.72,0,0,1-1.18.67,4.24,4.24,0,0,1-1.37.23,4.19,4.19,0,0,1-1.37-.23,3.63,3.63,0,0,1-1.16-.67,3,3,0,0,1-.8-1,2.64,2.64,0,0,1-.28-1.2v-.18h2.45v.18a.86.86,0,0,0,.34.69,1.24,1.24,0,0,0,.82.29,1.33,1.33,0,0,0,.86-.29.85.85,0,0,0,.36-.69.82.82,0,0,0-.38-.62,1.79,1.79,0,0,0-.39-.21l-.55-.17-.46-.11a12.41,12.41,0,0,1-1.21-.35,2.47,2.47,0,0,1-.79-.47l-.06-.06a3.1,3.1,0,0,1-.73-1,2.55,2.55,0,0,1-.26-1.15,2.64,2.64,0,0,1,.28-1.2,3.09,3.09,0,0,1,.8-1,3.83,3.83,0,0,1,1.16-.67,4.19,4.19,0,0,1,1.37-.23,4.24,4.24,0,0,1,1.37.23,3.93,3.93,0,0,1,1.18.67,3.19,3.19,0,0,1,.79,1,2.77,2.77,0,0,1,.27,1.2v.18Z"/><path d="M40.36,315.21h2.18v9.9H40l-2.55-4.22-2.56,4.22H32.39v-9.9h2.52v5.58l1.23-2.24.07-.11h2.52l.06.11L40,320.79v-5.58Z"/><path d="M46.18,315.21v9.9H43.66v-9.9Z"/><path d="M54.76,315.21v2.52H52.23v7.38H49.7v-7.38H47.16v-2.52h7.6Z"/><path d="M61.09,315.21h2.52v9.9H61.09v-3.7H58.26v3.7H55.75v-9.9h2.51v3.68h2.83Z"/><path d="M76.9,315.21h2.18v9.9H76.56L74,320.89l-2.56,4.22H68.93v-9.9h2.52v5.58l1.23-2.24.07-.11h2.52l.06.11,1.23,2.24v-5.58Z"/><path d="M85.55,315.21h2.52v9.9H85.55v-3.7H82.72v3.7H80.2v-9.9h2.52v3.68h2.83Z"/><path d="M96.43,315.88a5.07,5.07,0,0,1,1.82,1.83,5,5,0,0,1,0,5,5.12,5.12,0,0,1-1.82,1.82,5,5,0,0,1-5,0,5.07,5.07,0,0,1-1.83-1.82,5,5,0,0,1,0-5,5,5,0,0,1,1.83-1.83,5,5,0,0,1,5,0Zm-1.22,6.57a2.73,2.73,0,0,0,.94-.94,2.5,2.5,0,0,0,.35-1.29,2.56,2.56,0,0,0-.35-1.3,2.65,2.65,0,0,0-.94-.94,2.5,2.5,0,0,0-1.29-.35,2.52,2.52,0,0,0-1.29.35,2.67,2.67,0,0,0-.95.94,2.56,2.56,0,0,0-.35,1.3,2.5,2.5,0,0,0,.35,1.29,2.76,2.76,0,0,0,.95.94,2.52,2.52,0,0,0,1.29.35A2.5,2.5,0,0,0,95.21,322.45Z"/><path d="M107.39,315.21h2.52v9.9h-2.52v-5.59l-1.23,2.24-.06.11h-2.52l-.07-.11-.17-.32-1-1.92v5.59H99.76v-9.9h2.53l2.55,4.21Z"/><path d="M123.2,315.21h2.18v9.9h-2.52l-2.55-4.22-2.56,4.22h-2.52v-9.9h2.52v5.58l1.23-2.24.07-.11h2.52l.06.11,1.23,2.24v-5.58Z"/><path d="M133.23,323v2.15H126.5v-9.9h6.61v2.14H129v1.74h3.43v2.14H129V323Z"/><path d="M144.82,315.62a3.16,3.16,0,0,1,1.12,1.12,3.07,3.07,0,0,1,.41,1.55,3,3,0,0,1-.41,1.54,3.11,3.11,0,0,1-1.12,1.13,3.07,3.07,0,0,1-1.55.41h-2.35v3.74h-2.37v-9.9h4.72A3.07,3.07,0,0,1,144.82,315.62Zm-1,1.95a1,1,0,0,0-.66-.33h-2.33v2.1h2.33a.93.93,0,0,0,.66-.34,1.11,1.11,0,0,0,.28-.73A1,1,0,0,0,143.85,317.57Z"/><path d="M155.24,315.22v6.12a3.81,3.81,0,0,1-.52,2,3.9,3.9,0,0,1-1.43,1.42,3.85,3.85,0,0,1-2,.53h-.22a3.79,3.79,0,0,1-2-.53,3.87,3.87,0,0,1-1.42-1.42,3.82,3.82,0,0,1-.53-2v-6.12h2.34v5.56a2.36,2.36,0,0,0,.42,1.44,1.36,1.36,0,0,0,1.15.58h.22a1.36,1.36,0,0,0,1.14-.59,2.24,2.24,0,0,0,.44-1.43v-5.56Z"/><path d="M163.82,320.93a2.69,2.69,0,0,1,.33,1.32,2.8,2.8,0,0,1-.38,1.42,3,3,0,0,1-1,1,3,3,0,0,1-1.44.4h-4.94v-9.92h4.5a2.65,2.65,0,0,1,1.44.4,2.85,2.85,0,0,1,1,1,2.86,2.86,0,0,1,.18,2.43,3,3,0,0,1-.55.88A2.74,2.74,0,0,1,163.82,320.93Zm-2.61-3.41a1,1,0,0,0-.72-.3h-1.82v2.1h1.82a1.65,1.65,0,0,0,.34-.05,1.11,1.11,0,0,0,.25-.14,1,1,0,0,0,.32-.38,1,1,0,0,0,.11-.49A1,1,0,0,0,161.21,317.52Zm.42,5.23a1,1,0,0,0,.29-.74,1,1,0,0,0-.24-.66,1,1,0,0,0-.6-.36h-2.41v2.1h2.24A1,1,0,0,0,161.63,322.75Z"/><path d="M167.5,322.73h3.9v2.38H165v-9.9h2.51Z"/><path d="M174.9,315.21v9.9h-2.52v-9.9Z"/><path d="M180.54,318.34v-.18a.89.89,0,0,0-.34-.69,1.28,1.28,0,0,0-.84-.29,1.35,1.35,0,0,0-.86.29.84.84,0,0,0-.35.69.64.64,0,0,0,.36.6,3.15,3.15,0,0,0,1,.4l.22,0,.24.05a4.86,4.86,0,0,1,2,.83l.13.11a3.06,3.06,0,0,1,.67,1,2.77,2.77,0,0,1,0,2.32,3.09,3.09,0,0,1-.79,1,3.72,3.72,0,0,1-1.18.67,4.2,4.2,0,0,1-2.74,0,3.63,3.63,0,0,1-1.16-.67,3,3,0,0,1-.8-1,2.64,2.64,0,0,1-.28-1.2v-.18h2.45v.18a.86.86,0,0,0,.34.69,1.24,1.24,0,0,0,.82.29,1.33,1.33,0,0,0,.86-.29.85.85,0,0,0,.36-.69.82.82,0,0,0-.38-.62,1.79,1.79,0,0,0-.39-.21l-.55-.17-.46-.11c-.51-.13-.92-.25-1.21-.35a2.47,2.47,0,0,1-.79-.47l-.06-.06a3.1,3.1,0,0,1-.73-1,2.55,2.55,0,0,1-.26-1.15A2.64,2.64,0,0,1,176,317a3,3,0,0,1,.8-1,3.63,3.63,0,0,1,1.16-.67,4.2,4.2,0,0,1,2.74,0,3.72,3.72,0,0,1,1.18.67,3.09,3.09,0,0,1,.79,1,2.77,2.77,0,0,1,.27,1.2v.18Z"/><path d="M189.15,315.21h2.52v9.9h-2.52v-3.7h-2.83v3.7H183.8v-9.9h2.52v3.68h2.83Z"/><path d="M199.52,323v2.15h-6.73v-9.9h6.61v2.14h-4.08v1.74h3.43v2.14h-3.43V323Z"/><path d="M205,315.17a5.59,5.59,0,0,1,1.49.36,4.4,4.4,0,0,1,1.37.85,5,5,0,0,1,1.21,1.7,5.19,5.19,0,0,1,.43,2,4.86,4.86,0,0,1-.55,2.28,4.47,4.47,0,0,1-1.53,1.75,5.11,5.11,0,0,1-2,.79,14.22,14.22,0,0,1-2.5.19h-2.24v-10h2.54C203.88,315.1,204.48,315.12,205,315.17Zm2.09,4.95a2.49,2.49,0,0,0-.34-1.27,2.67,2.67,0,0,0-.91-1,2.39,2.39,0,0,0-1.27-.38h-1.37v5.16a10.73,10.73,0,0,0,1.73-.12,2.84,2.84,0,0,0,1.3-.55,2.18,2.18,0,0,0,.79-1.3A2.55,2.55,0,0,0,207.07,320.12Z"/><path d="M217,315.21v9.9h-2.52v-9.9Z"/><path d="M223.6,315.21h2.52v9.9H223.6l-2.91-5.31v5.31h-2.53v-9.9h2.53l2.91,5.3Z"/><path d="M234.13,317.35h-4.37v1.74h3.5v2.14h-3.5v3.88h-2.52v-9.9h6.89Z"/><path d="M242.21,315.88a5.07,5.07,0,0,1,1.82,1.83,5,5,0,0,1,0,5,5.12,5.12,0,0,1-1.82,1.82,5,5,0,0,1-5,0,5.07,5.07,0,0,1-1.83-1.82,5,5,0,0,1,0-5,5,5,0,0,1,1.83-1.83,5,5,0,0,1,5,0ZM241,322.45a2.73,2.73,0,0,0,.94-.94,2.5,2.5,0,0,0,.35-1.29,2.56,2.56,0,0,0-.35-1.3A2.65,2.65,0,0,0,241,318a2.5,2.5,0,0,0-1.29-.35,2.52,2.52,0,0,0-1.29.35,2.67,2.67,0,0,0-.95.94,2.56,2.56,0,0,0-.35,1.3,2.5,2.5,0,0,0,.35,1.29,2.76,2.76,0,0,0,.95.94,2.52,2.52,0,0,0,1.29.35A2.5,2.5,0,0,0,241,322.45Z"/><path d="M253.62,325.11h-2.54l-1.56-3.74h-1.61v3.74h-2.37v-9.9h4.72a3.09,3.09,0,0,1,1.54.41,3.14,3.14,0,0,1,1.13,1.13,3.08,3.08,0,0,1,0,3,3.19,3.19,0,0,1-1,1.11Zm-2.79-7.54a.92.92,0,0,0-.66-.33h-2.32v2.1h2.32a1,1,0,0,0,.66-.34,1.08,1.08,0,0,0,.27-.73A1,1,0,0,0,250.83,317.57Z"/><path d="M262.09,315.21h2.52v9.9h-2.52v-5.59l-1.23,2.24-.06.11h-2.52l-.07-.11-.17-.32L257,319.52v5.59h-2.53v-9.9H257l2.55,4.21Z"/><path d="M270.88,315.31l3.23,9.8h-2.43l-.64-2H268l-.63,2h-2.45l3.25-9.8Zm-2.25,5.75h1.76l-.88-2.77Z"/><path d="M281.86,315.21v2.52h-2.54v7.38h-2.53v-7.38h-2.54v-2.52h7.61Z"/><path d="M285.36,315.21v9.9h-2.52v-9.9Z"/><path d="M293.71,315.88a5,5,0,0,1,1.83,1.83,5,5,0,0,1,0,5,5.07,5.07,0,0,1-1.83,1.82,5,5,0,0,1-5,0,5.07,5.07,0,0,1-1.83-1.82,5,5,0,0,1,0-5,5,5,0,0,1,1.83-1.83,5,5,0,0,1,5,0Zm-1.21,6.57a2.7,2.7,0,0,0,.93-.94,2.41,2.41,0,0,0,.36-1.29,2.47,2.47,0,0,0-.36-1.3,2.62,2.62,0,0,0-.93-.94,2.52,2.52,0,0,0-1.29-.35,2.56,2.56,0,0,0-1.3.35,2.65,2.65,0,0,0-.94.94,2.56,2.56,0,0,0-.35,1.3,2.5,2.5,0,0,0,.35,1.29,2.73,2.73,0,0,0,.94.94,2.56,2.56,0,0,0,1.3.35A2.52,2.52,0,0,0,292.5,322.45Z"/><path d="M302.49,315.21H305v9.9h-2.52l-2.91-5.31v5.31h-2.53v-9.9h2.53l2.91,5.3Z"/><path d="M315.48,315.31l3.24,9.8h-2.44l-.64-2h-3.07l-.63,2h-2.45l3.25-9.8Zm-2.25,5.75H315l-.88-2.77Z"/><path d="M326.46,320.93a2.8,2.8,0,0,1,.32,1.32,2.7,2.7,0,0,1-.38,1.42,2.9,2.9,0,0,1-1,1,3,3,0,0,1-1.44.4H319v-9.92h4.49a2.65,2.65,0,0,1,1.44.4,2.88,2.88,0,0,1,1,1,2.74,2.74,0,0,1,.37,1.4,2.78,2.78,0,0,1-.2,1,2.94,2.94,0,0,1-.54.88A2.74,2.74,0,0,1,326.46,320.93Zm-2.61-3.41a1,1,0,0,0-.72-.3h-1.82v2.1h1.82a1.43,1.43,0,0,0,.33-.05,1.14,1.14,0,0,0,.26-.14,1.07,1.07,0,0,0,.32-.38,1.14,1.14,0,0,0,.11-.49A1,1,0,0,0,323.85,317.52Zm.42,5.23a1,1,0,0,0,.29-.74,1,1,0,0,0-.24-.66,1,1,0,0,0-.6-.36h-2.41v2.1h2.24A1,1,0,0,0,324.27,322.75Z"/><path d="M334.86,315.88a5,5,0,0,1,1.82,1.83,5,5,0,0,1,0,5,5,5,0,0,1-1.82,1.82,5,5,0,0,1-5,0,5.07,5.07,0,0,1-1.83-1.82,5,5,0,0,1,0-5,5,5,0,0,1,1.83-1.83,5,5,0,0,1,5,0Zm-1.22,6.57a2.73,2.73,0,0,0,.94-.94,2.5,2.5,0,0,0,.35-1.29,2.56,2.56,0,0,0-.35-1.3,2.65,2.65,0,0,0-.94-.94,2.5,2.5,0,0,0-1.29-.35,2.55,2.55,0,0,0-1.29.35,2.67,2.67,0,0,0-.95.94,2.56,2.56,0,0,0-.35,1.3,2.5,2.5,0,0,0,.35,1.29,2.76,2.76,0,0,0,.95.94,2.55,2.55,0,0,0,1.29.35A2.5,2.5,0,0,0,333.64,322.45Z"/><path d="M346.24,315.22v6.12a3.81,3.81,0,0,1-.52,2,3.9,3.9,0,0,1-1.43,1.42,3.85,3.85,0,0,1-2,.53h-.22a3.82,3.82,0,0,1-2-.53,3.87,3.87,0,0,1-1.42-1.42,3.82,3.82,0,0,1-.53-2v-6.12h2.34v5.56a2.36,2.36,0,0,0,.42,1.44,1.36,1.36,0,0,0,1.15.58h.22a1.36,1.36,0,0,0,1.14-.59,2.24,2.24,0,0,0,.44-1.43v-5.56Z"/><path d="M354.82,315.21v2.52h-2.53v7.38h-2.53v-7.38h-2.54v-2.52h7.6Z"/><path d="M39.85,332v2.52H37.32v7.38H34.79v-7.38H32.25V332h7.6Z"/><path d="M46.18,332H48.7v9.9H46.18v-3.7H43.35v3.7H40.83V332h2.52v3.68h2.83Z"/><path d="M56.56,339.76v2.15H49.82V332h6.61v2.14H52.36v1.74h3.43V338H52.36v1.73Z"/><path d="M68.14,332.42a3.08,3.08,0,0,1,1.12,1.12,3,3,0,0,1,.41,1.55,3.06,3.06,0,0,1-1.53,2.66,3,3,0,0,1-1.55.42H64.24v3.74H61.88V332h4.71A3.07,3.07,0,0,1,68.14,332.42Zm-1,1.95a1,1,0,0,0-.66-.33H64.19v2.1h2.32a.94.94,0,0,0,.66-.35,1,1,0,0,0,.28-.72A1,1,0,0,0,67.17,334.37Z"/><path d="M78.59,341.91H76.06l-1.57-3.74H72.88v3.74H70.51V332h4.72a3.07,3.07,0,0,1,3.08,3.08,2.88,2.88,0,0,1-.38,1.47,3.14,3.14,0,0,1-1,1.12Zm-2.78-7.54a1,1,0,0,0-.66-.33H72.82v2.1h2.33a1,1,0,0,0,.66-.35,1.08,1.08,0,0,0,.26-.72A1,1,0,0,0,75.81,334.37Z"/><path d="M86.67,332.68a5.07,5.07,0,0,1,1.82,1.83,5,5,0,0,1,0,5,5.12,5.12,0,0,1-1.82,1.82,5,5,0,0,1-5,0,5.07,5.07,0,0,1-1.83-1.82,5,5,0,0,1,0-5,5,5,0,0,1,1.83-1.83,5,5,0,0,1,5,0Zm-1.22,6.57a2.73,2.73,0,0,0,.94-.94,2.5,2.5,0,0,0,.35-1.29,2.56,2.56,0,0,0-.35-1.3,2.65,2.65,0,0,0-.94-.94,2.5,2.5,0,0,0-1.29-.35,2.55,2.55,0,0,0-1.29.35,2.67,2.67,0,0,0-1,.94,2.56,2.56,0,0,0-.35,1.3,2.5,2.5,0,0,0,.35,1.29,2.76,2.76,0,0,0,1,.94,2.55,2.55,0,0,0,1.29.35A2.5,2.5,0,0,0,85.45,339.25Z"/><path d="M95.2,332h2.33v6.12a3.81,3.81,0,0,1-.52,2,3.94,3.94,0,0,1-1.42,1.42,4,4,0,0,1-3.92,0,3.87,3.87,0,0,1-1.42-1.42,3.82,3.82,0,0,1-.53-2v-.41h2.34a2.22,2.22,0,0,0,.45,1.34,1.42,1.42,0,0,0,2.24-.06,2.24,2.24,0,0,0,.45-1.43Z"/><path d="M105.39,339.76v2.15H98.65V332h6.61v2.14h-4.07v1.74h3.43V338h-3.43v1.73Z"/><path d="M112.22,339.36a2.5,2.5,0,0,0,.84-.55l1.71,1.71a5,5,0,0,1-1.61,1.08,5,5,0,0,1-4.44-.28,5,5,0,0,1-1.82-1.82,5,5,0,0,1,0-5,5,5,0,0,1,1.82-1.83,4.84,4.84,0,0,1,2.51-.67,5,5,0,0,1,1.93.38,5.15,5.15,0,0,1,1.61,1.09l-1.71,1.71a2.69,2.69,0,0,0-.84-.56,2.61,2.61,0,0,0-1-.2,2.5,2.5,0,0,0-1.29.35,2.67,2.67,0,0,0-.94.95,2.52,2.52,0,0,0-.35,1.29,2.5,2.5,0,0,0,.35,1.29,2.73,2.73,0,0,0,.94.94,2.5,2.5,0,0,0,1.29.35A2.45,2.45,0,0,0,112.22,339.36Z"/><path d="M123.07,332v2.52h-2.53v7.38H118v-7.38h-2.53V332h7.6Z"/><path d="M128.57,335.14V335a.86.86,0,0,0-.34-.69,1.27,1.27,0,0,0-.83-.29,1.36,1.36,0,0,0-.87.29.87.87,0,0,0-.35.69.64.64,0,0,0,.36.6,3.15,3.15,0,0,0,.95.4l.22,0,.25.05a5,5,0,0,1,2,.83l.12.11a3.06,3.06,0,0,1,.67,1,2.77,2.77,0,0,1,0,2.32,3.09,3.09,0,0,1-.79,1,3.93,3.93,0,0,1-1.18.67,4.19,4.19,0,0,1-1.37.23A4.13,4.13,0,0,1,126,342a3.76,3.76,0,0,1-1.17-.67,3.12,3.12,0,0,1-.8-1,2.64,2.64,0,0,1-.28-1.2v-.18h2.45v.18a.86.86,0,0,0,.34.69,1.24,1.24,0,0,0,.82.29,1.33,1.33,0,0,0,.86-.29.85.85,0,0,0,.36-.69.82.82,0,0,0-.38-.62,1.79,1.79,0,0,0-.39-.21l-.55-.17-.46-.11c-.51-.13-.91-.25-1.2-.35a2.41,2.41,0,0,1-.8-.47l-.06-.06a3.26,3.26,0,0,1-.73-1,2.69,2.69,0,0,1-.26-1.15,2.64,2.64,0,0,1,.28-1.2,3.12,3.12,0,0,1,.8-1,3.57,3.57,0,0,1,1.17-.67,4.13,4.13,0,0,1,1.36-.23,4.19,4.19,0,0,1,1.37.23,3.72,3.72,0,0,1,1.18.67,3.09,3.09,0,0,1,.79,1A2.77,2.77,0,0,1,131,335v.18Z"/><path d="M144,332h2.18v9.9h-2.52l-2.54-4.22-2.57,4.22H136V332h2.52v5.58l1.24-2.24.07-.11h2.52l.05.11,1.23,2.24V332Z"/><path d="M154,339.76v2.15H147.3V332h6.61v2.14h-4.07v1.74h3.43V338h-3.43v1.73Z"/><path d="M165.07,339.36a2.5,2.5,0,0,0,.84-.55l1.71,1.71A5,5,0,0,1,166,341.6a5,5,0,0,1-4.44-.28,5,5,0,0,1-1.82-1.82,5,5,0,0,1,0-5,5,5,0,0,1,1.82-1.83,4.84,4.84,0,0,1,2.51-.67,5,5,0,0,1,1.93.38,5.15,5.15,0,0,1,1.61,1.09l-1.71,1.71a2.69,2.69,0,0,0-.84-.56,2.61,2.61,0,0,0-1-.2,2.5,2.5,0,0,0-1.29.35,2.67,2.67,0,0,0-.94.95,2.52,2.52,0,0,0-.35,1.29,2.5,2.5,0,0,0,.35,1.29,2.73,2.73,0,0,0,.94.94,2.5,2.5,0,0,0,1.29.35A2.45,2.45,0,0,0,165.07,339.36Z"/><path d="M175.7,332.68a5.07,5.07,0,0,1,1.82,1.83,5,5,0,0,1,0,5,5.12,5.12,0,0,1-1.82,1.82,5,5,0,0,1-5,0,5.07,5.07,0,0,1-1.83-1.82,5,5,0,0,1,0-5,5,5,0,0,1,1.83-1.83,5,5,0,0,1,5,0Zm-1.22,6.57a2.82,2.82,0,0,0,.94-.94,2.5,2.5,0,0,0,.35-1.29,2.56,2.56,0,0,0-.35-1.3,2.73,2.73,0,0,0-.94-.94,2.52,2.52,0,0,0-1.29-.35,2.56,2.56,0,0,0-1.3.35,2.65,2.65,0,0,0-.94.94,2.56,2.56,0,0,0-.35,1.3,2.5,2.5,0,0,0,.35,1.29,2.73,2.73,0,0,0,.94.94,2.56,2.56,0,0,0,1.3.35A2.52,2.52,0,0,0,174.48,339.25Z"/><path d="M186.26,332.68a5,5,0,0,1-5,8.67,5.07,5.07,0,0,1-1.83-1.82,5,5,0,0,1,0-5,5,5,0,0,1,1.83-1.83,5,5,0,0,1,5,0Zm-1.21,6.57a2.82,2.82,0,0,0,.94-.94,2.49,2.49,0,0,0,.34-1.29,2.55,2.55,0,0,0-.34-1.3,2.73,2.73,0,0,0-.94-.94,2.5,2.5,0,0,0-1.29-.35,2.56,2.56,0,0,0-1.3.35,2.65,2.65,0,0,0-.94.94,2.56,2.56,0,0,0-.35,1.3,2.5,2.5,0,0,0,.35,1.29,2.73,2.73,0,0,0,.94.94,2.56,2.56,0,0,0,1.3.35A2.5,2.5,0,0,0,185.05,339.25Z"/><path d="M195.86,332.42a3.08,3.08,0,0,1,1.12,1.12,3,3,0,0,1,.41,1.55,3.08,3.08,0,0,1-3.08,3.08H192v3.74H189.6V332h4.71A3,3,0,0,1,195.86,332.42Zm-1,1.95a1,1,0,0,0-.67-.33h-2.32v2.1h2.32a1,1,0,0,0,.67-.35,1.08,1.08,0,0,0,.27-.72A1,1,0,0,0,194.9,334.37Z"/><path d="M205,339.76v2.15h-6.74V332h6.61v2.14h-4.07v1.74h3.43V338h-3.43v1.73Z"/><path d="M214.17,341.91h-2.54l-1.57-3.74h-1.61v3.74h-2.36V332h4.72a3.09,3.09,0,0,1,1.54.41,3,3,0,0,1,1.12,1.13,3,3,0,0,1,0,3,3.14,3.14,0,0,1-1,1.12Zm-2.79-7.54a1,1,0,0,0-.66-.33H208.4v2.1h2.32a1,1,0,0,0,.66-.35,1,1,0,0,0,.27-.72A1,1,0,0,0,211.38,334.37Z"/><path d="M220.16,332.11l3.23,9.8H221l-.65-2h-3.06l-.63,2h-2.45l3.24-9.8Zm-2.26,5.75h1.77l-.88-2.77Z"/><path d="M231.13,332v2.52H228.6v7.38h-2.53v-7.38h-2.54V332h7.6Z"/><path d="M238.85,339.76v2.15h-6.74V332h6.61v2.14h-4.07v1.74h3.43V338h-3.43v1.73Z"/><path d="M252.13,332h2.19v9.9H251.8l-2.55-4.22-2.56,4.22h-2.52V332h2.52v5.58l1.23-2.24.07-.11h2.52l.06.11,1.23,2.24V332Z"/><path d="M258,332v9.9h-2.52V332Z"/><path d="M266.54,332v2.52H264v7.38h-2.54v-7.38h-2.53V332h7.6Z"/><path d="M272.87,332h2.52v9.9h-2.52v-3.7H270v3.7h-2.52V332H270v3.68h2.83Z"/><path d="M276.61,341.5a1.33,1.33,0,0,1-.38-1,1.28,1.28,0,0,1,1.3-1.28,1.29,1.29,0,0,1,.94.39,1.34,1.34,0,0,1-.94,2.27A1.22,1.22,0,0,1,276.61,341.5Z"/></svg>