<svg id="Слой_1" data-name="Слой 1" xmlns="http://www.w3.org/2000/svg" viewBox="0 0 405 405"><defs><style>.cls-1{fill:#010101;}.cls-2{fill:#e7335d;}.cls-3{fill:#fff;}.cls-4{fill:#fed841;}</style></defs><rect class="cls-1" width="405" height="405"/><path class="cls-2" d="M35,308.18v9.9H32.43v-9.9Z"/><path class="cls-2" d="M42.33,308.6a3.07,3.07,0,0,1,1.12,4.21,3.08,3.08,0,0,1-1.12,1.12,3,3,0,0,1-1.54.41H38.43v3.74H36.07v-9.9h4.72A3,3,0,0,1,42.33,308.6Zm-1,1.94a1,1,0,0,0-.67-.33H38.38v2.1H40.7a1,1,0,0,0,.67-.34,1.08,1.08,0,0,0,.27-.72A1,1,0,0,0,41.37,310.54Z"/><path class="cls-2" d="M49.23,311.32v-.18a.89.89,0,0,0-.35-.7,1.23,1.23,0,0,0-.83-.28,1.33,1.33,0,0,0-.86.28.87.87,0,0,0-.36.7.63.63,0,0,0,.37.6,2.92,2.92,0,0,0,.95.39l.22,0,.24.06a4.88,4.88,0,0,1,2,.82l.13.12a2.94,2.94,0,0,1,.66,1,2.71,2.71,0,0,1,.25,1.12,2.85,2.85,0,0,1-.27,1.21,3.23,3.23,0,0,1-.8,1,3.55,3.55,0,0,1-1.17.66,4,4,0,0,1-1.37.23,3.94,3.94,0,0,1-1.37-.23,3.76,3.76,0,0,1-1.17-.66,3.19,3.19,0,0,1-.79-1,2.73,2.73,0,0,1-.29-1.21v-.18h2.46v.18a.89.89,0,0,0,.34.7,1.24,1.24,0,0,0,.82.28,1.35,1.35,0,0,0,.86-.28.87.87,0,0,0,.35-.7.79.79,0,0,0-.37-.61,1.33,1.33,0,0,0-.39-.21,4,4,0,0,0-.55-.17l-.46-.11c-.52-.13-.92-.25-1.21-.35a2.58,2.58,0,0,1-.79-.48l-.06-.06a3.06,3.06,0,0,1-.74-1,2.64,2.64,0,0,1-.26-1.14,2.7,2.7,0,0,1,.29-1.21,3.19,3.19,0,0,1,.79-1,3.76,3.76,0,0,1,1.17-.66A4,4,0,0,1,48,308a4,4,0,0,1,1.37.24,3.55,3.55,0,0,1,1.17.66,3.23,3.23,0,0,1,.8,1,2.81,2.81,0,0,1,.27,1.21v.18Z"/><path class="cls-2" d="M57.64,308.28l3.24,9.8H58.44l-.64-2H54.73l-.63,2H51.65l3.25-9.8ZM55.39,314h1.76l-.88-2.77Z"/><path class="cls-3" d="M44.1,277.37h3.13v14.14H43.62l-3.66-6-3.67,6H32.67V277.37h3.62v8l1.76-3.2.1-.16h3.62l.08.16,1.77,3.2v-8Z"/><path class="cls-3" d="M56.51,277.37h3.62v14.14H56.51v-5.28H52.45v5.28H48.84V277.37h3.61v5.26h4.06Z"/><path class="cls-3" d="M69.12,277.51l4.64,14H70.27l-.93-2.86H65L64,291.51H60.53l4.66-14Zm-3.23,8.22h2.53l-1.26-4Z"/><path class="cls-3" d="M84.87,277.37V281H81.23v10.54H77.6V281H74v-3.6H84.87Z"/><path class="cls-3" d="M95.92,277.37v14.14H92.3V277.37Z"/><path class="cls-3" d="M108.23,277.37V281h-3.64v10.54H101V281H97.32v-3.6h10.91Z"/><path class="cls-3" d="M119.27,277.37v14.14h-3.61V277.37Z"/><path class="cls-3" d="M127.37,281.85v-.26a1.27,1.27,0,0,0-.5-1,1.79,1.79,0,0,0-1.19-.41,2,2,0,0,0-1.24.41,1.25,1.25,0,0,0-.51,1,.92.92,0,0,0,.52.86,4.19,4.19,0,0,0,1.37.56l.31.06.35.08a7,7,0,0,1,2.87,1.18l.19.16a4.47,4.47,0,0,1,1,1.38,4.06,4.06,0,0,1,.35,1.6,3.94,3.94,0,0,1-.39,1.72,4.3,4.3,0,0,1-1.14,1.46,5.15,5.15,0,0,1-1.68,1,6,6,0,0,1-2,.33,5.85,5.85,0,0,1-2-.33,5.37,5.37,0,0,1-1.68-1,4.56,4.56,0,0,1-1.14-1.46,3.81,3.81,0,0,1-.4-1.72v-.26H124v.26a1.26,1.26,0,0,0,.49,1,1.75,1.75,0,0,0,1.18.41,1.87,1.87,0,0,0,1.23-.41,1.21,1.21,0,0,0,.52-1,1.15,1.15,0,0,0-.55-.88,2.12,2.12,0,0,0-.56-.3,7.5,7.5,0,0,0-.78-.24l-.66-.16a16.91,16.91,0,0,1-1.73-.5,3.3,3.3,0,0,1-1.15-.68l-.08-.08a4.56,4.56,0,0,1-1.05-1.4,3.71,3.71,0,0,1-.37-1.64,3.84,3.84,0,0,1,.4-1.72,4.79,4.79,0,0,1,1.14-1.46,5.57,5.57,0,0,1,1.68-1,5.85,5.85,0,0,1,2-.33,6,6,0,0,1,2,.33,5.34,5.34,0,0,1,1.68,1,4.5,4.5,0,0,1,1.14,1.46,4,4,0,0,1,.39,1.72v.26Z"/><path class="cls-3" d="M149.62,277.39v8.74a5.41,5.41,0,0,1-.75,2.8,5.62,5.62,0,0,1-2.05,2,5.56,5.56,0,0,1-2.82.75h-.33a5.5,5.5,0,0,1-2.81-.75,5.67,5.67,0,0,1-2-2,5.41,5.41,0,0,1-.75-2.8v-8.74h3.35v7.94a3.38,3.38,0,0,0,.61,2.06,1.92,1.92,0,0,0,1.64.82H144a1.94,1.94,0,0,0,1.63-.83,3.28,3.28,0,0,0,.64-2.05v-7.94Z"/><path class="cls-3" d="M157.71,281.85v-.26a1.26,1.26,0,0,0-.49-1,1.83,1.83,0,0,0-1.19-.41,1.93,1.93,0,0,0-1.24.41,1.25,1.25,0,0,0-.51,1,.9.9,0,0,0,.52.86,4.19,4.19,0,0,0,1.37.56l.31.06.35.08a7,7,0,0,1,2.87,1.18l.18.16a4.5,4.5,0,0,1,1,1.38,4.06,4.06,0,0,1,.35,1.6,3.94,3.94,0,0,1-.39,1.72,4.3,4.3,0,0,1-1.14,1.46,5.2,5.2,0,0,1-1.69,1,6,6,0,0,1-3.92,0,5.37,5.37,0,0,1-1.68-1,4.43,4.43,0,0,1-1.14-1.46,3.82,3.82,0,0,1-.41-1.72v-.26h3.52v.26a1.23,1.23,0,0,0,.49,1,1.75,1.75,0,0,0,1.18.41,1.87,1.87,0,0,0,1.23-.41,1.22,1.22,0,0,0,.51-1,1.16,1.16,0,0,0-.54-.88,2.29,2.29,0,0,0-.56-.3q-.33-.12-.78-.24l-.67-.16a17.37,17.37,0,0,1-1.72-.5,3.3,3.3,0,0,1-1.15-.68l-.08-.08a4.41,4.41,0,0,1-1.05-1.4,3.72,3.72,0,0,1-.38-1.64,3.85,3.85,0,0,1,.41-1.72,4.64,4.64,0,0,1,1.14-1.46,5.57,5.57,0,0,1,1.68-1,6,6,0,0,1,3.92,0,5.39,5.39,0,0,1,1.69,1,4.5,4.5,0,0,1,1.14,1.46,4,4,0,0,1,.39,1.72v.26Z"/><path class="cls-3" d="M172.05,288.45v3.06h-9.66V277.37h9.48v3.06H166v2.48H171V286H166v2.48Z"/><path class="cls-3" d="M179.89,277.32a9.13,9.13,0,0,1,2.14.51,6.31,6.31,0,0,1,1.95,1.22,7,7,0,0,1,1.74,2.43,7.2,7.2,0,0,1,.61,2.91,6.86,6.86,0,0,1-.78,3.26,6.44,6.44,0,0,1-2.2,2.5,7.59,7.59,0,0,1-2.89,1.13,21.18,21.18,0,0,1-3.59.27l-1.64,0-1.57,0v-14.3h3.64C178.3,277.21,179.16,277.25,179.89,277.32Zm3,7.07a3.63,3.63,0,0,0-.48-1.81,3.85,3.85,0,0,0-1.32-1.37,3.62,3.62,0,0,0-1.82-.54h-2v7.38a14.84,14.84,0,0,0,2.48-.17,4.07,4.07,0,0,0,1.86-.79,3.1,3.1,0,0,0,1.14-1.86A3.69,3.69,0,0,0,182.88,284.39Z"/><path class="cls-3" d="M203.44,280.43h-6.26v2.48h5V286h-5v5.54h-3.62V277.37h9.88Z"/><path class="cls-3" d="M215,278.33a7.1,7.1,0,0,1,2.61,2.61,6.94,6.94,0,0,1,1,3.59,6.85,6.85,0,0,1-1,3.58,7.08,7.08,0,0,1-2.61,2.6,7,7,0,0,1-3.59,1,7.2,7.2,0,0,1-6.23-3.56,6.93,6.93,0,0,1-1-3.58,7,7,0,0,1,1-3.59,7.18,7.18,0,0,1,6.23-3.57A7,7,0,0,1,215,278.33Zm-1.74,9.38a3.74,3.74,0,0,0,1.34-1.34,3.46,3.46,0,0,0,.5-1.84,3.55,3.55,0,0,0-.5-1.85,3.85,3.85,0,0,0-1.34-1.35,3.69,3.69,0,0,0-3.71,0,3.91,3.91,0,0,0-1.36,1.35,3.64,3.64,0,0,0-.5,1.85,3.55,3.55,0,0,0,.5,1.84,3.8,3.8,0,0,0,1.36,1.34,3.69,3.69,0,0,0,3.71,0Z"/><path class="cls-3" d="M231.4,291.51h-3.63l-2.25-5.34h-2.31v5.34h-3.4V277.37h6.77a4.38,4.38,0,0,1,2.21.59,4.47,4.47,0,0,1,1.62,1.61,4.37,4.37,0,0,1,.59,2.2,4.25,4.25,0,0,1-.54,2.11,4.48,4.48,0,0,1-1.47,1.59Zm-4-10.77a1.36,1.36,0,0,0-.94-.47h-3.33v3h3.33a1.38,1.38,0,0,0,.94-.49,1.53,1.53,0,0,0,0-2Z"/><path class="cls-3" d="M233.21,284.81a1.71,1.71,0,0,1-.5-1.16,1.53,1.53,0,0,1,.46-1.17,1.6,1.6,0,0,1,1.16-.49,1.64,1.64,0,0,1,1.67,1.66,1.54,1.54,0,0,1-.49,1.16,1.63,1.63,0,0,1-1.18.48A1.5,1.5,0,0,1,233.21,284.81Zm0,6.22a1.71,1.71,0,0,1-.5-1.16,1.53,1.53,0,0,1,.46-1.17,1.6,1.6,0,0,1,1.16-.49,1.64,1.64,0,0,1,1.67,1.66,1.54,1.54,0,0,1-.49,1.16,1.63,1.63,0,0,1-1.18.48A1.5,1.5,0,0,1,233.21,291Z"/><path class="cls-3" d="M40.47,63.73H52.7v7.48H32.55V40.1h7.92Z"/><path class="cls-3" d="M63.7,40.1V71.21H55.78V40.1Z"/><path class="cls-3" d="M81.43,50v-.58a2.73,2.73,0,0,0-1.08-2.17,3.94,3.94,0,0,0-2.61-.9,4.2,4.2,0,0,0-2.71.9,2.69,2.69,0,0,0-1.12,2.17,2,2,0,0,0,1.14,1.9,9.45,9.45,0,0,0,3,1.23,6.7,6.7,0,0,1,.68.13l.78.18Q84.2,54,85.79,55.41l.39.36a9.38,9.38,0,0,1,2.09,3,8.59,8.59,0,0,1-.09,7.3,9.78,9.78,0,0,1-2.48,3.22A11.94,11.94,0,0,1,82,71.41a13,13,0,0,1-4.31.72,12.84,12.84,0,0,1-4.29-.72,11.9,11.9,0,0,1-3.67-2.09,10,10,0,0,1-2.51-3.22,8.46,8.46,0,0,1-.88-3.78v-.57H74v.57a2.75,2.75,0,0,0,1.08,2.18,3.86,3.86,0,0,0,2.57.9,4.2,4.2,0,0,0,2.71-.9,2.73,2.73,0,0,0,1.12-2.18,2.57,2.57,0,0,0-1.19-1.94,4.78,4.78,0,0,0-1.23-.65,15,15,0,0,0-1.72-.53l-1.45-.35c-1.61-.42-2.87-.78-3.78-1.1a7.8,7.8,0,0,1-2.51-1.5l-.18-.18A10.05,10.05,0,0,1,67.15,53a8.32,8.32,0,0,1-.81-3.61,8.46,8.46,0,0,1,.88-3.78,10.09,10.09,0,0,1,2.51-3.21A11.7,11.7,0,0,1,73.4,40.3a12.6,12.6,0,0,1,4.29-.73A12.75,12.75,0,0,1,82,40.3a11.74,11.74,0,0,1,3.7,2.09,9.85,9.85,0,0,1,2.48,3.21A8.57,8.57,0,0,1,89,49.38V50Z"/><path class="cls-3" d="M115.13,40.1V48h-8V71.21h-8V48h-8V40.1h23.89Z"/><path class="cls-3" d="M126.13,40.1V71.21h-7.92V40.1Z"/><path class="cls-3" d="M146.77,40.1h7.92V71.21h-7.92l-9.15-16.68V71.21h-8V40.1h8l9.15,16.68Z"/><path class="cls-3" d="M188.79,55.81a15.33,15.33,0,0,1-2.11,7.88,15.64,15.64,0,0,1-5.74,5.71,15.74,15.74,0,0,1-15.78,0,15.74,15.74,0,0,1-5.72-5.71,15.81,15.81,0,0,1,0-15.78,15.74,15.74,0,0,1,5.72-5.74A15.31,15.31,0,0,1,173,40.06a15.51,15.51,0,0,1,6.14,1.23,15.35,15.35,0,0,1,5,3.43l-7.08,4.05a7.88,7.88,0,0,0-4.09-1.1,7.79,7.79,0,0,0-4,1.1,8.31,8.31,0,0,0-3,3,7.92,7.92,0,0,0-1.1,4.07,7.79,7.79,0,0,0,1.1,4,8.5,8.5,0,0,0,3,3,7.79,7.79,0,0,0,4,1.09,7.91,7.91,0,0,0,4.27-1.21,8.23,8.23,0,0,0,3-3.23h-9.77v-7.3h17.82A17.08,17.08,0,0,1,188.79,55.81Z"/><path class="cls-4" d="M239.32,137.78c-4.27,0-4.28,0-4.27-4.37,0-1,0-2.08,0-3.12,0-.61.33-1.32,1-.71,1.18,1.11,1.7.13,2.36-.52,5-5,9.93-9.87,14.82-14.86,1-1.06,1.66-1.2,2.77-.06q7.46,7.64,15.09,15.11c1,.95,1,1.5,0,2.48q-13.46,13.35-26.79,26.82c-1.12,1.12-1.79,1-2.84-.05q-13.35-13.47-26.8-26.83c-.88-.88-1-1.41,0-2.35q13.5-13.42,26.93-26.95c1-1.05,1.76-1,2.71,0a38.51,38.51,0,0,0,3.39,3.37c1.07.94,1.11,1.57,0,2.63-6.68,6.59-13.3,13.25-19.93,19.89-1.72,1.73-1.72,1.73.06,3.5,4.55,4.56,9.14,9.08,13.63,13.7,1.1,1.13,1.76,1,2.79,0,3.67-3.79,7.43-7.5,11.15-11.24.65-.65,1.18-1.4,2.27-.46.64.55,1-.09,1-.73,0-2.15,0-4.3,0-6.44,0-.68-.3-1-1-1-2.14,0-4.29,0-6.44,0-.91,0-1.34.49-.57,1.25s.47,1.31-.18,2c-1.85,1.8-3.69,3.61-5.45,5.49-.75.81-2.17,1.3-1.61,2.94.18.52-.54.53-.95.54C241.4,137.79,240.36,137.78,239.32,137.78Z"/><path class="cls-4" d="M131.83,118.19q8.05-8,16-16c.71-.71,1.17-.74,1.88,0q8,8,16,16c.53.53.9,1,.18,1.66-1.81,1.73-3.56,3.52-5.35,5.27a4.73,4.73,0,0,1-.74.53c-.35-.31-.68-.59-1-.89-3-3-6.08-6-9.08-9.1-.73-.75-1.18-.82-1.95,0-3,3.1-6.14,6.11-9.17,9.21-.75.76-1.21.82-2,0-1.54-1.66-3.17-3.24-4.8-4.8C131.21,119.39,131.08,118.94,131.83,118.19Z"/><path class="cls-4" d="M155.34,130c0,.46-.29.66-.52.89-1.73,1.74-3.48,3.45-5.19,5.21-.6.62-1,.63-1.65,0-1.71-1.76-3.45-3.48-5.2-5.19-.56-.54-.67-1-.06-1.55,1.79-1.74,3.54-3.52,5.31-5.29.39-.39.77-.75,1.32-.2l5.7,5.71A2.91,2.91,0,0,1,155.34,130Z"/><path class="cls-4" d="M127.36,136.07c-.52.54-.9.53-1.42,0-1.74-1.79-3.51-3.54-5.28-5.3-.39-.38-.61-.73-.12-1.21,1.87-1.86,3.72-3.74,5.58-5.61a3.78,3.78,0,0,1,.41-.3,1,1,0,0,1,.79.42c1.77,1.76,3.52,3.54,5.31,5.29.51.5.58.89,0,1.42C130.87,132.53,129.11,134.29,127.36,136.07Z"/><path class="cls-4" d="M165.73,142q-8.07,8-16.06,16c-.68.68-1.09.64-1.75,0q-8-8-16-16c-.68-.68-.67-1.1,0-1.75,1.67-1.59,3.27-3.26,4.91-4.89.27-.26.49-.6.93-.65s.7.48,1,.78c3,2.95,6,5.88,8.87,8.89.89.92,1.42,1,2.37,0,2.93-3.06,6-6,8.94-9,.73-.75,1.21-.86,2,0,1.54,1.65,3.15,3.24,4.78,4.8C166.35,140.82,166.48,141.28,165.73,142Z"/><path class="cls-4" d="M176.78,131c-1.66,1.67-3.35,3.32-5,5-.59.61-1,.67-1.65,0-1.66-1.73-3.36-3.44-5.1-5.1-.71-.68-.6-1.13.05-1.76,1.69-1.63,3.34-3.32,5-5,.42-.42.82-.85,1.43-.23l5.5,5.51a4.26,4.26,0,0,1,.37.51A1.45,1.45,0,0,1,176.78,131Z"/><path class="cls-2" d="M127.48,208.44a3.16,3.16,0,0,1,1.23,1.09,15.78,15.78,0,0,1,3.21,9.94,8.54,8.54,0,0,1-2,4.88c-1.24,1.73-2.56,3.39-3.81,5.12a12.66,12.66,0,0,0-2.3,4.89,10.65,10.65,0,0,0,1.17,6.51c.29.64.66,1.23,1,1.85.15.29.45.61.24.92s-.61.09-.92,0a11.09,11.09,0,0,1-6.54-4.91,11.71,11.71,0,0,1,.9-14.35c.84-1,1.78-2,2.71-2.94a17.45,17.45,0,0,0,5.12-12.37C127.46,208.9,127.47,208.73,127.48,208.44Z"/><path class="cls-2" d="M134.73,222.67c5.91,5,6.11,15.12-1.37,19.47A3.55,3.55,0,0,0,132,243.2c-.4.67-.63.55-1.08,0a9,9,0,0,1-1.67-9.6,22.79,22.79,0,0,1,2.38-4.6A21.66,21.66,0,0,0,134.73,222.67Z"/><path class="cls-2" d="M256.54,215a14,14,0,1,0,14,14A14.07,14.07,0,0,0,256.54,215Zm9.74,15.3a9.92,9.92,0,1,1-.09-3c.14.9.14.9-.75.9h-1.63c-.65,0-1.29,0-1.94,0-.37,0-.55-.07-.65-.48a4.83,4.83,0,0,0-5.14-3.58,4.88,4.88,0,1,0,5.13,6.17c.11-.43.28-.53.69-.52,1.31,0,2.62,0,3.93,0C266.24,229.76,266.34,229.89,266.28,230.29Z"/><path class="cls-2" d="M181.17,235.16v3.28a3.88,3.88,0,0,1,0,.76,2.16,2.16,0,0,1-4.3-.37c0-2,0-3.93,0-5.9,0-.25,0-.5,0-.76a2.15,2.15,0,0,0-1.79-2,2.18,2.18,0,0,0-2.52,1.87,1.77,1.77,0,0,0,0,.32v6.29a2.72,2.72,0,0,1-.15.94,2.17,2.17,0,0,1-3.4.92,2.12,2.12,0,0,1-.8-1.54,4.85,4.85,0,0,1,0-.66,2.17,2.17,0,0,0,0-.26v-5.8a2.21,2.21,0,0,0-1.54-2.11,2.17,2.17,0,0,0-2.74,1.55,2.6,2.6,0,0,0-.06.56v6.3a2.55,2.55,0,0,1-.26,1.27,2.19,2.19,0,0,1-3.49.5,2.15,2.15,0,0,1-.59-1.26,5.82,5.82,0,0,1,0-.59c0-2.07,0-4.15,0-6.22a2.14,2.14,0,0,0-.92-1.82,2.07,2.07,0,0,0-2.05-.24,2.14,2.14,0,0,0-1.37,2v6.57a2.25,2.25,0,0,1-.57,1.54,2,2,0,0,1-1.11.65,2.14,2.14,0,0,1-2.63-2.13v-5.92c0-.42,0-.83,0-1.24A13.44,13.44,0,0,1,151,230a15.36,15.36,0,0,1,.86-3.26,15.17,15.17,0,0,1,2.92-4.76,17.57,17.57,0,0,1,1.95-1.81,14.07,14.07,0,0,1,2.66-1.72,14.44,14.44,0,0,1,5.23-1.47,14.73,14.73,0,0,1,2.1,0,15.13,15.13,0,0,1,9.3,3.78,14.87,14.87,0,0,1,3,3.6,14.62,14.62,0,0,1,1.67,4,14.35,14.35,0,0,1,.44,2.44c.05.51.07,1,.07,1.52C181.18,233.21,181.17,234.18,181.17,235.16Z"/><path class="cls-2" d="M226.27,234.36v.31c0,.14,0,.28,0,.42a2.18,2.18,0,0,1-.31.85,3.35,3.35,0,0,1-.6.75l-8,8a2.5,2.5,0,0,1-1.15.63,3.56,3.56,0,0,1-.47,0h-.56l-.3,0a2.34,2.34,0,0,1-1.38-.69l-4.24-4.24-5.9-5.91L202,233.15s-.06-.09-.11-.07,0,.09,0,.14q0,3.27,0,6.55a4.66,4.66,0,0,1,0,.83,2.78,2.78,0,0,1-.78,1.47,2.73,2.73,0,0,1-1.54.79,2.76,2.76,0,0,1-2.23-.58,2.73,2.73,0,0,1-1-1.54,1.6,1.6,0,0,1,0-.44V217.67a2.46,2.46,0,0,1,.62-1.6,2.7,2.7,0,0,1,1.75-1,2.73,2.73,0,0,1,2.2.6,2.78,2.78,0,0,1,1,1.85,1.69,1.69,0,0,1,0,.55.65.65,0,0,0,0,.14q0,3.26,0,6.51s0,.11,0,.13.08,0,.12-.08c2.31-2.31,4.64-4.62,6.94-6.95,1.48-1.5,3-3,4.47-4.48a2.75,2.75,0,0,1,1.24-.73,2.92,2.92,0,0,1,.5,0s.08,0,.12,0h.33l.42,0a2.21,2.21,0,0,1,.93.36,2.66,2.66,0,0,1,.52.42c1.25,1.24,2.51,2.48,3.74,3.74,1.43,1.46,2.88,2.89,4.31,4.33a2.71,2.71,0,0,1,.7,1.2,2.31,2.31,0,0,1,0,.46.38.38,0,0,0,0,.15v.31c0,.14,0,.29,0,.44a1.67,1.67,0,0,1-.15.54,2.84,2.84,0,0,1-1.67,1.55,2.63,2.63,0,0,1-1.15.14,2.86,2.86,0,0,1-1.53-.61,1.07,1.07,0,0,1-.16-.14l-6-6c-.16-.16-.16-.16-.32,0L206,228.82c-.16.16-.16.16,0,.32l9.34,9.35.07.07s.08,0,.13,0l.09-.1,5.93-5.93a2.77,2.77,0,0,1,1.64-.8,2.84,2.84,0,0,1,3.06,2,2.31,2.31,0,0,1,0,.46A.5.5,0,0,0,226.27,234.36Z"/><path class="cls-2" d="M218.2,229a2.78,2.78,0,1,1-2.76-2.78A2.78,2.78,0,0,1,218.2,229Z"/></svg>