<svg id="Слой_1" data-name="Слой 1" xmlns="http://www.w3.org/2000/svg" viewBox="0 0 405 405"><defs><style>.cls-1{fill:#fff;}.cls-2{fill:#e7335d;}</style></defs><rect class="cls-1" width="405" height="405"/><path class="cls-2" d="M44.12,39h3.12V53.09h-3.6l-3.64-6-3.66,6h-3.6V39h3.6v8l1.76-3.2.1-.16h3.6l.08.16,1.76,3.2V39Z"/><path class="cls-2" d="M56.48,39h3.6V53.09h-3.6V47.81h-4v5.28h-3.6V39h3.6v5.26h4Z"/><path class="cls-2" d="M69,39.09l4.62,14H70.18l-.92-2.86H64.88L64,53.09h-3.5l4.64-14Zm-3.22,8.22h2.52l-1.26-4Z"/><path class="cls-2" d="M84.72,39v3.6H81.1V53.09H77.48V42.55H73.86V39H84.72Z"/><path class="cls-2" d="M95.72,39V53.09h-3.6V39Z"/><path class="cls-2" d="M103.78,43.43v-.26a1.23,1.23,0,0,0-.49-1,1.76,1.76,0,0,0-1.19-.41,1.87,1.87,0,0,0-1.23.41,1.22,1.22,0,0,0-.51,1,.92.92,0,0,0,.52.86,4.6,4.6,0,0,0,1.36.56l.31.06.35.08a6.82,6.82,0,0,1,2.86,1.18l.18.16a4.2,4.2,0,0,1,1,1.38,3.91,3.91,0,0,1,0,3.32,4.6,4.6,0,0,1-1.13,1.46,5.34,5.34,0,0,1-1.68,1,5.89,5.89,0,0,1-2,.33,5.79,5.79,0,0,1-2-.33,5.41,5.41,0,0,1-1.67-1,4.79,4.79,0,0,1-1.14-1.46,3.84,3.84,0,0,1-.4-1.72v-.26h3.5v.26a1.26,1.26,0,0,0,.49,1,1.79,1.79,0,0,0,1.17.41,1.92,1.92,0,0,0,1.23-.41,1.25,1.25,0,0,0,.51-1,1.15,1.15,0,0,0-.54-.88,2.29,2.29,0,0,0-.56-.3,7.5,7.5,0,0,0-.78-.24l-.66-.16c-.73-.19-1.31-.35-1.72-.5a3.71,3.71,0,0,1-1.14-.68l-.08-.08a4.68,4.68,0,0,1-1-1.4,3.74,3.74,0,0,1-.37-1.64,3.81,3.81,0,0,1,.4-1.72A4.56,4.56,0,0,1,98.46,40a5.21,5.21,0,0,1,1.67-1,5.79,5.79,0,0,1,2-.33,5.89,5.89,0,0,1,2,.33,5.15,5.15,0,0,1,1.68,1,4.39,4.39,0,0,1,1.13,1.46,3.94,3.94,0,0,1,.39,1.72v.26Z"/><path class="cls-2" d="M118,39V53.09h-3.6V39Z"/><path class="cls-2" d="M127.42,39H131V53.09h-3.6l-4.16-7.58v7.58h-3.62V39h3.62l4.16,7.58Z"/><path class="cls-2" d="M140.78,49.46a4.24,4.24,0,0,0,1.2-.79l2.44,2.44a7.18,7.18,0,0,1-2.3,1.55,7.17,7.17,0,0,1-6.34-.41,7.2,7.2,0,0,1-2.6-2.6,7.17,7.17,0,0,1,0-7.17,7.15,7.15,0,0,1,2.6-2.61A7.13,7.13,0,0,1,144.42,41L142,43.45a4,4,0,0,0-1.2-.79,3.47,3.47,0,0,0-1.42-.29,3.55,3.55,0,0,0-1.84.5,3.69,3.69,0,0,0-1.34,1.35,3.65,3.65,0,0,0,0,3.69,3.82,3.82,0,0,0,1.34,1.34,3.55,3.55,0,0,0,1.84.5A3.64,3.64,0,0,0,140.78,49.46Z"/><path class="cls-2" d="M149.22,49.69h5.56v3.4h-9.16V39h3.6Z"/><path class="cls-2" d="M167.68,39v8.74a5.47,5.47,0,0,1-.75,2.8,5.59,5.59,0,0,1-2,2,5.5,5.5,0,0,1-2.81.75h-.32a5.44,5.44,0,0,1-2.8-.75,5.64,5.64,0,0,1-2-2,5.47,5.47,0,0,1-.75-2.8V39h3.34v7.94a3.42,3.42,0,0,0,.6,2.06,1.94,1.94,0,0,0,1.64.82h.32a2,2,0,0,0,1.63-.83,3.31,3.31,0,0,0,.63-2.05V39Z"/><path class="cls-2" d="M175.48,38.9a8.07,8.07,0,0,1,2.13.51,6,6,0,0,1,1.95,1.22,7,7,0,0,1,1.73,2.43A7.2,7.2,0,0,1,181.9,46a6.91,6.91,0,0,1-.78,3.26,6.48,6.48,0,0,1-2.19,2.5,7.78,7.78,0,0,1-2.88,1.13,20.94,20.94,0,0,1-3.57.27l-1.64,0c-.35,0-.87,0-1.56,0V38.79h3.62A24.06,24.06,0,0,1,175.48,38.9Zm3,7.07a3.61,3.61,0,0,0-.48-1.81,3.74,3.74,0,0,0-1.31-1.37,3.42,3.42,0,0,0-1.81-.54h-2v7.38a15.85,15.85,0,0,0,2.47-.17,4.29,4.29,0,0,0,1.86-.79,3.2,3.2,0,0,0,1.13-1.86A3.82,3.82,0,0,0,178.46,46Z"/><path class="cls-2" d="M192.72,50v3.06H183.1V39h9.44V42h-5.82v2.48h4.9v3.06h-4.9V50Z"/><path class="cls-2" d="M200.52,38.9a8.07,8.07,0,0,1,2.13.51,6,6,0,0,1,1.95,1.22,7,7,0,0,1,1.73,2.43,7.2,7.2,0,0,1,.61,2.91,6.91,6.91,0,0,1-.78,3.26,6.48,6.48,0,0,1-2.19,2.5,7.78,7.78,0,0,1-2.88,1.13,20.94,20.94,0,0,1-3.57.27l-1.64,0c-.35,0-.87,0-1.56,0V38.79h3.62A24.06,24.06,0,0,1,200.52,38.9Zm3,7.07a3.61,3.61,0,0,0-.48-1.81,3.74,3.74,0,0,0-1.31-1.37,3.42,3.42,0,0,0-1.81-.54h-2v7.38a15.85,15.85,0,0,0,2.47-.17,4.29,4.29,0,0,0,1.86-.79,3.2,3.2,0,0,0,1.13-1.86A3.82,3.82,0,0,0,203.5,46Z"/><path class="cls-2" d="M36.34,63V77.09h-3.6V63Z"/><path class="cls-2" d="M45.72,63h3.6V77.09h-3.6l-4.16-7.58v7.58H37.94V63h3.62l4.16,7.58Z"/><path class="cls-2" d="M67.58,63v3.6H64V77.09H60.34V66.55H56.72V63H67.58Z"/><path class="cls-2" d="M76.62,63h3.6V77.09h-3.6V71.81h-4v5.28H69V63h3.6v5.26h4Z"/><path class="cls-2" d="M91.44,74v3.06H81.82V63h9.44V66H85.44v2.48h4.9v3.06h-4.9V74Z"/><path class="cls-2" d="M105.5,67.43v-.26a1.23,1.23,0,0,0-.49-1,1.76,1.76,0,0,0-1.19-.41,1.87,1.87,0,0,0-1.23.41,1.22,1.22,0,0,0-.51,1,.92.92,0,0,0,.52.86,4.6,4.6,0,0,0,1.36.56l.31.06.35.08a6.82,6.82,0,0,1,2.86,1.18l.18.16a4.2,4.2,0,0,1,1,1.38,3.91,3.91,0,0,1,0,3.32,4.6,4.6,0,0,1-1.13,1.46,5.34,5.34,0,0,1-1.68,1,5.89,5.89,0,0,1-2,.33,5.79,5.79,0,0,1-2-.33,5.41,5.41,0,0,1-1.67-1A4.79,4.79,0,0,1,99,74.77a3.84,3.84,0,0,1-.4-1.72v-.26h3.5v.26a1.26,1.26,0,0,0,.49,1,1.79,1.79,0,0,0,1.17.41A1.92,1.92,0,0,0,105,74a1.25,1.25,0,0,0,.51-1,1.15,1.15,0,0,0-.54-.88,2.29,2.29,0,0,0-.56-.3,7.5,7.5,0,0,0-.78-.24l-.66-.16c-.73-.19-1.31-.35-1.72-.5a3.71,3.71,0,0,1-1.14-.68l-.08-.08a4.68,4.68,0,0,1-1-1.4,3.74,3.74,0,0,1-.37-1.64,3.81,3.81,0,0,1,.4-1.72A4.56,4.56,0,0,1,100.18,64a5.21,5.21,0,0,1,1.67-1,5.79,5.79,0,0,1,2-.33,5.89,5.89,0,0,1,2,.33,5.15,5.15,0,0,1,1.68,1,4.39,4.39,0,0,1,1.13,1.46,3.94,3.94,0,0,1,.39,1.72v.26Z"/><path class="cls-2" d="M119.78,74v3.06h-9.62V63h9.44V66h-5.82v2.48h4.9v3.06h-4.9V74Z"/><path class="cls-2" d="M132.92,77.09H129.3l-2.24-5.34h-2.3v5.34h-3.38V63h6.74a4.25,4.25,0,0,1,2.2.59,4.29,4.29,0,0,1,1.61,1.61,4.34,4.34,0,0,1,.59,2.2,4.28,4.28,0,0,1-.54,2.11,4.64,4.64,0,0,1-1.46,1.59Zm-4-10.77a1.34,1.34,0,0,0-.94-.47h-3.32v3H128a1.45,1.45,0,0,0,.94-.49,1.52,1.52,0,0,0,.38-1A1.49,1.49,0,0,0,128.94,66.32Z"/><path class="cls-2" d="M143.42,62.91h3.92l-4.62,14.18h-4.4l-4.6-14.18h4l2.86,8.84Z"/><path class="cls-2" d="M152.14,63V77.09h-3.6V63Z"/><path class="cls-2" d="M161.9,73.46a4.24,4.24,0,0,0,1.2-.79l2.44,2.44a7.18,7.18,0,0,1-2.3,1.55,7.17,7.17,0,0,1-6.34-.41,7.2,7.2,0,0,1-2.6-2.6,7.17,7.17,0,0,1,0-7.17,7.15,7.15,0,0,1,2.6-2.61A7.13,7.13,0,0,1,165.54,65l-2.44,2.44a4,4,0,0,0-1.2-.79,3.47,3.47,0,0,0-1.42-.29,3.55,3.55,0,0,0-1.84.5,3.69,3.69,0,0,0-1.34,1.35,3.65,3.65,0,0,0,0,3.69,3.82,3.82,0,0,0,1.34,1.34,3.55,3.55,0,0,0,1.84.5A3.64,3.64,0,0,0,161.9,73.46Z"/><path class="cls-2" d="M176.36,74v3.06h-9.62V63h9.44V66h-5.82v2.48h4.9v3.06h-4.9V74Z"/><path class="cls-2" d="M178.56,70.39a1.78,1.78,0,0,1-.5-1.16,1.62,1.62,0,0,1,1.62-1.66,1.64,1.64,0,0,1,1.66,1.66,1.56,1.56,0,0,1-.49,1.16,1.62,1.62,0,0,1-1.17.48A1.5,1.5,0,0,1,178.56,70.39Zm0,6.22a1.78,1.78,0,0,1-.5-1.16,1.62,1.62,0,0,1,1.62-1.66,1.64,1.64,0,0,1,1.66,1.66,1.56,1.56,0,0,1-.49,1.16,1.62,1.62,0,0,1-1.17.48A1.5,1.5,0,0,1,178.56,76.61Z"/><path class="cls-2" d="M44.12,259.7h3.12v14.14h-3.6l-3.64-6-3.66,6h-3.6V259.7h3.6v8l1.76-3.2.1-.16h3.6l.08.16,1.76,3.2v-8Z"/><path class="cls-2" d="M56.48,259.7h3.6v14.14h-3.6v-5.28h-4v5.28h-3.6V259.7h3.6V265h4Z"/><path class="cls-2" d="M71.3,270.78v3.06H61.68V259.7h9.44v3.06H65.3v2.48h4.9v3.06H65.3v2.48Z"/><path class="cls-2" d="M84.44,273.84H80.82l-2.24-5.34h-2.3v5.34H72.9V259.7h6.74a4.34,4.34,0,0,1,2.2.59,4.29,4.29,0,0,1,1.61,1.61,4.39,4.39,0,0,1,0,4.31A4.46,4.46,0,0,1,82,267.8Zm-4-10.77a1.34,1.34,0,0,0-.94-.47H76.2v3h3.32a1.4,1.4,0,0,0,.94-.49,1.52,1.52,0,0,0,.38-1A1.49,1.49,0,0,0,80.46,263.07Z"/><path class="cls-2" d="M95.26,270.78v3.06H85.64V259.7h9.44v3.06H89.26v2.48h4.9v3.06h-4.9v2.48Z"/><path class="cls-2" d="M110.38,259.7H114l-4.16,8.38v5.76h-3.6v-5.76l-4.16-8.38h3.6l2.36,4.82Z"/><path class="cls-2" d="M125.12,260.66a7.15,7.15,0,0,1,2.6,2.61,7.17,7.17,0,0,1,0,7.17,7.2,7.2,0,0,1-2.6,2.6,7.17,7.17,0,0,1-7.17,0,7.15,7.15,0,0,1-2.61-2.6,7.17,7.17,0,0,1,0-7.17,7.1,7.1,0,0,1,2.61-2.61,7.17,7.17,0,0,1,7.17,0ZM123.38,270a3.74,3.74,0,0,0,1.34-1.34,3.55,3.55,0,0,0,.5-1.84,3.62,3.62,0,0,0-.5-1.85,3.69,3.69,0,0,0-1.34-1.35,3.55,3.55,0,0,0-1.84-.5,3.71,3.71,0,0,0-3.7,3.7,3.55,3.55,0,0,0,.5,1.84,3.69,3.69,0,0,0,1.35,1.34,3.62,3.62,0,0,0,1.85.5A3.55,3.55,0,0,0,123.38,270Z"/><path class="cls-2" d="M141.38,259.72v8.74a5.44,5.44,0,0,1-.75,2.8,5.59,5.59,0,0,1-2,2,5.5,5.5,0,0,1-2.81.75h-.32a5.44,5.44,0,0,1-2.8-.75,5.64,5.64,0,0,1-2-2,5.44,5.44,0,0,1-.75-2.8v-8.74h3.34v7.94a3.4,3.4,0,0,0,.6,2.06,1.92,1.92,0,0,0,1.64.82h.32a2,2,0,0,0,1.63-.83,3.29,3.29,0,0,0,.63-2v-7.94Z"/><path class="cls-2" d="M157.14,270.21a4,4,0,0,0,1.2-.79l2.44,2.44a7.18,7.18,0,0,1-2.3,1.55,7.17,7.17,0,0,1-6.34-.41,7.2,7.2,0,0,1-2.6-2.6,7.17,7.17,0,0,1,0-7.17,7.15,7.15,0,0,1,2.6-2.61,7.17,7.17,0,0,1,6.34-.41,7.18,7.18,0,0,1,2.3,1.55l-2.44,2.44a4,4,0,0,0-1.2-.79,3.64,3.64,0,0,0-1.42-.29,3.55,3.55,0,0,0-1.84.5,3.69,3.69,0,0,0-1.34,1.35,3.62,3.62,0,0,0-.5,1.85,3.55,3.55,0,0,0,.5,1.84,3.74,3.74,0,0,0,1.34,1.34,3.55,3.55,0,0,0,1.84.5A3.64,3.64,0,0,0,157.14,270.21Z"/><path class="cls-2" d="M169.34,259.84l4.62,14h-3.48l-.92-2.86h-4.38l-.9,2.86h-3.5l4.64-14Zm-3.22,8.22h2.52l-1.26-4Z"/><path class="cls-2" d="M182.14,259.7h3.6v14.14h-3.6L178,266.26v7.58h-3.62V259.7H178l4.16,7.58Z"/><path class="cls-2" d="M202.64,259.66h3.92l-4.62,14.18h-4.4l-4.6-14.18h4l2.86,8.84Z"/><path class="cls-2" d="M211.36,259.7v14.14h-3.6V259.7Z"/><path class="cls-2" d="M222.58,270.78v3.06H213V259.7h9.44v3.06h-5.82v2.48h4.9v3.06h-4.9v2.48Z"/><path class="cls-2" d="M235.56,259.7h3.12v14.14h-3.6l-3.64-6-3.66,6h-3.6V259.7h3.6v8l1.76-3.2.1-.16h3.6l.08.16,1.76,3.2v-8Z"/><path class="cls-2" d="M42.36,294.78v3.06H32.74V283.7h9.44v3.06H36.36v2.48h4.9v3.06h-4.9v2.48Z"/><path class="cls-2" d="M56.38,297.84H52.2L50,294.16l-2.22,3.68H43.56l4.32-7.14-4.24-7h4.18L50,287.24l2.14-3.54h4.2l-4.24,7Z"/><path class="cls-2" d="M64.94,283.84l4.62,14H66.08L65.16,295H60.78l-.9,2.86h-3.5l4.64-14Zm-3.22,8.22h2.52l-1.26-4Z"/><path class="cls-2" d="M80.86,283.7h3.6v14.14h-3.6v-8l-1.76,3.2-.08.16h-3.6l-.1-.16-.24-.46-1.5-2.74v8H70V283.7h3.62l3.64,6Z"/><path class="cls-2" d="M95,284.29a4.31,4.31,0,0,1,1.6,1.6,4.43,4.43,0,0,1,0,4.42,4.39,4.39,0,0,1-3.81,2.19H89.44v5.34H86.06V283.7H92.8A4.33,4.33,0,0,1,95,284.29Zm-1.38,2.78a1.38,1.38,0,0,0-.95-.47H89.36v3h3.32a1.37,1.37,0,0,0,.95-.49,1.52,1.52,0,0,0,.39-1A1.45,1.45,0,0,0,93.63,287.07Z"/><path class="cls-2" d="M102,294.44h5.56v3.4H98.4V283.7H102Z"/><path class="cls-2" d="M118.58,294.78v3.06H109V283.7h9.44v3.06h-5.82v2.48h4.9v3.06h-4.9v2.48Z"/><path class="cls-2" d="M126.64,288.18v-.26a1.23,1.23,0,0,0-.49-1,1.79,1.79,0,0,0-1.19-.41,1.92,1.92,0,0,0-1.23.41,1.22,1.22,0,0,0-.51,1,.91.91,0,0,0,.52.86,4.46,4.46,0,0,0,1.36.56l.31.06.35.08a7,7,0,0,1,2.86,1.18l.18.16a4.31,4.31,0,0,1,.95,1.38,4,4,0,0,1,.35,1.6,4,4,0,0,1-.39,1.72,4.36,4.36,0,0,1-1.13,1.46,5.34,5.34,0,0,1-1.68.95,6,6,0,0,1-3.91,0,5.41,5.41,0,0,1-1.67-.95,4.67,4.67,0,0,1-1.14-1.46,4,4,0,0,1-.4-1.72v-.26h3.5v.26a1.26,1.26,0,0,0,.49,1,1.79,1.79,0,0,0,1.17.41,1.92,1.92,0,0,0,1.23-.41,1.22,1.22,0,0,0,.51-1,1.15,1.15,0,0,0-.54-.88,2.29,2.29,0,0,0-.56-.3,7.5,7.5,0,0,0-.78-.24l-.66-.16c-.73-.19-1.31-.35-1.72-.5a3.52,3.52,0,0,1-1.14-.68l-.08-.08a4.56,4.56,0,0,1-1-1.4,3.74,3.74,0,0,1-.37-1.64,4,4,0,0,1,.4-1.72,4.67,4.67,0,0,1,1.14-1.46,5.41,5.41,0,0,1,1.67-.95,6,6,0,0,1,3.91,0,5.34,5.34,0,0,1,1.68.95,4.36,4.36,0,0,1,1.13,1.46,4,4,0,0,1,.39,1.72v.26Z"/><path class="cls-2" d="M131.9,291.14a1.83,1.83,0,0,1-.5-1.16,1.62,1.62,0,0,1,1.62-1.66,1.64,1.64,0,0,1,1.66,1.66,1.56,1.56,0,0,1-.49,1.16,1.61,1.61,0,0,1-1.17.48A1.5,1.5,0,0,1,131.9,291.14Zm0,6.22a1.83,1.83,0,0,1-.5-1.16,1.62,1.62,0,0,1,1.62-1.66,1.64,1.64,0,0,1,1.66,1.66,1.56,1.56,0,0,1-.49,1.16,1.61,1.61,0,0,1-1.17.48A1.5,1.5,0,0,1,131.9,297.36Z"/><path d="M35.89,94.07a5.24,5.24,0,0,1,1.27.31,3.81,3.81,0,0,1,1.17.73,4.2,4.2,0,0,1,1,1.46,4.26,4.26,0,0,1,.37,1.75,4.13,4.13,0,0,1-.47,2,3.88,3.88,0,0,1-1.31,1.5,4.61,4.61,0,0,1-1.73.68,12.49,12.49,0,0,1-2.15.16H32.17V94h2.17C34.94,94,35.45,94,35.89,94.07Zm1.78,4.25a2.19,2.19,0,0,0-.28-1.09,2.39,2.39,0,0,0-.79-.82,2.08,2.08,0,0,0-1.09-.33H34.34v4.43a9.06,9.06,0,0,0,1.48-.1,2.58,2.58,0,0,0,1.12-.47,1.89,1.89,0,0,0,.67-1.12A2.34,2.34,0,0,0,37.67,98.32Z"/><path d="M46.23,100.75v1.84H40.46V94.11h5.66v1.83H42.63v1.49h2.94v1.83H42.63v1.49Z"/><path d="M52.77,94.08h2.35l-2.77,8.51H49.71L47,94.08h2.38L51,99.38Z"/><path d="M61.61,100.75v1.84H55.84V94.11H61.5v1.83H58v1.49H61v1.83H58v1.49Z"/><path d="M64.73,100.55h3.34v2h-5.5V94.11h2.16Z"/><path d="M75.11,94.68a4.2,4.2,0,0,1,1.56,1.57,4.27,4.27,0,0,1,0,4.3,4.24,4.24,0,0,1-1.56,1.56,4.2,4.2,0,0,1-2.15.58,4.3,4.3,0,0,1-3.71-2.14,4.27,4.27,0,0,1,0-4.3,4.2,4.2,0,0,1,1.56-1.57A4.24,4.24,0,0,1,73,94.11,4.19,4.19,0,0,1,75.11,94.68Zm-1,5.63a2.22,2.22,0,0,0,.8-.81,2.09,2.09,0,0,0,.3-1.1,2.15,2.15,0,0,0-.3-1.11,2.22,2.22,0,0,0-.8-.81,2.12,2.12,0,0,0-1.11-.3,2.18,2.18,0,0,0-1.11.3,2.33,2.33,0,0,0-.81.81,2.14,2.14,0,0,0-.29,1.11A2.08,2.08,0,0,0,71,99.5a2.33,2.33,0,0,0,.81.81,2.18,2.18,0,0,0,1.11.3A2.12,2.12,0,0,0,74.07,100.31Z"/><path d="M83.34,94.46a2.76,2.76,0,0,1,1,1,2.51,2.51,0,0,1,.35,1.32,2.54,2.54,0,0,1-.35,1.33,2.76,2.76,0,0,1-1,1,2.57,2.57,0,0,1-1.33.35H80v3.21H78V94.11h4A2.57,2.57,0,0,1,83.34,94.46Zm-.83,1.67a.83.83,0,0,0-.57-.29H80v1.8h2a.76.76,0,0,0,.57-.29.91.91,0,0,0,.24-.62A.85.85,0,0,0,82.51,96.13Z"/><path d="M91.91,94.11h2.16v8.48H91.91V97.8l-1,1.92,0,.1H88.65l-.06-.1-.15-.27-.9-1.65v4.79H85.37V94.11h2.17l2.19,3.61Z"/><path d="M100.8,100.75v1.84H95V94.11h5.67v1.83H97.2v1.49h2.94v1.83H97.2v1.49Z"/><path d="M106.43,94.11h2.16v8.48h-2.16L103.94,98v4.55h-2.18V94.11h2.18l2.49,4.54Z"/><path d="M116,94.11v2.15h-2.17v6.33H111.6V96.26h-2.17V94.11H116Z"/><path d="M124.8,94.19l2.78,8.4h-2.09l-.55-1.72h-2.63l-.54,1.72h-2.1l2.78-8.4Zm-1.93,4.93h1.51l-.75-2.38Z"/><path d="M132.48,94.11h2.16v8.48h-2.16L130,98v4.55h-2.17V94.11H130l2.49,4.54Z"/><path d="M139.32,94.07a5.2,5.2,0,0,1,1.28.31,3.81,3.81,0,0,1,1.17.73,4.2,4.2,0,0,1,1,1.46,4.43,4.43,0,0,1,.37,1.75,4.13,4.13,0,0,1-.47,2,3.82,3.82,0,0,1-1.32,1.5,4.5,4.5,0,0,1-1.72.68,12.49,12.49,0,0,1-2.15.16H135.6V94h2.18C138.38,94,138.89,94,139.32,94.07Zm1.79,4.25a2.1,2.1,0,0,0-.29-1.09,2.27,2.27,0,0,0-.78-.82,2.11,2.11,0,0,0-1.09-.33h-1.17v4.43a9.06,9.06,0,0,0,1.48-.1,2.5,2.5,0,0,0,1.11-.47,1.85,1.85,0,0,0,.68-1.12A2.34,2.34,0,0,0,141.11,98.32Z"/><path d="M149.66,94.11v8.48H147.5V94.11Z"/><path d="M157.16,94.11h2.16v8.48h-2.16V97.8l-1.06,1.92,0,.1h-2.16l-.06-.1-.14-.27-.9-1.65v4.79h-2.17V94.11h2.17L155,97.72Z"/><path d="M165.65,94.46a2.76,2.76,0,0,1,1,1,2.61,2.61,0,0,1,.35,1.32,2.64,2.64,0,0,1-.35,1.33,2.76,2.76,0,0,1-1,1,2.57,2.57,0,0,1-1.33.35h-2v3.21h-2V94.11h4A2.57,2.57,0,0,1,165.65,94.46Zm-.83,1.67a.88.88,0,0,0-.57-.29h-2v1.8h2a.8.8,0,0,0,.57-.29,1,1,0,0,0,.23-.62A.88.88,0,0,0,164.82,96.13Z"/><path d="M169.84,100.55h3.34v2h-5.5V94.11h2.16Z"/><path d="M179.79,100.75v1.84H174V94.11h5.66v1.83h-3.49v1.49h2.94v1.83h-2.94v1.49Z"/><path d="M187.29,94.11h2.16v8.48h-2.16V97.8l-1.06,1.92,0,.1H184l-.06-.1-.14-.27-.9-1.65v4.79h-2.17V94.11h2.17l2.18,3.61Z"/><path d="M196.18,100.75v1.84h-5.77V94.11h5.66v1.83h-3.49v1.49h2.94v1.83h-2.94v1.49Z"/><path d="M201.81,94.11H204v8.48h-2.16L199.31,98v4.55h-2.17V94.11h2.17l2.5,4.54Z"/><path d="M211.32,94.11v2.15h-2.17v6.33H207V96.26h-2.17V94.11h6.51Z"/><path d="M216.58,94.19l2.77,8.4h-2.09l-.55-1.72h-2.63l-.54,1.72h-2.1l2.79-8.4Zm-1.93,4.93h1.51l-.76-2.38Z"/><path d="M226,94.11v2.15h-2.18v6.33h-2.17V96.26h-2.17V94.11H226Z"/><path d="M229,94.11v8.48h-2.16V94.11Z"/><path d="M236.15,94.68a4.2,4.2,0,0,1,1.56,1.57,4.29,4.29,0,0,1-5.86,5.86,4.35,4.35,0,0,1-1.57-1.56,4.34,4.34,0,0,1,0-4.3,4.3,4.3,0,0,1,1.57-1.57,4.34,4.34,0,0,1,4.3,0Zm-1,5.63a2.3,2.3,0,0,0,.8-.81,2.09,2.09,0,0,0,.3-1.1,2.15,2.15,0,0,0-.3-1.11,2.3,2.3,0,0,0-.8-.81,2.2,2.2,0,0,0-2.22,0,2.25,2.25,0,0,0-.81.81,2.15,2.15,0,0,0-.3,1.11,2.09,2.09,0,0,0,.3,1.1,2.25,2.25,0,0,0,.81.81,2.2,2.2,0,0,0,2.22,0Z"/><path d="M243.67,94.11h2.16v8.48h-2.16L241.18,98v4.55H239V94.11h2.17l2.49,4.54Z"/><path d="M256.6,94.68a4.35,4.35,0,0,1,1.56,1.57,4.34,4.34,0,0,1,0,4.3,4.4,4.4,0,0,1-1.56,1.56,4.27,4.27,0,0,1-4.3,0,4.27,4.27,0,0,1-1.57-1.56,4.3,4.3,0,0,1,5.87-5.87Zm-1.05,5.63a2.25,2.25,0,0,0,.81-.81,2.09,2.09,0,0,0,.3-1.1,2.15,2.15,0,0,0-.3-1.11,2.25,2.25,0,0,0-.81-.81,2.09,2.09,0,0,0-1.1-.3,2.15,2.15,0,0,0-1.11.3,2.25,2.25,0,0,0-.81.81,2.15,2.15,0,0,0-.3,1.11,2.09,2.09,0,0,0,.3,1.1,2.25,2.25,0,0,0,.81.81,2.15,2.15,0,0,0,1.11.3A2.09,2.09,0,0,0,255.55,100.31Z"/><path d="M265.36,95.94h-3.75v1.49h3v1.83h-3v3.33h-2.16V94.11h5.91Z"/><path d="M274.09,94.19l2.78,8.4h-2.09l-.55-1.72H271.6l-.54,1.72H269l2.78-8.4Zm-1.93,4.93h1.51l-.75-2.38Z"/><path d="M286.08,94.46a2.76,2.76,0,0,1,1,1,2.61,2.61,0,0,1,.35,1.32,2.64,2.64,0,0,1-.35,1.33,2.76,2.76,0,0,1-1,1,2.57,2.57,0,0,1-1.33.35h-2v3.21h-2V94.11h4A2.57,2.57,0,0,1,286.08,94.46Zm-.83,1.67a.88.88,0,0,0-.57-.29h-2v1.8h2a.8.8,0,0,0,.57-.29,1,1,0,0,0,.23-.62A.88.88,0,0,0,285.25,96.13Z"/><path d="M295,102.59h-2.17l-1.34-3.21h-1.38v3.21h-2V94.11h4a2.51,2.51,0,0,1,1.32.35,2.7,2.7,0,0,1,1,1,2.66,2.66,0,0,1,.35,1.32,2.52,2.52,0,0,1-.32,1.27,2.68,2.68,0,0,1-.88.95Zm-2.38-6.46a.88.88,0,0,0-.57-.29h-2v1.8h2a.88.88,0,0,0,.57-.29.91.91,0,0,0,.22-.62A.87.87,0,0,0,292.65,96.13Z"/><path d="M303.23,96.79v-.15a.75.75,0,0,0-.3-.6,1.07,1.07,0,0,0-.71-.24,1.17,1.17,0,0,0-.74.24.75.75,0,0,0-.3.6.54.54,0,0,0,.31.51,2.56,2.56,0,0,0,.81.34l.19,0,.21,0a4.25,4.25,0,0,1,1.72.71l.1.1a2.32,2.32,0,0,1,.57.83,2.38,2.38,0,0,1,.21,1,2.31,2.31,0,0,1-.23,1,2.46,2.46,0,0,1-.68.87,3,3,0,0,1-1,.57,3.52,3.52,0,0,1-2.34,0,3.1,3.1,0,0,1-1-.57,2.61,2.61,0,0,1-.69-.87,2.32,2.32,0,0,1-.24-1V100h2.1v.16a.73.73,0,0,0,.3.59,1.06,1.06,0,0,0,.7.24,1.17,1.17,0,0,0,.74-.24.73.73,0,0,0,.3-.59.69.69,0,0,0-.32-.53,1,1,0,0,0-.34-.18l-.46-.15-.4-.09c-.44-.11-.79-.22-1-.3a2.21,2.21,0,0,1-.69-.41l-.05-.05a2.81,2.81,0,0,1-.63-.84,2.38,2.38,0,0,1-.22-1,2.29,2.29,0,0,1,.24-1,2.64,2.64,0,0,1,.69-.88,3.1,3.1,0,0,1,1-.57,3.52,3.52,0,0,1,2.34,0,3,3,0,0,1,1,.57,2.49,2.49,0,0,1,.68.88,2.28,2.28,0,0,1,.23,1v.15Z"/><path d="M312.42,94.11v2.15h-2.17v6.33h-2.17V96.26H305.9V94.11h6.52Z"/><path d="M320.18,102.59H318l-1.34-3.21h-1.38v3.21h-2V94.11h4a2.57,2.57,0,0,1,1.33.35,2.76,2.76,0,0,1,1,1,2.56,2.56,0,0,1,.35,1.32,2.52,2.52,0,0,1-.32,1.27,2.68,2.68,0,0,1-.88.95Zm-2.38-6.46a.86.86,0,0,0-.57-.29h-2v1.8h2a.86.86,0,0,0,.57-.29.91.91,0,0,0,.22-.62A.87.87,0,0,0,317.8,96.13Z"/><path d="M325.32,94.19l2.77,8.4H326l-.55-1.72h-2.63l-.54,1.72h-2.1l2.79-8.4Zm-1.93,4.93h1.51l-.76-2.38Z"/><path d="M334.73,94.11v2.15h-2.17v6.33h-2.18V96.26h-2.17V94.11h6.52Z"/><path d="M341.34,100.75v1.84h-5.77V94.11h5.66v1.83h-3.49v1.49h2.94v1.83h-2.94v1.49Z"/><path d="M350.64,98.39a4.13,4.13,0,0,1-.58,2.15,4.32,4.32,0,0,1-1.56,1.56,4.25,4.25,0,0,1-2.16.57,4.18,4.18,0,0,1-2.14-.57,4.32,4.32,0,0,1-1.56-1.56,4.29,4.29,0,0,1,0-4.31,4.3,4.3,0,0,1,3.7-2.14,4.31,4.31,0,0,1,1.68.34,4,4,0,0,1,1.37.94l-1.93,1.1a2.16,2.16,0,0,0-1.12-.3,2.12,2.12,0,0,0-1.1.3,2.22,2.22,0,0,0-.8.81,2.15,2.15,0,0,0-.3,1.11,2.09,2.09,0,0,0,.3,1.1,2.22,2.22,0,0,0,.8.81,2.12,2.12,0,0,0,1.1.3,2.15,2.15,0,0,0,1.17-.33,2.24,2.24,0,0,0,.81-.89h-2.66v-2h4.86A4.61,4.61,0,0,1,350.64,98.39Z"/><path d="M355.87,94.11H358l-2.49,5v3.46h-2.16V99.13l-2.5-5H353L354.46,97Z"/><path d="M358.6,102.24a1.16,1.16,0,0,1-.33-.83,1.07,1.07,0,0,1,.33-.78,1.14,1.14,0,0,1,1.93.82,1.16,1.16,0,0,1-1.14,1.14A1,1,0,0,1,358.6,102.24Z"/><path d="M34.33,114.11v8.48H32.17v-8.48Z"/><path d="M40,114.11h2.16v8.48H40L37.46,118v4.55H35.29v-8.48h2.17L40,118.65Z"/><path d="M53.07,114.11v2.15H50.9v6.33H48.73v-6.33H46.55v-2.15h6.52Z"/><path d="M58.49,114.11h2.16v8.48H58.49v-3.17H56.07v3.17H53.91v-8.48h2.16v3.15h2.42Z"/><path d="M63.77,114.11v8.48H61.61v-8.48Z"/><path d="M68.61,116.79v-.15a.77.77,0,0,0-.29-.6,1.12,1.12,0,0,0-.72-.24,1.17,1.17,0,0,0-.74.24.75.75,0,0,0-.3.6.54.54,0,0,0,.31.51,2.53,2.53,0,0,0,.82.34l.18,0,.21,0a4.25,4.25,0,0,1,1.72.71l.11.1a2.61,2.61,0,0,1,.57.83,2.38,2.38,0,0,1,.21,1,2.32,2.32,0,0,1-.24,1,2.58,2.58,0,0,1-.68.87,3.1,3.1,0,0,1-1,.57,3.36,3.36,0,0,1-1.18.2,3.27,3.27,0,0,1-1.17-.2,3.1,3.1,0,0,1-1-.57,2.61,2.61,0,0,1-.69-.87,2.32,2.32,0,0,1-.24-1V120h2.1v.16a.73.73,0,0,0,.3.59,1.06,1.06,0,0,0,.7.24,1.17,1.17,0,0,0,.74-.24.73.73,0,0,0,.3-.59.66.66,0,0,0-.32-.53,1,1,0,0,0-.34-.18,4.42,4.42,0,0,0-.47-.15l-.39-.09c-.44-.11-.78-.22-1-.3a2.21,2.21,0,0,1-.69-.41l0-.05a2.81,2.81,0,0,1-.63-.84,2.38,2.38,0,0,1-.22-1,2.29,2.29,0,0,1,.24-1,2.64,2.64,0,0,1,.69-.88,3.1,3.1,0,0,1,1-.57,3.51,3.51,0,0,1,1.17-.2,3.61,3.61,0,0,1,1.18.2,3.1,3.1,0,0,1,1,.57,2.61,2.61,0,0,1,.68.88,2.29,2.29,0,0,1,.24,1v.15Z"/><path d="M79.9,120.41a2.49,2.49,0,0,0,.72-.47l1.46,1.46a4.38,4.38,0,0,1-1.37.93,4.28,4.28,0,0,1-1.66.33,4.13,4.13,0,0,1-2.15-.58,4.37,4.37,0,0,1-1.56-1.55,4.36,4.36,0,0,1,0-4.31,4.32,4.32,0,0,1,1.56-1.56,4.13,4.13,0,0,1,2.15-.58,4.28,4.28,0,0,1,1.66.33,4.38,4.38,0,0,1,1.37.93l-1.46,1.46a2.71,2.71,0,0,0-.72-.47,2.19,2.19,0,0,0-2,.13,2.25,2.25,0,0,0-.81.81,2.15,2.15,0,0,0-.3,1.11,2.12,2.12,0,0,0,.3,1.1,2.33,2.33,0,0,0,.81.81,2.18,2.18,0,0,0,1.1.29A2.08,2.08,0,0,0,79.9,120.41Z"/><path d="M87.22,114.19l2.77,8.4H87.91l-.56-1.72H84.72l-.54,1.72h-2.1l2.79-8.4Zm-1.93,4.93H86.8L86,116.74Z"/><path d="M94.11,116.79v-.15a.75.75,0,0,0-.3-.6,1.07,1.07,0,0,0-.71-.24,1.17,1.17,0,0,0-.74.24.75.75,0,0,0-.3.6.54.54,0,0,0,.31.51,2.56,2.56,0,0,0,.81.34l.19,0,.21,0a4.25,4.25,0,0,1,1.72.71l.1.1a2.46,2.46,0,0,1,.57.83,2.38,2.38,0,0,1,.21,1,2.31,2.31,0,0,1-.23,1,2.58,2.58,0,0,1-.68.87,3,3,0,0,1-1,.57,3.52,3.52,0,0,1-2.34,0,3.1,3.1,0,0,1-1-.57,2.61,2.61,0,0,1-.69-.87,2.32,2.32,0,0,1-.24-1V120h2.1v.16a.73.73,0,0,0,.3.59,1.06,1.06,0,0,0,.7.24,1.17,1.17,0,0,0,.74-.24.73.73,0,0,0,.3-.59.69.69,0,0,0-.32-.53,1,1,0,0,0-.34-.18,4.42,4.42,0,0,0-.47-.15l-.39-.09c-.44-.11-.79-.22-1-.3a2.21,2.21,0,0,1-.69-.41l0-.05a2.81,2.81,0,0,1-.63-.84,2.38,2.38,0,0,1-.22-1,2.29,2.29,0,0,1,.24-1,2.64,2.64,0,0,1,.69-.88,3.1,3.1,0,0,1,1-.57,3.52,3.52,0,0,1,2.34,0,3,3,0,0,1,1,.57,2.61,2.61,0,0,1,.68.88,2.28,2.28,0,0,1,.23,1v.15Z"/><path d="M102.68,120.75v1.84H96.9v-8.48h5.67v1.83H99.08v1.49H102v1.83H99.08v1.49Z"/><path d="M104,121.11h2l-.89,2.71H103.4Z"/><path d="M116.79,114.11v2.15h-2.17v6.33h-2.18v-6.33h-2.17v-2.15h6.52Z"/><path d="M122.21,114.11h2.16v8.48h-2.16v-3.17h-2.42v3.17h-2.16v-8.48h2.16v3.15h2.42Z"/><path d="M131.1,120.75v1.84h-5.77v-8.48H131v1.83h-3.5v1.49h2.94v1.83H127.5v1.49Z"/><path d="M141,114.46a2.6,2.6,0,0,1,1,1,2.52,2.52,0,0,1,.36,1.32,2.55,2.55,0,0,1-.36,1.33,2.6,2.6,0,0,1-1,1,2.51,2.51,0,0,1-1.32.35h-2v3.21h-2v-8.48h4.05A2.51,2.51,0,0,1,141,114.46Zm-.82,1.67a.88.88,0,0,0-.57-.29h-2v1.8h2a.8.8,0,0,0,.57-.29,1,1,0,0,0,.23-.62A.88.88,0,0,0,140.21,116.13Z"/><path d="M147.48,114.19l2.77,8.4h-2.08l-.55-1.72H145l-.54,1.72h-2.1l2.78-8.4Zm-1.93,4.93h1.51l-.75-2.38Z"/><path d="M155.39,120.41a2.49,2.49,0,0,0,.72-.47l1.47,1.46a4.54,4.54,0,0,1-1.38.93,4.28,4.28,0,0,1-1.66.33,4.13,4.13,0,0,1-2.15-.58,4.26,4.26,0,0,1-2.14-3.7,4.26,4.26,0,0,1,.58-2.16,4.17,4.17,0,0,1,1.56-1.56,4.13,4.13,0,0,1,2.15-.58,4.28,4.28,0,0,1,1.66.33,4.54,4.54,0,0,1,1.38.93l-1.47,1.46a2.71,2.71,0,0,0-.72-.47,2.08,2.08,0,0,0-.85-.17,2.15,2.15,0,0,0-1.11.3,2.3,2.3,0,0,0-.8.81,2.15,2.15,0,0,0-.3,1.11,2.12,2.12,0,0,0,.3,1.1,2.38,2.38,0,0,0,.8.81,2.24,2.24,0,0,0,1.11.29A2.08,2.08,0,0,0,155.39,120.41Z"/><path d="M162.41,118.3l2.53,4.29h-2.4l-2.08-3.42v3.42h-2.17v-8.48h2.17v3.31l2.08-3.31h2.4Z"/><path d="M170.32,114.19l2.77,8.4H171l-.55-1.72h-2.63l-.54,1.72h-2.1l2.79-8.4Zm-1.93,4.93h1.51l-.76-2.38Z"/><path d="M181.67,118.39a4.13,4.13,0,0,1-.58,2.15,4.32,4.32,0,0,1-1.56,1.56,4.25,4.25,0,0,1-2.16.57,4.18,4.18,0,0,1-2.14-.57,4.32,4.32,0,0,1-1.56-1.56,4.29,4.29,0,0,1,0-4.31,4.3,4.3,0,0,1,3.7-2.14,4.31,4.31,0,0,1,1.68.34,4,4,0,0,1,1.37.94l-1.93,1.1a2.16,2.16,0,0,0-1.12-.3,2.12,2.12,0,0,0-1.1.3,2.22,2.22,0,0,0-.8.81,2.15,2.15,0,0,0-.3,1.11,2.09,2.09,0,0,0,.3,1.1,2.22,2.22,0,0,0,.8.81,2.12,2.12,0,0,0,1.1.3,2.15,2.15,0,0,0,1.17-.33,2.24,2.24,0,0,0,.81-.89h-2.66v-2h4.86A4.61,4.61,0,0,1,181.67,118.39Z"/><path d="M188.16,120.75v1.84h-5.77v-8.48h5.66v1.83h-3.49v1.49h2.94v1.83h-2.94v1.49Z"/><path d="M198.93,114.68a4.35,4.35,0,0,1,1.56,1.57,4.34,4.34,0,0,1,0,4.3,4.4,4.4,0,0,1-1.56,1.56,4.29,4.29,0,0,1-5.87-1.56,4.27,4.27,0,0,1,0-4.3,4.2,4.2,0,0,1,1.56-1.57,4.36,4.36,0,0,1,4.31,0Zm-1.05,5.63a2.25,2.25,0,0,0,.81-.81,2.09,2.09,0,0,0,.3-1.1,2.15,2.15,0,0,0-.3-1.11,2.25,2.25,0,0,0-.81-.81,2.09,2.09,0,0,0-1.1-.3,2.15,2.15,0,0,0-1.11.3,2.25,2.25,0,0,0-.81.81,2.15,2.15,0,0,0-.3,1.11,2.09,2.09,0,0,0,.3,1.1,2.25,2.25,0,0,0,.81.81,2.15,2.15,0,0,0,1.11.3A2.09,2.09,0,0,0,197.88,120.31Z"/><path d="M207.69,115.94h-3.75v1.49h3v1.83h-3v3.33h-2.16v-8.48h5.91Z"/><path d="M215.88,116.79v-.15a.77.77,0,0,0-.29-.6,1.12,1.12,0,0,0-.72-.24,1.14,1.14,0,0,0-.73.24.74.74,0,0,0-.31.6.54.54,0,0,0,.31.51,2.53,2.53,0,0,0,.82.34l.18,0,.21,0a4.25,4.25,0,0,1,1.72.71l.11.1a2.46,2.46,0,0,1,.57.83,2.38,2.38,0,0,1,.21,1,2.32,2.32,0,0,1-.24,1,2.55,2.55,0,0,1-.67.87,3.25,3.25,0,0,1-1,.57,3.36,3.36,0,0,1-1.18.2,3.27,3.27,0,0,1-1.17-.2,3.21,3.21,0,0,1-1-.57,2.58,2.58,0,0,1-.68-.87,2.32,2.32,0,0,1-.24-1V120h2.1v.16a.72.72,0,0,0,.29.59,1.08,1.08,0,0,0,.7.24,1.15,1.15,0,0,0,.74-.24.74.74,0,0,0,.31-.59.67.67,0,0,0-.33-.53,1,1,0,0,0-.33-.18l-.47-.15-.4-.09c-.44-.11-.78-.22-1-.3a2.06,2.06,0,0,1-.68-.41l0-.05a2.81,2.81,0,0,1-.63-.84,2.23,2.23,0,0,1-.22-1,2.29,2.29,0,0,1,.24-1,2.61,2.61,0,0,1,.68-.88,3.21,3.21,0,0,1,1-.57,3.51,3.51,0,0,1,1.17-.2,3.61,3.61,0,0,1,1.18.2,3.25,3.25,0,0,1,1,.57,2.58,2.58,0,0,1,.67.88,2.29,2.29,0,0,1,.24,1v.15Z"/><path d="M224.45,120.75v1.84h-5.77v-8.48h5.66v1.83h-3.49v1.49h2.94v1.83h-2.94v1.49Z"/><path d="M232.33,122.59h-2.17l-1.34-3.21h-1.38v3.21h-2v-8.48h4a2.51,2.51,0,0,1,1.32.35,2.7,2.7,0,0,1,1,1,2.56,2.56,0,0,1,.35,1.32,2.52,2.52,0,0,1-.32,1.27,2.68,2.68,0,0,1-.88.95ZM230,116.13a.86.86,0,0,0-.57-.29h-2v1.8h2a.86.86,0,0,0,.57-.29.91.91,0,0,0,.22-.62A.87.87,0,0,0,230,116.13Z"/><path d="M238.63,114.08H241l-2.78,8.51h-2.64l-2.76-8.51h2.38l1.72,5.3Z"/><path d="M243.87,114.11v8.48h-2.16v-8.48Z"/><path d="M249.72,120.41a2.49,2.49,0,0,0,.72-.47l1.47,1.46a4.31,4.31,0,0,1-1.38.93,4.24,4.24,0,0,1-1.66.33,4.13,4.13,0,0,1-2.15-.58,4.37,4.37,0,0,1-1.56-1.55,4.36,4.36,0,0,1,0-4.31,4.32,4.32,0,0,1,1.56-1.56,4.13,4.13,0,0,1,2.15-.58,4.24,4.24,0,0,1,1.66.33,4.31,4.31,0,0,1,1.38.93l-1.47,1.46a2.71,2.71,0,0,0-.72-.47,2.05,2.05,0,0,0-.85-.17,2.09,2.09,0,0,0-1.1.3,2.25,2.25,0,0,0-.81.81,2.15,2.15,0,0,0-.3,1.11,2.12,2.12,0,0,0,.3,1.1,2.33,2.33,0,0,0,.81.81,2.18,2.18,0,0,0,1.1.29A2.05,2.05,0,0,0,249.72,120.41Z"/><path d="M258.4,120.75v1.84h-5.77v-8.48h5.66v1.83H254.8v1.49h2.94v1.83H254.8v1.49Z"/><path d="M263.23,116.79v-.15a.74.74,0,0,0-.29-.6,1.09,1.09,0,0,0-.71-.24,1.15,1.15,0,0,0-.74.24.74.74,0,0,0-.31.6.55.55,0,0,0,.31.51,2.63,2.63,0,0,0,.82.34l.19,0,.21,0a4.25,4.25,0,0,1,1.71.71l.11.1a2.46,2.46,0,0,1,.57.83,2.38,2.38,0,0,1,.21,1,2.46,2.46,0,0,1-.23,1,2.71,2.71,0,0,1-.68.87,3.14,3.14,0,0,1-1,.57,3.55,3.55,0,0,1-2.35,0,3.21,3.21,0,0,1-1-.57,2.71,2.71,0,0,1-.68-.87,2.32,2.32,0,0,1-.24-1V120h2.1v.16a.75.75,0,0,0,.29.59,1.08,1.08,0,0,0,.7.24,1.15,1.15,0,0,0,.74-.24.72.72,0,0,0,.31-.59.67.67,0,0,0-.33-.53.88.88,0,0,0-.33-.18l-.47-.15-.4-.09c-.44-.11-.78-.22-1-.3a2.17,2.17,0,0,1-.68-.41l0-.05a2.81,2.81,0,0,1-.63-.84,2.23,2.23,0,0,1-.22-1,2.29,2.29,0,0,1,.24-1,2.74,2.74,0,0,1,.68-.88,3.21,3.21,0,0,1,1-.57,3.55,3.55,0,0,1,2.35,0,3.14,3.14,0,0,1,1,.57,2.74,2.74,0,0,1,.68.88,2.42,2.42,0,0,1,.23,1v.15Z"/><path d="M276,114.11v2.15h-2.18v6.33h-2.17v-6.33h-2.17v-2.15H276Z"/><path d="M281.45,114.11h2.16v8.48h-2.16v-3.17H279v3.17h-2.16v-8.48H279v3.15h2.42Z"/><path d="M289,114.19l2.77,8.4h-2.09l-.55-1.72h-2.63l-.54,1.72h-2.1l2.78-8.4Zm-1.94,4.93h1.52l-.76-2.38Z"/><path d="M298.39,114.11v2.15h-2.17v6.33h-2.17v-6.33h-2.17v-2.15h6.51Z"/><path d="M309.66,114.11h1.87v8.48h-2.16L307.19,119l-2.2,3.61h-2.16v-8.48H305v4.78l1.06-1.92.06-.09h2.16l.05.09,1.05,1.92v-4.78Z"/><path d="M318.26,120.75v1.84h-5.77v-8.48h5.67v1.83h-3.5v1.49h2.94v1.83h-2.94v1.49Z"/><path d="M327.72,120.41a2.49,2.49,0,0,0,.72-.47l1.46,1.46a4.31,4.31,0,0,1-1.38.93,4.19,4.19,0,0,1-1.65.33,4.13,4.13,0,0,1-2.15-.58,4.26,4.26,0,0,1-2.14-3.7,4.26,4.26,0,0,1,.58-2.16,4.17,4.17,0,0,1,1.56-1.56,4.13,4.13,0,0,1,2.15-.58,4.19,4.19,0,0,1,1.65.33,4.31,4.31,0,0,1,1.38.93l-1.46,1.46a2.71,2.71,0,0,0-.72-.47,2.08,2.08,0,0,0-.85-.17,2.15,2.15,0,0,0-1.11.3,2.3,2.3,0,0,0-.8.81,2.15,2.15,0,0,0-.3,1.11,2.12,2.12,0,0,0,.3,1.1,2.38,2.38,0,0,0,.8.81,2.24,2.24,0,0,0,1.11.29A2.08,2.08,0,0,0,327.72,120.41Z"/><path d="M335,114.19l2.77,8.4h-2.09l-.55-1.72h-2.63l-.54,1.72h-2.1l2.79-8.4Zm-1.93,4.93h1.51l-.76-2.38Z"/><path d="M342.72,114.11h2.16v8.48h-2.16l-2.5-4.55v4.55h-2.17v-8.48h2.17l2.5,4.54Z"/><path d="M38.37,134.68a4.29,4.29,0,0,1,2.13,3.72,4.22,4.22,0,0,1-.57,2.15,4.32,4.32,0,0,1-1.56,1.56,4.27,4.27,0,0,1-4.3,0,4.35,4.35,0,0,1-1.57-1.56,4.34,4.34,0,0,1,0-4.3,4.3,4.3,0,0,1,1.57-1.57,4.34,4.34,0,0,1,4.3,0Zm-1,5.63a2.3,2.3,0,0,0,.8-.81,2.09,2.09,0,0,0,.3-1.1,2.15,2.15,0,0,0-.3-1.11,2.3,2.3,0,0,0-.8-.81,2.2,2.2,0,0,0-2.22,0,2.25,2.25,0,0,0-.81.81,2.15,2.15,0,0,0-.3,1.11,2.09,2.09,0,0,0,.3,1.1,2.25,2.25,0,0,0,.81.81,2.2,2.2,0,0,0,2.22,0Z"/><path d="M47.13,135.94H43.39v1.49h3v1.83h-3v3.33H41.23v-8.48h5.9Z"/><path d="M53.75,135.94H50v1.49h3v1.83H50v3.33H47.85v-8.48h5.9Z"/><path d="M60.25,140.75v1.84H54.47v-8.48h5.67v1.83H56.65v1.49h2.93v1.83H56.65v1.49Z"/><path d="M68.13,142.59H66l-1.35-3.21H63.23v3.21h-2v-8.48h4a2.56,2.56,0,0,1,1.32.35,2.7,2.7,0,0,1,1,1,2.66,2.66,0,0,1,.35,1.32,2.63,2.63,0,0,1-.32,1.27,2.68,2.68,0,0,1-.88,1Zm-2.39-6.46a.83.83,0,0,0-.56-.29h-2v1.8h2a.83.83,0,0,0,.56-.29.91.91,0,0,0,.23-.62A.88.88,0,0,0,65.74,136.13Z"/><path d="M78.85,134.11v2.15H76.67v6.33H74.5v-6.33H72.33v-2.15h6.52Z"/><path d="M85.89,134.68A4.33,4.33,0,0,1,88,138.4a4.23,4.23,0,0,1-.58,2.15,4.32,4.32,0,0,1-1.56,1.56,4.27,4.27,0,0,1-4.3,0A4.35,4.35,0,0,1,80,140.55a4.34,4.34,0,0,1,0-4.3,4.3,4.3,0,0,1,1.57-1.57,4.34,4.34,0,0,1,4.3,0Zm-1,5.63a2.3,2.3,0,0,0,.8-.81,2.09,2.09,0,0,0,.3-1.1,2.15,2.15,0,0,0-.3-1.11,2.3,2.3,0,0,0-.8-.81,2.2,2.2,0,0,0-2.22,0,2.25,2.25,0,0,0-.81.81,2.15,2.15,0,0,0-.3,1.11,2.09,2.09,0,0,0,.3,1.1,2.25,2.25,0,0,0,.81.81,2.2,2.2,0,0,0,2.22,0Z"/><path d="M98.74,134.11v2.15H96.57v6.33H94.4v-6.33H92.22v-2.15h6.52Z"/><path d="M104.17,134.11h2.16v8.48h-2.16v-3.17h-2.43v3.17H99.58v-8.48h2.16v3.15h2.43Z"/><path d="M113.06,140.75v1.84h-5.77v-8.48H113v1.83h-3.49v1.49h2.94v1.83h-2.94v1.49Z"/><path d="M123,134.46a2.76,2.76,0,0,1,1,1,2.61,2.61,0,0,1,.35,1.32,2.64,2.64,0,0,1-.35,1.33,2.76,2.76,0,0,1-1,1,2.57,2.57,0,0,1-1.33.35h-2v3.21h-2v-8.48h4A2.57,2.57,0,0,1,123,134.46Zm-.83,1.67a.88.88,0,0,0-.57-.29h-2v1.8h2a.8.8,0,0,0,.57-.29,1,1,0,0,0,.23-.62A.88.88,0,0,0,122.16,136.13Z"/><path d="M131.94,142.59h-2.17l-1.34-3.21h-1.38v3.21h-2v-8.48h4a2.51,2.51,0,0,1,1.32.35,2.7,2.7,0,0,1,1,1,2.56,2.56,0,0,1,.35,1.32,2.52,2.52,0,0,1-.32,1.27,2.68,2.68,0,0,1-.88,1Zm-2.38-6.46a.86.86,0,0,0-.57-.29h-2v1.8h2a.86.86,0,0,0,.57-.29.91.91,0,0,0,.22-.62A.87.87,0,0,0,129.56,136.13Z"/><path d="M138.87,134.68a4.35,4.35,0,0,1,1.56,1.57,4.34,4.34,0,0,1,0,4.3,4.4,4.4,0,0,1-1.56,1.56,4.27,4.27,0,0,1-4.3,0,4.27,4.27,0,0,1-1.57-1.56,4.3,4.3,0,0,1,5.87-5.87Zm-1.05,5.63a2.25,2.25,0,0,0,.81-.81,2.09,2.09,0,0,0,.3-1.1,2.15,2.15,0,0,0-.3-1.11,2.25,2.25,0,0,0-.81-.81,2.09,2.09,0,0,0-1.1-.3,2.15,2.15,0,0,0-1.11.3,2.25,2.25,0,0,0-.81.81,2.15,2.15,0,0,0-.3,1.11,2.09,2.09,0,0,0,.3,1.1,2.25,2.25,0,0,0,.81.81,2.15,2.15,0,0,0,1.11.3A2.09,2.09,0,0,0,137.82,140.31Z"/><path d="M146.18,134.08h2v5.24a3.25,3.25,0,0,1-.45,1.68,3.32,3.32,0,0,1-1.22,1.22,3.36,3.36,0,0,1-3.36,0,3.32,3.32,0,0,1-1.22-1.22,3.25,3.25,0,0,1-.45-1.68V139h2a1.84,1.84,0,0,0,.38,1.14,1.17,1.17,0,0,0,1,.45,1.15,1.15,0,0,0,1-.5,2,2,0,0,0,.38-1.23Z"/><path d="M154.91,140.75v1.84h-5.77v-8.48h5.66v1.83h-3.49v1.49h2.94v1.83h-2.94v1.49Z"/><path d="M160.77,140.41a2.49,2.49,0,0,0,.72-.47L163,141.4a4.31,4.31,0,0,1-1.38.93,4.19,4.19,0,0,1-1.65.33,4.1,4.1,0,0,1-2.15-.58,4.22,4.22,0,0,1-1.56-1.55,4.29,4.29,0,0,1,1.56-5.87,4.1,4.1,0,0,1,2.15-.58,4.19,4.19,0,0,1,1.65.33,4.31,4.31,0,0,1,1.38.93l-1.46,1.46a2.71,2.71,0,0,0-.72-.47,2.08,2.08,0,0,0-.85-.17,2.15,2.15,0,0,0-1.11.3,2.3,2.3,0,0,0-.8.81,2.15,2.15,0,0,0-.3,1.11,2.12,2.12,0,0,0,.3,1.1,2.38,2.38,0,0,0,.8.81,2.24,2.24,0,0,0,1.11.29A2.08,2.08,0,0,0,160.77,140.41Z"/><path d="M170.07,134.11v2.15H167.9v6.33h-2.18v-6.33h-2.17v-2.15h6.52Z"/><path d="M176.67,134.11v8.48h-2.16v-8.48Z"/><path d="M181.5,136.79v-.15a.74.74,0,0,0-.29-.6,1.09,1.09,0,0,0-.71-.24,1.15,1.15,0,0,0-.74.24.74.74,0,0,0-.31.6.55.55,0,0,0,.31.51,2.63,2.63,0,0,0,.82.34l.19,0,.21,0a4.25,4.25,0,0,1,1.71.71l.11.1a2.46,2.46,0,0,1,.57.83,2.38,2.38,0,0,1,.21,1,2.46,2.46,0,0,1-.23,1,2.71,2.71,0,0,1-.68.87,3.14,3.14,0,0,1-1,.57,3.55,3.55,0,0,1-2.35,0,3.21,3.21,0,0,1-1-.57,2.71,2.71,0,0,1-.68-.87,2.32,2.32,0,0,1-.24-1V140h2.1v.16a.75.75,0,0,0,.29.59,1.08,1.08,0,0,0,.7.24,1.15,1.15,0,0,0,.74-.24.72.72,0,0,0,.31-.59.67.67,0,0,0-.33-.53.88.88,0,0,0-.33-.18l-.47-.15-.4-.09c-.44-.11-.78-.22-1-.3a2.17,2.17,0,0,1-.68-.41l0,0a2.81,2.81,0,0,1-.63-.84,2.23,2.23,0,0,1-.22-1,2.29,2.29,0,0,1,.24-1,2.74,2.74,0,0,1,.68-.88,3.21,3.21,0,0,1,1-.57,3.55,3.55,0,0,1,2.35,0,3.14,3.14,0,0,1,1,.57,2.74,2.74,0,0,1,.68.88,2.42,2.42,0,0,1,.23,1v.15Z"/><path d="M192.32,134.19l2.77,8.4H193l-.55-1.72h-2.63l-.54,1.72h-2.1l2.78-8.4Zm-1.94,4.93h1.52l-.76-2.38Z"/><path d="M197.49,140.55h3.33v2h-5.49v-8.48h2.16Z"/><path d="M208.49,134.11h1.87v8.48H208.2L206,139l-2.2,3.61h-2.16v-8.48h2.16v4.78l1.06-1.92.06-.09h2.16l.05.09,1,1.92v-4.78Z"/><path d="M215.74,134.19l2.77,8.4h-2.09l-.55-1.72h-2.63l-.54,1.72h-2.1l2.79-8.4Zm-1.93,4.93h1.51l-.76-2.38Z"/><path d="M223.26,134.11h2.16l-2.49,5v3.46h-2.16v-3.46l-2.5-5h2.16l1.42,2.89Z"/><path d="M229.78,136.79v-.15a.77.77,0,0,0-.29-.6,1.12,1.12,0,0,0-.72-.24,1.17,1.17,0,0,0-.74.24.75.75,0,0,0-.3.6.54.54,0,0,0,.31.51,2.53,2.53,0,0,0,.82.34l.18,0,.21,0a4.25,4.25,0,0,1,1.72.71l.11.1a2.61,2.61,0,0,1,.57.83,2.38,2.38,0,0,1,.21,1,2.32,2.32,0,0,1-.24,1,2.58,2.58,0,0,1-.68.87,3.1,3.1,0,0,1-1,.57,3.36,3.36,0,0,1-1.18.2,3.27,3.27,0,0,1-1.17-.2,3.1,3.1,0,0,1-1-.57,2.61,2.61,0,0,1-.69-.87,2.32,2.32,0,0,1-.24-1V140h2.1v.16a.73.73,0,0,0,.3.59,1.06,1.06,0,0,0,.7.24,1.17,1.17,0,0,0,.74-.24.73.73,0,0,0,.3-.59.66.66,0,0,0-.32-.53,1,1,0,0,0-.34-.18,4.42,4.42,0,0,0-.47-.15l-.39-.09c-.44-.11-.78-.22-1-.3a2.21,2.21,0,0,1-.69-.41l-.05,0a2.81,2.81,0,0,1-.63-.84,2.38,2.38,0,0,1-.22-1,2.29,2.29,0,0,1,.24-1,2.64,2.64,0,0,1,.69-.88,3.1,3.1,0,0,1,1-.57,3.51,3.51,0,0,1,1.17-.2,3.61,3.61,0,0,1,1.18.2,3.1,3.1,0,0,1,1,.57,2.61,2.61,0,0,1,.68.88,2.29,2.29,0,0,1,.24,1v.15Z"/><path d="M238.33,134.11v8.48h-2.16v-8.48Z"/><path d="M244,134.11h2.16v8.48H244L241.47,138v4.55h-2.18v-8.48h2.18l2.49,4.54Z"/><path d="M250.8,134.07a5.2,5.2,0,0,1,1.28.31,3.81,3.81,0,0,1,1.17.73,4.33,4.33,0,0,1,1,1.46,4.43,4.43,0,0,1,.37,1.75,4.13,4.13,0,0,1-.47,2,3.82,3.82,0,0,1-1.32,1.5,4.5,4.5,0,0,1-1.72.68,12.49,12.49,0,0,1-2.15.16h-1.92V134h2.17C249.86,134,250.37,134,250.8,134.07Zm1.79,4.25a2.1,2.1,0,0,0-.29-1.09,2.27,2.27,0,0,0-.78-.82,2.11,2.11,0,0,0-1.09-.33h-1.18v4.43a9.1,9.1,0,0,0,1.49-.1,2.5,2.5,0,0,0,1.11-.47,1.85,1.85,0,0,0,.68-1.12A2.34,2.34,0,0,0,252.59,138.32Z"/><path d="M257.54,134.11v8.48h-2.16v-8.48Z"/><path d="M264.08,134.08h2.35l-2.77,8.51H261l-2.76-8.51h2.37l1.72,5.3Z"/><path d="M269.31,134.11v8.48h-2.16v-8.48Z"/><path d="M274,134.07a5.31,5.31,0,0,1,1.28.31,3.81,3.81,0,0,1,1.17.73,4.43,4.43,0,0,1,1.4,3.21,4.13,4.13,0,0,1-.47,2,3.8,3.8,0,0,1-1.31,1.5,4.54,4.54,0,0,1-1.73.68,12.37,12.37,0,0,1-2.14.16h-1.92V134h2.17C273,134,273.56,134,274,134.07Zm1.79,4.25a2.2,2.2,0,0,0-.29-1.09,2.39,2.39,0,0,0-.79-.82,2.08,2.08,0,0,0-1.08-.33h-1.18v4.43a9,9,0,0,0,1.48-.1,2.53,2.53,0,0,0,1.12-.47,1.9,1.9,0,0,0,.68-1.12A3.22,3.22,0,0,0,275.78,138.32Z"/><path d="M285.46,134.12v5.24A3.25,3.25,0,0,1,285,141a3.4,3.4,0,0,1-1.22,1.22,3.32,3.32,0,0,1-1.69.45h-.19a3.25,3.25,0,0,1-1.68-.45A3.32,3.32,0,0,1,279,141a3.25,3.25,0,0,1-.45-1.68v-5.24h2v4.76a2,2,0,0,0,.36,1.24,1.15,1.15,0,0,0,1,.49h.19a1.18,1.18,0,0,0,1-.5,2,2,0,0,0,.38-1.23v-4.76Z"/><path d="M290.83,134.19l2.78,8.4h-2.09l-.55-1.72h-2.63l-.54,1.72h-2.1l2.78-8.4Zm-1.93,4.93h1.52l-.76-2.38Z"/><path d="M296,140.55h3.33v2h-5.49v-8.48H296Z"/><path d="M300.27,142.24a1.16,1.16,0,0,1-.33-.83,1.07,1.07,0,0,1,.33-.78,1.14,1.14,0,0,1,1.93.82,1.16,1.16,0,0,1-1.14,1.14A1,1,0,0,1,300.27,142.24Z"/><path d="M36.9,314.69h2.16v8.48H36.9V320H34.47v3.16H32.31v-8.48h2.16v3.16H36.9Z"/><path d="M45.79,321.34v1.83H40v-8.48h5.66v1.84H42.19V318h2.94v1.84H42.19v1.49Z"/><path d="M53.67,323.17H51.5L50.16,320H48.78v3.2h-2v-8.48h4A2.63,2.63,0,0,1,53.08,316a2.66,2.66,0,0,1,.35,1.32,2.52,2.52,0,0,1-.32,1.27,2.85,2.85,0,0,1-.88.95Zm-2.38-6.46a.86.86,0,0,0-.57-.28h-2v1.8h2a.88.88,0,0,0,.57-.29.92.92,0,0,0,.22-.62A.9.9,0,0,0,51.29,316.71Z"/><path d="M60.17,321.34v1.83H54.39v-8.48h5.67v1.84h-3.5V318H59.5v1.84H56.56v1.49Z"/><path d="M66.88,314.69v8.48H64.72v-8.48Z"/><path d="M71.72,317.38v-.16a.75.75,0,0,0-.29-.59,1.07,1.07,0,0,0-.72-.25,1.12,1.12,0,0,0-.74.25.73.73,0,0,0-.3.59.55.55,0,0,0,.31.52,2.54,2.54,0,0,0,.82.33l.18,0,.21.05a4.11,4.11,0,0,1,1.72.71L73,319a2.56,2.56,0,0,1,.57.83,2.38,2.38,0,0,1,.21,1,2.32,2.32,0,0,1-.24,1,2.58,2.58,0,0,1-.68.88,3.1,3.1,0,0,1-1,.57,3.61,3.61,0,0,1-1.18.2,3.51,3.51,0,0,1-1.17-.2,3.21,3.21,0,0,1-1-.57,2.75,2.75,0,0,1-.69-.88,2.31,2.31,0,0,1-.23-1v-.16h2.1v.16a.72.72,0,0,0,.29.59,1,1,0,0,0,.7.25,1.11,1.11,0,0,0,.74-.25.74.74,0,0,0,.31-.59.7.7,0,0,0-.33-.53,1.36,1.36,0,0,0-.34-.18,4.38,4.38,0,0,0-.46-.14l-.4-.1c-.44-.11-.78-.21-1-.3a2,2,0,0,1-.69-.41l0,0a2.38,2.38,0,0,1-.63-.83,2.27,2.27,0,0,1-.22-1,2.31,2.31,0,0,1,.23-1,2.75,2.75,0,0,1,.69-.88,3.66,3.66,0,0,1,1-.57,3.51,3.51,0,0,1,1.17-.2,3.61,3.61,0,0,1,1.18.2,3.51,3.51,0,0,1,1,.57,2.58,2.58,0,0,1,.68.88,2.32,2.32,0,0,1,.24,1v.16Z"/><path d="M84,316.53H80.28V318h3v1.84h-3v3.32H78.12v-8.48H84Z"/><path d="M90.51,321.34v1.83H84.74v-8.48H90.4v1.84H86.91V318h2.94v1.84H86.91v1.49Z"/><path d="M98.3,314.69h1.87v8.48H98l-2.18-3.61-2.2,3.61H91.47v-8.48h2.16v4.79l1.06-1.92.06-.1h2.16l0,.1L98,319.48v-4.79Z"/><path d="M106.89,321.13h3.34v2h-5.5v-8.48h2.16Z"/><path d="M113.23,314.69v8.48h-2.16v-8.48Z"/><path d="M118.86,314.69H121v8.48h-2.16l-2.5-4.54v4.54h-2.17v-8.48h2.17l2.5,4.55Z"/><path d="M126.09,318.89l2.53,4.28h-2.4l-2.08-3.42v3.42H122v-8.48h2.16V318l2.08-3.31h2.4Z"/><path d="M133.46,317.38v-.16a.75.75,0,0,0-.29-.59,1.07,1.07,0,0,0-.72-.25,1.12,1.12,0,0,0-.74.25.73.73,0,0,0-.3.59.55.55,0,0,0,.31.52,2.54,2.54,0,0,0,.82.33l.18,0,.21.05a4.11,4.11,0,0,1,1.72.71l.11.09a2.56,2.56,0,0,1,.57.83,2.38,2.38,0,0,1,.21,1,2.32,2.32,0,0,1-.24,1,2.58,2.58,0,0,1-.68.88,3.1,3.1,0,0,1-1,.57,3.61,3.61,0,0,1-1.18.2,3.51,3.51,0,0,1-1.17-.2,3.1,3.1,0,0,1-1-.57,2.75,2.75,0,0,1-.69-.88,2.32,2.32,0,0,1-.24-1v-.16h2.1v.16a.73.73,0,0,0,.3.59,1,1,0,0,0,.7.25,1.12,1.12,0,0,0,.74-.25.73.73,0,0,0,.3-.59.69.69,0,0,0-.32-.53,1.56,1.56,0,0,0-.34-.18,4.38,4.38,0,0,0-.46-.14l-.4-.1c-.44-.11-.78-.21-1-.3a2,2,0,0,1-.69-.41l0,0a2.38,2.38,0,0,1-.63-.83,2.28,2.28,0,0,1-.23-1,2.32,2.32,0,0,1,.24-1,2.75,2.75,0,0,1,.69-.88,3.37,3.37,0,0,1,2.17-.77,3.61,3.61,0,0,1,1.18.2,3.51,3.51,0,0,1,1,.57,2.58,2.58,0,0,1,.68.88,2.32,2.32,0,0,1,.24,1v.16Z"/><path d="M146.06,315.27a4.17,4.17,0,0,1,1.56,1.56,4.26,4.26,0,0,1,.58,2.16,4.3,4.3,0,0,1-2.14,3.7,4.27,4.27,0,0,1-4.3,0,4.27,4.27,0,0,1-1.57-1.56,4.18,4.18,0,0,1-.57-2.14,4.24,4.24,0,0,1,2.14-3.72,4.27,4.27,0,0,1,4.3,0Zm-1,5.62a2.27,2.27,0,0,0,.8-.8,2.19,2.19,0,0,0,0-2.21,2.3,2.3,0,0,0-.8-.81,2.2,2.2,0,0,0-2.22,0,2.25,2.25,0,0,0-.81.81,2.19,2.19,0,0,0,0,2.21,2.22,2.22,0,0,0,.81.8,2.2,2.2,0,0,0,2.22,0Z"/><path d="M153.58,314.69h2.16v8.48h-2.16l-2.49-4.54v4.54h-2.17v-8.48h2.17l2.49,4.55Z"/><path d="M165.67,315a2.64,2.64,0,0,1-1.32,4.93h-2v3.2h-2v-8.48h4A2.61,2.61,0,0,1,165.67,315Zm-.83,1.67a.82.82,0,0,0-.56-.28h-2v1.8h2a.79.79,0,0,0,.56-.29.91.91,0,0,0,.24-.62A.87.87,0,0,0,164.84,316.71Z"/><path d="M174.61,314.7V320a3.36,3.36,0,0,1-3.36,3.34h-.2a3.24,3.24,0,0,1-1.67-.45,3.31,3.31,0,0,1-1.67-2.89V314.7h2v4.76a2,2,0,0,0,.36,1.24,1.15,1.15,0,0,0,1,.49h.2a1.15,1.15,0,0,0,1-.49,2,2,0,0,0,.38-1.24V314.7Z"/><path d="M182,319.59a2.34,2.34,0,0,1,.28,1.13,2.41,2.41,0,0,1-.32,1.22,2.45,2.45,0,0,1-.89.89,2.37,2.37,0,0,1-1.23.34h-4.23v-8.48h3.85a2.31,2.31,0,0,1,1.23.33,2.47,2.47,0,0,1,.87.89,2.3,2.3,0,0,1,.32,1.2,2.48,2.48,0,0,1-.63,1.63A2.39,2.39,0,0,1,182,319.59Zm-2.24-2.91a.8.8,0,0,0-.61-.26h-1.56v1.8h1.56a1.84,1.84,0,0,0,.28-.05.94.94,0,0,0,.5-.45.93.93,0,0,0,.09-.42A.82.82,0,0,0,179.72,316.68Zm.36,4.48a.82.82,0,0,0,.25-.64.87.87,0,0,0-.72-.87c-.05,0-.62,0-1.7,0h-.36v1.8h1.92A.84.84,0,0,0,180.08,321.16Z"/><path d="M185.12,321.13h3.34v2H183v-8.48h2.16Z"/><path d="M191.46,314.69v8.48h-2.17v-8.48Z"/><path d="M197.31,321a2.52,2.52,0,0,0,.72-.48L199.5,322a4.73,4.73,0,0,1-1.38.93,4.47,4.47,0,0,1-1.66.33,4.23,4.23,0,0,1-2.15-.58,4.17,4.17,0,0,1-1.56-1.56,4.27,4.27,0,0,1,0-4.3,4.27,4.27,0,0,1,1.56-1.57,4.22,4.22,0,0,1,2.15-.57,4.28,4.28,0,0,1,1.66.33,4.36,4.36,0,0,1,1.38.93L198,317.39a2.3,2.3,0,0,0-.72-.47,2.09,2.09,0,0,0-.85-.18,2.15,2.15,0,0,0-1.11.3,2.3,2.3,0,0,0-.8.81,2.2,2.2,0,0,0,0,2.22,2.36,2.36,0,0,0,.8.8,2.15,2.15,0,0,0,1.11.3A2.26,2.26,0,0,0,197.31,321Z"/><path d="M204.63,314.77l2.77,8.4h-2.09l-.55-1.71h-2.63l-.54,1.71h-2.1l2.79-8.4Zm-1.93,4.94h1.51l-.75-2.38Z"/><path d="M214,314.69v2.16h-2.17v6.32h-2.18v-6.32h-2.17v-2.16H214Z"/><path d="M217,314.69v8.48h-2.16v-8.48Z"/><path d="M224.2,315.27a4.3,4.3,0,0,1,2.14,3.72,4.09,4.09,0,0,1-.58,2.14,4.17,4.17,0,0,1-1.56,1.56,4.1,4.1,0,0,1-2.15.58,4.16,4.16,0,0,1-2.15-.58,4.27,4.27,0,0,1-1.57-1.56,4.18,4.18,0,0,1-.57-2.14,4.24,4.24,0,0,1,2.14-3.72,4.16,4.16,0,0,1,2.15-.58A4.1,4.1,0,0,1,224.2,315.27Zm-1,5.62a2.27,2.27,0,0,0,.8-.8,2.19,2.19,0,0,0,0-2.21,2.3,2.3,0,0,0-.8-.81,2.2,2.2,0,0,0-2.22,0,2.25,2.25,0,0,0-.81.81,2.19,2.19,0,0,0,0,2.21,2.22,2.22,0,0,0,.81.8,2.2,2.2,0,0,0,2.22,0Z"/><path d="M231.73,314.69h2.16v8.48h-2.16l-2.5-4.54v4.54h-2.17v-8.48h2.17l2.5,4.55Z"/><path d="M238.72,317.38v-.16a.75.75,0,0,0-.29-.59,1.07,1.07,0,0,0-.72-.25,1.1,1.1,0,0,0-.73.25.72.72,0,0,0-.31.59.55.55,0,0,0,.31.52,2.54,2.54,0,0,0,.82.33l.18,0,.21.05a4.11,4.11,0,0,1,1.72.71l.11.09a2.56,2.56,0,0,1,.57.83,2.38,2.38,0,0,1,.21,1,2.32,2.32,0,0,1-.24,1,2.68,2.68,0,0,1-.67.88,3.25,3.25,0,0,1-1,.57,3.61,3.61,0,0,1-1.18.2,3.51,3.51,0,0,1-1.17-.2,3.21,3.21,0,0,1-1-.57,2.71,2.71,0,0,1-.68-.88,2.32,2.32,0,0,1-.24-1v-.16h2.1v.16a.72.72,0,0,0,.29.59,1,1,0,0,0,.7.25,1.11,1.11,0,0,0,.74-.25.74.74,0,0,0,.31-.59.7.7,0,0,0-.33-.53,1.48,1.48,0,0,0-.33-.18c-.13-.05-.29-.09-.47-.14l-.4-.1c-.44-.11-.78-.21-1-.3a1.91,1.91,0,0,1-.68-.41l0,0a2.65,2.65,0,0,1-.63-.83,2.27,2.27,0,0,1-.22-1,2.32,2.32,0,0,1,.24-1,2.71,2.71,0,0,1,.68-.88,3.66,3.66,0,0,1,1-.57,3.51,3.51,0,0,1,1.17-.2,3.61,3.61,0,0,1,1.18.2,3.71,3.71,0,0,1,1,.57,2.68,2.68,0,0,1,.67.88,2.32,2.32,0,0,1,.24,1v.16Z"/><path d="M252,314.69h1.87v8.48h-2.16l-2.19-3.61-2.19,3.61h-2.16v-8.48h2.16v4.79l1.05-1.92.06-.1h2.16l0,.1,1.06,1.92v-4.79Z"/><path d="M256.94,314.69v8.48h-2.16v-8.48Z"/><path d="M264.29,314.69v2.16h-2.17v6.32H260v-6.32h-2.17v-2.16h6.51Z"/><path d="M269.72,314.69h2.16v8.48h-2.16V320h-2.43v3.16h-2.16v-8.48h2.16v3.16h2.43Z"/><path d="M280.85,314.77l2.78,8.4h-2.09l-.55-1.71h-2.63l-.54,1.71h-2.1l2.78-8.4Zm-1.93,4.94h1.51l-.75-2.38Z"/><path d="M289.45,314.67h2.35l-2.77,8.5h-2.64l-2.76-8.5H286l1.72,5.3Z"/><path d="M298.29,321.34v1.83h-5.77v-8.48h5.66v1.84h-3.49V318h2.94v1.84h-2.94v1.49Z"/><path d="M306.17,323.17H304l-1.34-3.2h-1.38v3.2h-2v-8.48h4a2.61,2.61,0,0,1,1.32.35,2.65,2.65,0,0,1,1,1,2.56,2.56,0,0,1,.35,1.32,2.52,2.52,0,0,1-.32,1.27,2.85,2.85,0,0,1-.88.95Zm-2.38-6.46a.84.84,0,0,0-.57-.28h-2v1.8h2a.86.86,0,0,0,.57-.29.92.92,0,0,0,.22-.62A.9.9,0,0,0,303.79,316.71Z"/><path d="M311.31,314.77l2.77,8.4H312l-.55-1.71h-2.63l-.54,1.71h-2.1l2.79-8.4Zm-1.93,4.94h1.51l-.76-2.38Z"/><path d="M322.66,319a4.13,4.13,0,0,1-.58,2.15,4.3,4.3,0,0,1-3.71,2.14,4.1,4.1,0,0,1-2.15-.58,4.17,4.17,0,0,1-1.56-1.56,4.27,4.27,0,0,1,0-4.3,4.27,4.27,0,0,1,1.56-1.57,4.19,4.19,0,0,1,2.15-.57A4.29,4.29,0,0,1,320,315a4.35,4.35,0,0,1,1.37.94l-1.93,1.1a2.2,2.2,0,0,0-2.22,0,2.22,2.22,0,0,0-.8.81,2.2,2.2,0,0,0,0,2.22,2.27,2.27,0,0,0,.8.8,2.2,2.2,0,0,0,2.27,0,2.22,2.22,0,0,0,.81-.88h-2.66v-2h4.86A4.59,4.59,0,0,1,322.66,319Z"/><path d="M329.15,321.34v1.83h-5.77v-8.48H329v1.84h-3.49V318h2.94v1.84h-2.94v1.49Z"/><path d="M338.61,321a2.52,2.52,0,0,0,.72-.48l1.46,1.47a4.48,4.48,0,0,1-1.38.93,4.38,4.38,0,0,1-1.65.33,4.3,4.3,0,0,1-4.29-4.29,4.33,4.33,0,0,1,2.14-3.72,4.28,4.28,0,0,1,5.18.69l-1.46,1.46a2.3,2.3,0,0,0-.72-.47,2.09,2.09,0,0,0-.85-.18,2.15,2.15,0,0,0-1.11.3,2.3,2.3,0,0,0-.8.81,2.2,2.2,0,0,0,0,2.22,2.36,2.36,0,0,0,.8.8,2.15,2.15,0,0,0,1.11.3A2.26,2.26,0,0,0,338.61,321Z"/><path d="M347.72,315.27a4.32,4.32,0,0,1,1.56,1.56,4.25,4.25,0,0,1,.57,2.16,4.18,4.18,0,0,1-.57,2.14,4.32,4.32,0,0,1-1.56,1.56,4.31,4.31,0,0,1-5.87-1.56,4.09,4.09,0,0,1-.58-2.14,4.29,4.29,0,0,1,6.45-3.72Zm-1.05,5.62a2.22,2.22,0,0,0,.81-.8,2.19,2.19,0,0,0,0-2.21,2.25,2.25,0,0,0-.81-.81,2.09,2.09,0,0,0-1.1-.3,2.15,2.15,0,0,0-1.11.3,2.25,2.25,0,0,0-.81.81,2.19,2.19,0,0,0,0,2.21,2.22,2.22,0,0,0,.81.8,2.15,2.15,0,0,0,1.11.3A2.09,2.09,0,0,0,346.67,320.89Z"/><path d="M354.45,317.38v-.16a.75.75,0,0,0-.29-.59,1.07,1.07,0,0,0-.72-.25,1.12,1.12,0,0,0-.74.25.73.73,0,0,0-.3.59.55.55,0,0,0,.31.52,2.54,2.54,0,0,0,.82.33l.18,0,.21.05a4.11,4.11,0,0,1,1.72.71l.11.09a2.72,2.72,0,0,1,.57.83,2.38,2.38,0,0,1,.21,1,2.32,2.32,0,0,1-.24,1,2.71,2.71,0,0,1-.68.88,3.1,3.1,0,0,1-1,.57,3.61,3.61,0,0,1-1.18.2,3.51,3.51,0,0,1-1.17-.2,3.1,3.1,0,0,1-1-.57,2.75,2.75,0,0,1-.69-.88,2.32,2.32,0,0,1-.24-1v-.16h2.1v.16a.73.73,0,0,0,.3.59,1,1,0,0,0,.7.25,1.12,1.12,0,0,0,.74-.25.73.73,0,0,0,.3-.59.69.69,0,0,0-.32-.53,1.56,1.56,0,0,0-.34-.18,4.65,4.65,0,0,0-.47-.14l-.39-.1c-.44-.11-.78-.21-1-.3a2,2,0,0,1-.69-.41l-.05,0a2.65,2.65,0,0,1-.63-.83,2.42,2.42,0,0,1-.22-1,2.32,2.32,0,0,1,.24-1,2.75,2.75,0,0,1,.69-.88,3.37,3.37,0,0,1,2.17-.77,3.61,3.61,0,0,1,1.18.2,3.51,3.51,0,0,1,1,.57,2.71,2.71,0,0,1,.68.88,2.32,2.32,0,0,1,.24,1v.16Z"/><path d="M363.64,314.69v2.16h-2.17v6.32H359.3v-6.32h-2.17v-2.16h6.51Z"/><path d="M38.52,335.27a4.32,4.32,0,0,1,1.56,1.56,4.25,4.25,0,0,1,.57,2.16,4.18,4.18,0,0,1-.57,2.14,4.32,4.32,0,0,1-1.56,1.56,4.29,4.29,0,0,1-5.87-1.56,4.09,4.09,0,0,1-.58-2.14,4.29,4.29,0,0,1,6.45-3.72Zm-1.05,5.62a2.22,2.22,0,0,0,.81-.8,2.19,2.19,0,0,0,0-2.21,2.25,2.25,0,0,0-.81-.81,2.09,2.09,0,0,0-1.1-.3,2.15,2.15,0,0,0-1.11.3,2.25,2.25,0,0,0-.81.81,2.19,2.19,0,0,0,0,2.21,2.22,2.22,0,0,0,.81.8,2.15,2.15,0,0,0,1.11.3A2.09,2.09,0,0,0,37.47,340.89Z"/><path d="M47.28,336.53H43.53V338h3v1.84h-3v3.32H41.37v-8.48h5.91Z"/><path d="M57.79,341.25v1.92H51.6v-1.72l1.26-1,1.76-1.34.65-.49.06-.05a1.13,1.13,0,0,0,.39-.87,1,1,0,0,0-.25-.72,1.09,1.09,0,0,0-.36-.28,1,1,0,0,0-.43-.09,1,1,0,0,0-.64.22,1,1,0,0,0-.32.46H51.6a3,3,0,0,1,.54-1.36,3.12,3.12,0,0,1,1.11-1,3,3,0,0,1,1.44-.36,3.12,3.12,0,0,1,1.14.21,3.06,3.06,0,0,1,1,.6l.09.07a4.09,4.09,0,0,1,.5.62,2.94,2.94,0,0,1,.34,1.41,3.35,3.35,0,0,1-.26,1.27,3.15,3.15,0,0,1-.78,1.13,4.62,4.62,0,0,1-.37.31l-1,.76-.3.22Z"/><path d="M63.53,335.25a4.09,4.09,0,0,1,1.27,1.56,5.28,5.28,0,0,1,0,4.31,3.94,3.94,0,0,1-1.27,1.56,2.95,2.95,0,0,1-3.51,0,4.05,4.05,0,0,1-1.28-1.56,5.18,5.18,0,0,1,0-4.31A4.21,4.21,0,0,1,60,335.25a3,3,0,0,1,3.51,0Zm-1,5.47A1.7,1.7,0,0,0,63,340a2.61,2.61,0,0,0,.19-1,2.56,2.56,0,0,0-.19-1,1.88,1.88,0,0,0-.53-.74,1.13,1.13,0,0,0-.73-.28,1.15,1.15,0,0,0-.73.28,1.88,1.88,0,0,0-.53.74,2.56,2.56,0,0,0-.2,1,2.61,2.61,0,0,0,.2,1,1.88,1.88,0,0,0,.53.74,1.14,1.14,0,0,0,.73.27A1.12,1.12,0,0,0,62.5,340.72Z"/><path d="M71,335.25a4,4,0,0,1,1.27,1.56,5.18,5.18,0,0,1,0,4.31A3.86,3.86,0,0,1,71,342.68a2.93,2.93,0,0,1-3.5,0,3.88,3.88,0,0,1-1.28-1.56,5.18,5.18,0,0,1,0-4.31,4,4,0,0,1,1.28-1.56,3,3,0,0,1,3.5,0Zm-1,5.47a1.88,1.88,0,0,0,.53-.74,2.61,2.61,0,0,0,.19-1,2.56,2.56,0,0,0-.2-1,1.88,1.88,0,0,0-.53-.74,1.08,1.08,0,0,0-1.45,0A1.8,1.8,0,0,0,68,338a2.56,2.56,0,0,0-.2,1,2.61,2.61,0,0,0,.2,1,1.8,1.8,0,0,0,.54.74,1.12,1.12,0,0,0,.73.27A1.14,1.14,0,0,0,70,340.72Z"/><path d="M78.48,335.25a4.09,4.09,0,0,1,1.27,1.56,5.18,5.18,0,0,1,0,4.31,3.94,3.94,0,0,1-1.27,1.56,2.95,2.95,0,0,1-3.51,0,4.05,4.05,0,0,1-1.28-1.56,5.18,5.18,0,0,1,0-4.31A4.21,4.21,0,0,1,75,335.25a3,3,0,0,1,3.51,0Zm-1,5.47A1.77,1.77,0,0,0,78,340a2.61,2.61,0,0,0,.2-1,2.56,2.56,0,0,0-.2-1,1.88,1.88,0,0,0-.53-.74,1.13,1.13,0,0,0-.73-.28,1.17,1.17,0,0,0-.73.28,1.88,1.88,0,0,0-.53.74,2.56,2.56,0,0,0-.2,1,2.61,2.61,0,0,0,.2,1,1.88,1.88,0,0,0,.53.74,1.14,1.14,0,0,0,1.47,0Z"/><path d="M82.46,340.76a.85.85,0,0,0,.16.5,1.09,1.09,0,0,0,.4.37v-2c-.36-.09-.65-.18-.89-.26a2,2,0,0,1-.63-.38l0,0a2.56,2.56,0,0,1-.59-.8,2.23,2.23,0,0,1-.21-.95,2.16,2.16,0,0,1,.31-1.13,2.64,2.64,0,0,1,.84-.89A3.2,3.2,0,0,1,83,334.7v-.65H84.2v.65a3.08,3.08,0,0,1,1.22.47,2.8,2.8,0,0,1,.86.89,2.27,2.27,0,0,1,.31,1.14H84.8a.89.89,0,0,0-.16-.52,1.14,1.14,0,0,0-.44-.37v2c.34.09.63.17.87.26a1.91,1.91,0,0,1,.63.34l0,0v0a2.65,2.65,0,0,1,.62.8,2.3,2.3,0,0,1,.22,1,2.27,2.27,0,0,1-.31,1.14,2.8,2.8,0,0,1-.86.89,3.08,3.08,0,0,1-1.22.47v.63H83v-.63a3.2,3.2,0,0,1-1.21-.48,2.64,2.64,0,0,1-.84-.89,2.16,2.16,0,0,1-.31-1.13Zm.35-2.9L83,338v-1.65a1.31,1.31,0,0,0-.43.38.81.81,0,0,0-.17.49A.72.72,0,0,0,82.81,337.86Zm1.85,3.41a.79.79,0,0,0,.18-.51.7.7,0,0,0-.39-.65.68.68,0,0,0-.25-.14v1.68A1.24,1.24,0,0,0,84.66,341.27Z"/><path d="M96.34,335a2.76,2.76,0,0,1,1,1,2.7,2.7,0,0,1,0,2.66,2.76,2.76,0,0,1-1,1A2.67,2.67,0,0,1,95,340H93v3.2H91v-8.48h4A2.67,2.67,0,0,1,96.34,335Zm-.83,1.67a.86.86,0,0,0-.57-.28H93v1.8h2a.83.83,0,0,0,.57-.29.9.9,0,0,0,.23-.62A.86.86,0,0,0,95.51,336.71Z"/><path d="M104.14,341.34v1.83H98.37v-8.48H104v1.84h-3.5V338h2.94v1.84h-2.94v1.49Z"/><path d="M112,343.17h-2.17l-1.35-3.2h-1.38v3.2h-2v-8.48h4.05a2.66,2.66,0,0,1,1.32.35,2.63,2.63,0,0,1,1,3.56,2.73,2.73,0,0,1-.87.95Zm-2.39-6.46a.82.82,0,0,0-.56-.28h-2v1.8h2a.83.83,0,0,0,.56-.29.93.93,0,0,0,.23-.62A.91.91,0,0,0,109.64,336.71Z"/><path d="M121.72,335a2.76,2.76,0,0,1,1,1,2.7,2.7,0,0,1,0,2.66,2.76,2.76,0,0,1-1,1,2.67,2.67,0,0,1-1.33.35h-2v3.2h-2v-8.48h4A2.67,2.67,0,0,1,121.72,335Zm-.83,1.67a.86.86,0,0,0-.57-.28h-2v1.8h2a.83.83,0,0,0,.57-.29.9.9,0,0,0,.23-.62A.86.86,0,0,0,120.89,336.71Z"/><path d="M130.65,334.7V340a3.31,3.31,0,0,1-.45,1.68,3.37,3.37,0,0,1-1.22,1.21,3.32,3.32,0,0,1-1.69.45h-.19a3.25,3.25,0,0,1-1.68-.45,3.37,3.37,0,0,1-1.22-1.21,3.31,3.31,0,0,1-.45-1.68V334.7h2v4.76a2,2,0,0,0,.36,1.24,1.14,1.14,0,0,0,1,.49h.19a1.17,1.17,0,0,0,1-.49,2,2,0,0,0,.38-1.24V334.7Z"/><path d="M138,339.59a2.44,2.44,0,0,1,.27,1.13,2.32,2.32,0,0,1-.32,1.22,2.42,2.42,0,0,1-.88.89,2.37,2.37,0,0,1-1.23.34h-4.24v-8.48h3.85a2.37,2.37,0,0,1,1.24.33,2.47,2.47,0,0,1,.87.89,2.39,2.39,0,0,1,.15,2.08,2.22,2.22,0,0,1-.47.75A2.52,2.52,0,0,1,138,339.59Zm-2.24-2.91a.82.82,0,0,0-.62-.26h-1.56v1.8h1.56l.29-.05a1,1,0,0,0,.22-.12.86.86,0,0,0,.27-.33.82.82,0,0,0,.1-.42A.85.85,0,0,0,135.77,336.68Zm.36,4.48a.89.89,0,0,0,.25-.64.86.86,0,0,0-.21-.57.87.87,0,0,0-.51-.3s-.62,0-1.71,0h-.36v1.8h1.92A.86.86,0,0,0,136.13,341.16Z"/><path d="M141.16,341.13h3.34v2H139v-8.48h2.16Z"/><path d="M147.5,334.69v8.48h-2.16v-8.48Z"/><path d="M153.36,341a2.52,2.52,0,0,0,.72-.48l1.46,1.47a4.48,4.48,0,0,1-1.38.93,4.39,4.39,0,0,1-1.66.33,4.3,4.3,0,0,1-3.7-2.14,4.27,4.27,0,0,1,0-4.3,4.27,4.27,0,0,1,1.56-1.57,4.28,4.28,0,0,1,5.18.69l-1.46,1.46a2.3,2.3,0,0,0-.72-.47,2.14,2.14,0,0,0-.86-.18,2.12,2.12,0,0,0-1.1.3,2.22,2.22,0,0,0-.8.81,2.2,2.2,0,0,0,0,2.22,2.27,2.27,0,0,0,.8.8,2.12,2.12,0,0,0,1.1.3A2.31,2.31,0,0,0,153.36,341Z"/><path d="M160.68,334.77l2.77,8.4h-2.09l-.55-1.71h-2.63l-.54,1.71h-2.1l2.78-8.4Zm-1.94,4.94h1.52l-.76-2.38Z"/><path d="M170.08,334.69v2.16h-2.17v6.32h-2.17v-6.32h-2.17v-2.16h6.51Z"/><path d="M173.08,334.69v8.48h-2.16v-8.48Z"/><path d="M180.25,335.27a4.32,4.32,0,0,1,1.56,1.56,4.25,4.25,0,0,1,.57,2.16,4.18,4.18,0,0,1-.57,2.14,4.32,4.32,0,0,1-1.56,1.56,4.27,4.27,0,0,1-4.3,0,4.28,4.28,0,0,1-2.15-3.7,4.26,4.26,0,0,1,.58-2.16,4.2,4.2,0,0,1,1.57-1.56,4.27,4.27,0,0,1,4.3,0Zm-1.05,5.62a2.22,2.22,0,0,0,.81-.8,2.19,2.19,0,0,0,0-2.21,2.25,2.25,0,0,0-.81-.81,2.09,2.09,0,0,0-1.1-.3,2.15,2.15,0,0,0-1.11.3,2.25,2.25,0,0,0-.81.81,2.19,2.19,0,0,0,0,2.21,2.22,2.22,0,0,0,.81.8,2.15,2.15,0,0,0,1.11.3A2.09,2.09,0,0,0,179.2,340.89Z"/><path d="M187.77,334.69h2.16v8.48h-2.16l-2.49-4.54v4.54H183.1v-8.48h2.18l2.49,4.55Z"/><path d="M191,342.83a1.22,1.22,0,0,1-.32-.83,1,1,0,0,1,.33-.78,1.07,1.07,0,0,1,.79-.33,1.16,1.16,0,0,1,1.14,1.14,1.13,1.13,0,0,1-.34.81,1.09,1.09,0,0,1-.8.33A1.07,1.07,0,0,1,191,342.83Z"/></svg>