<svg id="Слой_1" data-name="Слой 1" xmlns="http://www.w3.org/2000/svg" viewBox="0 0 405 405"><defs><style>.cls-1{fill:#197abd;}.cls-2{fill:#fff;}.cls-3{fill:#e7335d;}.cls-4{fill:#fed841;}</style></defs><rect width="405" height="405"/><path class="cls-1" d="M199.49,56.84l50.24,3.49a1.74,1.74,0,0,1,1.62,1.75L251,100.76a1.73,1.73,0,0,1-1.66,1.71l-63.57,2.84A1.75,1.75,0,0,1,184,103.6l-.07-5.36a1.72,1.72,0,0,1,1.69-1.75l10-.25a1.74,1.74,0,0,0,1.69-1.72l.07-10.17a1.73,1.73,0,0,1,1.73-1.72l8.72,0a1.74,1.74,0,0,0,1.73-1.71l.11-9.48a1.73,1.73,0,0,0-1.7-1.76l-8.76-.13a1.74,1.74,0,0,1-1.7-1.76l.13-9.21A1.74,1.74,0,0,1,199.49,56.84Z"/><rect class="cls-1" x="153.65" y="64.73" width="18.55" height="18.55" rx="3.1"/><rect class="cls-1" x="180.5" y="69.4" width="13.52" height="13.52" rx="3.1"/><rect class="cls-1" x="169.31" y="87.76" width="9.88" height="9.88" rx="3.1"/><rect class="cls-1" x="196.63" y="39.19" width="12.68" height="12.68" rx="3.1"/><rect class="cls-2" x="169.97" y="39.09" width="20.61" height="20.61" rx="3.58"/><rect class="cls-2" x="204.19" y="108.68" width="25.83" height="6.03" rx="1.39" transform="translate(-3.77 7.64) rotate(-2)"/><path class="cls-2" d="M118.19,162.84H111.5V137.46h-9.14v-5.85h24.92v5.85h-9.09Z"/><path class="cls-2" d="M142,163.41a12,12,0,0,1-8.67-3.28,11.4,11.4,0,0,1-3.42-8.62,11.64,11.64,0,0,1,3.31-8.43,11.17,11.17,0,0,1,8.4-3.42,10.58,10.58,0,0,1,8.2,3.45,12.85,12.85,0,0,1,3.13,9v1.31H136.17a5.75,5.75,0,0,0,2,3.75,6.6,6.6,0,0,0,4.49,1.5,10.22,10.22,0,0,0,3.26-.61,7.22,7.22,0,0,0,2.78-1.64l2.62,3.84Q147.94,163.41,142,163.41Zm5.19-14a5.72,5.72,0,0,0-1.52-3.47,5.15,5.15,0,0,0-4-1.55,5.06,5.06,0,0,0-3.93,1.53,6,6,0,0,0-1.64,3.49Z"/><path class="cls-2" d="M163.24,162.84h-6V131.61h6Z"/><path class="cls-2" d="M179.77,163.41a12,12,0,0,1-8.67-3.28,11.4,11.4,0,0,1-3.41-8.62,11.67,11.67,0,0,1,3.3-8.43,11.17,11.17,0,0,1,8.4-3.42,10.57,10.57,0,0,1,8.2,3.45,12.85,12.85,0,0,1,3.13,9v1.31H173.91a5.75,5.75,0,0,0,2,3.75,6.6,6.6,0,0,0,4.49,1.5,10.17,10.17,0,0,0,3.26-.61,7.15,7.15,0,0,0,2.78-1.64l2.63,3.84Q185.67,163.41,179.77,163.41Zm5.19-14a5.72,5.72,0,0,0-1.52-3.47,5.15,5.15,0,0,0-4.05-1.55,5.08,5.08,0,0,0-3.93,1.53,6.07,6.07,0,0,0-1.64,3.49Z"/><path class="cls-2" d="M203.18,163.41a17.12,17.12,0,0,1-5.64-.94,12.35,12.35,0,0,1-4.47-2.58l2.57-4.16a11.82,11.82,0,0,0,3.56,2.15,11,11,0,0,0,4.26.94,5,5,0,0,0,2.83-.66,2.05,2.05,0,0,0,1-1.78,1.58,1.58,0,0,0-1-1.38,7.71,7.71,0,0,0-2.48-.77c-1-.16-2.07-.39-3.24-.7a22.61,22.61,0,0,1-3.23-1.13,5.9,5.9,0,0,1-3.49-5.62,6.32,6.32,0,0,1,2.49-5.05,10.26,10.26,0,0,1,6.79-2.07,14.25,14.25,0,0,1,9.13,3.1l-2.39,4.07A8.4,8.4,0,0,0,207,145a9.86,9.86,0,0,0-3.82-.75,4.68,4.68,0,0,0-2.57.63,1.87,1.87,0,0,0-1,1.61c0,.5.33.92,1,1.25a8.51,8.51,0,0,0,2.48.72,28,28,0,0,1,3.23.73,23.53,23.53,0,0,1,3.23,1.17A5.76,5.76,0,0,1,212,152.5a6.46,6.46,0,0,1,1,3.65,6.36,6.36,0,0,1-2.6,5.22A11.37,11.37,0,0,1,203.18,163.41Z"/><path class="cls-2" d="M227.9,163.41a11.75,11.75,0,0,1-8.61-3.33,12.52,12.52,0,0,1,0-17.09,11.75,11.75,0,0,1,8.61-3.33q6,0,8.95,4.08L233,147.39a5.39,5.39,0,0,0-4.77-2.43,5.83,5.83,0,0,0-4.43,1.8,6.62,6.62,0,0,0-1.71,4.75,6.71,6.71,0,0,0,1.71,4.78,5.77,5.77,0,0,0,4.43,1.82,5.54,5.54,0,0,0,4.77-2.43l3.89,3.61Q233.9,163.4,227.9,163.41Z"/><path class="cls-2" d="M246.68,162.84h-6V140.23h6v3.09a9.86,9.86,0,0,1,3.23-2.62,8.48,8.48,0,0,1,4-1v5.81a7.8,7.8,0,0,0-4.82.61,5.36,5.36,0,0,0-2.39,1.83Z"/><path class="cls-2" d="M263.3,162.24a3.68,3.68,0,0,1-2.67,1.12,3.84,3.84,0,1,1,2.67-1.12Z"/><path class="cls-1" d="M272.53,137.79a3.59,3.59,0,0,1-3.56-3.56,3.36,3.36,0,0,1,1-2.48,3.6,3.6,0,0,1,5,0,3.42,3.42,0,0,1,1,2.48,3.49,3.49,0,0,1-1,2.51A3.41,3.41,0,0,1,272.53,137.79Zm3,25.05h-5.94V140.23h5.94Z"/><path class="cls-1" d="M302.64,162.84h-5.95V149.17q0-4.21-4.17-4.21a6,6,0,0,0-5.15,2.67v15.21h-5.95V140.23h5.95v3a9.83,9.83,0,0,1,7.91-3.52,6.58,6.58,0,0,1,7.36,7.22Z"/><path class="cls-3" d="M53.26,382.29H51.09l-1.35-3.21H48.36v3.21h-2V373.8h4a2.69,2.69,0,0,1,2.29,1.32,2.66,2.66,0,0,1,.35,1.32,2.63,2.63,0,0,1-.32,1.27,2.68,2.68,0,0,1-.88,1Zm-2.39-6.46a.79.79,0,0,0-.56-.29h-2v1.8h2a.83.83,0,0,0,.56-.29.91.91,0,0,0,.23-.62A.88.88,0,0,0,50.87,375.83Z"/><path class="cls-3" d="M59.75,380.45v1.84H54V373.8h5.66v1.84H56.15v1.49h2.94V379H56.15v1.49Z"/><path class="cls-3" d="M67.11,378.71a2.49,2.49,0,0,1,0,2.35,2.58,2.58,0,0,1-.88.89,2.47,2.47,0,0,1-1.23.34H60.71v-8.5h3.85a2.29,2.29,0,0,1,1.24.34,2.44,2.44,0,0,1,.87.88,2.4,2.4,0,0,1,.32,1.2,2.47,2.47,0,0,1-.17.89.85.85,0,0,0,.29,1.61Zm-2.24-2.92a.85.85,0,0,0-.62-.26H62.69v1.8h1.56l.29-.05a.54.54,0,0,0,.22-.12.76.76,0,0,0,.27-.32.91.91,0,0,0-.16-1Zm.36,4.48a.89.89,0,0,0,.25-.64.89.89,0,0,0-.72-.87H62.69v1.8h1.92A.87.87,0,0,0,65.23,380.27Z"/><path class="cls-3" d="M75,373.81v5.25a3.25,3.25,0,0,1-.45,1.68,3.35,3.35,0,0,1-2.91,1.67h-.19a3.25,3.25,0,0,1-1.68-.45,3.4,3.4,0,0,1-1.22-1.22,3.25,3.25,0,0,1-.45-1.68v-5.25h2v4.77a2,2,0,0,0,.36,1.23,1.16,1.16,0,0,0,1,.5h.19a1.18,1.18,0,0,0,1-.5,2,2,0,0,0,.38-1.23v-4.77Z"/><path class="cls-3" d="M78.12,373.8v8.49H76V373.8Z"/><path class="cls-3" d="M81.24,380.25h3.34v2h-5.5V373.8h2.16Z"/><path class="cls-3" d="M89.14,373.77a5.31,5.31,0,0,1,1.28.31,3.63,3.63,0,0,1,1.17.73,4.33,4.33,0,0,1,1,1.46A4.41,4.41,0,0,1,93,378a4,4,0,0,1-.47,2,3.8,3.8,0,0,1-1.31,1.5,4.71,4.71,0,0,1-1.73.68,12.37,12.37,0,0,1-2.14.16H85.42v-8.58h2.17C88.19,373.71,88.71,373.73,89.14,373.77ZM90.93,378a2.19,2.19,0,0,0-.29-1.08,2.22,2.22,0,0,0-.79-.82,2.08,2.08,0,0,0-1.08-.33H87.59v4.43a9,9,0,0,0,1.48-.1,2.5,2.5,0,0,0,1.12-.48,1.88,1.88,0,0,0,.68-1.11A2.43,2.43,0,0,0,90.93,378Z"/><path class="cls-3" d="M95.87,373.8v8.49H93.71V373.8Z"/><path class="cls-3" d="M101.5,373.8h2.16v8.49H101.5L99,377.74v4.55H96.83V373.8H99l2.5,4.55Z"/><path class="cls-3" d="M113,378.09a4.16,4.16,0,0,1-.58,2.15,4.22,4.22,0,0,1-1.56,1.55,4.17,4.17,0,0,1-2.16.58,4.09,4.09,0,0,1-2.14-.58,4.22,4.22,0,0,1-1.56-1.55,4.29,4.29,0,0,1,1.56-5.87,4.09,4.09,0,0,1,2.14-.58,4.28,4.28,0,0,1,3,1.27l-1.93,1.11a2.16,2.16,0,0,0-1.12-.3,2.12,2.12,0,0,0-1.1.3,2.22,2.22,0,0,0-.8.81,2.15,2.15,0,0,0-.3,1.11,2.12,2.12,0,0,0,.3,1.1,2.3,2.3,0,0,0,.8.81,2.11,2.11,0,0,0,1.1.29,2.21,2.21,0,0,0,2-1.21H108v-2h4.86A4.61,4.61,0,0,1,113,378.09Z"/><path class="cls-3" d="M123.48,374.38A4.2,4.2,0,0,1,125,376a4.27,4.27,0,0,1,0,4.3,4.32,4.32,0,0,1-1.56,1.56,4.18,4.18,0,0,1-2.14.57,4.25,4.25,0,0,1-2.16-.57,4.32,4.32,0,0,1-1.56-1.56,4.27,4.27,0,0,1,0-4.3,4.2,4.2,0,0,1,1.56-1.57,4.26,4.26,0,0,1,2.16-.58A4.19,4.19,0,0,1,123.48,374.38Zm-1,5.63a2.22,2.22,0,0,0,.8-.81,2.09,2.09,0,0,0,.3-1.1,2.15,2.15,0,0,0-.3-1.11,2.22,2.22,0,0,0-.8-.81,2.12,2.12,0,0,0-1.1-.3,2.15,2.15,0,0,0-1.11.3,2.25,2.25,0,0,0-.81.81,2.15,2.15,0,0,0-.3,1.11,2.09,2.09,0,0,0,.3,1.1,2.25,2.25,0,0,0,.81.81,2.15,2.15,0,0,0,1.11.3A2.12,2.12,0,0,0,122.44,380Z"/><path class="cls-3" d="M132.24,375.64H128.5v1.49h3V379h-3v3.33h-2.16V373.8h5.9Z"/><path class="cls-3" d="M143.39,373.8h1.87v8.49H143.1l-2.18-3.62-2.2,3.62h-2.16V373.8h2.16v4.79l1.06-1.92.06-.09H142l.05.09,1,1.92V373.8Z"/><path class="cls-3" d="M152,380.45v1.84h-5.78V373.8h5.67v1.84H148.4v1.49h2.94V379H148.4v1.49Z"/><path class="cls-3" d="M159.35,378.71a2.28,2.28,0,0,1,.28,1.13,2.38,2.38,0,0,1-.33,1.22,2.5,2.5,0,0,1-.88.89,2.47,2.47,0,0,1-1.23.34H153v-8.5h3.85a2.26,2.26,0,0,1,1.23.34,2.44,2.44,0,0,1,.87.88,2.3,2.3,0,0,1,.32,1.2,2.27,2.27,0,0,1-.17.89,2.41,2.41,0,0,1-.46.75A2.31,2.31,0,0,1,159.35,378.71Zm-2.24-2.92a.83.83,0,0,0-.61-.26h-1.56v1.8h1.56a1.84,1.84,0,0,0,.28-.05.54.54,0,0,0,.22-.12.87.87,0,0,0,.28-.32,1,1,0,0,0,.09-.42A.82.82,0,0,0,157.11,375.79Zm.36,4.48a.82.82,0,0,0,.25-.64.92.92,0,0,0-.2-.57.89.89,0,0,0-.52-.3h-2.06v1.8h1.92A.85.85,0,0,0,157.47,380.27Z"/><path class="cls-3" d="M164.22,376.49v-.16a.74.74,0,0,0-.29-.59,1.09,1.09,0,0,0-.71-.24,1.15,1.15,0,0,0-.74.24.73.73,0,0,0-.31.59.56.56,0,0,0,.31.52,2.63,2.63,0,0,0,.82.34l.19,0,.21,0a4.12,4.12,0,0,1,1.71.71l.11.1a2.52,2.52,0,0,1,.57.82,2.38,2.38,0,0,1,.21,1,2.42,2.42,0,0,1-.23,1,2.86,2.86,0,0,1-.68.88,3.14,3.14,0,0,1-1,.57,3.55,3.55,0,0,1-2.35,0,3.21,3.21,0,0,1-1-.57,2.86,2.86,0,0,1-.68-.88,2.29,2.29,0,0,1-.24-1v-.15h2.1v.15a.79.79,0,0,0,.29.6,1.08,1.08,0,0,0,.7.24,1.15,1.15,0,0,0,.74-.24.75.75,0,0,0,.31-.6.7.7,0,0,0-.33-.53,1,1,0,0,0-.33-.17l-.47-.15-.4-.09-1-.3a2.17,2.17,0,0,1-.68-.41l0,0a2.81,2.81,0,0,1-.63-.84,2.24,2.24,0,0,1-.22-1,2.32,2.32,0,0,1,.24-1,2.71,2.71,0,0,1,.68-.87,3.21,3.21,0,0,1,1-.57,3.55,3.55,0,0,1,2.35,0,3.14,3.14,0,0,1,1,.57,2.71,2.71,0,0,1,.68.87,2.46,2.46,0,0,1,.23,1v.16Z"/><path class="cls-3" d="M169.18,373.8v8.49H167V373.8Z"/><path class="cls-3" d="M176.54,373.8V376h-2.18v6.33h-2.17V376H170V373.8h6.52Z"/><path class="cls-3" d="M183.15,380.45v1.84h-5.77V373.8H183v1.84h-3.49v1.49h2.94V379h-2.94v1.49Z"/><path class="cls-3" d="M194.54,373.8h1.87v8.49h-2.16l-2.19-3.62-2.19,3.62h-2.16V373.8h2.16v4.79l1-1.92.06-.09h2.16l.05.09,1.06,1.92V373.8Z"/><path class="cls-3" d="M199.53,373.8v8.49h-2.16V373.8Z"/><path class="cls-3" d="M206.88,373.8V376h-2.17v6.33h-2.17V376h-2.17V373.8h6.51Z"/><path class="cls-3" d="M212.31,373.8h2.16v8.49h-2.16v-3.17h-2.43v3.17h-2.16V373.8h2.16V377h2.43Z"/><path class="cls-3" d="M223.92,380.11a2.27,2.27,0,0,0,.72-.48l1.47,1.47a4.31,4.31,0,0,1-1.38.93,4.2,4.2,0,0,1-1.66.33,4.16,4.16,0,0,1-2.15-.58,4.32,4.32,0,0,1-1.56-1.56,4.18,4.18,0,0,1-.57-2.14,4.25,4.25,0,0,1,.57-2.16,4.43,4.43,0,0,1,1.56-1.57,4.34,4.34,0,0,1,3.81-.24,4.31,4.31,0,0,1,1.38.93l-1.47,1.46a2.09,2.09,0,0,0-.72-.47,2.06,2.06,0,0,0-.85-.18,2.1,2.1,0,0,0-1.1.31,2.22,2.22,0,0,0-.81.8,2.2,2.2,0,0,0,0,2.22,2.3,2.3,0,0,0,.81.8,2.09,2.09,0,0,0,1.1.3A2.22,2.22,0,0,0,223.92,380.11Z"/><path class="cls-3" d="M233,374.38a4.2,4.2,0,0,1,1.56,1.57,4.27,4.27,0,0,1,0,4.3,4.32,4.32,0,0,1-1.56,1.56,4.19,4.19,0,0,1-2.15.57,4.24,4.24,0,0,1-2.15-.57,4.43,4.43,0,0,1-1.57-1.56,4.34,4.34,0,0,1,0-4.3,4.3,4.3,0,0,1,1.57-1.57,4.25,4.25,0,0,1,2.15-.58A4.2,4.2,0,0,1,233,374.38ZM232,380a2.3,2.3,0,0,0,.8-.81,2.09,2.09,0,0,0,.3-1.1,2.15,2.15,0,0,0-.3-1.11,2.3,2.3,0,0,0-.8-.81,2.2,2.2,0,0,0-2.22,0,2.25,2.25,0,0,0-.81.81,2.15,2.15,0,0,0-.3,1.11,2.09,2.09,0,0,0,.3,1.1,2.25,2.25,0,0,0,.81.81,2.2,2.2,0,0,0,2.22,0Z"/><path class="cls-3" d="M242.81,382.29h-2.17l-1.34-3.21h-1.38v3.21h-2V373.8h4a2.69,2.69,0,0,1,2.29,1.32,2.66,2.66,0,0,1,.35,1.32,2.63,2.63,0,0,1-.32,1.27,2.68,2.68,0,0,1-.88,1Zm-2.39-6.46a.79.79,0,0,0-.56-.29h-2v1.8h2a.83.83,0,0,0,.56-.29.87.87,0,0,0,.23-.62A.84.84,0,0,0,240.42,375.83Z"/><path class="cls-3" d="M250.46,382.29h-2.18l-1.34-3.21h-1.38v3.21h-2V373.8h4.05a2.57,2.57,0,0,1,1.32.36,2.53,2.53,0,0,1,1,1,2.57,2.57,0,0,1,.36,1.32,2.53,2.53,0,0,1-.33,1.27,2.65,2.65,0,0,1-.87,1Zm-2.39-6.46a.8.8,0,0,0-.57-.29h-2v1.8h2a.83.83,0,0,0,.57-.29.91.91,0,0,0,.23-.62A.88.88,0,0,0,248.07,375.83Z"/><path class="cls-3" d="M257,380.45v1.84h-5.77V373.8h5.66v1.84h-3.49v1.49h2.94V379h-2.94v1.49Z"/><path class="cls-3" d="M262.8,380.11a2.27,2.27,0,0,0,.72-.48L265,381.1a4.31,4.31,0,0,1-1.38.93,4.2,4.2,0,0,1-1.66.33,4.16,4.16,0,0,1-2.15-.58,4.32,4.32,0,0,1-1.56-1.56,4.18,4.18,0,0,1-.57-2.14,4.25,4.25,0,0,1,.57-2.16,4.43,4.43,0,0,1,1.56-1.57,4.34,4.34,0,0,1,3.81-.24A4.31,4.31,0,0,1,265,375l-1.47,1.46a2.09,2.09,0,0,0-.72-.47,2.06,2.06,0,0,0-.85-.18,2.1,2.1,0,0,0-1.1.31,2.22,2.22,0,0,0-.81.8,2.2,2.2,0,0,0,0,2.22,2.3,2.3,0,0,0,.81.8,2.09,2.09,0,0,0,1.1.3A2.22,2.22,0,0,0,262.8,380.11Z"/><path class="cls-3" d="M272.1,373.8V376h-2.17v6.33h-2.17V376h-2.17V373.8h6.51Z"/><path class="cls-3" d="M275.1,373.8v8.49h-2.16V373.8Z"/><path class="cls-3" d="M281.64,373.78H284l-2.78,8.51h-2.64l-2.76-8.51h2.38l1.72,5.3Z"/><path class="cls-3" d="M290.49,380.45v1.84h-5.78V373.8h5.67v1.84h-3.49v1.49h2.94V379h-2.94v1.49Z"/><path class="cls-3" d="M295.32,376.49v-.16a.77.77,0,0,0-.29-.59,1.11,1.11,0,0,0-.71-.24,1.15,1.15,0,0,0-.74.24.73.73,0,0,0-.31.59.56.56,0,0,0,.31.52,2.53,2.53,0,0,0,.82.34l.18,0,.21,0a4.11,4.11,0,0,1,1.72.71l.11.1a2.52,2.52,0,0,1,.57.82,2.38,2.38,0,0,1,.21,1,2.42,2.42,0,0,1-.23,1,2.86,2.86,0,0,1-.68.88,3.25,3.25,0,0,1-1,.57,3.61,3.61,0,0,1-1.18.2,3.55,3.55,0,0,1-1.17-.2,3.21,3.21,0,0,1-1-.57,2.71,2.71,0,0,1-.68-.88,2.29,2.29,0,0,1-.24-1v-.15h2.1v.15a.79.79,0,0,0,.29.6,1.08,1.08,0,0,0,.7.24,1.15,1.15,0,0,0,.74-.24.75.75,0,0,0,.31-.6.7.7,0,0,0-.33-.53,1.14,1.14,0,0,0-.33-.17l-.47-.15-.4-.09-1-.3a2.17,2.17,0,0,1-.68-.41l-.05,0a2.81,2.81,0,0,1-.63-.84,2.24,2.24,0,0,1-.22-1,2.32,2.32,0,0,1,.24-1,2.58,2.58,0,0,1,.68-.87,3.21,3.21,0,0,1,1-.57,3.31,3.31,0,0,1,1.17-.2,3.36,3.36,0,0,1,1.18.2,3.25,3.25,0,0,1,1,.57,2.71,2.71,0,0,1,.68.87,2.46,2.46,0,0,1,.23,1v.16Z"/><path class="cls-3" d="M307.92,374.38a4.2,4.2,0,0,1,1.56,1.57,4.27,4.27,0,0,1,0,4.3,4.32,4.32,0,0,1-1.56,1.56,4.18,4.18,0,0,1-2.14.57,4.25,4.25,0,0,1-2.16-.57,4.43,4.43,0,0,1-1.57-1.56,4.34,4.34,0,0,1,0-4.3,4.31,4.31,0,0,1,3.73-2.15A4.19,4.19,0,0,1,307.92,374.38Zm-1,5.63a2.3,2.3,0,0,0,.8-.81,2.09,2.09,0,0,0,.3-1.1,2.15,2.15,0,0,0-.3-1.11,2.3,2.3,0,0,0-.8-.81,2.19,2.19,0,0,0-2.21,0,2.26,2.26,0,0,0-1.12,1.92,2.1,2.1,0,0,0,.31,1.1,2.17,2.17,0,0,0,.81.81,2.19,2.19,0,0,0,2.21,0Z"/><path class="cls-3" d="M316.68,375.64h-3.74v1.49h3V379h-3v3.33h-2.16V373.8h5.9Z"/><path class="cls-3" d="M327.9,373.81v5.25a3.25,3.25,0,0,1-.45,1.68,3.35,3.35,0,0,1-2.91,1.67h-.19a3.25,3.25,0,0,1-1.68-.45,3.4,3.4,0,0,1-1.22-1.22,3.25,3.25,0,0,1-.45-1.68v-5.25h2v4.77a2,2,0,0,0,.36,1.23,1.16,1.16,0,0,0,1,.5h.19a1.18,1.18,0,0,0,1-.5,2,2,0,0,0,.38-1.23v-4.77Z"/><path class="cls-3" d="M331,373.8v8.49h-2.16V373.8Z"/><path class="cls-3" d="M331.74,382.9l3.28-9.18h1.9l-3.29,9.18Z"/><path class="cls-3" d="M344.54,373.81v5.25a3.38,3.38,0,0,1-1.68,2.9,3.32,3.32,0,0,1-1.69.45H341a3.28,3.28,0,0,1-1.68-.45,3.4,3.4,0,0,1-1.22-1.22,3.35,3.35,0,0,1-.45-1.68v-5.25h2v4.77a2,2,0,0,0,.36,1.23,1.16,1.16,0,0,0,1,.5h.19a1.17,1.17,0,0,0,1-.5,1.92,1.92,0,0,0,.38-1.23v-4.77Z"/><path class="cls-3" d="M353,382.29h-2.51l-1.35-2.21-1.33,2.21h-2.51l2.6-4.29-2.55-4.2h2.51l1.28,2.13,1.29-2.13h2.52l-2.55,4.2Z"/><path class="cls-3" d="M353.75,381.94a1.2,1.2,0,0,1-.32-.83,1.07,1.07,0,0,1,.33-.78,1.1,1.1,0,0,1,.78-.32,1.13,1.13,0,0,1,.81.33,1.12,1.12,0,0,1,.33.81,1.09,1.09,0,0,1-.33.8,1.14,1.14,0,0,1-.81.34A1.05,1.05,0,0,1,353.75,381.94Z"/><path class="cls-3" d="M48.5,295v8.48H46.34V295Z"/><path class="cls-3" d="M54.12,295h2.16v8.48H54.12l-2.49-4.55v4.55H49.46V295h2.17l2.49,4.55Z"/><path class="cls-3" d="M62.14,301.29a2.3,2.3,0,0,0,.72-.47l1.46,1.46a4.31,4.31,0,0,1-1.38.93,4.32,4.32,0,0,1-3.8-.24,4.32,4.32,0,0,1-1.56-1.56,4.29,4.29,0,0,1,5.36-6.12,4.31,4.31,0,0,1,1.38.93l-1.46,1.47a2.52,2.52,0,0,0-.72-.48,2.26,2.26,0,0,0-.85-.17,2.15,2.15,0,0,0-1.11.3,2.3,2.3,0,0,0-.8.81,2.15,2.15,0,0,0-.3,1.11,2.09,2.09,0,0,0,.3,1.1,2.3,2.3,0,0,0,.8.81,2.15,2.15,0,0,0,1.11.3A2.09,2.09,0,0,0,62.14,301.29Z"/><path class="cls-3" d="M72,303.47H69.79l-1.34-3.2H67.07v3.2H65V295h4a2.66,2.66,0,0,1,1.32.35,2.69,2.69,0,0,1,1.32,2.29,2.5,2.5,0,0,1-.33,1.26,2.67,2.67,0,0,1-.87,1ZM69.58,297a.78.78,0,0,0-.56-.28H67v1.8h2a.84.84,0,0,0,.56-.3.92.92,0,0,0,0-1.22Z"/><path class="cls-3" d="M78.46,301.64v1.83H72.69V295h5.66v1.83H74.86v1.49H77.8v1.84H74.86v1.49Z"/><path class="cls-3" d="M83.83,295.07l2.78,8.4H84.52L84,301.76H81.34l-.54,1.71H78.7l2.78-8.4ZM81.9,300h1.52l-.76-2.37Z"/><path class="cls-3" d="M90.72,297.68v-.16a.72.72,0,0,0-.29-.59,1.05,1.05,0,0,0-.72-.25,1.1,1.1,0,0,0-.73.25.72.72,0,0,0-.31.59A.56.56,0,0,0,89,298a2.9,2.9,0,0,0,.82.33l.19,0,.21,0a4.13,4.13,0,0,1,1.71.7l.11.1a2.56,2.56,0,0,1,.57.83,2.38,2.38,0,0,1,.21,1,2.46,2.46,0,0,1-.23,1,2.86,2.86,0,0,1-.68.88,3.71,3.71,0,0,1-1,.57,3.6,3.6,0,0,1-1.18.19,3.54,3.54,0,0,1-1.17-.19,3.66,3.66,0,0,1-1-.57,2.86,2.86,0,0,1-.68-.88,2.32,2.32,0,0,1-.24-1v-.16h2.1v.16a.72.72,0,0,0,.29.59,1,1,0,0,0,.7.25,1.11,1.11,0,0,0,.74-.25.74.74,0,0,0,.31-.59.69.69,0,0,0-.33-.53,1.48,1.48,0,0,0-.33-.18,3.35,3.35,0,0,0-.47-.14l-.4-.1c-.44-.11-.78-.21-1-.3a1.91,1.91,0,0,1-.68-.41l-.05-.05a2.58,2.58,0,0,1-.63-.84,2.23,2.23,0,0,1-.22-1,2.32,2.32,0,0,1,.24-1,2.86,2.86,0,0,1,.68-.88,3.21,3.21,0,0,1,1-.57,3.55,3.55,0,0,1,1.17-.2,3.61,3.61,0,0,1,1.18.2,3.25,3.25,0,0,1,1,.57,2.86,2.86,0,0,1,.68.88,2.46,2.46,0,0,1,.23,1v.16Z"/><path class="cls-3" d="M99.29,301.64v1.83H93.52V295h5.66v1.83H95.69v1.49h2.94v1.84H95.69v1.49Z"/><path class="cls-3" d="M108.75,301.29a2.3,2.3,0,0,0,.72-.47l1.46,1.46a4.31,4.31,0,0,1-1.38.93,4.32,4.32,0,0,1-3.8-.24,4.32,4.32,0,0,1-1.56-1.56,4.27,4.27,0,0,1,0-4.3,4.28,4.28,0,0,1,5.36-1.82,4.31,4.31,0,0,1,1.38.93l-1.46,1.47a2.52,2.52,0,0,0-.72-.48,2.31,2.31,0,0,0-.86-.17,2.14,2.14,0,0,0-1.1.3,2.3,2.3,0,0,0-.8.81,2.15,2.15,0,0,0-.3,1.11,2.09,2.09,0,0,0,.3,1.1,2.3,2.3,0,0,0,.8.81,2.16,2.16,0,0,0,2,.12Z"/><path class="cls-3" d="M117.85,295.56a4.38,4.38,0,0,1,1.57,1.57,4.24,4.24,0,0,1,.57,2.15,4.19,4.19,0,0,1-.57,2.15,4.27,4.27,0,0,1-1.57,1.56,4.09,4.09,0,0,1-2.14.58,4.3,4.3,0,0,1-3.72-2.14,4.1,4.1,0,0,1-.58-2.15,4.16,4.16,0,0,1,.58-2.15,4.24,4.24,0,0,1,3.72-2.14A4.18,4.18,0,0,1,117.85,295.56Zm-1,5.63a2.19,2.19,0,0,0,.8-.8,2.23,2.23,0,0,0-.8-3,2.12,2.12,0,0,0-1.1-.3,2.15,2.15,0,0,0-1.11.3,2.25,2.25,0,0,0-.81.81,2.2,2.2,0,0,0,0,2.22,2.3,2.3,0,0,0,.81.8,2.15,2.15,0,0,0,1.11.3A2.12,2.12,0,0,0,116.81,301.19Z"/><path class="cls-3" d="M125.38,295h2.16v8.48h-2.16l-2.5-4.55v4.55h-2.17V295h2.17l2.5,4.55Z"/><path class="cls-3" d="M134.08,295h2.35l-2.77,8.51H131L128.26,295h2.37l1.72,5.31Z"/><path class="cls-3" d="M142.92,301.64v1.83h-5.77V295h5.66v1.83h-3.49v1.49h2.94v1.84h-2.94v1.49Z"/><path class="cls-3" d="M150.81,303.47h-2.18l-1.34-3.2h-1.38v3.2h-2V295h4.05a2.66,2.66,0,0,1,1.32.35,2.63,2.63,0,0,1,1,1,2.57,2.57,0,0,1,.36,1.32,2.5,2.5,0,0,1-.33,1.26,2.77,2.77,0,0,1-.87,1ZM148.42,297a.79.79,0,0,0-.57-.28h-2v1.8h2a.85.85,0,0,0,.57-.3.92.92,0,0,0,0-1.22Z"/><path class="cls-3" d="M155.4,297.68v-.16a.75.75,0,0,0-.29-.59,1.07,1.07,0,0,0-.72-.25,1.1,1.1,0,0,0-.73.25.72.72,0,0,0-.31.59.56.56,0,0,0,.31.52,2.78,2.78,0,0,0,.82.33l.18,0,.21,0a4.13,4.13,0,0,1,1.72.7l.11.1a2.56,2.56,0,0,1,.57.83,2.38,2.38,0,0,1,.21,1,2.32,2.32,0,0,1-.24,1,2.68,2.68,0,0,1-.67.88,3.71,3.71,0,0,1-1,.57,3.6,3.6,0,0,1-1.18.19,3.5,3.5,0,0,1-1.17-.19,3.66,3.66,0,0,1-1-.57,2.71,2.71,0,0,1-.68-.88,2.32,2.32,0,0,1-.24-1v-.16h2.1v.16a.72.72,0,0,0,.29.59,1,1,0,0,0,.7.25,1.11,1.11,0,0,0,.74-.25.74.74,0,0,0,.31-.59.69.69,0,0,0-.33-.53,1.48,1.48,0,0,0-.33-.18,3.35,3.35,0,0,0-.47-.14l-.4-.1c-.44-.11-.78-.21-1-.3a1.91,1.91,0,0,1-.68-.41l-.05-.05a2.58,2.58,0,0,1-.63-.84,2.23,2.23,0,0,1-.22-1,2.32,2.32,0,0,1,.24-1,2.71,2.71,0,0,1,.68-.88,3.21,3.21,0,0,1,1-.57,3.51,3.51,0,0,1,1.17-.2,3.61,3.61,0,0,1,1.18.2,3.25,3.25,0,0,1,1,.57,2.68,2.68,0,0,1,.67.88,2.32,2.32,0,0,1,.24,1v.16Z"/><path class="cls-3" d="M160.36,295v8.48H158.2V295Z"/><path class="cls-3" d="M167.52,295.56a4.27,4.27,0,0,1,1.56,1.57,4.16,4.16,0,0,1,.58,2.15,4.1,4.1,0,0,1-.58,2.15,4.17,4.17,0,0,1-1.56,1.56,4.1,4.1,0,0,1-2.15.58,4.16,4.16,0,0,1-2.15-.58,4.27,4.27,0,0,1-1.57-1.56,4.19,4.19,0,0,1-.57-2.15,4.24,4.24,0,0,1,.57-2.15,4.38,4.38,0,0,1,1.57-1.57,4.24,4.24,0,0,1,2.15-.57A4.19,4.19,0,0,1,167.52,295.56Zm-1,5.63a2.36,2.36,0,0,0,.8-.8,2.2,2.2,0,0,0,0-2.22,2.3,2.3,0,0,0-.8-.81,2.2,2.2,0,0,0-2.22,0,2.25,2.25,0,0,0-.81.81,2.2,2.2,0,0,0,0,2.22,2.3,2.3,0,0,0,.81.8,2.2,2.2,0,0,0,2.22,0Z"/><path class="cls-3" d="M175.05,295h2.16v8.48h-2.16l-2.5-4.55v4.55h-2.17V295h2.17l2.5,4.55Z"/><path class="cls-3" d="M188.69,303.47h-2.17l-1.35-3.2h-1.38v3.2h-2V295h4a2.63,2.63,0,0,1,2.64,2.64,2.59,2.59,0,0,1-.32,1.26,2.79,2.79,0,0,1-.88,1ZM186.3,297a.78.78,0,0,0-.56-.28h-2v1.8h2a.84.84,0,0,0,.56-.3.92.92,0,0,0,0-1.22Z"/><path class="cls-3" d="M193.83,295.07l2.77,8.4h-2.09l-.55-1.71h-2.63l-.54,1.71h-2.1l2.78-8.4ZM191.89,300h1.52l-.76-2.37Z"/><path class="cls-3" d="M203.23,295v2.16h-2.17v6.32h-2.17v-6.32h-2.17V295h6.51Z"/><path class="cls-3" d="M209.85,301.64v1.83h-5.78V295h5.67v1.83h-3.49v1.49h2.94v1.84h-2.94v1.49Z"/><path class="cls-3" d="M220.8,295v2.16h-2.17v6.32h-2.17v-6.32h-2.17V295h6.51Z"/><path class="cls-3" d="M226.23,295h2.16v8.48h-2.16V300.3H223.8v3.17h-2.16V295h2.16v3.15h2.43Z"/><path class="cls-3" d="M236.27,303.47H234.1l-1.35-3.2h-1.38v3.2h-2V295h4a2.63,2.63,0,0,1,2.64,2.64,2.59,2.59,0,0,1-.32,1.26,2.79,2.79,0,0,1-.88,1ZM233.88,297a.78.78,0,0,0-.56-.28h-2v1.8h2a.84.84,0,0,0,.56-.3.92.92,0,0,0,0-1.22Z"/><path class="cls-3" d="M243.89,295v5.24a3.25,3.25,0,0,1-.45,1.68,3.35,3.35,0,0,1-2.91,1.67h-.19a3.25,3.25,0,0,1-1.68-.45,3.32,3.32,0,0,1-1.22-1.22,3.25,3.25,0,0,1-.45-1.68V295h2v4.76a2,2,0,0,0,.36,1.24,1.15,1.15,0,0,0,1,.49h.19a1.16,1.16,0,0,0,1-.5,2,2,0,0,0,.38-1.23V295Z"/><path class="cls-3" d="M253.35,301.29a2.3,2.3,0,0,0,.72-.47l1.46,1.46a4.31,4.31,0,0,1-1.38.93,4.32,4.32,0,0,1-3.8-.24,4.32,4.32,0,0,1-1.56-1.56,4.27,4.27,0,0,1,0-4.3,4.28,4.28,0,0,1,5.36-1.82,4.31,4.31,0,0,1,1.38.93l-1.46,1.47a2.52,2.52,0,0,0-.72-.48,2.31,2.31,0,0,0-.86-.17,2.12,2.12,0,0,0-1.1.3,2.22,2.22,0,0,0-.8.81,2.15,2.15,0,0,0-.3,1.11,2.09,2.09,0,0,0,.3,1.1,2.22,2.22,0,0,0,.8.81,2.12,2.12,0,0,0,1.1.3A2.14,2.14,0,0,0,253.35,301.29Z"/><path class="cls-3" d="M262.45,295.56a4.27,4.27,0,0,1,1.56,1.57,4.16,4.16,0,0,1,.58,2.15,4.1,4.1,0,0,1-.58,2.15,4.17,4.17,0,0,1-1.56,1.56,4.09,4.09,0,0,1-2.14.58,4.17,4.17,0,0,1-2.16-.58,4.27,4.27,0,0,1-1.57-1.56,4.19,4.19,0,0,1-.57-2.15,4.24,4.24,0,0,1,.57-2.15,4.38,4.38,0,0,1,1.57-1.57,4.25,4.25,0,0,1,2.16-.57A4.18,4.18,0,0,1,262.45,295.56Zm-1,5.63a2.27,2.27,0,0,0,.8-.8,2.2,2.2,0,0,0,0-2.22,2.22,2.22,0,0,0-.8-.81,2.12,2.12,0,0,0-1.1-.3,2.2,2.2,0,0,0-1.92,3.33,2.22,2.22,0,0,0,.81.8,2.15,2.15,0,0,0,1.11.3A2.12,2.12,0,0,0,261.41,301.19Z"/><path class="cls-3" d="M271.85,295H274v8.48h-2.16v-4.79l-1.06,1.92,0,.1h-2.17l-.05-.1-.15-.27-.9-1.65v4.79h-2.17V295h2.17l2.19,3.61Z"/><path class="cls-3" d="M281.51,295h2.16v8.48h-2.16v-4.79l-1.06,1.92,0,.1h-2.16l-.07-.1-.14-.27-.9-1.65v4.79H275V295h2.17l2.19,3.61Z"/><path class="cls-3" d="M291.53,295v5.24a3.25,3.25,0,0,1-.45,1.68,3.35,3.35,0,0,1-2.91,1.67H288a3.25,3.25,0,0,1-1.68-.45,3.32,3.32,0,0,1-1.22-1.22,3.25,3.25,0,0,1-.45-1.68V295h2v4.76A2,2,0,0,0,287,301a1.15,1.15,0,0,0,1,.49h.19a1.16,1.16,0,0,0,1-.5,2,2,0,0,0,.38-1.23V295Z"/><path class="cls-3" d="M297.16,295h2.16v8.48h-2.16l-2.5-4.55v4.55h-2.17V295h2.17l2.5,4.55Z"/><path class="cls-3" d="M302.44,295v8.48h-2.16V295Z"/><path class="cls-3" d="M309.79,295v2.16h-2.17v6.32h-2.17v-6.32h-2.17V295h6.51Z"/><path class="cls-3" d="M315.14,295h2.16l-2.49,5v3.45h-2.16V300l-2.5-5h2.16l1.42,2.89Z"/><path class="cls-3" d="M325.8,295.07l2.77,8.4h-2.09l-.55-1.71H323.3l-.54,1.71h-2.1l2.79-8.4ZM323.87,300h1.51l-.76-2.37Z"/><path class="cls-3" d="M333.48,295h2.16v8.48h-2.16l-2.5-4.55v4.55h-2.17V295H331l2.5,4.55Z"/><path class="cls-3" d="M340.32,295a4.86,4.86,0,0,1,1.28.3,3.67,3.67,0,0,1,1.17.74,4.2,4.2,0,0,1,1,1.45,4.46,4.46,0,0,1,.36,1.75,4.08,4.08,0,0,1-.47,2,3.94,3.94,0,0,1-1.31,1.5,4.52,4.52,0,0,1-1.73.67,12.29,12.29,0,0,1-2.14.17l-1,0h-.94v-8.58h2.17A13.85,13.85,0,0,1,340.32,295Zm1.79,4.24a2.26,2.26,0,0,0-1.08-1.91A2.06,2.06,0,0,0,340,297h-1.18v4.43a8.86,8.86,0,0,0,1.48-.11,2.38,2.38,0,0,0,1.12-.47,1.9,1.9,0,0,0,.68-1.12A2.34,2.34,0,0,0,342.11,299.2Z"/><path class="cls-4" d="M50.21,312.08v-.16a.75.75,0,0,0-.29-.59,1.07,1.07,0,0,0-.72-.25,1.1,1.1,0,0,0-.73.25.72.72,0,0,0-.31.59.56.56,0,0,0,.31.52,2.78,2.78,0,0,0,.82.33l.18,0,.21.05a4.13,4.13,0,0,1,1.72.7l.11.1a2.56,2.56,0,0,1,.57.83,2.38,2.38,0,0,1,.21,1,2.32,2.32,0,0,1-.24,1,2.68,2.68,0,0,1-.67.88,3.71,3.71,0,0,1-1,.57,3.6,3.6,0,0,1-1.18.19,3.5,3.5,0,0,1-1.17-.19,3.66,3.66,0,0,1-1-.57,2.71,2.71,0,0,1-.68-.88,2.32,2.32,0,0,1-.24-1v-.16h2.1v.16a.72.72,0,0,0,.29.59,1,1,0,0,0,.7.25,1.11,1.11,0,0,0,.74-.25.74.74,0,0,0,.31-.59.69.69,0,0,0-.33-.53,1.48,1.48,0,0,0-.33-.18,3.35,3.35,0,0,0-.47-.14l-.4-.1c-.44-.11-.78-.21-1-.3a1.91,1.91,0,0,1-.68-.41l0-.05a2.58,2.58,0,0,1-.63-.84,2.23,2.23,0,0,1-.22-1,2.32,2.32,0,0,1,.24-1A2.71,2.71,0,0,1,47,310a3.21,3.21,0,0,1,1-.57,3.51,3.51,0,0,1,1.17-.2,3.61,3.61,0,0,1,1.18.2,3.25,3.25,0,0,1,1,.57,2.68,2.68,0,0,1,.67.88,2.32,2.32,0,0,1,.24,1v.16Z"/><path class="cls-4" d="M57.59,309.39h2.16v8.48H57.59V314.7H55.17v3.17H53v-8.48h2.16v3.15h2.42Z"/><path class="cls-4" d="M62.87,309.39v8.48H60.71v-8.48Z"/><path class="cls-4" d="M66,315.83h3.34v2h-5.5v-8.48H66Z"/><path class="cls-4" d="M72.33,315.83h3.33v2H70.17v-8.48h2.16Z"/><path class="cls-4" d="M78.66,309.39v8.48H76.5v-8.48Z"/><path class="cls-4" d="M84.29,309.39h2.16v8.48H84.29l-2.49-4.55v4.55H79.62v-8.48H81.8l2.49,4.55Z"/><path class="cls-4" d="M95.75,313.67a4.22,4.22,0,0,1-.57,2.15A4.33,4.33,0,0,1,91.46,318a4.3,4.3,0,0,1-3.71-2.14,4.27,4.27,0,0,1,0-4.3A4.27,4.27,0,0,1,89.31,310a4.19,4.19,0,0,1,2.15-.57,4.25,4.25,0,0,1,1.67.33,4.35,4.35,0,0,1,1.37.94l-1.93,1.1a2.12,2.12,0,0,0-1.11-.3,2.15,2.15,0,0,0-1.11.3,2.3,2.3,0,0,0-.8.81,2.2,2.2,0,0,0,0,2.22,2.36,2.36,0,0,0,.8.8,2.2,2.2,0,0,0,2.27,0,2.31,2.31,0,0,0,.82-.88H90.77v-2h4.86A4.59,4.59,0,0,1,95.75,313.67Z"/><path class="cls-4" d="M102.23,309.39v8.48h-2.16v-8.48Z"/><path class="cls-4" d="M107.86,309.39H110v8.48h-2.16l-2.5-4.55v4.55h-2.17v-8.48h2.17l2.5,4.55Z"/><path class="cls-4" d="M121,309.39v2.16H118.8v6.32h-2.17v-6.32h-2.17v-2.16H121Z"/><path class="cls-4" d="M127.59,316v1.83h-5.77v-8.48h5.66v1.83H124v1.49h2.94v1.84H124V316Z"/><path class="cls-4" d="M130.71,315.83H134v2h-5.49v-8.48h2.16Z"/><path class="cls-4" d="M140.66,316v1.83h-5.78v-8.48h5.67v1.83h-3.5v1.49H140v1.84h-2.95V316Z"/><path class="cls-4" d="M150,313.67a4.29,4.29,0,0,1-6.45,3.71,4.17,4.17,0,0,1-1.56-1.56,4.34,4.34,0,0,1,0-4.3,4.27,4.27,0,0,1,1.56-1.57,4.36,4.36,0,0,1,3.82-.24,4.28,4.28,0,0,1,1.38.94l-1.93,1.1a2.22,2.22,0,0,0-2.23,0,2.3,2.3,0,0,0-.8.81,2.2,2.2,0,0,0,0,2.22,2.36,2.36,0,0,0,.8.8,2.2,2.2,0,0,0,2.27,0,2.24,2.24,0,0,0,.82-.88H145v-2h4.86A4.09,4.09,0,0,1,150,313.67Z"/><path class="cls-4" d="M157.6,317.87h-2.17l-1.35-3.2H152.7v3.2h-2v-8.48h4.05a2.66,2.66,0,0,1,1.32.35,2.69,2.69,0,0,1,1.32,2.29,2.59,2.59,0,0,1-.32,1.26,2.79,2.79,0,0,1-.88,1Zm-2.39-6.46a.78.78,0,0,0-.56-.28h-2v1.8h2a.84.84,0,0,0,.56-.3.92.92,0,0,0,0-1.22Z"/><path class="cls-4" d="M162.74,309.47l2.77,8.4h-2.09l-.55-1.71h-2.63l-.54,1.71h-2.1l2.78-8.4Zm-1.94,4.93h1.52l-.76-2.37Z"/><path class="cls-4" d="M172.29,309.39h2.16v8.48h-2.16v-4.79L171.23,315l0,.1H169L169,315l-.14-.27-.9-1.65v4.79h-2.17v-8.48h2.17L170.1,313Z"/><path class="cls-4" d="M175.49,317.52a1.13,1.13,0,0,1-.32-.82,1,1,0,0,1,.33-.78,1.07,1.07,0,0,1,.78-.33,1.14,1.14,0,0,1,1.14,1.14,1.13,1.13,0,0,1-1.14,1.14A1,1,0,0,1,175.49,317.52Z"/><rect class="cls-4" x="32.09" y="295.3" width="8.5" height="8.5"/><path class="cls-3" d="M50.21,328.41v-.16a.75.75,0,0,0-.29-.59,1.12,1.12,0,0,0-.72-.25,1.15,1.15,0,0,0-.73.25.72.72,0,0,0-.31.59.54.54,0,0,0,.31.52,2.53,2.53,0,0,0,.82.34l.18,0,.21.05a4.11,4.11,0,0,1,1.72.71l.11.09a2.56,2.56,0,0,1,.57.83,2.38,2.38,0,0,1,.21,1,2.29,2.29,0,0,1-.24,1,2.68,2.68,0,0,1-.67.88,3.25,3.25,0,0,1-1,.57,3.61,3.61,0,0,1-1.18.2,3.51,3.51,0,0,1-1.17-.2,3.21,3.21,0,0,1-1-.57,2.71,2.71,0,0,1-.68-.88,2.29,2.29,0,0,1-.24-1v-.15h2.1v.15a.76.76,0,0,0,.29.6,1.08,1.08,0,0,0,.7.24,1.15,1.15,0,0,0,.74-.24.78.78,0,0,0,.31-.6.7.7,0,0,0-.33-.53,1.48,1.48,0,0,0-.33-.18l-.47-.14-.4-.1c-.44-.11-.78-.21-1-.3a1.88,1.88,0,0,1-.68-.4l0-.05a2.81,2.81,0,0,1-.63-.84,2.24,2.24,0,0,1-.22-1,2.32,2.32,0,0,1,.24-1,2.58,2.58,0,0,1,.68-.87,3.21,3.21,0,0,1,1-.57,3.27,3.27,0,0,1,1.17-.2,3.36,3.36,0,0,1,1.18.2,3.25,3.25,0,0,1,1,.57,2.55,2.55,0,0,1,.67.87,2.32,2.32,0,0,1,.24,1v.16Z"/><path class="cls-3" d="M57.59,325.72h2.16v8.49H57.59V331H55.17v3.17H53v-8.49h2.16v3.16h2.42Z"/><path class="cls-3" d="M65.13,325.8l2.77,8.41H65.81l-.55-1.72H62.63l-.54,1.72H60l2.79-8.41Zm-1.93,4.94h1.51L64,328.36Z"/><path class="cls-3" d="M75.06,334.21H72.89L71.55,331H70.17v3.21h-2v-8.49h4a2.52,2.52,0,0,1,1.32.36,2.6,2.6,0,0,1,1.32,2.28,2.52,2.52,0,0,1-.32,1.27,2.76,2.76,0,0,1-.88.95Zm-2.38-6.47a.86.86,0,0,0-.57-.28h-2v1.8h2a.88.88,0,0,0,.57-.29,1,1,0,0,0,0-1.23Z"/><path class="cls-3" d="M81.56,332.37v1.84H75.78v-8.49h5.67v1.84H78V329H80.9v1.84H78v1.49Z"/><path class="cls-3" d="M93,334.21H90.87L89.52,331H88.14v3.21h-2v-8.49h4A2.69,2.69,0,0,1,92.45,327a2.66,2.66,0,0,1,.35,1.32,2.63,2.63,0,0,1-.32,1.27,2.76,2.76,0,0,1-.88.95Zm-2.39-6.47a.82.82,0,0,0-.56-.28h-2v1.8h2a.83.83,0,0,0,.56-.29.94.94,0,0,0,0-1.23Z"/><path class="cls-3" d="M99.53,332.37v1.84H93.76v-8.49h5.66v1.84H95.93V329h2.94v1.84H95.93v1.49Z"/><path class="cls-3" d="M106.07,325.7h2.35l-2.77,8.51H103l-2.76-8.51h2.38l1.71,5.3Z"/><path class="cls-3" d="M111.3,325.72v8.49h-2.16v-8.49Z"/><path class="cls-3" d="M118,332.37v1.84h-5.78v-8.49h5.67v1.84h-3.49V329h2.94v1.84h-2.94v1.49Z"/><path class="cls-3" d="M125.82,325.72h1.88v8.49h-2.16l-2.19-3.62-2.19,3.62H119v-8.49h2.16v4.79l1-1.92.06-.1h2.16l0,.1,1.06,1.92v-4.79Z"/><path class="cls-3" d="M132.53,328.41v-.16a.75.75,0,0,0-.29-.59,1.12,1.12,0,0,0-.72-.25,1.15,1.15,0,0,0-.73.25.72.72,0,0,0-.31.59.54.54,0,0,0,.31.52,2.53,2.53,0,0,0,.82.34l.18,0,.21.05a4.11,4.11,0,0,1,1.72.71l.11.09a2.56,2.56,0,0,1,.57.83,2.38,2.38,0,0,1,.21,1,2.29,2.29,0,0,1-.24,1,2.68,2.68,0,0,1-.67.88,3.25,3.25,0,0,1-1,.57,3.61,3.61,0,0,1-1.18.2,3.51,3.51,0,0,1-1.17-.2,3.21,3.21,0,0,1-1-.57,2.71,2.71,0,0,1-.68-.88,2.29,2.29,0,0,1-.24-1v-.15h2.1v.15a.76.76,0,0,0,.29.6,1.08,1.08,0,0,0,.7.24,1.15,1.15,0,0,0,.74-.24.78.78,0,0,0,.31-.6.7.7,0,0,0-.33-.53,1.48,1.48,0,0,0-.33-.18l-.47-.14-.4-.1c-.44-.11-.78-.21-1-.3a1.88,1.88,0,0,1-.68-.4l0-.05a2.81,2.81,0,0,1-.63-.84,2.24,2.24,0,0,1-.22-1,2.32,2.32,0,0,1,.24-1,2.58,2.58,0,0,1,.68-.87,3.21,3.21,0,0,1,1-.57,3.27,3.27,0,0,1,1.17-.2,3.36,3.36,0,0,1,1.18.2,3.25,3.25,0,0,1,1,.57,2.55,2.55,0,0,1,.67.87,2.32,2.32,0,0,1,.24,1v.16Z"/><path class="cls-3" d="M141.09,325.72v8.49h-2.16v-8.49Z"/><path class="cls-3" d="M146.71,325.72h2.17v8.49h-2.17l-2.49-4.55v4.55h-2.17v-8.49h2.17l2.49,4.55Z"/><path class="cls-3" d="M160,325.72h2.16v8.49H160v-4.79l-1.05,1.92,0,.09h-2.16l-.06-.09-.14-.28-.9-1.64v4.79h-2.18v-8.49h2.18l2.18,3.61Z"/><path class="cls-3" d="M167.51,325.8l2.77,8.41H168.2l-.56-1.72H165l-.54,1.72h-2.09l2.78-8.41Zm-1.93,4.94h1.51l-.76-2.38Z"/><path class="cls-3" d="M174.4,328.41v-.16a.73.73,0,0,0-.3-.59,1.08,1.08,0,0,0-.71-.25,1.18,1.18,0,0,0-.74.25.73.73,0,0,0-.3.59.54.54,0,0,0,.31.52,2.56,2.56,0,0,0,.81.34l.19,0,.21.05a4.11,4.11,0,0,1,1.72.71l.1.09a2.41,2.41,0,0,1,.57.83,2.38,2.38,0,0,1,.21,1,2.28,2.28,0,0,1-.23,1,2.71,2.71,0,0,1-.68.88,3,3,0,0,1-1,.57,3.52,3.52,0,0,1-2.34,0,3.1,3.1,0,0,1-1-.57,2.75,2.75,0,0,1-.69-.88,2.29,2.29,0,0,1-.24-1v-.15h2.1v.15a.77.77,0,0,0,.3.6,1.06,1.06,0,0,0,.7.24,1.17,1.17,0,0,0,.74-.24.77.77,0,0,0,.3-.6.72.72,0,0,0-.32-.53,1.56,1.56,0,0,0-.34-.18l-.47-.14-.39-.1a10.25,10.25,0,0,1-1-.3,2,2,0,0,1-.69-.4l-.05-.05a2.81,2.81,0,0,1-.63-.84,2.39,2.39,0,0,1-.22-1,2.32,2.32,0,0,1,.24-1,2.61,2.61,0,0,1,.69-.87,3.1,3.1,0,0,1,1-.57,3.52,3.52,0,0,1,2.34,0,3,3,0,0,1,1,.57,2.58,2.58,0,0,1,.68.87,2.31,2.31,0,0,1,.23,1v.16Z"/><path class="cls-3" d="M181.07,328.41v-.16a.75.75,0,0,0-.29-.59,1.12,1.12,0,0,0-.72-.25,1.18,1.18,0,0,0-.74.25.73.73,0,0,0-.3.59.54.54,0,0,0,.31.52,2.53,2.53,0,0,0,.82.34l.18,0,.21.05a4.11,4.11,0,0,1,1.72.71l.11.09a2.56,2.56,0,0,1,.57.83,2.38,2.38,0,0,1,.21,1,2.29,2.29,0,0,1-.24,1,2.58,2.58,0,0,1-.68.88,3.1,3.1,0,0,1-1,.57,3.61,3.61,0,0,1-1.18.2,3.51,3.51,0,0,1-1.17-.2,3.1,3.1,0,0,1-1-.57,2.75,2.75,0,0,1-.69-.88,2.28,2.28,0,0,1-.23-1v-.15h2.09v.15a.77.77,0,0,0,.3.6,1.06,1.06,0,0,0,.7.24,1.17,1.17,0,0,0,.74-.24.77.77,0,0,0,.3-.6.69.69,0,0,0-.32-.53,1.56,1.56,0,0,0-.34-.18l-.46-.14-.4-.1c-.44-.11-.78-.21-1-.3a2,2,0,0,1-.69-.4l0-.05a2.51,2.51,0,0,1-.63-.84,2.24,2.24,0,0,1-.22-1,2.31,2.31,0,0,1,.23-1,2.61,2.61,0,0,1,.69-.87,3.1,3.1,0,0,1,1-.57,3.27,3.27,0,0,1,1.17-.2,3.36,3.36,0,0,1,1.18.2,3.1,3.1,0,0,1,1,.57,2.46,2.46,0,0,1,.68.87,2.32,2.32,0,0,1,.24,1v.16Z"/><path class="cls-3" d="M194,325.72h2.16v8.49H194v-4.79L193,331.34l0,.09h-2.16l-.06-.09-.14-.28-.9-1.64v4.79h-2.17v-8.49h2.17l2.18,3.61Z"/><path class="cls-3" d="M202.9,332.37v1.84h-5.77v-8.49h5.66v1.84H199.3V329h2.94v1.84H199.3v1.49Z"/><path class="cls-3" d="M207.58,325.69a5.31,5.31,0,0,1,1.28.31,3.63,3.63,0,0,1,1.17.73,4.34,4.34,0,0,1,.93,5.16,3.94,3.94,0,0,1-1.31,1.5,4.71,4.71,0,0,1-1.73.68,12.37,12.37,0,0,1-2.14.16h-1.92v-8.58H206C206.63,325.63,207.15,325.65,207.58,325.69Zm1.79,4.24a2.19,2.19,0,0,0-.29-1.08,2.22,2.22,0,0,0-.79-.82,2.08,2.08,0,0,0-1.08-.33H206v4.43a9,9,0,0,0,1.48-.1,2.55,2.55,0,0,0,1.12-.48,1.91,1.91,0,0,0,.68-1.11A2.5,2.5,0,0,0,209.37,329.93Z"/><path class="cls-3" d="M214.31,325.72v8.49h-2.16v-8.49Z"/><path class="cls-3" d="M219.69,325.8l2.77,8.41h-2.09l-.55-1.72h-2.63l-.54,1.72h-2.1l2.78-8.41Zm-1.94,4.94h1.52l-.76-2.38Z"/><path class="cls-3" d="M232.2,327.56h-3.74V329h3v1.84h-3v3.33H226.3v-8.49h5.9Z"/><path class="cls-3" d="M239.13,326.3a4.32,4.32,0,0,1,1.56,1.56,4.36,4.36,0,0,1,0,4.31,4.37,4.37,0,0,1-1.56,1.55,4.29,4.29,0,0,1-4.31,0,4.22,4.22,0,0,1-1.56-1.55,4.29,4.29,0,0,1,5.87-5.87Zm-1,5.63a2.33,2.33,0,0,0,.81-.81,2.09,2.09,0,0,0,.3-1.1,2.15,2.15,0,0,0-.3-1.11,2.25,2.25,0,0,0-.81-.81,2.09,2.09,0,0,0-1.1-.3,2.15,2.15,0,0,0-1.11.3,2.25,2.25,0,0,0-.81.81,2.15,2.15,0,0,0-.3,1.11,2.09,2.09,0,0,0,.3,1.1,2.33,2.33,0,0,0,.81.81,2.14,2.14,0,0,0,1.11.29A2.08,2.08,0,0,0,238.08,331.93Z"/><path class="cls-3" d="M248.91,334.21h-2.18L245.39,331H244v3.21h-2v-8.49H246a2.57,2.57,0,0,1,1.32.36,2.53,2.53,0,0,1,1,1,2.57,2.57,0,0,1,.36,1.32,2.53,2.53,0,0,1-.33,1.27,2.73,2.73,0,0,1-.87.95Zm-2.39-6.47a.82.82,0,0,0-.57-.28h-2v1.8h2a.83.83,0,0,0,.57-.29.94.94,0,0,0,0-1.23Z"/><path class="cls-3" d="M255.39,325.72v8.49h-2.16v-8.49Z"/><path class="cls-3" d="M261,325.72h2.16v8.49H261l-2.49-4.55v4.55h-2.17v-8.49h2.17l2.49,4.55Z"/><path class="cls-3" d="M269,332a2.52,2.52,0,0,0,.72-.48l1.46,1.47a4.31,4.31,0,0,1-1.38.93,4.29,4.29,0,0,1-5.94-4,4.27,4.27,0,0,1,4.29-4.29,4.19,4.19,0,0,1,1.65.33,4.31,4.31,0,0,1,1.38.93l-1.46,1.46A2.3,2.3,0,0,0,269,328a2.09,2.09,0,0,0-.85-.18,2.15,2.15,0,0,0-1.11.3,2.3,2.3,0,0,0-.8.81,2.2,2.2,0,0,0,0,2.22,2.36,2.36,0,0,0,.8.8,2.15,2.15,0,0,0,1.11.3A2.26,2.26,0,0,0,269,332Z"/><path class="cls-3" d="M278.86,334.21h-2.17L275.34,331H274v3.21h-2v-8.49H276a2.57,2.57,0,0,1,1.32.36,2.46,2.46,0,0,1,1,1,2.57,2.57,0,0,1,.36,1.32,2.53,2.53,0,0,1-.33,1.27,2.64,2.64,0,0,1-.87.95Zm-2.39-6.47a.82.82,0,0,0-.56-.28h-2v1.8h2a.83.83,0,0,0,.56-.29.94.94,0,0,0,0-1.23Z"/><path class="cls-3" d="M285.35,332.37v1.84h-5.77v-8.49h5.66v1.84h-3.49V329h2.94v1.84h-2.94v1.49Z"/><path class="cls-3" d="M290.73,325.8l2.77,8.41h-2.09l-.55-1.72h-2.63l-.54,1.72h-2.1l2.78-8.41Zm-1.94,4.94h1.52l-.76-2.38Z"/><path class="cls-3" d="M297.61,328.41v-.16a.72.72,0,0,0-.29-.59,1.1,1.1,0,0,0-.71-.25,1.16,1.16,0,0,0-.74.25.72.72,0,0,0-.31.59.56.56,0,0,0,.31.52,2.63,2.63,0,0,0,.82.34l.19,0,.21.05a4.12,4.12,0,0,1,1.71.71l.11.09a2.56,2.56,0,0,1,.57.83,2.38,2.38,0,0,1,.21,1,2.42,2.42,0,0,1-.23,1,2.86,2.86,0,0,1-.68.88,3.14,3.14,0,0,1-1,.57,3.55,3.55,0,0,1-2.35,0,3.21,3.21,0,0,1-1-.57,2.86,2.86,0,0,1-.68-.88,2.29,2.29,0,0,1-.24-1v-.15h2.1v.15a.79.79,0,0,0,.29.6,1.08,1.08,0,0,0,.7.24,1.15,1.15,0,0,0,.74-.24.75.75,0,0,0,.31-.6.7.7,0,0,0-.33-.53,1.29,1.29,0,0,0-.33-.18l-.47-.14-.4-.1c-.44-.11-.78-.21-1-.3a2,2,0,0,1-.68-.4l0-.05a2.81,2.81,0,0,1-.63-.84,2.24,2.24,0,0,1-.22-1,2.32,2.32,0,0,1,.24-1,2.71,2.71,0,0,1,.68-.87,3.21,3.21,0,0,1,1-.57,3.55,3.55,0,0,1,2.35,0,3.14,3.14,0,0,1,1,.57,2.71,2.71,0,0,1,.68.87,2.46,2.46,0,0,1,.23,1v.16Z"/><path class="cls-3" d="M302.57,325.72v8.49h-2.16v-8.49Z"/><path class="cls-3" d="M308.2,325.72h2.16v8.49H308.2l-2.5-4.55v4.55h-2.17v-8.49h2.17l2.5,4.55Z"/><path class="cls-3" d="M319.66,330a4.1,4.1,0,0,1-.58,2.15,4.29,4.29,0,0,1-5.87,1.56,4.32,4.32,0,0,1-1.56-1.56,4.19,4.19,0,0,1-.57-2.15,4.24,4.24,0,0,1,.57-2.15,4.32,4.32,0,0,1,1.56-1.56,4.16,4.16,0,0,1,2.15-.58,4.17,4.17,0,0,1,3.05,1.27l-1.93,1.1a2.15,2.15,0,0,0-1.12-.29,2.08,2.08,0,0,0-1.1.29,2.33,2.33,0,0,0-.81.81,2.2,2.2,0,0,0-.3,1.11,2.12,2.12,0,0,0,.3,1.11,2.22,2.22,0,0,0,.81.8,2.09,2.09,0,0,0,1.1.3,2.18,2.18,0,0,0,1.17-.33,2.22,2.22,0,0,0,.81-.88h-2.66v-2h4.86A4.59,4.59,0,0,1,319.66,330Z"/><path class="cls-3" d="M51.71,340.47a2.7,2.7,0,0,1,1,1,2.61,2.61,0,0,1,.35,1.32,2.67,2.67,0,0,1-.35,1.33,2.76,2.76,0,0,1-1,1,2.67,2.67,0,0,1-1.33.35h-2v3.21h-2v-8.49h4A2.67,2.67,0,0,1,51.71,340.47Zm-.83,1.67a.86.86,0,0,0-.57-.28h-2v1.8h2a.83.83,0,0,0,.57-.29,1,1,0,0,0,.23-.62A.91.91,0,0,0,50.88,342.14Z"/><path class="cls-3" d="M60.66,348.61H58.49l-1.34-3.21H55.77v3.21h-2v-8.49h4a2.61,2.61,0,0,1,1.32.35,2.65,2.65,0,0,1,1,1,2.56,2.56,0,0,1,.35,1.32A2.52,2.52,0,0,1,60.1,344a2.76,2.76,0,0,1-.88,1Zm-2.38-6.47a.84.84,0,0,0-.57-.28h-2v1.8h2a.86.86,0,0,0,.57-.29,1,1,0,0,0,0-1.23Z"/><path class="cls-3" d="M67.16,346.77v1.84H61.38v-8.49h5.67V342H63.56v1.49H66.5v1.83H63.56v1.49Z"/><path class="cls-3" d="M72,342.81v-.16a.75.75,0,0,0-.29-.59,1.07,1.07,0,0,0-.72-.25,1.1,1.1,0,0,0-.73.25.72.72,0,0,0-.31.59.55.55,0,0,0,.31.52,2.54,2.54,0,0,0,.82.33l.18,0,.21,0a4.11,4.11,0,0,1,1.72.71l.11.09a2.67,2.67,0,0,1,.57.83,2.38,2.38,0,0,1,.21,1,2.32,2.32,0,0,1-.24,1,2.68,2.68,0,0,1-.67.88,3.25,3.25,0,0,1-1,.57,3.61,3.61,0,0,1-1.18.2,3.51,3.51,0,0,1-1.17-.2,3.21,3.21,0,0,1-1-.57,2.71,2.71,0,0,1-.68-.88,2.32,2.32,0,0,1-.24-1V346H70v.15a.76.76,0,0,0,.29.6,1.08,1.08,0,0,0,.7.24,1.15,1.15,0,0,0,.74-.24.78.78,0,0,0,.31-.6.7.7,0,0,0-.33-.53,1.48,1.48,0,0,0-.33-.18c-.13-.05-.29-.09-.47-.14l-.4-.1c-.44-.11-.78-.21-1-.3a1.88,1.88,0,0,1-.68-.4l0,0a2.81,2.81,0,0,1-.63-.84,2.24,2.24,0,0,1-.22-1,2.32,2.32,0,0,1,.24-1,2.58,2.58,0,0,1,.68-.87,3.44,3.44,0,0,1,1-.58A3.5,3.5,0,0,1,71,340a3.6,3.6,0,0,1,1.18.19,3.5,3.5,0,0,1,1,.58,2.55,2.55,0,0,1,.67.87,2.32,2.32,0,0,1,.24,1v.16Z"/><path class="cls-3" d="M80.56,346.77v1.84H74.79v-8.49h5.66V342H77v1.49H79.9v1.83H77v1.49Z"/><path class="cls-3" d="M86.19,340.12h2.16v8.49H86.19l-2.5-4.55v4.55H81.52v-8.49h2.17l2.5,4.55Z"/><path class="cls-3" d="M95.7,340.12v2.16H93.53v6.33H91.36v-6.33H89.19v-2.16H95.7Z"/><path class="cls-3" d="M100.42,342.81v-.16a.75.75,0,0,0-.29-.59,1.07,1.07,0,0,0-.72-.25,1.12,1.12,0,0,0-.74.25.73.73,0,0,0-.3.59.55.55,0,0,0,.31.52,2.54,2.54,0,0,0,.82.33l.18,0,.21,0a4.11,4.11,0,0,1,1.72.71l.1.09a2.7,2.7,0,0,1,.58.83,2.56,2.56,0,0,1,.21,1,2.32,2.32,0,0,1-.24,1,2.71,2.71,0,0,1-.68.88,3.1,3.1,0,0,1-1,.57,3.61,3.61,0,0,1-1.18.2,3.51,3.51,0,0,1-1.17-.2,3.1,3.1,0,0,1-1-.57,2.75,2.75,0,0,1-.69-.88,2.32,2.32,0,0,1-.24-1V346h2.1v.15a.77.77,0,0,0,.3.6,1.06,1.06,0,0,0,.7.24,1.17,1.17,0,0,0,.74-.24.77.77,0,0,0,.3-.6.72.72,0,0,0-.32-.53,1.56,1.56,0,0,0-.34-.18,4.65,4.65,0,0,0-.47-.14l-.39-.1a10.25,10.25,0,0,1-1-.3,2,2,0,0,1-.69-.4l0,0a2.81,2.81,0,0,1-.63-.84,2.39,2.39,0,0,1-.22-1,2.32,2.32,0,0,1,.24-1,2.61,2.61,0,0,1,.69-.87,3.32,3.32,0,0,1,1-.58A3.5,3.5,0,0,1,99.4,340a3.6,3.6,0,0,1,1.18.19,3.32,3.32,0,0,1,1,.58,2.58,2.58,0,0,1,.68.87,2.32,2.32,0,0,1,.24,1v.16Z"/><path class="cls-3" d="M109,340.12v8.49h-2.16v-8.49Z"/><path class="cls-3" d="M114.6,340.12h2.16v8.49H114.6l-2.49-4.55v4.55h-2.18v-8.49h2.18l2.49,4.55Z"/><path class="cls-3" d="M126.69,340.47a2.55,2.55,0,0,1,1,1,2.52,2.52,0,0,1,.36,1.32,2.65,2.65,0,0,1-1.32,2.29,2.61,2.61,0,0,1-1.32.35h-2v3.21h-2v-8.49h4.05A2.61,2.61,0,0,1,126.69,340.47Zm-.83,1.67a.82.82,0,0,0-.57-.28h-2v1.8h2a.8.8,0,0,0,.57-.29.91.91,0,0,0,.24-.62A.87.87,0,0,0,125.86,342.14Z"/><path class="cls-3" d="M135.63,340.13v5.25a3.31,3.31,0,0,1-.45,1.68,3.42,3.42,0,0,1-1.23,1.22,3.27,3.27,0,0,1-1.68.44h-.2a3.3,3.3,0,0,1-1.68-.44,3.45,3.45,0,0,1-1.21-1.22,3.31,3.31,0,0,1-.45-1.68v-5.25h2v4.77a2,2,0,0,0,.36,1.23,1.16,1.16,0,0,0,1,.5h.2a1.16,1.16,0,0,0,1-.5,2,2,0,0,0,.38-1.23v-4.77Z"/><path class="cls-3" d="M143,345a2.35,2.35,0,0,1,.28,1.14,2.43,2.43,0,0,1-1.21,2.1,2.48,2.48,0,0,1-1.23.35h-4.23v-8.5h3.85a2.26,2.26,0,0,1,1.23.34,2.37,2.37,0,0,1,.87.88,2.3,2.3,0,0,1,.32,1.2,2.27,2.27,0,0,1-.17.89,2.41,2.41,0,0,1-.46.75A2.28,2.28,0,0,1,143,345Zm-2.24-2.91a.83.83,0,0,0-.61-.26h-1.56v1.8h1.56a1.84,1.84,0,0,0,.28,0,1,1,0,0,0,.22-.12,1,1,0,0,0,.28-.32,1,1,0,0,0,.09-.42A.82.82,0,0,0,140.74,342.11Zm.36,4.48a.82.82,0,0,0,.25-.64.92.92,0,0,0-.2-.57.89.89,0,0,0-.52-.3s-.62,0-1.7,0h-.36v1.81h1.92A.85.85,0,0,0,141.1,346.59Z"/><path class="cls-3" d="M146.14,346.56h3.33v2.05H144v-8.49h2.16Z"/><path class="cls-3" d="M152.47,340.12v8.49h-2.16v-8.49Z"/><path class="cls-3" d="M158.33,346.43a2.52,2.52,0,0,0,.72-.48l1.46,1.47a4.31,4.31,0,0,1-1.38.93,4.29,4.29,0,0,1-5.94-4,4.27,4.27,0,0,1,4.29-4.29,4.19,4.19,0,0,1,1.65.33,4.31,4.31,0,0,1,1.38.93l-1.46,1.46a2.3,2.3,0,0,0-.72-.47,2.09,2.09,0,0,0-.85-.18,2.15,2.15,0,0,0-1.11.3,2.3,2.3,0,0,0-.8.81,2.2,2.2,0,0,0,0,2.22,2.36,2.36,0,0,0,.8.8,2.15,2.15,0,0,0,1.11.3A2.26,2.26,0,0,0,158.33,346.43Z"/><path class="cls-3" d="M168.71,342.81v-.16a.75.75,0,0,0-.29-.59,1.07,1.07,0,0,0-.72-.25,1.12,1.12,0,0,0-.74.25.73.73,0,0,0-.3.59.55.55,0,0,0,.31.52,2.54,2.54,0,0,0,.82.33l.18,0,.21,0a4.11,4.11,0,0,1,1.72.71l.11.09a2.67,2.67,0,0,1,.57.83,2.38,2.38,0,0,1,.21,1,2.32,2.32,0,0,1-.24,1,2.58,2.58,0,0,1-.68.88,3.1,3.1,0,0,1-1,.57,3.61,3.61,0,0,1-1.18.2,3.51,3.51,0,0,1-1.17-.2,3.1,3.1,0,0,1-1-.57,2.75,2.75,0,0,1-.69-.88,2.32,2.32,0,0,1-.24-1V346h2.1v.15a.77.77,0,0,0,.3.6,1.06,1.06,0,0,0,.7.24,1.17,1.17,0,0,0,.74-.24.77.77,0,0,0,.3-.6.69.69,0,0,0-.32-.53,1.56,1.56,0,0,0-.34-.18,4.38,4.38,0,0,0-.46-.14l-.4-.1c-.44-.11-.78-.21-1-.3a2,2,0,0,1-.69-.4l0,0a2.51,2.51,0,0,1-.63-.84,2.25,2.25,0,0,1-.23-1,2.32,2.32,0,0,1,.24-1,2.61,2.61,0,0,1,.69-.87,3.32,3.32,0,0,1,1-.58,3.5,3.5,0,0,1,1.17-.19,3.6,3.6,0,0,1,1.18.19,3.32,3.32,0,0,1,1,.58,2.46,2.46,0,0,1,.68.87,2.32,2.32,0,0,1,.24,1v.16Z"/><path class="cls-3" d="M176.88,340.47a2.7,2.7,0,0,1,1,1,2.61,2.61,0,0,1,.35,1.32,2.67,2.67,0,0,1-.35,1.33,2.76,2.76,0,0,1-1,1,2.67,2.67,0,0,1-1.33.35h-2v3.21h-2v-8.49h4A2.67,2.67,0,0,1,176.88,340.47Zm-.83,1.67a.86.86,0,0,0-.57-.28h-2v1.8h2a.83.83,0,0,0,.57-.29,1,1,0,0,0,.23-.62A.91.91,0,0,0,176.05,342.14Z"/><path class="cls-3" d="M183.33,340.21l2.77,8.4H184l-.55-1.72h-2.63l-.54,1.72h-2.1l2.78-8.4Zm-1.94,4.93h1.52l-.76-2.38Z"/><path class="cls-3" d="M191.23,346.43A2.27,2.27,0,0,0,192,346l1.47,1.47a4.31,4.31,0,0,1-1.38.93,4.2,4.2,0,0,1-1.66.33,4.25,4.25,0,0,1-2.15-.58,4.32,4.32,0,0,1-1.56-1.56,4.34,4.34,0,0,1,0-4.3,4.43,4.43,0,0,1,1.56-1.57,4.34,4.34,0,0,1,3.81-.24,4.31,4.31,0,0,1,1.38.93L192,342.82a2.09,2.09,0,0,0-.72-.47,2.06,2.06,0,0,0-.85-.18,2.09,2.09,0,0,0-1.1.3,2.25,2.25,0,0,0-.81.81,2.2,2.2,0,0,0,0,2.22,2.3,2.3,0,0,0,.81.8,2.09,2.09,0,0,0,1.1.3A2.22,2.22,0,0,0,191.23,346.43Z"/><path class="cls-3" d="M199.91,346.77v1.84h-5.77v-8.49h5.66V342h-3.49v1.49h2.94v1.83h-2.94v1.49Z"/><path class="cls-3" d="M201,348.26a1.2,1.2,0,0,1-.32-.83,1.11,1.11,0,0,1,1.12-1.1,1.14,1.14,0,0,1,1.14,1.13,1.13,1.13,0,0,1-.34.81,1.1,1.1,0,0,1-.8.34A1.06,1.06,0,0,1,201,348.26Z"/><rect class="cls-4" x="32.09" y="326.09" width="8.5" height="8.5"/><path class="cls-3" d="M50.06,357.44a4.45,4.45,0,0,1,1.27.31,3.63,3.63,0,0,1,1.17.73,4,4,0,0,1,1,1.46,4.3,4.3,0,0,1-.1,3.7,3.94,3.94,0,0,1-1.31,1.5,4.59,4.59,0,0,1-1.73.67,12.38,12.38,0,0,1-2.14.17l-1,0h-.93v-8.58h2.17A14,14,0,0,1,50.06,357.44Zm1.78,4.24a2.18,2.18,0,0,0-.28-1.08,2.42,2.42,0,0,0-.79-.83,2.17,2.17,0,0,0-1.09-.32H48.51v4.43a10.33,10.33,0,0,0,1.48-.1,2.6,2.6,0,0,0,1.12-.48,1.9,1.9,0,0,0,.67-1.11A2.5,2.5,0,0,0,51.84,361.68Z"/><path class="cls-3" d="M60.4,364.12V366H54.63v-8.48h5.66v1.83H56.8v1.49h2.94v1.84H56.8v1.49Z"/><path class="cls-3" d="M66.94,357.45h2.35L66.52,366H63.88l-2.76-8.5H63.5l1.71,5.3Z"/><path class="cls-3" d="M75.78,364.12V366H70v-8.48h5.67v1.83h-3.5v1.49h2.94v1.84H72.18v1.49Z"/><path class="cls-3" d="M78.9,363.91h3.34v2h-5.5v-8.48H78.9Z"/><path class="cls-3" d="M89.28,358a4.27,4.27,0,0,1,1.56,1.57,4.17,4.17,0,0,1,.58,2.16,4.09,4.09,0,0,1-.58,2.14,4.17,4.17,0,0,1-1.56,1.56,4.09,4.09,0,0,1-2.14.58,4.3,4.3,0,0,1-3.72-2.14,4.09,4.09,0,0,1-.58-2.14,4.17,4.17,0,0,1,.58-2.16,4.24,4.24,0,0,1,3.72-2.14A4.18,4.18,0,0,1,89.28,358Zm-1,5.63a2.19,2.19,0,0,0,.8-.8,2.12,2.12,0,0,0,.3-1.1,2.25,2.25,0,0,0-1.1-1.92,2,2,0,0,0-1.1-.31,2.07,2.07,0,0,0-1.11.31,2.23,2.23,0,0,0-1.11,1.92,2.12,2.12,0,0,0,.3,1.1,2.22,2.22,0,0,0,.81.8,2.15,2.15,0,0,0,1.11.3A2.12,2.12,0,0,0,88.24,363.67Z"/><path class="cls-3" d="M97.51,357.82a2.76,2.76,0,0,1,1,1,2.7,2.7,0,0,1,0,2.66,2.65,2.65,0,0,1-1,.95,2.55,2.55,0,0,1-1.33.36h-2V366h-2v-8.48h4A2.64,2.64,0,0,1,97.51,357.82Zm-.83,1.67a.8.8,0,0,0-.57-.28h-2V361h2a.83.83,0,0,0,.57-.3.9.9,0,0,0,0-1.22Z"/><path class="cls-3" d="M101.7,357.47V366H99.54v-8.48Z"/><path class="cls-3" d="M107.33,357.47h2.16V366h-2.16l-2.5-4.54V366h-2.17v-8.48h2.17l2.5,4.55Z"/><path class="cls-3" d="M118.79,361.75a4.19,4.19,0,0,1-.57,2.15,4.27,4.27,0,0,1-1.57,1.56,4.16,4.16,0,0,1-2.15.58,4.1,4.1,0,0,1-2.15-.58,4.17,4.17,0,0,1-1.56-1.56,4.1,4.1,0,0,1-.58-2.15,4.16,4.16,0,0,1,.58-2.15,4.27,4.27,0,0,1,1.56-1.57,4.19,4.19,0,0,1,2.15-.57,4.25,4.25,0,0,1,1.67.33,4.35,4.35,0,0,1,1.37.94l-1.93,1.1a2.12,2.12,0,0,0-1.11-.3,2.15,2.15,0,0,0-1.11.3,2.3,2.3,0,0,0-.8.81,2.2,2.2,0,0,0,0,2.22,2.36,2.36,0,0,0,.8.8,2.2,2.2,0,0,0,2.27,0,2.31,2.31,0,0,0,.82-.88h-2.67v-2h4.86A4.59,4.59,0,0,1,118.79,361.75Z"/><path class="cls-3" d="M129.32,358a4.43,4.43,0,0,1,1.56,1.57,4.25,4.25,0,0,1,.57,2.16,4.18,4.18,0,0,1-.57,2.14,4.32,4.32,0,0,1-1.56,1.56,4.29,4.29,0,0,1-5.87-1.56,4.09,4.09,0,0,1-.58-2.14,4.17,4.17,0,0,1,.58-2.16,4.31,4.31,0,0,1,5.87-1.57Zm-1,5.63a2.22,2.22,0,0,0,.81-.8,2.12,2.12,0,0,0,.3-1.1,2.23,2.23,0,0,0-1.11-1.92,2,2,0,0,0-1.1-.31,2.07,2.07,0,0,0-1.11.31,2.23,2.23,0,0,0-1.11,1.92,2.12,2.12,0,0,0,.3,1.1,2.22,2.22,0,0,0,.81.8,2.15,2.15,0,0,0,1.11.3A2.09,2.09,0,0,0,128.27,363.67Z"/><path class="cls-3" d="M138.08,359.3h-3.75v1.49h3v1.84h-3V366h-2.16v-8.48h5.91Z"/><path class="cls-3" d="M147.77,357.82a2.76,2.76,0,0,1,1,1,2.63,2.63,0,0,1-1,3.61,2.58,2.58,0,0,1-1.33.36h-2V366h-2v-8.48h4A2.67,2.67,0,0,1,147.77,357.82Zm-.83,1.67a.82.82,0,0,0-.57-.28h-2V361h2a.85.85,0,0,0,.57-.3.92.92,0,0,0,0-1.22Z"/><path class="cls-3" d="M156.72,366h-2.17l-1.34-3.2h-1.38V366h-2v-8.48h4a2.61,2.61,0,0,1,1.32.35,2.65,2.65,0,0,1,1,1,2.67,2.67,0,0,1,0,2.59,2.85,2.85,0,0,1-.88.95Zm-2.38-6.46a.8.8,0,0,0-.57-.28h-2V361h2a.83.83,0,0,0,.57-.3.88.88,0,0,0,.22-.61A.9.9,0,0,0,154.34,359.49Z"/><path class="cls-3" d="M163.65,358a4.43,4.43,0,0,1,1.56,1.57,4.25,4.25,0,0,1,.57,2.16,4.18,4.18,0,0,1-.57,2.14,4.32,4.32,0,0,1-1.56,1.56,4.27,4.27,0,0,1-4.3,0,4.28,4.28,0,0,1-2.15-3.7,4.31,4.31,0,0,1,2.15-3.73,4.34,4.34,0,0,1,4.3,0Zm-1.05,5.63a2.22,2.22,0,0,0,.81-.8,2.12,2.12,0,0,0,.3-1.1,2.23,2.23,0,0,0-1.11-1.92,2,2,0,0,0-1.1-.31,2.07,2.07,0,0,0-1.11.31,2.23,2.23,0,0,0-1.11,1.92,2.12,2.12,0,0,0,.3,1.1,2.22,2.22,0,0,0,.81.8,2.15,2.15,0,0,0,1.11.3A2.09,2.09,0,0,0,162.6,363.67Z"/><path class="cls-3" d="M173,357.47h2.16V366H173v-4.78l-1,1.91-.05.1h-2.16l-.06-.1-.14-.27-.9-1.64V366H166.5v-8.48h2.18l2.18,3.61Z"/><path class="cls-3" d="M182.37,358a4.43,4.43,0,0,1,1.56,1.57,4.25,4.25,0,0,1,.57,2.16,4.18,4.18,0,0,1-.57,2.14,4.32,4.32,0,0,1-1.56,1.56,4.27,4.27,0,0,1-4.3,0,4.28,4.28,0,0,1-2.15-3.7,4.31,4.31,0,0,1,2.15-3.73,4.34,4.34,0,0,1,4.3,0Zm-1.05,5.63a2.22,2.22,0,0,0,.81-.8,2.12,2.12,0,0,0,.3-1.1,2.23,2.23,0,0,0-1.11-1.92,2,2,0,0,0-1.1-.31,2.07,2.07,0,0,0-1.11.31,2.23,2.23,0,0,0-1.11,1.92,2.12,2.12,0,0,0,.3,1.1,2.22,2.22,0,0,0,.81.8,2.15,2.15,0,0,0,1.11.3A2.09,2.09,0,0,0,181.32,363.67Z"/><path class="cls-3" d="M193.72,363.78a2.52,2.52,0,0,0,.72-.48l1.46,1.47a4.48,4.48,0,0,1-1.38.93,4.28,4.28,0,0,1-3.8-.25,4.32,4.32,0,0,1-1.56-1.56,4.27,4.27,0,0,1,0-4.3,4.27,4.27,0,0,1,1.56-1.57,4.22,4.22,0,0,1,2.15-.57,4,4,0,0,1,1.65.33,4.15,4.15,0,0,1,1.38.93l-1.46,1.46a2.3,2.3,0,0,0-.72-.47,2.09,2.09,0,0,0-.85-.18,2.15,2.15,0,0,0-1.11.3,2.3,2.3,0,0,0-.8.81,2.2,2.2,0,0,0,0,2.22,2.36,2.36,0,0,0,.8.8,2.15,2.15,0,0,0,1.11.3A2.26,2.26,0,0,0,193.72,363.78Z"/><path class="cls-3" d="M201,357.55l2.77,8.4h-2.09l-.55-1.71h-2.63L198,366h-2.1l2.79-8.4Zm-1.93,4.94h1.51l-.76-2.38Z"/><path class="cls-3" d="M210.59,357.47h2.16V366h-2.16v-4.78l-1.05,1.91,0,.1h-2.16l-.06-.1-.15-.27-.9-1.64V366h-2.17v-8.48h2.17l2.19,3.61Z"/><path class="cls-3" d="M219.08,357.82a2.68,2.68,0,0,1,1,1,2.63,2.63,0,0,1-1,3.61,2.53,2.53,0,0,1-1.33.36h-2V366h-2v-8.48h4A2.62,2.62,0,0,1,219.08,357.82Zm-.83,1.67a.79.79,0,0,0-.57-.28h-2V361h2a.81.81,0,0,0,.57-.3.9.9,0,0,0,0-1.22Z"/><path class="cls-3" d="M225.53,357.55l2.77,8.4h-2.09l-.55-1.71H223L222.5,366h-2.11l2.79-8.4Zm-1.93,4.94h1.51l-.75-2.38Z"/><path class="cls-3" d="M230.7,357.47V366h-2.16v-8.48Z"/><path class="cls-3" d="M240,361.75a4.19,4.19,0,0,1-.57,2.15,4.27,4.27,0,0,1-1.57,1.56,4.16,4.16,0,0,1-2.15.58,4.1,4.1,0,0,1-2.15-.58,4.3,4.3,0,0,1-2.14-3.71,4.33,4.33,0,0,1,2.14-3.72,4.19,4.19,0,0,1,2.15-.57,4.25,4.25,0,0,1,1.67.33,4.35,4.35,0,0,1,1.37.94l-1.93,1.1a2.1,2.1,0,0,0-1.11-.3,2.15,2.15,0,0,0-1.11.3,2.3,2.3,0,0,0-.8.81,2.2,2.2,0,0,0,0,2.22,2.36,2.36,0,0,0,.8.8,2.2,2.2,0,0,0,2.27,0,2.24,2.24,0,0,0,.82-.88H235v-2h4.86A4.59,4.59,0,0,1,240,361.75Z"/><path class="cls-3" d="M245.39,357.47h2.16V366h-2.16l-2.5-4.54V366h-2.17v-8.48h2.17l2.5,4.55Z"/><path class="cls-3" d="M248.59,365.61a1.22,1.22,0,0,1-.32-.83,1,1,0,0,1,.33-.78,1.07,1.07,0,0,1,.79-.33,1.1,1.1,0,0,1,.8.34,1.07,1.07,0,0,1,.34.8,1.14,1.14,0,0,1-1.14,1.14A1.07,1.07,0,0,1,248.59,365.61Z"/><rect class="cls-4" x="32.09" y="357.78" width="8.5" height="8.5"/><rect class="cls-4" x="32.09" y="374.12" width="8.5" height="8.5"/><path class="cls-3" d="M39,203.35v2.16H36.8v6.32H34.62v-6.32H32.45v-2.16H39Z"/><path class="cls-3" d="M45.58,210v1.83H39.81v-8.48h5.66v1.84H42v1.48h2.94v1.84H42V210Z"/><path class="cls-3" d="M48.7,209.79H52v2h-5.5v-8.48H48.7Z"/><path class="cls-3" d="M58.65,210v1.83H52.88v-8.48h5.66v1.84H55.05v1.48H58v1.84H55.05V210Z"/><path class="cls-3" d="M63.48,206v-.16a.72.72,0,0,0-.29-.59,1,1,0,0,0-.71-.25,1.11,1.11,0,0,0-.74.25.72.72,0,0,0-.31.59.57.57,0,0,0,.31.52,2.9,2.9,0,0,0,.82.33l.19,0,.21,0a4.12,4.12,0,0,1,1.71.71l.11.09a2.56,2.56,0,0,1,.57.83,2.38,2.38,0,0,1,.21,1,2.46,2.46,0,0,1-.23,1,2.86,2.86,0,0,1-.68.88,3.59,3.59,0,0,1-3.36.57,3.66,3.66,0,0,1-1-.57,2.86,2.86,0,0,1-.68-.88,2.32,2.32,0,0,1-.24-1v-.16h2.1v.16a.75.75,0,0,0,.29.59,1,1,0,0,0,.7.25,1.11,1.11,0,0,0,.74-.25.72.72,0,0,0,.31-.59.69.69,0,0,0-.33-.53,1.29,1.29,0,0,0-.33-.18c-.13,0-.29-.09-.47-.14l-.4-.1c-.44-.11-.78-.21-1-.3a2,2,0,0,1-.68-.41l-.05,0a2.81,2.81,0,0,1-.63-.84,2.33,2.33,0,0,1,0-2,2.86,2.86,0,0,1,.68-.88,3.42,3.42,0,0,1,1-.57,3.73,3.73,0,0,1,2.35,0,3.34,3.34,0,0,1,1,.57,2.86,2.86,0,0,1,.68.88,2.46,2.46,0,0,1,.23,1V206Z"/><path class="cls-3" d="M71.18,209.65a2.3,2.3,0,0,0,.72-.47l1.46,1.46a4.34,4.34,0,0,1-1.38.94,4.38,4.38,0,0,1-1.66.32,4.26,4.26,0,0,1-3.7-2.13,4.27,4.27,0,0,1,0-4.3,4.27,4.27,0,0,1,1.56-1.57,4.18,4.18,0,0,1,2.14-.57,4.38,4.38,0,0,1,1.66.32,4.66,4.66,0,0,1,1.38.93l-1.46,1.47a2.3,2.3,0,0,0-.72-.47,2.14,2.14,0,0,0-.86-.18,2.12,2.12,0,0,0-1.1.3,2.22,2.22,0,0,0-.8.81,2.15,2.15,0,0,0-.3,1.11,2.09,2.09,0,0,0,.3,1.1,2.22,2.22,0,0,0,.8.81,2.12,2.12,0,0,0,1.1.3A2.14,2.14,0,0,0,71.18,209.65Z"/><path class="cls-3" d="M81,211.83H78.83l-1.34-3.2H76.11v3.2h-2v-8.48h4a2.61,2.61,0,0,1,1.32.35,2.65,2.65,0,0,1,1,1,2.56,2.56,0,0,1,.35,1.32,2.46,2.46,0,0,1-.32,1.26,2.79,2.79,0,0,1-.88,1Zm-2.38-6.46a.84.84,0,0,0-.57-.28h-2v1.8h2a.86.86,0,0,0,.57-.29.92.92,0,0,0,.22-.62A.9.9,0,0,0,78.62,205.37Z"/><path class="cls-3" d="M83.88,203.35v8.48H81.72v-8.48Z"/><path class="cls-3" d="M89.51,203.35h2.16v8.48H89.51L87,207.29v4.54H84.84v-8.48H87l2.49,4.55Z"/><path class="cls-3" d="M98.39,203.35v8.48H96.23v-8.48Z"/><path class="cls-3" d="M103.23,206v-.16a.73.73,0,0,0-.3-.59,1,1,0,0,0-.71-.25,1.11,1.11,0,0,0-.74.25.74.74,0,0,0-.31.59.56.56,0,0,0,.32.52,2.83,2.83,0,0,0,.81.33l.19,0,.21,0a4.17,4.17,0,0,1,1.72.71l.1.09a2.56,2.56,0,0,1,.57.83,2.38,2.38,0,0,1,.21,1,2.46,2.46,0,0,1-.23,1,2.71,2.71,0,0,1-.68.88,3.57,3.57,0,0,1-1,.57,3.42,3.42,0,0,1-3.34-.57,2.75,2.75,0,0,1-.69-.88,2.32,2.32,0,0,1-.24-1v-.16h2.1v.16a.75.75,0,0,0,.29.59,1,1,0,0,0,.71.25A1.12,1.12,0,0,0,103,210a.73.73,0,0,0,.3-.59.7.7,0,0,0-.32-.53,1.56,1.56,0,0,0-.34-.18,4.65,4.65,0,0,0-.47-.14l-.39-.1a10.25,10.25,0,0,1-1-.3,2,2,0,0,1-.69-.41l-.05,0a2.81,2.81,0,0,1-.63-.84,2.33,2.33,0,0,1,0-2A2.75,2.75,0,0,1,100,204a3.29,3.29,0,0,1,1-.57,3.7,3.7,0,0,1,2.34,0,3.34,3.34,0,0,1,1,.57,2.71,2.71,0,0,1,.68.88,2.46,2.46,0,0,1,.23,1V206Z"/><path class="cls-3" d="M114,203.43l2.77,8.4h-2.09l-.55-1.71h-2.63l-.54,1.71h-2.1l2.79-8.4Zm-1.93,4.94h1.51l-.76-2.38Z"/><path class="cls-3" d="M127.05,203.35v2.16h-2.18v6.32H122.7v-6.32h-2.17v-2.16h6.52Z"/><path class="cls-3" d="M133.66,210v1.83h-5.77v-8.48h5.66v1.84h-3.49v1.48H133v1.84h-2.94V210Z"/><path class="cls-3" d="M139,203.43l2.78,8.4h-2.09l-.55-1.71h-2.63l-.54,1.71h-2.1l2.78-8.4Zm-1.93,4.94h1.51l-.75-2.38Z"/><path class="cls-3" d="M148.58,203.35h2.17v8.48h-2.17V207L147.53,209l-.05.1h-2.16l-.06-.1-.14-.27-.9-1.65v4.79H142v-8.48h2.18L146.4,207Z"/><path class="cls-3" d="M161.51,203.92a4.35,4.35,0,0,1,1.56,1.57,4.24,4.24,0,0,1,.57,2.15,4.19,4.19,0,0,1-.57,2.15,4.24,4.24,0,0,1-1.56,1.56,4.27,4.27,0,0,1-4.3,0,4.27,4.27,0,0,1-1.57-1.56,4.19,4.19,0,0,1-.57-2.15,4.24,4.24,0,0,1,.57-2.15,4.38,4.38,0,0,1,1.57-1.57,4.34,4.34,0,0,1,4.3,0Zm-1,5.63a2.3,2.3,0,0,0,.81-.8,2.19,2.19,0,0,0,0-2.21,2.35,2.35,0,0,0-.81-.82,2.19,2.19,0,0,0-1.1-.3,2.25,2.25,0,0,0-1.11.3,2.35,2.35,0,0,0-.81.82,2.19,2.19,0,0,0,0,2.21,2.3,2.3,0,0,0,.81.8,2.15,2.15,0,0,0,1.11.3A2.09,2.09,0,0,0,160.46,209.55Z"/><path class="cls-3" d="M170.27,205.19h-3.74v1.48h3v1.84h-3v3.32h-2.16v-8.48h5.9Z"/><path class="cls-3" d="M181,208.25a2.44,2.44,0,0,1,.27,1.13,2.41,2.41,0,0,1-.32,1.22,2.45,2.45,0,0,1-.89.89,2.36,2.36,0,0,1-1.22.34h-4.24v-8.48h3.85a2.37,2.37,0,0,1,1.24.33,2.65,2.65,0,0,1,.87.89,2.41,2.41,0,0,1-.32,2.83A2.52,2.52,0,0,1,181,208.25Zm-2.24-2.92a.84.84,0,0,0-.62-.25h-1.56v1.8h1.56l.29,0,.21-.12a1,1,0,0,0,.28-.33A.93.93,0,0,0,179,206,.88.88,0,0,0,178.75,205.33Zm.36,4.49a.94.94,0,0,0,0-1.21,1,1,0,0,0-.52-.31h-2.06v1.8h1.92A.93.93,0,0,0,179.11,209.82Z"/><path class="cls-3" d="M184.14,209.79h3.34v2H182v-8.48h2.16Z"/><path class="cls-3" d="M194.52,203.92a4.33,4.33,0,0,1,2.14,3.72,4.3,4.3,0,0,1-2.14,3.71,4.1,4.1,0,0,1-2.15.58,4.16,4.16,0,0,1-2.15-.58,4.27,4.27,0,0,1-1.57-1.56,4.19,4.19,0,0,1-.57-2.15,4.24,4.24,0,0,1,.57-2.15,4.38,4.38,0,0,1,1.57-1.57,4.24,4.24,0,0,1,2.15-.57A4.19,4.19,0,0,1,194.52,203.92Zm-1,5.63a2.36,2.36,0,0,0,.8-.8,2.19,2.19,0,0,0,0-2.21,2.41,2.41,0,0,0-.8-.82,2.2,2.2,0,0,0-2.22,0,2.35,2.35,0,0,0-.81.82,2.19,2.19,0,0,0,0,2.21,2.3,2.3,0,0,0,.81.8,2.2,2.2,0,0,0,2.22,0Z"/><path class="cls-3" d="M202.27,209.65a2.19,2.19,0,0,0,.72-.47l1.47,1.46a4.34,4.34,0,0,1-1.38.94,4.42,4.42,0,0,1-1.66.32,4.24,4.24,0,0,1-2.15-.57,4.32,4.32,0,0,1-1.56-1.56,4.34,4.34,0,0,1,0-4.3,4.43,4.43,0,0,1,1.56-1.57,4.24,4.24,0,0,1,2.15-.57,4.42,4.42,0,0,1,1.66.32,4.66,4.66,0,0,1,1.38.93L203,206.05a2.19,2.19,0,0,0-.72-.47,2.06,2.06,0,0,0-.85-.18,2.09,2.09,0,0,0-1.1.3,2.25,2.25,0,0,0-.81.81,2.15,2.15,0,0,0-.3,1.11,2.09,2.09,0,0,0,.3,1.1,2.25,2.25,0,0,0,.81.81,2.09,2.09,0,0,0,1.1.3A2.06,2.06,0,0,0,202.27,209.65Z"/><path class="cls-3" d="M209.29,207.55l2.54,4.28h-2.41l-2.08-3.42v3.42h-2.16v-8.48h2.16v3.31l2.08-3.31h2.41Z"/><path class="cls-3" d="M217.68,209.65a2.3,2.3,0,0,0,.72-.47l1.47,1.46a4.57,4.57,0,0,1-1.38.94,4.46,4.46,0,0,1-1.66.32,4.22,4.22,0,0,1-2.15-.57,4.17,4.17,0,0,1-1.56-1.56,4.27,4.27,0,0,1,0-4.3,4.27,4.27,0,0,1,1.56-1.57,4.22,4.22,0,0,1,2.15-.57,4.46,4.46,0,0,1,1.66.32,4.93,4.93,0,0,1,1.38.93l-1.47,1.47a2.3,2.3,0,0,0-.72-.47,2.06,2.06,0,0,0-.85-.18,2.15,2.15,0,0,0-1.11.3,2.3,2.3,0,0,0-.8.81,2.15,2.15,0,0,0-.3,1.11,2.09,2.09,0,0,0,.3,1.1,2.3,2.3,0,0,0,.8.81,2.15,2.15,0,0,0,1.11.3A2.06,2.06,0,0,0,217.68,209.65Z"/><path class="cls-3" d="M225.17,203.35h2.16v8.48h-2.16v-3.16h-2.42v3.16h-2.17v-8.48h2.17v3.15h2.42Z"/><path class="cls-3" d="M232.71,203.43l2.77,8.4h-2.09l-.55-1.71h-2.63l-.54,1.71h-2.1l2.78-8.4Zm-1.94,4.94h1.52l-.76-2.38Z"/><path class="cls-3" d="M237.88,203.35v8.48h-2.16v-8.48Z"/><path class="cls-3" d="M243.5,203.35h2.17v8.48H243.5L241,207.29v4.54h-2.17v-8.48H241l2.49,4.55Z"/><path class="cls-3" d="M253.94,203.32a4.44,4.44,0,0,1,1.28.31,3.63,3.63,0,0,1,1.17.73,4.16,4.16,0,0,1,1,1.45,4.47,4.47,0,0,1,.37,1.75,4.17,4.17,0,0,1-.47,2A4,4,0,0,1,256,211a4.66,4.66,0,0,1-1.72.68,13.58,13.58,0,0,1-2.15.16h-1l-.94,0v-8.58h2.18C253,203.25,253.51,203.28,253.94,203.32Zm1.79,4.24a2.12,2.12,0,0,0-.29-1.09,2.27,2.27,0,0,0-.78-.82,2.2,2.2,0,0,0-1.09-.32H252.4v4.43a9,9,0,0,0,1.48-.11,2.39,2.39,0,0,0,1.11-.47,1.85,1.85,0,0,0,.68-1.12A2.34,2.34,0,0,0,255.73,207.56Z"/><path class="cls-3" d="M264.29,210v1.83h-5.77v-8.48h5.66v1.84h-3.49v1.48h2.94v1.84h-2.94V210Z"/><path class="cls-3" d="M270.83,203.33h2.35l-2.77,8.5h-2.64l-2.76-8.5h2.37l1.72,5.3Z"/><path class="cls-3" d="M279.67,210v1.83H273.9v-8.48h5.66v1.84h-3.49v1.48H279v1.84h-2.94V210Z"/><path class="cls-3" d="M282.79,209.79h3.34v2h-5.5v-8.48h2.16Z"/><path class="cls-3" d="M293.17,203.92a4.27,4.27,0,0,1,1.56,1.57,4.16,4.16,0,0,1,.58,2.15,4.1,4.1,0,0,1-.58,2.15,4.17,4.17,0,0,1-1.56,1.56,4.1,4.1,0,0,1-2.15.58,4.16,4.16,0,0,1-2.15-.58,4.27,4.27,0,0,1-1.57-1.56,4.19,4.19,0,0,1-.57-2.15,4.24,4.24,0,0,1,.57-2.15,4.38,4.38,0,0,1,1.57-1.57,4.24,4.24,0,0,1,2.15-.57A4.19,4.19,0,0,1,293.17,203.92Zm-1,5.63a2.36,2.36,0,0,0,.8-.8,2.19,2.19,0,0,0,0-2.21,2.41,2.41,0,0,0-.8-.82,2.2,2.2,0,0,0-2.22,0,2.35,2.35,0,0,0-.81.82,2.19,2.19,0,0,0,0,2.21,2.3,2.3,0,0,0,.81.8,2.2,2.2,0,0,0,2.22,0Z"/><path class="cls-3" d="M301.4,203.7a2.76,2.76,0,0,1,1,1,2.67,2.67,0,0,1,.35,1.33,2.61,2.61,0,0,1-.35,1.32,2.7,2.7,0,0,1-1,1,2.67,2.67,0,0,1-1.33.35h-2v3.2h-2v-8.48h4A2.67,2.67,0,0,1,301.4,203.7Zm-.83,1.67a.86.86,0,0,0-.57-.28h-2v1.8h2a.83.83,0,0,0,.57-.29.9.9,0,0,0,.23-.62A.86.86,0,0,0,300.57,205.37Z"/><path class="cls-3" d="M309.2,210v1.83h-5.77v-8.48h5.67v1.84h-3.5v1.48h2.94v1.84H305.6V210Z"/><path class="cls-3" d="M317.09,211.83h-2.17l-1.35-3.2h-1.38v3.2h-2v-8.48h4a2.66,2.66,0,0,1,1.32.35,2.69,2.69,0,0,1,1.32,2.29,2.47,2.47,0,0,1-.33,1.26,2.67,2.67,0,0,1-.87,1Zm-2.39-6.46a.82.82,0,0,0-.56-.28h-2v1.8h2a.83.83,0,0,0,.56-.29.93.93,0,0,0,.23-.62A.91.91,0,0,0,314.7,205.37Z"/><path class="cls-3" d="M321.68,206v-.16a.75.75,0,0,0-.29-.59,1,1,0,0,0-.71-.25,1.11,1.11,0,0,0-.74.25.72.72,0,0,0-.31.59.57.57,0,0,0,.31.52,2.9,2.9,0,0,0,.82.33l.19,0,.21,0a4.12,4.12,0,0,1,1.71.71l.11.09a2.56,2.56,0,0,1,.57.83,2.38,2.38,0,0,1,.21,1,2.46,2.46,0,0,1-.23,1,2.86,2.86,0,0,1-.68.88,3.71,3.71,0,0,1-1,.57,3.73,3.73,0,0,1-2.35,0,3.66,3.66,0,0,1-1-.57,2.86,2.86,0,0,1-.68-.88,2.32,2.32,0,0,1-.24-1v-.16h2.1v.16a.75.75,0,0,0,.29.59,1,1,0,0,0,.7.25,1.11,1.11,0,0,0,.74-.25.72.72,0,0,0,.31-.59.69.69,0,0,0-.33-.53,1.48,1.48,0,0,0-.33-.18c-.13,0-.29-.09-.47-.14l-.4-.1c-.44-.11-.78-.21-1-.3a2,2,0,0,1-.68-.41l-.05,0a2.81,2.81,0,0,1-.63-.84,2.33,2.33,0,0,1,0-2,2.86,2.86,0,0,1,.68-.88,3.42,3.42,0,0,1,1-.57,3.73,3.73,0,0,1,2.35,0,3.47,3.47,0,0,1,1,.57,2.86,2.86,0,0,1,.68.88,2.46,2.46,0,0,1,.23,1V206Z"/><path class="cls-3" d="M39.4,217.75h1.87v8.48H39.11l-2.18-3.61-2.2,3.61H32.57v-8.48h2.16v4.79l1.06-1.92.06-.1H38l.05.1,1,1.92v-4.79Z"/><path class="cls-3" d="M46.82,217.75H49v8.48H46.82v-3.17H44.39v3.17H42.23v-8.48h2.16v3.15h2.43Z"/><path class="cls-3" d="M52.1,217.75v8.48H49.94v-8.48Z"/><path class="cls-3" d="M58,224.05a2.3,2.3,0,0,0,.72-.47L60.14,225a4.15,4.15,0,0,1-1.38.93,4.07,4.07,0,0,1-1.66.33,4.22,4.22,0,0,1-2.15-.57,4.4,4.4,0,0,1-1.56-1.56,4.34,4.34,0,0,1,0-4.3A4.43,4.43,0,0,1,55,218.3a4.3,4.3,0,0,1,3.81-.25,4.48,4.48,0,0,1,1.38.93l-1.47,1.47A2.52,2.52,0,0,0,58,220a2.22,2.22,0,0,0-.85-.17,2.09,2.09,0,0,0-1.1.3,2.25,2.25,0,0,0-.81.81,2.2,2.2,0,0,0,0,2.22,2.3,2.3,0,0,0,.81.8,2.09,2.09,0,0,0,1.1.3A2.06,2.06,0,0,0,58,224.05Z"/><path class="cls-3" d="M65.44,217.75H67.6v8.48H65.44v-3.17H63v3.17H60.86v-8.48H63v3.15h2.42Z"/><path class="cls-3" d="M75.88,217.72a4.88,4.88,0,0,1,1.28.31,3.63,3.63,0,0,1,1.17.73,4.29,4.29,0,0,1,1,1.45,4.46,4.46,0,0,1,.36,1.75,4.06,4.06,0,0,1-.47,2,3.94,3.94,0,0,1-1.31,1.5,4.52,4.52,0,0,1-1.73.67,12.29,12.29,0,0,1-2.14.17h-1l-.94,0v-8.58h2.17A13.85,13.85,0,0,1,75.88,217.72ZM77.67,222a2.16,2.16,0,0,0-.29-1.08,2.24,2.24,0,0,0-.79-.83,2.16,2.16,0,0,0-1.08-.32H74.33v4.43a8.86,8.86,0,0,0,1.48-.11,2.38,2.38,0,0,0,1.12-.47,1.9,1.9,0,0,0,.68-1.12A2.34,2.34,0,0,0,77.67,222Z"/><path class="cls-3" d="M86.66,218.32a4.43,4.43,0,0,1,1.56,1.57,4.24,4.24,0,0,1,.57,2.15,4.19,4.19,0,0,1-.57,2.15,4.32,4.32,0,0,1-1.56,1.56,4.29,4.29,0,0,1-5.87-1.56,4.1,4.1,0,0,1-.58-2.15,4.16,4.16,0,0,1,.58-2.15,4.31,4.31,0,0,1,5.87-1.57Zm-1,5.63a2.3,2.3,0,0,0,.81-.8,2.19,2.19,0,0,0,0-2.21,2.25,2.25,0,0,0-.81-.81,2,2,0,0,0-1.1-.31,2.07,2.07,0,0,0-1.11.31,2.25,2.25,0,0,0-.81.81,2.19,2.19,0,0,0,0,2.21,2.3,2.3,0,0,0,.81.8,2.15,2.15,0,0,0,1.11.3A2.09,2.09,0,0,0,85.61,224Z"/><path class="cls-3" d="M95.28,224.4v1.83H89.51v-8.48h5.67v1.83h-3.5v1.49h2.94v1.84H91.68v1.49Z"/><path class="cls-3" d="M100.12,220.44v-.16a.75.75,0,0,0-.29-.59,1.07,1.07,0,0,0-.72-.25,1.12,1.12,0,0,0-.74.25.73.73,0,0,0-.3.59.55.55,0,0,0,.31.52,2.78,2.78,0,0,0,.82.33l.18,0,.21.05a4.13,4.13,0,0,1,1.72.7l.11.1a2.56,2.56,0,0,1,.57.83,2.38,2.38,0,0,1,.21,1,2.32,2.32,0,0,1-.24,1,2.58,2.58,0,0,1-.68.88,3.51,3.51,0,0,1-1,.57,3.6,3.6,0,0,1-1.18.19,3.29,3.29,0,0,1-2.17-.76,2.75,2.75,0,0,1-.69-.88,2.32,2.32,0,0,1-.24-1v-.16h2.1v.16a.73.73,0,0,0,.3.59,1,1,0,0,0,.7.25,1.12,1.12,0,0,0,.74-.25.73.73,0,0,0,.3-.59.69.69,0,0,0-.32-.53,1.56,1.56,0,0,0-.34-.18A2.84,2.84,0,0,0,99,223l-.4-.1a10.25,10.25,0,0,1-1-.3,2,2,0,0,1-.69-.41l0,0a2.51,2.51,0,0,1-.63-.84,2.28,2.28,0,0,1-.23-1,2.32,2.32,0,0,1,.24-1,2.75,2.75,0,0,1,.69-.88,3.29,3.29,0,0,1,2.17-.76,3.6,3.6,0,0,1,1.18.19,3.51,3.51,0,0,1,1,.57,2.58,2.58,0,0,1,.68.88,2.32,2.32,0,0,1,.24,1v.16Z"/><path class="cls-3" d="M110.93,217.83l2.77,8.4h-2.08l-.56-1.71h-2.63l-.54,1.71h-2.1l2.79-8.4ZM109,222.77h1.51l-.76-2.38Z"/><path class="cls-3" d="M122.44,224.05a2.3,2.3,0,0,0,.72-.47l1.46,1.46a4.15,4.15,0,0,1-1.38.93,4,4,0,0,1-1.65.33,4.19,4.19,0,0,1-2.15-.57,4.24,4.24,0,0,1-1.56-1.56,4.27,4.27,0,0,1,0-4.3,4.27,4.27,0,0,1,1.56-1.57,4.28,4.28,0,0,1,3.8-.25,4.48,4.48,0,0,1,1.38.93l-1.46,1.47a2.52,2.52,0,0,0-.72-.48,2.26,2.26,0,0,0-.85-.17,2.15,2.15,0,0,0-1.11.3,2.3,2.3,0,0,0-.8.81,2.2,2.2,0,0,0,0,2.22,2.36,2.36,0,0,0,.8.8,2.15,2.15,0,0,0,1.11.3A2.09,2.09,0,0,0,122.44,224.05Z"/><path class="cls-3" d="M131.55,218.32a4.43,4.43,0,0,1,1.56,1.57,4.24,4.24,0,0,1,.57,2.15,4.19,4.19,0,0,1-.57,2.15,4.32,4.32,0,0,1-1.56,1.56,4.29,4.29,0,0,1-5.87-1.56,4.1,4.1,0,0,1-.58-2.15,4.16,4.16,0,0,1,.58-2.15,4.31,4.31,0,0,1,5.87-1.57ZM130.5,224a2.3,2.3,0,0,0,.81-.8,2.19,2.19,0,0,0,0-2.21,2.25,2.25,0,0,0-.81-.81,2,2,0,0,0-1.1-.31,2.07,2.07,0,0,0-1.11.31,2.25,2.25,0,0,0-.81.81,2.19,2.19,0,0,0,0,2.21,2.3,2.3,0,0,0,.81.8,2.15,2.15,0,0,0,1.11.3A2.09,2.09,0,0,0,130.5,224Z"/><path class="cls-3" d="M140.94,217.75h2.16v8.48h-2.16v-4.78l-1.05,1.92,0,.09h-2.16l-.06-.09-.15-.28-.9-1.64v4.78H134.4v-8.48h2.17l2.19,3.61Z"/><path class="cls-3" d="M149.43,218.1a2.65,2.65,0,0,1,1.32,2.29,2.52,2.52,0,0,1-.36,1.32,2.46,2.46,0,0,1-1,1,2.52,2.52,0,0,1-1.32.36h-2v3.2h-2v-8.48h4.05A2.61,2.61,0,0,1,149.43,218.1Zm-.83,1.67a.79.79,0,0,0-.57-.28h-2v1.8h2a.83.83,0,0,0,.57-.29.93.93,0,0,0,.24-.62A.85.85,0,0,0,148.6,219.77Z"/><path class="cls-3" d="M158.39,226.23h-2.17l-1.35-3.2h-1.38v3.2h-2v-8.48h4a2.63,2.63,0,0,1,2.64,2.64,2.59,2.59,0,0,1-.32,1.26,2.79,2.79,0,0,1-.88,1ZM156,219.77a.78.78,0,0,0-.56-.28h-2v1.8h2A.83.83,0,0,0,156,221a.93.93,0,0,0,.23-.62A.89.89,0,0,0,156,219.77Z"/><path class="cls-3" d="M164.88,224.4v1.83h-5.77v-8.48h5.66v1.83h-3.49v1.49h2.94v1.84h-2.94v1.49Z"/><path class="cls-3" d="M170.43,217.75h2.16v8.48h-2.16v-3.17H168v3.17h-2.16v-8.48H168v3.15h2.43Z"/><path class="cls-3" d="M179.32,224.4v1.83h-5.77v-8.48h5.66v1.83h-3.49v1.49h2.94v1.84h-2.94v1.49Z"/><path class="cls-3" d="M185,217.75h2.16v8.48H185l-2.5-4.54v4.54h-2.17v-8.48h2.17l2.5,4.55Z"/><path class="cls-3" d="M191.94,220.44v-.16a.75.75,0,0,0-.29-.59,1.07,1.07,0,0,0-.72-.25,1.1,1.1,0,0,0-.73.25.72.72,0,0,0-.31.59.55.55,0,0,0,.31.52,2.78,2.78,0,0,0,.82.33l.18,0,.21.05a4.13,4.13,0,0,1,1.72.7l.11.1a2.56,2.56,0,0,1,.57.83,2.38,2.38,0,0,1,.21,1,2.32,2.32,0,0,1-.24,1,2.68,2.68,0,0,1-.67.88,3.71,3.71,0,0,1-1,.57,3.6,3.6,0,0,1-1.18.19,3.5,3.5,0,0,1-1.17-.19,3.66,3.66,0,0,1-1-.57,2.71,2.71,0,0,1-.68-.88,2.32,2.32,0,0,1-.24-1v-.16h2.1v.16a.72.72,0,0,0,.29.59,1,1,0,0,0,.7.25,1.11,1.11,0,0,0,.74-.25.74.74,0,0,0,.31-.59.7.7,0,0,0-.33-.53,1.48,1.48,0,0,0-.33-.18,3.35,3.35,0,0,0-.47-.14l-.4-.1c-.44-.11-.78-.21-1-.3a1.91,1.91,0,0,1-.68-.41l0,0a2.81,2.81,0,0,1-.63-.84,2.27,2.27,0,0,1-.22-1,2.32,2.32,0,0,1,.24-1,2.71,2.71,0,0,1,.68-.88,3.66,3.66,0,0,1,1-.57,3.5,3.5,0,0,1,1.17-.19,3.6,3.6,0,0,1,1.18.19,3.71,3.71,0,0,1,1,.57,2.68,2.68,0,0,1,.67.88,2.32,2.32,0,0,1,.24,1v.16Z"/><path class="cls-3" d="M196.9,217.75v8.48h-2.16v-8.48Z"/><path class="cls-3" d="M203.44,217.72h2.35L203,226.23h-2.64l-2.76-8.51H200l1.72,5.31Z"/><path class="cls-3" d="M212.28,224.4v1.83h-5.77v-8.48h5.66v1.83h-3.49v1.49h2.94v1.84h-2.94v1.49Z"/><path class="cls-3" d="M220.72,220.44v-.16a.73.73,0,0,0-.3-.59,1,1,0,0,0-.71-.25,1.11,1.11,0,0,0-.74.25.73.73,0,0,0-.3.59.55.55,0,0,0,.31.52,2.83,2.83,0,0,0,.81.33l.19,0,.21.05a4.19,4.19,0,0,1,1.72.7l.1.1a2.56,2.56,0,0,1,.57.83,2.38,2.38,0,0,1,.21,1,2.46,2.46,0,0,1-.23,1,2.71,2.71,0,0,1-.68.88,3.57,3.57,0,0,1-1,.57,3.42,3.42,0,0,1-3.34-.57,2.75,2.75,0,0,1-.69-.88,2.32,2.32,0,0,1-.24-1v-.16h2.1v.16a.73.73,0,0,0,.3.59,1,1,0,0,0,.7.25,1.12,1.12,0,0,0,.74-.25.73.73,0,0,0,.3-.59.72.72,0,0,0-.32-.53,1.56,1.56,0,0,0-.34-.18,3,3,0,0,0-.47-.14l-.39-.1a10.25,10.25,0,0,1-1-.3,2,2,0,0,1-.69-.41l-.05,0a2.81,2.81,0,0,1-.63-.84,2.27,2.27,0,0,1-.22-1,2.32,2.32,0,0,1,.24-1,2.75,2.75,0,0,1,.69-.88,3.55,3.55,0,0,1,3.34-.57,3.57,3.57,0,0,1,1,.57,2.71,2.71,0,0,1,.68.88,2.46,2.46,0,0,1,.23,1v.16Z"/><path class="cls-3" d="M229.29,224.4v1.83h-5.78v-8.48h5.67v1.83h-3.5v1.49h2.95v1.84h-2.95v1.49Z"/><path class="cls-3" d="M237.17,226.23H235l-1.35-3.2h-1.38v3.2h-2v-8.48h4a2.63,2.63,0,0,1,2.64,2.64,2.5,2.5,0,0,1-.33,1.26,2.67,2.67,0,0,1-.87,1Zm-2.39-6.46a.78.78,0,0,0-.56-.28h-2v1.8h2a.83.83,0,0,0,.56-.29.93.93,0,0,0,.23-.62A.89.89,0,0,0,234.78,219.77Z"/><path class="cls-3" d="M243.47,217.72h2.35l-2.77,8.51h-2.64l-2.76-8.51H240l1.71,5.31Z"/><path class="cls-3" d="M248.7,217.75v8.48h-2.16v-8.48Z"/><path class="cls-3" d="M254.56,224.05a2.3,2.3,0,0,0,.72-.47l1.46,1.46a4.15,4.15,0,0,1-1.38.93,4,4,0,0,1-1.65.33,4.19,4.19,0,0,1-2.15-.57,4.24,4.24,0,0,1-1.56-1.56,4.27,4.27,0,0,1,0-4.3,4.27,4.27,0,0,1,1.56-1.57,4.28,4.28,0,0,1,3.8-.25,4.48,4.48,0,0,1,1.38.93l-1.46,1.47a2.52,2.52,0,0,0-.72-.48,2.26,2.26,0,0,0-.85-.17,2.12,2.12,0,0,0-1.11.3,2.22,2.22,0,0,0-.8.81,2.2,2.2,0,0,0,0,2.22,2.27,2.27,0,0,0,.8.8,2.12,2.12,0,0,0,1.11.3A2.09,2.09,0,0,0,254.56,224.05Z"/><path class="cls-3" d="M263.23,224.4v1.83h-5.77v-8.48h5.67v1.83h-3.5v1.49h2.94v1.84h-2.94v1.49Z"/><path class="cls-3" d="M273.7,219.58H270v1.49h3v1.84h-3v3.32h-2.16v-8.48h5.91Z"/><path class="cls-3" d="M280.62,218.32a4.33,4.33,0,0,1,2.14,3.72,4.3,4.3,0,0,1-2.14,3.71,4.27,4.27,0,0,1-4.3,0,4.27,4.27,0,0,1-1.57-1.56,4.19,4.19,0,0,1-.57-2.15,4.24,4.24,0,0,1,.57-2.15,4.38,4.38,0,0,1,1.57-1.57,4.34,4.34,0,0,1,4.3,0Zm-1,5.63a2.36,2.36,0,0,0,.8-.8,2.19,2.19,0,0,0,0-2.21,2.3,2.3,0,0,0-.8-.81,2.14,2.14,0,0,0-2.22,0,2.25,2.25,0,0,0-.81.81,2.19,2.19,0,0,0,0,2.21,2.3,2.3,0,0,0,.81.8,2.2,2.2,0,0,0,2.22,0Z"/><path class="cls-3" d="M290.4,226.23h-2.17l-1.35-3.2H285.5v3.2h-2v-8.48h4a2.63,2.63,0,0,1,2.64,2.64,2.59,2.59,0,0,1-.32,1.26,2.79,2.79,0,0,1-.88,1ZM288,219.77a.78.78,0,0,0-.56-.28h-2v1.8h2A.83.83,0,0,0,288,221a.93.93,0,0,0,.23-.62A.89.89,0,0,0,288,219.77Z"/><path class="cls-3" d="M34.73,232.15v8.48H32.57v-8.48Z"/><path class="cls-3" d="M40.36,232.15h2.16v8.48H40.36l-2.5-4.55v4.55H35.69v-8.48h2.17l2.5,4.55Z"/><path class="cls-3" d="M43.36,235.57h3.88v1.7H43.36Z"/><path class="cls-3" d="M51.8,232.12a4.79,4.79,0,0,1,1.27.3,3.67,3.67,0,0,1,1.17.74,4,4,0,0,1,1,1.46,4.3,4.3,0,0,1-.1,3.7,4,4,0,0,1-1.31,1.5,4.59,4.59,0,0,1-1.73.67,12.38,12.38,0,0,1-2.14.17l-1,0h-.93v-8.58h2.17A14,14,0,0,1,51.8,232.12Zm1.78,4.24a2.18,2.18,0,0,0-.28-1.08,2.42,2.42,0,0,0-.79-.83,2.17,2.17,0,0,0-1.09-.32H50.25v4.43a10.33,10.33,0,0,0,1.48-.1,2.6,2.6,0,0,0,1.12-.48,1.9,1.9,0,0,0,.67-1.11A2.5,2.5,0,0,0,53.58,236.36Z"/><path class="cls-3" d="M62.14,238.8v1.83H56.37v-8.48H62V234H58.54v1.49h2.94v1.84H58.54v1.49Z"/><path class="cls-3" d="M68.47,232.5a2.76,2.76,0,0,1,1,1,2.7,2.7,0,0,1,0,2.66,2.65,2.65,0,0,1-1,.95,2.55,2.55,0,0,1-1.33.36h-2v3.2h-2v-8.48h4A2.64,2.64,0,0,1,68.47,232.5Zm-.83,1.67a.8.8,0,0,0-.57-.28h-2v1.8h2a.83.83,0,0,0,.57-.3.89.89,0,0,0,.24-.61A.85.85,0,0,0,67.64,234.17Z"/><path class="cls-3" d="M76.9,232.15v2.16H74.73v6.32H72.56v-6.32H70.38v-2.16H76.9Z"/><path class="cls-3" d="M82.32,232.15h2.16v8.48H82.32v-3.17H79.9v3.17H77.74v-8.48H79.9v3.15h2.42Z"/><path class="cls-3" d="M93.46,232.23l2.77,8.4H94.14l-.55-1.71H91l-.54,1.71h-2.1l2.79-8.4Zm-1.93,4.94H93l-.76-2.38Z"/><path class="cls-3" d="M101.14,232.15h2.16v8.48h-2.16l-2.5-4.55v4.55H96.47v-8.48h2.17l2.5,4.55Z"/><path class="cls-3" d="M108.67,232.23l2.78,8.4h-2.09l-.55-1.71h-2.63l-.54,1.71h-2.1l2.78-8.4Zm-1.93,4.94h1.51l-.75-2.38Z"/><path class="cls-3" d="M113.85,238.59h3.33v2h-5.49v-8.48h2.16Z"/><path class="cls-3" d="M122.54,232.15h2.15l-2.49,5v3.45H120v-3.45l-2.5-5h2.16l1.42,2.89Z"/><path class="cls-3" d="M129.05,234.84v-.16a.75.75,0,0,0-.29-.59,1.07,1.07,0,0,0-.72-.25,1.12,1.12,0,0,0-.74.25.73.73,0,0,0-.3.59.56.56,0,0,0,.31.52,2.54,2.54,0,0,0,.82.33l.18,0,.21.05a4.13,4.13,0,0,1,1.72.7l.11.1a2.56,2.56,0,0,1,.57.83,2.38,2.38,0,0,1,.21,1,2.32,2.32,0,0,1-.24,1,2.58,2.58,0,0,1-.68.88,3.29,3.29,0,0,1-1,.57,3.6,3.6,0,0,1-1.18.19,3.5,3.5,0,0,1-1.17-.19,3.29,3.29,0,0,1-1-.57,2.75,2.75,0,0,1-.69-.88,2.32,2.32,0,0,1-.24-1v-.16H127v.16a.73.73,0,0,0,.3.59,1,1,0,0,0,.7.25,1.12,1.12,0,0,0,.74-.25.73.73,0,0,0,.3-.59.69.69,0,0,0-.32-.53,1.74,1.74,0,0,0-.33-.18,3.35,3.35,0,0,0-.47-.14l-.4-.1c-.44-.11-.78-.21-1-.3a2,2,0,0,1-.69-.41l0-.05a2.38,2.38,0,0,1-.63-.83,2.28,2.28,0,0,1-.23-1,2.32,2.32,0,0,1,.24-1,2.75,2.75,0,0,1,.69-.88,3.29,3.29,0,0,1,1-.57A3.51,3.51,0,0,1,128,232a3.61,3.61,0,0,1,1.18.2,3.29,3.29,0,0,1,1,.57,2.58,2.58,0,0,1,.68.88,2.32,2.32,0,0,1,.24,1v.16Z"/><path class="cls-3" d="M134,232.15v8.48h-2.16v-8.48Z"/><path class="cls-3" d="M138.84,234.84v-.16a.75.75,0,0,0-.29-.59,1.07,1.07,0,0,0-.72-.25,1.1,1.1,0,0,0-.73.25.72.72,0,0,0-.31.59.56.56,0,0,0,.31.52,2.54,2.54,0,0,0,.82.33l.18,0,.21.05a4.13,4.13,0,0,1,1.72.7l.11.1a2.56,2.56,0,0,1,.57.83,2.38,2.38,0,0,1,.21,1,2.32,2.32,0,0,1-.24,1,2.68,2.68,0,0,1-.67.88,3.47,3.47,0,0,1-1,.57,3.6,3.6,0,0,1-1.18.19,3.54,3.54,0,0,1-1.17-.19,3.42,3.42,0,0,1-1-.57,2.71,2.71,0,0,1-.68-.88,2.32,2.32,0,0,1-.24-1v-.16h2.1v.16a.72.72,0,0,0,.29.59,1,1,0,0,0,.7.25,1.11,1.11,0,0,0,.74-.25.74.74,0,0,0,.31-.59.7.7,0,0,0-.33-.53,1.48,1.48,0,0,0-.33-.18,3.35,3.35,0,0,0-.47-.14l-.4-.1c-.44-.11-.78-.21-1-.3a1.91,1.91,0,0,1-.68-.41l0-.05a2.65,2.65,0,0,1-.63-.83,2.27,2.27,0,0,1-.22-1,2.32,2.32,0,0,1,.24-1,2.71,2.71,0,0,1,.68-.88,3.42,3.42,0,0,1,1-.57,3.55,3.55,0,0,1,1.17-.2,3.61,3.61,0,0,1,1.18.2,3.47,3.47,0,0,1,1,.57,2.68,2.68,0,0,1,.67.88,2.32,2.32,0,0,1,.24,1v.16Z"/><path class="cls-3" d="M151.44,232.72a4.27,4.27,0,0,1,1.56,1.57,4.17,4.17,0,0,1,.58,2.16,4.09,4.09,0,0,1-.58,2.14,4.17,4.17,0,0,1-1.56,1.56,4.1,4.1,0,0,1-2.15.58,4.16,4.16,0,0,1-2.15-.58,4.27,4.27,0,0,1-1.57-1.56,4.18,4.18,0,0,1-.57-2.14,4.25,4.25,0,0,1,.57-2.16,4.38,4.38,0,0,1,1.57-1.57,4.24,4.24,0,0,1,2.15-.57A4.19,4.19,0,0,1,151.44,232.72Zm-1,5.63a2.36,2.36,0,0,0,.8-.8,2.2,2.2,0,0,0,0-2.22,2.27,2.27,0,0,0-.8-.8,2.14,2.14,0,0,0-2.22,0,2.12,2.12,0,0,0-.8.8,2.14,2.14,0,0,0,0,2.22,2.19,2.19,0,0,0,.8.8,2.2,2.2,0,0,0,2.22,0Z"/><path class="cls-3" d="M160.2,234h-3.74v1.49h3v1.84h-3v3.32H154.3v-8.48h5.9Z"/><path class="cls-3" d="M168.4,234.84v-.16a.73.73,0,0,0-.3-.59,1,1,0,0,0-.71-.25,1.12,1.12,0,0,0-.74.25.73.73,0,0,0-.3.59.56.56,0,0,0,.31.52,2.57,2.57,0,0,0,.81.33l.19,0,.21.05a4.13,4.13,0,0,1,1.72.7l.1.1a2.41,2.41,0,0,1,.57.83,2.38,2.38,0,0,1,.21,1,2.31,2.31,0,0,1-.23,1,2.71,2.71,0,0,1-.68.88,3.23,3.23,0,0,1-1,.57,3.7,3.7,0,0,1-2.34,0,3.29,3.29,0,0,1-1-.57,2.75,2.75,0,0,1-.69-.88,2.32,2.32,0,0,1-.24-1v-.16h2.1v.16a.73.73,0,0,0,.3.59,1,1,0,0,0,.7.25,1.12,1.12,0,0,0,.74-.25.73.73,0,0,0,.3-.59.72.72,0,0,0-.32-.53,1.56,1.56,0,0,0-.34-.18,3,3,0,0,0-.47-.14l-.39-.1a10.25,10.25,0,0,1-1-.3,2,2,0,0,1-.69-.41l-.05-.05a2.65,2.65,0,0,1-.63-.83,2.42,2.42,0,0,1-.22-1,2.32,2.32,0,0,1,.24-1,2.75,2.75,0,0,1,.69-.88,3.29,3.29,0,0,1,1-.57,3.52,3.52,0,0,1,2.34,0,3.23,3.23,0,0,1,1,.57,2.71,2.71,0,0,1,.68.88,2.31,2.31,0,0,1,.23,1v.16Z"/><path class="cls-3" d="M177.73,232.15h2.16v8.48h-2.16v-4.79l-1,1.92-.05.1h-2.16l-.06-.1-.14-.27-.9-1.65v4.79h-2.18v-8.48h2.18l2.18,3.61Z"/><path class="cls-3" d="M185.27,232.23l2.77,8.4H186l-.56-1.71h-2.63l-.54,1.71h-2.1l2.79-8.4Zm-1.93,4.94h1.51l-.76-2.38Z"/><path class="cls-3" d="M195.21,240.63H193l-1.34-3.2h-1.38v3.2h-2v-8.48h4.05a2.66,2.66,0,0,1,1.32.35,2.63,2.63,0,0,1,1,1,2.57,2.57,0,0,1,.36,1.32,2.5,2.5,0,0,1-.33,1.26,2.77,2.77,0,0,1-.87,1Zm-2.39-6.46a.79.79,0,0,0-.57-.28h-2v1.8h2a.81.81,0,0,0,.57-.3.92.92,0,0,0,0-1.22Z"/><path class="cls-3" d="M202.32,232.15v2.16h-2.17v6.32H198v-6.32h-2.17v-2.16h6.51Z"/><path class="cls-3" d="M211.66,238.46a2.52,2.52,0,0,0,.72-.48l1.46,1.47a4.66,4.66,0,0,1-1.38.93,4.38,4.38,0,0,1-1.65.33,4.2,4.2,0,0,1-2.15-.58,4.32,4.32,0,0,1-1.56-1.56,4.27,4.27,0,0,1,0-4.3,4.24,4.24,0,0,1,3.71-2.14,4,4,0,0,1,1.65.33,4.12,4.12,0,0,1,1.38.92l-1.46,1.47a2.3,2.3,0,0,0-.72-.47,2.09,2.09,0,0,0-.85-.18,2.15,2.15,0,0,0-1.11.3,2.3,2.3,0,0,0-.8.81,2.2,2.2,0,0,0,0,2.22,2.36,2.36,0,0,0,.8.8,2.15,2.15,0,0,0,1.11.3A2.26,2.26,0,0,0,211.66,238.46Z"/><path class="cls-3" d="M220.77,232.72a4.43,4.43,0,0,1,1.56,1.57,4.25,4.25,0,0,1,.57,2.16,4.18,4.18,0,0,1-.57,2.14,4.32,4.32,0,0,1-1.56,1.56,4.29,4.29,0,0,1-5.87-1.56,4.09,4.09,0,0,1-.58-2.14,4.17,4.17,0,0,1,.58-2.16,4.31,4.31,0,0,1,5.87-1.57Zm-1.05,5.63a2.3,2.3,0,0,0,.81-.8,2.2,2.2,0,0,0,0-2.22,2.22,2.22,0,0,0-.81-.8,2,2,0,0,0-1.1-.31,2.07,2.07,0,0,0-1.11.31,2.22,2.22,0,0,0-.81.8,2.2,2.2,0,0,0,0,2.22,2.3,2.3,0,0,0,.81.8,2.15,2.15,0,0,0,1.11.3A2.09,2.09,0,0,0,219.72,238.35Z"/><path class="cls-3" d="M228.29,232.15h2.16v8.48h-2.16l-2.5-4.55v4.55h-2.17v-8.48h2.17l2.5,4.55Z"/><path class="cls-3" d="M237.81,232.15v2.16h-2.18v6.32h-2.17v-6.32h-2.17v-2.16h6.52Z"/><path class="cls-3" d="M245.57,240.63H243.4l-1.35-3.2h-1.38v3.2h-2v-8.48h4a2.63,2.63,0,0,1,2.64,2.64,2.5,2.5,0,0,1-.33,1.26,2.67,2.67,0,0,1-.87,1Zm-2.39-6.46a.78.78,0,0,0-.56-.28h-2v1.8h2a.81.81,0,0,0,.56-.3.92.92,0,0,0,0-1.22Z"/><path class="cls-3" d="M250.71,232.23l2.77,8.4h-2.09l-.55-1.71h-2.63l-.54,1.71h-2.1l2.78-8.4Zm-1.94,4.94h1.52l-.76-2.38Z"/><path class="cls-3" d="M258.61,238.46a2.39,2.39,0,0,0,.72-.48l1.47,1.47a4.66,4.66,0,0,1-1.38.93,4.43,4.43,0,0,1-1.66.33,4.25,4.25,0,0,1-2.15-.58,4.48,4.48,0,0,1-1.56-1.56,4.34,4.34,0,0,1,0-4.3,4.35,4.35,0,0,1,1.56-1.57,4.24,4.24,0,0,1,2.15-.57,4.07,4.07,0,0,1,1.66.33,4.12,4.12,0,0,1,1.38.92l-1.47,1.47a2.19,2.19,0,0,0-.72-.47,2.06,2.06,0,0,0-.85-.18,2.09,2.09,0,0,0-1.1.3,2.25,2.25,0,0,0-.81.81,2.2,2.2,0,0,0,0,2.22,2.3,2.3,0,0,0,.81.8,2.09,2.09,0,0,0,1.1.3A2.22,2.22,0,0,0,258.61,238.46Z"/><path class="cls-3" d="M267.91,232.15v2.16h-2.17v6.32h-2.17v-6.32H261.4v-2.16h6.51Z"/><path class="cls-3" d="M272.63,234.84v-.16a.73.73,0,0,0-.3-.59,1,1,0,0,0-.71-.25,1.12,1.12,0,0,0-.74.25.73.73,0,0,0-.3.59.56.56,0,0,0,.31.52,2.54,2.54,0,0,0,.82.33l.18,0,.21.05a4.13,4.13,0,0,1,1.72.7l.1.1a2.58,2.58,0,0,1,.58.83,2.56,2.56,0,0,1,.21,1,2.32,2.32,0,0,1-.24,1,2.71,2.71,0,0,1-.68.88,3.29,3.29,0,0,1-1,.57,3.6,3.6,0,0,1-1.18.19,3.5,3.5,0,0,1-1.17-.19,3.29,3.29,0,0,1-1-.57,2.75,2.75,0,0,1-.69-.88,2.32,2.32,0,0,1-.24-1v-.16h2.1v.16a.73.73,0,0,0,.3.59,1,1,0,0,0,.7.25,1.12,1.12,0,0,0,.74-.25.73.73,0,0,0,.3-.59.72.72,0,0,0-.32-.53,1.56,1.56,0,0,0-.34-.18,3,3,0,0,0-.47-.14l-.39-.1a10.25,10.25,0,0,1-1-.3,2,2,0,0,1-.69-.41l-.05-.05a2.65,2.65,0,0,1-.63-.83,2.42,2.42,0,0,1-.22-1,2.32,2.32,0,0,1,.24-1,2.75,2.75,0,0,1,.69-.88,3.29,3.29,0,0,1,1-.57,3.51,3.51,0,0,1,1.17-.2,3.61,3.61,0,0,1,1.18.2,3.29,3.29,0,0,1,1,.57,2.71,2.71,0,0,1,.68.88,2.32,2.32,0,0,1,.24,1v.16Z"/><path class="cls-3" d="M283.44,232.23l2.77,8.4h-2.08l-.56-1.71h-2.63l-.54,1.71h-2.1l2.79-8.4Zm-1.93,4.94H283l-.76-2.38Z"/><path class="cls-3" d="M291.12,232.15h2.16v8.48h-2.16l-2.5-4.55v4.55h-2.17v-8.48h2.17l2.5,4.55Z"/><path class="cls-3" d="M298,232.12a4.86,4.86,0,0,1,1.28.3,3.67,3.67,0,0,1,1.17.74,4.14,4.14,0,0,1,1,1.46,4.37,4.37,0,0,1,.36,1.74,4.08,4.08,0,0,1-.47,2,3.94,3.94,0,0,1-1.31,1.5,4.52,4.52,0,0,1-1.73.67,12.29,12.29,0,0,1-2.14.17l-1,0h-.94v-8.58h2.17A13.85,13.85,0,0,1,298,232.12Zm1.79,4.24a2.19,2.19,0,0,0-.29-1.08,2.24,2.24,0,0,0-.79-.83,2.16,2.16,0,0,0-1.08-.32h-1.18v4.43a10.23,10.23,0,0,0,1.48-.1A2.5,2.5,0,0,0,299,238a1.91,1.91,0,0,0,.68-1.11A2.5,2.5,0,0,0,299.75,236.36Z"/><path class="cls-3" d="M309.85,232.12a4.86,4.86,0,0,1,1.28.3,3.67,3.67,0,0,1,1.17.74,4.14,4.14,0,0,1,1,1.46,4.37,4.37,0,0,1,.36,1.74,4.19,4.19,0,0,1-.46,2,4,4,0,0,1-1.32,1.5,4.52,4.52,0,0,1-1.73.67,12.29,12.29,0,0,1-2.14.17l-1,0h-.94v-8.58h2.17A13.85,13.85,0,0,1,309.85,232.12Zm1.79,4.24a2.19,2.19,0,0,0-.29-1.08,2.3,2.3,0,0,0-.78-.83,2.23,2.23,0,0,0-1.09-.32H308.3v4.43a10.48,10.48,0,0,0,1.49-.1,2.51,2.51,0,0,0,1.11-.48,1.91,1.91,0,0,0,.68-1.11A2.5,2.5,0,0,0,311.64,236.36Z"/><path class="cls-3" d="M320.2,238.8v1.83h-5.78v-8.48h5.67V234H316.6v1.49h2.94v1.84H316.6v1.49Z"/><path class="cls-3" d="M327.06,234h-3.74v1.49h3v1.84h-3v3.32h-2.16v-8.48h5.9Z"/><path class="cls-3" d="M329.94,232.15v8.48h-2.16v-8.48Z"/><path class="cls-3" d="M37,246.63l2.77,8.4H37.67l-.55-1.71H34.49L34,255h-2.1l2.79-8.4Zm-1.93,4.93h1.51l-.76-2.37Z"/><path class="cls-3" d="M45.37,246.9a2.76,2.76,0,0,1,1,1,2.57,2.57,0,0,1,.35,1.33,2.51,2.51,0,0,1-.35,1.32,2.6,2.6,0,0,1-1,1,2.55,2.55,0,0,1-1.33.36H42V255H40v-8.48h4A2.64,2.64,0,0,1,45.37,246.9Zm-.83,1.67a.79.79,0,0,0-.57-.28H42v1.8h2a.81.81,0,0,0,.57-.3.9.9,0,0,0,0-1.22Z"/><path class="cls-3" d="M52.77,246.9a2.65,2.65,0,0,1,1.32,2.29,2.52,2.52,0,0,1-.36,1.32,2.46,2.46,0,0,1-1,1,2.52,2.52,0,0,1-1.32.36h-2V255h-2v-8.48h4.05A2.61,2.61,0,0,1,52.77,246.9ZM52,248.57a.82.82,0,0,0-.57-.28h-2v1.8h2a.85.85,0,0,0,.57-.3.92.92,0,0,0,0-1.22Z"/><path class="cls-3" d="M57,253H60.3v2H54.81v-8.48H57Z"/><path class="cls-3" d="M63.3,246.55V255H61.14v-8.48Z"/><path class="cls-3" d="M69.16,252.85a2.3,2.3,0,0,0,.72-.47l1.46,1.46a4.51,4.51,0,0,1-1.38.94,4.37,4.37,0,0,1-1.65.32,4.3,4.3,0,1,1,3-7.31l-1.46,1.46a2.3,2.3,0,0,0-.72-.47,2.09,2.09,0,0,0-.85-.18,2.15,2.15,0,0,0-1.11.3,2.3,2.3,0,0,0-.8.81,2.15,2.15,0,0,0-.3,1.11,2.09,2.09,0,0,0,.3,1.1,2.3,2.3,0,0,0,.8.81,2.15,2.15,0,0,0,1.11.3A2.09,2.09,0,0,0,69.16,252.85Z"/><path class="cls-3" d="M76.48,246.63l2.77,8.4H77.16l-.55-1.71H74L73.44,255h-2.1l2.79-8.4Zm-1.93,4.93h1.51l-.76-2.37Z"/><path class="cls-3" d="M85.89,246.55v2.16H83.71V255H81.54v-6.32H79.37v-2.16h6.52Z"/><path class="cls-3" d="M88.89,246.55V255H86.73v-8.48Z"/><path class="cls-3" d="M96.05,247.13a4.3,4.3,0,0,1,2.14,3.71,4.1,4.1,0,0,1-.58,2.15,4.17,4.17,0,0,1-1.56,1.56,4.27,4.27,0,0,1-4.3,0A4.27,4.27,0,0,1,90.18,253a4.19,4.19,0,0,1-.57-2.15,4.24,4.24,0,0,1,2.14-3.71,4.27,4.27,0,0,1,4.3,0Zm-1,5.62a2.27,2.27,0,0,0,.8-.8,2.15,2.15,0,0,0,.3-1.11,2.18,2.18,0,0,0-.3-1.11,2.38,2.38,0,0,0-.8-.81,2.27,2.27,0,0,0-2.22,0,2.33,2.33,0,0,0-.81.81,2.18,2.18,0,0,0-.3,1.11A2.15,2.15,0,0,0,92,252a2.22,2.22,0,0,0,.81.8,2.2,2.2,0,0,0,2.22,0Z"/><path class="cls-3" d="M103.58,246.55h2.16V255h-2.16l-2.5-4.55V255H98.91v-8.48h2.17l2.5,4.55Z"/><path class="cls-3" d="M110.57,249.24v-.16a.75.75,0,0,0-.29-.59,1.07,1.07,0,0,0-.72-.25,1.12,1.12,0,0,0-.74.25.73.73,0,0,0-.3.59.56.56,0,0,0,.31.52,2.78,2.78,0,0,0,.82.33l.18,0,.21.05a4.13,4.13,0,0,1,1.72.7l.11.1a2.56,2.56,0,0,1,.57.83,2.38,2.38,0,0,1,.21,1,2.32,2.32,0,0,1-.24,1,2.58,2.58,0,0,1-.68.88,3.29,3.29,0,0,1-1,.57,3.61,3.61,0,0,1-1.18.2,3.51,3.51,0,0,1-1.17-.2,3.29,3.29,0,0,1-1-.57,2.75,2.75,0,0,1-.69-.88,2.31,2.31,0,0,1-.23-1v-.16h2.09v.16a.73.73,0,0,0,.3.59,1,1,0,0,0,.7.25,1.12,1.12,0,0,0,.74-.25.73.73,0,0,0,.3-.59.67.67,0,0,0-.32-.53,1.56,1.56,0,0,0-.34-.18,2.84,2.84,0,0,0-.46-.14l-.4-.1c-.44-.11-.78-.21-1-.3a2,2,0,0,1-.69-.41l0,0a2.33,2.33,0,0,1-.63-.84,2.23,2.23,0,0,1-.22-1,2.31,2.31,0,0,1,.23-1,2.75,2.75,0,0,1,.69-.88,3.1,3.1,0,0,1,1-.57,3.51,3.51,0,0,1,1.17-.2,3.61,3.61,0,0,1,1.18.2,3.1,3.1,0,0,1,1,.57,2.58,2.58,0,0,1,.68.88,2.32,2.32,0,0,1,.24,1v.16Z"/><path class="cls-3" d="M113.45,254.68a1.13,1.13,0,0,1-.32-.82,1,1,0,0,1,.33-.78,1.07,1.07,0,0,1,.78-.33,1.14,1.14,0,0,1,.81.34,1.09,1.09,0,0,1,.33.8,1.12,1.12,0,0,1-.33.81,1.13,1.13,0,0,1-.81.33A1,1,0,0,1,113.45,254.68Z"/><path class="cls-2" d="M44.13,270.42v3.78H40.32v11.07h-3.8V274.2h-3.8v-3.78H44.13Z"/><path class="cls-2" d="M53.32,270.57l4.85,14.7H54.52l-1-3H49l-1,3H44.33l4.88-14.7Zm-3.38,8.63h2.65L51.26,275Z"/><path class="cls-2" d="M65.38,275.13v-.28a1.31,1.31,0,0,0-.52-1,1.91,1.91,0,0,0-1.25-.43,2,2,0,0,0-1.29.43,1.29,1.29,0,0,0-.53,1,1,1,0,0,0,.54.9,4.46,4.46,0,0,0,1.43.59l.32.07.37.08a7.31,7.31,0,0,1,3,1.24l.18.17a4.37,4.37,0,0,1,1,1.45A4.08,4.08,0,0,1,69,281a4.16,4.16,0,0,1-.41,1.8,4.6,4.6,0,0,1-1.19,1.54,5.53,5.53,0,0,1-1.76,1,6.21,6.21,0,0,1-4.11,0,5.7,5.7,0,0,1-1.75-1,4.77,4.77,0,0,1-1.2-1.54,4,4,0,0,1-.42-1.8v-.28h3.68V281a1.33,1.33,0,0,0,.51,1,1.92,1.92,0,0,0,1.23.43,2,2,0,0,0,1.29-.43,1.3,1.3,0,0,0,.54-1,1.22,1.22,0,0,0-.57-.93,2.35,2.35,0,0,0-.59-.31,5.84,5.84,0,0,0-.82-.25l-.69-.17c-.77-.2-1.37-.37-1.8-.53a3.5,3.5,0,0,1-1.2-.71l-.08-.09a4.61,4.61,0,0,1-1.11-1.47,3.94,3.94,0,0,1-.39-1.72,4,4,0,0,1,.42-1.8,4.77,4.77,0,0,1,1.2-1.54,5.7,5.7,0,0,1,1.75-1,6.21,6.21,0,0,1,4.11,0,5.53,5.53,0,0,1,1.76,1,4.6,4.6,0,0,1,1.19,1.54,4.16,4.16,0,0,1,.41,1.8v.28Z"/><path class="cls-2" d="M77.47,277.77l4.43,7.5H77.7l-3.65-6v6H70.27V270.42h3.78v5.8l3.65-5.8h4.2Z"/><path class="cls-2" d="M90.37,275.13v-.28a1.34,1.34,0,0,0-.52-1,1.91,1.91,0,0,0-1.25-.43,2,2,0,0,0-1.29.43,1.29,1.29,0,0,0-.53,1,1,1,0,0,0,.54.9,4.46,4.46,0,0,0,1.43.59l.33.07.36.08a7.31,7.31,0,0,1,3,1.24l.18.17a4.37,4.37,0,0,1,1,1.45A4.08,4.08,0,0,1,94,281a4.16,4.16,0,0,1-.41,1.8,4.6,4.6,0,0,1-1.19,1.54,5.53,5.53,0,0,1-1.76,1,6.23,6.23,0,0,1-2.06.35,6.13,6.13,0,0,1-2-.35,5.7,5.7,0,0,1-1.75-1,4.77,4.77,0,0,1-1.2-1.54,4,4,0,0,1-.42-1.8v-.28h3.68V281a1.33,1.33,0,0,0,.51,1,1.92,1.92,0,0,0,1.23.43,2,2,0,0,0,1.29-.43,1.3,1.3,0,0,0,.54-1,1.22,1.22,0,0,0-.57-.93,2.35,2.35,0,0,0-.59-.31,5.84,5.84,0,0,0-.82-.25l-.69-.17c-.77-.2-1.37-.37-1.8-.53a3.5,3.5,0,0,1-1.2-.71l-.09-.09a4.73,4.73,0,0,1-1.1-1.47,3.94,3.94,0,0,1-.39-1.72,4,4,0,0,1,.42-1.8,4.77,4.77,0,0,1,1.2-1.54,5.7,5.7,0,0,1,1.75-1,6.13,6.13,0,0,1,2-.35,6.23,6.23,0,0,1,2.06.35,5.53,5.53,0,0,1,1.76,1,4.6,4.6,0,0,1,1.19,1.54,4.16,4.16,0,0,1,.41,1.8v.28Z"/><path class="cls-2" d="M95.89,278.23a1.87,1.87,0,0,1-.53-1.21,1.72,1.72,0,0,1,1.71-1.75A1.74,1.74,0,0,1,98.81,277a1.6,1.6,0,0,1-.52,1.21,1.67,1.67,0,0,1-1.22.51A1.55,1.55,0,0,1,95.89,278.23Zm0,6.53a1.87,1.87,0,0,1-.53-1.21,1.72,1.72,0,0,1,1.71-1.75,1.74,1.74,0,0,1,1.74,1.75,1.6,1.6,0,0,1-.52,1.21,1.67,1.67,0,0,1-1.22.51A1.55,1.55,0,0,1,95.89,284.76Z"/></svg>