<svg xmlns="http://www.w3.org/2000/svg" width="960" height="480" viewBox="0 0 960 480">
  <g id="africa" transform="translate(3506 -2262)">
    <path id="Контур_4117" data-name="Контур 4117" d="M0,0H960V480H0Z" transform="translate(-3506 2262)" fill="none"/>
    <g id="Сгруппировать_88" data-name="Сгруппировать 88" transform="translate(-3094.275 2418.187)">
      <path id="Контур_974" data-name="Контур 974" d="M101.485,2490.689c-.009.02-.009.04-.019.06-.01-.01-.021-.02-.031-.02,0-.03-.01-.04-.01-.07Z" transform="translate(-14.31 -2418.607)" fill="#fed841"/>
      <path id="Контур_975" data-name="Контур 975" d="M107.982,2494.167a4.781,4.781,0,0,1,.192.7l0,.006a5.032,5.032,0,0,0,.3,1.054,1.637,1.637,0,0,1,.054,1.429,1.745,1.745,0,0,0-.088,1.421,9.648,9.648,0,0,1,.263,1.076c.021.107,0,.284-.074.324-.133.071-.226-.043-.313-.166a5.624,5.624,0,0,1-.828-2.059,1.19,1.19,0,0,1,.034-.718,3.027,3.027,0,0,0,.127-1.978,6.126,6.126,0,0,1-.082-1.09c0-.057.052-.113.08-.166C107.765,2494.052,107.95,2494.084,107.982,2494.167Z" transform="translate(-14.31 -2418.607)" fill="#fed841"/>
      <path id="Контур_976" data-name="Контур 976" d="M101.485,2490.689c-.009.02-.009.04-.019.06-.01-.01-.021-.02-.031-.02,0-.03-.01-.04-.01-.07Z" transform="translate(-14.31 -2418.607)" fill="#fed841"/>
      <rect id="Прямоугольник_95" data-name="Прямоугольник 95" transform="translate(87.16 72.143)" fill="#fed841"/>
      <path id="Контур_977" data-name="Контур 977" d="M107.57,2494.162a6.126,6.126,0,0,0,.082,1.09,3.027,3.027,0,0,1-.127,1.978,1.19,1.19,0,0,0-.034.718,5.624,5.624,0,0,0,.828,2.059c.087.123.18.237.313.166.074-.04.095-.217.074-.324a9.648,9.648,0,0,0-.263-1.076,1.745,1.745,0,0,1,.088-1.421,1.637,1.637,0,0,0-.054-1.429,5.032,5.032,0,0,1-.3-1.054l0-.006a4.781,4.781,0,0,0-.192-.7c-.032-.083-.217-.115-.332-.171C107.622,2494.049,107.57,2494.1,107.57,2494.162Z" transform="translate(-14.31 -2418.607)" fill="#fed841"/>
      <path id="Контур_978" data-name="Контур 978" d="M137.175,2460.019a1.065,1.065,0,0,0-.19.07,6.035,6.035,0,0,1-2.769.86,23.375,23.375,0,0,0-4.161.71,1.5,1.5,0,0,1-.63.06,4.413,4.413,0,0,0-2.25.49,4.081,4.081,0,0,1-.589.2,1.168,1.168,0,0,1-.821-.11,2.886,2.886,0,0,1-.489-.35l-1.5-1.32c-.18-.16-.141-.3-.041-.48.39-.7.39-.86-.19-1.27a5.106,5.106,0,0,1-1.04-.92,19.855,19.855,0,0,0-2.19-2.02,5.106,5.106,0,0,0-1.589-.9,3.273,3.273,0,0,1-2.161-2.12c-.14-.54-.359-1.06-.55-1.6a2.775,2.775,0,0,0-1.1-1.34c-.45-.3-.89-.61-1.351-.91a1.2,1.2,0,0,1-.57-.96,19.137,19.137,0,0,0-.63-3.09,3.221,3.221,0,0,0-1.839-2.16,3.187,3.187,0,0,1-.581-.24,1.077,1.077,0,0,1-.34-.45,1.011,1.011,0,0,1-.11-.54,2.041,2.041,0,0,0-.62-1.7,8.677,8.677,0,0,1-.56-.79,11.218,11.218,0,0,1-2.1-3.62,3.714,3.714,0,0,0-.37-.66c-.1-.18.029-.37.279-.37.291,0,.581.08.81-.12a1.2,1.2,0,0,1,.231-.16,51.855,51.855,0,0,0-2-5.58c-.01,0-.02.01-.031.01a8.2,8.2,0,0,1-3.159-.22,4.432,4.432,0,0,0-1.25-.16,4.856,4.856,0,0,0-2.64.59,1.781,1.781,0,0,1-1.221.14c-1.529-.28-3.029-.66-4.589-.81a4.657,4.657,0,0,1-1.641-.36,6.3,6.3,0,0,0-2.219-.59,3.067,3.067,0,0,1-1.7-.71,1.686,1.686,0,0,0-.74-.34,6.037,6.037,0,0,0-3.541.26,1.791,1.791,0,0,0-1.1,2.02c.08.24.19.46.25.7a.75.75,0,0,1-.221.69,3.2,3.2,0,0,1-.42.41,1.31,1.31,0,0,1-1.38.18c-.25-.13-.469-.28-.71-.42-.35-.2-.689-.43-1.06-.61a6.516,6.516,0,0,0-2.839-.71,1.069,1.069,0,0,1-1-.6c-.11-.22-.211-.45-.3-.68a1.28,1.28,0,0,0-.87-.76,9.178,9.178,0,0,0-3.741-.58,4.633,4.633,0,0,1-2.04-.44.662.662,0,0,1-.19-.09,3.781,3.781,0,0,0-1.789-.91.551.551,0,0,1-.261-.73c.011-.02.03-.05.04-.07.291-.27.62-.51.9-.79a1.113,1.113,0,0,0,.21-1.39,6.3,6.3,0,0,0-.58-.76.387.387,0,0,1-.05-.35c.149-.34.329-.68.5-1.02.079-.16-.12-.38-.361-.32a.893.893,0,0,1-.959-.19,1.457,1.457,0,0,0-1.55-.31c-.551.12-1.07.33-1.621.45a7.283,7.283,0,0,1-1.05.08c-.529-.34-1.12.14-1.64-.08-.62-.27-1.09.14-1.629.2a4.907,4.907,0,0,1-1.27.02,8.226,8.226,0,0,0-3.161.2,6.831,6.831,0,0,1-1.69.16,3.873,3.873,0,0,0-1.42.33c-.75.35-1.5.69-2.289.98a5.392,5.392,0,0,0-1.641.83,1.987,1.987,0,0,1-1.99.29,3.44,3.44,0,0,0-1.65-.2,9.621,9.621,0,0,1-1.7.03,2.057,2.057,0,0,1-.75-.31,1.751,1.751,0,0,1-.291-.26.789.789,0,0,0-1.12-.15.758.758,0,0,0-.289.44,8.365,8.365,0,0,0-.4,1.06,2.7,2.7,0,0,1-1.68,1.8c-.75.35-1.479.74-2.19,1.15-.659.37-1.289.77-1.289,1.58,0,.32-.271.56-.481.81a1.774,1.774,0,0,0-.449,1.39,10.318,10.318,0,0,1,.06,1.11,1.21,1.21,0,0,1-.3.87c-.279.35-.54.72-.85,1.06a2.669,2.669,0,0,1-.609.5c-.341.22-.74.38-1.06.6a3.245,3.245,0,0,1-1.541.59,1.748,1.748,0,0,0-1.2.71,3.13,3.13,0,0,0-.471.62,2.4,2.4,0,0,1-1.14,1.06,3.006,3.006,0,0,0-1.2,1.25,8.847,8.847,0,0,1-1.861,2.47,1.96,1.96,0,0,0-.459.61,15.192,15.192,0,0,1-1.741,2.75,2.261,2.261,0,0,0-.43,1.22,1.108,1.108,0,0,0,.62,1.28.872.872,0,0,1,.481,1.12,1.845,1.845,0,0,0-.021,1.25,3.739,3.739,0,0,1-.15,3.25,1.372,1.372,0,0,0-.11.36,5.019,5.019,0,0,1-1.5,3,.3.3,0,0,0-.019.34c.209.32.459.62.7.92a.917.917,0,0,1,.2,1.04,1.688,1.688,0,0,0,.18,1.61,2,2,0,0,0,1.06.88,10.161,10.161,0,0,0,1.18.37v-.04l.07-.07-.05.12-.01-.01a.948.948,0,0,0,.55.9,1.389,1.389,0,0,1,.76.85.873.873,0,0,0,.56.53,4.492,4.492,0,0,1,1.5,1.02,1.147,1.147,0,0,1,.4.63,4.281,4.281,0,0,0,.9,2.07,3.382,3.382,0,0,0,1.86,1.46,6.817,6.817,0,0,1,1.62.86,33.563,33.563,0,0,0,3.58,2.32,8.474,8.474,0,0,0,1.949.73,1.182,1.182,0,0,0,.62-.02c.47-.16.91-.35,1.361-.54a6.009,6.009,0,0,1,2.469-.48,9.67,9.67,0,0,0,1.7-.12,4.5,4.5,0,0,1,2.461.28c.2.07.409.12.61.17a2.251,2.251,0,0,0,1.26-.04c.469-.15.95-.25,1.409-.41a5.21,5.21,0,0,0,1.151-.46,6.417,6.417,0,0,1,1.75-.68,15.658,15.658,0,0,1,4.549-.81,3.183,3.183,0,0,1,.62.09,2.988,2.988,0,0,1,1.831,1.47c.159.34.3.7.479,1.02a1.892,1.892,0,0,0,1.74.9,3.315,3.315,0,0,0,.63-.03c.92-.14,1.831-.26,2.73-.44.541-.11.96-.12,1.28.35a1.711,1.711,0,0,0,.6.5,1.828,1.828,0,0,1,.87,1.77,3.255,3.255,0,0,1-.29,1.27c-.12.35-.44.65-.529,1-.1.4.079.87-.051,1.26a3.515,3.515,0,0,1-.85,1.87c-.08.07-.08.22-.1.34a.394.394,0,0,0,.05.18,8.193,8.193,0,0,0,3.109,3.91c.31.25.62.51.94.75a4.334,4.334,0,0,1,1.25,1.48,5.27,5.27,0,0,1,.35.87,7.214,7.214,0,0,0,1.02,2.01,7.521,7.521,0,0,1,.79,2.46c.041.15-.129.35-.149.53a1.751,1.751,0,0,0-.031.72,4.482,4.482,0,0,0,.6,1.58,2.548,2.548,0,0,1,.349.67,2.275,2.275,0,0,1-.74,2.73,10.483,10.483,0,0,0-1.119,1.1,2.149,2.149,0,0,0-.73,1.31,6.387,6.387,0,0,1-.8,2.29,2.5,2.5,0,0,0-.339,1.25c-.011.74-.011,1.49-.011,2.23a1.323,1.323,0,0,0,.44,1.02,6.317,6.317,0,0,1,1.74,2.52,20.419,20.419,0,0,0,1.49,2.86,4.022,4.022,0,0,1,.69,2.1,6.357,6.357,0,0,0,.461,2.36,2.562,2.562,0,0,1,.219.9,10.943,10.943,0,0,0,.481,2.55,5.632,5.632,0,0,0,1.38,2.48c.349.39.67.8,1.039,1.17a2.82,2.82,0,0,1,.7,1.33,9.4,9.4,0,0,0,1.139,2.79,3.828,3.828,0,0,1,.33.68,1.257,1.257,0,0,1-.2,1.56.5.5,0,0,0-.05.69,2.742,2.742,0,0,1,.5,1.58.514.514,0,0,0,.19.33c.74.36,1.49.72,2.25,1.05a.855.855,0,0,0,.61-.02,4.342,4.342,0,0,1,2.231-.52,2.454,2.454,0,0,0,1.029-.2,9.923,9.923,0,0,1,3.95-.22.95.95,0,0,0,.62.04c.61-.32,1.461.03,1.971-.56a.937.937,0,0,1,.579-.17,5.617,5.617,0,0,0,2.75-.91,28.428,28.428,0,0,0,3.231-2.42,9.487,9.487,0,0,0,1.81-1.82c.5-.68,1.109-1.28,1.609-1.95a3.138,3.138,0,0,1,1-.95,3.523,3.523,0,0,0,1.68-2.08c.211-.59.38-1.19.55-1.79a1,1,0,0,0-.12-.89c-.27-.41-.02-.72.31-.97a4.128,4.128,0,0,1,1.661-.8,6.339,6.339,0,0,0,1.979-.67,1.505,1.505,0,0,0,.9-1.19,9.293,9.293,0,0,1,.3-1.83,1.771,1.771,0,0,0-.06-.91c-.31-.95-.6-1.9-.911-2.85a.743.743,0,0,1,.231-.86c1.56-1.07,3.05-2.21,4.579-3.31a5.484,5.484,0,0,1,1.49-.7,15.172,15.172,0,0,0,1.69-.78,5.285,5.285,0,0,0,2.57-2.62,2.446,2.446,0,0,0,.281-1.61,7.675,7.675,0,0,1,0-1.66,5.568,5.568,0,0,0,.02-1.29,4.3,4.3,0,0,1,.12-2.2.81.81,0,0,0-.461-.96,2.628,2.628,0,0,1-1.26-1.65,16.689,16.689,0,0,1-.349-2.55.9.9,0,0,1,.139-.53.674.674,0,0,0-.11-.96.185.185,0,0,0-.06-.04,1.2,1.2,0,0,1-.589-1.58l.12-.21a4.784,4.784,0,0,1,1.019-1.6c.63-.53.77-1.32,1.19-1.96a2.005,2.005,0,0,1,.83-.8,5.035,5.035,0,0,0,1.74-1.36,28.9,28.9,0,0,1,4.221-3.91,9.587,9.587,0,0,1,2.87-1.89,1.291,1.291,0,0,0,.359-.21,17.611,17.611,0,0,0,6.141-6.76,11.519,11.519,0,0,1,1.789-2.92,5.584,5.584,0,0,0,1.06-2.02,11.5,11.5,0,0,0,.31-2.93C138.015,2460.239,137.435,2459.929,137.175,2460.019Zm-88.79,6.79a.345.345,0,0,1-.12-.03c-.039-.02-.039-.1-.059-.14a.19.19,0,0,1,.219-.15l.06.03a.148.148,0,0,1,.06.15A.159.159,0,0,1,48.385,2466.809Zm52.41,22.99a9.047,9.047,0,0,1-.9-.77,1.643,1.643,0,0,1-.5-.79,17.087,17.087,0,0,1-.471-3.26.327.327,0,0,1,.241-.2c.12.01.31.1.329.19.19.71.351,1.43.52,2.14a1.392,1.392,0,0,0,.74,1.75,1.274,1.274,0,0,1,.55.96c.041.28.08.54.111.82C101.065,2490.439,101.086,2490.039,100.795,2489.8Zm1.15,1.68c0,.03-.07.09-.13.1a.232.232,0,0,1-.18-.04.66.66,0,0,1-.169-.79.831.831,0,0,1,.479.72Zm15.1,5.01a.384.384,0,0,1,.45-.28c.02.01.05.03.07.04a.319.319,0,0,1,.06.45c0,.01,0,.01-.01.02a.258.258,0,0,1-.35.09,1.133,1.133,0,0,1-.22-.3Z" transform="translate(-14.31 -2418.607)" fill="#fed841"/>
      <path id="Контур_62" data-name="Контур 62" d="M128.156,2497.434c-.105-.112-.241-.08-.373.023a1.344,1.344,0,0,0-.552.963.988.988,0,0,1-.648.846c-.057.11-.085.255-.182.315-.383.233-.833.338-.907.887a1.734,1.734,0,0,1-1.138,1.246c-.556.258-.971.741-1.526.994a11.46,11.46,0,0,1-1.81.5c-.067.02-.141.025-.2.049-.585.21-1.168.425-1.753.636a12.987,12.987,0,0,1-.659,1.155,2.3,2.3,0,0,0-.209,2.312,6.759,6.759,0,0,0,.3.693,1.642,1.642,0,0,1-.259,1.931c-.514.593-.851,1.273-1.377,1.865a2.131,2.131,0,0,0-.456,2.444,2.725,2.725,0,0,1,.233,1.269,7.1,7.1,0,0,0,.033,1.11,1.632,1.632,0,0,0,.29.686,4.3,4.3,0,0,0,2.2,1.4c.5.172.934-.187,1.393-.347a3.982,3.982,0,0,1,1.04-.166,1.9,1.9,0,0,0,1.65-1.019c.245-.444.484-.891.685-1.352.475-1.1.852-2.231,1.4-3.294.821-1.577,1.331-3.256,2.146-4.837a5.766,5.766,0,0,0,.452-1.427,8.8,8.8,0,0,1,.57-1.769c.23-.494.134-1.136.9-1.352a1.211,1.211,0,0,0,.29-.869,16.264,16.264,0,0,1-.191-1.654A4.538,4.538,0,0,0,128.156,2497.434Z" transform="translate(-14.31 -2418.607)" fill="#fed841"/>
      <path id="Контур_178" data-name="Контур 178" d="M136.963,2458.777a1.768,1.768,0,0,0-.425,0,1.524,1.524,0,0,0-.445.3c-.113.149.2.456.463.478a1.068,1.068,0,0,0,1.048-.382c.089-.129.06-.251-.084-.289C137.268,2458.827,137.006,2458.788,136.963,2458.777Z" transform="translate(-14.31 -2418.607)" fill="#fed841"/>
      <path id="Контур_291" data-name="Контур 291" d="M14.453,2434.149a.243.243,0,0,0,.184,0,2.285,2.285,0,0,0,.245-.249l-.183-.241a2.126,2.126,0,0,0-.314.2C14.263,2433.977,14.294,2434.09,14.453,2434.149Z" transform="translate(-14.31 -2418.607)" fill="#fed841"/>
      <path id="Контур_400" data-name="Контур 400" d="M120.689,2498.394c-.039.011-.109.022-.112.035a.345.345,0,0,0,.032.13c.037-.012.074-.027.112-.036C120.71,2498.483,120.7,2498.437,120.689,2498.394Z" transform="translate(-14.31 -2418.607)" fill="#fed841"/>
      <path id="Контур_443" data-name="Контур 443" d="M126.53,2499.224l.067.062c.015,0,.026-.014.043-.02v-.011Z" transform="translate(-14.31 -2418.607)" fill="#fed841"/>
    </g>
    <!-- <path id="Контур_4137" data-name="Контур 4137" d="M2635.114,1756.887l16.835,22.348,36.8-39.034-35.906,24.285Z" transform="translate(-5866.314 846.299)" fill="none" stroke="#fed841" stroke-linecap="round" stroke-linejoin="round" stroke-width="4" stroke-dasharray="5 7"/> -->
  </g>
</svg>
