<svg xmlns="http://www.w3.org/2000/svg" width="960" height="480" viewBox="0 0 960 480">
  <g id="asia" transform="translate(3506 -2795)">
    <path id="Контур_4117" data-name="Контур 4117" d="M0,0H960V480H0Z" transform="translate(-3506 2795)" fill="none"/>
    <path id="Контур_1808" data-name="Контур 1808" d="M268.4,2417.189a1.119,1.119,0,0,1-1.05.5c-.209-.03-.43.01-.64-.01a1.769,1.769,0,0,0-1.35.45,1.68,1.68,0,0,1-.9.45c-.06,0-.17-.01-.189-.04a2.953,2.953,0,0,1-.63-1.34,3.612,3.612,0,0,1,.049-.74,2.379,2.379,0,0,0-.87-2.36c-.25-.2-.2-.32.08-.63.35-.39.39-.54.16-.78a6.414,6.414,0,0,0-.74-.66,1.265,1.265,0,0,0-1-.22c-.21.04-.41.11-.609.15a.74.74,0,0,1-.74-.24,1.181,1.181,0,0,1-.421-.83c0-.62-.01-1.23.01-1.85.021-.75.031-.75-.83-1-.209-.05-.4-.12-.61-.17a1.56,1.56,0,0,0-.61-.09,4.35,4.35,0,0,0-3.059,1.48,2.5,2.5,0,0,1-1.1.85.506.506,0,0,1-.379-.07c-.08-.05-.1-.19-.121-.3,0-.05.061-.11.1-.16.169-.19.409-.34.27-.63-.08-.17-.121-.36-.211-.53a1.093,1.093,0,0,1,.12-1.23c.071-.11.12-.22.19-.33.18-.29.271-.58-.02-.85a1.39,1.39,0,0,0-1.3-.47.9.9,0,0,0-.51.29c-.24.3-.409.65-.62.97-.14.21-.25.51-.469.6-.94.35-1.06,1.09-1.291,1.8a.959.959,0,0,1-.949.63c-.21.01-.431.01-.64.04a.8.8,0,0,0-.3.13.767.767,0,0,0-.171,1.07,3.262,3.262,0,0,0,1.49,1.01,1.544,1.544,0,0,1,1.13,1,.726.726,0,0,0,.851.41,1.247,1.247,0,0,0,.549-.25,4.789,4.789,0,0,1,1.22-1.02.962.962,0,0,1,.81-.06,5.671,5.671,0,0,0,.741.36,3.3,3.3,0,0,0,.829.1c.361.01.71-.03,1.06-.01a.671.671,0,0,1,.611.65,2.065,2.065,0,0,1-.07.55.439.439,0,0,1-.411.37,3.716,3.716,0,0,0-1.8.52,2.8,2.8,0,0,0-1.279,1.2,3.113,3.113,0,0,1-.58.76,1.669,1.669,0,0,0-.351,1.05,1.088,1.088,0,0,0,.7,1.24c.25.11.49.24.75.34a1.968,1.968,0,0,1,1.01.92c.351.6.75,1.19,1.081,1.8a2.372,2.372,0,0,0,1.119,1.07,3.345,3.345,0,0,1,.771.63c.329.31.219.7-.241.9a1.527,1.527,0,0,1-.36.07c-.01-.01-.01-.01-.019-.01l-.13-.06.1.07h.05a3.331,3.331,0,0,1,1,.87h.01a.467.467,0,0,1-.08.64,7.742,7.742,0,0,0-.76.61.854.854,0,0,0-.139.46h-.06l-.07.05.12-.01a.076.076,0,0,0,.01-.04,1.094,1.094,0,0,1,.75.13,6,6,0,0,1,.789.61c.37.4.63.81.25,1.35a1.506,1.506,0,0,0-.24.88,1.343,1.343,0,0,1-.65,1.28,1.286,1.286,0,0,0-.54.97,1.914,1.914,0,0,1-1.09,1.51c-.43.21-.259.46-.29.76a3.548,3.548,0,0,0,.12,1.45c.091.27-.02.44-.37.56-.19.07-.43.06-.51.26a2.125,2.125,0,0,1-1.1,1.3.318.318,0,0,0-.11.15,3.59,3.59,0,0,1-1.741,1.53c-.17.1-.389.14-.449.34a1.358,1.358,0,0,1-1.031.85,8.7,8.7,0,0,1-1.409.39,6.311,6.311,0,0,0-1.82.46c-.32.13-.541-.04-.781-.17-.2-.11-.37-.12-.48.1a2.875,2.875,0,0,1-1.91,1.36c-.92.33-1.85.62-2.8.86a.377.377,0,0,0-.23.26c-.01.08.071.17.141.26l.06-.05-.031.1-.039-.04a2.528,2.528,0,0,1,0,.55.483.483,0,0,1-.081.16.655.655,0,0,1-.909.17,1.434,1.434,0,0,1-.711-.89c-.089-.54-.479-.7-.99-.81-.2-.04-.4-.16-.6-.18a1.189,1.189,0,0,0-.621.04c-.829.37-1.639.75-2.44,1.15a.811.811,0,0,0-.449.6,1.487,1.487,0,0,1-.531.9l-5.459-4.72-8.671-5.34,1.33-9.33,2-8-9.33,2.67-8.67,8-10-4.67-6.659-9.33-2-14.67-2.721-8.7-.62-1.97,8-6,8.67,2,13.33-8,15.341,2.67h9.329l-.219-1.02-1.781-8.31,10.671,2,10,6,8,6,3.44,13.76a5.69,5.69,0,0,1-.34.59c-.1.11-.21.22-.32.32-.08.08-.16.15-.239.22-.2.17-.421.33-.62.5a1.7,1.7,0,0,0-.69,2.02,2.258,2.258,0,0,1-.731,2.7,6.343,6.343,0,0,1-1.03.91,2.622,2.622,0,0,0-.549.56.867.867,0,0,0,.209,1.18q.51.33,1.05.63a2.761,2.761,0,0,1,1.15,1.07,6.576,6.576,0,0,0,1.14,1.33,4.46,4.46,0,0,1,1.62,2.57c.12.35.19.72.34,1.06A1.807,1.807,0,0,1,268.4,2417.189Z" transform="translate(-3108.585 532.117)" fill="#fed841"/>
    <!-- <path id="Контур_4143" data-name="Контур 4143" d="M2635.114,1756.887l16.835,22.348,36.8-39.034-35.906,24.285Z" transform="translate(-5866.314 1423.836)" fill="none" stroke="#fed841" stroke-linecap="round" stroke-linejoin="round" stroke-width="4" stroke-dasharray="5 7"/> -->
  </g>
</svg>
