<svg xmlns="http://www.w3.org/2000/svg" width="960" height="480" viewBox="0 0 960 480">
  <g id="europe" transform="translate(3506 -3328)">
    <path id="Контур_4117" data-name="Контур 4117" d="M0,0H960V480H0Z" transform="translate(-3506 3328)" fill="none"/>
    <g id="europe-2" data-name="europe" transform="translate(-3086.565 3381.176)">
      <path id="Контур_980" data-name="Контур 980" d="M110.2,2338.65a1.215,1.215,0,0,0,.594.146c.28-.018.544-.141.824-.181a1.2,1.2,0,0,1,1.113.422,1.319,1.319,0,0,1,.343.659c.073.6.514.833,1.1.974a6.566,6.566,0,0,1,1,.288,1.917,1.917,0,0,0,1.017.175,6.872,6.872,0,0,1,.848-.007.294.294,0,0,1,0,.042c.426,0,.854.014,1.276-.01a.458.458,0,0,0,.313-.206,2.909,2.909,0,0,0,.18-.528.515.515,0,0,0-.258-.647c-.407-.243-.863-.429-1.274-.67a5.194,5.194,0,0,1-2.349-2.78c-.19-.528-.314-1.076-.455-1.617a9.182,9.182,0,0,1,.046-2.4,1.866,1.866,0,0,1,.5-1,1.846,1.846,0,0,0,.278-.69c.183-1.032.362-2.066.5-3.1a1.331,1.331,0,0,1,.653-1.108,2.74,2.74,0,0,0,1.3-1.408,12.226,12.226,0,0,1,1.4-2.054,7.73,7.73,0,0,1,1.639-1.69,13.555,13.555,0,0,1,2.357-1.57c.367-.174.657-.468,1.01-.672a1.259,1.259,0,0,0,.728-1.625,1.155,1.155,0,0,0-.058-.13,3.036,3.036,0,0,1-.17-.534.938.938,0,0,0-.471-.589c-.173-.1-.344-.219-.507-.338a1.525,1.525,0,0,0-1.6-.1c-.759.352-1.441.8-1.562,1.64a1.6,1.6,0,0,1-.978,1.149,4.933,4.933,0,0,1-2.144.758,3.336,3.336,0,0,0-2.746,1.487.973.973,0,0,0-.116.156,1.215,1.215,0,0,1-.8.557.711.711,0,0,0-.54.513,2.773,2.773,0,0,1-.352.86.958.958,0,0,0-.181.871c.024.087-.077.211-.144.306a.374.374,0,0,1-.182.092,1.478,1.478,0,0,0-.758.622.914.914,0,0,1-.743.27c-.181.013-.331.3-.249.424.25.371.646.717.726,1.114a7.5,7.5,0,0,1-.124,1.457,1.552,1.552,0,0,1-.274.871c-.245.375-.482.752-.717,1.133-.163.266-.09.543.2.818.529.5.651.729.273,1.1-.561.548-.471,1.284-.883,1.862-.211.3-.081.581.2.823a2.073,2.073,0,0,1,.378.442.78.78,0,0,1-.254,1.073c-.029.017-.058.033-.088.047-.315.145-.661.235-.742.588a1.571,1.571,0,0,0,.1,1.089A1.884,1.884,0,0,0,110.2,2338.65Z" transform="translate(-22.444 -2315.522)" fill="#fed841"/>
      <path id="Контур_981" data-name="Контур 981" d="M33.954,2393.747a1.089,1.089,0,0,1,.772-.2,7.568,7.568,0,0,0,2.114-.1,16.2,16.2,0,0,1,2.519-.307,2.97,2.97,0,0,0,2.019-.9.353.353,0,0,0-.058-.5l-.005,0c-.112-.074-.25-.112-.368-.18-.236-.139-.288-.291-.17-.444a10.938,10.938,0,0,0,.82-1.072c.479-.81-.064-1.68-1.09-1.794-.343-.037-.694-.036-1.04-.051v.04l-.059.071.034-.113h.022a1.111,1.111,0,0,0-.083-.5,8.043,8.043,0,0,1-.869-1.687,1.5,1.5,0,0,0-.774-.862,2.212,2.212,0,0,1-1.255-1.424,2.81,2.81,0,0,0-1.931-1.848c-.159-.049-.2-.133-.137-.28a4.288,4.288,0,0,1,.4-.843,5.214,5.214,0,0,0,.815-1.7.6.6,0,0,0-.513-.676l-.03,0a2.964,2.964,0,0,0-.419-.065c-.5-.006-1,.011-1.494-.008-.1,0-.2-.12-.281-.2-.023-.026.011-.12.048-.164.258-.293.538-.573.78-.875a.6.6,0,0,0,.056-.352c0-.141-.253-.308-.463-.3-.568.026-1.137.055-1.7.1a.836.836,0,0,0-.659.419c-.34.538-.672,1.082-1.006,1.625-.08.132-.2.1-.362.106-.639,0-.83.265-.43.62a1.3,1.3,0,0,1,.434,1.5.426.426,0,0,0,.255.474c.3.174.271.386.107.624-.1.155-.19.32-.286.48a1.584,1.584,0,0,1,.246.223,3.227,3.227,0,0,1,.176.335c.269.463.359.465.9.025.05-.041.1-.085.15-.128a1.054,1.054,0,0,1,.089.345c-.035.306-.107.608-.159.912-.057.336.172.57.59.611a1.8,1.8,0,0,0,.21.03,3.961,3.961,0,0,1,1.049-.017c.393.1.186.551.4.794a2.407,2.407,0,0,0,.386.433.671.671,0,0,1,.312.8c-.219.934-.434,1.069-1.609.939-.07-.007-.14-.034-.209-.034-.178,0-.282.07-.268.2.05.474-.1.978.391,1.378.19.155.088.529-.1.671-.215.158-.444.3-.667.451a2.954,2.954,0,0,0-.485.339.37.37,0,0,0-.08.335.424.424,0,0,0,.263.257,7.674,7.674,0,0,1,2.383.749.156.156,0,1,1-.15.2,1.65,1.65,0,0,0-1.639.668,16.522,16.522,0,0,1-1.526,1.516c-.029.034,0,.126.033.177s.1.122.154.12a1.661,1.661,0,0,0,.6-.068,2.108,2.108,0,0,1,1.194-.323A1.6,1.6,0,0,0,33.954,2393.747Z" transform="translate(-22.444 -2315.522)" fill="#fed841"/>
      <path id="Контур_982" data-name="Контур 982" d="M29.879,2384.594a3.267,3.267,0,0,0-.444-.626,1,1,0,0,0-.494-.318c-.55-.1-1.111-.155-1.642-.224l-.449.06a1.32,1.32,0,0,0-1.148.714c-.129.284-.229.579-.38.854a.5.5,0,0,1-.341.187c-.42.038-.844.035-1.266.056a.442.442,0,0,0-.438.334,5.131,5.131,0,0,1-.071,1.1.739.739,0,0,0,.322.807.747.747,0,0,1,.132,1.023,8.481,8.481,0,0,1-.685.926,1.867,1.867,0,0,1-.3.254c-.419.33-.234.945.281,1.271a2.394,2.394,0,0,0,2.022.252,6.236,6.236,0,0,0,1.146-.478,5.3,5.3,0,0,1,1.973-.639.932.932,0,0,0,.657-.424,2.593,2.593,0,0,0,.534-2.287c-.046-.18-.087-.361-.125-.542a.794.794,0,0,1,.248-.682,2.244,2.244,0,0,1,.293-.268.942.942,0,0,0,.2-1.317Z" transform="translate(-22.444 -2315.522)" fill="#fed841"/>
      <path id="Контур_983" data-name="Контур 983" d="M55.4,2412.824c-.008-.183,0-.369-.02-.55a1.074,1.074,0,0,0-1.18-.956,1.06,1.06,0,0,0-.468.164c-.227.144-.477.258-.708.4a.4.4,0,0,0-.2.476,5.959,5.959,0,0,1,.323,2.172c.036,1.095.657,1.324,1.786.709a.764.764,0,0,0,.451-.581c.032-.367.008-.735.008-1.1h.05C55.427,2413.313,55.412,2413.069,55.4,2412.824Z" transform="translate(-22.444 -2315.522)" fill="#fed841"/>
      <path id="Контур_984" data-name="Контур 984" d="M108.434,2347.53a1.875,1.875,0,0,0,1.4-1.475.4.4,0,0,0-.129-.333,2.225,2.225,0,0,0-1.707-.6.9.9,0,0,0-.744.574c-.041.179-.072.361-.124.628a7.363,7.363,0,0,0,.251.806A.88.88,0,0,0,108.434,2347.53Z" transform="translate(-22.444 -2315.522)" fill="#fed841"/>
      <path id="Контур_985" data-name="Контур 985" d="M98.726,2421.435c-.559.062-1.118.139-1.676.206a3.751,3.751,0,0,0-1.35.517.44.44,0,0,0-.1.615c.011.015.023.029.035.043a1.228,1.228,0,0,0,1.147.344,6.569,6.569,0,0,0,1.181-.412c.568-.235.711-.734.912-1.18C98.822,2421.52,98.767,2421.43,98.726,2421.435Z" transform="translate(-22.444 -2315.522)" fill="#fed841"/>
      <path id="Контур_986" data-name="Контур 986" d="M54.576,2410.7a1.637,1.637,0,0,0,.285-.483c.088-.357.124-.722.162-.967-.028-.243-.038-.365-.056-.486-.008-.06-.032-.118-.042-.18a.414.414,0,0,0-.452-.371.421.421,0,0,0-.131.036,4.237,4.237,0,0,0-.75.321.78.78,0,0,0-.38.8,2.424,2.424,0,0,0,.619,1.335A.606.606,0,0,0,54.576,2410.7Z" transform="translate(-22.444 -2315.522)" fill="#fed841"/>
      <path id="Контур_987" data-name="Контур 987" d="M82.675,2421.585a8.34,8.34,0,0,1-1.888-.08.632.632,0,0,0-.391.108.466.466,0,0,0-.221.28c-.015.1.062.279.142.3.674.17,1.353.312,2.033.458a.6.6,0,0,0,.159,0c.6-.077,1.162-.145,1.717-.222.059-.009.159-.083.154-.113a.453.453,0,0,0-.131-.288A2.532,2.532,0,0,0,82.675,2421.585Z" transform="translate(-22.444 -2315.522)" fill="#fed841"/>
      <path id="Контур_988" data-name="Контур 988" d="M28.2,2378.178a.39.39,0,0,0-.045.013l-.039.085.084-.045A.468.468,0,0,1,28.2,2378.178Z" transform="translate(-22.444 -2315.522)" fill="#fed841"/>
      <path id="Контур_989" data-name="Контур 989" d="M29.3,2377.214a.2.2,0,0,0-.071-.274.186.186,0,0,0-.076-.026.347.347,0,0,0-.191-.015.867.867,0,0,0-.718.6,3.2,3.2,0,0,0-.03.678,3.049,3.049,0,0,0,.35-.112A1.294,1.294,0,0,0,29.3,2377.214Z" transform="translate(-22.444 -2315.522)" fill="#fed841"/>
      <path id="Контур_990" data-name="Контур 990" d="M58.325,2351.586c.027.018.135-.022.173-.059.116-.111.222-.229.33-.345a3.2,3.2,0,0,0-.478.131C58.192,2351.374,58.187,2351.5,58.325,2351.586Z" transform="translate(-22.444 -2315.522)" fill="#fed841"/>
      <path id="Контур_991" data-name="Контур 991" d="M58.987,2351.106h-.074c-.024.024-.048.045-.074.074l.122-.028C58.971,2351.137,58.979,2351.121,58.987,2351.106Z" transform="translate(-22.444 -2315.522)" fill="#fed841"/>
      <path id="Контур_992" data-name="Контур 992" d="M87.205,2420.555a.273.273,0,0,0,.013.1c.01.047.088.078.14.117.066-.017.155-.016.2-.054a2.549,2.549,0,0,0,.235-.284c-.1-.056-.2-.165-.285-.157A.289.289,0,0,0,87.205,2420.555Z" transform="translate(-22.444 -2315.522)" fill="#fed841"/>
      <path id="Контур_993" data-name="Контур 993" d="M33.74,2375.59c-.048-.177-.118-.183-.181-.013-.012.034.05.088.078.132C33.671,2375.669,33.708,2375.63,33.74,2375.59Z" transform="translate(-22.444 -2315.522)" fill="#fed841"/>
      <path id="Контур_994" data-name="Контур 994" d="M56.448,2408.151a1.906,1.906,0,0,0,.215-.175c-.138,0-.279,0-.363.136C56.351,2408.129,56.425,2408.168,56.448,2408.151Z" transform="translate(-22.444 -2315.522)" fill="#fed841"/>
      <path id="Контур_995" data-name="Контур 995" d="M29.47,2382.317a.329.329,0,0,0-.015.044h.06v-.005C29.5,2382.344,29.487,2382.329,29.47,2382.317Z" transform="translate(-22.444 -2315.522)" fill="#fed841"/>
      <path id="Контур_996" data-name="Контур 996" d="M29.291,2382.623c.082-.048.112-.163.157-.261a1.851,1.851,0,0,0-.341-.014c-.051,0-.136.093-.128.131a.2.2,0,0,0,.22.178A.212.212,0,0,0,29.291,2382.623Z" transform="translate(-22.444 -2315.522)" fill="#fed841"/>
      <path id="Контур_997" data-name="Контур 997" d="M31.774,2385.761a.215.215,0,0,0-.168.021c-.1.09-.058.161.109.165.048,0,.1-.048.147-.074C31.833,2385.833,31.814,2385.773,31.774,2385.761Z" transform="translate(-22.444 -2315.522)" fill="#fed841"/>
      <path id="Контур_998" data-name="Контур 998" d="M66.242,2345.64c-.035-.171-.1-.182-.176-.023-.014.031.044.089.068.135C66.171,2345.715,66.207,2345.678,66.242,2345.64Z" transform="translate(-22.444 -2315.522)" fill="#fed841"/>
      <path id="Контур_999" data-name="Контур 999" d="M70.352,2343.744c.008-.02.016-.041.025-.061a.47.47,0,0,1-.07.021.218.218,0,0,1,.012.033Z" transform="translate(-22.444 -2315.522)" fill="#fed841"/>
      <path id="Контур_1000" data-name="Контур 1000" d="M70.414,2343.59c-.011.031-.024.062-.034.093C70.488,2343.653,70.519,2343.623,70.414,2343.59Z" transform="translate(-22.444 -2315.522)" fill="#fed841"/>
      <path id="Контур_1001" data-name="Контур 1001" d="M159.075,2385.519l-.159-7.33-.341-4.5s-.83-5.84-.83-6.5a35.843,35.843,0,0,0-.829-3.84l.659-4-.159-10-6.371-5.56a1,1,0,0,0,.121.94.266.266,0,0,0,.069.08c.221.24.5.44.71.69a1.144,1.144,0,0,1,.25,1.23,3.835,3.835,0,0,0-.359,1.8,1.445,1.445,0,0,1-.291.87,4.721,4.721,0,0,0-1.05,1.79c-.019.08-.24.17-.349.16-.851-.07-1.69-.16-2.531-.25-.13-.02-.339-.08-.36-.15a1.876,1.876,0,0,1-.02-.52l-.029-.01c-.151,0-.17-.04-.05-.11a.871.871,0,0,1,.079.1v.02c.181.08.361.17.541.23a1.111,1.111,0,0,0,1.51-.47.274.274,0,0,0,.039-.07,13.974,13.974,0,0,0,1-3.4.785.785,0,0,0-.1-.54,1.837,1.837,0,0,1-.33-1.42.754.754,0,0,0-.43-.79c-.291-.18-.591-.35-.88-.53a2.128,2.128,0,0,1-.87-1.03c-.55-1.4-1.161-2.78-1.651-4.2a3.677,3.677,0,0,0-1.63-2.08,1.26,1.26,0,0,1-.659-1.11,12.306,12.306,0,0,0-.57-3.66.808.808,0,0,0-.55-.54,5.4,5.4,0,0,0-3.32-.25c-.25.08-.581-.04-.841.01a.615.615,0,0,0-.409.36,3.15,3.15,0,0,0-.05.92c.039.99.1,1.98.149,2.97a1.681,1.681,0,0,1-.479,1.38,1.843,1.843,0,0,0-.55,1.54.988.988,0,0,0,.49.96,1.514,1.514,0,0,1,.779.85c.111.53.56,1.03.241,1.6a.41.41,0,0,0,.009.36q.451.735.96,1.44c.031.04.261.01.36-.04a.742.742,0,0,1,.95.06,4.172,4.172,0,0,0,1.99,1.33.417.417,0,0,1,.19.31,7.2,7.2,0,0,1-.029.92.321.321,0,0,1-.39.23.361.361,0,0,1-.091-.04c-.42-.23-.829-.48-1.24-.71a6.482,6.482,0,0,0-.9-.49c-.52-.2-1.07-.33-1.6-.52-.459-.15-.9-.34-1.36-.51a1.425,1.425,0,0,1-1.119-.44,1.9,1.9,0,0,0-.37-.2,5.881,5.881,0,0,0-3.1-.45c-.13.02-.269.04-.42.05a5.439,5.439,0,0,1-3.39-.87,17.54,17.54,0,0,0-1.57-.95.528.528,0,0,0-.55.18.851.851,0,0,0-.1.16,1.061,1.061,0,0,0,.489,1.31c.55.38,1.36.39,1.8.95.06.08.25.1.39.12a1.172,1.172,0,0,1,.72.37c.4.43.78.87,1.171,1.31a.456.456,0,0,1-.021.64c-.02.01-.029.02-.049.03-.42.32-.94.55-1.091,1.07a.173.173,0,0,1-.149.08c-.111-.06-.26-.13-.3-.22-.1-.23-.12-.48-.22-.7a.765.765,0,0,0-.87-.36,3.17,3.17,0,0,1-1.57.48.213.213,0,0,0-.169.1,1.082,1.082,0,0,1-1.2.56,1.739,1.739,0,0,0-1.359.45,5.369,5.369,0,0,1-1.411.77c-.139.08-.4.03-.6.04a1.861,1.861,0,0,1,0-.35,1.355,1.355,0,0,0-.49-1.3c-.471-.03-.831.07-.99.51a.405.405,0,0,1-.27.22c-.441-.02-.54.37-.841.49a6.916,6.916,0,0,1-1.019.25,2.345,2.345,0,0,0-1.211.71,11.262,11.262,0,0,1-2.6,2.16.752.752,0,0,0-.431.6,7.271,7.271,0,0,1-.17.91.763.763,0,0,1-.229.3,1.853,1.853,0,0,1-2.131.13c-.28-.28-.6-.53-.89-.8a.5.5,0,0,1-.1-.7.338.338,0,0,1,.12-.12c.33-.22.7-.41,1.049-.61a.428.428,0,0,0,.12-.61.1.1,0,0,0-.039-.05c-.271-.28-.591-.53-.831-.83a1.854,1.854,0,0,0-1.849-.67,4.983,4.983,0,0,1-1.68-.01.3.3,0,0,0-.171.08.179.179,0,0,0-.04.25.136.136,0,0,0,.071.06,2.41,2.41,0,0,1,1.149,2.62,4.493,4.493,0,0,0-.06.73.614.614,0,0,0,.38.62,1.027,1.027,0,0,1,.69,1.05,5.808,5.808,0,0,1-.05.74.571.571,0,0,1-.59.43c-.42-.07-.84-.14-1.25-.23a1.3,1.3,0,0,0-1.5.4,2.828,2.828,0,0,1-.74.65,3.759,3.759,0,0,0-.99.95c-.63.76-1.029,1.05.06,2.06a1.2,1.2,0,0,1,.221.32.617.617,0,0,1-.141.69.65.65,0,0,1-.72.25,17.865,17.865,0,0,1-3.06-1.28,1.786,1.786,0,0,0-.6-.17.532.532,0,0,0-.53.22c-.11.22-.2.46-.31.69a.588.588,0,0,0,.161.68,2.207,2.207,0,0,0,1.6.82.889.889,0,0,1,.39.12.466.466,0,0,1,.271.47.667.667,0,0,1-.711.54,2.853,2.853,0,0,1-1.89-.72,1.966,1.966,0,0,0-1.13-.47.728.728,0,0,1-.579-.49,4.054,4.054,0,0,0-.721-1.53,1.29,1.29,0,0,1-.17-1.06c.12-.93-.2-1.39-1.179-1.74a2.485,2.485,0,0,1-1.05-.56c-.3-.32-.8-.47-.981-.88h-.079c0-.04-.031-.06-.041-.09a.49.49,0,0,1-.279-.23c-.041-.01-.06-.04-.111-.04l-.009-.1.069.05c0,.04.03.05.051.08a.4.4,0,0,1,.279.24.3.3,0,0,0,.1.04.384.384,0,0,0,.019.05h.01a5.208,5.208,0,0,1,1.771.38,25.837,25.837,0,0,0,4.669,1.13,6.933,6.933,0,0,0,3.55-.4,1.875,1.875,0,0,0,.531-.3,3.737,3.737,0,0,0,1.32-2.27.913.913,0,0,0-.151-.7c-.44-.55-.76-1.19-1.549-1.49a3.132,3.132,0,0,1-.821-.58,2.1,2.1,0,0,0-1.09-.47,4.245,4.245,0,0,1-1.9-.78,13.488,13.488,0,0,0-1.761-1.03,6.931,6.931,0,0,0-4.229-1.02c-.281,0-.56.1-.841.1a5.353,5.353,0,0,1-1.05-.11c-.309-.06-.19-.24-.109-.42a.4.4,0,0,0-.151-.5,5,5,0,0,0-.74-.36.682.682,0,0,0-.77.09,1.018,1.018,0,0,1-1.12.32,2.559,2.559,0,0,0-1.26-.04,1,1,0,0,1-.55-.2.565.565,0,0,1-.19-.32c-.029-.12.081-.2.26-.2a1.688,1.688,0,0,0,.99-.29c.26-.2.541-.4.81-.59.151-.11.091-.37-.1-.47a16.322,16.322,0,0,0-2.951-1.01c-.15-.04-.39.11-.549.21a.806.806,0,0,0-.25.3c-.1.13-.2.18-.291.1a.259.259,0,0,1-.089-.16c0-.19.029-.37.029-.56a.751.751,0,0,0-.6-.68.9.9,0,0,0-.77.2.912.912,0,0,0-.409.62,1.267,1.267,0,0,1-.18.53c-.05.08-.211.13-.331.17-.029.01-.13-.07-.14-.12-.089-.32-.18-.58-.67-.56-.27.02-.26-.22-.31-.39-.119-.43-.57-.53-.76-.29-.38.48-1.13.5-1.469.99-.57.07-.94.49-1.461.64a.564.564,0,0,1-.179.03v.01h-.011a.018.018,0,0,1,0,.03l-.08.08.06-.11h.02v-.01h.011a.4.4,0,0,0-.04-.28,1.082,1.082,0,0,0-.171-.04c-.9-.01-1,.09-.789.79a1.726,1.726,0,0,1,.059.32h.06l.081.09-.13-.05c0-.01-.011-.03-.011-.04a5.473,5.473,0,0,0-2.309.64c-.071.02-.081.22-.06.33.02.18.159.36.109.51-.07.21-.359.1-.539.15-.341.09-.671.18-1,.27l.039-.03h-.039a2.148,2.148,0,0,0,.019-.5c-.04-.21-.259-.3-.47-.32-.08,0-.26.14-.26.19a3.711,3.711,0,0,0,.3.63h-.04l.05.03a1.237,1.237,0,0,0-1.27.65v.01c0,.02.13.17-.04.04a.139.139,0,0,1,.031-.04c-.2,0-.411,0-.611.01a.838.838,0,0,0-.8.5.716.716,0,0,0,.23.99.031.031,0,0,1,.02.01,2.437,2.437,0,0,1,.331.22c.149.12.1.33-.11.46s-.44.33-.76.21a1.94,1.94,0,0,0-1.041-.04c-.23.04-.42-.18-.35-.35.12-.29.25-.57.37-.86.01-.04-.07-.11-.12-.14a.245.245,0,0,0-.169,0c-.49.44-.99.87-1.461,1.33-.159.16,0,.34.12.49.211.24.13.44-.11.64a1.013,1.013,0,0,0-.19.27,5.023,5.023,0,0,0,.771-.02c.49-.08.959-.23,1.449-.3a3.423,3.423,0,0,1,.84.08.322.322,0,0,1,.13.07.936.936,0,0,1-.15.12c-.25.12-.5.24-.759.34a1.856,1.856,0,0,1-.411.08c-.37.07-.39.28-.289.54-.211.14-.51.24-.611.42s.02.47-.009.71c-.01.11-.14.21-.211.31-.109.16-.32.33-.3.47a.677.677,0,0,1-.49.73,1.133,1.133,0,0,0-.781.79c-.08.36-.44.67-.49,1.02-.03.33-.039.57-.45.7a.345.345,0,0,0-.26.41.037.037,0,0,1,.01.03,1.467,1.467,0,0,1,0,1.09,7.944,7.944,0,0,0-.26,1.07.742.742,0,0,1-.56.51,5.821,5.821,0,0,0-.589.2.4.4,0,0,0-.221.27.778.778,0,0,1-.38.8,3.5,3.5,0,0,0-1.529,1.72,3.148,3.148,0,0,1-.261.51.788.788,0,0,1-.7.34c-.279-.02-.56-.07-.839-.09a.316.316,0,0,0-.19.07.22.22,0,0,0-.041.3c.01.02.031.03.041.04a1.913,1.913,0,0,1,.149.14c.11.17.08.44-.089.46-.651.05-1.021.68-1.721.6-.44.29-.89.57-1.33.87-.04.03-.04.12-.03.18.1.41-.19.53-.58.59a3.063,3.063,0,0,0-.8.22.824.824,0,0,0-.38.4,6.074,6.074,0,0,0-.08.72c-.149.66.181,1.35-.19,1.99-.019.04.03.12.051.18a7.583,7.583,0,0,0,.8,1.26,5.105,5.105,0,0,1,.409.84.653.653,0,0,1-.13.51,6.859,6.859,0,0,1-.54.56.406.406,0,0,0,.141.5c.18.09.39.14.57.21.24.09.329.28.2.42-.17.19-.37.37-.53.57a.628.628,0,0,0,.1.69,7.285,7.285,0,0,0,2.51,1.35.817.817,0,0,0,.411.04,4.01,4.01,0,0,0,2.36-1.13,3.426,3.426,0,0,1,.82-.84c.549-.37,1.329-.46,1.649-1.1a.223.223,0,0,1,.161,0c.209.16.51.3.589.5.14.34.1.73.21,1.08a6.288,6.288,0,0,1,.48,1.21,4.165,4.165,0,0,0,.851,1.86,10.12,10.12,0,0,0,1.12,1.57c.169.17.06.34,0,.51s-.1.33-.151.49h.041v.1a.272.272,0,0,0-.051-.06c0-.01.01-.02.01-.04a2.629,2.629,0,0,0-1.849.71.534.534,0,0,0-.081.69c.141.21.331.4.461.61a.259.259,0,0,1-.051.3.778.778,0,0,1-.37-.03.52.52,0,0,1-.18-.09c-.5-.35-.639-.98-1.29-1.21-.049-.02-.049-.22-.039-.33a1.211,1.211,0,0,1,.839-.97c.161-.06.151-.21.031-.32a.456.456,0,0,0-.151-.12.934.934,0,0,1-.68-1.13.874.874,0,0,1,.11-.26,1.652,1.652,0,0,0,.17-.9.428.428,0,0,0-.42-.34,1.425,1.425,0,0,0-.409.09,13.363,13.363,0,0,1-2.281,1.33.368.368,0,0,0-.19.3c.02.72-.6,1.38-.23,2.13.04.09-.07.23-.109.34a.584.584,0,0,0,.169.68c.141.14.321.28.36.45a13.426,13.426,0,0,1,.57,2.33c.021.42-.63,1.04-1.08.93a2.3,2.3,0,0,0-1.63.16,5.29,5.29,0,0,1-1.389.46,7,7,0,0,0-1.75.66,1.738,1.738,0,0,0-1.031,1.1c-.58,1.65-.6,1.65-2.08,2.67-.319.22-.74.35-1.089.56a1.159,1.159,0,0,0-.4.42c-.079.23-.159.47-.219.71a1.189,1.189,0,0,1-.86.75c-.2.06-.421.09-.621.15a1.292,1.292,0,0,0-.79.58c-.229.4-.659.41-1.1.37a2.09,2.09,0,0,1-.951-.39,1.274,1.274,0,0,0-.58-.11c-.2-.01-.459.22-.43.35.1.36.211.71.3,1.07.06.26-.17.46-.49.48a3.273,3.273,0,0,1-1.46-.18,1.629,1.629,0,0,0-.819-.09c-.551.1-1.091.27-1.63.42a.441.441,0,0,0-.31.44c.11.61.169,1.23,1.169,1.27a8.409,8.409,0,0,1,1.2.38,1.726,1.726,0,0,1,1.37,1.06,2.279,2.279,0,0,0,1.149,1.27.9.9,0,0,1,.541.94c-.05.98-.1,1.96-.2,2.94a5.186,5.186,0,0,1-.32,1.07.939.939,0,0,1-1.02.51c-.75-.27-1.55.09-2.29-.23a1.007,1.007,0,0,0-.62-.04,3.808,3.808,0,0,1-2.09-.04,4.941,4.941,0,0,0-2.29-.16,1.342,1.342,0,0,1-.63-.03,2.015,2.015,0,0,0-2.3.43c-.109.12-.39.12-.59.19a3.142,3.142,0,0,0-.389.15c-.241.1-.421.44-.31.62a2.464,2.464,0,0,1,.44,1.93c-.01.05.029.12.04.18a5.462,5.462,0,0,1-.651,3.95,10.855,10.855,0,0,0-.48,1.03.644.644,0,0,0,.1.71,2.558,2.558,0,0,1,.8,2.2.637.637,0,0,0,.05.36c.049.11.13.27.239.29a3.178,3.178,0,0,0,1.641.25,4.033,4.033,0,0,1,.849-.1,1.119,1.119,0,0,1,.92.39c.281.35.52.73.81,1.08a1.2,1.2,0,0,0,1.34.28,9.956,9.956,0,0,0,.9-.49,3.917,3.917,0,0,1,2.409-.56,17.567,17.567,0,0,0,1.92-.07,1.127,1.127,0,0,0,.89-.43,1.727,1.727,0,0,1,1-.65,1.153,1.153,0,0,0,.85-.75,3.273,3.273,0,0,1,.991-1.41c.219-.19.329-.46.139-.67-.829-.88-.389-1.59.34-2.28.191-.18.381-.37.56-.55a3.009,3.009,0,0,1,2.011-1.23c.959-.39,1.69-.91,1.719-1.93a10.274,10.274,0,0,1,.12-1.1,3.709,3.709,0,0,1,.14-.54,1.307,1.307,0,0,1,1.3-.76,7.481,7.481,0,0,1,2.83.68.914.914,0,0,0,1.16-.17,4.325,4.325,0,0,1,2.051-1.27,1.652,1.652,0,0,0,.659-.45,1.528,1.528,0,0,1,1.73-.32,2.309,2.309,0,0,1,1.411,1.05c.25.44.5.87.76,1.31a23.958,23.958,0,0,1,2.549,2.17,3.882,3.882,0,0,0,2.11,1.18,10.379,10.379,0,0,1,2.521,1.3,2.5,2.5,0,0,0,1.25.97.968.968,0,0,1,.429.37c.23.46.4.93.581,1.4a.538.538,0,0,1,0,.35c-.211.53-.391,1-1.211,1.13a15.157,15.157,0,0,1-3.8.3,1.369,1.369,0,0,0-.6.15.46.46,0,0,0-.22.29.38.38,0,0,0,.071.34c.419.23.849.45,1.279.64.88.4,1.77.78,2.65,1.17a.515.515,0,0,0,.53-.22,1.288,1.288,0,0,0,.181-.53c.009-.24-.1-.49-.1-.73a.721.721,0,0,1,.781-.66h.039a1.035,1.035,0,0,0,.99-.38.456.456,0,0,0,.07-.08c.07-.1.13-.21.19-.31.29-.44.56-.87.831-1.31a.89.89,0,0,0-.071-1.05c-.119-.15-.3-.3-.33-.47a1.451,1.451,0,0,1,.06-.71.748.748,0,0,1,1-.36c.01.01.031.01.041.02.349.2.639.47.969.68a.42.42,0,0,0,.36-.08.642.642,0,0,0-.05-1,15.251,15.251,0,0,0-3.3-1.67.661.661,0,0,1-.559-.68.378.378,0,0,0-.221-.27,3.913,3.913,0,0,0-.829-.15,2.28,2.28,0,0,1-1.651-.75,4.3,4.3,0,0,1-.849-1.05,5.137,5.137,0,0,0-1.611-1.7c-.259-.21-.589-.34-.86-.54a1.133,1.133,0,0,1-.5-.98c.01-.31.041-.61.06-.92a.5.5,0,0,1,.351-.42,5.418,5.418,0,0,1,.979-.35.387.387,0,0,1,.331.15c.109.29.139.6.25.88.1.23.32.5.62.42.479-.11.75.3,1.19.25a.594.594,0,0,1,.659.38,3.352,3.352,0,0,0,1.74,1.79,4.226,4.226,0,0,0,2.06.85,2.509,2.509,0,0,0,1.08.57A2.388,2.388,0,0,1,78,2409c.4.35.76.74,1.151,1.09a.732.732,0,0,1,.269.66c-.04.37.01.74-.009,1.11a1.51,1.51,0,0,0,.73,1.63c.06.03.119.11.1.15-.2.55.25.76.661,1.02a11.058,11.058,0,0,1,.919.76c.1.55.79.85.821,1.43.2.15.2.2.01.34,0,.14.01.28.01.41a2.179,2.179,0,0,1,.54.34,2.154,2.154,0,0,1,.679,1.04c.031.14.261.29.44.36a3.583,3.583,0,0,0,1.651.28c.25-.02.449-.13.339-.33-.33-.62.44-.99.38-1.54a.279.279,0,0,1,.18-.06c.55.15.911-.24,1.37-.34a.2.2,0,0,0,.161-.23.132.132,0,0,0-.021-.06,1.939,1.939,0,0,0-.89-1.22,2.154,2.154,0,0,1-.7-.41c-.069-.08-.129-.16-.19-.24-.47-.57-.91-1.16-1.35-1.75a.635.635,0,0,1-.049-.36.42.42,0,0,1,.049-.18c.081-.13.2-.15.341-.04.11.08.2.18.31.26.5.36.969.35,1.269-.01l1.741-6.42,5.1.42.021-.02a1.363,1.363,0,0,0,.579-1.14,8.2,8.2,0,0,1,.111-1.1.674.674,0,0,1,.5-.55,1.042,1.042,0,0,0,.829-.96,1.487,1.487,0,0,1,.291-.68c.44-.56.909-1.1,1.38-1.65a.948.948,0,0,1,.969-.17,1.615,1.615,0,0,1,.2.07,3.93,3.93,0,0,0,2.489.83c.22,0,.35.28.211.41-.19.19-.4.35-.591.53a.285.285,0,0,0,.021.4.206.206,0,0,0,.1.06c.12.06.26.09.39.14a1.087,1.087,0,0,1,.711.85.8.8,0,0,0,.969.57c.05-.02.1-.03.141-.05.2-.07.39-.15.58-.23.379-.17.779-.31,1.129-.51a3.519,3.519,0,0,1,1.621-.39,1.261,1.261,0,0,0,.379-.15.428.428,0,0,0,.22-.48.453.453,0,0,0-.46-.32c-.06,0-.13.01-.209.01-1.591.17-1.62.17-2.541-.93l-.13.04.09-.09a.156.156,0,0,1,.04.05h.01a3.5,3.5,0,0,1,2.081-1.11,2.673,2.673,0,0,0,1.32-.52,3.541,3.541,0,0,1,2.549-.6c.11.01.22.02.321.02l.049-.04.12-.06-.07.11h-.1c-.331.29-.661.58-1,.87a.474.474,0,0,0-.11.66h.009a.484.484,0,0,1,.02.53,3.586,3.586,0,0,1-1.25,1.43.307.307,0,0,0-.049.33,2.754,2.754,0,0,0,1.619,1.11,5.355,5.355,0,0,1,2.341,1.23,10.217,10.217,0,0,0,2.829,1.63,1.754,1.754,0,0,1,.31.15l11.32-.72a1.966,1.966,0,0,1-.07-.25,3.265,3.265,0,0,0-1.37-2.01.852.852,0,0,1-.32-1.01,9.663,9.663,0,0,1,.4-1.05,1.151,1.151,0,0,1,.72-.64,3.516,3.516,0,0,0,1.851-1.18,1.341,1.341,0,0,1,.459-.37q1.187-.63,2.4-1.2a.9.9,0,0,1,.6-.09,3.027,3.027,0,0,0,.59.16.241.241,0,0,0,.081.02l.359-1.36,1-5.81,7.17-2.36,3.5,1,5.83.33s7.341-1.33,8.44-1.51S159.075,2385.519,159.075,2385.519Zm-68.38-12.99a2.194,2.194,0,0,0-1.06.58c-.46.68-1.06.66-1.8.42a8.868,8.868,0,0,0-1.451-.28,1.39,1.39,0,0,0-.609-.01c-.68.17-1.351.36-2.011.58a1.552,1.552,0,0,0-1.25,1.34c-.02.35-.289.55-.65.65-.269.07-.55.1-.82.18-.53.15-.61.48-.23,1.01a.824.824,0,0,0,.091.1,2.727,2.727,0,0,0,1.449-.69.544.544,0,0,1,.75,0,4.954,4.954,0,0,0,.69.43.566.566,0,0,1,.371.42,14.577,14.577,0,0,1,.019,1.48.636.636,0,0,1-.519.53.8.8,0,0,1-.58-.14,10.919,10.919,0,0,1-.841-.84.789.789,0,0,0-.93-.23,1.642,1.642,0,0,0-1.229.93c-.141.35-.321.69-.451,1.04a2.437,2.437,0,0,0-.12,1.46c.151.6.25,1.22.35,1.83a.376.376,0,0,1-.2.29,8.749,8.749,0,0,1-.981.34.8.8,0,0,0-.61.68c-.1.6-1.4.7-1.75.24-.07-.1-.14-.21-.21-.32a.85.85,0,0,0-.88-.39,5.025,5.025,0,0,0-2.009.55,26.02,26.02,0,0,1-2.6,1.26c-.3.12-.5.44-.779.61a.717.717,0,0,1-.591.05,6.179,6.179,0,0,1-.99-.92c-.1-.12-.01-.36-.03-.54s-.35-.29-.5-.19a2.17,2.17,0,0,1-1.11.48,4.527,4.527,0,0,0-1.719.7.444.444,0,0,1-.37-.07,1.628,1.628,0,0,0-.82-.54,2.539,2.539,0,0,1-.971-.29,1.849,1.849,0,0,1-.45-.82c-.04-.08.03-.21.07-.31a.214.214,0,0,1,.18-.03,6.015,6.015,0,0,1,1.741.66,1.016,1.016,0,0,0,1.43-.15,1.055,1.055,0,0,0,.13-.22,3.578,3.578,0,0,0,.579-2.38,1.483,1.483,0,0,1,.3.37c.529,1.25.769.91,1.949.78a.586.586,0,0,0,.531-.5.906.906,0,0,1,.869-.69,4.486,4.486,0,0,1,.641-.07,1.332,1.332,0,0,0,1.4-.62c.971.15.911-.53,1.07-1.02a.889.889,0,0,0,.01-.37c-.029-.21-.159-.31-.419-.26a.343.343,0,0,1-.2,0,.2.2,0,0,1-.09-.14,5.1,5.1,0,0,1,.171-1.83,2.371,2.371,0,0,0,.149-.91,1.361,1.361,0,0,1,.83-1.2,10.091,10.091,0,0,0,1.06-.61,1.242,1.242,0,0,0,.591-1.13c-.031-.24.079-.48.069-.72a.863.863,0,0,0-.149-.52,4.165,4.165,0,0,0-1.8-1.52.887.887,0,0,1-.611-.91c.01-.98.041-1.97.08-2.95a1.171,1.171,0,0,1,.221-.51,7.246,7.246,0,0,1,2.219-2.19,9.958,9.958,0,0,0,1.281-.95,3.541,3.541,0,0,0,1.259-1.67,1.191,1.191,0,0,0,.08-.89,2.915,2.915,0,0,1,.341-2.12,1.493,1.493,0,0,1,1.669-.87,5.015,5.015,0,0,1,2.88.42c.261.12.41.68.18.8-.31.17-.57.3-.57.69a1.2,1.2,0,0,1-.289.67,23.5,23.5,0,0,1-2.071,2.58,2.059,2.059,0,0,0-.58.76c-.159.42-.519.54-1,.5-.26-.02-.409.11-.38.33a1.726,1.726,0,0,1-.1.9,1.473,1.473,0,0,0,.011.72c.039.24.19.47.25.7a6.548,6.548,0,0,1,.419,2.9,1.687,1.687,0,0,0,.05.55.813.813,0,0,0,.6.7,7.11,7.11,0,0,1,.729.38l.011-.01c-.021-.01-.041-.03-.06-.04l.14-.06-.08.1a1.249,1.249,0,0,0,.459.21h.03a1,1,0,0,1,1.021.47.935.935,0,0,0,1.11.3,8.307,8.307,0,0,0,1.179-.42,10.353,10.353,0,0,1,4.06-.9c.49,0,.98-.09,1.471-.12.129,0,.349.03.379.1.25.57.96.43,1.4.7a1.042,1.042,0,0,1,.18.1c.041.03.06.12.05.12A5.713,5.713,0,0,1,90.695,2372.529Z" transform="translate(-22.444 -2315.522)" fill="#fed841"/>
    </g>
    <!-- <path id="Контур_4142" data-name="Контур 4142" d="M2635.114,1756.887l16.835,22.348,36.8-39.034-35.906,24.285Z" transform="translate(-5866.314 2001.374)" fill="#fed841"/> -->
  </g>
</svg>
