<?xml version="1.0" encoding="utf-8"?>
<!-- Generator: Adobe Illustrator 24.1.0, SVG Export Plug-In . SVG Version: 6.00 Build 0)  -->
<svg version="1.1" id="Слой_1" xmlns="http://www.w3.org/2000/svg" xmlns:xlink="http://www.w3.org/1999/xlink" x="0px" y="0px"
	 viewBox="0 0 960 480" style="enable-background:new 0 0 960 480;" xml:space="preserve">
<style type="text/css">
	.st0{fill:none;}
	.st1{fill:#FED841;}
	.st2{fill-rule:evenodd;clip-rule:evenodd;fill:#FED841;}
</style>
<g id="usa" transform="translate(4555 -2262)">
	<!-- <path id="Контур_4117" class="st0" d="M-4555,2262h960v480h-960V2262z"/>
	<path id="Контур_4138" class="st1" d="M-4497.2,2603.2l16.8,22.3l36.8-39l-35.9,24.3L-4497.2,2603.2z"/> -->
	<g>
		<path class="st2" d="M-4380.8,2331.8c0.4,0,0.8,0.2,1,0.6c0.1,0.3,0.3,0.7,0.5,1c0.1,0.2,0.3,0.2,0.5,0.2c0.4-0.1,0.8-0.2,1.2-0.3
			c0.1,0,0.1-0.1,0.2-0.1c0-0.1,0-0.1,0-0.2c-0.3-0.4-0.5-0.8-0.7-1.3c-0.2-0.6-0.7-1-1.3-1c-0.3,0-0.6-0.3-0.9-0.5
			c-0.1,0-0.3,0-0.4,0c-0.3,0.2-0.6,0.5-0.8,0.9c0,0.2,0,0.4,0.2,0.5C-4381.2,2331.7-4381,2331.7-4380.8,2331.8z"/>
		<path class="st2" d="M-4379.8,2345.3c0.4-0.1,0.7-0.6,0.7-1c-0.1-0.3-0.4-0.4-0.7-0.5c-0.5,0.1-1.1,0.1-1.7,0.3
			c-0.1,0-0.2,0.2-0.2,0.3c0,0.3,0.1,0.5,0.3,0.6C-4381,2345.4-4380.4,2345.5-4379.8,2345.3z"/>
		<path class="st2" d="M-4391.7,2363.8c-0.1,0-0.3,0-0.4,0.1c-0.5,0.5-1,1-1.6,1.5v0.1c0,0.1,0.1,0.1,0.2,0.1c0.8,0,1.5-0.3,2.1-0.8
			c0.1-0.1,0.2-0.3,0.2-0.4C-4391.2,2364.1-4391.5,2363.8-4391.7,2363.8z"/>
		<path class="st2" d="M-4394.9,2364.9c-0.2,0-0.4,0-0.6,0.1c-0.6,0.3-1.1,0.8-1.5,1.3c-0.1,0.1-0.1,0.2,0.1,0.3c0.1,0,0.1,0,0.2,0
			c0.8-0.2,1.5-0.7,2-1.2c0,0,0-0.1,0-0.2C-4394.7,2365.1-4394.8,2364.9-4394.9,2364.9z"/>
		<path class="st2" d="M-4362.8,2354.2c-0.3,0.3-0.8,0.5-0.9,0.9c0.5,0.1,0.9,0.1,1.4,0c0.1,0,0.2-0.1,0.3-0.2
			c0.1-0.1,0.1-0.5-0.1-0.7C-4362.2,2354.1-4362.5,2354.1-4362.8,2354.2z"/>
		<path class="st2" d="M-4363.3,2355.5c-0.1-0.1-0.3-0.2-0.4-0.3l0,0c0,0,0,0-0.1,0l0.1,0.1c-0.3,0.2-0.6,0.3-1,0.3
			c-0.3-0.1-0.7,0-0.8,0.3c-0.1,0.1-0.2,0.2-0.3,0.2c-0.1,0-0.1,0-0.2,0c-1.5,0.2-1.8,0.5-1.8,1.8c0,0.2,0.1,0.4,0.3,0.5
			c0.1,0.1,0.2,0.3,0.3,0.5c0.1,0.1,0.2,0.1,0.4,0.1c0.7-0.6,1.6-1.1,2.5-1.3c0.4-0.1,0.7-0.5,1.2-0.7c0.3-0.2,0.4-0.5,0.3-0.8
			C-4362.9,2355.7-4363.1,2355.6-4363.3,2355.5z"/>
		<path class="st2" d="M-4390.5,2363.6l0.1,0.1l0.1-0.1l-0.1-0.1C-4390.4,2363.6-4390.5,2363.6-4390.5,2363.6z"/>
		<path class="st2" d="M-4379.5,2362.3L-4379.5,2362.3L-4379.5,2362.3C-4379.5,2362.2-4379.5,2362.3-4379.5,2362.3z"/>
		<path class="st2" d="M-4379.6,2362.4v-0.1C-4379.7,2362.3-4379.7,2362.4-4379.6,2362.4z"/>
		<path class="st2" d="M-4372.7,2358.5L-4372.7,2358.5L-4372.7,2358.5L-4372.7,2358.5L-4372.7,2358.5z"/>
		<path class="st2" d="M-4264.6,2439.9c-0.7,0-1.4-0.3-1.9-0.8c-0.5-0.5-1-1-1.4-1.8c-0.5-0.8-1-1.8-1.4-2.8
			c-0.5-0.8-0.6-1.8-0.3-2.7c0,0-0.2-0.2-0.2-0.2c-0.2,0.1-0.6,0.2-1.1,0.2c-0.5,0-1.3-0.1-1.9-0.7c-0.3-0.3-0.6-0.4-1.1-0.4h-0.5
			l-0.2,0c-0.5-0.1-1-0.1-1.5-0.1h-1c-0.1,0.2-0.1,0.4-0.2,0.5l-0.2,0.4l-0.5,0.5l-0.5,0.3c-0.2,0-0.4,0.1-0.6,0.2
			c-0.2,0.1-0.5,0.2-0.7,0.2c-0.4,0.1-0.8,0.1-1.1,0.1c-0.9,0-1.8-0.4-2.5-0.9c-0.2,0-0.4,0-0.6,0c-0.4,0-0.9-0.1-1.4-0.3
			c0,0-0.1-0.1-0.1-0.1c0,0,0,0,0,0c-0.1,0-0.3,0.1-0.4,0.1c-0.4,0.1-0.8,0.2-1.2,0.4c-1.1,0.8-2.4,1.4-3.6,1.5c0,0,0,0,0,0
			c0,0,0,0,0,0l0,0l-0.1,0.4c-0.2,0.4-0.3,0.9-0.3,1.5c0.1,1.1-0.3,2.3-1,3.2l-0.1,0c0.1-0.2,0.2-0.4,0.2-0.6l-0.4,0.7l-0.5,0.2
			c0.2,0,0.3,0,0.4-0.1l-0.1,0.1l-1.1,0.6l-0.7,0.1l-1.5-0.3l-0.3-0.1l-0.5-0.3l-0.2-0.2l-8.4-8.9c-0.3,0.4-0.8,0.8-1.3,1.3
			l-0.1,0.1c-0.5,0.3-1,0.5-1.5,0.5c-1.4,0-2.8-1.2-4.3-3.6c-0.5-0.6-1-1-1.6-1.3l-0.2-0.2l-0.2-0.2l-0.5-0.5l-1.2-0.1l-0.6,0.7
			l-0.9,0.4l-6.7-0.6l-0.2,0l-0.3-0.1l-1.6-0.6l-0.4-0.2l-0.6-0.6l-0.2-0.3c-0.2-0.5-0.4-1.1-0.4-1.7c0-0.2-0.1-0.3-0.2-0.3
			l-0.2-0.1l-0.1-0.1c-0.9-0.6-1.8-1-2.5-1.2c-1.3-0.2-2.1-1.3-2-2.8c-0.4-0.7-0.8-1.4-1.1-2.1l-0.1-0.2c-0.1-0.3-0.3-0.8-0.2-1.5
			c-0.2-0.2-0.3-0.6-0.3-0.9c-0.1-0.3-0.1-0.6-0.1-0.9c0,0,0,0,0,0l-0.1-0.1l-0.2-0.2c-0.2-0.4-0.4-0.7-0.6-1.1
			c-0.1-0.2-0.2-0.4-0.3-0.6l-0.1-0.1c-0.1-0.3-0.2-0.7-0.2-1.1c-0.1-0.5-0.1-1.1,0-1.6l0,0l0.1-0.4c0,0.1-0.1,0.1-0.1,0.1
			c0,0,0-0.1,0-0.1c-0.6-1.1-0.5-2.4,0.3-3.3c0.3-0.4,0.4-0.9,0.4-1.3l0-0.1v-0.6c0-1.4,0.4-2.7,1.2-3.7c0.5-0.7,0.8-1.3,0.9-1.9
			l0-0.1c0.4-1.3,0.8-2.3,1.4-3.3c0.3-0.5,0.4-1.1,0.4-2v-2.4c0-0.4,0.1-0.7,0.2-1c-0.2-0.2-0.3-0.4-0.5-0.6
			c-0.4-0.4-0.9-0.9-1.2-1.3l-0.1-1l0.8-1.6l0.9-0.6l38.3-0.1l0.2-0.2l0.9-0.3l1.7,0.4l0.7,0.7l0.2,0.5h1.8l0.4,0.1l0.7,0.3l0.4,0.3
			l0.2,0.3l0.9,0.1l0.5,0.3l0.5-0.1l0.1,0h0.1l0.3,0l1.8,0.5l0.2,0l1.7-0.7l0.5-0.1l0.9,0.1l0.4,0.2l7.1,4.6l0.8,0.4l0.2,0.1
			l0.5,0.4l0.2,0.2l0.6,0.9l1.6,1.1l0.3,0.3l0.4,0.6l0.1,0.3l0.6,2.7h3.9l3.3-0.1c0.6-0.9,1.5-1.9,2.4-2.2c0.4-0.1,0.7-0.4,1-0.7
			l0.4-0.2l0.8-0.3l0.5-0.1l10.9,1.2l4.1-1.5l0.5,0.2c1.6-0.7,3.2-1.2,5-1.5c0.3-0.1,0.7-0.1,0.9-0.1c1,0,1.9,0.3,2.7,0.8
			c0.6,0.4,0.9,0.8,1.1,1.2l0.1,0.1c0.6,1.2,0.3,2.5-0.7,3.3c0,0,0,0,0,0c0,0.3-0.1,0.5-0.2,0.7c-0.1,0.2-0.1,0.3-0.1,0.3l0.5,0.6
			l0.4,0.1l0,0l0,0c-0.1-0.1-0.3-0.2-0.3-0.2l0.1,0l0.3,0.1l0.1,0l0.3-0.1c0,0,0.1,0,0.1,0c0.5-0.5,1-1.1,1.6-1.5l0.3-0.2l0.1-0.1
			c0.4-0.2,0.7-0.2,0.9-0.2c0.8,0,1.5,0.3,2,1l0.1,0.2l0.1,0.2c0.2,0.3,0.3,0.7,0.3,1c0.3,0.3,0.6,0.9,0.6,1.8
			c0,0.6-0.3,1.4-1.1,1.9l0,0c-0.1,0.1-0.2,0.2-0.4,0.3l-0.1,0.1c-0.2,0.1-0.3,0.1-0.4,0.2c0,0-0.1,0-0.1,0l-0.1,0.1
			c-0.3,0.1-0.6,0.2-0.9,0.2l-0.2,0.2l-0.4,0.2l-1.2,0.4l-3,0.9l-0.3,0h-0.2c-0.8,0.8-1.8,1.5-2.9,1.8c-0.3,0.1-0.6,0.2-0.8,0.2
			c-0.5,0-1-0.2-1.1-0.3c-0.7-0.3-1.3-0.9-1.6-1.6c-0.6,0.1-1.1,0.2-1.7,0.2c-0.6,0.4-1.2,0.6-1.8,0.8c-0.2,0-0.4,0.2-0.5,0.4
			c0,0,0,0,0,0c0.4,0.4,0.7,0.9,0.7,1.5c0.1,0.9-0.4,1.7-1.1,2.1l0,0c-0.5,0.5-1,0.7-1.7,0.7c-0.3,0-0.6,0.1-1,0.1l-0.2,0
			c-0.2,0.1-0.4,0.1-0.7,0.2c-0.2,0.2-0.4,0.3-0.6,0.4l-0.1,0.1c-0.1,0-0.2,0.1-0.3,0.1c-0.1,0.1-0.3,0.1-0.5,0.2l-0.2,0l-0.4,0.1
			c-0.3,0-0.5,0.1-0.8,0.1c-0.3,0.8-0.8,1.6-1.5,2.2c-0.2,0.3-0.5,0.5-0.7,0.6c-0.1,0.3-0.2,0.6-0.3,0.8c-0.3,0.5-0.6,0.9-0.8,1.2
			c-0.1,0.1-0.1,0.2-0.2,0.2l-0.1,0.1l-0.2,0.3c-0.1,0.1-0.2,0.2-0.3,0.2c0,0.4,0,0.9-0.2,1.3c0.3,0.9,0,1.9-0.8,2.6
			c-0.1,0.1-0.3,0.3-0.6,0.5c-0.4,0.8-1.2,1.3-2.1,1.5c-0.4,0.1-0.8,0.2-0.9,0.4c-0.6,0.6-1.3,0.9-1.9,1.1l-0.5,0.5
			c-0.4,0.5-1,0.9-1.8,1.2l-0.3,0c-0.1,0-0.2,0.1-0.3,0.1c-0.5,0.2-1,0.5-1.4,0.9c-0.2,1.1-0.1,2.1,0.3,3.1l0.1,0.4
			c0-0.1,0-0.1,0-0.1c0,0.1,0.1,0.3,0.1,0.5c0,0.2,0.1,0.5,0.1,0.7c0,0.2,0,0.4,0.1,0.6l0,0.2c0,0,0,0.2,0.1,0.3l0.1,0.4
			c0,0,0.1,0.1,0.1,0.2l0.1,0.1c0.1,0.3,0.3,0.8,0.1,1.4c-0.1,1-0.6,2.1-1.3,3.2C-4262.9,2439.5-4263.7,2439.9-4264.6,2439.9z"/>
		<path class="st2" d="M-4336.5,2369.1l-0.7-1.3l0,0l-0.1-0.1c-0.1-0.1-0.2-0.2-0.3-0.4c-0.2-0.1-0.3-0.2-0.4-0.4l-0.1,0
			c-0.6-0.3-1-0.8-1.2-1.6l0-0.1c-0.1-0.8,0-1.8,0.3-2.6l-0.1-0.1l-0.1,0c0-0.1-0.1-0.1-0.1-0.2l0,0v0c-0.1-0.2-0.1-0.5-0.2-0.9
			c-0.1-0.4-0.1-0.8,0-1.3c-0.5-0.6-1.2-1.4-1.3-2.5l0-0.1c0,0,0-0.1,0-0.1c-0.2-0.2-0.4-0.4-0.6-0.6c-0.4-0.3-0.7-0.7-0.9-1.2
			c-0.5-0.2-0.9-0.5-1.3-0.9l-0.1-0.1c-0.2-0.1-0.4-0.2-0.5-0.3c-0.2-0.2-0.3-0.2-0.5-0.2h-0.1c-0.3,0-0.8,0-1.3-0.1
			c-0.8-0.2-1.4-0.6-1.8-1.3c-0.1-0.1-0.2-0.3-0.3-0.5c0,0,0,0,0,0c-0.6-0.2-1.1-0.4-1.5-0.9l-0.6,0.5l-0.6,0.2h-0.3
			c-0.2,0.2-0.4,0.3-0.6,0.4l-0.2,0.1c-0.2,0.1-0.6,0.3-1.2,0.3h-0.3c-0.2,0-0.4,0.1-0.7,0.2l-0.3,0.2c-0.2,0.1-0.4,0.1-0.5,0.2
			c-0.2,0-0.3,0.1-0.5,0.1l-0.2,0c-0.5,0.1-1,0.3-1.5,0.5c-0.5,0.3-1.2,0.4-1.8,0.4c-0.7,0-1.3-0.2-1.7-0.7
			c-0.2,0.3-0.5,0.5-0.8,0.7c-0.1,0.1-0.2,0.1-0.3,0.2c-0.1,0.1-0.2,0.1-0.3,0.2l-0.1,0c-0.1,0.1-0.2,0.1-0.2,0.2
			c-0.1,0.1-0.2,0.1-0.2,0.2c-0.7,0.8-1.6,1.3-2.8,1.6c-0.7,0.3-1.5,0.6-2.3,1c-0.4,0.7-1,1.3-1.9,1.6c-0.3,0.2-0.7,0.4-1.2,0.5
			l0,0.1l-0.9,0.4l-0.4,0.1h-0.1c-0.1,0-0.1,0.1-0.2,0.1c-0.1,0.1-0.3,0.1-0.4,0.2c-0.6,0.6-1.3,0.9-1.7,1.1l-0.2,0.1l-0.4,0.1
			c0.1,0,0.1,0,0.1,0c-0.1,0-0.3,0.1-0.5,0.1c-0.1,0-0.2,0.1-0.3,0.1l-0.3,0.2c-0.3,0.2-0.8,0.4-1.3,0.4h-0.4
			c-0.2,0-0.4,0.1-0.6,0.1c-0.1,0-0.1,0-0.2,0c-0.3,0.4-0.8,0.8-1.7,0.8c-0.3,0-0.5,0-0.7-0.1c-0.6,0.3-1.2,0.4-1.9,0.4h-0.2
			c0,0-0.1,0.1-0.3,0.2l0,0l-0.3,0.2c-0.5,0.2-1,0.5-1.7,0.5h-0.1c-0.4,0-0.5,0-0.7,0c-0.5,0.2-0.8,0.2-1.1,0.2h-0.1
			c-0.9,0-1.4-0.4-1.8-0.8l-0.1-0.1c-0.5-0.7-0.6-1.6-0.3-2.4l0.2-0.3l0,0c0.7-1,1.7-1.6,2.9-1.8l0.1,0h0.4c0.4-0.1,0.6-0.1,0.8-0.1
			c0.4,0,0.8-0.2,1.3-0.5c0.5-0.4,1-0.7,1.5-1c0.7-0.4,1.5-0.6,2.2-0.6c0.1,0,0.3,0,0.4,0c0.5-0.4,1-0.8,1.5-1
			c0.3-0.1,0.5-0.2,0.7-0.3c0.5-0.4,1.1-0.6,1.7-0.8l0.2,0c0,0,0.1,0,0.1-0.1c0,0,0.1,0,0.1-0.1c0.3-0.3,0.7-0.4,1-0.5
			c0.5-0.2,0.9-0.5,1.3-0.9c-0.3-0.2-0.6-0.5-0.8-0.9c-0.3,0.1-0.5,0.1-0.8,0.1c-0.4,0-0.9-0.1-1.4-0.3l-0.1-0.1
			c-0.5-0.2-1.2-0.6-1.4-1.4c-0.2-0.6-0.1-1.4,0.3-2l0.1-0.1c0-0.3,0-0.6,0-0.9c-0.9-0.2-1.6-0.8-1.9-1.7c-0.1-0.2-0.1-0.3-0.1-0.4
			c0,0,0-0.1,0-0.1l-0.1-0.1c-0.1-0.2-0.1-0.3-0.1-0.4c0,0,0-0.1,0-0.1c-0.6-1.2-0.4-2.5,0.4-3.6c0-0.1,0-0.1-0.1-0.2
			c-0.6-1.5,0.1-3.3,1.6-4.1c1-0.8,2-1.5,3-2.1c0.6-1.2,1.7-1.8,2.5-2.2l0.3-0.2c0.4-0.1,0.8-0.3,1.2-0.3c0.5,0,1,0.2,1.5,0.5
			c0.1-0.2,0.2-0.3,0.3-0.5h0c-1.4,0-2.7-0.7-3.5-1.9c-0.5-0.6-0.6-1.6-0.3-2.4l0.2-0.3c0.2-0.3,0.3-0.7,0.4-1l0-0.1
			c-0.2-0.2-0.3-0.4-0.3-0.5l-0.1-0.3c-0.3-1.3,0.3-2.5,1.4-3c1-0.6,2-0.9,3-1.2l0.3-0.1c0.4-0.1,0.8-0.2,1.2-0.2h0.1
			c0.5-0.3,1.1-0.7,1.8-0.7c0.5-0.1,1-0.1,1.5-0.1h0.4c0.2,0,0.5,0,0.7,0.1c0.1-0.3,0.2-0.6,0.4-0.9c0.3-0.4,0.3-0.9,0.1-1.4
			c-0.2-0.3-0.3-0.6-0.3-0.8l0-0.1c-0.1-0.2-0.1-0.3-0.2-0.4c-0.7-1.5-0.2-3.3,1.2-4.1c0.1-0.1,0.3-0.3,0.5-0.5l0.1-0.1
			c0.7-0.8,1.6-1.3,2.6-1.3c0.3,0,0.6,0.1,1,0.2c0.2,0,0.4,0,0.7,0.2l0,0c0.3,0.1,0.4,0.1,0.6,0.1c0.4,0,1-0.3,1.7-0.6l0.3-0.1
			l0.1-0.1l0.1-0.1c1.3-1,2.7-1.8,4-2.4c0.8-0.4,1.6-0.7,2.5-0.7c0.3,0,0.6,0,0.9,0.1h0.2c0.1,0,0.2,0,0.4,0
			c0.1-0.1,0.2-0.2,0.3-0.4c0.6-0.7,1.6-1.1,2.6-1.1c0.3,0,0.7,0,1.1,0.2c0.1,0,0.1,0.1,0.2,0.1l0.7,0.4l0.8,1l0.2,0.6v39.4l4.2,3.3
			l0.1,0.1l0.1,0.1l6.2,6.8l0.1,0.1l0.1,0.2l2.4,3.8l0.1,0.2l0.2,0.5l0.1,0.4v2.5l-0.3,0.7l-0.9,1l-0.6,0.3l-3.9,0.5l-2.1,0.7
			l-0.3-0.1l-0.3,0.3l-1.4,0.1L-4336.5,2369.1z"/>
	</g>
</g>
</svg>
