<svg id="Компонент_5_3" data-name="Компонент 5 – 3" xmlns="http://www.w3.org/2000/svg" width="28.385" height="51.033" viewBox="0 0 28.385 51.033">
  <text id="ww" transform="translate(13.788 47.294)" fill="#fed841" font-size="16" font-family="WombyRUSbyDaymarius, 'Womby \[RUS by Daymarius\]'"><tspan x="-12.88" y="0">WW</tspan></text>
  <g id="Сгруппировать_47" data-name="Сгруппировать 47">
    <path id="Контур_544" data-name="Контур 544" d="M-531.279,1486.017v-2.145a3.119,3.119,0,0,0,.1-.421,14.158,14.158,0,0,1,10.015-12.092c.985-.3,2-.4,3-.607h2.145a2.16,2.16,0,0,0,.357.1,14.154,14.154,0,0,1,12.155,10.018c.3.985.4,2,.608,3v2.145a3.9,3.9,0,0,0-.1.421c-.818,5.991-4.124,9.958-9.774,12.017a20.393,20.393,0,0,1-3.241.682h-2.145a3.807,3.807,0,0,0-.42-.1c-5.91-.8-9.861-4.042-11.958-9.595A20.271,20.271,0,0,1-531.279,1486.017Zm2.919-5.414c.4.039.75.078,1.1.108a5.871,5.871,0,0,1,1.54.29c.652.238.792.585.507,1.228-.2.458-.47.892-.643,1.361a1.892,1.892,0,0,0,.832,2.609,2.259,2.259,0,0,1,1.278,2.181,2.34,2.34,0,0,0,.036.376,6.135,6.135,0,0,0,1.941,4.354c.341.287.666.854,1.12.633.434-.211.271-.829.248-1.28a13.483,13.483,0,0,1,.073-3.5,3.775,3.775,0,0,1,2.165-2.958,5.651,5.651,0,0,0,.6-.347,2.054,2.054,0,0,0,.926-1.219c.541-1.786.014-3.107-1.719-3.767a9.505,9.505,0,0,0-4.837-.834,1.2,1.2,0,0,1-1.184-.677.688.688,0,0,1-.028-.926,29.355,29.355,0,0,1,3.261-3.384c.781-.577,1.568-1.148,2.477-1.814A11.867,11.867,0,0,0-528.36,1480.6Zm23.39,4.365a11.939,11.939,0,0,0-.7-4.067,12.147,12.147,0,0,0-7.055-7.261c-.419-.173-.657-.107-.859.29a2,2,0,0,0,.259,1.838c.414.515.915.4,1.427.2a3.564,3.564,0,0,1,.347-.145c.284-.076.578-.342.859,0a.827.827,0,0,1,.055,1.1,11.482,11.482,0,0,1-.916,1.036,2.359,2.359,0,0,0-.738,2.671c.467,1.156,1.124,2.191,2.514,2.248a2,2,0,0,1,1.967,1.688,8.927,8.927,0,0,1-.15,5.442,2.184,2.184,0,0,0,.07,1.816c.288.529.387.534.729.045A12,12,0,0,0-504.97,1484.968ZM-520.8,1496.44a3.435,3.435,0,0,0,.366.148,11.964,11.964,0,0,0,9.02-.958c.335-.177.935-.292.893-.659-.053-.461-.636-.615-1.076-.746a5.955,5.955,0,0,0-4.231.311,10.929,10.929,0,0,1-3.128.9A3.011,3.011,0,0,0-520.8,1496.44Z" transform="translate(531.279 -1470.752)" fill="#fed841"/>
  </g>
</svg>
