<svg id="Слой_1" data-name="Слой 1" xmlns="http://www.w3.org/2000/svg" viewBox="0 0 540 540"><defs><style>.cls-1{fill-rule:evenodd;}.cls-2{fill:#e7335d;}.cls-3{fill:#fed841;}</style></defs><polyline class="cls-1" points="0 540 540 540 540 0 0 0"/><path class="cls-2" d="M87.83,225.23V225a1,1,0,0,0-.37-.75,1.31,1.31,0,0,0-.89-.31,1.39,1.39,0,0,0-.93.31.94.94,0,0,0-.39.75.69.69,0,0,0,.4.65,3.26,3.26,0,0,0,1,.42l.24.05.26.06a5.14,5.14,0,0,1,2.16.89l.13.12a3.18,3.18,0,0,1,.72,1,2.9,2.9,0,0,1,.26,1.21,3,3,0,0,1-.29,1.3,3.43,3.43,0,0,1-.85,1.1,4.31,4.31,0,0,1-1.27.72,4.59,4.59,0,0,1-1.48.24,4.53,4.53,0,0,1-1.47-.24,4.13,4.13,0,0,1-1.26-.72,3.47,3.47,0,0,1-.86-1.1,3,3,0,0,1-.3-1.3v-.2H85.3v.2a.91.91,0,0,0,.37.74,1.3,1.3,0,0,0,.88.31,1.43,1.43,0,0,0,.93-.31.83.83,0,0,0,0-1.41,1.58,1.58,0,0,0-.43-.22,5.89,5.89,0,0,0-.58-.18l-.5-.13c-.56-.14-1-.26-1.3-.37a2.64,2.64,0,0,1-.86-.52l-.06-.06a3.3,3.3,0,0,1-.79-1,2.84,2.84,0,0,1-.28-1.24,3,3,0,0,1,.3-1.3,3.47,3.47,0,0,1,.86-1.1,4.13,4.13,0,0,1,1.26-.72,4.28,4.28,0,0,1,1.47-.25,4.27,4.27,0,0,1,2.75,1,3.43,3.43,0,0,1,.85,1.1,2.94,2.94,0,0,1,.29,1.3v.2Z"/><path class="cls-2" d="M99,222.57a5.29,5.29,0,0,1,2,2,5.39,5.39,0,0,1-2,7.37,5.16,5.16,0,0,1-2.7.73,5.22,5.22,0,0,1-2.71-.73,5.37,5.37,0,0,1-2-2,5.44,5.44,0,0,1,0-5.41,5.39,5.39,0,0,1,2-2,5.22,5.22,0,0,1,2.71-.73A5.16,5.16,0,0,1,99,222.57Zm-1.31,7.08a2.87,2.87,0,0,0,1-1,2.71,2.71,0,0,0,.38-1.39,2.75,2.75,0,0,0-.38-1.4,2.82,2.82,0,0,0-1-1,2.68,2.68,0,0,0-1.39-.37,2.74,2.74,0,0,0-1.4.37,2.82,2.82,0,0,0-1,1,2.66,2.66,0,0,0-.38,1.4,2.62,2.62,0,0,0,.38,1.39,2.87,2.87,0,0,0,1,1,2.75,2.75,0,0,0,1.4.38A2.69,2.69,0,0,0,97.69,229.65Z"/><path class="cls-2" d="M108.34,229.78a3.27,3.27,0,0,0,.91-.6l1.84,1.84a5.34,5.34,0,0,1-1.74,1.17,5.22,5.22,0,0,1-2.08.42,5.16,5.16,0,0,1-2.7-.73,5.27,5.27,0,0,1-2-2,5.38,5.38,0,0,1,0-5.41,5.29,5.29,0,0,1,2-2,5.16,5.16,0,0,1,2.7-.73,5.22,5.22,0,0,1,2.08.42,5.5,5.5,0,0,1,1.74,1.17l-1.84,1.84a3.27,3.27,0,0,0-.91-.6,2.8,2.8,0,0,0-1.07-.21,2.68,2.68,0,0,0-1.39.37,2.82,2.82,0,0,0-1,1,2.75,2.75,0,0,0-.38,1.4,2.71,2.71,0,0,0,.38,1.39,2.87,2.87,0,0,0,1,1,2.69,2.69,0,0,0,1.39.38A2.81,2.81,0,0,0,108.34,229.78Z"/><path class="cls-2" d="M114.51,221.84v10.68H111.8V221.84Z"/><path class="cls-2" d="M121.45,222l3.49,10.57h-2.63l-.69-2.16h-3.3l-.68,2.16H115L118.5,222Zm-2.43,6.2h1.91l-1-3Z"/><path class="cls-2" d="M128.21,230h4.2v2.57H125.5V221.84h2.71Z"/><path class="cls-2" d="M142.34,221.84h2.71v10.68h-2.71l-3.14-5.73v5.73h-2.73V221.84h2.73l3.14,5.72Z"/><path class="cls-2" d="M153.34,230.21v2.31h-7.26V221.84h7.12v2.31h-4.39V226h3.7v2.31h-3.7v1.88Z"/><path class="cls-2" d="M162.36,221.84v2.72h-2.73v8H156.9v-8h-2.73v-2.72h8.19Z"/><path class="cls-2" d="M172.5,221.84h2.35v10.68h-2.71L169.39,228l-2.76,4.55h-2.72V221.84h2.72v6l1.33-2.42.07-.12h2.72l.06.12,1.33,2.42v-6Z"/><path class="cls-2" d="M184.06,222.57a5.43,5.43,0,0,1,2.69,4.68,5.4,5.4,0,0,1-2.69,4.66,5.38,5.38,0,0,1-5.41,0,5.39,5.39,0,0,1,0-9.34,5.38,5.38,0,0,1,5.41,0Zm-1.31,7.08a3,3,0,0,0,1-1,2.71,2.71,0,0,0,.38-1.39,2.75,2.75,0,0,0-.38-1.4,2.9,2.9,0,0,0-1-1,2.81,2.81,0,0,0-2.79,0,2.77,2.77,0,0,0-1,1,2.74,2.74,0,0,0-.37,1.4,2.71,2.71,0,0,0,.37,1.39,2.82,2.82,0,0,0,1,1,2.75,2.75,0,0,0,2.79,0Z"/><path class="cls-2" d="M196,232.52h-2.73l-1.69-4h-1.74v4h-2.55V221.84h5.09a3.23,3.23,0,0,1,1.66.45,3.2,3.2,0,0,1,1.21,1.21,3.31,3.31,0,0,1,0,3.26,3.42,3.42,0,0,1-1.1,1.2Zm-3-8.13a1,1,0,0,0-.71-.36h-2.51v2.27h2.51a1.1,1.1,0,0,0,.71-.37,1.15,1.15,0,0,0,.28-.78A1.1,1.1,0,0,0,193,224.39Z"/><path class="cls-2" d="M202,227.13l3.19,5.39h-3l-2.63-4.31v4.31h-2.71V221.84h2.71V226l2.63-4.17h3Z"/><path class="cls-2" d="M211.33,225.23V225a1,1,0,0,0-.37-.75,1.35,1.35,0,0,0-.9-.31,1.43,1.43,0,0,0-.93.31,1,1,0,0,0-.38.75.69.69,0,0,0,.39.65,3.23,3.23,0,0,0,1,.42l.23.05.26.06a5.08,5.08,0,0,1,2.16.89l.14.12a3.15,3.15,0,0,1,.71,1,2.91,2.91,0,0,1,.27,1.21,3,3,0,0,1-.3,1.3,3.3,3.3,0,0,1-.85,1.1,4.07,4.07,0,0,1-1.27.72,4.65,4.65,0,0,1-3,0,4.38,4.38,0,0,1-1.26-.72,3.47,3.47,0,0,1-.86-1.1,3,3,0,0,1-.3-1.3v-.2h2.64v.2a.94.94,0,0,0,.37.74,1.32,1.32,0,0,0,.88.31,1.39,1.39,0,0,0,.93-.31.82.82,0,0,0,0-1.41,1.67,1.67,0,0,0-.42-.22c-.16-.06-.36-.12-.59-.18l-.5-.13c-.55-.14-1-.26-1.3-.37a2.64,2.64,0,0,1-.86-.52l-.06-.06a3.46,3.46,0,0,1-.79-1,2.84,2.84,0,0,1-.28-1.24,3,3,0,0,1,.3-1.3,3.47,3.47,0,0,1,.86-1.1,4.38,4.38,0,0,1,1.26-.72,4.48,4.48,0,0,1,3,0,4.07,4.07,0,0,1,1.27.72,3.3,3.3,0,0,1,.85,1.1,3,3,0,0,1,.3,1.3v.2Z"/><path class="cls-2" d="M215.14,227.46a1.33,1.33,0,0,1-.37-.88,1.17,1.17,0,0,1,.34-.88,1.18,1.18,0,0,1,.88-.37,1.23,1.23,0,0,1,1.25,1.25,1.16,1.16,0,0,1-.37.88,1.22,1.22,0,0,1-.88.36A1.14,1.14,0,0,1,215.14,227.46Zm0,4.69a1.33,1.33,0,0,1-.37-.87,1.15,1.15,0,0,1,.34-.88A1.18,1.18,0,0,1,216,230a1.23,1.23,0,0,1,1.25,1.25,1.16,1.16,0,0,1-.37.87,1.19,1.19,0,0,1-.88.37A1.11,1.11,0,0,1,215.14,232.15Z"/><path class="cls-2" d="M96.13,249.42l-3,3.26a6.43,6.43,0,0,1,2.2,2.26,6,6,0,0,1,.82,3.06,6.05,6.05,0,0,1-.88,3.18,6.55,6.55,0,0,1-2.41,2.32,6.86,6.86,0,0,1-6.65,0,6.55,6.55,0,0,1-2.41-2.32,6.06,6.06,0,0,1-.89-3.18h4.25a2.14,2.14,0,0,0,.69,1.6,2.34,2.34,0,0,0,1.68.66,2.31,2.31,0,0,0,1.66-.66,2.14,2.14,0,0,0,.69-1.6v-.06a2.51,2.51,0,0,0-.25-1.05,4,4,0,0,0-1.13-1.42,7.4,7.4,0,0,0-1.7-1.13v-2.21l.42-.47,1.46-1.59.6-.65H83.52v-3.6H96.13Z"/><path class="cls-2" d="M108.51,252.78a6.39,6.39,0,0,1,2,2.23,6.12,6.12,0,0,1-.17,6.06,6.5,6.5,0,0,1-2.41,2.33,6.91,6.91,0,0,1-6.64,0,6.5,6.5,0,0,1-2.41-2.33,6.12,6.12,0,0,1,.26-6.75l5.7-8.61h4.85l-3.93,5.92A6.77,6.77,0,0,1,108.51,252.78Zm-2.11,6.88a2.42,2.42,0,0,0,0-3.52,2.55,2.55,0,0,0-1.82-.73,2.61,2.61,0,0,0-1.84.73,2.4,2.4,0,0,0,0,3.52,2.58,2.58,0,0,0,1.84.74A2.51,2.51,0,0,0,106.4,259.66Z"/><path class="cls-2" d="M125.1,255.88a5.91,5.91,0,0,1-.33,5.44,6.18,6.18,0,0,1-2.3,2.21,6.6,6.6,0,0,1-6.3,0,6.18,6.18,0,0,1-2.3-2.21,5.88,5.88,0,0,1-.34-5.44,6.08,6.08,0,0,1,1.42-1.95,5,5,0,0,1-.35-5.74,5.61,5.61,0,0,1,7.47-1.9,5.39,5.39,0,0,1,2,1.9,5.08,5.08,0,0,1-.34,5.74A6,6,0,0,1,125.1,255.88Zm-4,4.08a2.34,2.34,0,0,0,.22-3.11A2.37,2.37,0,0,0,120,256a2.27,2.27,0,0,0-.68-.1,2.52,2.52,0,0,0-.7.1,2.37,2.37,0,0,0-1.28.84,2.34,2.34,0,0,0,.22,3.11,2.42,2.42,0,0,0,1.76.7A2.39,2.39,0,0,0,121.07,260Zm-3.22-8.3a2,2,0,0,0,.67.63,2.05,2.05,0,0,0,.81.18,2.3,2.3,0,0,0,.81-.18,1.58,1.58,0,0,0,.66-.62,1.6,1.6,0,0,0,.25-.87,1.54,1.54,0,0,0-.51-1.16,1.69,1.69,0,0,0-1.21-.49,1.76,1.76,0,0,0-1.24.49,1.57,1.57,0,0,0-.5,1.16A1.48,1.48,0,0,0,117.85,251.66Z"/><path class="cls-2" d="M139.74,245.84,135,264.28H130.1L133.82,250h-7.09v-4.18h13Z"/><path class="cls-2" d="M150.7,252.56a6.41,6.41,0,0,1,2.2,2.28,6.14,6.14,0,0,1-.08,6.23,6.5,6.5,0,0,1-2.41,2.33,6.93,6.93,0,0,1-6.65,0,6.57,6.57,0,0,1-2.41-2.33,6,6,0,0,1-.88-3.18h3.88a2.75,2.75,0,0,0,2.74,2.61,2.72,2.72,0,0,0,1.95-.79,2.76,2.76,0,0,0-1.95-4.71H147a2.73,2.73,0,0,0-1.35.41,2.61,2.61,0,0,0-.65.55h-4.25l.15-.65,2.09-9.6h9.49v3.94h-6.34l-.57,2.17.34-.11a5.23,5.23,0,0,1,.73-.13,8.31,8.31,0,0,1,1,0A6.73,6.73,0,0,1,150.7,252.56Z"/><path class="cls-2" d="M171.89,246.43a5.64,5.64,0,0,1,2.08,2.09,5.77,5.77,0,0,1,0,5.76,5.71,5.71,0,0,1-2.08,2.09,5.65,5.65,0,0,1-2.88.77h-4.38v7h-4.41V245.66H169A5.65,5.65,0,0,1,171.89,246.43Zm-1.8,3.62a1.82,1.82,0,0,0-1.24-.61h-4.32v3.91h4.32a1.73,1.73,0,0,0,1.24-.63,2,2,0,0,0,.51-1.35A1.92,1.92,0,0,0,170.09,250.05Z"/><path class="cls-2" d="M190.15,246.91a9.29,9.29,0,0,1,3.38,3.41,9.35,9.35,0,0,1,0,9.34,9.24,9.24,0,0,1-3.38,3.39,9.3,9.3,0,0,1-9.35,0,9.21,9.21,0,0,1-3.4-3.39,9.35,9.35,0,0,1,0-9.34,9.27,9.27,0,0,1,3.4-3.41,9.37,9.37,0,0,1,9.35,0Zm-2.27,12.23a4.94,4.94,0,0,0,1.75-1.74,4.77,4.77,0,0,0,0-4.81,5,5,0,0,0-1.75-1.77,4.65,4.65,0,0,0-2.4-.65,4.71,4.71,0,0,0-2.41.65,4.9,4.9,0,0,0-1.76,1.77,4.77,4.77,0,0,0,0,4.81,4.81,4.81,0,0,0,1.76,1.74,4.62,4.62,0,0,0,2.41.66A4.56,4.56,0,0,0,187.88,259.14Z"/><path class="cls-2" d="M204.3,251.5v-.34a1.63,1.63,0,0,0-.64-1.29,2.37,2.37,0,0,0-1.55-.53,2.49,2.49,0,0,0-1.6.53,1.6,1.6,0,0,0-.67,1.29,1.21,1.21,0,0,0,.68,1.13,5.79,5.79,0,0,0,1.77.73,3.92,3.92,0,0,1,.41.07l.45.11a9,9,0,0,1,3.73,1.54l.23.2a5.67,5.67,0,0,1,1.24,1.8,5.08,5.08,0,0,1,0,4.33,5.84,5.84,0,0,1-1.47,1.91,7.18,7.18,0,0,1-2.19,1.24,7.86,7.86,0,0,1-2.56.43,7.74,7.74,0,0,1-2.54-.43,7,7,0,0,1-2.17-1.24,5.9,5.9,0,0,1-1.49-1.91,5,5,0,0,1-.52-2.24v-.34h4.56v.34a1.61,1.61,0,0,0,.64,1.29,2.26,2.26,0,0,0,1.52.54,2.49,2.49,0,0,0,1.61-.54,1.61,1.61,0,0,0,.66-1.29,1.51,1.51,0,0,0-.7-1.15,3.6,3.6,0,0,0-.73-.39c-.28-.1-.62-.21-1-.31l-.86-.21c-1-.24-1.7-.46-2.24-.65a4.58,4.58,0,0,1-1.49-.89l-.1-.1a5.86,5.86,0,0,1-1.37-1.83,5,5,0,0,1-.48-2.14,5,5,0,0,1,.52-2.24,5.87,5.87,0,0,1,1.49-1.9,6.77,6.77,0,0,1,2.17-1.24,7.49,7.49,0,0,1,2.54-.43,7.6,7.6,0,0,1,2.56.43,7,7,0,0,1,2.19,1.24,5.8,5.8,0,0,1,1.47,1.9,5.13,5.13,0,0,1,.51,2.24v.34Z"/><path class="cls-2" d="M224.84,245.66v4.69h-4.72V264.1H215.4V250.35h-4.72v-4.69h14.16Z"/><path class="cls-2" d="M234.45,251.5v-.34a1.65,1.65,0,0,0-.63-1.29,2.4,2.4,0,0,0-1.56-.53,2.51,2.51,0,0,0-1.6.53,1.62,1.62,0,0,0-.66,1.29,1.2,1.2,0,0,0,.67,1.13,5.86,5.86,0,0,0,1.78.73,3.77,3.77,0,0,1,.4.07l.46.11a8.83,8.83,0,0,1,3.72,1.54l.24.2a5.84,5.84,0,0,1,1.24,1.8,5.28,5.28,0,0,1,.45,2.09,5.13,5.13,0,0,1-.51,2.24A5.7,5.7,0,0,1,237,263a7,7,0,0,1-2.19,1.24,7.8,7.8,0,0,1-2.55.43,7.65,7.65,0,0,1-2.54-.43,7,7,0,0,1-2.18-1.24,6,6,0,0,1-1.49-1.91,5.14,5.14,0,0,1-.52-2.24v-.34h4.56v.34a1.64,1.64,0,0,0,.64,1.29,2.31,2.31,0,0,0,1.53.54,2.46,2.46,0,0,0,1.6-.54,1.61,1.61,0,0,0,.66-1.29,1.51,1.51,0,0,0-.7-1.15,3.35,3.35,0,0,0-.73-.39,10,10,0,0,0-1-.31l-.85-.21c-1-.24-1.71-.46-2.25-.65a4.53,4.53,0,0,1-1.48-.89l-.11-.1A5.83,5.83,0,0,1,226,253.3a4.83,4.83,0,0,1-.49-2.14,5.14,5.14,0,0,1,.52-2.24,6,6,0,0,1,1.49-1.9,6.82,6.82,0,0,1,2.18-1.24,7.41,7.41,0,0,1,2.54-.43,7.55,7.55,0,0,1,2.55.43A6.76,6.76,0,0,1,237,247a5.67,5.67,0,0,1,1.47,1.9,5.13,5.13,0,0,1,.51,2.24v.34Z"/><path class="cls-2" d="M257.57,245.84l6,18.26h-4.53l-1.2-3.73h-5.71L251,264.1h-4.56l6-18.26Zm-4.19,10.72h3.28L255,251.4Z"/><path class="cls-2" d="M274.57,245.66h4.69V264.1h-4.69l-5.43-9.88v9.88h-4.71V245.66h4.71l5.43,9.88Z"/><path class="cls-2" d="M289,245.6a10.45,10.45,0,0,1,2.77.66,8.11,8.11,0,0,1,2.55,1.59,9.26,9.26,0,0,1,2.25,3.17,9.49,9.49,0,0,1,.8,3.8,8.91,8.91,0,0,1-1,4.24,8.51,8.51,0,0,1-2.85,3.27,10.26,10.26,0,0,1-3.76,1.47,27.89,27.89,0,0,1-4.65.35l-2.14,0c-.45,0-1.13,0-2,0V245.45h4.72A32.34,32.34,0,0,1,289,245.6Zm3.88,9.22a4.82,4.82,0,0,0-.62-2.37,5,5,0,0,0-1.71-1.78,4.59,4.59,0,0,0-2.36-.71h-2.55v9.63a19.81,19.81,0,0,0,3.22-.23,5.48,5.48,0,0,0,2.42-1,4.11,4.11,0,0,0,1.47-2.43A5,5,0,0,0,292.86,254.82Z"/><path class="cls-2" d="M320.67,264.1H316l-2.92-7h-3v7h-4.41V245.66h8.79a5.63,5.63,0,0,1,2.86.77,5.74,5.74,0,0,1,2.17,7.72,6,6,0,0,1-1.91,2.07Zm-5.18-14.05a1.78,1.78,0,0,0-1.23-.61h-4.33v3.91h4.33a1.85,1.85,0,0,0,1.23-.63,2,2,0,0,0,.49-1.35A2,2,0,0,0,315.49,250.05Z"/><path class="cls-2" d="M334.64,260.11v4H322.11V245.66h12.3v4h-7.59v3.24h6.39v4h-6.39v3.24Z"/><path class="cls-2" d="M348.83,246.43a5.66,5.66,0,0,1,2.09,2.09,5.77,5.77,0,0,1,0,5.76,5.74,5.74,0,0,1-2.09,2.09,5.59,5.59,0,0,1-2.88.77h-4.37v7h-4.41V245.66H346A5.59,5.59,0,0,1,348.83,246.43Zm-1.8,3.62a1.8,1.8,0,0,0-1.23-.61h-4.33v3.91h4.33a1.71,1.71,0,0,0,1.23-.63,2,2,0,0,0,.51-1.35A1.87,1.87,0,0,0,347,250.05Z"/><path class="cls-2" d="M367.09,246.91a9.36,9.36,0,0,1,4.64,8.09,9.09,9.09,0,0,1-1.25,4.66,9.19,9.19,0,0,1-3.39,3.39,9.28,9.28,0,0,1-9.34,0,9.21,9.21,0,0,1-3.4-3.39,9.35,9.35,0,0,1,0-9.34,9.27,9.27,0,0,1,3.4-3.41,9.35,9.35,0,0,1,9.34,0Zm-2.26,12.23a4.84,4.84,0,0,0,1.74-1.74,4.77,4.77,0,0,0,0-4.81,4.92,4.92,0,0,0-1.74-1.77,4.77,4.77,0,0,0-4.81,0,4.9,4.9,0,0,0-1.76,1.77,4.77,4.77,0,0,0,0,4.81,4.81,4.81,0,0,0,1.76,1.74,4.71,4.71,0,0,0,4.81,0Z"/><path class="cls-2" d="M381.24,251.5v-.34a1.65,1.65,0,0,0-.63-1.29,2.4,2.4,0,0,0-1.56-.53,2.51,2.51,0,0,0-1.6.53,1.62,1.62,0,0,0-.66,1.29,1.2,1.2,0,0,0,.68,1.13,5.68,5.68,0,0,0,1.77.73,3.77,3.77,0,0,1,.4.07l.46.11a8.83,8.83,0,0,1,3.72,1.54l.24.2a5.84,5.84,0,0,1,1.24,1.8,5.17,5.17,0,0,1-.05,4.33,5.87,5.87,0,0,1-1.48,1.91,7,7,0,0,1-2.19,1.24,7.76,7.76,0,0,1-2.55.43,7.65,7.65,0,0,1-2.54-.43,7,7,0,0,1-2.18-1.24,6,6,0,0,1-1.49-1.91,5.14,5.14,0,0,1-.52-2.24v-.34h4.57v.34a1.63,1.63,0,0,0,.63,1.29,2.31,2.31,0,0,0,1.53.54,2.46,2.46,0,0,0,1.6-.54,1.62,1.62,0,0,0,.67-1.29,1.52,1.52,0,0,0-.71-1.15,3.35,3.35,0,0,0-.73-.39,10.5,10.5,0,0,0-1-.31l-.86-.21c-1-.24-1.71-.46-2.25-.65a4.53,4.53,0,0,1-1.48-.89l-.11-.1a5.83,5.83,0,0,1-1.36-1.83,4.83,4.83,0,0,1-.49-2.14,5.14,5.14,0,0,1,.52-2.24,6,6,0,0,1,1.49-1.9,6.82,6.82,0,0,1,2.18-1.24,7.41,7.41,0,0,1,2.54-.43,7.5,7.5,0,0,1,2.55.43,6.76,6.76,0,0,1,2.19,1.24,5.83,5.83,0,0,1,1.48,1.9,5.27,5.27,0,0,1,.5,2.24v.34Z"/><path class="cls-2" d="M401.78,245.66v4.69h-4.71V264.1h-4.72V250.35h-4.72v-4.69h14.15Z"/><path class="cls-2" d="M411.4,251.5v-.34a1.63,1.63,0,0,0-.64-1.29,2.35,2.35,0,0,0-1.55-.53,2.51,2.51,0,0,0-1.6.53,1.63,1.63,0,0,0-.67,1.29,1.21,1.21,0,0,0,.68,1.13,5.9,5.9,0,0,0,1.77.73,3.92,3.92,0,0,1,.41.07l.45.11a8.89,8.89,0,0,1,3.73,1.54l.24.2a5.65,5.65,0,0,1,1.23,1.8,5.08,5.08,0,0,1-.05,4.33,5.84,5.84,0,0,1-1.47,1.91,7,7,0,0,1-2.19,1.24,7.86,7.86,0,0,1-2.56.43,7.74,7.74,0,0,1-2.54-.43,7.08,7.08,0,0,1-2.17-1.24,5.9,5.9,0,0,1-1.49-1.91,5,5,0,0,1-.52-2.24v-.34H407v.34a1.64,1.64,0,0,0,.64,1.29,2.28,2.28,0,0,0,1.52.54,2.47,2.47,0,0,0,1.61-.54,1.61,1.61,0,0,0,.66-1.29,1.51,1.51,0,0,0-.7-1.15,3.35,3.35,0,0,0-.73-.39c-.28-.1-.62-.21-1-.31l-.86-.21c-.95-.24-1.7-.46-2.24-.65a4.43,4.43,0,0,1-1.48-.89l-.11-.1a6,6,0,0,1-1.37-1.83,5,5,0,0,1-.48-2.14,5,5,0,0,1,.52-2.24,5.87,5.87,0,0,1,1.49-1.9,6.88,6.88,0,0,1,2.17-1.24,7.49,7.49,0,0,1,2.54-.43,7.6,7.6,0,0,1,2.56.43,6.76,6.76,0,0,1,2.19,1.24,5.8,5.8,0,0,1,1.47,1.9,5.13,5.13,0,0,1,.51,2.24v.34Z"/><path class="cls-2" d="M418.93,260.89h4.41l-1.93,5.89h-3.88Z"/><path class="cls-2" d="M88.26,281.34H90.4v18.44H85.71v-13l-2.56.81V283l2.56-.81Z"/><path class="cls-2" d="M103,288.46a6.48,6.48,0,0,1,2,2.23,6.14,6.14,0,0,1-.17,6.07,6.68,6.68,0,0,1-5.73,3.18,6.72,6.72,0,0,1-3.33-.86,6.63,6.63,0,0,1-2.41-2.32,6.07,6.07,0,0,1-.89-3.19A6,6,0,0,1,93.63,290l5.71-8.6h4.85l-3.94,5.92A6.61,6.61,0,0,1,103,288.46Zm-2.11,6.89a2.4,2.4,0,0,0,.76-1.78,2.35,2.35,0,0,0-.76-1.74,2.5,2.5,0,0,0-1.82-.73,2.55,2.55,0,0,0-1.84.73,2.29,2.29,0,0,0-.77,1.74,2.34,2.34,0,0,0,.77,1.78,2.55,2.55,0,0,0,1.84.73A2.5,2.5,0,0,0,100.93,295.35Z"/><path class="cls-2" d="M112.92,281.34h2.14v18.44h-4.69v-13l-2.56.81V283l2.56-.81Z"/><path class="cls-2" d="M128.56,282.57a8.69,8.69,0,0,1,2.76,3.39,11.22,11.22,0,0,1,0,9.35,8.65,8.65,0,0,1-2.76,3.4,6.42,6.42,0,0,1-7.61,0,8.69,8.69,0,0,1-2.78-3.4,11.12,11.12,0,0,1,0-9.35,8.73,8.73,0,0,1,2.78-3.39,6.42,6.42,0,0,1,7.61,0Zm-2.22,11.88a3.93,3.93,0,0,0,1.15-1.6,5.77,5.77,0,0,0,.42-2.22,5.6,5.6,0,0,0-.43-2.2,4.24,4.24,0,0,0-1.15-1.61,2.4,2.4,0,0,0-1.58-.6,2.47,2.47,0,0,0-1.59.6,4.26,4.26,0,0,0-1.16,1.61,5.6,5.6,0,0,0-.43,2.2,5.78,5.78,0,0,0,.43,2.22,4.14,4.14,0,0,0,1.16,1.6,2.51,2.51,0,0,0,1.59.59A2.47,2.47,0,0,0,126.34,294.45Z"/><path class="cls-2" d="M145,282.57a8.62,8.62,0,0,1,2.77,3.39,10.85,10.85,0,0,1,1,4.67,11,11,0,0,1-1,4.68,8.58,8.58,0,0,1-2.77,3.4,6.42,6.42,0,0,1-7.61,0,8.67,8.67,0,0,1-2.77-3.4,11.12,11.12,0,0,1,0-9.35,8.71,8.71,0,0,1,2.77-3.39,6.42,6.42,0,0,1,7.61,0Zm-2.21,11.88a3.91,3.91,0,0,0,1.14-1.6,5.77,5.77,0,0,0,.42-2.22,5.43,5.43,0,0,0-.43-2.2,4.33,4.33,0,0,0-1.14-1.61,2.42,2.42,0,0,0-1.58-.6,2.45,2.45,0,0,0-1.59.6,4.06,4.06,0,0,0-1.16,1.61,5.43,5.43,0,0,0-.43,2.2,5.6,5.6,0,0,0,.43,2.22,4,4,0,0,0,1.16,1.6,2.44,2.44,0,0,0,3.18,0Z"/><path class="cls-2" d="M166.69,295.05a5.17,5.17,0,0,0,1.56-1l3.18,3.18a9.46,9.46,0,0,1-3,2,9.35,9.35,0,0,1-8.27-.53,9.39,9.39,0,0,1-3.38-3.39,9.3,9.3,0,0,1,0-9.35,9.29,9.29,0,0,1,3.38-3.41,9.35,9.35,0,0,1,8.27-.53,9.46,9.46,0,0,1,3,2l-3.18,3.18a5.36,5.36,0,0,0-1.56-1,4.71,4.71,0,0,0-1.85-.38,4.56,4.56,0,0,0-2.4.66,4.92,4.92,0,0,0-1.75,1.76,4.71,4.71,0,0,0-.65,2.41,4.65,4.65,0,0,0,.65,2.4,4.94,4.94,0,0,0,1.75,1.74,4.56,4.56,0,0,0,2.4.66A4.71,4.71,0,0,0,166.69,295.05Z"/><path class="cls-2" d="M186,282.6a9.35,9.35,0,0,1,3.39,12.75,9.34,9.34,0,0,1-3.39,3.39,9.35,9.35,0,0,1-9.34,0,9.29,9.29,0,0,1-3.4-3.39A9.32,9.32,0,0,1,186,282.6Zm-2.27,12.23a5,5,0,0,0,1.75-1.75,4.65,4.65,0,0,0,.65-2.4,4.71,4.71,0,0,0-.65-2.41,4.84,4.84,0,0,0-1.75-1.76,4.54,4.54,0,0,0-2.39-.65,4.65,4.65,0,0,0-2.42.65,4.84,4.84,0,0,0-1.75,1.76,4.62,4.62,0,0,0-.66,2.41,4.56,4.56,0,0,0,.66,2.4,5,5,0,0,0,1.75,1.75,4.75,4.75,0,0,0,2.42.65A4.64,4.64,0,0,0,183.73,294.83Z"/><path class="cls-2" d="M205.94,281.34h4.69v18.44h-4.69v-10.4l-2.29,4.17-.11.21h-4.69l-.13-.21-.31-.6-2-3.57v10.4h-4.72V281.34h4.72l4.75,7.85Z"/><path class="cls-2" d="M226.53,281.34h4.69v18.44h-4.69v-10.4l-2.29,4.17-.11.21h-4.69l-.13-.21L219,293l-2-3.57v10.4h-4.72V281.34H217l4.75,7.85Z"/><path class="cls-2" d="M245.45,295.79v4H232.92V281.34h12.3v4h-7.59v3.24H244v4h-6.39v3.23Z"/><path class="cls-2" d="M258.12,281.34h4.69v18.44h-4.69l-5.42-9.88v9.88H248V281.34h4.72l5.42,9.89Z"/><path class="cls-2" d="M278.35,281.34V286h-4.72v13.74h-4.72V286h-4.72v-4.7h14.16Z"/><path class="cls-2" d="M288,287.19v-.34a1.6,1.6,0,0,0-.64-1.29,2.31,2.31,0,0,0-1.55-.54,2.46,2.46,0,0,0-1.6.54,1.6,1.6,0,0,0-.67,1.29,1.2,1.2,0,0,0,.68,1.12,5.65,5.65,0,0,0,1.77.73,3.68,3.68,0,0,1,.41.08l.46.1a9,9,0,0,1,3.72,1.54l.24.21a5.61,5.61,0,0,1,1.24,1.8,5.21,5.21,0,0,1,.45,2.09,5.13,5.13,0,0,1-.51,2.24,5.91,5.91,0,0,1-1.47,1.9,7,7,0,0,1-2.19,1.24,7.59,7.59,0,0,1-2.55.43,7.5,7.5,0,0,1-2.55-.43,7.08,7.08,0,0,1-2.17-1.24,6.12,6.12,0,0,1-1.49-1.9,5.14,5.14,0,0,1-.52-2.24v-.35h4.56v.35a1.66,1.66,0,0,0,.64,1.29,2.35,2.35,0,0,0,1.53.53,2.51,2.51,0,0,0,1.6-.53,1.62,1.62,0,0,0,.66-1.29,1.48,1.48,0,0,0-.7-1.15,3,3,0,0,0-.73-.4c-.28-.1-.62-.2-1-.31l-.86-.21c-.95-.24-1.7-.46-2.24-.65a4.4,4.4,0,0,1-1.48-.88l-.11-.11A6,6,0,0,1,279.5,289a4.91,4.91,0,0,1-.48-2.13,5.11,5.11,0,0,1,.52-2.24A6,6,0,0,1,281,282.7a7.08,7.08,0,0,1,2.17-1.24,7.5,7.5,0,0,1,2.55-.43,7.59,7.59,0,0,1,2.55.43,7,7,0,0,1,2.19,1.24,5.84,5.84,0,0,1,1.47,1.91,5.1,5.1,0,0,1,.51,2.24v.34Z"/><path class="cls-2" d="M300.29,296.76l-1.93,5.42h-3.91l1.93-5.42Zm-2.19-5.19a2.12,2.12,0,0,0,1.53-.63,2.05,2.05,0,0,0,.63-1.51,2.14,2.14,0,0,0-3.67-1.53,2,2,0,0,0-.6,1.53,2.29,2.29,0,0,0,.65,1.51A2,2,0,0,0,298.1,291.57Z"/><path class="cls-2" d="M85.68,349.72v10.67H83V349.72Z"/><path class="cls-2" d="M92.93,349.72h2.72v10.67H92.93l-3.13-5.72v5.72H87.06V349.72H89.8l3.13,5.72Z"/><path class="cls-2" d="M105.67,353.1v-.2a.91.91,0,0,0-.37-.74,1.35,1.35,0,0,0-.9-.31,1.43,1.43,0,0,0-.93.31.92.92,0,0,0-.38.74.68.68,0,0,0,.39.65,3.46,3.46,0,0,0,1,.43l.23,0,.26.06a5.21,5.21,0,0,1,2.16.89l.14.12a3.34,3.34,0,0,1,.72,1,3.14,3.14,0,0,1,.26,1.21,3,3,0,0,1-.29,1.3,3.33,3.33,0,0,1-.86,1.1,3.94,3.94,0,0,1-1.26.72,4.64,4.64,0,0,1-1.48.25,4.45,4.45,0,0,1-1.47-.25,4.1,4.1,0,0,1-1.27-.72,3.43,3.43,0,0,1-.85-1.1,2.8,2.8,0,0,1-.31-1.3v-.19h2.64v.19a1,1,0,0,0,.37.75,1.32,1.32,0,0,0,.89.31,1.38,1.38,0,0,0,.92-.31.94.94,0,0,0,.39-.75.87.87,0,0,0-.41-.66,1.69,1.69,0,0,0-.42-.23c-.16-.06-.36-.12-.59-.18l-.5-.12c-.55-.14-1-.27-1.29-.38a2.66,2.66,0,0,1-.87-.51l-.05-.06a3.37,3.37,0,0,1-.8-1.06,2.92,2.92,0,0,1-.28-1.24,2.86,2.86,0,0,1,.31-1.3,3.43,3.43,0,0,1,.85-1.1,4.31,4.31,0,0,1,1.27-.72,4.44,4.44,0,0,1,1.47-.24,4.64,4.64,0,0,1,1.48.24,4.13,4.13,0,0,1,1.26.72,3.33,3.33,0,0,1,.86,1.1,3.12,3.12,0,0,1,.29,1.3v.2Z"/><path class="cls-2" d="M116.29,358.08v2.31H109V349.72h7.12V352h-4.39v1.87h3.69v2.31h-3.69v1.87Z"/><path class="cls-2" d="M122.83,349.82l3.48,10.57h-2.62l-.7-2.16h-3.3l-.68,2.16h-2.64l3.5-10.57ZM120.4,356h1.9l-1-3Z"/><path class="cls-2" d="M135.58,360.39h-2.73l-1.69-4h-1.74v4h-2.55V349.72H132a3.35,3.35,0,0,1,1.66.44,3.29,3.29,0,0,1,1.21,1.22,3.29,3.29,0,0,1,0,3.25,3.42,3.42,0,0,1-1.1,1.2Zm-3-8.13a1,1,0,0,0-.71-.35h-2.5v2.26h2.5a1,1,0,0,0,.71-.37,1.1,1.1,0,0,0,.29-.78A1.08,1.08,0,0,0,132.57,352.26Z"/><path class="cls-2" d="M142.64,357.65a3,3,0,0,0,.91-.59l1.84,1.84a5.67,5.67,0,0,1-1.74,1.17,5.4,5.4,0,0,1-2.08.41,5.25,5.25,0,0,1-2.7-.72,5.44,5.44,0,0,1-2-2,5.46,5.46,0,0,1,0-5.42,5.47,5.47,0,0,1,2-2,5.25,5.25,0,0,1,2.7-.72,5.4,5.4,0,0,1,2.08.41,5.67,5.67,0,0,1,1.74,1.17l-1.84,1.84a3,3,0,0,0-.91-.59,2.63,2.63,0,0,0-1.07-.22,2.69,2.69,0,0,0-1.39.38,2.82,2.82,0,0,0-1,1,2.73,2.73,0,0,0,0,2.78,2.87,2.87,0,0,0,1,1,2.6,2.6,0,0,0,1.39.38A2.63,2.63,0,0,0,142.64,357.65Z"/><path class="cls-2" d="M151.86,349.72h2.72v10.67h-2.72v-4h-3.05v4H146.1V349.72h2.71v4h3.05Z"/><path class="cls-2" d="M167.16,360.39h-2.73l-1.69-4H161v4h-2.55V349.72h5.09a3.35,3.35,0,0,1,1.66.44,3.32,3.32,0,0,1,1.25,4.47,3.42,3.42,0,0,1-1.1,1.2Zm-3-8.13a1,1,0,0,0-.71-.35h-2.51v2.26h2.51a1.06,1.06,0,0,0,.71-.37,1.13,1.13,0,0,0,.28-.78A1.12,1.12,0,0,0,164.16,352.26Z"/><path class="cls-2" d="M175.32,358.08v2.31h-7.26V349.72h7.13V352H170.8v1.87h3.69v2.31H170.8v1.87Z"/><path class="cls-2" d="M181.18,353.1v-.2a.94.94,0,0,0-.37-.74,1.35,1.35,0,0,0-.9-.31,1.43,1.43,0,0,0-.93.31.9.9,0,0,0-.38.74.68.68,0,0,0,.39.65,3.46,3.46,0,0,0,1,.43l.23,0,.26.06a5.21,5.21,0,0,1,2.16.89l.14.12a3.15,3.15,0,0,1,.71,1,3,3,0,0,1,.27,1.21,2.92,2.92,0,0,1-.3,1.3,3.3,3.3,0,0,1-.85,1.1,3.88,3.88,0,0,1-1.27.72,4.48,4.48,0,0,1-3,0,3.94,3.94,0,0,1-1.26-.72,3.47,3.47,0,0,1-.86-1.1,2.92,2.92,0,0,1-.3-1.3v-.19h2.64v.19a1,1,0,0,0,.37.75,1.32,1.32,0,0,0,.88.31,1.41,1.41,0,0,0,.93-.31.94.94,0,0,0,.39-.75.87.87,0,0,0-.41-.66,1.69,1.69,0,0,0-.42-.23c-.16-.06-.36-.12-.59-.18l-.5-.12c-.55-.14-1-.27-1.3-.38a2.61,2.61,0,0,1-.86-.51l-.06-.06a3.34,3.34,0,0,1-.79-1.06,2.78,2.78,0,0,1-.28-1.24,3,3,0,0,1,.3-1.3,3.47,3.47,0,0,1,.86-1.1,4.13,4.13,0,0,1,1.26-.72,4.65,4.65,0,0,1,3,0,4.07,4.07,0,0,1,1.27.72,3.3,3.3,0,0,1,.85,1.1,3,3,0,0,1,.3,1.3v.2Z"/><path class="cls-2" d="M193.22,349.73v6.6a4.07,4.07,0,0,1-.57,2.11,4.14,4.14,0,0,1-1.54,1.54,4.2,4.2,0,0,1-2.12.56h-.24a4.16,4.16,0,0,1-3.64-2.1,4.07,4.07,0,0,1-.57-2.11v-6.6h2.52v6a2.5,2.5,0,0,0,.46,1.55,1.45,1.45,0,0,0,1.23.62H189a1.46,1.46,0,0,0,1.23-.63,2.44,2.44,0,0,0,.48-1.54v-6Z"/><path class="cls-2" d="M196.87,357.82h4.19v2.57h-6.91V349.72h2.72Z"/><path class="cls-2" d="M210.42,349.72v2.72h-2.73v7.95H205v-7.95h-2.73v-2.72h8.19Z"/><path class="cls-2" d="M216.85,353.1v-.2a.91.91,0,0,0-.37-.74,1.35,1.35,0,0,0-.9-.31,1.43,1.43,0,0,0-.93.31.92.92,0,0,0-.38.74.68.68,0,0,0,.39.65,3.46,3.46,0,0,0,1,.43l.23,0,.26.06a5.21,5.21,0,0,1,2.16.89l.14.12a3.34,3.34,0,0,1,.72,1,3.14,3.14,0,0,1,.26,1.21,3,3,0,0,1-.29,1.3,3.33,3.33,0,0,1-.86,1.1,3.94,3.94,0,0,1-1.26.72,4.64,4.64,0,0,1-1.48.25,4.45,4.45,0,0,1-1.47-.25,3.94,3.94,0,0,1-1.26-.72,3.33,3.33,0,0,1-.86-1.1,2.8,2.8,0,0,1-.31-1.3v-.19h2.64v.19a1,1,0,0,0,.37.75,1.32,1.32,0,0,0,.89.31,1.43,1.43,0,0,0,.93-.31,1,1,0,0,0,.38-.75.87.87,0,0,0-.41-.66,1.69,1.69,0,0,0-.42-.23c-.16-.06-.36-.12-.59-.18l-.5-.12c-.55-.14-1-.27-1.29-.38a2.66,2.66,0,0,1-.87-.51l-.05-.06a3.37,3.37,0,0,1-.8-1.06,2.92,2.92,0,0,1-.28-1.24,2.86,2.86,0,0,1,.31-1.3,3.33,3.33,0,0,1,.86-1.1,4.13,4.13,0,0,1,1.26-.72,4.44,4.44,0,0,1,1.47-.24,4.64,4.64,0,0,1,1.48.24,4.13,4.13,0,0,1,1.26.72,3.33,3.33,0,0,1,.86,1.1,3.12,3.12,0,0,1,.29,1.3v.2Z"/><path class="cls-2" d="M231.76,352h-4.71v1.87h3.77v2.31h-3.77v4.18h-2.72V349.72h7.43Z"/><path class="cls-2" d="M240.37,350.44a5.37,5.37,0,0,1,2,2,5.25,5.25,0,0,1,.73,2.71,5.16,5.16,0,0,1-.73,2.7,5.41,5.41,0,0,1-7.37,2,5.39,5.39,0,0,1-2-2,5.25,5.25,0,0,1-.72-2.7,5.34,5.34,0,0,1,.72-2.71,5.47,5.47,0,0,1,2-2,5.34,5.34,0,0,1,2.71-.72A5.25,5.25,0,0,1,240.37,350.44Zm-1.31,7.08a2.87,2.87,0,0,0,1-1,2.73,2.73,0,0,0,0-2.78,2.82,2.82,0,0,0-1-1,2.73,2.73,0,0,0-2.78,0,2.77,2.77,0,0,0-1,1,2.73,2.73,0,0,0,0,2.78,2.82,2.82,0,0,0,1,1,2.73,2.73,0,0,0,2.78,0Z"/><path class="cls-2" d="M252.26,360.39h-2.73l-1.69-4h-1.73v4h-2.55V349.72h5.08A3.31,3.31,0,0,1,252,353a3.14,3.14,0,0,1-.41,1.59,3.33,3.33,0,0,1-1.1,1.2Zm-3-8.13a1,1,0,0,0-.71-.35h-2.5v2.26h2.5a1.06,1.06,0,0,0,.71-.37,1.14,1.14,0,0,0,.29-.78A1.13,1.13,0,0,0,249.26,352.26Z"/><path class="cls-2" d="M261.09,355l3.18,5.39h-3l-2.63-4.3v4.3h-2.71V349.72h2.71v4.16l2.63-4.16h3Z"/><path class="cls-2" d="M272.77,358.08v2.31h-7.26V349.72h7.12V352h-4.39v1.87h3.7v2.31h-3.7v1.87Z"/><path class="cls-2" d="M279.43,349.72h2.71L279,356v4.35h-2.71V356l-3.14-6.32h2.71l1.78,3.64Z"/><path class="cls-2" d="M291.94,349.72h2.35v10.67h-2.72l-2.74-4.54-2.77,4.54h-2.71V349.72h2.71v6l1.33-2.41.08-.12h2.71l.06.12,1.33,2.41v-6Z"/><path class="cls-2" d="M303.49,350.44a5.37,5.37,0,0,1,2,2,5.25,5.25,0,0,1,.73,2.71,5.16,5.16,0,0,1-.73,2.7,5.41,5.41,0,0,1-7.37,2,5.39,5.39,0,0,1-2-2,5.25,5.25,0,0,1-.72-2.7,5.34,5.34,0,0,1,.72-2.71,5.47,5.47,0,0,1,2-2,5.34,5.34,0,0,1,2.71-.72A5.25,5.25,0,0,1,303.49,350.44Zm-1.31,7.08a2.87,2.87,0,0,0,1-1,2.73,2.73,0,0,0,0-2.78,2.82,2.82,0,0,0-1-1,2.73,2.73,0,0,0-2.78,0,2.77,2.77,0,0,0-1,1,2.73,2.73,0,0,0,0,2.78,2.82,2.82,0,0,0,1,1,2.73,2.73,0,0,0,2.78,0Z"/><path class="cls-2" d="M315.38,360.39h-2.73l-1.69-4h-1.73v4h-2.55V349.72h5.08a3.31,3.31,0,0,1,3.32,3.32,3.25,3.25,0,0,1-.41,1.59,3.42,3.42,0,0,1-1.1,1.2Zm-3-8.13a1,1,0,0,0-.71-.35h-2.51v2.26h2.51a1.06,1.06,0,0,0,.71-.37,1.14,1.14,0,0,0,.29-.78A1.13,1.13,0,0,0,312.38,352.26Z"/><path class="cls-2" d="M321,349.68a6,6,0,0,1,1.6.38A4.62,4.62,0,0,1,324,351a5.21,5.21,0,0,1,1.31,1.83,5.43,5.43,0,0,1,.46,2.2,5.26,5.26,0,0,1-.59,2.46,4.84,4.84,0,0,1-1.65,1.88,5.73,5.73,0,0,1-2.18.86,16.32,16.32,0,0,1-2.69.2h-1.23l-1.18,0V349.6H319A18.54,18.54,0,0,1,321,349.68Zm2.24,5.34a2.75,2.75,0,0,0-.36-1.37,2.79,2.79,0,0,0-1-1,2.52,2.52,0,0,0-1.36-.41H319v5.57a11.12,11.12,0,0,0,1.86-.13,3.15,3.15,0,0,0,1.41-.59,2.42,2.42,0,0,0,.85-1.41A3,3,0,0,0,323.21,355Z"/><path class="cls-2" d="M332.13,353.1v-.2a.91.91,0,0,0-.37-.74,1.31,1.31,0,0,0-.9-.31,1.38,1.38,0,0,0-.92.31.91.91,0,0,0-.39.74.68.68,0,0,0,.39.65,3.71,3.71,0,0,0,1,.43l.24,0,.26.06a5.34,5.34,0,0,1,2.16.89l.13.12a3.34,3.34,0,0,1,.72,1,3,3,0,0,1,.26,1.21,2.91,2.91,0,0,1-.29,1.3,3.43,3.43,0,0,1-.85,1.1,4.1,4.1,0,0,1-1.27.72,4.6,4.6,0,0,1-1.48.25,4.54,4.54,0,0,1-1.47-.25,3.94,3.94,0,0,1-1.26-.72,3.47,3.47,0,0,1-.86-1.1,2.92,2.92,0,0,1-.3-1.3v-.19h2.64v.19a1,1,0,0,0,.37.75,1.3,1.3,0,0,0,.88.31,1.43,1.43,0,0,0,.93-.31.93.93,0,0,0,.38-.75.86.86,0,0,0-.4-.66,1.76,1.76,0,0,0-.43-.23,5.89,5.89,0,0,0-.58-.18l-.5-.12c-.56-.14-1-.27-1.3-.38a2.61,2.61,0,0,1-.86-.51l-.06-.06a3.34,3.34,0,0,1-.79-1.06,2.78,2.78,0,0,1-.28-1.24,3,3,0,0,1,.3-1.3,3.47,3.47,0,0,1,.86-1.1,4.13,4.13,0,0,1,1.26-.72,4.53,4.53,0,0,1,1.47-.24,4.59,4.59,0,0,1,1.48.24,4.31,4.31,0,0,1,1.27.72,3.43,3.43,0,0,1,.85,1.1,3,3,0,0,1,.29,1.3v.2Z"/><path class="cls-2" d="M88.11,373.54V392h-4.7V373.54Z"/><path class="cls-2" d="M107.65,386.38a9.78,9.78,0,0,1-2,3l1.64,2.6-3.6,2.25-1.59-2.59a9.35,9.35,0,0,1-3.1.53,9,9,0,0,1-4.66-1.26A9.19,9.19,0,0,1,91,387.51a9,9,0,0,1-1.25-4.66A9.13,9.13,0,0,1,91,378.16a9.29,9.29,0,0,1,3.39-3.4,9.33,9.33,0,0,1,9.33,0,9.44,9.44,0,0,1,3.39,3.4,9.23,9.23,0,0,1,1.25,4.69A9,9,0,0,1,107.65,386.38Zm-12.76-1.13A4.86,4.86,0,0,0,96.64,387a4.79,4.79,0,0,0,4.82,0,4.86,4.86,0,0,0,1.75-1.74,4.74,4.74,0,0,0,.64-2.4,4.81,4.81,0,0,0-2.39-4.18,4.79,4.79,0,0,0-4.82,0,4.77,4.77,0,0,0-2.38,4.18A4.73,4.73,0,0,0,94.89,385.25Z"/><path class="cls-2" d="M109.66,391.22a2.56,2.56,0,0,1-.7-1.8,2.33,2.33,0,0,1,.71-1.7,2.45,2.45,0,0,1,3.46,0,2.45,2.45,0,0,1,0,3.49,2.38,2.38,0,0,1-1.75.73A2.27,2.27,0,0,1,109.66,391.22Z"/><path class="cls-2" d="M125.61,387.24a5,5,0,0,0,1.57-1l3.18,3.18a9.39,9.39,0,0,1-3,2,9.33,9.33,0,0,1-8.26-.53,9.34,9.34,0,0,1-3.39-3.39,9.37,9.37,0,0,1,0-9.35,9.14,9.14,0,0,1,3.39-3.4,9,9,0,0,1,4.66-1.26,9.11,9.11,0,0,1,3.6.72,9.39,9.39,0,0,1,3,2l-3.18,3.18a5.41,5.41,0,0,0-1.57-1,4.71,4.71,0,0,0-1.85-.38,4.56,4.56,0,0,0-2.4.66,4.81,4.81,0,0,0-1.74,1.76,4.61,4.61,0,0,0-.65,2.41,4.55,4.55,0,0,0,.65,2.4,4.94,4.94,0,0,0,1.74,1.75,4.65,4.65,0,0,0,2.4.65A4.71,4.71,0,0,0,125.61,387.24Z"/><path class="cls-2" d="M141,373.72l6,18.25h-4.53l-1.2-3.73h-5.71L134.45,392h-4.56l6-18.25Zm-4.19,10.72h3.28l-1.64-5.17Z"/><path class="cls-2" d="M156.32,379.38V379a1.63,1.63,0,0,0-.64-1.29,2.34,2.34,0,0,0-1.55-.54,2.49,2.49,0,0,0-1.61.54,1.59,1.59,0,0,0-.66,1.29,1.2,1.2,0,0,0,.68,1.12,5.45,5.45,0,0,0,1.77.73,3.53,3.53,0,0,1,.4.08l.46.1a9.09,9.09,0,0,1,3.73,1.54l.23.21a5.61,5.61,0,0,1,1.24,1.8,5.23,5.23,0,0,1,.46,2.09,5.13,5.13,0,0,1-.51,2.24,5.7,5.7,0,0,1-1.48,1.9,7,7,0,0,1-2.18,1.24,7.6,7.6,0,0,1-2.56.43,7.45,7.45,0,0,1-2.54-.43,7.13,7.13,0,0,1-2.18-1.24,6,6,0,0,1-1.48-1.9,5,5,0,0,1-.52-2.24v-.34h4.56v.34a1.63,1.63,0,0,0,.64,1.29,2.31,2.31,0,0,0,1.52.53,2.49,2.49,0,0,0,1.6-.53,1.6,1.6,0,0,0,.67-1.29,1.51,1.51,0,0,0-.71-1.15,2.53,2.53,0,0,0-.73-.39,9.46,9.46,0,0,0-1-.32l-.86-.2c-1-.25-1.7-.46-2.24-.66a4.45,4.45,0,0,1-1.49-.88l-.1-.11a5.94,5.94,0,0,1-1.37-1.82,5,5,0,0,1-.48-2.14,5,5,0,0,1,.52-2.24,6,6,0,0,1,1.48-1.91,7.13,7.13,0,0,1,2.18-1.24,7.7,7.7,0,0,1,2.54-.43,7.86,7.86,0,0,1,2.56.43,7,7,0,0,1,2.18,1.24,5.74,5.74,0,0,1,1.48,1.91,5.13,5.13,0,0,1,.51,2.24v.34Z"/><path class="cls-2" d="M172.92,373.54h4.69V392h-4.69v-6.88h-5.27V392H163V373.54h4.69v6.85h5.27Z"/><path class="cls-2" d="M199.79,374.79a9.37,9.37,0,0,1,3.39,3.4,9.37,9.37,0,0,1,0,9.35,9.42,9.42,0,0,1-3.39,3.39,9.35,9.35,0,0,1-9.34,0,9.21,9.21,0,0,1-3.4-3.39,9.3,9.3,0,0,1,0-9.35,9.17,9.17,0,0,1,3.4-3.4,9.35,9.35,0,0,1,9.34,0ZM197.52,387a5.06,5.06,0,0,0,1.75-1.75,4.65,4.65,0,0,0,.65-2.4,4.71,4.71,0,0,0-.65-2.41,4.92,4.92,0,0,0-1.75-1.76,4.64,4.64,0,0,0-2.39-.65,4.75,4.75,0,0,0-2.42.65,4.87,4.87,0,0,0-1.76,1.76,4.71,4.71,0,0,0-.65,2.41,4.65,4.65,0,0,0,.65,2.4,5,5,0,0,0,1.76,1.75,4.75,4.75,0,0,0,2.42.65A4.64,4.64,0,0,0,197.52,387Z"/><path class="cls-2" d="M215.66,373.54h4.7V392h-4.7l-5.42-9.88V392h-4.72V373.54h4.72l5.42,9.88Z"/><path class="cls-2" d="M235.05,373.54h2.14V392H232.5v-13l-2.55.81v-4.59l2.55-.81Z"/><path class="cls-2" d="M240,391.22a2.56,2.56,0,0,1-.7-1.8,2.29,2.29,0,0,1,.71-1.7,2.45,2.45,0,0,1,3.46,0,2.45,2.45,0,0,1,0,3.49,2.38,2.38,0,0,1-1.75.73A2.27,2.27,0,0,1,240,391.22Z"/><path class="cls-2" d="M245.48,391.22a2.56,2.56,0,0,1-.7-1.8,2.29,2.29,0,0,1,.71-1.7,2.45,2.45,0,0,1,3.46,0,2.45,2.45,0,0,1,0,3.49,2.38,2.38,0,0,1-1.75.73A2.27,2.27,0,0,1,245.48,391.22Z"/><path class="cls-2" d="M251,391.22a2.57,2.57,0,0,1-.71-1.8,2.3,2.3,0,0,1,.72-1.7A2.46,2.46,0,1,1,252.7,392,2.27,2.27,0,0,1,251,391.22Z"/><path class="cls-2" d="M261.14,373.54h2.14V392h-4.69v-13l-2.56.81v-4.59l2.56-.81Z"/><path class="cls-2" d="M276.78,374.76a8.59,8.59,0,0,1,2.76,3.39,11.22,11.22,0,0,1,0,9.35,8.41,8.41,0,0,1-2.76,3.4,6.38,6.38,0,0,1-7.61,0,8.71,8.71,0,0,1-2.78-3.4,11.22,11.22,0,0,1,0-9.35,8.89,8.89,0,0,1,2.78-3.39,6.42,6.42,0,0,1,7.61,0Zm-2.21,11.88a3.94,3.94,0,0,0,1.14-1.6,5.77,5.77,0,0,0,.42-2.22,5.47,5.47,0,0,0-.43-2.2,4.24,4.24,0,0,0-1.15-1.61,2.38,2.38,0,0,0-1.57-.6,2.43,2.43,0,0,0-1.59.6,4.06,4.06,0,0,0-1.16,1.61,5.47,5.47,0,0,0-.43,2.2,5.6,5.6,0,0,0,.43,2.22,3.88,3.88,0,0,0,1.16,1.6,2.47,2.47,0,0,0,1.59.59A2.51,2.51,0,0,0,274.57,386.64Z"/><path class="cls-2" d="M282.33,381.05h10.3v3.31h-10.3Zm6.8-3.5v10.3h-3.31v-10.3Z"/><path class="cls-2" d="M313.23,374.31a5.71,5.71,0,0,1,2.09,2.08,5.77,5.77,0,0,1,0,5.76,5.74,5.74,0,0,1-2.09,2.09,5.65,5.65,0,0,1-2.88.77H306v7h-4.4V373.54h8.78A5.55,5.55,0,0,1,313.23,374.31Zm-1.8,3.62a1.78,1.78,0,0,0-1.23-.61h-4.33v3.91h4.33a1.78,1.78,0,0,0,1.23-.64,2,2,0,0,0,.51-1.34A1.88,1.88,0,0,0,311.43,377.93Z"/><path class="cls-2" d="M327.6,373.72l6,18.25h-4.53l-1.2-3.73h-5.71L321,392h-4.56l6.05-18.25Zm-4.19,10.72h3.28l-1.64-5.17Z"/><path class="cls-2" d="M352.57,382.85a9,9,0,0,1-1.25,4.66,9.37,9.37,0,0,1-8.08,4.65,9,9,0,0,1-4.66-1.26,9.19,9.19,0,0,1-3.39-3.39,9,9,0,0,1-1.25-4.66,9.13,9.13,0,0,1,1.25-4.69,9.29,9.29,0,0,1,3.39-3.4,9.27,9.27,0,0,1,11.28,1.51l-4.19,2.4a4.81,4.81,0,0,0-4.83,0,4.89,4.89,0,0,0-1.74,1.76,4.65,4.65,0,0,0-.65,2.42,4.55,4.55,0,0,0,.65,2.4,4.92,4.92,0,0,0,1.74,1.74,4.58,4.58,0,0,0,2.4.65,4.65,4.65,0,0,0,2.53-.71,4.88,4.88,0,0,0,1.77-1.92h-5.78v-4.33h10.55A9.69,9.69,0,0,1,352.57,382.85Z"/><path class="cls-2" d="M366.21,388v4H353.67V373.54H366v4h-7.58v3.23h6.38v4h-6.38V388Z"/><path class="cls-2" d="M377.15,379.38V379a1.6,1.6,0,0,0-.64-1.29,2.31,2.31,0,0,0-1.55-.54,2.46,2.46,0,0,0-1.6.54,1.6,1.6,0,0,0-.67,1.29,1.2,1.2,0,0,0,.68,1.12,5.65,5.65,0,0,0,1.77.73,3.68,3.68,0,0,1,.41.08l.46.1a9,9,0,0,1,3.72,1.54l.24.21a5.61,5.61,0,0,1,1.24,1.8,5.21,5.21,0,0,1,.45,2.09,5.13,5.13,0,0,1-.51,2.24,5.67,5.67,0,0,1-1.47,1.9,7,7,0,0,1-2.19,1.24,7.59,7.59,0,0,1-2.55.43,7.5,7.5,0,0,1-2.55-.43,7.08,7.08,0,0,1-2.17-1.24,6,6,0,0,1-1.49-1.9,5.14,5.14,0,0,1-.52-2.24v-.34h4.56v.34a1.66,1.66,0,0,0,.64,1.29,2.35,2.35,0,0,0,1.53.53,2.51,2.51,0,0,0,1.6-.53,1.62,1.62,0,0,0,.66-1.29,1.49,1.49,0,0,0-.7-1.15,2.67,2.67,0,0,0-.73-.39,10.54,10.54,0,0,0-1-.32l-.86-.2c-.95-.25-1.7-.46-2.24-.66a4.4,4.4,0,0,1-1.48-.88l-.11-.11a6.1,6.1,0,0,1-1.37-1.82,5,5,0,0,1-.48-2.14,5.14,5.14,0,0,1,.52-2.24,6,6,0,0,1,1.49-1.91,7.08,7.08,0,0,1,2.17-1.24,7.76,7.76,0,0,1,2.55-.43,7.85,7.85,0,0,1,2.55.43,7,7,0,0,1,2.19,1.24,5.7,5.7,0,0,1,1.47,1.91,5.13,5.13,0,0,1,.51,2.24v.34Z"/><path class="cls-2" d="M389.48,389l-1.93,5.42h-3.91l1.93-5.42Zm-2.19-5.19a2.12,2.12,0,0,0,1.53-.63,2,2,0,0,0,.63-1.51,2.12,2.12,0,0,0-2.16-2.16,2.05,2.05,0,0,0-1.51.63,2,2,0,0,0-.6,1.53,2.27,2.27,0,0,0,.65,1.51A2,2,0,0,0,387.29,383.76Z"/><path class="cls-2" d="M96.42,453.12H99v3.94H96.42v3.42H92.2v-3.42H83v-4.33l8.52-10.66h.65v0h4.22v11.08Zm-8.73,0H92.2v-5.55Z"/><path class="cls-2" d="M110.66,442.79a6.6,6.6,0,0,1,2.42,2.33,6.22,6.22,0,0,1-.26,6.78l-5.71,8.58h-4.85l3.93-5.92a6.77,6.77,0,0,1-2.78-1.15,6.39,6.39,0,0,1-2-2.23,6.12,6.12,0,0,1,.17-6.06,6.5,6.5,0,0,1,2.41-2.33,6.84,6.84,0,0,1,6.64,0Zm-5.14,7.28a2.5,2.5,0,0,0,1.82.73,2.57,2.57,0,0,0,1.84-.73,2.37,2.37,0,0,0,.77-1.77,2.32,2.32,0,0,0-.77-1.76,2.6,2.6,0,0,0-1.84-.72,2.54,2.54,0,0,0-1.82.72,2.31,2.31,0,0,0-.76,1.76A2.36,2.36,0,0,0,105.52,450.07Z"/><path class="cls-2" d="M125.87,443.26a8.65,8.65,0,0,1,2.77,3.4,11.3,11.3,0,0,1,0,9.34,8.62,8.62,0,0,1-2.77,3.41,6.42,6.42,0,0,1-7.61,0,8.7,8.7,0,0,1-2.77-3.41,11.1,11.1,0,0,1,0-9.34,8.74,8.74,0,0,1,2.77-3.4,6.42,6.42,0,0,1,7.61,0Zm-2.21,11.88a3.85,3.85,0,0,0,1.14-1.6,5.77,5.77,0,0,0,.42-2.22,5.47,5.47,0,0,0-.43-2.2,4.32,4.32,0,0,0-1.15-1.61,2.43,2.43,0,0,0-1.57-.6,2.48,2.48,0,0,0-1.59.6,4.13,4.13,0,0,0-1.16,1.61,5.47,5.47,0,0,0-.43,2.2,5.6,5.6,0,0,0,.43,2.22,3.88,3.88,0,0,0,1.16,1.6,2.47,2.47,0,0,0,1.59.59A2.51,2.51,0,0,0,123.66,455.14Z"/><path class="cls-2" d="M150,442.81a5.68,5.68,0,0,1,2.08,2.08,5.73,5.73,0,0,1-5,8.62h-4.38v7H138.3V442h8.79A5.65,5.65,0,0,1,150,442.81Zm-1.8,3.62a1.78,1.78,0,0,0-1.24-.61h-4.32v3.91h4.32a1.74,1.74,0,0,0,1.24-.64,2,2,0,0,0,.51-1.34A1.92,1.92,0,0,0,148.17,446.43Z"/><path class="cls-2" d="M164.34,442.22l6,18.26h-4.53l-1.2-3.73h-5.71l-1.17,3.73h-4.56l6.05-18.26Zm-4.19,10.72h3.28l-1.64-5.16Z"/><path class="cls-2" d="M189.31,451.35a9.15,9.15,0,0,1-1.25,4.67,9.37,9.37,0,0,1-3.4,3.39,9.19,9.19,0,0,1-4.68,1.25,9.07,9.07,0,0,1-4.66-1.25,9.34,9.34,0,0,1-3.39-3.39,9.3,9.3,0,0,1,0-9.35,9.24,9.24,0,0,1,3.39-3.41A9.07,9.07,0,0,1,180,442a9.16,9.16,0,0,1,6.62,2.77l-4.2,2.4a4.73,4.73,0,0,0-4.82,0,4.81,4.81,0,0,0-1.74,1.76,4.71,4.71,0,0,0,0,4.81,4.94,4.94,0,0,0,1.74,1.75,4.78,4.78,0,0,0,4.93-.07,5,5,0,0,0,1.77-1.92H178.5v-4.33h10.55A10.39,10.39,0,0,1,189.31,451.35Z"/><path class="cls-2" d="M202.94,456.49v4H190.41V442h12.3v4h-7.59v3.23h6.39v4h-6.39v3.24Z"/><path class="cls-2" d="M213.89,447.88v-.34a1.63,1.63,0,0,0-.64-1.29,2.32,2.32,0,0,0-1.55-.53,2.45,2.45,0,0,0-1.6.53,1.63,1.63,0,0,0-.67,1.29,1.19,1.19,0,0,0,.68,1.12,5.65,5.65,0,0,0,1.77.73l.41.08.45.11a9.11,9.11,0,0,1,3.73,1.53l.24.21a5.65,5.65,0,0,1,1.23,1.8,5.08,5.08,0,0,1-.05,4.33,5.94,5.94,0,0,1-1.47,1.91,6.93,6.93,0,0,1-2.19,1.23,7.6,7.6,0,0,1-2.56.43,7.49,7.49,0,0,1-2.54-.43,7.05,7.05,0,0,1-2.17-1.23,6,6,0,0,1-1.49-1.91,5,5,0,0,1-.52-2.24v-.34h4.56v.34a1.63,1.63,0,0,0,.64,1.29,2.33,2.33,0,0,0,1.52.53,2.52,2.52,0,0,0,1.61-.53,1.62,1.62,0,0,0,.66-1.29,1.51,1.51,0,0,0-.7-1.15,2.67,2.67,0,0,0-.73-.39c-.28-.1-.62-.21-1-.31l-.86-.21c-.95-.24-1.7-.46-2.24-.65a4.43,4.43,0,0,1-1.48-.89l-.11-.11a5.71,5.71,0,0,1-1.37-1.82,5,5,0,0,1-.48-2.14,5,5,0,0,1,.52-2.24,6,6,0,0,1,1.49-1.91,7.05,7.05,0,0,1,2.17-1.23,7.49,7.49,0,0,1,2.54-.43,7.6,7.6,0,0,1,2.56.43,6.93,6.93,0,0,1,2.19,1.23,5.94,5.94,0,0,1,1.47,1.91,5.13,5.13,0,0,1,.51,2.24v.34Z"/><path class="cls-2" d="M239.51,443.29a9.33,9.33,0,0,1,4.64,8.09A9.09,9.09,0,0,1,242.9,456a9.26,9.26,0,0,1-3.39,3.39,9.28,9.28,0,0,1-9.34,0,9.14,9.14,0,0,1-3.4-3.39,9,9,0,0,1-1.26-4.66,9.33,9.33,0,0,1,14-8.09Zm-2.27,12.23a5,5,0,0,0,1.75-1.75,4.64,4.64,0,0,0,.65-2.39A4.75,4.75,0,0,0,239,449a5,5,0,0,0-1.75-1.76,4.64,4.64,0,0,0-2.39-.65,4.75,4.75,0,0,0-2.42.65,5,5,0,0,0-1.76,1.76,4.75,4.75,0,0,0-.65,2.42,4.64,4.64,0,0,0,.65,2.39,4.92,4.92,0,0,0,1.76,1.75,4.65,4.65,0,0,0,2.42.65A4.54,4.54,0,0,0,237.24,455.52Z"/><path class="cls-2" d="M255.38,442h4.7v18.44h-4.7L250,450.59v9.89h-4.72V442H250l5.42,9.88Z"/><path class="cls-2" d="M283.82,452.69a5.32,5.32,0,0,1-2,7,5.36,5.36,0,0,1-2.67.75h-9.21V442h8.37a5.14,5.14,0,0,1,2.69.73,5.38,5.38,0,0,1,1.89,1.93,5.15,5.15,0,0,1,.69,2.61,5.08,5.08,0,0,1-.37,1.92,5.25,5.25,0,0,1-1,1.63A5.25,5.25,0,0,1,283.82,452.69ZM279,446.36a1.82,1.82,0,0,0-1.34-.57h-3.39v3.92h3.39a4.28,4.28,0,0,0,.62-.11,1.51,1.51,0,0,0,.47-.26,2,2,0,0,0,.6-.7,2,2,0,0,0,.21-.92A1.85,1.85,0,0,0,279,446.36Zm.78,9.73a1.81,1.81,0,0,0,.53-1.38,1.91,1.91,0,0,0-1.56-1.9c-.11,0-1.34,0-3.7,0h-.78v3.91h4.17A1.85,1.85,0,0,0,279.74,456.09Z"/><path class="cls-2" d="M299.85,443.29a9.37,9.37,0,0,1,3.39,3.4,9.23,9.23,0,0,1,1.25,4.69,9.09,9.09,0,0,1-1.25,4.66,9.34,9.34,0,0,1-3.39,3.39,9.3,9.3,0,0,1-9.35,0,9.29,9.29,0,0,1-3.4-3.39,9.09,9.09,0,0,1-1.25-4.66,9.31,9.31,0,0,1,9.33-9.34A9.13,9.13,0,0,1,299.85,443.29Zm-2.27,12.23a5,5,0,0,0,1.75-1.75,4.64,4.64,0,0,0,.65-2.39,4.75,4.75,0,0,0-.65-2.42,5,5,0,0,0-1.75-1.76,4.65,4.65,0,0,0-2.4-.65,4.71,4.71,0,0,0-2.41.65A5,5,0,0,0,291,449a4.75,4.75,0,0,0-.65,2.42,4.64,4.64,0,0,0,.65,2.39,4.92,4.92,0,0,0,1.76,1.75,4.61,4.61,0,0,0,2.41.65A4.55,4.55,0,0,0,297.58,455.52Z"/><path class="cls-2" d="M320.57,442.07v11.39a7.11,7.11,0,0,1-1,3.65,7.27,7.27,0,0,1-2.66,2.65,7.17,7.17,0,0,1-3.66,1h-.42a7.13,7.13,0,0,1-3.65-1,7.29,7.29,0,0,1-2.64-2.65,7.11,7.11,0,0,1-1-3.65V442.07h4.35v10.35a4.41,4.41,0,0,0,.78,2.68,2.51,2.51,0,0,0,2.14,1.07h.42a2.53,2.53,0,0,0,2.12-1.08,4.27,4.27,0,0,0,.82-2.67V442.07Z"/><path class="cls-2" d="M332.19,442h4.7v18.44h-4.7l-5.42-9.89v9.89h-4.72V442h4.72l5.42,9.88Z"/><path class="cls-2" d="M352.42,442v4.69H347.7v13.75H343V446.73h-4.71V442h14.15Z"/><path class="cls-2" d="M363.42,442h4.69L362.69,453v7.51H358V453L352.57,442h4.69l3.08,6.28Z"/><path class="cls-2" d="M390.81,442v4.69h-4.72v13.75h-4.72V446.73h-4.71V442h14.15Z"/><path class="cls-2" d="M402,442h4.7v18.44H402v-6.89H396.7v6.89H392V442h4.69v6.86H402Z"/><path class="cls-2" d="M423.52,460.48H418.8l-2.92-7h-3v7h-4.41V442h8.78a5.66,5.66,0,0,1,2.87.77,5.57,5.57,0,0,1,2.1,2.1,5.64,5.64,0,0,1,.77,2.87,5.55,5.55,0,0,1-.71,2.75,6,6,0,0,1-1.9,2.07Zm-5.19-14.05a1.74,1.74,0,0,0-1.22-.61h-4.33v3.91h4.33a1.82,1.82,0,0,0,1.22-.64,2,2,0,0,0,0-2.66Z"/><path class="cls-2" d="M437.49,456.49v4H425V442h12.31v4h-7.59v3.23h6.39v4h-6.39v3.24Z"/><path class="cls-2" d="M449.61,442.22l6,18.26H451.1l-1.2-3.73h-5.71L443,460.48h-4.57l6.05-18.26Zm-4.2,10.72h3.29l-1.65-5.16Z"/></svg>