<svg id="Слой_1" data-name="Слой 1" xmlns="http://www.w3.org/2000/svg" viewBox="0 0 540 540"><defs><style>.cls-1{fill:#fed841;}.cls-2{fill:#e7335d;}.cls-3{fill:#fff;}</style></defs><rect class="cls-1" width="540" height="540"/><path class="cls-2" d="M63.81,235.15H60.39l-2.11-5H56.12v5H52.93V221.81h6.35a4.07,4.07,0,0,1,2.07.56,4,4,0,0,1,1.52,1.52,4.07,4.07,0,0,1,.56,2.07,4,4,0,0,1-.51,2,4.31,4.31,0,0,1-1.38,1.5ZM60.05,225a1.22,1.22,0,0,0-.88-.44H56v2.82h3.13a1.28,1.28,0,0,0,.88-.46,1.4,1.4,0,0,0,.36-1A1.39,1.39,0,0,0,60.05,225Z"/><path class="cls-2" d="M74.29,222.72a6.72,6.72,0,0,1,2.45,2.46,6.8,6.8,0,0,1,0,6.76,6.77,6.77,0,0,1-2.45,2.45,6.73,6.73,0,0,1-6.76,0,6.74,6.74,0,0,1,0-11.67,6.73,6.73,0,0,1,6.76,0Zm-1.64,8.84a3.46,3.46,0,0,0,1.26-1.26,3.46,3.46,0,0,0,0-3.48,3.51,3.51,0,0,0-1.26-1.28,3.46,3.46,0,0,0-3.48,0,3.47,3.47,0,0,0-1.27,1.28,3.46,3.46,0,0,0,0,3.48,3.41,3.41,0,0,0,1.27,1.26,3.46,3.46,0,0,0,3.48,0Z"/><path class="cls-2" d="M89.88,221.83v8.24a5.12,5.12,0,0,1-.71,2.64,5.24,5.24,0,0,1-4.57,2.62h-.3a5.11,5.11,0,0,1-2.64-.7,5.2,5.2,0,0,1-1.92-1.92,5.11,5.11,0,0,1-.7-2.64v-8.24h3.15v7.49a3.16,3.16,0,0,0,.56,1.94,1.8,1.8,0,0,0,1.55.77h.3a1.84,1.84,0,0,0,1.53-.78,3.08,3.08,0,0,0,.6-1.93v-7.49Z"/><path class="cls-2" d="M99.41,221.81h3.4v13.34h-3.4L95.49,228v7.15H92.08V221.81h3.41L99.41,229Z"/><path class="cls-2" d="M109.54,221.76a7.57,7.57,0,0,1,2,.49,5.58,5.58,0,0,1,1.83,1.15,6.44,6.44,0,0,1,1.63,2.29,6.71,6.71,0,0,1,.58,2.74,6.55,6.55,0,0,1-.74,3.08,6,6,0,0,1-2.06,2.35,7.29,7.29,0,0,1-2.71,1.07,19.89,19.89,0,0,1-3.37.25l-1.55,0h-1.47V221.66h3.42A24.31,24.31,0,0,1,109.54,221.76Zm2.81,6.67a3.48,3.48,0,0,0-.46-1.71,3.62,3.62,0,0,0-1.23-1.29,3.42,3.42,0,0,0-1.71-.51h-1.84v7a14.06,14.06,0,0,0,2.32-.16,3.88,3.88,0,0,0,1.76-.74,3,3,0,0,0,1.06-1.76A4,4,0,0,0,112.35,228.43Z"/><path class="cls-2" d="M127.48,221.81H129v13.34h-3.39v-9.43l-1.85.58V223l1.85-.58Z"/><path class="cls-2" d="M58.42,247.58h2.26v19.49h-5V253.29l-2.7.85v-4.85l2.7-.85Z"/><path class="cls-2" d="M77.18,259.3h2.7v4.16h-2.7v3.61H72.72v-3.61H63v-4.58l9-11.27h.69v0h4.46V259.3Zm-9.23,0h4.77v-5.87Z"/><path class="cls-2" d="M92.54,254.87a6.84,6.84,0,0,1,2.33,2.42,6.53,6.53,0,0,1-.08,6.58,7.12,7.12,0,0,1-12.13,0,6.35,6.35,0,0,1-.93-3.36h4.1a2.92,2.92,0,0,0,5,1.92,2.78,2.78,0,0,0,.85-2.06,2.92,2.92,0,0,0-2.91-2.92h-.12a2.92,2.92,0,0,0-1.43.44,2.54,2.54,0,0,0-.69.58H82l.17-.69,2.2-10.14h10v4.16H87.71l-.61,2.29.36-.11a4.32,4.32,0,0,1,.77-.14,7.43,7.43,0,0,1,1.07,0A7.07,7.07,0,0,1,92.54,254.87Z"/><path class="cls-2" d="M108.31,248.88a9,9,0,0,1,2.92,3.58,11.84,11.84,0,0,1,0,9.88,9,9,0,0,1-2.92,3.6,6.78,6.78,0,0,1-8,0,9.23,9.23,0,0,1-2.94-3.6,11.74,11.74,0,0,1,0-9.88,9.24,9.24,0,0,1,2.94-3.58,6.78,6.78,0,0,1,8,0ZM106,261.43a4.07,4.07,0,0,0,1.21-1.69,6,6,0,0,0,.44-2.34,5.87,5.87,0,0,0-.45-2.33,4.52,4.52,0,0,0-1.21-1.7,2.54,2.54,0,0,0-3.35,0,4.45,4.45,0,0,0-1.23,1.7,5.87,5.87,0,0,0-.45,2.33,6,6,0,0,0,.45,2.34,4.19,4.19,0,0,0,1.23,1.69,2.56,2.56,0,0,0,3.36,0Z"/><path class="cls-2" d="M114.18,255.52h10.88V259H114.18Zm7.19-3.69v10.89h-3.5V251.83Z"/><path class="cls-2" d="M145.38,248.4a6,6,0,0,1,3,5.25,5.91,5.91,0,0,1-.81,3,6,6,0,0,1-2.21,2.21,5.91,5.91,0,0,1-3,.81h-4.63v7.36h-4.66V247.58h9.29A5.83,5.83,0,0,1,145.38,248.4Zm-1.9,3.83a1.88,1.88,0,0,0-1.31-.65H137.6v4.13h4.57a1.83,1.83,0,0,0,1.31-.67,2.1,2.1,0,0,0,.54-1.42A2,2,0,0,0,143.48,252.23Z"/><path class="cls-2" d="M160.58,247.78l6.36,19.29h-4.79l-1.27-3.94h-6l-1.24,3.94h-4.82l6.39-19.29Zm-4.44,11.33h3.47l-1.73-5.46Z"/><path class="cls-2" d="M183.72,267.07h-5l-3.08-7.36h-3.17v7.36h-4.66V247.58h9.29a5.89,5.89,0,0,1,3,.82,6,6,0,0,1,2.21,2.21,6,6,0,0,1,.07,5.95,6.21,6.21,0,0,1-2,2.19Zm-5.48-14.84a1.84,1.84,0,0,0-1.3-.65h-4.57v4.13h4.57a2,2,0,0,0,1.3-.67,2.11,2.11,0,0,0,.52-1.42A2.07,2.07,0,0,0,178.24,252.23Z"/><path class="cls-2" d="M199.92,247.58v5h-5v14.53h-5V252.54h-5v-5h15Z"/><path class="cls-2" d="M206.15,247.58v19.49h-5V247.58Z"/><path class="cls-2" d="M219.67,262.07a5.33,5.33,0,0,0,1.65-1.09l3.37,3.36a10,10,0,0,1-3.17,2.14,9.78,9.78,0,0,1-3.81.76,9.61,9.61,0,0,1-4.93-1.32,9.94,9.94,0,0,1-3.58-3.59,9.9,9.9,0,0,1,0-9.88,9.81,9.81,0,0,1,3.58-3.6,9.89,9.89,0,0,1,8.74-.56,9.83,9.83,0,0,1,3.17,2.13l-3.37,3.36a5.3,5.3,0,0,0-1.65-1.08,5,5,0,0,0-4.49.29,5.13,5.13,0,0,0-1.84,1.86,4.93,4.93,0,0,0-.69,2.55,4.83,4.83,0,0,0,.69,2.53,5.18,5.18,0,0,0,1.84,1.85,5,5,0,0,0,4.49.29Z"/><path class="cls-2" d="M230.8,247.58v19.49h-5V247.58Z"/><path class="cls-2" d="M245.42,248.4a6,6,0,0,1,2.2,2.2,6.13,6.13,0,0,1,0,6.09,6.06,6.06,0,0,1-2.2,2.21,6,6,0,0,1-3,.81h-4.63v7.36h-4.65V247.58h9.28A5.89,5.89,0,0,1,245.42,248.4Zm-1.9,3.83a1.9,1.9,0,0,0-1.31-.65h-4.58v4.13h4.58a1.85,1.85,0,0,0,1.31-.67,2.14,2.14,0,0,0,.53-1.42A2,2,0,0,0,243.52,252.23Z"/><path class="cls-2" d="M260.61,247.78,267,267.07h-4.8l-1.26-3.94h-6l-1.24,3.94h-4.82l6.39-19.29Zm-4.43,11.33h3.47l-1.74-5.46Z"/><path class="cls-2" d="M278.58,247.58h4.95v19.49h-4.95l-5.73-10.45v10.45h-5V247.58h5L278.58,258Z"/><path class="cls-2" d="M300,247.58v5h-5v14.53h-5V252.54h-5v-5h15Z"/><path class="cls-2" d="M310.12,253.76v-.36a1.74,1.74,0,0,0-.67-1.37,2.51,2.51,0,0,0-1.64-.56,2.67,2.67,0,0,0-1.7.56,1.71,1.71,0,0,0-.7,1.37,1.27,1.27,0,0,0,.72,1.19,5.88,5.88,0,0,0,1.87.77c.13,0,.27,0,.43.08l.48.11a9.54,9.54,0,0,1,3.94,1.63l.25.22a6,6,0,0,1,1.31,1.9,5.38,5.38,0,0,1-.06,4.57,6.14,6.14,0,0,1-1.56,2,7.52,7.52,0,0,1-2.31,1.31,8.3,8.3,0,0,1-5.39,0,7.59,7.59,0,0,1-2.3-1.31,6.31,6.31,0,0,1-1.57-2,5.28,5.28,0,0,1-.55-2.37v-.36h4.82v.36a1.73,1.73,0,0,0,.68,1.37,2.45,2.45,0,0,0,1.61.56,2.65,2.65,0,0,0,1.69-.56,1.71,1.71,0,0,0,.71-1.37,1.59,1.59,0,0,0-.75-1.21,3.3,3.3,0,0,0-.77-.41,10.84,10.84,0,0,0-1.07-.33l-.91-.22q-1.51-.39-2.37-.69a4.69,4.69,0,0,1-1.57-.94l-.11-.11a6.09,6.09,0,0,1-1.45-1.93,5.22,5.22,0,0,1-.51-2.26,5.28,5.28,0,0,1,.55-2.37,6.39,6.39,0,0,1,1.57-2,7.39,7.39,0,0,1,2.3-1.31,8.12,8.12,0,0,1,5.39,0,7.32,7.32,0,0,1,2.31,1.31,6.21,6.21,0,0,1,1.56,2,5.41,5.41,0,0,1,.54,2.37v.36Z"/><path class="cls-2" d="M323.15,263.87l-2,5.74H317l2-5.74Zm-2.31-5.48a2.23,2.23,0,0,0,1.61-.66,2.16,2.16,0,0,0,.67-1.6,2.23,2.23,0,0,0-.66-1.63,2.28,2.28,0,0,0-3.22,0,2.15,2.15,0,0,0-.63,1.62,2.43,2.43,0,0,0,.68,1.6A2.08,2.08,0,0,0,320.84,258.39Z"/><path class="cls-2" d="M60.62,320.2a3.75,3.75,0,0,0,1.13-.74l2.3,2.3a6.8,6.8,0,0,1-2.17,1.46,6.72,6.72,0,0,1-6-.39,6.69,6.69,0,0,1-2.45-2.45,6.73,6.73,0,0,1,0-6.76,6.65,6.65,0,0,1,2.45-2.46,6.48,6.48,0,0,1,3.37-.91,6.67,6.67,0,0,1,2.6.52,6.8,6.8,0,0,1,2.17,1.46l-2.3,2.3a3.75,3.75,0,0,0-1.13-.74,3.41,3.41,0,0,0-1.34-.27,3.26,3.26,0,0,0-1.73.47,3.59,3.59,0,0,0-1.27,1.27,3.45,3.45,0,0,0-.47,1.75,3.38,3.38,0,0,0,.47,1.73A3.57,3.57,0,0,0,57.55,320a3.27,3.27,0,0,0,1.73.48A3.42,3.42,0,0,0,60.62,320.2Z"/><path class="cls-2" d="M74.29,311.2a6.72,6.72,0,0,1,2.45,2.46,6.8,6.8,0,0,1,0,6.76,6.77,6.77,0,0,1-2.45,2.45,6.8,6.8,0,0,1-6.76,0,6.74,6.74,0,0,1,0-11.67,6.73,6.73,0,0,1,6.76,0ZM72.65,320a3.46,3.46,0,0,0,1.26-1.26,3.46,3.46,0,0,0,0-3.48A3.51,3.51,0,0,0,72.65,314a3.46,3.46,0,0,0-3.48,0,3.47,3.47,0,0,0-1.27,1.28,3.46,3.46,0,0,0,0,3.48A3.41,3.41,0,0,0,69.17,320a3.46,3.46,0,0,0,3.48,0Z"/><path class="cls-2" d="M86.37,310.29h3.39v13.33H86.37l-3.92-7.14v7.14H79V310.29h3.41l3.92,7.15Z"/><path class="cls-2" d="M100.7,310.29v3.4H97.29v9.93H93.87v-9.93H90.46v-3.4H100.7Z"/><path class="cls-2" d="M111.31,320.74v2.88h-9.07V310.29h8.9v2.89h-5.49v2.33h4.62v2.89h-4.62v2.34Z"/><path class="cls-2" d="M119.74,310.29h3.39v13.33h-3.39l-3.93-7.14v7.14H112.4V310.29h3.41l3.93,7.15Z"/><path class="cls-2" d="M134.06,310.29v3.4h-3.41v9.93h-3.41v-9.93h-3.41v-3.4h10.23Z"/><path class="cls-2" d="M136.17,317.31a1.7,1.7,0,0,1-.47-1.1,1.43,1.43,0,0,1,.44-1.1,1.45,1.45,0,0,1,1.09-.46,1.54,1.54,0,0,1,1.56,1.56,1.47,1.47,0,0,1-.46,1.1,1.53,1.53,0,0,1-1.1.45A1.41,1.41,0,0,1,136.17,317.31Zm0,5.86a1.67,1.67,0,0,1-.47-1.09,1.42,1.42,0,0,1,.44-1.1,1.46,1.46,0,0,1,1.09-.47,1.48,1.48,0,0,1,1.11.46,1.51,1.51,0,0,1,.45,1.11,1.45,1.45,0,0,1-.46,1.09,1.49,1.49,0,0,1-1.1.45A1.38,1.38,0,0,1,136.17,323.17Z"/><path class="cls-2" d="M67.51,354.05v4.41H53.29v-4l2.9-2.21,4.05-3.06,1.49-1.13.13-.11a2.62,2.62,0,0,0,.68-.91,2.78,2.78,0,0,0,.23-1.1,2.42,2.42,0,0,0-.58-1.66,2.61,2.61,0,0,0-.82-.63,2.27,2.27,0,0,0-1-.22,2.2,2.2,0,0,0-1.46.52,2.13,2.13,0,0,0-.75,1.05H53.29a7,7,0,0,1,1.26-3.11,7.2,7.2,0,0,1,2.53-2.22,7.16,7.16,0,0,1,5.93-.33,7.12,7.12,0,0,1,2.19,1.36l.19.17a7.91,7.91,0,0,1,1.16,1.43,6.61,6.61,0,0,1,.77,3.22,7.69,7.69,0,0,1-.58,2.93A7.46,7.46,0,0,1,65,351.08a9,9,0,0,1-.86.71l-2.34,1.74-.69.52Z"/><path class="cls-2" d="M79.82,346.5a6.64,6.64,0,0,1,2.08,2.36,6.29,6.29,0,0,1,.76,3,6.41,6.41,0,0,1-.93,3.37,7.14,7.14,0,0,1-12.13,0,6.41,6.41,0,0,1-.93-3.37,6.28,6.28,0,0,1,1.21-3.77l6-9.1H81l-4.16,6.26A7.07,7.07,0,0,1,79.82,346.5Zm-2.23,7.28a2.5,2.5,0,0,0,.8-1.88,2.44,2.44,0,0,0-.8-1.84,2.64,2.64,0,0,0-1.93-.77,2.69,2.69,0,0,0-1.94.77,2.45,2.45,0,0,0-.81,1.84,2.51,2.51,0,0,0,.81,1.88,2.74,2.74,0,0,0,1.94.77A2.68,2.68,0,0,0,77.59,353.78Z"/><path class="cls-2" d="M98.89,350.69h2.7v4.16h-2.7v3.61H94.43v-3.61h-9.7v-4.57l9-11.28h.69v0h4.46v11.71Zm-9.23,0h4.77v-5.87Z"/><path class="cls-2" d="M122.61,338.92H128l-6.36,19.54h-6.06l-6.34-19.54h5.46l3.93,12.18Z"/><path class="cls-2" d="M135,339v19.48h-5V339Z"/><path class="cls-2" d="M145.86,338.91a11.34,11.34,0,0,1,2.94.7,8.49,8.49,0,0,1,2.68,1.68,9.74,9.74,0,0,1,2.39,3.35,10,10,0,0,1,.84,4,9.4,9.4,0,0,1-1.08,4.49,8.9,8.9,0,0,1-3,3.45,10.64,10.64,0,0,1-4,1.56,28.68,28.68,0,0,1-4.92.37l-2.26,0c-.47,0-1.19,0-2.15,0v-19.7h5C143.69,338.76,144.87,338.81,145.86,338.91Zm4.11,9.74a5,5,0,0,0-.66-2.49,5.2,5.2,0,0,0-1.81-1.89,4.78,4.78,0,0,0-2.49-.75h-2.7V353.7a20.68,20.68,0,0,0,3.4-.24,5.69,5.69,0,0,0,2.56-1.09,4.26,4.26,0,0,0,1.56-2.56A5.62,5.62,0,0,0,150,348.65Z"/><path class="cls-2" d="M169.45,354.25v4.21H156.2V339h13v4.21h-8v3.42h6.75v4.22h-6.75v3.42Z"/><path class="cls-2" d="M186.36,340.3a9.84,9.84,0,0,1,3.59,3.6,9.9,9.9,0,0,1,0,9.88,9.86,9.86,0,0,1-3.59,3.58,9.82,9.82,0,0,1-9.87,0,9.74,9.74,0,0,1-3.6-3.58,9.86,9.86,0,0,1,13.47-13.48ZM184,353.23a5.26,5.26,0,0,0,1.84-1.85,4.87,4.87,0,0,0,.69-2.54,4.92,4.92,0,0,0-.69-2.54,5.16,5.16,0,0,0-1.84-1.87,5,5,0,0,0-5.09,0A5.13,5.13,0,0,0,177,346.3a4.92,4.92,0,0,0-.69,2.54,4.87,4.87,0,0,0,.69,2.54,5.23,5.23,0,0,0,1.86,1.85,5,5,0,0,0,5.09,0Z"/><path class="cls-2" d="M201.32,345.15v-.36a1.7,1.7,0,0,0-.67-1.36,2.46,2.46,0,0,0-1.64-.57,2.58,2.58,0,0,0-1.69.57,1.69,1.69,0,0,0-.71,1.36,1.27,1.27,0,0,0,.72,1.19,6,6,0,0,0,1.87.77c.13,0,.27,0,.43.08l.48.11a9.48,9.48,0,0,1,3.94,1.63l.25.22a5.92,5.92,0,0,1,1.31,1.9,5.4,5.4,0,0,1-.06,4.58,6.18,6.18,0,0,1-1.55,2,7.26,7.26,0,0,1-2.32,1.31,8.14,8.14,0,0,1-2.7.45,8,8,0,0,1-2.68-.45,7.32,7.32,0,0,1-2.31-1.31,6.54,6.54,0,0,1-1.57-2,5.49,5.49,0,0,1-.55-2.37v-.36h4.83v.36a1.7,1.7,0,0,0,.67,1.36,2.42,2.42,0,0,0,1.61.57,2.62,2.62,0,0,0,1.7-.57,1.68,1.68,0,0,0,.7-1.36,1.61,1.61,0,0,0-.74-1.22,3.38,3.38,0,0,0-.78-.41,10.84,10.84,0,0,0-1.07-.33l-.91-.22q-1.51-.39-2.37-.69a4.63,4.63,0,0,1-1.57-.94l-.11-.11a6.24,6.24,0,0,1-1.45-1.93,5.19,5.19,0,0,1-.51-2.26,5.42,5.42,0,0,1,.55-2.37,6.54,6.54,0,0,1,1.57-2,7.32,7.32,0,0,1,2.31-1.31,8,8,0,0,1,2.68-.45,8.14,8.14,0,0,1,2.7.45,7.26,7.26,0,0,1,2.32,1.31,6.18,6.18,0,0,1,1.55,2,5.41,5.41,0,0,1,.54,2.37v.36Z"/><path class="cls-2" d="M209.29,355.07h4.65l-2,6.23h-4.1Z"/><path class="cls-2" d="M231.67,346.27a6.81,6.81,0,0,1,2.33,2.41,6.55,6.55,0,0,1-.08,6.59,7.14,7.14,0,0,1-12.13,0,6.41,6.41,0,0,1-.93-3.37H225a2.91,2.91,0,0,0,2.89,2.76,2.85,2.85,0,0,0,2.07-.84,2.76,2.76,0,0,0,.86-2.05,2.94,2.94,0,0,0-2.93-2.93h-.11a2.84,2.84,0,0,0-1.43.45,2.66,2.66,0,0,0-.69.57h-4.49l.17-.69L223.5,339h10v4.16h-6.7l-.6,2.29.36-.11a5.47,5.47,0,0,1,.77-.14,7.5,7.5,0,0,1,1.07,0A7,7,0,0,1,231.67,346.27Z"/><path class="cls-2" d="M250.14,354.05v4.41H235.93v-4l2.89-2.21,4.05-3.06,1.49-1.13.14-.11a2.72,2.72,0,0,0,.67-.91,2.62,2.62,0,0,0,.23-1.1,2.46,2.46,0,0,0-.57-1.66,2.65,2.65,0,0,0-.83-.63,2.24,2.24,0,0,0-1-.22,2.21,2.21,0,0,0-1.46.52,2.13,2.13,0,0,0-.75,1.05h-4.87a6.89,6.89,0,0,1,1.25-3.11,7.29,7.29,0,0,1,2.53-2.22,7.13,7.13,0,0,1,8.12,1l.19.17a7.91,7.91,0,0,1,1.16,1.43,6.61,6.61,0,0,1,.77,3.22,7.69,7.69,0,0,1-.58,2.93,7.33,7.33,0,0,1-1.79,2.59,10.78,10.78,0,0,1-.85.71l-2.35,1.74-.68.52Z"/><path class="cls-2" d="M265.6,350.69h2.7v4.16h-2.7v3.61h-4.47v-3.61h-9.69v-4.57l9-11.28h.68v0h4.47v11.71Zm-9.23,0h4.76v-5.87Z"/><path class="cls-2" d="M288.11,339.17l6.36,19.29h-4.79l-1.27-3.94h-6l-1.24,3.94h-4.82l6.39-19.29Zm-4.44,11.33h3.47L285.41,345Z"/><path class="cls-2" d="M311.25,358.46h-5l-3.08-7.36H300v7.36h-4.66V339h9.29a6,6,0,0,1,3,.81,5.91,5.91,0,0,1,2.22,2.22A6.08,6.08,0,0,1,310,348a6.33,6.33,0,0,1-2,2.19Zm-5.48-14.84a1.88,1.88,0,0,0-1.3-.65H299.9v4.14h4.57a2,2,0,0,0,1.3-.68,2.06,2.06,0,0,0,.52-1.42A2,2,0,0,0,305.77,343.62Z"/><path class="cls-2" d="M327.45,339v5h-5v14.52h-5V343.94h-5v-5h15Z"/><path class="cls-2" d="M333.68,339v19.48h-5V339Z"/><path class="cls-2" d="M347.2,353.46a5.32,5.32,0,0,0,1.66-1.09l3.36,3.37a10,10,0,0,1-3.17,2.13,9.89,9.89,0,0,1-8.74-.56,9.94,9.94,0,0,1-3.58-3.59,9.58,9.58,0,0,1-1.32-4.93,9.71,9.71,0,0,1,1.32-5,10,10,0,0,1,3.58-3.6,9.89,9.89,0,0,1,8.74-.56,10,10,0,0,1,3.17,2.13l-3.36,3.37a5.5,5.5,0,0,0-1.66-1.09,5,5,0,0,0-4.49.29,5.21,5.21,0,0,0-1.84,1.86,5,5,0,0,0,0,5.09,5.23,5.23,0,0,0,1.84,1.84,5,5,0,0,0,4.49.29Z"/><path class="cls-2" d="M358.33,353.78H366v4.68H353.38V339h4.95Z"/><path class="cls-2" d="M381.15,354.25v4.21H367.89V339h13v4.21h-8v3.42h6.75v4.22h-6.75v3.42Z"/><path class="cls-2" d="M392.72,345.15v-.36a1.71,1.71,0,0,0-.68-1.36,2.46,2.46,0,0,0-1.64-.57,2.6,2.6,0,0,0-1.69.57,1.68,1.68,0,0,0-.7,1.36,1.27,1.27,0,0,0,.71,1.19,6,6,0,0,0,1.88.77c.12,0,.27,0,.42.08l.49.11a9.49,9.49,0,0,1,3.93,1.63l.25.22a5.92,5.92,0,0,1,1.31,1.9,5.51,5.51,0,0,1,.48,2.21,5.61,5.61,0,0,1-.53,2.37,6.21,6.21,0,0,1-1.56,2,7.32,7.32,0,0,1-2.31,1.31,8.24,8.24,0,0,1-2.71.45,8,8,0,0,1-2.68-.45,7.39,7.39,0,0,1-2.3-1.31,6.39,6.39,0,0,1-1.57-2,5.35,5.35,0,0,1-.55-2.37v-.36h4.82v.36a1.7,1.7,0,0,0,.67,1.36,2.42,2.42,0,0,0,1.61.57,2.61,2.61,0,0,0,1.7-.57,1.68,1.68,0,0,0,.7-1.36,1.61,1.61,0,0,0-.74-1.22,3.3,3.3,0,0,0-.77-.41q-.45-.16-1.08-.33l-.91-.22q-1.51-.39-2.37-.69a4.63,4.63,0,0,1-1.57-.94l-.11-.11a6.21,6.21,0,0,1-1.44-1.93,5.19,5.19,0,0,1-.51-2.26,5.28,5.28,0,0,1,.55-2.37,6.39,6.39,0,0,1,1.57-2,7.39,7.39,0,0,1,2.3-1.31,8,8,0,0,1,2.68-.45,8.24,8.24,0,0,1,2.71.45,7.32,7.32,0,0,1,2.31,1.31,6.21,6.21,0,0,1,1.56,2,5.54,5.54,0,0,1,.53,2.37v.36Z"/><path class="cls-2" d="M405.75,355.27l-2,5.73h-4.13l2-5.73Zm-2.31-5.49a2.23,2.23,0,0,0,1.61-.66,2.14,2.14,0,0,0,.67-1.6,2.24,2.24,0,0,0-.66-1.63,2.2,2.2,0,0,0-1.62-.66,2.25,2.25,0,0,0-2.24,2.29,2.47,2.47,0,0,0,.69,1.6A2.06,2.06,0,0,0,403.44,349.78Z"/><path class="cls-2" d="M63,419.57a3.72,3.72,0,0,1,.43,1.78,3.78,3.78,0,0,1-.51,1.92,3.88,3.88,0,0,1-3.32,1.93H52.93V411.84h6a3.67,3.67,0,0,1,1.94.53,3.91,3.91,0,0,1,1.37,1.4,3.75,3.75,0,0,1,.23,3.27,3.66,3.66,0,0,1-.73,1.18A3.78,3.78,0,0,1,63,419.57ZM59.46,415a1.31,1.31,0,0,0-1-.4H56v2.83h2.45a2.93,2.93,0,0,0,.45-.08,1.09,1.09,0,0,0,.34-.19,1.32,1.32,0,0,0,.44-.5,1.53,1.53,0,0,0,.15-.67A1.38,1.38,0,0,0,59.46,415Zm.57,7a1.29,1.29,0,0,0,.38-1,1.34,1.34,0,0,0-.32-.9,1.41,1.41,0,0,0-.81-.48c-.07,0-1,0-2.67,0H56v2.83h3A1.36,1.36,0,0,0,60,422Z"/><path class="cls-2" d="M67.93,411.86V425.2H64.54V411.86Z"/><path class="cls-2" d="M78.94,411.86v3.4H75.53v9.94H72.12v-9.94H68.71v-3.4H78.94Z"/><path class="cls-2" d="M88.18,421.77a3.75,3.75,0,0,0,1.13-.74l2.3,2.3a6.64,6.64,0,0,1-2.17,1.46,6.72,6.72,0,0,1-6-.39A6.69,6.69,0,0,1,81,422a6.48,6.48,0,0,1-.91-3.37,6.58,6.58,0,0,1,.91-3.39,6.65,6.65,0,0,1,2.45-2.46,6.58,6.58,0,0,1,3.37-.91,6.67,6.67,0,0,1,2.6.52,6.83,6.83,0,0,1,2.17,1.47l-2.3,2.3a3.6,3.6,0,0,0-1.13-.75,3.41,3.41,0,0,0-1.34-.27,3.26,3.26,0,0,0-1.73.47,3.49,3.49,0,0,0-1.26,1.27,3.36,3.36,0,0,0-.48,1.75,3.27,3.27,0,0,0,.48,1.73,3.46,3.46,0,0,0,1.26,1.26,3.35,3.35,0,0,0,3.07.2Z"/><path class="cls-2" d="M101.85,412.77a6.74,6.74,0,0,1,3.35,5.84,6.58,6.58,0,0,1-.9,3.38,6.77,6.77,0,0,1-2.45,2.45,6.73,6.73,0,0,1-6.76,0,6.74,6.74,0,0,1,0-11.67,6.73,6.73,0,0,1,6.76,0Zm-1.64,8.84a3.54,3.54,0,0,0,1.26-1.26,3.46,3.46,0,0,0,0-3.48,3.57,3.57,0,0,0-1.26-1.27,3.39,3.39,0,0,0-3.48,0,3.44,3.44,0,0,0-1.27,1.27,3.39,3.39,0,0,0,0,3.48,3.41,3.41,0,0,0,1.27,1.26,3.46,3.46,0,0,0,3.48,0Z"/><path class="cls-2" d="M110,411.86V425.2H106.6V411.86Z"/><path class="cls-2" d="M118.28,411.86h3.4V425.2h-3.4l-3.92-7.15v7.15H111V411.86h3.41l3.92,7.15Z"/><path class="cls-2" d="M132.61,411.86v3.4H129.2v9.94h-3.41v-9.94h-3.42v-3.4h10.24Z"/><path class="cls-2" d="M141.09,412l4.36,13.2h-3.28l-.87-2.7h-4.13l-.85,2.7H133L137.4,412Zm-3,7.75h2.37L139.25,416Z"/><path class="cls-2" d="M149.16,422h5.24v3.21h-8.63V411.86h3.39Z"/><path class="cls-2" d="M162.37,418.46l4,6.74h-3.77l-3.28-5.38v5.38h-3.39V411.86h3.39v5.21l3.28-5.21h3.77Z"/><path class="cls-2" d="M186.1,412.42a4.13,4.13,0,0,1,1.51,1.51,4.23,4.23,0,0,1,0,4.17,4.18,4.18,0,0,1-1.51,1.5,4,4,0,0,1-2.09.56h-3.16v5h-3.19V411.86H184A4.09,4.09,0,0,1,186.1,412.42ZM184.8,415a1.3,1.3,0,0,0-.9-.44h-3.13v2.83h3.13a1.29,1.29,0,0,0,.9-.47,1.44,1.44,0,0,0,.36-1A1.39,1.39,0,0,0,184.8,415Z"/><path class="cls-2" d="M200.15,425.2h-3.41l-2.11-5h-2.17v5h-3.19V411.86h6.36a4.14,4.14,0,0,1,4.14,4.15,3.91,3.91,0,0,1-.51,2,4.19,4.19,0,0,1-1.37,1.5ZM196.4,415a1.26,1.26,0,0,0-.89-.44h-3.13v2.83h3.13a1.37,1.37,0,0,0,.89-.47,1.46,1.46,0,0,0,0-1.92Z"/><path class="cls-2" d="M210.63,412.77a6.65,6.65,0,0,1,2.45,2.46,6.57,6.57,0,0,1,.91,3.38,6.49,6.49,0,0,1-.91,3.38,6.69,6.69,0,0,1-2.45,2.45,6.48,6.48,0,0,1-3.37.91,6.58,6.58,0,0,1-3.39-.91,6.8,6.8,0,0,1-2.46-2.45,6.58,6.58,0,0,1-.9-3.38,6.66,6.66,0,0,1,.9-3.38,6.75,6.75,0,0,1,2.46-2.46,6.58,6.58,0,0,1,3.39-.91A6.48,6.48,0,0,1,210.63,412.77ZM209,421.61a3.46,3.46,0,0,0,1.26-1.26,3.39,3.39,0,0,0,0-3.48A3.49,3.49,0,0,0,209,415.6a3.29,3.29,0,0,0-1.73-.48,3.36,3.36,0,0,0-1.75.48,3.59,3.59,0,0,0-1.27,1.27,3.46,3.46,0,0,0,0,3.48,3.57,3.57,0,0,0,1.27,1.26,3.36,3.36,0,0,0,1.75.47A3.29,3.29,0,0,0,209,421.61Z"/><path class="cls-2" d="M225.66,411.86h3.39V425.2h-3.39v-7.53l-1.66,3-.08.15h-3.39l-.1-.15-.22-.43-1.42-2.59v7.53h-3.41V411.86h3.41l3.43,5.68Z"/><path class="cls-2" d="M239.64,412.77a6.65,6.65,0,0,1,2.45,2.46,6.57,6.57,0,0,1,.91,3.38,6.49,6.49,0,0,1-.91,3.38,6.69,6.69,0,0,1-2.45,2.45,6.71,6.71,0,0,1-6.75,0,6.75,6.75,0,0,1-2.47-2.45,6.58,6.58,0,0,1-.9-3.38,6.7,6.7,0,0,1,3.37-5.84,6.71,6.71,0,0,1,6.75,0ZM238,421.61a3.46,3.46,0,0,0,1.26-1.26,3.39,3.39,0,0,0,0-3.48A3.49,3.49,0,0,0,238,415.6a3.27,3.27,0,0,0-1.73-.48,3.36,3.36,0,0,0-1.75.48,3.59,3.59,0,0,0-1.27,1.27,3.46,3.46,0,0,0,0,3.48,3.57,3.57,0,0,0,1.27,1.26,3.36,3.36,0,0,0,1.75.47A3.26,3.26,0,0,0,238,421.61Z"/><path class="cls-2" d="M254.44,411.86v3.4H251v9.94h-3.41v-9.94H244.2v-3.4h10.24Z"/><path class="cls-2" d="M259.38,411.86V425.2H256V411.86Z"/><path class="cls-2" d="M270.09,412.77a6.74,6.74,0,0,1,3.35,5.84,6.58,6.58,0,0,1-.9,3.38,6.77,6.77,0,0,1-2.45,2.45,6.73,6.73,0,0,1-6.76,0,6.65,6.65,0,0,1-2.46-2.45,6.49,6.49,0,0,1-.91-3.38,6.75,6.75,0,0,1,10.13-5.84Zm-1.64,8.84a3.62,3.62,0,0,0,1.26-1.26,3.46,3.46,0,0,0,0-3.48,3.65,3.65,0,0,0-1.26-1.27,3.39,3.39,0,0,0-3.48,0,3.44,3.44,0,0,0-1.27,1.27,3.39,3.39,0,0,0,0,3.48,3.41,3.41,0,0,0,1.27,1.26,3.46,3.46,0,0,0,3.48,0Z"/><path class="cls-2" d="M282.17,411.86h3.39V425.2h-3.39l-3.92-7.15v7.15h-3.41V411.86h3.41l3.92,7.15Z"/><path class="cls-2" d="M287,418.88a1.69,1.69,0,0,1-.47-1.09,1.49,1.49,0,0,1,.44-1.11,1.45,1.45,0,0,1,1.09-.46,1.54,1.54,0,0,1,1.56,1.57,1.47,1.47,0,0,1-.46,1.09,1.52,1.52,0,0,1-1.1.45A1.41,1.41,0,0,1,287,418.88Zm0,5.87a1.72,1.72,0,0,1-.47-1.1,1.55,1.55,0,0,1,1.53-1.57,1.55,1.55,0,0,1,1.56,1.57,1.49,1.49,0,0,1-.46,1.1,1.52,1.52,0,0,1-1.1.45A1.41,1.41,0,0,1,287,424.75Z"/><path class="cls-2" d="M66.74,444.52,63.54,448a6.86,6.86,0,0,1,2.33,2.4A6.45,6.45,0,0,1,65.8,457a6.79,6.79,0,0,1-2.54,2.45,7.24,7.24,0,0,1-7,0A6.82,6.82,0,0,1,53.68,457a6.41,6.41,0,0,1-.94-3.36h4.49a2.29,2.29,0,0,0,.73,1.69,2.47,2.47,0,0,0,1.78.7,2.43,2.43,0,0,0,1.75-.7,2.25,2.25,0,0,0,.73-1.69v-.06a2.66,2.66,0,0,0-.26-1.11,4.34,4.34,0,0,0-1.2-1.51A7.61,7.61,0,0,0,59,449.73v-2.35l.44-.49L61,445.21l.64-.69H53.41v-3.81H66.74Z"/><path class="cls-2" d="M83,452.26h2.7v4.17H83V460H78.5v-3.61H68.81v-4.58l9-11.27h.68v0H83v11.71Zm-9.23,0H78.5v-5.87Z"/><path class="cls-2" d="M101.51,444.52,98.31,448a6.86,6.86,0,0,1,2.33,2.4,6.45,6.45,0,0,1-.07,6.59A6.75,6.75,0,0,1,98,459.4a7.22,7.22,0,0,1-7,0A6.75,6.75,0,0,1,88.45,457a6.41,6.41,0,0,1-.94-3.36H92a2.29,2.29,0,0,0,.73,1.69,2.47,2.47,0,0,0,1.78.7,2.43,2.43,0,0,0,1.75-.7,2.25,2.25,0,0,0,.73-1.69v-.06a2.66,2.66,0,0,0-.26-1.11,4.34,4.34,0,0,0-1.2-1.51,7.83,7.83,0,0,0-1.79-1.18v-2.35l.44-.49,1.54-1.68.64-.69H88.17v-3.81h13.34Z"/><path class="cls-2" d="M122.13,441.36a6,6,0,0,1,2.2,2.21,6.06,6.06,0,0,1,0,6.09,6,6,0,0,1-2.2,2.2,5.85,5.85,0,0,1-3,.82h-4.63V460H109.8V440.55h9.29A5.94,5.94,0,0,1,122.13,441.36Zm-1.9,3.83a1.87,1.87,0,0,0-1.31-.64h-4.57v4.13h4.57a1.84,1.84,0,0,0,1.31-.68,2.08,2.08,0,0,0,.54-1.42A2,2,0,0,0,120.23,445.19Z"/><path class="cls-2" d="M137.32,440.74l6.37,19.3h-4.8l-1.26-3.94h-6L130.35,460h-4.82l6.39-19.3Zm-4.43,11.33h3.47l-1.74-5.46Z"/><path class="cls-2" d="M160.47,460h-5l-3.09-7.36h-3.16V460h-4.66V440.55h9.28a6.06,6.06,0,0,1,5.25,3,6,6,0,0,1,.82,3,5.84,5.84,0,0,1-.75,2.91,6.3,6.3,0,0,1-2,2.19ZM155,445.19a1.83,1.83,0,0,0-1.29-.64h-4.58v4.13h4.58A2,2,0,0,0,155,448a2.13,2.13,0,0,0,0-2.81Z"/><path class="cls-2" d="M176.67,440.55v5h-5V460h-5V445.51h-5v-5h15Z"/><path class="cls-2" d="M182.89,440.55V460h-5V440.55Z"/><path class="cls-2" d="M196.42,455a5,5,0,0,0,1.65-1.09l3.36,3.37a9.86,9.86,0,0,1-11.9,1.57A9.91,9.91,0,0,1,186,455.3a9.92,9.92,0,0,1,0-9.89,9.86,9.86,0,0,1,3.58-3.59,9.52,9.52,0,0,1,4.93-1.33,9.64,9.64,0,0,1,3.81.76,9.87,9.87,0,0,1,3.16,2.14l-3.36,3.36a5.33,5.33,0,0,0-1.65-1.09,5.05,5.05,0,0,0-2-.4,4.83,4.83,0,0,0-2.53.69,5.23,5.23,0,0,0-1.85,1.86,4.93,4.93,0,0,0-.69,2.55,4.87,4.87,0,0,0,.69,2.54,5.18,5.18,0,0,0,1.85,1.84,5,5,0,0,0,4.49.29Z"/><path class="cls-2" d="M207.55,440.55V460h-5V440.55Z"/><path class="cls-2" d="M222.17,441.36a6.06,6.06,0,0,1,2.2,2.21,6.13,6.13,0,0,1,0,6.09,6,6,0,0,1-2.2,2.2,5.89,5.89,0,0,1-3,.82h-4.63V460h-4.65V440.55h9.28A6,6,0,0,1,222.17,441.36Zm-1.91,3.83a1.85,1.85,0,0,0-1.3-.64h-4.58v4.13H219a1.82,1.82,0,0,0,1.3-.68,2.08,2.08,0,0,0,.54-1.42A2,2,0,0,0,220.26,445.19Z"/><path class="cls-2" d="M237.36,440.74l6.36,19.3h-4.79l-1.27-3.94h-6L230.39,460h-4.82l6.39-19.3Zm-4.44,11.33h3.48l-1.74-5.46Z"/><path class="cls-2" d="M255.32,440.55h5V460h-5l-5.73-10.45V460h-5V440.55h5L255.32,451Z"/><path class="cls-2" d="M276.7,440.55v5h-5V460h-5V445.51h-5v-5h15Z"/><path class="cls-2" d="M286.87,446.72v-.36a1.73,1.73,0,0,0-.68-1.36,2.44,2.44,0,0,0-1.64-.57,2.6,2.6,0,0,0-1.69.57,1.69,1.69,0,0,0-.7,1.36,1.27,1.27,0,0,0,.71,1.19,6.05,6.05,0,0,0,1.88.77l.42.08.49.11a9.54,9.54,0,0,1,3.94,1.63l.24.22a5.76,5.76,0,0,1,1.31,1.9,5.54,5.54,0,0,1,.48,2.21,5.4,5.4,0,0,1-.53,2.37,6.21,6.21,0,0,1-1.56,2,7.32,7.32,0,0,1-2.31,1.31,8.23,8.23,0,0,1-2.7.46,8,8,0,0,1-2.69-.46,7.39,7.39,0,0,1-2.3-1.31,6.39,6.39,0,0,1-1.57-2,5.28,5.28,0,0,1-.55-2.37v-.36h4.82v.36a1.71,1.71,0,0,0,.68,1.36,2.4,2.4,0,0,0,1.61.57,2.6,2.6,0,0,0,1.69-.57,1.68,1.68,0,0,0,.7-1.36,1.56,1.56,0,0,0-.74-1.21,3,3,0,0,0-.77-.42,10.32,10.32,0,0,0-1.08-.33l-.9-.22q-1.53-.39-2.37-.69a4.66,4.66,0,0,1-1.57-.93l-.12-.12a6.21,6.21,0,0,1-1.44-1.93,5.19,5.19,0,0,1-.51-2.26A5.35,5.35,0,0,1,278,444a6.39,6.39,0,0,1,1.57-2,7.39,7.39,0,0,1,2.3-1.31,8,8,0,0,1,2.69-.45,8.22,8.22,0,0,1,2.7.45,7.32,7.32,0,0,1,2.31,1.31,6.21,6.21,0,0,1,1.56,2,5.46,5.46,0,0,1,.53,2.37v.36Z"/><path class="cls-2" d="M294.83,456.65h4.66l-2,6.23h-4.11Z"/><path class="cls-2" d="M320.4,444.52,317.2,448a7,7,0,0,1,2.33,2.4,6.29,6.29,0,0,1,.87,3.23,6.41,6.41,0,0,1-.94,3.36,6.75,6.75,0,0,1-2.55,2.45,7.22,7.22,0,0,1-7,0,6.75,6.75,0,0,1-2.55-2.45,6.32,6.32,0,0,1-.94-3.36h4.49a2.25,2.25,0,0,0,.73,1.69,2.47,2.47,0,0,0,1.78.7,2.43,2.43,0,0,0,1.75-.7,2.29,2.29,0,0,0,.73-1.69v-.06a2.66,2.66,0,0,0-.26-1.11,4.59,4.59,0,0,0-1.2-1.51,7.83,7.83,0,0,0-1.79-1.18v-2.35l.44-.49,1.54-1.68.63-.69h-8.18v-3.81H320.4Z"/><path class="cls-2" d="M328,440.55h2.26V460h-5V446.25l-2.7.86v-4.85l2.7-.86Z"/><path class="cls-2" d="M346.21,440.74l-5,19.49H336L340,445.15h-7.5v-4.41h13.75Z"/><path class="cls-2" d="M358.14,448.07a6.73,6.73,0,0,1,2.08,2.36,6.49,6.49,0,0,1-.18,6.41,6.75,6.75,0,0,1-2.55,2.45,7.22,7.22,0,0,1-7,0,6.75,6.75,0,0,1-2.55-2.45,6.41,6.41,0,0,1-.94-3.36,6.3,6.3,0,0,1,1.22-3.78l6-9.1h5.12l-4.16,6.26A7.19,7.19,0,0,1,358.14,448.07Zm-2.23,7.28a2.51,2.51,0,0,0,.8-1.87,2.48,2.48,0,0,0-.8-1.85,2.7,2.7,0,0,0-1.93-.77,2.74,2.74,0,0,0-1.94.77,2.46,2.46,0,0,0-.81,1.85,2.48,2.48,0,0,0,.81,1.87,2.69,2.69,0,0,0,1.94.77A2.66,2.66,0,0,0,355.91,455.35Z"/><path class="cls-2" d="M381.6,441.36a6,6,0,0,1,2.2,2.21,6.06,6.06,0,0,1,0,6.09,6,6,0,0,1-2.2,2.2,5.85,5.85,0,0,1-3,.82h-4.63V460h-4.66V440.55h9.29A5.94,5.94,0,0,1,381.6,441.36Zm-1.9,3.83a1.87,1.87,0,0,0-1.31-.64h-4.57v4.13h4.57a1.84,1.84,0,0,0,1.31-.68,2.08,2.08,0,0,0,.54-1.42A2,2,0,0,0,379.7,445.19Z"/><path class="cls-2" d="M400.9,441.87a9.81,9.81,0,0,1,3.58,3.6,9.9,9.9,0,0,1,0,9.88,9.83,9.83,0,0,1-3.58,3.58,9.52,9.52,0,0,1-4.93,1.33,9.62,9.62,0,0,1-5-1.33,9.78,9.78,0,0,1-3.59-3.58,9.9,9.9,0,0,1,0-9.88,9.81,9.81,0,0,1,8.54-4.92A9.61,9.61,0,0,1,400.9,441.87Zm-2.4,12.93a5.21,5.21,0,0,0,1.85-1.85,4.83,4.83,0,0,0,.69-2.53,4.93,4.93,0,0,0-.69-2.55A5.08,5.08,0,0,0,398.5,446a4.83,4.83,0,0,0-2.53-.69,4.93,4.93,0,0,0-2.55.69,5.1,5.1,0,0,0-1.86,1.86,4.93,4.93,0,0,0-.69,2.55,4.83,4.83,0,0,0,.69,2.53,5.23,5.23,0,0,0,1.86,1.85,4.93,4.93,0,0,0,2.55.69A4.83,4.83,0,0,0,398.5,454.8Z"/><path class="cls-2" d="M415.86,446.72v-.36a1.73,1.73,0,0,0-.68-1.36,2.42,2.42,0,0,0-1.63-.57,2.61,2.61,0,0,0-1.7.57,1.69,1.69,0,0,0-.7,1.36,1.27,1.27,0,0,0,.71,1.19,6.05,6.05,0,0,0,1.88.77l.43.08.48.11a9.54,9.54,0,0,1,3.94,1.63l.25.22a5.89,5.89,0,0,1,1.3,1.9,5.35,5.35,0,0,1-.05,4.58,6.21,6.21,0,0,1-1.56,2,7.32,7.32,0,0,1-2.31,1.31,8.23,8.23,0,0,1-2.7.46,8,8,0,0,1-2.69-.46,7.39,7.39,0,0,1-2.3-1.31,6.39,6.39,0,0,1-1.57-2,5.28,5.28,0,0,1-.55-2.37v-.36h4.82v.36a1.71,1.71,0,0,0,.68,1.36,2.4,2.4,0,0,0,1.61.57,2.6,2.6,0,0,0,1.69-.57,1.69,1.69,0,0,0,.71-1.36,1.58,1.58,0,0,0-.75-1.21,3,3,0,0,0-.77-.42,10.84,10.84,0,0,0-1.07-.33l-.91-.22q-1.51-.39-2.37-.69a4.66,4.66,0,0,1-1.57-.93l-.11-.12a6.09,6.09,0,0,1-1.45-1.93,5.19,5.19,0,0,1-.51-2.26A5.35,5.35,0,0,1,407,444a6.39,6.39,0,0,1,1.57-2,7.39,7.39,0,0,1,2.3-1.31,8,8,0,0,1,2.69-.45,8.22,8.22,0,0,1,2.7.45,7.32,7.32,0,0,1,2.31,1.31,6.21,6.21,0,0,1,1.56,2,5.47,5.47,0,0,1,.54,2.37v.36Z"/><path class="cls-2" d="M437.57,440.55v5h-5V460h-5V445.51h-5v-5h15Z"/><path class="cls-2" d="M447.73,446.72v-.36a1.72,1.72,0,0,0-.67-1.36,2.46,2.46,0,0,0-1.64-.57,2.6,2.6,0,0,0-1.69.57,1.7,1.7,0,0,0-.71,1.36,1.26,1.26,0,0,0,.72,1.19,6,6,0,0,0,1.87.77l.43.08.48.11a9.48,9.48,0,0,1,3.94,1.63l.25.22a5.92,5.92,0,0,1,1.31,1.9,5.45,5.45,0,0,1,0,4.58,6.21,6.21,0,0,1-1.56,2,7.26,7.26,0,0,1-2.32,1.31,8.15,8.15,0,0,1-2.7.46,8,8,0,0,1-2.68-.46,7.28,7.28,0,0,1-2.3-1.31,6.25,6.25,0,0,1-1.57-2,5.28,5.28,0,0,1-.55-2.37v-.36h4.82v.36a1.7,1.7,0,0,0,.67,1.36,2.42,2.42,0,0,0,1.61.57,2.61,2.61,0,0,0,1.7-.57,1.68,1.68,0,0,0,.7-1.36,1.59,1.59,0,0,0-.74-1.21,3,3,0,0,0-.77-.42q-.45-.16-1.08-.33l-.91-.22q-1.52-.39-2.37-.69a4.76,4.76,0,0,1-1.57-.93l-.11-.12a6.06,6.06,0,0,1-1.44-1.93,5.19,5.19,0,0,1-.51-2.26,5.35,5.35,0,0,1,.55-2.37,6.25,6.25,0,0,1,1.57-2,7.28,7.28,0,0,1,2.3-1.31,8,8,0,0,1,2.68-.45,8.14,8.14,0,0,1,2.7.45,7.26,7.26,0,0,1,2.32,1.31,6.21,6.21,0,0,1,1.56,2,5.61,5.61,0,0,1,.53,2.37v.36Z"/><path class="cls-2" d="M460.77,456.84l-2,5.73H454.6l2-5.73Zm-2.32-5.49a2.23,2.23,0,0,0,1.62-.66,2.28,2.28,0,0,0,0-3.22,2.21,2.21,0,0,0-1.63-.66,2.14,2.14,0,0,0-1.59.67,2.1,2.1,0,0,0-.64,1.61,2.47,2.47,0,0,0,.69,1.6A2.06,2.06,0,0,0,458.45,451.35Z"/><path class="cls-3" d="M74.13,58v84.79H52.55V58Z"/><path class="cls-3" d="M164.5,117.09a44.42,44.42,0,0,1-9,13.74l7.55,12-16.54,10.31-7.31-11.87a43.39,43.39,0,0,1-14.26,2.4,41.69,41.69,0,0,1-21.46-5.76,42.89,42.89,0,0,1-15.58-15.59,43.05,43.05,0,0,1,0-43,42.68,42.68,0,0,1,15.58-15.65,42.84,42.84,0,0,1,42.91,0A42.6,42.6,0,0,1,162,79.32a42.78,42.78,0,0,1,2.52,37.77Zm-58.67-5.21a22.16,22.16,0,0,0,8,8,22,22,0,0,0,22.18,0,22.24,22.24,0,0,0,8-8,21.61,21.61,0,0,0,2.93-11,22.13,22.13,0,0,0-11-19.19,22.06,22.06,0,0,0-22.18,0,22.17,22.17,0,0,0-11,19.19A21.52,21.52,0,0,0,105.83,111.88Z"/><path class="cls-3" d="M176.25,139.34a11.74,11.74,0,0,1-3.24-8.28,10.53,10.53,0,0,1,3.3-7.79,10.79,10.79,0,0,1,7.85-3.24,11.4,11.4,0,0,1,0,22.79A10.39,10.39,0,0,1,176.25,139.34Z"/><path class="cls-3" d="M252.48,121.05a23.66,23.66,0,0,0,7.19-4.74l14.62,14.63a43,43,0,0,1-13.78,9.3,43,43,0,0,1-38-2.46,42.89,42.89,0,0,1-15.58-15.59,43.05,43.05,0,0,1,0-43,42.68,42.68,0,0,1,15.58-15.65,43,43,0,0,1,38-2.46,43,43,0,0,1,13.78,9.29L259.67,85a23.82,23.82,0,0,0-7.19-4.73A21.49,21.49,0,0,0,244,78.54a21.15,21.15,0,0,0-11,3,22.56,22.56,0,0,0-8,8.09,21.49,21.49,0,0,0-3,11.09,21.18,21.18,0,0,0,3,11,22.87,22.87,0,0,0,8,8,21.15,21.15,0,0,0,11,3A21.49,21.49,0,0,0,252.48,121.05Z"/><path class="cls-3" d="M326,58.87l27.69,83.95H332.78l-5.51-17.15H301l-5.39,17.15h-21l27.81-83.95Zm-19.3,49.29h15.11l-7.55-23.75Z"/><path class="cls-3" d="M395.71,84.89V83.33a7.49,7.49,0,0,0-2.94-5.93,10.73,10.73,0,0,0-7.13-2.46,11.4,11.4,0,0,0-7.37,2.46,7.39,7.39,0,0,0-3.06,5.93,5.5,5.5,0,0,0,3.12,5.16,26,26,0,0,0,8.15,3.36q.84.12,1.86.36l2.1.48q12.82,3.12,17.14,7.07l1.07,1a25.71,25.71,0,0,1,5.7,8.28,23.45,23.45,0,0,1-.24,19.91,26.77,26.77,0,0,1-6.77,8.75,32.17,32.17,0,0,1-10.07,5.7,35.19,35.19,0,0,1-11.75,2,34.61,34.61,0,0,1-11.68-2,32.1,32.1,0,0,1-10-5.7,27.24,27.24,0,0,1-6.83-8.75,23.25,23.25,0,0,1-2.4-10.32V117h21v1.56a7.49,7.49,0,0,0,2.94,5.94,10.58,10.58,0,0,0,7,2.46,11.36,11.36,0,0,0,7.37-2.46,7.39,7.39,0,0,0,3.06-5.94q0-2.76-3.24-5.27a13.34,13.34,0,0,0-3.35-1.8,48.23,48.23,0,0,0-4.68-1.44l-3.95-1q-6.6-1.68-10.31-3a20.69,20.69,0,0,1-6.83-4.08l-.48-.48a26.62,26.62,0,0,1-6.29-8.39,22.68,22.68,0,0,1-2.22-9.84A23.24,23.24,0,0,1,357,73a27.24,27.24,0,0,1,6.83-8.75,32.1,32.1,0,0,1,10-5.7,34.61,34.61,0,0,1,11.68-2,35.19,35.19,0,0,1,11.75,2,32.17,32.17,0,0,1,10.07,5.7A26.77,26.77,0,0,1,414.11,73a23.73,23.73,0,0,1,2.34,10.31v1.56Z"/><path class="cls-3" d="M469.43,58H491v84.79H469.43V111.16H445.21v31.66H423.64V58h21.57V89.57h24.22Z"/><path d="M368,177.45V212.8h-9V186.45h-10.1V212.8h-9V177.45Z"/><path d="M394.35,178.92a11,11,0,0,1,4,4,11,11,0,0,1-4,15.05,10.67,10.67,0,0,1-5.52,1.48h-8.4V212.8H372V177.45h16.85A10.76,10.76,0,0,1,394.35,178.92Zm-3.45,7a3.43,3.43,0,0,0-2.37-1.17h-8.3v7.5h8.3A3.38,3.38,0,0,0,390.9,191a3.82,3.82,0,0,0,1-2.57A3.65,3.65,0,0,0,390.9,185.87Z"/><path d="M428.68,179.85a17.83,17.83,0,0,1,6.5,6.52,17.94,17.94,0,0,1,0,17.93,17.93,17.93,0,0,1-6.5,6.5,17.94,17.94,0,0,1-17.93,0,17.83,17.83,0,0,1-6.52-6.5,17.94,17.94,0,0,1,0-17.93,17.73,17.73,0,0,1,6.52-6.52,17.94,17.94,0,0,1,17.93,0Zm-4.35,23.45a9.6,9.6,0,0,0,3.35-3.35,8.88,8.88,0,0,0,1.25-4.6,9,9,0,0,0-1.25-4.63,9.49,9.49,0,0,0-3.35-3.37,8.78,8.78,0,0,0-4.6-1.25,8.91,8.91,0,0,0-4.63,1.25,9.31,9.31,0,0,0-3.37,3.37,8.91,8.91,0,0,0-1.25,4.63,8.78,8.78,0,0,0,1.25,4.6,9.41,9.41,0,0,0,3.37,3.35,9,9,0,0,0,4.63,1.25A8.88,8.88,0,0,0,424.33,203.3Z"/><path d="M449,190.8h8.39a10.8,10.8,0,0,1,5.53,1.47,11,11,0,0,1,4,4,11,11,0,0,1-4,15,10.71,10.71,0,0,1-5.53,1.48H440.58V177.45h24.59v7.65H449Zm0,14.75h8.09a3.44,3.44,0,0,0,2.38-1.18,3.63,3.63,0,0,0,1-2.52,3.83,3.83,0,0,0-1-2.58,3.33,3.33,0,0,0-2.38-1.22H449Z"/><path d="M489.83,177.8l11.54,35h-8.7l-2.3-7.15H479.42l-2.25,7.15h-8.75l11.6-35Zm-8.06,20.55h6.31l-3.16-9.9Z"/></svg>