<svg xmlns="http://www.w3.org/2000/svg" width="960" height="480" viewBox="0 0 960 480">
  <g id="Сгруппировать_116" data-name="Сгруппировать 116" transform="translate(-0.025)">
    <g id="Сгруппировать_138" data-name="Сгруппировать 138">
      <rect id="Прямоугольник_103" data-name="Прямоугольник 103" width="483" height="480" transform="translate(477.025)" fill="#e7335d"/>
      <rect id="Прямоугольник_105" data-name="Прямоугольник 105" width="480" height="480" transform="translate(0.025)"/>
      <text id="Utopia_" data-name="Utopia 
&lt;º)))&gt;&lt;  &lt;º)))&gt;&lt;  &lt;º)))&gt;&lt;  &lt;º)))&gt;&lt;  &lt;º)))&gt;&lt;  &lt;º)))&gt;&lt;  &lt;º)))&gt;&lt;  &lt;º)))&gt;&lt;  &lt;º)))&gt;&lt;  &lt;º)))&gt;&lt;  &lt;º)))&gt;&lt;  &lt;º)))&gt;&lt; " transform="translate(519.014 109.632)" fill="#fff" font-size="41" font-family="WombyRUSbyDaymarius, 'Womby \[RUS by Daymarius\]'"><tspan x="0" y="41">UTOPIA </tspan><tspan x="0" y="93">&lt;</tspan><tspan y="93" font-family="Womby, Segoe UI">º</tspan><tspan y="93" xml:space="preserve">)))&gt;&lt;  &lt;</tspan><tspan y="93" font-family="Womby, Segoe UI">º</tspan><tspan y="93" xml:space="preserve">)))&gt;&lt;  &lt;</tspan><tspan y="93" font-family="Womby, Segoe UI">º</tspan><tspan y="93" xml:space="preserve">)))&gt;&lt;  </tspan><tspan x="0" y="147">&lt;</tspan><tspan y="147" font-family="Womby, Segoe UI">º</tspan><tspan y="147" xml:space="preserve">)))&gt;&lt;  &lt;</tspan><tspan y="147" font-family="Womby, Segoe UI">º</tspan><tspan y="147" xml:space="preserve">)))&gt;&lt;  &lt;</tspan><tspan y="147" font-family="Womby, Segoe UI">º</tspan><tspan y="147" xml:space="preserve">)))&gt;&lt;  </tspan><tspan x="0" y="201">&lt;</tspan><tspan y="201" font-family="Womby, Segoe UI">º</tspan><tspan y="201" xml:space="preserve">)))&gt;&lt;  &lt;</tspan><tspan y="201" font-family="Womby, Segoe UI">º</tspan><tspan y="201" xml:space="preserve">)))&gt;&lt;  &lt;</tspan><tspan y="201" font-family="Womby, Segoe UI">º</tspan><tspan y="201" xml:space="preserve">)))&gt;&lt;  </tspan><tspan x="0" y="255">&lt;</tspan><tspan y="255" font-family="Womby, Segoe UI">º</tspan><tspan y="255" xml:space="preserve">)))&gt;&lt;  &lt;</tspan><tspan y="255" font-family="Womby, Segoe UI">º</tspan><tspan y="255" xml:space="preserve">)))&gt;&lt;  &lt;</tspan><tspan y="255" font-family="Womby, Segoe UI">º</tspan><tspan y="255">)))&gt;&lt; </tspan></text>
      <g id="Сгруппировать_133" data-name="Сгруппировать 133" transform="translate(106.485 154.345)">
        <g id="Сгруппировать_132" data-name="Сгруппировать 132" transform="translate(0 9.31)">
          <g id="Сгруппировать_131" data-name="Сгруппировать 131">
            <g id="Сгруппировать_122" data-name="Сгруппировать 122" transform="translate(54.079 120.897)">
              <path id="Контур_1837" data-name="Контур 1837" d="M3589.742,1234.906c.021-.769-.193-1.1-1.16-1.1q-10.282.05-20.565.006c-.775,0-1.073.193-1.056.911.045,1.823.063,3.649,0,5.471-.034.876.393,1.049,1.242,1.024,1.351-.039,2.7-.011,4.058-.01,1.955,0,1.957,0,1.957,1.791,0,7.876.021,15.752-.024,23.627-.005,1.074.313,1.481,1.572,1.421,1.813-.088,3.639-.079,5.453,0,1.088.046,1.323-.312,1.311-1.211-.05-4.02-.021-8.041-.021-12.063,0-4.062.043-8.124-.028-12.186-.019-1.116.4-1.46,1.6-1.4,1.44.077,2.894-.037,4.335.034,1.074.053,1.368-.317,1.332-1.222C3589.681,1238.306,3589.7,1236.6,3589.742,1234.906Z" transform="translate(-3566.954 -1233.806)" fill="#38db7f"/>
            </g>
            <path id="Контур_1838" data-name="Контур 1838" d="M3585.51,1221.307a7.189,7.189,0,0,0-1.485-8.007c-2.344-2.224-4.729-4.411-7.128-6.587q-12.779-11.586-25.58-23.151c-1.665-1.506-1.672-1.512-.059-2.976q9.522-8.645,19.051-17.283c4.551-4.136,9.14-8.239,13.606-12.446a6.577,6.577,0,0,0,1.542-8.068,7.783,7.783,0,0,0-6.735-4.638c-3.092-.046-5.066.653-6.674,2.109q-8.75,7.916-17.479,15.851-13.753,12.475-27.528,24.93c-.88.794-.853,1.234.028,2.025,5.463,4.91,10.84,9.9,16.283,14.826q14.442,13.081,28.928,26.122a7.753,7.753,0,0,0,5.117,1.947A8.4,8.4,0,0,0,3585.51,1221.307Z" transform="translate(-3526.394 -1130.623)" fill="#fff"/>
            <g id="Сгруппировать_123" data-name="Сгруппировать 123" transform="translate(6.911 120.885)">
              <path id="Контур_1839" data-name="Контур 1839" d="M3556.066,1233.816c-1.96.03-3.924.075-5.877-.015-1.2-.056-1.462.32-1.456,1.329.048,6.925-.05,13.852.061,20.776a4.606,4.606,0,0,1-4.5,4.722,4.483,4.483,0,0,1-4.407-4.641c.184-3.392.045-6.8.044-10.2,0-3.566-.048-7.134.031-10.7.023-1.069-.357-1.343-1.495-1.284-1.628.083-3.266.02-4.9.021-1.989,0-1.992,0-1.992,1.716q0,9.829,0,19.657a12.663,12.663,0,0,0,1.752,6.785,13.035,13.035,0,0,0,14.66,5.447c5.613-1.762,8.733-5.583,8.96-10.758.323-7.329.084-14.679.108-22.018C3557.06,1233.988,3556.771,1233.806,3556.066,1233.816Z" transform="translate(-3531.577 -1233.796)" fill="#38db7f"/>
            </g>
            <g id="Сгруппировать_124" data-name="Сгруппировать 124" transform="translate(203.068 120.886)">
              <path id="Контур_1840" data-name="Контур 1840" d="M3687.031,1257.286c0-7.387-.02-14.773.024-22.159.006-1.021-.292-1.382-1.479-1.325-1.816.088-3.643.075-5.46,0-1.071-.042-1.432.21-1.421,1.223.06,5.269.028,10.54.028,15.809,0,5.312.022,10.624-.021,15.935-.007.936.209,1.336,1.376,1.278,1.814-.09,3.643-.081,5.46,0,1.137.049,1.544-.236,1.52-1.3C3686.985,1263.594,3687.031,1260.439,3687.031,1257.286Z" transform="translate(-3678.695 -1233.796)" fill="#38db7f"/>
            </g>
            <path id="Контур_1841" data-name="Контур 1841" d="M3725.216,1166.706q-14.664-13.291-29.374-26.54a8.164,8.164,0,0,0-5.512-2.028c-3.4-.008-6.639,1.835-7.836,4.661a6.794,6.794,0,0,0,1.67,8.148c2.232,2.133,4.52,4.222,6.817,6.3q13.184,11.936,26.4,23.846c.744.671.859,1.139.027,1.87-2.84,2.5-5.6,5.068-8.392,7.6q-12.372,11.227-24.745,22.452a6.974,6.974,0,0,0-1.594,8.6,8.672,8.672,0,0,0,13.46,2.069c6.108-5.505,12.132-11.084,18.218-16.609q13.264-12.043,26.585-24.034c.875-.785.914-1.187.047-1.969C3735.7,1176.311,3730.487,1171.483,3725.216,1166.706Z" transform="translate(-3474.588 -1130.625)" fill="#fff"/>
            <g id="Сгруппировать_126" data-name="Сгруппировать 126" transform="translate(98.645 120.915)">
              <g id="Сгруппировать_125" data-name="Сгруппировать 125">
                <path id="Контур_1842" data-name="Контур 1842" d="M3619.34,1233.821c-10.714.4-19.019,7.563-18.962,17.112.059,9.909,8.6,17.021,19.115,17,10.946-.027,19.129-7.5,19.109-17.038C3638.581,1241.119,3630.052,1234.083,3619.34,1233.821Zm.11,26.376c-5.3-.017-10.729-4.194-10.3-9.365-.423-4.434,4.46-9.334,10.462-9.19,5.8.139,10.209,4.133,10.292,9.4C3629.97,1255.569,3625.447,1260.216,3619.45,1260.2Z" transform="translate(-3600.378 -1233.821)" fill="#38db7f"/>
              </g>
            </g>
            <g id="Сгруппировать_128" data-name="Сгруппировать 128" transform="translate(233.157 120.971)">
              <g id="Сгруппировать_127" data-name="Сгруппировать 127">
                <path id="Контур_1843" data-name="Контур 1843" d="M3726.8,1256.08c0-3.4.027-6.8-.011-10.2a11.853,11.853,0,0,0-1.433-5.5,13.075,13.075,0,0,0-16.146-5.558c-5.2,2.169-7.687,5.957-7.836,10.836-.218,7.089-.052,14.186-.071,21.28,0,.768.243,1.125,1.2,1.1,2-.053,4.015-.053,6.019,0,.955.025,1.2-.3,1.172-1.093-.055-1.449.019-2.9-.028-4.354-.025-.756.281-1.025,1.131-1.011,2.191.037,4.386.033,6.58,0,.848-.012,1.164.28,1.144,1.025-.037,1.452.033,2.905-.025,4.356-.032.8.248,1.1,1.183,1.074,1.959-.053,3.921-.058,5.879,0,.982.031,1.278-.254,1.267-1.124C3726.774,1263.3,3726.8,1259.69,3726.8,1256.08Zm-8.292-6.842c0,1.325-.032,2.651.009,3.975.024.759-.323,1.021-1.156,1.009-2.189-.031-4.38-.034-6.569,0-.845.014-1.141-.247-1.13-1,.039-2.567,0-5.135.021-7.7a4.074,4.074,0,0,1,3.325-3.808,4.663,4.663,0,0,1,4.984,2.155c.835,1.342.384,2.752.511,4.132C3718.543,1248.407,3718.512,1248.823,3718.51,1249.238Z" transform="translate(-3701.262 -1233.869)" fill="#38db7f"/>
              </g>
            </g>
            <g id="Сгруппировать_130" data-name="Сгруппировать 130" transform="translate(158.718 120.885)">
              <g id="Сгруппировать_129" data-name="Сгруппировать 129">
                <path id="Контур_1844" data-name="Контур 1844" d="M3667.746,1241.623c-1.464-4.753-5.276-7.794-10.822-7.8-3.312,0-6.627.056-9.935-.028-1.272-.032-1.563.343-1.552,1.4.052,5.224.024,10.449.022,15.673,0,5.266.034,10.533-.026,15.8-.012,1.108.365,1.44,1.592,1.38,1.813-.091,3.639-.075,5.455,0,1.04.04,1.357-.234,1.342-1.178-.061-3.731-.025-7.463-.024-11.2,0-1.719,0-1.719,2-1.723a18,18,0,0,0,5.617-.634C3665.828,1251.89,3668.977,1245.62,3667.746,1241.623Zm-7.3,4.837a3.561,3.561,0,0,1-3.222,1.357c-3.431-.021-3.432.012-3.431-3.006v-.992c0-.908.048-1.819-.015-2.725-.057-.834.228-1.231,1.239-1.16.831.058,1.67.013,2.508.012a3.308,3.308,0,0,1,3.244,1.917A4.349,4.349,0,0,1,3660.449,1246.46Z" transform="translate(-3645.433 -1233.796)" fill="#38db7f"/>
              </g>
            </g>
            <path id="Контур_1845" data-name="Контур 1845" d="M3684.8,1154.869c-.5-.618-.288-.9.184-1.332q4.67-4.267,9.307-8.561c2.18-2.024,3.239-4.331,2.462-7.2-.908-3.357-3.273-5.3-7.006-5.873a8.047,8.047,0,0,0-6.807,2.12c-3.143,2.816-6.293,5.627-9.351,8.516a1.824,1.824,0,0,1-2.7.24,55.562,55.562,0,0,0-23.792-8.016,62.173,62.173,0,0,0-21.849,1.5,56.8,56.8,0,0,0-23.379,12.1,48.384,48.384,0,0,0-11.841,15.368,44.848,44.848,0,0,0-4.411,15.644,42.045,42.045,0,0,0,1.7,16.11,46.049,46.049,0,0,0,8.645,16.156c.62.757.472,1.154-.2,1.759-3.069,2.764-6.139,5.531-9.107,8.382-2.1,2.02-2.984,4.371-2.086,7.172a7.728,7.728,0,0,0,6.6,5.521,8.187,8.187,0,0,0,7.219-2.108c3.146-2.87,6.32-5.717,9.468-8.587.672-.613,1.128-.711,2.09-.16,9.141,5.241,19.146,8.047,31.822,8.114a59.879,59.879,0,0,0,21.307-4.461,54.2,54.2,0,0,0,19.063-12.873,45.253,45.253,0,0,0,12.115-23.349,43.27,43.27,0,0,0-.8-19.238A45.969,45.969,0,0,0,3684.8,1154.869Zm-77.148,44.3a30.186,30.186,0,0,1-4.382-20.563,27.633,27.633,0,0,1,4.032-11.1,35.777,35.777,0,0,1,15.7-13.83,40.969,40.969,0,0,1,35.609.5c1.119.558,1.12.93.261,1.708q-8.89,8.037-17.712,16.135-15.01,13.723-30.02,27.445C3608.9,1201.514,3609.24,1201.679,3607.653,1199.172Zm69.128-9.518c-2.6,10.611-9.4,18.325-20.263,23.209a37.451,37.451,0,0,1-16.371,3.273,39.941,39.941,0,0,1-17.564-3.84c-1-.456-1.168-.892-.326-1.644q4.562-4.073,9.064-8.2,18.787-17.122,37.566-34.252c.713-.651,1.379-1.342,2.085-2,.572-.53.963-.558,1.472.19a30.452,30.452,0,0,1,4.618,11.3A27.155,27.155,0,0,1,3676.781,1189.654Z" transform="translate(-3507.117 -1131.799)" fill="#fff"/>
          </g>
        </g>
        <path id="Контур_1907" data-name="Контур 1907" d="M14.434.254,18.565.011A5.379,5.379,0,0,1,24.4,5.828L16.536,139.345a7.145,7.145,0,0,1-6.561,6.545l-4.131.243a5.379,5.379,0,0,1-5.833-5.817L7.873,6.8A7.145,7.145,0,0,1,14.434.254Z" transform="translate(175.848 0) rotate(44.362)" fill="#38db7f"/>
      </g>
    </g>
  </g>
</svg>
