<svg xmlns="http://www.w3.org/2000/svg" width="960.436" height="480" viewBox="0 0 960.436 480">
  <g id="Сгруппировать_151" data-name="Сгруппировать 151" transform="translate(0.317)">
    <rect id="Прямоугольник_113" data-name="Прямоугольник 113" width="480" height="480" transform="translate(-0.317)"/>
    <rect id="Прямоугольник_114" data-name="Прямоугольник 114" width="489" height="480" transform="translate(470.683)" fill="#e7335d"/>
    <g id="Сгруппировать_150" data-name="Сгруппировать 150" transform="translate(106.485 166.333)">
      <g id="Сгруппировать_148" data-name="Сгруппировать 148" transform="translate(68.383)">
        <g id="Сгруппировать_147" data-name="Сгруппировать 147" transform="translate(0 0.111)">
          <path id="Контур_1855" data-name="Контур 1855" d="M4437.718,1150.308l67,4.136a2.169,2.169,0,0,1,2.151,2.068l-.458,45.843a2.185,2.185,0,0,1-2.21,2.035l-84.762,3.355a2.214,2.214,0,0,1-2.416-2.023l-.105-6.344a2.184,2.184,0,0,1,2.256-2.086l13.373-.293a2.193,2.193,0,0,0,2.256-2.041l.093-12.046a2.2,2.2,0,0,1,2.306-2.041l11.625-.032a2.2,2.2,0,0,0,2.305-2.03l.16-11.237a2.186,2.186,0,0,0-2.276-2.081l-11.671-.162a2.187,2.187,0,0,1-2.276-2.086l.179-10.914A2.221,2.221,0,0,1,4437.718,1150.308Z" transform="translate(-4376.603 -1129.383)" fill="#197abd"/>
          <rect id="Прямоугольник_115" data-name="Прямоугольник 115" width="24.739" height="21.99" rx="3.1" transform="translate(0 30.278)" fill="#197abd"/>
          <rect id="Прямоугольник_116" data-name="Прямоугольник 116" width="18.026" height="16.023" rx="3.1" transform="translate(35.803 35.803)" fill="#197abd"/>
          <rect id="Прямоугольник_117" data-name="Прямоугольник 117" width="13.177" height="11.713" rx="3.1" transform="translate(20.885 57.572)" fill="#197abd"/>
          <rect id="Прямоугольник_118" data-name="Прямоугольник 118" width="16.907" height="15.028" rx="3.1" transform="translate(57.31)" fill="#197abd"/>
        </g>
        <rect id="Прямоугольник_119" data-name="Прямоугольник 119" width="27.474" height="24.421" rx="3.583" transform="translate(21.755)" fill="#fff"/>
        <path id="Контур_1908" data-name="Контур 1908" d="M1.382,0,33.038.123a1.33,1.33,0,0,1,1.393,1.239l.02,4.677a1.3,1.3,0,0,1-1.382,1.228L1.413,7.145A1.33,1.33,0,0,1,.02,5.906L0,1.228A1.3,1.3,0,0,1,1.382,0Z" transform="translate(67.256 83.012) rotate(-2)" fill="#fff"/>
      </g>
      <g id="Сгруппировать_149" data-name="Сгруппировать 149" transform="translate(0 108.596)">
        <path id="Контур_1856" data-name="Контур 1856" d="M4356.5,1262.093h-8.928v-30.08h-12.175v-6.937h33.215v6.937H4356.5Z" transform="translate(-4335.394 -1224.021)" fill="#fff"/>
        <path id="Контур_1857" data-name="Контур 1857" d="M4379.083,1261.268a17.174,17.174,0,0,1-11.551-3.885,12.761,12.761,0,0,1-4.559-10.212,13.044,13.044,0,0,1,4.4-9.99,15.9,15.9,0,0,1,11.207-4.052,14.982,14.982,0,0,1,10.925,4.079,14.254,14.254,0,0,1,4.184,10.683v1.555h-22.415a6.627,6.627,0,0,0,2.685,4.44,9.545,9.545,0,0,0,5.993,1.776,14.839,14.839,0,0,0,4.34-.721,9.928,9.928,0,0,0,3.714-1.942l3.5,4.55Q4386.95,1261.268,4379.083,1261.268Zm6.929-16.594a6.45,6.45,0,0,0-2.028-4.108,7.351,7.351,0,0,0-5.4-1.831,7.256,7.256,0,0,0-5.245,1.8,6.936,6.936,0,0,0-2.186,4.135Z" transform="translate(-4326.201 -1222.53)" fill="#fff"/>
        <path id="Контур_1858" data-name="Контур 1858" d="M4398.25,1262.093h-7.93v-37.017h7.93Z" transform="translate(-4317.085 -1224.021)" fill="#fff"/>
        <path id="Контур_1859" data-name="Контур 1859" d="M4416.824,1261.268a17.179,17.179,0,0,1-11.551-3.885,12.765,12.765,0,0,1-4.558-10.212,13.041,13.041,0,0,1,4.4-9.99,15.9,15.9,0,0,1,11.207-4.052,14.986,14.986,0,0,1,10.927,4.079,14.258,14.258,0,0,1,4.184,10.683v1.555H4409.02a6.618,6.618,0,0,0,2.686,4.44,9.54,9.54,0,0,0,5.992,1.776,14.839,14.839,0,0,0,4.34-.721,9.945,9.945,0,0,0,3.715-1.942l3.5,4.55Q4424.692,1261.268,4416.824,1261.268Zm6.93-16.594a6.448,6.448,0,0,0-2.028-4.108,7.349,7.349,0,0,0-5.4-1.831,7.253,7.253,0,0,0-5.244,1.8,6.917,6.917,0,0,0-2.185,4.135Z" transform="translate(-4313.62 -1222.53)" fill="#fff"/>
        <path id="Контур_1860" data-name="Контур 1860" d="M4439.582,1261.268a25.3,25.3,0,0,1-7.524-1.111,17.418,17.418,0,0,1-5.962-3.053l3.434-4.939a18.67,18.67,0,0,0,10.427,3.663,7.374,7.374,0,0,0,3.777-.777,2.372,2.372,0,0,0,1.28-2.108q0-1-1.342-1.638a11.553,11.553,0,0,0-3.311-.916q-1.966-.275-4.308-.831a31.726,31.726,0,0,1-4.308-1.332,7.834,7.834,0,0,1-3.308-2.47,6.53,6.53,0,0,1-1.342-4.191,7.242,7.242,0,0,1,3.308-5.994q3.309-2.442,9.053-2.442a20.551,20.551,0,0,1,12.176,3.665l-3.184,4.827a11.416,11.416,0,0,0-3.84-2.22,14.6,14.6,0,0,0-5.088-.888,6.887,6.887,0,0,0-3.435.749,2.194,2.194,0,0,0-1.311,1.914q0,.889,1.311,1.471a12.483,12.483,0,0,0,3.309.862,40.347,40.347,0,0,1,4.308.859,33.563,33.563,0,0,1,4.309,1.388,7.56,7.56,0,0,1,3.308,2.58,7.091,7.091,0,0,1,1.312,4.33,7.273,7.273,0,0,1-3.465,6.188Q4445.7,1261.268,4439.582,1261.268Z" transform="translate(-4305.16 -1222.53)" fill="#fff"/>
        <path id="Контур_1861" data-name="Контур 1861" d="M4464.93,1261.268a16.79,16.79,0,0,1-11.488-3.941,13.66,13.66,0,0,1,0-20.257,16.8,16.8,0,0,1,11.488-3.941q7.992,0,11.925,4.83l-5.182,4.328a7.5,7.5,0,0,0-6.369-2.886,8.277,8.277,0,0,0-5.9,2.137,7.362,7.362,0,0,0-2.278,5.633,7.451,7.451,0,0,0,2.278,5.66,8.214,8.214,0,0,0,5.9,2.164,7.708,7.708,0,0,0,6.369-2.886l5.182,4.274Q4472.921,1261.267,4464.93,1261.268Z" transform="translate(-4297.543 -1222.53)" fill="#fff"/>
        <path id="Контур_1862" data-name="Контур 1862" d="M4481.693,1260.6h-7.928V1233.8h7.928v3.663a13.1,13.1,0,0,1,4.308-3.107,12.461,12.461,0,0,1,5.307-1.222v6.882a11.3,11.3,0,0,0-2.184-.167,11.573,11.573,0,0,0-4.245.889,7.06,7.06,0,0,0-3.186,2.164Z" transform="translate(-4289.271 -1222.53)" fill="#fff"/>
        <path id="Контур_1863" data-name="Контур 1863" d="M4498.488,1256.9a5.419,5.419,0,0,1-7.117,0,4.087,4.087,0,0,1,0-6.326,5.419,5.419,0,0,1,7.117,0,4.09,4.09,0,0,1,0,6.326Z" transform="translate(-4283.901 -1219.547)" fill="#fff"/>
        <path id="Контур_1864" data-name="Контур 1864" d="M4506.745,1232.565a4.866,4.866,0,0,1-3.342-1.248,3.848,3.848,0,0,1-1.4-2.97,3.77,3.77,0,0,1,1.4-2.941,5.225,5.225,0,0,1,6.713,0,3.805,3.805,0,0,1,1.374,2.941,3.886,3.886,0,0,1-1.374,2.97A4.833,4.833,0,0,1,4506.745,1232.565Zm4,29.692h-7.93v-26.806h7.93Z" transform="translate(-4279.859 -1224.186)" fill="#197abd"/>
        <path id="Контур_1865" data-name="Контур 1865" d="M4542.738,1260.6h-7.93v-16.2q0-5-5.557-5a8.382,8.382,0,0,0-6.868,3.163V1260.6h-7.928V1233.8h7.928v3.5q3.935-4.163,10.552-4.163,4.87,0,7.336,2.275a8.115,8.115,0,0,1,2.467,6.272Z" transform="translate(-4275.707 -1222.53)" fill="#197abd"/>
      </g>
    </g>
  </g>
  <text id="Telescr.in_" data-name="Telescr.in
&lt;º)))&gt;&lt;  &lt;º)))&gt;&lt;  &lt;º)))&gt;&lt;  &lt;º)))&gt;&lt;  &lt;º)))&gt;&lt;  &lt;º)))&gt;&lt;  &lt;º)))&gt;&lt;  &lt;º)))&gt;&lt;  &lt;º)))&gt;&lt;  &lt;º)))&gt;&lt;  &lt;º)))&gt;&lt;  &lt;º)))&gt;&lt; " transform="translate(543.436 109.632)" fill="#fff" font-size="41" font-family="WombyRUSbyDaymarius, 'Womby \[RUS by Daymarius\]'"><tspan x="0" y="41">TELESCR.IN</tspan><tspan x="0" y="93">&lt;</tspan><tspan y="93" font-family="Womby, Segoe UI">º</tspan><tspan y="93" xml:space="preserve">)))&gt;&lt;  &lt;</tspan><tspan y="93" font-family="Womby, Segoe UI">º</tspan><tspan y="93" xml:space="preserve">)))&gt;&lt;  &lt;</tspan><tspan y="93" font-family="Womby, Segoe UI">º</tspan><tspan y="93" xml:space="preserve">)))&gt;&lt;  </tspan><tspan x="0" y="147">&lt;</tspan><tspan y="147" font-family="Womby, Segoe UI">º</tspan><tspan y="147" xml:space="preserve">)))&gt;&lt;  &lt;</tspan><tspan y="147" font-family="Womby, Segoe UI">º</tspan><tspan y="147" xml:space="preserve">)))&gt;&lt;  &lt;</tspan><tspan y="147" font-family="Womby, Segoe UI">º</tspan><tspan y="147" xml:space="preserve">)))&gt;&lt;  </tspan><tspan x="0" y="201">&lt;</tspan><tspan y="201" font-family="Womby, Segoe UI">º</tspan><tspan y="201" xml:space="preserve">)))&gt;&lt;  &lt;</tspan><tspan y="201" font-family="Womby, Segoe UI">º</tspan><tspan y="201" xml:space="preserve">)))&gt;&lt;  &lt;</tspan><tspan y="201" font-family="Womby, Segoe UI">º</tspan><tspan y="201" xml:space="preserve">)))&gt;&lt;  </tspan><tspan x="0" y="255">&lt;</tspan><tspan y="255" font-family="Womby, Segoe UI">º</tspan><tspan y="255" xml:space="preserve">)))&gt;&lt;  &lt;</tspan><tspan y="255" font-family="Womby, Segoe UI">º</tspan><tspan y="255" xml:space="preserve">)))&gt;&lt;  &lt;</tspan><tspan y="255" font-family="Womby, Segoe UI">º</tspan><tspan y="255">)))&gt;&lt; </tspan></text>
</svg>
