<svg xmlns="http://www.w3.org/2000/svg" width="512.175" height="55.5" viewBox="0 0 512.175 55.5">
  <path id="coming_soon" data-name="coming soon" d="M212.437,62.475a13.438,13.438,0,0,0,5.325-1.087,14.817,14.817,0,0,0,4.5-2.963l9.15,9.15a26.923,26.923,0,0,1-8.625,5.813,26.9,26.9,0,0,1-23.775-1.537,26.811,26.811,0,0,1-9.75-9.75,26.9,26.9,0,0,1,0-26.888,26.723,26.723,0,0,1,9.75-9.787,26.9,26.9,0,0,1,23.775-1.538,26.923,26.923,0,0,1,8.625,5.813l-9.15,9.15a14.817,14.817,0,0,0-4.5-2.963,13.438,13.438,0,0,0-5.325-1.087,13.243,13.243,0,0,0-6.9,1.875,14.134,14.134,0,0,0-5.025,5.063,13.44,13.44,0,0,0-1.875,6.938,13.243,13.243,0,0,0,1.875,6.9,14.229,14.229,0,0,0,5.025,5.025A13.243,13.243,0,0,0,212.437,62.475Zm48.825-40.5a26.1,26.1,0,0,1,13.425,3.6,26.723,26.723,0,0,1,9.75,9.788,26.9,26.9,0,0,1,0,26.888,26.811,26.811,0,0,1-9.75,9.75A26.9,26.9,0,0,1,247.8,72a26.723,26.723,0,0,1-9.787-9.75,26.9,26.9,0,0,1,0-26.888,26.636,26.636,0,0,1,9.787-9.788A26.3,26.3,0,0,1,261.262,21.975Zm0,40.65a13.243,13.243,0,0,0,6.9-1.875,14.229,14.229,0,0,0,5.025-5.025,13.243,13.243,0,0,0,1.875-6.9,13.44,13.44,0,0,0-1.875-6.937,14.134,14.134,0,0,0-5.025-5.062,13.243,13.243,0,0,0-6.9-1.875,13.44,13.44,0,0,0-6.938,1.875,14.039,14.039,0,0,0-5.062,5.063,13.44,13.44,0,0,0-1.875,6.937,13.243,13.243,0,0,0,1.875,6.9,14.134,14.134,0,0,0,5.063,5.025A13.44,13.44,0,0,0,261.262,62.625Zm72.15-40.65h13.5V75h-13.5V71.475h0v-26.4h0l-6.6,12-.3.6h-13.5l-.375-.6-.9-1.725-5.625-10.275V75H292.537V21.975h13.575l13.65,22.575Zm33,0V75h-13.5V21.975Zm35.175,0h13.5V75h-13.5l-15.6-28.425V75H372.412V21.975h13.575l15.6,28.425Zm70.875,20.55a28.847,28.847,0,0,1,.75,6.225,26.1,26.1,0,0,1-3.6,13.425,26.723,26.723,0,0,1-9.787,9.75,26.9,26.9,0,0,1-26.888,0,26.811,26.811,0,0,1-9.75-9.75,26.9,26.9,0,0,1,0-26.888,26.723,26.723,0,0,1,9.75-9.788A26.952,26.952,0,0,1,456.825,24a26.458,26.458,0,0,1,8.588,5.85l-12.075,6.9a13.38,13.38,0,0,0-6.975-1.875,13.243,13.243,0,0,0-6.9,1.875,14.134,14.134,0,0,0-5.025,5.063,13.44,13.44,0,0,0-1.875,6.938,13.243,13.243,0,0,0,1.875,6.9,14.229,14.229,0,0,0,5.025,5.025,13.243,13.243,0,0,0,6.9,1.875,13.455,13.455,0,0,0,7.275-2.062,14.056,14.056,0,0,0,5.1-5.513h-16.65V42.525h30.375Zm51.975-3.75V37.8a4.684,4.684,0,0,0-1.838-3.713,6.723,6.723,0,0,0-4.462-1.538,7.13,7.13,0,0,0-4.612,1.538,4.621,4.621,0,0,0-1.913,3.713,3.436,3.436,0,0,0,1.95,3.225,16.316,16.316,0,0,0,5.1,2.1q.525.075,1.163.225t1.313.3q8.025,1.95,10.725,4.425l.675.6A16.069,16.069,0,0,1,536.1,53.85a14.668,14.668,0,0,1-.15,12.45,16.692,16.692,0,0,1-4.237,5.475,20.068,20.068,0,0,1-6.3,3.563,22.027,22.027,0,0,1-7.35,1.237,21.7,21.7,0,0,1-7.312-1.237,20.165,20.165,0,0,1-6.263-3.562,17.158,17.158,0,0,1-4.275-5.475,14.532,14.532,0,0,1-1.5-6.45v-.975h13.125v.975a4.684,4.684,0,0,0,1.837,3.713,6.617,6.617,0,0,0,4.388,1.537,7.13,7.13,0,0,0,4.612-1.537,4.621,4.621,0,0,0,1.913-3.713,4.326,4.326,0,0,0-2.025-3.3,8.381,8.381,0,0,0-2.1-1.125,30.144,30.144,0,0,0-2.925-.9l-2.475-.6q-4.125-1.05-6.45-1.875a12.956,12.956,0,0,1-4.275-2.55l-.3-.3a16.849,16.849,0,0,1-3.937-5.25,14.178,14.178,0,0,1-1.388-6.15,14.532,14.532,0,0,1,1.5-6.45,17.158,17.158,0,0,1,4.275-5.475,20.165,20.165,0,0,1,6.263-3.562,21.7,21.7,0,0,1,7.313-1.237,22.027,22.027,0,0,1,7.35,1.237,20.068,20.068,0,0,1,6.3,3.563,16.692,16.692,0,0,1,4.237,5.475,14.839,14.839,0,0,1,1.462,6.45v.975Zm42.825-16.8a26.1,26.1,0,0,1,13.425,3.6,26.724,26.724,0,0,1,9.75,9.788,26.9,26.9,0,0,1,0,26.888,26.812,26.812,0,0,1-9.75,9.75A26.9,26.9,0,0,1,553.8,72a26.724,26.724,0,0,1-9.788-9.75,26.9,26.9,0,0,1,0-26.888,26.636,26.636,0,0,1,9.788-9.788A26.3,26.3,0,0,1,567.262,21.975Zm0,40.65a13.243,13.243,0,0,0,6.9-1.875,14.229,14.229,0,0,0,5.025-5.025,13.243,13.243,0,0,0,1.875-6.9,13.44,13.44,0,0,0-1.875-6.937,14.133,14.133,0,0,0-5.025-5.062,13.243,13.243,0,0,0-6.9-1.875,13.44,13.44,0,0,0-6.937,1.875,14.039,14.039,0,0,0-5.062,5.063,13.44,13.44,0,0,0-1.875,6.937,13.243,13.243,0,0,0,1.875,6.9,14.134,14.134,0,0,0,5.063,5.025A13.44,13.44,0,0,0,567.262,62.625Zm56.625-40.65a26.1,26.1,0,0,1,13.425,3.6,26.724,26.724,0,0,1,9.75,9.788,26.9,26.9,0,0,1,0,26.888,26.812,26.812,0,0,1-9.75,9.75,26.9,26.9,0,0,1-26.888,0,26.724,26.724,0,0,1-9.788-9.75,26.9,26.9,0,0,1,0-26.888,26.636,26.636,0,0,1,9.788-9.788A26.3,26.3,0,0,1,623.887,21.975Zm0,40.65a13.243,13.243,0,0,0,6.9-1.875,14.229,14.229,0,0,0,5.025-5.025,13.243,13.243,0,0,0,1.875-6.9,13.44,13.44,0,0,0-1.875-6.937,14.133,14.133,0,0,0-5.025-5.062,13.243,13.243,0,0,0-6.9-1.875,13.44,13.44,0,0,0-6.937,1.875,14.039,14.039,0,0,0-5.062,5.063,13.44,13.44,0,0,0-1.875,6.937,13.243,13.243,0,0,0,1.875,6.9,14.134,14.134,0,0,0,5.063,5.025A13.44,13.44,0,0,0,623.887,62.625Zm60.45-40.65h13.5V75h-13.5l-15.6-28.425V75H655.162V21.975h13.575l15.6,28.425Z" transform="translate(-185.662 -21.075)" fill="#fff"/>
</svg>
