<svg xmlns="http://www.w3.org/2000/svg" xmlns:xlink="http://www.w3.org/1999/xlink" width="362" height="165" viewBox="0 0 362 165">
  <defs>
    <linearGradient id="linear-gradient" x1="0.993" y1="0.5" x2="0.006" y2="0.5" gradientUnits="objectBoundingBox">
      <stop offset="0" stop-color="#1180cf"/>
      <stop offset="1" stop-color="#040681"/>
    </linearGradient>
  </defs>
  <g id="error_box" data-name="error box" transform="translate(-513.307 -287.574)">
    <g id="Прямоугольник_149" data-name="Прямоугольник 149" transform="translate(516.307 290.574)" fill="#bfbfbf" stroke="#e1f3fa" stroke-width="3">
      <rect width="356" height="159" stroke="none"/>
      <rect x="-1.5" y="-1.5" width="359" height="162" fill="none"/>
    </g>
    <rect id="Прямоугольник_150" data-name="Прямоугольник 150" width="356" height="21" transform="translate(516.307 290.574)" stroke="#e1f3fa" stroke-width="2" fill="url(#linear-gradient)"/>
    <g id="Сгруппировать_245" data-name="Сгруппировать 245" transform="translate(852.407 293.716)">
      <path id="Контур_1879" data-name="Контур 1879" d="M183.292-1617.828c.3,0,.593,0,.889,0,.067,0,.092.013.079.08a.327.327,0,0,0,0,.062q0,7.1,0,14.2c0,.117-.026.143-.143.143q-8.164-.005-16.327,0a.15.15,0,0,1-.03-.1c0-.3,0-.595,0-.892a.13.13,0,0,1,.021-.073.253.253,0,0,1,.176-.044c.288,0,.576-.006.865,0,.083-.008.166,0,.249,0h13.861c.33,0,.307.016.307-.3q0-5.913,0-11.827a1.887,1.887,0,0,1,0-.2c-.008-.287,0-.575,0-.863A.24.24,0,0,1,183.292-1617.828Z" transform="translate(-167.715 1617.83)" fill="#040506"/>
      <path id="Контур_1880" data-name="Контур 1880" d="M168.784-1604.346l-1.026.005c-.045-.048-.031-.108-.031-.163q0-6.547,0-13.094a.237.237,0,0,1,.031-.165h15.5l0,1.027a.223.223,0,0,1-.174.052c-.285,0-.571.006-.856,0a2.427,2.427,0,0,1-.249,0H169.145c-.329,0-.306-.016-.306.3q0,5.4,0,10.8a1.874,1.874,0,0,1,0,.2c.008.287,0,.574,0,.861A.222.222,0,0,1,168.784-1604.346Z" transform="translate(-167.682 1617.765)" fill="#fff"/>
      <path id="Контур_1881" data-name="Контур 1881" d="M166.41-1617.785q0,6.711,0,13.422,0,.53,0,1.059c-.019-.011-.054.022-.061-.016a.624.624,0,0,1,0-.109q0-7.116,0-14.232C166.35-1617.7,166.286-1617.795,166.41-1617.785Z" transform="translate(-166.334 1617.787)" fill="#a7a7a6"/>
      <path id="Контур_1882" data-name="Контур 1882" d="M215.075-1584.874l1.022-.005c0,.052,0,.1,0,.156q0,6.023,0,12.047c0,.157-.037.195-.195.195q-7.064-.007-14.128,0c-.052,0-.1,0-.156,0q0-.511.006-1.022a.225.225,0,0,1,.174-.053c.286,0,.571-.006.857,0a2.167,2.167,0,0,1,.218,0h11.849c.291,0,.291,0,.291-.288q0-4.891,0-9.782a1.89,1.89,0,0,1,0-.2c-.008-.282,0-.565,0-.847A.241.241,0,0,1,215.075-1584.874Z" transform="translate(-200.524 1585.909)" fill="#6d6e6e"/>
      <path id="Контур_1883" data-name="Контур 1883" d="M202.687-1573.526l-1.025.009q0-2.3,0-4.6,0-3.292,0-6.584c0-.125.016-.182.165-.182q6.6.006,13.205,0l.078,0-.008,1.026a.307.307,0,0,1-.236.053c-.478,0-.956,0-1.434,0h-10.4c-.29,0-.29,0-.29.289q0,4.844,0,9.687C202.74-1573.724,202.765-1573.615,202.687-1573.526Z" transform="translate(-200.555 1585.914)" fill="#d7d7d7"/>
      <path id="Контур_1884" data-name="Контур 1884" d="M234.583-1541.562q0-3.845,0-7.691c0-.817,0-1.633,0-2.449,0-.151.041-.189.19-.189q6.01.006,12.019,0l.2,0c0,.052,0,.1,0,.156q0,4.992,0,9.984c0,.159-.04.2-.2.2q-6.033-.007-12.066,0C234.687-1541.557,234.635-1541.56,234.583-1541.562Z" transform="translate(-232.451 1553.95)" fill="#b3b2b2"/>
      <path id="Контур_1885" data-name="Контур 1885" d="M308.779-1518.886c.312,0,.624,0,.935,0,.088,0,.114.024.112.113q-.008.405,0,.811c0,.092-.03.111-.115.11-.26-.005-.52,0-.779,0-.105,0-.144.02-.14.134.009.265,0,.53,0,.8,0,.082-.021.107-.1.1-.275-.005-.551,0-.826,0-.113,0-.138.033-.134.139.008.25,0,.5.005.749,0,.111-.018.154-.141.148-.259-.011-.52,0-.779-.005-.087,0-.115.023-.113.112q.008.421,0,.843c0,.091.029.112.115.11.255-.005.509,0,.764,0,.115,0,.162.019.156.149-.012.254,0,.509-.006.764,0,.095.021.124.12.122.275-.007.551,0,.826-.005.1,0,.121.029.119.122-.006.244.005.489-.005.733-.006.135.021.19.172.181.249-.015.5,0,.748-.006.087,0,.116.021.114.111q-.009.405,0,.811c0,.09-.028.112-.114.111q-.935-.005-1.871,0c-.094,0-.11-.033-.109-.116,0-.265,0-.531,0-.8,0-.094-.019-.125-.119-.123-.27.008-.541,0-.811,0-.083,0-.1-.025-.1-.105,0-.26,0-.52,0-.78,0-.109-.014-.151-.14-.15-.6.008-1.2.006-1.793,0-.1,0-.134.02-.131.126.008.265,0,.53,0,.8,0,.089-.025.114-.113.112-.26-.005-.52.006-.779-.005-.123-.005-.145.037-.142.148.008.26,0,.52,0,.78,0,.078-.016.108-.1.107q-.928-.005-1.855,0c-.082,0-.106-.022-.1-.1q.007-.413,0-.827c0-.086.029-.1.107-.1.26,0,.52,0,.779,0,.112,0,.153-.019.148-.142-.011-.26,0-.52-.005-.78,0-.088.023-.115.112-.113.265.006.53,0,.8,0,.106,0,.129-.033.126-.131-.007-.25,0-.5,0-.749,0-.116.02-.162.149-.156.259.012.52,0,.779.005.081,0,.107-.021.105-.1q-.008-.429,0-.858c0-.085-.027-.1-.107-.1-.255,0-.51-.005-.764,0-.124,0-.171-.02-.164-.157.013-.254,0-.51.006-.764,0-.087-.022-.115-.111-.114-.265.006-.53,0-.8,0-.105,0-.13-.031-.127-.13.007-.244-.009-.49.006-.733.009-.152-.047-.177-.181-.172-.249.01-.5,0-.748,0-.08,0-.107-.019-.106-.1q.008-.413,0-.827c0-.084.026-.1.106-.1q.928,0,1.855,0c.087,0,.1.032.1.109,0,.265,0,.53,0,.8,0,.1.022.134.127.13.265-.008.53,0,.8,0,.089,0,.113.026.112.113-.005.26,0,.52,0,.78,0,.1.016.143.132.141.6-.006,1.206,0,1.809,0,.092,0,.126-.018.123-.118-.008-.27,0-.541,0-.811,0-.083.024-.106.105-.1.265,0,.53,0,.795,0,.114,0,.137-.035.134-.14-.008-.255,0-.51,0-.764,0-.1.019-.134.126-.131C308.165-1518.882,308.472-1518.886,308.779-1518.886Z" transform="translate(-297.336 1521.978)" fill="#040506"/>
    </g>
    <path id="error" d="M1.455,13.322V3.684H8.6V5.314H3.4V7.451H8.24V9.075H3.4V11.7H8.786v1.624Zm10.737,0H10.344V6.34H12.06v.993a2.984,2.984,0,0,1,.792-.927,1.457,1.457,0,0,1,.8-.224,2.345,2.345,0,0,1,1.216.348L14.3,8.141a1.621,1.621,0,0,0-.868-.3,1.025,1.025,0,0,0-.657.214,1.461,1.461,0,0,0-.424.773,10.975,10.975,0,0,0-.155,2.341Zm5.24,0H15.584V6.34H17.3v.993a2.984,2.984,0,0,1,.792-.927,1.457,1.457,0,0,1,.8-.224,2.345,2.345,0,0,1,1.216.348l-.572,1.611a1.621,1.621,0,0,0-.868-.3,1.025,1.025,0,0,0-.657.214,1.461,1.461,0,0,0-.424.773,10.975,10.975,0,0,0-.155,2.341Zm3.044-3.59a3.777,3.777,0,0,1,.454-1.782,3.114,3.114,0,0,1,1.285-1.315,3.815,3.815,0,0,1,1.857-.454,3.486,3.486,0,0,1,2.6,1.029,3.555,3.555,0,0,1,1.013,2.6,3.6,3.6,0,0,1-1.022,2.627,3.456,3.456,0,0,1-2.574,1.042,4.055,4.055,0,0,1-1.831-.434,2.977,2.977,0,0,1-1.325-1.272A4.239,4.239,0,0,1,20.476,9.732Zm1.894.1a2.313,2.313,0,0,0,.493,1.591,1.612,1.612,0,0,0,2.429,0,2.345,2.345,0,0,0,.49-1.6,2.3,2.3,0,0,0-.49-1.578,1.612,1.612,0,0,0-2.429,0A2.313,2.313,0,0,0,22.37,9.831ZM30.9,13.322H29.05V6.34h1.716v.993a2.984,2.984,0,0,1,.792-.927,1.457,1.457,0,0,1,.8-.224,2.345,2.345,0,0,1,1.216.348L33,8.141a1.621,1.621,0,0,0-.868-.3,1.025,1.025,0,0,0-.657.214,1.461,1.461,0,0,0-.424.773,10.975,10.975,0,0,0-.155,2.341Z" transform="translate(521.49 292.737)" fill="#fff"/>
    <g id="OK_button" data-name="OK button" transform="translate(633.727 397.623)">
      <g id="Сгруппировать_248" data-name="Сгруппировать 248">
        <path id="Контур_1888" data-name="Контур 1888" d="M868.4-2782.719H987.531a2.308,2.308,0,0,1,.025,1.627,4.46,4.46,0,0,1-1.653.116,6.53,6.53,0,0,1-.67.012H871.1c-1.02,0-.943-.046-.943.952q0,15.25,0,30.5a4.986,4.986,0,0,1-.013.582,4.707,4.707,0,0,1-.11,1.659,2.312,2.312,0,0,1-1.649-.014,1.615,1.615,0,0,1-.025-.488q0-17.233,0-34.465A.969.969,0,0,1,868.4-2782.719Z" transform="translate(-868.286 2782.719)" fill="#fff"/>
        <path id="Контур_1889" data-name="Контур 1889" d="M868.378-2747.281l1.6-.017a.787.787,0,0,1,.509-.133c.224,0,.447,0,.671,0H986.3c1.185,0,1.06.089,1.061-1.055q0-15.881,0-31.761a1.358,1.358,0,0,1,.133-.868q.005-.8.011-1.6h1.61a.967.967,0,0,1,.041.483q0,17.993,0,35.987a.967.967,0,0,1-.041.483H868.376A5.327,5.327,0,0,1,868.378-2747.281Z" transform="translate(-868.264 2782.719)" fill="#060708"/>
        <path id="Контур_1890" data-name="Контур 1890" d="M867.78-2747.281v1.515c-.185-.08-.084-.242-.084-.357q-.009-7.06-.006-14.12,0-11.037.006-22.073c0-.13-.1-.3.084-.4Q867.779-2765,867.78-2747.281Z" transform="translate(-867.667 2782.719)" fill="#b3b1b1"/>
        <path id="Контур_1891" data-name="Контур 1891" d="M2218.412-2745.766v-36.952c.185.081.084.242.084.358q.01,7.225.005,14.45,0,10.872-.006,21.742C2218.5-2746.038,2218.6-2745.866,2218.412-2745.766Z" transform="translate(-2097.557 2782.719)" fill="#b3b1b1"/>
        <path id="Контур_1892" data-name="Контур 1892" d="M1004.33-2764.824c0,.149.01.3.01.447q0,16.418.011,32.836c0,.452-.109.558-.559.558Q945.523-2731,887.255-2731c-.149,0-.3-.006-.447-.01q.008-.794.016-1.589c.323-.254.7-.119,1.058-.149a4.3,4.3,0,0,1,.569.006,6.145,6.145,0,0,1,.67-.012h112.51c1.029,0,.953.05.953-.942q0-14.449,0-28.9a4.948,4.948,0,0,1,.013-.582c-.017-.381-.009-.762-.005-1.143a.639.639,0,0,1,.149-.49Z" transform="translate(-885.095 2766.425)" fill="#6d6e6e"/>
        <path id="Контур_1893" data-name="Контур 1893" d="M888.4-2732.62l-1.6.024c0-.149-.007-.3-.007-.447q0-15.612-.011-31.223c0-.464.128-.562.572-.561q57.458.016,114.916.01c.149,0,.3,0,.447.006l-.024,1.6a.667.667,0,0,1-.5.148c-.224.008-.447,0-.671,0H889.58c-1.129,0-1.022-.075-1.022,1q0,14.29,0,28.58C888.553-2733.187,888.626-2732.875,888.4-2732.62Z" transform="translate(-885.079 2766.427)" fill="#d6d7d6"/>
        <path id="Контур_1894" data-name="Контур 1894" d="M904.84-2716.194q0-10,.006-19.995,0-5.009,0-10.019c0-.573,0-.573.584-.573h113.036c.223,0,.447,0,.67-.006,0,.149.012.3.012.447q0,14.806.012,29.611c0,.464-.128.558-.57.557q-56.63-.016-113.26-.01C905.167-2716.181,905-2716.189,904.84-2716.194Z" transform="translate(-901.514 2750.002)" fill="#b3b1b0"/>
      </g>
      <g id="Прямоугольник_151" data-name="Прямоугольник 151" transform="translate(5.58 4.951)" fill="none" stroke="#6d6e6e" stroke-width="1" stroke-dasharray="3 3" opacity="0">
        <rect width="110" height="28" stroke="none"/>
        <rect x="0.5" y="0.5" width="109" height="27" fill="none"/>
      </g>
      <g id="Сгруппировать_292" data-name="Сгруппировать 292" transform="translate(50.475 11.331)">
        <rect id="Прямоугольник_160" data-name="Прямоугольник 160" width="1.866" height="11.158" transform="translate(0 1.885)"/>
        <rect id="Прямоугольник_161" data-name="Прямоугольник 161" width="5.654" height="1.885" transform="translate(1.866)"/>
        <path id="Контур_4085" data-name="Контур 4085" d="M1547.882,2731.367l-5.653.019v1.866h5.653v-1.866l1.866-.019V2720.21h-1.866Z" transform="translate(-1540.363 -2718.325)"/>
        <path id="Контур_4086" data-name="Контур 4086" d="M1600.3,2716.89h1.866v-3.75H1600.3v3.732h-1.866v1.885h1.866Z" transform="translate(-1581.59 -2713.14)"/>
        <rect id="Прямоугольник_162" data-name="Прямоугольник 162" width="1.866" height="5.598" transform="translate(18.714 9.329)"/>
        <path id="Контур_4087" data-name="Контур 4087" d="M1579.3,2718.756v-5.616h-1.866l.019,14.927h1.847v-7.445h3.732v1.847h1.866v-1.885h-1.866v-1.828Z" transform="translate(-1566.187 -2713.14)"/>
      </g>
    </g>
    <g id="error_description" data-name="error description" transform="translate(534.757 336.14)">
      <g id="Сгруппировать_291" data-name="Сгруппировать 291" transform="translate(52.747 16.245)">
        <path id="Контур_4052" data-name="Контур 4052" d="M1101.093,3169.14h1.592v11.131h-1.592Zm6.37,0h1.593v12.74l-6.37-.016v-1.592h4.777Z" transform="translate(-1101.093 -3169.124)"/>
        <path id="Контур_4053" data-name="Контур 4053" d="M1143.092,3190.069h4.777v1.593h-3.185v6.385h-1.593Zm4.777,1.593h1.593v6.385h-1.593Z" transform="translate(-1133.537 -3185.291)"/>
        <path id="Контур_4054" data-name="Контур 4054" d="M1179.684,3191.732v1.593h4.778v1.592h-4.778v1.593h-1.592v-4.778Zm4.778-.032h1.592v1.625h-1.592v-1.593h-4.778v-1.593h4.778Zm0,6.418h-4.778v-1.608h4.778Z" transform="translate(-1160.575 -3185.345)"/>
        <path id="Контур_4055" data-name="Контур 4055" d="M1224.884,3193.2h-1.592v1.592h-1.608V3193.2h-1.593V3190h1.593v3.169h1.608V3190h1.592Zm-4.793,4.794v-3.2h1.593v3.2Zm4.793,0h-1.592v-3.2h1.592Z" transform="translate(-1193.019 -3185.238)"/>
        <path id="Контур_4056" data-name="Контур 4056" d="M1249.753,3191.732v4.778h3.185v1.592h-3.185v3.185h-1.593v-9.555Zm3.185-1.593v1.593h-3.185v-1.593Zm0,1.608h1.592v4.762h-1.592Z" transform="translate(-1214.703 -3185.345)"/>
        <path id="Контур_4057" data-name="Контур 4057" d="M1284.753,3191.732v1.593h4.778v1.592h-4.778v1.593h-1.593v-4.778Zm4.778-.032h1.592v1.625h-1.592v-1.593h-4.778v-1.593h4.778Zm0,6.418h-4.778v-1.608h4.778Z" transform="translate(-1241.74 -3185.345)"/>
        <path id="Контур_4058" data-name="Контур 4058" d="M1331.466,3193.448h-1.576v-1.592h-3.137v4.761h3.137v1.577h-3.169v-1.577h-1.561v-4.761h1.561v-1.577h3.169v1.544h1.576Zm0,1.545v1.624h-1.576v-1.624Z" transform="translate(-1274.184 -3185.453)"/>
        <path id="Контур_4059" data-name="Контур 4059" d="M1363.1,3191.209h-1.577V3189.6h-1.576v-1.56h1.608v-4.762h1.545v4.762h1.592v1.592H1363.1v1.545h1.592v1.625H1363.1Z" transform="translate(-1301.06 -3180.045)"/>
        <path id="Контур_4060" data-name="Контур 4060" d="M1389.4,3191.732v1.593h4.778v1.592H1389.4v1.593h-1.593v-4.778Zm4.778-.032h1.593v1.625h-1.593v-1.593H1389.4v-1.593h4.778Zm0,6.418H1389.4v-1.608h4.778Z" transform="translate(-1322.58 -3185.345)"/>
        <path id="Контур_4061" data-name="Контур 4061" d="M1429.807,3180.793h1.608v4.794h-1.608ZM1434.6,3176h1.592v9.587H1434.6v-4.794h-3.185V3179.2h3.185Zm-3.185,11.195v-1.608h3.185v1.608Z" transform="translate(-1355.024 -3174.423)"/>
        <path id="Контур_4062" data-name="Контур 4062" d="M1485.875,3170.732h1.593v3.185h3.185v1.593h-3.185v4.777h4.777v1.592h-6.37Zm7.963-1.592v1.592h-6.37v-1.592Zm0,9.523v1.624h-1.593v-1.624Z" transform="translate(-1398.336 -3169.124)"/>
        <path id="Контур_4063" data-name="Контур 4063" d="M1527.875,3191.662h1.577v-1.593h3.185v1.593h-3.169v6.385h-1.592Z" transform="translate(-1430.782 -3185.291)"/>
        <path id="Контур_4064" data-name="Контур 4064" d="M1555.8,3191.662h1.577v-1.593h3.185v1.593H1557.4v6.385H1555.8Z" transform="translate(-1452.357 -3185.291)"/>
        <path id="Контур_4065" data-name="Контур 4065" d="M1583.734,3196.439v-4.762h1.592v4.762Zm1.592-6.371h3.217v1.609h-3.217Zm0,7.963v-1.577h3.217v1.577Zm3.217-6.354h1.593v4.762h-1.593Z" transform="translate(-1473.933 -3185.291)"/>
        <path id="Контур_4066" data-name="Контур 4066" d="M1618.874,3191.662h1.576v-1.593h3.185v1.593h-3.169v6.385h-1.593Z" transform="translate(-1501.078 -3185.291)"/>
        <path id="Контур_4067" data-name="Контур 4067" d="M1639.8,3219.732v-1.592h1.593v1.592Z" transform="translate(-1517.246 -3206.976)"/>
        <path id="Контур_4068" data-name="Контур 4068" d="M1676.394,3170.8v3.169h4.762v1.593h-4.762v6.37H1674.8V3170.8Zm4.762-1.593v1.593h-4.762v-1.593Zm0,1.593h1.593v3.169h-1.593Z" transform="translate(-1544.283 -3169.177)"/>
        <path id="Контур_4069" data-name="Контур 4069" d="M1716.732,3176.349h1.593v11.084h-1.593Z" transform="translate(-1576.673 -3174.693)"/>
        <path id="Контур_4070" data-name="Контур 4070" d="M1732.254,3191.732v1.593h4.777v1.592h-4.777v1.593h-1.593v-4.778Zm4.777-.032h1.592v1.625h-1.592v-1.593h-4.777v-1.593h4.777Zm0,6.418h-4.777v-1.608h4.777Z" transform="translate(-1587.434 -3185.345)"/>
        <path id="Контур_4071" data-name="Контур 4071" d="M1765.662,3195.041h1.592v1.592h-1.592Zm1.592-4.762h4.761v1.577h-4.761Zm4.761,1.577h1.593v4.777h-1.593v-1.592h-4.761v-1.593h4.761Zm-4.761,6.37v-1.592h4.761v1.592Z" transform="translate(-1614.472 -3185.453)"/>
        <path id="Контур_4072" data-name="Контур 4072" d="M1807.591,3191.7h1.609v1.625h-1.609Zm.016,6.418v-1.593h4.761v1.593Zm4.761-4.793v1.576h1.593v1.624h-1.593v-1.592H1809.2v-1.608Zm-3.153-3.186h4.746v1.593h-4.746Z" transform="translate(-1646.862 -3185.345)"/>
        <path id="Контур_4073" data-name="Контур 4073" d="M1844.183,3191.732v1.593h4.778v1.592h-4.778v1.593h-1.592v-4.778Zm4.778-.032h1.592v1.625h-1.592v-1.593h-4.778v-1.593h4.778Zm0,6.418h-4.778v-1.608h4.778Z" transform="translate(-1673.9 -3185.345)"/>
        <path id="Контур_4074" data-name="Контур 4074" d="M1905.589,3180.248h1.592v-9.571h-1.592v-1.609h4.777v1.609h-1.592v9.571h1.592v1.593h-4.777Z" transform="translate(-1722.565 -3169.068)"/>
        <path id="Контур_4075" data-name="Контур 4075" d="M1933.589,3190.069h4.778v1.593h-3.185v6.385h-1.592Zm4.778,1.593h1.593v6.385h-1.593Z" transform="translate(-1744.195 -3185.291)"/>
        <path id="Контур_4076" data-name="Контур 4076" d="M1968.589,3190.139h1.593v6.371h-1.593Zm1.593,7.963v-1.592h1.592v1.592Zm1.592-7.963h1.593v6.371h-1.593Z" transform="translate(-1771.233 -3185.345)"/>
        <path id="Контур_4077" data-name="Контур 4077" d="M1998.181,3191.732v1.593h4.778v1.592h-4.778v1.593h-1.593v-4.778Zm4.778-.032h1.593v1.625h-1.593v-1.593h-4.778v-1.593h4.778Zm0,6.418h-4.778v-1.608h4.778Z" transform="translate(-1792.863 -3185.345)"/>
        <path id="Контур_4078" data-name="Контур 4078" d="M2044.99,3186.038h-4.778v1.593h-1.624v-1.624h1.624v-1.577h4.778Zm-6.386,6.4v-1.609h4.778v1.609Zm4.778-4.81v1.577l1.608.016v1.608h-1.608v-1.592h-3.169v-1.609Zm6.418,1.625h-1.592v1.512h1.592v1.64h-1.592V3190.8H2046.6v-1.577l-1.609-.016v-1.561h1.64v-4.857h1.577v4.857h1.592Z" transform="translate(-1825.307 -3179.668)"/>
        <path id="Контур_4079" data-name="Контур 4079" d="M2094.8,3191.1h1.592v-3.169H2094.8v-1.593h3.185v6.354H2094.8Zm1.592-6.338v-1.624h1.593v1.624Z" transform="translate(-1868.729 -3179.938)"/>
        <path id="Контур_4080" data-name="Контур 4080" d="M2120.592,3191.732h1.593v7.962h-1.593V3198.1h-3.2v-1.561H2115.8v-4.809h1.592v4.778h3.2Zm0-1.593v1.593h-3.2v-1.593Zm-3.2,11.164v-1.609h3.2v1.609Z" transform="translate(-1884.952 -3185.345)"/>
        <path id="Контур_4081" data-name="Контур 4081" d="M2150.867,3195.041h1.593v1.592h-1.593Zm1.593-4.762h4.761v1.577h-4.761Zm4.761,1.577h1.593v4.777h-1.593v-1.592h-4.761v-1.593h4.761Zm-4.761,6.37v-1.592h4.761v1.592Z" transform="translate(-1912.042 -3185.453)"/>
        <path id="Контур_4082" data-name="Контур 4082" d="M2196.02,3191.209h-1.577V3189.6h-1.576v-1.56h1.608v-4.762h1.545v4.762h1.593v1.592h-1.593v1.545h1.593v1.625h-1.593Z" transform="translate(-1944.488 -3180.045)"/>
        <path id="Контур_4083" data-name="Контур 4083" d="M2222.318,3191.732v1.593h4.778v1.592h-4.778v1.593h-1.593v-4.778Zm4.778-.032h1.592v1.625H2227.1v-1.593h-4.778v-1.593h4.778Zm0,6.418h-4.778v-1.608h4.778Z" transform="translate(-1966.009 -3185.345)"/>
        <path id="Контур_4084" data-name="Контур 4084" d="M2262.726,3219.732v-1.592h1.592v1.592Z" transform="translate(-1998.454 -3206.976)"/>
      </g>
      <g id="Сгруппировать_293" data-name="Сгруппировать 293" transform="translate(0)">
        <path id="Контур_4116" data-name="Контур 4116" d="M1113.786,2767.389c.147.258.2.63.548.684,2.031.313,3.206,1.994,4.042,3.4.666,1.124,1.76,2.289,1.777,3.81.006.493.383.759.7,1.052a1.317,1.317,0,0,1,.591,1.1,1.662,1.662,0,0,0,.759,1.558,1.375,1.375,0,0,1,.563,1.25c-.012.17-.034.444.056.5,1.344.857.94,2.743,2.172,3.66a.986.986,0,0,1,.376.929,1.557,1.557,0,0,0,.7,1.454,1.455,1.455,0,0,1,.622,1.354,1.131,1.131,0,0,0,.447,1.032,1.892,1.892,0,0,1,.872,1.775,1.018,1.018,0,0,0,.479.883,1.792,1.792,0,0,1,.824,1.663,1.007,1.007,0,0,0,.433.9,1.923,1.923,0,0,1,.881,1.772c-.052.492.331.783.66,1.065a1.6,1.6,0,0,1,.642,1.35c-.03.865.446,1.268,1.3,1.254v5.234c-.883.773-1.7,1.622-2.616,2.355h-32.7a6.778,6.778,0,0,0-3.289-1.9c-.73-.113-1.183-.829-1.681-1.356s-1.137-.912-1.642-1.44a.787.787,0,0,1,.015-.572c.8-.527,1.252.112,1.763.528.75.608,1.252,1.535,2.291,1.772a13.526,13.526,0,0,0,5.1.76c7.66-.047,15.322-.083,22.981.026a5.417,5.417,0,0,0,4.293-1.817c1.211-1.246,2.021-2.566,1.684-4.372a2.577,2.577,0,0,0-.811-1.853c-.143-.1-.3-.248-.315-.4-.106-1.564-1.161-2.772-1.849-4.017-.659-1.193-.759-2.734-1.947-3.637a.341.341,0,0,1-.142-.214c-.071-1.532-1.181-2.635-1.795-3.906-.583-1.209-.859-2.657-1.912-3.639-.1-.09-.217-.2-.221-.316-.058-1.536-1.182-2.635-1.8-3.9-.588-1.206-.833-2.67-1.907-3.639a.566.566,0,0,1-.219-.318c-.095-1.491-1.384-2.436-1.729-3.806-.093-.094-.178-.2-.261-.3-.385-.52-1.4-.634-1.055-1.628A.256.256,0,0,1,1113.786,2767.389Z" transform="translate(-1091.248 -2765.824)" fill="#828282"/>
        <path id="Контур_4117" data-name="Контур 4117" d="M1099.566,2790.332c.217-.5.622-.964.363-1.579-.016-.038-.027-.106-.006-.127.987-.982,1.3-2.319,1.85-3.527.015-.033.086-.04.1-.073a31.425,31.425,0,0,0,1.979-4.053c.027-.074-.043-.227-.008-.25,1.319-.859,1.021-2.659,2.119-3.642.064-.057.2-.106.2-.155-.065-1.54,1.585-2.363,1.608-3.861,0-.043-.025-.109,0-.127,1.071-.975,1.129-2.522,1.985-3.573.409-.5.845-.833.637-1.529-.012-.041-.026-.11-.006-.127,1.162-.958,1.113-2.581,2.039-3.687.7-.833,1.895-1.271,2.051-2.539H1115a.885.885,0,0,1,.272.718,1.485,1.485,0,0,1-.3.708c-.617.658-1.294,1.26-1.891,1.94-.522.429-.212,1.114-.492,1.618a5.68,5.68,0,0,1-.79.98c-.549.422-.238,1.119-.514,1.628a5.564,5.564,0,0,1-.792.988c-.55.422-.24,1.12-.515,1.629a5.54,5.54,0,0,1-.792.987c-.551.422-.24,1.12-.515,1.63a5.541,5.541,0,0,1-.792.987c-.551.423-.24,1.12-.516,1.63a5.583,5.583,0,0,1-.792.987c-.551.422-.24,1.12-.516,1.63a5.549,5.549,0,0,1-.792.987c-.551.422-.239,1.12-.515,1.63a5.559,5.559,0,0,1-.793.987c-.551.422-.24,1.12-.516,1.63a5.525,5.525,0,0,1-.792.987c-.551.422-.24,1.12-.515,1.63a5.51,5.51,0,0,1-.794.988c-.556.43-.23,1.146-.533,1.659-.26.413-.573.729-1.121.611l-.157-.124Z" transform="translate(-1097.355 -2761.483)" fill="#9a9a2b"/>
        <path id="Контур_4118" data-name="Контур 4118" d="M1168.922,2763.047q-.108.021-.217.03c-.867.169-1.291.426-.361,1.191a.949.949,0,0,1,.152,1.454,3.408,3.408,0,0,1-2.507-2.622c.329-.583.817-1.054,1.176-1.617h.523C1167.428,2762.534,1168.762,2762.327,1168.922,2763.047Z" transform="translate(-1146.383 -2761.483)" fill="#a1a171"/>
        <path id="Контур_4119" data-name="Контур 4119" d="M1158.516,2762.271l-.008-.788h2.877c.387.818-.173.986-.773,1.129C1159.9,2762.6,1159.129,2762.911,1158.516,2762.271Z" transform="translate(-1140.864 -2761.483)" fill="#858502"/>
        <path id="Контур_4120" data-name="Контур 4120" d="M1165.34,2762.293c.566.025.847-.228.791-.811h.261a1.283,1.283,0,0,1-1.022,1.547.246.246,0,0,1-.336.044C1164.817,2762.688,1165,2762.461,1165.34,2762.293Z" transform="translate(-1145.609 -2761.483)" fill="#9a9a2b"/>
        <path id="Контур_4121" data-name="Контур 4121" d="M1091.793,2801.587a.56.56,0,0,1,.026-.254,5.572,5.572,0,0,0,0-4.21q0-.248.006-.5c.9-.037,1.276-.513,1.232-1.4-.028-.565,0-1.146.8-1.168a.575.575,0,0,0-.082.234,4.981,4.981,0,0,0-.048.872,1.644,1.644,0,0,1,.166-.827l1.013-.616c.482-.517.024-1.3.51-1.815l.8-.8c.482-.517.024-1.3.51-1.815l.8-.8c.482-.517.024-1.3.51-1.815l.8-.8c.482-.517.024-1.3.51-1.815l.8-.8c.482-.517.024-1.3.51-1.815l.8-.8c.482-.517.024-1.3.51-1.815l.8-.8c.482-.517.023-1.3.51-1.814l.8-.8c.482-.517.024-1.3.51-1.815l.8-.8c.482-.517.024-1.3.51-1.815l.8-.8c.482-.517.023-1.3.51-1.815a7.915,7.915,0,0,1,1.831-1.82.435.435,0,0,1,.365.481c-1.323,2.133-2.309,4.445-3.439,6.676-1.072,2.115-2.157,4.234-3.16,6.391-.581,1.248-1.216,2.487-1.853,3.716a39.373,39.373,0,0,0-1.956,3.948,28.44,28.44,0,0,1-1.585,3.123c-1.119,2.1-2.029,4.3-3.233,6.364a4.431,4.431,0,0,0-.1,3.8,1.855,1.855,0,0,0,1.933,1.283c4.049-.3,8.1-.1,12.156-.129,5.1-.035,10.2-.013,15.3,0a4.343,4.343,0,0,1,2.056.256.735.735,0,0,1,.355.592.623.623,0,0,1-.31.368,5.092,5.092,0,0,1-1.811.139q-12.6.01-25.2.005a13.06,13.06,0,0,0-1.691.048,3.043,3.043,0,0,0-.754.281c-.217.079-.461.112-.61.325-1.09-.2-1.523-1.216-2.266-1.844C1092.785,2801.988,1092.449,2801.512,1091.793,2801.587Z" transform="translate(-1091.647 -2765.207)" fill="#a2a200"/>
        <path id="Контур_4122" data-name="Контур 4122" d="M1105.781,2809.24c-.06-.2-.056-.37.166-.467,9.616.186,19.234.01,26.9.079-6.832,0-15.611,0-24.39-.005-.636,0-1.323.152-1.841-.41.423-.347.923-.177,1.384-.178q13.076-.018,26.152-.014c.651,0,1.3-.073,1.953-.112a11.823,11.823,0,0,0,2.58-2.874c.487-.074.454.543.891.681a29.543,29.543,0,0,0-.006-3.257c-.436.1-.421.633-.837.607a7.937,7.937,0,0,0-1.519-1.765,2.69,2.69,0,0,1-.4-.831,1.9,1.9,0,0,0-.916-1.608,4.237,4.237,0,0,1-.4-1,1.848,1.848,0,0,0-.9-1.608,4.21,4.21,0,0,1-.406-1.006,1.849,1.849,0,0,0-.9-1.61,4.225,4.225,0,0,1-.406-1.007,1.849,1.849,0,0,0-.9-1.61,4.228,4.228,0,0,1-.406-1.007,1.848,1.848,0,0,0-.9-1.61,4.2,4.2,0,0,1-.406-1.007,1.849,1.849,0,0,0-.9-1.61,4.208,4.208,0,0,1-.406-1.007,1.848,1.848,0,0,0-.9-1.61,4.217,4.217,0,0,1-.406-1.007,1.851,1.851,0,0,0-.9-1.612,4.277,4.277,0,0,1-.408-1.014,2.08,2.08,0,0,0-.92-1.657,1.592,1.592,0,0,1-.183-.536,4.457,4.457,0,0,0-.515-2.345c.389-.572.354-1.351.895-1.851a15.726,15.726,0,0,0,1.964,3.823c.654,1.127.594,2.76,1.951,3.485a.366.366,0,0,1,.154.2,8.31,8.31,0,0,0,1.276,2.811c.557.746.7,1.854,1.38,2.725a7.819,7.819,0,0,1,1.075,2.265c.436,1.4,1.588,2.4,1.787,3.833.069.5.1.952.689,1.116.112.031.281.168.278.251-.051,1.6,1.6,2.495,1.655,4.01.026.685.8.8.846,1.144.205,1.524,1.555,2.509,1.756,3.979.111.812-.016,1.654.033,2.478.087,1.454-1.338,1.858-1.929,2.848-1.168,1.958-3.167,1.669-5.046,1.667-7.927-.011-15.855-.036-23.781.024A19,19,0,0,1,1105.781,2809.24Z" transform="translate(-1101.944 -2770.249)" fill="#4e4e4b"/>
        <path id="Контур_4123" data-name="Контур 4123" d="M1177.207,2772.424c-.142.689.341,1.647-.817,1.9a.6.6,0,0,1-.583-.206.787.787,0,0,1-.129-.413c.176-1.77.176-1.77,1.492-1.458A.857.857,0,0,0,1177.207,2772.424Z" transform="translate(-1153.53 -2769.307)" fill="#343426"/>
        <path id="Контур_4124" data-name="Контур 4124" d="M1173.4,2768.016c-1.505-.342-1.176.845-1.345,1.616-.1.043-.194.147-.279-.022a.4.4,0,0,1,.056-.446,1.124,1.124,0,0,0-.587-1.28c-.434-.253-.942-.631-.519-1.212.379-.521.9-.313,1.354,0C1171.941,2767.691,1173,2767.535,1173.4,2768.016Z" transform="translate(-1149.762 -2765.077)" fill="#77776f"/>
        <path id="Контур_4125" data-name="Контур 4125" d="M1157.632,2765.256l-.163-.233.28-.536,2.079.022-.257.648a.665.665,0,0,1-.317.366A1.431,1.431,0,0,1,1157.632,2765.256Z" transform="translate(-1140.097 -2763.699)" fill="#a2a200"/>
        <path id="Контур_4126" data-name="Контур 4126" d="M1114.047,2843.3c-.072.633.287,1.387-.51,1.815C1113.723,2844.517,1113.083,2843.685,1114.047,2843.3Z" transform="translate(-1107.661 -2821.839)" fill="#9d9d00"/>
        <path id="Контур_4127" data-name="Контур 4127" d="M1129,2813.374c-.071.633.287,1.386-.51,1.815C1128.68,2814.588,1128.041,2813.755,1129,2813.374Z" transform="translate(-1118.695 -2799.761)" fill="#9d9d00"/>
        <path id="Контур_4128" data-name="Контур 4128" d="M1133.99,2803.4c-.071.632.287,1.386-.51,1.815C1133.666,2804.612,1133.026,2803.78,1133.99,2803.4Z" transform="translate(-1122.373 -2792.403)" fill="#9d9d00"/>
        <path id="Контур_4129" data-name="Контур 4129" d="M1138.975,2793.422c-.071.633.288,1.386-.51,1.814C1138.651,2794.636,1138.012,2793.8,1138.975,2793.422Z" transform="translate(-1126.05 -2785.043)" fill="#9d9d00"/>
        <path id="Контур_4130" data-name="Контур 4130" d="M1104.076,2863.256c-.071.633.287,1.386-.51,1.815C1103.752,2864.47,1103.113,2863.637,1104.076,2863.256Z" transform="translate(-1100.306 -2836.558)" fill="#9d9d00"/>
        <path id="Контур_4131" data-name="Контур 4131" d="M1143.961,2783.445c-.071.633.287,1.387-.51,1.815C1143.637,2784.659,1143,2783.826,1143.961,2783.445Z" transform="translate(-1129.728 -2777.683)" fill="#9d9d00"/>
        <path id="Контур_4132" data-name="Контур 4132" d="M1148.947,2773.469c-.072.632.287,1.387-.51,1.815C1148.622,2774.683,1147.983,2773.85,1148.947,2773.469Z" transform="translate(-1133.406 -2770.324)" fill="#9d9d00"/>
        <path id="Контур_4133" data-name="Контур 4133" d="M1119.033,2833.327c-.072.633.287,1.387-.51,1.815C1118.708,2834.541,1118.069,2833.708,1119.033,2833.327Z" transform="translate(-1111.339 -2814.48)" fill="#9d9d00"/>
        <path id="Контур_4134" data-name="Контур 4134" d="M1124.018,2823.351c-.072.632.287,1.386-.51,1.815C1123.693,2824.565,1123.055,2823.732,1124.018,2823.351Z" transform="translate(-1115.017 -2807.121)" fill="#9d9d00"/>
        <path id="Контур_4135" data-name="Контур 4135" d="M1109.062,2853.28c-.072.633.287,1.386-.51,1.815C1108.737,2854.494,1108.1,2853.661,1109.062,2853.28Z" transform="translate(-1103.984 -2829.199)" fill="#9d9d00"/>
        <path id="Контур_4136" data-name="Контур 4136" d="M1091.906,2883.15c1.485.4.582,1.582.676,2.371.07.585.637,1.65-.676,1.839Z" transform="translate(-1091.733 -2851.234)" fill="#818100"/>
        <path id="Контур_4137" data-name="Контур 4137" d="M1163.746,2767.182l.26-.135.287.088a6.62,6.62,0,0,0,2.312,2.542l.223.468.138.318a3.04,3.04,0,0,1,.219.461c.1.51.552.811.753,1.259.121.144.035.356.161.5l.209.814c.3.451.609.89.89,1.351l.414,1.264a.293.293,0,0,1-.227.284.98.98,0,0,1-.7-.335,10.676,10.676,0,0,1-1.611-2.573c-.944-1.507-1.207-3.451-2.833-4.552C1163.686,2768.559,1163.142,2767.982,1163.746,2767.182Z" transform="translate(-1144.533 -2765.587)" fill="#ecec31"/>
        <path id="Контур_4138" data-name="Контур 4138" d="M1115.152,2767.457c-.026,1.446,1.414,1.8,2.09,2.73.253.347.584.581.53,1.048a1.559,1.559,0,0,0,.8,1.635c.11.067.329.135.324.186-.13,1.4.935,2.232,1.529,3.286.167,1.066,1.541,1.408,1.543,2.573a1.968,1.968,0,0,0,.79,1.521,1.234,1.234,0,0,1,.518,1.1,1.967,1.967,0,0,0,.791,1.519,1.232,1.232,0,0,1,.516,1.1,1.969,1.969,0,0,0,.791,1.519,1.233,1.233,0,0,1,.517,1.1,1.967,1.967,0,0,0,.791,1.519,1.235,1.235,0,0,1,.517,1.1,1.967,1.967,0,0,0,.791,1.519,1.234,1.234,0,0,1,.517,1.1,1.968,1.968,0,0,0,.792,1.519,1.237,1.237,0,0,1,.516,1.1,1.957,1.957,0,0,0,.8,1.522,1.518,1.518,0,0,1,.559,1.1,2.058,2.058,0,0,0,.57,1.383c1.047,1.051,1.029,1.48.009,2.533a2.009,2.009,0,0,0-.586.833,3.616,3.616,0,0,1-1.427,1.3q-13.775.02-27.55.04a12.58,12.58,0,0,0-1.434.04,2.557,2.557,0,0,1-3.149-2.712,8.068,8.068,0,0,1,.948-3.986,36.966,36.966,0,0,0,1.882-3.787c.445-1.158.8-2.683,1.917-3.62a1.245,1.245,0,0,0,.481-1.026c-.005-.217-.058-.558.052-.632,1.281-.857.966-2.631,2.079-3.572a1.253,1.253,0,0,0,.484-1.025c-.005-.216-.058-.558.052-.632,1.285-.856.961-2.633,2.076-3.573a1.252,1.252,0,0,0,.487-1.024c-.005-.216-.058-.558.052-.632,1.28-.859.956-2.635,2.072-3.575a1.274,1.274,0,0,0,.494-1.022c0-.258-.046-.657.093-.752,1.405-.957.972-3.051,2.464-3.943.123-.073.158-.293.233-.444Z" transform="translate(-1095.939 -2765.862)" fill="#fefe00"/>
        <path id="Контур_4139" data-name="Контур 4139" d="M1107.179,2907.051c4.791.021,9.583.049,14.374.059,4.837.011,9.673,0,14.51.016.484,0,1.056-.207,1.446.329-.29.6-.831.4-1.269.4q-13.6.016-27.19.007a5.691,5.691,0,0,1-2.545-.47Z" transform="translate(-1102.503 -2868.864)"/>
        <path id="Контур_4140" data-name="Контур 4140" d="M1223.909,2884.392a3.859,3.859,0,0,1-2.611,2.734c-.022-.091-.044-.182-.066-.272.517-1.091,1.7-1.655,2.178-2.779a4.188,4.188,0,0,0,.012-1.6,3.4,3.4,0,0,0-.811-1.3.884.884,0,0,1-.178-.3c-.019-.185,0-.352.214-.417a1.6,1.6,0,0,1,1.262,1.686A1.925,1.925,0,0,1,1223.909,2884.392Z" transform="translate(-1187.133 -2849.242)" fill="#919176"/>
        <path id="Контур_4141" data-name="Контур 4141" d="M1222.67,2895.162a5.411,5.411,0,0,1-2.272,2.5l-.3-.178c.093-.682.687-.929,1.135-1.3C1221.614,2895.7,1221.746,2894.873,1222.67,2895.162Z" transform="translate(-1186.3 -2860.05)" fill="#dcdc5e"/>
        <path id="Контур_4142" data-name="Контур 4142" d="M1098.168,2872.392a1.157,1.157,0,0,1,.052.118c.186.572.386,1.151-.125,1.662a.358.358,0,0,1-.313-.094c-.25-.624-.364-1.241.269-1.732Z" transform="translate(-1095.921 -2843.264)" fill="#9d9d00"/>
        <path id="Контур_4143" data-name="Контур 4143" d="M1231.437,2885.631q0-1.127,0-2.255c.493-.285-.118-1.391.731-1.23.725.137.514.988.528,1.576.017.694,0,1.389,0,2.084,0,.5-.073,1.087-.645,1.1-.505.01-.336-.6-.427-.951A1.342,1.342,0,0,0,1231.437,2885.631Z" transform="translate(-1194.661 -2850.481)" fill="#35351e"/>
        <path id="Контур_4144" data-name="Контур 4144" d="M1221.234,2873.558l-.133.457c-.231.068-.347-.066-.434-.249-.031-.343-.069-.65-.458-.829a1.475,1.475,0,0,1-.85-1.788c.27-.141.407.108.6.2a5.384,5.384,0,0,1,.893,1.2Z" transform="translate(-1185.721 -2842.349)" fill="#ecec31"/>
        <path id="Контур_4145" data-name="Контур 4145" d="M1210.7,2853.813c-.031-.343-.069-.65-.458-.829a1.474,1.474,0,0,1-.849-1.788c.27-.141.407.107.6.2a5.391,5.391,0,0,1,.893,1.2l.414,1.263a.323.323,0,0,1-.124.268C1210.909,2854.175,1210.8,2854,1210.7,2853.813Z" transform="translate(-1178.365 -2827.63)" fill="#ecec31"/>
        <path id="Контур_4146" data-name="Контур 4146" d="M1206.141,2844.087l-.431-.25c-.039-.338-.065-.65-.458-.829a1.472,1.472,0,0,1-.85-1.787c.27-.141.407.107.6.2a5.388,5.388,0,0,1,.893,1.2l.414,1.264A.2.2,0,0,1,1206.141,2844.087Z" transform="translate(-1174.687 -2820.271)" fill="#ecec31"/>
        <path id="Контур_4147" data-name="Контур 4147" d="M1195.74,2823.884c-.031-.343-.069-.65-.459-.828a1.475,1.475,0,0,1-.849-1.789c.27-.141.407.108.6.2a5.4,5.4,0,0,1,.893,1.2l.414,1.263a.323.323,0,0,1-.124.268C1195.952,2824.246,1195.839,2824.075,1195.74,2823.884Z" transform="translate(-1167.332 -2805.553)" fill="#ecec31"/>
        <path id="Контур_4148" data-name="Контур 4148" d="M1185.764,2804.049c-.031-.342-.07-.649-.459-.829a1.473,1.473,0,0,1-.849-1.789l.43.251c.589.165.743.731,1.059,1.148l.415,1.264a.323.323,0,0,1-.124.268C1185.977,2804.411,1185.864,2804.24,1185.764,2804.049Z" transform="translate(-1159.972 -2790.952)" fill="#ecec31"/>
        <path id="Контур_4149" data-name="Контур 4149" d="M1214.37,2861.291l.43.25c.589.165.743.731,1.059,1.148l.414,1.264a.2.2,0,0,1-.165.206l-.43-.25c-.039-.338-.066-.65-.458-.83A1.47,1.47,0,0,1,1214.37,2861.291Z" transform="translate(-1182.039 -2835.108)" fill="#ecec31"/>
        <path id="Контур_4150" data-name="Контур 4150" d="M1189.442,2811.408l.43.25c.589.165.743.731,1.059,1.148l.414,1.263a.2.2,0,0,1-.165.206l-.43-.25c-.039-.338-.066-.65-.458-.83A1.469,1.469,0,0,1,1189.442,2811.408Z" transform="translate(-1163.65 -2798.311)" fill="#ecec31"/>
        <path id="Контур_4151" data-name="Контур 4151" d="M1199.413,2831.362l.43.25c.589.165.743.731,1.059,1.148l.414,1.263a.2.2,0,0,1-.166.205l-.43-.25c-.039-.338-.066-.65-.458-.829A1.47,1.47,0,0,1,1199.413,2831.362Z" transform="translate(-1171.006 -2813.03)" fill="#ecec31"/>
        <path id="Контур_4152" data-name="Контур 4152" d="M1208.28,2833.9c-.038.376.059.878-.388.868s-.356-.509-.347-.836-.09-.829.36-.822C1208.337,2833.114,1208.232,2833.622,1208.28,2833.9Z" transform="translate(-1177.028 -2814.318)"/>
        <path id="Контур_4153" data-name="Контур 4153" d="M1228.205,2873.876c-.065.356.061.865-.433.806-.434-.052-.319-.546-.3-.869.014-.3-.105-.821.4-.764C1228.3,2873.1,1228.136,2873.6,1228.205,2873.876Z" transform="translate(-1191.716 -2843.779)"/>
        <path id="Контур_4154" data-name="Контур 4154" d="M1183.019,2782.369c.342.781.487,1.328.037,1.86a.359.359,0,0,1-.315-.072A1.526,1.526,0,0,1,1183.019,2782.369Z" transform="translate(-1158.613 -2776.89)"/>
        <path id="Контур_4155" data-name="Контур 4155" d="M1188.311,2794.118c-.056.3.071.813-.423.753-.434-.052-.319-.546-.3-.869.014-.3-.105-.822.4-.763C1188.4,2793.289,1188.275,2793.783,1188.311,2794.118Z" transform="translate(-1162.294 -2784.905)"/>
        <path id="Контур_4156" data-name="Контур 4156" d="M1223.223,2863.881c-.059.361.059.867-.425.818-.434-.044-.326-.54-.312-.864.013-.308-.1-.822.39-.775C1223.306,2863.1,1223.158,2863.607,1223.223,2863.881Z" transform="translate(-1188.043 -2836.411)"/>
        <path id="Контур_4157" data-name="Контур 4157" d="M1193.3,2804.1c-.056.3.071.812-.423.753-.434-.052-.319-.546-.3-.868.014-.305-.105-.822.4-.763C1193.385,2803.265,1193.261,2803.76,1193.3,2804.1Z" transform="translate(-1165.971 -2792.265)"/>
        <path id="Контур_4158" data-name="Контур 4158" d="M1197.8,2812.863c.684.488.479,1.071.278,1.628a.226.226,0,0,1-.412.02A1.457,1.457,0,0,1,1197.8,2812.863Z" transform="translate(-1169.604 -2799.384)"/>
        <path id="Контур_4159" data-name="Контур 4159" d="M1218.229,2853.934c-.069.351.06.862-.441.793-.431-.059-.313-.552-.3-.875.016-.3-.111-.822.4-.753C1218.32,2853.155,1218.159,2853.656,1218.229,2853.934Z" transform="translate(-1184.355 -2829.061)"/>
        <path id="Контур_4160" data-name="Контур 4160" d="M1213.255,2843.941c-.039.322.068.825-.392.8-.441-.02-.348-.518-.337-.844s-.093-.827.369-.808C1213.318,2843.11,1213.226,2843.61,1213.255,2843.941Z" transform="translate(-1180.7 -2821.684)"/>
        <path id="Контур_4161" data-name="Контур 4161" d="M1202.781,2822.84c.684.487.479,1.071.278,1.628a.226.226,0,0,1-.412.019A1.455,1.455,0,0,1,1202.781,2822.84Z" transform="translate(-1173.282 -2806.744)"/>
        <path id="Контур_4162" data-name="Контур 4162" d="M1202.237,2832.885a1.484,1.484,0,0,1-1.059-1.148c.054-.069.109-.138.164-.206A.969.969,0,0,1,1202.237,2832.885Z" transform="translate(-1172.34 -2813.155)" fill="#bcbc89"/>
        <path id="Контур_4163" data-name="Контур 4163" d="M1211.148,2851.69c.055-.069.11-.138.165-.206a.97.97,0,0,1,.895,1.355A1.49,1.49,0,0,1,1211.148,2851.69Z" transform="translate(-1179.695 -2827.874)" fill="#bcbc89"/>
        <path id="Контур_4164" data-name="Контур 4164" d="M1206.162,2841.714l.165-.206a.97.97,0,0,1,.895,1.356A1.489,1.489,0,0,1,1206.162,2841.714Z" transform="translate(-1176.017 -2820.515)" fill="#bcbc89"/>
        <path id="Контур_4165" data-name="Контур 4165" d="M1217.194,2862.814a1.484,1.484,0,0,1-1.059-1.148c.054-.069.109-.138.165-.206A.969.969,0,0,1,1217.194,2862.814Z" transform="translate(-1183.373 -2835.233)" fill="#bcbc89"/>
        <path id="Контур_4166" data-name="Контур 4166" d="M1187.28,2802.956a1.483,1.483,0,0,1-1.058-1.148c.054-.069.109-.138.164-.206A.969.969,0,0,1,1187.28,2802.956Z" transform="translate(-1161.308 -2791.078)" fill="#bcbc89"/>
        <path id="Контур_4167" data-name="Контур 4167" d="M1192.266,2812.933a1.484,1.484,0,0,1-1.059-1.148c.054-.069.109-.138.165-.206A.969.969,0,0,1,1192.266,2812.933Z" transform="translate(-1164.985 -2798.437)" fill="#bcbc89"/>
        <path id="Контур_4168" data-name="Контур 4168" d="M1221.119,2871.643c.055-.069.109-.138.165-.206a.97.97,0,0,1,.895,1.356A1.489,1.489,0,0,1,1221.119,2871.643Z" transform="translate(-1187.05 -2842.592)" fill="#bcbc89"/>
        <path id="Контур_4169" data-name="Контур 4169" d="M1182.62,2792.987c-.611-.244-1.11-.561-.891-1.351A.965.965,0,0,1,1182.62,2792.987Z" transform="translate(-1157.954 -2783.726)" fill="#bcbc89"/>
        <path id="Контур_4170" data-name="Контур 4170" d="M1196.191,2821.761l.165-.206a.971.971,0,0,1,.895,1.356A1.49,1.49,0,0,1,1196.191,2821.761Z" transform="translate(-1168.661 -2805.796)" fill="#bcbc89"/>
        <path id="Контур_4171" data-name="Контур 4171" d="M1176.785,2780.54c-.007-.162-.013-.323-.019-.483l.427.144c.9.47.916,1.24.706,2.083-.084-.154-.167-.306-.25-.458A8.35,8.35,0,0,0,1176.785,2780.54Z" transform="translate(-1154.332 -2775.184)" fill="#77776f"/>
        <path id="Контур_4172" data-name="Контур 4172" d="M1228.448,2902.866c-.117.208-.248.457-.543.367a.456.456,0,0,1-.224-.378.392.392,0,0,1,.523-.367A.3.3,0,0,1,1228.448,2902.866Z" transform="translate(-1191.89 -2865.486)" fill="#272727"/>
        <path id="Контур_4173" data-name="Контур 4173" d="M1172.616,2768.514a.579.579,0,0,1-.5-.488c-.02-.238.175-.369.406-.366a.428.428,0,0,1,.422.385C1172.985,2768.282,1172.831,2768.427,1172.616,2768.514Z" transform="translate(-1150.9 -2766.04)" fill="#3b3b38"/>
        <path id="Контур_4174" data-name="Контур 4174" d="M1176.74,2781.9c.671.173,1.064.532.865,1.288C1177.043,2782.938,1176.57,2782.634,1176.74,2781.9Z" transform="translate(-1154.287 -2776.542)" fill="#bcbc89"/>
        <path id="Контур_4175" data-name="Контур 4175" d="M1155.9,2820.847l-.077.38c-.205.395-.237.871-.561,1.211-.367.341-.325.814-.4,1.25-.141.267-.167.572-.287.845-.649.523-1.3,1.276-1.933-.016a5.1,5.1,0,0,0-.263-.844c-.069-.434-.037-.9-.4-1.24-.321-.339-.35-.814-.556-1.206l-.07-.375c-.126-.344-.07-.734-.269-1.059-.094-.437-.029-.926-.408-1.273-.324-.343-.354-.822-.561-1.219l-.068-.377a36.906,36.906,0,0,1,.061-6.4c.329-.468.689-.581,1.1-.1.019,1.039-.185,2.066-.174,3.113a12.14,12.14,0,0,0,.785,4.027c.645,1.815,1.285,3.656,1.814,5.258a24.714,24.714,0,0,1,1.956-4.69,4.467,4.467,0,0,0,.606-2.08,50.4,50.4,0,0,0-.17-5.6c.383-.5.747-.411,1.1.037a42.07,42.07,0,0,1,.023,7.82c-.122.6-1.075.639-.955,1.407A4.576,4.576,0,0,0,1155.9,2820.847Z" transform="translate(-1134.542 -2797.357)" fill="#89890b"/>
        <path id="Контур_4176" data-name="Контур 4176" d="M1149.945,2806.122c-.576,1.607-.172,3.272-.283,4.907-.038.562-.021,1.127-.03,1.69a33.918,33.918,0,0,1-.124-7.209c.021-.718.732-1.113,1.536-1.1,1.383.026,2.766.026,4.149.037.227.146.733.058.5.594a1.2,1.2,0,0,1-.879.4,14.1,14.1,0,0,0-3.061.007A1.707,1.707,0,0,0,1149.945,2806.122Z" transform="translate(-1134.127 -2793.151)" fill="#e0e032"/>
        <path id="Контур_4177" data-name="Контур 4177" d="M1172.052,2804.978l-.5-.458c1.219-.11,1.8.491,1.795,1.671,0,2.747-.019,5.493-.03,8.24-.1.227-.229.412-.523.267a.223.223,0,0,1,.035-.3,23.957,23.957,0,0,0,.006-8.207C1172.56,2805.794,1172.046,2805.552,1172.052,2804.978Z" transform="translate(-1150.484 -2793.22)" fill="#e0e032"/>
        <path id="Контур_4178" data-name="Контур 4178" d="M1154.605,2873.734c-.01-.992-.052-1.986-.021-2.977a1.381,1.381,0,0,1,1.467-1.468c.991-.031,1.984.011,2.975.021.192.163.766.02.462.579a.97.97,0,0,1-.348.154,5.411,5.411,0,0,0-2.744.091.926.926,0,0,0-.969.964,5.32,5.32,0,0,0-.085,2.738.955.955,0,0,1-.15.354C1154.628,2874.512,1154.768,2873.929,1154.605,2873.734Z" transform="translate(-1137.961 -2841.001)" fill="#e0e032"/>
        <path id="Контур_4179" data-name="Контур 4179" d="M1224.345,2881.245l.434.249a.428.428,0,0,1,.15,0c.275.4.584.772.854,1.173a4.191,4.191,0,0,1-.014,2.271c-.691.042-.894.768-1.434,1.02-.106-.63.331-.95.75-1.251.794-.572.813-1.149.015-1.693A1.589,1.589,0,0,1,1224.345,2881.245Z" transform="translate(-1189.398 -2849.828)" fill="#ecec31"/>
        <path id="Контур_4180" data-name="Контур 4180" d="M1173.237,2874.584c.012.9.026,1.791.034,2.686.011,1.208-.529,1.851-1.8,1.737-.117-.347.167-.5.336-.711a1.514,1.514,0,0,0,.621-1.12,5.414,5.414,0,0,0,.072-2.7.939.939,0,0,1,.153-.35C1173.216,2873.813,1173.075,2874.389,1173.237,2874.584Z" transform="translate(-1150.408 -2844.508)" fill="#e0e032"/>
        <path id="Контур_4181" data-name="Контур 4181" d="M1159.583,2887.571l-.5.458c-.9.011-1.791.026-2.686.034-1.208.01-1.85-.532-1.736-1.8l.458.5c.5-.014.839.467,1.344.442a6.6,6.6,0,0,0,2.816.126A.591.591,0,0,1,1159.583,2887.571Z" transform="translate(-1138.014 -2853.529)" fill="#e0e032"/>
        <path id="Контур_4182" data-name="Контур 4182" d="M1151.224,2839.848q.035.608.069,1.215c-.1-.188-.155-.469-.311-.549-1.346-.693-1.24-1.812-.928-3l.683.969A5.652,5.652,0,0,0,1151.224,2839.848Z" transform="translate(-1134.48 -2817.565)" fill="#e0e032"/>
        <path id="Контур_4183" data-name="Контур 4183" d="M1156.13,2854.813q.026.478.052.954a2.5,2.5,0,0,1-1.222-3.292l.683.968A5.653,5.653,0,0,0,1156.13,2854.813Z" transform="translate(-1138.079 -2828.605)" fill="#e0e032"/>
        <path id="Контур_4184" data-name="Контур 4184" d="M1168.191,2853.444l.682-.968c.6,1.486-.025,2.511-1.249,3.308.026-.324.053-.647.079-.97A5.667,5.667,0,0,0,1168.191,2853.444Z" transform="translate(-1147.588 -2828.606)" fill="#e0e032"/>
        <path id="Контур_4185" data-name="Контур 4185" d="M1173.7,2842.59l.45-.252c.2,1.2-1.226,1.362-1.469,2.281q.04-.606.079-1.211C1172.936,2842.981,1173.171,2842.618,1173.7,2842.59Z" transform="translate(-1151.316 -2821.127)" fill="#e5e532"/>
        <path id="Контур_4186" data-name="Контур 4186" d="M1173.313,2871.143l-.457-.5a.832.832,0,0,1-.8-.8l-.5-.458Q1173.449,2869.242,1173.313,2871.143Z" transform="translate(-1150.484 -2841.067)" fill="#e0e032"/>
        <path id="Контур_4187" data-name="Контур 4187" d="M1227.5,2883.373c-.466-.26-.964-.5-.855-1.174A1.066,1.066,0,0,1,1227.5,2883.373Z" transform="translate(-1191.117 -2850.531)" fill="#bcbc83"/>
        <path id="Контур_4188" data-name="Контур 4188" d="M1233.529,2887.847v-3.579h.146v3.57Z" transform="translate(-1196.205 -2852.058)"/>
        <path id="Контур_4189" data-name="Контур 4189" d="M1153.588,2806.649a9.58,9.58,0,0,1,3.734,0,1.912,1.912,0,0,1,.744,1.123,4.257,4.257,0,0,1,.374,2.525c.011,1.219-.02,2.438.012,3.656a1.667,1.667,0,0,1-.72,1.691c-.143.086-.345.25-.343.375.023,1.785-1.693,3.01-1.545,4.834.027.333.038.843-.391.841s-.367-.508-.395-.846a3.635,3.635,0,0,0-.983-2.733c-.393-.344-.292-.884-.337-1.356a3.394,3.394,0,0,0-.9-2.5.722.722,0,0,1-.246-.45c-.082-2.018-.456-4.051.253-6.036A1.909,1.909,0,0,1,1153.588,2806.649Z" transform="translate(-1136.372 -2794.665)" fill="#020201"/>
        <path id="Контур_4190" data-name="Контур 4190" d="M1152.946,2806.776c.08.592-.3.879-.744,1.123-.171-.275-.438-.083-.654-.135C1151.669,2806.946,1151.953,2806.357,1152.946,2806.776Z" transform="translate(-1135.729 -2794.792)" fill="#bebe8d"/>
        <path id="Контур_4191" data-name="Контур 4191" d="M1171.823,2807.652c-.446-.243-.824-.531-.745-1.123l.619-.226a1.308,1.308,0,0,1,.779,1.214C1172.26,2807.569,1171.993,2807.378,1171.823,2807.652Z" transform="translate(-1150.129 -2794.545)" fill="#bebe8d"/>
        <path id="Контур_4192" data-name="Контур 4192" d="M1152.886,2842.572c-.7-.265-1.075-.646-.487-1.369C1153.092,2841.47,1153.088,2841.985,1152.886,2842.572Z" transform="translate(-1136.143 -2820.29)" fill="#cbcb8d"/>
        <path id="Контур_4193" data-name="Контур 4193" d="M1157.871,2857.537c-.7-.265-1.075-.646-.487-1.369C1158.078,2856.435,1158.074,2856.95,1157.871,2857.537Z" transform="translate(-1139.82 -2831.329)" fill="#cbcb8d"/>
        <path id="Контур_4194" data-name="Контур 4194" d="M1168.08,2856.166c.585.724.215,1.106-.489,1.369C1167.39,2856.948,1167.386,2856.433,1168.08,2856.166Z" transform="translate(-1147.478 -2831.328)" fill="#cbcb8d"/>
        <path id="Контур_4195" data-name="Контур 4195" d="M1173.631,2842.494a1.655,1.655,0,0,1-.941.818c-.311-.868.123-1.126.9-1.1C1173.606,2842.3,1173.618,2842.4,1173.631,2842.494Z" transform="translate(-1151.251 -2821.031)" fill="#d0d08e"/>
        <path id="Контур_4196" data-name="Контур 4196" d="M1159.953,2875.627a3.708,3.708,0,0,1-3.135,0l-.964-.967a3.711,3.711,0,0,1,0-3.136q.485-.482.967-.967a3.706,3.706,0,0,1,3.135,0l.964.965a3.712,3.712,0,0,1,0,3.137Q1160.435,2875.145,1159.953,2875.627Z" transform="translate(-1138.648 -2841.689)" fill="#818144"/>
        <path id="Контур_4197" data-name="Контур 4197" d="M1157.789,2871.533c.027.673-.3.994-.967.967A.832.832,0,0,1,1157.789,2871.533Z" transform="translate(-1139.619 -2842.663)" fill="#bebe8d"/>
        <path id="Контур_4198" data-name="Контур 4198" d="M1156.543,2887.174c.673-.028.992.3.965.967-.578.1-.8-.334-1.068-.7Z" transform="translate(-1139.338 -2854.2)" fill="#bebe8d"/>
        <path id="Контур_4199" data-name="Контур 4199" d="M1173.421,2872.217c-.671.027-.992-.3-.965-.966l.264-.1.8.8Z" transform="translate(-1151.152 -2842.38)" fill="#bebe8d"/>
        <path id="Контур_4200" data-name="Контур 4200" d="M1172.457,2888.138c-.028-.673.3-.992.967-.965.1.578-.335.8-.7,1.068Z" transform="translate(-1151.153 -2854.199)" fill="#bebe8d"/>
        <path id="Контур_4201" data-name="Контур 4201" d="M1159.29,2871.393a3.665,3.665,0,0,1,2.534,2.545,2.572,2.572,0,1,1-5.142-.075A3.7,3.7,0,0,1,1159.29,2871.393Z" transform="translate(-1139.516 -2842.561)" fill="#37371b"/>
        <path id="Контур_4202" data-name="Контур 4202" d="M1160.561,2877.4a4.522,4.522,0,0,1-2.069-2.093c0-.555,1.65-2.142,2.189-2.1a4.631,4.631,0,0,1,2,2.159A4.926,4.926,0,0,1,1160.561,2877.4Z" transform="translate(-1140.852 -2843.893)"/>
      </g>
    </g>
    <path id="Контур_4206" data-name="Контур 4206" d="M4.316,13.3v-1.94H.371V9.746L4.553,3.625H6.1V9.74H7.3v1.624H6.1V13.3Zm0-3.564V6.446L2.1,9.74Zm6.989-6.115a2.634,2.634,0,0,1,2.189,1,6.38,6.38,0,0,1,.94,3.925,6.4,6.4,0,0,1-.947,3.932,2.629,2.629,0,0,1-2.183.986,2.758,2.758,0,0,1-2.268-1.082A6.393,6.393,0,0,1,8.175,8.53a6.368,6.368,0,0,1,.947-3.919A2.629,2.629,0,0,1,11.305,3.625Zm0,1.532a.923.923,0,0,0-.6.214,1.435,1.435,0,0,0-.408.766,10.565,10.565,0,0,0-.191,2.413,10.487,10.487,0,0,0,.171,2.331,1.639,1.639,0,0,0,.431.845.946.946,0,0,0,1.193,0,1.435,1.435,0,0,0,.408-.766A10.472,10.472,0,0,0,12.5,8.55a10.487,10.487,0,0,0-.171-2.331,1.662,1.662,0,0,0-.431-.848A.91.91,0,0,0,11.305,5.157ZM19.294,13.3v-1.94H15.349V9.746L19.53,3.625h1.552V9.74h1.2v1.624h-1.2V13.3Zm0-3.564V6.446L17.078,9.74Z" transform="translate(557.527 292.756)" fill="#fff"/>
  </g>
</svg>
