<!-- <svg xmlns="http://www.w3.org/2000/svg" width="151" height="90" viewBox="0 0 151 90">
  <rect id="Прямоугольник_128" data-name="Прямоугольник 128" width="143" height="5" transform="translate(0 66)" fill="#e6345e"/>
  <text id="WINDNFIRE_MARKETING_AGENCY_THAT_WORKS_WITH_HARD_TO_MONETIZE_PROJECTS" data-name="WINDNFIRE — 
MARKETING AGENCY 
THAT WORKS WITH 
HARD TO MONETIZE 
PROJECTS" transform="translate(1 15)" font-size="15" font-family="WombyRUSbyDaymarius, 'Womby \[RUS by Daymarius\]'"><tspan x="0" y="0">WINDNFIRE — </tspan><tspan x="0" y="18">MARKETING AGENCY </tspan><tspan x="0" y="36">THAT WORKS WITH </tspan><tspan x="0" y="54">HARD TO MONETIZE </tspan><tspan x="0" y="72">PROJECTS</tspan></text>
</svg> -->
<svg xmlns="http://www.w3.org/2000/svg" width="145.795" height="83.041" viewBox="0 0 145.795 83.041">
  <path id="Контур_4263" data-name="Контур 4263" d="M0,0H143V5H0Z" transform="translate(0 61.725)" fill="#e6345e"/>
  <path id="Контур_4262" data-name="Контур 4262" d="M9.135-10.605h2.34V0h-2.7L6.045-4.515,3.3,0H.6V-10.605H3.3V-4.62l1.32-2.4L4.7-7.14H7.4l.06.12,1.32,2.4v-5.985Zm6.24,0V0h-2.7V-10.605Zm7.035,0h2.7V0h-2.7L19.29-5.685V0H16.575V-10.605H19.29L22.41-4.92Zm6.615-.12q1.125,0,1.935.083a6.251,6.251,0,0,1,1.6.382,4.594,4.594,0,0,1,1.463.915,5.26,5.26,0,0,1,1.3,1.823,5.444,5.444,0,0,1,.458,2.182,5.163,5.163,0,0,1-.585,2.445A4.848,4.848,0,0,1,33.548-1.02a5.76,5.76,0,0,1-2.16.848,15.743,15.743,0,0,1-2.677.2L27.48.015Q27.09,0,26.31,0V-10.725ZM33.12-4.71a2.987,2.987,0,0,0,.075-.63,2.718,2.718,0,0,0-.36-1.358,2.846,2.846,0,0,0-.983-1.028,2.612,2.612,0,0,0-1.358-.405h-1.47V-2.6a11.568,11.568,0,0,0,1.852-.128,3.156,3.156,0,0,0,1.4-.593A2.357,2.357,0,0,0,33.12-4.71Zm9.39-5.9h2.7V0h-2.7L39.39-5.685V0H36.675V-10.605H39.39L42.51-4.92Zm11.28,2.3H49.11v1.86h3.75v2.3H49.11V0h-2.7V-10.605h7.38Zm3.6-2.3V0h-2.7V-10.605ZM67.245,0H64.53L62.85-4.005H61.125V0H58.59V-10.605h5.055a3.24,3.24,0,0,1,1.65.443A3.254,3.254,0,0,1,66.5-8.955a3.24,3.24,0,0,1,.442,1.65,3.2,3.2,0,0,1-.4,1.583,3.431,3.431,0,0,1-1.1,1.192Zm-2.7-7.32a1.107,1.107,0,0,0-.285-.757,1,1,0,0,0-.7-.352h-2.49v2.25h2.49a1.063,1.063,0,0,0,.7-.367A1.127,1.127,0,0,0,64.545-7.32ZM75.36-2.3V0H68.145V-10.605h7.08v2.3H70.86v1.86h3.675v2.3H70.86V-2.3ZM80.91-6.33h11.9V-4.2H80.91ZM8.775,7.395h2.7V18h-2.7V12.015l-1.32,2.4-.06.12H4.7l-.075-.12-.18-.345L3.315,12.015V18H.6V7.395H3.315l2.73,4.515Zm9.42.1L21.66,18H19.05l-.69-2.145H15.075L14.4,18H11.775l3.48-10.5ZM15.78,13.665h1.89l-.945-2.97ZM30.615,18H27.9l-1.68-4.005H24.5V18H21.96V7.395h5.055a3.3,3.3,0,0,1,3.3,3.3,3.2,3.2,0,0,1-.4,1.583,3.431,3.431,0,0,1-1.1,1.192Zm-2.7-7.32a1.107,1.107,0,0,0-.285-.757,1,1,0,0,0-.7-.352h-2.49v2.25h2.49a1.063,1.063,0,0,0,.7-.368A1.127,1.127,0,0,0,27.915,10.68Zm8.745,1.965L39.825,18h-3l-2.61-4.275V18h-2.7V7.395h2.7v4.14l2.61-4.14h3ZM48.24,15.7V18H41.025V7.395h7.08v2.3H43.74v1.86h3.675v2.3H43.74V15.7Zm9.195-8.31v2.7H54.72V18H52.005V10.095H49.29v-2.7h8.145Zm3.75,0V18h-2.7V7.395Zm7.035,0h2.7V18h-2.7L65.1,12.315V18H62.385V7.395H65.1l3.12,5.685ZM82.4,11.5a5.769,5.769,0,0,1,.15,1.245,5.22,5.22,0,0,1-.72,2.685,5.345,5.345,0,0,1-1.957,1.95,5.38,5.38,0,0,1-5.378,0,5.362,5.362,0,0,1-1.95-1.95,5.38,5.38,0,0,1,0-5.377A5.345,5.345,0,0,1,74.49,8.1a5.39,5.39,0,0,1,4.777-.3,5.292,5.292,0,0,1,1.717,1.17L78.57,10.35a2.676,2.676,0,0,0-1.4-.375,2.649,2.649,0,0,0-1.38.375,2.827,2.827,0,0,0-1.005,1.012,2.688,2.688,0,0,0-.375,1.388,2.649,2.649,0,0,0,.375,1.38A2.846,2.846,0,0,0,75.8,15.135a2.649,2.649,0,0,0,1.38.375A2.691,2.691,0,0,0,78.63,15.1a2.811,2.811,0,0,0,1.02-1.1H76.32V11.5H82.4ZM93.465,7.5,96.93,18H94.32l-.69-2.145H90.345L89.67,18H87.045l3.48-10.5ZM91.05,13.665h1.89L92,10.695Zm16.455-2.16a5.769,5.769,0,0,1,.15,1.245,5.22,5.22,0,0,1-.72,2.685,5.345,5.345,0,0,1-1.957,1.95,5.38,5.38,0,0,1-5.378,0,5.362,5.362,0,0,1-1.95-1.95,5.38,5.38,0,0,1,0-5.377A5.345,5.345,0,0,1,99.6,8.1a5.39,5.39,0,0,1,4.777-.3A5.292,5.292,0,0,1,106.1,8.97l-2.415,1.38a2.676,2.676,0,0,0-1.4-.375,2.649,2.649,0,0,0-1.38.375A2.827,2.827,0,0,0,99.9,11.362a2.688,2.688,0,0,0-.375,1.388,2.649,2.649,0,0,0,.375,1.38,2.846,2.846,0,0,0,1.005,1.005,2.649,2.649,0,0,0,1.38.375,2.691,2.691,0,0,0,1.455-.413,2.811,2.811,0,0,0,1.02-1.1h-3.33V11.5h6.075Zm8.265,4.2V18h-7.215V7.395h7.08v2.3H111.27v1.86h3.675v2.3H111.27V15.7Zm7.035-8.31h2.7V18h-2.7l-3.12-5.685V18H116.97V7.395h2.715l3.12,5.685Zm8.955,8.1a2.688,2.688,0,0,0,1.065-.217,2.963,2.963,0,0,0,.9-.593l1.83,1.83a5.384,5.384,0,0,1-1.725,1.163,5.381,5.381,0,0,1-4.755-.307,5.362,5.362,0,0,1-1.95-1.95,5.38,5.38,0,0,1,0-5.378,5.345,5.345,0,0,1,1.95-1.957,5.381,5.381,0,0,1,4.755-.307,5.385,5.385,0,0,1,1.725,1.162l-1.83,1.83a2.963,2.963,0,0,0-.9-.592,2.688,2.688,0,0,0-1.065-.217,2.649,2.649,0,0,0-1.38.375,2.827,2.827,0,0,0-1.005,1.013A2.688,2.688,0,0,0,129,12.735a2.649,2.649,0,0,0,.375,1.38,2.846,2.846,0,0,0,1.005,1.005A2.649,2.649,0,0,0,131.76,15.495Zm10.335-8.1h2.7l-3.12,6.285V18h-2.7V13.68l-3.12-6.285h2.7l1.77,3.615ZM8.6,25.4v2.7H5.88V36H3.165V28.095H.45V25.4H8.6Zm6.78,0h2.7V36h-2.7V32.04h-3.03V36h-2.7V25.4h2.7V29.34h3.03Zm9.42.1L28.26,36H25.65l-.69-2.145H21.675L21,36H18.375l3.48-10.5ZM22.38,31.665h1.89l-.945-2.97ZM36.555,25.4v2.7H33.84V36H31.125V28.095H28.41V25.4h8.145Zm14.085,0h2.34V36h-2.7l-2.73-4.515L44.8,36H42.1V25.4h2.7V31.38l1.32-2.4.075-.12h2.7l.06.12,1.32,2.4V25.4Zm8.61,0a5.22,5.22,0,0,1,2.685.72,5.345,5.345,0,0,1,1.95,1.958,5.38,5.38,0,0,1,0,5.378,5.362,5.362,0,0,1-1.95,1.95,5.38,5.38,0,0,1-5.377,0A5.345,5.345,0,0,1,54.6,33.45a5.38,5.38,0,0,1,0-5.378,5.327,5.327,0,0,1,1.958-1.958A5.26,5.26,0,0,1,59.25,25.4Zm0,8.13a2.649,2.649,0,0,0,1.38-.375,2.846,2.846,0,0,0,1.005-1.005,2.649,2.649,0,0,0,.375-1.38,2.688,2.688,0,0,0-.375-1.387,2.827,2.827,0,0,0-1.005-1.013,2.649,2.649,0,0,0-1.38-.375,2.688,2.688,0,0,0-1.388.375,2.808,2.808,0,0,0-1.013,1.013,2.688,2.688,0,0,0-.375,1.387,2.649,2.649,0,0,0,.375,1.38,2.827,2.827,0,0,0,1.013,1.005A2.688,2.688,0,0,0,59.25,33.525ZM74.16,36H71.445l-1.68-4.005H68.04V36H65.5V25.4H70.56a3.3,3.3,0,0,1,3.3,3.3,3.2,3.2,0,0,1-.4,1.583,3.431,3.431,0,0,1-1.1,1.192Zm-2.7-7.32a1.107,1.107,0,0,0-.285-.757,1,1,0,0,0-.7-.353H67.98v2.25h2.49a1.063,1.063,0,0,0,.7-.368A1.127,1.127,0,0,0,71.46,28.68Zm8.745,1.965L83.37,36h-3l-2.61-4.275V36h-2.7V25.4h2.7v4.14l2.61-4.14h3Zm9.21-1.89V28.56a.937.937,0,0,0-.368-.743,1.345,1.345,0,0,0-.893-.308,1.426,1.426,0,0,0-.923.308.924.924,0,0,0-.382.743.687.687,0,0,0,.39.645,3.263,3.263,0,0,0,1.02.42q.1.015.232.045l.263.06a5.2,5.2,0,0,1,2.145.885l.135.12a3.214,3.214,0,0,1,.713,1.035,2.934,2.934,0,0,1-.03,2.49,3.338,3.338,0,0,1-.847,1.1,4.014,4.014,0,0,1-1.26.713,4.406,4.406,0,0,1-1.47.247,4.341,4.341,0,0,1-1.463-.247,4.033,4.033,0,0,1-1.252-.713,3.432,3.432,0,0,1-.855-1.1,2.906,2.906,0,0,1-.3-1.29v-.195H86.9v.195a.937.937,0,0,0,.368.743,1.323,1.323,0,0,0,.877.307,1.426,1.426,0,0,0,.923-.307.924.924,0,0,0,.382-.743.865.865,0,0,0-.4-.66,1.676,1.676,0,0,0-.42-.225,6.028,6.028,0,0,0-.585-.18l-.5-.12q-.825-.21-1.29-.375a2.591,2.591,0,0,1-.855-.51l-.06-.06a3.37,3.37,0,0,1-.787-1.05,2.836,2.836,0,0,1-.277-1.23,2.906,2.906,0,0,1,.3-1.29,3.432,3.432,0,0,1,.855-1.1,4.033,4.033,0,0,1,1.252-.712,4.341,4.341,0,0,1,1.463-.247,4.405,4.405,0,0,1,1.47.247,4.014,4.014,0,0,1,1.26.712,3.338,3.338,0,0,1,.847,1.1,2.968,2.968,0,0,1,.293,1.29v.195Zm16.53-3.36h2.34V36h-2.7l-2.73-4.515L100.11,36h-2.7V25.4h2.7V31.38l1.32-2.4.075-.12h2.7l.06.12,1.32,2.4V25.4Zm6.24,0V36h-2.7V25.4Zm9.195,0v2.7h-2.715V36H115.95V28.095h-2.715V25.4h8.145Zm6.78,0h2.7V36h-2.7V32.04h-3.03V36h-2.7V25.4h2.7V29.34h3.03ZM6.33,43.4h2.7V54H6.33V50.04H3.3V54H.6V43.4H3.3V47.34H6.33Zm9.42.1L19.215,54H16.6l-.69-2.145H12.63L11.955,54H9.33l3.48-10.5Zm-2.415,6.165h1.89l-.945-2.97ZM28.17,54H25.455l-1.68-4.005H22.05V54H19.515V43.4H24.57a3.3,3.3,0,0,1,3.3,3.3,3.2,3.2,0,0,1-.4,1.583,3.431,3.431,0,0,1-1.1,1.193Zm-2.7-7.32a1.107,1.107,0,0,0-.285-.757,1,1,0,0,0-.7-.353H21.99v2.25h2.49a1.063,1.063,0,0,0,.7-.368A1.127,1.127,0,0,0,25.47,46.68Zm6.315-3.4q1.125,0,1.935.082a6.251,6.251,0,0,1,1.6.382,4.594,4.594,0,0,1,1.463.915,5.26,5.26,0,0,1,1.3,1.823,5.444,5.444,0,0,1,.458,2.182A5.163,5.163,0,0,1,37.95,51.1a4.848,4.848,0,0,1-1.642,1.875,5.76,5.76,0,0,1-2.16.847,15.744,15.744,0,0,1-2.678.2l-1.23-.015Q29.85,54,29.07,54V43.275ZM35.88,49.29a2.987,2.987,0,0,0,.075-.63A2.718,2.718,0,0,0,35.6,47.3a2.846,2.846,0,0,0-.982-1.028,2.612,2.612,0,0,0-1.358-.4h-1.47V51.4a11.568,11.568,0,0,0,1.852-.127,3.156,3.156,0,0,0,1.4-.592A2.357,2.357,0,0,0,35.88,49.29Zm16.05-5.9v2.7H49.215V54H46.5V46.1H43.785V43.4H51.93Zm6.12,0a5.22,5.22,0,0,1,2.685.72,5.345,5.345,0,0,1,1.95,1.958,5.38,5.38,0,0,1,0,5.378,5.362,5.362,0,0,1-1.95,1.95,5.38,5.38,0,0,1-5.377,0A5.345,5.345,0,0,1,53.4,51.45a5.38,5.38,0,0,1,0-5.378,5.327,5.327,0,0,1,1.958-1.958A5.26,5.26,0,0,1,58.05,43.4Zm0,8.13a2.649,2.649,0,0,0,1.38-.375,2.846,2.846,0,0,0,1.005-1.005,2.649,2.649,0,0,0,.375-1.38,2.688,2.688,0,0,0-.375-1.388,2.827,2.827,0,0,0-1.005-1.013,2.649,2.649,0,0,0-1.38-.375,2.688,2.688,0,0,0-1.387.375,2.808,2.808,0,0,0-1.013,1.013,2.688,2.688,0,0,0-.375,1.388,2.649,2.649,0,0,0,.375,1.38,2.827,2.827,0,0,0,1.013,1.005A2.688,2.688,0,0,0,58.05,51.525ZM76.98,43.4h2.7V54h-2.7V48.015l-1.32,2.4-.06.12H72.9l-.075-.12-.18-.345L71.52,48.015V54H68.805V43.4H71.52l2.73,4.515Zm8.97,0a5.22,5.22,0,0,1,2.685.72,5.345,5.345,0,0,1,1.95,1.958,5.38,5.38,0,0,1,0,5.378,5.362,5.362,0,0,1-1.95,1.95,5.38,5.38,0,0,1-5.378,0A5.345,5.345,0,0,1,81.3,51.45a5.38,5.38,0,0,1,0-5.378,5.327,5.327,0,0,1,1.958-1.958A5.26,5.26,0,0,1,85.95,43.4Zm0,8.13a2.649,2.649,0,0,0,1.38-.375,2.846,2.846,0,0,0,1-1.005,2.649,2.649,0,0,0,.375-1.38,2.688,2.688,0,0,0-.375-1.388,2.827,2.827,0,0,0-1-1.013,2.649,2.649,0,0,0-1.38-.375,2.688,2.688,0,0,0-1.387.375,2.808,2.808,0,0,0-1.013,1.013,2.688,2.688,0,0,0-.375,1.388,2.649,2.649,0,0,0,.375,1.38,2.827,2.827,0,0,0,1.013,1.005A2.688,2.688,0,0,0,85.95,51.525ZM98.04,43.4h2.7V54h-2.7l-3.12-5.685V54H92.2V43.4H94.92l3.12,5.685Zm11.115,8.31V54H101.94V43.4h7.08V45.69h-4.365v1.86h3.675v2.3h-3.675v1.86Zm9.195-8.31v2.7h-2.715V54H112.92V46.1H110.2V43.4h8.145Zm3.75,0V54h-2.7V43.4Zm9.75-.03v2.6L126.96,51.4h4.89V54H123.3V51.4h.015l5.145-5.445h-4.995v-2.6Zm8.415,8.34V54H133.05V43.4h7.08V45.69h-4.365v1.86h3.675v2.3h-3.675v1.86ZM5.655,61.4a3.227,3.227,0,0,1,1.657.443,3.288,3.288,0,0,1,1.2,1.2,3.326,3.326,0,0,1,0,3.315,3.288,3.288,0,0,1-1.2,1.2A3.227,3.227,0,0,1,5.655,68H3.135v4H.6V61.4ZM6.57,64.68a1.091,1.091,0,0,0-.293-.757,1.031,1.031,0,0,0-.712-.353H3.075v2.25h2.49a1.01,1.01,0,0,0,.712-.368A1.146,1.146,0,0,0,6.57,64.68ZM18.51,72H15.8l-1.68-4H12.39v4H9.855V61.4H14.91a3.3,3.3,0,0,1,3.3,3.3,3.2,3.2,0,0,1-.4,1.582,3.431,3.431,0,0,1-1.1,1.193Zm-2.7-7.32a1.107,1.107,0,0,0-.285-.757,1,1,0,0,0-.7-.353H12.33v2.25h2.49a1.063,1.063,0,0,0,.7-.368A1.127,1.127,0,0,0,15.81,64.68ZM24.48,61.4a5.22,5.22,0,0,1,2.685.72,5.345,5.345,0,0,1,1.95,1.958,5.38,5.38,0,0,1,0,5.377,5.362,5.362,0,0,1-1.95,1.95,5.38,5.38,0,0,1-5.378,0,5.345,5.345,0,0,1-1.958-1.95,5.38,5.38,0,0,1,0-5.377,5.327,5.327,0,0,1,1.958-1.958A5.26,5.26,0,0,1,24.48,61.4Zm0,8.13a2.649,2.649,0,0,0,1.38-.375,2.846,2.846,0,0,0,1-1.005,2.649,2.649,0,0,0,.375-1.38,2.688,2.688,0,0,0-.375-1.387,2.827,2.827,0,0,0-1-1.013,2.649,2.649,0,0,0-1.38-.375,2.688,2.688,0,0,0-1.388.375,2.808,2.808,0,0,0-1.012,1.013,2.688,2.688,0,0,0-.375,1.387,2.649,2.649,0,0,0,.375,1.38,2.827,2.827,0,0,0,1.012,1.005A2.688,2.688,0,0,0,24.48,69.525Zm11.82-8.16h2.505V67.92a4.08,4.08,0,0,1-.562,2.1,4.194,4.194,0,0,1-1.523,1.523,4.2,4.2,0,0,1-4.2,0A4.194,4.194,0,0,1,31,70.02a4.08,4.08,0,0,1-.562-2.1v-.435H32.94a2.357,2.357,0,0,0,.48,1.433,1.52,1.52,0,0,0,2.408-.06A2.469,2.469,0,0,0,36.3,67.32Zm10.92,8.34V72H40V61.4h7.08V63.69H42.72v1.86H46.4v2.295H42.72v1.86Zm6.255-.21a2.688,2.688,0,0,0,1.065-.218,2.963,2.963,0,0,0,.9-.592l1.83,1.83a5.385,5.385,0,0,1-1.725,1.162,5.381,5.381,0,0,1-4.755-.307,5.362,5.362,0,0,1-1.95-1.95,5.38,5.38,0,0,1,0-5.378,5.345,5.345,0,0,1,1.95-1.957,5.381,5.381,0,0,1,4.755-.307A5.385,5.385,0,0,1,57.27,62.94l-1.83,1.83a2.964,2.964,0,0,0-.9-.592,2.688,2.688,0,0,0-1.065-.217,2.649,2.649,0,0,0-1.38.375,2.827,2.827,0,0,0-1.005,1.013,2.688,2.688,0,0,0-.375,1.387,2.649,2.649,0,0,0,.375,1.38A2.846,2.846,0,0,0,52.1,69.12,2.649,2.649,0,0,0,53.475,69.5Zm12.69-8.1v2.7H63.45V72H60.735V64.1H58.02V61.4h8.145Zm5.895,3.36V64.56a.937.937,0,0,0-.368-.743,1.345,1.345,0,0,0-.893-.307,1.426,1.426,0,0,0-.923.307.924.924,0,0,0-.382.743.687.687,0,0,0,.39.645,3.263,3.263,0,0,0,1.02.42q.1.015.232.045l.262.06a5.2,5.2,0,0,1,2.145.885l.135.12a3.214,3.214,0,0,1,.713,1.035,2.934,2.934,0,0,1-.03,2.49,3.338,3.338,0,0,1-.847,1.1,4.014,4.014,0,0,1-1.26.712,4.405,4.405,0,0,1-1.47.248,4.341,4.341,0,0,1-1.463-.248,4.033,4.033,0,0,1-1.252-.712,3.432,3.432,0,0,1-.855-1.1,2.906,2.906,0,0,1-.3-1.29v-.195H69.54v.195a.937.937,0,0,0,.368.743,1.323,1.323,0,0,0,.877.307,1.426,1.426,0,0,0,.923-.307.924.924,0,0,0,.382-.743.865.865,0,0,0-.4-.66,1.676,1.676,0,0,0-.42-.225,6.032,6.032,0,0,0-.585-.18l-.5-.12q-.825-.21-1.29-.375a2.591,2.591,0,0,1-.855-.51l-.06-.06a3.37,3.37,0,0,1-.787-1.05,2.836,2.836,0,0,1-.277-1.23,2.906,2.906,0,0,1,.3-1.29,3.432,3.432,0,0,1,.855-1.1,4.033,4.033,0,0,1,1.252-.712,4.341,4.341,0,0,1,1.463-.248,4.405,4.405,0,0,1,1.47.248,4.014,4.014,0,0,1,1.26.712,3.338,3.338,0,0,1,.847,1.1,2.968,2.968,0,0,1,.293,1.29v.195Z" transform="translate(1 10.725)"/>
</svg>

