<svg id="OK_button" data-name="OK button" xmlns="http://www.w3.org/2000/svg" width="179.672" height="54.885" viewBox="0 0 179.672 54.885">
  <g id="Сгруппировать_248" data-name="Сгруппировать 248" transform="translate(-867.667 2782.719)">
    <path id="Контур_1888" data-name="Контур 1888" d="M868.423-2782.719h176.948a3.428,3.428,0,0,1,.037,2.417,6.613,6.613,0,0,1-2.456.172,9.538,9.538,0,0,1-1,.019H872.432c-1.515,0-1.4-.068-1.4,1.415q0,22.652,0,45.3a7.415,7.415,0,0,1-.019.864,6.992,6.992,0,0,1-.163,2.464,3.435,3.435,0,0,1-2.45-.021,2.4,2.4,0,0,1-.038-.725q0-25.6,0-51.191A1.438,1.438,0,0,1,868.423-2782.719Z" transform="translate(-0.59 0)" fill="#fff"/>
    <path id="Контур_1889" data-name="Контур 1889" d="M868.4-2730.083l2.375-.025a1.17,1.17,0,0,1,.756-.2c.332-.007.664,0,1,0q85.512,0,171.024,0c1.76,0,1.575.132,1.576-1.567q.006-23.587.006-47.174a2.016,2.016,0,0,1,.2-1.29q.008-1.189.016-2.378h2.391a1.434,1.434,0,0,1,.061.717q0,26.726,0,53.451a1.436,1.436,0,0,1-.061.718H868.4A7.909,7.909,0,0,1,868.4-2730.083Z" transform="translate(-0.569 0)" fill="#060708"/>
    <path id="Контур_1890" data-name="Контур 1890" d="M867.835-2730.083l0,2.25c-.274-.119-.125-.359-.125-.531q-.014-10.486-.008-20.972,0-16.393.008-32.785c0-.194-.153-.45.125-.6Q867.834-2756.4,867.835-2730.083Z" transform="translate(0 0)" fill="#b3b1b1"/>
    <path id="Контур_1891" data-name="Контур 1891" d="M2218.412-2727.833v-54.885c.274.12.125.359.125.531q.014,10.731.008,21.462,0,16.147-.008,32.293C2218.537-2728.237,2218.69-2727.981,2218.412-2727.833Z" transform="translate(-1171.24 0)" fill="#b3b1b1"/>
    <path id="Контур_1892" data-name="Контур 1892" d="M1061.363-2764.825c.005.221.015.443.015.664q0,24.386.017,48.771c0,.672-.161.828-.83.828q-86.547-.026-173.093-.017c-.221,0-.442-.01-.664-.015q.012-1.18.024-2.36c.48-.378,1.044-.176,1.571-.221a6.421,6.421,0,0,1,.845.008,9.158,9.158,0,0,1,1-.019l167.111,0c1.528,0,1.415.074,1.415-1.4q0-21.461,0-42.923a7.345,7.345,0,0,1,.019-.864c-.025-.566-.014-1.132-.008-1.7a.951.951,0,0,1,.222-.729Z" transform="translate(-16.598 -15.516)" fill="#6d6e6e"/>
    <path id="Контур_1893" data-name="Контур 1893" d="M889.189-2716.99l-2.372.036c0-.221-.01-.443-.01-.664q0-23.187-.017-46.375c0-.689.19-.834.85-.834q85.343.023,170.685.015c.221,0,.443.007.664.01q-.018,1.186-.035,2.373a.988.988,0,0,1-.743.22c-.332.011-.664.005-1,.005q-83.14,0-166.28,0c-1.676,0-1.518-.112-1.519,1.491q0,21.224-.007,42.449C889.409-2717.832,889.516-2717.369,889.189-2716.99Z" transform="translate(-16.582 -15.515)" fill="#d6d7d6"/>
    <path id="Контур_1894" data-name="Контур 1894" d="M904.84-2701.347q0-14.849.009-29.7,0-7.441,0-14.882c0-.85,0-.851.868-.851h167.892c.332,0,.664-.006,1-.009.006.221.018.442.018.664q0,21.991.018,43.982c0,.689-.19.828-.846.828q-84.112-.023-168.225-.015C905.327-2701.329,905.083-2701.341,904.84-2701.347Z" transform="translate(-32.233 -31.157)" fill="#b3b1b0"/>
  </g>
  <g id="Прямоугольник_151" data-name="Прямоугольник 151" transform="translate(8 7)" fill="none" stroke="#374040" stroke-width="2" stroke-dasharray="3 3">
    <rect width="165" height="41" stroke="none"/>
    <rect x="1" y="1" width="163" height="39" fill="none"/>
  </g>
  <g id="Сгруппировать_292" data-name="Сгруппировать 292" transform="translate(37 16.829)">
    <rect id="Прямоугольник_160" data-name="Прямоугольник 160" width="2.771" height="16.572" transform="translate(37.97 2.799)"/>
    <rect id="Прямоугольник_161" data-name="Прямоугольник 161" width="8.397" height="2.799" transform="translate(40.742)"/>
    <path id="Контур_4085" data-name="Контур 4085" d="M1550.626,2736.782l-8.4.028v2.771h8.4v-2.771l2.771-.028V2720.21h-2.771Z" transform="translate(-1501.487 -2717.411)"/>
    <path id="Контур_4086" data-name="Контур 4086" d="M1601.21,2718.71h2.771v-5.57h-2.771v5.543h-2.771v2.8h2.771Z" transform="translate(-1535.443 -2713.14)"/>
    <rect id="Прямоугольник_162" data-name="Прямоугольник 162" width="2.771" height="8.314" transform="translate(65.767 13.857)"/>
    <path id="Контур_4087" data-name="Контур 4087" d="M1580.21,2721.481v-8.342h-2.771l.028,22.171h2.744v-11.057h5.543V2727h2.771v-2.8h-2.771v-2.716Z" transform="translate(-1522.757 -2713.14)"/>
  </g>
</svg>
