<svg id="portfolio" xmlns="http://www.w3.org/2000/svg" width="78" height="69.91" viewBox="0 0 78 69.91">
  <g id="Сгруппировать_284" data-name="Сгруппировать 284" transform="translate(7.867 0)">
    <path id="Контур_4049" data-name="Контур 4049" d="M-122.783-55.93v1.683h-5.033V-55.93Zm-5.033,1.683v3.35h5.033v1.683h-5.033v6.734H-129.5V-54.247Zm5.033,0h1.683v3.35h-1.683Zm5.05,3.333h3.4v1.7h-3.4Zm-1.683,6.734v-5.033h1.683v5.033Zm5.084-5.033h1.683v5.033h-1.683Zm-3.4,6.717v-1.667h3.4V-42.5Zm6.767-6.734h1.667v-1.683h3.367v1.683h-3.35v6.75h-1.683Zm11.733.017h1.683v1.683h1.683v1.683h-1.683v3.367h-1.683v-3.35h-1.683v3.35h-1.667v-3.384h-1.667v-1.65h1.7v-5.033h1.633v5.017h1.683Zm5.05-1.683v1.683h-3.367V-50.9Zm3.367-.017h3.4v1.7h-3.4ZM-92.5-44.18v-5.033h1.683v5.033Zm5.084-5.033h1.683v5.033h-1.683Zm-3.4,6.717v-1.667h3.4V-42.5Zm6.767-11.716h1.683V-42.5h-1.683Zm5.017,3.35V-52.58h1.683v1.717Zm-1.683,6.7h1.683v-3.35h-1.683V-49.2h3.367v6.717h-3.367Zm6.734-6.75h3.4v1.7h-3.4Zm-1.683,6.734v-5.033h1.683v5.033Zm5.084-5.033H-68.9v5.033h-1.683Zm-3.4,6.717v-1.667h3.4V-42.5Z" transform="translate(129.5 108.339)"/>
    <g id="Сгруппировать_281" data-name="Сгруппировать 281" transform="translate(2.525)">
      <path id="Контур_3909" data-name="Контур 3909" d="M2301.454,2684.472v-31.479c.6-.305.691.162.779.543a5.833,5.833,0,0,1,.049,1.316q0,13.5,0,27.006c0,.36-.007.72.009,1.08.017.378.1.727.526.845a.708.708,0,0,0,.842-.3c.373-.6.755-.341,1.333-.306,1.067.064,2.177.042,3.253,0,.53-.021,1.025-.012,1.538-.012a16.284,16.284,0,0,0,3.329-.03c.579-.124.986-.384,1.463.1a.583.583,0,0,0,.941-.029c.745-.819,1.25.11,1.873.2s1.118-1.079,1.889-.268a.676.676,0,0,0,1.125-.005c.771-.8,1.273.359,1.894.27.593-.085,1.063-.987,1.784-.265a.685.685,0,0,0,1.129,0c.107-.111-.037.015.084-.086.772-.641,1.207.472,1.811.356s1.064-.988,1.782-.267a.677.677,0,0,0,1.123,0,.789.789,0,0,1,1.264,0c.807.917,1.2-.438,1.873-.3.566.114.98,1.158,1.734.26a.748.748,0,0,1,1.173.009.717.717,0,0,0,1.215,0c.1-.113-.039.014.086-.082.783-.6,1.2.578,1.813.393.593-.18,1.06-.979,1.768-.237.4.424.74.306,1.122-.057.756-.718,1.17.25,1.751.357s1.011-1.1,1.761-.434c.5.449.842.636,1.364.036a.737.737,0,0,1,1.166.061c.424.481.748.451,1.171-.013a.779.779,0,0,1,1.26.042c.546.632.874.254,1.217-.2a1.337,1.337,0,0,1,.294-.195c1.175-.149.889-1.158,1.1-1.876.15-.361.063-.77.228-1.121.155-.33.359-.517.666-.129a10.59,10.59,0,0,1,0,4.038,1.243,1.243,0,0,1-1.422,1.146c-.359-.02-.72,0-1.08,0q-23.4,0-46.8,0c-.654,0-1.4-.2-1.8.59-.239.246-.515.474-.631-.068C2302.2,2684.864,2301.781,2684.724,2301.454,2684.472Z" transform="translate(-2301.454 -2639.039)" fill="#626230"/>
      <path id="Контур_3910" data-name="Контур 3910" d="M2351.93,2682.125c-.33.934-.826,1.342-1.583.394-.432-.542-.67-.367-.993.076-.433.594-.939.606-1.356,0-.4-.585-.69-.515-1.067.021s-.87.608-1.275.048-.71-.674-1.149-.029a.694.694,0,0,1-1.272.007c-.431-.627-.734-.57-1.149.014-.4.56-.893.5-1.275-.034-.369-.517-.655-.638-1.067-.034s-.931.622-1.354.012c-.4-.572-.682-.538-1.067.009-.433.615-.939.557-1.357-.029-.336-.474-.608-.59-.986-.041-.449.653-.97.682-1.434.018-.36-.516-.631-.5-.987,0-.467.666-.98.619-1.435-.025-.3-.424-.569-.542-.91-.046-.484.7-1.007.747-1.51.024-.32-.46-.589-.463-.911,0-.5.723-1.024.683-1.51-.021-.34-.494-.609-.382-.91.044-.454.643-.967.694-1.435.028-.355-.505-.626-.525-.987-.007-.462.663-.976.632-1.435-.014-.3-.417-.563-.559-.91-.057-.481.7-1.007.764-1.51.034-.4-.584-.669-.348-.986.082-.44.6-.945.59-1.357-.012s-.7-.488-1.067.032-.876.6-1.275.036c-.414-.58-.716-.647-1.149-.017a.694.694,0,0,1-1.271,0c-.438-.642-.741-.542-1.149.026s-.9.488-1.275-.046-.663-.611-1.067-.023c-.417.606-.905.585-1.363.007-.218-.275-.479-.734-.817-.256-.742,1.05-1.333.794-1.859-.11-.449.058-.378.439-.547.64a1.108,1.108,0,0,1-1.3.365.993.993,0,0,1-.677-1.029c0-.321,0-.641,0-.961q0-13.936-.013-27.872c0-.457.3-1.093-.469-1.3v-.24c.787-.4,1.111.059,1.264.723a6.4,6.4,0,0,1,.051,1.435q0,13.133,0,26.266a4.1,4.1,0,0,0,.057,1.193c.2.656.484.5.787.073.815-.8,1.264.531,1.876.348.642-.191,1.165-.951,1.893-.176a.536.536,0,0,0,.843.029c.117-.109.288-.312.376-.272,1.153.52,2.369-.187,3.517.2.176.06.423.356.5.248.888-1.236,2.037.341,2.941-.293a.945.945,0,0,1,1.3-.018c.062.052.121.106.183.156.748.6,1.024-.578,1.692-.439.543.113.932,1.108,1.647.309.16-.179.521-.4.617-.279.953,1.178,2.117-.445,3.08.264.064.047.122.1.186.153.743.577,1.024-.6,1.7-.438.533.132.934,1.1,1.642.29.158-.181.53-.385.623-.269.947,1.184,2.144-.519,3.071.286.43.372.758.364,1.122-.033a1.244,1.244,0,0,1,.195-.139c.773-.564,1.184.7,1.819.4.57-.276,1.025-.837,1.692-.228.146.134.422.37.491.28.9-1.177,2.029.268,2.956-.275.32-.188.7-.5.974-.214.8.821,1.393.273,2.034-.177.771.111,1.538.692,2.321-.016a.506.506,0,0,1,.569.068c.55.446,1.076.061,1.605.062,1.074,0,2.144.036,3.226-.017.425-.021.814.622,1.4.417C2351.878,2681.812,2352.007,2681.908,2351.93,2682.125Z" transform="translate(-2301.454 -2638.12)" fill="#7e7e4b"/>
      <path id="Контур_3911" data-name="Контур 3911" d="M2304.094,2678.553c-.486.392-.27,1.606-1.217,1.333-.836-.24-.455-1.177-.457-1.8q-.032-13.837-.015-27.674c0-.68.12-1.446-.951-1.4v-.24c.534-.054.741-.578,1.157-.8a.956.956,0,0,1,.323.138,1.783,1.783,0,0,0,.521.212c2.747.234,5.5.025,8.24.106.61.019,1.329-.146,1.586.7a.406.406,0,0,1-.282.291c-2.837.067-5.676.011-8.514.053-1.239.018-1.373.145-1.376,1.41-.025,9.085-.009,18.17-.011,27.476.607-1.513.157-2.881.3-4.208.042-.384-.128-.79.054-1.176,1.838-.458,2.685-2.231,4.171-3.16,1.24.443,1.432.777,1.008,1.877-.119.309-.258.59-.052.9a1.41,1.41,0,0,1-.013,1.667c-.391.634.442,1.072.313,1.677a6.161,6.161,0,0,1-2.3,2.507C2305.8,2679.431,2304.942,2678.878,2304.094,2678.553Z" transform="translate(-2301.454 -2635.294)" fill="#a4a17b"/>
      <path id="Контур_3912" data-name="Контур 3912" d="M2302.638,2634.643c-.312.377-.57.841-1.184.728v-.24a33.063,33.063,0,0,0,4.33-3.982,2.338,2.338,0,0,1,1.864-.823c3.383.045,6.767.032,10.15.041.222.3,1.07-.325.875.592a5.25,5.25,0,0,1-2.665.518c-2.552.084-5.1-.091-7.039-.213,1.747-.055,4.073.451,6.429.345a1.242,1.242,0,0,1,1.234.586c-.043,1.22-1.071,1.573-1.873,2.128-2.586-.092-5.173-.013-7.759-.045a7.065,7.065,0,0,1-2.247-.195C2303.955,2633.814,2303.432,2634.775,2302.638,2634.643Z" transform="translate(-2301.454 -2621.898)" fill="#aca98e"/>
      <path id="Контур_3913" data-name="Контур 3913" d="M2301.454,2772.758c1.058-.267.854.729,1.189,1.186l.227-.03a14.406,14.406,0,0,1,2.155-.067q23.262,0,46.523,0a5.806,5.806,0,0,0,1.666-.1c.437-.262.721-.7,1.135-.992.978-1.1,2.078-2.074,3.081-3.149.4-.433.894-.692,1.459-.21v.48c-.232.037-.558-.012-.683.123-1.22,1.328-2.594,2.511-3.787,3.849a2.258,2.258,0,0,1-1.938.831q-11.756-.014-23.513-.006-12.3,0-24.593.009c-1.029,0-2.026.079-2.406-1.2-.036-.12-.336-.163-.514-.241Z" transform="translate(-2301.454 -2727.325)" fill="#6e6e39"/>
      <path id="Контур_3914" data-name="Контур 3914" d="M2535.931,2642.862v30.277a.983.983,0,0,1-1.1-.065,7.716,7.716,0,0,1-.138-3.552,22.186,22.186,0,0,0,.158-2.26q.005-11.277.008-22.554a3.276,3.276,0,0,1,.215-1.761A.6.6,0,0,1,2535.931,2642.862Z" transform="translate(-2478.498 -2631.311)" fill="#020200"/>
      <path id="Контур_3915" data-name="Контур 3915" d="M2461.934,2610.09c.838.031,1.066.6,1.089,1.294a23.059,23.059,0,0,1,0,2.509c-.074.982.278,1.316,1.285,1.3,4.064-.05,8.13.031,12.194-.049a4.708,4.708,0,0,1,3.161,1.525c.321.263.512.576.972.445v.481c-.644.493-1.114.123-1.571-.314-.286-.169-.585-.316-.885-.457-.416-.215-.859-.449-.651.374a7.134,7.134,0,0,1,.306.856,14.4,14.4,0,0,0,.165,1.508c.217,1.092-.125,1.477-1.336,1.659a.823.823,0,0,1-.336-.158.433.433,0,0,1-.108-.328c.414-.916,1.2-1.8.275-2.845a4.392,4.392,0,0,1-.374-.65,2.288,2.288,0,0,0-2.052-.727c-3.108-.01-6.217,0-9.325-.008a4.324,4.324,0,0,1-1.54-.126,2.293,2.293,0,0,1-.853-1.2,15.928,15.928,0,0,1-.079-2.86,2.483,2.483,0,0,0-.5-1.67A.5.5,0,0,1,2461.934,2610.09Z" transform="translate(-2423.199 -2606.529)" fill="#a2a276"/>
      <path id="Контур_3916" data-name="Контур 3916" d="M2523.414,2756.177l.95.016v.24a1.717,1.717,0,0,0-1.554.819,34.272,34.272,0,0,1-2.79,2.781.6.6,0,0,1-.652-.854,12.229,12.229,0,0,0,.2-2.8,1.837,1.837,0,0,1,.684-1.2c.925-.837,2.027-1.528,2.279-2.9.034-.185.262-.28.476-.132a4.368,4.368,0,0,1,.071,2.1A2.344,2.344,0,0,0,2523.414,2756.177Z" transform="translate(-2466.93 -2714.365)" fill="#332"/>
      <path id="Контур_3917" data-name="Контур 3917" d="M2533.449,2638.282c.435.375.8.9,1.5.729v.481l-.719-.023-.189.027C2533.233,2639.387,2533.082,2638.961,2533.449,2638.282Z" transform="translate(-2477.513 -2627.941)" fill="#545444"/>
      <path id="Контур_3918" data-name="Контур 3918" d="M2370.356,2604.2c-.211-.365-.708-.125-.94-.446.923.019,1.308-.436,1.191-1.344-.02-.157.026-.325,0-.479-.382-1.934.524-3.246,2.029-4.3a4.9,4.9,0,0,0,1.216-1.272c.736-1.126,1.732-1.08,2.822-1.075q5.461.029,10.923,0c.743,0,1.366.1,1.556.959a.516.516,0,0,1-.5.161,1.469,1.469,0,0,1-.5-.251,1.438,1.438,0,0,0-.343-.186c-4.117-.091-8.232-.192-12.341.06a3.655,3.655,0,0,0-.478.246,31.094,31.094,0,0,0-3.386,3.48,17.686,17.686,0,0,0-.116,2.792c.3.791.7.146,1.015.038,1.122-.381,1.633-.076,1.5.945-.6.4-1.371.308-1.964.717-.549-.071-.889.454-1.4.5C2370.407,2604.631,2370.268,2604.472,2370.356,2604.2Z" transform="translate(-2353.073 -2595.282)" fill="#b4b4b3"/>
      <path id="Контур_3919" data-name="Контур 3919" d="M2456.1,2604.562l-.046.465a2.33,2.33,0,0,1-1.987-2.09c.346-.241.574-.12.725.237A2.128,2.128,0,0,1,2456.1,2604.562Z" transform="translate(-2417.364 -2601.001)" fill="#959563"/>
      <path id="Контур_3920" data-name="Контур 3920" d="M2451.19,2600.492l-.6-.235a.659.659,0,0,1-.417-.109,1.577,1.577,0,0,1-.231-.178c-.23-.2-.708-.183-.6-.68l.5-.009C2450.577,2599.366,2451.133,2599.652,2451.19,2600.492Z" transform="translate(-2413.765 -2598.32)" fill="#baba8a"/>
      <path id="Контур_3921" data-name="Контур 3921" d="M2358.045,2764.272a10.97,10.97,0,0,1-.21,2.958.7.7,0,0,0,.425.885c-.252.32-.734.462-.747.967a.625.625,0,0,1-.448-.04,6.227,6.227,0,0,0-1.552-.084q-23.56,0-47.12,0a5.2,5.2,0,0,0-1.549.1.587.587,0,0,1-.446.04l-.041-.033c-.122-1.236.7-1.189,1.554-1.188q21.961.012,43.922.006c1.44,0,2.884-.065,4.319.022.9.054,1.274-.337,1.312-1.12.065-1.316.062-2.635.087-3.952l.145-.106a.538.538,0,0,1,.354.03.689.689,0,0,1,.212.292A1.98,1.98,0,0,1,2358.045,2764.272Z" transform="translate(-2305.171 -2722.447)" fill="#4b4b29"/>
      <path id="Контур_3922" data-name="Контур 3922" d="M2448.877,2601.3a.364.364,0,0,1,.042.194,1.466,1.466,0,0,0,.557,1.625,2.91,2.91,0,0,1,1.015,2.55c-.056,1.629-.015,3.261-.015,4.892a7.137,7.137,0,0,0,.012.716c.033.336.134.671.54.648.351-.02.386-.353.4-.633.031-.516,0-1.034.02-1.551.016-.427-.073-.892.352-1.2a1.063,1.063,0,0,1,.436.912,2.731,2.731,0,0,1,.145.674,6.917,6.917,0,0,1,.016,1.052,1.045,1.045,0,0,0,.17.516c.427.429.973.307,1.479.309,2.758.014,5.515.008,8.272,0a1.777,1.777,0,0,1,1.944,1.246.9.9,0,0,1-.036.372c-.076.235-.775.122-.2.772.748.845.352,2.144.612,3.224-.044,5.774.094,11.543.037,17.313a29.2,29.2,0,0,1-.383,6.984c-.016.883.178,1.9-1.205,1.924.929-1.828.587-3.8.6-5.714.029-5.916-.01-11.832.024-17.749a40.9,40.9,0,0,0-.351-4.762,1.3,1.3,0,0,0-.228-.328,4.271,4.271,0,0,1-1.265-1.505c-.412-.45-.959-.339-1.467-.341-3.159-.01-6.318.008-9.478-.011-1.576-.009-1.882-.333-1.887-1.92-.007-1.879-.043-3.76.016-5.638a2.629,2.629,0,0,0-.891-2.344,1.7,1.7,0,0,1-.489-.674C2447.244,2601.827,2447.693,2601.246,2448.877,2601.3Z" transform="translate(-2412.388 -2599.85)" fill="#6e6e3d"/>
      <path id="Контур_3923" data-name="Контур 3923" d="M2511.055,2658.293a14.437,14.437,0,0,1,.458,3.858c.034,7.5,0,15,.036,22.5a2.55,2.55,0,0,1-.981,2.477l-.228.014-.241-.253a.513.513,0,0,1-.045-.449,3.754,3.754,0,0,0,.534-2.159c-.011-7.142,0-14.284-.016-21.427,0-1.2.172-2.386.136-3.584A1.142,1.142,0,0,1,2511.055,2658.293Z" transform="translate(-2459.864 -2643.14)" fill="#747456"/>
      <path id="Контур_3924" data-name="Контур 3924" d="M2517.3,2741.86v-6.969c.469-.3,1.084.352,1.507-.235.763-.548,1.208-1.49,2.187-1.772a.38.38,0,0,1,.284.174.746.746,0,0,1-.02.676c-.572.605-1.185,1.171-1.786,1.748-.635.609-1.225,1.177-.5,2.108a.592.592,0,0,1-.086.776c-.53.514-.65,1.266-1.109,1.814h0C2517.266,2740.64,2517.814,2741.4,2517.3,2741.86Z" transform="translate(-2465.393 -2699.792)" fill="#626233"/>
      <path id="Контур_3925" data-name="Контур 3925" d="M2367.6,2693.477c0,.082.008.163.012.244-.358.354-.676.7-1.111.033s-.978-.629-1.425.019c-.375.544-.648.438-.985-.038-.413-.581-.928-.66-1.35-.037-.466.687-.763.447-1.146-.067a.664.664,0,0,0-1.19-.007c-.455.663-.805.655-1.222-.009a.872.872,0,0,0-.714-.384,2.286,2.286,0,0,1-2,.215,12.781,12.781,0,0,0-3.028-.017c-.572.033-1.108.035-1.664.043a19.724,19.724,0,0,0-3.251.013c-.554.1-.983.421-1.472-.061a.663.663,0,0,0-1.045.073c-.793.81-1.272-.373-1.9-.278-.589.089-1.041,1.021-1.775.265a1.423,1.423,0,0,0-.2-.135c-.744-.536-1.047.638-1.7.439-.541-.165-.966-1.012-1.653-.292-.785.823-1.258-.361-1.885-.277-.59.08-1.04,1.042-1.776.27-.054-.056-.155-.144-.194-.127-1.1.476-2.247-.07-3.353.146-.214.042-.512.411-.612.276-.925-1.252-2.126.465-3.053-.311a.767.767,0,0,0-1.155.028c-.117.105-.328.3-.386.249-1.179-1.006-2.864.649-3.952-.758l2.17-2.4c1.209.538,2.544.241,3.737.2,1.127-.037,2.322.43,3.441-.1a1,1,0,0,1,.928.059,1.289,1.289,0,0,0,1.364-.018c.1-.059.256-.139.339-.093,1.114.6,2.334-.323,3.447.247a.982.982,0,0,0,.916-.114,1.23,1.23,0,0,1,1.155-.019,1.211,1.211,0,0,0,1.253.021c.138-.08.337-.195.449-.131,1.112.629,2.334-.36,3.442.249a.956.956,0,0,0,.914-.119,1.209,1.209,0,0,1,1.154-.016,1.184,1.184,0,0,0,1.25.02c.137-.08.334-.2.448-.134,1.11.639,2.33-.36,3.436.249a.947.947,0,0,0,.913-.117,1.193,1.193,0,0,1,1.153-.02,1.292,1.292,0,0,0,1.364-.026c.1-.059.259-.136.34-.09,1.111.633,2.336-.351,3.446.249a.713.713,0,0,0,.694-.027,1.569,1.569,0,0,1,1.6-.015.8.8,0,0,0,.806.014,1.813,1.813,0,0,1,1.607-.031c.7.26,1.04-.059.793-.734a1.773,1.773,0,0,1,0-1.6,1.039,1.039,0,0,0-.077-1.029,1.224,1.224,0,0,1-.011-1.155,1.224,1.224,0,0,0,.011-1.255c-.078-.138-.193-.334-.128-.451.614-1.115-.346-2.336.25-3.448.172-.32-.1-.618-.111-.916a30.769,30.769,0,0,1,.015-3.564,2.089,2.089,0,0,0-.033-1.256,1.192,1.192,0,0,1,.008-1.155,1.243,1.243,0,0,0-.012-1.255,1.238,1.238,0,0,1,.007-1.155c.116-.251.312-.536.154-.8-.72-1.184.108-1.941.717-2.768.553-.565,1.032-1.3,2.015-.89.3.319.07.6-.091.863a1.029,1.029,0,0,0-.057,1.128,1.235,1.235,0,0,1,.019,1.263,1.222,1.222,0,0,0,.029,1.253,1,1,0,0,1,.053.928,1.56,1.56,0,0,0-.011,1.593.959.959,0,0,1-.028.928,1.341,1.341,0,0,0-.013,1.368,1.076,1.076,0,0,1,.008,1.042,1.341,1.341,0,0,0,0,1.367,1.165,1.165,0,0,1-.041,1.152,1.122,1.122,0,0,0,0,1.142,1.247,1.247,0,0,1,0,1.263,1.108,1.108,0,0,0,0,1.141,1.248,1.248,0,0,1,0,1.263,1.1,1.1,0,0,0,0,1.14,1.258,1.258,0,0,1,0,1.264,1.117,1.117,0,0,0,0,1.142,1.3,1.3,0,0,1,0,1.266c-.089.179-.242.408-.161.563a3.375,3.375,0,0,1,.018,2.542C2367.469,2693.15,2367.576,2693.318,2367.6,2693.477Z" transform="translate(-2317.38 -2649.969)" fill="#909076"/>
      <path id="Контур_3926" data-name="Контур 3926" d="M2314.833,2774.182c.815.2,1.622.8,2.456.047,1.042,1.011,2.414-.563,3.463.442.178.17.363.043.54-.065.2-.125.461-.363.626-.314a8.216,8.216,0,0,0,2.856.065c.647-.033,1.327.379,2.025-.1.244-.167.562.018.779.184a.781.781,0,0,0,1.156.015c.083-.079.229-.174.317-.151a11.793,11.793,0,0,0,3.071.078c.561,0,1.109.4,1.692-.057a.624.624,0,0,1,.788.024c.548.454,1.163-.031,1.565.063,1.227.287,2.447-.364,3.617.135.214.091.393.317.64.109a1.357,1.357,0,0,1,1.94,0c.189.159.366.069.541-.051.131-.089.277-.234.412-.23,1.1.027,2.184.09,3.289.033.5-.027,1.034.379,1.583-.061.134-.107.465-.18.553-.1.684.62,1.413.317,2.138.165-.515.742-.994,1.571-1.918.382-.406-.523-.718-.06-.948.225-.44.545-.824.548-1.225-.013-.43-.6-.834-.481-1.221.041-.375.507-.755.538-1.131.008-.453-.639-.884-.56-1.307.027-.409.567-.786.4-1.13-.062-.42-.566-.825-.541-1.222.013-.434.606-.833.47-1.218-.047s-.753-.519-1.138,0-.779.662-1.217.055c-.395-.546-.805-.6-1.22-.019s-.821.532-1.216-.017c-.437-.608-.839-.46-1.221.052s-.753.508-1.134,0-.787-.655-1.221-.05c-.4.553-.8.591-1.216.014s-.828-.521-1.22.023c-.44.609-.838.448-1.217-.059s-.758-.5-1.138.007c-.922,1.227-1.222-.48-1.881-.4-.6.074-.885,1.564-1.77.405-.457-.6-.847-.437-1.223.066-.39.523-.76.491-1.134-.013-.389-.525-.794-.635-1.221-.038-.4.563-.8.564-1.218,0-.349-.472-.739-.616-1.132-.052-.509.731-.948.491-1.391-.068-.26-.329-.578-.486-.873-.062-.594.855-1.117.636-1.656-.053a2.459,2.459,0,0,0-.47-.368c.134-.067.356-.221.389-.187C2313.517,2774.931,2314.173,2774.558,2314.833,2774.182Z" transform="translate(-2309.791 -2731.159)" fill="#939262"/>
      <path id="Контур_3927" data-name="Контур 3927" d="M2369.205,2668.979a1.066,1.066,0,0,1-.371.728c-.141.141-.417.349-.385.431.431,1.107-.008,2.235.113,3.335.137,1.237-.017,2.463.018,3.694.034,1.2.038,2.4.038,3.6s-.027,2.4-.027,3.6.015,2.4.033,3.6c0,.062.151.135.14.181a6.765,6.765,0,0,0-.023,3.163c.083.365-.629.732-1.492.447a11.9,11.9,0,0,0-3.574-.079c-1.2,0-2.4,0-3.6,0h-3.6c-1.2,0-2.4,0-3.6,0s-2.4-.006-3.6,0c-.061,0-.143.155-.179.142-1.127-.424-2.292.091-3.423-.143-.068-.014-.143-.157-.179-.143-1.128.417-2.292-.085-3.424.14-.068.014-.143.157-.179.144-1.129-.409-2.29.078-3.423-.137-.068-.013-.142-.156-.179-.144-1.13.4-2.291-.072-3.424.134-.067.012-.142.157-.179.144-1.13-.394-2.294.088-3.42-.145-.238-.05-.542-.48-.718-.281-1.071,1.208-1.815.083-2.663-.311a1.223,1.223,0,0,0-.534-.887c-.351-.308-.343-.588.01-.876.031-.025.052-.061.084-.083,1.216-.858-.821-1.533-.194-2.138,1-.969.44-1.463-.331-2.026a.392.392,0,0,1-.131-.286c.075-.51.886-.848.347-1.5-.211-.323-.48-.627-.344-1.06.247-.421.666-.7.932-1.1.279-.336.7-.508.971-.854.726-.684,1.412-1.408,2.129-2.1.258-.249.6-.688.863-.567.958.435,2.062-.2,2.753.1,1.264.55,1.75-.093,2.4-.789a1.139,1.139,0,0,1,1.986-.138,6.284,6.284,0,0,1,2.56-.1c.695.189,1.708-.282,2.615.084.2.079.427-.308.663-.452a.858.858,0,0,1,.5-.084c.641.368,1.254.882,2.022.21a.542.542,0,0,1,.678.046c.7.6,1.241.158,1.8-.225a.81.81,0,0,1,.8.223c.141.138.365.422.441.359,1.06-.881,2.3-.15,3.415-.249a8.446,8.446,0,0,1,3.426.044c.31.1.595.285.9.073a1.269,1.269,0,0,1,1.648-.015.642.642,0,0,0,.788,0,1.166,1.166,0,0,1,1.535-.043c.188.143.438.26.643.031.157-.175.025-.37-.041-.557-.423-1.215-.311-1.458.991-2.181.564.149.46.653.578,1.052.073.249.075.714.571.4.24-.849-.159-1.806.455-2.583.66.014.566.537.62.943a13,13,0,0,0,.064,1.654.749.749,0,0,0,.272.07,2.224,2.224,0,0,0,.205-2.643,2.452,2.452,0,0,0-2.226-1.575c-1.6.012-3.2-.019-4.8.01-.993.018-1.938.044-2.348-1.138-.076-.219-.37-.29-.6-.356a2.893,2.893,0,0,1-1.3-1.433.464.464,0,0,1,.6-.253,1.715,1.715,0,0,0,1.7-.062.686.686,0,0,1,.79.1,1.1,1.1,0,0,0,1.429-.019c.126-.09-.011-.094.1-.045,1.134.508,2.321-.209,3.444.166.311.1.6.28.9.067a1.275,1.275,0,0,1,1.649-.005.648.648,0,0,0,.788,0C2368.111,2667.555,2368.685,2668.181,2369.205,2668.979Z" transform="translate(-2320.663 -2650.457)" fill="#996"/>
      <path id="Контур_3928" data-name="Контур 3928" d="M2307.666,2676.114c-.05.061-.157.148-.143.179.554,1.209-.137,2.484.243,3.74.28.929-.545,1.775-.726,2.708-.056.29-.432.157-.492-.119a5.007,5.007,0,0,1-.07-1.072q0-13.805,0-27.611c0-1.609,0-1.612,1.6-1.614q3.661,0,7.323,0a2.447,2.447,0,0,1,1.4.242c-.237,1.16-1.247,1.048-2.062,1.26a21.6,21.6,0,0,1-3.742-.025,2.91,2.91,0,0,1-1.054,0c-1.423-.136-2.163.552-1.845,1.893.212.9-.5,1.69-.111,2.553.021,1.106.041,2.211,0,3.316a22.832,22.832,0,0,1-.025,3.754,2.884,2.884,0,0,1,0,1.061c-.273.579.039,1.094.187,1.626.152.77-.514,1.482-.154,2.268.062,1.664,0,3.328.024,4.991A.955.955,0,0,1,2307.666,2676.114Z" transform="translate(-2305.268 -2638.605)" fill="#c2bf8e"/>
      <path id="Контур_3929" data-name="Контур 3929" d="M2311.188,2730.587a59.85,59.85,0,0,1,0-6.023c.115-.655.661-.584.958-.367,1.191.872,2.461,1.7,2.889,3.261,0,.079,0,.158,0,.237-.844.883-1.682,1.771-2.532,2.648C2312.132,2730.73,2311.73,2731.063,2311.188,2730.587Z" transform="translate(-2308.79 -2693.079)" fill="#b29a66"/>
      <path id="Контур_3930" data-name="Контур 3930" d="M2306.376,2645.585c.884-.927,1.871-.917,3.134-.794,2.519.245,5.079.076,7.622.074a3.353,3.353,0,0,1,1.518.217c.9.461.346.968-.029,1.342-.435.434-.877,1.288-1.648.362-.308-.583-.863-.468-1.366-.469-2.577-.005-5.155,0-7.731-.009-.419,0-.883.142-1.236-.239a1.833,1.833,0,0,1,1.578-.4c2.794.1,5.588-.012,7.771.037-2.782.113-6.179-.177-9.569.135Z" transform="translate(-2305.192 -2632.84)" fill="#8a8861"/>
      <path id="Контур_3931" data-name="Контур 3931" d="M2306.558,2647.5a3.343,3.343,0,0,1,2.448-.57c1.824.144,3.667.063,5.5.071.8,0,1.6-.031,2.394.014.425.024,1.2-.243,1.174.381-.033.776-.768.345-1.242.343-3.352-.016-6.7-.013-10.056-.017Z" transform="translate(-2305.331 -2634.491)" fill="#70703d"/>
      <path id="Контур_3932" data-name="Контур 3932" d="M2342.744,2642.071a1.433,1.433,0,0,0,1.677-1.7c.269-.844,1.147-1.072,1.674-1.656a.63.63,0,0,1,.969.092c.2.723-.426,1.063-.79,1.437-.543.559-1.065,1.136-1.594,1.708a4.245,4.245,0,0,1-.35.355c-.6.447-1.052,1.1-1.826,1.3-.611-.521-1.171.188-1.767.077-.284-.117-.52-.266-.4-.636a3.4,3.4,0,0,0,2.147-.956Z" transform="translate(-2330.965 -2628.125)" fill="#a8a895"/>
      <path id="Контур_3933" data-name="Контур 3933" d="M2334.022,2634.245l-.946-.225c-.3-.605-.87-.52-1.365-.468-2.755.292-5.423-.778-8.175-.5-.137.014-.325-.008-.371-.389,4.023-.287,8.063.2,12.063-.312l.259.474A3.611,3.611,0,0,1,2334.022,2634.245Z" transform="translate(-2317.945 -2623.433)" fill="#9f9e75"/>
      <path id="Контур_3934" data-name="Контур 3934" d="M2324.949,2638.537a9.578,9.578,0,0,1-1.424-.131c-.306-.072-.81-.062-.774-.573.032-.461.436-.519.809-.523.839-.009,1.679-.013,2.518,0,.36,0,.8.009.8.5,0,.4-.354.623-.73.666a10.513,10.513,0,0,1-1.2.01Z" transform="translate(-2317.628 -2627.196)" fill="#bbbaae"/>
      <path id="Контур_3935" data-name="Контур 3935" d="M2306.565,2788.433l.19-.015a2.028,2.028,0,0,1,1.387-.24q23.988-.007,47.978,0a2.023,2.023,0,0,1,1.386.241,1.153,1.153,0,0,0,.174,0c-.095.261-.265.324-.551.323q-24.579-.047-49.157-.095C2307.517,2788.643,2306.938,2789.092,2306.565,2788.433Z" transform="translate(-2305.336 -2741.781)" fill="#626230"/>
      <path id="Контур_3936" data-name="Контур 3936" d="M2533.878,2673.286c-1-.334-.8-1.18-.662-1.855a12.176,12.176,0,0,0,.168-2.209.842.842,0,0,1-.25-.709,1.963,1.963,0,0,1,.088-.388c.031-1.231.152-2.458.1-3.691-.138-2.351.085-4.689.148-7.033.117-4.344.029-8.693.039-13.04,0-.536-.141-1.157.564-1.427l.034.068c0,7.947-.017,15.894,0,23.841C2534.12,2669,2533.69,2671.129,2533.878,2673.286Z" transform="translate(-2477.395 -2631.474)" fill="#171710"/>
      <path id="Контур_3937" data-name="Контур 3937" d="M2466.408,2637.753q-.006-.6-.012-1.2a1.4,1.4,0,0,1,1.019-.238q5.31-.007,10.619,0a2.081,2.081,0,0,1,2.043.958l.24.482a1.525,1.525,0,0,1,.233,1.029c-.031.471,0,1.058-.6,1.147a.972.972,0,0,1-1.041-.823c-.186-.969-.811-1.012-1.584-1.008q-4.667.025-9.333,0C2467.443,2638.1,2466.857,2638.217,2466.408,2637.753Z" transform="translate(-2426.73 -2626.446)" fill="#b8b7ac"/>
      <path id="Контур_3938" data-name="Контур 3938" d="M2530.214,2638.484a2.113,2.113,0,0,0-.222,1.389c-.006,3.433.026,6.866-.011,10.3-.036,3.346-.139,6.692-.213,10.038a.319.319,0,0,1-.465,0l-.04-.018a3.244,3.244,0,0,1-.319-2.077c0-1.073-.039-2.146-.015-3.219a5.353,5.353,0,0,0-.029-.628c-.033-4.742.061-9.482.036-14.223a2.479,2.479,0,0,0-.554-1.776c-.265-.294-.528-.629-.23-1.063a.4.4,0,0,1,.4-.121,1.679,1.679,0,0,1,.916.279C2529.458,2637.911,2529.618,2638.343,2530.214,2638.484Z" transform="translate(-2473.533 -2627.024)" fill="#4e4e04"/>
      <path id="Контур_3939" data-name="Контур 3939" d="M2454.186,2609.163c-.007.881-.018,1.762-.02,2.642,0,.575,0,1.3-.719,1.278-.642-.019-.946-.64-.939-1.322.009-1,0-2,0-3a16.9,16.9,0,0,1,.011-1.8,3.288,3.288,0,0,0-1.335-3.35c-.75-.528-.714-1.054.116-1.489l.3.294c.287.994,1.225,1.407,1.861,2.088.7.131.683.66.686,1.2C2454.15,2606.852,2454.171,2608.007,2454.186,2609.163Z" transform="translate(-2414.77 -2600.474)" fill="#3b3b28"/>
      <path id="Контур_3940" data-name="Контур 3940" d="M2520.067,2635.507l-.238.075c-.584.408-.1.7.15.933a1.946,1.946,0,0,1,.587,1.617c-.018,2.676-.014,5.353,0,8.029,0,.772-.069,1.488-1.024,1.6-.7.086-1.211-.562-1.242-1.578-.04-1.317-.005-2.636-.016-3.954a2.387,2.387,0,0,0-.225-1.394c-.431-.522-1.132-.847-1.209-1.632.17-.663.518-.282.8-.121.3.171.347.522.5.8l0,0c1.057.222,1.377.915,1.337,1.933-.051,1.277-.013,2.558-.012,3.535.151-1.8-.2-3.915.2-6.028a4.289,4.289,0,0,0-.32-2.57,4.034,4.034,0,0,1-.433-.714.772.772,0,0,1,.327-.949C2519.712,2634.8,2519.857,2635.242,2520.067,2635.507Z" transform="translate(-2465.047 -2625.445)" fill="#8d8d33"/>
      <path id="Контур_3941" data-name="Контур 3941" d="M2466.445,2642.279c3.718,0,7.437.011,11.154-.006.859,0,1.622-.034,1.617,1.177a.815.815,0,0,0,.775.79c.478-.031.341-.542.36-.877.021-.359,0-.719,0-1.079a1.9,1.9,0,0,1-.473,2.877,7.026,7.026,0,0,1-1.535-1.413c-.337-.656-.945-.63-1.549-.63q-4.289,0-8.579,0a4.315,4.315,0,0,1-1.418-.1,1.358,1.358,0,0,1-.35-.245Q2466.447,2642.521,2466.445,2642.279Z" transform="translate(-2426.767 -2630.972)" fill="#b0ad98"/>
      <path id="Контур_3942" data-name="Контур 3942" d="M2523.479,2642.316c.435.2.486.586.485,1.006,0,2.756,0,5.511-.009,8.266,0,.328.113.87-.385.835-.448-.031-.324-.566-.327-.9-.013-1.357-.064-2.719.015-4.072a1.97,1.97,0,0,0-.983-2c1.441-.127,1.52-.244,1.3-1.578A13.721,13.721,0,0,1,2523.479,2642.316Z" transform="translate(-2469.171 -2631.005)" fill="#969555"/>
      <path id="Контур_3943" data-name="Контур 3943" d="M2480.056,2636.434a3.382,3.382,0,0,0-2.321-.739c-3.786.037-7.573.017-11.359.017a.509.509,0,0,1,.186-.508c3.747.01,7.5-.006,11.242.051C2478.691,2635.269,2479.8,2635.113,2480.056,2636.434Z" transform="translate(-2426.709 -2625.604)" fill="#b0ad98"/>
      <path id="Контур_3944" data-name="Контур 3944" d="M2478.679,2645.521a3.819,3.819,0,0,1,1.212,1.194l-.013.25c-.479-.129-.589-.837-1.2-.761l-.131.161-.071-.2a1.68,1.68,0,0,0-1.863-1.151c-2.963.034-5.926.018-8.89.008-.537,0-1.192.149-1.266-.707.069,0,.137.009.206.015,2.175.233,4.356.053,6.535.1,1.191.025,2.386.051,3.575-.011A1.761,1.761,0,0,1,2478.679,2645.521Z" transform="translate(-2426.778 -2632.527)" fill="#969555"/>
      <path id="Контур_3945" data-name="Контур 3945" d="M2524.38,2749.232q0,.363,0,.725c-.11,2.068-2.061,2.73-3.115,4.077q0-.719-.007-1.438a1.089,1.089,0,0,1,.466-1.024C2522.637,2750.826,2523.179,2749.653,2524.38,2749.232Z" transform="translate(-2468.387 -2712.209)" fill="#343431"/>
      <path id="Контур_3946" data-name="Контур 3946" d="M2442.916,2598.085c-1.213.325-1.529,1.01-.609,1.809a3.734,3.734,0,0,1,1.133,3.334c-.048,1.8.023,3.6-.026,5.4-.026.954.358,1.257,1.277,1.248,3.482-.033,6.964-.017,10.446-.008.536,0,1.2-.143,1.232.731a.552.552,0,0,1-.347.116,5.483,5.483,0,0,1-.961-.148,56.909,56.909,0,0,0-5.879-.1c-1.681-.033-3.364.02-5.046-.018-1.281-.029-1.736-.481-1.765-1.755a40.9,40.9,0,0,1,.025-5.162,4.925,4.925,0,0,0-2.206-4.583c-.2-.521-.858-1.086-.316-1.589a1.631,1.631,0,0,1,1.886.008l.243.237C2442.188,2597.994,2442.72,2597.718,2442.916,2598.085Z" transform="translate(-2406.427 -2596.635)" fill="#959563"/>
      <path id="Контур_3947" data-name="Контур 3947" d="M2404.962,2597.129l-.236,0c-1.518.01-1.518.01-1.21,1.438a.638.638,0,0,1-.421.139,5.293,5.293,0,0,0-2.665-.514c-2.643.028-5.286.036-7.929-.007-.644-.011-1.489.062-1.242-1.06l.235-.235a3.306,3.306,0,0,1,1.529-.114q5.378-.02,10.757,0c.386,0,.8-.123,1.16.134C2404.945,2596.985,2404.952,2597.057,2404.962,2597.129Z" transform="translate(-2369.629 -2596.395)" fill="#a4a473"/>
      <path id="Контур_3948" data-name="Контур 3948" d="M2380.747,2598.336c.1.808.713.719,1.267.72,2.863,0,5.725.03,8.587-.016a2.744,2.744,0,0,1,2.156.746c.226.229.837.284.375.826-3.146-1.219-6.438-.385-9.645-.7-2.112-.207-3.358.846-4.408,2.455.322.107.617-.23.911-.006.165.914-.464,1.283-1.149,1.437s-.947-.417-1.108-.974a7.552,7.552,0,0,0-.358-1.117Z" transform="translate(-2359.116 -2597.602)" fill="#baba8a"/>
      <path id="Контур_3949" data-name="Контур 3949" d="M2377.747,2629.7a3.545,3.545,0,0,1,2.153-.487l.159.054c1.934,1.727,3.712,3.612,5.527,5.462a.787.787,0,0,1,.175.295,4.038,4.038,0,0,1-2.466,2.448,6.725,6.725,0,0,1-1.057-.8.42.42,0,0,1,.058-.319,1.718,1.718,0,0,1,.665-.246c1.193-.412,1.347-.98.47-1.869-.983-1-2-1.964-2.964-2.976a2.17,2.17,0,0,0-2.317-.848.919.919,0,0,1-.9-.184C2377.083,2629.739,2377.6,2629.894,2377.747,2629.7Z" transform="translate(-2358.995 -2621.028)" fill="#dadada"/>
      <path id="Контур_3950" data-name="Контур 3950" d="M2376.524,2610.178a.721.721,0,0,1,.72.784c.019.427-.07.947.508,1.072.519.112.742-.381,1.055-.661a3.14,3.14,0,0,0,.363-.468,1.018,1.018,0,0,1,.452-.726c.545-.263.942-1,1.714-.547.2.564-.339.729-.6,1.013-.493.542-1.052,1.026-1.5,1.613-.93.541-1.986.8-2.943,1.279C2376.39,2612.419,2376.025,2611.27,2376.524,2610.178Z" transform="translate(-2358.266 -2606.074)" fill="#a2a27a"/>
      <path id="Контур_3951" data-name="Контур 3951" d="M2376.432,2621.791c.576-1.243,1.891-1.006,2.874-1.435a2.146,2.146,0,0,1,.556,1.389,1.068,1.068,0,0,1-.208.735.253.253,0,0,1-.347.033h0c-.335-.9-.9-1.023-1.752-.27C2376.792,2622.919,2376.45,2622.829,2376.432,2621.791Z" transform="translate(-2358.401 -2614.326)" fill="#8f8f80"/>
      <path id="Контур_3952" data-name="Контур 3952" d="M2405.823,2596.6l-13.446-.019c.281-.309.656-.238,1.006-.238q5.725,0,11.449,0C2405.179,2596.342,2405.56,2596.255,2405.823,2596.6Z" transform="translate(-2370.511 -2596.08)" fill="#baba8a"/>
      <path id="Контур_3953" data-name="Контур 3953" d="M2362.66,2631.281l-.5.458c.012.08.044.177.007.236a21.637,21.637,0,0,1-4.279,4.427.386.386,0,0,1-.534-.108l2.635-2.875a2.672,2.672,0,0,1,1.465-1.424C2361.788,2631.644,2362.039,2631.149,2362.66,2631.281Z" transform="translate(-2343.907 -2622.607)" fill="#bebebd"/>
      <path id="Контур_3954" data-name="Контур 3954" d="M2358.108,2787.458c-.359.017-.718.05-1.077.05q-24.3,0-48.6,0c-.359,0-.718-.033-1.077-.05.192-.777.83-.489,1.289-.491,4.685-.02,9.37-.012,14.055-.012q17,0,34,.015C2357.186,2786.97,2357.874,2786.629,2358.108,2787.458Z" transform="translate(-2305.938 -2740.819)" fill="#010100"/>
      <path id="Контур_3955" data-name="Контур 3955" d="M2519.255,2742.729a1.63,1.63,0,0,1,.351-1.353c.655-.62.861-1.158.044-1.8a.447.447,0,0,1-.012-.656c.978-.912,1.676-2.137,2.983-2.682.39.533.251,1.173.353,1.764a3.069,3.069,0,0,1-1.106,2.115,17.09,17.09,0,0,0-2.373,2.606Z" transform="translate(-2466.868 -2702.342)" fill="#56563c"/>
      <path id="Контур_3956" data-name="Контур 3956" d="M2520.288,2748.8c.186-1.169,1.193-1.719,1.9-2.483a4.657,4.657,0,0,0,1.444-2.081,1.307,1.307,0,0,1,.019,1.2h0l-3.126,3.364Z" transform="translate(-2467.662 -2708.412)" fill="#48483e"/>
      <path id="Контур_3957" data-name="Контур 3957" d="M2449,2649.959a1.386,1.386,0,0,1,.179.022c.058.659.641.84,1.062,1.168-.026.049-.052.1-.078.147-.848.646-.618,1.242.083,1.817-.03.335-.147.566-.548.459-.9-.2-1.3.6-1.92.966a.963.963,0,0,1-.723-.373c-.366-.449-.714-.594-1.143-.057a.738.738,0,0,1-1.3.015c-.413-.513-.75-.435-1.147.024-.856.991-1.257-.493-1.883-.371-.59.115-.977,1.277-1.772.347-.424-.5-.761-.454-1.15.021a1.652,1.652,0,0,1-.462.324c-.943-1.239-2.42.5-3.385-.6-.077-.088-.305-.043-.463-.061-1.131-.664-1.791-1.88-2.951-2.511a1.738,1.738,0,0,0-.494-.313.953.953,0,0,1-.674-1.2,1.105,1.105,0,0,1,1.118-.86,2.4,2.4,0,0,1,.7.042c.686.408,1.373-.078,2.06,0a.682.682,0,0,1,.188.495.977.977,0,0,1-.1.338c-.64.729-1.432.509-2.356.352,1.464.712,2.9.312,4.271.353,2.092.062,4.189,0,6.284.032,1.777.023,3.555-.116,5.333.042C2448.259,2650.624,2448.565,2650.136,2449,2649.959Z" transform="translate(-2399.24 -2636.017)" fill="#a4a27b"/>
      <path id="Контур_3958" data-name="Контур 3958" d="M2508.357,2660.633a.8.8,0,0,0,.474-.487,1.375,1.375,0,0,1,0-1.9l.069-.032c.062.008.125.015.187.02q0,13.343.007,26.686c0,.8-.12,1.422-.977,1.669-.693-.135-.895-.48-.456-1.087.093-.129.317-.317.292-.355-.714-1.1.221-2.314-.25-3.421-.03-.07-.154-.16-.14-.182.7-1.1-.2-2.306.247-3.415.029-.071.154-.159.14-.182-.672-1.1.183-2.3-.235-3.416-.026-.071-.155-.157-.141-.182.632-1.1-.164-2.3.224-3.416.025-.071.155-.155.141-.181-.6-1.109,0-2.276-.167-3.424a16.7,16.7,0,0,1,.04-3.589c.019-.26.458-.6.181-.84C2506.862,2661.907,2507.876,2661.325,2508.357,2660.633Z" transform="translate(-2457.894 -2643.076)" fill="#898980"/>
      <path id="Контур_3959" data-name="Контур 3959" d="M2518.963,2684.718c-.561.927-1.119.174-1.679,0q0-8.877-.007-17.754a.4.4,0,0,1,.54-.065c.4.435.289.979.29,1.487q.018,4.8,0,9.6a2.171,2.171,0,0,0,.578,1.759c.179.166.407.458.319.614-.6,1.061.271,2.181-.164,3.216A1.483,1.483,0,0,0,2518.963,2684.718Z" transform="translate(-2465.375 -2649.618)" fill="#6c6c25"/>
      <path id="Контур_3960" data-name="Контур 3960" d="M2515.88,2652.013a.48.48,0,0,0,.2.035,3.99,3.99,0,0,0,1.21,1.261,28.213,28.213,0,0,1,.359,6.059c.07,2.03-.01,4.058.041,6.088a1.541,1.541,0,0,0,1.025,1.538,1.012,1.012,0,0,1-.41,1.048c-.289.276-.622.568-1.053.36-.412-.2-.444-.621-.445-1.034,0-1.991.021-3.982-.008-5.973a55.135,55.135,0,0,0-.114-5.956,3.645,3.645,0,0,0-.92-2.708c-.128-.119-.037-.3.058-.429Z" transform="translate(-2464.181 -2638.37)" fill="#79790d"/>
      <path id="Контур_3961" data-name="Контур 3961" d="M2512.44,2651.45c.023.478.467.6.742.854.675.625.5,1.333.261,2.062.087.258-.039.389-.271.457l-.476.039a3.693,3.693,0,0,1-.261-1.85c-.006-.393.045-.827-.442-.989s-1.024-.427-.579-.965S2512.049,2651.411,2512.44,2651.45Z" transform="translate(-2460.795 -2637.518)" fill="#2d2d14"/>
      <path id="Контур_3962" data-name="Контур 3962" d="M2519.255,2665.8l.271-.457a7.033,7.033,0,0,1,.213,2.19c.01,3.142,0,6.284.012,9.425,0,.458-.235,1.121.232,1.325.561.245.775-.511,1.166-.794a1.521,1.521,0,0,0,.277-.382c.006-.056.012-.112.018-.168.272-.446.535-.913,1.184-.557a32.872,32.872,0,0,1-.023,5.283l-2.141,1.93c-1.007-.067-1.277-.5-.526-1.248.479-.476.382-.776-.061-1.153-.391-.333-.517-.762-.073-1.118.655-.524.546-.952-.051-1.4-.517-.389-.493-.952-.492-1.519Q2519.266,2671.477,2519.255,2665.8Z" transform="translate(-2466.877 -2648.493)" fill="#737318"/>
      <path id="Контур_3963" data-name="Контур 3963" d="M2533.53,2737.109q-.009-.6-.019-1.2-.111-.961-.221-1.922c.005-.237.01-.473.016-.71l.464,0C2533.646,2734.547,2534.05,2735.857,2533.53,2737.109Z" transform="translate(-2477.537 -2700.086)" fill="#343431"/>
      <path id="Контур_3964" data-name="Контур 3964" d="M2364.448,2686.4c-.1,1.036.226,2.1-.246,3.111a.72.72,0,0,1-.89-.736c.049-1.3-.5-1.222-1.572-1.105a9.55,9.55,0,0,1-2.7.018c-1.151-.214-2.274.159-3.435-.084a7.425,7.425,0,0,0-2.1.029c-1.113.109-2.2-.149-3.294-.006a2.924,2.924,0,0,1-1.075,0c-1.245-.007-2.489.044-3.733-.005a2.909,2.909,0,0,1-1.07,0c-1.128-.18-2.279.318-3.4-.112a2.729,2.729,0,0,1-1.736,0c-.686-.045-1.334.383-2.034.166a2.133,2.133,0,0,0-1.526-.033c-2.573-.021-5.146-.067-7.72.022-.7.024-1.127.147-1.192.948-.044.549-.367,1.03-1,.984-.655-.049-.795-.6-.791-1.147a5.142,5.142,0,0,1,.177-2.243.923.923,0,0,1,.543-.365,7.88,7.88,0,0,1,1.435-.062q17.67,0,35.339,0a5.655,5.655,0,0,1,1.55.1A.7.7,0,0,1,2364.448,2686.4Z" transform="translate(-2319.266 -2664.016)" fill="#c2c08c"/>
      <path id="Контур_3965" data-name="Контур 3965" d="M2438.309,2692.693a5.9,5.9,0,0,1-.616.723c-.444.381-.58.718-.05,1.146.432.349.565.765.093,1.212a.688.688,0,0,1-1.128-.108c-.393-.473-.737-.523-1.147-.018-.362.447-.807.543-1.21.062-.425-.507-.766-.557-1.238-.027-.815.916-1.183-.364-1.777-.4s-.949,1.317-1.783.43c-.443-.472-.806-.615-1.232-.027-.023.031-.06.053-.086.082-.871.948-1.292-.957-1.992-.352s-1.219.934-1.771-.079a6.089,6.089,0,0,0,2.039-2.065c.1-.229.3-.515.5-.453.937.285,1.831-.734,2.763-.06.314.227.628.043.908-.084a1.331,1.331,0,0,1,1.258.008,1.15,1.15,0,0,0,1.141,0,1.325,1.325,0,0,1,1.257-.017.938.938,0,0,0,.912.1,1.551,1.551,0,0,1,1.7-.013C2437.385,2693.12,2437.812,2692.312,2438.309,2692.693Z" transform="translate(-2394.813 -2669.127)" fill="#a3a17b"/>
      <path id="Контур_3966" data-name="Контур 3966" d="M2324.886,2690.032c.488-.5.959-.014,1.439.023,1.252,1.363,1.252,1.758,0,3.346q-.842-1.135-1.682,0a5,5,0,0,1-3.708-1.355c-.376-.4-.792.15-1.111.418-.719.605-1.388,1.177-2.459.706-.486-.214-1.988,1-2.248,1.735-.294.83.439,1.088.91,1.473.152.125.343.2.446.388-.181.423-.6.525-.958.719a4.243,4.243,0,0,1-1.461-1.178c-.211-.213-.437-.575-.781-.265s-.141.649.113.932a4.748,4.748,0,0,1,1.163,1.477c-.014.407.336.632.482.959a.549.549,0,0,1-.754-.014,9.843,9.843,0,0,1-2.346-2.3,1.54,1.54,0,0,1-.113-1.358c-.32.081-.538.364-.873.313-.384-.428-.71-.867-.246-1.44.368-.115.884-.134.836-.662-.037-.411-.491-.458-.836-.546l0-3.6c.583-.2,1.109-.715,1.8-.337a1.038,1.038,0,0,1,.41,1.138,2.356,2.356,0,0,0,.4,1.96,1.953,1.953,0,0,1-.277,1.144.522.522,0,0,0,.147.648c.292.24.538.086.734-.126.544-.588,1.131-1.133,1.7-1.7a1.858,1.858,0,0,1,2.149-.646c.592.244.962-.113,1.365-.479,1.4-1.274,1.691-1.28,3.105.014a1.3,1.3,0,0,0,1.492.429,1.86,1.86,0,0,1,1.292.044c.265.08.57.169.751-.147.165-.286.007-.538-.157-.773C2325.385,2690.646,2325,2690.445,2324.886,2690.032Z" transform="translate(-2308.301 -2666.714)" fill="#a5a17a"/>
      <path id="Контур_3967" data-name="Контур 3967" d="M2328.946,2703.787c-1.07.2-1.355-.788-1.934-1.311-.236-.214-.082-.572.153-.731.567-.383.881-1,1.4-1.441.653-.562,1.126-.962,1.889-.251.229.213.529.094.758-.107.149-.132.282-.281.434-.409,1.5-1.265,1.53-1.295,2.972-.015.57.506.97.8,1.72.254.686-.5.756.135.781.646-.375.409-.834,1.216-1.112,1.158-1.135-.236-2.353.232-3.286-.083-.788-.267-1.087-.321-1.613.233C2330.422,2702.45,2329.669,2703.1,2328.946,2703.787Z" transform="translate(-2320.777 -2673.734)" fill="#a4a17b"/>
      <path id="Контур_3968" data-name="Контур 3968" d="M2376.337,2694.893c.007-.2-.068-.486.035-.585.995-.947.32-1.848-.034-2.761.685.293,1.252-.355,1.915-.237.75,1.291.944,1.291,1.694,0,1.089.514,2.248-.061,3.352.214a.539.539,0,0,1-.17.308,1.963,1.963,0,0,0-.783,2.342c-.266.852-.691,1.33-1.5.524-.4-.393-.692-.475-1.066-.013-.121.151-.413.379-.448.351C2378.36,2694.253,2377.336,2694.836,2376.337,2694.893Z" transform="translate(-2358.313 -2668.206)" fill="#a4a17b"/>
      <path id="Контур_3969" data-name="Контур 3969" d="M2318.4,2688.087c-.487-.583-.946-1.147-.534-2a1.283,1.283,0,0,0-.193-1.131c-.449-.633-.234-1.1.36-1.482a.379.379,0,0,1,.466.172c-.048,1.077-.06,2.158-.016,3.238.006.155-.028-.028.09.046.1.061.155-.114.177-.232a13.243,13.243,0,0,1,.1-2.3,1.52,1.52,0,0,1,1.167-.972c7.674-.066,15.348-.038,23.021-.019,4.552.012,9.1-.184,13.655-.118a5.961,5.961,0,0,1,1.9.167,1.57,1.57,0,0,1,.944,1.024c0,.97.358,1.979-.292,2.885-.491-.406-.15-.955-.24-1.43s.163-1.013-.238-1.442l-.26-.247a1.688,1.688,0,0,0-1.049-.125q-18.281-.008-36.56,0a2.035,2.035,0,0,0-1.058.106l-.257.259a11.788,11.788,0,0,0-.082,2.834C2319.5,2688.109,2319.188,2688.44,2318.4,2688.087Z" transform="translate(-2313.587 -2662.115)" fill="#9a9750"/>
      <path id="Контур_3970" data-name="Контур 3970" d="M2437.485,2691.848c-.684.325-1.554.028-2.045.183-1.215.384-2.4-.471-3.512.177a.858.858,0,0,1-.9-.112,1.123,1.123,0,0,0-1.236-.011c-.238.141-.572.347-.778.162-.938-.844-1.9.318-2.827-.073-.049-.02-.2.07-.2.087.2,1-.963,1.1-1.166,1.706-.282.842-.723.656-1.268.524l-.244-.241c-.116-.547.378-.716.647-1.01a2.912,2.912,0,0,0,1.041-1.639c.177-.071.373-.233.529-.2,1.582.328,3.191-.051,4.732.112,1.171.124,2.325-.054,3.49.054a10.388,10.388,0,0,0,3.234-.011c.822-.189,1.167.116,1.205.834a1.416,1.416,0,0,0,.742,1.384c-.867.528-.938-.257-1.147-.729C2437.613,2692.671,2437.863,2692.181,2437.485,2691.848Z" transform="translate(-2393.989 -2668.282)" fill="#a5a17a"/>
      <path id="Контур_3971" data-name="Контур 3971" d="M2405.009,2691.6c.177-.072.391-.247.523-.2a3.529,3.529,0,0,0,2.547,0c.132-.049.347.127.523.2a.374.374,0,0,1-.094.208,1.749,1.749,0,0,0-.621,2.441c-.556.754-1.12,1.426-1.982.317a.352.352,0,0,0-.6,0c-.862,1.109-1.426.437-1.982-.317-.115-.546.378-.716.648-1.01A2.912,2.912,0,0,0,2405.009,2691.6Z" transform="translate(-2378.811 -2668.277)" fill="#a5a17a"/>
      <path id="Контур_3972" data-name="Контур 3972" d="M2310.993,2713.923a3.521,3.521,0,0,1,.492-.5c.3-.2.523-.8.941-.447.331.282-.112.628-.293.906-.33.506.013.795.306,1.127a7.615,7.615,0,0,0,2.64,2.276c1.158.938-.139,1.174-.481,1.684-.842-.883-1.681-1.77-2.53-2.647-.374-.386-.775-.719-1.318-.248C2310.089,2715.274,2311.175,2714.67,2310.993,2713.923Z" transform="translate(-2308.351 -2684.589)" fill="#a4a17b"/>
      <path id="Контур_3973" data-name="Контур 3973" d="M2433.068,2657.972a7.754,7.754,0,0,1,2.681,2.634l1.18,1.221c.8.256,1.249.742,1.045,1.64a.453.453,0,0,1-.458.157c-.25-.073-.421-.72-.769-.1a.426.426,0,0,1-.3.043.736.736,0,0,1-.22-.226c-.076-.467-.51-.763-.589-1.224.01-.074.085-.183.064-.215-.09-.134-.206.021-.318,0a1.469,1.469,0,0,1-.947-.952c.084-.24.055-.376-.25-.249a1.469,1.469,0,0,1-.952-.95c.072-.224.077-.388-.245-.251a1.388,1.388,0,0,1-.949-.987,1.072,1.072,0,0,1,.731-.642A.345.345,0,0,1,2433.068,2657.972Z" transform="translate(-2400.634 -2642.817)" fill="#585845"/>
      <path id="Контур_3974" data-name="Контур 3974" d="M2453.334,2675.961c.158-.826-.413-1.227-.957-1.645.433-.033.916.079,1,.486.222,1.053.965.949,1.724.943q2.577-.019,5.155,0a2.991,2.991,0,0,1,2.687,2.662,11.163,11.163,0,0,1-.04,1.795c-.094.639-.415.735-.935.372.07-.982.462-1.988-.224-2.912l-.483-.719c-.281-.514-.781-.478-1.256-.5-1.711-.064-3.423,0-5.134-.038C2454.328,2676.4,2453.739,2676.477,2453.334,2675.961Z" transform="translate(-2416.082 -2655.305)" fill="#8a893d"/>
      <path id="Контур_3975" data-name="Контур 3975" d="M2321.18,2717.47c-.846-.259-1.228-1.066-1.8-1.626-.369-.363-.138-1,.363-1.334a.682.682,0,0,1,1.067.392c.272.706,1.241.786,1.333,1.6A1.032,1.032,0,0,1,2321.18,2717.47Z" transform="translate(-2314.934 -2685.732)" fill="#b39c6a"/>
      <path id="Контур_3976" data-name="Контур 3976" d="M2401.989,2692.248c.809.258.27.719.063.954-.535.607-1.162,1.135-1.751,1.694h-.478c-.861-1.275-.636-1.9.953-2.649Z" transform="translate(-2375.79 -2668.928)" fill="#b19b69"/>
      <path id="Контур_3977" data-name="Контур 3977" d="M2419.978,2694.9c-1.2-1.047-.98-1.863.715-2.648h1.212c.81.258.271.719.063.954-.535.607-1.161,1.135-1.751,1.694h-.239Z" transform="translate(-2390.9 -2668.93)" fill="#b19b69"/>
      <path id="Контур_3978" data-name="Контур 3978" d="M2491.322,2687.978c.228-.074.579-.193.6.119.061.946.553,1.974-.375,2.792a1.875,1.875,0,0,0-.228-.018Q2491.32,2689.424,2491.322,2687.978Z" transform="translate(-2445.658 -2665.621)" fill="#878713"/>
      <path id="Контур_3979" data-name="Контур 3979" d="M2317.653,2656.577l.479.481c.165.693-.427.971-.772,1.369-1.066,1.231-2.452,2.167-3.311,3.59a1.393,1.393,0,0,1-1.136.736c-.944-.263-1.286-1.362-2.238-1.618a.659.659,0,0,1-.133-.868,1.678,1.678,0,0,0,.039-1.785c-.321-.591.1-1.08.509-1.455.481-.444.986-1,1.747-.456a3.145,3.145,0,0,1,.3,2.4.474.474,0,0,0,.224.613c.255.147.441-.015.637-.154,1.188-.842,1.2-1.227.047-2.856.028-.027.056-.079.084-.079Q2315.893,2656.529,2317.653,2656.577Z" transform="translate(-2308.276 -2641.66)" fill="#a4a17a"/>
      <path id="Контур_3980" data-name="Контур 3980" d="M2320.942,2657.275c.8.281,1.5.761,1.391,1.667s-1.054,1.306-1.668,1.858c-.406.365-1.373-.417-1.109-.923a2.533,2.533,0,0,0-.028-2.2c-.034-.1.129-.267.2-.4Z" transform="translate(-2315.169 -2642.367)" fill="#b29a68"/>
      <path id="Контур_3981" data-name="Контур 3981" d="M2311.427,2675.607c.629-.539.9.106,1.232.408a12.3,12.3,0,0,1,.934,1.039.33.33,0,0,1,0,.492,1.8,1.8,0,0,0-.487,1.428c-.61-.247-1.02.857-1.684.249Z" transform="translate(-2309.029 -2656.133)" fill="#b29a67"/>
      <path id="Контур_3982" data-name="Контур 3982" d="M2311.417,2705.3c.472-.594.847-.182,1.195.14a.583.583,0,0,1,0,.929c-.348.321-.723.735-1.194.14Q2311.417,2705.9,2311.417,2705.3Z" transform="translate(-2309.021 -2678.61)" fill="#b39c6a"/>
      <path id="Контур_3983" data-name="Контур 3983" d="M2338.369,2637.119c.873.069,1.014-.809,1.49-1.225,1.176-1.029,2.22-2.21,3.317-3.33,1.967-.672,3.207.284,4.361,1.766a22.093,22.093,0,0,0,2.852,2.785c.38.338.393.448,0,.782-.642.548-1.162,1.277-2.172.953a13.929,13.929,0,0,1-2.886-2.682c-.484-.509-1.126-.847-1.5-1.51a.63.63,0,0,0-1.107.077c-.855,1.749-2.431,2.84-3.718,4.186-1.459,1.527-2.938,3.043-4.542,4.427a2.055,2.055,0,0,1-.919.541c-.4.08-.84.139-1.107-.229s.2-.529.35-.776c1.166-1.934,2.966-3.251,4.621-4.706a2.618,2.618,0,0,0,.7-.8Z" transform="translate(-2324.927 -2623.432)" fill="#f3f3f3"/>
      <path id="Контур_3984" data-name="Контур 3984" d="M2336.131,2642.485c.063.872-.818,1.007-1.229,1.5-1.35,1.607-3.153,2.806-4.141,4.705.979.433,1.56-.48,2.122-1.008,1.832-1.72,3.542-3.57,5.306-5.362a9.917,9.917,0,0,0,2.325-2.766.871.871,0,0,1,1.445-.17c.855,1.086,2,1.878,2.842,2.966.438.564,1.234.822,1.431,1.612.018.061.034.122.048.183a.417.417,0,0,1-.287.159c-1.26-.725-2.076-1.939-3.154-2.866-.488-.42-.836-1.029-1.578-1.15a19.449,19.449,0,0,0,2.508,2.891c.727.87,1.876,1.394,2.168,2.623a.708.708,0,0,1-.1.327.634.634,0,0,1-.311.132c-1.4-.657-2.241-1.947-3.318-2.967a1.868,1.868,0,0,0-1.989-.656,7.967,7.967,0,0,0-1.383,1.282,24.657,24.657,0,0,1-2.281,2.265c-.073.075-.146.149-.214.229a7.272,7.272,0,0,1-.837,1.137c-.337.382.1.946-.305,1.311-1.217.251-1.272.2-1.153-1.15-1.175.732-2.068,2.058-3.68,1.531-.578-.27-.841-.708-.39-1.231a37.08,37.08,0,0,1,3.74-3.881.681.681,0,0,1,.763-.2Z" transform="translate(-2322.94 -2628.541)" fill="#bebebd"/>
      <path id="Контур_3985" data-name="Контур 3985" d="M2330.442,2657.225c-1.608,1.239-2.794,2.905-4.3,4.247-.415.369-.112.621.208.839a.225.225,0,0,1-.04.3.68.68,0,0,1-.8-.086c-.239-.419-.7-.355-1.07-.486.161-.864.941-1.237,1.46-1.81.929-1.024,1.91-2,2.869-3C2329.324,2657.326,2329.874,2655.719,2330.442,2657.225Z" transform="translate(-2318.909 -2641.837)" fill="#97968b"/>
      <path id="Контур_3986" data-name="Контур 3986" d="M2523.72,2655.91c-1.44.449-1.473.448-1.434-1.143a52.524,52.524,0,0,1,.206-6.808c.292-1.9-.29-3.807-.21-5.722.571.258.473.776.475,1.246q.008,2.28,0,4.56c0,.646.1,1.319.881,1.3.682-.017.806-.648.8-1.257-.006-2.8-.02-5.6.01-8.4a1.851,1.851,0,0,0-.724-1.436c-.421-.4-.566-.738.223-.812-.105.232-.162.488.082.644,1.013.651.916,1.651.912,2.657-.019,4.658-.014,9.316-.018,13.975a4.423,4.423,0,0,0-1.207,1.2Z" transform="translate(-2469.17 -2627.298)" fill="#83830a"/>
      <path id="Контур_3987" data-name="Контур 3987" d="M2528.287,2710.47a1.422,1.422,0,0,1,1.207-1.2q0,.238-.005.475C2528.942,2709.743,2528.723,2710.286,2528.287,2710.47Z" transform="translate(-2473.737 -2681.857)" fill="#79790d"/>
      <path id="Контур_3988" data-name="Контур 3988" d="M2461.894,2621.325v-7.278l.25-.014v7.274Z" transform="translate(-2423.31 -2609.524)" fill="#0b0b05"/>
      <path id="Контур_3989" data-name="Контур 3989" d="M2479.327,2645.5a3.273,3.273,0,0,0-2.776-.979c-2.662.063-5.326.026-7.989.015-.424,0-.884.126-1.251-.223,3.541-.005,7.083,0,10.624-.02C2478.777,2644.294,2479.341,2644.552,2479.327,2645.5Z" transform="translate(-2427.425 -2632.51)" fill="#a2a276"/>
      <path id="Контур_3990" data-name="Контур 3990" d="M2450.424,2625.074c-.117,1.075-.9,1.056-1.679,1a34.264,34.264,0,0,0-4.166-.017c-.961.047-1.94.02-2.9.009-1.467-.017-2.925-.074-4.4.017a26.047,26.047,0,0,0-2.677,0c-.82.13-1.569-.575-2.531-1.009,1.265-.53,2.406.451,3.43-.233.625-.206.357-.734.36-1.119.021-2.074,0-4.149.02-6.224.005-.484-.17-1.073.475-1.351.487.289.337.774.341,1.189.018,1.876,0,3.751.01,5.627.006,1.476.286,1.758,1.74,1.759,3.353,0,6.705,0,10.058.006a2.245,2.245,0,0,1,1.174.111C2449.952,2624.843,2450.229,2624.826,2450.424,2625.074Z" transform="translate(-2400.66 -2611.131)" fill="#c0c090"/>
      <path id="Контур_3991" data-name="Контур 3991" d="M2456.716,2615.866c-3.8,0-7.606.014-11.409.005-1.481,0-1.806-.356-1.809-1.861,0-1.842.006-3.683-.007-5.525,0-.427.131-.889-.216-1.262-.476-.732-1.478-1.108-1.469-2.168l-.471-.716.247-.007c1.31.869,2.449,1.823,2.406,3.622-.048,2-.015,3.995-.01,5.993,0,1.464.213,1.686,1.65,1.69,3.276.009,6.553,0,9.829.009C2455.884,2615.647,2456.347,2615.515,2456.716,2615.866Z" transform="translate(-2407.696 -2602.156)" fill="#a8a886"/>
      <path id="Контур_3992" data-name="Контур 3992" d="M2397.059,2604.048c.387.792,1.5,1.094,1.468,2.169a82.931,82.931,0,0,0,.152,8.555c.027.21.025.41-.2.493-.379.137-.612-.007-.686-.4.007-.076.012-.153.015-.23-.217-2.493-.083-4.992-.135-7.488a2.8,2.8,0,0,0-2.391-2.252c-2.515-.018-5.03,0-7.545-.01a4.291,4.291,0,0,1-1.653-.164c-.828-.334-1.185.463-1.741.779l-.487.485c-.6-.046-.779.652-1.33.753a1.513,1.513,0,0,1,.372-1.626,4.862,4.862,0,0,1,4.629-2.064,40.215,40.215,0,0,0,5.64.027A5.174,5.174,0,0,1,2397.059,2604.048Z" transform="translate(-2362.947 -2601.149)" fill="#c7c7a2"/>
      <path id="Контур_3993" data-name="Контур 3993" d="M2403.2,2638.031c.367.311.858.547.71,1.17a.237.237,0,0,1-.276.068,5.332,5.332,0,0,1-.507-.382c-1.261-.92-2.121-2.242-3.275-3.271a7.234,7.234,0,0,0-1.737-1.417,1.543,1.543,0,0,1-.631-.517,5.287,5.287,0,0,0-.423-.633c-.566-.12-1.129.18-1.694.011a.916.916,0,0,1-.583-.326c-.059-.017-.119-.033-.179-.046a68.241,68.241,0,0,0-5.07-5.133c-.167-.155-.376-.309-.271-.6l.015-.73c.4-.128.441.255.625.434a.784.784,0,0,0,.292.229c.23.061.439-.082.664-.063a4.635,4.635,0,0,1,1.7.846,3.694,3.694,0,0,1,1.271,1.424,1.559,1.559,0,0,1,.339.546.469.469,0,0,1-.1.3c-.572.873.492,1.022.691,1.552a2.455,2.455,0,0,0,.409.257c.775.288,1.608-.013,2.384.24.441.182.679.593,1.014.9a2.7,2.7,0,0,1,.965,1.059.889.889,0,0,1,.063.472l.928.962a.248.248,0,0,1,.263.264,2.775,2.775,0,0,1,.935.939.247.247,0,0,1,.265.265l.958.927A.256.256,0,0,1,2403.2,2638.031Z" transform="translate(-2368.126 -2618.768)" fill="#70706b"/>
      <path id="Контур_3994" data-name="Контур 3994" d="M2393.924,2653.293l.733-.023c.261.323.716.25,1.014.5-.135.626-.682.794-1.154,1.04-.2-.062-.4-.114-.25.234a1.414,1.414,0,0,1-.971.967c-.246-.1-.366-.064-.231.236a5.868,5.868,0,0,1-1.478,2.073c-.38.446-.574,1.055-1.156,1.323-.463.241-.849-.308-1.308-.123a3.027,3.027,0,0,1-.292.106c-.268.068-.537.137-.729-.152-.01-.718.631-.84,1.057-1.159.451-.459.664-1.1,1.166-1.522,1.039.3.966-.6,1.223-1.138A11.835,11.835,0,0,0,2393.924,2653.293Z" transform="translate(-2367.265 -2639.325)" fill="#ababaa"/>
      <path id="Контур_3995" data-name="Контур 3995" d="M2388.62,2629.331q2.21,2.19,4.421,4.379a3.3,3.3,0,0,1,.92,1.35,40.292,40.292,0,0,1-3.111-2.988c-.634-.573-1.2-1.226-1.822-1.808-.293-.273-.639-.479-.641-.938C2388.465,2629.326,2388.542,2629.327,2388.62,2629.331Z" transform="translate(-2367.481 -2621.139)" fill="#b4b4b3"/>
      <path id="Контур_3996" data-name="Контур 3996" d="M2397.87,2660.881a.967.967,0,0,1,0,.234c-.125.468.7.794.244,1.263-.558.57-.946-.346-1.472-.257a.125.125,0,0,1-.211-.018l0-.254c.125-.3.665-.22.624-.672a1.618,1.618,0,0,0-.2-.346c-.121-.193-.33-.356-.218-.628l.288-.046C2397.4,2660.19,2397.792,2660.331,2397.87,2660.881Z" transform="translate(-2373.587 -2644.554)" fill="#a9a9a9"/>
      <path id="Контур_3997" data-name="Контур 3997" d="M2390.091,2614.38c-.188.258-.316.666-.751.3a6.153,6.153,0,0,0,.126-1.7c-.056.46.134,1.042-.388,1.438l-.445-.733-.249-1.433c.356-1.134,1.376-1.66,2.183-2.381a6.023,6.023,0,0,1,2.353-.135c1.875-.035,3.755.057,5.626-.034,1.365-.066,2.511.1,3.137,1.489-.226,1.93-.372,3.866-.453,5.808-.022.539.144,1.136-.385,1.553a.558.558,0,0,1-.411.007c-.346-1.066-.017-2.181-.234-3.257a7.453,7.453,0,0,0,.333-2.6c-.023-.677-.286-1.057-1-1.059-2.678-.008-5.356-.015-8.034,0-.748.005-1.051.43-1.083,1.147C2390.394,2613.335,2390.572,2613.93,2390.091,2614.38Z" transform="translate(-2367.478 -2606.221)" fill="#5a5a54"/>
      <path id="Контур_3998" data-name="Контур 3998" d="M2403.14,2610.964c-.757-1.339-1.961-1.487-3.366-1.437-2.554.09-5.114.025-7.672.025-.75-.216-1.045.675-1.7.7a1.832,1.832,0,0,1,1.877-.984c3.076.033,6.153.016,9.229.01.66,0,1.009.479,1.487.768,1.787,1.081.963,2.653,1.081,4.013.121,1.388.032,2.794.023,4.192,0,.39.093.809-.232,1.136q-.021-.256-.041-.511c-.412-.377-.314-.882-.319-1.35-.015-1.558,0-3.116-.007-4.674a2.613,2.613,0,0,0-.208-1.286A1,1,0,0,1,2403.14,2610.964Z" transform="translate(-2369.014 -2605.903)" fill="#a2a29b"/>
      <path id="Контур_3999" data-name="Контур 3999" d="M2413.432,2642.518c.076,0,.152,0,.228.007.262.326.118.6-.11.863l-.142.077c-.273.006-.546.014-.819.017-.429,0-.762.129-.872.6-.121.52.177.682.6.788a.836.836,0,0,1,.588.528l-.279.015c-.305.105-.635.117-.937.234a1.817,1.817,0,0,0-.954-.946,1.211,1.211,0,0,0-.792-1.552c-.189.221.3.36.076.573-.957-.131-1.952.221-2.883-.229.2-.365-.022-.312-.251-.251a5.579,5.579,0,0,1-.9-1.023c-.132-.246-.675-.264-.433-.689.193-.339.553-.173.846-.2.393-.016.612.281.885.484a2.359,2.359,0,0,0,1.962.19.533.533,0,0,1,.354-.035A23.034,23.034,0,0,0,2413.432,2642.518Z" transform="translate(-2380.474 -2630.246)" fill="#5a594a"/>
      <path id="Контур_4000" data-name="Контур 4000" d="M2439.836,2617.308c.57.267.431.793.434,1.249.013,2.142.009,4.283.01,6.425a1.3,1.3,0,0,1-1.882.248l.061-.08c.174-.382.679-.2.887-.523a1.486,1.486,0,0,0,.106-.337c.052-1.886,0-3.768.028-5.65C2439.488,2618.174,2439.385,2617.663,2439.836,2617.308Z" transform="translate(-2405.465 -2612.011)" fill="#5a594a"/>
      <path id="Контур_4001" data-name="Контур 4001" d="M2509.869,2658.325v1.9c-.558.007-1.126-.158-1.069-.778C2508.849,2658.926,2509.047,2658.253,2509.869,2658.325Z" transform="translate(-2458.934 -2643.16)" fill="#bbba8f"/>
      <path id="Контур_4002" data-name="Контур 4002" d="M2319.33,2691.905c.731.035.935-.366.976-1.037.052-.855-.259-1.745.211-2.565.006.716,0,1.432.022,2.147.012.383-.033.914.549.843a.693.693,0,0,0,.574-.9c-.269-1.142.148-1.361,1.261-1.226a31.6,31.6,0,0,0,3.5-.063c1.562.014,3.123.093,4.685.145.541.042.815.469,1.139.81a.978.978,0,0,1,.125,1.315c-.3.413-.78.341-1.2.158-.25-.108-.511-.453-.744-.283-1.179.862-1.851.144-2.555-.7-.914-1.1-1.713-.375-2.293.344s-1.067,1.049-1.881.472c-.366-.26-.658-.1-.976.122a13.311,13.311,0,0,0-2.2,2.137c-.393.435-.689.944-1.345.4-.542-.449-.763-.908-.146-1.489A1.975,1.975,0,0,0,2319.33,2691.905Z" transform="translate(-2314.52 -2665.933)" fill="#b39c6a"/>
      <path id="Контур_4003" data-name="Контур 4003" d="M2327.461,2686.454c.371-.352.835-.218,1.26-.219q18.08-.01,36.159,0c.422,0,.891-.15,1.247.238Z" transform="translate(-2321.207 -2664.341)" fill="#b39c6a"/>
      <path id="Контур_4004" data-name="Контур 4004" d="M2385.86,2691.355c.151.732.092,1.4-.847,1.4s-1-.668-.847-1.4A1.8,1.8,0,0,0,2385.86,2691.355Z" transform="translate(-2364.226 -2668.251)" fill="#b39c6a"/>
      <path id="Контур_4005" data-name="Контур 4005" d="M2357.548,2680.869c2.253.01,4.506,0,6.759.039.589.009,1.4-.132,1.17.944l-38.94.006c-.6-.664-.1-.858.436-.864,1.277-.014,2.54-.219,3.816-.219q11.808.009,23.616,0a6.6,6.6,0,0,1,1.669.123l.258-.041c.257-.172.516-.054.775,0Z" transform="translate(-2320.296 -2660.214)" fill="#8b8b1f"/>
      <path id="Контур_4006" data-name="Контур 4006" d="M2351.308,2678.583a2.873,2.873,0,0,1-1.635.235c-8.908,0-17.817,0-26.726.029-.417,0-1.375-.518-1.177.691a1.633,1.633,0,0,0-.718.715,2.291,2.291,0,0,0,0,2.652c-.026.24-.053.559-.342.539-.381-.025-.788-.43-.711-.677.331-1.064-.4-2.226.338-3.226.514-.6.7-1.725,1.914-1.19.187.252.451.225.715.2.831-.192,1.771.07,2.487-.619.1-.1.309-.069.466-.031,3.455.827,6.961.048,10.433.329a.859.859,0,0,0,.836-.357l-.017.01a.46.46,0,0,1,.646-.055c.4.493.912.393,1.418.393q5.376,0,10.752,0a2.738,2.738,0,0,1,1.063.079l.268.026C2351.312,2678.413,2351.31,2678.5,2351.308,2678.583Z" transform="translate(-2315.529 -2657.894)" fill="#8a893d"/>
      <path id="Контур_4007" data-name="Контур 4007" d="M2322.029,2690.625c-.223.078-.52.2-.6-.11a4.884,4.884,0,0,1,0-2.436c.081-.311.377-.181.6-.106Q2322.031,2689.3,2322.029,2690.625Z" transform="translate(-2316.51 -2665.613)" fill="#888714"/>
      <path id="Контур_4008" data-name="Контур 4008" d="M2322.589,2678.446c-1.034-.24-1.058,1.145-1.914,1.19l-.235-.235,0-.492c.356-.191.774-.3.962-.715C2321.9,2677.793,2322.359,2677.573,2322.589,2678.446Z" transform="translate(-2315.871 -2657.988)" fill="#8e8a73"/>
      <path id="Контур_4009" data-name="Контур 4009" d="M2452.076,2678.095c-.256.346-.515.184-.775.005.116-.35-.208-1.013.463-.962C2452.272,2677.176,2452.094,2677.727,2452.076,2678.095Z" transform="translate(-2415.265 -2657.451)" fill="#2b2b17"/>
      <path id="Контур_4010" data-name="Контур 4010" d="M2446.505,2672.821l-.252-.252c.063-.253.055-.6.431-.555a.557.557,0,0,1,.375.375C2447.1,2672.765,2446.758,2672.758,2446.505,2672.821Z" transform="translate(-2411.431 -2653.558)" fill="#2e2e25"/>
      <path id="Контур_4011" data-name="Контур 4011" d="M2441.431,2667.856l-.265-.265c.088-.242.074-.6.449-.561a.559.559,0,0,1,.377.377C2442.034,2667.781,2441.673,2667.768,2441.431,2667.856Z" transform="translate(-2407.567 -2649.773)" fill="#2c2c21"/>
      <path id="Контур_4012" data-name="Контур 4012" d="M2436.447,2662.856l-.263-.263c.084-.243.072-.6.446-.56a.557.557,0,0,1,.376.377C2437.049,2662.784,2436.691,2662.772,2436.447,2662.856Z" transform="translate(-2403.784 -2645.978)" fill="#2c2c21"/>
      <path id="Контур_4013" data-name="Контур 4013" d="M2431.27,2657.874c.158-.7.548-.464.937-.235a.688.688,0,0,1-.684.483Z" transform="translate(-2400.051 -2642.469)" fill="#303028"/>
      <path id="Контур_4014" data-name="Контур 4014" d="M2359.773,2651.954c1.94-.643,2.522,1.174,3.616,2.03a23.313,23.313,0,0,1,1.868,1.811c-.023.726-.1,1.422-.962,1.663a67.345,67.345,0,0,1-7.638.078c-.967-.016-1.066-.359-.738-1.742l0,0a.256.256,0,0,1,.316-.04,1.564,1.564,0,0,0,.88.319c2.153.077,4.305.071,6.458,0,.116,0,.237-.043.346-.3-1.23-1.295-2.308-2.831-4.155-3.5A.207.207,0,0,1,2359.773,2651.954Z" transform="translate(-2342.692 -2638.222)" fill="#e8e8e8"/>
      <path id="Контур_4015" data-name="Контур 4015" d="M2381.251,2646.429c.321.766.191.9-.915.908a44.689,44.689,0,0,0-4.714-4.755.885.885,0,0,1-.363-.915.741.741,0,0,1,.523-.6c.385-.1.532.266.745.485l4.017,4.139.466.5c-.06.062-.113.149-.075.212C2381.016,2646.531,2381.141,2646.465,2381.251,2646.429Z" transform="translate(-2357.494 -2630.043)" fill="#6e6e6e"/>
      <path id="Контур_4016" data-name="Контур 4016" d="M2346.584,2673.813c-.281.721-.941.664-1.51.669a69.507,69.507,0,0,1-8.271-.073c-1.529-.169-2.964.308-4.44.083a1.027,1.027,0,0,0,.008-.186,3.388,3.388,0,0,0,2.929-1.2c.344-.3.509-1.093,1.162-.556.611.5-.188.872-.282,1.326.313.282.678.1,1.01.144a1.292,1.292,0,0,1,.981-.351q3.345,0,6.691,0a1.079,1.079,0,0,1,.967.352Z" transform="translate(-2324.929 -2653.834)" fill="#a9a9a8"/>
      <path id="Контур_4017" data-name="Контур 4017" d="M2360.322,2674.709l-8.64,0c-.023-.479-.516-.954-.012-1.437a3.9,3.9,0,0,0,2.176.5c2.43-.064,4.865.088,7.293-.127a.571.571,0,0,1,.4.12C2361.14,2674.084,2360.537,2674.149,2360.322,2674.709Z" transform="translate(-2339.422 -2654.513)" fill="#c9c9c9"/>
      <path id="Контур_4018" data-name="Контур 4018" d="M2361.992,2670.009c-2.838.472-5.7.158-8.546.245-.521.016-1.093.08-1.063-.724a3.43,3.43,0,0,0,.979-1.184c-.215,1.184.311,1.492,1.45,1.454,2.4-.081,4.8-.021,7.2-.02q.125.084.077.157C2362.053,2669.985,2362.022,2670.009,2361.992,2670.009Z" transform="translate(-2340.134 -2650.775)" fill="#d9d9d9"/>
      <path id="Контур_4019" data-name="Контур 4019" d="M2356.708,2660.5l-.239,0,2.388-2.415a.2.2,0,0,1,.314.021A2.818,2.818,0,0,1,2356.708,2660.5Z" transform="translate(-2343.239 -2642.928)" fill="#d9d9d9"/>
      <path id="Контур_4020" data-name="Контур 4020" d="M2392.345,2669.937c.006-.076.011-.152.014-.228l.693-1.433.274-.024c.071.007.14.013.211.018a3.309,3.309,0,0,1-.936,1.676Z" transform="translate(-2370.487 -2650.704)" fill="#cbcbcb"/>
      <path id="Контур_4021" data-name="Контур 4021" d="M2366.636,2653.8h-.237l1.463-1.423q-.01.114-.011.228C2367.887,2653.665,2367.686,2653.863,2366.636,2653.8Z" transform="translate(-2350.781 -2638.648)" fill="#d2d2d2"/>
      <path id="Контур_4022" data-name="Контур 4022" d="M2526.121,2701.327c-.125.414-.375.767-.819.736a.783.783,0,1,1,.082-1.563A.851.851,0,0,1,2526.121,2701.327Z" transform="translate(-2470.884 -2675.192)" fill="#8c8c2e"/>
      <path id="Контур_4023" data-name="Контур 4023" d="M2525.3,2692.119c-.428-.1-.776-.352-.772-.791a.784.784,0,1,1,1.566.018A.862.862,0,0,1,2525.3,2692.119Z" transform="translate(-2470.884 -2667.623)" fill="#8c8c2e"/>
      <path id="Контур_4024" data-name="Контур 4024" d="M2407.494,2636.033l-.539-.231a.767.767,0,0,1,.1-.865c1.641-.464,3.317-.144,4.975-.2a4.475,4.475,0,0,1,2.346.2c.343.468.14,1,.164,1.5a.9.9,0,0,1-.928.413c-1.317-.06-2.621.156-3.938.154A2.467,2.467,0,0,1,2407.494,2636.033Z" transform="translate(-2381.518 -2625.205)" fill="#b9b8b0"/>
      <path id="Контур_4025" data-name="Контур 4025" d="M2404.344,2654.784a2.855,2.855,0,0,1,1.217-.974c.215-.317.449-.594.9-.444l.258.681c-.274.581-.979.439-1.368.825-.787.823-1.615,1.606-2.39,2.438-.263.455-.106.684.391.687,1.708.012,3.417.018,5.125,0a.537.537,0,0,0,.6-.457c.063-.3.1-.647.5-.733.713.149.908.818,1.077,1.324.26.777-.327,1.23-1.034,1.259q-3.706.153-7.416,0a.942.942,0,0,1-.992-1.271c.845-.39.932-1.461,1.714-1.907a.356.356,0,0,1,.225-.225l.977-.976A.356.356,0,0,1,2404.344,2654.784Z" transform="translate(-2377.182 -2639.366)" fill="#d3d3d3"/>
      <path id="Контур_4026" data-name="Контур 4026" d="M2398.379,2661.965c.135.807.688.978,1.406.973,2.161-.015,4.323-.008,6.483,0,.573,0,1.351,0,1.327-.656-.019-.527-.148-1.4-1.066-1.479a2.915,2.915,0,0,1-2.14-2.41c.923.1,1.29.933,1.893,1.445,1.211,1.029,2.089,2.4,3.4,3.342-.047.536-.472.465-.806.466q-5.387.025-10.775,0a.9.9,0,0,1-.657-.238Z" transform="translate(-2374.357 -2643.213)" fill="#c4c4c4"/>
      <path id="Контур_4027" data-name="Контур 4027" d="M2403.618,2634.073q-.022.354-.044.707a2.94,2.94,0,0,0-1.156-1.448l8.661.01a4.855,4.855,0,0,1,.017,3.111,17.761,17.761,0,0,1-6.455-.493c1.629-.318,3.285-.061,4.922-.228.5-.051,1.041.136,1.482-.257q0-.7-.006-1.39a52.3,52.3,0,0,0-7.421-.013Z" transform="translate(-2378.137 -2624.182)" fill="#9e9b82"/>
      <path id="Контур_4028" data-name="Контур 4028" d="M2410.929,2656.827c.437,1.049,1.411,1.621,2.14,2.41.282,1.411.282,1.413-1.165,1.415-1.552,0-3.1.006-4.654,0-1.372-.006-1.418-.089-.878-1.43,1.783.609,3.584.28,5.518.246a5.945,5.945,0,0,0-3.11-2.658c.487-.377,1.124-.233,1.65-.475Z" transform="translate(-2380.896 -2641.651)" fill="#ebebeb"/>
      <path id="Контур_4029" data-name="Контур 4029" d="M2392.876,2677.762c3.664,0,7.328.009,10.991,0,.422,0,.886.137,1.247-.23.191.093.205.264.2.444a1.849,1.849,0,0,1-1.257.253c-3.342,0-6.684-.039-10.024.025a8.624,8.624,0,0,1-2.6-.7C2392.022,2676.849,2392.382,2677.779,2392.876,2677.762Z" transform="translate(-2369.793 -2657.569)" fill="#a9a9a8"/>
      <path id="Контур_4030" data-name="Контур 4030" d="M2416.25,2640.777c-.105.662-.632.489-1.034.491-1.79.011-3.581,0-5.371-.007l-.574-.689.047-.26a6.433,6.433,0,0,0,4.191.537A18.018,18.018,0,0,1,2416.25,2640.777Z" transform="translate(-2383.343 -2629.482)" fill="#a9a984"/>
      <path id="Контур_4031" data-name="Контур 4031" d="M2421.092,2648.214c-.225-.407-.912-.057-1.023-.623-.014-.073.107-.22.2-.258a1.354,1.354,0,0,1,1.433.244c.581.474,1.1,1.01.108,1.615C2421.435,2648.965,2421.319,2648.548,2421.092,2648.214Z" transform="translate(-2391.543 -2634.733)" fill="#3b3b28"/>
      <path id="Контур_4032" data-name="Контур 4032" d="M2391.265,2620.732c0-.708-.006-1.416.006-2.124,0-.276.039-.618.391-.608.28.008.331.334.3.56-.125.813.409,1.747-.431,2.432Z" transform="translate(-2369.666 -2612.536)" fill="#10100f"/>
      <path id="Контур_4033" data-name="Контур 4033" d="M2398,2633.556c.04.345-.131.55-.312.482a4.08,4.08,0,0,1-1.594-1.236c-.181-.211.2-.452.409-.388A3.793,3.793,0,0,1,2398,2633.556Z" transform="translate(-2373.298 -2623.476)" fill="#373731"/>
      <path id="Контур_4034" data-name="Контур 4034" d="M2417.241,2652.835c-.313.119-.519.455-.9.444-.415,0-.8-.057-.987-.5C2415.971,2653.285,2416.632,2652.189,2417.241,2652.835Z" transform="translate(-2387.965 -2638.835)" fill="#a9a9a9"/>
      <path id="Контур_4035" data-name="Контур 4035" d="M2411.294,2647.806c.085-.462.38-.573.779-.423.116.043.28.241.258.32-.114.4-.487.308-.785.354Z" transform="translate(-2384.879 -2634.805)" fill="#333323"/>
      <path id="Контур_4036" data-name="Контур 4036" d="M2406.667,2662.364l-.225.225c-.309-.05-.632-.1-.642-.506a.341.341,0,0,1,.361-.361C2406.565,2661.731,2406.618,2662.054,2406.667,2662.364Z" transform="translate(-2380.706 -2645.744)" fill="#a9a9a9"/>
      <path id="Контур_4037" data-name="Контур 4037" d="M2411.663,2657.367l-.226.225c-.309-.05-.632-.1-.642-.506a.341.341,0,0,1,.361-.361C2411.561,2656.735,2411.614,2657.058,2411.663,2657.367Z" transform="translate(-2384.5 -2641.949)" fill="#a9a9a9"/>
      <path id="Контур_4038" data-name="Контур 4038" d="M2397.089,2662.6c-.206.234-.278.721-.761.441-.116-.067-.26-.266-.235-.364.1-.4.447-.34.756-.32Z" transform="translate(-2373.331 -2646.217)" fill="#343434"/>
      <path id="Контур_4039" data-name="Контур 4039" d="M2397,2613.073h9.99l0,.269H2397Z" transform="translate(-2374.02 -2608.795)"/>
      <path id="Контур_4040" data-name="Контур 4040" d="M2440.027,2616.563c0,2.192.01,4.383.005,6.575,0,.389.1.805-.211,1.141a.68.68,0,0,1-.265-.633c.224-1.964-.009-3.941.133-5.907-.13,1.929.079,3.868-.138,5.794a.882.882,0,0,0,.248.768c-.349.416-.778-.051-1.15.105q.1-.432.192-.863a44.528,44.528,0,0,0,.451-5.742c.03-.537-.141-1.139.49-1.475Z" transform="translate(-2405.656 -2611.266)" fill="#414138"/>
      <path id="Контур_4041" data-name="Контур 4041" d="M2359.847,2654.469a1.463,1.463,0,0,0,1.214-1.194,2,2,0,0,1,1.963.777,27.068,27.068,0,0,0,2.691,2.64c.53.5.288.851-.27.863-2.434.05-4.869.029-7.3.021a.654.654,0,0,1-.681-.686A5.379,5.379,0,0,0,2359.847,2654.469Z" transform="translate(-2343.991 -2639.316)" fill="#f5f5f5"/>
      <path id="Контур_4042" data-name="Контур 4042" d="M2386.817,2652.943c-.035.2-.119.415-.354.336a.659.659,0,0,1-.377-.392c-.057-.225.146-.346.36-.329A.4.4,0,0,1,2386.817,2652.943Z" transform="translate(-2365.726 -2638.783)" fill="#3a3a3a"/>
      <path id="Контур_4043" data-name="Контур 4043" d="M2391.823,2657.954c-.063.184-.139.411-.383.3a.661.661,0,0,1-.354-.415c-.029-.21.178-.344.4-.3A.405.405,0,0,1,2391.823,2657.954Z" transform="translate(-2369.529 -2642.561)" fill="#3a3a3a"/>
      <path id="Контур_4044" data-name="Контур 4044" d="M2407.41,2635.537c.3-.374.722-.257,1.1-.26q2.611-.015,5.223,0c.378,0,.807-.128,1.093.271Z" transform="translate(-2381.929 -2625.646)" fill="#a9a984"/>
      <path id="Контур_4045" data-name="Контур 4045" d="M2409.794,2658.309c1.076,0,3.39,1.523,3.689,2.438.169.518-.2.659-.578.664-1.638.022-3.277.01-4.916.014-.481,0-.609-.292-.6-.7A12.331,12.331,0,0,0,2409.794,2658.309Z" transform="translate(-2381.912 -2643.152)" fill="#efefef"/>
      <path id="Контур_4046" data-name="Контур 4046" d="M2441.9,2626.643c-.318-.062-.529-.247-.476-.577.351-2.207.016-4.445.5-6.656q0,3.6,0,7.21Z" transform="translate(-2407.76 -2613.607)"/>
    </g>
  </g>
  <g id="Прямоугольник_157" data-name="Прямоугольник 157" transform="translate(0 49.658)" fill="none" stroke="#000" stroke-width="1" stroke-dasharray="3 3" opacity="0">
    <rect width="78" height="20" stroke="none"/>
    <rect x="0.5" y="0.5" width="77" height="19" fill="none"/>
  </g>
</svg>
