<svg id="serwice" xmlns="http://www.w3.org/2000/svg" width="76" height="74.77" viewBox="0 0 76 74.77">
  <g id="Сгруппировать_286" data-name="Сгруппировать 286" transform="translate(9.151 0)">
    <g id="Сгруппировать_279" data-name="Сгруппировать 279" transform="translate(0)">
      <path id="Контур_3381" data-name="Контур 3381" d="M2301.805,3403.168h-1.477q-.008-1.334-.016-2.668a1.391,1.391,0,0,1-.189-1.646.6.6,0,0,1,.226-.232,1.468,1.468,0,0,1,1.57.111,2.371,2.371,0,0,1,.291,1.6,16.348,16.348,0,0,1,.01,2C2302.2,3402.661,2302.2,3403.015,2301.805,3403.168Z" transform="translate(-2298.824 -3368.591)" fill="#226e4b"/>
      <path id="Контур_3382" data-name="Контур 3382" d="M2312.929,3337.537l.028-1.482c.492-.557,1.045-.4,1.608-.14a3.808,3.808,0,0,1-.032,3.217,1.457,1.457,0,0,1-1.683.057A1.267,1.267,0,0,1,2312.929,3337.537Z" transform="translate(-2308.424 -3320.916)" fill="#1b7056"/>
      <path id="Контур_3383" data-name="Контур 3383" d="M2307.72,3432.215q.02-1.011.04-2.022a1.1,1.1,0,0,1,1.568-.079,3.635,3.635,0,0,1,.01,3.17,1.121,1.121,0,0,1-1.589-.077Z" transform="translate(-2304.731 -3392.422)" fill="#21692e"/>
      <path id="Контур_3384" data-name="Контур 3384" d="M2307.82,3443.881l1.477,0,.145.084a3.4,3.4,0,0,1-.061,3.045,1.148,1.148,0,0,1-1.568-.111Q2307.816,3445.392,2307.82,3443.881Z" transform="translate(-2304.801 -3403.098)" fill="#13754a"/>
      <path id="Контур_3385" data-name="Контур 3385" d="M2315.5,3463.105l-1.475-.021L2314,3461.6l.038-.006a1.108,1.108,0,0,1,1.584-.071C2315.916,3462.075,2316.117,3462.622,2315.5,3463.105Z" transform="translate(-2309.5 -3416.27)" fill="#075a40"/>
      <path id="Контур_3386" data-name="Контур 3386" d="M2488.528,3312.018q.01.752.02,1.5l-.083.131c-.451.373-.986.212-1.493.237a25.874,25.874,0,0,1-2.993,0,2.193,2.193,0,0,1-1.587-.311,1.154,1.154,0,0,1,.1-1.566l4.542-.025Z" transform="translate(-2437.202 -3302.927)" fill="#207758"/>
      <path id="Контур_3387" data-name="Контур 3387" d="M2441.284,3285.576c.051,1.583-.111,1.471,1.54,1.505a1.256,1.256,0,0,1,.14,1.586c-.466.457-1.05.262-1.592.289a3.291,3.291,0,0,1-1.506-.151.472.472,0,0,1-.285-.283,1.919,1.919,0,0,0-1.372-1.308,2.274,2.274,0,0,0-1.526-1.521,2.215,2.215,0,0,0-1.512-1.511,2.247,2.247,0,0,0-1.52-1.521c-.226-.84-.919-1.225-1.59-1.634a1.62,1.62,0,0,1-.017-1.463.586.586,0,0,1,.219-.227,1.2,1.2,0,0,1,1.5.185c.223,0,.448.019.67.006.539-.03.868.158.836.755-.028.531.232.775.757.75s.776.23.75.756.216.784.748.758.791.208.761.744c-.033.589.282.791.825.776.289-.007.65.053.63.4C2439.667,3285.695,2440.485,3285.605,2441.284,3285.576Z" transform="translate(-2399.03 -3277.993)" fill="#21625e"/>
      <path id="Контур_3388" data-name="Контур 3388" d="M2426.021,3274.3l1.478.031a.977.977,0,0,1,.04,1.484l-.066.031a1.131,1.131,0,0,1-1.567.066,1.149,1.149,0,0,1,.061-1.577Z" transform="translate(-2394.278 -3274.298)" fill="#346164"/>
      <path id="Контур_3389" data-name="Контур 3389" d="M2433.467,3275.811q-.02-.742-.04-1.484a3.519,3.519,0,0,0,.419-.01c.849-.119,1.2.247,1.088,1.089a2.849,2.849,0,0,0,0,.418Z" transform="translate(-2400.207 -3274.295)" fill="#0a5c5a"/>
      <path id="Контур_3390" data-name="Контур 3390" d="M2339.208,3294.761q.01-.724.02-1.449l9.028,0a1.108,1.108,0,0,1,.117,1.554,1.563,1.563,0,0,1-1.087.336c-2.137.011-4.274.057-6.41-.027-.5-.039-1.026.128-1.5-.167A.473.473,0,0,1,2339.208,3294.761Z" transform="translate(-2328.646 -3288.736)" fill="#30713f"/>
      <path id="Контур_3391" data-name="Контур 3391" d="M2376.851,3294.64l-.016-1.472,4.513-.044.144.083a1.238,1.238,0,0,1-.032,1.534,2.225,2.225,0,0,1-1.565.292,20.484,20.484,0,0,1-2.131.021,1.161,1.161,0,0,1-.835-.273Z" transform="translate(-2357.224 -3288.595)" fill="#3f6e61"/>
      <path id="Контур_3392" data-name="Контур 3392" d="M2408.306,3274.337l1.467-.026.061.039a1.149,1.149,0,0,1,.054,1.57,1.162,1.162,0,0,1-1.58-.059Q2408.307,3275.1,2408.306,3274.337Z" transform="translate(-2381.127 -3274.307)" fill="#337269"/>
      <path id="Контур_3393" data-name="Контур 3393" d="M2408.183,3280.581l1.483-.057.14.084a1.407,1.407,0,0,1,.036,1.538,1.307,1.307,0,0,1-1.5.139.518.518,0,0,1-.2-.241Z" transform="translate(-2381.002 -3279.026)" fill="#91b4ad"/>
      <path id="Контур_3394" data-name="Контур 3394" d="M2395.6,3288.462c.078-1.49.078-1.49,1.563-1.472a1.159,1.159,0,0,1,.06,1.573,1.136,1.136,0,0,1-1.574-.055Z" transform="translate(-2371.477 -3283.934)" fill="#3a756f"/>
      <path id="Контур_3395" data-name="Контур 3395" d="M2401.865,3288.352q.028-.734.056-1.466l1.453-.036.07.05a1.094,1.094,0,0,1-1.378,1.7A.516.516,0,0,1,2401.865,3288.352Z" transform="translate(-2376.235 -3283.83)" fill="#81a9a1"/>
      <path id="Контур_3396" data-name="Контур 3396" d="M2295.3,3378.212q-.007-2.25-.014-4.5c.478-.535,1.023-.4,1.578-.158a.57.57,0,0,1,.252.418,13.866,13.866,0,0,1-.1,4.157.625.625,0,0,1-.2.263C2296.277,3378.624,2295.749,3378.764,2295.3,3378.212Z" transform="translate(-2295.289 -3349.522)" fill="#2f6f27"/>
      <path id="Контур_3397" data-name="Контур 3397" d="M2296.755,3365.314l-1.467.007q.008-1.507.015-3.015l1.448-.012.142.067c.414.446.23.993.259,1.5C2297.1,3364.371,2297.374,3364.965,2296.755,3365.314Z" transform="translate(-2295.288 -3341.131)" fill="#2c7744"/>
      <path id="Контур_3398" data-name="Контур 3398" d="M2295.327,3393.592l1.457.015a.926.926,0,0,1,.038,1.5l-.021.043-1.48-.04Q2295.324,3394.35,2295.327,3393.592Z" transform="translate(-2295.313 -3364.902)" fill="#287a47"/>
      <path id="Контур_3399" data-name="Контур 3399" d="M2477.4,3313.573q0-.743,0-1.486l1.5,0q0,.749,0,1.5l-.085.136C2478.3,3314.013,2477.815,3314.119,2477.4,3313.573Z" transform="translate(-2433.599 -3302.999)" fill="#3a8770"/>
      <path id="Контур_3400" data-name="Контур 3400" d="M2307.683,3407.943l.051-2.861a1.241,1.241,0,0,1,1.611-.1,4.184,4.184,0,0,1,.01,3.229c-.559.291-1.11.442-1.623-.093Z" transform="translate(-2304.702 -3373.365)" fill="#6a9044"/>
      <path id="Контур_3401" data-name="Контур 3401" d="M2307.888,3418.753l1.455-.018c.62.479.423,1.027.135,1.583a1.1,1.1,0,0,1-1.591-.073Q2307.888,3419.5,2307.888,3418.753Z" transform="translate(-2304.857 -3384)" fill="#77a864"/>
      <path id="Контур_3402" data-name="Контур 3402" d="M2307.886,3425.015l1.478.02.128.062a1.081,1.081,0,0,1,.07,1.316.434.434,0,0,1-.228.157l-1.448-.032Z" transform="translate(-2304.857 -3388.769)" fill="#508b4c"/>
      <path id="Контур_3403" data-name="Контур 3403" d="M2301.372,3356.34c.108-1.466.108-1.466,1.549-1.526a1.225,1.225,0,0,1,1.617-.106,1.7,1.7,0,0,1,.048,1.688c-.463.495-1.062.281-1.615.312-.53-.034-1.117.17-1.532-.357Z" transform="translate(-2299.909 -3335.177)" fill="#468d5c"/>
      <path id="Контур_3404" data-name="Контур 3404" d="M2309.324,3351.213l-1.514-.029q.01-.739.019-1.478l1.477-.032,1.467.006a.539.539,0,0,1,.255.18,1.245,1.245,0,0,1-.176,1.486A1.184,1.184,0,0,1,2309.324,3351.213Z" transform="translate(-2304.799 -3331.546)" fill="#27763f"/>
      <path id="Контур_3405" data-name="Контур 3405" d="M2320.229,3463.105l0-1.5.09-.144a1.26,1.26,0,0,1,1.571.067,3.758,3.758,0,0,1-.033,3.149,1.1,1.1,0,0,1-1.575-.09Z" transform="translate(-2314.227 -3416.27)" fill="#fce6a1"/>
      <path id="Контур_3406" data-name="Контур 3406" d="M2320.419,3475.231l1.49.014.13.079a1.316,1.316,0,0,1,.047,1.44.579.579,0,0,1-.232.2c-.522.184-1.031.29-1.442-.226Q2320.416,3475.986,2320.419,3475.231Z" transform="translate(-2314.37 -3426.909)" fill="#539455"/>
      <path id="Контур_3407" data-name="Контур 3407" d="M2320.39,3481.516l1.5.048a.9.9,0,0,1,.008,1.453l-.022.057-1.489-.046Q2320.387,3482.272,2320.39,3481.516Z" transform="translate(-2314.348 -3431.682)" fill="#267c57"/>
      <path id="Контур_3408" data-name="Контур 3408" d="M2301.442,3394.027q-.019-.75-.038-1.5l.05,0c.455-.515.973-.4,1.505-.152a1.272,1.272,0,0,1,.2,1.491.51.51,0,0,1-.243.2Z" transform="translate(-2299.933 -3363.822)" fill="#83b86e"/>
      <path id="Контур_3409" data-name="Контур 3409" d="M2309.194,3400.322l-1.464-.022-.052-1.468.055-.055a1.141,1.141,0,0,1,1.586-.034C2309.6,3399.295,2309.8,3399.84,2309.194,3400.322Z" transform="translate(-2304.699 -3368.584)" fill="#8aa95c"/>
      <path id="Контур_3410" data-name="Контур 3410" d="M2320.164,3321.7q0-1.5,0-3,.024-.753.047-1.505a1.1,1.1,0,0,1,1.554-.108,1.808,1.808,0,0,1,.338,1.261c.006,1.617.042,3.235-.029,4.852a2.345,2.345,0,0,1-.306,1.626,1.125,1.125,0,0,1-1.567-.09l-.068-.01Q2320.148,3323.213,2320.164,3321.7Z" transform="translate(-2314.157 -3306.591)" fill="#3b6625"/>
      <path id="Контур_3411" data-name="Контур 3411" d="M2313.927,3433.211l-.018-2.985.062-.051a1.131,1.131,0,0,1,1.571-.059,3.687,3.687,0,0,1,.023,3.16,1.112,1.112,0,0,1-1.576-.051Z" transform="translate(-2309.43 -3392.424)" fill="#5f883e"/>
      <path id="Контур_3412" data-name="Контур 3412" d="M2314.115,3443.934l1.448-.007.14.072a3.881,3.881,0,0,1,.088,2.9.592.592,0,0,1-.219.23c-.531.208-1.051.328-1.483-.2l-.012.013Z" transform="translate(-2309.558 -3403.133)" fill="#59985d"/>
      <path id="Контур_3413" data-name="Контур 3413" d="M2321.877,3313.521l-1.458.007q-.005-.754-.011-1.508l1.454-.03a.409.409,0,0,1,.221.137,1.11,1.11,0,0,1,.014,1.253A.4.4,0,0,1,2321.877,3313.521Z" transform="translate(-2314.367 -3302.925)" fill="#3a7640"/>
      <path id="Контур_3414" data-name="Контур 3414" d="M2314.129,3456.4l1.452.024c.591.463.5.963.078,1.479l-.064.042-1.459-.017Q2314.133,3457.168,2314.129,3456.4Z" transform="translate(-2309.598 -3412.608)" fill="#307b52"/>
      <path id="Контур_3415" data-name="Контур 3415" d="M2510.626,3481.86l-1.49.021-1.551-.029a1.18,1.18,0,0,1-.076-1.547,2.142,2.142,0,0,1,1.583-.307c.522.033,1.1-.174,1.507.354l.072.027Q2510.649,3481.12,2510.626,3481.86Z" transform="translate(-2456.282 -3430.519)" fill="#1f5e3f"/>
      <path id="Контур_3416" data-name="Контур 3416" d="M2526.373,3368.462l1.484.053.016,1.482c.433.334.388.822.4,1.285.021.578,0,1.156-.028,1.733,0,.14.01.279.008.419-.014,1.257-.482,1.607-1.767,1.326a.748.748,0,0,1-.271-.174,2.587,2.587,0,0,1-.228-1.543,11.625,11.625,0,0,1,0-1.515,9.841,9.841,0,0,1,.006-1.472,2.6,2.6,0,0,1,.155-1.417A.468.468,0,0,1,2526.373,3368.462Z" transform="translate(-2470.49 -3345.816)" fill="#10413a"/>
      <path id="Контур_3417" data-name="Контур 3417" d="M2513.877,3330.844l1.481.031q.03.743.06,1.485c-.027.007-.055.013-.083.018a1.106,1.106,0,0,1-1.574.05C2513.475,3331.876,2513.288,3331.331,2513.877,3330.844Z" transform="translate(-2461.016 -3317.244)" fill="#07553d"/>
      <path id="Контур_3418" data-name="Контур 3418" d="M2515.251,3431.021q-.025,4.86-.051,9.719c-.425.543-.944.412-1.472.2a.592.592,0,0,1-.219-.235,2.352,2.352,0,0,1-.2-1.05c0-2.129-.048-4.258.03-6.387a15.939,15.939,0,0,1,0-1.606,2.159,2.159,0,0,1,.313-1.586,1.117,1.117,0,0,1,1.557.127Q2515.232,3430.615,2515.251,3431.021Z" transform="translate(-2460.867 -3392.424)" fill="#153401"/>
      <path id="Контур_3419" data-name="Контур 3419" d="M2515.211,3401.6l-1.5,0-.135-.092a1.444,1.444,0,0,1-.263-1.025c-.009-2.139-.052-4.278.027-6.417a2.575,2.575,0,0,1,.253-1.594,1.472,1.472,0,0,1,1.566-.155.606.606,0,0,1,.243.219,1.27,1.27,0,0,1-.154,1.531Q2515.228,3397.835,2515.211,3401.6Z" transform="translate(-2460.865 -3363.819)" fill="#0d2c21"/>
      <path id="Контур_3420" data-name="Контур 3420" d="M2521.367,3394.038q-.008-.766-.017-1.532a.931.931,0,0,1,1.465-.046l.051.052q-.018.743-.036,1.486Z" transform="translate(-2466.985 -3363.79)" fill="#073f3e"/>
      <path id="Контур_3421" data-name="Контур 3421" d="M2515.321,3348.571q.031,1.511.062,3.022l-.095.136a1.28,1.28,0,0,1-1.542-.053,2.3,2.3,0,0,1-.288-1.591,2.25,2.25,0,0,1,.3-1.607A1.125,1.125,0,0,1,2515.321,3348.571Z" transform="translate(-2460.983 -3330.435)" fill="#113823"/>
      <path id="Контур_3422" data-name="Контур 3422" d="M2515.317,3340.226l-1.446-.005-.137-.056c-.422-.4-.257-.911-.267-1.389.013-.47-.133-.957.155-1.4a.436.436,0,0,1,.233-.154l1.443,0Q2515.308,3338.725,2515.317,3340.226Z" transform="translate(-2460.979 -3322.09)" fill="#00360d"/>
      <path id="Контур_3423" data-name="Контур 3423" d="M2488.771,3318.4l3.023,0a1.119,1.119,0,0,1,.121,1.55,2.214,2.214,0,0,1-1.615.315,2.276,2.276,0,0,1-1.62-.3A1.145,1.145,0,0,1,2488.771,3318.4Z" transform="translate(-2441.972 -3307.792)" fill="#4a7e3e"/>
      <path id="Контур_3424" data-name="Контур 3424" d="M2484,3318.343q0,.745,0,1.488l-.09.141a1.231,1.231,0,0,1-1.545-.086,1.146,1.146,0,0,1,.131-1.548l-.007-.012Z" transform="translate(-2437.196 -3307.737)" fill="#63935d"/>
      <path id="Контур_3425" data-name="Контур 3425" d="M2502.416,3319.882q.005-.752.011-1.5l1.5-.011q.011.738.023,1.475l-.064.137a1.089,1.089,0,0,1-1.387.03Z" transform="translate(-2452.605 -3307.768)" fill="#458657"/>
      <path id="Контур_3426" data-name="Контур 3426" d="M2374.047,3480.3q-.009.72-.018,1.439l-42.251.023.005-.018c-.544-.486-.393-1.034-.143-1.591.492-.435,1.091-.24,1.65-.278.978-.052,1.956-.036,2.935-.036h34.143c.671,0,1.342-.017,2.011.04.5.045,1.03-.132,1.5.172A.5.5,0,0,1,2374.047,3480.3Z" transform="translate(-2322.726 -3430.408)" fill="#223c00"/>
      <path id="Контур_3427" data-name="Контур 3427" d="M2328.167,3480.4q-.006.734-.012,1.468l-1.51,0q0-.727-.008-1.453l.023-.052A.938.938,0,0,1,2328.167,3480.4Z" transform="translate(-2319.097 -3430.531)" fill="#296734"/>
      <path id="Контур_3428" data-name="Контур 3428" d="M2472.966,3318.295q.01.751.02,1.5l-.085.132c-.458.373-1,.213-1.514.235a2.083,2.083,0,0,1-1.561-.308,1.19,1.19,0,0,1,.09-1.558l1.547-.028Z" transform="translate(-2427.665 -3307.693)" fill="#395f43"/>
      <path id="Контур_3429" data-name="Контур 3429" d="M2425.977,3280.561l1.458.04q.024.731.047,1.462l-.063.137a1.3,1.3,0,0,1-1.412.12.562.562,0,0,1-.229-.183,1.418,1.418,0,0,1-.032-1.406A.442.442,0,0,1,2425.977,3280.561Z" transform="translate(-2394.241 -3279.054)" fill="#819594"/>
      <path id="Контур_3430" data-name="Контур 3430" d="M2432.281,3286.808c1.439.082,1.439.082,1.521,1.518l-.072.137a1.334,1.334,0,0,1-1.457.082.571.571,0,0,1-.216-.221,1.18,1.18,0,0,1,.173-1.452Z" transform="translate(-2399.04 -3283.799)" fill="#84a19c"/>
      <path id="Контур_3431" data-name="Контур 3431" d="M2438.568,3293.12c1.69.076,1.424-.2,1.5,1.5a.44.44,0,0,1-.163.233,1.394,1.394,0,0,1-1.4-.021.56.56,0,0,1-.191-.23,1.2,1.2,0,0,1,.187-1.431Z" transform="translate(-2403.806 -3288.593)" fill="#77958d"/>
      <path id="Контур_3432" data-name="Контур 3432" d="M2444.835,3299.34c1.46.087,1.46.087,1.515,1.514a.427.427,0,0,1-.166.231,1.408,1.408,0,0,1-1.4-.023.566.566,0,0,1-.192-.23c-.174-.508-.281-1.006.2-1.423Z" transform="translate(-2408.574 -3293.317)" fill="#859997"/>
      <path id="Контур_3433" data-name="Контур 3433" d="M2451.127,3305.638c1.425.066,1.425.066,1.507,1.52l-.071.137a1.322,1.322,0,0,1-1.452.08.57.57,0,0,1-.215-.222,1.184,1.184,0,0,1,.173-1.451Z" transform="translate(-2413.35 -3298.101)" fill="#879b9a"/>
      <path id="Контур_3434" data-name="Контур 3434" d="M2457.4,3311.956c1.438.075,1.438.075,1.511,1.5l-.068.139a1.316,1.316,0,0,1-1.453.086.573.573,0,0,1-.216-.221,1.194,1.194,0,0,1,.168-1.454Z" transform="translate(-2418.12 -3302.899)" fill="#7f9c9c"/>
      <path id="Контур_3435" data-name="Контур 3435" d="M2465.142,3318.25q.029.739.06,1.478l-.074.135a1.334,1.334,0,0,1-1.455.077.566.566,0,0,1-.214-.222,1.189,1.189,0,0,1,.171-1.453l.056-.058Z" transform="translate(-2422.89 -3307.647)" fill="#839891"/>
      <path id="Контур_3436" data-name="Контур 3436" d="M2414.482,3275.907l.042-1.455,2.981-.007q.024.735.049,1.471l-.062.051a2.964,2.964,0,0,1-2.973.01Z" transform="translate(-2385.818 -3274.409)" fill="#7da29d"/>
      <path id="Контур_3437" data-name="Контур 3437" d="M2326.676,3299.552l1.5-.012a1.07,1.07,0,1,1-1.509,1.506Z" transform="translate(-2319.124 -3293.468)" fill="#106442"/>
      <path id="Контур_3438" data-name="Контур 3438" d="M2326.508,3305.705l1.464-.03.148.082a1.236,1.236,0,0,1-.046,1.561,1.154,1.154,0,0,1-1.557-.091l-.061-.033Q2326.482,3306.45,2326.508,3305.705Z" transform="translate(-2318.961 -3298.128)" fill="#437e48"/>
      <path id="Контур_3439" data-name="Контур 3439" d="M2332.759,3300.874q.022-.738.044-1.476l1.506-.045.009.058a1.067,1.067,0,1,1-1.5,1.509Z" transform="translate(-2323.748 -3293.327)" fill="#468748"/>
      <path id="Контур_3440" data-name="Контур 3440" d="M2344.357,3299.475l7.539-.046-.01.032a1.122,1.122,0,0,1,.111,1.559,2.3,2.3,0,0,1-1.626.315c-1.661.067-3.321.041-4.982.023a1.5,1.5,0,0,1-1.175-.286C2343.959,3300.514,2343.793,3299.961,2344.357,3299.475Z" transform="translate(-2332.269 -3293.385)" fill="#98a94f"/>
      <path id="Контур_3441" data-name="Контур 3441" d="M2340.669,3299.6q0,.728-.006,1.456c-.367.582-.863.419-1.361.232a.474.474,0,0,1-.18-.244q.015-.725.03-1.45Z" transform="translate(-2328.581 -3293.51)" fill="#84b263"/>
      <path id="Контур_3442" data-name="Контур 3442" d="M2376.873,3301.05q-.005-.745-.01-1.488l3.032.011a1.134,1.134,0,0,1,.119,1.536,2.042,2.042,0,0,1-1.554.318c-.511-.029-1.055.147-1.509-.241Z" transform="translate(-2357.245 -3293.486)" fill="#6b7c4a"/>
      <path id="Контур_3443" data-name="Контур 3443" d="M2395.676,3293.147l1.458-.052.059.061a1.124,1.124,0,0,1,.158,1.5c-.362.53-.961.388-1.5.2a.576.576,0,0,1-.219-.255Q2395.656,3293.874,2395.676,3293.147Z" transform="translate(-2371.503 -3288.574)" fill="#84a39d"/>
      <path id="Контур_3444" data-name="Контур 3444" d="M2389.31,3300.882q.02-.732.039-1.465l1.482-.06c.016.024.03.049.044.074a1.219,1.219,0,0,1,.165,1.527,1.422,1.422,0,0,1-1.524.163A.529.529,0,0,1,2389.31,3300.882Z" transform="translate(-2366.699 -3293.33)" fill="#a5b1a3"/>
      <path id="Контур_3445" data-name="Контур 3445" d="M2408.248,3287.094q.022-.74.044-1.48l1.458-.036a2.962,2.962,0,0,1,3.047,0h0a4.52,4.52,0,0,0,1.511,1.513l0-.005a4.389,4.389,0,0,0,1.511,1.512h0a4.485,4.485,0,0,0,1.515,1.51h0a4.457,4.457,0,0,0,1.512,1.512v0a4.36,4.36,0,0,0,1.513,1.511h-.006a4.463,4.463,0,0,0,1.514,1.509h0c.419.55.73,1.228,1.544,1.319a.528.528,0,0,1,.166.172,1.586,1.586,0,0,0,1.134,1.276.581.581,0,0,1,.407.375,1.558,1.558,0,0,1-.1,1.508,2.7,2.7,0,0,1-1.617.265,8.176,8.176,0,0,1-3.007-.184.8.8,0,0,1-.342-.451,1.3,1.3,0,0,0-1.377-.839,2.543,2.543,0,0,1-1.516-.307,1.942,1.942,0,0,1-.184-1.365,1.641,1.641,0,0,0,.008-.243c-.031-.319.015-.748-.377-.812s-.371.393-.51.636a1.692,1.692,0,0,1-.147.291.637.637,0,0,1-.237.124,1.54,1.54,0,0,1-1.25-.017c-.528-.239-.564-.714-.552-1.2.021-.826-.042-1.583-1.076-1.768a.375.375,0,0,1-.294-.274c-.1-.854-.838-1.1-1.414-1.5a2.457,2.457,0,0,1-.2-1.449,5.946,5.946,0,0,1,.033-1.4c-.008-1.115-.216-1.312-1.419-1.346C2409.066,3287.448,2408.555,3287.63,2408.248,3287.094Z" transform="translate(-2381.083 -3282.545)" fill="#f9fcf2"/>
      <path id="Контур_3446" data-name="Контур 3446" d="M2417.54,3282.25l-3.047,0q.017-.733.034-1.465l2.973-.01Q2417.52,3281.511,2417.54,3282.25Z" transform="translate(-2385.826 -3279.214)" fill="#dce5e1"/>
      <path id="Контур_3447" data-name="Контур 3447" d="M2397.594,3293.208l1.516,0a5.547,5.547,0,0,0,1.511,1.517q0,.753,0,1.507c-.355.447-.846.386-1.327.357-1.081-.169-1.265.743-1.672,1.389a3.706,3.706,0,0,1-3.173-.2,1.212,1.212,0,0,1,.125-1.567l.033-1.458c1.464-.073,1.464-.073,1.513-1.519Z" transform="translate(-2370.429 -3288.66)" fill="#f7fbfb"/>
      <path id="Контур_3448" data-name="Контур 3448" d="M2302.893,3373.45l-1.452.009q-.028-2.264-.055-4.527l.054-1.5c.42-.532.935-.4,1.458-.208a.577.577,0,0,1,.224.222,2.6,2.6,0,0,1,.216,1.21c.005,1.242.017,2.484-.009,3.726a1.563,1.563,0,0,1-.187.878A.5.5,0,0,1,2302.893,3373.45Z" transform="translate(-2299.92 -3344.749)" fill="#87ad56"/>
      <path id="Контур_3449" data-name="Контур 3449" d="M2303.063,3363.853h-1.452q0-.755.008-1.511l1.5,0A.935.935,0,0,1,2303.063,3363.853Z" transform="translate(-2300.091 -3341.168)" fill="#6ba266"/>
      <path id="Контур_3450" data-name="Контур 3450" d="M2313.95,3400.393l0-1.5.083-.139c.44-.4.913-.15,1.379-.073a.592.592,0,0,1,.245.216,1.969,1.969,0,0,1,.223.964c.022,1.417.031,2.834-.007,4.25a1.162,1.162,0,0,1-.28.929c-.562.258-1.116.414-1.613-.132l-.022.014q-.011-.765-.022-1.53Q2313.945,3401.893,2313.95,3400.393Z" transform="translate(-2309.455 -3368.656)" fill="#ebf6a1"/>
      <path id="Контур_3451" data-name="Контур 3451" d="M2314.123,3425.04l1.487.024c.559.367.411.847.215,1.336a.462.462,0,0,1-.24.173l-1.451-.035Q2314.128,3425.79,2314.123,3425.04Z" transform="translate(-2309.594 -3388.788)" fill="#b0cb7d"/>
      <path id="Контур_3452" data-name="Контур 3452" d="M2307.648,3362.6q.028-.753.056-1.507l1.483-.046c.433-.472,1-.328,1.539-.341a2.16,2.16,0,0,1,1.608.319,1.608,1.608,0,0,1,.019,1.66,1.042,1.042,0,0,1-.839.288c-.972.046-1.945.041-2.917,0a1.071,1.071,0,0,1-.885-.38Z" transform="translate(-2304.676 -3339.92)" fill="#e2f4b9"/>
      <path id="Контур_3453" data-name="Контур 3453" d="M2315.569,3357.414h-1.521q.007-.734.014-1.466l1.482-.039.139.079A.984.984,0,0,1,2315.569,3357.414Z" transform="translate(-2309.537 -3336.281)" fill="#71a359"/>
      <path id="Контур_3454" data-name="Контур 3454" d="M2320.3,3349.731l1.471,0,.146.084a1.225,1.225,0,0,1-.068,1.548,1.188,1.188,0,0,1-1.56-.1l-.024-.042Q2320.286,3350.473,2320.3,3349.731Z" transform="translate(-2314.261 -3331.587)" fill="#3d6701"/>
      <path id="Контур_3455" data-name="Контур 3455" d="M2326.537,3464.562q-.016-1.5-.032-3l.1-.145c1.244-.548,1.817-.2,1.83,1.1,0,.167-.013.334-.013.5a2.692,2.692,0,0,1-.275,1.677,1.162,1.162,0,0,1-1.587-.156Z" transform="translate(-2318.998 -3416.226)" fill="#fce6a1"/>
      <path id="Контур_3456" data-name="Контур 3456" d="M2320.243,3456.8q-.039-.739-.078-1.479l.079-.016c.42-.508.926-.383,1.44-.2a.578.578,0,0,1,.226.217,1.219,1.219,0,0,1-.153,1.476l-.067.035Z" transform="translate(-2314.182 -3411.5)" fill="#fce6a1"/>
      <path id="Контур_3457" data-name="Контур 3457" d="M2326.722,3474.08l1.507-.006a1.216,1.216,0,0,1,1.6-.1c.278.554.433,1.1-.1,1.6l-1.494.054-1.508-.04Q2326.723,3474.837,2326.722,3474.08Z" transform="translate(-2319.162 -3425.763)" fill="#7d903e"/>
      <path id="Контур_3458" data-name="Контур 3458" d="M2309.177,3393.931l-1.464-.042q-.031-.746-.062-1.492l.063.012a1.059,1.059,0,0,1,1.564-.111,1.1,1.1,0,0,1-.038,1.582Z" transform="translate(-2304.678 -3363.696)" fill="#dbf1a8"/>
      <path id="Контур_3459" data-name="Контур 3459" d="M2326.571,3323.248q-.026-3.023-.053-6.046l.055,0c.482-.548,1.029-.39,1.584-.146.436.49.242,1.087.28,1.645.053,1.187.047,2.376.02,3.563a1.394,1.394,0,0,1-.282,1.091C2327.62,3323.618,2327.072,3323.773,2326.571,3323.248Z" transform="translate(-2319.008 -3306.606)" fill="#b4bf5e"/>
      <path id="Контур_3460" data-name="Контур 3460" d="M2326.583,3343.4l1.462-.028c.607.484.413,1.033.126,1.588a1.106,1.106,0,0,1-1.592-.068l-.046.008Z" transform="translate(-2319.019 -3326.763)" fill="#cedf76"/>
      <path id="Контур_3461" data-name="Контур 3461" d="M2320.212,3433.194q-.007-1.5-.013-3.009a.71.71,0,0,0,.083-.03,1.156,1.156,0,0,1,1.379-.239c.484.171.476.654.473,1.065a4.3,4.3,0,0,1-.235,2.281c-.558.324-1.108.473-1.626-.075Z" transform="translate(-2314.208 -3392.399)" fill="#fce6a1"/>
      <path id="Контур_3462" data-name="Контур 3462" d="M2320.5,3443.882l1.456-.005a2.779,2.779,0,0,1,.008,3.032l-1.467-.011Q2320.494,3445.389,2320.5,3443.882Z" transform="translate(-2314.431 -3403.094)" fill="#fce6a1"/>
      <path id="Контур_3463" data-name="Контур 3463" d="M2328.168,3313.482l-1.449.005q0-.751-.009-1.5l1.467-.045.143.085C2328.618,3312.547,2328.75,3313.052,2328.168,3313.482Z" transform="translate(-2319.154 -3302.886)" fill="#a1c274"/>
      <path id="Контур_3464" data-name="Контур 3464" d="M2513.912,3475.221l1.44-.012q-.008.758-.016,1.516l-1.478.008C2513.415,3476.212,2513.312,3475.7,2513.912,3475.221Z" transform="translate(-2461.018 -3426.892)" fill="#1a4c26"/>
      <path id="Контур_3465" data-name="Контур 3465" d="M2509.176,3474.134q-.027.756-.054,1.512l-1.518.052,0-.056a1.071,1.071,0,1,1,1.509-1.51Z" transform="translate(-2456.282 -3425.805)" fill="#62773c"/>
      <path id="Контур_3466" data-name="Контур 3466" d="M2520.166,3368.531l1.5.064q.007.731.012,1.462a1.167,1.167,0,0,1-1.546.124,1.251,1.251,0,0,1-.1-1.553Z" transform="translate(-2465.812 -3345.869)" fill="#002a25"/>
      <path id="Контур_3467" data-name="Контур 3467" d="M2520.189,3374.676l1.487.049q-.011.756-.02,1.512a1.146,1.146,0,0,1-1.507.14,1.294,1.294,0,0,1-.2-1.494A.535.535,0,0,1,2520.189,3374.676Z" transform="translate(-2465.812 -3350.536)" fill="#798d7f"/>
      <path id="Контур_3468" data-name="Контур 3468" d="M2520.186,3381.128l1.449.009q.008.746.016,1.491a1.131,1.131,0,0,1-1.4.242.7.7,0,0,1-.249-.166,1.392,1.392,0,0,1-.054-1.414A.459.459,0,0,1,2520.186,3381.128Z" transform="translate(-2465.791 -3355.436)" fill="#9bad9f"/>
      <path id="Контур_3469" data-name="Контур 3469" d="M2520.166,3387.4l1.477-.039q-.015.74-.03,1.479l-1.466.046-.013-.014A.9.9,0,0,1,2520.166,3387.4Z" transform="translate(-2465.783 -3360.173)" fill="#0d2c21"/>
      <path id="Контур_3470" data-name="Контур 3470" d="M2507.566,3324.5l1.477.052q.019.738.039,1.474.007.768.015,1.537l-.025-.006a1.177,1.177,0,0,1-1.563.116,2.125,2.125,0,0,1-.319-1.594c.025-.529-.157-1.1.345-1.525Z" transform="translate(-2456.221 -3312.424)" fill="#175023"/>
      <path id="Контур_3471" data-name="Контур 3471" d="M2508.932,3450.3l-1.443.023a.537.537,0,0,1-.256-.184,1.617,1.617,0,0,1-.2-.965c-.007-1.753-.05-3.506.032-5.259.028-.442-.1-.916.268-1.287.557-.248,1.107-.4,1.6.138Q2508.931,3446.537,2508.932,3450.3Z" transform="translate(-2456.097 -3401.977)" fill="#8a8632"/>
      <path id="Контур_3472" data-name="Контур 3472" d="M2509.078,3430.22q-.005.757-.011,1.514a1.177,1.177,0,0,1-1.477.17.6.6,0,0,1-.224-.239,1.5,1.5,0,0,1,.119-1.6c.56-.246,1.109-.379,1.593.154Z" transform="translate(-2456.233 -3392.44)" fill="#423a0c"/>
      <path id="Контур_3473" data-name="Контур 3473" d="M2507.671,3437.585l1.477.025q0,.749,0,1.5l-1.461-.008C2507.175,3438.534,2507.172,3438.2,2507.671,3437.585Z" transform="translate(-2456.314 -3398.316)" fill="#797130"/>
      <path id="Контур_3474" data-name="Контур 3474" d="M2508.908,3406.375l-1.481-.014c-.613-.354-.339-.948-.4-1.453a13.357,13.357,0,0,1,0-1.563,15.258,15.258,0,0,1,0-1.571c.045-1.022-.3-2.084.305-3.051a1.16,1.16,0,0,1,1.566.078Q2508.9,3402.589,2508.908,3406.375Z" transform="translate(-2456.062 -3368.598)" fill="#1b1400"/>
      <path id="Контур_3475" data-name="Контур 3475" d="M2515.383,3386.3q-.015.736-.031,1.472l-1.478.034-.146-.089a1.307,1.307,0,0,1,.016-1.582,1.289,1.289,0,0,1,1.589.1Z" transform="translate(-2461 -3359.065)" fill="#8e9995"/>
      <path id="Контур_3476" data-name="Контур 3476" d="M2509.1,3394.027l-1.49.041-.138-.094a1.261,1.261,0,0,1,.07-1.549,1.166,1.166,0,0,1,1.545.08l.053.056Q2509.125,3393.294,2509.1,3394.027Z" transform="translate(-2456.271 -3363.824)" fill="#999780"/>
      <path id="Контур_3477" data-name="Контур 3477" d="M2504.4,3348.519l-.056,1.515c-.4.53-.985.35-1.515.376a2.193,2.193,0,0,1-1.6-.307,1.459,1.459,0,0,1-.021-1.617,2.118,2.118,0,0,1,1.6-.325c.532.029,1.119-.165,1.528.371Z" transform="translate(-2451.512 -3330.388)" fill="#4d5029"/>
      <path id="Контур_3478" data-name="Контур 3478" d="M2507.6,3356l1.513-.011q.028.775.056,1.55l-.113.124a1.321,1.321,0,0,1-1.561-.1A1.18,1.18,0,0,1,2507.6,3356Z" transform="translate(-2456.281 -3336.341)" fill="#343724"/>
      <path id="Контур_3479" data-name="Контур 3479" d="M2515.38,3362.292q.012.751.024,1.5l0,0a1.153,1.153,0,0,1-1.461.214.587.587,0,0,1-.231-.218,1.205,1.205,0,0,1,.169-1.492l.06.031Z" transform="translate(-2461.051 -3341.13)" fill="#000b0a"/>
      <path id="Контур_3480" data-name="Контур 3480" d="M2509.115,3343.809l-1.512-.022a1.14,1.14,0,0,1-.061-1.569,1.089,1.089,0,0,1,1.563.087Q2509.111,3343.058,2509.115,3343.809Z" transform="translate(-2456.283 -3325.666)" fill="#6d8042"/>
      <path id="Контур_3481" data-name="Контур 3481" d="M2509.059,3338.656l-1.438-.022-.133-.052a1.009,1.009,0,0,1-.1-1.3.47.47,0,0,1,.234-.152l1.463.02Q2509.073,3337.9,2509.059,3338.656Z" transform="translate(-2456.237 -3322.016)" fill="#54732f"/>
      <path id="Контур_3482" data-name="Контур 3482" d="M2488.77,3324.587l1.5.031a1.088,1.088,0,0,1,.085,1.569,1.389,1.389,0,0,1-1.65.014c-.351-.549-.475-1.085.089-1.582Z" transform="translate(-2441.967 -3312.492)" fill="#cedc7e"/>
      <path id="Контур_3483" data-name="Контур 3483" d="M2496.171,3326.147q-.007-.743-.014-1.486l1.506-.012,0-.006a1.145,1.145,0,0,1,.24,1.426.6.6,0,0,1-.19.243,1.328,1.328,0,0,1-1.463-.033Z" transform="translate(-2447.851 -3312.535)" fill="#9fa949"/>
      <path id="Контур_3484" data-name="Контур 3484" d="M2484.036,3324.645q.01.735.019,1.47l-.092.141a1.274,1.274,0,0,1-1.569-.063,1.193,1.193,0,0,1,.084-1.568l.049,0Z" transform="translate(-2437.205 -3312.518)" fill="#929e55"/>
      <path id="Контур_3485" data-name="Контур 3485" d="M2502.479,3326.13q-.025-.743-.051-1.486l1.5.018q0,.751.009,1.5A.9.9,0,0,1,2502.479,3326.13Z" transform="translate(-2452.614 -3312.535)" fill="#3c5909"/>
      <path id="Контур_3486" data-name="Контур 3486" d="M2339.189,3475.445l-.008-1.452c.115-.231.338-.267.559-.307a5.273,5.273,0,0,1,1.33-.133q15.08,0,30.16,0c.335,0,.67.022,1.005.028,1.692-.055,3.384-.037,5.076-.019a1.642,1.642,0,0,1,1.262.283c.259.558.425,1.109-.125,1.6q-6.04.012-12.079.024-13.171,0-26.342,0C2339.748,3475.471,2339.469,3475.454,2339.189,3475.445Z" transform="translate(-2328.625 -3425.629)" fill="#938b38"/>
      <path id="Контур_3487" data-name="Контур 3487" d="M2502.462,3475.586q0-.728,0-1.457c.481-.575.983-.49,1.5-.046l.072.03q-.033.744-.066,1.487Z" transform="translate(-2452.639 -3425.764)" fill="#93934e"/>
      <path id="Контур_3488" data-name="Контур 3488" d="M2469.954,3324.531l1.462.032a1.058,1.058,0,1,1-1.486,1.486l0,.007a.947.947,0,0,1-.036-1.483Z" transform="translate(-2427.643 -3312.45)" fill="#838674"/>
      <path id="Контур_3489" data-name="Контур 3489" d="M2477.316,3326.14l-.012-1.5,1.5-.008q.011.755.023,1.511l-.076.127a1.067,1.067,0,0,1-1.36,0Z" transform="translate(-2433.532 -3312.528)" fill="#4c532a"/>
      <path id="Контур_3490" data-name="Контур 3490" d="M2428.65,3288.43c-1.523.008-1.523.008-1.511-1.514l1.48.037Q2428.635,3287.691,2428.65,3288.43Z" transform="translate(-2395.429 -3283.881)" fill="#e1e7e3"/>
      <path id="Контур_3491" data-name="Контур 3491" d="M2434.937,3294.7c-1.53.022-1.53.022-1.511-1.512l1.47.031Q2434.918,3293.958,2434.937,3294.7Z" transform="translate(-2400.203 -3288.643)" fill="#d7e4da"/>
      <path id="Контур_3492" data-name="Контур 3492" d="M2441.209,3300.987c-1.529.017-1.529.017-1.514-1.509l1.485.036Q2441.194,3300.251,2441.209,3300.987Z" transform="translate(-2404.965 -3293.422)" fill="#ddebde"/>
      <path id="Контур_3493" data-name="Контур 3493" d="M2447.494,3307.261c-1.527.008-1.527.008-1.511-1.512l1.478.036Z" transform="translate(-2409.741 -3298.185)" fill="#e2e4e1"/>
      <path id="Контур_3494" data-name="Контур 3494" d="M2453.784,3313.532c-1.526.018-1.526.018-1.512-1.512l1.472.037Q2453.764,3312.794,2453.784,3313.532Z" transform="translate(-2414.518 -3302.947)" fill="#d9e4de"/>
      <path id="Контур_3495" data-name="Контур 3495" d="M2460.048,3319.82c-.137,0-.273.008-.41.008-1.057,0-1.1-.047-1.108-1.108,0-.136,0-.273,0-.409l1.479.033Q2460.03,3319.082,2460.048,3319.82Z" transform="translate(-2419.273 -3307.725)" fill="#dfeae6"/>
      <path id="Контур_3496" data-name="Контур 3496" d="M2466.292,3324.615l.036,1.483c-1.533.011-1.533.011-1.512-1.512Z" transform="translate(-2424.044 -3312.491)" fill="#eaecde"/>
      <path id="Контур_3497" data-name="Контур 3497" d="M2332.86,3305.683l1.468-.059.039.073a1.181,1.181,0,0,1,.1,1.586,1.264,1.264,0,0,1-1.607-.081l-.051-.06Q2332.835,3306.413,2332.86,3305.683Z" transform="translate(-2323.786 -3298.09)" fill="#99c070"/>
      <path id="Контур_3498" data-name="Контур 3498" d="M2338.018,3307.2q.011-.731.021-1.462l1.5-.061,6.02.044a1.132,1.132,0,0,1,.139,1.54,1.981,1.981,0,0,1-1.525.322,13.537,13.537,0,0,1-2.167.033,2.194,2.194,0,0,0-2.509,1.292,1.617,1.617,0,0,1-1.607-.079A1.234,1.234,0,0,1,2338.018,3307.2Z" transform="translate(-2327.458 -3298.126)" fill="#f4f58d"/>
      <path id="Контур_3499" data-name="Контур 3499" d="M2370.565,3307.225q0-.725,0-1.451l1.526-.026,0,.008a1.168,1.168,0,0,1,.155,1.517,1.233,1.233,0,0,1-1.485.2A.5.5,0,0,1,2370.565,3307.225Z" transform="translate(-2352.458 -3298.185)" fill="#dad578"/>
      <path id="Контур_3500" data-name="Контур 3500" d="M2376.816,3307.3q.009-.76.019-1.52l1.515.025a1.13,1.13,0,0,1,.118,1.534,1.271,1.271,0,0,1-1.552.1Z" transform="translate(-2357.209 -3298.211)" fill="#a8a561"/>
      <path id="Контур_3501" data-name="Контур 3501" d="M2382.988,3307.2q.025-.729.05-1.459l1.471-.046.061.05a1.244,1.244,0,0,1,.136,1.534,1.275,1.275,0,0,1-1.51.164A.529.529,0,0,1,2382.988,3307.2Z" transform="translate(-2361.897 -3298.146)" fill="#b2b28e"/>
      <path id="Контур_3502" data-name="Контур 3502" d="M2389.353,3307.236q.025-.735.051-1.469l1.471-.044q.005.764.012,1.527l-.091.136C2390.28,3307.672,2389.783,3307.777,2389.353,3307.236Z" transform="translate(-2366.732 -3298.165)" fill="#e8e9db"/>
      <path id="Контур_3503" data-name="Контур 3503" d="M2419.683,3312.014c.745,0,1.559-.149,1.492,1.054-.024.435.41.461.748.459.541,0,.707.282.727.782a6.042,6.042,0,0,0,.169,2.216,1.489,1.489,0,0,1-.141,1.677,1.522,1.522,0,0,1-1.575,0,1.725,1.725,0,0,1-.333-1.445,1.251,1.251,0,0,0-.951-1.452.641.641,0,0,1-.39-.292,2.578,2.578,0,0,1-.169-1.416c.021-.482-.138-.987.179-1.432A.471.471,0,0,1,2419.683,3312.014Z" transform="translate(-2389.429 -3302.938)" fill="#e4ecf7"/>
      <path id="Контур_3504" data-name="Контур 3504" d="M2476.224,3337.512q-.011-.731-.021-1.462a.425.425,0,0,1,.148-.232,1.388,1.388,0,0,1,1.337-.048.569.569,0,0,1,.212.156,1.782,1.782,0,0,0,1.235,1.347.535.535,0,0,1,.345.342,1.7,1.7,0,0,1-.1,1.521c-.493.413-1.078.225-1.631.256-.56-.033-1.158.162-1.653-.271C2475.839,3338.558,2475.7,3338.007,2476.224,3337.512Z" transform="translate(-2432.439 -3320.873)" fill="#eae7e0"/>
      <path id="Контур_3505" data-name="Контур 3505" d="M2439.978,3329.763l.017,1.5a1.151,1.151,0,0,1,.08,1.585,1.426,1.426,0,0,1-1.634.06c-.437-.468-.332-1.048-.332-1.606.028-.532-.162-1.117.365-1.531l-.012-.066A1.011,1.011,0,0,1,2439.978,3329.763Z" transform="translate(-2403.754 -3316.14)" fill="#ced8f2"/>
      <path id="Контур_3506" data-name="Контур 3506" d="M2457.427,3343.426l2.979.015a1.259,1.259,0,0,1,.126,1.608,4.638,4.638,0,0,1-3.176.114,1.374,1.374,0,0,1-.185-1.543A.522.522,0,0,1,2457.427,3343.426Z" transform="translate(-2418.124 -3326.801)" fill="#dfe9d7"/>
      <path id="Контур_3507" data-name="Контур 3507" d="M2445.789,3338.578q.024-.739.047-1.478c.664,0,1.332.046,1.99-.011.794-.069,1.139.218,1.034,1.022a2.3,2.3,0,0,0,.038.494l-.077.02c-.377.491-.913.344-1.41.35a2.577,2.577,0,0,1-1.451-.166A.439.439,0,0,1,2445.789,3338.578Z" transform="translate(-2409.596 -3321.98)" fill="#b2beda"/>
      <path id="Контур_3508" data-name="Контур 3508" d="M2416,3294.744a2.959,2.959,0,0,0-.418,0c-.843.109-1.2-.252-1.094-1.095a3.148,3.148,0,0,0,0-.418C2416.046,3293.231,2416.264,3293.45,2416,3294.744Z" transform="translate(-2385.808 -3288.674)" fill="#eeeee6"/>
      <path id="Контур_3509" data-name="Контур 3509" d="M2441.13,3326.144l-1.515-.062c.006-.249.023-.5.017-.747-.013-.546.283-.718.785-.711.475.006.729.2.72.69C2441.131,3325.591,2441.132,3325.867,2441.13,3326.144Z" transform="translate(-2404.906 -3312.521)" fill="#e5ebe7"/>
      <path id="Контур_3510" data-name="Контур 3510" d="M2434.823,3330.835l-.019,1.508a1.017,1.017,0,0,1-1.333.2.474.474,0,0,1-.18-.226c.151-.495-.165-1.052.2-1.518Z" transform="translate(-2400.103 -3317.208)" fill="#7b8299"/>
      <path id="Контур_3511" data-name="Контур 3511" d="M2471.112,3330.845l1.5.013v0a.943.943,0,0,1,.016,1.489l-.037.071c-.027-.005-.055-.012-.083-.015C2471.092,3332.281,2471.092,3332.281,2471.112,3330.845Z" transform="translate(-2428.825 -3317.246)" fill="#e8dfd0"/>
      <path id="Контур_3512" data-name="Контур 3512" d="M2471.032,3344.951q.009-.735.018-1.468l1.5,0,.007,1.488A.96.96,0,0,1,2471.032,3344.951Z" transform="translate(-2428.768 -3326.843)" fill="#ced0bb"/>
      <path id="Контур_3513" data-name="Контур 3513" d="M2413.432,3305.806l1.5-.008q.031.75.063,1.5a.178.178,0,0,1-.083.022,1.2,1.2,0,0,1-1.6.1C2413.034,3306.858,2412.887,3306.305,2413.432,3305.806Z" transform="translate(-2384.74 -3298.222)" fill="#d1d4d9"/>
      <path id="Контур_3514" data-name="Контур 3514" d="M2389.674,3311.953c.986-.167,1.974.3,2.96-.01a.489.489,0,0,1,.244.157,1.325,1.325,0,0,1-.018,1.378,3.544,3.544,0,0,0-1.708,1.687,2.9,2.9,0,0,1-1.487.176,2.645,2.645,0,0,1-1.526-.212c-.631-1-.495-1.639.495-2.118.487-.235.653-.745,1.033-1.064Z" transform="translate(-2365.519 -3302.868)" fill="#eff5fd"/>
      <path id="Контур_3515" data-name="Контур 3515" d="M2409.617,3305.8l-.014,1.471c-.482.575-.981.494-1.49.04l-.073-.02c.009-.054.023-.107.027-.161C2408.182,3305.761,2408.182,3305.761,2409.617,3305.8Z" transform="translate(-2380.925 -3298.215)" fill="#e3e6ef"/>
      <path id="Контур_3516" data-name="Контур 3516" d="M2309.44,3374.748c0-.027-.009-.054-.011-.081-.1-1.406-.1-1.406-1.516-1.39q0-3.015,0-6.031l4.507-.022a1.371,1.371,0,0,1,1.218-.394c3.111,0,6.221-.047,9.332.022.741-.025,1.481-.051,2.222-.008a1.487,1.487,0,0,1,.913.323,1.566,1.566,0,0,1,.056,1.649c-.5.483-1.126.291-1.707.335a9.233,9.233,0,0,1-1.062-.027c-3.209.076-6.42.017-9.631.036-.335,0-.67-.007-1.005.006-1.08.042-1.39.347-1.431,1.414a22.981,22.981,0,0,1-.078,2.508,2.54,2.54,0,0,1-.52,1.683Z" transform="translate(-2304.877 -3344.564)" fill="#fdfdc2"/>
      <path id="Контур_3517" data-name="Контур 3517" d="M2321.816,3412.325q0-1.516-.008-3.032c0-.664-.033-1.332.021-1.992.068-.813-.273-1.121-1.054-1.026a2.845,2.845,0,0,1-.415-.009q-.028-.74-.057-1.479,0-3.027.005-6.055c.393-.537.937-.407,1.43-.259.442.134.45.585.475.973a15.987,15.987,0,0,1-.008,1.986c0,.5.042,1,.038,1.5a1.47,1.47,0,0,0,1.011,1.634c.408.135.455.528.475.9a22.6,22.6,0,0,1-.019,2.344c.041.532.014,1.064.007,1.6a18.506,18.506,0,0,1,.012,2.075c-.023.409.016.9-.449,1.08a1.22,1.22,0,0,1-1.454-.239Z" transform="translate(-2314.288 -3368.511)" fill="#fce6a1"/>
      <path id="Контур_3518" data-name="Контур 3518" d="M2320.986,3396.714q0-.865-.009-1.73c-.006-1.075-.053-1.123-1.105-1.133-.137,0-.275,0-.412,0l-.171-.014a1.769,1.769,0,0,1,.178-1.5,3.484,3.484,0,0,1,2.829-.213c.589.4.579,1.02.556,1.637,0,.115,0,.23.007.345a13.6,13.6,0,0,1,.021,1.733c-.025.442-.025.935-.528,1.116A1.155,1.155,0,0,1,2320.986,3396.714Z" transform="translate(-2313.438 -3363.632)" fill="#fce6a1"/>
      <path id="Контур_3519" data-name="Контур 3519" d="M2337.222,3362.472l-10.564-.01v-1.473l.072-.141c.618-.47,1.338-.243,2.017-.292.3-.022.611.025.917.031.53-.031,1.061-.019,1.591,0,1.6-.068,3.207-.035,4.81-.028a1.8,1.8,0,0,1,1.252.336A1.145,1.145,0,0,1,2337.222,3362.472Z" transform="translate(-2319.114 -3339.801)" fill="#dee4a7"/>
      <path id="Контур_3520" data-name="Контур 3520" d="M2320.37,3356.042l1.493-.014.137.078a.949.949,0,0,1-.135,1.4l.017.055-1.512-.055Z" transform="translate(-2314.338 -3336.373)" fill="#729333"/>
      <path id="Контур_3521" data-name="Контур 3521" d="M2326.613,3349.7l1.491.007.138.094a1.366,1.366,0,0,1-.061,1.575,1.123,1.123,0,0,1-1.545-.184l-.058.031Q2326.6,3350.457,2326.613,3349.7Z" transform="translate(-2319.053 -3331.562)" fill="#afc652"/>
      <path id="Контур_3522" data-name="Контур 3522" d="M2326.637,3445.609c.251,0,.5-.02.753-.009.53.021.761-.224.754-.754-.011-.753.007-1.506.012-2.26a3.483,3.483,0,0,1,2.992-.156c.533.378.371.931.355,1.444-.036.327-.286.416-.55.52-.238.093-.619.117-.586.463.035.366.424.36.7.436.1.028.216.026.324.045.122-.066.255,0,.375,0,.9,0,1.092.207,1.128,1.123a1.848,1.848,0,0,1-.052.65c-.106.26-.343.335-.58.417s-.5.21-.565.45c-.249.98-.986,1.064-1.8,1.044-.6-.051-1.267.178-1.734-.419-.076-1.45-.076-1.45-1.5-1.512Q2326.654,3446.352,2326.637,3445.609Z" transform="translate(-2319.098 -3401.793)" fill="#fce6a1"/>
      <path id="Контур_3523" data-name="Контур 3523" d="M2332.993,3468.953l1.827.02c.659.531.688.794.164,1.482l-.507.05-1.489-.054Q2332.99,3469.7,2332.993,3468.953Z" transform="translate(-2323.922 -3422.14)" fill="#e4df7e"/>
      <path id="Контур_3524" data-name="Контур 3524" d="M2332.847,3329.518q-.012-.763-.024-1.526.024-2.262.048-4.524c.49-.516,1.033-.368,1.584-.129.464.553.263,1.221.308,1.844a10.572,10.572,0,0,1-.029,1.252,8.94,8.94,0,0,1-.166,3.024.6.6,0,0,1-.216.239,1.2,1.2,0,0,1-1.511-.171Z" transform="translate(-2323.796 -3311.379)" fill="#edfa87"/>
      <path id="Контур_3525" data-name="Контур 3525" d="M2334.293,3315.025l-1.459,0q-.029-.747-.06-1.494.029-.742.06-1.483l1.485-.043q.007.769.013,1.538C2334.784,3314.051,2334.863,3314.546,2334.293,3315.025Z" transform="translate(-2323.759 -3302.938)" fill="#f6fea8"/>
      <path id="Контур_3526" data-name="Контур 3526" d="M2513.84,3368.531l1.5-.009q.011.74.021,1.48l-.035.069c-.643.409-1.382.457-1.642.033A1.167,1.167,0,0,1,2513.84,3368.531Z" transform="translate(-2460.989 -3345.861)" fill="#5b6564"/>
      <path id="Контур_3527" data-name="Контур 3527" d="M2504.347,3367.356c0,1.448,0,1.448,1.491,1.541q.026.741.052,1.483l-.071-.008a5.186,5.186,0,0,0-1.47,1.533q-.017.732-.033,1.464l-1.485.049-.128-.08a5.32,5.32,0,0,1-.234-2.771,1.2,1.2,0,0,0-.873-1.4.722.722,0,0,1-.463-.32,1.642,1.642,0,0,1-.021-1.442.58.58,0,0,1,.205-.229,2.934,2.934,0,0,1,1.548-.189c.521.007,1.078-.13,1.475.369Z" transform="translate(-2451.496 -3344.687)" fill="#ebebd7"/>
      <path id="Контур_3528" data-name="Контур 3528" d="M2515.064,3382.63c0-.028,0-.056,0-.083,0-1.447,0-1.447,1.471-1.45q0,.741.01,1.481Z" transform="translate(-2462.21 -3355.412)" fill="#fafef0"/>
      <path id="Контур_3529" data-name="Контур 3529" d="M2501.381,3330.824l1.458.032q.032.742.065,1.484l-.081.021a1.105,1.105,0,0,1-1.555.073,1.168,1.168,0,0,1,.042-1.575Z" transform="translate(-2451.517 -3317.23)" fill="#889135"/>
      <path id="Контур_3530" data-name="Контур 3530" d="M2483.09,3454.006l-1.5.046-6.2-.056a1.368,1.368,0,0,1-.284-1.583c.293-.34.7-.285,1.084-.3.778-.032,1.557.019,2.334-.028.8-.049,1.078-.33,1.136-1.141a4.293,4.293,0,0,1,.222-1.473.521.521,0,0,1,.359-.314,1.174,1.174,0,0,0,.987-1.154.626.626,0,0,1,.4-.576c.523-.15,1.044-.286,1.461.23Z" transform="translate(-2431.771 -3405.687)" fill="#f1d585"/>
      <path id="Контур_3531" data-name="Контур 3531" d="M2502.627,3439.178l-1.464-.008a2.75,2.75,0,0,1-.156-2.786c.563-.283,1.119-.437,1.626.11l.032-.016.012,1.516Z" transform="translate(-2451.308 -3397.209)" fill="#e1cf8b"/>
      <path id="Контур_3532" data-name="Контур 3532" d="M2502.631,3426.959l-1.475-.023a.618.618,0,0,1-.38-.6,4.4,4.4,0,0,1,.226-2.511c.559-.278,1.109-.441,1.612.109q.029.749.057,1.5Q2502.651,3426.2,2502.631,3426.959Z" transform="translate(-2451.305 -3387.673)" fill="#c4b27c"/>
      <path id="Контур_3533" data-name="Контур 3533" d="M2502.583,3398.845q-.014,1.5-.028,3c-.5.524-1.05.376-1.607.109a3.975,3.975,0,0,1,.014-3.2,1.2,1.2,0,0,1,1.6.016Z" transform="translate(-2451.24 -3368.601)" fill="#716b1f"/>
      <path id="Контур_3534" data-name="Контур 3534" d="M2501.337,3412.465l1.459.021V3414c-.434.5-.944.383-1.465.179a.59.59,0,0,1-.222-.234C2500.954,3413.413,2500.727,3412.874,2501.337,3412.465Z" transform="translate(-2451.481 -3379.237)" fill="#8f8443"/>
      <path id="Контур_3535" data-name="Контур 3535" d="M2501.294,3418.76l1.473.016q0,.753-.006,1.506l-1.462-.013A.915.915,0,0,1,2501.294,3418.76Z" transform="translate(-2451.452 -3384.018)" fill="#afa068"/>
      <path id="Контур_3536" data-name="Контур 3536" d="M2502.828,3394l-1.5.044-.138-.094a1.239,1.239,0,0,1,.1-1.545,1.214,1.214,0,0,1,1.565.112l-.014.039Q2502.833,3393.279,2502.828,3394Z" transform="translate(-2451.502 -3363.826)" fill="#b2ac71"/>
      <path id="Контур_3537" data-name="Контур 3537" d="M2496.47,3348.565l.025,1.485-.086.147a1.217,1.217,0,0,1-1.479.061c-.524-.382-.355-.99-.207-1.534a.823.823,0,0,1,.166-.279,1.305,1.305,0,0,1,1.494-.013Z" transform="translate(-2446.649 -3330.429)" fill="#968b6c"/>
      <path id="Контур_3538" data-name="Контур 3538" d="M2502.78,3355.92l.054,1.486-.092.143a1.4,1.4,0,0,1-1.594-.024,1.184,1.184,0,0,1,.114-1.572l.041-.069Z" transform="translate(-2451.457 -3336.263)" fill="#a29988"/>
      <path id="Контур_3539" data-name="Контур 3539" d="M2502.884,3342.285q-.032.752-.063,1.5l-1.5.015.015,0a1.125,1.125,0,0,1-.1-1.58,1.109,1.109,0,0,1,1.579.07Z" transform="translate(-2451.5 -3325.667)" fill="#a9af6a"/>
      <path id="Контур_3540" data-name="Контур 3540" d="M2509.11,3363.742l-1.488-.006a.949.949,0,0,1-.052-1.49l.072-.034,1.455.021Q2509.1,3362.987,2509.11,3363.742Z" transform="translate(-2456.265 -3341.069)" fill="#7a7772"/>
      <path id="Контур_3541" data-name="Контур 3541" d="M2502.792,3338.677l-1.5.01-.125-.079a1.086,1.086,0,0,1,.005-1.369l.129-.075,1.479.012Q2502.787,3337.926,2502.792,3338.677Z" transform="translate(-2451.475 -3322.045)" fill="#e4ee95"/>
      <path id="Контур_3542" data-name="Контур 3542" d="M2488.821,3330.829l1.472.016-.007-.009a1.186,1.186,0,0,1,.23,1.44.592.592,0,0,1-.192.244,1.638,1.638,0,0,1-1.516.03.578.578,0,0,1-.222-.22,1.215,1.215,0,0,1,.162-1.47Z" transform="translate(-2441.972 -3317.233)" fill="#b5b05d"/>
      <path id="Контур_3543" data-name="Контур 3543" d="M2496.242,3332.36q-.026-.751-.052-1.5l1.479.026q.018.745.035,1.49l0,.006C2497.211,3332.839,2496.722,3332.92,2496.242,3332.36Z" transform="translate(-2447.876 -3317.256)" fill="#efe782"/>
      <path id="Контур_3544" data-name="Контур 3544" d="M2483.974,3330.891q.027.742.052,1.485a.971.971,0,0,1-1.532.013l-.019.014a1,1,0,0,1,.024-1.533l-.006.011Z" transform="translate(-2437.198 -3317.264)" fill="#605c1f"/>
      <path id="Контур_3545" data-name="Контур 3545" d="M2373.158,3462.962a3.508,3.508,0,0,1,.171,1.476q-9.332.015-18.665.028c-4.631,0-9.262-.015-13.893-.023a3.61,3.61,0,0,0-.164-1.481c.678.036,1.225-.072,1.186-.951-.017-.367.226-.542.583-.552.3-.008.607-.009.91-.013.745-.633,1.549-.509,1.9.331a1.179,1.179,0,0,0,1.213.8,28.471,28.471,0,0,1,2.919,0,25.883,25.883,0,0,1,2.923,0,3.068,3.068,0,0,0,1.38-.2,2.256,2.256,0,0,1,1.9-.05,4.385,4.385,0,0,0,1.234.189,1.154,1.154,0,0,0,1.234-.8.917.917,0,0,1,.942-.67c.557-.034,1.113-.024,1.671-.018a1.134,1.134,0,0,1,1.273.826c.188.6.768.662,1.316.666,1.867.013,3.733.005,5.6,0,.585,0,1.17.023,1.755.04a13.522,13.522,0,0,1,1.754-.014C2372.635,3462.59,2372.989,3462.583,2373.158,3462.962Z" transform="translate(-2329.708 -3416.129)" fill="#fce6a1"/>
      <path id="Контур_3546" data-name="Контур 3546" d="M2478.868,3330.869q-.012.766-.024,1.534l-1.477-.034q-.008-.745-.016-1.489Z" transform="translate(-2433.567 -3317.264)" fill="#968b6e"/>
      <path id="Контур_3547" data-name="Контур 3547" d="M2345.419,3313.567c.089-1.483-.246-1.478,1.546-1.485,1.006,0,2.011.011,3.018.018a1.163,1.163,0,0,1,.2,1.41.46.46,0,0,1-.278.287c-.775.174-1.054.816-1.374,1.424-1.148.5-1.5.383-2.075-.705-.2-.377-.566-.513-.884-.726A.428.428,0,0,1,2345.419,3313.567Z" transform="translate(-2333.364 -3302.993)" fill="#d5d35e"/>
      <path id="Контур_3548" data-name="Контур 3548" d="M2339.091,3319.774l.038-1.479,1.483-.034.034.043c.429.335.37.821.387,1.278.021.573,0,1.146-.03,1.718a2.282,2.282,0,0,1-.307,1.6,1.152,1.152,0,0,1-1.562-.077Z" transform="translate(-2328.557 -3307.687)" fill="#cfce60"/>
      <path id="Контур_3549" data-name="Контур 3549" d="M2364.268,3313.4q.015-.724.031-1.447l1.488-.065.011.077c.512.455.393.97.144,1.5a1.256,1.256,0,0,1-1.485.187A.494.494,0,0,1,2364.268,3313.4Z" transform="translate(-2347.679 -3302.847)" fill="#b0b34b"/>
      <path id="Контур_3550" data-name="Контур 3550" d="M2370.607,3313.607q0-.739,0-1.478l1.489-.025,0,0c.513.4.419.9.246,1.418a.6.6,0,0,1-.19.242,1.33,1.33,0,0,1-1.462-.031Z" transform="translate(-2352.494 -3303.012)" fill="#797837"/>
      <path id="Контур_3551" data-name="Контур 3551" d="M2376.821,3313.5q-.011-.75-.023-1.5l1.489-.04.061.042c.414.631.469,1.373.047,1.637A1.167,1.167,0,0,1,2376.821,3313.5Z" transform="translate(-2357.196 -3302.899)" fill="#acad85"/>
      <path id="Контур_3552" data-name="Контур 3552" d="M2375.736,3313.538c1.469-.005,1.469-.005,1.527-1.5l1.469-.028,1.527.008c.048.811.069,1.481-1.1,1.6-.717.075-.3.925-.407,1.425-.027.043-.053.087-.081.13-1,.315-1.974.891-3.062.3a.761.761,0,0,1-.163-.439c-.073-.532-.23-1.079.285-1.5Z" transform="translate(-2356.111 -3302.942)" fill="#f6faea"/>
      <path id="Контур_3553" data-name="Контур 3553" d="M2408.217,3311.988l1.49-.039,1.492.043q0,.735.006,1.471c-.36.518-.9.386-1.4.386a2.7,2.7,0,0,1-1.45-.155.471.471,0,0,1-.177-.228Q2408.2,3312.727,2408.217,3311.988Z" transform="translate(-2381.029 -3302.893)" fill="#646b7f"/>
      <path id="Контур_3554" data-name="Контур 3554" d="M2421.178,3329.737q.015.76.03,1.519l-.095.138a1.242,1.242,0,0,1-1.548-.1,1.437,1.437,0,0,1,.041-1.622A1.11,1.11,0,0,1,2421.178,3329.737Z" transform="translate(-2389.502 -3316.13)" fill="#7682a5"/>
      <path id="Контур_3555" data-name="Контур 3555" d="M2413.419,3318.269l1.486-.025q.008.765.016,1.528l-.092.14a1.231,1.231,0,0,1-1.546-.092A1.153,1.153,0,0,1,2413.419,3318.269Z" transform="translate(-2384.729 -3307.674)" fill="#bac6de"/>
      <path id="Контур_3556" data-name="Контур 3556" d="M2421.169,3326.108l-1.526.02-.117-.1a.973.973,0,0,1,.189-1.39l-.029-.034h.083C2421.256,3324.608,2421.256,3324.608,2421.169,3326.108Z" transform="translate(-2389.494 -3312.501)" fill="#69758a"/>
      <path id="Контур_3557" data-name="Контур 3557" d="M2425.981,3337.126l1.482-.021.063.042a1.154,1.154,0,0,1,.031,1.58,1.39,1.39,0,0,1-1.648-.011,1.146,1.146,0,0,1,.076-1.6Z" transform="translate(-2394.276 -3322)" fill="#818ac1"/>
      <path id="Контур_3558" data-name="Контур 3558" d="M2487.013,3350.1l.025,1.465a.982.982,0,0,1,.039,1.488l-.061.043a1.162,1.162,0,0,1-1.421.2c-.229-.094-.25-.356-.4-.5-.789-.8-1.594-1.588-2.379-2.392-.144-.148-.411-.165-.518-.388a1.2,1.2,0,0,1,.173-1.444l1.561-.024a.9.9,0,0,1,1.474.026C2485.571,3350.012,2485.571,3350.012,2487.013,3350.1Z" transform="translate(-2437.208 -3330.406)" fill="#ebe9cb"/>
      <path id="Контур_3559" data-name="Контур 3559" d="M2458.62,3348.6l.046,1.471-.081.141a1.489,1.489,0,0,1-1.106.284c-1.618.011-3.237.044-4.855-.027-.543-.028-1.113.145-1.611-.217a1.641,1.641,0,0,1-.132-1.594.615.615,0,0,1,.215-.247,1.2,1.2,0,0,1,1.516.16l3-.023,1.529.018Z" transform="translate(-2413.353 -3330.445)" fill="#aab676"/>
      <path id="Контур_3560" data-name="Контур 3560" d="M2491.4,3343.814l-1.474-.026-.027-1.474.066-.138a1.288,1.288,0,0,1,1.436-.083.572.572,0,0,1,.213.22c.185.508.315,1.009-.173,1.435Z" transform="translate(-2443.099 -3325.654)" fill="#808071"/>
      <path id="Контур_3561" data-name="Контур 3561" d="M2483.63,3337.141l1.533-.013-.018,0a.918.918,0,0,1,0,1.465.089.089,0,0,0-.007.085.729.729,0,0,0-.082-.012C2483.615,3338.608,2483.615,3338.608,2483.63,3337.141Z" transform="translate(-2438.335 -3322.016)" fill="#59554a"/>
      <path id="Контур_3562" data-name="Контур 3562" d="M2438.525,3343.344l1.471-.032.06.052a1.178,1.178,0,0,1,.176,1.459.583.583,0,0,1-.225.225,1.51,1.51,0,0,1-1.552-.089,1.254,1.254,0,0,1-.068-1.524Z" transform="translate(-2403.802 -3326.714)" fill="#b7c3db"/>
      <path id="Контур_3563" data-name="Контур 3563" d="M2433.438,3338.731q.014-.744.027-1.487l1.451-.012q.011.747.021,1.495l-.02-.02a.955.955,0,0,1-1.394.158Z" transform="translate(-2400.215 -3322.096)" fill="#313b6e"/>
      <path id="Контур_3564" data-name="Контур 3564" d="M2452.57,3344.995l-1.482.017a.912.912,0,0,1-.043-1.49l1.491-.012Q2452.553,3344.252,2452.57,3344.995Z" transform="translate(-2413.31 -3326.864)" fill="#6d7c7f"/>
      <path id="Контур_3565" data-name="Контур 3565" d="M2447.391,3343.536l.042,1.49-.035.015a.975.975,0,0,1-1.53-.043q.021-.735.042-1.47Z" transform="translate(-2409.656 -3326.878)" fill="#485867"/>
      <path id="Контур_3566" data-name="Контур 3566" d="M2401.915,3319.764c.047-1.448.047-1.448,1.506-1.5l.065.047a1.194,1.194,0,0,1,.11,1.507,1.272,1.272,0,0,1-1.482.19A.513.513,0,0,1,2401.915,3319.764Z" transform="translate(-2376.273 -3307.686)" fill="#6a768f"/>
      <path id="Контур_3567" data-name="Контур 3567" d="M2388.259,3324.632l1.527.006a1.146,1.146,0,0,1,.049,1.59,1.531,1.531,0,0,1-1.686.032,1.2,1.2,0,0,1,.111-1.63Z" transform="translate(-2365.614 -3312.525)" fill="#d6e2f8"/>
      <path id="Контур_3568" data-name="Контур 3568" d="M2395.666,3326.027l.032-1.476,1.47-.035c.017.022.034.044.053.065a1.16,1.16,0,0,1,.117,1.5,1.266,1.266,0,0,1-1.476.19A.506.506,0,0,1,2395.666,3326.027Z" transform="translate(-2371.526 -3312.438)" fill="#61708e"/>
      <path id="Контур_3569" data-name="Контур 3569" d="M2339.075,3396.136c-.307,0-.613,0-.919,0-.271-.008-.563-.105-.543-.4.081-1.242-.776-1.1-1.552-1.1a1.006,1.006,0,0,1-.1-.315c.029-.991-.49-1.324-1.408-1.194a.494.494,0,0,1-.141-.478c.773-.5,1.292-1.322,2.29-1.559.609-.145.511-.864.531-1.374.019-.482-.35-.649-.774-.71-.3-.044-.625-.045-.777-.39a1.543,1.543,0,0,1,.067-1.482,1.494,1.494,0,0,1,.168-.194c1.126-.34,1.261-.491,1.26-1.425-.034-.473,0-.948-.03-1.421-.014-.19-.013-.423-.252-.477-.2-.045-.283.139-.374.275-.123.185-.211.436-.448.472a1.326,1.326,0,0,0-1.234,1.156c-.077.375-.475.417-.821.447a9.921,9.921,0,0,1-1-.054,2.626,2.626,0,0,1-1.362-.333.988.988,0,0,1-.119-1.707,2.218,2.218,0,0,0,1.156-2.07,2.195,2.195,0,0,0-1.095-2.038c-.092-.062.022.018-.061-.058v-.168c.78-.348,1.007-1.189,1.555-1.745a1.919,1.919,0,0,1,1.4-.007c.445.137.446.521.465.879.036.692,0,1.385.023,2.078.01.346-.129.859.266.963.5.131.359-.506.586-.741a2.947,2.947,0,0,1,1.736-.338c.215-.009.5.028.584-.2.112-.3-.213-.325-.382-.429-.187-.117-.389-.21-.432-.46-.254-1.156-.2-1.329.748-1.921a1.151,1.151,0,0,0,.574-.951c.03-.387.016-.776.055-1.163.035-.358.169-.73.521-.773a2.706,2.706,0,0,0,1.7-1.214l2.681-.023a.385.385,0,0,1,.335-.1c.342.43.658.635.909-.079.035-.1.172-.123.281-.152,2.183-.152,4.364-.07,6.546-.046,2.513-.062,5.027-.028,7.54-.021a2.338,2.338,0,0,1,.986.14,1.851,1.851,0,0,1,.43,1.461c.06,1.164.278,1.38,1.463,1.407.471.01.938.052,1.407.107.69.08,1.3.212,1.609.947a.974.974,0,0,0,.749.476c.35.079.627.227.666.63a14.305,14.305,0,0,1,.268,1.9,1.223,1.223,0,0,1-1.262,1.438,7.456,7.456,0,0,1-2.074-.212c-.386-.067-.508-.377-.635-.7-.173-.441-.624-.724-.851-.243-.462.976-1.221,1-2.074.954a2.025,2.025,0,0,1-.8-.022c-.383-.124-.457-.526-.69-.787-.47-.525-.581-.522-.873.136-.077.174-.082.38-.224.527-.9.135-1.253.835-1.586,1.554a4.293,4.293,0,0,1-1.662.145c-.3.023-.6.019-.9.021-1.234.006-1.24.01-1.646,1.146-.541.509-1.163.1-1.745.14-.242.016-.488-.114-.74-.091-.514.047-.862.271-.761.852.05.284.116.546-.122.775a2.912,2.912,0,0,1-1.47.192c-.445.019-.892-.008-1.338.011-.3.013-.723-.073-.8.281-.09.422.383.388.642.487,1.444.552,1.733.975,1.674,2.432a1.068,1.068,0,0,1-.68,1.128c-.688.244-.591,1.038-1.029,1.457-.909.435-1.881.173-2.819.258a1.077,1.077,0,0,0-1.243.747,1.071,1.071,0,0,1-.7.68,1.3,1.3,0,0,0-.94,1.408C2339.48,3395.339,2339.519,3395.81,2339.075,3396.136Z" transform="translate(-2322.482 -3349.314)" fill="#fce6a1"/>
      <path id="Контур_3570" data-name="Контур 3570" d="M2332.972,3376.232c-.018,1.273-.016,1.284-1.21,1.505a.647.647,0,0,0-.621.654c-.017.389-.034.779-.013,1.167.036.669-.022,1.151-.9,1.264-.8.1-.57.881-.614,1.437a5.7,5.7,0,0,0-1.5,1.5c0,.25-.01.5-.013.75,0,.513-.26.752-.773.763-.548.012-.732-.273-.729-.775.007-1.249,0-2.5,0-3.747-.449-.324-.4-.809-.414-1.275a2.694,2.694,0,0,0-.053-.657c-.037-.135-.1-.277-.249-.3-.211-.031-.285.139-.328.3a3.576,3.576,0,0,0-.057.9,1.156,1.156,0,0,1-.412,1.027c0,1.5,0,1.5-1.508,1.508-.038-1.383-.161-1.5-1.534-1.509-.5,0-.992,0-1.488,0,0-1.173.035-2.349-.01-3.521-.029-.771.265-1.023,1.025-1.018C2325.369,3376.24,2329.17,3376.229,2332.972,3376.232Z" transform="translate(-2314.467 -3351.702)" fill="#fce6a1"/>
      <path id="Контур_3571" data-name="Контур 3571" d="M2391.2,3364.049l-6.718.028a.638.638,0,0,1-1.007,0l-.338-.017q0-.747,0-1.494l.055-.12a.785.785,0,0,1,.676-.27,2.012,2.012,0,0,0,2.306-1.307,2.683,2.683,0,0,1,1.472-.189,5.227,5.227,0,0,1,1.454.055.65.65,0,0,1,.35.42c.111.264.113.688.473.693.415.005.4-.452.523-.735a.633.633,0,0,1,.305-.366,4.951,4.951,0,0,1,1.486-.069,2.307,2.307,0,0,1,1.554.271,1.5,1.5,0,0,1,.177,1.483.589.589,0,0,1-.594.491A3.282,3.282,0,0,0,2391.2,3364.049Z" transform="translate(-2362.006 -3339.886)" fill="#f5f4c1"/>
      <path id="Контур_3572" data-name="Контур 3572" d="M2370.587,3362.366q.008-.737.016-1.473l.076-.149a3.349,3.349,0,0,1,3.039.051,1.159,1.159,0,0,1-.1,1.568l-.011.011Z" transform="translate(-2352.479 -3339.696)" fill="#f5f4c1"/>
      <path id="Контур_3573" data-name="Контур 3573" d="M2328.146,3400.66c1.2.011,1.913,1.04,1.588,2.421-.191.81-.1,1.842-1.312,2.073-.319.061-.309.5-.293.807.02.387.346.364.621.4.3.045.6.109.9.165a3.3,3.3,0,0,1,.115,3.138,1.2,1.2,0,0,1-1.618-.124c-.006-.724-.026-1.448-.013-2.171.01-.532-.154-.87-.752-.841s-.764-.311-.753-.842c.017-.779.008-1.559.01-2.338,1.488-.033,1.489-.033,1.5-1.537C2328.144,3401.431,2328.144,3401.045,2328.146,3400.66Z" transform="translate(-2319.094 -3370.271)" fill="#fce6a1"/>
      <path id="Контур_3574" data-name="Контур 3574" d="M2332.944,3436.423l1.508,0c.41-.5.977-.348,1.5-.359.478.008.986-.095,1.343.363,1.909.008,1.866,0,1.72,1.9-.059.769-.219,1.227-1.092,1.145a.706.706,0,0,0-.7.379,1.121,1.121,0,0,1-1.253.6c-.408-.323-.331-.657-.023-1,.007-1.458-.043-1.51-1.5-1.516-.5,0-1.006,0-1.509,0Q2332.945,3437.183,2332.944,3436.423Z" transform="translate(-2323.888 -3397.149)" fill="#fce6a1"/>
      <path id="Контур_3575" data-name="Контур 3575" d="M2350.33,3356.236l-6.059-.069a1.164,1.164,0,0,1-.135-1.573,2.662,2.662,0,0,1,1.649-.282c1.116-.054,2.233-.04,3.349-.028a1.873,1.873,0,0,1,1.268.33,1.1,1.1,0,0,1-.091,1.562Z" transform="translate(-2332.206 -3335.04)" fill="#8f964a"/>
      <path id="Контур_3576" data-name="Контур 3576" d="M2339.515,3350.1q-.008.742-.017,1.483l-1.5,0c-.541-.392-.344-.969-.374-1.489,0-.531-.12-1.09.35-1.512l.026.017c.5-.535,1.053-.4,1.616-.122A1.215,1.215,0,0,1,2339.515,3350.1Z" transform="translate(-2327.433 -3330.453)" fill="#888b30"/>
      <path id="Контур_3577" data-name="Контур 3577" d="M2329.608,3354.827q.009.749.019,1.5l-3.038,0q.027-.754.055-1.508l1.478.008A.963.963,0,0,1,2329.608,3354.827Z" transform="translate(-2319.062 -3335.195)" fill="#93a13d"/>
      <path id="Контур_3578" data-name="Контур 3578" d="M2334.4,3351.184h-1.485q-.008-.743-.016-1.485l1.5-.019Z" transform="translate(-2323.853 -3331.552)" fill="#cbd566"/>
      <path id="Контур_3579" data-name="Контур 3579" d="M2340.686,3450.186q.011.5.022,1-.007.253-.016.506c-.223,0-.446-.009-.668,0-.531.024-.844-.15-.845-.752s.3-.784.839-.757C2340.24,3450.192,2340.463,3450.186,2340.686,3450.186Z" transform="translate(-2328.624 -3407.881)" fill="#fce6a1"/>
      <path id="Контур_3580" data-name="Контур 3580" d="M2340.726,3340.126l-1.5,0,.011-3.007,1.469-.04.139.074c.4.451.228,1,.251,1.509C2341.049,3339.172,2341.315,3339.758,2340.726,3340.126Z" transform="translate(-2328.661 -3321.984)" fill="#9aa23f"/>
      <path id="Контур_3581" data-name="Контур 3581" d="M2502.579,3382.978l-1.5-.007-.146-.079a3.377,3.377,0,0,1,.059-3.017,1.143,1.143,0,0,1,1.553.091Z" transform="translate(-2451.23 -3354.286)" fill="#d4d5ab"/>
      <path id="Контур_3582" data-name="Контур 3582" d="M2502.532,3363.75q-.019-.744-.039-1.488l1.476.023.052,1.489Z" transform="translate(-2452.664 -3341.107)" fill="#fdf9ee"/>
      <path id="Контур_3583" data-name="Контур 3583" d="M2495.079,3368.5l1.459.032q.028.741.056,1.482l-.085.137a1.117,1.117,0,0,1-1.673-1.461A.492.492,0,0,1,2495.079,3368.5Z" transform="translate(-2446.731 -3345.844)" fill="#abae83"/>
      <path id="Контур_3584" data-name="Контур 3584" d="M2502.821,3376.3l-1.467.007-.138-.074a1.035,1.035,0,0,1,.074-1.42l.08-.022C2502.862,3374.812,2502.862,3374.812,2502.821,3376.3Z" transform="translate(-2451.505 -3350.625)" fill="#babda0"/>
      <path id="Контур_3585" data-name="Контур 3585" d="M2412.57,3396.623a1.618,1.618,0,0,1,.563-.089c.553.12.86-.072.941-.628.1-.684.572-.8,1.157-.792.636,0,.7.413.706.895a.679.679,0,0,0,.043.244c.139.344,1.742.671,2.4.49s.783-.648.655-1.233a7.638,7.638,0,0,1-.092-1.575c.478-.524.99-.4,1.512-.083a8.016,8.016,0,0,0,3.229,2.343,1.492,1.492,0,0,1,.188,1.05,2.189,2.189,0,0,0,1.1,2.4l.024-.009q0,.754,0,1.509,0,1.506,0,3.012,0,1.349,0,2.7c-.007.11-.017.219-.021.329-.051,1.495-.051,1.495-1.509,1.525a3.513,3.513,0,0,0-1.27,1.484c-.24.663-1.831.566-2.224-.11a2.027,2.027,0,0,0-.928-.914,1.073,1.073,0,0,1-.533-.8c-.185-.685-.718-.783-1.318-.728-.623.058-.844.465-.862,1.033-.021.668,0,1.337-.015,2.005a1.188,1.188,0,0,1-.41,1.043c-2.674,0-5.349-.01-8.023.009-.646,0-1.12-.1-1.052-.892a.282.282,0,0,0-.021-.164c-.577-.9-1.466-.3-2.2-.44-.431-.085-.794.105-.767.629.039.736-.371.943-.994.853-.685-.1-1.453.319-2.051-.321a1.6,1.6,0,0,1,.017-2.058c.389-.61.915-.538,1.51-.387.348.088.811.237.927-.366a.811.811,0,0,1,.5-.446,2.114,2.114,0,0,1,1.74.111,2.244,2.244,0,0,0,1.282.153,12.16,12.16,0,0,1,1.725-.126c.238,0,.573,0,.585-.315s-.323-.333-.559-.337c-.606-.012-1.209-.047-1.814-.093a6.379,6.379,0,0,0-1.578.142,1.74,1.74,0,0,1-1.511-.247,2.117,2.117,0,0,1-.07-1.6c.773-.845,1.3-1.94,2.5-2.365-1.233-1.008-1.366-1.4-.876-2.461,1.178-.415,1.261-.391,2.134.633.185.217.359.259.526-.016a1.165,1.165,0,0,0-.523-1.551c-1-.4-1.221-.926-.808-1.934l1.851,0a1.129,1.129,0,0,1,.963-.406c.5-.008,1.006,0,1.509-.022A1.684,1.684,0,0,0,2412.57,3396.623Z" transform="translate(-2375.16 -3364.891)" fill="#fce6a1"/>
      <path id="Контур_3586" data-name="Контур 3586" d="M2464.789,3454.66c0-1.228.017-2.456,0-3.684-.01-.606.244-.876.849-.845a7.111,7.111,0,0,0,1,0c.756-.067.995.2,1.266.992a5.364,5.364,0,0,0,1.872,1.981c.238.191.962.2,1-.383.07-1.121.77-1.126,1.573-1.067,0,.725-.025,1.45,0,2.174.017.612-.255.846-.854.839-1.339-.017-2.677,0-4.016.005Z" transform="translate(-2424.024 -3407.835)" fill="#fce6a1"/>
      <path id="Контур_3587" data-name="Контур 3587" d="M2496.677,3403.332c-.25,0-.5-.022-.751-.011-.539.024-.74-.24-.739-.759,0-.862-.031-1.723-.05-2.585a.869.869,0,0,1-.036-1.257,1.111,1.111,0,0,1,1.576.089l.007-.009q.016,1.5.031,3.01Q2496.7,3402.57,2496.677,3403.332Z" transform="translate(-2446.858 -3368.581)" fill="#dacd73"/>
      <path id="Контур_3588" data-name="Контур 3588" d="M2496.551,3394.046l-1.5-.009-.139-.092a1.237,1.237,0,0,1,.09-1.543,1.157,1.157,0,0,1,1.549.124l.029-.023Q2496.566,3393.275,2496.551,3394.046Z" transform="translate(-2446.732 -3363.819)" fill="#aea853"/>
      <path id="Контур_3589" data-name="Контур 3589" d="M2496.242,3343.741l-.022-1.482a.968.968,0,0,1,1.508.016l-.011.013q.009.749.017,1.5Z" transform="translate(-2447.899 -3325.646)" fill="#6d6c36"/>
      <path id="Контур_3590" data-name="Контур 3590" d="M2496.553,3338.625l-1.509-.016.009.021a.955.955,0,0,1-.038-1.5l.074-.033,1.464.021Z" transform="translate(-2446.724 -3321.996)" fill="#c9c77b"/>
      <path id="Контур_3591" data-name="Контур 3591" d="M2491.412,3337.153l.038,1.5-1.521-.058q0-.732,0-1.465Z" transform="translate(-2443.12 -3322.016)" fill="#51512d"/>
      <path id="Контур_3592" data-name="Контур 3592" d="M2364.345,3453.3c.081-.756.145-1.505,1.167-1.6.29-.027.433-.318.489-.607.159-.819.658-.935,1.351-.654.766,1.177,2.015.883,3.123,1.023a.638.638,0,0,1,.527.2,4.119,4.119,0,0,1-.624,3.132l-3.013,0a2.08,2.08,0,0,0-2.223-1.112A.894.894,0,0,1,2364.345,3453.3Z" transform="translate(-2347.738 -3407.971)" fill="#fce6a1"/>
      <path id="Контур_3593" data-name="Контур 3593" d="M2389.363,3453.542a9.461,9.461,0,0,1,.508-3.01c.111-.378.445-.413.734-.39a1.427,1.427,0,0,0,1.619-1.192.6.6,0,0,1,.226-.161,1.87,1.87,0,0,1,1.418,0c.162.058.327.162.334.327.026.645.619.927.871,1.423-.088,1.012-.235,1.106-1.056.672-.651-.345-1.052-.194-1.412.468a3.355,3.355,0,0,0-.227,1.54,1.83,1.83,0,0,0-1.49.168C2390.43,3453.674,2389.877,3453.519,2389.363,3453.542Z" transform="translate(-2366.722 -3406.719)" fill="#fce6a1"/>
      <path id="Контур_3594" data-name="Контур 3594" d="M2364.3,3462.684c.64,0,1.283.033,1.918-.02.836-.069,1.205.253,1.1,1.1a2.972,2.972,0,0,0,0,.417h-3.035Q2364.291,3463.431,2364.3,3462.684Z" transform="translate(-2347.691 -3417.357)" fill="#fce6a1"/>
      <path id="Контур_3595" data-name="Контур 3595" d="M2345.54,3321.424q0-1.509,0-3.018c.3,0,.6-.015.9-.008.265.006.559.1.541.388-.073,1.181.7,1.152,1.5,1.105a.526.526,0,0,1,.253.175,1.275,1.275,0,0,1-.146,1.467,2.5,2.5,0,0,1-1.556.24C2346.52,3321.754,2345.953,3321.919,2345.54,3321.424Z" transform="translate(-2333.455 -3307.79)" fill="#c1c24f"/>
      <path id="Контур_3596" data-name="Контур 3596" d="M2357.819,3319.722c.114-1.443.114-1.443,1.551-1.548l.025.075a1.054,1.054,0,1,1-1.494,1.475Z" transform="translate(-2342.781 -3307.622)" fill="#9ea13b"/>
      <path id="Контур_3597" data-name="Контур 3597" d="M2345.419,3330.984h1.511a1.069,1.069,0,1,1-1.5,1.513l-.046-.046Z" transform="translate(-2333.335 -3317.351)" fill="#9ca239"/>
      <path id="Контур_3598" data-name="Контур 3598" d="M2364.369,3319.833q0-.735,0-1.469l1.5-.032-.007-.007a1.174,1.174,0,0,1,.233,1.433.6.6,0,0,1-.188.244,1.312,1.312,0,0,1-1.46-.034Z" transform="translate(-2347.756 -3307.736)" fill="#737828"/>
      <path id="Контур_3599" data-name="Контур 3599" d="M2370.581,3319.837q0-.756,0-1.513l1.518.006q-.007.743-.013,1.486A.922.922,0,0,1,2370.581,3319.837Z" transform="translate(-2352.471 -3307.736)" fill="#a8a982"/>
      <path id="Контур_3600" data-name="Контур 3600" d="M2369.2,3324.515q0,.763,0,1.526a1.15,1.15,0,0,1,.207,1.42,4.264,4.264,0,0,0-1.743,1.765,2.757,2.757,0,0,1-1.481.186,3.466,3.466,0,0,1-1.493-.142c-.024-.01-.064-.015-.073-.034a3.37,3.37,0,0,0-1.662-1.659,1.851,1.851,0,0,1-.035-1.476.616.616,0,0,1,.175-.239,2.195,2.195,0,0,1,1.387-.2c.773.166,1.177-.441,1.694-.813C2367.214,3324.939,2368.164,3324.325,2369.2,3324.515Z" transform="translate(-2346.558 -3312.41)" fill="#eff5fd"/>
      <path id="Контур_3601" data-name="Контур 3601" d="M2370.948,3324.891c-.026,1.2-.026,1.2-1.536,1.16a.96.96,0,0,1,.022-1.5l0,0,1.5-.02Z" transform="translate(-2351.321 -3312.449)" fill="#eaebdb"/>
      <path id="Контур_3602" data-name="Контур 3602" d="M2408.295,3319.859q.018-.743.037-1.486l1.476-.026q-.014.746-.027,1.491l-.064.133a1.025,1.025,0,0,1-1.348.015Z" transform="translate(-2381.118 -3307.753)" fill="#273550"/>
      <path id="Контур_3603" data-name="Контур 3603" d="M2414.836,3329.776l.049,1.5-.1.138a1.239,1.239,0,0,1-1.557-.113,1.5,1.5,0,0,1,.022-1.653c.567-.277,1.124-.42,1.626.127Z" transform="translate(-2384.688 -3316.15)" fill="#1c2b4c"/>
      <path id="Контур_3604" data-name="Контур 3604" d="M2421.208,3337.137q0,.759,0,1.518l-.093.139a1.239,1.239,0,0,1-1.548-.093,1.167,1.167,0,0,1,.128-1.555l0,0Z" transform="translate(-2389.5 -3322.024)" fill="#d8e2fe"/>
      <path id="Контур_3605" data-name="Контур 3605" d="M2414.887,3326.077l-1.5.006c-.575-.51-.444-1.028-.02-1.551l-.012,0,1.558.047Q2414.9,3325.329,2414.887,3326.077Z" transform="translate(-2384.694 -3312.451)" fill="#a1afca"/>
      <path id="Контур_3606" data-name="Контур 3606" d="M2425.98,3343.434l1.518,0-.017-.009a1.134,1.134,0,0,1,.089,1.59,1.388,1.388,0,0,1-1.657.022,1.143,1.143,0,0,1,.065-1.6Z" transform="translate(-2394.275 -3326.803)" fill="#333c5b"/>
      <path id="Контур_3607" data-name="Контур 3607" d="M2482.448,3355.917a3.474,3.474,0,0,0,.579.024c.653-.078,1,.129.915.854-.045.361.036.715.512.64.919-.146,1.1.333,1,1.1a2.187,2.187,0,0,0,.025.413l-.07.038c-.386.5-.93.328-1.432.343a3.036,3.036,0,0,1-1.511-.159.573.573,0,0,1-.223-.208,2.909,2.909,0,0,1-.182-1.521c.019-.506-.157-1.058.343-1.449Z" transform="translate(-2437.135 -3336.288)" fill="#a7ac68"/>
      <path id="Контур_3608" data-name="Контур 3608" d="M2463.4,3356.125q.012.736.023,1.472c-.422.509-1,.341-1.542.368-1.181.063-2.363.05-3.545.024a1.363,1.363,0,0,1-1.082-.287c-.25-.559-.414-1.111.139-1.6Z" transform="translate(-2418.131 -3336.429)" fill="#889343"/>
      <path id="Контур_3609" data-name="Контур 3609" d="M2447.848,3354.887q0,.728-.006,1.458a.509.509,0,0,1-.416.354,5.26,5.26,0,0,1-2.658-.134,1.576,1.576,0,0,1-.173-1.612.658.658,0,0,1,.213-.253,1.181,1.181,0,0,1,1.52.166Z" transform="translate(-2408.582 -3335.213)" fill="#919c57"/>
      <path id="Контур_3610" data-name="Контур 3610" d="M2446.291,3351.174l-1.515-.006a.953.953,0,0,1,0-1.51l-.02-.015,1.53.042Z" transform="translate(-2408.544 -3331.522)" fill="#556536"/>
      <path id="Контур_3611" data-name="Контур 3611" d="M2440.038,3349.7v1.51l.014.021a1.205,1.205,0,0,1-1.558.12,1.222,1.222,0,0,1-.092-1.551l.144-.089Z" transform="translate(-2403.805 -3331.569)" fill="#38471c"/>
      <path id="Контур_3612" data-name="Контур 3612" d="M2433.353,3344.873q0-.748,0-1.494l1.5-.016q.018.769.036,1.537l.009.017a1.1,1.1,0,0,1-1.367.189A.476.476,0,0,1,2433.353,3344.873Z" transform="translate(-2400.15 -3326.752)" fill="#98a3bf"/>
      <path id="Контур_3613" data-name="Контур 3613" d="M2402.053,3326.119l.02-1.469,1.481-.036-.007-.007a1.111,1.111,0,0,1,.138,1.58,1.135,1.135,0,0,1-1.525.076Z" transform="translate(-2376.378 -3312.508)" fill="#2d3d5f"/>
      <path id="Контур_3614" data-name="Контур 3614" d="M2389.347,3332.313q.015-.735.03-1.471l1.49-.042a.257.257,0,0,0,.032.079c.494.4.363.886.209,1.38a.6.6,0,0,1-.176.236,1.434,1.434,0,0,1-1.409.045A.466.466,0,0,1,2389.347,3332.313Z" transform="translate(-2366.727 -3317.211)" fill="#4e5c81"/>
      <path id="Контур_3615" data-name="Контур 3615" d="M2395.793,3332.423q0-.737,0-1.473l1.5-.057-.01.005c.425.609.5,1.356.082,1.635A1.164,1.164,0,0,1,2395.793,3332.423Z" transform="translate(-2371.623 -3317.281)" fill="#36456c"/>
      <path id="Контур_3616" data-name="Контур 3616" d="M2459.793,3378.532a4.85,4.85,0,0,0-1.512-.171.506.506,0,0,0-.465-.308c-.708.038-1.181-.182-1.289-.969-.044-.324-.383-.348-.666-.4a13.673,13.673,0,0,0-2.5-.17c-1.07.01-1.116-.051-1.12-1.151,0-.615,0-1.229,0-1.843a.658.658,0,0,1,.679-.4c2.1-.063,4.193-.079,6.289.009a1.3,1.3,0,0,1,.482.136.617.617,0,0,1,.259.2,7.633,7.633,0,0,1,.219,3.063C2460.1,3377.208,2460.462,3377.968,2459.793,3378.532Z" transform="translate(-2414.494 -3349.32)" fill="#fce6a1"/>
      <path id="Контур_3617" data-name="Контур 3617" d="M2384.749,3429.913c.017-.756-.2-1.622.973-1.768.316-.039.345-.392.364-.679.075-1.159-.281-1.652-1.469-2a3.414,3.414,0,0,0-.574-.093.767.767,0,0,1-.774-.891c.031-.523.412-.6.831-.6,1.224,0,2.448,0,3.673,0,.368-.5.885-.405,1.362-.283.5.128.507.6.537,1.017.046.635,0,1.274.091,1.905a2,2,0,0,1-1,2.28c-.449.289-.6.8-.991,1.12h0a2.994,2.994,0,0,1-2.932.139Z" transform="translate(-2362.108 -3387.611)" fill="#fce6a1"/>
      <path id="Контур_3618" data-name="Контур 3618" d="M2432.76,3368.732l-7.525.031-8.557-.04a1.652,1.652,0,0,1,1.54-1.479c.325-.029.655-.015.982-.02a1.257,1.257,0,0,1,1.138-.395c3.63,0,7.26-.058,10.89.028.535.039,1.13-.164,1.536.386l.016-.013A.92.92,0,0,1,2432.76,3368.732Z" transform="translate(-2387.485 -3344.56)" fill="#fefcc6"/>
      <path id="Контур_3619" data-name="Контур 3619" d="M2401.758,3421.961q0-.669,0-1.338c0-1.51,0-1.51-1.51-1.513-.139-.378-.829-.57-.437-1.12a1.484,1.484,0,0,1,1.645-.722c.649.15,1.316.225,1.975.333a1.065,1.065,0,0,1,1.5.1.968.968,0,0,1-.15,1.409c-.115.963.039,1.715,1.254,1.741.277.006.4.275.383.556-.011.246-.133.468-.374.483a1.635,1.635,0,0,0-1.751,1.311c-.093.375-.665.313-1.023.436a.968.968,0,0,1-1.343.161C2401.606,3423.211,2402.042,3422.554,2401.758,3421.961Z" transform="translate(-2374.584 -3382.85)" fill="#fce6a1"/>
      <path id="Контур_3620" data-name="Контур 3620" d="M2340.7,3419.131h-1.5q0-1.507,0-3.013c.25,0,.5-.009.751,0,.457.01.771-.15.752-.661-.022-.593.23-.881.839-.85a.748.748,0,0,0,.846-.727c.077-.486.4-.635.845-.584s.485.392.488.74c.006.694,0,1.389.006,2.084a7.96,7.96,0,0,1-1.505,1.512h0C2341.5,3417.916,2341.153,3418.574,2340.7,3419.131Z" transform="translate(-2328.638 -3379.859)" fill="#fce6a1"/>
      <path id="Контур_3621" data-name="Контур 3621" d="M2416.314,3415.537c-.015-1.2-.015-1.2-1.346-1.512-.244-1.186,0-1.489,1.208-1.507.438-.007.876,0,1.313,0,.064.241.147.479.189.723.088.507.334.813.889.784.584-.031.789.285.767.826-.02.5,0,1-.035,1.5a.668.668,0,0,1-.643.653.578.578,0,0,1-.7-.457C2417.842,3415.46,2417.094,3415.492,2416.314,3415.537Z" transform="translate(-2386.122 -3379.274)" fill="#fce6a1"/>
      <path id="Контур_3622" data-name="Контур 3622" d="M2437.528,3405.058c.322,1.135.2,1.355-.947,1.433-1.078.073-2.162.053-3.244.074a3.361,3.361,0,0,0-.006-.418c-.113-.844.253-1.2,1.092-1.1a2.789,2.789,0,0,0,.418-.008c.62-.579,1.234-.367,1.847.015Z" transform="translate(-2400.118 -3373.327)" fill="#fce6a1"/>
      <path id="Контур_3623" data-name="Контур 3623" d="M2339.193,3384.155c0-.753.013-1.506,0-2.259-.007-.523.219-.76.753-.76s.76.235.753.759c-.011.752,0,1.505,0,2.259Z" transform="translate(-2328.635 -3355.443)" fill="#fce6a1"/>
      <path id="Контур_3624" data-name="Контур 3624" d="M2379.87,3451.628l-1.674,0c-1.323,0-1.323,0-1.347-1.344a11.4,11.4,0,0,1,3.026-.162v0A.943.943,0,0,1,2379.87,3451.628Z" transform="translate(-2357.235 -3407.822)" fill="#fce6a1"/>
      <path id="Контур_3625" data-name="Контур 3625" d="M2351.71,3401.4a3.328,3.328,0,0,0,0-.416c-.112-.844.258-1.191,1.091-1.083a3.158,3.158,0,0,0,.416,0c.273.057.543.125.818.167.378.057.636.23.616.644a.636.636,0,0,1-.684.681C2353.213,3401.4,2352.461,3401.4,2351.71,3401.4Z" transform="translate(-2338.124 -3369.683)" fill="#fce6a1"/>
      <path id="Контур_3626" data-name="Контур 3626" d="M2441.521,3401.493l-1.847-.014c0-.249.006-.5.005-.747,0-.4.11-.715.588-.735.433-.017.834-.021.932.562A5.718,5.718,0,0,0,2441.521,3401.493Z" transform="translate(-2404.951 -3369.764)" fill="#fce6a1"/>
      <path id="Контур_3627" data-name="Контур 3627" d="M2345.4,3432.788a3.124,3.124,0,0,0,0-.417c-.107-.843.262-1.194,1.1-1.088a3.163,3.163,0,0,0,.417,0,3.679,3.679,0,0,0-.169,1.507Z" transform="translate(-2333.339 -3393.516)" fill="#fce6a1"/>
      <path id="Контур_3628" data-name="Контур 3628" d="M2351.761,3426.575c.009-.994.658-1.352,1.506-1.512C2353.271,3426.568,2353.271,3426.568,2351.761,3426.575Z" transform="translate(-2338.18 -3388.805)" fill="#fce6a1"/>
      <path id="Контур_3629" data-name="Контур 3629" d="M2340.635,3414.457c-.359-.025-.579-.2-.568-.577s.248-.541.606-.538.5.206.505.533C2341.187,3414.241,2341.023,3414.455,2340.635,3414.457Z" transform="translate(-2329.298 -3379.903)" fill="#fce6a1"/>
      <path id="Контур_3630" data-name="Контур 3630" d="M2384.554,3374.88h1.007c-.08.45.224,1.2-.464,1.225C2384.294,3376.135,2384.65,3375.34,2384.554,3374.88Z" transform="translate(-2363.087 -3350.69)" fill="#fce6a1"/>
      <path id="Контур_3631" data-name="Контур 3631" d="M2439.229,3362.464l-12.074,0q0-.742,0-1.484l.076-.139c.623-.461,1.344-.237,2.025-.285.306-.021.613.029.92.033.521.015,1.082-.133,1.5.347l3.033,0,4.518.058A.912.912,0,0,1,2439.229,3362.464Z" transform="translate(-2395.44 -3339.802)" fill="#e3e5ad"/>
      <path id="Контур_3632" data-name="Контур 3632" d="M2405.378,3356.256l-1.511.051a1.038,1.038,0,0,1-1.525,0l-1.512-.048a1.134,1.134,0,0,1-.11-1.543,2.122,2.122,0,0,1,1.574-.315,14.54,14.54,0,0,1,1.6,0,2.158,2.158,0,0,1,1.578.307A1.134,1.134,0,0,1,2405.378,3356.256Z" transform="translate(-2375.176 -3335.116)" fill="#919d5d"/>
      <path id="Контур_3633" data-name="Контур 3633" d="M2383.178,3362.368q0-.742,0-1.485l.074-.139a3.246,3.246,0,0,1,2.857,0l.076.138c0,.25-.006.5,0,.75.021.537-.249.746-.764.738C2384.678,3362.355,2383.928,3362.366,2383.178,3362.368Z" transform="translate(-2362.042 -3339.701)" fill="#e0e0b1"/>
      <path id="Контур_3634" data-name="Контур 3634" d="M2396.1,3354.893q-.014.722-.027,1.445l-1.508.041.022-.045c-.54-.445-.414-.965-.17-1.5a1.258,1.258,0,0,1,1.493-.192A.5.5,0,0,1,2396.1,3354.893Z" transform="translate(-2370.422 -3335.201)" fill="#677538"/>
      <path id="Контур_3635" data-name="Контур 3635" d="M2420.714,3356.323l-.052-1.452a.434.434,0,0,1,.168-.231,1.419,1.419,0,0,1,1.412.023.581.581,0,0,1,.193.234c.168.514.293,1.021-.236,1.419l.023.046Z" transform="translate(-2390.511 -3335.183)" fill="#6d7834"/>
      <path id="Контур_3636" data-name="Контур 3636" d="M2408.25,3362.388l1.525,0c0,.248-.015.5-.007.745.018.529-.24.736-.757.736s-.771-.215-.751-.741C2408.269,3362.885,2408.254,3362.636,2408.25,3362.388Z" transform="translate(-2381.084 -3341.202)" fill="#e0dfaf"/>
      <path id="Контур_3637" data-name="Контур 3637" d="M2370.513,3356.284l-.018-1.51.093-.125c.464-.351,1-.2,1.512-.219a2.073,2.073,0,0,1,1.558.311c.3.542.411,1.069-.134,1.538l.024.05Z" transform="translate(-2352.409 -3335.146)" fill="#78833f"/>
      <path id="Контур_3638" data-name="Контур 3638" d="M2355.072,3349.875l-4.5.014a1.188,1.188,0,0,1-.169-1.575,2.407,2.407,0,0,1,1.611-.3,8.708,8.708,0,0,1,3.019.161.6.6,0,0,1,.238.215,1.209,1.209,0,0,1-.164,1.509Z" transform="translate(-2336.985 -3330.248)" fill="#bcc081"/>
      <path id="Контур_3639" data-name="Контур 3639" d="M2346.988,3343.788l-.007,1.519-1.508,0q-.008-.751-.017-1.5t.007-1.5a1.117,1.117,0,0,1,1.577-.107A1.138,1.138,0,0,1,2346.988,3343.788Z" transform="translate(-2333.391 -3325.664)" fill="#a4a061"/>
      <path id="Контур_3640" data-name="Контур 3640" d="M2347,3338.648l-1.513,0q.01-.75.021-1.5l1.5-.038.125.081a1.106,1.106,0,0,1,0,1.376Z" transform="translate(-2333.414 -3322.007)" fill="#868448"/>
      <path id="Контур_3641" data-name="Контур 3641" d="M2496.279,3383l-1.493,0-.142-.089a3.675,3.675,0,0,1,.032-3.065c.556-.237,1.1-.4,1.58.157l.051-.023Z" transform="translate(-2446.46 -3354.291)" fill="#8a8c42"/>
      <path id="Контур_3642" data-name="Контур 3642" d="M2488.779,3368.577l1.47.019.034,1.477-.073.134a1.293,1.293,0,0,1-1.44.054.58.58,0,0,1-.2-.232A1.175,1.175,0,0,1,2488.779,3368.577Z" transform="translate(-2441.971 -3345.904)" fill="#878b35"/>
      <path id="Контур_3643" data-name="Контур 3643" d="M2496.5,3376.326l-1.462-.013c-.59-.5-.442-1.009-.035-1.529l.012,0,1.472.021Q2496.494,3375.567,2496.5,3376.326Z" transform="translate(-2446.703 -3350.618)" fill="#979d62"/>
      <path id="Контур_3644" data-name="Контур 3644" d="M2485.718,3434.9c0,1.708,0,1.708-1.624,1.7-1.211,0-1.207-.005-1.429-1.21-.041-.217-.139-.423-.2-.638-.195-.712.019-1.074.764-1.154.615-.066,1.085-.227,1.2-.924a.428.428,0,0,1,.487-.368c.261.017.377.2.457.427A4.948,4.948,0,0,1,2485.718,3434.9Z" transform="translate(-2437.401 -3394.304)" fill="#fce6a1"/>
      <path id="Контур_3645" data-name="Контур 3645" d="M2483.613,3388.274q0-1.006,0-2.012a1.244,1.244,0,0,1,1.557-.17c.489.395.309.937.316,1.435-.2.959.573,1.292,1.136,1.761l.013-.01q-.02.589-.041,1.177c-.655.007-1.346.115-1.614-.747-.034-.111-.263-.221-.406-.228C2483.771,3389.447,2483.537,3388.989,2483.613,3388.274Z" transform="translate(-2438.313 -3359.061)" fill="#fce6a1"/>
      <path id="Контур_3646" data-name="Контур 3646" d="M2407.3,3443.862l1.34.011.015,1.68a.634.634,0,0,1,0,1,.545.545,0,0,1-.347.351c-1.172-.042-1.172-.042-1.186-1.523C2406.606,3444.641,2406.652,3444.247,2407.3,3443.862Z" transform="translate(-2379.961 -3403.083)" fill="#fce6a1"/>
      <path id="Контур_3647" data-name="Контур 3647" d="M2425.938,3450.168c.754,0,1.508,0,2.261-.009.527-.009.756.23.756.759s-.226.768-.755.759c-.754-.013-1.507-.008-2.261-.011A.917.917,0,0,1,2425.938,3450.168Z" transform="translate(-2394.224 -3407.866)" fill="#fce6a1"/>
      <path id="Контур_3648" data-name="Контур 3648" d="M2417.631,3449.8q0,.749,0,1.5a1.509,1.509,0,0,1-1.505-.017,2.764,2.764,0,0,0-1.512-.314q0-.5,0-1C2415.631,3450.111,2416.6,3449.389,2417.631,3449.8Z" transform="translate(-2385.917 -3407.495)" fill="#fce6a1"/>
      <path id="Контур_3649" data-name="Контур 3649" d="M2491.444,3394.033c-1.53-.008-1.53-.008-1.477-1.544a.956.956,0,0,1,1.486.027l.011-.005Q2491.454,3393.271,2491.444,3394.033Z" transform="translate(-2443.138 -3363.805)" fill="#e6e081"/>
      <path id="Контур_3650" data-name="Контур 3650" d="M2389.411,3451.69q0-.753,0-1.505h3.024c0,.251-.01.5,0,.752.019.527-.23.766-.756.757-.585-.01-1.171,0-1.756,0Z" transform="translate(-2366.776 -3407.885)" fill="#fce6a1"/>
      <path id="Контур_3651" data-name="Контур 3651" d="M2403.66,3438.595c-.271.481-.121,1.011-.177,1.518l-1.5,0c-.005-.741-.126-1.441.993-1.625.766-.127.448-.995.518-1.562A3.956,3.956,0,0,1,2403.66,3438.595Z" transform="translate(-2376.318 -3397.816)" fill="#fce6a1"/>
      <path id="Контур_3652" data-name="Контур 3652" d="M2351.776,3332.4l.005-1.474,1.494-.017.131.078a1.31,1.31,0,0,1,.046,1.439.576.576,0,0,1-.232.2,1.179,1.179,0,0,1-1.452-.212Z" transform="translate(-2338.186 -3317.297)" fill="#767a30"/>
      <path id="Контур_3653" data-name="Контур 3653" d="M2358.052,3324.6l1.493-.005-.013.008a.96.96,0,0,1,0,1.511l0,0a.962.962,0,0,1-1.517,0l0,.007Q2358.038,3325.359,2358.052,3324.6Z" transform="translate(-2342.932 -3312.5)" fill="#7c7d43"/>
      <path id="Контур_3654" data-name="Контур 3654" d="M2364.32,3326.137q0-.755,0-1.511h1.513q-.011.75-.022,1.5Z" transform="translate(-2347.715 -3312.521)" fill="#acad8d"/>
      <path id="Контур_3655" data-name="Контур 3655" d="M2359.837,3338.984l-2.991.022c-.543-.391-.349-.968-.378-1.489.011-.529-.135-1.1.369-1.5l.006.008a.937.937,0,0,1,1.49-.012c1.5.023,1.5.023,1.524,1.517C2360.322,3338.02,2360.4,3338.507,2359.837,3338.984Z" transform="translate(-2341.746 -3320.893)" fill="#ededd6"/>
      <path id="Контур_3656" data-name="Контур 3656" d="M2359.52,3332.395l-1.49.011-.012-1.52,1.517,0Z" transform="translate(-2342.932 -3317.277)" fill="#a8a788"/>
      <path id="Контур_3657" data-name="Контур 3657" d="M2383.09,3338.6c.047-1.472.047-1.472,1.5-1.512a.549.549,0,0,1,.072.053,1.2,1.2,0,0,1,.1,1.5,1.277,1.277,0,0,1-1.476.192A.52.52,0,0,1,2383.09,3338.6Z" transform="translate(-2361.975 -3321.99)" fill="#585f8c"/>
      <path id="Контур_3658" data-name="Контур 3658" d="M2375.75,3343.411l1.473-.033c.022.019.043.039.064.059a1.174,1.174,0,0,1,.074,1.525,1.469,1.469,0,0,1-1.563.157.605.605,0,0,1-.244-.217C2375.332,3344.368,2375.208,3343.846,2375.75,3343.411Z" transform="translate(-2356.107 -3326.764)" fill="#666a75"/>
      <path id="Контур_3659" data-name="Контур 3659" d="M2372.065,3343.479q-.017.734-.034,1.466c-.475.57-.975.489-1.488.055l-.03-.076q.01-.728.021-1.457Z" transform="translate(-2352.422 -3326.832)" fill="#ced0cd"/>
      <path id="Контур_3660" data-name="Контур 3660" d="M2394.6,3327.593c.028,0,.055-.008.082-.009,1.416-.042,1.416-.042,1.414-1.517,1.519,0,1.519,0,1.5-1.516l1.505-.018q.01.775.02,1.551l-.032,1.488-.044.113c-.811.257-1.019,1.079-1.523,1.625a3.315,3.315,0,0,1-1.488.144c-.546-.024-1.127.161-1.6-.278-.241-.563-.386-1.115.168-1.594Z" transform="translate(-2370.432 -3312.451)" fill="#c0d0f1"/>
      <path id="Контур_3661" data-name="Контур 3661" d="M2414.93,3337.128l0,1.514-.094.138a1.235,1.235,0,0,1-1.546-.1,1.2,1.2,0,0,1,.131-1.563l-.018.013Z" transform="translate(-2384.737 -3322.006)" fill="#65709c"/>
      <path id="Контур_3662" data-name="Контур 3662" d="M2421.208,3343.423l-.009,1.511-.079.13a1.309,1.309,0,0,1-1.439.039.581.581,0,0,1-.2-.235,1.193,1.193,0,0,1,.221-1.457l-.008.014Z" transform="translate(-2389.504 -3326.789)" fill="#858faa"/>
      <path id="Контур_3663" data-name="Контур 3663" d="M2425.948,3349.667l1.508-.026.06.041a1.31,1.31,0,0,1,.066,1.609,1.117,1.117,0,0,1-1.574-.133l-.07.009a.965.965,0,0,1,.028-1.509Z" transform="translate(-2394.253 -3331.521)" fill="#9aa981"/>
      <path id="Контур_3664" data-name="Контур 3664" d="M2477.338,3363.812q-.005-.736-.01-1.473l1.518-.02q-.009.757-.018,1.514Z" transform="translate(-2433.549 -3341.15)" fill="#d5db91"/>
      <path id="Контур_3665" data-name="Контур 3665" d="M2485.083,3368.564q0,.754,0,1.509a.91.91,0,0,1-1.483-.021l-.047.01q.01-.751.02-1.5Z" transform="translate(-2438.275 -3345.89)" fill="#c7c967"/>
      <path id="Контур_3666" data-name="Контур 3666" d="M2440.026,3357.5h-1.492a.957.957,0,0,1-.133-1.4l.138-.079,1.505.014Z" transform="translate(-2403.799 -3336.361)" fill="#76803d"/>
      <path id="Контур_3667" data-name="Контур 3667" d="M2433.444,3351.286q.019-.738.038-1.475l1.484,0q0,.744-.007,1.489l-.055-.022A.87.87,0,0,1,2433.444,3351.286Z" transform="translate(-2400.22 -3331.651)" fill="#aebd92"/>
      <path id="Контур_3668" data-name="Контур 3668" d="M2391,3337.211q-.02.748-.038,1.5c-.416.549-.9.427-1.4.142l-.085-.134q.02-.739.04-1.479Z" transform="translate(-2366.828 -3322.08)" fill="#2d3969"/>
      <path id="Контур_3669" data-name="Контур 3669" d="M2483.668,3374.766l1.483.021.01,0a2.815,2.815,0,0,1-.026,3.031l-1.49-.008Q2483.657,3376.286,2483.668,3374.766Z" transform="translate(-2438.348 -3350.604)" fill="#fce6a1"/>
      <path id="Контур_3670" data-name="Контур 3670" d="M2428.592,3355.928l1.46,0q.025.752.05,1.505l-3.046,0q.034-.748.067-1.5Z" transform="translate(-2395.367 -3336.293)" fill="#939e5b"/>
      <path id="Контур_3671" data-name="Контур 3671" d="M2408.638,3350.083l-1.506,0a1.171,1.171,0,0,1-.223-1.434.579.579,0,0,1,.2-.24,1.633,1.633,0,0,1,1.518-.024.582.582,0,0,1,.218.227A1.163,1.163,0,0,1,2408.638,3350.083Z" transform="translate(-2379.959 -3330.436)" fill="#c9d9ac"/>
      <path id="Контур_3672" data-name="Контур 3672" d="M2414.542,3350.065q0-.757,0-1.513a.976.976,0,0,1,1.5-.026l.029.072a.931.931,0,0,1,.007,1.451l-.064.057Z" transform="translate(-2385.863 -3330.418)" fill="#667649"/>
      <path id="Контур_3673" data-name="Контур 3673" d="M2402.357,3348.578q0,.749,0,1.5l-1.491.043-.037-.075c-.492-.432-.372-.937-.173-1.452a.578.578,0,0,1,.228-.221C2401.412,3348.195,2401.936,3348.026,2402.357,3348.578Z" transform="translate(-2375.188 -3330.428)" fill="#54673a"/>
      <path id="Контур_3674" data-name="Контур 3674" d="M2383.05,3356.079l-.013-1.5.094-.127a3.633,3.633,0,0,1,2.893,0l.094.127q-.007.75-.015,1.5Z" transform="translate(-2361.935 -3334.947)" fill="#96a261"/>
      <path id="Контур_3675" data-name="Контур 3675" d="M2396.083,3348.528q0,.742,0,1.485l-1.461.016-.047.019a1.275,1.275,0,0,1-.1-1.626A1.189,1.189,0,0,1,2396.083,3348.528Z" transform="translate(-2370.433 -3330.395)" fill="#2f4117"/>
      <path id="Контур_3676" data-name="Контур 3676" d="M2420.907,3351.208q0-.725-.008-1.451l1.505-.042q-.014.755-.027,1.509Z" transform="translate(-2390.692 -3331.578)" fill="#213005"/>
      <path id="Контур_3677" data-name="Контур 3677" d="M2370.639,3349.668l1.488-.055.035.071a.932.932,0,0,1,0,1.449l-1.516.021Q2370.641,3350.411,2370.639,3349.668Z" transform="translate(-2352.518 -3331.5)" fill="#59632e"/>
      <path id="Контур_3678" data-name="Контур 3678" d="M2376.958,3351.284q0-.724,0-1.448l1.471-.023.139.075a.988.988,0,0,1-.117,1.412l-.034-.019Z" transform="translate(-2357.318 -3331.652)" fill="#2e3a0a"/>
      <path id="Контур_3679" data-name="Контур 3679" d="M2353.273,3342.269q.01.751.02,1.5l-1.5.01q-.006-.741-.013-1.481h0A.948.948,0,0,1,2353.273,3342.269Z" transform="translate(-2338.193 -3325.656)" fill="#e8dfc0"/>
      <path id="Контур_3680" data-name="Контур 3680" d="M2353.266,3338.664l-1.492.028q0-.76,0-1.518h1.508Q2353.271,3337.918,2353.266,3338.664Z" transform="translate(-2338.186 -3322.052)" fill="#9b9574"/>
      <path id="Контур_3681" data-name="Контур 3681" d="M2489.843,3377.827l.026-3.031,1.486-.011q.018.764.035,1.528-.009,1.508-.019,3.015l-1.486-.027Q2489.864,3378.565,2489.843,3377.827Z" transform="translate(-2443.055 -3350.619)" fill="#bdc04e"/>
      <path id="Контур_3682" data-name="Контур 3682" d="M2383.087,3344.99q.032-.745.065-1.489l1.473-.038-.009.006a1.084,1.084,0,1,1-1.525,1.513Z" transform="translate(-2361.972 -3326.829)" fill="#444c61"/>
      <path id="Контур_3683" data-name="Контур 3683" d="M2389.418,3344.934q0-.745.006-1.488l1.493-.014,1.55.018a.925.925,0,0,1-.048,1.476l.012.012-1.488.027A.966.966,0,0,1,2389.418,3344.934Z" transform="translate(-2366.781 -3326.805)" fill="#b6c6d4"/>
      <path id="Контур_3684" data-name="Контур 3684" d="M2401.9,3344.941q.025-.738.048-1.476l1.494-.014.132.088a1.047,1.047,0,0,1-.122,1.43h-.02Z" transform="translate(-2376.26 -3326.82)" fill="#394a52"/>
      <path id="Контур_3685" data-name="Контур 3685" d="M2409.807,3337.113l.011,1.529-.088.133a1,1,0,0,1-1.423-.141v0C2408.3,3337.154,2408.3,3337.154,2409.807,3337.113Z" transform="translate(-2381.128 -3322.006)" fill="#233158"/>
      <path id="Контур_3686" data-name="Контур 3686" d="M2414.889,3344.9l-1.5.026.015.008a.939.939,0,0,1-.011-1.505h.005l1.506-.014Q2414.9,3344.153,2414.889,3344.9Z" transform="translate(-2384.709 -3326.789)" fill="#e0ebfd"/>
      <path id="Контур_3687" data-name="Контур 3687" d="M2409.813,3343.444l.012,1.506-1.507.008q-.005-.761-.011-1.522Z" transform="translate(-2381.128 -3326.808)" fill="#66727e"/>
      <path id="Контур_3688" data-name="Контур 3688" d="M2384.621,3349.679l1.525.031q-.013.746-.026,1.492l-3,0q-.009-.747-.018-1.5Z" transform="translate(-2361.984 -3331.551)" fill="#acbc91"/>
    </g>
    <path id="Контур_4051" data-name="Контур 4051" d="M-110.337-55.79v1.667h-6.717V-55.79Zm-8.383,1.667h1.667v3.316h1.683v1.717h-1.683v-1.683h-1.667Zm6.7,6.717h-3.35V-49.09h3.35Zm1.683,3.35h-1.683v-3.35h1.683Zm-8.383,1.667v-1.667h6.7v1.667Zm16.8-6.75h1.683v1.717h-1.683v-1.683h-5.05V-50.79h5.05Zm-5.05.034v1.683h5.05v1.683h-5.05v1.683h-1.683v-5.05Zm5.05,6.75h-5.05v-1.7h5.05Zm3.367-6.767h1.667v-1.683h3.367v1.683h-3.35v6.75h-1.683Zm6.717-1.667h1.683v6.734h-1.683Zm3.367,0h1.683v6.734h-1.683Zm-1.683,8.417v-1.683h1.683v1.683Zm6.717-8.383v-1.717h1.683v1.717Zm-1.683,6.7h1.683v-3.35h-1.683V-49.09h3.367v6.717h-3.367Zm11.716-3.35h-1.667V-49.09h-3.316v5.033h3.316v1.667h-3.35v-1.667h-1.65V-49.09h1.65v-1.667h3.35v1.633H-73.4Zm0,1.633v1.717h-1.667v-1.717Zm8.417-3.367H-63.3v1.717h-1.683v-1.683h-5.05V-50.79h5.05Zm-5.05.034v1.683h5.05v1.683h-5.05v1.683h-1.683v-5.05Zm5.05,6.75h-5.05v-1.7h5.05Z" transform="translate(119.028 112.318)"/>
  </g>
  <g id="Прямоугольник_159" data-name="Прямоугольник 159" transform="translate(0 54.77)" fill="none" stroke="#000" stroke-width="1" stroke-dasharray="3 3" opacity="0">
    <rect width="76" height="20" stroke="none"/>
    <rect x="0.5" y="0.5" width="75" height="19" fill="none"/>
  </g>
</svg>
