<svg xmlns="http://www.w3.org/2000/svg" width="67.588" height="54.885" viewBox="0 0 67.588 54.885">
  <g id="telegram_button" data-name="telegram button" transform="translate(0 0)">
    <g id="Сгруппировать_252" data-name="Сгруппировать 252">
      <path id="Контур_1888" data-name="Контур 1888" d="M868.375-2782.719h65.062a9.058,9.058,0,0,1,.014,2.417c-.293.355-.6.125-.9.172a1.3,1.3,0,0,1-.366.019H869.849c-.557,0-.515-.068-.515,1.415q0,22.652,0,45.3c0,.288.005.576-.007.864a18.782,18.782,0,0,1-.06,2.464.562.562,0,0,1-.9-.021,6.466,6.466,0,0,1-.014-.725q0-25.6,0-51.191A3.826,3.826,0,0,1,868.375-2782.719Z" transform="translate(-868.256 2782.719)" fill="#fff"/>
      <path id="Контур_1889" data-name="Контур 1889" d="M868.354-2730.083l.892-.025a.284.284,0,0,1,.284-.2c.125-.007.249,0,.374,0q32.115,0,64.229,0c.661,0,.592.132.592-1.567q0-23.587,0-47.174a5.09,5.09,0,0,1,.074-1.29q0-1.189.006-2.378h.9a3.731,3.731,0,0,1,.023.717q0,26.726,0,53.451a3.736,3.736,0,0,1-.023.718H868.353A20.988,20.988,0,0,1,868.354-2730.083Z" transform="translate(-868.236 2782.719)" fill="#060708"/>
      <path id="Контур_1890" data-name="Контур 1890" d="M867.835-2730.083l0,2.25c-.274-.119-.125-.359-.125-.531q-.014-10.486-.008-20.972,0-16.393.008-32.785c0-.194-.153-.45.125-.6Q867.834-2756.4,867.835-2730.083Z" transform="translate(-867.667 2782.719)" fill="#b3b1b1"/>
      <path id="Контур_1891" data-name="Контур 1891" d="M2218.412-2727.833v-54.885c.274.12.125.359.125.531q.014,10.731.008,21.462,0,16.147-.008,32.293C2218.537-2728.237,2218.69-2727.981,2218.412-2727.833Z" transform="translate(-2150.991 2782.719)" fill="#b3b1b1"/>
      <path id="Контур_1892" data-name="Контур 1892" d="M949.3-2764.825c0,.221.005.443.005.664q0,24.386.006,48.771c0,.672-.058.828-.3.828q-30.984-.026-61.968-.017c-.079,0-.158-.01-.238-.015q0-1.18.009-2.36c.172-.378.374-.176.563-.221a.83.83,0,0,1,.3.008,1.184,1.184,0,0,1,.356-.019l59.826,0c.547,0,.507.074.507-1.4q0-21.461,0-42.923c0-.288-.005-.577.007-.864-.009-.566-.005-1.132,0-1.7a2.277,2.277,0,0,1,.079-.729Z" transform="translate(-884.264 2767.203)" fill="#6d6e6e"/>
      <path id="Контур_1893" data-name="Контур 1893" d="M887.627-2716.99l-.828.036c0-.221,0-.443,0-.664q0-23.187-.006-46.375c0-.689.066-.834.3-.834q29.793.023,59.586.015c.077,0,.155.007.232.01q-.006,1.186-.012,2.373c-.072.211-.167.211-.259.22-.116.011-.232.005-.348.005q-29.024,0-58.048,0c-.585,0-.53-.112-.53,1.491q0,21.224,0,42.449A4.641,4.641,0,0,1,887.627-2716.99Z" transform="translate(-884.249 2767.204)" fill="#d6d7d6"/>
      <path id="Контур_1894" data-name="Контур 1894" d="M904.84-2701.347q0-14.849,0-29.7,0-7.441,0-14.882c0-.85,0-.851.3-.851H962.2c.113,0,.226-.006.339-.009,0,.221.006.442.006.664q0,21.991.006,43.982c0,.689-.065.828-.288.828q-28.59-.023-57.18-.015C905.005-2701.329,904.923-2701.341,904.84-2701.347Z" transform="translate(-899.9 2751.562)" fill="#b3b1b0"/>
    </g>
    <g id="Прямоугольник_153" data-name="Прямоугольник 153" transform="translate(7 7)" fill="none" stroke="#374040" stroke-width="2" stroke-dasharray="3 3">
      <rect width="53" height="42" stroke="none"/>
      <rect x="1" y="1" width="51" height="40" fill="none"/>
    </g>
    <path id="telegram" d="M2762.9,1213.052l-29.914,11.169c-1.636.466-1.583,2.06-.374,2.443l7.5,2.307,2.868,8.671c.348.949.633,1.307,1.229,1.314.625.009.865-.217,1.515-.784.761-.7,1.92-1.814,3.751-3.569l7.8,5.681c1.435.78,2.471.376,2.828-1.314l4.888-23.844C2765.505,1213.055,2764.271,1212.437,2762.9,1213.052Zm-21.616,15.39,17.041-10.543c.839-.555,1.1.064.724.492l-14.142,12.545-.726,6.262Z" transform="translate(-2715.415 -1198.825)"/>
  </g>
</svg>
