<svg id="telegram" xmlns="http://www.w3.org/2000/svg" width="84" height="64.45" viewBox="0 0 84 64.45">
  <g id="Сгруппировать_285" data-name="Сгруппировать 285" transform="translate(7.5 0)">
    <path id="Контур_4050" data-name="Контур 4050" d="M-140.116-54.44H-143.5v-1.7h8.451v1.7h-3.384v11.8h-1.683Zm13.484,5.033h1.683v1.717h-1.683v-1.683h-5.05v-1.683h5.05Zm-5.05.034v1.683h5.05v1.683h-5.05v1.683h-1.683v-5.05Zm5.05,6.75h-5.05v-1.7h5.05Zm3.367-11.75h1.683v11.716h-1.683Zm10.084,4.966h1.683v1.717h-1.683v-1.683h-5.05v-1.683h5.05Zm-5.05.034v1.683h5.05v1.683h-5.05v1.683h-1.683v-5.05Zm5.05,6.75h-5.05v-1.7h5.05Zm8.434-8.434v1.683h-3.384v-1.683Zm0,1.683h1.683v8.417h-1.683v-1.683h-3.384v-1.65h-1.683v-5.084h1.683v5.05h3.384Zm-3.384,10.117v-1.7h3.384v1.7Zm6.75-10.134h1.667v-1.683h3.367v1.683H-99.7v6.75h-1.683Zm8.4-1.633h5.033v1.667h-5.033Zm5.033,1.667h1.683v5.05h-1.683v-1.683h-5.033v-1.683h5.033Zm-6.717,3.367h1.683v1.683h-1.683Zm1.683,3.367v-1.683h5.033v1.683Zm8.4-8.434h6.734v1.683h-1.683v6.734h-1.683v-6.734H-82.9v6.734h-1.683Zm6.734,1.683h1.683v6.734h-1.683Z" transform="translate(143.5 102.168)"/>
    <g id="Сгруппировать_280" data-name="Сгруппировать 280" transform="translate(14.79)">
      <path id="Контур_3689" data-name="Контур 3689" d="M2341.342,2943.628l.01-.928,19.649-.1.955.054a1.153,1.153,0,0,1,.434.994,1.445,1.445,0,0,1-.315,1.286,1.235,1.235,0,0,1-1.265.185,4.2,4.2,0,0,0-3.45-1.017c-4.921.121-9.84.152-14.759-.016A1.342,1.342,0,0,1,2341.342,2943.628Z" transform="translate(-2339.132 -2942.604)" fill="#6c9697"/>
      <path id="Контур_3690" data-name="Контур 3690" d="M2435.228,2987.664c3.463,0,6.925,0,10.388.022.56,0,1.269-.182,1.383.72a.356.356,0,0,1-.071.411,1.432,1.432,0,0,1-1.065.3c-3.209.2-6.42.092-9.631.067a1.606,1.606,0,0,1-1.019-.267.845.845,0,0,1-.16-1.09Z" transform="translate(-2410.208 -2976.828)" fill="#397c79"/>
      <path id="Контур_3691" data-name="Контур 3691" d="M2484,2991c.011-.085.022-.17.033-.256.816.106,1.309.491,1.2,1.394l-.037.094A.862.862,0,1,1,2484,2991Z" transform="translate(-2447.242 -2979.171)" fill="#1b7170"/>
      <path id="Контур_3692" data-name="Контур 3692" d="M2355.923,3081.438l1.169.026.193.115a.905.905,0,0,1-.022,1.23,1.99,1.99,0,0,1-2.074.175.672.672,0,0,1-.266-.335q.018-.575.036-1.149Z" transform="translate(-2349.447 -3048.05)" fill="#4a7746"/>
      <path id="Контур_3693" data-name="Контур 3693" d="M2332.246,2968.86q-.009-7.08-.018-14.16a.852.852,0,0,1,1.519.166,3.788,3.788,0,0,1,.238,1.642c.014,3.544.023,7.088-.007,10.632a2.528,2.528,0,0,1-.383,1.824A.952.952,0,0,1,2332.246,2968.86Z" transform="translate(-2332.21 -2951.513)" fill="#92b0b0"/>
      <path id="Контур_3694" data-name="Контур 3694" d="M2332.215,3044.892q.012-2.159.023-4.319a.94.94,0,0,1,1.293-.151c.695.97.21,2.072.347,3.1a2.543,2.543,0,0,1-.182,1.3.811.811,0,0,1-.3.319.9.9,0,0,1-1.18-.262Z" transform="translate(-2332.2 -3016.754)" fill="#8eb3b5"/>
      <path id="Контур_3695" data-name="Контур 3695" d="M2332.216,3024.823v-2.211a.915.915,0,0,1,1.274-.115,1.4,1.4,0,0,1,.365,1.084,1.584,1.584,0,0,1-.346,1.328A.913.913,0,0,1,2332.216,3024.823Z" transform="translate(-2332.199 -3003.127)" fill="#2f605f"/>
      <path id="Контур_3696" data-name="Контур 3696" d="M2333.435,3036.924l-1.124-.025q0-.585,0-1.17a.834.834,0,1,1,1.123,1.2Z" transform="translate(-2332.273 -3013.08)" fill="#a2c8c9"/>
      <path id="Контур_3697" data-name="Контур 3697" d="M2333.427,3018.747l-1.213-.069.013-1.2a.876.876,0,0,1,1.051-.3.793.793,0,0,1,.325.213,1.031,1.031,0,0,1,.1,1.1A.658.658,0,0,1,2333.427,3018.747Z" transform="translate(-2332.199 -2999.193)" fill="#76a6a2"/>
      <path id="Контур_3698" data-name="Контур 3698" d="M2333.384,3033.429l-1.141.038-.022-.953,1.2-.1.144.105a.623.623,0,0,1-.028.819Z" transform="translate(-2332.204 -3010.818)" fill="#7aa2a4"/>
      <path id="Контур_3699" data-name="Контур 3699" d="M2333.45,3015.631l-1.182,0q0-.471.008-.941l1.126-.017A.607.607,0,0,1,2333.45,3015.631Z" transform="translate(-2332.24 -2997.338)" fill="#9cc6c4"/>
      <path id="Контур_3700" data-name="Контур 3700" d="M2333.347,2952.467l-1.119.039q0-.48,0-.961l1.166-.1a.518.518,0,0,1,.03.117C2333.686,2951.889,2333.716,2952.2,2333.347,2952.467Z" transform="translate(-2332.21 -2949.319)" fill="#5a9699"/>
      <path id="Контур_3701" data-name="Контур 3701" d="M2398.985,3100.594l-1.906.083a1.6,1.6,0,0,1-1.045.486,33.6,33.6,0,0,1-3.664,0,1.457,1.457,0,0,1-1.038-.492l-.987-.038.024-.028a.759.759,0,0,1-.144-1.007,1.165,1.165,0,0,1,.969-.386,11.266,11.266,0,0,1,1.2-.017c.3,0,.606-.013.909,0,.823.167.934-.671,1.407-1a1.008,1.008,0,0,1,.882,0c.462.411.681,1.205,1.549.978.693-.016,1.422-.229,2,.379A.794.794,0,0,1,2398.985,3100.594Z" transform="translate(-2376.161 -3060.702)" fill="#7c9087"/>
      <path id="Контур_3702" data-name="Контур 3702" d="M2484.811,3010.683q-.033.6-.065,1.207l-.14.182a.922.922,0,0,1-1.258-.128,2.067,2.067,0,0,1-.278-1.341c-.013-4.119,0-8.238,0-12.357,0-.472-.086-.972.307-1.36l.2-.115,1.139.039Q2484.764,3003.747,2484.811,3010.683Z" transform="translate(-2446.768 -2983.745)" fill="#0c2a26"/>
      <path id="Контур_3703" data-name="Контур 3703" d="M2332.193,3096.271q-.02-1.047-.041-2.094v-.067a1.266,1.266,0,0,1,1.174-.419,1.711,1.711,0,0,1,1.032.14c.342.474.68.919,1.39.819a1.121,1.121,0,0,1,.943.374.938.938,0,0,1-.044,1.2l-.184.116Z" transform="translate(-2332.152 -3057.344)" fill="#0c3a32"/>
      <path id="Контур_3704" data-name="Контур 3704" d="M2351.277,3104.6c-.641-.042-1.285-.079-1.214-.992l.011-.062a.893.893,0,0,1,1.248-.077.7.7,0,0,1-.024,1.028Z" transform="translate(-2345.751 -3064.619)" fill="#196153"/>
      <path id="Контур_3705" data-name="Контур 3705" d="M2374.965,3096.325l-.945.02a1.338,1.338,0,0,1-1.233.417,1.29,1.29,0,0,1-1.075-.28,1.194,1.194,0,0,1-.172-1.263c.433-.436.783-.949,1.241-1.364a2.536,2.536,0,0,1,1.279-.171,1.227,1.227,0,0,1,1.067.31,1.951,1.951,0,0,1,.033,2.2Z" transform="translate(-2361.985 -3057.34)" fill="#0e2922"/>
      <path id="Контур_3706" data-name="Контур 3706" d="M2368.558,3103.6l.984.029a.629.629,0,0,1-.038.925l-.932.046-1.22-.071a.709.709,0,0,1-.034-1.028A.863.863,0,0,1,2368.558,3103.6Z" transform="translate(-2358.706 -3064.643)" fill="#154739"/>
      <path id="Контур_3707" data-name="Контур 3707" d="M2358.323,3102.847q0,.434-.006.867l-3.1-.006c0-.289.005-.577.008-.866l.082-.194a2.823,2.823,0,0,1,2.784-.142A.652.652,0,0,1,2358.323,3102.847Z" transform="translate(-2349.671 -3063.826)" fill="#18401c"/>
      <path id="Контур_3708" data-name="Контур 3708" d="M2341.14,2946.862h1.179a.92.92,0,0,1,.2,1.2.9.9,0,0,1-1.177.261.646.646,0,0,1-.264-.331Q2341.108,2947.426,2341.14,2946.862Z" transform="translate(-2338.93 -2945.838)" fill="#89b1b3"/>
      <path id="Контур_3709" data-name="Контур 3709" d="M2336.882,2952.544l.08-.906.929-.092a.714.714,0,0,0,.038.115.676.676,0,0,1,.06.983.708.708,0,0,1-.993-.056A.951.951,0,0,1,2336.882,2952.544Z" transform="translate(-2335.745 -2949.396)" fill="#a6c9cd"/>
      <path id="Контур_3710" data-name="Контур 3710" d="M2346.123,2948q.014-.569.029-1.137l15.13.015a.938.938,0,0,1,.085,1.35c-.392.379-.889.289-1.358.289q-6.211.01-12.421,0C2347.051,2948.516,2346.44,2948.658,2346.123,2948Z" transform="translate(-2342.763 -2945.84)" fill="#a9b6b5"/>
      <path id="Контур_3711" data-name="Контур 3711" d="M2420.281,2951.769l1.111-.025.208.107a1.366,1.366,0,0,1,.325,1.114c-.012,2.481.031,4.962-.023,7.445a1.47,1.47,0,0,1-.385,1.124c-1.244.384-1.691.078-1.754-1.179a8.881,8.881,0,0,0-.054-1.772,43.712,43.712,0,0,1,.1-5.816C2419.824,2952.366,2419.852,2951.972,2420.281,2951.769Z" transform="translate(-2398.611 -2949.546)" fill="#6e7976"/>
      <path id="Контур_3712" data-name="Контур 3712" d="M2412.25,2947.854l-.084.919a3.041,3.041,0,0,0-.4.589c-.473,1.144-.652,1.219-1.863.818-.36-.292-.333-.705-.342-1.106.168-.546-.463-.788-.485-1.263q.009-.57.018-1.141a16.929,16.929,0,0,0,1.872-.057C2411.972,2946.478,2412.335,2946.914,2412.25,2947.854Z" transform="translate(-2390.58 -2945.631)" fill="#babcc1"/>
      <path id="Контур_3713" data-name="Контур 3713" d="M2426.988,2946.815c.893-.1.922.53.962,1.147l-.068.05a.617.617,0,0,1-.9,0l-.094-.022Q2426.937,2947.4,2426.988,2946.815Z" transform="translate(-2404.103 -2945.795)" fill="#175759"/>
      <path id="Контур_3714" data-name="Контур 3714" d="M2430.306,2990.343l10.825.054a.931.931,0,0,1,.2,1.254.9.9,0,0,1-.377.27,7.637,7.637,0,0,1-2.607.151c-2.712,0-5.423,0-8.135-.005-.507,0-1.052.113-1.469-.324a1.2,1.2,0,0,1-.027-1.423A1.05,1.05,0,0,1,2430.306,2990.343Z" transform="translate(-2405.323 -2978.575)" fill="#8baba8"/>
      <path id="Контур_3715" data-name="Контур 3715" d="M2429.3,2988.014l-1.417.1a.5.5,0,0,1-.712-.082l-.006-.94a.681.681,0,0,1,.959,0l1.185.012Q2429.3,2987.56,2429.3,2988.014Z" transform="translate(-2404.314 -2976.245)" fill="#3b6060"/>
      <path id="Контур_3716" data-name="Контур 3716" d="M2481.116,2992.988q-.031-.611-.064-1.223l.95.012q.025.6.052,1.192l-.049.034A.616.616,0,0,1,2481.116,2992.988Z" transform="translate(-2445.244 -2979.942)" fill="#639493"/>
      <path id="Контур_3717" data-name="Контур 3717" d="M2428.122,2960.456h-.959q.014-4.315.027-8.63l.9,0Q2428.108,2956.139,2428.122,2960.456Z" transform="translate(-2404.314 -2949.606)" fill="#072b2b"/>
      <path id="Контур_3718" data-name="Контур 3718" d="M2346.13,3087.426c0-.289.007-.579.01-.868l2.1-.084.071.088a.748.748,0,0,1,.125.986,1.234,1.234,0,0,1-1.141.384,1.638,1.638,0,0,1-.958-.187A.6.6,0,0,1,2346.13,3087.426Z" transform="translate(-2342.769 -3051.875)" fill="#99aa7e"/>
      <path id="Контур_3719" data-name="Контур 3719" d="M2363.941,3073.975q0-1.061,0-2.121l.1-.016a.771.771,0,0,1,1.087-.069,1.922,1.922,0,0,1-.025,2.261.752.752,0,0,1-1.083-.031Z" transform="translate(-2356.296 -3040.562)" fill="#85a097"/>
      <path id="Контур_3720" data-name="Контур 3720" d="M2355.044,3087.473q.021-.453.042-.907l2.115-.086.174.129a.788.788,0,0,1-.041,1.005,1.47,1.47,0,0,1-1.2.323,1.2,1.2,0,0,1-.981-.281Z" transform="translate(-2349.539 -3051.88)" fill="#aba434"/>
      <path id="Контур_3721" data-name="Контур 3721" d="M2364.077,3081.592l.882-.016.19.116a.853.853,0,0,1-.062,1.213.763.763,0,0,1-1.019-.071l-.056-.078Q2364.044,3082.173,2364.077,3081.592Z" transform="translate(-2356.35 -3048.155)" fill="#969871"/>
      <path id="Контур_3722" data-name="Контур 3722" d="M2337.071,2954.257l.9-.054a1.534,1.534,0,0,1,1.3-.46q6.99.011,13.98.006a1.469,1.469,0,0,1,1.223.339c.433,1.266.2,1.636-1.145,1.813-4.025.018-8.052,0-12.078.012-.534,0-1.159-.164-1.408.567a2.62,2.62,0,0,0-.176,1.25q0,4.493,0,8.982c.012.55-.2,1.245.763,1.192.4-.017.788.034,1.183,0,2-.151,4-.08,6.005-.05a1.593,1.593,0,0,1,1.33.424,1.074,1.074,0,0,1,.019,1.176,1.647,1.647,0,0,1-1.41.462,40.193,40.193,0,0,1-4.03-.037c-1.664.095-3.329.077-4.994.043a1.664,1.664,0,0,1-1.494-.561l-.009-.008q-.024-.481-.048-.962Q2337.027,2961.326,2337.071,2954.257Z" transform="translate(-2335.821 -2951.064)" fill="#f4fbfc"/>
      <path id="Контур_3723" data-name="Контур 3723" d="M2336.984,3036.388q.009-.616.018-1.233l.043.019a1.174,1.174,0,0,1,.918-.475c1.91-.009,3.819-.017,5.729.005a1.433,1.433,0,0,1,.877.333,1.153,1.153,0,0,1,.113,1.4c-.645.712-1.483.41-2.26.428-1-.028-1.993-.01-2.988.032-.7-.036-.822.421-.865.985-.048.65.04,1.356-.589,1.824a.805.805,0,0,1-.934-.219Q2337.014,3037.938,2336.984,3036.388Z" transform="translate(-2335.822 -3012.544)" fill="#eff9ef"/>
      <path id="Контур_3724" data-name="Контур 3724" d="M2337.189,3053.616l.944,0a.936.936,0,0,1,1.331-.1,1.045,1.045,0,0,1,.01,1.38.948.948,0,0,1-1.345-.04l-.954-.059Q2337.182,3054.211,2337.189,3053.616Z" transform="translate(-2335.967 -3026.672)" fill="#bfcfc7"/>
      <path id="Контур_3725" data-name="Контур 3725" d="M2337.225,3027.316q.016-.578.032-1.157a1.214,1.214,0,0,1,1.043-.458q4.883,0,9.765,0a1.7,1.7,0,0,1,.9.254,1.065,1.065,0,0,1,.3,1.325.861.861,0,0,1-.312.352c-1.431.482-2.907.117-4.359.229-1.984,0-3.967,0-5.95,0-.521,0-1.043.031-1.4-.457Z" transform="translate(-2336.005 -3005.717)" fill="#414141"/>
      <path id="Контур_3726" data-name="Контур 3726" d="M2349.021,3022.756l-11.739-.036q-.011-.443-.023-.888l0-.067a1.7,1.7,0,0,1,1.515-.543c1.637-.027,3.276-.06,4.912.05,1.774.019,3.567-.352,5.318.231a.852.852,0,0,1,.18,1.083Z" transform="translate(-2336.031 -3002.278)" fill="#141414"/>
      <path id="Контур_3727" data-name="Контур 3727" d="M2343.687,3019.863l-6.458.025q-.006-.594-.013-1.187l6.483.043A.713.713,0,0,1,2343.687,3019.863Z" transform="translate(-2335.999 -3000.4)" fill="#b4b7b1"/>
      <path id="Контур_3728" data-name="Контур 3728" d="M2337.253,3032.8l7.41.017a.607.607,0,0,1,.141.819l-.143.115-7.425-.012Q2337.245,3033.271,2337.253,3032.8Z" transform="translate(-2336.014 -3011.111)" fill="#e6e6e3"/>
      <path id="Контур_3729" data-name="Контур 3729" d="M2440.12,3102.862q-.039.458-.079.917l-12.979-.013q.008-.442.017-.884c.39-.756,1.122-.533,1.746-.6a8.843,8.843,0,0,1,1.272.053,13.336,13.336,0,0,1,2.21.011c.433-.007.867-.006,1.3,0a15.039,15.039,0,0,1,3,0,10.09,10.09,0,0,1,2.076.015c.4.027.822-.073,1.183.193A.648.648,0,0,1,2440.12,3102.862Z" transform="translate(-2404.237 -3063.874)" fill="#6f7872"/>
      <path id="Контур_3730" data-name="Контур 3730" d="M2421.847,3089.074l-3.108.077-2.163-.05a1.155,1.155,0,0,1-.473-1.122c-.009-.354-.017-.708-.012-1.063-.025-.437,0-.874.016-1.312a1.517,1.517,0,0,1,.382-1.068,1.214,1.214,0,0,1,.778-.268q3.592-.152,7.184,0a1.294,1.294,0,0,1,.786.252,1,1,0,0,1,.287,1.044c-.372.636-1.185.881-1.443,1.621a1.058,1.058,0,0,1-.929.09c-.537-.044-.711-1.058-1.184-.717-.533.385.346.792.368,1.287A1.248,1.248,0,0,1,2421.847,3089.074Z" transform="translate(-2395.897 -3050.143)" fill="#d3d5d2"/>
      <path id="Контур_3731" data-name="Контур 3731" d="M2394.65,3085.42l-1.168.009c-.144-.136-.371-.251-.382-.444-.093-1.726-.44-3.467.229-5.159a6.585,6.585,0,0,1,4.56-.078,1.241,1.241,0,0,1,.128,1.4c-.557.776-1.417.307-2.112.515-.766.074-.734.617-.785,1.2C2395.045,3083.725,2395.527,3084.705,2394.65,3085.42Z" transform="translate(-2378.312 -3046.486)" fill="#f5f8f1"/>
      <path id="Контур_3732" data-name="Контур 3732" d="M2390.393,3080.755q0,2.726.008,5.452l-.953-.009-.064.02c-.683-.578-.468-1.355-.467-2.085a11.175,11.175,0,0,1,.014-2.161,1.994,1.994,0,0,1,.242-1.235.767.767,0,0,1,.937-.275A.59.59,0,0,1,2390.393,3080.755Z" transform="translate(-2375.231 -3047.265)" fill="#afb4b3"/>
      <path id="Контур_3733" data-name="Контур 3733" d="M2400.091,3091.026c0-1.1.02-2.192.009-3.288-.007-.68.263-1.04.979-.969a1.044,1.044,0,0,1,.415.9,7.549,7.549,0,0,1,.042,1.227c.009.345,0,.691-.01,1.037a1.115,1.115,0,0,1-.484,1.108Z" transform="translate(-2383.753 -3052.093)" fill="#d5eed7"/>
      <path id="Контур_3734" data-name="Контур 3734" d="M2404.047,3099.8q.025-.6.049-1.2a.746.746,0,0,1,1.07-.136l.114.165C2405.377,3099.553,2404.962,3099.941,2404.047,3099.8Z" transform="translate(-2386.757 -3060.854)" fill="#a0c29f"/>
      <path id="Контур_3735" data-name="Контур 3735" d="M2414.238,3098.6q.017.608.034,1.217c-.9.125-1.315-.257-1.208-1.172l.109-.167A.74.74,0,0,1,2414.238,3098.6Z" transform="translate(-2393.593 -3060.864)" fill="#97b998"/>
      <path id="Контур_3736" data-name="Контур 3736" d="M2409.1,3095.472l-.949-.011-.009-.01a.8.8,0,0,1-.272-.869.765.765,0,0,1,.243-.312.945.945,0,0,1,.965-.023.747.747,0,0,1,.268.3.791.791,0,0,1-.255.9Z" transform="translate(-2389.627 -3057.686)" fill="#275e27"/>
      <path id="Контур_3737" data-name="Контур 3737" d="M2480.28,3075.015c-.032.612,0,1.273-.927,1.187-.04-.016-.08-.031-.12-.044a1.337,1.337,0,0,1-.428-1.212,15.365,15.365,0,0,1-.02-3.083,5.052,5.052,0,0,1,.176-2.163,7.309,7.309,0,0,1,2.009-2.142c.6-.424,1.123-.576,1.716-.059a2.844,2.844,0,0,1,.124,2.119,1.952,1.952,0,0,0-.89,2.086,1.489,1.489,0,0,1-.86,1.753c-.293.134-.318.423-.341.7C2480.737,3074.528,2480.483,3074.759,2480.28,3075.015Z" transform="translate(-2443.47 -3037.214)" fill="#5a5955"/>
      <path id="Контур_3738" data-name="Контур 3738" d="M2485.125,3095.008l-.03-.955a1.547,1.547,0,0,1,2.2-.189.807.807,0,0,1-.054,1.111l.006-.01Z" transform="translate(-2448.315 -3057.207)" fill="#39544e"/>
      <path id="Контур_3739" data-name="Контур 3739" d="M2479.129,3060.635q-.03.578-.06,1.156a3.6,3.6,0,0,0-2.1,1.616,1.26,1.26,0,0,1-1.021.566.916.916,0,0,1-1.252.173,1.047,1.047,0,0,1-.261-1.2c.3-.551.979-.742,1.24-1.327.614-.144.856-.637,1.075-1.152.414-.349,1.06-.309,1.377-.821l0-.012.949.03Q2479.1,3060.152,2479.129,3060.635Z" transform="translate(-2440.153 -3031.494)" fill="#8e938f"/>
      <path id="Контур_3740" data-name="Контур 3740" d="M2479.235,2996.82l.89.014q0,6.939,0,13.877a.818.818,0,0,1-1.108.094,1.232,1.232,0,0,1-.361-.981c-.04-3.987-.183-7.975.078-11.96a1.275,1.275,0,0,1,.433-1.054Z" transform="translate(-2443.363 -2983.774)" fill="#6d6c6f"/>
      <path id="Контур_3741" data-name="Контур 3741" d="M2485.375,3059.688c.134.934-.484.989-1.152.986l-.159-.075a.6.6,0,0,1-.037-.806l.144-.1Z" transform="translate(-2447.399 -3031.531)" fill="#565c58"/>
      <path id="Контур_3742" data-name="Контур 3742" d="M2480.1,3054.647l.892-.033q.008.612.015,1.224l.014-.014a.769.769,0,0,1-1.064.054A.782.782,0,0,1,2480.1,3054.647Z" transform="translate(-2444.236 -3027.677)" fill="#59564f"/>
      <path id="Контур_3743" data-name="Контур 3743" d="M2337.155,3091.647q.01-.565.02-1.13l2.138-.081.016.087a.88.88,0,0,1,.092,1.287.953.953,0,0,1-1.312-.073Z" transform="translate(-2335.952 -3054.885)" fill="#7a7b75"/>
      <path id="Контур_3744" data-name="Контур 3744" d="M2350.564,3096.626l-1.232-.085q-.015-.579-.03-1.158a.8.8,0,0,1-.021-1.078,1.053,1.053,0,0,1,1.335-.08,1.138,1.138,0,0,1,.376,1.073,1.251,1.251,0,0,1-.428,1.24Z" transform="translate(-2345.01 -3057.61)" fill="#575e3d"/>
      <path id="Контур_3745" data-name="Контур 3745" d="M2343.288,3094.868q-.014.478-.027.956c-.736-.249-1.964.642-2.135-.92l1.195-.086a.666.666,0,0,1,.854-.1Z" transform="translate(-2338.968 -3058.052)" fill="#151e0e"/>
      <path id="Контур_3746" data-name="Контур 3746" d="M2383.152,3085.429v2.188a.8.8,0,0,1-1.189.007l-.921-.052a.871.871,0,0,1-.293-1.115,9.973,9.973,0,0,0,1.249-1.3A.93.93,0,0,1,2383.152,3085.429Z" transform="translate(-2368.992 -3050.799)" fill="#7a8d8d"/>
      <path id="Контур_3747" data-name="Контур 3747" d="M2386.092,3095.711l1.19-.006q0,1.067-.009,2.134l-1.181-.022Z" transform="translate(-2373.121 -3058.886)" fill="#334c45"/>
      <path id="Контур_3748" data-name="Контур 3748" d="M2372.423,3090.838c.008.625-.212,1.036-.926.979l-.213-.106a1.7,1.7,0,0,1,.021-2.194.962.962,0,0,1,1.143.024A.877.877,0,0,1,2372.423,3090.838Z" transform="translate(-2361.577 -3054.052)" fill="#1b0e01"/>
      <path id="Контур_3749" data-name="Контур 3749" d="M2368.292,3099.8l-1.2.06-.005-.083a.841.841,0,1,1,1.181-1.174l.094,0Q2368.326,3099.2,2368.292,3099.8Z" transform="translate(-2358.44 -3060.837)" fill="#463811"/>
      <path id="Контур_3750" data-name="Контур 3750" d="M2377,3090.608l-.081-1.191.1-.164a.766.766,0,0,1,1.062,0l.1.165q.008.59.017,1.181Z" transform="translate(-2366.153 -3053.823)" fill="#4a5254"/>
      <path id="Контур_3751" data-name="Контур 3751" d="M2358.409,3098.142q-.035.579-.069,1.158l-3.091-.008q0-.593,0-1.186a1,1,0,0,1,.86-.413,5.933,5.933,0,0,1,1.156-.022,1.541,1.541,0,0,1,.912.181A.593.593,0,0,1,2358.409,3098.142Z" transform="translate(-2349.695 -3060.364)" fill="#94823a"/>
      <path id="Контур_3752" data-name="Контур 3752" d="M2357.453,2952.619l-16.342-.05q.014-.437.029-.873l1.177-.1,15.14.019c.667,0,1.052.27.933,1A.66.66,0,0,1,2357.453,2952.619Z" transform="translate(-2338.956 -2949.431)" fill="#dbe0da"/>
      <path id="Контур_3753" data-name="Контур 3753" d="M2411.621,2956.9c.506-.023,1.057.044,1.183-.667.09-.508.5-.537.9-.564q.009,2.891.019,5.782a2.683,2.683,0,0,0-.459,1.927c-.046,1.309-.652,1.64-1.869,1.043a1.763,1.763,0,0,1-.269-1.107c-.038-1.734-.008-3.467-.018-5.2C2411.108,2957.634,2411.077,2957.147,2411.621,2956.9Z" transform="translate(-2392.121 -2952.526)" fill="#a6a7a1"/>
      <path id="Контур_3754" data-name="Контур 3754" d="M2408.826,2982.588c.924.124,1.3-.288,1.237-1.2-.051-.735.024-1.441.921-1.673.006.553.044,1.108.01,1.659-.056.907.291,1.353,1.239,1.208l.711.083q-.006.554-.013,1.107c-.087.182-.208.388-.4.4-1.584.093-3.179.4-4.741-.172a1.1,1.1,0,0,1-.075-1.4A.767.767,0,0,1,2408.826,2982.588Z" transform="translate(-2389.378 -2970.787)" fill="#9b9a98"/>
      <path id="Контур_3755" data-name="Контур 3755" d="M2405.443,2957.037l-.041,6.473a.835.835,0,0,1-1.014.185c-.514-.341-.461-.89-.49-1.4-.049-.874-.029-1.75-.03-2.626a1.687,1.687,0,0,0-.779-1.621.816.816,0,0,1,.146-1.015c.866.077,1.33-.253,1.2-1.184l.936,0Q2405.409,2956.443,2405.443,2957.037Z" transform="translate(-2385.943 -2952.663)" fill="#ededf5"/>
      <path id="Контур_3756" data-name="Контур 3756" d="M2401.3,2995.252l5.053-.021,12.246.056q-.015.459-.03.918c-.567.439-.562,1.387-1.409,1.578a1.112,1.112,0,0,1-.736-.072c-.559-.289-.7-1.281-1.62-.967-4.783.126-9.564.057-14.344.039a2.125,2.125,0,0,1-1.356-.387.925.925,0,0,1-.135-1.131,1.2,1.2,0,0,1,1.069-.442A1.268,1.268,0,0,1,2401.3,2995.252Z" transform="translate(-2382.803 -2982.252)" fill="#bdc2c2"/>
      <path id="Контур_3757" data-name="Контур 3757" d="M2350.438,3091.855l-1.172-.021.008-.013a.781.781,0,0,1-.012-1.182l1.19-.028.044.007C2350.831,3091.047,2350.916,3091.464,2350.438,3091.855Z" transform="translate(-2344.947 -3055.018)" fill="#a69d59"/>
      <path id="Контур_3758" data-name="Контур 3758" d="M2347.056,3090.727q.006.591.012,1.182l-.975-.036q.012-.565.025-1.129Z" transform="translate(-2342.74 -3055.105)" fill="#6d6c4e"/>
      <path id="Контур_3759" data-name="Контур 3759" d="M2359.56,3058.82l-1.2-.026a.779.779,0,0,1-.081-1.06,1.65,1.65,0,0,1,1.293-.381,23.06,23.06,0,0,1,4.337.012,1.319,1.319,0,0,1,1.111.339,2.261,2.261,0,0,1,.058,2.3.92.92,0,0,1-1,.313,2.884,2.884,0,0,0-2.459-1.035,7.9,7.9,0,0,1-1.168-.038A1.078,1.078,0,0,1,2359.56,3058.82Z" transform="translate(-2351.865 -3029.684)" fill="#232f2e"/>
      <path id="Контур_3760" data-name="Контур 3760" d="M2341.135,3058.9l1.2-.079a.778.778,0,0,1,1.041-.035.737.737,0,0,1-.1,1.026c-.422,0-.845,0-1.268.011C2341.363,3059.843,2341.1,3059.511,2341.135,3058.9Z" transform="translate(-2338.973 -3030.706)" fill="#14332e"/>
      <path id="Контур_3761" data-name="Контур 3761" d="M2350.052,3058.948l.013-.9c.6-.8,1.309-.669,2.05-.226l.119.2q0,.465.007.929Z" transform="translate(-2345.747 -3029.842)" fill="#2b4b44"/>
      <path id="Контур_3762" data-name="Контур 3762" d="M2363.983,3063.757l.935.007a.862.862,0,0,1,.307,1.089.779.779,0,0,1-.273.3.8.8,0,0,1-.948-.173l-.075-.094Q2363.956,3064.324,2363.983,3063.757Z" transform="translate(-2356.288 -3034.622)" fill="#5e6c6d"/>
      <path id="Контур_3763" data-name="Контур 3763" d="M2364.241,3068.818l.916-.014a.566.566,0,0,1,0,.915l-.881.012Q2364.257,3069.275,2364.241,3068.818Z" transform="translate(-2356.524 -3038.455)" fill="#9cb5b9"/>
      <path id="Контур_3764" data-name="Контур 3764" d="M2367.969,3068.508q0-.457,0-.915l.06-.093a.979.979,0,0,1,1.349-.042,4.171,4.171,0,0,1,0,3.318.929.929,0,0,1-1.349-.088l-.088-.024Q2367.959,3069.586,2367.969,3068.508Z" transform="translate(-2359.341 -3037.243)" fill="#697372"/>
      <path id="Контур_3765" data-name="Контур 3765" d="M2358.7,3092.707h-1.18a1.3,1.3,0,0,1,.006-2.093l1.186-.062.19.125A1.447,1.447,0,0,1,2358.7,3092.707Z" transform="translate(-2351.022 -3054.971)" fill="#fed85c"/>
      <path id="Контур_3766" data-name="Контур 3766" d="M2356,3090.682l-.006,2.093-.941.008q-.034-.452-.068-.9.029-.619.058-1.237Z" transform="translate(-2349.496 -3055.04)" fill="#e3c653"/>
      <path id="Контур_3767" data-name="Контур 3767" d="M2364.149,3086.679l.889-.04.176.124a.727.727,0,0,1-.094.984.792.792,0,0,1-1-.1l0-.071Q2364.136,3087.13,2364.149,3086.679Z" transform="translate(-2356.432 -3052)" fill="#c39c58"/>
      <path id="Контур_3768" data-name="Контур 3768" d="M2368.029,3081.616l1.127-.02a.869.869,0,0,1,.177,1.293.889.889,0,0,1-1.311-.048l-.083-.032Q2367.984,3082.212,2368.029,3081.616Z" transform="translate(-2359.332 -3048.17)" fill="#686449"/>
      <path id="Контур_3769" data-name="Контур 3769" d="M2364.124,3011.971q.006-.559.012-1.119l5.255-.082c.42-.312.825-.633.741-1.248a1.321,1.321,0,0,1,.513-1.094,1,1,0,0,1,1.117.119,2.141,2.141,0,0,1,.379,1.586c.036,3.708.03,7.415.006,11.122a2.928,2.928,0,0,1-.308,1.506.88.88,0,0,1-1.044.36.861.861,0,0,1-.378-.235,2.987,2.987,0,0,1-.283-2.041c.014-.953-.077-1.86-1.077-2.354a4.558,4.558,0,0,1-.128-2.073,9.051,9.051,0,0,1,.054-1.278,1.075,1.075,0,0,1,.438-.936l-.027-.08c.385-.28.742-.577.715-1.119.019-.506-.432-.672-.7-.969Z" transform="translate(-2356.435 -2992.509)" fill="#a8a8a7"/>
      <path id="Контур_3770" data-name="Контур 3770" d="M2360.157,2960.778l.042.875a.736.736,0,0,1-.241.35c-.667.449-1.412.179-2.124.229-3.1.124-6.191.132-9.286,0a11.284,11.284,0,0,1-1.322-.061,1.123,1.123,0,0,1-.966-.416c-.081-1.069.687-.975,1.361-.976Q2353.89,2960.77,2360.157,2960.778Z" transform="translate(-2342.864 -2956.405)" fill="#bac7db"/>
      <path id="Контур_3771" data-name="Контур 3771" d="M2362.808,3008.17q-.031.6-.062,1.206a.816.816,0,0,1-1.21.053l-7.436-.075a.885.885,0,0,1-.091-1.289,2.052,2.052,0,0,1,1.455-.352c1.932.007,3.865-.007,5.8.007a2.65,2.65,0,0,1,1.26.155A.741.741,0,0,1,2362.808,3008.17Z" transform="translate(-2348.573 -2992.054)" fill="#7469af"/>
      <path id="Контур_3772" data-name="Контур 3772" d="M2346.26,2978.521q0-4.786,0-9.57a.785.785,0,0,1,1.066-.114,1.246,1.246,0,0,1,.338,1.077,56.624,56.624,0,0,1,.005,7.442,2.454,2.454,0,0,1-.174,1.073.81.81,0,0,1-.283.319A.77.77,0,0,1,2346.26,2978.521Z" transform="translate(-2342.867 -2962.408)" fill="#4b618c"/>
      <path id="Контур_3773" data-name="Контур 3773" d="M2350.485,3008.645q-.01.557-.02,1.114l-1.183.008a.718.718,0,0,1-.056-1.114l.062-.094a.756.756,0,0,1,.99-.207A.521.521,0,0,1,2350.485,3008.645Z" transform="translate(-2344.938 -2992.459)" fill="#65678d"/>
      <path id="Контур_3774" data-name="Контур 3774" d="M2386.031,3014.686l1.21-.053c.136,1.015-.53.992-1.218.939Q2386.027,3015.129,2386.031,3014.686Z" transform="translate(-2373.068 -2997.311)" fill="#d1d4dd"/>
      <path id="Контур_3775" data-name="Контур 3775" d="M2347.037,3009.685q.028.557.056,1.114c-1.11.233-1.022-.488-.951-1.2Z" transform="translate(-2342.749 -2993.491)" fill="#9697ab"/>
      <path id="Контур_3776" data-name="Контур 3776" d="M2347.163,2966.024l-.884.013q0-.6,0-1.194l.969.008C2347.577,2965.269,2347.632,2965.666,2347.163,2966.024Z" transform="translate(-2342.882 -2959.496)" fill="#69707f"/>
      <path id="Контур_3777" data-name="Контур 3777" d="M2358.811,3044.291l-1.2.073.018-.078a1.114,1.114,0,0,1-.479-1.145,18.145,18.145,0,0,1,.031-2.149,1.1,1.1,0,0,1,.421-.953l2.168-.056a1.79,1.79,0,0,1,2.292-.167,3.86,3.86,0,0,1,.212,3.2c-.285.7-.925.632-1.5.678C2360.075,3043.75,2359.344,3043.688,2358.811,3044.291Z" transform="translate(-2351.129 -3016.183)" fill="#c1c9c2"/>
      <path id="Контур_3778" data-name="Контур 3778" d="M2347.458,3044.864q.022.585.044,1.17l-2.187.1-.958-.089q-.01-.589-.02-1.178a2.37,2.37,0,0,1,.063-3.085l3.074,0q0,.483-.006.965a1.036,1.036,0,0,1-.753.415c-.388.008-.707.1-.733.576-.028.52.259.7.73.7A.993.993,0,0,1,2347.458,3044.864Z" transform="translate(-2340.998 -3017.931)" fill="#94bb9c"/>
      <path id="Контур_3779" data-name="Контур 3779" d="M2370.285,3036.305l-2.183-.073q0-.579,0-1.158l.014-.026a4.671,4.671,0,0,1,4.284.028l.023,1.164A1.373,1.373,0,0,1,2370.285,3036.305Z" transform="translate(-2359.457 -3012.432)" fill="#ebeae7"/>
      <path id="Контур_3780" data-name="Контур 3780" d="M2342.333,3041.688q-.031,1.543-.063,3.085l-1.174.012c0-.635.042-1.274-.01-1.906C2341.008,3041.931,2341.4,3041.542,2342.333,3041.688Z" transform="translate(-2338.93 -3017.837)" fill="#dbefd3"/>
      <path id="Контур_3781" data-name="Контур 3781" d="M2372.413,3033.764l-4.284-.029q-.006-.453-.012-.907l4.336-.014Q2372.433,3033.289,2372.413,3033.764Z" transform="translate(-2359.468 -3011.12)" fill="#d5d6d2"/>
      <path id="Контур_3782" data-name="Контур 3782" d="M2387.221,3026.82c.206,1-.205,1.375-1.188,1.164q.016-.568.033-1.135l0-.008A.758.758,0,0,1,2387.221,3026.82Z" transform="translate(-2373.076 -3006.37)" fill="#5b5c5e"/>
      <path id="Контур_3783" data-name="Контур 3783" d="M2387.266,3024.57l-1.158.021q-.008-.472-.016-.945C2386.794,3023.561,2387.5,3023.464,2387.266,3024.57Z" transform="translate(-2373.121 -3004.12)" fill="#393d3c"/>
      <path id="Контур_3784" data-name="Контур 3784" d="M2436.5,3093.962a2.092,2.092,0,0,0-.627-1.935c-.3-.254-.636-.587-.443-1.011.25-.548.819-.345,1.267-.369s.9,0,.989.587a5.253,5.253,0,0,1,.026.589c.281.522,1.076.415,1.275,1.04a.92.92,0,0,1-.3,1.092Z" transform="translate(-2410.55 -3055.031)" fill="#c1c2be"/>
      <path id="Контур_3785" data-name="Контур 3785" d="M2456.1,3099.174l-3.088-.01a.882.882,0,0,1-.224-1.2.855.855,0,0,1,.355-.277,4.336,4.336,0,0,1,3.131.189A.929.929,0,0,1,2456.1,3099.174Z" transform="translate(-2423.667 -3060.241)" fill="#f6f4ef"/>
      <path id="Контур_3786" data-name="Контур 3786" d="M2466.953,3099.37q-.007-.564-.014-1.128c.251-.542.731-.51,1.209-.482a1.46,1.46,0,0,1,1.1.337.86.86,0,0,1-.128,1.267Z" transform="translate(-2434.525 -3060.437)" fill="#c4bebc"/>
      <path id="Контур_3787" data-name="Контур 3787" d="M2450.357,3098.737q-.005.558-.011,1.116h-1.207q0-.57,0-1.141A.726.726,0,0,1,2450.357,3098.737Z" transform="translate(-2421.006 -3060.93)" fill="#d5d5cd"/>
      <path id="Контур_3788" data-name="Контур 3788" d="M2475.922,3099.8l-.025-1.142.119-.169a.759.759,0,0,1,1.1.168q-.011.581-.022,1.161Z" transform="translate(-2441.328 -3060.878)" fill="#a7a5a6"/>
      <path id="Контур_3789" data-name="Контур 3789" d="M2413.1,3081.3q0-.571,0-1.142c.4-.745,1.117-.443,1.721-.514q3.931-.006,7.863,0c.468,0,.966-.088,1.353.3a1.11,1.11,0,0,1,.045,1.384.78.78,0,0,1-1.113,0l-8.668.005C2413.891,3081.681,2413.488,3081.758,2413.1,3081.3Z" transform="translate(-2393.635 -3046.686)" fill="#edf1e7"/>
      <path id="Контур_3790" data-name="Контур 3790" d="M2454.059,3084.991l.959-.048c.584-.667,1.359-.466,2.091-.458a4.173,4.173,0,0,1,2.2.228.842.842,0,0,1,.311.329c.319,1.053.565,2.1-.267,3.052l-.065.028-.924-.027a1.061,1.061,0,0,1-.426-.738c.039-.708-.3-1.015-1-.934a5.546,5.546,0,0,1-1.821-.02,1.311,1.311,0,0,1-.905-.222.529.529,0,0,1-.182-.328Z" transform="translate(-2424.722 -3050.337)" fill="#b2b2ad"/>
      <path id="Контур_3791" data-name="Контур 3791" d="M2406.333,3086.555l1.2.041q0,.484-.006.967a1.2,1.2,0,0,1-1.137.445c-.354.011-.708.011-1.062,0a1.189,1.189,0,0,1-1.139-.447q0-.475,0-.95Z" transform="translate(-2386.865 -3051.937)" fill="#bbe5c7"/>
      <path id="Контур_3792" data-name="Контур 3792" d="M2447.273,3095.632l-1.215-.025c-.681.02-1.027-.289-.974-.99l.958.013a.865.865,0,0,1,1.246-.1.725.725,0,0,1-.046,1.04Z" transform="translate(-2417.921 -3057.825)" fill="#b1b1a9"/>
      <path id="Контур_3793" data-name="Контур 3793" d="M2412.231,3090.766l1.2-.018q-.009.6-.019,1.192a.785.785,0,0,1-1.182,0l.007-.006A.767.767,0,0,1,2412.231,3090.766Z" transform="translate(-2392.774 -3055.121)" fill="#78aa81"/>
      <path id="Контур_3794" data-name="Контур 3794" d="M2450.145,3091.642l-1.18-.072c-.179-.961.3-1.314,1.19-1.29a.249.249,0,0,1,.03.126.761.761,0,0,1,.247,1A.567.567,0,0,1,2450.145,3091.642Z" transform="translate(-2420.845 -3054.766)" fill="#898f85"/>
      <path id="Контур_3795" data-name="Контур 3795" d="M2413.076,3095.69l1.182,0q0,.461,0,.922l-1.182.016Z" transform="translate(-2393.615 -3058.875)" fill="#5e8b5e"/>
      <path id="Контур_3796" data-name="Контур 3796" d="M2400.381,3076.536l-1.693.071-4.306.013-.016-.107a.73.73,0,0,1-.014-1.074,10.078,10.078,0,0,1,6.083-.016A.8.8,0,0,1,2400.381,3076.536Z" transform="translate(-2379.221 -3043.131)" fill="#8e908e"/>
      <path id="Контур_3797" data-name="Контур 3797" d="M2382.911,3081.277l-1.2.043a.8.8,0,0,1-.962.177.811.811,0,0,1-.281-.323,1.054,1.054,0,0,1,.15-1.24,2.191,2.191,0,0,1,2.088-.148.71.71,0,0,1,.278.323Q2382.95,3080.693,2382.911,3081.277Z" transform="translate(-2368.751 -3046.647)" fill="#427c75"/>
      <path id="Контур_3798" data-name="Контур 3798" d="M2391.07,3076.652q-.005.435-.01.87l-.91.079a.645.645,0,0,1-.116-.034.817.817,0,0,1-.209-.877.747.747,0,0,1,.249-.293.76.76,0,0,1,.9.085Z" transform="translate(-2375.914 -3044.14)" fill="#5f8581"/>
      <path id="Контур_3799" data-name="Контур 3799" d="M2404.189,3090.744l1.216.01a.792.792,0,0,1-.018,1.181l-.014-.012a.774.774,0,0,1-1.174.015Q2404.194,3091.342,2404.189,3090.744Z" transform="translate(-2386.865 -3055.118)" fill="#91c59e"/>
      <path id="Контур_3800" data-name="Контур 3800" d="M2404.228,3095.661l1.174-.015q0,.48.005.959l-1.174-.017Q2404.231,3096.125,2404.228,3095.661Z" transform="translate(-2386.895 -3058.842)" fill="#78a678"/>
      <path id="Контур_3801" data-name="Контур 3801" d="M2409.17,3091.966l.018-1.182.918.009q.005.582.011,1.164Z" transform="translate(-2390.648 -3055.149)" fill="#5d9a68"/>
      <path id="Контур_3802" data-name="Контур 3802" d="M2487.3,3080.808q-.044.584-.088,1.168l-2.115.075c-.008-.567.013-1.036.709-1.31.827-.326.431-1.167.477-1.788.049-.658-.024-1.327.947-1.255Q2487.26,3079.252,2487.3,3080.808Z" transform="translate(-2448.312 -3045.205)" fill="#6a6a6c"/>
      <path id="Контур_3803" data-name="Контур 3803" d="M2476.169,3088.892l.028-3.055c.343-.473.725-.4,1.124-.079q0,1.579,0,3.159Z" transform="translate(-2441.535 -3051.135)" fill="#8f8986"/>
      <path id="Контур_3804" data-name="Контур 3804" d="M2473.073,3078.995l-1.124.079-.069-.082c-.345-.5-1.069-.63-1.266-1.281a.919.919,0,0,1,.252-.961.747.747,0,0,1,1,.083l1.211.018Q2473.078,3077.923,2473.073,3078.995Z" transform="translate(-2437.287 -3044.371)" fill="#b0b7af"/>
      <path id="Контур_3805" data-name="Контур 3805" d="M2475.834,3063.552c.107.987-.559.958-1.224.933l-.168-.089a1.039,1.039,0,0,1-.266-.887,1.888,1.888,0,0,1,.153-1.149.785.785,0,0,1,.281-.294,1.161,1.161,0,0,1,1.207.012.8.8,0,0,1,.282.314A.957.957,0,0,1,2475.834,3063.552Z" transform="translate(-2440.001 -3033.213)" fill="#252b23"/>
      <path id="Контур_3806" data-name="Контур 3806" d="M2471.8,3073.016l-.934.075-.183-.138a.9.9,0,0,1,.1-1.245.81.81,0,0,1,1.044.118h-.007Q2471.81,3072.422,2471.8,3073.016Z" transform="translate(-2437.213 -3040.555)" fill="#30322d"/>
      <path id="Контур_3807" data-name="Контур 3807" d="M2481.1,3064.172l-.018-1.228a.6.6,0,0,1,.914-.026l.1.057C2482.067,3063.632,2482.033,3064.276,2481.1,3064.172Z" transform="translate(-2445.263 -3033.833)" fill="#4e5148"/>
      <path id="Контур_3808" data-name="Контур 3808" d="M2470.882,3001.774c.245-.654.38-1.43,1.383-1.239q.048,6.509.095,13.016-.018.6-.036,1.2l-.06.147c-.335.338-.89.365-1.148.811l-.006-.007a.8.8,0,0,1-1.057.09c-.795-1.324-.488-2.729-.3-4.122a1.925,1.925,0,0,1,.149-.37,3.163,3.163,0,0,0-.054-4.26,1.069,1.069,0,0,1-.006-.969,1.945,1.945,0,0,0,.814-1.834A4.152,4.152,0,0,1,2470.882,3001.774Z" transform="translate(-2436.495 -2986.581)" fill="#a4a09d"/>
      <path id="Контур_3809" data-name="Контур 3809" d="M2481.372,3060.585l-.914.026.01.01a.69.69,0,0,1-.014-.97l.018.014.958-.018Q2481.4,3060.115,2481.372,3060.585Z" transform="translate(-2444.644 -3031.499)" fill="#191a12"/>
      <path id="Контур_3810" data-name="Контур 3810" d="M2381.508,3086.788l.914-.005c.083.7-.248.987-.928.92l-.028.02A.617.617,0,0,1,2381.508,3086.788Z" transform="translate(-2369.459 -3052.11)" fill="#96b4b4"/>
      <path id="Контур_3811" data-name="Контур 3811" d="M2372.2,3069.21q0-.6,0-1.208.006-1.547.012-3.093a.821.821,0,0,1,0-1.207c.867.119,2.1-.445,2.175,1.156l-.058.176a1.623,1.623,0,0,0-.547,1.468,20.7,20.7,0,0,1-.14,2.806,1.1,1.1,0,0,1-.395.867l-.1,0-.86,0C2371.91,3069.877,2371.968,3069.551,2372.2,3069.21Z" transform="translate(-2362.374 -3034.576)" fill="#132727"/>
      <path id="Контур_3812" data-name="Контур 3812" d="M2367.707,3086.62q.04.479.079.958-.039,1.085-.079,2.17l-1.112.015-.11-.025a1.455,1.455,0,0,1,.014-2.134q.035-.475.07-.949Z" transform="translate(-2357.881 -3051.986)" fill="#70461b"/>
      <path id="Контур_3813" data-name="Контур 3813" d="M2377.3,3086.7l-.013-.957a.747.747,0,0,1,1.125-.061l.069.1q-.021.468-.042.935Z" transform="translate(-2366.433 -3051.103)" fill="#5f6e71"/>
      <path id="Контур_3814" data-name="Контур 3814" d="M2365.027,3090.717q-.007,1.067-.014,2.134l-.925-.017.007-2.086Z" transform="translate(-2356.408 -3055.098)" fill="#f2bb69"/>
      <path id="Контур_3815" data-name="Контур 3815" d="M2408.449,2987.69l.925,0q-.005.478-.01.955h-.935A.609.609,0,0,1,2408.449,2987.69Z" transform="translate(-2389.916 -2976.848)" fill="#d5d0d7"/>
      <path id="Контур_3816" data-name="Контур 3816" d="M2403.824,2970.016q-.01.48-.02.959-.007.6-.013,1.2l-1.219-.018a1.2,1.2,0,0,1-.44-1.156c-.011-.361-.011-.722-.01-1.083,0-1.393-.015-2.785.007-4.177a1.219,1.219,0,0,1,.455-1.2.249.249,0,0,1,.043-.116c.994-.034,1.255.44,1.191,1.406C2403.725,2967.217,2403.813,2968.619,2403.824,2970.016Z" transform="translate(-2385.291 -2959.173)" fill="#a29ccc"/>
      <path id="Контур_3817" data-name="Контур 3817" d="M2394.1,3016.913q-.04-7.064-.079-14.128a.9.9,0,0,1-.24-.864c.3-.58,1.083-.665,1.345-1.29l.158-.064,16.086.069a1.648,1.648,0,0,1,.209,2.246,1.743,1.743,0,0,1-1.137.354c-4.193.2-8.388.136-12.58.045a1.9,1.9,0,0,0-1.449.383.989.989,0,0,0-.659,1.124,22.8,22.8,0,0,1-.009,2.619,1.729,1.729,0,0,0,.881,1.88,12.507,12.507,0,0,1,.1,3.95,1.082,1.082,0,0,1-.494.71c-.393.293-.024.416.151.579a.931.931,0,0,1,.2.271c.17.475.571.458.968.471a1.163,1.163,0,0,1,1.167.621,1.2,1.2,0,0,1-.191,1.245c-1.026.581-2.138.172-3.206.281C2394.844,3017.414,2394.349,3017.458,2394.1,3016.913Z" transform="translate(-2378.931 -2986.628)" fill="#f6f9fb"/>
      <path id="Контур_3818" data-name="Контур 3818" d="M2465.565,3002.849q-.008-1.063-.015-2.127c.968-.191,1.292.292,1.232,1.176a4.643,4.643,0,0,1,.027,4.328v.943a4.755,4.755,0,0,1,0,4.352l-.044-.019a.977.977,0,0,1-1.332.147c-.419-.366-.339-.865-.341-1.335q-.009-2.568,0-5.135c0-.377,0-.756.01-1.135A1.257,1.257,0,0,1,2465.565,3002.849Z" transform="translate(-2433.115 -2986.714)" fill="#e1e6e8"/>
      <path id="Контур_3819" data-name="Контур 3819" d="M2472.178,3010.07q-.013-2.164-.027-4.328l.719.009a9.857,9.857,0,0,1,.2,3.385C2473.079,3009.712,2472.673,3009.946,2472.178,3010.07Z" transform="translate(-2438.483 -2990.558)" fill="#adadab"/>
      <path id="Контур_3820" data-name="Контур 3820" d="M2395.243,2995.541q-.015.439-.03.878l0,.053a.928.928,0,0,1-1.137.262.793.793,0,0,1-.311-.285.96.96,0,0,1,.068-1.02.929.929,0,0,1,1.155-.208A.608.608,0,0,1,2395.243,2995.541Z" transform="translate(-2378.864 -2982.479)" fill="#8d93cd"/>
      <path id="Контур_3821" data-name="Контур 3821" d="M2400.009,2990.886q0,.6,0,1.2l-.9.079-.058-.095a.824.824,0,0,1-.072-1.222A.75.75,0,0,1,2400.009,2990.886Z" transform="translate(-2382.722 -2979.101)" fill="#8480b9"/>
      <path id="Контур_3822" data-name="Контур 3822" d="M2364.038,3054.755c-.109-.867.29-1.2,1.14-1.16.659.034,1.323-.009,1.984-.019a.948.948,0,0,1,1.307-.1.862.862,0,0,1-.1,1.283Z" transform="translate(-2356.357 -3026.648)" fill="#a4a7a1"/>
      <path id="Контур_3823" data-name="Контур 3823" d="M2380.443,3067.7l.942-.023a.848.848,0,0,1,1.216.042l.044-.007a1.217,1.217,0,0,1,.4,1,1.163,1.163,0,0,1-.422,1.2l0,0a1.812,1.812,0,0,1-2.322.147,1.7,1.7,0,0,1,.155-2.314Z" transform="translate(-2368.436 -3037.421)" fill="#298680"/>
      <path id="Контур_3824" data-name="Контур 3824" d="M2382.084,3052.854l.013-1.158a1.135,1.135,0,0,1,.976-.944c1.855-.065.961,1.349,1.168,2.17a.808.808,0,0,1-1.193,0Z" transform="translate(-2370.076 -3024.743)" fill="#888d8d"/>
      <path id="Контур_3825" data-name="Контур 3825" d="M2386.02,3059.784h1.193v2.121l-1.216-.042Q2386.009,3060.823,2386.02,3059.784Z" transform="translate(-2373.048 -3031.603)" fill="#385859"/>
      <path id="Контур_3826" data-name="Контур 3826" d="M2369.242,3063.714q0,.6,0,1.208l-1.144-.076q-.031-.557-.062-1.114Z" transform="translate(-2359.409 -3034.589)" fill="#474b4c"/>
      <path id="Контур_3827" data-name="Контур 3827" d="M2379.275,3043.806c.034.686-.313.978-.976.944l-1.215-.025q.011-1.529.023-3.056l2.139-.064Q2379.261,3042.706,2379.275,3043.806Z" transform="translate(-2366.279 -3017.797)" fill="#b8bab8"/>
      <path id="Контур_3828" data-name="Контур 3828" d="M2390.665,3001.069q-.045.484-.09.969l-.851-.041-.088.012a1.2,1.2,0,0,1-.4-.99,1.389,1.389,0,0,1,.324-1.258.779.779,0,0,1,1.046.051l.05.105A.765.765,0,0,1,2390.665,3001.069Z" transform="translate(-2375.489 -2985.881)" fill="#a6a8df"/>
      <path id="Контур_3829" data-name="Контур 3829" d="M2391.226,3069.539q0-.5,0-.993l.957-.007,1.181.07a.783.783,0,0,1,.125,1.046c-.346.423-.81.363-1.272.306A1.158,1.158,0,0,1,2391.226,3069.539Z" transform="translate(-2377.02 -3038.253)" fill="#5f7c75"/>
      <path id="Контур_3830" data-name="Контур 3830" d="M2354.1,2964.927l9.613,0a.928.928,0,0,1,.127,1.319c-1.115.651-2.334.18-3.5.321q-2.427,0-4.854,0a2.15,2.15,0,0,1-1.469-.323A.891.891,0,0,1,2354.1,2964.927Z" transform="translate(-2348.57 -2959.556)" fill="#1b336b"/>
      <path id="Контур_3831" data-name="Контур 3831" d="M2351.2,2964.892q.009.589.018,1.178a.741.741,0,0,1,.039,1.038.835.835,0,0,1-1.233-.1q-.036-.478-.072-.957.043-.586.085-1.172Z" transform="translate(-2345.672 -2959.521)" fill="#0c214d"/>
      <path id="Контур_3832" data-name="Контур 3832" d="M2395.125,2966.052q0-.57-.009-1.139l2.15,0q-.012.6-.023,1.195a1.142,1.142,0,0,1-.978.39C2395.807,2966.552,2395.367,2966.557,2395.125,2966.052Z" transform="translate(-2379.975 -2959.546)" fill="#1f2653"/>
      <path id="Контур_3833" data-name="Контур 3833" d="M2361.707,3004.688l-7.406.07-.008-.091a.751.751,0,0,1-.167-.987.859.859,0,0,1,.349-.262,21.641,21.641,0,0,1,7.049,0,.946.946,0,0,1,.359.261A.774.774,0,0,1,2361.707,3004.688Z" transform="translate(-2348.754 -2988.572)" fill="#13087d"/>
      <path id="Контур_3834" data-name="Контур 3834" d="M2386.01,3005.751l.036-.927a.712.712,0,0,1,1.155,0q0,.472,0,.944Z" transform="translate(-2373.058 -2989.635)" fill="#342d7a"/>
      <path id="Контур_3835" data-name="Контур 3835" d="M2350.254,2973.728h1.124l.2.094c.691,1.014.172,2.152.329,3.22-.024.711.086,1.423.006,2.135,0,.352,0,.7-.014,1.057a1.2,1.2,0,0,1-.415,1.146l-.086.062a.742.742,0,0,1-1.143-.027Q2350.256,2977.571,2350.254,2973.728Z" transform="translate(-2345.901 -2966.243)" fill="#032571"/>
      <path id="Контур_3836" data-name="Контур 3836" d="M2350.245,3005.688l1.143.027q.019.449.039.9l-1.189,0Q2350.242,3006.152,2350.245,3005.688Z" transform="translate(-2345.889 -2990.518)" fill="#000245"/>
      <path id="Контур_3837" data-name="Контур 3837" d="M2354.434,3047.928l-.956-.012a1.342,1.342,0,0,1,.021-2.1l.946,0Q2354.439,3046.872,2354.434,3047.928Z" transform="translate(-2347.974 -3020.995)" fill="#61826b"/>
      <path id="Контур_3838" data-name="Контур 3838" d="M2351.23,3045.672q-.01,1.049-.021,2.1c-.8.149-1.209-.04-1.212-1S2350.326,3045.49,2351.23,3045.672Z" transform="translate(-2345.706 -3020.849)" fill="#42774c"/>
      <path id="Контур_3839" data-name="Контур 3839" d="M2454.011,3094.9q-.01-.433-.019-.866l.047-.1a1.16,1.16,0,0,1,.961-.409,7.747,7.747,0,0,1,2.154-.033,1.257,1.257,0,0,1,1.176.454q0,.487.006.974l-1.23.048Z" transform="translate(-2424.691 -3057.154)" fill="#a19a97"/>
      <path id="Контур_3840" data-name="Контур 3840" d="M2432.6,3075.858l-.02.876c-.243.532-.724.505-1.193.507-.749.015-1.543.242-2.146-.445l-9.132-.069q-.005-.441-.01-.882c.231-.547.735-.571,1.205-.582,3.335-.076,6.67-.058,10.006-.014a1.736,1.736,0,0,1,1.294.5Z" transform="translate(-2398.95 -3043.321)" fill="#86877d"/>
      <path id="Контур_3841" data-name="Контур 3841" d="M2458.112,3081.8l2.149.011a.715.715,0,0,1,0,1.12h-2.141Q2458.114,3082.366,2458.112,3081.8Z" transform="translate(-2427.821 -3048.325)" fill="#fafdf5"/>
      <path id="Контур_3842" data-name="Контур 3842" d="M2467.029,3082.724q0-.56,0-1.12l1.19-.073c.891-.052,1.091.447.963,1.208Z" transform="translate(-2434.593 -3048.118)" fill="#e5ebe2"/>
      <path id="Контур_3843" data-name="Контур 3843" d="M2459.405,3091.93l-2.124-.006a.726.726,0,0,1,0-1.131l2.127,0A.719.719,0,0,1,2459.405,3091.93Z" transform="translate(-2426.983 -3055.155)" fill="#0a0a06"/>
      <path id="Контур_3844" data-name="Контур 3844" d="M2466.971,3091.765q0-.567,0-1.134c.948-.2,1.412.122,1.216,1.143Z" transform="translate(-2434.549 -3054.991)" fill="#5b5853"/>
      <path id="Контур_3845" data-name="Контур 3845" d="M2455.112,3090.792q0,.565,0,1.131l-.951,0q0-.565-.008-1.131Z" transform="translate(-2424.816 -3055.155)" fill="#2a2d26"/>
      <path id="Контур_3846" data-name="Контур 3846" d="M2412.846,3072.292q-5.658.026-11.317.054c-.4,0-.792.026-1.189.04l-5.995-.012.012-.076a.707.707,0,0,1,0-1.121l1.165-.077a1.667,1.667,0,0,1,1.414-.443c2.335.007,4.671,0,7.006,0,2.506,0,5.011,0,7.517,0,.506,0,1.063-.1,1.355.5Q2412.832,3071.728,2412.846,3072.292Z" transform="translate(-2379.19 -3039.862)" fill="#0a0c07"/>
      <path id="Контур_3847" data-name="Контур 3847" d="M2378.257,3068.6q.011,1.073.021,2.146a.72.72,0,0,1,0,.985q-.033.565-.065,1.131l-1.125.06c-.014-1.035.018-2.074-.054-3.105C2376.968,3068.873,2377.3,3068.451,2378.257,3068.6Z" transform="translate(-2366.235 -3038.275)" fill="#1e4f50"/>
      <path id="Контур_3848" data-name="Контур 3848" d="M2382.233,3078.59q0-.492,0-.985l2.145.021q-.034.47-.069.941Z" transform="translate(-2370.188 -3045.139)" fill="#24736b"/>
      <path id="Контур_3849" data-name="Контур 3849" d="M2392.124,3072.727q0,.561,0,1.121l-.983.054q.01-.6.021-1.2Z" transform="translate(-2376.953 -3041.412)" fill="#0e4138"/>
      <path id="Контур_3850" data-name="Контур 3850" d="M2443.119,3067.815l-8.881-.061a.791.791,0,0,1-.1-1.071c.356-.413.844-.323,1.3-.341a24.6,24.6,0,0,1,4.23-.007c.433,0,.867-.009,1.3,0a7.96,7.96,0,0,1,2.14.048,1.137,1.137,0,0,1,.958.412q.016.493.033.985Z" transform="translate(-2409.49 -3036.512)" fill="#4c4c47"/>
      <path id="Контур_3851" data-name="Контур 3851" d="M2477.261,3059.645q.007.485.014.971l-1.205,0C2475.958,3059.671,2476.575,3059.615,2477.261,3059.645Z" transform="translate(-2441.45 -3031.494)" fill="#75776a"/>
      <path id="Контур_3852" data-name="Контур 3852" d="M2472.018,3064.848l-.956.006a.733.733,0,0,1-.114-1.059l.169-.1.932-.015Q2472.033,3064.262,2472.018,3064.848Z" transform="translate(-2437.435 -3034.561)" fill="#7f8175"/>
      <path id="Контур_3853" data-name="Контур 3853" d="M2457.682,3051.165h-1.2c-.74-.635-.524-1.383-.252-2.137a1.125,1.125,0,0,1,1.109-.483c.767.062.9-.4.833-1.022.1-.63-.3-1.388.479-1.839l1.193-.006q.018,2.172.037,4.344l-.037-.021C2459.341,3050.8,2458.2,3050.4,2457.682,3051.165Z" transform="translate(-2426.198 -3020.891)" fill="#d8d7ca"/>
      <path id="Контур_3854" data-name="Контур 3854" d="M2472.243,3032.014q0-2.176,0-4.352a.37.37,0,0,1,.116.011c1.634.709.494,2.122.781,3.175C2473.315,3031.476,2473.074,3032.036,2472.243,3032.014Z" transform="translate(-2438.553 -3007.207)" fill="#adaeaf"/>
      <path id="Контур_3855" data-name="Контур 3855" d="M2398.2,2969.9l.977-.018q0,2.139,0,4.278a.791.791,0,0,1-1.071.121c-.725-1.062-.363-2.224-.3-3.358A1.233,1.233,0,0,1,2398.2,2969.9Z" transform="translate(-2381.903 -2963.319)" fill="#10086f"/>
      <path id="Контур_3856" data-name="Контур 3856" d="M2399.343,2987.681l.908-.014q.008.474.016.948l-.919.062-.156-.123A.61.61,0,0,1,2399.343,2987.681Z" transform="translate(-2382.98 -2976.83)" fill="#3f358a"/>
      <path id="Контур_3857" data-name="Контур 3857" d="M2408.1,3009.857l12.932-.012a.891.891,0,0,1,.27,1.174.821.821,0,0,1-.324.294,6.118,6.118,0,0,1-2.206.181c-3.221-.012-6.441.033-9.661-.022a1.573,1.573,0,0,1-1.112-.328A.868.868,0,0,1,2408.1,3009.857Z" transform="translate(-2389.579 -2993.675)" fill="#627d8b"/>
      <path id="Контур_3858" data-name="Контур 3858" d="M2402.358,3029.9q0-2.154,0-4.309a3.2,3.2,0,0,1-.1-3.276,1.245,1.245,0,0,1,1.432-.044c.436.341.389.83.39,1.3q.006,2.661,0,5.322c-.063.781.2,1.612-.347,2.322a.909.909,0,0,1-1.313-.123l-.015.013A.82.82,0,0,1,2402.358,3029.9Z" transform="translate(-2385.095 -3002.953)" fill="#405d6c"/>
      <path id="Контур_3859" data-name="Контур 3859" d="M2408.509,3066.757q-.008.441-.015.883l-8.412,0q0-.441.01-.882l3.121-.078C2404.422,3065.868,2407.586,3065.916,2408.509,3066.757Z" transform="translate(-2383.745 -3036.399)" fill="#5c5e59"/>
      <path id="Контур_3860" data-name="Контур 3860" d="M2418.4,3063.4l-5.3-.08q.006-.567.012-1.135l.119-.2a1.168,1.168,0,0,1,.871-.3c1.581,0,3.161-.008,4.742,0a1.125,1.125,0,0,1,.866.309.929.929,0,0,1-.122,1.329Z" transform="translate(-2393.636 -3033.039)" fill="#f0f4f0"/>
      <path id="Контур_3861" data-name="Контур 3861" d="M2401.1,3014.574l-.083,3.135c-.667.025-.927-.317-.919-.959.015-1.28.031-2.56-.007-3.839a1.192,1.192,0,0,1,.93-1.222.834.834,0,0,1,.437.748C2401.575,3013.19,2401.77,3013.955,2401.1,3014.574Z" transform="translate(-2383.749 -2995.075)" fill="#e2e9f2"/>
      <path id="Контур_3862" data-name="Контур 3862" d="M2404.148,3058.688l1.2-.025a.784.784,0,0,1,.9-.19.712.712,0,0,1,.273.281.743.743,0,0,1-.248.885l.028.059c-.423-.01-.849-.047-1.271-.024C2404.3,3059.714,2404.056,3059.361,2404.148,3058.688Z" transform="translate(-2386.82 -3030.554)" fill="#bbc4c5"/>
      <path id="Контур_3863" data-name="Контур 3863" d="M2395.247,3001.985q0-.576,0-1.151l1.181-.044C2396.521,3001.67,2396.131,3002.071,2395.247,3001.985Z" transform="translate(-2380.072 -2986.797)" fill="#dfe8fe"/>
      <path id="Контур_3864" data-name="Контур 3864" d="M2404.027,3010.875l-.071-.751c.193-.8.807-.377,1.256-.431q-.01.574-.02,1.148l-.111.164A.734.734,0,0,1,2404.027,3010.875Z" transform="translate(-2386.688 -2993.511)" fill="#89949a"/>
      <path id="Контур_3865" data-name="Контур 3865" d="M2401.209,3054.637l.051,1.206c-.441-.016-.934.013-.913-.634C2400.364,3054.646,2400.806,3054.655,2401.209,3054.637Z" transform="translate(-2383.946 -3027.695)" fill="#d5dce6"/>
      <path id="Контур_3866" data-name="Контур 3866" d="M2463.051,3010.893l-.1-1.158,1-.035q-.014.614-.029,1.227A.565.565,0,0,1,2463.051,3010.893Z" transform="translate(-2431.496 -2993.564)" fill="#bcc3c9"/>
      <path id="Контур_3867" data-name="Контур 3867" d="M2462.131,3024.31q-.007,1.071-.013,2.143a.8.8,0,0,1-1,.185.837.837,0,0,1-.273-.346,6.112,6.112,0,0,1-.24-2.691c.058-1.846-.243-3.708.216-5.539a1.086,1.086,0,0,1,.246-.375.761.761,0,0,1,1.026.1Q2462.11,3021.05,2462.131,3024.31Z" transform="translate(-2429.678 -2999.515)" fill="#b5cacb"/>
      <path id="Контур_3868" data-name="Контур 3868" d="M2463.281,3015.61l-.9.039a.637.637,0,0,1-.073-.959l.115-.027.867.034Q2463.286,3015.153,2463.281,3015.61Z" transform="translate(-2430.869 -2997.334)" fill="#98a5ae"/>
      <path id="Контур_3869" data-name="Контур 3869" d="M2395.177,2990.654q-.023.56-.045,1.12l-1.141.079-.19-.126a.9.9,0,0,1,.077-1.249.923.923,0,0,1,1.256.083Z" transform="translate(-2378.81 -2978.806)" fill="#4e47ae"/>
      <path id="Контур_3870" data-name="Контур 3870" d="M2391.163,2996.773l-.9.07-.174-.125a.749.749,0,0,1,.072-.984.722.722,0,0,1,.978.084l.084.069Q2391.192,2996.331,2391.163,2996.773Z" transform="translate(-2376.04 -2982.842)" fill="#444aa9"/>
      <path id="Контур_3871" data-name="Контур 3871" d="M2386.3,3000.922l-1.155,0-.015-.061a.782.782,0,0,1-.085-1.161.8.8,0,0,1,1.25-.022l.084.057Q2386.342,3000.33,2386.3,3000.922Z" transform="translate(-2372.16 -2985.737)" fill="#3f43b0"/>
      <path id="Контур_3872" data-name="Контур 3872" d="M2354.929,2970.77q.035-.469.07-.937l6.227.025a.767.767,0,0,1,.125,1.038,1.143,1.143,0,0,1-1.031.346,9.661,9.661,0,0,1-2.161.02c-.36,0-.72,0-1.08,0-.711-.008-1.489.265-2.028-.476A1.037,1.037,0,0,1,2354.929,2970.77Z" transform="translate(-2349.451 -2963.285)" fill="#0f3e9e"/>
      <path id="Контур_3873" data-name="Контур 3873" d="M2381.129,2970.645q-.008-.459-.015-.917l3.376-.066,1.141.07q0,.464,0,.928a1.194,1.194,0,0,1-1.174.461,6.27,6.27,0,0,1-3.022-.177A.743.743,0,0,1,2381.129,2970.645Z" transform="translate(-2369.339 -2963.154)" fill="#24269f"/>
      <path id="Контур_3874" data-name="Контур 3874" d="M2363.913,2992.409c-.841-.051-1.261.311-1.164,1.183l-7.388.008q0-.584,0-1.168c.335-.526.866-.477,1.384-.473.635,0,1.27-.017,1.9.008a1.607,1.607,0,0,0,1.563-.626,1.451,1.451,0,0,1,1.366-.573c.4.031.6-.216.859-.482a1.072,1.072,0,0,1,1.8.036.948.948,0,0,1-.265,1.158Q2363.937,2991.945,2363.913,2992.409Z" transform="translate(-2349.776 -2978.463)" fill="#302cc4"/>
      <path id="Контур_3875" data-name="Контур 3875" d="M2361.782,2979.035c-.157.022-.369-.015-.463.074-1.755,1.66-3.934,1.016-5.975,1.119q0-.477,0-.953c.654-.856,1.6-.474,2.437-.577.607-.075,1.337.1,1.5-.8a2.374,2.374,0,0,0,.838-2.273c-.041-.64-.238-1.365.454-1.844l.983-.033.247.025c.714.644,1.691,1.094,1.489,2.352-.1.6-.085,1.189-.686,1.551C2362.1,2977.983,2362.445,2978.817,2361.782,2979.035Z" transform="translate(-2349.765 -2966.26)" fill="#1e3acc"/>
      <path id="Контур_3876" data-name="Контур 3876" d="M2359.593,2987.795c.09.869-.287,1.236-1.17,1.2-1.034-.043-2.072-.008-3.108-.006q0-1.08-.008-2.159a.78.78,0,0,1,.9-.233c.577.918,1.507.695,2.359.725A.941.941,0,0,1,2359.593,2987.795Z" transform="translate(-2349.738 -2975.971)" fill="#1648c3"/>
      <path id="Контур_3877" data-name="Контур 3877" d="M2356.175,2977.156l-.868-.011q.016-1.678.031-3.357l2.109.006a.924.924,0,0,1,.294,1.067c-.786.5-.936,1.37-1.268,2.136A.594.594,0,0,1,2356.175,2977.156Z" transform="translate(-2349.738 -2966.288)" fill="#285fc6"/>
      <path id="Контур_3878" data-name="Контур 3878" d="M2440.083,3060.864l0-1.162c.349-.7,1.009-.49,1.55-.462a1.923,1.923,0,0,0,1.822-.734.734.734,0,0,1,.951.281q0,1.036,0,2.073Z" transform="translate(-2414.127 -3030.585)" fill="#dfe6e0"/>
      <path id="Контур_3879" data-name="Контур 3879" d="M2463.066,3064.77c-.034-1.789,1.348-.948,2.162-1.163q-.01.591-.018,1.182Z" transform="translate(-2431.583 -3034.496)" fill="#cec8b7"/>
      <path id="Контур_3880" data-name="Контур 3880" d="M2422.879,3054.227l-.951,0a1.69,1.69,0,0,1-1.421.439q-3.512-.011-7.023,0a1.756,1.756,0,0,1-1.428-.429l.016-.1a.886.886,0,0,1-.1-1.3c.936-.615,1.984-.245,2.981-.332.467-.04.94-.007,1.41-.006q2.3,0,4.6,0c.661.038,1.317-.088,1.979-.054a1.361,1.361,0,0,1,1.117.519l.078-.008a.807.807,0,0,1-.081,1.2Z" transform="translate(-2392.597 -3026.026)" fill="#366862"/>
      <path id="Контур_3881" data-name="Контур 3881" d="M2462.936,3055.793q.04-.6.081-1.2l.907.006C2464.009,3055.337,2463.869,3055.892,2462.936,3055.793Z" transform="translate(-2431.485 -3027.659)" fill="#b5bcab"/>
      <path id="Контур_3882" data-name="Контур 3882" d="M2393.087,2973.811l1.17,0q.033,1.674.067,3.347c-.013.3-.025.6-.038.9l-1.184.062-.193-.129A4.387,4.387,0,0,1,2393.087,2973.811Z" transform="translate(-2377.962 -2966.305)" fill="#2620b3"/>
      <path id="Контур_3883" data-name="Контур 3883" d="M2412.255,3014.868l9.851-.007a.769.769,0,0,1,.212.939.786.786,0,0,1-.306.285,2.605,2.605,0,0,1-1.255.191,24.435,24.435,0,0,1-4.146.013,12.689,12.689,0,0,1-4.144-.163,1,1,0,0,1-.36-.253A.747.747,0,0,1,2412.255,3014.868Z" transform="translate(-2392.781 -2997.484)" fill="#013a4c"/>
      <path id="Контур_3884" data-name="Контур 3884" d="M2454.1,3015.7q0-.451-.008-.9l2.115-.021q.036.479.073.959l-.053-.019A1.3,1.3,0,0,1,2454.1,3015.7Z" transform="translate(-2424.769 -2997.418)" fill="#082735"/>
      <path id="Контур_3885" data-name="Контур 3885" d="M2409.341,3014.724l-.022.88a.67.67,0,0,1-1,.121.724.724,0,0,1,.074-1.022l-.021-.032Z" transform="translate(-2389.867 -2997.34)" fill="#000e26"/>
      <path id="Контур_3886" data-name="Контур 3886" d="M2408.207,3018.594l.928-.041.059.1a1.235,1.235,0,0,1,.438,1.185,14.368,14.368,0,0,1,.021,3.039,8.023,8.023,0,0,1-.171,3.226.837.837,0,0,1-.265.346.8.8,0,0,1-1.009-.163q-.018-3.241-.035-6.481C2407.848,3019.391,2407.758,3018.985,2408.207,3018.594Z" transform="translate(-2389.683 -3000.288)" fill="#04485b"/>
      <path id="Контур_3887" data-name="Контур 3887" d="M2405.437,3015.747q-.016.6-.033,1.209l-1.144-.016q0-1.067-.007-2.134l1.187,0Z" transform="translate(-2386.914 -2997.44)" fill="#354b5e"/>
      <path id="Контур_3888" data-name="Контур 3888" d="M2409.183,3050.7h.9a.61.61,0,0,1,.077.945q-.014.583-.028,1.167l-.95,0Z" transform="translate(-2390.658 -3024.704)" fill="#0d383c"/>
      <path id="Контур_3889" data-name="Контур 3889" d="M2413.048,3059.874l9.872-.01c.022.635-.282.926-.918.917-.817-.012-1.636,0-2.454,0l-6.508-.032Q2413.044,3060.312,2413.048,3059.874Z" transform="translate(-2393.588 -3031.664)" fill="#c5dad5"/>
      <path id="Контур_3890" data-name="Контур 3890" d="M2450.058,3018.605l2.126.019q0,4.321-.005,8.643h-3.1a.962.962,0,0,1-.259-1.039,3.925,3.925,0,0,0,.658-2.471q-.05-1.843.011-3.689c.018-.516.028-1.046.547-1.367Z" transform="translate(-2420.725 -3000.328)" fill="#255b5d"/>
      <path id="Контур_3891" data-name="Контур 3891" d="M2391.139,2992.26l.009-1.2a.633.633,0,0,1,.943-.02l0,.014q-.021.581-.042,1.162Z" transform="translate(-2376.953 -2979.242)" fill="#20189e"/>
      <path id="Контур_3892" data-name="Контур 3892" d="M2368.162,2978.147l-1.186,0a.827.827,0,0,1-.283-.857c1.135-1.147,1.2-1.241-.035-2.373a.924.924,0,0,1,.288-1.082l2.167.013c0,.868-.032,1.739.025,2.6A1.562,1.562,0,0,1,2368.162,2978.147Z" transform="translate(-2358.307 -2966.323)" fill="#1c58c7"/>
      <path id="Контур_3893" data-name="Контур 3893" d="M2365.033,2973.819q.021.556.041,1.111a.453.453,0,0,1-.174.284.649.649,0,0,1-.66,0,.447.447,0,0,1-.17-.286q.017-.557.033-1.113Z" transform="translate(-2356.393 -2966.308)" fill="#4584e8"/>
      <path id="Контур_3894" data-name="Контур 3894" d="M2385.245,2978.112l-.943.02c-.562-.014-1.086-.027-1.261.718-.124.526-.521.5-.915.236.016-.819-.089-1.584.756-2.238a1.173,1.173,0,0,0-.223-1.787,1.217,1.217,0,0,1-.514-1.236l3.089-.009Q2385.238,2975.964,2385.245,2978.112Z" transform="translate(-2370.107 -2966.31)" fill="#3332d5"/>
      <path id="Контур_3895" data-name="Контур 3895" d="M2361.142,2986.369q0,.429.007.858c-.8-.178-2.008.58-2.233-.954l.1-.03a1.014,1.014,0,0,1,1.047-.433,1.283,1.283,0,0,1,.927.218A.492.492,0,0,1,2361.142,2986.369Z" transform="translate(-2352.48 -2975.406)" fill="#3273dd"/>
      <path id="Контур_3896" data-name="Контур 3896" d="M2360.268,2980.654h-1.176c-.015-.315-.006-.634-.05-.945-.131-.929.3-1.311,1.191-1.274.011.039.022.079.033.118A1.364,1.364,0,0,1,2360.268,2980.654Z" transform="translate(-2352.558 -2969.816)" fill="#5e9afd"/>
      <path id="Контур_3897" data-name="Контур 3897" d="M2434.86,3048.925q0,.468-.006.936l-4.537.006a.793.793,0,0,1-.151-1.038.839.839,0,0,1,.594-.3,8.2,8.2,0,0,1,2.909-.1C2434.134,3048.435,2434.611,3048.405,2434.86,3048.925Z" transform="translate(-2406.496 -3022.921)" fill="#186461"/>
      <path id="Контур_3898" data-name="Контур 3898" d="M2417.329,3048.807q0,.461,0,.921l-4.317-.006q-.038-.472-.077-.945l.094-.018A4.065,4.065,0,0,1,2417.329,3048.807Z" transform="translate(-2393.508 -3022.781)" fill="#247a78"/>
      <path id="Контур_3899" data-name="Контур 3899" d="M2433.3,3026.5l-2.864.023c-.383-.316-.61-.8-.274-1.144.648-.667.49-1.455.551-2.222a1.564,1.564,0,0,1,.219-1.257c.686-.785.374-1.175-.5-1.4a.989.989,0,0,1-.757-.529.894.894,0,0,1,.274-1.082l4.322.013a1.266,1.266,0,0,1,.514,1.472,6.7,6.7,0,0,0,0,2.548C2435.034,3024.387,2434,3025.392,2433.3,3026.5Z" transform="translate(-2406.16 -3000.542)" fill="#1a8a8b"/>
      <path id="Контур_3900" data-name="Контур 3900" d="M2445,3026.541c.059-.875-.123-1.736.783-2.46a1.193,1.193,0,0,0-.322-1.851c-.411-.259-.6-.74-.2-.963,1.053-.584.633-1.507.708-2.324l1.208.015c.006,2.158,0,4.316.026,6.474.007.7-.149,1.194-.977,1.157Z" transform="translate(-2417.865 -3000.584)" fill="#167a79"/>
      <path id="Контур_3901" data-name="Контур 3901" d="M2417.56,3018.888l.021,1.139-.108.193c-.942.663-1.987.32-3,.3a1.2,1.2,0,0,1-1.18-.46q0-.578-.008-1.156Z" transform="translate(-2393.775 -3000.542)" fill="#3591a1"/>
      <path id="Контур_3902" data-name="Контур 3902" d="M2418.744,3035.2c0,.525-.007,1.044.608,1.284a.409.409,0,0,1,.257.483.45.45,0,0,1-.537.361c-1.071-.185-1.059.515-1.041,1.231l-.454.045-4.3-.047q-.008-1.681-.016-3.362a.886.886,0,0,1,1.039-.318.8.8,0,0,1,.313.172c.7,1.049,1.066,1.013,2.017-.2a1.942,1.942,0,0,1,.976-.1A1.156,1.156,0,0,1,2418.744,3035.2Z" transform="translate(-2393.757 -3012.579)" fill="#219299"/>
      <path id="Контур_3903" data-name="Контур 3903" d="M2414.43,3026.883l-1.168-.012q.007-1.547.014-3.095l1.181.014A2.433,2.433,0,0,1,2414.43,3026.883Z" transform="translate(-2393.757 -3004.255)" fill="#3daab4"/>
      <path id="Контур_3904" data-name="Контур 3904" d="M2366.553,2978.454c.669.037,1.182.119,1.2,1.046.021.952-.382,1.27-1.221,1.3a.651.651,0,0,1-.014-.138,1.35,1.35,0,0,1-.017-2.091C2366.52,2978.529,2366.536,2978.491,2366.553,2978.454Z" transform="translate(-2357.873 -2969.833)" fill="#5898ea"/>
      <path id="Контур_3905" data-name="Контур 3905" d="M2365.129,2978.921q.009,1.046.017,2.092l-.937.013q0-1.05,0-2.1Z" transform="translate(-2356.498 -2970.187)" fill="#97d6fe"/>
      <path id="Контур_3906" data-name="Контур 3906" d="M2430.519,3026.763l-1.217-.01a2.5,2.5,0,0,1-.029-3.057l.064-.069c2.55.077,2.62.2,1.37,2.344A2.845,2.845,0,0,0,2430.519,3026.763Z" transform="translate(-2405.531 -3004.142)" fill="#1fa5a0"/>
      <path id="Контур_3907" data-name="Контур 3907" d="M2421.185,3023.852q.015,1.529.03,3.057l-.916.04a1.428,1.428,0,0,1-2.182-.016v-.006q.013-1.547.026-3.094Z" transform="translate(-2397.444 -3004.298)" fill="#3ccac6"/>
      <path id="Контур_3908" data-name="Контур 3908" d="M2418.083,3036.723l2.182.016c.069.849-.29,1.2-1.171,1.193C2418.2,3037.924,2418.023,3037.457,2418.083,3036.723Z" transform="translate(-2397.41 -3014.089)" fill="#2bacb2"/>
    </g>
  </g>
  <g id="Прямоугольник_158" data-name="Прямоугольник 158" transform="translate(0 44.45)" fill="none" stroke="#000" stroke-width="1" stroke-dasharray="3 3" opacity="0">
    <rect width="84" height="20" stroke="none"/>
    <rect x="0.5" y="0.5" width="83" height="19" fill="none"/>
  </g>
</svg>
