<svg xmlns="http://www.w3.org/2000/svg" width="309.443" height="293.06" viewBox="0 0 309.443 293.06">
  <path id="Контур_4078" data-name="Контур 4078" d="M1724.127,3018.4c-8.252,0-16.582-1.744-26.218-5.487a42.024,42.024,0,0,1-12.841-8.059c-4.528-4.073-9.089-8.243-13.5-12.276l-3.574-3.267a53.076,53.076,0,0,1-6.918-7.853c-3.832-5.187-7.662-10.488-11.366-15.613-8.923-12.348-18.149-25.115-27.925-37.02-6.554-7.981-10.27-15.589-11.694-23.944a6.531,6.531,0,0,1-.093-1.1v-11.133a6.54,6.54,0,0,1,.186-1.547c.032-.133.067-.266.1-.4.019-.072.039-.145.056-.217,2.955-15.707,8.789-28.434,17.835-38.908a6.665,6.665,0,0,0,.918-1.28,6.986,6.986,0,0,0-.953-1.386,39.956,39.956,0,0,1-8.348-16.622,70.121,70.121,0,0,1-.931-28.664c.153-.859.3-1.72.449-2.58,1.065-6.2,2.167-12.612,5.184-18.888q2.254-4.69,4.482-9.4c1.775-3.736,3.611-7.6,5.445-11.4,3.681-7.618,9.65-8.756,12.88-8.756a17.469,17.469,0,0,1,6.574,1.383c6.571,2.675,13.091,5.609,19.4,8.447,2.157.971,4.356,1.96,6.561,2.942.006-2.906.007-5.856-.016-8.759a14.542,14.542,0,0,1,5.165-11.236,74.515,74.515,0,0,1,29.551-16.753,15.581,15.581,0,0,0,2.148-.795,28.971,28.971,0,0,1,12.094-2.5,40.062,40.062,0,0,1,5.7.429c9.9,1.433,20.333,3.427,29.413,10.545a11.614,11.614,0,0,0,.994.619c.279.163.557.327.832.5a32.306,32.306,0,0,1,10.359,10.178c1.618,2.523,3.285,5.088,4.9,7.568,1.853,2.851,3.769,5.8,5.637,8.724a1.3,1.3,0,0,0,.738.661c2.54.981,5.062,2.026,7.5,3.036q1.294.535,2.589,1.069,1.26.517,2.524,1.032c2.455,1,4.993,2.04,7.5,3.106,3.344,1.425,5.484,3.547,6.358,6.308.869,2.741.36,5.663-1.511,8.682a35.483,35.483,0,0,1-16.324,14.322c.094.129.187.258.28.389a9.906,9.906,0,0,1,.7,10.312,9.716,9.716,0,0,1-7.838,5.27,10.989,10.989,0,0,1-1.939,5.236,9.926,9.926,0,0,1-1.56,7.572c.1.086.2.172.295.257.29.247.579.5.867.75,1.684,1.466,2.774,2.38,3.9,2.685a36.751,36.751,0,0,1,11.946,6.176c2.173,1.575,4.262,3.169,6.228,4.691a16.084,16.084,0,0,1,4.617-.659,18.424,18.424,0,0,1,3.558.355c8.682,1.711,13.614,6.35,14.685,13.8a56.412,56.412,0,0,0,10.933,6.143,103.093,103.093,0,0,1,13.72,7.624,25.051,25.051,0,0,1,7.253,7.347,17.063,17.063,0,0,1,3.256,9.569,16.448,16.448,0,0,0,5.386,2.309c4.224.946,8.54,1.479,13.109,2.042,2.966.366,6.034.745,9.1,1.249,11.37,1.869,19.578,8.235,24.4,18.918a6.541,6.541,0,0,1,.578,2.687v.768a6.533,6.533,0,0,1-1.4,4.038l-.091.134a7.533,7.533,0,0,1-1.411,6.673,8.665,8.665,0,0,1-6.939,3.288c-.329,0-.671-.017-1.014-.048a11.007,11.007,0,0,1-2.565-.549,8.247,8.247,0,0,1-5.2,1.871,9.163,9.163,0,0,1-6.392-2.819,57.58,57.58,0,0,1-5.781-6.438c-1.3-1.685-1.812-2.022-2-2.073-.808-.22-1.614-.453-2.419-.686a46.4,46.4,0,0,0-6.42-1.545l-.151-.019a13.579,13.579,0,0,1-2.089,3.528,11.366,11.366,0,0,1,2.168,13.007,8.435,8.435,0,0,1-1.836,5.97c-1.917,2.26-4.41,2.649-6.413,2.961l-.147.024a93.119,93.119,0,0,0-15.318,7.911c-6.107,3.7-13.311,7.71-22.011,8.82a45.321,45.321,0,0,0-4.441,5.925,16.2,16.2,0,0,1-4.077,4.363c-8.672,6.5-18.044,11.539-26.9,16.144-2.814,1.462-5.677,2.889-8.446,4.269-7.615,3.793-14.808,7.377-21.5,11.858-10.088,6.755-21.239,10.116-30.9,12.737a40.6,40.6,0,0,1-7.883,1.328C1726.635,3018.358,1725.375,3018.4,1724.127,3018.4Z" transform="translate(-1610 -2725.34)" fill="#e7335d"/>
</svg>
