<svg xmlns="http://www.w3.org/2000/svg" width="257.966" height="222.404" viewBox="0 0 257.966 222.404">
  <path id="Контур_4079" data-name="Контур 4079" d="M2728.516,2158.64a6.639,6.639,0,0,1-1.321-.133c-1.623-.329-3.254-.611-4.982-.91-2.954-.51-6.01-1.038-9.1-1.833-2.2-.567-4.383-1.2-6.489-1.8a111.73,111.73,0,0,0-11.3-2.851c-10.651-1.9-19.61-4.87-27.388-9.085-6.464-3.5-9.432-8.555-8.823-15.022.373-3.958-.5-8.145-1.43-12.577-.225-1.072-.448-2.144-.656-3.217-2.99-2.664-6.007-3.959-9.22-3.959a13.345,13.345,0,0,0-3.274.427c-7.26,1.841-13.929,3.307-20.39,4.482a3.705,3.705,0,0,0-1.858.732,14.428,14.428,0,0,1-11.216,4.942,21.966,21.966,0,0,1-3.211-.25c-8.337-1.225-15.781-5.021-23.43-11.943a7.818,7.818,0,0,0-3.637-1.981,25.511,25.511,0,0,1-9.049-4.083,10,10,0,0,1-4.41-7.689c-.076-1.124-.224-2.3-.381-3.552-.082-.652-.166-1.321-.242-2.005l-.7-.528a47.161,47.161,0,0,1-5.592-4.742c-2.07-2.133-5.569-3.011-9.594-3.863-4.95-1.048-6.7-4.179-7.306-6.62a6.642,6.642,0,0,1-.192-1.586v-.39a6.633,6.633,0,0,1,1.236-3.858l.024-.033a8.118,8.118,0,0,1-.308-4.7,9.088,9.088,0,0,1,7.705-7.337,8.715,8.715,0,0,1,7.843-4.431,11.582,11.582,0,0,1,1.506.1,26.837,26.837,0,0,1,12.075,4.279c9.246,6.509,18.8,13.236,25.227,24.026a5.452,5.452,0,0,0,3.857,2.642,20.309,20.309,0,0,0,4.16.344c.961,0,1.947-.032,2.992-.066,1.063-.035,2.162-.071,3.3-.073.282-.259.726-.765,1.039-1.123.47-.536,1-1.144,1.632-1.753a13.858,13.858,0,0,0,.9-1.108,22.128,22.128,0,0,1,2.743-3.09,16.652,16.652,0,0,1,4.795-2.9,8.82,8.82,0,0,1-.075-5.345l.226-.729c.92-2.984,2.065-6.7,4.9-9.925.439-.5.87-.941,1.252-1.332.24-.246.54-.552.751-.79a7.629,7.629,0,0,1,2.106-5c1.157-1.255,1.69-3.382,2.308-5.846.207-.823.419-1.673.67-2.549,4.288-15.007,13.732-24.84,28.071-29.223,1.427-.437,2.8-.756,4.119-1.065.334-.078.667-.156,1-.235a27.2,27.2,0,0,0,4.6-1.376,3.792,3.792,0,0,0,2.667-3.865c.1-3.562.1-7.478,0-12.323-.011-.472-.066-1.05-.125-1.662a18.808,18.808,0,0,1,.442-7.559,47.541,47.541,0,0,0,1.455-9.373c.157-1.738.319-3.535.569-5.365,1.725-12.653,8.985-21.766,21.579-27.087,5.91-2.5,11.876-2.575,16.668-2.638.354,0,.709-.008,1.065-.008,4.286,0,9.257.489,13.633,4.111l.964.8c1.1.9,2.238,1.841,3.366,2.833,7.374,6.481,10.283,15.4,8.415,25.778-.466,2.589-.686,5.248-.918,8.063q-.072.865-.146,1.731a9.221,9.221,0,0,1,3.227,8.424c-.075.708-.163,1.438-.262,2.2,1.121.425,2.234.85,3.329,1.269q2.1.8,4.2,1.6a39.216,39.216,0,0,1,5.543,2.492c6.7,3.788,14.483,8.557,21.45,15.215,2.431,2.323,8.121,7.762,6.09,16.19l-.1.423a25.6,25.6,0,0,1-1.294,4.238,31.8,31.8,0,0,1,3.756,6.762c2.064,5.537,5.321,10.572,8.769,15.9l.217.335a16.208,16.208,0,0,1,1.577,15.125c-1.348,3.4-1.208,7.4-1.06,11.627l0,.1c.152,4.335-.24,9.979-4.656,15.189a10.269,10.269,0,0,0-2.162,4.71c.019.142.047.334.071.488a12.094,12.094,0,0,1-.144,5.385c-.092.325-.146.765.277,2.2l.03.1c.507,1.723,1.885,6.4-1,10.473.15,4.792-1.326,8.953-2.876,12.826-.548,1.37-1.083,2.743-1.617,4.118q-.389,1-.781,2a17.738,17.738,0,0,1-10.163,10.033,97.125,97.125,0,0,1-17.886,5.059c-1.873.369-3.772.886-5.784,1.432a62.141,62.141,0,0,1-11.268,2.3c-2.628.222-5.283.414-7.851.6q-1.729.125-3.457.253c-.166.013-.33.019-.5.019Z" transform="translate(-2543.332 -1936.236)" fill="#fed841"/>
</svg>
