<svg xmlns="http://www.w3.org/2000/svg" width="368.101" height="374.706" viewBox="0 0 368.101 374.706">
  <path id="Контур_4077" data-name="Контур 4077" d="M2964.4,3074.7a17.87,17.87,0,0,1-9.116-2.452l-1.745-1c-4.067-2.337-8.272-4.753-12.453-6.922-1.858-.965-5.854-3.038-7.98-7.3-.88-.426-1.737-.857-2.576-1.281a41.623,41.623,0,0,0-7.834-3.327,88.294,88.294,0,0,1-17.722-6.8,9.724,9.724,0,0,1-5.662-9.964c-3.853-1.659-7.634-3.454-11.3-5.193-3.442-1.634-7-3.324-10.507-4.843-8.763-3.8-15.357-7.958-20.754-13.1-1.687-1.606-3.228-3.261-4.719-4.861a73.691,73.691,0,0,0-5.5-5.514,33.657,33.657,0,0,1-7.079-8.876,12.718,12.718,0,0,1,.015-13.172,25.79,25.79,0,0,1-1.685-4.839,10.775,10.775,0,0,1,1.047-8.228,12.788,12.788,0,0,1-1.032-11.277,13.92,13.92,0,0,1,6.263-7.674,20.4,20.4,0,0,1,.524-2.033,5.989,5.989,0,0,0-2.781-7.029c-.2-.12-.486-.269-.787-.427a14.1,14.1,0,0,1-5.11-4c-.368-.492-.745-.979-1.121-1.467a43.355,43.355,0,0,1-4.284-6.321c-.044-.084-.085-.159-.122-.225a9.843,9.843,0,0,1-5.135-2.837,6.414,6.414,0,0,1-1.922-4.563v-1.527a6.372,6.372,0,0,1,.974-3.381c.456-.729.934-1.393,1.355-1.978a12.755,12.755,0,0,0,1.162-1.786,23.282,23.282,0,0,1,6-9.958q.108-.112.22-.223a25.414,25.414,0,0,1,4.617-7.746c.245-.31.489-.62.73-.933a12.278,12.278,0,0,1,10.072-4.913c.317,0,.641.01.964.031,1.648.1,3.2.307,4.7.5l.607.079a52.958,52.958,0,0,0,6.64.53,21.372,21.372,0,0,0,5.174-.578,25.419,25.419,0,0,1,6.086-.737,26.808,26.808,0,0,1,10.229,2.052c3.96,1.626,8.346,2.416,12.989,3.252l.571.1a10.031,10.031,0,0,0,1.717.193c.1,0,.176,0,.237-.008a19.523,19.523,0,0,1,10.057-4.807c.77-.146,1.585-.338,2.448-.542a46.354,46.354,0,0,1,5.082-.989c1.1-.133,2.06-.553,3.479-2.229,3.17-3.744,6.9-5.643,11.1-5.643a15.394,15.394,0,0,1,6.51,1.523c1.293-.542,2.565-1.014,3.807-1.476a36.5,36.5,0,0,0,6.682-2.98,18.643,18.643,0,0,1,7.725-2.4,10.486,10.486,0,0,0,2.9-.641,6.939,6.939,0,0,1,4.025-1.266,7.525,7.525,0,0,1,.927.058,4.126,4.126,0,0,0,.521.032,16.752,16.752,0,0,0,4.384-.982c1.058-.325,2.152-.661,3.35-.947a6.521,6.521,0,0,0,3.058-1.356,11.64,11.64,0,0,1,7.979-3.114,14.091,14.091,0,0,1,3.138.369,8.89,8.89,0,0,0,1.931.261,1.612,1.612,0,0,0,.864-.165,11.368,11.368,0,0,1,7.515-2.9,11.833,11.833,0,0,1,3.341.49,41.059,41.059,0,0,1,11.967-2.966c.67-.048,1.442-.155,2.258-.269a34.428,34.428,0,0,1,4.85-.429,16.652,16.652,0,0,1,5.644.922c4.475-3.488,9.645-5.016,13.874-6.266,5.823-1.722,11.087-3.241,16.538-4.4a43.876,43.876,0,0,0,14.046-5.285c5.85-3.515,10.455-6.722,13.919-10.945a20.969,20.969,0,0,1,7.4-5.865,34.768,34.768,0,0,0,10.255-7.161c1.266-1.29,1.269-2.076,1.149-2.9a45.456,45.456,0,0,1-.327-7.027,23.264,23.264,0,0,0-.527-6.646,8.23,8.23,0,0,1-.005-4.59,7.714,7.714,0,0,1,2.642-7.275,12.642,12.642,0,0,1-4.242-5.621,12.255,12.255,0,0,1,.312-9.593c1.924-4.033,5.263-6.137,7.7-7.674l.165-.1a29.546,29.546,0,0,0,4.925-3.678,33.243,33.243,0,0,1,.149-9.573l.1-.883a16.452,16.452,0,0,1,4.7-10.059l.192-.194c.279-.282.677-.685.877-.928a39.846,39.846,0,0,1,4.41-9.657l.264-.458c1.121-1.948,1.608-2.96,1.536-3.808-.4-4.767,2.587-8,4.023-9.556,3.839-4.154,8.524-6.925,12.658-9.37q.837-.495,1.672-.993c.152-.091.306-.185.459-.279a19.012,19.012,0,0,1,5.357-2.448c1.6-.4,3.191-.877,4.881-1.379a86.226,86.226,0,0,1,9.138-2.346c1.077-.2,2.154-.4,3.23-.61a101.683,101.683,0,0,1,14.884-2.081c.784-.034,1.462-.063,2.107-.063,4.832,0,7.05,2.362,8.059,4.342.993,1.95.993,3.839.992,6.23l-.013,54.334q-.025,98.236-.037,196.475,0,32.986.027,65.971.012,18.828.022,37.656c0,2.26,0,5.073-2.406,7.38-2.357,2.257-5.224,2.257-7.529,2.258l-31.652,0c-60.776.009-123.621.018-185.431.055Zm94.511-141.039a25.9,25.9,0,0,1,2.85,5.728c.306.834.6,1.671.9,2.507.642,1.8,1.255,3.514,1.926,5.167.017-.869.029-1.748.041-2.642.052-3.719.1-7.542.515-11.443C3063.13,2933.276,3061.061,2933.546,3058.913,2933.661Z" transform="translate(-2823.332 -2699.994)" fill="#fff"/>
</svg>
