<svg xmlns="http://www.w3.org/2000/svg" width="42.263" height="42.263" viewBox="0 0 42.263 42.263">
  <path id="surface1" d="M40.036,2H6.226A4.233,4.233,0,0,0,2,6.226v33.81a4.233,4.233,0,0,0,4.226,4.226h33.81a4.233,4.233,0,0,0,4.226-4.226V6.226A4.233,4.233,0,0,0,40.036,2ZM14.894,35.81H8.339V17.633h6.555ZM11.509,15.52a2.944,2.944,0,0,1-3.17-2.954c0-1.691,1.272-2.954,3.385-2.954a2.944,2.944,0,0,1,3.17,2.954C14.894,14.256,13.622,15.52,11.509,15.52ZM37.923,35.81H31.368V25.878c0-2.747-1.682-3.381-2.318-3.381s-2.749.418-2.749,3.381V35.81H19.746V17.633H26.3v2.544c.841-1.488,2.536-2.544,5.705-2.544s5.7,2.544,5.7,8.248v9.93Z" transform="translate(-2 -2)" fill="#fff"/>
</svg>
