<svg id="Сгруппировать_10" data-name="Сгруппировать 10" xmlns="http://www.w3.org/2000/svg" width="251.418" height="334.631" viewBox="0 0 251.418 334.631">
  <g id="Сгруппировать_3262" data-name="Сгруппировать 3262" transform="translate(35.112)">
    <path id="Контур_4203" data-name="Контур 4203" d="M3932.741,2793.544c3.926-.076,6.3-2.464,6.769-7.219,1.179-11.827.5-23.694.361-35.547-.036-3.022-.433-6.061-.271-9.058.411-7.622-4.533-13.78-10.9-13.652-23.643.48-74.351,2.2-90.753,2.529-4.812.1-5.362,1.058-5.812,7.093-.837,11.211-.572,22.439-.733,33.659a39.938,39.938,0,0,1-5.527,20.444c-.466.768-1.352,1.461-.828,2.594.5,1.066,1.47.611,2.237.608C3855.822,2794.949,3924.9,2793.7,3932.741,2793.544Z" transform="translate(-3723.884 -2716.273)" fill="#fed841"/>
    <g id="Сгруппировать_3260" data-name="Сгруппировать 3260" transform="translate(0 23.889)">
      <path id="Контур_4198" data-name="Контур 4198" d="M3651.158,2886.113a20.869,20.869,0,0,1-20.845-20.846,55.557,55.557,0,0,1,28.892-48.479,38,38,0,1,1,52.542,0,55.56,55.56,0,0,1,28.893,48.479,20.869,20.869,0,0,1-20.845,20.846Z" transform="translate(-3630.313 -2751.368)" fill="#fff"/>
      <path id="Контур_4199" data-name="Контур 4199" d="M3707.484,2821.654a33.852,33.852,0,1,0-36.445,0,51.154,51.154,0,0,0-32.854,47.7,16.647,16.647,0,0,0,16.627,16.628h68.9a16.645,16.645,0,0,0,16.625-16.628A51.154,51.154,0,0,0,3707.484,2821.654Z" transform="translate(-3634.098 -2755.192)" fill="#e7335d"/>
    </g>
    <g id="Сгруппировать_3261" data-name="Сгруппировать 3261" transform="translate(159.277)">
      <path id="Контур_4200" data-name="Контур 4200" d="M3949,2752.148h-6.815v-46.8h9.283Z" transform="translate(-3939.572 -2705.347)" fill="#040505"/>
      <ellipse id="Эллипс_157" data-name="Эллипс 157" cx="5.778" cy="6.479" rx="5.778" ry="6.479" transform="translate(0 51.442)" fill="#040505"/>
    </g>
  </g>
  <path id="Контур_4201" data-name="Контур 4201" d="M3729.776,3157.977H3574.481l-11.81-207.266h174.082Z" transform="translate(-3562.672 -2823.346)" fill="#040505"/>
</svg>
