<svg xmlns="http://www.w3.org/2000/svg" width="102.424" height="70.953" viewBox="0 0 102.424 70.953">
  <g id="Сгруппировать_9" data-name="Сгруппировать 9" transform="translate(-0.004 0.006)">
    <path id="SUBSCRIBE_ON_FACEBOOK" data-name="SUBSCRIBE ON FACEBOOK" d="M2.541-3.381v-.091a.437.437,0,0,0-.171-.347.627.627,0,0,0-.417-.144.666.666,0,0,0-.43.144.431.431,0,0,0-.179.347.321.321,0,0,0,.182.3,1.523,1.523,0,0,0,.476.2q.049.007.109.021l.122.028a2.425,2.425,0,0,1,1,.413l.063.056a1.5,1.5,0,0,1,.332.483,1.387,1.387,0,0,1,.122.56,1.385,1.385,0,0,1-.137.6,1.558,1.558,0,0,1-.4.511,1.873,1.873,0,0,1-.588.332,2.056,2.056,0,0,1-.686.116A2.026,2.026,0,0,1,1.264.032,1.882,1.882,0,0,1,.679-.3a1.6,1.6,0,0,1-.4-.511,1.356,1.356,0,0,1-.14-.6V-1.5H1.365v.091a.437.437,0,0,0,.171.347.618.618,0,0,0,.41.143.666.666,0,0,0,.43-.143.431.431,0,0,0,.178-.347.4.4,0,0,0-.189-.308.782.782,0,0,0-.2-.105A2.814,2.814,0,0,0,1.9-1.911l-.231-.056q-.385-.1-.6-.175a1.209,1.209,0,0,1-.4-.238L.637-2.408A1.573,1.573,0,0,1,.27-2.9a1.323,1.323,0,0,1-.13-.574,1.356,1.356,0,0,1,.14-.6,1.6,1.6,0,0,1,.4-.511,1.882,1.882,0,0,1,.585-.333,2.026,2.026,0,0,1,.683-.115,2.056,2.056,0,0,1,.686.115,1.873,1.873,0,0,1,.588.333,1.558,1.558,0,0,1,.4.511,1.385,1.385,0,0,1,.137.6v.091ZM8.2-4.942v3.059a1.9,1.9,0,0,1-.262.98,1.949,1.949,0,0,1-.714.711A1.922,1.922,0,0,1,6.237.07H6.125a1.9,1.9,0,0,1-.98-.263A1.957,1.957,0,0,1,4.435-.9a1.9,1.9,0,0,1-.262-.98V-4.942H5.341v2.779a1.189,1.189,0,0,0,.21.721.673.673,0,0,0,.574.287h.112a.685.685,0,0,0,.57-.29,1.152,1.152,0,0,0,.22-.718V-4.942Zm3.85,2.352a1.4,1.4,0,0,1,.441.5,1.394,1.394,0,0,1,.161.661,1.39,1.39,0,0,1-.189.711,1.422,1.422,0,0,1-.514.518,1.435,1.435,0,0,1-.717.2H8.757V-4.956H11a1.359,1.359,0,0,1,.721.2,1.439,1.439,0,0,1,.507.518,1.378,1.378,0,0,1,.186.7,1.39,1.39,0,0,1-.1.515A1.385,1.385,0,0,1,12.047-2.59Zm-.714-.833a.5.5,0,0,0-.15-.368.492.492,0,0,0-.361-.151h-.91v1.05h.91a1.21,1.21,0,0,0,.168-.028.442.442,0,0,0,.126-.07.521.521,0,0,0,.161-.189A.54.54,0,0,0,11.333-3.423Zm-.3,2.408a.512.512,0,0,0,.36-.161.488.488,0,0,0,.144-.371.505.505,0,0,0-.119-.332.5.5,0,0,0-.3-.179q-.042-.007-.994-.007h-.21v1.05h1.12Zm4.3-2.366v-.091a.437.437,0,0,0-.172-.347.627.627,0,0,0-.417-.144.666.666,0,0,0-.431.144.431.431,0,0,0-.179.347.321.321,0,0,0,.182.3,1.523,1.523,0,0,0,.476.2q.049.007.109.021l.122.028a2.425,2.425,0,0,1,1,.413l.063.056a1.5,1.5,0,0,1,.333.483,1.387,1.387,0,0,1,.122.56,1.385,1.385,0,0,1-.136.6,1.558,1.558,0,0,1-.4.511,1.873,1.873,0,0,1-.588.332,2.056,2.056,0,0,1-.686.116,2.026,2.026,0,0,1-.682-.116A1.882,1.882,0,0,1,13.468-.3a1.6,1.6,0,0,1-.4-.511,1.356,1.356,0,0,1-.14-.6V-1.5h1.225v.091a.437.437,0,0,0,.172.347.618.618,0,0,0,.41.143.666.666,0,0,0,.431-.143.431.431,0,0,0,.179-.347.4.4,0,0,0-.189-.308.782.782,0,0,0-.2-.105,2.814,2.814,0,0,0-.273-.084l-.231-.056q-.385-.1-.6-.175a1.209,1.209,0,0,1-.4-.238l-.028-.028a1.573,1.573,0,0,1-.368-.49,1.323,1.323,0,0,1-.129-.574,1.356,1.356,0,0,1,.14-.6,1.6,1.6,0,0,1,.4-.511,1.882,1.882,0,0,1,.585-.333,2.026,2.026,0,0,1,.682-.115,2.056,2.056,0,0,1,.686.115,1.873,1.873,0,0,1,.588.333,1.558,1.558,0,0,1,.4.511,1.385,1.385,0,0,1,.136.6v.091Zm3.99,2.212a1.254,1.254,0,0,0,.5-.1,1.383,1.383,0,0,0,.42-.277l.854.854a2.513,2.513,0,0,1-.805.543,2.454,2.454,0,0,1-.966.192,2.436,2.436,0,0,1-1.253-.336,2.5,2.5,0,0,1-.91-.91,2.436,2.436,0,0,1-.336-1.253,2.455,2.455,0,0,1,.336-1.257,2.494,2.494,0,0,1,.91-.913,2.436,2.436,0,0,1,1.253-.336,2.454,2.454,0,0,1,.966.193,2.513,2.513,0,0,1,.805.543l-.854.854a1.383,1.383,0,0,0-.42-.277,1.254,1.254,0,0,0-.5-.1,1.236,1.236,0,0,0-.644.175,1.319,1.319,0,0,0-.469.473,1.254,1.254,0,0,0-.175.648,1.236,1.236,0,0,0,.175.644,1.328,1.328,0,0,0,.469.469A1.236,1.236,0,0,0,19.32-1.169ZM25.55,0H24.283L23.5-1.869h-.805V0H21.511V-4.949H23.87a1.512,1.512,0,0,1,.77.207,1.518,1.518,0,0,1,.563.564,1.512,1.512,0,0,1,.207.77,1.493,1.493,0,0,1-.189.739,1.6,1.6,0,0,1-.511.556ZM24.29-3.416a.517.517,0,0,0-.133-.353.469.469,0,0,0-.329-.165H22.666v1.05h1.162a.5.5,0,0,0,.329-.171A.526.526,0,0,0,24.29-3.416Zm2.94-1.533V0H25.97V-4.949ZM31.08-2.59a1.4,1.4,0,0,1,.441.5,1.394,1.394,0,0,1,.161.661,1.39,1.39,0,0,1-.189.711,1.422,1.422,0,0,1-.514.518,1.435,1.435,0,0,1-.718.2H27.79V-4.956h2.247a1.359,1.359,0,0,1,.721.2,1.439,1.439,0,0,1,.507.518,1.378,1.378,0,0,1,.185.7,1.39,1.39,0,0,1-.1.515A1.385,1.385,0,0,1,31.08-2.59Zm-.714-.833a.5.5,0,0,0-.151-.368.492.492,0,0,0-.361-.151h-.91v1.05h.91a1.21,1.21,0,0,0,.168-.028.442.442,0,0,0,.126-.07.521.521,0,0,0,.161-.189A.54.54,0,0,0,30.366-3.423Zm-.3,2.408a.512.512,0,0,0,.361-.161.488.488,0,0,0,.143-.371.505.505,0,0,0-.119-.332.5.5,0,0,0-.3-.179q-.042-.007-.994-.007h-.21v1.05h1.12Zm5.4-.056V0H32.1V-4.949h3.3v1.071H33.369v.868h1.715v1.071H33.369v.868Zm5.026-3.878a2.436,2.436,0,0,1,1.253.336,2.494,2.494,0,0,1,.91.914,2.455,2.455,0,0,1,.336,1.257,2.436,2.436,0,0,1-.336,1.253,2.5,2.5,0,0,1-.91.91,2.436,2.436,0,0,1-1.253.336A2.455,2.455,0,0,1,39.238-.28a2.494,2.494,0,0,1-.913-.91,2.436,2.436,0,0,1-.336-1.253A2.455,2.455,0,0,1,38.325-3.7a2.486,2.486,0,0,1,.913-.914A2.455,2.455,0,0,1,40.495-4.949Zm0,3.794a1.236,1.236,0,0,0,.644-.175,1.328,1.328,0,0,0,.469-.469,1.236,1.236,0,0,0,.175-.644,1.254,1.254,0,0,0-.175-.648,1.319,1.319,0,0,0-.469-.472,1.236,1.236,0,0,0-.644-.175,1.254,1.254,0,0,0-.647.175,1.31,1.31,0,0,0-.472.472,1.254,1.254,0,0,0-.175.648,1.236,1.236,0,0,0,.175.644,1.319,1.319,0,0,0,.472.469A1.254,1.254,0,0,0,40.495-1.155Zm5.642-3.794H47.4V0h-1.26L44.681-2.653V0H43.414V-4.949h1.267L46.137-2.3ZM53.5-3.878H51.317v.868h1.75v1.071h-1.75V0h-1.26V-4.949H53.5Zm3-1.022L58.114,0H56.9l-.322-1H55.041l-.315,1H53.5l1.624-4.9ZM55.37-2.023h.882l-.441-1.386Zm5.243.854a1.254,1.254,0,0,0,.5-.1,1.383,1.383,0,0,0,.42-.277l.854.854a2.513,2.513,0,0,1-.805.543,2.454,2.454,0,0,1-.966.192A2.436,2.436,0,0,1,59.36-.294a2.5,2.5,0,0,1-.91-.91,2.436,2.436,0,0,1-.336-1.253,2.455,2.455,0,0,1,.336-1.257,2.494,2.494,0,0,1,.91-.913,2.436,2.436,0,0,1,1.253-.336,2.454,2.454,0,0,1,.966.193,2.513,2.513,0,0,1,.805.543l-.854.854a1.383,1.383,0,0,0-.42-.277,1.254,1.254,0,0,0-.5-.1,1.236,1.236,0,0,0-.644.175A1.319,1.319,0,0,0,59.5-3.1a1.254,1.254,0,0,0-.175.648,1.236,1.236,0,0,0,.175.644,1.328,1.328,0,0,0,.469.469A1.236,1.236,0,0,0,60.613-1.169Zm5.558.1V0H62.8V-4.949h3.3v1.071H64.071v.868h1.715v1.071H64.071v.868Zm3.85-1.519a1.4,1.4,0,0,1,.441.5,1.394,1.394,0,0,1,.161.661,1.39,1.39,0,0,1-.189.711,1.422,1.422,0,0,1-.515.518A1.435,1.435,0,0,1,69.2,0H66.731V-4.956h2.247a1.359,1.359,0,0,1,.721.2,1.439,1.439,0,0,1,.507.518,1.378,1.378,0,0,1,.186.7,1.39,1.39,0,0,1-.1.515A1.385,1.385,0,0,1,70.021-2.59Zm-.714-.833a.5.5,0,0,0-.151-.368.492.492,0,0,0-.36-.151h-.91v1.05h.91a1.21,1.21,0,0,0,.168-.028.442.442,0,0,0,.126-.07.521.521,0,0,0,.161-.189A.54.54,0,0,0,69.307-3.423Zm-.3,2.408a.512.512,0,0,0,.36-.161.488.488,0,0,0,.144-.371.506.506,0,0,0-.119-.332.5.5,0,0,0-.3-.179q-.042-.007-.994-.007h-.21v1.05h1.12Zm4.4-3.934a2.436,2.436,0,0,1,1.253.336,2.494,2.494,0,0,1,.91.914,2.455,2.455,0,0,1,.336,1.257,2.436,2.436,0,0,1-.336,1.253,2.5,2.5,0,0,1-.91.91,2.436,2.436,0,0,1-1.253.336A2.455,2.455,0,0,1,72.153-.28a2.494,2.494,0,0,1-.914-.91A2.436,2.436,0,0,1,70.9-2.443,2.455,2.455,0,0,1,71.239-3.7a2.486,2.486,0,0,1,.914-.914A2.455,2.455,0,0,1,73.409-4.949Zm0,3.794a1.236,1.236,0,0,0,.644-.175,1.328,1.328,0,0,0,.469-.469,1.236,1.236,0,0,0,.175-.644,1.254,1.254,0,0,0-.175-.648,1.319,1.319,0,0,0-.469-.472,1.236,1.236,0,0,0-.644-.175,1.254,1.254,0,0,0-.648.175,1.31,1.31,0,0,0-.472.472,1.254,1.254,0,0,0-.175.648,1.236,1.236,0,0,0,.175.644,1.319,1.319,0,0,0,.472.469A1.254,1.254,0,0,0,73.409-1.155Zm5.285-3.794a2.436,2.436,0,0,1,1.253.336,2.494,2.494,0,0,1,.91.914,2.455,2.455,0,0,1,.336,1.257,2.436,2.436,0,0,1-.336,1.253,2.5,2.5,0,0,1-.91.91,2.436,2.436,0,0,1-1.253.336A2.455,2.455,0,0,1,77.438-.28a2.494,2.494,0,0,1-.914-.91,2.436,2.436,0,0,1-.336-1.253A2.455,2.455,0,0,1,76.524-3.7a2.486,2.486,0,0,1,.914-.914A2.455,2.455,0,0,1,78.694-4.949Zm0,3.794a1.236,1.236,0,0,0,.644-.175,1.328,1.328,0,0,0,.469-.469,1.236,1.236,0,0,0,.175-.644,1.254,1.254,0,0,0-.175-.648,1.319,1.319,0,0,0-.469-.472,1.236,1.236,0,0,0-.644-.175,1.254,1.254,0,0,0-.648.175,1.31,1.31,0,0,0-.472.472,1.254,1.254,0,0,0-.175.648,1.236,1.236,0,0,0,.175.644,1.319,1.319,0,0,0,.472.469A1.254,1.254,0,0,0,78.694-1.155ZM84.014-2.5,85.491,0h-1.4L82.873-2V0h-1.26V-4.949h1.26v1.932l1.218-1.932h1.4Z" transform="translate(16.937 12.899)" fill="#fff"/>
    <path id="SHARE_LAST_POST" data-name="SHARE LAST POST" d="M2.541-3.381v-.091a.437.437,0,0,0-.171-.347.627.627,0,0,0-.417-.144.666.666,0,0,0-.43.144.431.431,0,0,0-.179.347.321.321,0,0,0,.182.3,1.523,1.523,0,0,0,.476.2q.049.007.109.021l.122.028a2.425,2.425,0,0,1,1,.413l.063.056a1.5,1.5,0,0,1,.332.483,1.387,1.387,0,0,1,.122.56,1.385,1.385,0,0,1-.137.6,1.558,1.558,0,0,1-.4.511,1.873,1.873,0,0,1-.588.332,2.056,2.056,0,0,1-.686.116A2.026,2.026,0,0,1,1.264.032,1.882,1.882,0,0,1,.679-.3a1.6,1.6,0,0,1-.4-.511,1.356,1.356,0,0,1-.14-.6V-1.5H1.365v.091a.437.437,0,0,0,.171.347.618.618,0,0,0,.41.143.666.666,0,0,0,.43-.143.431.431,0,0,0,.178-.347.4.4,0,0,0-.189-.308.782.782,0,0,0-.2-.105A2.814,2.814,0,0,0,1.9-1.911l-.231-.056q-.385-.1-.6-.175a1.209,1.209,0,0,1-.4-.238L.637-2.408A1.573,1.573,0,0,1,.27-2.9a1.323,1.323,0,0,1-.13-.574,1.356,1.356,0,0,1,.14-.6,1.6,1.6,0,0,1,.4-.511,1.882,1.882,0,0,1,.585-.333,2.026,2.026,0,0,1,.683-.115,2.056,2.056,0,0,1,.686.115,1.873,1.873,0,0,1,.588.333,1.558,1.558,0,0,1,.4.511,1.385,1.385,0,0,1,.137.6v.091ZM6.846-4.949h1.26V0H6.846V-1.848H5.432V0H4.172V-4.949h1.26v1.841H6.846Zm4.4.049L12.859,0H11.641l-.322-1H9.786L9.471,0H8.246L9.87-4.9ZM10.115-2.023H11l-.441-1.386ZM17.038,0H15.771l-.784-1.869h-.8V0H13V-4.949h2.359a1.512,1.512,0,0,1,.77.207,1.518,1.518,0,0,1,.563.564,1.512,1.512,0,0,1,.206.77,1.493,1.493,0,0,1-.189.739,1.6,1.6,0,0,1-.511.556Zm-1.26-3.416a.517.517,0,0,0-.133-.353.469.469,0,0,0-.329-.165H14.154v1.05h1.162a.5.5,0,0,0,.329-.171A.526.526,0,0,0,15.778-3.416Zm5.047,2.345V0H17.458V-4.949h3.3v1.071H18.725v.868H20.44v1.071H18.725v.868Zm3.92-.119h1.946V0H23.485V-4.949h1.26ZM29.757-4.9,31.374,0H30.156l-.322-1H28.3l-.315,1H26.761l1.624-4.9ZM28.63-2.023h.882l-.441-1.386Zm5.145-1.358v-.091a.437.437,0,0,0-.172-.347.627.627,0,0,0-.417-.144.666.666,0,0,0-.431.144.431.431,0,0,0-.178.347.321.321,0,0,0,.182.3,1.523,1.523,0,0,0,.476.2q.049.007.109.021l.123.028a2.425,2.425,0,0,1,1,.413l.063.056a1.5,1.5,0,0,1,.333.483,1.387,1.387,0,0,1,.122.56,1.385,1.385,0,0,1-.136.6,1.558,1.558,0,0,1-.4.511,1.873,1.873,0,0,1-.588.332,2.056,2.056,0,0,1-.686.116A2.026,2.026,0,0,1,32.5.032,1.882,1.882,0,0,1,31.913-.3a1.6,1.6,0,0,1-.4-.511,1.356,1.356,0,0,1-.14-.6V-1.5H32.6v.091a.437.437,0,0,0,.171.347.618.618,0,0,0,.41.143.666.666,0,0,0,.431-.143.431.431,0,0,0,.179-.347.4.4,0,0,0-.189-.308.782.782,0,0,0-.2-.105,2.813,2.813,0,0,0-.273-.084L32.9-1.967q-.385-.1-.6-.175a1.209,1.209,0,0,1-.4-.238l-.028-.028A1.573,1.573,0,0,1,31.5-2.9a1.323,1.323,0,0,1-.13-.574,1.356,1.356,0,0,1,.14-.6,1.6,1.6,0,0,1,.4-.511,1.882,1.882,0,0,1,.584-.333,2.026,2.026,0,0,1,.682-.115,2.056,2.056,0,0,1,.686.115,1.873,1.873,0,0,1,.588.333,1.558,1.558,0,0,1,.4.511,1.385,1.385,0,0,1,.136.6v.091Zm5.362-1.568v1.26H37.87V0H36.6V-3.689H35.336v-1.26h3.8Zm4.949,0a1.506,1.506,0,0,1,.773.207,1.534,1.534,0,0,1,.56.56,1.506,1.506,0,0,1,.207.774,1.506,1.506,0,0,1-.207.774,1.534,1.534,0,0,1-.56.56,1.506,1.506,0,0,1-.773.207H42.91V0H41.727V-4.949Zm.427,1.533a.509.509,0,0,0-.137-.353.481.481,0,0,0-.333-.165H42.882v1.05h1.162a.471.471,0,0,0,.333-.171A.535.535,0,0,0,44.513-3.416Zm3.9-1.533a2.436,2.436,0,0,1,1.253.336,2.494,2.494,0,0,1,.91.914,2.455,2.455,0,0,1,.336,1.257,2.436,2.436,0,0,1-.336,1.253,2.5,2.5,0,0,1-.91.91,2.436,2.436,0,0,1-1.253.336A2.455,2.455,0,0,1,47.155-.28a2.494,2.494,0,0,1-.913-.91,2.436,2.436,0,0,1-.336-1.253A2.455,2.455,0,0,1,46.242-3.7a2.486,2.486,0,0,1,.913-.914A2.455,2.455,0,0,1,48.412-4.949Zm0,3.794a1.236,1.236,0,0,0,.644-.175,1.328,1.328,0,0,0,.469-.469,1.236,1.236,0,0,0,.175-.644,1.254,1.254,0,0,0-.175-.648,1.319,1.319,0,0,0-.469-.472,1.236,1.236,0,0,0-.644-.175,1.254,1.254,0,0,0-.647.175,1.31,1.31,0,0,0-.472.472,1.254,1.254,0,0,0-.175.648,1.236,1.236,0,0,0,.175.644,1.319,1.319,0,0,0,.472.469A1.254,1.254,0,0,0,48.412-1.155Zm5.18-2.226v-.091a.437.437,0,0,0-.172-.347A.627.627,0,0,0,53-3.962a.666.666,0,0,0-.431.144.431.431,0,0,0-.178.347.321.321,0,0,0,.182.3,1.523,1.523,0,0,0,.476.2q.049.007.109.021l.123.028a2.425,2.425,0,0,1,1,.413l.063.056a1.5,1.5,0,0,1,.333.483,1.387,1.387,0,0,1,.122.56,1.385,1.385,0,0,1-.136.6,1.558,1.558,0,0,1-.4.511,1.873,1.873,0,0,1-.588.332A2.056,2.056,0,0,1,53,.147a2.026,2.026,0,0,1-.682-.116A1.882,1.882,0,0,1,51.73-.3a1.6,1.6,0,0,1-.4-.511,1.356,1.356,0,0,1-.14-.6V-1.5h1.225v.091a.437.437,0,0,0,.171.347A.618.618,0,0,0,53-.924a.665.665,0,0,0,.431-.143.431.431,0,0,0,.179-.347.4.4,0,0,0-.189-.308.782.782,0,0,0-.2-.105,2.814,2.814,0,0,0-.273-.084l-.231-.056q-.385-.1-.6-.175a1.209,1.209,0,0,1-.4-.238l-.028-.028a1.573,1.573,0,0,1-.368-.49,1.323,1.323,0,0,1-.13-.574,1.356,1.356,0,0,1,.14-.6,1.6,1.6,0,0,1,.4-.511,1.882,1.882,0,0,1,.584-.333A2.026,2.026,0,0,1,53-5.033a2.056,2.056,0,0,1,.686.115,1.873,1.873,0,0,1,.588.333,1.558,1.558,0,0,1,.4.511,1.385,1.385,0,0,1,.136.6v.091Zm5.362-1.568v1.26H57.687V0H56.42V-3.689H55.153v-1.26h3.8Z" transform="translate(16.937 31.547)" fill="#fff"/>
    <path id="JOIN_OUR_COMMUNITY" data-name="JOIN OUR COMMUNITY" d="M2.877-4.963H4.046V-1.9a1.9,1.9,0,0,1-.262.98,1.957,1.957,0,0,1-.711.711,1.9,1.9,0,0,1-.98.263,1.9,1.9,0,0,1-.98-.263A1.957,1.957,0,0,1,.4-.924,1.9,1.9,0,0,1,.14-1.9v-.2H1.309a1.1,1.1,0,0,0,.224.669.681.681,0,0,0,.56.262.678.678,0,0,0,.564-.29,1.152,1.152,0,0,0,.22-.717Zm4.1.014a2.436,2.436,0,0,1,1.253.336,2.494,2.494,0,0,1,.91.914,2.455,2.455,0,0,1,.336,1.257A2.436,2.436,0,0,1,9.135-1.19a2.5,2.5,0,0,1-.91.91A2.436,2.436,0,0,1,6.972.056,2.455,2.455,0,0,1,5.716-.28,2.494,2.494,0,0,1,4.8-1.19a2.436,2.436,0,0,1-.336-1.253A2.455,2.455,0,0,1,4.8-3.7a2.486,2.486,0,0,1,.914-.914A2.455,2.455,0,0,1,6.972-4.949Zm0,3.794a1.236,1.236,0,0,0,.644-.175A1.328,1.328,0,0,0,8.085-1.8a1.236,1.236,0,0,0,.175-.644,1.254,1.254,0,0,0-.175-.648,1.319,1.319,0,0,0-.469-.472,1.236,1.236,0,0,0-.644-.175,1.254,1.254,0,0,0-.648.175,1.31,1.31,0,0,0-.472.472,1.254,1.254,0,0,0-.175.648,1.236,1.236,0,0,0,.175.644,1.319,1.319,0,0,0,.472.469A1.254,1.254,0,0,0,6.972-1.155Zm4.179-3.794V0H9.891V-4.949Zm3.283,0h1.26V0h-1.26L12.978-2.653V0H11.711V-4.949h1.267L14.434-2.3Zm6.286,0a2.436,2.436,0,0,1,1.253.336,2.494,2.494,0,0,1,.91.914,2.455,2.455,0,0,1,.336,1.257,2.436,2.436,0,0,1-.336,1.253,2.5,2.5,0,0,1-.91.91A2.436,2.436,0,0,1,20.72.056,2.455,2.455,0,0,1,19.463-.28a2.494,2.494,0,0,1-.913-.91,2.436,2.436,0,0,1-.336-1.253A2.455,2.455,0,0,1,18.55-3.7a2.486,2.486,0,0,1,.913-.914A2.455,2.455,0,0,1,20.72-4.949Zm0,3.794a1.236,1.236,0,0,0,.644-.175,1.328,1.328,0,0,0,.469-.469,1.236,1.236,0,0,0,.175-.644,1.254,1.254,0,0,0-.175-.648,1.319,1.319,0,0,0-.469-.472,1.236,1.236,0,0,0-.644-.175,1.254,1.254,0,0,0-.647.175,1.31,1.31,0,0,0-.473.472,1.254,1.254,0,0,0-.175.648A1.236,1.236,0,0,0,19.6-1.8a1.319,1.319,0,0,0,.473.469A1.254,1.254,0,0,0,20.72-1.155Zm6.944-3.787v3.059A1.9,1.9,0,0,1,27.4-.9a1.949,1.949,0,0,1-.714.711A1.922,1.922,0,0,1,25.7.07h-.112a1.9,1.9,0,0,1-.98-.263A1.957,1.957,0,0,1,23.9-.9a1.9,1.9,0,0,1-.262-.98V-4.942h1.169v2.779a1.189,1.189,0,0,0,.21.721.673.673,0,0,0,.574.287H25.7a.685.685,0,0,0,.571-.29,1.152,1.152,0,0,0,.22-.718V-4.942ZM32.263,0H31l-.784-1.869h-.805V0H28.224V-4.949h2.359a1.512,1.512,0,0,1,.77.207,1.518,1.518,0,0,1,.563.564,1.512,1.512,0,0,1,.207.77,1.493,1.493,0,0,1-.189.739,1.6,1.6,0,0,1-.511.556ZM31-3.416a.517.517,0,0,0-.133-.353.469.469,0,0,0-.329-.165H29.379v1.05h1.162a.5.5,0,0,0,.329-.171A.526.526,0,0,0,31-3.416Zm6.139,2.247a1.254,1.254,0,0,0,.5-.1,1.383,1.383,0,0,0,.42-.277l.854.854a2.513,2.513,0,0,1-.805.543,2.454,2.454,0,0,1-.966.192,2.436,2.436,0,0,1-1.253-.336,2.5,2.5,0,0,1-.91-.91,2.436,2.436,0,0,1-.336-1.253,2.455,2.455,0,0,1,.336-1.257,2.494,2.494,0,0,1,.91-.913,2.436,2.436,0,0,1,1.253-.336,2.454,2.454,0,0,1,.966.193,2.513,2.513,0,0,1,.805.543l-.854.854a1.383,1.383,0,0,0-.42-.277,1.254,1.254,0,0,0-.5-.1,1.236,1.236,0,0,0-.644.175,1.319,1.319,0,0,0-.469.473,1.254,1.254,0,0,0-.175.648,1.236,1.236,0,0,0,.175.644,1.328,1.328,0,0,0,.469.469A1.236,1.236,0,0,0,37.142-1.169ZM41.7-4.949a2.436,2.436,0,0,1,1.253.336,2.494,2.494,0,0,1,.91.914A2.455,2.455,0,0,1,44.2-2.443a2.436,2.436,0,0,1-.336,1.253,2.5,2.5,0,0,1-.91.91A2.436,2.436,0,0,1,41.7.056,2.455,2.455,0,0,1,40.442-.28a2.494,2.494,0,0,1-.913-.91,2.436,2.436,0,0,1-.336-1.253A2.455,2.455,0,0,1,39.529-3.7a2.486,2.486,0,0,1,.913-.914A2.455,2.455,0,0,1,41.7-4.949Zm0,3.794a1.236,1.236,0,0,0,.644-.175,1.328,1.328,0,0,0,.469-.469,1.236,1.236,0,0,0,.175-.644,1.254,1.254,0,0,0-.175-.648,1.319,1.319,0,0,0-.469-.472,1.236,1.236,0,0,0-.644-.175,1.254,1.254,0,0,0-.647.175,1.31,1.31,0,0,0-.472.472,1.254,1.254,0,0,0-.175.648,1.236,1.236,0,0,0,.175.644,1.319,1.319,0,0,0,.472.469A1.254,1.254,0,0,0,41.7-1.155Zm6.734-3.794h1.26V0h-1.26V-2.793l-.616,1.12-.028.056h-1.26l-.035-.056-.084-.161-.525-.959V0H44.618V-4.949h1.267l1.274,2.107Zm5.635,0h1.26V0h-1.26V-2.793l-.616,1.12-.028.056h-1.26l-.035-.056-.084-.161-.525-.959V0H50.253V-4.949H51.52l1.274,2.107Zm5.845.007v3.059a1.9,1.9,0,0,1-.263.98,1.949,1.949,0,0,1-.714.711,1.922,1.922,0,0,1-.983.263h-.112a1.9,1.9,0,0,1-.98-.263,1.957,1.957,0,0,1-.71-.711,1.9,1.9,0,0,1-.263-.98V-4.942h1.169v2.779a1.189,1.189,0,0,0,.21.721.673.673,0,0,0,.574.287h.112a.685.685,0,0,0,.57-.29,1.152,1.152,0,0,0,.221-.718V-4.942ZM63.2-4.949h1.26V0H63.2L61.74-2.653V0H60.473V-4.949H61.74L63.2-2.3Zm3.08,0V0h-1.26V-4.949Zm4.291,0v1.26H69.3V0H68.033V-3.689H66.766v-1.26h3.8Zm3.122,0h1.26L73.493-2.016V0h-1.26V-2.016L70.777-4.949h1.26l.826,1.687Z" transform="translate(16.937 50.195)" fill="#fff"/>
    <path id="RECEIVE_BOUNTY" data-name="RECEIVE BOUNTY" d="M4.936,0H3.488l-.9-2.136h-.92V0H.32V-5.656h2.7a1.728,1.728,0,0,1,.88.236,1.735,1.735,0,0,1,.644.644,1.728,1.728,0,0,1,.236.88,1.707,1.707,0,0,1-.216.844,1.83,1.83,0,0,1-.584.636ZM3.5-3.9a.591.591,0,0,0-.152-.4A.536.536,0,0,0,2.968-4.5H1.64v1.2H2.968a.567.567,0,0,0,.376-.2A.6.6,0,0,0,3.5-3.9Zm5.768,2.68V0H5.416V-5.656H9.192v1.224H6.864v.992h1.96v1.224H6.864v.992ZM12.6-1.336a1.433,1.433,0,0,0,.568-.116,1.581,1.581,0,0,0,.48-.316l.976.976a2.872,2.872,0,0,1-.92.62,2.8,2.8,0,0,1-1.1.22,2.784,2.784,0,0,1-1.432-.384,2.86,2.86,0,0,1-1.04-1.04,2.784,2.784,0,0,1-.384-1.432,2.806,2.806,0,0,1,.384-1.436,2.851,2.851,0,0,1,1.04-1.044A2.784,2.784,0,0,1,12.6-5.672a2.8,2.8,0,0,1,1.1.22,2.872,2.872,0,0,1,.92.62l-.976.976a1.581,1.581,0,0,0-.48-.316,1.433,1.433,0,0,0-.568-.116,1.413,1.413,0,0,0-.736.2,1.508,1.508,0,0,0-.536.54,1.434,1.434,0,0,0-.2.74,1.413,1.413,0,0,0,.2.736,1.518,1.518,0,0,0,.536.536A1.413,1.413,0,0,0,12.6-1.336Zm6.352.112V0H15.1V-5.656H18.88v1.224H16.552v.992h1.96v1.224h-1.96v.992Zm2.08-4.432V0h-1.44V-5.656Zm4.36-.016H26.96L25.112,0h-1.76l-1.84-5.672H23.1L24.24-2.136Zm5.9,4.448V0H27.44V-5.656h3.776v1.224H28.888v.992h1.96v1.224h-1.96v.992Zm6.8-1.736a1.6,1.6,0,0,1,.5.572,1.593,1.593,0,0,1,.184.756,1.589,1.589,0,0,1-.216.812,1.626,1.626,0,0,1-.588.592,1.64,1.64,0,0,1-.82.228H34.328V-5.664H36.9a1.553,1.553,0,0,1,.824.224,1.645,1.645,0,0,1,.58.592,1.575,1.575,0,0,1,.212.8,1.589,1.589,0,0,1-.112.588A1.583,1.583,0,0,1,38.088-2.96Zm-.816-.952a.571.571,0,0,0-.172-.42.562.562,0,0,0-.412-.172h-1.04v1.2h1.04a1.383,1.383,0,0,0,.192-.032.5.5,0,0,0,.144-.08.6.6,0,0,0,.184-.216A.617.617,0,0,0,37.272-3.912ZM36.928-1.16a.585.585,0,0,0,.412-.184.557.557,0,0,0,.164-.424.578.578,0,0,0-.136-.38.576.576,0,0,0-.344-.2q-.048-.008-1.136-.008h-.24v1.2h1.28Zm5.032-4.5a2.784,2.784,0,0,1,1.432.384,2.851,2.851,0,0,1,1.04,1.044,2.806,2.806,0,0,1,.384,1.436,2.784,2.784,0,0,1-.384,1.432,2.86,2.86,0,0,1-1.04,1.04A2.784,2.784,0,0,1,41.96.064,2.806,2.806,0,0,1,40.524-.32,2.851,2.851,0,0,1,39.48-1.36,2.784,2.784,0,0,1,39.1-2.792a2.806,2.806,0,0,1,.384-1.436,2.841,2.841,0,0,1,1.044-1.044A2.806,2.806,0,0,1,41.96-5.656Zm0,4.336a1.413,1.413,0,0,0,.736-.2,1.518,1.518,0,0,0,.536-.536,1.413,1.413,0,0,0,.2-.736,1.434,1.434,0,0,0-.2-.74,1.508,1.508,0,0,0-.536-.54,1.413,1.413,0,0,0-.736-.2,1.434,1.434,0,0,0-.74.2,1.5,1.5,0,0,0-.54.54,1.434,1.434,0,0,0-.2.74,1.413,1.413,0,0,0,.2.736,1.508,1.508,0,0,0,.54.536A1.434,1.434,0,0,0,41.96-1.32ZM49.9-5.648v3.5a2.176,2.176,0,0,1-.3,1.12,2.227,2.227,0,0,1-.816.812,2.2,2.2,0,0,1-1.124.3h-.128a2.176,2.176,0,0,1-1.12-.3,2.237,2.237,0,0,1-.812-.812,2.176,2.176,0,0,1-.3-1.12v-3.5h1.336v3.176a1.359,1.359,0,0,0,.24.824.769.769,0,0,0,.656.328h.128a.783.783,0,0,0,.652-.332,1.317,1.317,0,0,0,.252-.82V-5.648Zm3.752-.008h1.44V0h-1.44L51.984-3.032V0H50.536V-5.656h1.448l1.664,3.032Zm6.344,0v1.44H58.544V0H57.1V-4.216H55.648v-1.44h4.344Zm3.568,0H65L63.336-2.3V0H61.9V-2.3L60.232-5.656h1.44l.944,1.928Z" transform="translate(16.937 68.857)" fill="#fff"/>
    <g id="Сгруппировать_3255" data-name="Сгруппировать 3255">
      <path id="Контур_4191" data-name="Контур 4191" d="M4591.07,2843.58h-8.37l-.479-8.432,8.852.06Z" transform="translate(-4580.943 -2827.761)" fill="#ffec00"/>
      <path id="Контур_4192" data-name="Контур 4192" d="M4576.4,2807.84c0,.159,6.274,8.4,6.274,8.4l13.985-14.782-13.4,9.252Z" transform="translate(-4576.396 -2801.464)" fill="#e6345e"/>
    </g>
    <g id="Сгруппировать_3256" data-name="Сгруппировать 3256" transform="translate(0 17.486)">
      <path id="Контур_4193" data-name="Контур 4193" d="M4582.22,2923.28h8.372l.479-8.432-8.852.06Z" transform="translate(-4580.943 -2907.461)" fill="#ffec00"/>
      <path id="Контур_4194" data-name="Контур 4194" d="M4576.4,2887.54c0,.16,6.274,8.4,6.274,8.4l13.985-14.782-13.4,9.252Z" transform="translate(-4576.396 -2881.163)" fill="#e6345e"/>
    </g>
    <g id="Сгруппировать_3257" data-name="Сгруппировать 3257" transform="translate(0 36.147)">
      <path id="Контур_4195" data-name="Контур 4195" d="M4591.07,3008.34h-8.37l-.479-8.432,8.852.06Z" transform="translate(-4580.943 -2992.516)" fill="#ffec00"/>
      <path id="Контур_4196" data-name="Контур 4196" d="M4576.4,2972.6c0,.159,6.274,8.4,6.274,8.4l13.985-14.782-13.4,9.252Z" transform="translate(-4576.396 -2966.219)" fill="#e6345e"/>
    </g>
    <g id="Сгруппировать_3258" data-name="Сгруппировать 3258" transform="translate(1.278 62.517)">
      <path id="Контур_4197" data-name="Контур 4197" d="M4582.22,3094.84h8.372l.479-8.432-8.852.06Z" transform="translate(-4582.222 -3086.409)" fill="#ffec00"/>
    </g>
  </g>
</svg>
