<svg id="Сгруппировать_11" data-name="Сгруппировать 11" xmlns="http://www.w3.org/2000/svg" width="300.397" height="225.328" viewBox="0 0 300.397 225.328">
  <g id="Сгруппировать_3266" data-name="Сгруппировать 3266">
    <g id="Сгруппировать_3264" data-name="Сгруппировать 3264">
      <path id="Контур_4202" data-name="Контур 4202" d="M4710.438,2081.4q-39.437,1.37-78.876,2.883-29.752,1.1-59.5,2.167c-3.906.139-4.03-.066-3.876-4.007q2.46-63.2,4.907-126.4,1.784-45.709,3.551-91.416c.1-2.717.943-3.566,3.434-3.469q47.958,1.852,95.921,3.555,17.335.636,34.667,1.3c3.415.131,3.471.209,3.466,3.788q-.059,51.942-.124,103.884h.026q-.062,52.075-.077,104.15C4713.958,2080.438,4713.063,2081.31,4710.438,2081.4Z" transform="translate(-4568.145 -1861.152)" fill="#fed841"/>
      <path id="Контур_4203" data-name="Контур 4203" d="M5008.156,2080.674q-39.44,1.374-78.876,2.885-29.751,1.1-59.5,2.168c-3.906.14-4.039-.056-4.042-3.8q-.065-60.1-.143-120.206c-.029-28.979-.011-57.955-.1-86.935-.008-2.583.8-3.39,3.29-3.293q47.962,1.849,95.923,3.554,17.333.636,34.667,1.3c3.415.131,3.475.2,3.62,3.6q2.117,49.273,4.228,98.545h.026q2.119,49.4,4.286,98.8C5011.641,2079.755,5010.781,2080.582,5008.156,2080.674Z" transform="translate(-4711.142 -1866.12)" fill="#fed841"/>
    </g>
    <g id="Сгруппировать_3265" data-name="Сгруппировать 3265" transform="translate(13.999 10.732)">
      <path id="Контур_4204" data-name="Контур 4204" d="M5007.068,1953.931l-125.408-1.2q-.127-35.45-.255-70.9l122.894,4.29Q5005.684,1920.024,5007.068,1953.931Z" transform="translate(-4732.795 -1881.826)" fill="#e7335d"/>
      <path id="Контур_4205" data-name="Контур 4205" d="M4659.879,1938.979l-49.219-.72c-4.854-.07-6.233-1.6-6.055-6.662q.672-19.1,1.329-38.209c.214-6.216,1.752-7.687,7.533-7.495q47.457,1.582,94.914,3.113a16.068,16.068,0,0,1,3.274.327,4.413,4.413,0,0,1,3.7,4.724q-.053,20.6-.242,41.193c-.029,3.063-1.833,4.5-5.3,4.455Q4684.846,1939.358,4659.879,1938.979Zm.616-9.106c2.846.479,6.421.154,9.989.213,11.1.183,22.191.483,33.286.807,1.968.057,2.654-.693,2.66-2.692.025-8.959.165-17.917.244-26.876.027-3-.246-3.288-3.014-3.369q-42.957-1.265-85.916-2.52c-2.961-.086-3.078.018-3.183,3.184q-.455,13.744-.884,27.487c-.1,2.995.164,3.391,3.056,3.186,4.533-.321,9.034.173,13.561.127C4640.125,1929.322,4649.953,1929.685,4660.5,1929.872Z" transform="translate(-4599.671 -1883.774)"/>
      <path id="Контур_4206" data-name="Контур 4206" d="M4760.869,2178.913c-.036,5.661-.048,11.321-.111,16.982-.03,2.856-1.617,4.024-5.754,4.151q-24.019.735-48.037,1.4c-4.275.118-5.944-1.075-5.888-4.172q.312-16.964.725-33.93c.082-3.336,1.668-4.429,6.361-4.5q23.5-.366,47-.69c4.28-.059,5.787.961,5.79,3.951C4760.966,2167.707,4760.905,2173.311,4760.869,2178.913Zm-29.876,15.359v-.024c5.766-.154,11.53-.288,17.294-.47,3.141-.1,3.419-.271,3.448-2.471.11-8.165.137-16.328.244-24.492.02-1.5-.724-2.191-2.992-2.146q-17.65.353-35.295.575c-2.14.028-2.873.7-2.892,2.172q-.163,12.679-.474,25.36c-.038,1.515.754,2.07,2.877,1.992C4719.134,2194.551,4725.063,2194.431,4730.993,2194.272Z" transform="translate(-4646.073 -2014.715)"/>
      <path id="Контур_4207" data-name="Контур 4207" d="M4630.757,2002.79c7.736.093,15.474.167,23.211.284,4.338.066,5.742,1.582,5.652,6q-.449,21.827-.916,43.654c-.1,4.687-1.457,5.948-6.105,6.006-12.208.15-24.42.372-36.628.453-3.4.022-6.783-.078-10.187.009-4.073.105-5.824-1.841-5.684-5.919q.756-22.125,1.6-44.252c.2-5.14,1.655-6.52,6.563-6.471,7.5.074,15,.175,22.495.264Zm-1.31,47.143c0-.009,0-.018,0-.027,5.973-.022,11.949-.074,17.92-.049,1.711.007,2.546-.634,2.582-2.466q.317-16.03.724-32.061c.061-2.338-.863-3.213-3.109-3.216-11.267-.013-22.53-.149-33.8-.194-3.089-.012-3.255.175-3.372,3.452-.38,10.664-.692,21.329-1.1,31.993-.073,1.947.581,2.692,2.47,2.661C4617.663,2049.93,4623.554,2049.955,4629.447,2049.933Z" transform="translate(-4597.507 -1939.883)"/>
      <path id="Контур_4208" data-name="Контур 4208" d="M4621.2,2159.365c6.676-.1,13.352-.125,20.029-.337,2.372-.075,3.309.646,3.265,3.193-.128,7.186-.1,6.01-6.035,6.141q-18.365.406-36.729.705c-4.211.073-4.209.032-4.121-4.234.106-5.1.106-5.1,5.026-5.167q9.281-.13,18.564-.276C4621.2,2159.382,4621.2,2159.373,4621.2,2159.365Z" transform="translate(-4596.305 -2015.133)"/>
      <path id="Контур_4209" data-name="Контур 4209" d="M4619.678,2201.637c-6.806.159-13.611.258-20.419.51-2.34.087-3.16-.8-3.008-3.194.432-6.833-.352-6.159,6.139-6.31,12.6-.294,25.193-.506,37.79-.749,3.086-.059,3.348.188,3.232,3.351-.244,6.645.229,5.792-5.776,5.954-5.986.162-11.972.285-17.958.425Z" transform="translate(-4595.652 -2030.938)"/>
      <path id="Контур_4210" data-name="Контур 4210" d="M4618.452,2234.494c-6.837.2-13.672.339-20.51.624-2.1.088-2.934-.583-2.818-2.814.383-7.44-.492-6.478,6.5-6.676q18.363-.52,36.726-.994c4.08-.105,4.2.041,4.134,4.019-.086,5.164-.086,5.165-5.253,5.316q-9.389.272-18.779.541Z" transform="translate(-4595.113 -2046.676)"/>
      <path id="Контур_4211" data-name="Контур 4211" d="M4655.419,2125.734q24.207-.227,48.412-.446c7.518-.059,7.869.122,7.972,3.283.188,5.705.188,5.7-14,5.868q-45.568.539-91.138,1.088c-7.5.09-8.1-.135-7.921-3.34.38-6.908-1.047-5.838,14.164-6.024,14.17-.173,28.34-.275,42.51-.408Z" transform="translate(-4596.848 -1998.906)"/>
      <path id="Контур_4212" data-name="Контур 4212" d="M4752.247,2021.079c-6.724-.051-13.449-.137-20.174-.125-1.777,0-2.628-.5-2.553-2.524.284-7.709-.867-6.665,6.333-6.622q17.608.107,35.214.323c4.03.043,4.072.077,4.027,4.032-.06,5.476.631,5.074-5.075,5.061-5.925-.013-11.848-.081-17.772-.125Z" transform="translate(-4659.75 -1944.303)"/>
      <path id="Контур_4213" data-name="Контур 4213" d="M4751.771,2053.444c-6.67-.011-13.34-.083-20.011,0-2.147.028-3.011-.667-2.883-2.963.359-6.48-1.073-6.246,6.177-6.219,12.1.044,24.206.146,36.31.22,3.271.021,3.35.065,3.3,3.448-.088,6.394.757,5.488-5.538,5.519-5.787.029-11.572-.011-17.359-.021Z" transform="translate(-4659.437 -1959.94)"/>
      <path id="Контур_4214" data-name="Контур 4214" d="M4751.029,2085.79c-6.71.026-13.419-.007-20.13.115-2,.036-2.652-.662-2.622-2.694.093-6.12.027-6.123,6.024-6.17q17.51-.137,35.02-.261c5.07-.029,5.07,0,4.982,5.051-.067,3.858-.067,3.873-3.873,3.9q-9.7.056-19.4.079Z" transform="translate(-4659.153 -1975.58)"/>
      <path id="Контур_4215" data-name="Контур 4215" d="M4950.938,2138.369l50.306-.612c4.96-.06,6.478,1.3,6.657,5.923q.676,17.449,1.37,34.9c.228,5.674-1.28,7.109-7.358,7.281q-49.889,1.4-99.775,2.851a17.807,17.807,0,0,1-3.445-.118c-2.551-.431-3.915-1.886-3.937-4.428q-.177-20.314-.216-40.631c0-3.024,1.823-4.491,5.362-4.536Q4925.419,2138.666,4950.938,2138.369Zm-.251,8.659c-2.94-.364-6.6.061-10.261.121-11.4.186-22.8.26-34.194.306-2.021.008-2.713.765-2.687,2.726.12,8.782.121,17.566.184,26.35.021,2.939.31,3.208,3.206,3.134q44.93-1.156,89.861-2.32c3.1-.08,3.212-.182,3.107-3.092q-.452-12.63-.931-25.26c-.1-2.752-.395-3.108-3.349-2.827-4.629.44-9.28.128-13.92.315C4971.622,2146.886,4961.516,2146.864,4950.687,2147.028Z" transform="translate(-4739.111 -2004.905)"/>
      <path id="Контур_4216" data-name="Контур 4216" d="M4893.329,1924.137c-.039-7.855-.1-15.71-.114-23.564-.005-3.963,1.489-5.472,5.423-5.354q22.848.681,45.7,1.46c4.066.14,5.716,1.848,5.819,5.977q.554,22.619,1.013,45.236c.089,4.446-1.408,5.854-6,5.8q-22.993-.254-45.987-.566c-4.19-.055-5.676-1.52-5.718-5.671C4893.383,1939.686,4893.367,1931.911,4893.329,1924.137Zm28.356-19.375v.033c-5.508-.161-11.016-.349-16.523-.473-3-.067-3.262.154-3.25,3.186.048,11.259.176,22.52.226,33.779.009,2.075.747,3.051,2.957,3.074q17.192.188,34.385.554c2.086.042,2.769-.826,2.721-2.806q-.411-17.01-.68-34.018c-.031-2.031-.812-2.826-2.84-2.858C4933.017,1905.145,4927.351,1904.928,4921.685,1904.762Z" transform="translate(-4738.475 -1888.264)" fill="#fff"/>
      <path id="Контур_4217" data-name="Контур 4217" d="M5041.2,1969.71c-6.5-.114-13.007-.3-19.5-.306-2.309,0-3.255-.712-3.329-3.115-.206-6.777-.176-5.667,5.572-5.572q17.792.3,35.588.693c4.081.087,4.082.125,4.293,4.023.252,4.663.252,4.658-4.541,4.57q-9.039-.165-18.079-.318Z" transform="translate(-4798.635 -1919.706)" fill="#fff"/>
      <path id="Контур_4218" data-name="Контур 4218" d="M5040.2,1930.343c6.535.174,13.072.4,19.6.492,2.244.031,3.094.88,3.114,3.063.057,6.233.767,5.65-5.495,5.521-12.155-.25-24.312-.576-36.468-.874-2.978-.073-3.243-.318-3.275-3.3-.068-6.26-.485-5.478,5.28-5.345,5.747.132,11.5.3,17.242.454Z" transform="translate(-4798.313 -1904.897)" fill="#fff"/>
      <path id="Контур_4219" data-name="Контур 4219" d="M5039.463,1899.671c6.5.211,13.008.473,19.508.6,2,.041,2.836.7,2.88,2.738.146,6.789.919,5.954-5.764,5.774q-17.554-.474-35.111-.987c-3.9-.114-4.023-.259-4.141-4.011-.153-4.871-.152-4.873,4.762-4.714q8.933.289,17.864.581S5039.463,1899.665,5039.463,1899.671Z" transform="translate(-4797.904 -1890.099)" fill="#fff"/>
      <path id="Контур_4220" data-name="Контур 4220" d="M5042.055,2000.432c-6.544-.077-13.087-.138-19.63-.239-3.049-.046-3.2-.225-3.32-3.275-.223-5.5-.223-5.5,5.5-5.405q18.386.3,36.771.586c3.028.048,3.278.264,3.366,3.19.188,6.307.713,5.35-5.452,5.316-5.744-.031-11.492-.127-17.236-.2Z" transform="translate(-4798.984 -1934.566)" fill="#fff"/>
      <path id="Контур_4221" data-name="Контур 4221" d="M4934.075,2099.9c11.74-.06,23.481-.085,35.22-.2,3.1-.031,4.617.435,4.6,2.343-.043,7.285,1.913,6.272-10.718,6.406q-30.892.327-61.787.552c-7.07.057-7.143.025-7.128-3.876.021-5.4-1.18-4.995,8.781-5.074,10.342-.083,20.686-.113,31.027-.166A.148.148,0,0,1,4934.075,2099.9Z" transform="translate(-4738.962 -1986.604)"/>
      <path id="Контур_4222" data-name="Контур 4222" d="M4923.9,2068.958c8.694,0,17.39.066,26.08-.02,2.8-.028,3.955.633,3.893,2.815-.176,6.166,1.687,5.931-7.807,5.963-15.855.055-31.711.054-47.565.078-4.284.007-4.389-.037-4.372-3.375.03-6.306-1.059-5.412,7.146-5.45,7.541-.035,15.083,0,22.625,0Z" transform="translate(-4738.9 -1971.81)"/>
      <path id="Контур_4223" data-name="Контур 4223" d="M4916.959,2037.6c6.655.041,13.312.139,19.963.089,1.985-.015,2.655.659,2.7,2.6.128,5.85.194,5.852-5.781,5.873q-17.449.06-34.9.112c-5.053.01-5.055-.02-5.022-5,.025-3.8.025-3.82,3.8-3.8q9.623.042,19.243.116A.081.081,0,0,1,4916.959,2037.6Z" transform="translate(-4738.81 -1956.677)"/>
      <path id="Контур_4224" data-name="Контур 4224" d="M5045.362,2099.484c6.793-.035,13.589-.035,20.38-.128,1.793-.025,2.681.439,2.716,2.324.131,7.2,1.243,6.205-6.068,6.295q-17.874.22-35.754.338c-4.091.032-4.133,0-4.206-3.811-.1-5.279-.788-4.883,4.976-4.94,5.985-.06,11.971-.068,17.955-.1Z" transform="translate(-4800.579 -1986.439)"/>
      <path id="Контур_4225" data-name="Контур 4225" d="M5044.414,2069.012c6.677,0,13.357.063,20.029-.023,2.148-.028,3.05.62,3.047,2.763-.01,6.052,1.417,5.823-5.876,5.85-12.176.044-24.354.035-36.53.05-3.29,0-3.372-.039-3.425-3.3-.1-6.162-.92-5.288,5.38-5.326,5.79-.034,11.583,0,17.375,0Z" transform="translate(-4800.202 -1971.835)"/>
      <path id="Контур_4226" data-name="Контур 4226" d="M5021.583,2038.254c8.933.056,17.869.166,26.8.132,2.664-.01,3.572.65,3.653,2.547.244,5.714.334,5.716-7.687,5.73q-23.418.038-46.843.07c-6.783,0-6.784-.024-6.8-4.92-.014-3.739-.014-3.754,5.052-3.729q12.915.062,25.83.156Z" transform="translate(-4785.356 -1956.97)"/>
    </g>
  </g>
</svg>
