<svg id="Сгруппировать_3406" data-name="Сгруппировать 3406" xmlns="http://www.w3.org/2000/svg" width="118.397" height="100.273" viewBox="0 0 118.397 100.273">
  <path id="Контур_4184" data-name="Контур 4184" d="M2704.374,2997.805a8.976,8.976,0,0,1-1.736-.633A4.681,4.681,0,0,1,2700.3,2993c-.042-5.458-.027-10.916-.03-16.374q0-5.908.01-11.815a6.948,6.948,0,0,1,3.089-6.084,5.984,5.984,0,0,1,3.383-1.057q7.619-.038,15.238-.02c.52,0,.687-.159.783-.643,1.01-5.1,2.049-10.189,3.066-15.285a47.938,47.938,0,0,1,1.323-6.067,7.841,7.841,0,0,1,8.021-5.384,8.132,8.132,0,0,1,7.615,6.491,12.464,12.464,0,0,1-.335,4.958c-1.254,6.2-2.473,12.414-3.733,18.616a40.153,40.153,0,0,1-1.037,4.762,8.209,8.209,0,0,1-8.1,5.654c-6.359-.019-12.717,0-19.076-.015-.462,0-.506.166-.5.547q.016,5.951.007,11.9c0,3.131.02,6.262-.007,9.393a4.98,4.98,0,0,1-2.544,4.656,9.315,9.315,0,0,1-1.687.574Z" transform="translate(-2633.078 -2897.532)"/>
  <path id="Контур_4185" data-name="Контур 4185" d="M2441.092,2998.253a12.6,12.6,0,0,1-1.311-.626,4.671,4.671,0,0,1-2.287-4.142c-.037-4.8-.016-9.6-.017-14.4,0-2.379-.016-4.759.014-7.137.007-.554-.12-.717-.7-.715-6.454.021-12.908.033-19.363-.005a7.937,7.937,0,0,1-7.837-6.276c-.937-4.254-1.739-8.537-2.6-12.808-.753-3.749-1.493-7.5-2.254-11.247a8.152,8.152,0,0,1,9.96-9.864c3.486.8,5.339,3.306,6.043,6.7,1.039,5,2.021,10.015,3.026,15.023.328,1.633.668,3.263.968,4.9.069.375.2.492.577.492,3.779.005,7.558.014,11.337.048a31.122,31.122,0,0,1,5.068.146,6.646,6.646,0,0,1,5.434,6.1c.024.342.035.685.035,1.027q0,13.67,0,27.339a5.986,5.986,0,0,1-.95,3.652,5.8,5.8,0,0,1-2.576,1.8Z" transform="translate(-2396.05 -2897.98)" fill="#e6345e"/>
  <path id="Контур_4186" data-name="Контур 4186" d="M2804.393,2988.522c-.495,1.7-.768,3.454-1.133,5.185-.869,4.12-1.695,8.249-2.55,12.371a40.677,40.677,0,0,1-1.377,5.923,16.484,16.484,0,0,1-11.439,10.78,13.537,13.537,0,0,1-3.746.483c-4.651-.009-9.3.009-13.952,0a3.619,3.619,0,0,1-3.842-3.228,3.693,3.693,0,0,1,3.534-4.353c4.245-.042,8.49-.027,12.735-.008,3.375.015,6.28-1,8.4-3.76a12.921,12.921,0,0,0,2.183-5.488q1.876-9.3,3.8-18.6a11.091,11.091,0,0,1,.361-1.491,3.407,3.407,0,0,1,3.544-2.312,3.72,3.72,0,0,1,3.368,2.795,1.919,1.919,0,0,0,.117.288Z" transform="translate(-2685.996 -2940.628)"/>
  <path id="Контур_4187" data-name="Контур 4187" d="M2361.808,2987.125a6.525,6.525,0,0,1,1.042-1.655,3.54,3.54,0,0,1,6.038,1.617c.7,2.819,1.206,5.684,1.8,8.529.9,4.353,1.746,8.719,2.722,13.055a9.4,9.4,0,0,0,8.854,7.3c4.478.152,8.96.058,13.44.042a3.763,3.763,0,0,1,3.895,2.433,3.933,3.933,0,0,1-1.286,4.495,3.776,3.776,0,0,1-2.3.687c-4.717.017-9.434.053-14.151,0a16.329,16.329,0,0,1-15.269-12.005c-.863-2.977-1.316-6.054-1.949-9.087-.926-4.437-1.825-8.879-2.738-13.318a.592.592,0,0,0-.1-.162Z" transform="translate(-2361.808 -2940.903)"/>
  <path id="Контур_4188" data-name="Контур 4188" d="M2842.391,2848.689a9.164,9.164,0,1,1,9.131-9.292A9.193,9.193,0,0,1,2842.391,2848.689Z" transform="translate(-2739.568 -2817.477)"/>
  <path id="Контур_4189" data-name="Контур 4189" d="M2392.637,2848.689a9.164,9.164,0,1,1,9.131-9.292A9.193,9.193,0,0,1,2392.637,2848.689Z" transform="translate(-2379.102 -2817.477)" fill="#e6345e"/>
  <path id="Контур_4260" data-name="Контур 4260" d="M-.579,526.978l-2.269-3.543A75.663,75.663,0,0,1,9.7,516.905l1.567,3.9A71.418,71.418,0,0,0-.579,526.978Zm62.544-.555a70.988,70.988,0,0,0-11.942-5.966l1.5-3.932a75.239,75.239,0,0,1,12.654,6.318ZM24.03,517.337l-.594-4.165a54.053,54.053,0,0,1,14.281-.132l-.518,4.175A49.825,49.825,0,0,0,24.03,517.337Z" transform="translate(27.647 -512.63)" fill="#060708"/>
</svg>

