<svg xmlns="http://www.w3.org/2000/svg" width="382.964" height="224.899" viewBox="0 0 382.964 224.899">
  <path id="Контур_4227" data-name="Контур 4227" d="M3758.518,2056.882H3402.855a13.2,13.2,0,0,1-13.2-13.206l-.907-198.448c0-7.293,6.815-13.245,14.1-13.245l354.508.7c7.288,0,12.277,4.992,12.277,12.285l2.075,198.707A13.2,13.2,0,0,1,3758.518,2056.882Z" transform="translate(-3388.752 -1831.983)" fill="#040505"/>
  <rect id="Прямоугольник_203" data-name="Прямоугольник 203" width="369.396" height="214.711" rx="25.44" transform="translate(7.237 5.094)" fill="#e7335d"/>
  <path id="Контур_4228" data-name="Контур 4228" d="M3772.09,2091.351l-369.4-3.547V1953.209h369.4Z" transform="translate(-3395.457 -1890.282)" fill="#fff"/>
  <path id="Контур_4229" data-name="Контур 4229" d="M3493.612,2069.456c1.489,1.119,258.037-3.789,258.037-3.789" transform="translate(-3439.18 -1944.365)" fill="none" stroke="#e7335d" stroke-miterlimit="10" stroke-width="2" stroke-dasharray="12"/>
  <path id="Контур_4230" data-name="Контур 4230" d="M3493.612,2165.932c1.489,1.119,258.037,0,258.037,0" transform="translate(-3439.18 -1992.583)" fill="none" stroke="#e7335d" stroke-miterlimit="10" stroke-width="2" stroke-dasharray="12"/>
  <g id="Сгруппировать_3269" data-name="Сгруппировать 3269" transform="translate(51.366 68.217)">
    <path id="Контур_4231" data-name="Контур 4231" d="M3583.594,1987.469q-4.957-4.147-10.428-3.607a15.269,15.269,0,0,0-9.57,5.076,26.645,26.645,0,0,0-6.992,14.171,18.77,18.77,0,0,0-.349,4.962,25.023,25.023,0,0,0,.437,3q.7,7.1,5.719,10.45a17.287,17.287,0,0,0,11.5,2.414,33.625,33.625,0,0,0,17.07-9.151q2.17-2.1,4.633-4.082a7.205,7.205,0,0,1,2,.092q1.032.188,1.167,1.551a74.177,74.177,0,0,1-10.687,10.042q-8.245,5.745-15.31,6.442l-.9.089a19.019,19.019,0,0,1-13.65-3.65,16.938,16.938,0,0,1-7.11-12.487,32.125,32.125,0,0,1,5.6-21.533,27.179,27.179,0,0,1,7.8-7.4,23.269,23.269,0,0,1,10.252-3.478q4.778-.472,6.368.748Q3583.111,1982.59,3583.594,1987.469Z" transform="translate(-3518.128 -1971.497)" fill="#040505"/>
    <path id="Контур_4232" data-name="Контур 4232" d="M3645.53,2004.165q2.674-3.255,10.442-4.024a28.386,28.386,0,0,1,8.245.2,19,19,0,0,1,5.146,1.636,3.1,3.1,0,0,1,1.889,2.3q.3,3.075-6.3,6.775-.976.6-5.166,2.571t-5.646,2.675a26.451,26.451,0,0,0-4.171,2.445.622.622,0,0,0,.263.454,7.564,7.564,0,0,0,1.091.569q.856.4,2.561,1.1t4.723,2.044q9,3.965,18.55,8.552.463.292,1.223.81a1.688,1.688,0,0,1,.829,1.216,1.083,1.083,0,0,1-.335,1.021,3.274,3.274,0,0,1-.983.52,5.45,5.45,0,0,1-1.228.262l-1.079.107q-1.08.107-4.742-1.958t-6.349-3.605q-2.685-1.54-5.441-2.961a46.741,46.741,0,0,0-10.181-4.356l1.266,12.8q.11,1.119-1.724,1.3l-.594.059a1.771,1.771,0,0,1-1.789-1.009q-.933-1.713-1.407-6.521l-.949-11.251a132.825,132.825,0,0,0-2.138-14.463q1.068-2.419,3.2-.146Q3645.221,2003.8,3645.53,2004.165Zm18.3-1.132-3.512.291q-12.193,1.205-13.739,4.293a3.431,3.431,0,0,0-.343,2.037,17.573,17.573,0,0,0,.315,2.085,5.658,5.658,0,0,0,1.567,3.175,1.955,1.955,0,0,0,.572,0,9.28,9.28,0,0,0,1.488-.373,30.42,30.42,0,0,0,2.886-1.1q1.8-.771,3.824-1.818t3.875-2.132q5.813-3.452,5.637-5.242Q3666.3,2003.24,3663.83,2003.033Z" transform="translate(-3561.764 -1980.974)" fill="#040505"/>
    <path id="Контур_4233" data-name="Контур 4233" d="M3719.19,2049.814a4.434,4.434,0,0,1-2.25-.449q-2.387-1.176-2.042-2.284a32.626,32.626,0,0,0,1.438-5.788l1.143-6.161q.615-2.95,1.173-6.5l-18.939-16.407a1.86,1.86,0,0,1-.556-1.02.814.814,0,0,1,.441-.783,4.677,4.677,0,0,1,1.984-.6,8.027,8.027,0,0,1,2.479.158,9.962,9.962,0,0,1,3.313,1.688q3.976,2.832,13.347,12.323,2.659-11.821,4-15.281a18.112,18.112,0,0,1,2.245-4.523,3.18,3.18,0,0,1,1.7-1.209,4.618,4.618,0,0,1,1.388-.07,1.229,1.229,0,0,1,.927.85,100.31,100.31,0,0,0-2.839,10.327q-1.281,5.739-2.623,11.852Q3722,2042.145,3719.19,2049.814Z" transform="translate(-3589.501 -1982.387)" fill="#040505"/>
    <path id="Контур_4234" data-name="Контур 4234" d="M3772.7,2024.415l-2.625.138-1.386-14.015q-.157-4.54-.327-8.045a46.721,46.721,0,0,1,.044-6.078,12.459,12.459,0,0,1,1.09-4.389,7.348,7.348,0,0,1,2.865-3.047q3.583-2.3,13.684-3.3a27.047,27.047,0,0,1,7.459.143,24.38,24.38,0,0,1,4.633,1.212q3.477,1.357,3.773,4.364a9.517,9.517,0,0,1-1.116,5.607,15.733,15.733,0,0,1-3.88,4.635,25.745,25.745,0,0,1-5.661,3.506,58.761,58.761,0,0,1-6.434,2.519,57.409,57.409,0,0,1-11.26,2.327l1.1,13.5Q3774.728,2024.214,3772.7,2024.415Zm.131-21.21q.3,3.008,2.792,2.76c.232-.023.638-.072,1.217-.151s1.588-.237,3.03-.482a41.071,41.071,0,0,0,4.555-1.058,49.888,49.888,0,0,0,4.789-1.658,22.214,22.214,0,0,0,4.263-2.244q4.219-2.967,3.833-6.877-1.257-3.823-7.4-4.31a16.648,16.648,0,0,0-3.258-.043q-1.423.141-3.352.483a21.459,21.459,0,0,0-4.407,1.377,13.7,13.7,0,0,0-4.087,2.531,4.412,4.412,0,0,0-1.613,3.257,11.3,11.3,0,0,1-.123,1.713A23,23,0,0,0,3772.827,2003.2Z" transform="translate(-3622.781 -1974.027)" fill="#040505"/>
    <path id="Контур_4235" data-name="Контур 4235" d="M3860.625,1979.779l-5.572.42q-1.224.121-2.649.405a2.877,2.877,0,0,0-2.281,2.922q.048,1.849.06,4.213.1,14.37.517,18.61.186,1.881.348,3.269a2.856,2.856,0,0,1-2.292,3.178h0a2.852,2.852,0,0,1-3.293-2.767l-.986-25.918a2.87,2.87,0,0,0-2.931-2.807l-10.564.425c-.334.033-.621-.221-.864-.764a4.967,4.967,0,0,1-.436-1.525,2.885,2.885,0,0,1,.409-1.609,1.6,1.6,0,0,1,1.229-.971q4.581-.257,9.248-.261,8.635-.07,14.633-.662l3.859-.512a53.439,53.439,0,0,0,7.039-1.382,2.806,2.806,0,0,1,3.425,2.232q.032.161.064.332c.083.428.139.771.164,1.03A32.47,32.47,0,0,1,3860.625,1979.779Z" transform="translate(-3652.339 -1968.474)" fill="#040505"/>
    <path id="Контур_4236" data-name="Контур 4236" d="M3915.725,1996.99a38.932,38.932,0,0,1-1.925-9.263,42.109,42.109,0,0,1,.035-9.643,27.377,27.377,0,0,1,1.976-7.454q3-6.622,8.462-7.164a11.6,11.6,0,0,1,9.874,3.714q4.692,4.9,5.667,14.774,1.21,12.238-1.4,18.377a10.621,10.621,0,0,1-9.36,6.806Q3919.681,2008.063,3915.725,1996.99Zm1.345-11.075q1.72,17.4,11.635,16.417,4.874-.482,7.4-5.942,2.538-5.388,1.722-13.645-.765-7.741-4.791-11.437a9.937,9.937,0,0,0-8.14-2.768q-3.749.371-6.15,5.447A22.622,22.622,0,0,0,3917.07,1985.915Z" transform="translate(-3692.706 -1963.4)" fill="#040505"/>
    <path id="Контур_4237" data-name="Контур 4237" d="M3504.5,2145.665q5.26-.52,7.066.017l.264,2.67a29.182,29.182,0,0,1-3.868.63q-2.469.273-5.251.6a62.323,62.323,0,0,0-10.543,1.868,31.149,31.149,0,0,0-.254,6.023q.208,1.575.348,2.442.419,2.1.706,4.992a59.088,59.088,0,0,0,8.114-1.462q4.536-1.109,7.031-1.658a44.512,44.512,0,0,1,5.177-.814l.3,3-19.884,4.607,1.2,8.906q5.206-.515,10.6-1.57t8.182-1.579q2.788-.524,5.944-.836a3.771,3.771,0,0,1-.426,2.133q-1.089,1.87-2.159,1.26-9.155,1.951-16.378,3.27t-9.728,1.788l-3.227-34.787a19.436,19.436,0,0,0,5.092-.063Z" transform="translate(-3487.707 -2050.93)" fill="#040505"/>
    <path id="Контур_4238" data-name="Контур 4238" d="M3573.889,2148.349q1.5,15.2.553,17.922l-3.553.048a145.512,145.512,0,0,0-10.249-12.469q-2.8-3.157-5.566-6.267t-5.122-6.209q-.525,4.547.8,17.9.5,5.1.657,8.621a2.827,2.827,0,0,1-1.914,1.1,3.621,3.621,0,0,1-1.543-.075.781.781,0,0,1-.508-.707c-.035-.35-.05-.9-.043-1.662s-.022-2.025-.084-3.8-.142-3.655-.241-5.632q-.375-7.738-.926-13.315t-1-9.167q.963-1.1,1.5-1.612a1.039,1.039,0,0,1,1.306-.1,8.617,8.617,0,0,1,2.061,1.867q1.289,1.464,3.672,4.359,8.128,9.751,15.885,18.224l-1.545-24.994a3.947,3.947,0,0,1,.926-1.48,2.387,2.387,0,0,1,1.363-.512q1.688-.168,2.005,3.033l.135,1.855Z" transform="translate(-3515.329 -2043.696)" fill="#040505"/>
    <path id="Контур_4239" data-name="Контур 4239" d="M3633.82,2143.3l-4.771.359q-1.049.1-2.269.347a2.452,2.452,0,0,0-1.953,2.487q.042,1.588.053,3.621.083,12.3.441,15.933.16,1.609.3,2.8a2.446,2.446,0,0,1-1.962,2.722h0a2.443,2.443,0,0,1-2.819-2.369l-.844-22.19a2.457,2.457,0,0,0-2.509-2.4l-9.045.364q-.428.042-.739-.654a4.256,4.256,0,0,1-.373-1.306,2.453,2.453,0,0,1,.35-1.377,1.369,1.369,0,0,1,1.052-.831q3.921-.22,7.917-.224,7.392-.059,12.528-.567l3.305-.438c2.033-.259,1.064-.479,3.112-.33,1.485.109,2.651.53,2.932,1.911.019.092.037.186.055.283.071.366-1.228.805-1.206,1.027C3635.088,2143.4,3636.743,2143.015,3633.82,2143.3Z" transform="translate(-3545.29 -2047.943)" fill="#040505"/>
    <path id="Контур_4240" data-name="Контур 4240" d="M3682.444,2141.685q.024,1.8.349,5.09a40.633,40.633,0,0,0,1.753,7.872l-3.8,2.5-3.241-14.123q-1.8-.087-1.9-1.086a2.937,2.937,0,0,1,.667-1.818,15.131,15.131,0,0,0,1.08-1.78,3.361,3.361,0,0,0,.336-1.521q0-.822-.06-2.94t-.163-4.5q-.109-2.38-.188-4.5t-.164-2.957a8.134,8.134,0,0,1,1.483-1.58q1.2-.808,1.778.355l1.333,16.595q12.535-1.239,14.908-3.173l-1.643-16.618q.217-.923,2.754-1.175a6.534,6.534,0,0,1,.918-.038q.1,1,.376,3.016t.606,4.586q.332,2.569.716,5.426t.742,5.422q.683,5.349,1.034,7.864a24.185,24.185,0,0,0,3.5,9.955,13.055,13.055,0,0,1-4.931,1.444q-2.928-5.764-4.042-15.477-3.361.226-4.579.346a27.048,27.048,0,0,0-2.725.428A25.18,25.18,0,0,0,3682.444,2141.685Z" transform="translate(-3578.158 -2036.927)" fill="#040505"/>
    <path id="Контур_4241" data-name="Контур 4241" d="M3759.8,2154.617q.089.9-1.407,1.048a3.8,3.8,0,0,1-1.35-.094,2.374,2.374,0,0,1-.784-.3l-.15-6.449a36.209,36.209,0,0,1-5.979,5.59,14.077,14.077,0,0,1-6.353,2.295q-.627.061-1.307.078-7.126-.1-7.971-8.655-.385-3.9.62-13.442a40.957,40.957,0,0,0,.3-5.382,2.448,2.448,0,0,1,.622-.112l.58-.057a2.214,2.214,0,0,1,.43-.094q1.543-.152,1.781,2.248a17.156,17.156,0,0,1-.222,4.163q-1.135,8.243-.828,11.342a7.448,7.448,0,0,0,2.146,4.939,5.017,5.017,0,0,0,3.473,1.121l.58-.057q7.865-.778,9.552-8.872a42.8,42.8,0,0,0,.592-11.268q-.153-3.015-.347-5.975.382-1.553,1.3-1.643a3.472,3.472,0,0,1,2.111.649q.431,2.887.709,5.687l1.405,19.151Q3759.5,2152.578,3759.8,2154.617Z" transform="translate(-3606.463 -2041.13)" fill="#040505"/>
    <path id="Контур_4242" data-name="Контур 4242" d="M3790.245,2146.592a2.617,2.617,0,0,1,.68-2,11.087,11.087,0,0,1,1.232-1.3,4.448,4.448,0,0,0,.6-.558q.8,5.267,7.43,4.611,5.222-.516,11.851-4.578,4.709-2.815,6.153-5.426a2.319,2.319,0,0,0,.438-1.306,1.576,1.576,0,0,0-.247-.769l-23.836-3.106a4.979,4.979,0,0,1-2.063-.795q-1.868-1.107-1.971-2.156-.4-4.013,4.784-7.815,5.712-4.148,15.7-6.957a31.531,31.531,0,0,1,3.379-.8,5.5,5.5,0,0,0,1.059.1,13.1,13.1,0,0,1,1.457.12q1.78.236,1.609,1.368.2,1.979-6.988,3.863-9.289,2.388-11.521,3.607a10.727,10.727,0,0,0-3.167,2.37,3.65,3.65,0,0,0-.848,2.609q.029.292,1.354.512t3.172.538q1.846.317,4.791.848,7.156,1.29,17.563,3.315a6,6,0,0,1,.8,2.33q.3,3.085-2.895,6.278a40.577,40.577,0,0,1-19.389,9.2,14.42,14.42,0,0,1-5.549-.509,17.209,17.209,0,0,1-4.075-1.653A2.714,2.714,0,0,1,3790.245,2146.592Z" transform="translate(-3633.348 -2035.647)" fill="#040505"/>
    <path id="Контур_4243" data-name="Контур 4243" d="M3906.833,2121.437l1.352-.134a8.016,8.016,0,0,1,1.584,0q.761.076.855,1.026.535,1.967-2.075,2.174c-.486.015-.933.025-1.337.031a7.167,7.167,0,0,0-.992.073c-.256.043-.36.145-.311.309q.625,1.4,1.359,3.148t1.586,3.479a26.288,26.288,0,0,0,3.915,6.077,7.748,7.748,0,0,1-1.733,1.939,9.786,9.786,0,0,1-1.089.814.163.163,0,0,1-.125-.038l-8.274-14.179L3888.7,2130.8l-.274,2.148q-.833,5.891-2.347,8.312-.24.528-1.2.219-1.6-.447-1.643-.848-.01-.1.728-3t1.489-5.878q.753-2.978,1.577-6.24t1.554-6.213q.732-2.951,1.328-5.307t.832-3.415a11.683,11.683,0,0,0,.281-1.846,5.3,5.3,0,0,1,.23-1.361q.369-1.2,2.3-1.388a8.73,8.73,0,0,1,3.519,2.808,24.78,24.78,0,0,1,2.338,3.935q1.014,2.123,2.008,4.3a16.273,16.273,0,0,0,2.481,3.9,1.551,1.551,0,0,0,1.377.621Q3906.157,2121.5,3906.833,2121.437Zm-13.133-9.609a23.884,23.884,0,0,1-1.12,6.423q-1.035,3.335-1.68,5.19t-1.075,3.414a21.832,21.832,0,0,0,7.862-2.8q1.151-.669,2.218-1.229Q3896.64,2113,3893.7,2111.828Z" transform="translate(-3678.122 -2031.971)" fill="#040505"/>
    <path id="Контур_4244" data-name="Контур 4244" d="M3964.918,2102.5a3.475,3.475,0,0,1-.442,2.124,10.055,10.055,0,0,1-.877,1.348,3.808,3.808,0,0,0-.427.578q-.77-5.662-5.691-5.175-3.877.384-8.69,4.516a13.917,13.917,0,0,0-4.414,5.607,3.142,3.142,0,0,0-.285,1.384,2.344,2.344,0,0,0,.209.831l17.879,4.1a3.443,3.443,0,0,1,1.564.917,3.892,3.892,0,0,1,1.539,2.37q.426,4.308-3.315,8.209a30.057,30.057,0,0,1-11.482,6.937,16.618,16.618,0,0,1-2.495.751,3,3,0,0,0-.793-.142,7.1,7.1,0,0,1-1.091-.176,1.357,1.357,0,0,1-1.244-1.516q-.21-2.124,5.086-3.908,6.851-2.254,8.477-3.486a8.182,8.182,0,0,0,2.286-2.433,4.879,4.879,0,0,0,.548-2.765q-.031-.313-1.027-.592t-2.382-.678q-1.387-.4-3.6-1.063-5.379-1.612-13.207-4.116a8.889,8.889,0,0,1-.67-2.519,9.821,9.821,0,0,1,1.956-6.625,23.1,23.1,0,0,1,7.516-6.607,18.053,18.053,0,0,1,6.647-2.612,7.91,7.91,0,0,1,4.156.724,12.239,12.239,0,0,1,3.093,1.9A3.3,3.3,0,0,1,3964.918,2102.5Z" transform="translate(-3705.632 -2027.992)" fill="#040505"/>
    <path id="Контур_4245" data-name="Контур 4245" d="M4019.689,2102.395l-4.307.32a22.748,22.748,0,0,0-3.868.791q.125,2.218.192,5.756.248,12.555.623,16.263c.25,2.472,3.106,31.96,3.274,32.972l-5.814.987-2.663-55.992-10.348.358c-.258.026-.483-.2-.677-.675a4.846,4.846,0,0,1-.354-1.337,2.725,2.725,0,0,1,.3-1.4q.36-.779.938-.838,3.54-.186,7.15-.151a113.1,113.1,0,0,0,11.312-.455l2.98-.415a12.988,12.988,0,0,0,4.128-.8c.525.061.9.426,1.205,2.187.069.375.163,1.22.186,1.447C4021.893,2102.339,4022.326,2102.128,4019.689,2102.395Z" transform="translate(-3732.277 -2028.022)" fill="#040505"/>
    <g id="Сгруппировать_3268" data-name="Сгруппировать 3268" transform="translate(192.045 68.661)">
      <path id="Контур_4246" data-name="Контур 4246" d="M3866.377,2142.485q.092.932-1.177,1.056a4.207,4.207,0,0,1-2.363-.707q-.781-1.415-1.333-7t-.806-9.235q-.254-3.651-.451-6.727-.344-6.711-.381-7.094a5.267,5.267,0,0,1,2.444-1.182q1-.1,1.1.832Z" transform="translate(-3858.898 -2103.326)" fill="#040505"/>
      <path id="Контур_4247" data-name="Контур 4247" d="M3861.865,2097.289c-.077-.784-.153-1.175-.227-1.167l-.141.014c-.141-.044-.377-.124-.734-.25q-.379-.088-.826-.169a4.116,4.116,0,0,0-1.113-.015.814.814,0,0,0-.755.773l-.02,0q-.112.011.036,1.5c.018.187.05.409.075.614s.028.43.047.617q.147,1.489.259,1.479l.019,0a.815.815,0,0,0,.892.611,4.135,4.135,0,0,0,1.089-.233q.422-.167.776-.328c.325-.194.542-.318.67-.388l.141-.014c.074-.007.072-.405,0-1.189-.028-.279-.065-.594-.107-.924C3861.918,2097.884,3861.893,2097.568,3861.865,2097.289Z" transform="translate(-3858.002 -2095.672)" fill="#040505"/>
    </g>
  </g>
</svg>
