<svg xmlns="http://www.w3.org/2000/svg" width="309.575" height="262.702" viewBox="0 0 309.575 262.702">
  <g id="Сгруппировать_8" data-name="Сгруппировать 8" transform="translate(0 5.579)">
    <path id="Контур_4184" data-name="Контур 4184" d="M2711,3106.893a23.462,23.462,0,0,1-4.54-1.654,12.238,12.238,0,0,1-6.105-10.921c-.111-14.27-.071-28.541-.078-42.812q-.007-15.447.026-30.893c.023-6.641,2.491-12.1,8.078-15.907a15.64,15.64,0,0,1,8.846-2.763q19.921-.1,39.843-.052c1.358,0,1.8-.416,2.047-1.682,2.642-13.329,5.357-26.642,8.017-39.967,1.06-5.31,1.718-10.721,3.459-15.863a20.5,20.5,0,0,1,20.973-14.077c10.1.731,18.03,7.479,19.913,16.972.871,4.4-.007,8.668-.876,12.964-3.28,16.219-6.466,32.458-9.762,48.675-.846,4.162-1.362,8.406-2.712,12.452-3.077,9.218-11.231,14.814-21.168,14.784-16.626-.05-33.252.006-49.878-.04-1.208,0-1.322.434-1.32,1.429q.043,15.56.018,31.12c0,8.187.052,16.374-.019,24.56-.046,5.2-1.9,9.49-6.651,12.176a24.39,24.39,0,0,1-4.41,1.5Z" transform="translate(-2524.579 -2849.769)"/>
    <path id="Контур_4185" data-name="Контур 4185" d="M2500.127,3107.161a33.057,33.057,0,0,1-3.429-1.637,12.215,12.215,0,0,1-5.978-10.829c-.1-12.552-.042-25.106-.044-37.659,0-6.22-.043-12.442.037-18.662.019-1.448-.314-1.874-1.838-1.869-16.876.053-33.752.085-50.627-.014a20.753,20.753,0,0,1-20.491-16.411c-2.449-11.122-4.547-22.323-6.79-33.49-1.968-9.8-3.9-19.61-5.894-29.406-3.6-17.721,11.464-29.158,26.042-25.791,9.115,2.1,13.96,8.644,15.8,17.506,2.715,13.077,5.284,26.186,7.913,39.281.857,4.268,1.746,8.531,2.531,12.813.18.981.533,1.286,1.507,1.287,9.881.014,19.763.036,29.644.126,4.42.041,8.882-.38,13.253.38a17.376,17.376,0,0,1,14.207,15.943c.064.893.092,1.79.093,2.686q.007,35.742.013,71.484c0,3.415-.423,6.659-2.483,9.55-1.705,2.394-4.187,3.576-6.734,4.712Z" transform="translate(-2382.354 -2850.038)" fill="#e7335d"/>
    <path id="Контур_4186" data-name="Контур 4186" d="M2865.907,2995.8c-1.294,4.452-2.008,9.032-2.963,13.557-2.272,10.772-4.431,21.567-6.667,32.347-1.077,5.191-1.755,10.49-3.6,15.488-5.294,14.33-15.077,23.971-29.91,28.186a35.42,35.42,0,0,1-9.794,1.264c-12.161-.023-24.321.023-36.482-.007-5.528-.014-9.095-3.069-10.045-8.44a9.656,9.656,0,0,1,9.241-11.382c11.1-.109,22.2-.07,33.3-.021,8.825.039,16.42-2.607,21.953-9.831,3.242-4.234,4.669-9.2,5.707-14.349q4.908-24.328,9.937-48.633a28.968,28.968,0,0,1,.945-3.9,8.909,8.909,0,0,1,9.265-6.047,9.727,9.727,0,0,1,8.806,7.308,4.941,4.941,0,0,0,.306.754Z" transform="translate(-2556.332 -2875.628)"/>
    <path id="Контур_4187" data-name="Контур 4187" d="M2361.808,2991.589c.838-1.485,1.433-3.088,2.724-4.328,5.458-5.24,13.979-3.108,15.788,4.227,1.818,7.372,3.154,14.862,4.7,22.3,2.36,11.381,4.566,22.8,7.117,34.135a24.589,24.589,0,0,0,23.15,19.1c11.709.4,23.427.153,35.141.11,5.008-.019,8.724,2.184,10.184,6.36a10.283,10.283,0,0,1-3.362,11.753,9.872,9.872,0,0,1-6.007,1.8c-12.333.045-24.668.139-37-.007-18.979-.224-34.779-13.645-39.923-31.391-2.257-7.784-3.442-15.83-5.1-23.76-2.422-11.6-4.771-23.216-7.159-34.824a1.538,1.538,0,0,0-.252-.423Z" transform="translate(-2361.808 -2875.793)"/>
    <path id="Контур_4188" data-name="Контур 4188" d="M2857.328,2878.282a23.961,23.961,0,1,1-.2-47.92c13.072-.047,24.042,10.721,24.071,23.624A23.936,23.936,0,0,1,2857.328,2878.282Z" transform="translate(-2588.477 -2801.733)"/>
    <path id="Контур_4189" data-name="Контур 4189" d="M2407.575,2878.282a23.961,23.961,0,1,1-.2-47.92c13.072-.047,24.043,10.721,24.071,23.624A23.936,23.936,0,0,1,2407.575,2878.282Z" transform="translate(-2372.185 -2801.733)" fill="#e7335d"/>
    <path id="Контур_4190" data-name="Контур 4190" d="M2493.4,2802.6c56.79-36.368,114.046-36.67,171.781,0" transform="translate(-2425.094 -2775.21)" fill="none" stroke="#040405" stroke-miterlimit="10" stroke-width="11" stroke-dasharray="32"/>
  </g>
</svg>
