<svg xmlns="http://www.w3.org/2000/svg" width="405.369" height="194.577" viewBox="0 0 405.369 194.577">
  <g id="Сгруппировать_7" data-name="Сгруппировать 7" transform="translate(0.5 0.5)">
    <path id="Объединение_3" data-name="Объединение 3" d="M-1132.73-4848.931a7.385,7.385,0,0,1-7.377-7.377,22.7,22.7,0,0,1,14.577-21.167,15.008,15.008,0,0,1-6.935-12.637,15.037,15.037,0,0,1,15.02-15.021,15.037,15.037,0,0,1,15.02,15.021,15.006,15.006,0,0,1-6.934,12.637,22.7,22.7,0,0,1,14.577,21.167,7.385,7.385,0,0,1-7.377,7.377Zm26.429-41.182a11.156,11.156,0,0,0-11.143-11.143,11.156,11.156,0,0,0-11.141,11.143,11.156,11.156,0,0,1,11.141-11.143A11.156,11.156,0,0,1-1106.3-4890.112Zm-86.268,41.182a7.386,7.386,0,0,1-7.378-7.377,22.7,22.7,0,0,1,14.577-21.167,15.008,15.008,0,0,1-6.935-12.637,15.038,15.038,0,0,1,15.02-15.021,15.038,15.038,0,0,1,15.022,15.021,15.011,15.011,0,0,1-6.935,12.637,22.7,22.7,0,0,1,14.577,21.167,7.385,7.385,0,0,1-7.377,7.377Zm26.427-41.182a11.155,11.155,0,0,0-11.143-11.143,11.156,11.156,0,0,0-11.141,11.143,11.156,11.156,0,0,1,11.141-11.143A11.155,11.155,0,0,1-1166.142-4890.112Zm-86.268,41.182a7.386,7.386,0,0,1-7.378-7.377,22.7,22.7,0,0,1,14.577-21.167,15.006,15.006,0,0,1-6.934-12.637,15.037,15.037,0,0,1,15.019-15.021,15.038,15.038,0,0,1,15.021,15.021,15.008,15.008,0,0,1-6.935,12.637,22.7,22.7,0,0,1,14.577,21.167,7.384,7.384,0,0,1-7.377,7.377Zm26.429-41.182a11.156,11.156,0,0,0-11.144-11.143,11.155,11.155,0,0,0-11.141,11.143,11.155,11.155,0,0,1,11.141-11.143A11.156,11.156,0,0,1-1225.981-4890.112Zm-86.269,41.182a7.385,7.385,0,0,1-7.378-7.377,22.7,22.7,0,0,1,14.577-21.167,15.01,15.01,0,0,1-6.934-12.637,15.037,15.037,0,0,1,15.02-15.021,15.037,15.037,0,0,1,15.02,15.021,15.006,15.006,0,0,1-6.934,12.637,22.7,22.7,0,0,1,14.577,21.167,7.385,7.385,0,0,1-7.377,7.377Zm26.429-41.182a11.156,11.156,0,0,0-11.143-11.143A11.156,11.156,0,0,1-1285.822-4890.112Zm-86.269,41.182a7.385,7.385,0,0,1-7.377-7.377,22.7,22.7,0,0,1,14.577-21.167,15.008,15.008,0,0,1-6.935-12.637,15.038,15.038,0,0,1,15.02-15.021,15.037,15.037,0,0,1,15.02,15.021,15.006,15.006,0,0,1-6.934,12.637,22.7,22.7,0,0,1,14.577,21.167,7.385,7.385,0,0,1-7.377,7.377Zm26.429-41.182a11.133,11.133,0,0,0-.2-2.107A11.133,11.133,0,0,1-1345.662-4890.112Zm-86.269,41.182a7.385,7.385,0,0,1-7.377-7.377,22.7,22.7,0,0,1,14.577-21.167,15.008,15.008,0,0,1-6.935-12.637,15.038,15.038,0,0,1,15.02-15.021,15.037,15.037,0,0,1,15.02,15.021,15.007,15.007,0,0,1-6.934,12.637,22.7,22.7,0,0,1,14.577,21.167,7.385,7.385,0,0,1-7.377,7.377Zm6.607-34.2-.022-.028C-1425.339-4883.152-1425.332-4883.142-1425.324-4883.133Zm-.042-.053a11.088,11.088,0,0,1-2.421-6.782A11.088,11.088,0,0,0-1425.366-4883.187Zm19.863-6.926a11.156,11.156,0,0,0-11.143-11.143,11.156,11.156,0,0,0-11.143,11.143,11.157,11.157,0,0,1,11.143-11.143A11.156,11.156,0,0,1-1405.5-4890.112Zm-86.269,41.182a7.385,7.385,0,0,1-7.377-7.377,22.7,22.7,0,0,1,14.579-21.167,15.009,15.009,0,0,1-6.936-12.637,15.038,15.038,0,0,1,15.02-15.021,15.038,15.038,0,0,1,15.021,15.021,15.008,15.008,0,0,1-6.935,12.637,22.7,22.7,0,0,1,14.577,21.167,7.384,7.384,0,0,1-7.377,7.377Zm26.429-41.182a11.156,11.156,0,0,0-11.143-11.143,11.156,11.156,0,0,0-11.142,11.143,11.156,11.156,0,0,1,11.142-11.143A11.156,11.156,0,0,1-1465.343-4890.112Zm332.613-27.506a7.386,7.386,0,0,1-7.378-7.376,22.7,22.7,0,0,1,14.579-21.168,15.01,15.01,0,0,1-6.935-12.638,15.038,15.038,0,0,1,15.022-15.02,15.036,15.036,0,0,1,15.019,15.02,15.007,15.007,0,0,1-6.935,12.638,22.7,22.7,0,0,1,14.579,21.168,7.385,7.385,0,0,1-7.377,7.376Zm26.429-41.182a11.154,11.154,0,0,0-11.141-11.141,11.153,11.153,0,0,0-11.143,11.141,11.153,11.153,0,0,1,11.143-11.141A11.154,11.154,0,0,1-1106.3-4958.8Zm-145.556,41.182a7.385,7.385,0,0,1-7.377-7.378,22.7,22.7,0,0,1,14.577-21.166,15.011,15.011,0,0,1-6.935-12.639,15.038,15.038,0,0,1,15.022-15.02,15.037,15.037,0,0,1,15.02,15.02,15.014,15.014,0,0,1-6.935,12.639A22.7,22.7,0,0,1-1213.907-4925a7.384,7.384,0,0,1-7.377,7.378Zm15.287-30.041a11.156,11.156,0,0,0,11.136-10.783,11.155,11.155,0,0,1-11.136,10.782,11.154,11.154,0,0,1-11.143-11.141A11.155,11.155,0,0,0-1236.569-4947.659Zm-75.681,30.041a7.385,7.385,0,0,1-7.378-7.378,22.7,22.7,0,0,1,14.577-21.166,15.013,15.013,0,0,1-6.934-12.639,15.036,15.036,0,0,1,15.02-15.02,15.036,15.036,0,0,1,15.02,15.02,15.01,15.01,0,0,1-6.934,12.639A22.7,22.7,0,0,1-1274.3-4925a7.385,7.385,0,0,1-7.377,7.378Zm15.286-30.041a11.157,11.157,0,0,0,11.1-10.157,11.157,11.157,0,0,1-11.1,10.156,11.13,11.13,0,0,1-8.68-4.161A11.131,11.131,0,0,0-1296.964-4947.659Zm-8.7-4.19a.225.225,0,0,1-.02-.025A.225.225,0,0,0-1305.665-4951.849Zm-2.441-6.807c0-.048,0-.1,0-.145C-1308.107-4958.752-1308.106-4958.7-1308.106-4958.656Zm-64.539,41.038a7.385,7.385,0,0,1-7.377-7.378,22.7,22.7,0,0,1,14.577-21.166,15.011,15.011,0,0,1-6.935-12.639,15.037,15.037,0,0,1,15.02-15.02,15.037,15.037,0,0,1,15.021,15.02,15.014,15.014,0,0,1-6.935,12.639A22.7,22.7,0,0,1-1334.7-4925a7.384,7.384,0,0,1-7.377,7.378Zm15.286-30.041a11.156,11.156,0,0,0,11.137-10.783,11.155,11.155,0,0,1-11.137,10.782A11.154,11.154,0,0,1-1368.5-4958.8,11.155,11.155,0,0,0-1357.359-4947.659Zm-74.572,30.041a7.385,7.385,0,0,1-7.377-7.378,22.7,22.7,0,0,1,14.577-21.166,15.011,15.011,0,0,1-6.935-12.639,15.037,15.037,0,0,1,15.02-15.02,15.036,15.036,0,0,1,15.02,15.02,15.01,15.01,0,0,1-6.934,12.639A22.7,22.7,0,0,1-1393.982-4925a7.385,7.385,0,0,1-7.377,7.378Zm15.286-30.041a11.156,11.156,0,0,0,11.137-10.783,11.155,11.155,0,0,1-11.137,10.782,11.155,11.155,0,0,1-11.143-11.141A11.155,11.155,0,0,0-1416.646-4947.659Zm-75.126,30.041a7.385,7.385,0,0,1-7.377-7.378,22.7,22.7,0,0,1,14.579-21.166,15.012,15.012,0,0,1-6.936-12.639,15.037,15.037,0,0,1,15.02-15.02,15.037,15.037,0,0,1,15.021,15.02,15.011,15.011,0,0,1-6.935,12.639A22.7,22.7,0,0,1-1453.822-4925a7.384,7.384,0,0,1-7.377,7.378Zm15.286-30.041a11.156,11.156,0,0,0,11.137-10.783,11.155,11.155,0,0,1-11.137,10.782,11.154,11.154,0,0,1-11.142-11.141A11.155,11.155,0,0,0-1476.486-4947.659Zm343.756-38.646a7.385,7.385,0,0,1-7.377-7.378,22.7,22.7,0,0,1,14.577-21.167,15.01,15.01,0,0,1-6.935-12.637,15.038,15.038,0,0,1,15.02-15.021,15.038,15.038,0,0,1,15.02,15.021,15.008,15.008,0,0,1-6.934,12.637,22.7,22.7,0,0,1,14.577,21.167,7.385,7.385,0,0,1-7.377,7.378Zm26.429-41.182c0-.1,0-.192,0-.288C-1106.3-5027.679-1106.3-5027.583-1106.3-5027.486Zm-86.268,41.182a7.386,7.386,0,0,1-7.378-7.378,22.7,22.7,0,0,1,14.577-21.167,15.009,15.009,0,0,1-6.935-12.637,15.038,15.038,0,0,1,15.02-15.021,15.039,15.039,0,0,1,15.022,15.021,15.013,15.013,0,0,1-6.935,12.637,22.7,22.7,0,0,1,14.577,21.167A7.385,7.385,0,0,1-1162-4986.3Zm26.427-41.182c0-.1,0-.192,0-.288C-1166.143-5027.679-1166.142-5027.583-1166.142-5027.486Zm-86.268,41.182a7.386,7.386,0,0,1-7.378-7.378,22.7,22.7,0,0,1,14.577-21.167,15.008,15.008,0,0,1-6.934-12.637,15.037,15.037,0,0,1,15.019-15.021,15.039,15.039,0,0,1,15.021,15.021,15.01,15.01,0,0,1-6.935,12.637,22.7,22.7,0,0,1,14.577,21.167,7.384,7.384,0,0,1-7.377,7.378Zm26.429-41.182c0-.1,0-.192,0-.288C-1225.982-5027.679-1225.981-5027.583-1225.981-5027.486Zm-86.269,41.182a7.386,7.386,0,0,1-7.378-7.378,22.7,22.7,0,0,1,14.577-21.167,15.012,15.012,0,0,1-6.934-12.637,15.038,15.038,0,0,1,15.02-15.021,15.038,15.038,0,0,1,15.02,15.021,15.008,15.008,0,0,1-6.934,12.637,22.7,22.7,0,0,1,14.577,21.167,7.385,7.385,0,0,1-7.377,7.378Zm26.429-41.182c0-.1,0-.192,0-.288C-1285.823-5027.679-1285.822-5027.583-1285.822-5027.486Zm-86.269,41.182a7.385,7.385,0,0,1-7.377-7.378,22.7,22.7,0,0,1,14.577-21.167,15.01,15.01,0,0,1-6.935-12.637,15.039,15.039,0,0,1,15.02-15.021,15.038,15.038,0,0,1,15.02,15.021,15.008,15.008,0,0,1-6.934,12.637,22.7,22.7,0,0,1,14.577,21.167,7.385,7.385,0,0,1-7.377,7.378Zm15.286-30.042a11.163,11.163,0,0,1-10.887-8.763A11.163,11.163,0,0,0-1356.8-5016.346Zm11.143-11.14c0-.1,0-.192,0-.288C-1345.663-5027.679-1345.662-5027.583-1345.662-5027.486Zm-86.269,41.182a7.385,7.385,0,0,1-7.377-7.378,22.7,22.7,0,0,1,14.577-21.167,15.01,15.01,0,0,1-6.935-12.637,15.039,15.039,0,0,1,15.02-15.021,15.038,15.038,0,0,1,15.02,15.021,15.009,15.009,0,0,1-6.934,12.637,22.7,22.7,0,0,1,14.577,21.167,7.385,7.385,0,0,1-7.377,7.378Zm15.286-30.042a11.156,11.156,0,0,1-11.141-11A11.155,11.155,0,0,0-1416.646-5016.346Zm11.143-11.14c0-.1,0-.192,0-.288C-1405.5-5027.679-1405.5-5027.583-1405.5-5027.486Zm-22.284-.186a11.1,11.1,0,0,1,2.463-6.8A11.093,11.093,0,0,0-1427.787-5027.672Zm-63.985,41.367a7.385,7.385,0,0,1-7.377-7.378,22.7,22.7,0,0,1,14.579-21.167,15.011,15.011,0,0,1-6.936-12.637,15.038,15.038,0,0,1,15.02-15.021,15.039,15.039,0,0,1,15.021,15.021,15.01,15.01,0,0,1-6.935,12.637,22.7,22.7,0,0,1,14.577,21.167,7.384,7.384,0,0,1-7.377,7.378Zm26.429-41.182c0-.1,0-.192,0-.288C-1465.344-5027.679-1465.343-5027.583-1465.343-5027.486Z" transform="translate(1499.149 5042.508)" fill="#fff" stroke="rgba(0,0,0,0)" stroke-miterlimit="10" stroke-width="1"/>
    <g id="Сгруппировать_3248" data-name="Сгруппировать 3248" transform="translate(299.202 68.687)">
      <path id="Объединение_1" data-name="Объединение 1" d="M-1790.973-5054.992a7.386,7.386,0,0,1-7.377-7.377,22.7,22.7,0,0,1,14.577-21.168,15.009,15.009,0,0,1-6.934-12.638,15.037,15.037,0,0,1,15.02-15.021,15.038,15.038,0,0,1,15.021,15.021,15.012,15.012,0,0,1-6.935,12.638,22.7,22.7,0,0,1,14.577,21.168,7.385,7.385,0,0,1-7.377,7.377Zm26.427-41.183a11.155,11.155,0,0,1-10.712,11.134,11.156,11.156,0,0,0,10.713-11.134,11.155,11.155,0,0,0-11.143-11.142,11.154,11.154,0,0,0-11.142,11.142,11.154,11.154,0,0,1,11.142-11.142A11.154,11.154,0,0,1-1764.546-5096.175Z" transform="translate(1798.351 5111.195)" fill="#fed841" stroke="rgba(0,0,0,0)" stroke-miterlimit="10" stroke-width="1"/>
    </g>
  </g>
</svg>
