<svg xmlns="http://www.w3.org/2000/svg" width="285.487" height="334.723" viewBox="0 0 285.487 334.723">
  <g id="Сгруппировать_3296" data-name="Сгруппировать 3296" transform="translate(-2592.738 -3975.432)">
    <path id="Контур_1" data-name="Контур 1" d="M272.682,2140.027h56.167l7.357-264.418H264.589Z" transform="translate(2356.211 2170.128)" fill="#fed841"/>
    <g id="Сгруппировать_4" data-name="Сгруппировать 4" transform="translate(2592.738 3975.432)">
      <path id="Контур_4120" data-name="Контур 4120" d="M210.527,1845.676,274.4,1740.17l63.868,105.506Z" transform="translate(-210.527 -1740.17)" fill="#fed841"/>
    </g>
    <ellipse id="Эллипс_1" data-name="Эллипс 1" cx="94.684" cy="94.684" rx="94.684" ry="94.684" transform="translate(2664.196 4083.242)" fill="#e7335d"/>
    <g id="Сгруппировать_5" data-name="Сгруппировать 5" transform="translate(2639.53 4102.345)">
      <g id="Сгруппировать_3227" data-name="Сгруппировать 3227" transform="translate(0 0)">
        <path id="Контур_4121" data-name="Контур 4121" d="M340.174,2250.526l-2.413-3.3,12.957-9.479,2.413,3.3-4.157,8.893,6.946-5.081,2.426,3.317-12.957,9.479-2.427-3.318,4.158-8.893Z" transform="translate(-318.507 -2106.374)" fill="#040505"/>
        <path id="Контур_4122" data-name="Контур 4122" d="M335.3,2218.75l3.042-1.678,3.29,5.965,1.985,3.6-14.058,7.753-1.984-3.6L324.378,2225l3.043-1.678,3.191,5.786,2.466-1.36-2.687-4.872,3.042-1.678,2.687,4.872,2.466-1.36Z" transform="translate(-312.071 -2096.43)" fill="#040505"/>
        <path id="Контур_4123" data-name="Контур 4123" d="M311.025,2194.293l-1.248-3.316,15.026-5.655,1.439,3.826-4.941,6.275,7.861,1.481,1.44,3.825-15.026,5.655-1.439-3.825.7-.264.3-.112,7.481-2.815-4.1-.59-.21-.043-1.44-3.825.138-.149,2.7-3.15-7.481,2.815-.914.344-.085.032Z" transform="translate(-305.049 -2081.161)" fill="#040505"/>
        <path id="Контур_4124" data-name="Контур 4124" d="M301.811,2152.574l-.58-4.046,15.892-2.278.58,4.046-5.934.851.651,4.541,5.934-.851.58,4.045-15.892,2.278-.58-4.046,5.912-.848-.651-4.541Z" transform="translate(-300.94 -2062.371)" fill="#040505"/>
        <path id="Контур_4125" data-name="Контур 4125" d="M301.787,2117.315a8.09,8.09,0,0,1,2.983-2.932,8.143,8.143,0,0,1,8.141.056,8.116,8.116,0,0,1,2.932,2.972,8.148,8.148,0,0,1-.055,8.14,8.1,8.1,0,0,1-2.972,2.944,8.145,8.145,0,0,1-8.14-.055,8.073,8.073,0,0,1-2.944-2.983,8.146,8.146,0,0,1,.056-8.141Zm10.636,2.047a4.309,4.309,0,0,0-1.511-1.531,4.014,4.014,0,0,0-2.085-.582,4.079,4.079,0,0,0-2.1.553,4.293,4.293,0,0,0-1.543,1.512,4.015,4.015,0,0,0-.581,2.085,4.064,4.064,0,0,0,.553,2.1,4.25,4.25,0,0,0,1.522,1.544,4.076,4.076,0,0,0,2.1.581,4,4,0,0,0,2.093-.554,4.273,4.273,0,0,0,1.532-1.522,4.066,4.066,0,0,0,.581-2.1A4,4,0,0,0,312.423,2119.363Z" transform="translate(-300.67 -2046.535)" fill="#040505"/>
        <path id="Контур_4126" data-name="Контур 4126" d="M314.265,2097.171l.9-6.248,3.821.551-1.483,10.294-4.046-.583-11.845-1.707.583-4.045Z" transform="translate(-301.123 -2035.763)" fill="#040505"/>
        <path id="Контур_4127" data-name="Контур 4127" d="M307.2,2063.663a9.432,9.432,0,0,1,1.2-2.176,6.962,6.962,0,0,1,1.926-1.763,7.977,7.977,0,0,1,3.184-1.155,8.245,8.245,0,0,1,3.369.217,7.814,7.814,0,0,1,3.329,1.843,7.336,7.336,0,0,1,2.071,3.155,8.73,8.73,0,0,1,.362,3.494,23.855,23.855,0,0,1-.789,3.988l-.52,1.788q-.18.563-.5,1.7l-15.645-4.342,1.1-3.96A29.24,29.24,0,0,1,307.2,2063.663Zm8.639-1.114a4.114,4.114,0,0,0-2.126-.024,4.307,4.307,0,0,0-1.9,1.017,3.955,3.955,0,0,0-1.14,1.816l-.6,2.144,8.074,2.24a17.5,17.5,0,0,0,.564-2.754,4.78,4.78,0,0,0-.3-2.275,3.569,3.569,0,0,0-1.692-1.8A4.556,4.556,0,0,0,315.839,2062.549Z" transform="translate(-302.847 -2020.165)" fill="#040505"/>
        <path id="Контур_4128" data-name="Контур 4128" d="M330.9,2035.353l3.2,1.361-2.67,6.268-1.611,3.781-14.77-6.292,1.611-3.781,2.59-6.08,3.2,1.361-2.589,6.08,2.59,1.1,2.181-5.119,3.2,1.361-2.181,5.118,2.591,1.1Z" transform="translate(-307.582 -2006.759)" fill="#040505"/>
        <path id="Контур_4129" data-name="Контур 4129" d="M346.607,2012.789l-2.079,3.545-6.517-.873-1.321,2.252,5.23,3.067-1.941,3.31-13.848-8.122.781-1.332,1.161-1.979,1.93-3.29a5,5,0,0,1,6.836-1.782,4.851,4.851,0,0,1,1.757,1.741,5.191,5.191,0,0,1,.718,2.343Zm-12.834-2.288a1.523,1.523,0,0,0-1,.651l-1.907,3.251,2.938,1.723,1.907-3.252a1.607,1.607,0,0,0,.06-1.2,1.7,1.7,0,0,0-.79-.963A1.679,1.679,0,0,0,333.773,2010.5Z" transform="translate(-312.914 -1995.356)" fill="#040505"/>
        <path id="Контур_4130" data-name="Контур 4130" d="M352.3,1988.9l-.234-.181a1.418,1.418,0,0,0-1.23-.246,2.033,2.033,0,0,0-1.194.784,2.161,2.161,0,0,0-.485,1.389,1.4,1.4,0,0,0,.536,1.146,1.043,1.043,0,0,0,1.134.13,4.933,4.933,0,0,0,1.447-.834q.115-.111.269-.237c.1-.082.208-.169.315-.259a7.868,7.868,0,0,1,3.045-1.75l.268-.051a4.883,4.883,0,0,1,1.9.1,4.437,4.437,0,0,1,2.956,2.341,5.067,5.067,0,0,1,.527,2.029,6.086,6.086,0,0,1-.312,2.168,6.668,6.668,0,0,1-1.064,1.99,6.57,6.57,0,0,1-1.65,1.523,6.105,6.105,0,0,1-2.013.841,5.191,5.191,0,0,1-2.1.011,4.4,4.4,0,0,1-1.824-.834l-.234-.18,2.429-3.145.234.18a1.416,1.416,0,0,0,1.229.247,2,2,0,0,0,1.18-.767,2.158,2.158,0,0,0,.486-1.39,1.4,1.4,0,0,0-.536-1.146,1.311,1.311,0,0,0-1.165-.125,2.533,2.533,0,0,0-.659.295,8.964,8.964,0,0,0-.757.534l-.6.482q-1.015.794-1.643,1.2a3.923,3.923,0,0,1-1.4.552l-.127.016a5.112,5.112,0,0,1-1.987-.028,4.288,4.288,0,0,1-1.73-.806,4.394,4.394,0,0,1-1.268-1.553,5.2,5.2,0,0,1-.521-2.037,6.112,6.112,0,0,1,.305-2.16,6.579,6.579,0,0,1,1.057-1.981,6.678,6.678,0,0,1,1.656-1.532,6.078,6.078,0,0,1,2.02-.85,5.057,5.057,0,0,1,2.1,0,4.487,4.487,0,0,1,1.816.843l.234.18Z" transform="translate(-322.233 -1984.661)" fill="#040505"/>
      </g>
    </g>
    <g id="Сгруппировать_6" data-name="Сгруппировать 6" transform="translate(2840.19 4104.14)">
      <g id="Сгруппировать_3229" data-name="Сгруппировать 3229" transform="translate(0 0)">
        <path id="Контур_4131" data-name="Контур 4131" d="M704.048,1995.381a8.1,8.1,0,0,1-.65,4.132,8.148,8.148,0,0,1-6.572,4.805,8.124,8.124,0,0,1-4.126-.641,8.146,8.146,0,0,1-4.8-6.572,8.089,8.089,0,0,1,.634-4.135,8.147,8.147,0,0,1,6.572-4.8,8.064,8.064,0,0,1,4.141.643,8.146,8.146,0,0,1,4.805,6.572Zm-9.763,4.691a4.307,4.307,0,0,0,2.126.331,4.018,4.018,0,0,0,2.021-.775,4.072,4.072,0,0,0,1.36-1.7,4.28,4.28,0,0,0,.339-2.133,4.013,4.013,0,0,0-.774-2.021,4.071,4.071,0,0,0-1.7-1.361,4.252,4.252,0,0,0-2.142-.333,4.072,4.072,0,0,0-2.031.782,4.017,4.017,0,0,0-1.352,1.691,4.271,4.271,0,0,0-.323,2.135,4.06,4.06,0,0,0,.782,2.031A4.008,4.008,0,0,0,694.285,2000.072Z" transform="translate(-687.53 -1988.119)" fill="#fed841"/>
        <path id="Контур_4132" data-name="Контур 4132" d="M706.283,2021.717l3,5.552-3.395,1.837-4.95-9.146,3.595-1.946,10.525-5.7,1.946,3.6Z" transform="translate(-693.827 -1999.757)" fill="#fed841"/>
        <path id="Контур_4133" data-name="Контур 4133" d="M729.123,2041.9a9.454,9.454,0,0,1,.329,2.465,6.969,6.969,0,0,1-.5,2.564,7.961,7.961,0,0,1-1.87,2.824,8.236,8.236,0,0,1-2.835,1.833,7.817,7.817,0,0,1-3.772.5,7.346,7.346,0,0,1-3.542-1.3,8.726,8.726,0,0,1-2.372-2.592,23.84,23.84,0,0,1-1.742-3.672l-.647-1.746q-.191-.56-.615-1.661l15.153-5.831,1.476,3.835Q728.8,2040.715,729.123,2041.9Zm-6.276,6.041a4.111,4.111,0,0,0,1.722-1.246,4.313,4.313,0,0,0,.917-1.947,3.953,3.953,0,0,0-.166-2.138l-.8-2.077-7.821,3.01a17.5,17.5,0,0,0,1.187,2.548,4.784,4.784,0,0,0,1.6,1.649,3.566,3.566,0,0,0,2.432.439A4.511,4.511,0,0,0,722.847,2047.944Z" transform="translate(-698.932 -2010.804)" fill="#fed841"/>
        <path id="Контур_4134" data-name="Контур 4134" d="M742.268,2089.693l.659,4.034-15.844,2.59-.66-4.034,5.917-.968-.74-4.527-5.917.968-.659-4.034,15.844-2.591.659,4.034-5.894.964.74,4.526Z" transform="translate(-705.407 -2032.85)" fill="#fed841"/>
        <path id="Контур_4135" data-name="Контур 4135" d="M744.426,2123.841a8.1,8.1,0,0,1-2.925,2.99,8.145,8.145,0,0,1-8.14.1,8.12,8.12,0,0,1-2.99-2.913,8.148,8.148,0,0,1-.1-8.141,8.1,8.1,0,0,1,2.914-3,8.148,8.148,0,0,1,8.14-.1,8.065,8.065,0,0,1,3,2.925,8.148,8.148,0,0,1,.1,8.14ZM733.75,2122a4.3,4.3,0,0,0,1.541,1.5,4.008,4.008,0,0,0,2.1.541,4.071,4.071,0,0,0,2.094-.595,4.289,4.289,0,0,0,1.513-1.541,4.015,4.015,0,0,0,.54-2.1,4.074,4.074,0,0,0-.594-2.093,4.254,4.254,0,0,0-1.553-1.512,4.065,4.065,0,0,0-2.107-.541,4.015,4.015,0,0,0-2.082.595,4.274,4.274,0,0,0-1.5,1.552,4.075,4.075,0,0,0-.54,2.108A4.015,4.015,0,0,0,733.75,2122Z" transform="translate(-707.429 -2047.569)" fill="#fed841"/>
        <path id="Контур_4136" data-name="Контур 4136" d="M731.425,2149.384l-.779,6.264-3.831-.477,1.283-10.32,4.056.5,11.876,1.476-.5,4.056Z" transform="translate(-706.269 -2063.494)" fill="#fed841"/>
        <path id="Контур_4137" data-name="Контур 4137" d="M738.908,2177.671a9.5,9.5,0,0,1-1.162,2.2,6.937,6.937,0,0,1-1.892,1.8,7.969,7.969,0,0,1-3.16,1.217,8.242,8.242,0,0,1-3.373-.15,7.815,7.815,0,0,1-3.365-1.778,7.34,7.34,0,0,1-2.132-3.114,8.726,8.726,0,0,1-.43-3.485,23.938,23.938,0,0,1,.71-4l.485-1.8q.168-.567.462-1.711l15.727,4.035-1.022,3.981Q739.333,2176.514,738.908,2177.671Zm-8.616,1.283a4.124,4.124,0,0,0,2.126-.017,4.32,4.32,0,0,0,1.876-1.054,3.953,3.953,0,0,0,1.1-1.838l.553-2.156-8.116-2.083a17.5,17.5,0,0,0-.51,2.765,4.772,4.772,0,0,0,.344,2.268,3.568,3.568,0,0,0,1.726,1.768A4.559,4.559,0,0,0,730.292,2178.953Z" transform="translate(-704.61 -2074.072)" fill="#fed841"/>
        <path id="Контур_4138" data-name="Контур 4138" d="M714.345,2206.572l-3.223-1.3,2.547-6.318,1.536-3.812,14.89,6-1.536,3.812-2.47,6.129-3.223-1.3,2.47-6.128-2.612-1.053-2.08,5.16-3.222-1.3,2.08-5.16-2.612-1.052Z" transform="translate(-698.722 -2087.68)" fill="#fed841"/>
        <path id="Контур_4139" data-name="Контур 4139" d="M697.768,2228.455l2.009-3.586,6.533.745,1.277-2.278-5.289-2.964,1.876-3.348,14.005,7.849-.755,1.346-1.121,2-1.865,3.328a5,5,0,0,1-6.8,1.916,4.844,4.844,0,0,1-1.79-1.706,5.189,5.189,0,0,1-.765-2.328Zm12.876,2.036a1.526,1.526,0,0,0,.987-.67l1.843-3.288-2.972-1.665-1.843,3.288a1.613,1.613,0,0,0-.036,1.2,1.706,1.706,0,0,0,.809.948A1.679,1.679,0,0,0,710.644,2230.491Z" transform="translate(-692.3 -2098.203)" fill="#fed841"/>
        <path id="Контур_4140" data-name="Контур 4140" d="M696.581,2254.2l.237.176a1.421,1.421,0,0,0,1.234.223,2.039,2.039,0,0,0,1.178-.808,2.158,2.158,0,0,0,.458-1.4,1.4,1.4,0,0,0-.557-1.134,1.039,1.039,0,0,0-1.136-.108,4.926,4.926,0,0,0-1.431.862c-.075.076-.163.156-.264.242s-.2.173-.31.265a7.865,7.865,0,0,1-3.011,1.81l-.267.056a4.876,4.876,0,0,1-1.9-.068,4.442,4.442,0,0,1-3-2.282,5.06,5.06,0,0,1-.567-2.018,6.067,6.067,0,0,1,.27-2.175,6.665,6.665,0,0,1,1.025-2.01,6.587,6.587,0,0,1,1.62-1.555,6.109,6.109,0,0,1,2-.88,5.189,5.189,0,0,1,2.1-.052,4.4,4.4,0,0,1,1.839.8l.237.176-2.368,3.191-.237-.176a1.417,1.417,0,0,0-1.234-.223,2,2,0,0,0-1.165.79,2.155,2.155,0,0,0-.458,1.4,1.4,1.4,0,0,0,.557,1.135,1.31,1.31,0,0,0,1.168.1,2.52,2.52,0,0,0,.652-.309,8.931,8.931,0,0,0,.747-.549l.592-.493q1-.815,1.619-1.23a3.925,3.925,0,0,1,1.392-.581l.127-.019a5.1,5.1,0,0,1,1.987-.01,4.281,4.281,0,0,1,1.746.772,4.39,4.39,0,0,1,1.3,1.527,5.2,5.2,0,0,1,.56,2.027,6.1,6.1,0,0,1-.264,2.166,6.539,6.539,0,0,1-1.017,2,6.686,6.686,0,0,1-1.627,1.564,6.1,6.1,0,0,1-2,.889,5.063,5.063,0,0,1-2.1.043,4.5,4.5,0,0,1-1.833-.808l-.237-.176Z" transform="translate(-687.234 -2110.82)" fill="#fed841"/>
      </g>
    </g>
    <path id="Контур_2" data-name="Контур 2" d="M511.5,1988.065l-61.553,61.553,61.553,61.553a87.049,87.049,0,1,1,0-123.106Z" transform="translate(2308.935 2128.308)" fill="#fed841"/>
    <ellipse id="Эллипс_2" data-name="Эллипс 2" cx="10.382" cy="10.382" rx="10.382" ry="10.382" transform="translate(2752.343 4115.416)" fill="#e7335d"/>
  </g>
</svg>
