<svg xmlns="http://www.w3.org/2000/svg" width="394.065" height="234.513" viewBox="0 0 394.065 234.513">
  <g id="sms" transform="translate(-0.002)">
    <g id="Сгруппировать_2" data-name="Сгруппировать 2" transform="translate(0 36.03)">
      <path id="Контур_4204" data-name="Контур 4204" d="M1404.77,1953.23c-29.457,0-60.373.04-91.292-.022-10.248-.02-20.5-.314-30.745-.457-5.132-.072-8.231-2.305-8.849-6.75-1.542-11.064-.65-22.167-.471-33.256.046-2.826.565-5.669.354-8.474-.537-7.129,5.925-12.892,14.251-12.771,30.908.449,61.835-.079,92.741.433,26.377.437,52.757.084,79.122.688,27.843.641,55.691.012,83.518.722,21.447.545,42.89.214,64.329.526,6.292.093,7.01.99,7.6,6.636,1.1,10.488.746,20.99.959,31.489a29.765,29.765,0,0,0,7.226,19.126c.608.718,1.772,1.368,1.083,2.427-.648,1-1.921.572-2.925.569-37.312-.043-74.632.279-111.934-.284C1475.23,1953.3,1440.73,1953.78,1404.77,1953.23Z" transform="translate(-1230.74 -1891.493)" fill="#fff"/>
      <path id="Контур_4203" data-name="Контур 4203" d="M1349.2,2102.18c21.1,0,43.244.032,65.39-.018,7.34-.017,14.681-.253,22.022-.369,3.676-.057,5.9-1.862,6.339-5.456,1.1-8.938.465-17.907.337-26.865-.033-2.284-.4-4.581-.253-6.846a9.752,9.752,0,0,0-10.209-10.317c-22.139.363-44.292-.064-66.429.35-18.893.353-37.789.065-56.673.556-19.942.517-39.89.01-59.821.583-15.362.44-30.72.173-46.078.421-4.507.074-5.021.8-5.443,5.361-.784,8.473-.535,16.959-.687,25.438a25.908,25.908,0,0,1-5.175,15.451c-.436.581-1.265,1.1-.775,1.961.464.8,1.376.461,2.1.459,26.725-.035,53.456.225,80.176-.23C1298.73,2102.25,1323.44,2102.63,1349.2,2102.18Z" transform="translate(-1191.593 -1968.832)" fill="#fed841"/>
      <g id="here_-_wnf_agency" data-name="here - wnf agency" transform="translate(32.37 100.271)">
        <path id="HERE_-_WNF_AGENCY-2" data-name="HERE - @WNF_AGENCY" d="M7.174-12.019h3.06V0H7.174V-4.488H3.74V0H.68V-12.019H3.74v4.471H7.174ZM19.771-2.6V0H11.594V-12.019h8.024v2.6H14.671V-7.31h4.165v2.6H14.671V-2.6ZM30.94,0H27.863l-1.9-4.539H24V0H21.131V-12.019H26.86a3.672,3.672,0,0,1,1.87.5A3.688,3.688,0,0,1,30.1-10.149a3.672,3.672,0,0,1,.5,1.87,3.626,3.626,0,0,1-.459,1.793A3.888,3.888,0,0,1,28.9-5.134ZM27.88-8.3a1.255,1.255,0,0,0-.323-.858,1.139,1.139,0,0,0-.8-.4H23.936V-7h2.822a1.2,1.2,0,0,0,.8-.416A1.277,1.277,0,0,0,27.88-8.3ZM40.137-2.6V0H31.96V-12.019h8.024v2.6H35.037V-7.31H39.2v2.6H35.037V-2.6Zm6.29-4.573h5.491V-4.76H46.427Zm20.451,6.8A2.687,2.687,0,0,1,65.6-1.046a2.328,2.328,0,0,1-.748-1.131,4.169,4.169,0,0,1-1.734.442,2.032,2.032,0,0,1-1.675-.748,2.856,2.856,0,0,1-.6-1.853A4.287,4.287,0,0,1,61.192-6,3.846,3.846,0,0,1,62.22-7.429a4.35,4.35,0,0,1,2.975-1.207A4.278,4.278,0,0,1,66.3-8.5a4.413,4.413,0,0,1,.816.289q.306.153.391.2-.068.221-.281.977t-.408,1.742a8.991,8.991,0,0,0-.2,1.717q0,.918.357,1.139a.9.9,0,0,0,.442.136q.561,0,1.046-.757a4.724,4.724,0,0,0,.655-1.827,3.382,3.382,0,0,0,.017-.391,4.884,4.884,0,0,0-.2-1.411,4.89,4.89,0,0,0-.969-1.777,4.733,4.733,0,0,0-1.573-1.207,4.391,4.391,0,0,0-1.912-.433,4.414,4.414,0,0,0-1.462.255,4.78,4.78,0,0,0-1.777,1.122,5.434,5.434,0,0,0-1.2,1.777,5.286,5.286,0,0,0-.425,2.066,5.039,5.039,0,0,0,.221,1.428,4.842,4.842,0,0,0,.986,1.785A4.809,4.809,0,0,0,62.432-.451a4.325,4.325,0,0,0,1.93.417V1.751q-.306,0-.476-.017A6.562,6.562,0,0,1,60.231.425a6.122,6.122,0,0,1-2.193-3.111,7.045,7.045,0,0,1-.34-2.142,7.623,7.623,0,0,1,.706-3.2,6.974,6.974,0,0,1,1.964-2.567A6.674,6.674,0,0,1,62.339-11.7a6.523,6.523,0,0,1,2.21-.382,6.434,6.434,0,0,1,2.371.451,6.193,6.193,0,0,1,2.049,1.317,6.674,6.674,0,0,1,1.564,2.3,7.046,7.046,0,0,1,.527,2.686,6.785,6.785,0,0,1-.714,3.077,2.452,2.452,0,0,1-.442.629,4.129,4.129,0,0,1-1.1.943,2.679,2.679,0,0,1-1.386.365A3.138,3.138,0,0,1,66.878-.374Zm-1.9-5.338a6.435,6.435,0,0,1,.2-.722,2.092,2.092,0,0,1,.127-.314.656.656,0,0,0-.161-.034,2.28,2.28,0,0,0-.3-.017,2.716,2.716,0,0,0-1.147.272,2.351,2.351,0,0,0-1.011,1,2.022,2.022,0,0,0-.306,1.054,1.029,1.029,0,0,0,.2.663.7.7,0,0,0,.578.255,2.933,2.933,0,0,0,1.666-.816q0-.136.043-.57T64.974-5.712Zm16.609-6.307h2.652V0h-3.06L78.081-5.117,74.97,0H71.91V-12.019h3.06v6.783l1.5-2.72.085-.136h3.06l.068.136,1.5,2.72v-6.783Zm10.625,0h3.06V0h-3.06L88.672-6.443V0H85.6V-12.019h3.077l3.536,6.443Zm12.784,2.6h-5.3V-7.31h4.25v2.6h-4.25V0h-3.06V-12.019h8.364Zm.68,7h7.174V0h-7.174Zm14.45-9.486L124.049,0h-2.958l-.782-2.431h-3.723L115.821,0h-2.975l3.944-11.9Zm-2.737,6.987h2.142l-1.071-3.366Zm18.649-2.448a6.539,6.539,0,0,1,.17,1.411,5.916,5.916,0,0,1-.816,3.043A6.057,6.057,0,0,1,133.17-.7a5.962,5.962,0,0,1-3.051.816A5.917,5.917,0,0,1,127.075-.7a6.077,6.077,0,0,1-2.21-2.21,5.917,5.917,0,0,1-.816-3.043A5.962,5.962,0,0,1,124.865-9a6.057,6.057,0,0,1,2.21-2.219,5.917,5.917,0,0,1,3.043-.816,5.969,5.969,0,0,1,2.371.476,6,6,0,0,1,1.947,1.326L131.7-8.67a3.033,3.033,0,0,0-1.581-.425,3,3,0,0,0-1.564.425,3.2,3.2,0,0,0-1.139,1.148,3.047,3.047,0,0,0-.425,1.573,3,3,0,0,0,.425,1.564,3.225,3.225,0,0,0,1.139,1.139,3,3,0,0,0,1.564.425,3.05,3.05,0,0,0,1.649-.468,3.186,3.186,0,0,0,1.156-1.25h-3.774V-7.361h6.885ZM145.4-2.6V0h-8.177V-12.019h8.024v2.6H140.3V-7.31h4.165v2.6H140.3V-2.6Zm7.973-9.418h3.06V0h-3.06l-3.536-6.443V0h-3.077V-12.019h3.077l3.536,6.443Zm10.149,9.18a3.046,3.046,0,0,0,1.207-.246,3.359,3.359,0,0,0,1.02-.672l2.074,2.074a6.1,6.1,0,0,1-1.955,1.318A5.959,5.959,0,0,1,163.523.1a5.917,5.917,0,0,1-3.043-.816,6.077,6.077,0,0,1-2.21-2.21,5.916,5.916,0,0,1-.816-3.043,5.962,5.962,0,0,1,.816-3.052,6.057,6.057,0,0,1,2.21-2.218,5.917,5.917,0,0,1,3.043-.816,5.959,5.959,0,0,1,2.346.467,6.1,6.1,0,0,1,1.955,1.318L165.75-8.194a3.359,3.359,0,0,0-1.02-.672,3.046,3.046,0,0,0-1.207-.247,3,3,0,0,0-1.564.425A3.2,3.2,0,0,0,160.82-7.54a3.047,3.047,0,0,0-.425,1.573A3,3,0,0,0,160.82-4.4a3.225,3.225,0,0,0,1.139,1.139A3,3,0,0,0,163.523-2.839Zm11.713-9.18h3.06L174.76-4.9V0H171.7V-4.9l-3.536-7.123h3.06l2.006,4.1Z" transform="translate(0 17)" fill="#040405"/>
      </g>
      <path id="Контур_4205" data-name="Контур 4205" d="M1349.86,2232.81c-29.456,0-60.373.028-91.292-.015-10.249-.014-20.5-.219-30.745-.318-5.132-.05-8.231-1.6-8.849-4.693-1.542-7.689-.65-15.4-.471-23.11.045-1.964.565-3.94.354-5.889-.536-4.955,5.926-8.959,14.251-8.875,30.909.313,61.836-.055,92.742.3,26.377.3,52.757.056,79.121.477,27.843.446,55.691.01,83.519.5,21.447.379,42.89.149,64.329.366,6.292.064,7.01.688,7.6,4.612,1.1,7.288.747,14.586.959,21.882.143,4.861,2.425,9.353,7.226,13.29.608.5,1.772.95,1.083,1.688-.648.693-1.921.4-2.925.4-37.312-.031-74.632.193-111.934-.2C1420.32,2232.86,1385.82,2233.2,1349.86,2232.81Z" transform="translate(-1204.334 -2035.004)" fill="#fff"/>
    </g>
    <g id="Сгруппировать_3" data-name="Сгруппировать 3" transform="translate(146.682)">
      <circle id="Эллипс_152" data-name="Эллипс 152" cx="9.91" cy="9.91" r="9.91" transform="translate(0 0)" fill="#fff"/>
      <circle id="Эллипс_153" data-name="Эллипс 153" cx="9.91" cy="9.91" r="9.91" transform="translate(35.292 0)" fill="#fff"/>
      <circle id="Эллипс_154" data-name="Эллипс 154" cx="9.91" cy="9.91" r="9.91" transform="translate(70.585 0)" fill="#fff"/>
    </g>
  </g>
</svg>



