<svg id="Сгруппировать_13" data-name="Сгруппировать 13" xmlns="http://www.w3.org/2000/svg" xmlns:xlink="http://www.w3.org/1999/xlink" width="419.663" height="273.494" viewBox="0 0 419.663 273.494">
  <defs>
    <clipPath id="clip-path">
      <rect id="Прямоугольник_209" data-name="Прямоугольник 209" width="395.501" height="211.506" transform="translate(395.501 211.506) rotate(180)" fill="none"/>
    </clipPath>
  </defs>
  <path id="Контур_4248" data-name="Контур 4248" d="M2268.7,2092.018h398.463a6.058,6.058,0,0,0,6.036-6.569l-2.2-26a10.8,10.8,0,0,1-.031-1.333l8.777-230.31a6.077,6.077,0,0,0-6.028-6.309l-402.654-2.969a10.9,10.9,0,0,0-10.975,11.107l4.323,223.1v6.048l.816,29.859A3.474,3.474,0,0,0,2268.7,2092.018Z" transform="translate(-2260.086 -1818.525)" fill="#040505"/>
  <path id="Контур_4249" data-name="Контур 4249" d="M2304.531,2058.752h355.832a14.865,14.865,0,0,0,14.862-14.58l3.3-172.357a14.865,14.865,0,0,0-15.055-15.147l-359.127,4.669a14.864,14.864,0,0,0-14.671,14.863v167.689A14.864,14.864,0,0,0,2304.531,2058.752Z" transform="translate(-2274.312 -1836.867)" fill="#fff"/>
  <rect id="Прямоугольник_205" data-name="Прямоугольник 205" width="400.943" height="2.488" transform="translate(408.062 240.255) rotate(180)" fill="#040505"/>
  <rect id="Прямоугольник_206" data-name="Прямоугольник 206" width="0.832" height="31.929" transform="translate(67.696 273.494) rotate(180)" fill="#e7335d"/>
  <path id="Контур_4250" data-name="Контур 4250" d="M2333.26,2306.569l-6.925-4-6.925-4a.371.371,0,0,0-.557.322v15.992a.371.371,0,0,0,.557.322l6.925-4,6.925-4A.371.371,0,0,0,2333.26,2306.569Z" transform="translate(-2288.348 -2049.362)" fill="#e7335d"/>
  <g id="Сгруппировать_3273" data-name="Сгруппировать 3273" transform="translate(352.114 249.442)">
    <path id="Контур_4251" data-name="Контур 4251" d="M3013.225,2304.374H3011.5v-3.517h-3.948v-1.723h5.67Z" transform="translate(-2971.667 -2299.098)" fill="#e7335d"/>
    <path id="Контур_4252" data-name="Контур 4252" d="M2994.276,2323.647h-5.527v-5.481h1.722v3.758h3.8Z" transform="translate(-2962.623 -2308.251)" fill="#e7335d"/>
    <path id="Контур_4253" data-name="Контур 4253" d="M3013.554,2323.541h-5.24v-1.723h3.517v-3.948h1.723Z" transform="translate(-2972.033 -2308.109)" fill="#e7335d"/>
    <path id="Контур_4254" data-name="Контур 4254" d="M2990.541,2304.592h-1.722v-5.527h5.481v1.723h-3.759Z" transform="translate(-2962.656 -2299.065)" fill="#e7335d"/>
    <g id="Сгруппировать_3272" data-name="Сгруппировать 3272" transform="translate(0 0.071)">
      <g id="Сгруппировать_3271" data-name="Сгруппировать 3271">
        <path id="Контур_4255" data-name="Контур 4255" d="M2938.418,2304.036v5.67h3.744l4.833,4.833V2299.2l-4.833,4.833Z" transform="translate(-2938.418 -2299.202)" fill="#e7335d"/>
        <path id="Контур_4256" data-name="Контур 4256" d="M2958.192,2303.808v1.206a4.255,4.255,0,0,1,0,8.144v1.206a5.419,5.419,0,0,0,0-10.556Z" transform="translate(-2947.928 -2301.417)" fill="#e7335d"/>
        <path id="Контур_4257" data-name="Контур 4257" d="M2958.192,2308.892v.6a2.127,2.127,0,0,1,0,4.072v.6a2.709,2.709,0,0,0,0-5.278Z" transform="translate(-2947.928 -2303.862)" fill="#e7335d"/>
      </g>
    </g>
  </g>
  <path id="Контур_4258" data-name="Контур 4258" d="M2840.026,1991.672c.029-.216.059-.374.081-.462C2840.165,1991.628,2840.117,1991.709,2840.026,1991.672Z" transform="translate(-2538.987 -1901.571)" fill="#e7335d"/>
  <rect id="Прямоугольник_207" data-name="Прямоугольник 207" width="289.636" height="6.048" transform="translate(121.22 234.207)" fill="#5d5c5c"/>
  <rect id="Прямоугольник_208" data-name="Прямоугольник 208" width="116.895" height="6.048" transform="translate(4.324 234.207)" fill="#e7335d"/>
  <g id="Сгруппировать_3276" data-name="Сгруппировать 3276" transform="translate(15.355 10.379)">
    <g id="Сгруппировать_3275" data-name="Сгруппировать 3275" transform="translate(0 0)" clip-path="url(#clip-path)">
      <g id="Сгруппировать_3274" data-name="Сгруппировать 3274" transform="translate(177.702 45.86)">
        <path id="Контур_4259" data-name="Контур 4259" d="M2735.43,2019.9a50.524,50.524,0,1,0-54.394,0A76.346,76.346,0,0,0,2632,2091.1c0,53.951,11.133,24.816,24.815,24.816h102.834c13.683,0,24.813,31.458,24.813-24.816A76.347,76.347,0,0,0,2735.43,2019.9Z" transform="translate(-2632.002 -1926.866)" fill="#e7335d"/>
      </g>
    </g>
  </g>
</svg>
