<svg id="icon_teleg" xmlns="http://www.w3.org/2000/svg" width="28.62" height="28.62" viewBox="0 0 28.62 28.62">
  <path id="Контур_4070" data-name="Контур 4070" d="M37.516,38.568l7.333-3.8-5.5,5.117-.259,2.341,1.5-1.4,4.9,3.853,2.466-12.764L34.231,37.433Z" transform="translate(-25.715 -23.987)" fill="#fff"/>
  <path id="Контур_4071" data-name="Контур 4071" d="M36.235,10H12.385A2.393,2.393,0,0,0,10,12.385v23.85a2.393,2.393,0,0,0,2.385,2.385h23.85a2.393,2.393,0,0,0,2.385-2.385V12.385A2.393,2.393,0,0,0,36.235,10ZM31.649,33.328a1.24,1.24,0,0,1-1.782.656l-4.831-3.929-3.1,3a.519.519,0,0,1-.508.072s-.228-.023-.514-.978-1.733-6-1.733-6l-4.8-1.713s-.736-.277-.806-.882.831-.933.831-.933l19.061-7.933s1.568-.73,1.568.479Z" transform="translate(-10 -10)" fill="#fff"/>
</svg>
