<svg xmlns="http://www.w3.org/2000/svg" width="28.617" height="28.617" viewBox="0 0 28.617 28.617">
  <path id="icon_linc" d="M27.755,2H4.862A2.866,2.866,0,0,0,2,4.862V27.755a2.866,2.866,0,0,0,2.862,2.862H27.755a2.866,2.866,0,0,0,2.862-2.862V4.862A2.866,2.866,0,0,0,27.755,2ZM10.731,24.893H6.293V12.585h4.438ZM8.439,11.154a1.993,1.993,0,0,1-2.146-2,2.042,2.042,0,0,1,2.292-2,1.993,1.993,0,0,1,2.146,2A2.042,2.042,0,0,1,8.439,11.154ZM26.324,24.893H21.886V18.168c0-1.86-1.139-2.289-1.57-2.289s-1.862.283-1.862,2.289v6.725H14.016V12.585h4.438v1.723c.569-1.007,1.717-1.723,3.863-1.723s3.86,1.723,3.86,5.585v6.724Z" transform="translate(-2 -2)" fill="#fff"/>
</svg>
