<svg id="icon_insta" xmlns="http://www.w3.org/2000/svg" width="28.62" height="28.62" viewBox="0 0 28.62 28.62">
  <path id="Контур_4073" data-name="Контур 4073" d="M40.952,16H19.668A3.682,3.682,0,0,0,16,19.668V40.952a3.682,3.682,0,0,0,3.668,3.668H40.952a3.682,3.682,0,0,0,3.668-3.668V19.668A3.682,3.682,0,0,0,40.952,16Zm-1.1,12.35v7.82a3.679,3.679,0,0,1-3.682,3.681H24.449a3.676,3.676,0,0,1-3.679-3.681V24.449a3.674,3.674,0,0,1,3.679-3.679H36.168a3.677,3.677,0,0,1,3.682,3.679Z" transform="translate(-16 -16)" fill="#fff" fill-rule="evenodd"/>
  <path id="Контур_4074" data-name="Контур 4074" d="M203.019,206.252a3.381,3.381,0,0,0,3.43-3.317,3.211,3.211,0,0,0-.444-1.618A3.407,3.407,0,0,0,205.8,201a3.45,3.45,0,0,0-5.767.315,3.2,3.2,0,0,0-.443,1.618A3.38,3.38,0,0,0,203.019,206.252Z" transform="translate(-188.71 -188.626)" fill="#fff" fill-rule="evenodd"/>
  <path id="Контур_4075" data-name="Контур 4075" d="M328.059,135.889v-3.2l-.427,0-2.872.008.011,3.2Z" transform="translate(-306.397 -125.723)" fill="#fff" fill-rule="evenodd"/>
  <path id="Контур_4076" data-name="Контур 4076" d="M139.494,223.534a5.133,5.133,0,1,1-9.872,0A5.559,5.559,0,0,1,129.8,223H127v7.725a1.806,1.806,0,0,0,1.8,1.808h11.517a1.808,1.808,0,0,0,1.8-1.808V223h-2.806A5.439,5.439,0,0,1,139.494,223.534Z" transform="translate(-120.249 -210.575)" fill="#fff" fill-rule="evenodd"/>
</svg>
