<svg xmlns="http://www.w3.org/2000/svg" width="28.62" height="28.619" viewBox="0 0 28.62 28.619">
  <path id="icon_fb" d="M2650.575,756.246h-21.282a3.68,3.68,0,0,0-3.669,3.667V781.2a3.679,3.679,0,0,0,3.669,3.667h21.282a3.679,3.679,0,0,0,3.669-3.667V759.913A3.682,3.682,0,0,0,2650.575,756.246Zm-4.723,6.444h-2.146c-1.681,0-2.007.827-2.007,2.039V767.4h4.009l-.524,4.188H2641.7v10.744l-4.184.009V771.6h-3.5v-4.188h3.5v-3.1a5.305,5.305,0,0,1-.012-.872,4.935,4.935,0,0,1,5.223-4.663,27.944,27.944,0,0,1,3.126.164Z" transform="translate(-2625.624 -756.246)" fill="#fff" fill-rule="evenodd"/>
</svg>
