<svg id="Слой_1" data-name="Слой 1" xmlns="http://www.w3.org/2000/svg" viewBox="0 0 405 405"><defs><style>.cls-1{fill:#e7335d;}.cls-2{fill:#fed841;}.cls-3{fill:#fff;}</style></defs><rect class="cls-1" width="405" height="405"/><path class="cls-2" d="M123.61,44.38A4.58,4.58,0,0,1,125,46a4.37,4.37,0,0,1,.51,2.07,4.29,4.29,0,0,1-.63,2.27,4.82,4.82,0,0,1-8.22,0,4.41,4.41,0,0,1,.19-4.83L121,39.32h3.47l-2.82,4.24A4.77,4.77,0,0,1,123.61,44.38Zm-1.51,4.93a1.7,1.7,0,0,0,.54-1.27,1.67,1.67,0,0,0-.54-1.25,1.82,1.82,0,0,0-1.31-.53,1.86,1.86,0,0,0-1.32.53,1.68,1.68,0,0,0-.55,1.25,1.71,1.71,0,0,0,.55,1.27,1.85,1.85,0,0,0,1.32.52A1.81,1.81,0,0,0,122.1,49.31Z"/><path class="cls-2" d="M133.24,45.82l3.94,6.66h-3.74l-3.24-5.32v5.32h-3.36V39.29h3.36v5.15l3.24-5.15h3.74Z"/><path class="cls-2" d="M138.67,44.66H146V47h-7.37Zm4.87-2.5v7.37h-2.37V42.16Z"/><path class="cls-2" d="M163.3,39.29h3.36V52.48H163.3V45l-1.64,3-.07.15h-3.36l-.1-.15-.22-.43L156.51,45v7.45h-3.38V39.29h3.38l3.4,5.61Z"/><path class="cls-2" d="M177.13,49.62v2.86h-9V39.29H177v2.85h-5.44v2.31h4.58v2.86h-4.58v2.31Z"/><path class="cls-2" d="M188.8,39.29h3.36V52.48H188.8V45l-1.64,3-.08.15h-3.36l-.09-.15-.23-.43L182,45v7.45h-3.37V39.29H182l3.4,5.61Z"/><path class="cls-2" d="M203.6,46.91a3.78,3.78,0,0,1,.43,1.76,3.68,3.68,0,0,1-.51,1.9A3.78,3.78,0,0,1,202.15,52a3.83,3.83,0,0,1-1.91.53h-6.59V39.27h6a3.59,3.59,0,0,1,1.92.52,3.83,3.83,0,0,1,1.36,1.38,3.65,3.65,0,0,1,.49,1.87,3.79,3.79,0,0,1-.26,1.37,3.57,3.57,0,0,1-.73,1.16A3.81,3.81,0,0,1,203.6,46.91Zm-3.48-4.54a1.35,1.35,0,0,0-1-.4h-2.43v2.8h2.43a3.09,3.09,0,0,0,.44-.07,1.35,1.35,0,0,0,.34-.19,1.37,1.37,0,0,0,.43-.5,1.45,1.45,0,0,0,.15-.66A1.38,1.38,0,0,0,200.12,42.37Zm.56,7a1.32,1.32,0,0,0,.38-1,1.35,1.35,0,0,0-.32-.89,1.31,1.31,0,0,0-.8-.48c-.08,0-1,0-2.65,0h-.56v2.8h3A1.34,1.34,0,0,0,200.68,49.34Z"/><path class="cls-2" d="M214.12,49.62v2.86h-9V39.29H214v2.85h-5.44v2.31h4.58v2.86h-4.58v2.31Z"/><path class="cls-2" d="M226.38,52.48H223l-2.09-5h-2.15v5h-3.15V39.29h6.29a4,4,0,0,1,3.55,2.05,4,4,0,0,1,.55,2,4,4,0,0,1-.5,2,4.29,4.29,0,0,1-1.36,1.48Zm-3.71-10a1.27,1.27,0,0,0-.88-.44H218.7v2.8h3.09a1.34,1.34,0,0,0,.88-.46,1.43,1.43,0,0,0,0-1.9Z"/><path class="cls-2" d="M233.53,43.46v-.24a1.16,1.16,0,0,0-.45-.92,1.67,1.67,0,0,0-1.12-.38,1.73,1.73,0,0,0-1.14.38,1.13,1.13,0,0,0-.48.92.87.87,0,0,0,.49.81,4.12,4.12,0,0,0,1.27.52l.28.05.33.08a6.46,6.46,0,0,1,2.67,1.1l.17.15a3.89,3.89,0,0,1,.88,1.29,3.62,3.62,0,0,1,.33,1.49,3.7,3.7,0,0,1-.36,1.6,4.33,4.33,0,0,1-1.06,1.37,5,5,0,0,1-1.56.88,5.41,5.41,0,0,1-1.83.31,5.27,5.27,0,0,1-1.82-.31,5,5,0,0,1-1.56-.88,4.36,4.36,0,0,1-1.07-1.37,3.71,3.71,0,0,1-.37-1.6v-.24h3.27v.24a1.16,1.16,0,0,0,.45.92A1.65,1.65,0,0,0,232,50a1.73,1.73,0,0,0,1.14-.39,1.13,1.13,0,0,0,.48-.92,1.08,1.08,0,0,0-.5-.82,2,2,0,0,0-.53-.28c-.2-.08-.44-.15-.72-.23l-.62-.14c-.68-.18-1.22-.33-1.61-.47a3.23,3.23,0,0,1-1.06-.64l-.07-.07a4.09,4.09,0,0,1-1-1.31,3.5,3.5,0,0,1-.35-1.53,3.71,3.71,0,0,1,.37-1.6,4.36,4.36,0,0,1,1.07-1.37,5,5,0,0,1,1.56-.88,5.27,5.27,0,0,1,1.82-.31,5.41,5.41,0,0,1,1.83.31,5,5,0,0,1,1.56.88,4.33,4.33,0,0,1,1.06,1.37,3.7,3.7,0,0,1,.36,1.6v.24Z"/><path class="cls-2" d="M246.84,39.29V52.48h-3.36V39.29Z"/><path class="cls-2" d="M255.59,39.29H259V52.48h-3.36l-3.88-7.07v7.07h-3.38V39.29h3.38l3.88,7.07Z"/><path class="cls-2" d="M273.66,49.09a3.8,3.8,0,0,0,1.12-.73l2.27,2.27a6.56,6.56,0,0,1-4.72,2,6.61,6.61,0,0,1-5.76-3.32,6.67,6.67,0,0,1,0-6.69,6.68,6.68,0,0,1,8.34-2.82,6.49,6.49,0,0,1,2.14,1.45l-2.27,2.27a3.8,3.8,0,0,0-1.12-.73,3.4,3.4,0,0,0-1.33-.27,3.27,3.27,0,0,0-1.71.46,3.43,3.43,0,0,0-1.25,1.26,3.29,3.29,0,0,0-.47,1.73,3.25,3.25,0,0,0,.47,1.72,3.48,3.48,0,0,0,1.25,1.25,3.27,3.27,0,0,0,1.71.46A3.4,3.4,0,0,0,273.66,49.09Z"/><path class="cls-2" d="M287.82,40.18a6.69,6.69,0,0,1,2.43,2.44,6.67,6.67,0,0,1,0,6.69,6.64,6.64,0,0,1-2.43,2.42,6.46,6.46,0,0,1-3.34.9,6.67,6.67,0,1,1,0-13.34A6.45,6.45,0,0,1,287.82,40.18Zm-1.62,8.75a3.48,3.48,0,0,0,1.25-1.25,3.28,3.28,0,0,0,.47-1.71,3.35,3.35,0,0,0-.47-1.73A3.51,3.51,0,0,0,286.2,43a3.38,3.38,0,0,0-3.44,0,3.46,3.46,0,0,0-1.26,1.26A3.35,3.35,0,0,0,281,46a3.28,3.28,0,0,0,.47,1.71,3.43,3.43,0,0,0,1.26,1.25,3.38,3.38,0,0,0,3.44,0Z"/><path class="cls-2" d="M302.44,39.29h3.36V52.48h-3.36V45l-1.65,3-.07.15h-3.36l-.09-.15-.23-.43L295.64,45v7.45h-3.38V39.29h3.38L299,44.9Z"/><path class="cls-2" d="M317.46,39.29h3.36V52.48h-3.36V45l-1.64,3-.08.15h-3.36l-.09-.15-.22-.43L310.67,45v7.45h-3.38V39.29h3.38l3.39,5.61Z"/><path class="cls-2" d="M333,39.3v8.16a5,5,0,0,1-.7,2.61,5.21,5.21,0,0,1-4.52,2.6h-.3a5.1,5.1,0,0,1-2.61-.7,5.24,5.24,0,0,1-1.9-1.9,5.13,5.13,0,0,1-.7-2.61V39.3h3.12v7.41a3.17,3.17,0,0,0,.56,1.92,1.79,1.79,0,0,0,1.53.77h.3a1.84,1.84,0,0,0,1.52-.77,3.11,3.11,0,0,0,.59-1.92V39.3Z"/><path class="cls-2" d="M341.8,39.29h3.36V52.48H341.8l-3.88-7.07v7.07h-3.38V39.29h3.38l3.88,7.07Z"/><path class="cls-2" d="M350,39.29V52.48h-3.36V39.29Z"/><path class="cls-2" d="M361.45,39.29v3.35h-3.38v9.84h-3.38V42.64h-3.37V39.29h10.13Z"/><path class="cls-2" d="M369.77,39.29h3.36l-3.88,7.81v5.38h-3.36V47.1L362,39.29h3.36l2.2,4.49Z"/><path class="cls-2" d="M60.29,361.84v1.87H58.42v5.45H56.55v-5.45H54.68v-1.87h5.61Z"/><path class="cls-2" d="M66,367.58v1.58H61v-7.32H65.9v1.59h-3v1.28h2.54v1.58H62.89v1.29Z"/><path class="cls-2" d="M68.69,367.4h2.87v1.76H66.82v-7.32h1.87Z"/><path class="cls-2" d="M77.26,367.58v1.58h-5v-7.32h4.88v1.59h-3v1.28h2.53v1.58H74.16v1.29Z"/><path class="cls-2" d="M81.43,364.16V364a.63.63,0,0,0-.25-.51.94.94,0,0,0-.62-.22,1,1,0,0,0-.63.22.63.63,0,0,0-.27.51.46.46,0,0,0,.27.44,2.14,2.14,0,0,0,.71.29l.16,0,.18,0a3.54,3.54,0,0,1,1.48.62l.09.08a2.2,2.2,0,0,1,.49.71,2.07,2.07,0,0,1,.18.83,2,2,0,0,1-.2.89,2.34,2.34,0,0,1-.58.76,3.1,3.1,0,0,1-.87.49,3.12,3.12,0,0,1-2,0,3,3,0,0,1-.86-.49,2.52,2.52,0,0,1-.59-.76,2,2,0,0,1-.21-.89v-.13h1.81v.13a.64.64,0,0,0,.26.51.91.91,0,0,0,.6.21,1,1,0,0,0,.64-.21.62.62,0,0,0,.26-.51.57.57,0,0,0-.28-.45.81.81,0,0,0-.29-.16l-.4-.12-.34-.09a7.4,7.4,0,0,1-.89-.26,1.71,1.71,0,0,1-.59-.35l0,0a2.07,2.07,0,0,1-.54-.72,1.93,1.93,0,0,1-.2-.85,2,2,0,0,1,.21-.89,2.52,2.52,0,0,1,.59-.76,2.82,2.82,0,0,1,.86-.49,3.12,3.12,0,0,1,2,0,2.87,2.87,0,0,1,.87.49,2.34,2.34,0,0,1,.58.76,2,2,0,0,1,.2.89v.13Z"/><path class="cls-2" d="M88.07,367.28a2,2,0,0,0,.62-.41L90,368.14a3.84,3.84,0,0,1-1.19.8,3.65,3.65,0,0,1-1.43.28,3.58,3.58,0,0,1-1.85-.49,3.72,3.72,0,0,1-1.35-1.35,3.58,3.58,0,0,1-.49-1.85,3.67,3.67,0,0,1,1.84-3.21,3.59,3.59,0,0,1,1.85-.5,3.65,3.65,0,0,1,1.43.29,3.84,3.84,0,0,1,1.19.8l-1.26,1.26a2.16,2.16,0,0,0-.62-.41,1.88,1.88,0,0,0-.74-.15,1.86,1.86,0,0,0-1,.26,2,2,0,0,0-.69.7,1.88,1.88,0,0,0,0,1.91,1.9,1.9,0,0,0,.69.69,1.77,1.77,0,0,0,1,.26A1.88,1.88,0,0,0,88.07,367.28Z"/><path class="cls-2" d="M96.54,369.16H94.67l-1.16-2.76H92.32v2.76H90.57v-7.32h3.49a2.26,2.26,0,0,1,1.13.31A2.23,2.23,0,0,1,96,363a2.26,2.26,0,0,1,.3,1.14,2.16,2.16,0,0,1-.28,1.09,2.3,2.3,0,0,1-.75.83Zm-2.06-5.57a.71.71,0,0,0-.49-.25H92.28v1.56H94a.72.72,0,0,0,.49-.26.76.76,0,0,0,.2-.53A.77.77,0,0,0,94.48,363.59Z"/><path class="cls-2" d="M97.23,368.86a1,1,0,0,1-.28-.71.92.92,0,0,1,.29-.68,1,1,0,0,1,1.37,0,1,1,0,0,1,.29.7,1,1,0,0,1-1,1A.92.92,0,0,1,97.23,368.86Z"/><path class="cls-2" d="M101.38,361.84v7.32H99.52v-7.32Z"/><path class="cls-2" d="M106.24,361.84h1.86v7.32h-1.86l-2.16-3.92v3.92h-1.87v-7.32h1.87l2.16,3.93Z"/><path class="cls-2" d="M130.09,379.2H32.78a.76.76,0,0,1-.75-.75V352.67a.76.76,0,0,1,.75-.75h97.31a.75.75,0,0,1,.75.75v25.78A.75.75,0,0,1,130.09,379.2Zm-96.56-1.5h95.81V353.42H33.53Z"/><path class="cls-2" d="M191.66,368.52a1.36,1.36,0,0,1-.45-.68,2.53,2.53,0,0,1-1.06.26,1.26,1.26,0,0,1-1-.45,1.76,1.76,0,0,1-.36-1.13,2.61,2.61,0,0,1,.21-1,2.27,2.27,0,0,1,.63-.87,2.63,2.63,0,0,1,1.81-.74,2.41,2.41,0,0,1,.67.09,2.62,2.62,0,0,1,.5.17l.23.13c0,.09-.08.29-.17.59s-.17.66-.25,1.06a6.25,6.25,0,0,0-.11,1.05q0,.56.21.69a.51.51,0,0,0,.27.08c.23,0,.44-.15.64-.46a2.91,2.91,0,0,0,.4-1.11c0-.05,0-.13,0-.24a2.8,2.8,0,0,0-.13-.86,3,3,0,0,0-.59-1.08,2.92,2.92,0,0,0-.95-.73A2.64,2.64,0,0,0,191,363a2.84,2.84,0,0,0-.89.16,2.79,2.79,0,0,0-1.08.68,3.33,3.33,0,0,0-.73,1.08,3.27,3.27,0,0,0-.26,1.26,3,3,0,0,0,.14.87,2.85,2.85,0,0,0,.6,1.09,3.06,3.06,0,0,0,1,.74,2.69,2.69,0,0,0,1.18.25v1.09h-.29a4.08,4.08,0,0,1-2.23-.8,3.76,3.76,0,0,1-1.33-1.89,4.27,4.27,0,0,1-.21-1.31,4.68,4.68,0,0,1,.43-1.94,4.36,4.36,0,0,1,1.2-1.57,3.94,3.94,0,0,1,1.2-.67,3.88,3.88,0,0,1,2.79,0,3.72,3.72,0,0,1,1.24.8,4.17,4.17,0,0,1,1,1.4,4.34,4.34,0,0,1,.32,1.63,4.09,4.09,0,0,1-.44,1.87,1.37,1.37,0,0,1-.27.39,2.45,2.45,0,0,1-.67.57,1.6,1.6,0,0,1-.84.22l-.33,0A1.6,1.6,0,0,1,191.66,368.52Zm-.26-3.28a1,1,0,0,1,.08-.19l-.1,0h-.18a1.67,1.67,0,0,0-.7.17,1.45,1.45,0,0,0-.62.61,1.24,1.24,0,0,0-.18.64.63.63,0,0,0,.12.4.42.42,0,0,0,.35.16,1.82,1.82,0,0,0,1-.5c0-.05,0-.17,0-.35s0-.33.07-.47A3.72,3.72,0,0,1,191.4,365.24Z"/><path class="cls-2" d="M201,361.84v1.87h-1.87v5.45h-1.88v-5.45H195.4v-1.87H201Z"/><path class="cls-2" d="M206.72,367.58v1.58h-5v-7.32h4.89v1.59h-3v1.28h2.53v1.58h-2.53v1.29Z"/><path class="cls-2" d="M209.41,367.4h2.88v1.76h-4.74v-7.32h1.86Z"/><path class="cls-2" d="M218,367.58v1.58h-5v-7.32h4.88v1.59h-3v1.28h2.54v1.58h-2.54v1.29Z"/><path class="cls-2" d="M222.16,364.16V364a.64.64,0,0,0-.26-.51.93.93,0,0,0-.61-.22,1,1,0,0,0-.64.22.64.64,0,0,0-.26.51.46.46,0,0,0,.27.44,2,2,0,0,0,.7.29l.16,0,.18,0a3.54,3.54,0,0,1,1.48.62l.09.08a2.23,2.23,0,0,1,.5.71,2.07,2.07,0,0,1,.18.83,2.1,2.1,0,0,1-.2.89,2.37,2.37,0,0,1-.59.76,2.85,2.85,0,0,1-.87.49,3.09,3.09,0,0,1-2,0,2.91,2.91,0,0,1-.86-.49,2.24,2.24,0,0,1-.59-.76,2,2,0,0,1-.21-.89v-.13h1.81v.13a.63.63,0,0,0,.25.51.92.92,0,0,0,.61.21,1,1,0,0,0,.63-.21.63.63,0,0,0,.27-.51.6.6,0,0,0-.28-.45.9.9,0,0,0-.29-.16l-.4-.12-.35-.09A8,8,0,0,1,220,366a1.71,1.71,0,0,1-.59-.35l0,0a2.35,2.35,0,0,1-.54-.72,1.92,1.92,0,0,1-.19-.85,2,2,0,0,1,.21-.89,2.24,2.24,0,0,1,.59-.76,2.71,2.71,0,0,1,.86-.49,3.09,3.09,0,0,1,2,0,2.65,2.65,0,0,1,.87.49,2.37,2.37,0,0,1,.59.76,2.1,2.1,0,0,1,.2.89v.13Z"/><path class="cls-2" d="M228.79,367.28a2,2,0,0,0,.62-.41l1.26,1.27a3.72,3.72,0,0,1-1.19.8,3.6,3.6,0,0,1-1.42.28,3.64,3.64,0,0,1-1.86-.49,3.77,3.77,0,0,1-1.34-1.35,3.59,3.59,0,0,1-.5-1.85,3.65,3.65,0,0,1,.5-1.86,3.69,3.69,0,0,1,1.34-1.35,3.65,3.65,0,0,1,1.86-.5,3.61,3.61,0,0,1,1.42.29,3.72,3.72,0,0,1,1.19.8l-1.26,1.26a2.16,2.16,0,0,0-.62-.41,1.83,1.83,0,0,0-.73-.15,1.87,1.87,0,0,0-1,.26,2,2,0,0,0-.69.7,1.88,1.88,0,0,0,0,1.91,1.9,1.9,0,0,0,.69.69,1.78,1.78,0,0,0,1,.26A1.83,1.83,0,0,0,228.79,367.28Z"/><path class="cls-2" d="M237.26,369.16h-1.87l-1.16-2.76H233v2.76h-1.75v-7.32h3.49a2.27,2.27,0,0,1,1.14.31,2.2,2.2,0,0,1,.83.83,2.17,2.17,0,0,1,.31,1.14,2.27,2.27,0,0,1-.28,1.09,2.42,2.42,0,0,1-.76.83Zm-2-5.57a.75.75,0,0,0-.49-.25H233v1.56h1.72a.77.77,0,0,0,.49-.26.75.75,0,0,0,.19-.53A.76.76,0,0,0,235.21,363.59Z"/><path id="telegram" class="cls-2" d="M181.17,360l-12.93,4.9c-.71.21-.69.9-.16,1.07l3.24,1,1.24,3.8c.15.42.27.58.53.58s.37-.09.65-.34l1.62-1.57,3.38,2.49c.62.35,1.06.17,1.22-.57l2.11-10.46C182.3,360,181.76,359.7,181.17,360Zm-9.34,6.75,7.36-4.62c.37-.24.48,0,.32.21l-6.12,5.5-.31,2.75Z"/><path class="cls-2" d="M251.24,379.2H153.93a.75.75,0,0,1-.75-.75V352.67a.75.75,0,0,1,.75-.75h97.31a.76.76,0,0,1,.75.75v25.78A.76.76,0,0,1,251.24,379.2Zm-96.56-1.5h95.81V353.42H154.68Z"/><path class="cls-2" d="M307.82,368.52a1.36,1.36,0,0,1-.45-.68,2.53,2.53,0,0,1-1.06.26,1.26,1.26,0,0,1-1-.45,1.76,1.76,0,0,1-.36-1.13,2.61,2.61,0,0,1,.21-1,2.35,2.35,0,0,1,.62-.87,2.66,2.66,0,0,1,1.81-.74,2.43,2.43,0,0,1,.68.09,2.49,2.49,0,0,1,.49.17,1.82,1.82,0,0,1,.24.13c0,.09-.08.29-.17.59s-.17.66-.25,1.06a5.45,5.45,0,0,0-.12,1.05c0,.37.08.6.22.69a.51.51,0,0,0,.27.08c.23,0,.44-.15.64-.46a2.91,2.91,0,0,0,.4-1.11c0-.05,0-.13,0-.24a3.14,3.14,0,0,0-.13-.86,3,3,0,0,0-.59-1.08,2.85,2.85,0,0,0-1-.73,2.57,2.57,0,0,0-1.16-.27,2.86,2.86,0,0,0-2,.84,3.18,3.18,0,0,0-.73,1.08,3.27,3.27,0,0,0-.26,1.26,3,3,0,0,0,.14.87,2.85,2.85,0,0,0,.6,1.09,3.06,3.06,0,0,0,1,.74,2.69,2.69,0,0,0,1.18.25v1.09h-.29a4,4,0,0,1-2.23-.8,3.76,3.76,0,0,1-1.33-1.89,4.27,4.27,0,0,1-.21-1.31,4.53,4.53,0,0,1,.43-1.94,4.36,4.36,0,0,1,1.2-1.57,3.94,3.94,0,0,1,1.2-.67,3.88,3.88,0,0,1,2.79,0,3.72,3.72,0,0,1,1.24.8,4,4,0,0,1,.95,1.4,4.16,4.16,0,0,1,.32,1.63,4.08,4.08,0,0,1-.43,1.87,1.37,1.37,0,0,1-.27.39,2.45,2.45,0,0,1-.67.57,1.6,1.6,0,0,1-.84.22l-.33,0A1.56,1.56,0,0,1,307.82,368.52Zm-.26-3.28a1,1,0,0,1,.08-.19l-.1,0h-.18a1.67,1.67,0,0,0-.7.17,1.45,1.45,0,0,0-.62.61,1.24,1.24,0,0,0-.18.64.63.63,0,0,0,.12.4.41.41,0,0,0,.35.16,1.82,1.82,0,0,0,1-.5c0-.05,0-.17,0-.35s0-.33.07-.47A3.72,3.72,0,0,1,307.56,365.24Z"/><path class="cls-2" d="M317.18,361.84v1.87H315.3v5.45h-1.87v-5.45h-1.87v-1.87h5.62Z"/><path class="cls-2" d="M322.88,367.58v1.58h-5v-7.32h4.89v1.59h-3v1.28h2.54v1.58h-2.54v1.29Z"/><path class="cls-2" d="M325.57,367.4h2.87v1.76h-4.73v-7.32h1.86Z"/><path class="cls-2" d="M334.15,367.58v1.58h-5v-7.32h4.88v1.59h-3v1.28h2.54v1.58H331v1.29Z"/><path class="cls-2" d="M338.32,364.16V364a.64.64,0,0,0-.26-.51.93.93,0,0,0-.61-.22,1,1,0,0,0-.64.22.62.62,0,0,0-.26.51.46.46,0,0,0,.27.44,2,2,0,0,0,.7.29l.16,0,.18,0a3.54,3.54,0,0,1,1.48.62l.09.08a2.4,2.4,0,0,1,.5.71,2.07,2.07,0,0,1,.18.83,2,2,0,0,1-.21.89,2.21,2.21,0,0,1-.58.76,2.94,2.94,0,0,1-1.88.66,3.06,3.06,0,0,1-1-.17,3.1,3.1,0,0,1-.87-.49A2.52,2.52,0,0,1,335,368a2.1,2.1,0,0,1-.2-.89v-.13h1.81v.13a.63.63,0,0,0,.25.51.92.92,0,0,0,.61.21,1,1,0,0,0,.63-.21.63.63,0,0,0,.27-.51.6.6,0,0,0-.28-.45,1,1,0,0,0-.29-.16l-.41-.12-.34-.09a8,8,0,0,1-.89-.26,1.71,1.71,0,0,1-.59-.35l0,0a2.35,2.35,0,0,1-.54-.72,1.92,1.92,0,0,1-.19-.85,2.1,2.1,0,0,1,.2-.89,2.52,2.52,0,0,1,.59-.76,2.87,2.87,0,0,1,.87-.49,3.06,3.06,0,0,1,1-.17,3.1,3.1,0,0,1,1,.17,2.87,2.87,0,0,1,.87.49,2.21,2.21,0,0,1,.58.76,2,2,0,0,1,.21.89v.13Z"/><path class="cls-2" d="M345,367.28a2,2,0,0,0,.62-.41l1.26,1.27a3.72,3.72,0,0,1-1.19.8,3.76,3.76,0,0,1-3.28-.21,3.77,3.77,0,0,1-1.34-1.35,3.59,3.59,0,0,1-.5-1.85,3.65,3.65,0,0,1,.5-1.86,3.69,3.69,0,0,1,1.34-1.35,3.67,3.67,0,0,1,3.28-.21,3.72,3.72,0,0,1,1.19.8l-1.26,1.26a2.16,2.16,0,0,0-.62-.41,1.88,1.88,0,0,0-.74-.15,1.86,1.86,0,0,0-.95.26,2,2,0,0,0-.69.7,1.88,1.88,0,0,0,0,1.91,1.9,1.9,0,0,0,.69.69,1.77,1.77,0,0,0,.95.26A1.88,1.88,0,0,0,345,367.28Z"/><path class="cls-2" d="M353.42,369.16h-1.87l-1.16-2.76H349.2v2.76h-1.75v-7.32h3.49a2.27,2.27,0,0,1,1.14.31,2.2,2.2,0,0,1,.83.83,2.26,2.26,0,0,1,0,2.23,2.42,2.42,0,0,1-.76.83Zm-2.06-5.57a.71.71,0,0,0-.48-.25h-1.72v1.56h1.72a.72.72,0,0,0,.48-.26.76.76,0,0,0,.2-.53A.77.77,0,0,0,351.36,363.59Z"/><path class="cls-2" d="M355.91,361.84v7.32H354v-7.32Z"/><path class="cls-2" d="M360.76,361.84h1.86v7.32h-1.86l-2.15-3.92v3.92h-1.88v-7.32h1.88l2.15,3.93Z"/><path id="telegram-2" data-name="telegram" class="cls-2" d="M297.9,360,285,364.87c-.7.21-.68.9-.16,1.07l3.24,1,1.24,3.8c.15.42.28.58.53.58s.38-.09.66-.34l1.62-1.57,3.37,2.49c.62.35,1.07.17,1.22-.57l2.12-10.46C299,360,298.49,359.7,297.9,360Zm-9.35,6.75,7.37-4.62c.36-.24.47,0,.31.21l-6.11,5.5-.32,2.75Z"/><path class="cls-2" d="M372.38,379.2H275.07a.76.76,0,0,1-.75-.75V352.67a.76.76,0,0,1,.75-.75h97.31a.75.75,0,0,1,.75.75v25.78A.75.75,0,0,1,372.38,379.2Zm-96.56-1.5h95.81V353.42H275.82Z"/><path d="M66,234.77a6.72,6.72,0,0,0,2.06-1.36l4.2,4.2a12.49,12.49,0,0,1-4,2.66,12,12,0,0,1-4.74.94,11.84,11.84,0,0,1-6.15-1.65A12.26,12.26,0,0,1,53,235.1a12.34,12.34,0,0,1,0-12.33,12.23,12.23,0,0,1,4.47-4.48,12.26,12.26,0,0,1,10.89-.71,12.36,12.36,0,0,1,4,2.67l-4.2,4.19A6.72,6.72,0,0,0,66,223.08a6.19,6.19,0,0,0-2.44-.5,6.07,6.07,0,0,0-3.16.86,6.5,6.5,0,0,0-2.31,2.32,6.22,6.22,0,0,0-.86,3.18,6.13,6.13,0,0,0,.86,3.17,6.53,6.53,0,0,0,2.31,2.3,6.07,6.07,0,0,0,3.16.86A6.19,6.19,0,0,0,66,234.77Z"/><path d="M92.1,218.35a12.26,12.26,0,0,1,4.47,4.49,12.34,12.34,0,0,1,0,12.33,12.33,12.33,0,0,1-4.47,4.46,12.32,12.32,0,0,1-12.32,0,12.31,12.31,0,0,1-4.49-4.46,12.34,12.34,0,0,1,0-12.33,12.24,12.24,0,0,1,4.49-4.49,12.32,12.32,0,0,1,12.32,0Zm-3,16.13a6.64,6.64,0,0,0,2.31-2.31,6.06,6.06,0,0,0,.85-3.16,6.21,6.21,0,0,0-.85-3.18,6.58,6.58,0,0,0-2.31-2.32,6.1,6.1,0,0,0-3.16-.86,6.17,6.17,0,0,0-3.18.86,6.37,6.37,0,0,0-2.32,2.32,6.22,6.22,0,0,0-.86,3.18,6.07,6.07,0,0,0,.86,3.16,6.42,6.42,0,0,0,2.32,2.31,6.17,6.17,0,0,0,3.18.86A6.1,6.1,0,0,0,89.11,234.48Z"/><path d="M113.66,216.7h6.18V241h-6.18l-7.15-13v13h-6.23V216.7h6.23l7.15,13Z"/><path d="M138.58,216.63h6.74L137.38,241h-7.57l-7.9-24.38h6.8l4.92,15.2Z"/><path d="M163.92,235.75V241H147.38V216.7h16.23V222h-10v4.27H162v5.26H153.6v4.26Z"/><path d="M186.5,241h-6.22l-3.85-9.18h-4V241h-5.81V216.7h11.58a7.57,7.57,0,0,1,6.64,11.19,7.86,7.86,0,0,1-2.51,2.74Zm-6.84-18.51a2.24,2.24,0,0,0-1.62-.81h-5.7v5.15H178a2.35,2.35,0,0,0,1.62-.84,2.55,2.55,0,0,0,.65-1.77A2.5,2.5,0,0,0,179.66,222.5Z"/><path d="M199.67,224.4V224a2.14,2.14,0,0,0-.84-1.7,3.12,3.12,0,0,0-2.05-.71,3.26,3.26,0,0,0-2.11.71,2.1,2.1,0,0,0-.88,1.7,1.59,1.59,0,0,0,.89,1.48,7.57,7.57,0,0,0,2.34,1c.16,0,.34.06.53.1l.61.14c2.45.6,4.09,1.27,4.91,2l.31.27a7.43,7.43,0,0,1,1.63,2.37,6.71,6.71,0,0,1,.61,2.75,6.89,6.89,0,0,1-.67,3,7.65,7.65,0,0,1-1.95,2.51,9,9,0,0,1-2.88,1.63,10.07,10.07,0,0,1-3.37.57,10,10,0,0,1-3.36-.57,9.17,9.17,0,0,1-2.87-1.63,8,8,0,0,1-2-2.51,6.76,6.76,0,0,1-.68-3v-.44h6v.44a2.14,2.14,0,0,0,.85,1.71,3,3,0,0,0,2,.7,3.25,3.25,0,0,0,2.11-.7,2.11,2.11,0,0,0,.88-1.71,2,2,0,0,0-.93-1.51,4,4,0,0,0-1-.51c-.37-.14-.82-.28-1.34-.42l-1.14-.27c-1.26-.32-2.24-.61-3-.86a5.71,5.71,0,0,1-2-1.17l-.14-.14a7.84,7.84,0,0,1-1.81-2.4,6.59,6.59,0,0,1-.63-2.82,6.79,6.79,0,0,1,.68-3,8.08,8.08,0,0,1,2-2.51,9.37,9.37,0,0,1,2.87-1.63,10,10,0,0,1,3.36-.57,10.07,10.07,0,0,1,3.37.57,9.19,9.19,0,0,1,2.88,1.63A7.76,7.76,0,0,1,205,221a6.92,6.92,0,0,1,.67,3v.44Z"/><path d="M213.87,216.7V241h-6.19V216.7Z"/><path d="M234.39,218.35a12.26,12.26,0,0,1,4.47,4.49,12.34,12.34,0,0,1,0,12.33,12.33,12.33,0,0,1-4.47,4.46,12.32,12.32,0,0,1-12.32,0,12.23,12.23,0,0,1-4.49-4.46,12.34,12.34,0,0,1,0-12.33,12.16,12.16,0,0,1,4.49-4.49,12.32,12.32,0,0,1,12.32,0Zm-3,16.13a6.53,6.53,0,0,0,2.3-2.31,6.07,6.07,0,0,0,.86-3.16,6.22,6.22,0,0,0-.86-3.18,6.47,6.47,0,0,0-2.3-2.32,6.1,6.1,0,0,0-3.16-.86,6.17,6.17,0,0,0-3.18.86,6.37,6.37,0,0,0-2.32,2.32,6.13,6.13,0,0,0-.86,3.18,6,6,0,0,0,.86,3.16,6.42,6.42,0,0,0,2.32,2.31,6.17,6.17,0,0,0,3.18.86A6.1,6.1,0,0,0,231.4,234.48Z"/><path d="M255.94,216.7h6.19V241h-6.19l-7.15-13v13h-6.22V216.7h6.22l7.15,13Z"/><path d="M295,241h-6.22L285,231.83h-4V241h-5.81V216.7h11.59a7.57,7.57,0,0,1,6.64,11.19,7.86,7.86,0,0,1-2.51,2.74Zm-6.84-18.51a2.28,2.28,0,0,0-1.62-.81h-5.7v5.15h5.7a2.39,2.39,0,0,0,1.62-.84,2.6,2.6,0,0,0,.65-1.77A2.55,2.55,0,0,0,288.19,222.5Z"/><path d="M309.74,216.94,317.69,241h-6l-1.58-4.92h-7.53L301.05,241h-6l8-24.07Zm-5.53,14.13h4.33l-2.16-6.8Z"/><path d="M336.7,216.7v6.19h-6.23V241h-6.22V222.89H318V216.7H336.7Z"/><path d="M355.64,235.75V241H339.1V216.7h16.23V222h-10v4.27h8.43v5.26h-8.43v4.26Z"/><path class="cls-3" d="M53.11,137.15h55.41V155H53.11Zm36.61-18.8v55.41H71.91V118.35Z"/><path class="cls-3" d="M145.83,96.75h11.5v99.17H132.08V125.79l-13.74,4.34V105.45l13.74-4.35Z"/><path class="cls-3" d="M227.19,103.34a46.51,46.51,0,0,1,14.87,18.24,60.53,60.53,0,0,1,0,50.29,46.42,46.42,0,0,1-14.87,18.3,34.53,34.53,0,0,1-41,0,46.83,46.83,0,0,1-14.94-18.3,59.83,59.83,0,0,1,0-50.29,46.92,46.92,0,0,1,14.94-18.24,34.53,34.53,0,0,1,41,0Zm-11.92,63.9a21.16,21.16,0,0,0,6.17-8.63,31.23,31.23,0,0,0,2.24-11.92,29.87,29.87,0,0,0-2.31-11.86,22.66,22.66,0,0,0-6.17-8.62,13,13,0,0,0-8.49-3.23,13.21,13.21,0,0,0-8.56,3.23,22.17,22.17,0,0,0-6.24,8.62,29.87,29.87,0,0,0-2.31,11.86,30.34,30.34,0,0,0,2.31,11.92,21.56,21.56,0,0,0,6.24,8.63,13.21,13.21,0,0,0,17.12,0Z"/><path class="cls-3" d="M277,97.73A21.19,21.19,0,0,1,295.15,108,20,20,0,0,1,298,118.49a19.58,19.58,0,0,1-2.88,10.45,21.23,21.23,0,0,1-36.33-.07,19.72,19.72,0,0,1-2.88-10.38A20,20,0,0,1,258.82,108,21.16,21.16,0,0,1,277,97.73Zm47.28.14h21.6l-62.42,97.35H261.83ZM277,125.79a6.53,6.53,0,0,0,4.91-2,8,8,0,0,0,0-10.52,6.55,6.55,0,0,0-4.91-2,6.81,6.81,0,0,0-5,2,7.83,7.83,0,0,0,0,10.52A6.78,6.78,0,0,0,277,125.79Zm53.87,28.89A21.3,21.3,0,0,1,349,164.85a20.4,20.4,0,0,1,0,20.9,21.24,21.24,0,0,1-36.33-.07,20.33,20.33,0,0,1,0-20.83,21.33,21.33,0,0,1,18.17-10.17Zm0,28.06a6.42,6.42,0,0,0,4.91-2.11,7.48,7.48,0,0,0,2-5.33,7.09,7.09,0,0,0-2-5.12,6.57,6.57,0,0,0-4.91-2,6.77,6.77,0,0,0-5,2,7,7,0,0,0-2,5.12,7.27,7.27,0,0,0,2,5.4A6.74,6.74,0,0,0,330.85,182.74Z"/><rect class="cls-2" x="58.23" y="273.54" width="314.91" height="55.56"/><path d="M70.34,287.26a2.42,2.42,0,0,1,.27,1.13,2.34,2.34,0,0,1-.32,1.22,2.5,2.5,0,0,1-.88.89,2.47,2.47,0,0,1-1.23.34H63.94v-8.49h3.85a2.44,2.44,0,0,1,2.43,2.43,2.43,2.43,0,0,1-.64,1.63A2.52,2.52,0,0,1,70.34,287.26Zm-2.24-2.92a.85.85,0,0,0-.62-.26H65.92v1.8h1.56l.29,0a1,1,0,0,0,.22-.12.86.86,0,0,0,.27-.33.84.84,0,0,0,.1-.42A.86.86,0,0,0,68.1,284.34Zm.36,4.48a.85.85,0,0,0,.25-.63.84.84,0,0,0-.21-.57.88.88,0,0,0-.51-.31H65.92v1.8h1.92A.87.87,0,0,0,68.46,288.82Z"/><path d="M77.73,282.36v2.16H75.56v6.32H73.39v-6.32H71.21v-2.16h6.52Z"/><path d="M85.4,282.36h1.87v8.48H85.11l-2.18-3.61-2.2,3.61H78.57v-8.48h2.16v4.78l1.06-1.92.06-.09H84l0,.09,1.06,1.92v-4.78Z"/><path d="M88.23,282.44h2.34l-.12,5.9h-2.1Zm1.92,8.18a1.1,1.1,0,0,1-1.51,0,1.07,1.07,0,1,1,1.51,0Z"/><path d="M102,282.36h1.87v8.48h-2.16l-2.18-3.61-2.2,3.61H95.13v-8.48h2.16v4.78l1.06-1.92.06-.09h2.16l0,.09,1.06,1.92v-4.78Z"/><path d="M110.56,289v1.84h-5.77v-8.48h5.66v1.83H107v1.49h2.94v1.84H107V289Z"/><path d="M113.35,282.37v2.95H111.4v-2.95Z"/><path d="M119.77,282.33h2.35l-2.77,8.51h-2.64L114,282.33h2.37l1.72,5.31Z"/><path d="M128.61,289v1.84h-5.77v-8.48h5.66v1.83H125v1.49H128v1.84H125V289Z"/><path d="M139.56,287.26a2.31,2.31,0,0,1,.28,1.13,2.41,2.41,0,0,1-1.21,2.11,2.47,2.47,0,0,1-1.23.34h-4.23v-8.49H137a2.38,2.38,0,0,1,1.24.34,2.56,2.56,0,0,1,.87.89,2.49,2.49,0,0,1,.15,2.08,2.64,2.64,0,0,1-.47.75A2.39,2.39,0,0,1,139.56,287.26Zm-2.23-2.92a.87.87,0,0,0-.62-.26h-1.56v1.8h1.56l.29,0,.21-.12a1,1,0,0,0,.28-.33,1,1,0,0,0,.09-.42A.85.85,0,0,0,137.33,284.34Zm.36,4.48a.81.81,0,0,0,.24-.63.88.88,0,0,0-.2-.57.91.91,0,0,0-.52-.31h-2.06v1.8h1.92A.89.89,0,0,0,137.69,288.82Z"/><path d="M146.33,289v1.84h-5.77v-8.48h5.66v1.83h-3.49v1.49h2.94v1.84h-2.94V289Z"/><path d="M152.19,288.66a2.3,2.3,0,0,0,.72-.47l1.46,1.46a4.31,4.31,0,0,1-1.38.93,4.32,4.32,0,0,1-3.8-.24,4.32,4.32,0,0,1-1.56-1.56,4.29,4.29,0,0,1,1.56-5.87,4.1,4.1,0,0,1,2.15-.58,4.19,4.19,0,0,1,1.65.33,4.31,4.31,0,0,1,1.38.93l-1.46,1.47a2.52,2.52,0,0,0-.72-.48,2.26,2.26,0,0,0-.85-.17,2.15,2.15,0,0,0-1.11.3,2.3,2.3,0,0,0-.8.81,2.15,2.15,0,0,0-.3,1.11,2.09,2.09,0,0,0,.3,1.1,2.3,2.3,0,0,0,.8.81,2.15,2.15,0,0,0,1.11.3A2.09,2.09,0,0,0,152.19,288.66Z"/><path d="M161.3,282.93a4.43,4.43,0,0,1,1.56,1.57,4.34,4.34,0,0,1,0,4.3,4.32,4.32,0,0,1-1.56,1.56,4.29,4.29,0,0,1-4.31,0,4.17,4.17,0,0,1-1.56-1.56,4.27,4.27,0,0,1,0-4.3,4.31,4.31,0,0,1,5.87-1.57Zm-1.05,5.63a2.3,2.3,0,0,0,.81-.8,2.2,2.2,0,0,0,0-2.22,2.25,2.25,0,0,0-.81-.81,2.09,2.09,0,0,0-1.1-.3,2.15,2.15,0,0,0-1.11.3,2.25,2.25,0,0,0-.81.81,2.2,2.2,0,0,0,0,2.22,2.3,2.3,0,0,0,.81.8,2.15,2.15,0,0,0,1.11.3A2.09,2.09,0,0,0,160.25,288.56Z"/><path d="M170.69,282.36h2.16v8.48h-2.16v-4.79L169.64,288l0,.1h-2.16l-.06-.1-.15-.27-.9-1.65v4.79h-2.17v-8.48h2.17l2.19,3.61Z"/><path d="M179.58,289v1.84h-5.77v-8.48h5.67v1.83H176v1.49h2.94v1.84H176V289Z"/><path d="M189.51,282.71a2.6,2.6,0,0,1,1,1,2.55,2.55,0,0,1,.36,1.33,2.52,2.52,0,0,1-.36,1.32,2.46,2.46,0,0,1-1,1,2.52,2.52,0,0,1-1.32.36h-2v3.2h-2v-8.48h4.05A2.51,2.51,0,0,1,189.51,282.71Zm-.82,1.67a.82.82,0,0,0-.57-.28h-2v1.8h2a.85.85,0,0,0,.57-.3.93.93,0,0,0,.23-.62A.88.88,0,0,0,188.69,284.38Z"/><path d="M196,282.44l2.78,8.4h-2.09l-.55-1.71h-2.63l-.54,1.71h-2.1l2.78-8.4ZM194,287.37h1.51l-.75-2.37Z"/><path d="M205.9,290.84h-2.17l-1.35-3.2H201v3.2h-2v-8.48h4a2.56,2.56,0,0,1,1.32.35,2.65,2.65,0,0,1,1,1,2.65,2.65,0,0,1,0,2.58,2.79,2.79,0,0,1-.88,1Zm-2.39-6.46a.78.78,0,0,0-.56-.28h-2v1.8h2a.89.89,0,0,0,.56-.3.91.91,0,0,0,.23-.62A.88.88,0,0,0,203.51,284.38Z"/><path d="M213,282.36v2.16h-2.18v6.32h-2.17v-6.32H206.5v-2.16H213Z"/><path d="M218.52,282.36h2.16v8.48h-2.16L216,286.29v4.55h-2.17v-8.48H216l2.49,4.54Z"/><path d="M227.42,289v1.84h-5.78v-8.48h5.67v1.83h-3.5v1.49h2.94v1.84h-2.94V289Z"/><path d="M235.3,290.84h-2.17l-1.35-3.2H230.4v3.2h-2v-8.48h4a2.56,2.56,0,0,1,1.32.35,2.65,2.65,0,0,1,1,1,2.61,2.61,0,0,1,.35,1.32,2.5,2.5,0,0,1-.33,1.26,2.67,2.67,0,0,1-.87,1Zm-2.39-6.46a.78.78,0,0,0-.56-.28h-2v1.8h2a.89.89,0,0,0,.56-.3.91.91,0,0,0,.23-.62A.88.88,0,0,0,232.91,284.38Z"/><path d="M239.9,285v-.15a.77.77,0,0,0-.3-.6,1.09,1.09,0,0,0-.71-.24,1.15,1.15,0,0,0-.74.24.75.75,0,0,0-.31.6.55.55,0,0,0,.32.51,2.46,2.46,0,0,0,.81.34l.19,0,.21,0a4.25,4.25,0,0,1,1.71.71l.11.1a2.56,2.56,0,0,1,.57.83,2.38,2.38,0,0,1,.21,1,2.46,2.46,0,0,1-.23,1,2.71,2.71,0,0,1-.68.87,3.14,3.14,0,0,1-1,.57,3.35,3.35,0,0,1-1.17.2,3.27,3.27,0,0,1-1.17-.2,3.14,3.14,0,0,1-1-.57,2.71,2.71,0,0,1-.68-.87,2.32,2.32,0,0,1-.24-1v-.16h2.1v.16a.75.75,0,0,0,.29.59,1.1,1.1,0,0,0,.71.25,1.15,1.15,0,0,0,.73-.25.72.72,0,0,0,.31-.59.7.7,0,0,0-.32-.53,1.56,1.56,0,0,0-.34-.18,4.42,4.42,0,0,0-.47-.15l-.39-.09c-.44-.11-.79-.21-1-.3a2.29,2.29,0,0,1-.68-.41l-.05-.05a2.81,2.81,0,0,1-.63-.84,2.23,2.23,0,0,1-.22-1,2.29,2.29,0,0,1,.24-1,2.86,2.86,0,0,1,.68-.88,3.14,3.14,0,0,1,1-.57,3.51,3.51,0,0,1,1.17-.2,3.6,3.6,0,0,1,1.17.2,3.14,3.14,0,0,1,1,.57,2.86,2.86,0,0,1,.68.88,2.42,2.42,0,0,1,.23,1V285Z"/><path d="M253.12,282.36H255v8.48h-2.16l-2.18-3.61-2.2,3.61h-2.16v-8.48h2.16v4.78l1.06-1.92.06-.09h2.16l0,.09,1.06,1.92v-4.78Z"/><path d="M258.11,282.36v8.48H256v-8.48Z"/><path d="M265.47,282.36v2.16h-2.18v6.32h-2.17v-6.32H259v-2.16h6.52Z"/><path d="M270.89,282.36h2.16v8.48h-2.16v-3.17h-2.42v3.17h-2.16v-8.48h2.16v3.15h2.42Z"/><path d="M284,282.36v2.16h-2.18v6.32h-2.17v-6.32h-2.17v-2.16H284Z"/><path d="M290.62,289v1.84h-5.77v-8.48h5.66v1.83H287v1.49H290v1.84H287V289Z"/><path d="M293.74,288.8h3.33v2h-5.49v-8.48h2.16Z"/><path d="M303.69,289v1.84h-5.78v-8.48h5.67v1.83h-3.49v1.49H303v1.84h-2.94V289Z"/><path d="M308.52,285v-.15a.79.79,0,0,0-.29-.6,1.12,1.12,0,0,0-.72-.24,1.14,1.14,0,0,0-.73.24.75.75,0,0,0-.31.6.54.54,0,0,0,.31.51,2.53,2.53,0,0,0,.82.34l.18,0,.21,0a4.25,4.25,0,0,1,1.72.71l.11.1a2.56,2.56,0,0,1,.57.83,2.38,2.38,0,0,1,.21,1,2.32,2.32,0,0,1-.24,1,2.55,2.55,0,0,1-.67.87,3.25,3.25,0,0,1-1,.57,3.36,3.36,0,0,1-1.18.2,3.27,3.27,0,0,1-1.17-.2,3.21,3.21,0,0,1-1-.57,2.58,2.58,0,0,1-.68-.87,2.32,2.32,0,0,1-.24-1v-.16h2.1v.16a.72.72,0,0,0,.29.59,1.09,1.09,0,0,0,.7.25,1.16,1.16,0,0,0,.74-.25.74.74,0,0,0,.31-.59.69.69,0,0,0-.33-.53,1.48,1.48,0,0,0-.33-.18l-.47-.15-.4-.09c-.44-.11-.78-.21-1-.3a2.06,2.06,0,0,1-.68-.41l-.05-.05a2.81,2.81,0,0,1-.63-.84,2.23,2.23,0,0,1-.22-1,2.29,2.29,0,0,1,.24-1,2.71,2.71,0,0,1,.68-.88,3.21,3.21,0,0,1,1-.57,3.51,3.51,0,0,1,1.17-.2,3.61,3.61,0,0,1,1.18.2,3.25,3.25,0,0,1,1,.57,2.68,2.68,0,0,1,.67.88,2.29,2.29,0,0,1,.24,1V285Z"/><path d="M316.21,288.66a2.09,2.09,0,0,0,.72-.47l1.47,1.46a4.31,4.31,0,0,1-1.38.93,4.34,4.34,0,0,1-3.81-.24,4.48,4.48,0,0,1-1.56-1.56,4.36,4.36,0,0,1,0-4.31,4.32,4.32,0,0,1,1.56-1.56,4.16,4.16,0,0,1,2.15-.58,4.2,4.2,0,0,1,1.66.33,4.31,4.31,0,0,1,1.38.93l-1.47,1.47a2.27,2.27,0,0,0-.72-.48,2.22,2.22,0,0,0-.85-.17,2.09,2.09,0,0,0-1.1.3,2.25,2.25,0,0,0-.81.81,2.15,2.15,0,0,0-.3,1.11,2.09,2.09,0,0,0,.3,1.1,2.25,2.25,0,0,0,.81.81,2.09,2.09,0,0,0,1.1.3A2.06,2.06,0,0,0,316.21,288.66Z"/><path d="M326,290.84h-2.17l-1.34-3.2h-1.38v3.2h-2v-8.48h4a2.56,2.56,0,0,1,1.32.35,2.65,2.65,0,0,1,1,1,2.65,2.65,0,0,1,0,2.58,2.79,2.79,0,0,1-.88,1Zm-2.39-6.46a.78.78,0,0,0-.56-.28h-2v1.8h2a.89.89,0,0,0,.56-.3.87.87,0,0,0,.23-.62A.84.84,0,0,0,323.65,284.38Z"/><path d="M328.92,282.36v8.48h-2.16v-8.48Z"/><path d="M334.55,282.36h2.16v8.48h-2.16l-2.5-4.55v4.55h-2.17v-8.48h2.17l2.5,4.54Z"/><path d="M345.69,282.44l2.77,8.4h-2.09l-.55-1.71h-2.63l-.54,1.71h-2.1l2.78-8.4Zm-1.94,4.93h1.52l-.76-2.37Z"/><path d="M353.37,282.36h2.16v8.48h-2.16l-2.5-4.55v4.55H348.7v-8.48h2.17l2.5,4.54Z"/><path d="M360.21,282.33a4.79,4.79,0,0,1,1.27.3,3.81,3.81,0,0,1,1.17.73,4.2,4.2,0,0,1,1,1.46,4.3,4.3,0,0,1,.37,1.75,4.13,4.13,0,0,1-.47,1.95,3.8,3.8,0,0,1-1.31,1.5,4.61,4.61,0,0,1-1.73.68,12.45,12.45,0,0,1-2.14.16h-1.92v-8.58h2.17A14,14,0,0,1,360.21,282.33Zm1.78,4.24a2.19,2.19,0,0,0-.28-1.09,2.39,2.39,0,0,0-.79-.82,2,2,0,0,0-1.09-.32h-1.17v4.42a9.06,9.06,0,0,0,1.48-.1,2.58,2.58,0,0,0,1.12-.47,1.89,1.89,0,0,0,.67-1.12A2.34,2.34,0,0,0,362,286.57Z"/><path d="M68.61,296.76h2.16v8.48H68.61l-2.5-4.55v4.55H63.94v-8.48h2.17l2.5,4.54Z"/><path d="M77.93,297.33a4.27,4.27,0,0,1,1.56,1.57,4.29,4.29,0,0,1-3.7,6.44,4.26,4.26,0,0,1-2.16-.58,4.17,4.17,0,0,1-1.56-1.56,4.27,4.27,0,0,1,0-4.3,4.24,4.24,0,0,1,3.72-2.14A4.18,4.18,0,0,1,77.93,297.33Zm-1,5.63a2.27,2.27,0,0,0,.8-.8,2.2,2.2,0,0,0,0-2.22,2.22,2.22,0,0,0-.8-.81,2.12,2.12,0,0,0-1.1-.3,2.15,2.15,0,0,0-1.11.3,2.25,2.25,0,0,0-.81.81,2.2,2.2,0,0,0,0,2.22,2.3,2.3,0,0,0,.81.8,2.15,2.15,0,0,0,1.11.3A2.12,2.12,0,0,0,76.89,303Z"/><path d="M87.62,296.76h1.87v8.48H87.33l-2.18-3.61L83,305.24H80.79v-8.48H83v4.78L84,299.62l.06-.09h2.16l0,.09,1.06,1.92v-4.78Z"/><path d="M98.56,296.76h2.16l-2.49,5v3.46H96.07v-3.46l-2.5-5h2.16l1.42,2.89Z"/><path d="M107.41,297.33A4.43,4.43,0,0,1,109,298.9a4.34,4.34,0,0,1,0,4.3,4.32,4.32,0,0,1-1.56,1.56,4.29,4.29,0,0,1-4.31,0,4.17,4.17,0,0,1-1.56-1.56,4.27,4.27,0,0,1,0-4.3,4.31,4.31,0,0,1,5.87-1.57Zm-1,5.63a2.3,2.3,0,0,0,.81-.8,2.2,2.2,0,0,0,0-2.22,2.25,2.25,0,0,0-.81-.81,2.09,2.09,0,0,0-1.1-.3,2.15,2.15,0,0,0-1.11.3,2.25,2.25,0,0,0-.81.81,2.2,2.2,0,0,0,0,2.22,2.3,2.3,0,0,0,.81.8,2.15,2.15,0,0,0,1.11.3A2.09,2.09,0,0,0,106.36,303Z"/><path d="M117.16,296.77V302a3.25,3.25,0,0,1-.45,1.68,3.4,3.4,0,0,1-1.22,1.22,3.32,3.32,0,0,1-1.69.45h-.19a3.25,3.25,0,0,1-1.68-.45,3.4,3.4,0,0,1-1.22-1.22,3.25,3.25,0,0,1-.45-1.68v-5.24h2v4.76a2,2,0,0,0,.36,1.24,1.14,1.14,0,0,0,1,.49h.19a1.18,1.18,0,0,0,1-.5,2,2,0,0,0,.38-1.23v-4.76Z"/><path d="M126.62,303.06a2.3,2.3,0,0,0,.72-.47l1.46,1.46a4.31,4.31,0,0,1-1.38.93,4.32,4.32,0,0,1-3.8-.24,4.32,4.32,0,0,1-1.56-1.56,4.29,4.29,0,0,1,1.56-5.87,4.1,4.1,0,0,1,2.15-.58,4.19,4.19,0,0,1,1.65.33,4.31,4.31,0,0,1,1.38.93l-1.46,1.47a2.52,2.52,0,0,0-.72-.48,2.26,2.26,0,0,0-.85-.17,2.15,2.15,0,0,0-1.11.3,2.3,2.3,0,0,0-.8.81,2.15,2.15,0,0,0-.3,1.11,2.09,2.09,0,0,0,.3,1.1,2.3,2.3,0,0,0,.8.81,2.15,2.15,0,0,0,1.11.3A2.09,2.09,0,0,0,126.62,303.06Z"/><path d="M135.73,297.33a4.43,4.43,0,0,1,1.56,1.57,4.34,4.34,0,0,1,0,4.3,4.32,4.32,0,0,1-1.56,1.56,4.29,4.29,0,0,1-4.31,0,4.17,4.17,0,0,1-1.56-1.56,4.27,4.27,0,0,1,0-4.3,4.31,4.31,0,0,1,5.87-1.57Zm-1,5.63a2.19,2.19,0,0,0,.8-.8,2.14,2.14,0,0,0,0-2.22,2.14,2.14,0,0,0-.8-.81,2.09,2.09,0,0,0-1.1-.3,2.15,2.15,0,0,0-1.11.3,2.25,2.25,0,0,0-.81.81,2.2,2.2,0,0,0,0,2.22,2.3,2.3,0,0,0,.81.8,2.15,2.15,0,0,0,1.11.3A2.09,2.09,0,0,0,134.68,303Z"/><path d="M145.48,296.77V302a3.25,3.25,0,0,1-.45,1.68,3.4,3.4,0,0,1-1.22,1.22,3.32,3.32,0,0,1-1.69.45h-.19a3.25,3.25,0,0,1-1.68-.45,3.4,3.4,0,0,1-1.22-1.22,3.25,3.25,0,0,1-.45-1.68v-5.24h2v4.76a2.05,2.05,0,0,0,.37,1.24,1.14,1.14,0,0,0,1,.49h.19a1.18,1.18,0,0,0,1-.5,2,2,0,0,0,.38-1.23v-4.76Z"/><path d="M148.6,303.2h3.34v2h-5.5v-8.48h2.16Z"/><path d="M156.5,296.73a4.79,4.79,0,0,1,1.27.3,3.81,3.81,0,0,1,1.17.73,4.2,4.2,0,0,1,1,1.46,4.3,4.3,0,0,1,.37,1.75,4.13,4.13,0,0,1-.47,1.95,3.8,3.8,0,0,1-1.31,1.5,4.61,4.61,0,0,1-1.73.68,12.45,12.45,0,0,1-2.14.16h-1.92v-8.58H155A14,14,0,0,1,156.5,296.73Zm1.78,4.24a2.19,2.19,0,0,0-.28-1.09,2.39,2.39,0,0,0-.79-.82,2,2,0,0,0-1.08-.32H155v4.42a9.06,9.06,0,0,0,1.48-.1,2.58,2.58,0,0,0,1.12-.47,2,2,0,0,0,.68-1.12A3.13,3.13,0,0,0,158.28,301Z"/><path d="M171.59,305.24h-2.17l-1.34-3.2H166.7v3.2h-2v-8.48h4a2.63,2.63,0,0,1,2.29,1.32,2.65,2.65,0,0,1,0,2.58,2.79,2.79,0,0,1-.88,1Zm-2.39-6.46a.78.78,0,0,0-.56-.28h-2v1.8h2a.89.89,0,0,0,.56-.3.87.87,0,0,0,.23-.62A.84.84,0,0,0,169.2,298.78Z"/><path d="M178.08,303.4v1.84h-5.77v-8.48H178v1.83h-3.5v1.49h2.94v1.84h-2.94v1.48Z"/><path d="M183.94,303.06a2.3,2.3,0,0,0,.72-.47l1.46,1.46a4.31,4.31,0,0,1-1.38.93,4.32,4.32,0,0,1-3.8-.24,4.32,4.32,0,0,1-1.56-1.56,4.29,4.29,0,0,1,0-4.31,4.17,4.17,0,0,1,1.56-1.56,4.13,4.13,0,0,1,2.15-.58,4.19,4.19,0,0,1,1.65.33,4.31,4.31,0,0,1,1.38.93l-1.46,1.47a2.52,2.52,0,0,0-.72-.48,2.26,2.26,0,0,0-.85-.17,2.15,2.15,0,0,0-1.11.3,2.3,2.3,0,0,0-.8.81,2.15,2.15,0,0,0-.3,1.11,2.09,2.09,0,0,0,.3,1.1,2.3,2.3,0,0,0,.8.81,2.15,2.15,0,0,0,1.11.3A2.09,2.09,0,0,0,183.94,303.06Z"/><path d="M189,296.76v8.48h-2.16v-8.48Z"/><path d="M195.74,303.4v1.84H190v-8.48h5.67v1.83h-3.49v1.49h2.94v1.84h-2.94v1.48Z"/><path d="M202.28,296.73h2.35l-2.77,8.51h-2.64l-2.76-8.51h2.37l1.72,5.31Z"/><path d="M211.12,303.4v1.84h-5.77v-8.48H211v1.83h-3.49v1.49h2.94v1.84h-2.94v1.48Z"/><path d="M217.2,302.83a1,1,0,0,0,.16.5,1.1,1.1,0,0,0,.41.36v-2a8.47,8.47,0,0,1-.9-.27,2.22,2.22,0,0,1-.63-.37l0,0a2.55,2.55,0,0,1-.6-.8,2.23,2.23,0,0,1,.1-2.08,2.58,2.58,0,0,1,.85-.89,3.14,3.14,0,0,1,1.21-.48v-.65h1.17v.65a3,3,0,0,1,1.22.47,2.67,2.67,0,0,1,.86.88,2.22,2.22,0,0,1,.31,1.14h-1.79a.88.88,0,0,0-.16-.51,1,1,0,0,0-.44-.37v2c.35.09.64.18.87.26a2.37,2.37,0,0,1,.63.34l.05,0h0a2.44,2.44,0,0,1,.62.81,2.13,2.13,0,0,1,.22,1A2.17,2.17,0,0,1,221,304a2.7,2.7,0,0,1-.86.89,3,3,0,0,1-1.22.46V306h-1.17v-.64a3.14,3.14,0,0,1-1.21-.48,2.64,2.64,0,0,1-.85-.88,2.29,2.29,0,0,1-.31-1.13Zm.35-2.91a.77.77,0,0,0,.22.12V298.4a1.3,1.3,0,0,0-.43.37.77.77,0,0,0-.17.49A.73.73,0,0,0,217.55,299.92Zm1.86,3.42a.89.89,0,0,0,.17-.51.7.7,0,0,0-.38-.65.82.82,0,0,0-.26-.14v1.68A1.38,1.38,0,0,0,219.41,303.34Z"/><path d="M228.3,303.32v1.92h-6.19v-1.73l1.26-1,1.77-1.33.64-.49.06-.05a1.08,1.08,0,0,0,.3-.4,1.12,1.12,0,0,0,.1-.48,1.07,1.07,0,0,0-.25-.72,1.14,1.14,0,0,0-.36-.27.94.94,0,0,0-.43-.1,1,1,0,0,0-.64.23.86.86,0,0,0-.32.46h-2.13a3.06,3.06,0,0,1,.55-1.36,3.2,3.2,0,0,1,1.1-1,3.14,3.14,0,0,1,1.45-.35,3,3,0,0,1,1.13.21,3.15,3.15,0,0,1,1,.59l.08.08a2.94,2.94,0,0,1,.5.62,2.82,2.82,0,0,1,.34,1.4,3.35,3.35,0,0,1-.25,1.28,3.25,3.25,0,0,1-.78,1.12c-.16.15-.29.25-.37.32l-1,.75-.3.23Z"/><path d="M234,297.32a3.86,3.86,0,0,1,1.27,1.56,5.15,5.15,0,0,1,0,4.3,4,4,0,0,1-1.27,1.57,3,3,0,0,1-3.5,0,4,4,0,0,1-1.28-1.57,5.06,5.06,0,0,1,0-4.3,3.88,3.88,0,0,1,1.28-1.56,2.93,2.93,0,0,1,3.5,0Zm-1,5.47a1.88,1.88,0,0,0,.53-.74,2.77,2.77,0,0,0,0-2,1.92,1.92,0,0,0-.53-.73,1.08,1.08,0,0,0-1.45,0,1.84,1.84,0,0,0-.54.73,2.7,2.7,0,0,0,0,2,1.8,1.8,0,0,0,.54.74,1.12,1.12,0,0,0,.73.27A1.14,1.14,0,0,0,233,302.79Z"/><path d="M241.52,297.32a3.94,3.94,0,0,1,1.27,1.56,5.15,5.15,0,0,1,0,4.3,4,4,0,0,1-1.27,1.57,3,3,0,0,1-3.51,0,4.16,4.16,0,0,1-1.28-1.57,5.15,5.15,0,0,1,0-4.3,4.05,4.05,0,0,1,1.28-1.56,2.95,2.95,0,0,1,3.51,0Zm-1,5.47a1.77,1.77,0,0,0,.52-.74,2.7,2.7,0,0,0,0-2,1.92,1.92,0,0,0-.53-.73,1.08,1.08,0,0,0-.73-.28,1.12,1.12,0,0,0-.73.28,1.92,1.92,0,0,0-.53.73,2.7,2.7,0,0,0,0,2,1.88,1.88,0,0,0,.53.74,1.14,1.14,0,0,0,1.47,0Z"/><path d="M251.45,299.44v-.15a.79.79,0,0,0-.29-.6,1.12,1.12,0,0,0-.72-.24,1.17,1.17,0,0,0-.74.24.77.77,0,0,0-.3.6.54.54,0,0,0,.31.51,2.53,2.53,0,0,0,.82.34l.18,0,.21,0a4.25,4.25,0,0,1,1.72.71l.11.1a2.56,2.56,0,0,1,.57.83,2.38,2.38,0,0,1,.21,1,2.32,2.32,0,0,1-.24,1,2.46,2.46,0,0,1-.68.87,3.1,3.1,0,0,1-1,.57,3.36,3.36,0,0,1-1.18.2,3.27,3.27,0,0,1-1.17-.2,3.1,3.1,0,0,1-1-.57,2.61,2.61,0,0,1-.69-.87,2.32,2.32,0,0,1-.24-1v-.16h2.1v.16a.73.73,0,0,0,.3.59,1.07,1.07,0,0,0,.7.25,1.18,1.18,0,0,0,.74-.25.73.73,0,0,0,.3-.59.67.67,0,0,0-.32-.53,1.56,1.56,0,0,0-.34-.18,4.17,4.17,0,0,0-.46-.15l-.4-.09c-.44-.11-.78-.21-1-.3a2.21,2.21,0,0,1-.69-.41l0-.05a2.51,2.51,0,0,1-.63-.84,2.24,2.24,0,0,1-.23-1,2.29,2.29,0,0,1,.24-1,2.75,2.75,0,0,1,.69-.88,3.1,3.1,0,0,1,1-.57,3.51,3.51,0,0,1,1.17-.2,3.61,3.61,0,0,1,1.18.2,3.1,3.1,0,0,1,1,.57,2.58,2.58,0,0,1,.68.88,2.29,2.29,0,0,1,.24,1v.15Z"/><path d="M258.66,296.84l2.77,8.4h-2.08l-.56-1.72h-2.62l-.54,1.72h-2.1l2.78-8.4Zm-1.93,4.93h1.51l-.75-2.37Z"/><path d="M263.83,303.2h3.34v2h-5.5v-8.48h2.16Z"/><path d="M273.78,303.4v1.84H268v-8.48h5.66v1.83h-3.49v1.49h2.94v1.84h-2.94v1.48Z"/><path d="M285.17,296.76H287v8.48h-2.16l-2.18-3.61-2.2,3.61h-2.16v-8.48h2.16v4.78l1.06-1.92.06-.09h2.16l.05.09,1.05,1.92v-4.78Z"/><path d="M290.16,296.76v8.48H288v-8.48Z"/><path d="M297.52,296.76v2.16h-2.17v6.32h-2.18v-6.32H291v-2.16h6.52Z"/><path d="M302.94,296.76h2.16v8.48h-2.16v-3.17h-2.42v3.17h-2.16v-8.48h2.16v3.15h2.42Z"/><path d="M65.44,311.17v2.95H64v-2.95Zm1.93,0v2.95H65.93v-2.95Z"/><path d="M73,311.16h2.16v8.48H73v-3.17H70.55v3.17H68.39v-8.48h2.16v3.15H73Z"/><path d="M81.87,317.8v1.84H76.1v-8.48h5.66V313H78.27v1.49h2.94v1.84H78.27v1.48Z"/><path d="M85,317.6h3.34v2h-5.5v-8.48H85Z"/><path d="M91.33,317.6h3.33v2H89.17v-8.48h2.16Z"/><path d="M101.71,311.73a4.43,4.43,0,0,1,1.56,1.57,4.34,4.34,0,0,1,0,4.3,4.32,4.32,0,0,1-1.56,1.56,4.29,4.29,0,0,1-4.31,0,4.17,4.17,0,0,1-1.56-1.56,4.27,4.27,0,0,1,0-4.3,4.31,4.31,0,0,1,5.87-1.57Zm-1,5.63a2.3,2.3,0,0,0,.81-.8,2.2,2.2,0,0,0,0-2.22,2.25,2.25,0,0,0-.81-.81,2.09,2.09,0,0,0-1.1-.3,2.15,2.15,0,0,0-1.11.3,2.25,2.25,0,0,0-.81.81,2.2,2.2,0,0,0,0,2.22,2.3,2.3,0,0,0,.81.8,2.15,2.15,0,0,0,1.11.3A2.09,2.09,0,0,0,100.66,317.36Z"/><path d="M110.75,317.72v1.92h-6.19v-1.73l1.26-1,1.77-1.33.64-.49.06-.05a1.08,1.08,0,0,0,.3-.4,1.12,1.12,0,0,0,.1-.48,1.07,1.07,0,0,0-.25-.72,1.14,1.14,0,0,0-.36-.27.94.94,0,0,0-.43-.1,1,1,0,0,0-.64.23.86.86,0,0,0-.32.46h-2.13a3.06,3.06,0,0,1,.55-1.36,3.2,3.2,0,0,1,1.1-1,3.14,3.14,0,0,1,1.45-.35,3,3,0,0,1,1.13.21,3.15,3.15,0,0,1,1,.59l.08.08a2.94,2.94,0,0,1,.5.62,2.82,2.82,0,0,1,.34,1.4,3.35,3.35,0,0,1-.25,1.28,3.25,3.25,0,0,1-.78,1.12c-.16.15-.29.25-.37.32l-1,.75-.3.23Z"/><path d="M116.49,311.72a3.86,3.86,0,0,1,1.27,1.56,5.15,5.15,0,0,1,0,4.3,4,4,0,0,1-1.27,1.57,3,3,0,0,1-3.5,0,4,4,0,0,1-1.28-1.57,5.06,5.06,0,0,1,0-4.3,3.88,3.88,0,0,1,1.28-1.56,2.93,2.93,0,0,1,3.5,0Zm-1,5.47a1.88,1.88,0,0,0,.53-.74,2.77,2.77,0,0,0,0-2,1.92,1.92,0,0,0-.53-.73,1.08,1.08,0,0,0-1.45,0,1.84,1.84,0,0,0-.54.73,2.7,2.7,0,0,0,0,2,1.8,1.8,0,0,0,.54.74,1.12,1.12,0,0,0,.73.27A1.14,1.14,0,0,0,115.47,317.19Z"/><path d="M125.14,317.72v1.92H119v-1.73l1.26-1,1.76-1.33.65-.49.06-.05a1.08,1.08,0,0,0,.3-.4,1.29,1.29,0,0,0,.1-.48,1,1,0,0,0-.61-1,1,1,0,0,0-.44-.1,1,1,0,0,0-.63.23.93.93,0,0,0-.33.46H119a3,3,0,0,1,.55-1.36,3.2,3.2,0,0,1,1.1-1,3.11,3.11,0,0,1,1.45-.35,3.06,3.06,0,0,1,1.13.21,3.1,3.1,0,0,1,.95.59l.09.08a3.29,3.29,0,0,1,.5.62,2.82,2.82,0,0,1,.34,1.4,3.55,3.55,0,0,1-.25,1.28,3.25,3.25,0,0,1-.78,1.12c-.16.15-.29.25-.38.32l-1,.75-.3.23Z"/><path d="M128.09,311.16h1v8.48h-2.16v-6l-1.18.37V311.9l1.18-.37Z"/><path d="M131.54,311.17v2.95H130.1v-2.95Zm1.93,0v2.95H132v-2.95Z"/><path d="M143.46,311.51a2.76,2.76,0,0,1,1,1,2.54,2.54,0,0,1,.35,1.33,2.51,2.51,0,0,1-.35,1.32,2.6,2.6,0,0,1-1,1,2.55,2.55,0,0,1-1.33.36h-2v3.2h-2v-8.48h4A2.54,2.54,0,0,1,143.46,311.51Zm-.83,1.67a.79.79,0,0,0-.57-.28h-2v1.8h2a.81.81,0,0,0,.57-.3.89.89,0,0,0,.24-.62A.85.85,0,0,0,142.63,313.18Z"/><path d="M152.42,319.64h-2.17l-1.35-3.2h-1.38v3.2h-2v-8.48h4a2.6,2.6,0,0,1,2.28,1.32,2.59,2.59,0,0,1,0,2.58,2.67,2.67,0,0,1-.87,1ZM150,313.18a.78.78,0,0,0-.56-.28h-2v1.8h2a.89.89,0,0,0,.56-.3.91.91,0,0,0,.23-.62A.88.88,0,0,0,150,313.18Z"/><path d="M159.34,311.73a4.27,4.27,0,0,1,1.56,1.57,4.29,4.29,0,0,1-1.56,5.86,4.2,4.2,0,0,1-2.15.58,4.3,4.3,0,0,1-3.72-6.44,4.38,4.38,0,0,1,1.57-1.57,4.24,4.24,0,0,1,2.15-.57A4.19,4.19,0,0,1,159.34,311.73Zm-1,5.63a2.36,2.36,0,0,0,.8-.8,2.2,2.2,0,0,0,0-2.22,2.3,2.3,0,0,0-.8-.81,2.2,2.2,0,0,0-2.22,0,2.25,2.25,0,0,0-.81.81,2.2,2.2,0,0,0,0,2.22,2.3,2.3,0,0,0,.81.8,2.2,2.2,0,0,0,2.22,0Z"/><path d="M168.74,311.16h2.16v8.48h-2.16v-4.79l-1.06,1.92-.05.1h-2.16l-.06-.1-.14-.27-.9-1.65v4.79H162.2v-8.48h2.17l2.18,3.61Z"/><path d="M178.06,311.73a4.33,4.33,0,0,1,2.14,3.72,4.23,4.23,0,0,1-.58,2.15,4.17,4.17,0,0,1-1.56,1.56,4.27,4.27,0,0,1-4.3,0,4.27,4.27,0,0,1-1.57-1.56,4.34,4.34,0,0,1,0-4.3,4.38,4.38,0,0,1,1.57-1.57,4.34,4.34,0,0,1,4.3,0Zm-1,5.63a2.36,2.36,0,0,0,.8-.8,2.2,2.2,0,0,0,0-2.22,2.3,2.3,0,0,0-.8-.81,2.2,2.2,0,0,0-2.22,0,2.25,2.25,0,0,0-.81.81,2.2,2.2,0,0,0,0,2.22,2.3,2.3,0,0,0,.81.8,2.2,2.2,0,0,0,2.22,0Z"/><path d="M185.81,317.46a2.3,2.3,0,0,0,.72-.47l1.47,1.46a4.31,4.31,0,0,1-1.38.93,4.34,4.34,0,0,1-3.81-.24,4.48,4.48,0,0,1-1.56-1.56,4.36,4.36,0,0,1,0-4.31,4.32,4.32,0,0,1,1.56-1.56,4.16,4.16,0,0,1,2.15-.58,4.24,4.24,0,0,1,1.66.33,4.31,4.31,0,0,1,1.38.93l-1.47,1.47a2.52,2.52,0,0,0-.72-.48,2.22,2.22,0,0,0-.85-.17,2.09,2.09,0,0,0-1.1.3,2.25,2.25,0,0,0-.81.81,2.15,2.15,0,0,0-.3,1.11,2.09,2.09,0,0,0,.3,1.1,2.25,2.25,0,0,0,.81.81,2.09,2.09,0,0,0,1.1.3A2.06,2.06,0,0,0,185.81,317.46Z"/><path d="M194.92,311.73a4.33,4.33,0,0,1,2.14,3.72,4.23,4.23,0,0,1-.58,2.15,4.17,4.17,0,0,1-1.56,1.56,4.27,4.27,0,0,1-4.3,0,4.27,4.27,0,0,1-1.57-1.56,4.34,4.34,0,0,1,0-4.3,4.38,4.38,0,0,1,1.57-1.57,4.34,4.34,0,0,1,4.3,0Zm-1,5.63a2.36,2.36,0,0,0,.8-.8,2.2,2.2,0,0,0,0-2.22,2.3,2.3,0,0,0-.8-.81,2.2,2.2,0,0,0-2.22,0,2.25,2.25,0,0,0-.81.81,2.2,2.2,0,0,0,0,2.22,2.3,2.3,0,0,0,.81.8,2.2,2.2,0,0,0,2.22,0Z"/><path d="M201.5,311.13a4.79,4.79,0,0,1,1.27.3,3.81,3.81,0,0,1,1.17.73,4.2,4.2,0,0,1,1,1.46,4.3,4.3,0,0,1,.37,1.75,4.13,4.13,0,0,1-.47,1.95,3.8,3.8,0,0,1-1.31,1.5,4.61,4.61,0,0,1-1.73.68,12.45,12.45,0,0,1-2.14.16h-1.92v-8.58H200A14,14,0,0,1,201.5,311.13Zm1.78,4.24a2.19,2.19,0,0,0-.28-1.09,2.39,2.39,0,0,0-.79-.82,2,2,0,0,0-1.08-.32H200v4.42a9.06,9.06,0,0,0,1.48-.1,2.58,2.58,0,0,0,1.12-.47,2,2,0,0,0,.68-1.12A3.13,3.13,0,0,0,203.28,315.37Z"/><path d="M211.84,317.8v1.84h-5.77v-8.48h5.66V313h-3.49v1.49h2.94v1.84h-2.94v1.48Z"/></svg>