<svg id="Слой_1" data-name="Слой 1" xmlns="http://www.w3.org/2000/svg" viewBox="0 0 405 405"><defs><style>.cls-1{fill:#fed841;}.cls-2{fill:#e7335d;}.cls-3{fill:#fff;}</style></defs><rect class="cls-1" width="405" height="405"/><rect class="cls-2" width="405" height="113.98"/><rect class="cls-3" x="123.36" y="287.43" width="281.64" height="48.5"/><rect class="cls-2" x="87.56" y="239.1" width="317.44" height="48.5"/><rect x="47.39" y="190.77" width="357.61" height="48.5"/><path class="cls-3" d="M163.8,216.76a2.49,2.49,0,0,0,.72-.47l1.46,1.46a4.31,4.31,0,0,1-1.38.93A4.19,4.19,0,0,1,163,219a4.1,4.1,0,0,1-2.15-.58,4.22,4.22,0,0,1-1.56-1.55A4.29,4.29,0,0,1,160.8,211a4.1,4.1,0,0,1,2.15-.58,4.19,4.19,0,0,1,1.65.33,4.31,4.31,0,0,1,1.38.93l-1.46,1.46a2.71,2.71,0,0,0-.72-.47,2.08,2.08,0,0,0-.85-.17,2.12,2.12,0,0,0-1.11.3,2.22,2.22,0,0,0-.8.81,2.15,2.15,0,0,0-.3,1.11,2.09,2.09,0,0,0,.3,1.1,2.19,2.19,0,0,0,.8.8,2.12,2.12,0,0,0,1.11.3A2.08,2.08,0,0,0,163.8,216.76Z"/><path class="cls-3" d="M173.63,218.94h-2.18l-1.34-3.21h-1.38v3.21h-2v-8.48h4.05a2.56,2.56,0,0,1,1.32.35,2.68,2.68,0,0,1,1,1,2.56,2.56,0,0,1,.35,1.32,2.52,2.52,0,0,1-.32,1.27,2.68,2.68,0,0,1-.88.95Zm-2.39-6.46a.81.81,0,0,0-.57-.29h-2V214h2a.89.89,0,0,0,.79-.92A.87.87,0,0,0,171.24,212.48Z"/><path class="cls-3" d="M180.12,217.1v1.84h-5.78v-8.48H180v1.83h-3.49v1.49h2.94v1.83h-2.94v1.49Z"/><path class="cls-3" d="M185.49,210.54l2.77,8.4h-2.08l-.55-1.72H183l-.54,1.72h-2.1l2.78-8.4Zm-1.93,4.93h1.51l-.75-2.38Z"/><path class="cls-3" d="M194.9,210.46v2.15h-2.17v6.33h-2.17v-6.33h-2.18v-2.15h6.52Z"/><path class="cls-3" d="M201.51,217.1v1.84h-5.77v-8.48h5.66v1.83h-3.49v1.49h2.94v1.83h-2.94v1.49Z"/><path class="cls-3" d="M206.19,210.42a5.31,5.31,0,0,1,1.28.31,3.63,3.63,0,0,1,1.17.73,4.33,4.33,0,0,1,1,1.46,4.42,4.42,0,0,1,.36,1.75,4.12,4.12,0,0,1-.46,2,3.9,3.9,0,0,1-1.32,1.5,4.54,4.54,0,0,1-1.73.68,12.37,12.37,0,0,1-2.14.16h-1.92v-8.58h2.17C205.24,210.36,205.76,210.38,206.19,210.42Zm1.79,4.25a2.2,2.2,0,0,0-.29-1.09,2.27,2.27,0,0,0-.78-.82,2.14,2.14,0,0,0-1.09-.33h-1.18v4.43a9.19,9.19,0,0,0,1.49-.1,2.5,2.5,0,0,0,1.11-.47,1.9,1.9,0,0,0,.68-1.12A2.34,2.34,0,0,0,208,214.67Z"/><path class="cls-3" d="M220.22,212.18l-1.39,1.5a3,3,0,0,1,1,1,2.79,2.79,0,0,1,0,2.86,2.93,2.93,0,0,1-1.11,1.07,3.13,3.13,0,0,1-3.06,0,2.93,2.93,0,0,1-1.11-1.07,2.75,2.75,0,0,1-.41-1.46h2a1,1,0,0,0,.32.74,1.08,1.08,0,0,0,.77.3,1.06,1.06,0,0,0,.76-.3,1,1,0,0,0,.32-.74v0a1.22,1.22,0,0,0-.11-.49,2,2,0,0,0-.52-.65,3.54,3.54,0,0,0-.78-.52v-1l.19-.22.67-.73.28-.3h-3.57v-1.65h5.81Z"/><path class="cls-3" d="M225.53,213.63a2.9,2.9,0,0,1,1,1.05,2.75,2.75,0,0,1,.38,1.4,2.81,2.81,0,0,1-.41,1.47,2.9,2.9,0,0,1-1.11,1.06,3.13,3.13,0,0,1-3.06,0,2.9,2.9,0,0,1-1.11-1.06,2.81,2.81,0,0,1-.41-1.47h1.79a1.15,1.15,0,0,0,.39.85,1.18,1.18,0,0,0,.87.35,1.25,1.25,0,0,0,.9-.36,1.21,1.21,0,0,0,.37-.9,1.22,1.22,0,0,0-.37-.9,1.26,1.26,0,0,0-.9-.37h-.05a1.25,1.25,0,0,0-.62.19,1.05,1.05,0,0,0-.3.25h-2l.07-.3,1-4.41h4.37v1.81h-2.92l-.26,1,.16,0a1.8,1.8,0,0,1,.33-.06,2.43,2.43,0,0,1,.47,0A3.06,3.06,0,0,1,225.53,213.63Z"/><path class="cls-3" d="M232.65,211a3.86,3.86,0,0,1,1.27,1.56,4.81,4.81,0,0,1,.47,2.15,4.87,4.87,0,0,1-.47,2.15,4,4,0,0,1-1.27,1.57,3,3,0,0,1-3.5,0,4.07,4.07,0,0,1-1.28-1.57,4.87,4.87,0,0,1-.47-2.15,4.81,4.81,0,0,1,.47-2.15,4,4,0,0,1,1.28-1.56,2.93,2.93,0,0,1,3.5,0Zm-1,5.46a1.75,1.75,0,0,0,.53-.73,2.68,2.68,0,0,0,.19-1,2.44,2.44,0,0,0-.2-1,2,2,0,0,0-.52-.74,1.12,1.12,0,0,0-1.46,0,2.06,2.06,0,0,0-.54.74,2.61,2.61,0,0,0-.19,1,2.68,2.68,0,0,0,.19,1,1.86,1.86,0,0,0,.54.73,1.12,1.12,0,0,0,1.46,0Z"/><path class="cls-3" d="M240.13,211a3.94,3.94,0,0,1,1.27,1.56,4.94,4.94,0,0,1,.47,2.15,5,5,0,0,1-.47,2.15,4,4,0,0,1-1.27,1.57,3,3,0,0,1-3.51,0,4.16,4.16,0,0,1-1.28-1.57,5,5,0,0,1-.47-2.15,4.94,4.94,0,0,1,.47-2.15,4.05,4.05,0,0,1,1.28-1.56,2.95,2.95,0,0,1,3.51,0Zm-1,5.46a1.73,1.73,0,0,0,.52-.73,2.69,2.69,0,0,0,.2-1,2.61,2.61,0,0,0-.2-1,2,2,0,0,0-.53-.74,1.11,1.11,0,0,0-.72-.27,1.17,1.17,0,0,0-.74.27,2,2,0,0,0-.53.74,2.61,2.61,0,0,0-.2,1,2.69,2.69,0,0,0,.2,1,1.84,1.84,0,0,0,.53.73,1.14,1.14,0,0,0,1.47,0Z"/><path class="cls-3" d="M252.73,210.46h2.16v8.48h-2.16v-4.79l-1.06,1.92,0,.1h-2.16l-.06-.1-.14-.28-.9-1.64v4.79h-2.17v-8.48h2.17l2.18,3.61Z"/><path class="cls-3" d="M261.62,217.1v1.84h-5.77v-8.48h5.66v1.83H258v1.49H261v1.83H258v1.49Z"/><path class="cls-3" d="M269.12,210.46h2.16v8.48h-2.16v-4.79l-1.06,1.92-.05.1h-2.16l-.06-.1-.14-.28-.9-1.64v4.79h-2.17v-8.48h2.17l2.18,3.61Z"/><path class="cls-3" d="M278.63,215.36a2.31,2.31,0,0,1,.28,1.13,2.41,2.41,0,0,1-1.21,2.11,2.47,2.47,0,0,1-1.23.34h-4.23v-8.49h3.85a2.29,2.29,0,0,1,1.24.34,2.56,2.56,0,0,1,.87.89,2.36,2.36,0,0,1,.31,1.2,2.44,2.44,0,0,1-.16.88,2.64,2.64,0,0,1-.47.75A2.31,2.31,0,0,1,278.63,215.36Zm-2.23-2.92a.87.87,0,0,0-.62-.26h-1.56V214h1.56a1.29,1.29,0,0,0,.29,0,.59.59,0,0,0,.21-.12.87.87,0,0,0,.28-.32,1,1,0,0,0,.09-.42A.85.85,0,0,0,276.4,212.44Zm.36,4.48a.81.81,0,0,0,.24-.63.88.88,0,0,0-.2-.57.86.86,0,0,0-.52-.31h-2.06v1.8h1.92A.89.89,0,0,0,276.76,216.92Z"/><path class="cls-3" d="M285.4,217.1v1.84h-5.77v-8.48h5.66v1.83H281.8v1.49h2.94v1.83H281.8v1.49Z"/><path class="cls-3" d="M293.29,218.94h-2.18l-1.34-3.21h-1.38v3.21h-2v-8.48h4.05a2.56,2.56,0,0,1,1.32.35,2.6,2.6,0,0,1,1,1,2.57,2.57,0,0,1,.36,1.32,2.53,2.53,0,0,1-.33,1.27,2.65,2.65,0,0,1-.87.95Zm-2.39-6.46a.8.8,0,0,0-.57-.29h-2V214h2a.89.89,0,0,0,.57-.3.91.91,0,0,0,.23-.62A.88.88,0,0,0,290.9,212.48Z"/><path class="cls-3" d="M297.88,213.14V213a.77.77,0,0,0-.29-.6,1.12,1.12,0,0,0-.72-.24,1.14,1.14,0,0,0-.73.24.74.74,0,0,0-.31.6.54.54,0,0,0,.31.51,2.53,2.53,0,0,0,.82.34l.18,0,.21,0a4.25,4.25,0,0,1,1.72.71l.11.1a2.52,2.52,0,0,1,.57.82,2.45,2.45,0,0,1,.21,1,2.33,2.33,0,0,1-.24,1,2.55,2.55,0,0,1-.67.87,3.25,3.25,0,0,1-1,.57,3.36,3.36,0,0,1-1.18.2,3.27,3.27,0,0,1-1.17-.2,3.21,3.21,0,0,1-1-.57,2.58,2.58,0,0,1-.68-.87,2.33,2.33,0,0,1-.24-1v-.15h2.1v.15a.73.73,0,0,0,.29.6,1.08,1.08,0,0,0,.7.24,1.15,1.15,0,0,0,.74-.24.75.75,0,0,0,.31-.6.67.67,0,0,0-.33-.52,1.16,1.16,0,0,0-.33-.18l-.47-.15-.4-.09c-.44-.11-.78-.22-1-.3a2.06,2.06,0,0,1-.68-.41l-.05-.05A2.81,2.81,0,0,1,294,214a2.23,2.23,0,0,1-.22-1,2.29,2.29,0,0,1,.24-1,2.61,2.61,0,0,1,.68-.88,3.21,3.21,0,0,1,1-.57,3.51,3.51,0,0,1,1.17-.2,3.61,3.61,0,0,1,1.18.2,3.25,3.25,0,0,1,1,.57,2.58,2.58,0,0,1,.67.88,2.29,2.29,0,0,1,.24,1v.15Z"/><path class="cls-3" d="M309.17,216.76a2.25,2.25,0,0,0,.72-.47l1.47,1.46a4.31,4.31,0,0,1-1.38.93,4.2,4.2,0,0,1-1.66.33,4.16,4.16,0,0,1-2.15-.58,4.37,4.37,0,0,1-1.56-1.55,4.36,4.36,0,0,1,0-4.31,4.32,4.32,0,0,1,1.56-1.56,4.16,4.16,0,0,1,2.15-.58,4.2,4.2,0,0,1,1.66.33,4.31,4.31,0,0,1,1.38.93l-1.47,1.46a2.43,2.43,0,0,0-.72-.47,2.05,2.05,0,0,0-.85-.17,2.09,2.09,0,0,0-1.1.3,2.25,2.25,0,0,0-.81.81,2.15,2.15,0,0,0-.3,1.11,2.09,2.09,0,0,0,.3,1.1,2.22,2.22,0,0,0,.81.8,2.09,2.09,0,0,0,1.1.3A2.05,2.05,0,0,0,309.17,216.76Z"/><path class="cls-3" d="M318.28,211a4.27,4.27,0,0,1,1.56,1.57,4.27,4.27,0,0,1,0,4.3,4.24,4.24,0,0,1-1.56,1.56,4.2,4.2,0,0,1-2.15.58,4.25,4.25,0,0,1-2.15-.58,4.35,4.35,0,0,1-1.57-1.56,4.34,4.34,0,0,1,0-4.3A4.38,4.38,0,0,1,314,211a4.24,4.24,0,0,1,2.15-.57A4.19,4.19,0,0,1,318.28,211Zm-1,5.63a2.3,2.3,0,0,0,.8-.81,2.09,2.09,0,0,0,.3-1.1,2.15,2.15,0,0,0-.3-1.11,2.3,2.3,0,0,0-.8-.81,2.2,2.2,0,0,0-2.22,0,2.25,2.25,0,0,0-.81.81,2.15,2.15,0,0,0-.3,1.11,2.09,2.09,0,0,0,.3,1.1,2.25,2.25,0,0,0,.81.81,2.2,2.2,0,0,0,2.22,0Z"/><path class="cls-3" d="M327.68,210.46h2.16v8.48h-2.16v-4.79l-1.06,1.92-.05.1h-2.16l-.06-.1-.14-.28-.9-1.64v4.79h-2.17v-8.48h2.17l2.18,3.61Z"/><path class="cls-3" d="M337.34,210.46h2.16v8.48h-2.16v-4.79l-1.06,1.92,0,.1h-2.16l-.06-.1-.14-.28-.9-1.64v4.79H330.8v-8.48H333l2.18,3.61Z"/><path class="cls-3" d="M347.36,210.47v5.24a3.25,3.25,0,0,1-.45,1.68,3.35,3.35,0,0,1-1.23,1.22,3.25,3.25,0,0,1-1.68.45h-.19a3.25,3.25,0,0,1-1.68-.45,3.32,3.32,0,0,1-1.22-1.22,3.25,3.25,0,0,1-.45-1.68v-5.24h2v4.76a2,2,0,0,0,.36,1.24,1.18,1.18,0,0,0,1,.49H344a1.2,1.2,0,0,0,1-.5,2,2,0,0,0,.37-1.23v-4.76Z"/><path class="cls-3" d="M353,210.46h2.16v8.48H353l-2.5-4.55v4.55h-2.17v-8.48h2.17L353,215Z"/><path class="cls-3" d="M358.27,210.46v8.48h-2.16v-8.48Z"/><path class="cls-3" d="M365.62,210.46v2.15h-2.17v6.33h-2.17v-6.33h-2.17v-2.15h6.51Z"/><path class="cls-3" d="M371,210.46h2.16l-2.49,5v3.46h-2.16v-3.46l-2.5-5h2.16l1.42,2.89Z"/><path class="cls-2" d="M268.11,164.41l-1,.59,1,.58-.55.93-1-.57V167H265.5v-1.05l-1,.57-.54-.93,1-.58-1-.59.54-.93,1,.57V163h1.08v1.05l1-.57Z"/><path class="cls-2" d="M273.85,169.35a2.49,2.49,0,0,0,.72-.47l1.46,1.46a4.31,4.31,0,0,1-1.38.93,4.19,4.19,0,0,1-1.65.33,4.1,4.1,0,0,1-2.15-.58,4.17,4.17,0,0,1-1.56-1.56,4.09,4.09,0,0,1-.58-2.14,4.17,4.17,0,0,1,.58-2.16,4.27,4.27,0,0,1,1.56-1.57,4.32,4.32,0,0,1,3.8-.24,4.31,4.31,0,0,1,1.38.93l-1.46,1.46a2.3,2.3,0,0,0-.72-.47,2.09,2.09,0,0,0-.85-.18,2.22,2.22,0,0,0-1.91,3.33,2.27,2.27,0,0,0,.8.8,2.12,2.12,0,0,0,1.11.3A2.26,2.26,0,0,0,273.85,169.35Z"/><path class="cls-2" d="M283,163.62a4.25,4.25,0,0,1,1.55,1.57,4.27,4.27,0,0,1,0,4.3,4.37,4.37,0,0,1-1.55,1.56,4.36,4.36,0,0,1-4.31,0,4.32,4.32,0,0,1-1.56-1.56,4.27,4.27,0,0,1,0-4.3,4.2,4.2,0,0,1,1.56-1.57,4.29,4.29,0,0,1,4.31,0Zm-1,5.63a2.22,2.22,0,0,0,.8-.81,2,2,0,0,0,.3-1.1,2.06,2.06,0,0,0-.3-1.11,2.22,2.22,0,0,0-.8-.81,2.09,2.09,0,0,0-1.1-.3,2.15,2.15,0,0,0-1.11.3,2.25,2.25,0,0,0-.81.81,2.15,2.15,0,0,0-.3,1.11,2.09,2.09,0,0,0,.3,1.1,2.25,2.25,0,0,0,.81.81,2.15,2.15,0,0,0,1.11.3A2.09,2.09,0,0,0,281.91,169.25Z"/><path class="cls-2" d="M289.69,165.73v-.15a.75.75,0,0,0-.3-.6,1.07,1.07,0,0,0-.71-.24,1.15,1.15,0,0,0-.74.24.76.76,0,0,0-.31.6.55.55,0,0,0,.32.51,2.56,2.56,0,0,0,.81.34l.19,0,.21,0a4.31,4.31,0,0,1,1.72.71l.1.1a2.52,2.52,0,0,1,.57.82,2.38,2.38,0,0,1,.21,1,2.42,2.42,0,0,1-.23,1,2.71,2.71,0,0,1-.68.88,3.14,3.14,0,0,1-1,.57,3.52,3.52,0,0,1-2.34,0,3.1,3.1,0,0,1-1-.57,2.75,2.75,0,0,1-.69-.88,2.29,2.29,0,0,1-.24-1V169h2.1v.15a.79.79,0,0,0,.29.6,1.09,1.09,0,0,0,.71.24,1.17,1.17,0,0,0,.74-.24.77.77,0,0,0,.3-.6.68.68,0,0,0-.32-.52,1,1,0,0,0-.34-.18,4.42,4.42,0,0,0-.47-.15l-.39-.09c-.44-.12-.79-.22-1-.3a2.21,2.21,0,0,1-.69-.41l-.05,0a2.81,2.81,0,0,1-.63-.84,2.23,2.23,0,0,1-.22-1,2.33,2.33,0,0,1,.24-1,2.61,2.61,0,0,1,.69-.87,3.1,3.1,0,0,1,1-.57,3.52,3.52,0,0,1,2.34,0,3.14,3.14,0,0,1,1,.57,2.58,2.58,0,0,1,.68.87,2.47,2.47,0,0,1,.23,1v.15Z"/><path class="cls-2" d="M298.88,163v2.16h-2.17v6.33h-2.17V165.2h-2.18V163h6.52Z"/><path class="cls-2" d="M308.69,163.4a2.62,2.62,0,0,1,1.31,2.28,2.64,2.64,0,0,1-.35,1.33,2.76,2.76,0,0,1-1,1,2.57,2.57,0,0,1-1.33.35h-2v3.21h-2V163h4A2.58,2.58,0,0,1,308.69,163.4Zm-.83,1.67a.83.83,0,0,0-.57-.29h-2v1.8h2a.8.8,0,0,0,.57-.29.9.9,0,0,0,.23-.62A.84.84,0,0,0,307.86,165.07Z"/><path class="cls-2" d="M316.49,169.69v1.84h-5.77V163h5.67v1.84h-3.5v1.49h2.94v1.83h-2.94v1.49Z"/><path class="cls-2" d="M324.38,171.53h-2.17l-1.35-3.21h-1.38v3.21h-2V163h4.05a2.57,2.57,0,0,1,1.32.36,2.53,2.53,0,0,1,1,1,2.57,2.57,0,0,1,.36,1.32,2.53,2.53,0,0,1-.33,1.27,2.56,2.56,0,0,1-.87,1ZM322,165.07a.79.79,0,0,0-.56-.29h-2v1.8h2a.83.83,0,0,0,.56-.29.91.91,0,0,0,.23-.62A.88.88,0,0,0,322,165.07Z"/><path class="cls-2" d="M330.86,163v8.49H328.7V163Z"/><path class="cls-2" d="M336.49,163h2.16v8.49h-2.16L334,167v4.55h-2.17V163H334l2.5,4.55Z"/><path class="cls-2" d="M343.48,165.73v-.15a.77.77,0,0,0-.29-.6,1.12,1.12,0,0,0-.72-.24,1.14,1.14,0,0,0-.73.24.74.74,0,0,0-.31.6.54.54,0,0,0,.31.51,2.53,2.53,0,0,0,.82.34l.18,0,.21,0a4.25,4.25,0,0,1,1.72.71l.11.1a2.52,2.52,0,0,1,.57.82,2.38,2.38,0,0,1,.21,1,2.29,2.29,0,0,1-.24,1,2.68,2.68,0,0,1-.67.88,3.25,3.25,0,0,1-1,.57,3.61,3.61,0,0,1-1.18.2,3.51,3.51,0,0,1-1.17-.2,3.21,3.21,0,0,1-1-.57,2.71,2.71,0,0,1-.68-.88,2.29,2.29,0,0,1-.24-1V169h2.1v.15a.76.76,0,0,0,.29.6,1.08,1.08,0,0,0,.7.24,1.15,1.15,0,0,0,.74-.24.78.78,0,0,0,.31-.6.67.67,0,0,0-.33-.52,1,1,0,0,0-.33-.18l-.47-.15-.4-.09-1-.3a2.06,2.06,0,0,1-.68-.41l0,0a2.81,2.81,0,0,1-.63-.84,2.23,2.23,0,0,1-.22-1,2.33,2.33,0,0,1,.24-1,2.58,2.58,0,0,1,.68-.87,3.21,3.21,0,0,1,1-.57,3.27,3.27,0,0,1,1.17-.2,3.36,3.36,0,0,1,1.18.2,3.25,3.25,0,0,1,1,.57,2.55,2.55,0,0,1,.67.87,2.33,2.33,0,0,1,.24,1v.15Z"/><path class="cls-2" d="M352.67,163v2.16H350.5v6.33h-2.17V165.2h-2.17V163h6.51Z"/><path class="cls-2" d="M357.93,163.13l2.77,8.4h-2.09l-.55-1.72h-2.63l-.54,1.72h-2.1l2.79-8.4ZM356,168.06h1.51l-.76-2.38Z"/><path class="cls-2" d="M363.1,169.49h3.34v2h-5.5V163h2.16Z"/><path class="cls-2" d="M369.44,169.49h3.33v2h-5.49V163h2.16Z"/><path class="cls-2" d="M331,141.28l-1,.59,1,.57-.55.94-1-.58v1.06h-1.08V142.8l-1,.58-.54-.94,1-.57-1-.59.54-.93,1,.57v-1.06h1.08v1.06l1-.57Z"/><path d="M279.61,306.23a2.52,2.52,0,0,0,.72-.48l1.46,1.47a4.31,4.31,0,0,1-1.38.93,4.2,4.2,0,0,1-1.66.33,4.09,4.09,0,0,1-2.14-.58,4.17,4.17,0,0,1-1.56-1.56,4.1,4.1,0,0,1-.58-2.15,4.16,4.16,0,0,1,.58-2.15,4.27,4.27,0,0,1,1.56-1.57,4.32,4.32,0,0,1,3.8-.24,4.31,4.31,0,0,1,1.38.93l-1.46,1.46a2.3,2.3,0,0,0-.72-.47,2.14,2.14,0,0,0-.86-.18,2.12,2.12,0,0,0-1.1.3,2.22,2.22,0,0,0-.8.81,2.2,2.2,0,0,0,0,2.22,2.27,2.27,0,0,0,.8.8,2.12,2.12,0,0,0,1.1.3A2.31,2.31,0,0,0,279.61,306.23Z"/><path d="M287.09,299.92h2.16v8.49h-2.16v-3.17h-2.42v3.17h-2.16v-8.49h2.16v3.16h2.42Z"/><path d="M294.63,300l2.77,8.4h-2.09l-.55-1.72h-2.63l-.54,1.72h-2.1l2.79-8.4Zm-1.93,4.93h1.51l-.75-2.38Z"/><path d="M304,299.92v2.16h-2.17v6.33h-2.18v-6.33h-2.17v-2.16H304Z"/><path d="M312.89,300l2.78,8.4h-2.09l-.55-1.72H310.4l-.54,1.72h-2.1l2.78-8.4ZM311,304.94h1.51l-.75-2.38Z"/><path d="M320.8,306.23a2.52,2.52,0,0,0,.72-.48l1.47,1.47a4.42,4.42,0,0,1-1.38.93,4.28,4.28,0,0,1-1.66.33,4.13,4.13,0,0,1-2.15-.58,4.32,4.32,0,0,1-1.56-1.56,4.19,4.19,0,0,1-.57-2.15,4.24,4.24,0,0,1,.57-2.15,4.43,4.43,0,0,1,1.56-1.57,4.22,4.22,0,0,1,2.15-.57,4.28,4.28,0,0,1,1.66.33,4.42,4.42,0,0,1,1.38.93l-1.47,1.46a2.3,2.3,0,0,0-.72-.47A2.06,2.06,0,0,0,320,302a2.09,2.09,0,0,0-1.1.3,2.25,2.25,0,0,0-.81.81,2.2,2.2,0,0,0,0,2.22,2.3,2.3,0,0,0,.81.8,2.09,2.09,0,0,0,1.1.3A2.22,2.22,0,0,0,320.8,306.23Z"/><path d="M330.1,299.92v2.16h-2.17v6.33h-2.17v-6.33h-2.18v-2.16h6.52Z"/><path d="M333.1,299.92v8.49h-2.16v-8.49Z"/><path d="M339.64,299.9H342l-2.77,8.51h-2.64l-2.76-8.51h2.38l1.71,5.3Z"/><path d="M344.87,299.92v8.49h-2.16v-8.49Z"/><path d="M352.23,299.92v2.16h-2.17v6.33h-2.17v-6.33h-2.18v-2.16h6.52Z"/><path d="M357.58,299.92h2.16l-2.49,5v3.46h-2.17V305l-2.49-5h2.16l1.42,2.89Z"/><path d="M366,299.92v8.49h-2.16v-8.49Z"/><path d="M370.82,302.61v-.16a.73.73,0,0,0-.3-.59,1.08,1.08,0,0,0-.71-.25,1.16,1.16,0,0,0-.74.25.74.74,0,0,0-.31.59.55.55,0,0,0,.32.52,2.56,2.56,0,0,0,.81.34l.19,0,.21.05a4.05,4.05,0,0,1,1.71.71l.11.09a2.67,2.67,0,0,1,.57.83,2.38,2.38,0,0,1,.21,1,2.42,2.42,0,0,1-.23,1,2.71,2.71,0,0,1-.68.88,3.14,3.14,0,0,1-1,.57,3.52,3.52,0,0,1-2.34,0,3,3,0,0,1-1-.57,2.75,2.75,0,0,1-.69-.88,2.29,2.29,0,0,1-.24-1v-.15h2.1V306a.79.79,0,0,0,.29.6,1.09,1.09,0,0,0,.71.24,1.19,1.19,0,0,0,.74-.24.77.77,0,0,0,.3-.6.72.72,0,0,0-.32-.53,1.56,1.56,0,0,0-.34-.18l-.47-.14-.39-.1a10.25,10.25,0,0,1-1-.3,2,2,0,0,1-.69-.4l-.05-.05a2.81,2.81,0,0,1-.63-.84,2.24,2.24,0,0,1-.22-1,2.32,2.32,0,0,1,.24-1,2.61,2.61,0,0,1,.69-.87,3,3,0,0,1,1-.57,3.52,3.52,0,0,1,2.34,0,3.14,3.14,0,0,1,1,.57,2.58,2.58,0,0,1,.68.87,2.46,2.46,0,0,1,.23,1v.16Z"/><path d="M225.37,314.32h1v8.49h-2.16v-6l-1.17.37v-2.11l1.17-.38Z"/><path d="M232.33,314.89a3.94,3.94,0,0,1,1.27,1.56,4.93,4.93,0,0,1,.47,2.14,5,5,0,0,1-.47,2.16,3.94,3.94,0,0,1-1.27,1.56,2.95,2.95,0,0,1-3.51,0,3.94,3.94,0,0,1-1.27-1.56,4.88,4.88,0,0,1-.48-2.16,4.8,4.8,0,0,1,.48-2.14,3.94,3.94,0,0,1,1.27-1.56,2.95,2.95,0,0,1,3.51,0Zm-1,5.46a1.81,1.81,0,0,0,.53-.74,2.8,2.8,0,0,0,.19-1,2.6,2.6,0,0,0-.2-1,2,2,0,0,0-.53-.74,1.11,1.11,0,0,0-.72-.27,1.17,1.17,0,0,0-.74.27,2,2,0,0,0-.53.74,2.68,2.68,0,0,0,0,2,1.81,1.81,0,0,0,.53.74,1.14,1.14,0,0,0,1.47,0Z"/><path d="M234.67,317.74h3.87v1.71h-3.87Z"/><path d="M245.24,316.05l-1.39,1.5a3,3,0,0,1,1,1,2.81,2.81,0,0,1,0,2.87,2.93,2.93,0,0,1-1.11,1.07,3.13,3.13,0,0,1-3.06,0,2.93,2.93,0,0,1-1.11-1.07,2.78,2.78,0,0,1-.41-1.46h2a1,1,0,0,0,.32.74,1.08,1.08,0,0,0,.77.3,1.06,1.06,0,0,0,.76-.3,1,1,0,0,0,.32-.74v0a1.15,1.15,0,0,0-.11-.48,2,2,0,0,0-.53-.66,3.22,3.22,0,0,0-.77-.51v-1l.19-.22.67-.73.28-.3h-3.57v-1.66h5.81Z"/><path d="M251.09,314.89a4,4,0,0,1,1.28,1.56,4.92,4.92,0,0,1,.46,2.14,5,5,0,0,1-.46,2.16,4,4,0,0,1-1.28,1.56,2.93,2.93,0,0,1-3.5,0,4,4,0,0,1-1.28-1.56,5,5,0,0,1-.47-2.16,4.93,4.93,0,0,1,.47-2.14,4,4,0,0,1,1.28-1.56,2.93,2.93,0,0,1,3.5,0Zm-1,5.46a1.79,1.79,0,0,0,.52-.74,2.81,2.81,0,0,0,0-2,2.07,2.07,0,0,0-.53-.74,1.12,1.12,0,0,0-.73-.27,1.14,1.14,0,0,0-.73.27,2,2,0,0,0-.53.74,2.68,2.68,0,0,0,0,2,1.81,1.81,0,0,0,.53.74,1.14,1.14,0,0,0,.73.27A1.17,1.17,0,0,0,250.08,320.35Z"/><path d="M262.05,320.63a2.52,2.52,0,0,0,.72-.48l1.46,1.47a4.31,4.31,0,0,1-1.38.93,4.19,4.19,0,0,1-1.65.33,4.13,4.13,0,0,1-2.15-.58,4.24,4.24,0,0,1-1.56-1.56,4.19,4.19,0,0,1-.57-2.15,4.24,4.24,0,0,1,.57-2.15,4.35,4.35,0,0,1,1.56-1.57,4.32,4.32,0,0,1,3.8-.24,4.31,4.31,0,0,1,1.38.93L262.77,317a2.3,2.3,0,0,0-.72-.47,2.09,2.09,0,0,0-.85-.18,2.15,2.15,0,0,0-1.11.3,2.3,2.3,0,0,0-.8.81,2.2,2.2,0,0,0,0,2.22,2.36,2.36,0,0,0,.8.8,2.15,2.15,0,0,0,1.11.3A2.26,2.26,0,0,0,262.05,320.63Z"/><path d="M271.16,314.9a4.32,4.32,0,0,1,1.56,1.56,4.36,4.36,0,0,1,0,4.31,4.48,4.48,0,0,1-1.56,1.56,4.34,4.34,0,0,1-4.3,0,4.35,4.35,0,0,1-1.57-1.56,4.29,4.29,0,0,1,0-4.31,4.2,4.2,0,0,1,1.57-1.56,4.27,4.27,0,0,1,4.3,0Zm-1.05,5.63a2.25,2.25,0,0,0,.81-.81,2.09,2.09,0,0,0,.3-1.1,2.15,2.15,0,0,0-.3-1.11,2.25,2.25,0,0,0-.81-.81,2.09,2.09,0,0,0-1.1-.3,2.15,2.15,0,0,0-1.11.3,2.25,2.25,0,0,0-.81.81,2.15,2.15,0,0,0-.3,1.11,2.09,2.09,0,0,0,.3,1.1,2.25,2.25,0,0,0,.81.81,2.15,2.15,0,0,0,1.11.3A2.09,2.09,0,0,0,270.11,320.53Z"/><path d="M280.55,314.32h2.16v8.49h-2.16V318l-1.05,1.92-.05.09h-2.16l-.06-.09-.14-.28-.9-1.64v4.79H274v-8.49h2.18l2.18,3.61Z"/><path d="M290.21,314.32h2.16v8.49h-2.16V318l-1,1.92-.05.09H287l-.06-.09-.14-.28-.9-1.64v4.79h-2.18v-8.49h2.18l2.18,3.61Z"/><path d="M299.11,321v1.84h-5.78v-8.49H299v1.84h-3.49v1.49h2.94v1.83h-2.94V321Z"/><path d="M304.73,314.32h2.16v8.49h-2.16l-2.49-4.55v4.55h-2.17v-8.49h2.17l2.49,4.55Z"/><path d="M314.25,314.32v2.16h-2.17v6.33h-2.17v-6.33h-2.18v-2.16h6.52Z"/><path d="M319,317v-.16a.73.73,0,0,0-.3-.59A1.08,1.08,0,0,0,318,316a1.16,1.16,0,0,0-.74.25.74.74,0,0,0-.31.59.55.55,0,0,0,.32.52,2.56,2.56,0,0,0,.81.34l.19,0,.21.05a4.05,4.05,0,0,1,1.71.71l.11.09a2.67,2.67,0,0,1,.57.83,2.38,2.38,0,0,1,.21,1,2.42,2.42,0,0,1-.23,1,2.71,2.71,0,0,1-.68.88,3.14,3.14,0,0,1-1,.57,3.55,3.55,0,0,1-1.17.2,3.51,3.51,0,0,1-1.17-.2,3.14,3.14,0,0,1-1-.57,2.86,2.86,0,0,1-.68-.88,2.29,2.29,0,0,1-.24-1v-.15H317v.15a.79.79,0,0,0,.29.6,1.09,1.09,0,0,0,.71.24,1.14,1.14,0,0,0,.73-.24.75.75,0,0,0,.31-.6.72.72,0,0,0-.32-.53,1.56,1.56,0,0,0-.34-.18l-.47-.14-.39-.1c-.44-.11-.79-.21-1-.3a2.06,2.06,0,0,1-.68-.4l-.05-.05a2.81,2.81,0,0,1-.63-.84,2.24,2.24,0,0,1-.22-1,2.32,2.32,0,0,1,.24-1,2.71,2.71,0,0,1,.68-.87,3.14,3.14,0,0,1,1-.57,3.27,3.27,0,0,1,1.17-.2,3.31,3.31,0,0,1,1.17.2,3.14,3.14,0,0,1,1,.57,2.58,2.58,0,0,1,.68.87,2.46,2.46,0,0,1,.23,1V317Z"/><path d="M330.73,314.68a2.46,2.46,0,0,1,1,1,2.52,2.52,0,0,1,.36,1.32,2.65,2.65,0,0,1-1.32,2.29,2.61,2.61,0,0,1-1.32.35h-2v3.21h-2v-8.49h4.05A2.52,2.52,0,0,1,330.73,314.68Zm-.83,1.66a.82.82,0,0,0-.57-.28h-2v1.8h2a.76.76,0,0,0,.57-.29.91.91,0,0,0,.24-.62A.89.89,0,0,0,329.9,316.34Z"/><path d="M338.54,321v1.84h-5.77v-8.49h5.66v1.84h-3.49v1.49h2.94v1.83h-2.94V321Z"/><path d="M346.42,322.81h-2.17l-1.34-3.21h-1.38v3.21h-2v-8.49h4a2.69,2.69,0,0,1,2.29,1.32,2.66,2.66,0,0,1,.35,1.32,2.63,2.63,0,0,1-.32,1.27,2.76,2.76,0,0,1-.88.95ZM344,316.34a.82.82,0,0,0-.56-.28h-2v1.8h2a.83.83,0,0,0,.56-.29.87.87,0,0,0,.23-.62A.88.88,0,0,0,344,316.34Z"/><path d="M354.46,314.29a5.31,5.31,0,0,1,1.28.31,3.63,3.63,0,0,1,1.17.73,4.24,4.24,0,0,1,1,1.46,4.37,4.37,0,0,1,.36,1.74,4.14,4.14,0,0,1-.46,2,3.9,3.9,0,0,1-1.32,1.5,4.71,4.71,0,0,1-1.73.68,12.37,12.37,0,0,1-2.14.16h-1.92v-8.58h2.17C353.51,314.23,354,314.25,354.46,314.29Zm1.79,4.24a2.28,2.28,0,0,0-1.07-1.9,2.14,2.14,0,0,0-1.09-.33h-1.18v4.43a9.19,9.19,0,0,0,1.49-.1,2.51,2.51,0,0,0,1.11-.48,1.88,1.88,0,0,0,.68-1.11A2.43,2.43,0,0,0,356.25,318.53Z"/><path d="M363.45,314.41l2.77,8.4h-2.09l-.55-1.72H361l-.54,1.72h-2.1l2.79-8.4Zm-1.93,4.93H363l-.76-2.38Z"/><path d="M371,314.32h2.16l-2.49,5v3.46h-2.16v-3.46l-2.5-5h2.16l1.42,2.89Z"/><path class="cls-3" d="M191.59,258.87l2.77,8.4h-2.09l-.55-1.71h-2.63l-.54,1.71h-2.1l2.79-8.4Zm-1.93,4.93h1.51l-.76-2.37Z"/><path class="cls-3" d="M201.52,267.27h-2.17l-1.34-3.2h-1.38v3.2h-2v-8.48h4a2.61,2.61,0,0,1,1.32.35,2.65,2.65,0,0,1,1,1,2.56,2.56,0,0,1,.35,1.32,2.49,2.49,0,0,1-.32,1.26,2.79,2.79,0,0,1-.88,1Zm-2.38-6.46a.8.8,0,0,0-.57-.28h-2v1.8h2a.9.9,0,0,0,.57-.29.92.92,0,0,0,.22-.62A.88.88,0,0,0,199.14,260.81Z"/><path class="cls-3" d="M208.45,259.36a4.43,4.43,0,0,1,1.56,1.57,4.24,4.24,0,0,1,.57,2.15,4.19,4.19,0,0,1-.57,2.15,4.32,4.32,0,0,1-1.56,1.56,4.27,4.27,0,0,1-4.3,0,4.28,4.28,0,0,1-2.15-3.71,4.25,4.25,0,0,1,.58-2.15,4.3,4.3,0,0,1,1.57-1.57,4.34,4.34,0,0,1,4.3,0Zm-1,5.63a2.3,2.3,0,0,0,.81-.8,2.2,2.2,0,0,0,0-2.22,2.33,2.33,0,0,0-.81-.81,2.09,2.09,0,0,0-1.1-.3,2.15,2.15,0,0,0-1.11.3,2.33,2.33,0,0,0-.81.81,2.2,2.2,0,0,0,0,2.22,2.3,2.3,0,0,0,.81.8,2.15,2.15,0,0,0,1.11.3A2.09,2.09,0,0,0,207.4,265Z"/><path class="cls-3" d="M218.2,258.8V264a3.35,3.35,0,0,1-1.67,2.9,3.32,3.32,0,0,1-1.69.45h-.19a3.25,3.25,0,0,1-1.68-.45,3.32,3.32,0,0,1-1.22-1.22,3.25,3.25,0,0,1-.45-1.68V258.8h2v4.76a2,2,0,0,0,.36,1.24,1.15,1.15,0,0,0,1,.49h.19a1.16,1.16,0,0,0,1-.5,2,2,0,0,0,.38-1.23V258.8Z"/><path class="cls-3" d="M223.83,258.79H226v8.48h-2.16l-2.49-4.55v4.55h-2.18v-8.48h2.18l2.49,4.55Z"/><path class="cls-3" d="M230.67,258.76a4.86,4.86,0,0,1,1.28.3,3.67,3.67,0,0,1,1.17.74,4.29,4.29,0,0,1,1,1.45,4.46,4.46,0,0,1,.36,1.75,4.16,4.16,0,0,1-.46,2,4,4,0,0,1-1.32,1.5,4.52,4.52,0,0,1-1.73.67,12.29,12.29,0,0,1-2.14.17h-1l-.94,0v-8.58h2.17A13.85,13.85,0,0,1,230.67,258.76Zm1.79,4.24a2.22,2.22,0,0,0-.29-1.09,2.27,2.27,0,0,0-.78-.82,2.13,2.13,0,0,0-1.09-.32h-1.18v4.43a9.08,9.08,0,0,0,1.49-.11,2.39,2.39,0,0,0,1.11-.47,1.9,1.9,0,0,0,.68-1.12A2.34,2.34,0,0,0,232.46,263Z"/><path class="cls-3" d="M241.08,258.79h1v8.48H239.9v-6l-1.18.37v-2.11l1.18-.37Z"/><path class="cls-3" d="M248,259.35a4.09,4.09,0,0,1,1.27,1.56,5.15,5.15,0,0,1,0,4.3,3.91,3.91,0,0,1-1.27,1.57,2.95,2.95,0,0,1-3.51,0,4,4,0,0,1-1.28-1.57,5.15,5.15,0,0,1,0-4.3,4.21,4.21,0,0,1,1.28-1.56,3,3,0,0,1,3.51,0Zm-1,5.47a1.77,1.77,0,0,0,.52-.74,2.61,2.61,0,0,0,.2-1,2.53,2.53,0,0,0-.2-1,1.88,1.88,0,0,0-.53-.74,1.13,1.13,0,0,0-.73-.28,1.17,1.17,0,0,0-.73.28,1.88,1.88,0,0,0-.53.74,2.53,2.53,0,0,0-.2,1,2.61,2.61,0,0,0,.2,1,1.88,1.88,0,0,0,.53.74,1.14,1.14,0,0,0,1.47,0Z"/><path class="cls-3" d="M255.51,259.35a4,4,0,0,1,1.27,1.56,5.15,5.15,0,0,1,0,4.3,3.83,3.83,0,0,1-1.27,1.57,2.93,2.93,0,0,1-3.5,0,3.85,3.85,0,0,1-1.28-1.57,5.06,5.06,0,0,1,0-4.3,4,4,0,0,1,1.28-1.56,3,3,0,0,1,3.5,0Zm-1,5.47a1.88,1.88,0,0,0,.53-.74,2.61,2.61,0,0,0,.19-1,2.53,2.53,0,0,0-.2-1,1.86,1.86,0,0,0-.52-.74,1.17,1.17,0,0,0-.73-.28,1.15,1.15,0,0,0-.73.28,1.9,1.9,0,0,0-.54.74,2.53,2.53,0,0,0-.2,1,2.61,2.61,0,0,0,.2,1,1.9,1.9,0,0,0,.54.74,1.12,1.12,0,0,0,1.46,0Z"/><path class="cls-3" d="M258,262.24h4.74v1.53H258Zm3.13-1.6v4.74h-1.52v-4.74Z"/><path class="cls-3" d="M273.81,258.79H276v8.48h-2.16v-4.79l-1.06,1.92,0,.1h-2.16l-.06-.1-.15-.27-.9-1.65v4.79h-2.17v-8.48h2.17l2.19,3.61Z"/><path class="cls-3" d="M282.7,265.44v1.83h-5.77v-8.48h5.66v1.84H279.1v1.48H282V264H279.1v1.49Z"/><path class="cls-3" d="M290.2,258.79h2.16v8.48H290.2v-4.79l-1.05,1.92,0,.1h-2.16l-.06-.1-.15-.27-.9-1.65v4.79h-2.17v-8.48h2.17L288,262.4Z"/><path class="cls-3" d="M299.72,263.69a2.44,2.44,0,0,1,.27,1.13,2.34,2.34,0,0,1-.32,1.22,2.5,2.5,0,0,1-.88.89,2.47,2.47,0,0,1-1.23.34h-4.24v-8.48h3.85a2.37,2.37,0,0,1,1.24.33,2.47,2.47,0,0,1,.87.89,2.39,2.39,0,0,1,.15,2.08,2.22,2.22,0,0,1-.47.75A2.52,2.52,0,0,1,299.72,263.69Zm-2.24-2.92a.84.84,0,0,0-.62-.25H295.3v1.8h1.56l.29-.05a1,1,0,0,0,.22-.12.86.86,0,0,0,.27-.33.82.82,0,0,0,.1-.42A.89.89,0,0,0,297.48,260.77Zm.36,4.49a.89.89,0,0,0,.25-.64.84.84,0,0,0-.21-.57.94.94,0,0,0-.51-.31H295.3v1.8h1.92A.91.91,0,0,0,297.84,265.26Z"/><path class="cls-3" d="M306.49,265.44v1.83h-5.78v-8.48h5.67v1.84h-3.49v1.48h2.94V264h-2.94v1.49Z"/><path class="cls-3" d="M314.37,267.27H312.2l-1.35-3.2h-1.38v3.2h-2v-8.48h4a2.63,2.63,0,0,1,2.64,2.64,2.59,2.59,0,0,1-.32,1.26,2.79,2.79,0,0,1-.88,1ZM312,260.81a.78.78,0,0,0-.56-.28h-2v1.8h2A.88.88,0,0,0,312,262a.93.93,0,0,0,.23-.62A.89.89,0,0,0,312,260.81Z"/><path class="cls-3" d="M319,261.48v-.16a.73.73,0,0,0-.3-.59,1,1,0,0,0-.71-.25,1.11,1.11,0,0,0-.74.25.74.74,0,0,0-.31.59.57.57,0,0,0,.32.52,2.83,2.83,0,0,0,.81.33l.19,0,.21.05a4.07,4.07,0,0,1,1.71.7l.11.1a2.56,2.56,0,0,1,.57.83,2.38,2.38,0,0,1,.21,1,2.46,2.46,0,0,1-.23,1,2.71,2.71,0,0,1-.68.88,3.34,3.34,0,0,1-2.18.76,3.5,3.5,0,0,1-1.17-.19,3.57,3.57,0,0,1-1-.57,2.86,2.86,0,0,1-.68-.88,2.32,2.32,0,0,1-.24-1v-.16H317v.16a.75.75,0,0,0,.29.59,1,1,0,0,0,.71.25,1.1,1.1,0,0,0,.73-.25.72.72,0,0,0,.31-.59.7.7,0,0,0-.32-.53,1.56,1.56,0,0,0-.34-.18,3,3,0,0,0-.47-.14l-.39-.1c-.44-.11-.79-.21-1-.3a2.1,2.1,0,0,1-.68-.41l-.05-.05a2.58,2.58,0,0,1-.63-.84,2.23,2.23,0,0,1-.22-1,2.32,2.32,0,0,1,.24-1,2.86,2.86,0,0,1,.68-.88,3.14,3.14,0,0,1,1-.57,3.51,3.51,0,0,1,1.17-.2,3.55,3.55,0,0,1,1.17.2,3.14,3.14,0,0,1,1,.57,2.71,2.71,0,0,1,.68.88,2.46,2.46,0,0,1,.23,1v.16Z"/><path class="cls-3" d="M330.73,259.14a2.65,2.65,0,0,1,1.32,2.29,2.52,2.52,0,0,1-.36,1.32,2.46,2.46,0,0,1-1,1,2.52,2.52,0,0,1-1.32.36h-2v3.2h-2v-8.48h4.05A2.61,2.61,0,0,1,330.73,259.14Zm-.83,1.67a.79.79,0,0,0-.57-.28h-2v1.8h2a.83.83,0,0,0,.57-.29.93.93,0,0,0,.24-.62A.85.85,0,0,0,329.9,260.81Z"/><path class="cls-3" d="M338.54,265.44v1.83h-5.77v-8.48h5.66v1.84h-3.49v1.48h2.94V264h-2.94v1.49Z"/><path class="cls-3" d="M346.42,267.27h-2.17l-1.34-3.2h-1.38v3.2h-2v-8.48h4a2.63,2.63,0,0,1,2.64,2.64,2.59,2.59,0,0,1-.32,1.26,2.79,2.79,0,0,1-.88,1ZM344,260.81a.78.78,0,0,0-.56-.28h-2v1.8h2a.9.9,0,0,0,.79-.91A.84.84,0,0,0,344,260.81Z"/><path class="cls-3" d="M354.46,258.76a4.86,4.86,0,0,1,1.28.3,3.67,3.67,0,0,1,1.17.74,4.29,4.29,0,0,1,1,1.45,4.46,4.46,0,0,1,.36,1.75,4.16,4.16,0,0,1-.46,2,4,4,0,0,1-1.32,1.5,4.52,4.52,0,0,1-1.73.67,12.29,12.29,0,0,1-2.14.17h-1l-.94,0v-8.58h2.17A13.85,13.85,0,0,1,354.46,258.76Zm1.79,4.24a2.22,2.22,0,0,0-.29-1.09,2.27,2.27,0,0,0-.78-.82,2.13,2.13,0,0,0-1.09-.32h-1.18v4.43a9.08,9.08,0,0,0,1.49-.11,2.39,2.39,0,0,0,1.11-.47,1.9,1.9,0,0,0,.68-1.12A2.34,2.34,0,0,0,356.25,263Z"/><path class="cls-3" d="M363.45,258.87l2.77,8.4h-2.09l-.55-1.71H361l-.54,1.71h-2.1l2.79-8.4Zm-1.93,4.93H363l-.76-2.37Z"/><path class="cls-3" d="M371,258.79h2.16l-2.49,5v3.45h-2.16v-3.45l-2.5-5h2.16l1.42,2.89Z"/><path class="cls-3" d="M169.44,22.9h3.78V37.75h-3.78l-4.37-8v8h-3.8V22.9h3.8l4.37,8Z"/><path class="cls-3" d="M187,22.92V32.1A5.78,5.78,0,0,1,184,37.17a5.7,5.7,0,0,1-2.95.79h-.33a5.64,5.64,0,0,1-2.94-.79,5.86,5.86,0,0,1-2.92-5.07V22.92h3.5v8.34a3.54,3.54,0,0,0,.63,2.16,2,2,0,0,0,1.73.86h.33a2.05,2.05,0,0,0,1.71-.87,3.41,3.41,0,0,0,.67-2.15V22.92Z"/><path class="cls-3" d="M200.1,22.9h3.78V37.75H200.1V29.37l-1.85,3.36-.08.17h-3.78l-.11-.17-.25-.48-1.58-2.88v8.38h-3.8V22.9h3.8l3.83,6.32Z"/><path class="cls-3" d="M216.75,31.48a4.2,4.2,0,0,1,.48,2A4.3,4.3,0,0,1,213,37.75h-7.41V22.88h6.74a4.07,4.07,0,0,1,2.16.59A4.26,4.26,0,0,1,216,25a4.08,4.08,0,0,1,.56,2.1A4.2,4.2,0,0,1,215.43,30,4.15,4.15,0,0,1,216.75,31.48Zm-3.92-5.1a1.47,1.47,0,0,0-1.08-.45H209v3.15h2.73a3.53,3.53,0,0,0,.51-.09,1.48,1.48,0,0,0,.37-.21,1.5,1.5,0,0,0,.49-.57,1.6,1.6,0,0,0,.17-.73A1.51,1.51,0,0,0,212.83,26.38Zm.63,7.84a1.41,1.41,0,0,0,.43-1.11,1.53,1.53,0,0,0-1.26-1.53c-.08,0-1.07,0-3,0H209V34.7h3.36A1.5,1.5,0,0,0,213.46,34.22Z"/><path class="cls-3" d="M228.59,34.54v3.21h-10.1V22.9h9.92v3.22h-6.12v2.6h5.15v3.21h-5.15v2.61Z"/><path class="cls-3" d="M242.39,37.75h-3.8l-2.35-5.61h-2.42v5.61h-3.55V22.9h7.08a4.54,4.54,0,0,1,2.31.62,4.5,4.5,0,0,1,1.69,1.69,4.6,4.6,0,0,1,.62,2.31,4.48,4.48,0,0,1-.57,2.22,4.71,4.71,0,0,1-1.53,1.67Zm-4.18-11.31a1.39,1.39,0,0,0-1-.49h-3.49V29.1h3.49a1.51,1.51,0,0,0,1-.52,1.55,1.55,0,0,0,.4-1.08A1.52,1.52,0,0,0,238.21,26.44Z"/><path class="cls-3" d="M260.81,23.91a7.47,7.47,0,0,1,2.73,2.74,7.51,7.51,0,0,1-10.26,10.26,7.47,7.47,0,0,1-2.74-2.73,7.52,7.52,0,0,1,0-7.53,7.5,7.5,0,0,1,2.74-2.74,7.52,7.52,0,0,1,7.53,0ZM259,33.76a4,4,0,0,0,1.41-1.41,3.86,3.86,0,0,0,0-3.87A3.92,3.92,0,0,0,259,27.06a3.86,3.86,0,0,0-3.87,0,3.87,3.87,0,0,0-1.42,1.42,3.8,3.8,0,0,0,0,3.87,3.92,3.92,0,0,0,1.42,1.41,3.86,3.86,0,0,0,3.87,0Z"/><path class="cls-3" d="M276.14,26.12h-6.55v2.6h5.25v3.21h-5.25v5.82h-3.78V22.9h10.33Z"/><path class="cls-3" d="M287.48,22.9V37.75H283.7V22.9Z"/><path class="cls-3" d="M297.33,22.9h3.78V37.75h-3.78l-4.37-8v8h-3.8V22.9H293l4.37,8Z"/><path class="cls-3" d="M309.57,27.61v-.28a1.31,1.31,0,0,0-.52-1,1.91,1.91,0,0,0-1.24-.43,2.05,2.05,0,0,0-1.3.43,1.32,1.32,0,0,0-.53,1,1,1,0,0,0,.54.91,4.71,4.71,0,0,0,1.43.58l.33.07.37.08a7.32,7.32,0,0,1,3,1.24l.19.17a4.35,4.35,0,0,1,1,1.45,4.08,4.08,0,0,1,.37,1.68,4,4,0,0,1-.41,1.8,4.7,4.7,0,0,1-1.18,1.54,5.69,5.69,0,0,1-1.77,1,6.19,6.19,0,0,1-2.06.35,6.07,6.07,0,0,1-2-.35,5.75,5.75,0,0,1-1.76-1,4.74,4.74,0,0,1-1.19-1.54,4,4,0,0,1-.42-1.8v-.28H306v.28a1.31,1.31,0,0,0,.52,1,1.87,1.87,0,0,0,1.22.43,2.05,2.05,0,0,0,1.3-.43,1.32,1.32,0,0,0,.53-1,1.23,1.23,0,0,0-.57-.93,2.28,2.28,0,0,0-.58-.31,6.81,6.81,0,0,0-.82-.25l-.7-.17c-.77-.2-1.37-.37-1.8-.53a3.59,3.59,0,0,1-1.2-.71l-.08-.08a4.76,4.76,0,0,1-1.11-1.48,4.07,4.07,0,0,1,0-3.52A4.74,4.74,0,0,1,304,24a5.75,5.75,0,0,1,1.76-1,6.07,6.07,0,0,1,2-.35,6.19,6.19,0,0,1,2.06.35,5.69,5.69,0,0,1,1.77,1,4.7,4.7,0,0,1,1.18,1.54,4,4,0,0,1,.41,1.8v.28Z"/><path class="cls-3" d="M325.66,22.9v3.78h-3.81V37.75h-3.8V26.68h-3.8V22.9h11.41Z"/><path class="cls-3" d="M334.85,23.05l4.85,14.7h-3.65l-1-3h-4.59l-.95,3h-3.67l4.87-14.7Zm-3.38,8.63h2.65l-1.33-4.16Z"/><path class="cls-3" d="M343.9,34.18h5.84v3.57h-9.62V22.9h3.78Z"/><path class="cls-3" d="M355,34.18h5.84v3.57h-9.62V22.9H355Z"/><path class="cls-3" d="M369.08,27.61v-.28a1.33,1.33,0,0,0-.51-1,1.91,1.91,0,0,0-1.25-.43,2,2,0,0,0-1.29.43,1.3,1.3,0,0,0-.54,1,1,1,0,0,0,.55.91,4.6,4.6,0,0,0,1.43.58l.32.07.37.08a7.19,7.19,0,0,1,3,1.24l.19.17a4.52,4.52,0,0,1,1,1.45,4.25,4.25,0,0,1,.37,1.68,4.16,4.16,0,0,1-.41,1.8,4.74,4.74,0,0,1-1.19,1.54,5.75,5.75,0,0,1-1.76,1,6.23,6.23,0,0,1-2.06.35,6.09,6.09,0,0,1-2.05-.35,5.59,5.59,0,0,1-1.75-1,4.77,4.77,0,0,1-1.2-1.54,4,4,0,0,1-.42-1.8v-.28h3.67v.28a1.34,1.34,0,0,0,.52,1,1.88,1.88,0,0,0,1.23.43,2,2,0,0,0,1.29-.43,1.3,1.3,0,0,0,.54-1,1.23,1.23,0,0,0-.57-.93,2.53,2.53,0,0,0-.59-.31,6.29,6.29,0,0,0-.82-.25l-.69-.17c-.77-.2-1.37-.37-1.81-.53a3.55,3.55,0,0,1-1.19-.71l-.09-.08a4.72,4.72,0,0,1-1.1-1.48,3.9,3.9,0,0,1-.39-1.72,4,4,0,0,1,.42-1.8A4.77,4.77,0,0,1,363.5,24a5.59,5.59,0,0,1,1.75-1,6.09,6.09,0,0,1,2.05-.35,6.23,6.23,0,0,1,2.06.35,5.75,5.75,0,0,1,1.76,1,4.74,4.74,0,0,1,1.19,1.54,4.16,4.16,0,0,1,.41,1.8v.28Z"/><path d="M65.14,368.07a1.52,1.52,0,0,1-.46-.69,2.51,2.51,0,0,1-1.05.27,1.21,1.21,0,0,1-1-.46,1.7,1.7,0,0,1-.37-1.12,2.66,2.66,0,0,1,.21-1,2.27,2.27,0,0,1,.63-.87,2.63,2.63,0,0,1,1.81-.73,2.8,2.8,0,0,1,.67.08,2.34,2.34,0,0,1,.5.18l.24.12c0,.09-.09.29-.17.6s-.17.66-.25,1.06a5.44,5.44,0,0,0-.12,1c0,.37.07.6.22.69a.48.48,0,0,0,.27.09.81.81,0,0,0,.63-.46,2.86,2.86,0,0,0,.4-1.12,1.42,1.42,0,0,0,0-.23,3,3,0,0,0-.12-.86,3,3,0,0,0-.59-1.08,2.88,2.88,0,0,0-1-.74,2.76,2.76,0,0,0-1.16-.26,2.73,2.73,0,0,0-.89.15,3.06,3.06,0,0,0-1.09.69,3.49,3.49,0,0,0-.73,1.08,3.24,3.24,0,0,0-.25,1.25,3,3,0,0,0,.13.87,2.85,2.85,0,0,0,.6,1.09,3,3,0,0,0,1,.74,2.52,2.52,0,0,0,1.17.25v1.09h-.29a3.94,3.94,0,0,1-2.22-.8,3.73,3.73,0,0,1-1.34-1.89,4.51,4.51,0,0,1,.23-3.25A4.12,4.12,0,0,1,62,362.26a4.22,4.22,0,0,1,1.2-.68,4.12,4.12,0,0,1,1.35-.23,4,4,0,0,1,1.44.27,3.76,3.76,0,0,1,1.25.8,4.24,4.24,0,0,1,1,1.4,4.36,4.36,0,0,1,.32,1.64,4.12,4.12,0,0,1-.44,1.87,1.51,1.51,0,0,1-.26.38,2.62,2.62,0,0,1-.67.58,1.7,1.7,0,0,1-.84.22l-.34,0A1.66,1.66,0,0,1,65.14,368.07Zm-.27-3.28a1.72,1.72,0,0,1,.08-.19.16.16,0,0,0-.1,0h-.18a1.65,1.65,0,0,0-.7.16,1.43,1.43,0,0,0-.61.61,1.19,1.19,0,0,0-.19.64.61.61,0,0,0,.13.41.43.43,0,0,0,.35.15,1.73,1.73,0,0,0,1-.5c0-.05,0-.16,0-.34s0-.33.07-.47S64.84,364.89,64.87,364.79Z"/><path d="M74.93,361.4v4.52a2.79,2.79,0,0,1-.39,1.45,2.89,2.89,0,0,1-1.06,1.05,2.82,2.82,0,0,1-1.45.39h-.17a2.78,2.78,0,0,1-1.44-.39,2.83,2.83,0,0,1-1.44-2.5V361.4h1.73v4.11a1.71,1.71,0,0,0,.31,1.06,1,1,0,0,0,.84.43H72a1,1,0,0,0,.84-.43,1.7,1.7,0,0,0,.33-1.06V361.4Z"/><path d="M81.27,361.39v1.86H79.4v5.46H77.52v-5.46H75.65v-1.86h5.62Z"/><path d="M87.34,361.89a3.64,3.64,0,0,1,1.35,1.35,3.59,3.59,0,0,1,.5,1.85,3.65,3.65,0,0,1-.5,1.86,3.69,3.69,0,0,1-1.35,1.34,3.59,3.59,0,0,1-1.85.5,3.65,3.65,0,0,1-1.86-.5A3.69,3.69,0,0,1,82.28,367a3.64,3.64,0,0,1-.49-1.86,3.58,3.58,0,0,1,.49-1.85,3.64,3.64,0,0,1,1.35-1.35,3.56,3.56,0,0,1,1.86-.5A3.5,3.5,0,0,1,87.34,361.89Zm-.9,4.85a2,2,0,0,0,.7-.7,1.81,1.81,0,0,0,.26-1,1.86,1.86,0,0,0-.26-.95,2,2,0,0,0-.7-.7,1.83,1.83,0,0,0-1-.26,1.92,1.92,0,0,0-1,.26,1.86,1.86,0,0,0-.69.7,1.77,1.77,0,0,0-.26.95,1.72,1.72,0,0,0,.26,1,1.89,1.89,0,0,0,1.65,1A1.83,1.83,0,0,0,86.44,366.74Z"/><path d="M94.44,361.69a2.33,2.33,0,0,1,.82.83,2.27,2.27,0,0,1,0,2.29,2.33,2.33,0,0,1-.82.83,2.27,2.27,0,0,1-1.15.3H91.55v2.77H89.81v-7.32h3.48A2.27,2.27,0,0,1,94.44,361.69Zm-.72,1.44a.68.68,0,0,0-.49-.24H91.51v1.55h1.72a.69.69,0,0,0,.49-.25.76.76,0,0,0,.2-.53A.75.75,0,0,0,93.72,363.13Z"/><path d="M98.05,361.39v7.32H96.19v-7.32Z"/><path d="M102.69,361.46l2.39,7.25h-1.8l-.48-1.49h-2.26l-.47,1.49H98.26l2.4-7.25ZM101,365.71h1.31l-.66-2Z"/><path d="M110.64,361.89a3.69,3.69,0,0,1,1.34,1.35,3.59,3.59,0,0,1,.5,1.85A3.65,3.65,0,0,1,112,367a3.74,3.74,0,0,1-1.34,1.34,3.65,3.65,0,0,1-1.86.5,3.59,3.59,0,0,1-1.85-.5,3.69,3.69,0,0,1-1.35-1.34,3.56,3.56,0,0,1-.5-1.86,3.5,3.5,0,0,1,.5-1.85,3.64,3.64,0,0,1,1.35-1.35,3.5,3.5,0,0,1,1.85-.5A3.56,3.56,0,0,1,110.64,361.89Zm-.91,4.85a2,2,0,0,0,.7-.7,1.81,1.81,0,0,0,.26-1,1.86,1.86,0,0,0-.26-.95,1.88,1.88,0,0,0-.7-.7,1.81,1.81,0,0,0-1-.26,1.86,1.86,0,0,0-1,.26,1.81,1.81,0,0,0-.7.7,1.77,1.77,0,0,0-.26.95,1.72,1.72,0,0,0,.26,1,1.88,1.88,0,0,0,.7.7,1.86,1.86,0,0,0,1,.26A1.81,1.81,0,0,0,109.73,366.74Z"/><path d="M118.19,363H115v1.29h2.59v1.58H115v2.87H113.1v-7.32h5.09Z"/><path d="M123.9,363h-3.23v1.29h2.59v1.58h-2.59v2.87h-1.86v-7.32h5.09Z"/><path d="M126.38,361.39v7.32h-1.86v-7.32Z"/><path d="M131.43,366.83a2,2,0,0,0,.62-.41l1.27,1.26a3.78,3.78,0,0,1-1.19.8,3.65,3.65,0,0,1-1.43.29,3.59,3.59,0,0,1-1.85-.5,3.64,3.64,0,0,1-1.35-1.35,3.59,3.59,0,0,1-.5-1.85,3.68,3.68,0,0,1,1.85-3.2,3.5,3.5,0,0,1,1.85-.5,3.65,3.65,0,0,1,1.43.28,3.81,3.81,0,0,1,1.19.81l-1.27,1.26a1.86,1.86,0,0,0-.62-.41,1.83,1.83,0,0,0-.73-.15,1.74,1.74,0,0,0-.95.26,2,2,0,0,0-.7.7,1.86,1.86,0,0,0-.26.95,1.83,1.83,0,0,0,.26.95,2.13,2.13,0,0,0,.7.7,1.86,1.86,0,0,0,1.68.11Z"/><path d="M135.8,361.39v7.32h-1.86v-7.32Z"/><path d="M140.43,361.46l2.39,7.25H141l-.47-1.49h-2.27l-.46,1.49H136l2.4-7.25Zm-1.66,4.25h1.3l-.65-2Z"/><path d="M144.89,367h2.88v1.76H143v-7.32h1.86Z"/><path id="telegram" d="M54.84,359.8l-12.93,4.9c-.71.21-.69.9-.16,1.07l3.24,1,1.24,3.8c.15.42.27.58.53.58s.37-.09.65-.34L49,369.25l3.37,2.49c.62.35,1.06.17,1.22-.57l2.11-10.46C56,359.81,55.43,359.54,54.84,359.8Zm-9.34,6.75,7.36-4.62c.37-.24.48,0,.32.21l-6.12,5.5-.31,2.75Z"/><path d="M159.44,378.82H32.84a.75.75,0,0,1-.75-.75V352.41a.75.75,0,0,1,.75-.75h126.6a.74.74,0,0,1,.75.75v25.66A.74.74,0,0,1,159.44,378.82Zm-125.85-1.5h125.1V353.16H33.59Z"/><path d="M349.54,361.88v4.53a2.78,2.78,0,0,1-.39,1.44,2.72,2.72,0,0,1-1,1,2.85,2.85,0,0,1-1.46.39h-.16a2.89,2.89,0,0,1-2.89-2.88v-4.53h1.73V366a1.76,1.76,0,0,0,.31,1.07,1,1,0,0,0,.85.42h.16a1,1,0,0,0,.85-.43,1.67,1.67,0,0,0,.32-1.06v-4.11Z"/><path d="M350.44,368.89a1,1,0,0,1-.28-.72.92.92,0,0,1,.29-.67,1,1,0,0,1,1.37,0,1,1,0,0,1,.29.7.94.94,0,0,1-.29.69,1,1,0,0,1-.69.29A.92.92,0,0,1,350.44,368.89Z"/><path d="M354.59,361.87v7.32h-1.86v-7.32Z"/><path d="M358.76,364.19v-.13a.67.67,0,0,0-.25-.52,1,1,0,0,0-1.25,0,.66.66,0,0,0-.27.52.46.46,0,0,0,.27.44,2.08,2.08,0,0,0,.7.29l.17,0,.18,0a3.77,3.77,0,0,1,1.48.61l.09.09a2.2,2.2,0,0,1,.49.71,2.07,2.07,0,0,1,.18.83,2.1,2.1,0,0,1-.2.89,2.3,2.3,0,0,1-.58.75,2.9,2.9,0,0,1-.87.5,3.21,3.21,0,0,1-1,.17,3.1,3.1,0,0,1-1-.17,2.73,2.73,0,0,1-.86-.5,2.33,2.33,0,0,1-.59-.75,2,2,0,0,1-.21-.89V367H357v.14a.64.64,0,0,0,.26.51.91.91,0,0,0,.6.21,1,1,0,0,0,.64-.21.64.64,0,0,0,.26-.51.6.6,0,0,0-.28-.46,1.13,1.13,0,0,0-.29-.15l-.4-.13-.34-.08a7.4,7.4,0,0,1-.89-.26,1.62,1.62,0,0,1-.59-.35l0,0a2.34,2.34,0,0,1-.55-.72,2.1,2.1,0,0,1-.19-.85,2,2,0,0,1,.21-.89,2.27,2.27,0,0,1,.59-.76,2.71,2.71,0,0,1,.86-.49,3.1,3.1,0,0,1,1-.17,3.21,3.21,0,0,1,1,.17,2.87,2.87,0,0,1,.87.49,2.24,2.24,0,0,1,.58.76,2.1,2.1,0,0,1,.2.89v.13Z"/><path d="M327,366.27v-.92a1.16,1.16,0,0,0,0-.18,6.07,6.07,0,0,1,4.31-5.2c.42-.13.86-.17,1.29-.26h.92l.16,0a6.08,6.08,0,0,1,5.22,4.31c.13.42.17.86.26,1.29v.92c0,.06,0,.12,0,.18a6,6,0,0,1-4.2,5.17,9.4,9.4,0,0,1-1.4.29h-.92a1.16,1.16,0,0,0-.18,0,6,6,0,0,1-5.14-4.13A8.2,8.2,0,0,1,327,366.27Zm1.25-2.33.48.05a2.48,2.48,0,0,1,.66.12c.28.1.34.25.22.53s-.2.38-.28.59a.82.82,0,0,0,.36,1.12,1,1,0,0,1,.55.94s0,.1,0,.16a2.67,2.67,0,0,0,.84,1.87c.15.12.29.37.48.27s.12-.36.11-.55a5.47,5.47,0,0,1,0-1.51,1.63,1.63,0,0,1,.93-1.27c.09,0,.17-.1.26-.15a.88.88,0,0,0,.4-.52,1.18,1.18,0,0,0-.74-1.62,4.14,4.14,0,0,0-2.08-.36.5.5,0,0,1-.51-.29.31.31,0,0,1,0-.4,12.89,12.89,0,0,1,1.41-1.45l1.06-.78A5.1,5.1,0,0,0,328.25,363.94Zm10.06,1.88A5.21,5.21,0,0,0,335,361c-.18-.08-.28-.05-.36.12a.82.82,0,0,0,.11.79c.17.22.39.17.61.09l.15-.06c.12,0,.25-.15.37,0a.37.37,0,0,1,0,.48,4.09,4.09,0,0,1-.39.44,1,1,0,0,0-.32,1.15c.2.5.48.94,1.08,1a.86.86,0,0,1,.85.72A3.82,3.82,0,0,1,337,368a1,1,0,0,0,0,.79c.13.22.17.22.32,0A5.15,5.15,0,0,0,338.31,365.82Zm-6.81,4.93.16.06a5.09,5.09,0,0,0,3.88-.41c.14-.07.4-.12.38-.28s-.27-.26-.46-.32a2.55,2.55,0,0,0-1.82.13,4.55,4.55,0,0,1-1.35.39A1.27,1.27,0,0,0,331.5,370.75Z"/><path d="M372.38,378.82h-57a.75.75,0,0,1-.75-.75V352.41a.75.75,0,0,1,.75-.75h57a.74.74,0,0,1,.75.75v25.66A.74.74,0,0,1,372.38,378.82Zm-56.26-1.5h55.51V353.16H316.12Z"/><path d="M223.28,361.88v4.53a2.78,2.78,0,0,1-.39,1.44,2.74,2.74,0,0,1-1.06,1,2.82,2.82,0,0,1-1.45.39h-.17a2.78,2.78,0,0,1-1.44-.39,2.74,2.74,0,0,1-1.06-1,2.87,2.87,0,0,1-.38-1.44v-4.53h1.73V366a1.76,1.76,0,0,0,.31,1.07,1,1,0,0,0,.84.42h.17a1,1,0,0,0,.84-.43,1.68,1.68,0,0,0,.33-1.06v-4.11Z"/><path d="M229.62,361.87v1.87h-1.87v5.45h-1.88v-5.45H224v-1.87h5.62Z"/><path d="M235.69,362.37a3.7,3.7,0,0,1,1.35,5.06,3.72,3.72,0,0,1-1.35,1.35,3.58,3.58,0,0,1-1.85.49,3.64,3.64,0,0,1-1.86-.49,3.72,3.72,0,0,1-1.35-1.35,3.7,3.7,0,0,1,1.35-5.06,3.65,3.65,0,0,1,1.86-.5A3.59,3.59,0,0,1,235.69,362.37Zm-.9,4.85a2,2,0,0,0,.7-.69,1.88,1.88,0,0,0,0-1.91,2,2,0,0,0-.7-.7,1.83,1.83,0,0,0-.95-.26,1.89,1.89,0,0,0-1.65,1,1.88,1.88,0,0,0,0,1.91,1.9,1.9,0,0,0,.69.69,1.82,1.82,0,0,0,1,.26A1.74,1.74,0,0,0,234.79,367.22Z"/><path d="M242.79,362.18a2.25,2.25,0,0,1,.82.83,2.17,2.17,0,0,1,.31,1.14,2.15,2.15,0,0,1-.31,1.14,2.25,2.25,0,0,1-.82.83,2.18,2.18,0,0,1-1.15.31H239.9v2.76h-1.74v-7.32h3.48A2.28,2.28,0,0,1,242.79,362.18Zm-.72,1.44a.73.73,0,0,0-.49-.25h-1.72v1.56h1.72a.7.7,0,0,0,.49-.26.75.75,0,0,0,.2-.53A.72.72,0,0,0,242.07,363.62Z"/><path d="M246.4,361.87v7.32h-1.86v-7.32Z"/><path d="M251,362l2.39,7.24h-1.8l-.48-1.48h-2.26l-.47,1.48h-1.81L249,362Zm-1.67,4.25h1.31l-.66-2.05Z"/><path d="M253.43,367.72h4.36v1.47h-4.36Z"/><path d="M263.39,367.61v1.58h-5v-7.32h4.88v1.59h-3v1.28h2.53v1.58h-2.53v1.29Z"/><path d="M268.25,361.87h1.86v7.32h-1.86l-2.16-3.92v3.92h-1.87v-7.32h1.87l2.16,3.92Z"/><path d="M278.13,365.57a3.68,3.68,0,0,1-1.85,3.19,3.69,3.69,0,0,1-5-5.05,3.68,3.68,0,0,1,3.19-1.85,3.75,3.75,0,0,1,1.45.29,3.88,3.88,0,0,1,1.18.81l-1.67,1a1.88,1.88,0,0,0-1.91,0,1.93,1.93,0,0,0-.69.7,1.88,1.88,0,0,0,0,1.91,1.9,1.9,0,0,0,.69.69,1.77,1.77,0,0,0,.95.26,1.88,1.88,0,0,0,1-.28,2,2,0,0,0,.7-.76h-2.3v-1.72H278A4,4,0,0,1,278.13,365.57Z"/><path id="telegram-2" data-name="telegram" d="M212.33,360.11,199.4,365c-.71.21-.69.91-.16,1.08l3.24,1,1.24,3.8c.15.41.27.57.53.57s.37-.09.65-.34l1.63-1.56,3.37,2.49c.62.34,1.06.16,1.22-.58L213.23,361C213.46,360.11,212.92,359.84,212.33,360.11ZM203,366.85l7.36-4.62c.37-.24.48,0,.32.22l-6.12,5.5-.31,2.74Z"/><path d="M285.83,378.82H189a.74.74,0,0,1-.75-.75V352.41a.74.74,0,0,1,.75-.75h96.84a.75.75,0,0,1,.75.75v25.66A.75.75,0,0,1,285.83,378.82Zm-96.09-1.5h95.34V353.16H189.74Z"/><path d="M220.38,155.49h-3.8l-2.35-5.61h-2.42v5.61h-3.54V140.64h7.07a4.62,4.62,0,0,1,4,2.31,4.5,4.5,0,0,1,.62,2.31,4.57,4.57,0,0,1-.56,2.22,4.83,4.83,0,0,1-1.54,1.67Zm-4.18-11.31a1.39,1.39,0,0,0-1-.49h-3.49v3.15h3.49a1.43,1.43,0,0,0,1-.52,1.63,1.63,0,0,0,0-2.14Z"/><path d="M231.74,152.28v3.21h-10.1V140.64h9.91v3.22h-6.11v2.6h5.15v3.21h-5.15v2.61Z"/><path d="M240.21,145.35v-.28a1.34,1.34,0,0,0-.52-1,1.91,1.91,0,0,0-1.25-.43,2,2,0,0,0-1.29.43,1.29,1.29,0,0,0-.53,1,1,1,0,0,0,.54.91,4.71,4.71,0,0,0,1.43.58l.33.07.36.08a7.45,7.45,0,0,1,3,1.24l.18.17a4.48,4.48,0,0,1,1,1.45,4.08,4.08,0,0,1,.37,1.68,4.16,4.16,0,0,1-.41,1.8,4.6,4.6,0,0,1-1.19,1.54,5.53,5.53,0,0,1-1.76,1,6,6,0,0,1-2.06.35,5.89,5.89,0,0,1-2-.35,5.7,5.7,0,0,1-1.75-1,4.77,4.77,0,0,1-1.2-1.54,4,4,0,0,1-.42-1.8V151h3.68v.28a1.33,1.33,0,0,0,.51,1,1.92,1.92,0,0,0,1.23.43,2,2,0,0,0,1.29-.43,1.3,1.3,0,0,0,.54-1,1.23,1.23,0,0,0-.57-.93,2.35,2.35,0,0,0-.59-.31,5.84,5.84,0,0,0-.82-.25l-.69-.17c-.77-.2-1.37-.37-1.8-.53a3.5,3.5,0,0,1-1.2-.71l-.09-.08a5,5,0,0,1-1.1-1.47,4,4,0,0,1-.39-1.73,4,4,0,0,1,.42-1.8,4.77,4.77,0,0,1,1.2-1.54,5.7,5.7,0,0,1,1.75-1,6.13,6.13,0,0,1,2-.35,6.23,6.23,0,0,1,2.06.35,5.53,5.53,0,0,1,1.76,1,4.6,4.6,0,0,1,1.19,1.54,4.16,4.16,0,0,1,.41,1.8v.28Z"/><path d="M257.17,140.66v9.18a5.78,5.78,0,0,1-2.93,5.07,5.7,5.7,0,0,1-3,.79H251a5.64,5.64,0,0,1-2.94-.79,5.86,5.86,0,0,1-2.92-5.07v-9.18h3.51V149a3.54,3.54,0,0,0,.63,2.16A2,2,0,0,0,251,152h.33a2.09,2.09,0,0,0,1.72-.88,3.44,3.44,0,0,0,.66-2.15v-8.34Z"/><path d="M262.63,151.92h5.84v3.57h-9.62V140.64h3.78Z"/><path d="M281.13,140.64v3.78h-3.8v11.07h-3.8V144.42h-3.8v-3.78h11.4Z"/><path d="M283.24,148.46a1.87,1.87,0,0,1-.53-1.22,1.71,1.71,0,0,1,1.7-1.75,1.68,1.68,0,0,1,1.24.51,1.75,1.75,0,0,1,0,2.46,1.71,1.71,0,0,1-1.23.5A1.57,1.57,0,0,1,283.24,148.46Zm0,6.53a1.87,1.87,0,0,1-.53-1.22,1.69,1.69,0,0,1,1.7-1.74,1.73,1.73,0,0,1,1.23,3,1.71,1.71,0,0,1-1.23.5A1.57,1.57,0,0,1,283.24,155Z"/><path d="M302.81,151.68a4.24,4.24,0,0,0,1.26-.83l2.56,2.56a7.65,7.65,0,0,1-2.42,1.63,7.42,7.42,0,0,1-2.89.58,7.31,7.31,0,0,1-3.76-1,7.45,7.45,0,0,1-2.73-2.73,7.52,7.52,0,0,1,0-7.53,7.4,7.4,0,0,1,2.73-2.74,7.5,7.5,0,0,1,6.65-.43,7.49,7.49,0,0,1,2.42,1.63l-2.56,2.56a4.24,4.24,0,0,0-1.26-.83,3.86,3.86,0,0,0-1.49-.31,3.75,3.75,0,0,0-1.94.53,4,4,0,0,0-1.4,1.42,3.8,3.8,0,0,0,0,3.87,4,4,0,0,0,1.4,1.41,3.74,3.74,0,0,0,1.94.52A3.85,3.85,0,0,0,302.81,151.68Z"/><path d="M317.29,141.26a4.83,4.83,0,0,1,1.68,1.68,4.65,4.65,0,0,1,0,4.64,4.66,4.66,0,0,1-1.68,1.68,4.46,4.46,0,0,1-2.32.62h-3.53v5.61h-3.55V140.64H315A4.55,4.55,0,0,1,317.29,141.26Zm-1.45,2.92a1.48,1.48,0,0,0-1-.49h-3.49v3.15h3.49a1.43,1.43,0,0,0,1-.52,1.6,1.6,0,0,0,.41-1.08A1.55,1.55,0,0,0,315.84,144.18Z"/><path d="M324.63,140.64v14.85h-3.79V140.64Z"/><path d="M349.15,143.67l-2.43,2.62a5.17,5.17,0,0,1,1.77,1.83,4.8,4.8,0,0,1,.66,2.46,4.92,4.92,0,0,1-.71,2.56,5.48,5.48,0,0,1-7.3,1.87,5.28,5.28,0,0,1-1.94-1.87,4.83,4.83,0,0,1-.72-2.56h3.43a1.73,1.73,0,0,0,.55,1.29,1.92,1.92,0,0,0,1.36.53,1.87,1.87,0,0,0,1.33-.53,1.74,1.74,0,0,0,.56-1.29v-.05a2.07,2.07,0,0,0-.2-.85,3.45,3.45,0,0,0-.91-1.14,6,6,0,0,0-1.37-.9v-1.79l.34-.38,1.17-1.28.49-.52H339v-2.9h10.16Z"/><path d="M361.46,152.13v3.36H350.62v-3l2.21-1.68,3.08-2.33,1.14-.87.1-.08a2,2,0,0,0,.7-1.53,1.84,1.84,0,0,0-.44-1.26,2.24,2.24,0,0,0-.63-.49,1.79,1.79,0,0,0-.76-.16,1.71,1.71,0,0,0-1.11.39,1.6,1.6,0,0,0-.57.8h-3.72a5.36,5.36,0,0,1,1-2.37,5.51,5.51,0,0,1,1.93-1.69A5.5,5.5,0,0,1,358,141a5.23,5.23,0,0,1,1.66,1l.15.12a6,6,0,0,1,.88,1.1,4.91,4.91,0,0,1,.59,2.45,6,6,0,0,1-.44,2.23,5.63,5.63,0,0,1-1.36,2,7.81,7.81,0,0,1-.66.55l-1.78,1.32-.53.4Z"/><path d="M365.38,151.27a1.55,1.55,0,0,0,.28.87,1.9,1.9,0,0,0,.71.64v-3.53a12.18,12.18,0,0,1-1.56-.46,3.37,3.37,0,0,1-1.1-.65s0,0-.07,0a4.41,4.41,0,0,1-1-1.4,4,4,0,0,1-.36-1.67,3.81,3.81,0,0,1,.53-2,4.68,4.68,0,0,1,1.48-1.56,5.55,5.55,0,0,1,2.12-.84v-1.13h2.06v1.13a5.47,5.47,0,0,1,2.13.82,4.65,4.65,0,0,1,1.5,1.56,3.78,3.78,0,0,1,.55,2h-3.13a1.57,1.57,0,0,0-.28-.9,1.88,1.88,0,0,0-.77-.65V147a15.43,15.43,0,0,1,1.52.45,3.65,3.65,0,0,1,1.1.6l.09.06v0a4.58,4.58,0,0,1,1.08,1.41,3.82,3.82,0,0,1,.39,1.7,3.78,3.78,0,0,1-.55,2,4.65,4.65,0,0,1-1.5,1.56,5.47,5.47,0,0,1-2.13.82v1.11h-2.06v-1.11a5.55,5.55,0,0,1-2.12-.84,4.68,4.68,0,0,1-1.48-1.56,3.81,3.81,0,0,1-.53-2Zm.61-5.08a2.32,2.32,0,0,0,.38.21v-2.88a2.16,2.16,0,0,0-.75.65,1.41,1.41,0,0,0-.3.86A1.29,1.29,0,0,0,366,146.19Zm3.25,6a1.47,1.47,0,0,0,.3-.89,1.23,1.23,0,0,0-.67-1.14,1.26,1.26,0,0,0-.44-.25v2.94A2.22,2.22,0,0,0,369.24,152.16Z"/><path d="M284,86l-2.43,2.62a5.17,5.17,0,0,1,1.77,1.83,4.76,4.76,0,0,1,.66,2.45,4.92,4.92,0,0,1-.71,2.57,5.48,5.48,0,0,1-7.3,1.87,5.28,5.28,0,0,1-1.94-1.87,4.84,4.84,0,0,1-.72-2.57h3.43a1.74,1.74,0,0,0,.55,1.3,1.94,1.94,0,0,0,1.36.53,1.87,1.87,0,0,0,1.33-.53,1.75,1.75,0,0,0,.56-1.3v0a2.07,2.07,0,0,0-.2-.85,3.35,3.35,0,0,0-.91-1.14,6,6,0,0,0-1.37-.9V88.17l.34-.38,1.17-1.28.49-.52h-6.24v-2.9H284Z"/><path d="M294.8,91.19a4.72,4.72,0,0,1,.41,1.94,4.57,4.57,0,0,1-.69,2.44,4.94,4.94,0,0,1-1.85,1.78,5.12,5.12,0,0,1-2.53.65,5.2,5.2,0,0,1-2.55-.65,5,5,0,0,1-1.84-1.78,4.57,4.57,0,0,1-.69-2.44,4.72,4.72,0,0,1,.41-1.94,4.94,4.94,0,0,1,1.15-1.57,3.94,3.94,0,0,1-.89-2.52,3.89,3.89,0,0,1,.6-2.1,4.3,4.3,0,0,1,1.61-1.53,4.55,4.55,0,0,1,4.41,0A4.27,4.27,0,0,1,294,85a4.11,4.11,0,0,1-.28,4.62A5,5,0,0,1,294.8,91.19Zm-3.26,3.29a1.87,1.87,0,0,0,.18-2.51,1.88,1.88,0,0,0-1-.67,1.51,1.51,0,0,0-.55-.09,1.64,1.64,0,0,0-.56.09,1.85,1.85,0,0,0-1,.67,1.87,1.87,0,0,0,.18,2.51,2,2,0,0,0,2.81,0ZM289,87.79a1.65,1.65,0,0,0,.54.51,1.77,1.77,0,0,0,.65.14,2.06,2.06,0,0,0,.66-.14,1.37,1.37,0,0,0,.73-1.2,1.26,1.26,0,0,0-.41-.94,1.47,1.47,0,0,0-2,0,1.26,1.26,0,0,0-.2,1.63Z"/><path d="M307.3,94.45v3.36H296.46v-3l2.21-1.68,3.09-2.33,1.13-.86.11-.08a2.14,2.14,0,0,0,.51-.69,2,2,0,0,0,.18-.84,1.84,1.84,0,0,0-.44-1.26,2,2,0,0,0-.63-.49,1.8,1.8,0,0,0-.76-.17,1.72,1.72,0,0,0-1.11.4,1.6,1.6,0,0,0-.57.8h-3.72a5.36,5.36,0,0,1,1-2.37,5.5,5.5,0,0,1,1.93-1.69,5.5,5.5,0,0,1,4.52-.25,5.27,5.27,0,0,1,1.67,1l.14.12a6.27,6.27,0,0,1,.89,1.09,5.08,5.08,0,0,1,.58,2.46,5.79,5.79,0,0,1-.44,2.23,5.73,5.73,0,0,1-1.36,2c-.28.25-.5.43-.65.55l-1.79,1.32-.52.4Z"/><path d="M317.34,84a6.84,6.84,0,0,1,2.22,2.73,9.05,9.05,0,0,1,0,7.53A6.87,6.87,0,0,1,317.34,97a5.16,5.16,0,0,1-6.13,0A7,7,0,0,1,309,94.21a9,9,0,0,1,0-7.53A7,7,0,0,1,311.21,84a5.16,5.16,0,0,1,6.13,0Zm-1.79,9.56a3.08,3.08,0,0,0,.93-1.29,4.7,4.7,0,0,0,.33-1.78,4.48,4.48,0,0,0-.34-1.78,3.31,3.31,0,0,0-.93-1.29,1.94,1.94,0,0,0-1.27-.48,2,2,0,0,0-1.28.48,3.31,3.31,0,0,0-.93,1.29,4.7,4.7,0,0,0,0,3.56,3.16,3.16,0,0,0,.93,1.29,1.95,1.95,0,0,0,2.56,0Z"/><path d="M219,88.52a5.25,5.25,0,0,1,1.77,1.83,5,5,0,0,1-.06,5,5.23,5.23,0,0,1-1.95,1.87,5.53,5.53,0,0,1-5.35,0,5.13,5.13,0,0,1-1.94-1.87,4.81,4.81,0,0,1-.72-2.56h3.13a2.22,2.22,0,0,0,3.78,1.46,2.09,2.09,0,0,0,.65-1.56,2.12,2.12,0,0,0-.65-1.58,2.15,2.15,0,0,0-1.57-.65H216a2.15,2.15,0,0,0-1.09.34,2,2,0,0,0-.52.44h-3.43l.13-.53L212.72,83h7.64v3.17h-5.1l-.46,1.75.27-.09a4.16,4.16,0,0,1,.59-.1,4.38,4.38,0,0,1,.82,0A5.4,5.4,0,0,1,219,88.52Z"/><path d="M233.11,91.89h2.06v3.17h-2.06v2.75h-3.4V95.06h-7.39V91.57L229.18,83h.53v0h3.4v8.93Zm-7,0h3.63V87.41Z"/><path d="M244.46,88.52a5.17,5.17,0,0,1,1.77,1.83,4.91,4.91,0,0,1-.06,5,5.13,5.13,0,0,1-1.94,1.87,5.55,5.55,0,0,1-5.36,0,5.27,5.27,0,0,1-1.94-1.87,4.89,4.89,0,0,1-.71-2.56h3.13a2.21,2.21,0,0,0,2.2,2.1,2.17,2.17,0,0,0,1.58-.64,2.13,2.13,0,0,0,.65-1.56,2.22,2.22,0,0,0-2.23-2.23h-.08a2.12,2.12,0,0,0-1.09.34,1.86,1.86,0,0,0-.53.44h-3.42l.12-.53L238.23,83h7.65v3.17h-5.11l-.46,1.75.28-.09a4,4,0,0,1,.58-.1,4.43,4.43,0,0,1,.82,0A5.36,5.36,0,0,1,244.46,88.52Z"/><path d="M351.17,83h1.72V97.81h-3.78V87.31l-2.06.65v-3.7l2.06-.65Z"/><path d="M365.41,94.45v3.36H354.57v-3l2.21-1.68,3.08-2.34,1.14-.86.1-.08a2,2,0,0,0,.7-1.53,1.8,1.8,0,0,0-.45-1.26,2,2,0,0,0-.63-.49,1.74,1.74,0,0,0-.75-.16,1.71,1.71,0,0,0-1.11.39,1.6,1.6,0,0,0-.57.8h-3.72a5.36,5.36,0,0,1,1-2.37,5.51,5.51,0,0,1,1.93-1.69A5.35,5.35,0,0,1,360,82.9a5.24,5.24,0,0,1,2,.37,5.16,5.16,0,0,1,1.67,1l.15.12a6.24,6.24,0,0,1,.88,1.09,5.08,5.08,0,0,1,.59,2.46,6,6,0,0,1-.44,2.23,5.53,5.53,0,0,1-1.37,2,8,8,0,0,1-.65.55L361,94.05l-.53.4Z"/><path d="M370.57,83h1.72V97.81h-3.77V87.31l-2.06.65v-3.7l2.06-.65Z"/><path d="M306.11,71.81c0,1.35,0,2.71,0,4.06,0,.6-.06.65-.64.54-3.17-.63-6.34-1.26-9.5-1.87a.55.55,0,0,1-.52-.65c0-2.09,0-4.19,0-6.28,0-.46.15-.58.58-.58q4.77.07,9.54.12c.45,0,.57.18.56.61,0,1.35,0,2.7,0,4Z"/><path d="M306.12,61c0,1.37,0,2.74,0,4.11,0,.41-.13.56-.55.56q-4.77,0-9.53.1c-.48,0-.61-.16-.6-.61q0-3.12,0-6.24c0-.43.15-.58.55-.66q4.78-.93,9.55-1.89c.45-.09.57,0,.57.48,0,1.38,0,2.77,0,4.15Z"/><path d="M294.11,62.25c0,1.12,0,2,0,3,0,.39-.13.52-.53.54-1.79.05-3.58.09-5.37.1-.45,0-.62-.13-.62-.6,0-1.61,0-3.21,0-4.82,0-.4.13-.55.53-.63,1.78-.33,3.55-.69,5.32-1.06.45-.09.58,0,.61.49C294.14,60.3,294.08,61.38,294.11,62.25Z"/><path d="M294,70.63c0,1,0,2,0,3,0,.39-.11.51-.51.43-1.8-.37-3.61-.73-5.41-1.06-.37-.07-.51-.22-.51-.6,0-1.62,0-3.25,0-4.87,0-.44.13-.59.58-.58,1.81,0,3.61.07,5.42.09.33,0,.5.1.5.46,0,1.05,0,2.1,0,3.14Z"/><path d="M351.67,67.14a6.15,6.15,0,0,1,1.92-4.78,4.37,4.37,0,0,1,4.54-.88,7.56,7.56,0,0,0,1.63.52,2.8,2.8,0,0,0,1.39-.3,5.38,5.38,0,0,1,3.86-.34,4.85,4.85,0,0,1,2.18,1.38c.2.23.21.36-.05.56a4.43,4.43,0,0,0,.42,7.5c.33.18.4.31.25.68a12.45,12.45,0,0,1-2.39,3.84,2.53,2.53,0,0,1-2.89.79c-.46-.16-.93-.35-1.4-.47a4,4,0,0,0-2.31.12l-1.28.42a2,2,0,0,1-2.13-.47A11.65,11.65,0,0,1,352.07,70,10.55,10.55,0,0,1,351.67,67.14Z"/><path d="M359.8,60.39a4.45,4.45,0,0,1,3.76-4.07c.17,0,.24,0,.24.2a4.3,4.3,0,0,1-3.32,4.38C359.83,61,359.78,61,359.8,60.39Z"/><path d="M237.32,73v.5a1.71,1.71,0,0,1-.72.64c-.27.13-.54.28-.81.43a9.45,9.45,0,0,0-2,1.38,1.13,1.13,0,0,1-.51.29l-.32.1h-.46a1.32,1.32,0,0,1-1-.73.32.32,0,0,0-.26-.17,10.31,10.31,0,0,0-4.32,0,.19.19,0,0,0-.16.1,1.22,1.22,0,0,1-1.31.6A8.27,8.27,0,0,1,224,75.8a8.79,8.79,0,0,0-2.07-.55,3.52,3.52,0,0,1-1.27-.34.56.56,0,0,1-.3-.75c.08-.23.14-.47.22-.7a1.72,1.72,0,0,0-.07-1,.72.72,0,0,1,.57-1l.55-.14a1.42,1.42,0,0,0,1-.79,1,1,0,0,1,.37-.43.13.13,0,0,0,.06-.17,1.44,1.44,0,0,1,.07-1.06,20,20,0,0,0,.82-2.11,6.38,6.38,0,0,1,.92-1.8c.38-.49.74-1,1.11-1.49a1.21,1.21,0,0,0,.22-.55,10.58,10.58,0,0,0,0-1.78,15.66,15.66,0,0,1-.08-2.27,2.39,2.39,0,0,1,1.73-2.33,6.11,6.11,0,0,1,.94-.22h.57l.16,0a2.71,2.71,0,0,1,1.62.81,4,4,0,0,1,1,2.08,14.31,14.31,0,0,1,.16,2.17,3.59,3.59,0,0,0,.65,2A33.21,33.21,0,0,1,235,66.59a5.37,5.37,0,0,1,.63,1.43,4.64,4.64,0,0,1-.07,2.19.27.27,0,0,0,.06.27,1.34,1.34,0,0,1,.37,1,1.17,1.17,0,0,0,.76,1.15A1.21,1.21,0,0,1,237.32,73Zm-11.12.18c.23.27.47.53.69.8a.5.5,0,0,0,.4.19,10.42,10.42,0,0,0,1.48,0,4,4,0,0,0,2.89-1.53.32.32,0,0,0,.08-.23,16.79,16.79,0,0,1,.07-1.73.43.43,0,0,1,.5-.45c.11,0,.25.08.32,0s.06-.23.09-.35a.43.43,0,0,1,0,0,5.46,5.46,0,0,0-.18-2.69,32.88,32.88,0,0,0-1.3-3.28,13.34,13.34,0,0,0-.7-1.42.19.19,0,0,0-.25-.09,2.65,2.65,0,0,0-.54.25l-1.27.7a.91.91,0,0,1-.83.09,2.5,2.5,0,0,1-.39-.23,5.77,5.77,0,0,1-.7-.63,1.48,1.48,0,0,1,0,.41,2.74,2.74,0,0,1-.52,1.39,5.58,5.58,0,0,0-.7,1.43,7.6,7.6,0,0,1-.59,1.45,4.08,4.08,0,0,0-.52,2.11,1.58,1.58,0,0,0,.51,1.24l.38.35c.39.33.81.61,1.18,1a2,2,0,0,1,.28.3.63.63,0,0,1-.28,1Zm.13,1.44a1.56,1.56,0,0,0-.38-.85c-.15-.19-.31-.37-.44-.56-.41-.58-.75-1.2-1.12-1.8a2.74,2.74,0,0,0-.75-.84c-.27-.17-.42-.13-.58.14l-.29.52a.76.76,0,0,1-.5.41c-.29.07-.57.13-.85.22s-.41.21-.33.55a2.29,2.29,0,0,1-.1,1.37,1.37,1.37,0,0,0-.07.34.28.28,0,0,0,.23.35,5.16,5.16,0,0,0,.78.17,6.75,6.75,0,0,1,1.92.52,6.7,6.7,0,0,0,1.31.43.81.81,0,0,0,.91-.31A1.06,1.06,0,0,0,226.33,74.66Zm7.4-2.54a.79.79,0,0,1-.92-.68,1.38,1.38,0,0,1-.05-.45q0-.13-.12-.12c-.17,0-.25.07-.24.28s0,.71,0,1.07a10,10,0,0,1-.29,2,1.57,1.57,0,0,0,.05.91.72.72,0,0,0,1.08.45,2.61,2.61,0,0,0,.72-.51,4.86,4.86,0,0,1,1.29-.91c.41-.22.85-.41,1.24-.67.2-.14.2-.27,0-.42a2.41,2.41,0,0,0-.48-.3,1.05,1.05,0,0,1-.54-.63,1.6,1.6,0,0,1-.1-.61.52.52,0,0,0-.09-.34c-.09-.14-.12-.14-.19,0A1.62,1.62,0,0,1,233.73,72.12ZM228.07,63a.75.75,0,0,0,.4-.12c.45-.22.87-.5,1.31-.74L230,62a.19.19,0,0,0,0-.3.84.84,0,0,0-.29-.2c-.43-.17-.86-.35-1.3-.49a.53.53,0,0,0-.44,0,8.2,8.2,0,0,0-1.1.84.15.15,0,0,0,0,.2,1.1,1.1,0,0,0,.14.21,3.47,3.47,0,0,0,.85.63A.32.32,0,0,0,228.07,63Zm1.75-1.93c.23.13.24.13.41,0a1.36,1.36,0,0,0,.05-1.76.83.83,0,0,0-1.28,0,1.26,1.26,0,0,0-.33,1.08c0,.35.14.45.5.48a.89.89,0,0,1,0-.58.54.54,0,0,1,.46-.41.48.48,0,0,1,.47.39A.76.76,0,0,1,229.82,61.06Zm-2.38-.23a2,2,0,0,1,.36-.24c.06,0,.07-.06.08-.12a1.38,1.38,0,0,0-.28-1.11.57.57,0,0,0-.93,0,1.26,1.26,0,0,0-.29,1,1.17,1.17,0,0,0,.4.92c.05,0,.1.1.17,0l.23-.2c-.43,0-.58-.61-.49-.93a.37.37,0,0,1,.29-.32.38.38,0,0,1,.38.23A.88.88,0,0,1,227.44,60.83Z"/></svg>