<svg id="Слой_1" data-name="Слой 1" xmlns="http://www.w3.org/2000/svg" viewBox="0 0 405 405"><defs><style>.cls-1{fill:#38db7f;}.cls-2{fill:#fff;}.cls-3{fill:#e7335d;}.cls-4{fill:#fed841;}</style></defs><rect width="405" height="405"/><path class="cls-1" d="M160,141.27c0-.65-.14-.93-.87-.93-5.14,0-10.28,0-15.42,0-.58,0-.8.16-.79.77,0,1.53,0,3.07,0,4.61,0,.74.3.89.94.87,1,0,2,0,3,0,1.47,0,1.47,0,1.47,1.51,0,6.64,0,13.29,0,19.93,0,.91.23,1.25,1.18,1.2,1.36-.07,2.73-.06,4.09,0,.82,0,1-.26,1-1,0-3.39,0-6.79,0-10.18s0-6.85,0-10.28c0-.94.29-1.23,1.2-1.18,1.08.07,2.17,0,3.25,0,.81.05,1-.27,1-1C160,144.14,160,142.7,160,141.27Z"/><path class="cls-2" d="M146.7,114.85a6.66,6.66,0,0,0-1.11-6.76c-1.76-1.87-3.55-3.72-5.35-5.55Q130.65,92.76,121.06,83c-1.25-1.27-1.26-1.27,0-2.51L135.3,65.91c3.41-3.49,6.86-6.95,10.2-10.5a6,6,0,0,0,1.16-6.81,5.86,5.86,0,0,0-5-3.91,6.26,6.26,0,0,0-5,1.78L123.49,59.84q-10.3,10.53-20.64,21c-.66.67-.64,1,0,1.71,4.1,4.15,8.13,8.35,12.21,12.51q10.83,11,21.7,22a5.49,5.49,0,0,0,3.84,1.65A6.24,6.24,0,0,0,146.7,114.85Z"/><path class="cls-1" d="M125.91,140.35c-1.47,0-2.94.06-4.4,0-.91-.05-1.1.26-1.1,1.12,0,5.84,0,11.68,0,17.53a3.71,3.71,0,0,1-3.38,4,3.62,3.62,0,0,1-3.3-3.92c.14-2.86,0-5.73,0-8.6s0-6,0-9c0-.9-.27-1.13-1.13-1.08-1.22.07-2.44,0-3.67,0-1.49,0-1.49,0-1.49,1.44v16.59a11.79,11.79,0,0,0,1.31,5.73,9.28,9.28,0,0,0,11,4.59,9.5,9.5,0,0,0,6.72-9.08c.24-6.18.06-12.38.08-18.57C126.66,140.49,126.44,140.34,125.91,140.35Z"/><path class="cls-1" d="M260.92,160.15c0-6.23,0-12.46,0-18.7,0-.86-.21-1.16-1.1-1.11-1.37.07-2.74.06-4.1,0-.8,0-1.07.18-1.06,1,0,4.45,0,8.89,0,13.34s0,9,0,13.45c0,.79.16,1.12,1,1.07,1.36-.07,2.73-.06,4.1,0,.85,0,1.16-.2,1.14-1.1C260.88,165.47,260.92,162.81,260.92,160.15Z"/><path class="cls-2" d="M290.33,68.78q-11-11.22-22-22.4a5.76,5.76,0,0,0-4.13-1.71,6.41,6.41,0,0,0-4.62,10.81c1.67,1.8,3.39,3.56,5.11,5.32q9.88,10.07,19.8,20.12c.56.56.64,1,0,1.58-2.13,2.1-4.2,4.27-6.29,6.41q-9.29,9.48-18.56,19a6.4,6.4,0,0,0-1.2,7.25,6.11,6.11,0,0,0,10.1,1.74c4.58-4.64,9.1-9.35,13.66-14q9.94-10.16,19.94-20.28c.66-.66.68-1,0-1.66C298.2,76.88,294.29,72.81,290.33,68.78Z"/><path class="cls-1" d="M190.57,140.36c-8,.33-14.27,6.38-14.22,14.43a14.34,14.34,0,1,0,28.67,0C205,146.51,198.6,140.58,190.57,140.36Zm.08,22.25c-4,0-8.05-3.54-7.73-7.9-.31-3.74,3.35-7.88,7.85-7.75a7.83,7.83,0,0,1-.12,15.65Z"/><path class="cls-1" d="M296.39,159.14c0-2.87,0-5.74,0-8.61a11,11,0,0,0-1.08-4.64c-2.12-4.48-7.57-6.82-12.11-4.69a9.74,9.74,0,0,0-5.87,9.14c-.17,6,0,12-.06,18,0,.65.19.95.9.93,1.51,0,3,0,4.52,0,.71,0,.9-.26.87-.92,0-1.23,0-2.45,0-3.68,0-.64.21-.86.85-.85,1.65,0,3.29,0,4.94,0,.63,0,.87.24.86.87,0,1.22,0,2.45,0,3.67,0,.68.18.93.88.91q2.2-.07,4.41,0c.74,0,1-.22.95-.95C296.37,165.24,296.39,162.19,296.39,159.14Zm-6.22-5.77c0,1.12,0,2.24,0,3.36,0,.64-.24.86-.86.85-1.64,0-3.29,0-4.93,0-.63,0-.86-.21-.85-.85,0-2.16,0-4.33,0-6.5a3.26,3.26,0,0,1,6.23-1.39c.63,1.13.29,2.32.38,3.48C290.19,152.67,290.17,153,290.17,153.37Z"/><path class="cls-1" d="M238.14,146.94c-1.1-4-4-6.58-8.12-6.58-2.48,0-5,0-7.45,0-.95,0-1.17.29-1.16,1.19,0,4.4,0,8.81,0,13.22s0,8.89,0,13.33c0,.93.28,1.21,1.2,1.16,1.36-.07,2.73-.06,4.09,0,.78,0,1-.2,1-1,0-3.15,0-6.3,0-9.45,0-1.45,0-1.45,1.5-1.45a12.11,12.11,0,0,0,4.21-.54C236.7,155.6,239.06,150.31,238.14,146.94ZM232.66,151a2.53,2.53,0,0,1-2.41,1.14c-2.57,0-2.57,0-2.57-2.54v-.83c0-.77,0-1.54,0-2.3s.18-1,.93-1,1.26,0,1.88,0a2.47,2.47,0,0,1,2.44,1.62A4.06,4.06,0,0,1,232.66,151Z"/><path class="cls-2" d="M235.63,57.8c-.38-.52-.22-.76.13-1.12q3.51-3.6,7-7.23a6.21,6.21,0,0,0,1.85-6.08,6.09,6.09,0,0,0-5.25-4.95,5.62,5.62,0,0,0-5.11,1.79c-2.36,2.37-4.72,4.75-7,7.18a1.27,1.27,0,0,1-2,.21,38.66,38.66,0,0,0-17.85-6.77A41.55,41.55,0,0,0,191,42.1a41,41,0,0,0-26.41,23.17,41.67,41.67,0,0,0-3.31,13.2,39.83,39.83,0,0,0,1.28,13.6A40.77,40.77,0,0,0,169,105.7c.47.64.36,1-.15,1.48-2.3,2.33-4.6,4.67-6.83,7.07A6.41,6.41,0,0,0,165.41,125a5.66,5.66,0,0,0,5.41-1.78c2.36-2.42,4.74-4.82,7.1-7.24.51-.52.85-.6,1.57-.14a42.54,42.54,0,0,0,23.87,6.85A41.3,41.3,0,0,0,233.63,108a39.93,39.93,0,0,0,9.09-19.7,41.27,41.27,0,0,0-7.09-30.52ZM177.77,95.18a28,28,0,0,1-3.06-8.47,29.42,29.42,0,0,1-.23-8.88,25.17,25.17,0,0,1,3-9.36A27.9,27.9,0,0,1,216,57.22c.84.47.84.79.2,1.44-4.45,4.52-8.86,9.07-13.28,13.62q-11.27,11.58-22.52,23.15C178.7,97.16,179,97.3,177.77,95.18Zm51.84-8a27.53,27.53,0,0,1-15.2,19.58,25.29,25.29,0,0,1-12.27,2.76A27.19,27.19,0,0,1,189,106.25c-.75-.38-.87-.75-.24-1.38,2.28-2.29,4.54-4.61,6.8-6.92l28.17-28.9c.54-.55,1-1.13,1.57-1.69s.72-.47,1.1.16a27.51,27.51,0,0,1,3.46,9.54A25.59,25.59,0,0,1,229.61,87.15Z"/><rect class="cls-1" x="195.92" y="23.76" width="13.11" height="116" rx="6.55" transform="translate(114.88 -118.26) rotate(44.36)"/><path class="cls-3" d="M39.08,202.25v5.25a3.25,3.25,0,0,1-.45,1.68,3.4,3.4,0,0,1-1.22,1.22,3.32,3.32,0,0,1-1.69.45h-.19a3.25,3.25,0,0,1-1.68-.45,3.4,3.4,0,0,1-1.22-1.22,3.25,3.25,0,0,1-.45-1.68v-5.25h2V207a2,2,0,0,0,.36,1.23,1.16,1.16,0,0,0,1,.5h.19a1.18,1.18,0,0,0,1-.5,2,2,0,0,0,.38-1.23v-4.77Z"/><path class="cls-3" d="M46.44,202.24v2.16H44.26v6.33H42.09V204.4H39.92v-2.16h6.52Z"/><path class="cls-3" d="M53.48,202.82A4.17,4.17,0,0,1,55,204.38a4.29,4.29,0,0,1,0,4.31,4.32,4.32,0,0,1-1.56,1.56,4.34,4.34,0,0,1-4.3,0,4.43,4.43,0,0,1-1.57-1.56,4.29,4.29,0,0,1,5.87-5.87Zm-1,5.63a2.3,2.3,0,0,0,.8-.81,2.09,2.09,0,0,0,.3-1.1,2.15,2.15,0,0,0-.3-1.11,2.3,2.3,0,0,0-.8-.81,2.2,2.2,0,0,0-2.22,0,2.25,2.25,0,0,0-.81.81,2.15,2.15,0,0,0-.3,1.11,2.09,2.09,0,0,0,.3,1.1,2.25,2.25,0,0,0,.81.81,2.2,2.2,0,0,0,2.22,0Z"/><path class="cls-3" d="M61.71,202.6A2.62,2.62,0,0,1,63,204.88a2.67,2.67,0,0,1-.35,1.33,2.76,2.76,0,0,1-1,1,2.57,2.57,0,0,1-1.33.35h-2v3.21h-2v-8.49h4A2.58,2.58,0,0,1,61.71,202.6Zm-.83,1.67a.83.83,0,0,0-.57-.29h-2v1.8h2a.8.8,0,0,0,.57-.29,1,1,0,0,0,.23-.62A.88.88,0,0,0,60.88,204.27Z"/><path class="cls-3" d="M65.9,202.24v8.49H63.74v-8.49Z"/><path class="cls-3" d="M71.28,202.33l2.77,8.4H72L71.41,209H68.78l-.54,1.72h-2.1l2.78-8.4Zm-1.94,4.93h1.52l-.76-2.38Z"/><path class="cls-3" d="M80.05,202.24v8.49H77.89v-8.49Z"/><path class="cls-3" d="M84.88,204.93v-.15a.74.74,0,0,0-.29-.6,1.09,1.09,0,0,0-.71-.24,1.15,1.15,0,0,0-.74.24.74.74,0,0,0-.31.6.55.55,0,0,0,.31.51,2.63,2.63,0,0,0,.82.34l.19,0,.21.05a4.25,4.25,0,0,1,1.71.71l.11.1a2.52,2.52,0,0,1,.57.82,2.38,2.38,0,0,1,.21,1,2.42,2.42,0,0,1-.23,1,2.74,2.74,0,0,1-.68.88,3.14,3.14,0,0,1-1,.57,3.55,3.55,0,0,1-2.35,0,3.21,3.21,0,0,1-1-.57,2.74,2.74,0,0,1-.68-.88,2.29,2.29,0,0,1-.24-1v-.15h2.1v.15a.77.77,0,0,0,.29.6,1.08,1.08,0,0,0,.7.24,1.15,1.15,0,0,0,.74-.24.74.74,0,0,0,.31-.6.67.67,0,0,0-.33-.52.88.88,0,0,0-.33-.18l-.47-.15-.4-.09c-.44-.12-.78-.22-1-.31a2,2,0,0,1-.68-.4l0-.05a2.81,2.81,0,0,1-.63-.84,2.23,2.23,0,0,1-.22-1,2.37,2.37,0,0,1,.24-1,2.82,2.82,0,0,1,.68-.87,3.21,3.21,0,0,1,1-.57,3.55,3.55,0,0,1,2.35,0,3.14,3.14,0,0,1,1,.57,2.82,2.82,0,0,1,.68.87,2.5,2.5,0,0,1,.23,1v.15Z"/><path class="cls-3" d="M95.7,202.33l2.77,8.4H96.38L95.83,209H93.2l-.54,1.72h-2.1l2.78-8.4Zm-1.94,4.93h1.52l-.76-2.38Z"/><path class="cls-3" d="M100.87,208.69h3.33v2H98.71v-8.49h2.16Z"/><path class="cls-3" d="M107.2,208.69h3.34v2H105v-8.49h2.16Z"/><path class="cls-3" d="M111.26,205.66h3.87v1.71h-3.87Z"/><path class="cls-3" d="M118.13,202.24v8.49H116v-8.49Z"/><path class="cls-3" d="M123.76,202.24h2.16v8.49h-2.16l-2.49-4.55v4.55h-2.18v-8.49h2.18l2.49,4.55Z"/><path class="cls-3" d="M126.76,205.66h3.88v1.71h-3.88Z"/><path class="cls-3" d="M137.68,202.82a4.29,4.29,0,0,1,1.56,5.87,4.32,4.32,0,0,1-1.56,1.56,4.18,4.18,0,0,1-2.14.57,4.25,4.25,0,0,1-2.16-.57,4.43,4.43,0,0,1-1.57-1.56,4.3,4.3,0,0,1,3.73-6.45A4.19,4.19,0,0,1,137.68,202.82Zm-1,5.63a2.3,2.3,0,0,0,.8-.81,2.09,2.09,0,0,0,.3-1.1,2.15,2.15,0,0,0-.3-1.11,2.3,2.3,0,0,0-.8-.81,2.23,2.23,0,0,0-3.33,1.92,2.1,2.1,0,0,0,.31,1.1,2.2,2.2,0,0,0,3,.81Z"/><path class="cls-3" d="M145.21,202.24h2.16v8.49h-2.16l-2.5-4.55v4.55h-2.17v-8.49h2.17l2.5,4.55Z"/><path class="cls-3" d="M154.1,208.89v1.84h-5.77v-8.49H154v1.84H150.5v1.49h2.94v1.83H150.5v1.49Z"/><path class="cls-3" d="M164.43,208.89v1.84h-5.77v-8.49h5.66v1.84h-3.49v1.49h2.94v1.83h-2.94v1.49Z"/><path class="cls-3" d="M170.29,208.55a2.49,2.49,0,0,0,.72-.47l1.46,1.46a4.31,4.31,0,0,1-1.38.93,4.2,4.2,0,0,1-1.66.33,4.09,4.09,0,0,1-2.14-.58,4.17,4.17,0,0,1-1.56-1.56,4.09,4.09,0,0,1-.58-2.14,4.17,4.17,0,0,1,.58-2.16,4.27,4.27,0,0,1,1.56-1.57,4.32,4.32,0,0,1,3.8-.24,4.31,4.31,0,0,1,1.38.93L171,204.94a2.3,2.3,0,0,0-.72-.47,2.14,2.14,0,0,0-.86-.18,2,2,0,0,0-1.1.31,2.08,2.08,0,0,0-.8.81,2.15,2.15,0,0,0-.3,1.11,2.12,2.12,0,0,0,.3,1.1,2.19,2.19,0,0,0,.8.8,2.21,2.21,0,0,0,2,.13Z"/><path class="cls-3" d="M179.39,202.82a4.29,4.29,0,0,1,1.56,5.87,4.32,4.32,0,0,1-1.56,1.56,4.18,4.18,0,0,1-2.14.57,4.25,4.25,0,0,1-2.16-.57,4.32,4.32,0,0,1-1.56-1.56,4.29,4.29,0,0,1,1.56-5.87,4.26,4.26,0,0,1,2.16-.58A4.19,4.19,0,0,1,179.39,202.82Zm-1,5.63a2.22,2.22,0,0,0,.8-.81,2.09,2.09,0,0,0,.3-1.1,2.15,2.15,0,0,0-.3-1.11,2.22,2.22,0,0,0-.8-.81,2.12,2.12,0,0,0-1.1-.3,2.15,2.15,0,0,0-1.11.3,2.25,2.25,0,0,0-.81.81,2.15,2.15,0,0,0-.3,1.11,2.09,2.09,0,0,0,.3,1.1,2.25,2.25,0,0,0,.81.81,2.15,2.15,0,0,0,1.11.3A2.12,2.12,0,0,0,178.35,208.45Z"/><path class="cls-3" d="M186.13,204.93v-.15a.75.75,0,0,0-.3-.6,1.07,1.07,0,0,0-.71-.24,1.15,1.15,0,0,0-.74.24.76.76,0,0,0-.31.6.55.55,0,0,0,.32.51,2.56,2.56,0,0,0,.81.34l.19,0,.21.05a4.19,4.19,0,0,1,1.71.71l.11.1a2.52,2.52,0,0,1,.57.82,2.38,2.38,0,0,1,.21,1,2.42,2.42,0,0,1-.23,1,2.61,2.61,0,0,1-.68.88,3.14,3.14,0,0,1-1,.57,3.55,3.55,0,0,1-1.17.2,3.51,3.51,0,0,1-1.17-.2,3.14,3.14,0,0,1-1-.57,2.74,2.74,0,0,1-.68-.88,2.29,2.29,0,0,1-.24-1v-.15h2.1v.15a.77.77,0,0,0,.29.6,1.09,1.09,0,0,0,.71.24,1.14,1.14,0,0,0,.73-.24.74.74,0,0,0,.31-.6.68.68,0,0,0-.32-.52,1,1,0,0,0-.34-.18,4.42,4.42,0,0,0-.47-.15l-.39-.09c-.44-.12-.79-.22-1-.31a2.06,2.06,0,0,1-.68-.4l0-.05a2.81,2.81,0,0,1-.63-.84,2.23,2.23,0,0,1-.22-1,2.37,2.37,0,0,1,.24-1,2.82,2.82,0,0,1,.68-.87,3.14,3.14,0,0,1,1-.57,3.51,3.51,0,0,1,1.17-.2,3.55,3.55,0,0,1,1.17.2,3.14,3.14,0,0,1,1,.57,2.68,2.68,0,0,1,.68.87,2.5,2.5,0,0,1,.23,1v.15Z"/><path class="cls-3" d="M193.43,202.24h2.16l-2.49,5v3.46h-2.16v-3.46l-2.5-5h2.16l1.42,2.89Z"/><path class="cls-3" d="M200,204.93v-.15a.77.77,0,0,0-.29-.6,1.12,1.12,0,0,0-.72-.24,1.17,1.17,0,0,0-.74.24.75.75,0,0,0-.3.6.54.54,0,0,0,.31.51,2.53,2.53,0,0,0,.82.34l.18,0,.21.05a4.25,4.25,0,0,1,1.72.71l.11.1a2.52,2.52,0,0,1,.57.82,2.38,2.38,0,0,1,.21,1,2.29,2.29,0,0,1-.24,1,2.49,2.49,0,0,1-.68.88,3.1,3.1,0,0,1-1,.57,3.61,3.61,0,0,1-1.18.2,3.51,3.51,0,0,1-1.17-.2,3.1,3.1,0,0,1-1-.57,2.64,2.64,0,0,1-.69-.88,2.29,2.29,0,0,1-.24-1v-.15h2.1v.15a.75.75,0,0,0,.3.6,1.06,1.06,0,0,0,.7.24,1.17,1.17,0,0,0,.74-.24.75.75,0,0,0,.3-.6.66.66,0,0,0-.32-.52,1,1,0,0,0-.34-.18,4.17,4.17,0,0,0-.46-.15l-.4-.09c-.44-.12-.78-.22-1-.31a2,2,0,0,1-.69-.4l0-.05a2.51,2.51,0,0,1-.63-.84,2.24,2.24,0,0,1-.23-1,2.37,2.37,0,0,1,.24-1,2.71,2.71,0,0,1,.69-.87,3.1,3.1,0,0,1,1-.57,3.51,3.51,0,0,1,1.17-.2,3.61,3.61,0,0,1,1.18.2,3.1,3.1,0,0,1,1,.57,2.55,2.55,0,0,1,.68.87,2.37,2.37,0,0,1,.24,1v.15Z"/><path class="cls-3" d="M209.14,202.24v2.16H207v6.33H204.8V204.4h-2.17v-2.16h6.51Z"/><path class="cls-3" d="M215.75,208.89v1.84H210v-8.49h5.67v1.84h-3.5v1.49h2.94v1.83h-2.94v1.49Z"/><path class="cls-3" d="M223.25,202.24h2.16v8.49h-2.16v-4.79l-1.05,1.92,0,.1H220l-.06-.1-.14-.28-.9-1.64v4.79h-2.18v-8.49h2.18l2.18,3.62Z"/><path class="cls-3" d="M236.8,202.24h1.87v8.49h-2.16l-2.18-3.61-2.2,3.61H230v-8.49h2.16V207l1.06-1.92.06-.09h2.16l.05.09,1,1.92v-4.79Z"/><path class="cls-3" d="M241.79,202.24v8.49h-2.16v-8.49Z"/><path class="cls-3" d="M249.15,202.24v2.16H247v6.33h-2.17V204.4h-2.18v-2.16h6.52Z"/><path class="cls-3" d="M254.57,202.24h2.16v8.49h-2.16v-3.17h-2.42v3.17H250v-8.49h2.16v3.16h2.42Z"/><path class="cls-3" d="M267.5,202.82a4.32,4.32,0,0,1,1.56,1.56,4.36,4.36,0,0,1,0,4.31,4.48,4.48,0,0,1-1.56,1.56,4.34,4.34,0,0,1-4.3,0,4.35,4.35,0,0,1-1.57-1.56,4.29,4.29,0,0,1,0-4.31,4.29,4.29,0,0,1,5.87-1.56Zm-1.05,5.63a2.25,2.25,0,0,0,.81-.81,2.09,2.09,0,0,0,.3-1.1,2.15,2.15,0,0,0-.3-1.11,2.25,2.25,0,0,0-.81-.81,2.09,2.09,0,0,0-1.1-.3,2.15,2.15,0,0,0-1.11.3,2.25,2.25,0,0,0-.81.81,2.15,2.15,0,0,0-.3,1.11,2.09,2.09,0,0,0,.3,1.1,2.25,2.25,0,0,0,.81.81,2.15,2.15,0,0,0,1.11.3A2.09,2.09,0,0,0,266.45,208.45Z"/><path class="cls-3" d="M277.18,202.24h1.87v8.49h-2.16l-2.18-3.61-2.2,3.61h-2.16v-8.49h2.16V207l1.06-1.92.06-.09h2.16l0,.09,1.05,1.92v-4.79Z"/><path class="cls-3" d="M284.68,202.24h2.16v8.49h-2.16l-2.5-4.55v4.55H280v-8.49h2.17l2.5,4.55Z"/><path class="cls-3" d="M297.8,202.24v2.16h-2.17v6.33h-2.18V204.4h-2.17v-2.16h6.52Z"/><path class="cls-3" d="M304.84,202.82a4.17,4.17,0,0,1,1.56,1.56,4.29,4.29,0,0,1,0,4.31,4.32,4.32,0,0,1-1.56,1.56,4.34,4.34,0,0,1-4.3,0,4.43,4.43,0,0,1-1.57-1.56,4.29,4.29,0,0,1,5.87-5.87Zm-1,5.63a2.3,2.3,0,0,0,.8-.81,2.09,2.09,0,0,0,.3-1.1,2.15,2.15,0,0,0-.3-1.11,2.3,2.3,0,0,0-.8-.81,2.2,2.2,0,0,0-2.22,0,2.25,2.25,0,0,0-.81.81,2.15,2.15,0,0,0-.3,1.11,2.09,2.09,0,0,0,.3,1.1,2.25,2.25,0,0,0,.81.81,2.2,2.2,0,0,0,2.22,0Z"/><path class="cls-3" d="M311.81,206.44l2.53,4.29h-2.4l-2.08-3.42v3.42H307.7v-8.49h2.16v3.31l2.08-3.31h2.4Z"/><path class="cls-3" d="M321.08,208.89v1.84H315.3v-8.49H321v1.84h-3.49v1.49h2.94v1.83h-2.94v1.49Z"/><path class="cls-3" d="M326.7,202.24h2.16v8.49H326.7l-2.49-4.55v4.55H322v-8.49h2.17l2.49,4.55Z"/><path class="cls-3" d="M37.08,223a2.52,2.52,0,0,0,.72-.48l1.46,1.47a4.31,4.31,0,0,1-1.38.93,4.2,4.2,0,0,1-1.66.33,4.09,4.09,0,0,1-2.14-.58,4.17,4.17,0,0,1-1.56-1.56,4.09,4.09,0,0,1-.58-2.14,4.3,4.3,0,0,1,2.14-3.72,4.09,4.09,0,0,1,2.14-.58,4.2,4.2,0,0,1,1.66.33,4.31,4.31,0,0,1,1.38.93l-1.46,1.46a2.3,2.3,0,0,0-.72-.47,2.13,2.13,0,0,0-.86-.17,2,2,0,0,0-1.1.3,2.21,2.21,0,0,0-1.1,1.92,2.14,2.14,0,0,0,.3,1.1,2.19,2.19,0,0,0,.8.8,2.12,2.12,0,0,0,1.1.3A2.31,2.31,0,0,0,37.08,223Z"/><path class="cls-3" d="M46.9,225.13H44.73l-1.34-3.21H42v3.21H40v-8.49h4a2.52,2.52,0,0,1,1.32.36,2.6,2.6,0,0,1,1.32,2.28,2.52,2.52,0,0,1-.32,1.27,2.76,2.76,0,0,1-.88.95Zm-2.38-6.46a.81.81,0,0,0-.57-.29H42v1.8h2a.86.86,0,0,0,.57-.29.91.91,0,0,0,.22-.62A.87.87,0,0,0,44.52,218.67Z"/><path class="cls-3" d="M52.14,216.64H54.3l-2.5,5v3.46H49.64v-3.46l-2.5-5H49.3l1.42,2.9Z"/><path class="cls-3" d="M60.15,217a2.62,2.62,0,0,1,1.31,2.28,2.64,2.64,0,0,1-.35,1.33,2.76,2.76,0,0,1-1,1,2.67,2.67,0,0,1-1.33.35h-2v3.21h-2v-8.49h4A2.58,2.58,0,0,1,60.15,217Zm-.83,1.67a.83.83,0,0,0-.57-.29h-2v1.8h2a.8.8,0,0,0,.57-.29,1,1,0,0,0,.23-.62A.88.88,0,0,0,59.32,218.67Z"/><path class="cls-3" d="M68.58,216.64v2.16H66.4v6.33H64.23V218.8H62.06v-2.16h6.52Z"/><path class="cls-3" d="M75.62,217.22a4.33,4.33,0,0,1,2.14,3.72,4.25,4.25,0,0,1-.58,2.15,4.32,4.32,0,0,1-1.56,1.56,4.34,4.34,0,0,1-4.3,0,4.43,4.43,0,0,1-1.57-1.56,4.34,4.34,0,0,1,0-4.3,4.3,4.3,0,0,1,1.57-1.57,4.27,4.27,0,0,1,4.3,0Zm-1,5.63a2.3,2.3,0,0,0,.8-.81,2.09,2.09,0,0,0,.3-1.1,2.15,2.15,0,0,0-.3-1.11,2.3,2.3,0,0,0-.8-.81,2.2,2.2,0,0,0-2.22,0,2.25,2.25,0,0,0-.81.81,2.15,2.15,0,0,0-.3,1.11,2.09,2.09,0,0,0,.3,1.1,2.25,2.25,0,0,0,.81.81,2.2,2.2,0,0,0,2.22,0Z"/><path class="cls-3" d="M83.14,216.64H85.3v8.49H83.14l-2.49-4.55v4.55H78.48v-8.49h2.17l2.49,4.55Z"/><path class="cls-3" d="M86.35,224.78A1.16,1.16,0,0,1,86,224a1.07,1.07,0,0,1,.33-.78,1.12,1.12,0,0,1,.79-.32A1.14,1.14,0,0,1,88.28,224a1.16,1.16,0,0,1-1.14,1.14A1,1,0,0,1,86.35,224.78Z"/><path class="cls-2" d="M43.73,242.42v3.78h-3.8v11.07h-3.8V246.2h-3.8v-3.78h11.4Z"/><path class="cls-2" d="M52.93,242.57l4.85,14.7H54.13l-1-3h-4.6l-.94,3H43.94l4.88-14.7Zm-3.38,8.63H52.2L50.87,247Z"/><path class="cls-2" d="M65,247.12v-.27a1.33,1.33,0,0,0-.52-1,1.86,1.86,0,0,0-1.25-.43,2,2,0,0,0-1.29.43,1.29,1.29,0,0,0-.54,1,1,1,0,0,0,.55.9,4.46,4.46,0,0,0,1.43.59l.32.06.37.09a7.19,7.19,0,0,1,3,1.24l.19.17a4.33,4.33,0,0,1,1,1.44,4.08,4.08,0,0,1,.37,1.68,4.2,4.2,0,0,1-.41,1.81A4.57,4.57,0,0,1,67,256.36a5.47,5.47,0,0,1-1.76,1,6.23,6.23,0,0,1-2.06.35,6.13,6.13,0,0,1-2.05-.35,5.53,5.53,0,0,1-1.75-1,4.73,4.73,0,0,1-1.2-1.53,4.07,4.07,0,0,1-.42-1.81v-.27h3.68V253a1.3,1.3,0,0,0,.51,1,1.83,1.83,0,0,0,1.23.43,2,2,0,0,0,1.29-.43,1.28,1.28,0,0,0,.54-1,1.2,1.2,0,0,0-.57-.92,2.06,2.06,0,0,0-.59-.31,7.36,7.36,0,0,0-.82-.26l-.69-.16c-.77-.2-1.37-.38-1.81-.53a3.55,3.55,0,0,1-1.19-.71l-.09-.09a4.73,4.73,0,0,1-1.1-1.47,3.94,3.94,0,0,1-.39-1.72A4.1,4.1,0,0,1,58.2,245a4.84,4.84,0,0,1,1.2-1.53,5.94,5.94,0,0,1,1.75-1,6.12,6.12,0,0,1,2.05-.34,6.23,6.23,0,0,1,2.06.34,5.87,5.87,0,0,1,1.76,1A4.67,4.67,0,0,1,68.21,245a4.24,4.24,0,0,1,.41,1.81v.27Z"/><path class="cls-2" d="M77.08,249.77l4.43,7.5h-4.2l-3.65-6v6H69.88V242.42h3.78v5.8l3.65-5.8h4.2Z"/><path class="cls-2" d="M90,247.12v-.27a1.32,1.32,0,0,0-.51-1,1.86,1.86,0,0,0-1.25-.43,2,2,0,0,0-1.29.43,1.29,1.29,0,0,0-.54,1,1,1,0,0,0,.55.9,4.46,4.46,0,0,0,1.43.59l.32.06.37.09a7.19,7.19,0,0,1,3,1.24l.19.17a4.33,4.33,0,0,1,1,1.44,4.08,4.08,0,0,1,.37,1.68,4.2,4.2,0,0,1-.41,1.81A4.57,4.57,0,0,1,92,256.36a5.47,5.47,0,0,1-1.76,1,6.23,6.23,0,0,1-2.06.35,6.13,6.13,0,0,1-2-.35,5.53,5.53,0,0,1-1.75-1,4.73,4.73,0,0,1-1.2-1.53,4.07,4.07,0,0,1-.42-1.81v-.27h3.68V253a1.3,1.3,0,0,0,.51,1,1.83,1.83,0,0,0,1.23.43,2,2,0,0,0,1.29-.43,1.28,1.28,0,0,0,.54-1,1.2,1.2,0,0,0-.57-.92,2.06,2.06,0,0,0-.59-.31,8.11,8.11,0,0,0-.82-.26l-.69-.16c-.77-.2-1.37-.38-1.81-.53a3.55,3.55,0,0,1-1.19-.71l-.09-.09a4.73,4.73,0,0,1-1.1-1.47,3.94,3.94,0,0,1-.39-1.72,4.1,4.1,0,0,1,.42-1.81,4.84,4.84,0,0,1,1.2-1.53,5.94,5.94,0,0,1,1.75-1,6.12,6.12,0,0,1,2-.34,6.23,6.23,0,0,1,2.06.34,5.87,5.87,0,0,1,1.76,1A4.67,4.67,0,0,1,93.2,245a4.24,4.24,0,0,1,.41,1.81v.27Z"/><path class="cls-2" d="M95.5,250.23A1.87,1.87,0,0,1,95,249a1.72,1.72,0,0,1,1.7-1.74A1.72,1.72,0,0,1,98.42,249a1.61,1.61,0,0,1-.52,1.22,1.68,1.68,0,0,1-1.23.51A1.55,1.55,0,0,1,95.5,250.23Zm0,6.53a1.87,1.87,0,0,1-.53-1.22,1.72,1.72,0,0,1,1.7-1.74,1.67,1.67,0,0,1,1.24.51,1.64,1.64,0,0,1,.51,1.23,1.61,1.61,0,0,1-.52,1.22,1.68,1.68,0,0,1-1.23.51A1.55,1.55,0,0,1,95.5,256.76Z"/><path class="cls-3" d="M49.82,268.92v-.15a.79.79,0,0,0-.29-.6,1.12,1.12,0,0,0-.72-.24,1.17,1.17,0,0,0-.74.24.77.77,0,0,0-.3.6.54.54,0,0,0,.31.51,2.53,2.53,0,0,0,.82.34l.18,0,.21,0a4.25,4.25,0,0,1,1.72.71l.11.1a2.56,2.56,0,0,1,.57.83,2.38,2.38,0,0,1,.21,1,2.32,2.32,0,0,1-.24,1,2.46,2.46,0,0,1-.68.87,3.1,3.1,0,0,1-1,.57,3.36,3.36,0,0,1-1.18.2,3.27,3.27,0,0,1-1.17-.2,3.1,3.1,0,0,1-1-.57,2.61,2.61,0,0,1-.69-.87,2.32,2.32,0,0,1-.24-1v-.16h2.1v.16a.73.73,0,0,0,.3.59,1.07,1.07,0,0,0,.7.25,1.18,1.18,0,0,0,.74-.25.73.73,0,0,0,.3-.59.67.67,0,0,0-.32-.53,1.56,1.56,0,0,0-.34-.18,4.17,4.17,0,0,0-.46-.15l-.4-.09c-.44-.11-.78-.21-1-.3a2.21,2.21,0,0,1-.69-.41l0-.05a2.51,2.51,0,0,1-.63-.84,2.24,2.24,0,0,1-.23-1,2.29,2.29,0,0,1,.24-1,2.75,2.75,0,0,1,.69-.88,3.1,3.1,0,0,1,1-.57,3.51,3.51,0,0,1,1.17-.2,3.61,3.61,0,0,1,1.18.2,3.1,3.1,0,0,1,1,.57,2.58,2.58,0,0,1,.68.88,2.29,2.29,0,0,1,.24,1v.15Z"/><path class="cls-3" d="M58.39,272.88v1.84H52.62v-8.48h5.66v1.83H54.79v1.49h2.94v1.84H54.79v1.48Z"/><path class="cls-3" d="M65.74,266.24v2.16H63.57v6.32H61.4V268.4H59.23v-2.16h6.51Z"/><path class="cls-3" d="M77.08,266.25v5.24a3.25,3.25,0,0,1-.45,1.68,3.35,3.35,0,0,1-2.91,1.67h-.19a3.25,3.25,0,0,1-1.68-.45,3.4,3.4,0,0,1-1.22-1.22,3.25,3.25,0,0,1-.45-1.68v-5.24h2V271a2,2,0,0,0,.36,1.24,1.15,1.15,0,0,0,1,.49h.19a1.18,1.18,0,0,0,1-.5,2,2,0,0,0,.38-1.23v-4.76Z"/><path class="cls-3" d="M83.41,266.59a2.6,2.6,0,0,1,1,1,2.55,2.55,0,0,1,.36,1.33,2.52,2.52,0,0,1-.36,1.32,2.46,2.46,0,0,1-1,1,2.52,2.52,0,0,1-1.32.36h-2v3.2H78v-8.48h4A2.51,2.51,0,0,1,83.41,266.59Zm-.82,1.67A.82.82,0,0,0,82,268H80v1.8h2a.85.85,0,0,0,.57-.3.93.93,0,0,0,.23-.62A.88.88,0,0,0,82.59,268.26Z"/><path class="cls-3" d="M95.25,266.81a4.27,4.27,0,0,1,1.56,1.57,4.29,4.29,0,0,1-1.56,5.86,4.27,4.27,0,0,1-4.3,0,4.27,4.27,0,0,1-1.57-1.56,4.34,4.34,0,0,1,0-4.3A4.38,4.38,0,0,1,91,266.81a4.34,4.34,0,0,1,4.3,0Zm-1,5.63a2.36,2.36,0,0,0,.8-.8,2.2,2.2,0,0,0,0-2.22,2.3,2.3,0,0,0-.8-.81,2.2,2.2,0,0,0-2.22,0,2.25,2.25,0,0,0-.81.81,2.2,2.2,0,0,0,0,2.22,2.3,2.3,0,0,0,.81.8,2.2,2.2,0,0,0,2.22,0Z"/><path class="cls-3" d="M104,268.07h-3.74v1.49h3v1.84h-3v3.32H98.11v-8.48H104Z"/><path class="cls-3" d="M112.75,266.32l2.77,8.4h-2.09l-.55-1.72h-2.63l-.54,1.72h-2.1l2.79-8.4Zm-1.93,4.93h1.51l-.76-2.37Z"/><path class="cls-3" d="M117.92,266.24v8.48h-2.16v-8.48Z"/><path class="cls-3" d="M125.8,274.72h-2.17l-1.34-3.2h-1.38v3.2h-2v-8.48h4a2.53,2.53,0,0,1,1.32.35,2.65,2.65,0,0,1,1,1,2.65,2.65,0,0,1,0,2.58,2.79,2.79,0,0,1-.88,1Zm-2.38-6.46a.8.8,0,0,0-.57-.28h-2v1.8h2a.89.89,0,0,0,.79-.92A.87.87,0,0,0,123.42,268.26Z"/><path class="cls-3" d="M130.24,266.21a4.86,4.86,0,0,1,1.28.3,3.81,3.81,0,0,1,1.17.73,4.2,4.2,0,0,1,1,1.46,4.46,4.46,0,0,1,.36,1.75,4.12,4.12,0,0,1-.46,1.95,3.9,3.9,0,0,1-1.32,1.5,4.48,4.48,0,0,1-1.73.68,12.37,12.37,0,0,1-2.14.16h-1.92v-8.58h2.18A13.78,13.78,0,0,1,130.24,266.21Zm1.79,4.24a2.1,2.1,0,0,0-.29-1.09,2.27,2.27,0,0,0-.78-.82,2,2,0,0,0-1.09-.32H128.7v4.42a9.14,9.14,0,0,0,1.48-.1,2.5,2.5,0,0,0,1.11-.47A1.85,1.85,0,0,0,132,271,2.34,2.34,0,0,0,132,270.45Z"/><path class="cls-3" d="M141.74,274.72h-2.17l-1.35-3.2h-1.38v3.2h-2v-8.48h4a2.56,2.56,0,0,1,1.32.35,2.65,2.65,0,0,1,1,1,2.61,2.61,0,0,1,.35,1.32,2.52,2.52,0,0,1-.33,1.26,2.67,2.67,0,0,1-.87,1Zm-2.39-6.46a.78.78,0,0,0-.56-.28h-2v1.8h2a.89.89,0,0,0,.56-.3.91.91,0,0,0,.23-.62A.88.88,0,0,0,139.35,268.26Z"/><path class="cls-3" d="M148.66,266.81a4.27,4.27,0,0,1,1.56,1.57,4.29,4.29,0,0,1-3.7,6.44,4.33,4.33,0,0,1-3.73-2.14,4.34,4.34,0,0,1,0-4.3,4.38,4.38,0,0,1,1.57-1.57,4.25,4.25,0,0,1,2.16-.57A4.18,4.18,0,0,1,148.66,266.81Zm-1,5.63a2.27,2.27,0,0,0,.8-.8,2.2,2.2,0,0,0,0-2.22,2.22,2.22,0,0,0-.8-.81,2.12,2.12,0,0,0-1.1-.3,2.2,2.2,0,0,0-1.92,3.33,2.22,2.22,0,0,0,.81.8,2.15,2.15,0,0,0,1.11.3A2.12,2.12,0,0,0,147.62,272.44Z"/><path class="cls-3" d="M156.89,266.59a2.76,2.76,0,0,1,1,1,2.64,2.64,0,0,1,.35,1.33,2.62,2.62,0,0,1-1.31,2.28,2.55,2.55,0,0,1-1.33.36h-2v3.2h-2v-8.48h4A2.54,2.54,0,0,1,156.89,266.59Zm-.83,1.67a.8.8,0,0,0-.57-.28h-2v1.8h2a.83.83,0,0,0,.57-.3.89.89,0,0,0,.23-.62A.84.84,0,0,0,156.06,268.26Z"/><path class="cls-3" d="M166.94,266.32l2.77,8.4h-2.09l-.55-1.72h-2.63l-.54,1.72h-2.1l2.79-8.4ZM165,271.25h1.51l-.76-2.37Z"/><path class="cls-3" d="M174.62,266.24h2.16v8.48h-2.16l-2.5-4.55v4.55H170v-8.48h2.17l2.5,4.54Z"/><path class="cls-3" d="M181.46,266.21a4.86,4.86,0,0,1,1.28.3,3.81,3.81,0,0,1,1.17.73,4.43,4.43,0,0,1,1.4,3.21,4.13,4.13,0,0,1-.47,1.95,3.8,3.8,0,0,1-1.31,1.5,4.54,4.54,0,0,1-1.73.68,12.37,12.37,0,0,1-2.14.16h-1.92v-8.58h2.17A13.85,13.85,0,0,1,181.46,266.21Zm1.79,4.24a2.2,2.2,0,0,0-.29-1.09,2.3,2.3,0,0,0-.79-.82,2,2,0,0,0-1.08-.32h-1.18v4.42a9,9,0,0,0,1.48-.1,2.53,2.53,0,0,0,1.12-.47,1.9,1.9,0,0,0,.68-1.12A2.34,2.34,0,0,0,183.25,270.45Z"/><path class="cls-3" d="M196,271.14a2.42,2.42,0,0,1,.27,1.13,2.44,2.44,0,0,1-.32,1.22,2.5,2.5,0,0,1-.88.89,2.53,2.53,0,0,1-1.23.34h-4.24v-8.49h3.85a2.44,2.44,0,0,1,2.43,2.43,2.43,2.43,0,0,1-.64,1.63A2.43,2.43,0,0,1,196,271.14Zm-2.24-2.92a.85.85,0,0,0-.62-.26h-1.56v1.8h1.56l.29,0a1,1,0,0,0,.21-.12.88.88,0,0,0,.28-.33,1,1,0,0,0,.1-.42A.86.86,0,0,0,193.79,268.22Zm.36,4.48a.81.81,0,0,0,.24-.63.83.83,0,0,0-.2-.57.86.86,0,0,0-.52-.31h-2.06V273h1.92A.87.87,0,0,0,194.15,272.7Z"/><path class="cls-3" d="M203.23,266.81a4.43,4.43,0,0,1,1.56,1.57,4.34,4.34,0,0,1,0,4.3,4.32,4.32,0,0,1-1.56,1.56,4.29,4.29,0,0,1-4.31,0,4.17,4.17,0,0,1-1.56-1.56,4.27,4.27,0,0,1,0-4.3,4.31,4.31,0,0,1,5.87-1.57Zm-1,5.63a2.3,2.3,0,0,0,.81-.8,2.2,2.2,0,0,0,0-2.22,2.25,2.25,0,0,0-.81-.81,2.09,2.09,0,0,0-1.1-.3,2.15,2.15,0,0,0-1.11.3,2.25,2.25,0,0,0-.81.81,2.2,2.2,0,0,0,0,2.22,2.3,2.3,0,0,0,.81.8,2.15,2.15,0,0,0,1.11.3A2.09,2.09,0,0,0,202.18,272.44Z"/><path class="cls-3" d="M213,266.25v5.24a3.25,3.25,0,0,1-.45,1.68,3.4,3.4,0,0,1-1.22,1.22,3.32,3.32,0,0,1-1.69.45h-.19a3.25,3.25,0,0,1-1.68-.45,3.4,3.4,0,0,1-1.22-1.22,3.25,3.25,0,0,1-.45-1.68v-5.24h2V271a2,2,0,0,0,.36,1.24,1.14,1.14,0,0,0,1,.49h.19a1.18,1.18,0,0,0,1-.5A2,2,0,0,0,211,271v-4.76Z"/><path class="cls-3" d="M218.61,266.24h2.16v8.48h-2.16l-2.5-4.55v4.55h-2.17v-8.48h2.17l2.5,4.54Z"/><path class="cls-3" d="M228.13,266.24v2.16H226v6.32h-2.17V268.4h-2.17v-2.16h6.52Z"/><path class="cls-3" d="M233.48,266.24h2.16l-2.5,5v3.46H231v-3.46l-2.49-5h2.16l1.41,2.89Z"/><path class="cls-3" d="M54.28,293.41a4.22,4.22,0,0,1-.57,2.15,4.43,4.43,0,0,1-1.57,1.56,4.34,4.34,0,0,1-4.3,0,4.32,4.32,0,0,1-1.56-1.56A4.29,4.29,0,0,1,53,290.39l-1.94,1.1a2.1,2.1,0,0,0-1.11-.3,2.15,2.15,0,0,0-1.11.3,2.3,2.3,0,0,0-.8.81,2.15,2.15,0,0,0-.3,1.11,2.09,2.09,0,0,0,.3,1.1,2.3,2.3,0,0,0,.8.81,2.2,2.2,0,0,0,2.27,0,2.31,2.31,0,0,0,.82-.88H49.3v-2h4.86A4.68,4.68,0,0,1,54.28,293.41Z"/><path class="cls-3" d="M60.78,295.77v1.84H55v-8.48h5.67V291H57.18v1.49h2.94v1.84H57.18v1.48Z"/><path class="cls-3" d="M68.13,289.13v2.16H66v6.32H63.79v-6.32H61.62v-2.16h6.51Z"/><path class="cls-3" d="M79,289.13v2.16H76.8v6.32H74.62v-6.32H72.45v-2.16H79Z"/><path class="cls-3" d="M86.73,297.61H84.56l-1.34-3.2H81.83v3.2h-2v-8.48h4a2.56,2.56,0,0,1,1.32.35,2.65,2.65,0,0,1,1,1,2.65,2.65,0,0,1,0,2.58,2.79,2.79,0,0,1-.88,1Zm-2.39-6.46a.78.78,0,0,0-.56-.28h-2v1.8h2a.89.89,0,0,0,.56-.3.87.87,0,0,0,.23-.62A.84.84,0,0,0,84.34,291.15Z"/><path class="cls-3" d="M91.87,289.21l2.77,8.4H92.55L92,295.89H89.37l-.54,1.72h-2.1l2.79-8.4Zm-1.93,4.93h1.51l-.76-2.37Z"/><path class="cls-3" d="M100.78,291H97v1.49h3v1.84H97v3.32H94.88v-8.48h5.9Z"/><path class="cls-3" d="M107.41,291h-3.75v1.49h3v1.84h-3v3.32H101.5v-8.48h5.91Z"/><path class="cls-3" d="M110.29,289.13v8.48h-2.16v-8.48Z"/><path class="cls-3" d="M116.14,295.43a2.09,2.09,0,0,0,.72-.47l1.47,1.46a4.31,4.31,0,0,1-1.38.93,4.34,4.34,0,0,1-3.81-.24,4.48,4.48,0,0,1-1.56-1.56,4.36,4.36,0,0,1,0-4.31,4.32,4.32,0,0,1,1.56-1.56,4.16,4.16,0,0,1,2.15-.58,4.2,4.2,0,0,1,1.66.33,4.31,4.31,0,0,1,1.38.93l-1.47,1.47a2.27,2.27,0,0,0-.72-.48,2.22,2.22,0,0,0-.85-.17,2.09,2.09,0,0,0-1.1.3,2.25,2.25,0,0,0-.81.81,2.15,2.15,0,0,0-.3,1.11,2.09,2.09,0,0,0,.3,1.1,2.25,2.25,0,0,0,.81.81,2.09,2.09,0,0,0,1.1.3A2.06,2.06,0,0,0,116.14,295.43Z"/><path class="cls-3" d="M128.55,291h-3.74v1.49h3v1.84h-3v3.32h-2.16v-8.48h5.9Z"/><path class="cls-3" d="M136.19,297.61H134l-1.34-3.2H131.3v3.2h-2v-8.48h4a2.51,2.51,0,0,1,1.32.35,2.65,2.65,0,0,1,1,1,2.59,2.59,0,0,1,0,2.58,2.7,2.7,0,0,1-.88,1Zm-2.38-6.46a.8.8,0,0,0-.57-.28h-2v1.8h2a.91.91,0,0,0,.8-.92A.88.88,0,0,0,133.81,291.15Z"/><path class="cls-3" d="M143.12,289.7a4.43,4.43,0,0,1,1.56,1.57,4.34,4.34,0,0,1,0,4.3,4.32,4.32,0,0,1-1.56,1.56,4.29,4.29,0,0,1-5.87-5.86,4.3,4.3,0,0,1,1.57-1.57,4.34,4.34,0,0,1,4.3,0Zm-1,5.63a2.36,2.36,0,0,0,.8-.8,2.2,2.2,0,0,0,0-2.22,2.3,2.3,0,0,0-.8-.81,2.2,2.2,0,0,0-2.22,0,2.25,2.25,0,0,0-.81.81,2.2,2.2,0,0,0,0,2.22,2.3,2.3,0,0,0,.81.8,2.2,2.2,0,0,0,2.22,0Z"/><path class="cls-3" d="M152.51,289.13h2.16v8.48h-2.16v-4.79l-1,1.92-.05.1h-2.16l-.06-.1-.14-.27-.9-1.65v4.79H146v-8.48h2.18l2.18,3.61Z"/><path class="cls-3" d="M164.13,295.43a2.3,2.3,0,0,0,.72-.47l1.46,1.46a4.31,4.31,0,0,1-1.38.93,4.32,4.32,0,0,1-3.8-.24,4.4,4.4,0,0,1-1.56-1.56,4.29,4.29,0,0,1,1.56-5.87,4.13,4.13,0,0,1,2.15-.58,4.19,4.19,0,0,1,1.65.33,4.31,4.31,0,0,1,1.38.93l-1.46,1.47a2.52,2.52,0,0,0-.72-.48,2.26,2.26,0,0,0-.85-.17,2.15,2.15,0,0,0-1.11.3,2.3,2.3,0,0,0-.8.81,2.15,2.15,0,0,0-.3,1.11,2.09,2.09,0,0,0,.3,1.1,2.3,2.3,0,0,0,.8.81,2.15,2.15,0,0,0,1.11.3A2.09,2.09,0,0,0,164.13,295.43Z"/><path class="cls-3" d="M172.4,289.48a2.6,2.6,0,0,1,1,1,2.55,2.55,0,0,1,.36,1.33,2.52,2.52,0,0,1-.36,1.32,2.46,2.46,0,0,1-1,1,2.52,2.52,0,0,1-1.32.36h-2v3.2h-2v-8.48h4.05A2.51,2.51,0,0,1,172.4,289.48Zm-.82,1.67a.82.82,0,0,0-.57-.28h-2v1.8h2a.85.85,0,0,0,.57-.3.93.93,0,0,0,.23-.62A.88.88,0,0,0,171.58,291.15Z"/><path class="cls-3" d="M179.33,295.43a2.09,2.09,0,0,0,.72-.47l1.47,1.46a4.31,4.31,0,0,1-1.38.93,4.34,4.34,0,0,1-3.81-.24,4.48,4.48,0,0,1-1.56-1.56,4.36,4.36,0,0,1,0-4.31,4.32,4.32,0,0,1,1.56-1.56,4.16,4.16,0,0,1,2.15-.58,4.2,4.2,0,0,1,1.66.33,4.31,4.31,0,0,1,1.38.93l-1.47,1.47a2.27,2.27,0,0,0-.72-.48,2.22,2.22,0,0,0-.85-.17,2.09,2.09,0,0,0-1.1.3,2.25,2.25,0,0,0-.81.81,2.15,2.15,0,0,0-.3,1.11,2.09,2.09,0,0,0,.3,1.1,2.25,2.25,0,0,0,.81.81,2.09,2.09,0,0,0,1.1.3A2.06,2.06,0,0,0,179.33,295.43Z"/><path class="cls-3" d="M189.71,291.81v-.15a.76.76,0,0,0-.29-.6,1.09,1.09,0,0,0-.71-.24,1.15,1.15,0,0,0-.74.24.75.75,0,0,0-.31.6.55.55,0,0,0,.31.51,2.63,2.63,0,0,0,.82.34l.19,0,.21,0a4.25,4.25,0,0,1,1.71.71l.11.1a2.56,2.56,0,0,1,.57.83,2.38,2.38,0,0,1,.21,1,2.46,2.46,0,0,1-.23,1,2.71,2.71,0,0,1-.68.87,3.14,3.14,0,0,1-1,.57,3.55,3.55,0,0,1-2.35,0,3.21,3.21,0,0,1-1-.57,2.71,2.71,0,0,1-.68-.87,2.32,2.32,0,0,1-.24-1V295h2.1v.16a.75.75,0,0,0,.29.59,1.09,1.09,0,0,0,.7.25,1.16,1.16,0,0,0,.74-.25.72.72,0,0,0,.31-.59.69.69,0,0,0-.33-.53,1.29,1.29,0,0,0-.33-.18l-.47-.15-.4-.09c-.44-.11-.78-.21-1-.3a2.17,2.17,0,0,1-.68-.41l-.05,0a2.81,2.81,0,0,1-.63-.84,2.23,2.23,0,0,1-.22-1,2.29,2.29,0,0,1,.24-1,2.86,2.86,0,0,1,.68-.88,3.21,3.21,0,0,1,1-.57,3.55,3.55,0,0,1,2.35,0,3.14,3.14,0,0,1,1,.57,2.86,2.86,0,0,1,.68.88,2.42,2.42,0,0,1,.23,1v.15Z"/><path class="cls-3" d="M198.71,289.7a4.27,4.27,0,0,1,1.56,1.57,4.29,4.29,0,0,1-3.7,6.44,4.26,4.26,0,0,1-2.16-.58,4.17,4.17,0,0,1-1.56-1.56,4.27,4.27,0,0,1,0-4.3,4.24,4.24,0,0,1,3.72-2.14A4.18,4.18,0,0,1,198.71,289.7Zm-1,5.63a2.27,2.27,0,0,0,.8-.8,2.2,2.2,0,0,0,0-2.22,2.22,2.22,0,0,0-.8-.81,2.12,2.12,0,0,0-1.1-.3,2.15,2.15,0,0,0-1.11.3,2.25,2.25,0,0,0-.81.81,2.2,2.2,0,0,0,0,2.22,2.3,2.3,0,0,0,.81.8,2.15,2.15,0,0,0,1.11.3A2.12,2.12,0,0,0,197.67,295.33Z"/><path class="cls-3" d="M208.47,289.14v5.24a3.25,3.25,0,0,1-.45,1.68,3.4,3.4,0,0,1-1.22,1.22,3.32,3.32,0,0,1-1.69.45h-.19a3.25,3.25,0,0,1-1.68-.45,3.4,3.4,0,0,1-1.22-1.22,3.25,3.25,0,0,1-.45-1.68v-5.24h2v4.76a2,2,0,0,0,.36,1.24,1.15,1.15,0,0,0,1,.49h.19a1.18,1.18,0,0,0,1-.5,2,2,0,0,0,.38-1.23v-4.76Z"/><path class="cls-3" d="M216.35,297.61h-2.17l-1.34-3.2h-1.38v3.2h-2v-8.48h4a2.51,2.51,0,0,1,1.32.35,2.65,2.65,0,0,1,1,1,2.65,2.65,0,0,1,0,2.58,2.79,2.79,0,0,1-.88,1ZM214,291.15a.8.8,0,0,0-.57-.28h-2v1.8h2a.89.89,0,0,0,.79-.92A.87.87,0,0,0,214,291.15Z"/><path class="cls-3" d="M222,295.43a2.3,2.3,0,0,0,.72-.47l1.46,1.46a4.31,4.31,0,0,1-1.38.93,4.32,4.32,0,0,1-3.8-.24,4.32,4.32,0,0,1-1.56-1.56,4.29,4.29,0,0,1,0-4.31,4.17,4.17,0,0,1,1.56-1.56,4.13,4.13,0,0,1,2.15-.58,4.19,4.19,0,0,1,1.65.33,4.31,4.31,0,0,1,1.38.93l-1.46,1.47a2.52,2.52,0,0,0-.72-.48,2.26,2.26,0,0,0-.85-.17,2.15,2.15,0,0,0-1.11.3,2.3,2.3,0,0,0-.8.81,2.15,2.15,0,0,0-.3,1.11,2.09,2.09,0,0,0,.3,1.1,2.3,2.3,0,0,0,.8.81,2.15,2.15,0,0,0,1.11.3A2.09,2.09,0,0,0,222,295.43Z"/><path class="cls-3" d="M230.65,295.77v1.84h-5.78v-8.48h5.67V291h-3.49v1.49H230v1.84h-2.94v1.48Z"/><path class="cls-3" d="M235.48,291.81v-.15a.79.79,0,0,0-.29-.6,1.12,1.12,0,0,0-.72-.24,1.14,1.14,0,0,0-.73.24.75.75,0,0,0-.31.6.54.54,0,0,0,.31.51,2.53,2.53,0,0,0,.82.34l.18,0,.21,0a4.25,4.25,0,0,1,1.72.71l.11.1a2.56,2.56,0,0,1,.57.83,2.38,2.38,0,0,1,.21,1,2.32,2.32,0,0,1-.24,1,2.55,2.55,0,0,1-.67.87,3.25,3.25,0,0,1-1,.57,3.36,3.36,0,0,1-1.18.2,3.27,3.27,0,0,1-1.17-.2,3.21,3.21,0,0,1-1-.57,2.58,2.58,0,0,1-.68-.87,2.32,2.32,0,0,1-.24-1V295h2.1v.16a.72.72,0,0,0,.29.59,1.09,1.09,0,0,0,.7.25,1.16,1.16,0,0,0,.74-.25.74.74,0,0,0,.31-.59.69.69,0,0,0-.33-.53,1.48,1.48,0,0,0-.33-.18l-.47-.15-.4-.09c-.44-.11-.78-.21-1-.3a2.06,2.06,0,0,1-.68-.41l-.05,0a2.81,2.81,0,0,1-.63-.84,2.23,2.23,0,0,1-.22-1,2.29,2.29,0,0,1,.24-1,2.71,2.71,0,0,1,.68-.88,3.21,3.21,0,0,1,1-.57,3.51,3.51,0,0,1,1.17-.2,3.61,3.61,0,0,1,1.18.2,3.25,3.25,0,0,1,1,.57,2.68,2.68,0,0,1,.67.88,2.29,2.29,0,0,1,.24,1v.15Z"/><path class="cls-4" d="M243.15,298.37a11.12,11.12,0,0,1-1.23-3.95c0-.31,0-.66,0-1a10.37,10.37,0,0,1,.87-4.13,9.21,9.21,0,0,1,.57-1.05l1.31.92c0,.05-.11.18-.23.39s-.24.5-.39.87a8.44,8.44,0,0,0-.36,1.22,8.81,8.81,0,0,0-.18,1.78,8.17,8.17,0,0,0,.05.91,9.23,9.23,0,0,0,1,3.32Z"/><path class="cls-4" d="M251.49,291h-3.74v1.49h3v1.84h-3v3.32h-2.17v-8.48h5.91Z"/><path class="cls-4" d="M256.63,289.21l2.77,8.4h-2.09l-.55-1.72h-2.63l-.54,1.72h-2.1l2.78-8.4Zm-1.94,4.93h1.52l-.76-2.37Z"/><path class="cls-4" d="M264.53,295.43a2.3,2.3,0,0,0,.72-.47l1.47,1.46a4.31,4.31,0,0,1-1.38.93,4.34,4.34,0,0,1-3.81-.24,4.48,4.48,0,0,1-1.56-1.56,4.36,4.36,0,0,1,0-4.31,4.32,4.32,0,0,1,1.56-1.56,4.16,4.16,0,0,1,2.15-.58,4.24,4.24,0,0,1,1.66.33,4.31,4.31,0,0,1,1.38.93l-1.47,1.47a2.52,2.52,0,0,0-.72-.48,2.22,2.22,0,0,0-.85-.17,2.09,2.09,0,0,0-1.1.3,2.25,2.25,0,0,0-.81.81,2.15,2.15,0,0,0-.3,1.11,2.09,2.09,0,0,0,.3,1.1,2.25,2.25,0,0,0,.81.81,2.09,2.09,0,0,0,1.1.3A2.06,2.06,0,0,0,264.53,295.43Z"/><path class="cls-4" d="M273.21,295.77v1.84h-5.77v-8.48h5.66V291h-3.49v1.49h2.94v1.84h-2.94v1.48Z"/><path class="cls-4" d="M280.56,294a2.31,2.31,0,0,1,.28,1.13,2.41,2.41,0,0,1-1.21,2.11,2.47,2.47,0,0,1-1.23.34h-4.23v-8.49H278a2.41,2.41,0,0,1,2.42,2.43,2.41,2.41,0,0,1-.16.88,2.44,2.44,0,0,1-.47.75A2.31,2.31,0,0,1,280.56,294Zm-2.23-2.92a.87.87,0,0,0-.62-.26h-1.56v1.8h1.56l.29,0a1,1,0,0,0,.21-.12.88.88,0,0,0,.37-.75A.85.85,0,0,0,278.33,291.11Zm.36,4.48a.81.81,0,0,0,.24-.63.88.88,0,0,0-.2-.57.86.86,0,0,0-.52-.31h-2.06v1.8h1.92A.89.89,0,0,0,278.69,295.59Z"/><path class="cls-4" d="M287.76,289.7a4.38,4.38,0,0,1,1.57,1.57,4.28,4.28,0,0,1-1.57,5.86,4.19,4.19,0,0,1-2.14.58,4.26,4.26,0,0,1-2.16-.58,4.17,4.17,0,0,1-1.56-1.56,4.27,4.27,0,0,1,0-4.3,4.24,4.24,0,0,1,3.72-2.14A4.18,4.18,0,0,1,287.76,289.7Zm-1,5.63a2.19,2.19,0,0,0,.8-.8,2.23,2.23,0,0,0-.8-3,2.12,2.12,0,0,0-1.1-.3,2.15,2.15,0,0,0-1.11.3,2.25,2.25,0,0,0-.81.81,2.2,2.2,0,0,0,0,2.22,2.3,2.3,0,0,0,.81.8,2.15,2.15,0,0,0,1.11.3A2.12,2.12,0,0,0,286.72,295.33Z"/><path class="cls-4" d="M296.83,289.7a4.32,4.32,0,0,1,1.55,1.57,4.27,4.27,0,0,1,0,4.3,4.26,4.26,0,0,1-3.7,2.14,4.26,4.26,0,0,1-2.16-.58,4.17,4.17,0,0,1-1.56-1.56,4.27,4.27,0,0,1,0-4.3,4.31,4.31,0,0,1,5.87-1.57Zm-1.05,5.63a2.27,2.27,0,0,0,.8-.8,2.2,2.2,0,0,0,0-2.22,2.22,2.22,0,0,0-.8-.81,2.09,2.09,0,0,0-1.1-.3,2.15,2.15,0,0,0-1.11.3,2.25,2.25,0,0,0-.81.81,2.2,2.2,0,0,0,0,2.22,2.3,2.3,0,0,0,.81.8,2.15,2.15,0,0,0,1.11.3A2.09,2.09,0,0,0,295.78,295.33Z"/><path class="cls-4" d="M303.8,293.33l2.53,4.28h-2.4l-2.09-3.42v3.42h-2.16v-8.48h2.16v3.31l2.09-3.31h2.4Z"/><path class="cls-4" d="M52.34,303.53v2.16H50.17V312H48v-6.32H45.82v-2.16h6.52Z"/><path class="cls-4" d="M57.6,303.61l2.77,8.4H58.28l-.55-1.72H55.1L54.56,312h-2.1l2.78-8.4Zm-1.94,4.93h1.52l-.76-2.37Z"/><path class="cls-4" d="M67.53,312H65.36L64,308.81H62.64V312h-2v-8.48h4a2.56,2.56,0,0,1,1.32.35,2.65,2.65,0,0,1,1,1,2.65,2.65,0,0,1,0,2.58,2.79,2.79,0,0,1-.88,1Zm-2.39-6.46a.78.78,0,0,0-.56-.28h-2v1.8h2a.89.89,0,0,0,.56-.3.87.87,0,0,0,.23-.62A.84.84,0,0,0,65.14,305.55Z"/><path class="cls-4" d="M76.59,307.81A4.22,4.22,0,0,1,76,310a4.43,4.43,0,0,1-1.57,1.56,4.24,4.24,0,0,1-2.15.57,4.19,4.19,0,0,1-2.15-.57A4.32,4.32,0,0,1,68.59,310a4.27,4.27,0,0,1,0-4.3,4.28,4.28,0,0,1,3.71-2.15,4.26,4.26,0,0,1,1.67.34,4.19,4.19,0,0,1,1.37.94l-1.93,1.1a2.12,2.12,0,0,0-1.11-.3,2.15,2.15,0,0,0-1.11.3,2.3,2.3,0,0,0-.8.81,2.15,2.15,0,0,0-.3,1.11,2.09,2.09,0,0,0,.3,1.1,2.3,2.3,0,0,0,.8.81,2.2,2.2,0,0,0,2.27,0,2.39,2.39,0,0,0,.82-.88H71.61v-2h4.86A4.68,4.68,0,0,1,76.59,307.81Z"/><path class="cls-4" d="M83.08,310.17V312H77.31v-8.48H83v1.83h-3.5v1.49h2.94v1.84H79.48v1.48Z"/><path class="cls-4" d="M90.44,303.53v2.16H88.27V312H86.1v-6.32H83.92v-2.16h6.52Z"/><path class="cls-4" d="M93.44,303.53V312H91.28v-8.48Z"/><path class="cls-4" d="M99.07,303.53h2.16V312H99.07l-2.5-4.55V312H94.4v-8.48h2.17l2.5,4.54Z"/><path class="cls-4" d="M110.53,307.81A4.13,4.13,0,0,1,110,310a4.32,4.32,0,0,1-1.56,1.56,4.36,4.36,0,0,1-4.31,0,4.48,4.48,0,0,1-1.56-1.56,4.34,4.34,0,0,1,0-4.3,4.35,4.35,0,0,1,1.56-1.57,4.25,4.25,0,0,1,2.15-.58,4.35,4.35,0,0,1,1.68.34,4.19,4.19,0,0,1,1.37.94l-1.93,1.1a2.16,2.16,0,0,0-1.12-.3,2.09,2.09,0,0,0-1.1.3,2.25,2.25,0,0,0-.81.81,2.15,2.15,0,0,0-.3,1.11,2.09,2.09,0,0,0,.3,1.1,2.25,2.25,0,0,0,.81.81,2.09,2.09,0,0,0,1.1.3,2.18,2.18,0,0,0,1.17-.33,2.28,2.28,0,0,0,.81-.88h-2.66v-2h4.86A4.68,4.68,0,0,1,110.53,307.81Z"/><path class="cls-4" d="M111.66,310.53h2l-.88,2.72H111Z"/><path class="cls-4" d="M124.4,303.53v2.16h-2.17V312h-2.17v-6.32h-2.18v-2.16h6.52Z"/><path class="cls-4" d="M132.07,303.53h1.87V312h-2.16l-2.19-3.61L127.4,312h-2.16v-8.48h2.16v4.78l1.06-1.92,0-.09h2.16l.05.09,1.06,1.92v-4.78Z"/><path class="cls-4" d="M137.06,303.53V312H134.9v-8.48Z"/><path class="cls-4" d="M144.42,303.53v2.16h-2.18V312h-2.17v-6.32H137.9v-2.16h6.52Z"/><path class="cls-4" d="M151.65,303.53v2.16h-2.17V312h-2.17v-6.32h-2.18v-2.16h6.52Z"/><path class="cls-4" d="M158.26,310.17V312h-5.77v-8.48h5.66v1.83h-3.49v1.49h2.94v1.84h-2.94v1.48Z"/><path class="cls-4" d="M166.15,312H164l-1.34-3.2h-1.38V312h-2v-8.48h4.05a2.56,2.56,0,0,1,1.32.35,2.63,2.63,0,0,1,1,1,2.59,2.59,0,0,1,0,2.58,2.77,2.77,0,0,1-.87,1Zm-2.39-6.46a.79.79,0,0,0-.57-.28h-2v1.8h2a.89.89,0,0,0,.57-.3.91.91,0,0,0,.23-.62A.88.88,0,0,0,163.76,305.55Z"/><path class="cls-4" d="M174.88,303.61l2.77,8.4h-2.08l-.56-1.72h-2.62l-.54,1.72h-2.1l2.78-8.4ZM173,308.54h1.51l-.75-2.37Z"/><path class="cls-4" d="M181.61,303.5a4.77,4.77,0,0,1,1.28.3,3.81,3.81,0,0,1,1.17.73,4.2,4.2,0,0,1,1,1.46,4.47,4.47,0,0,1,.37,1.75,4.13,4.13,0,0,1-.47,1.95,3.82,3.82,0,0,1-1.32,1.5,4.5,4.5,0,0,1-1.72.68,12.49,12.49,0,0,1-2.15.16h-1.92v-8.58h2.18A13.66,13.66,0,0,1,181.61,303.5Zm1.79,4.24a2.1,2.1,0,0,0-.29-1.09,2.27,2.27,0,0,0-.78-.82,2,2,0,0,0-1.09-.32h-1.17v4.42a9.06,9.06,0,0,0,1.48-.1,2.5,2.5,0,0,0,1.11-.47,1.85,1.85,0,0,0,.68-1.12A2.34,2.34,0,0,0,183.4,307.74Z"/><path class="cls-4" d="M190.06,306.21v-.15a.79.79,0,0,0-.29-.6,1.12,1.12,0,0,0-.72-.24,1.14,1.14,0,0,0-.73.24.75.75,0,0,0-.31.6.54.54,0,0,0,.31.51,2.53,2.53,0,0,0,.82.34l.18,0,.21,0a4.25,4.25,0,0,1,1.72.71l.11.1a2.56,2.56,0,0,1,.57.83,2.38,2.38,0,0,1,.21,1,2.32,2.32,0,0,1-.24,1,2.55,2.55,0,0,1-.67.87,3.25,3.25,0,0,1-1,.57,3.36,3.36,0,0,1-1.18.2,3.27,3.27,0,0,1-1.17-.2,3.21,3.21,0,0,1-1-.57,2.58,2.58,0,0,1-.68-.87,2.32,2.32,0,0,1-.24-1v-.16h2.1v.16a.72.72,0,0,0,.29.59,1.09,1.09,0,0,0,.7.25,1.16,1.16,0,0,0,.74-.25.74.74,0,0,0,.31-.59.69.69,0,0,0-.33-.53,1.48,1.48,0,0,0-.33-.18l-.47-.15-.4-.09c-.44-.11-.78-.21-1-.3a2.06,2.06,0,0,1-.68-.41l0-.05a2.81,2.81,0,0,1-.63-.84,2.23,2.23,0,0,1-.22-1,2.29,2.29,0,0,1,.24-1,2.71,2.71,0,0,1,.68-.88,3.21,3.21,0,0,1,1-.57,3.51,3.51,0,0,1,1.17-.2,3.61,3.61,0,0,1,1.18.2,3.25,3.25,0,0,1,1,.57,2.68,2.68,0,0,1,.67.88,2.29,2.29,0,0,1,.24,1v.15Z"/><path class="cls-4" d="M193.27,310.53h2l-.88,2.72h-1.79Z"/><path class="cls-4" d="M204,303.61l2.77,8.4h-2.09l-.55-1.72h-2.63L201,312h-2.1l2.79-8.4Zm-1.93,4.93h1.51l-.76-2.37Z"/><path class="cls-4" d="M210.76,303.5a4.86,4.86,0,0,1,1.28.3,3.81,3.81,0,0,1,1.17.73,4.33,4.33,0,0,1,1,1.46,4.46,4.46,0,0,1,.36,1.75,4.12,4.12,0,0,1-.46,1.95,3.9,3.9,0,0,1-1.32,1.5,4.54,4.54,0,0,1-1.73.68A12.37,12.37,0,0,1,209,312H207v-8.58h2.17A13.85,13.85,0,0,1,210.76,303.5Zm1.79,4.24a2.2,2.2,0,0,0-.29-1.09,2.27,2.27,0,0,0-.78-.82,2,2,0,0,0-1.09-.32h-1.18v4.42a9.19,9.19,0,0,0,1.49-.1,2.5,2.5,0,0,0,1.11-.47,1.9,1.9,0,0,0,.68-1.12A2.34,2.34,0,0,0,212.55,307.74Z"/><path class="cls-4" d="M222.16,303.53H224V312h-2.16l-2.18-3.61-2.2,3.61h-2.16v-8.48h2.16v4.78l1.06-1.92.06-.09h2.16l0,.09,1.05,1.92v-4.78Z"/><path class="cls-4" d="M231.2,304.1a4.43,4.43,0,0,1,1.56,1.57,4.34,4.34,0,0,1,0,4.3,4.32,4.32,0,0,1-1.56,1.56,4.29,4.29,0,0,1-5.87-5.86,4.3,4.3,0,0,1,1.57-1.57,4.34,4.34,0,0,1,4.3,0Zm-1,5.63a2.3,2.3,0,0,0,.81-.8,2.2,2.2,0,0,0,0-2.22,2.25,2.25,0,0,0-.81-.81,2.09,2.09,0,0,0-1.1-.3,2.15,2.15,0,0,0-1.11.3,2.25,2.25,0,0,0-.81.81,2.2,2.2,0,0,0,0,2.22,2.3,2.3,0,0,0,.81.8,2.15,2.15,0,0,0,1.11.3A2.09,2.09,0,0,0,230.15,309.73Z"/><path class="cls-4" d="M241,312h-2.17l-1.35-3.2h-1.38V312h-2v-8.48h4a2.6,2.6,0,0,1,2.28,1.32,2.59,2.59,0,0,1,0,2.58,2.67,2.67,0,0,1-.87,1Zm-2.39-6.46a.78.78,0,0,0-.56-.28h-2v1.8h2a.89.89,0,0,0,.56-.3.91.91,0,0,0,.23-.62A.88.88,0,0,0,238.59,305.55Z"/><path class="cls-4" d="M245.42,303.5a4.86,4.86,0,0,1,1.28.3,3.81,3.81,0,0,1,1.17.73,4.43,4.43,0,0,1,1.4,3.21,4.13,4.13,0,0,1-.47,1.95,3.8,3.8,0,0,1-1.31,1.5,4.54,4.54,0,0,1-1.73.68,12.37,12.37,0,0,1-2.14.16H241.7v-8.58h2.17A13.85,13.85,0,0,1,245.42,303.5Zm1.79,4.24a2.2,2.2,0,0,0-.29-1.09,2.3,2.3,0,0,0-.79-.82,2,2,0,0,0-1.08-.32h-1.18v4.42a9,9,0,0,0,1.48-.1,2.53,2.53,0,0,0,1.12-.47,1.9,1.9,0,0,0,.68-1.12A2.34,2.34,0,0,0,247.21,307.74Z"/><path class="cls-4" d="M253.87,306.21v-.15a.77.77,0,0,0-.3-.6,1.07,1.07,0,0,0-.71-.24,1.15,1.15,0,0,0-.74.24.78.78,0,0,0-.31.6.55.55,0,0,0,.32.51,2.56,2.56,0,0,0,.81.34l.19,0,.21,0a4.19,4.19,0,0,1,1.71.71l.11.1a2.56,2.56,0,0,1,.57.83,2.38,2.38,0,0,1,.21,1,2.46,2.46,0,0,1-.23,1,2.58,2.58,0,0,1-.68.87,3.14,3.14,0,0,1-1,.57,3.31,3.31,0,0,1-1.17.2,3.27,3.27,0,0,1-1.17-.2,3.14,3.14,0,0,1-1-.57,2.71,2.71,0,0,1-.68-.87,2.32,2.32,0,0,1-.24-1v-.16h2.1v.16a.75.75,0,0,0,.29.59,1.1,1.1,0,0,0,.71.25,1.15,1.15,0,0,0,.73-.25.72.72,0,0,0,.31-.59.7.7,0,0,0-.32-.53,1.56,1.56,0,0,0-.34-.18,4.42,4.42,0,0,0-.47-.15l-.39-.09c-.44-.11-.79-.21-1-.3a2.29,2.29,0,0,1-.68-.41l-.05-.05A2.81,2.81,0,0,1,250,307a2.23,2.23,0,0,1-.22-1,2.29,2.29,0,0,1,.24-1,2.86,2.86,0,0,1,.68-.88,3.14,3.14,0,0,1,1-.57,3.51,3.51,0,0,1,1.17-.2,3.55,3.55,0,0,1,1.17.2,3.14,3.14,0,0,1,1,.57,2.71,2.71,0,0,1,.68.88,2.42,2.42,0,0,1,.23,1v.15Z"/><path class="cls-4" d="M264.68,303.61l2.77,8.4h-2.09l-.55-1.72h-2.63l-.54,1.72h-2.1l2.79-8.4Zm-1.93,4.93h1.51l-.76-2.37Z"/><path class="cls-4" d="M272.36,303.53h2.16V312h-2.16l-2.5-4.55V312h-2.17v-8.48h2.17l2.5,4.54Z"/><path class="cls-4" d="M279.2,303.5a4.79,4.79,0,0,1,1.27.3,3.7,3.7,0,0,1,1.17.73,4.2,4.2,0,0,1,1,1.46,4.3,4.3,0,0,1,.37,1.75,4.13,4.13,0,0,1-.47,1.95,3.8,3.8,0,0,1-1.31,1.5,4.61,4.61,0,0,1-1.73.68,12.37,12.37,0,0,1-2.14.16h-1.92v-8.58h2.17A14,14,0,0,1,279.2,303.5Zm1.78,4.24a2.19,2.19,0,0,0-.28-1.09,2.39,2.39,0,0,0-.79-.82,2,2,0,0,0-1.08-.32h-1.18v4.42a9.06,9.06,0,0,0,1.48-.1,2.53,2.53,0,0,0,1.12-.47,1.89,1.89,0,0,0,.67-1.12A2.34,2.34,0,0,0,281,307.74Z"/><path class="cls-4" d="M293.57,304.1a4.27,4.27,0,0,1,1.56,1.57,4.29,4.29,0,0,1-1.56,5.86,4.2,4.2,0,0,1-2.15.58,4.3,4.3,0,0,1-3.72-6.44,4.38,4.38,0,0,1,1.57-1.57,4.24,4.24,0,0,1,2.15-.57A4.19,4.19,0,0,1,293.57,304.1Zm-1,5.63a2.36,2.36,0,0,0,.8-.8,2.2,2.2,0,0,0,0-2.22,2.3,2.3,0,0,0-.8-.81,2.2,2.2,0,0,0-2.22,0,2.25,2.25,0,0,0-.81.81,2.2,2.2,0,0,0,0,2.22,2.3,2.3,0,0,0,.81.8,2.2,2.2,0,0,0,2.22,0Z"/><path class="cls-4" d="M302.82,303.53v2.16h-2.17V312h-2.17v-6.32h-2.17v-2.16h6.51Z"/><path class="cls-4" d="M308.25,303.53h2.16V312h-2.16v-3.17h-2.43V312h-2.16v-8.48h2.16v3.15h2.43Z"/><path class="cls-4" d="M317.14,310.17V312h-5.77v-8.48H317v1.83h-3.49v1.49h2.94v1.84h-2.94v1.48Z"/><path class="cls-4" d="M325,312h-2.17l-1.34-3.2h-1.38V312h-2v-8.48h4a2.51,2.51,0,0,1,1.32.35,2.65,2.65,0,0,1,1,1,2.65,2.65,0,0,1,0,2.58,2.79,2.79,0,0,1-.88,1Zm-2.38-6.46a.8.8,0,0,0-.57-.28h-2v1.8h2a.89.89,0,0,0,.79-.92A.87.87,0,0,0,322.64,305.55Z"/><path class="cls-4" d="M327.22,312.77,325.8,312a9.23,9.23,0,0,0,1.05-3.32,8.17,8.17,0,0,0,0-.91,8.81,8.81,0,0,0-.18-1.78,9.86,9.86,0,0,0-.39-1.31,6.75,6.75,0,0,0-.42-.9l-.17-.27,1.31-.92a9.21,9.21,0,0,1,.57,1.05,10.37,10.37,0,0,1,.87,4.13,8.26,8.26,0,0,1-.05,1A10.91,10.91,0,0,1,327.22,312.77Z"/><path class="cls-3" d="M49.82,327.69v-.16a.75.75,0,0,0-.29-.59,1.07,1.07,0,0,0-.72-.25,1.12,1.12,0,0,0-.74.25.73.73,0,0,0-.3.59.54.54,0,0,0,.31.51,2.53,2.53,0,0,0,.82.34l.18,0,.21,0a4.25,4.25,0,0,1,1.72.71l.11.1a2.56,2.56,0,0,1,.57.83,2.38,2.38,0,0,1,.21,1,2.32,2.32,0,0,1-.24,1A2.46,2.46,0,0,1,51,333a3.32,3.32,0,0,1-1,.58,3.6,3.6,0,0,1-1.18.19,3.5,3.5,0,0,1-1.17-.19,3.32,3.32,0,0,1-1-.58,2.61,2.61,0,0,1-.69-.87,2.32,2.32,0,0,1-.24-1v-.16h2.1v.16a.73.73,0,0,0,.3.59,1,1,0,0,0,.7.25,1.12,1.12,0,0,0,.74-.25.73.73,0,0,0,.3-.59.67.67,0,0,0-.32-.53,1.56,1.56,0,0,0-.34-.18,2.84,2.84,0,0,0-.46-.14l-.4-.1c-.44-.11-.78-.21-1-.3a2.21,2.21,0,0,1-.69-.41l0,0a2.33,2.33,0,0,1-.63-.84,2.24,2.24,0,0,1-.23-1,2.32,2.32,0,0,1,.24-1,2.75,2.75,0,0,1,.69-.88,3.1,3.1,0,0,1,1-.57,3.51,3.51,0,0,1,1.17-.2,3.61,3.61,0,0,1,1.18.2,3.1,3.1,0,0,1,1,.57,2.58,2.58,0,0,1,.68.88,2.32,2.32,0,0,1,.24,1v.16Z"/><path class="cls-3" d="M57.2,325h2.16v8.48H57.2v-3.17H54.78v3.17H52.62V325h2.16v3.15H57.2Z"/><path class="cls-3" d="M62.48,325v8.48H60.32V325Z"/><path class="cls-3" d="M65.6,331.44h3.34v2h-5.5V325H65.6Z"/><path class="cls-3" d="M71.94,331.44h3.33v2H69.78V325h2.16Z"/><path class="cls-3" d="M78.27,325v8.48H76.11V325Z"/><path class="cls-3" d="M83.9,325h2.16v8.48H83.9l-2.5-4.55v4.55H79.23V325H81.4l2.5,4.54Z"/><path class="cls-3" d="M95.36,329.28a4.13,4.13,0,0,1-.58,2.15,4.3,4.3,0,0,1-3.72,2.14,4.19,4.19,0,0,1-2.14-.58,4.24,4.24,0,0,1-1.56-1.56,4.27,4.27,0,0,1,0-4.3,4.27,4.27,0,0,1,1.56-1.57,4.18,4.18,0,0,1,2.14-.57,4.3,4.3,0,0,1,1.68.33,4.19,4.19,0,0,1,1.37.94l-1.93,1.1a2.16,2.16,0,0,0-1.12-.3,2.12,2.12,0,0,0-1.1.3,2.22,2.22,0,0,0-.8.81,2.15,2.15,0,0,0-.3,1.11,2.09,2.09,0,0,0,.3,1.1,2.22,2.22,0,0,0,.8.81,2.12,2.12,0,0,0,1.1.3,2.15,2.15,0,0,0,1.17-.33,2.22,2.22,0,0,0,.81-.88H90.38v-2h4.86A4.59,4.59,0,0,1,95.36,329.28Z"/><path class="cls-3" d="M101.84,325v8.48H99.68V325Z"/><path class="cls-3" d="M107.47,325h2.16v8.48h-2.16l-2.5-4.55v4.55H102.8V325H105l2.5,4.54Z"/><path class="cls-3" d="M120.58,325v2.16h-2.17v6.32h-2.17v-6.32h-2.17V325h6.51Z"/><path class="cls-3" d="M128.25,325h1.87v8.48H128l-2.18-3.61-2.2,3.61h-2.16V325h2.16v4.79l1.06-1.92.06-.1h2.16l0,.1,1,1.92V325Z"/><path class="cls-3" d="M133.24,325v8.48h-2.16V325Z"/><path class="cls-3" d="M140.6,325v2.16h-2.17v6.32h-2.17v-6.32h-2.18V325h6.52Z"/><path class="cls-3" d="M147.83,325v2.16h-2.17v6.32h-2.17v-6.32h-2.17V325h6.51Z"/><path class="cls-3" d="M154.45,331.65v1.83h-5.78V325h5.67v1.83h-3.49v1.49h2.94v1.84h-2.94v1.49Z"/><path class="cls-3" d="M162.33,333.48h-2.17l-1.34-3.2h-1.39v3.2h-2V325h4a2.63,2.63,0,0,1,2.64,2.64,2.59,2.59,0,0,1-.32,1.26,2.79,2.79,0,0,1-.88,1ZM159.94,327a.78.78,0,0,0-.56-.28h-2v1.8h2a.84.84,0,0,0,.56-.3.92.92,0,0,0,0-1.22Z"/><path class="cls-3" d="M163.46,332h2l-.89,2.72h-1.79Z"/><path class="cls-3" d="M176.2,325v2.16H174v6.32h-2.17v-6.32h-2.17V325h6.51Z"/><path class="cls-3" d="M182.81,331.65v1.83H177V325h5.67v1.83h-3.5v1.49h2.94v1.84h-2.94v1.49Z"/><path class="cls-3" d="M185.93,331.44h3.34v2h-5.5V325h2.16Z"/><path class="cls-3" d="M195.88,331.65v1.83h-5.77V325h5.66v1.83h-3.49v1.49h2.94v1.84h-2.94v1.49Z"/><path class="cls-3" d="M205.18,329.28a4.22,4.22,0,0,1-.57,2.15A4.35,4.35,0,0,1,203,333a4.25,4.25,0,0,1-2.15.58,4.2,4.2,0,0,1-2.15-.58,4.24,4.24,0,0,1-1.56-1.56,4.27,4.27,0,0,1,0-4.3,4.27,4.27,0,0,1,1.56-1.57,4.19,4.19,0,0,1,2.15-.57,4.25,4.25,0,0,1,1.67.33,4.19,4.19,0,0,1,1.37.94l-1.93,1.1a2.12,2.12,0,0,0-1.11-.3,2.15,2.15,0,0,0-1.11.3,2.3,2.3,0,0,0-.8.81,2.15,2.15,0,0,0-.3,1.11,2.09,2.09,0,0,0,.3,1.1,2.3,2.3,0,0,0,.8.81,2.2,2.2,0,0,0,2.27,0,2.31,2.31,0,0,0,.82-.88H200.2v-2h4.86A4.59,4.59,0,0,1,205.18,329.28Z"/><path class="cls-3" d="M212.83,333.48h-2.18l-1.34-3.2h-1.38v3.2h-2V325h4a2.66,2.66,0,0,1,1.32.35,2.63,2.63,0,0,1,1,1,2.57,2.57,0,0,1,.36,1.32,2.5,2.5,0,0,1-.33,1.26,2.77,2.77,0,0,1-.87,1ZM210.44,327a.78.78,0,0,0-.56-.28h-2v1.8h2a.84.84,0,0,0,.56-.3.92.92,0,0,0,0-1.22Z"/><path class="cls-3" d="M218,325.08l2.77,8.4h-2.08l-.56-1.71h-2.62l-.54,1.71h-2.1l2.78-8.4ZM216,330h1.51l-.75-2.37Z"/><path class="cls-3" d="M227.51,325h2.16v8.48h-2.16v-4.79l-1,1.92-.05.1h-2.16l-.06-.1-.14-.27-.9-1.65v4.79H221V325h2.18l2.18,3.61Z"/><path class="cls-3" d="M238.65,325.08l2.77,8.4h-2.09l-.55-1.71h-2.63l-.54,1.71h-2.1l2.79-8.4ZM236.72,330h1.51l-.76-2.37Z"/><path class="cls-3" d="M246.33,325h2.16v8.48h-2.16l-2.5-4.55v4.55h-2.17V325h2.17l2.5,4.54Z"/><path class="cls-3" d="M253.17,325a4.86,4.86,0,0,1,1.28.3,3.81,3.81,0,0,1,1.17.73,4.33,4.33,0,0,1,1,1.46,4.46,4.46,0,0,1,.36,1.75,4.08,4.08,0,0,1-.47,2,3.94,3.94,0,0,1-1.31,1.5,4.52,4.52,0,0,1-1.73.67,12.37,12.37,0,0,1-2.14.16h-1.92V324.9h2.17A13.85,13.85,0,0,1,253.17,325Zm1.79,4.24a2.26,2.26,0,0,0-1.08-1.91,2.06,2.06,0,0,0-1.08-.32h-1.18v4.43a8.86,8.86,0,0,0,1.48-.11,2.38,2.38,0,0,0,1.12-.47,1.9,1.9,0,0,0,.68-1.12A2.34,2.34,0,0,0,255,329.21Z"/><path class="cls-3" d="M268.26,333.48h-2.17l-1.34-3.2h-1.38v3.2h-2V325h4a2.67,2.67,0,0,1,1.33.35,2.7,2.7,0,0,1,1,1,2.57,2.57,0,0,1,.36,1.32,2.5,2.5,0,0,1-.33,1.26,2.77,2.77,0,0,1-.87,1ZM265.88,327a.8.8,0,0,0-.57-.28h-2v1.8h2a.87.87,0,0,0,.57-.3.92.92,0,0,0,0-1.22Z"/><path class="cls-3" d="M274.76,331.65v1.83H269V325h5.66v1.83h-3.49v1.49h2.94v1.84h-2.94v1.49Z"/><path class="cls-3" d="M279.44,325a4.79,4.79,0,0,1,1.27.3,3.7,3.7,0,0,1,1.17.73,4.2,4.2,0,0,1,1,1.46,4.3,4.3,0,0,1,.37,1.75,4.2,4.2,0,0,1-.47,2,3.94,3.94,0,0,1-1.31,1.5,4.59,4.59,0,0,1-1.73.67,12.37,12.37,0,0,1-2.14.16h-1.92V324.9h2.17A14,14,0,0,1,279.44,325Zm1.78,4.24a2.21,2.21,0,0,0-.28-1.09,2.3,2.3,0,0,0-.79-.82,2.06,2.06,0,0,0-1.08-.32h-1.18v4.43a9,9,0,0,0,1.48-.11,2.42,2.42,0,0,0,1.12-.47,2,2,0,0,0,.68-1.12A2.29,2.29,0,0,0,281.22,329.21Z"/><path class="cls-3" d="M287.73,325a4.86,4.86,0,0,1,1.28.3,3.81,3.81,0,0,1,1.17.73,4.17,4.17,0,0,1,1,1.46,4.3,4.3,0,0,1,.37,1.75,4.2,4.2,0,0,1-.47,2,3.94,3.94,0,0,1-1.31,1.5,4.52,4.52,0,0,1-1.73.67,12.37,12.37,0,0,1-2.14.16H284V324.9h2.17A13.85,13.85,0,0,1,287.73,325Zm1.79,4.24a2.26,2.26,0,0,0-1.08-1.91,2.06,2.06,0,0,0-1.08-.32h-1.18v4.43a8.86,8.86,0,0,0,1.48-.11,2.38,2.38,0,0,0,1.12-.47,1.9,1.9,0,0,0,.68-1.12A2.34,2.34,0,0,0,289.52,329.21Z"/><path class="cls-3" d="M294.46,325v8.48H292.3V325Z"/><path class="cls-3" d="M301.82,325v2.16h-2.17v6.32h-2.18v-6.32H295.3V325h6.52Z"/><path class="cls-3" d="M302.74,333.13a1.17,1.17,0,0,1-.32-.82,1,1,0,0,1,.33-.78,1.07,1.07,0,0,1,.78-.33,1.14,1.14,0,0,1,1.14,1.14,1.13,1.13,0,0,1-1.14,1.14A1,1,0,0,1,302.74,333.13Z"/><path class="cls-3" d="M50.06,350.67,52.59,355h-2.4l-2.09-3.42V355H45.94v-8.48H48.1v3.31l2.09-3.31h2.4Z"/><path class="cls-3" d="M59.32,353.12V355H53.55v-8.48h5.67v1.83h-3.5v1.49h2.94v1.84H55.72v1.49Z"/><path class="cls-3" d="M64.8,346.47H67l-2.5,5V355H62.3V351.5l-2.5-5H62l1.42,2.89Z"/><path class="cls-3" d="M77.24,347a4.33,4.33,0,0,1,2.14,3.72,4.3,4.3,0,0,1-2.14,3.71,4.27,4.27,0,0,1-4.3,0,4.27,4.27,0,0,1-1.57-1.56,4.19,4.19,0,0,1-.57-2.15,4.24,4.24,0,0,1,.57-2.15A4.38,4.38,0,0,1,72.94,347a4.34,4.34,0,0,1,4.3,0Zm-1,5.63a2.27,2.27,0,0,0,.8-.8,2.15,2.15,0,0,0,.3-1.11,2.18,2.18,0,0,0-.3-1.11,2.3,2.3,0,0,0-.8-.81,2.2,2.2,0,0,0-2.22,0,2.25,2.25,0,0,0-.81.81,2.18,2.18,0,0,0-.3,1.11,2.15,2.15,0,0,0,.3,1.11,2.22,2.22,0,0,0,.81.8,2.2,2.2,0,0,0,2.22,0Z"/><path class="cls-3" d="M85.47,346.82a2.76,2.76,0,0,1,1,1,2.67,2.67,0,0,1,.35,1.33,2.62,2.62,0,0,1-1.31,2.28,2.58,2.58,0,0,1-1.33.36h-2V355h-2v-8.48h4A2.67,2.67,0,0,1,85.47,346.82Zm-.83,1.67a.82.82,0,0,0-.57-.28h-2V350h2a.85.85,0,0,0,.57-.3.92.92,0,0,0,0-1.22Z"/><path class="cls-3" d="M89.66,346.47V355H87.5v-8.48Z"/><path class="cls-3" d="M95.29,346.47h2.16V355H95.29l-2.5-4.55V355H90.62v-8.48h2.17l2.5,4.55Z"/><path class="cls-3" d="M100.57,346.47V355H98.41v-8.48Z"/><path class="cls-3" d="M107.73,347a4.27,4.27,0,0,1,1.56,1.57,4.16,4.16,0,0,1,.58,2.15,4.1,4.1,0,0,1-.58,2.15,4.17,4.17,0,0,1-1.56,1.56,4.1,4.1,0,0,1-2.15.58,4.16,4.16,0,0,1-2.15-.58,4.27,4.27,0,0,1-1.57-1.56,4.19,4.19,0,0,1-.57-2.15,4.24,4.24,0,0,1,.57-2.15,4.38,4.38,0,0,1,1.57-1.57,4.24,4.24,0,0,1,2.15-.57A4.19,4.19,0,0,1,107.73,347Zm-1,5.63a2.27,2.27,0,0,0,.8-.8,2.15,2.15,0,0,0,.3-1.11,2.18,2.18,0,0,0-.3-1.11,2.3,2.3,0,0,0-.8-.81,2.2,2.2,0,0,0-2.22,0,2.25,2.25,0,0,0-.81.81,2.18,2.18,0,0,0-.3,1.11,2.15,2.15,0,0,0,.3,1.11,2.22,2.22,0,0,0,.81.8,2.2,2.2,0,0,0,2.22,0Z"/><path class="cls-3" d="M115.26,346.47h2.16V355h-2.16l-2.5-4.55V355h-2.17v-8.48h2.17l2.5,4.55Z"/><path class="cls-3" d="M124.13,352.91h3.34v2H122v-8.48h2.16Z"/><path class="cls-3" d="M134.08,353.12V355h-5.77v-8.48H134v1.83h-3.49v1.49h2.94v1.84h-2.94v1.49Z"/><path class="cls-3" d="M139.46,346.55l2.77,8.4h-2.09l-.55-1.71H137l-.54,1.71h-2.1l2.79-8.4Zm-1.93,4.93H139l-.76-2.37Z"/><path class="cls-3" d="M146.19,346.44a4.86,4.86,0,0,1,1.28.3,3.67,3.67,0,0,1,1.17.74,4.2,4.2,0,0,1,1,1.45,4.46,4.46,0,0,1,.36,1.75,4.08,4.08,0,0,1-.47,2,3.94,3.94,0,0,1-1.31,1.5,4.52,4.52,0,0,1-1.73.67,12.29,12.29,0,0,1-2.14.17l-1,0h-.94v-8.58h2.17A13.85,13.85,0,0,1,146.19,346.44Zm1.79,4.24a2.26,2.26,0,0,0-1.08-1.91,2.06,2.06,0,0,0-1.08-.32h-1.18v4.43a8.86,8.86,0,0,0,1.48-.11,2.38,2.38,0,0,0,1.12-.47,1.9,1.9,0,0,0,.68-1.12A2.34,2.34,0,0,0,148,350.68Z"/><path class="cls-3" d="M156.53,353.12V355h-5.77v-8.48h5.67v1.83h-3.5v1.49h2.94v1.84h-2.94v1.49Z"/><path class="cls-3" d="M164.42,355h-2.17l-1.35-3.2h-1.38V355h-2v-8.48h4a2.66,2.66,0,0,1,1.32.35,2.63,2.63,0,0,1,1,3.56,2.73,2.73,0,0,1-.87.95ZM162,348.49a.78.78,0,0,0-.56-.28h-2V350h2a.84.84,0,0,0,.56-.3.89.89,0,0,0,.23-.61A.91.91,0,0,0,162,348.49Z"/><path class="cls-3" d="M169,349.16V349a.72.72,0,0,0-.29-.59,1,1,0,0,0-.71-.25,1.11,1.11,0,0,0-.74.25.72.72,0,0,0-.31.59.58.58,0,0,0,.31.52,2.9,2.9,0,0,0,.82.33l.19,0,.21.05a4.13,4.13,0,0,1,1.71.7l.11.1a2.56,2.56,0,0,1,.57.83,2.38,2.38,0,0,1,.21,1,2.46,2.46,0,0,1-.23,1,2.86,2.86,0,0,1-.68.88,3.34,3.34,0,0,1-1,.57,3.55,3.55,0,0,1-2.35,0,3.42,3.42,0,0,1-1-.57,2.86,2.86,0,0,1-.68-.88,2.32,2.32,0,0,1-.24-1v-.16H167v.16a.75.75,0,0,0,.29.59,1,1,0,0,0,.7.25,1.11,1.11,0,0,0,.74-.25.72.72,0,0,0,.31-.59.69.69,0,0,0-.33-.53,1.29,1.29,0,0,0-.33-.18,3.35,3.35,0,0,0-.47-.14l-.4-.1c-.44-.11-.78-.21-1-.3a2,2,0,0,1-.68-.41l-.05-.05a2.58,2.58,0,0,1-.63-.84,2.23,2.23,0,0,1-.22-1,2.32,2.32,0,0,1,.24-1,2.86,2.86,0,0,1,.68-.88,3.21,3.21,0,0,1,1-.57,3.55,3.55,0,0,1,2.35,0,3.14,3.14,0,0,1,1,.57,2.86,2.86,0,0,1,.68.88,2.46,2.46,0,0,1,.23,1v.16Z"/><path class="cls-3" d="M180.78,346.82a2.76,2.76,0,0,1,1,1,2.57,2.57,0,0,1,.35,1.33,2.51,2.51,0,0,1-.35,1.32,2.6,2.6,0,0,1-1,1,2.55,2.55,0,0,1-1.33.36h-2V355h-2v-8.48h4A2.64,2.64,0,0,1,180.78,346.82Zm-.83,1.67a.79.79,0,0,0-.57-.28h-2V350h2a.81.81,0,0,0,.57-.3.9.9,0,0,0,0-1.22Z"/><path class="cls-3" d="M189.74,355h-2.17l-1.35-3.2h-1.38V355h-2v-8.48h4.05a2.66,2.66,0,0,1,1.32.35,2.63,2.63,0,0,1,1,3.56,2.73,2.73,0,0,1-.87.95Zm-2.39-6.46a.78.78,0,0,0-.56-.28h-2V350h2a.84.84,0,0,0,.56-.3.89.89,0,0,0,.23-.61A.91.91,0,0,0,187.35,348.49Z"/><path class="cls-3" d="M196.66,347a4.27,4.27,0,0,1,1.56,1.57,4.16,4.16,0,0,1,.58,2.15,4.1,4.1,0,0,1-.58,2.15,4.17,4.17,0,0,1-1.56,1.56,4.1,4.1,0,0,1-2.15.58,4.16,4.16,0,0,1-2.15-.58,4.27,4.27,0,0,1-1.57-1.56,4.19,4.19,0,0,1-.57-2.15,4.24,4.24,0,0,1,.57-2.15,4.38,4.38,0,0,1,1.57-1.57,4.24,4.24,0,0,1,2.15-.57A4.19,4.19,0,0,1,196.66,347Zm-1,5.63a2.27,2.27,0,0,0,.8-.8,2.15,2.15,0,0,0,.3-1.11,2.18,2.18,0,0,0-.3-1.11,2.3,2.3,0,0,0-.8-.81,2.2,2.2,0,0,0-2.22,0,2.25,2.25,0,0,0-.81.81,2.18,2.18,0,0,0-.3,1.11,2.15,2.15,0,0,0,.3,1.11,2.22,2.22,0,0,0,.81.8,2.2,2.2,0,0,0,2.22,0Z"/><path class="cls-3" d="M206.06,346.47h2.16V355h-2.16v-4.79L205,352.08l-.05.1h-2.16l-.06-.1-.14-.27-.9-1.65V355h-2.17v-8.48h2.17l2.18,3.61Z"/><path class="cls-3" d="M215.38,347a4.27,4.27,0,0,1,1.56,1.57,4.16,4.16,0,0,1,.58,2.15,4.1,4.1,0,0,1-.58,2.15,4.17,4.17,0,0,1-1.56,1.56,4.1,4.1,0,0,1-2.15.58,4.16,4.16,0,0,1-2.15-.58,4.27,4.27,0,0,1-1.57-1.56,4.19,4.19,0,0,1-.57-2.15,4.24,4.24,0,0,1,.57-2.15,4.38,4.38,0,0,1,1.57-1.57,4.24,4.24,0,0,1,2.15-.57A4.19,4.19,0,0,1,215.38,347Zm-1,5.63a2.27,2.27,0,0,0,.8-.8,2.15,2.15,0,0,0,.3-1.11,2.18,2.18,0,0,0-.3-1.11,2.3,2.3,0,0,0-.8-.81,2.2,2.2,0,0,0-2.22,0,2.25,2.25,0,0,0-.81.81,2.18,2.18,0,0,0-.3,1.11,2.15,2.15,0,0,0,.3,1.11,2.22,2.22,0,0,0,.81.8,2.2,2.2,0,0,0,2.22,0Z"/><path class="cls-3" d="M224.63,346.47v2.16h-2.17V355h-2.17v-6.32h-2.17v-2.16h6.51Z"/><path class="cls-3" d="M227.63,346.47V355h-2.16v-8.48Z"/><path class="cls-3" d="M233.26,346.47h2.16V355h-2.16l-2.49-4.55V355h-2.18v-8.48h2.18l2.49,4.55Z"/><path class="cls-3" d="M244.72,350.75a4.22,4.22,0,0,1-.57,2.15,4.33,4.33,0,0,1-3.72,2.14,4.3,4.3,0,0,1-3.71-2.14,4.27,4.27,0,0,1,0-4.3,4.27,4.27,0,0,1,1.56-1.57,4.19,4.19,0,0,1,2.15-.57,4.25,4.25,0,0,1,1.67.33,4.35,4.35,0,0,1,1.37.94l-1.93,1.1a2.12,2.12,0,0,0-1.11-.3,2.15,2.15,0,0,0-1.11.3,2.3,2.3,0,0,0-.8.81,2.2,2.2,0,0,0,0,2.22,2.36,2.36,0,0,0,.8.8,2.2,2.2,0,0,0,2.27,0,2.31,2.31,0,0,0,.82-.88h-2.67v-2h4.86A4.59,4.59,0,0,1,244.72,350.75Z"/><path class="cls-3" d="M245.53,354.6a1.14,1.14,0,0,1-.33-.82,1,1,0,0,1,.33-.78,1.07,1.07,0,0,1,.79-.33,1.1,1.1,0,0,1,.8.34,1.07,1.07,0,0,1,.34.8,1.14,1.14,0,0,1-1.14,1.14A1,1,0,0,1,245.53,354.6Z"/><path class="cls-3" d="M52.48,367.94h2.16v8.48H52.48v-4.78l-1,1.92,0,.09H49.22l-.06-.09-.14-.28-.9-1.64v4.78H45.94v-8.48h2.18l2.18,3.61Z"/><path class="cls-3" d="M60,368l2.77,8.4H60.7l-.55-1.71H57.52L57,376.42h-2.1l2.79-8.4ZM58.09,373H59.6l-.76-2.38Z"/><path class="cls-3" d="M66.91,370.63v-.16a.73.73,0,0,0-.3-.59,1,1,0,0,0-.71-.25,1.12,1.12,0,0,0-.74.25.73.73,0,0,0-.3.59.55.55,0,0,0,.31.52,2.57,2.57,0,0,0,.81.33l.19,0,.21.05a4.11,4.11,0,0,1,1.72.71l.1.09a2.56,2.56,0,0,1,.57.83,2.38,2.38,0,0,1,.21,1,2.31,2.31,0,0,1-.23,1,2.71,2.71,0,0,1-.68.88,3,3,0,0,1-1,.57,3.52,3.52,0,0,1-2.34,0,3.1,3.1,0,0,1-1-.57A2.75,2.75,0,0,1,63,375a2.32,2.32,0,0,1-.24-1v-.16h2.1V374a.73.73,0,0,0,.3.59,1,1,0,0,0,.7.25,1.12,1.12,0,0,0,.74-.25.73.73,0,0,0,.3-.59.72.72,0,0,0-.32-.53,1.56,1.56,0,0,0-.34-.18,4.65,4.65,0,0,0-.47-.14l-.39-.1a10.25,10.25,0,0,1-1-.3,2,2,0,0,1-.69-.41l0,0a2.81,2.81,0,0,1-.63-.84,2.42,2.42,0,0,1-.22-1,2.32,2.32,0,0,1,.24-1,2.75,2.75,0,0,1,.69-.88,3.55,3.55,0,0,1,3.34-.57,3.44,3.44,0,0,1,1,.57,2.71,2.71,0,0,1,.68.88,2.31,2.31,0,0,1,.23,1v.16Z"/><path class="cls-3" d="M73.58,370.63v-.16a.75.75,0,0,0-.29-.59,1.07,1.07,0,0,0-.72-.25,1.12,1.12,0,0,0-.74.25.73.73,0,0,0-.3.59.55.55,0,0,0,.31.52,2.54,2.54,0,0,0,.82.33l.18,0,.21.05a4.11,4.11,0,0,1,1.72.71l.11.09a2.59,2.59,0,0,1,.78,1.79,2.32,2.32,0,0,1-.24,1,2.58,2.58,0,0,1-.68.88,3.1,3.1,0,0,1-1,.57,3.61,3.61,0,0,1-1.18.2,3.51,3.51,0,0,1-1.17-.2,3.1,3.1,0,0,1-1-.57,2.75,2.75,0,0,1-.69-.88,2.32,2.32,0,0,1-.24-1v-.16h2.1V374a.73.73,0,0,0,.3.59,1,1,0,0,0,.7.25,1.12,1.12,0,0,0,.74-.25.73.73,0,0,0,.3-.59.69.69,0,0,0-.32-.53,1.56,1.56,0,0,0-.34-.18,4.38,4.38,0,0,0-.46-.14l-.4-.1a10.25,10.25,0,0,1-1-.3,2,2,0,0,1-.69-.41l0,0a2.51,2.51,0,0,1-.63-.84,2.28,2.28,0,0,1-.23-1,2.32,2.32,0,0,1,.24-1,2.75,2.75,0,0,1,.69-.88,3.29,3.29,0,0,1,2.17-.76,3.6,3.6,0,0,1,1.18.19,3.51,3.51,0,0,1,1,.57,2.58,2.58,0,0,1,.68.88,2.32,2.32,0,0,1,.24,1v.16Z"/><path class="cls-3" d="M86.51,367.94h2.16v8.48H86.51v-4.78l-1.05,1.92,0,.09H83.25l-.06-.09-.14-.28-.9-1.64v4.78H80v-8.48h2.18l2.18,3.61Z"/><path class="cls-3" d="M95.41,374.59v1.83H89.63v-8.48H95.3v1.84H91.81v1.48h2.94v1.84H91.81v1.49Z"/><path class="cls-3" d="M100.09,367.91a4.88,4.88,0,0,1,1.28.31,3.74,3.74,0,0,1,1.17.73,4.34,4.34,0,0,1,.93,5.16,3.94,3.94,0,0,1-1.31,1.5,4.71,4.71,0,0,1-1.73.68,13.54,13.54,0,0,1-2.14.16h-1l-.93,0v-8.58h2.17C99.14,367.84,99.66,367.87,100.09,367.91Zm1.79,4.24a2.19,2.19,0,0,0-.29-1.08,2.42,2.42,0,0,0-.79-.83,2.17,2.17,0,0,0-1.09-.32H98.54v4.43a10.23,10.23,0,0,0,1.48-.1,2.6,2.6,0,0,0,1.12-.48,1.91,1.91,0,0,0,.68-1.11A3.49,3.49,0,0,0,101.88,372.15Z"/><path class="cls-3" d="M106.82,367.94v8.48h-2.16v-8.48Z"/><path class="cls-3" d="M112.2,368l2.77,8.4h-2.09l-.55-1.71H109.7l-.54,1.71h-2.1l2.78-8.4ZM110.26,373h1.52l-.76-2.38Z"/><path class="cls-3" d="M123.22,368l2.78,8.4h-2.09l-.56-1.71h-2.62l-.54,1.71h-2.1l2.78-8.4ZM121.29,373h1.51l-.75-2.38Z"/><path class="cls-3" d="M133.16,376.42H131l-1.35-3.2h-1.38v3.2h-2v-8.48h4a2.66,2.66,0,0,1,1.32.35,2.63,2.63,0,0,1,1,3.56,2.73,2.73,0,0,1-.87.95ZM130.77,370a.82.82,0,0,0-.56-.28h-2v1.8h2a.83.83,0,0,0,.56-.29.93.93,0,0,0,.23-.62A.91.91,0,0,0,130.77,370Z"/><path class="cls-3" d="M140.27,367.94v2.16H138.1v6.32h-2.17V370.1h-2.17v-2.16h6.51Z"/><path class="cls-3" d="M143.27,367.94v8.48h-2.16v-8.48Z"/><path class="cls-3" d="M149.13,374.25a2.52,2.52,0,0,0,.72-.48l1.46,1.47a4.31,4.31,0,0,1-1.38.93,4.28,4.28,0,0,1-3.8-.25,4.31,4.31,0,0,1-1.56-5.86,4.35,4.35,0,0,1,1.56-1.57,4.32,4.32,0,0,1,3.8-.24,4.31,4.31,0,0,1,1.38.93l-1.46,1.46a2.3,2.3,0,0,0-.72-.47,2.09,2.09,0,0,0-.85-.18,2.15,2.15,0,0,0-1.11.3,2.3,2.3,0,0,0-.8.81,2.2,2.2,0,0,0,0,2.22,2.36,2.36,0,0,0,.8.8,2.15,2.15,0,0,0,1.11.3A2.26,2.26,0,0,0,149.13,374.25Z"/><path class="cls-3" d="M154.19,374.38h3.34v2H152v-8.48h2.16Z"/><path class="cls-3" d="M164.14,374.59v1.83h-5.77v-8.48H164v1.84h-3.49v1.48h2.94v1.84h-2.94v1.49Z"/><path class="cls-3" d="M169,370.63v-.16a.73.73,0,0,0-.3-.59,1,1,0,0,0-.71-.25,1.12,1.12,0,0,0-.74.25.73.73,0,0,0-.3.59.55.55,0,0,0,.31.52,2.57,2.57,0,0,0,.81.33l.19,0,.21.05a4.11,4.11,0,0,1,1.72.71l.1.09a2.56,2.56,0,0,1,.57.83,2.38,2.38,0,0,1,.21,1,2.31,2.31,0,0,1-.23,1,2.71,2.71,0,0,1-.68.88,3,3,0,0,1-1,.57,3.52,3.52,0,0,1-2.34,0,3.1,3.1,0,0,1-1-.57,2.75,2.75,0,0,1-.69-.88,2.32,2.32,0,0,1-.24-1v-.16H167V374a.73.73,0,0,0,.3.59,1,1,0,0,0,.7.25,1.12,1.12,0,0,0,.74-.25.73.73,0,0,0,.3-.59.72.72,0,0,0-.32-.53,1.56,1.56,0,0,0-.34-.18,4.65,4.65,0,0,0-.47-.14l-.39-.1a10.25,10.25,0,0,1-1-.3,2,2,0,0,1-.69-.41l0,0a2.81,2.81,0,0,1-.63-.84,2.42,2.42,0,0,1-.22-1,2.32,2.32,0,0,1,.24-1,2.75,2.75,0,0,1,.69-.88,3.55,3.55,0,0,1,3.34-.57,3.44,3.44,0,0,1,1,.57,2.71,2.71,0,0,1,.68.88,2.31,2.31,0,0,1,.23,1v.16Z"/><path class="cls-3" d="M180.27,374.25a2.52,2.52,0,0,0,.72-.48l1.46,1.47a4.31,4.31,0,0,1-1.38.93,4.29,4.29,0,0,1-5.94-4,4.27,4.27,0,0,1,4.29-4.29,4.19,4.19,0,0,1,1.65.33,4.31,4.31,0,0,1,1.38.93L181,370.64a2.3,2.3,0,0,0-.72-.47,2.09,2.09,0,0,0-.85-.18,2.15,2.15,0,0,0-1.11.3,2.3,2.3,0,0,0-.8.81,2.2,2.2,0,0,0,0,2.22,2.36,2.36,0,0,0,.8.8,2.15,2.15,0,0,0,1.11.3A2.26,2.26,0,0,0,180.27,374.25Z"/><path class="cls-3" d="M190.1,376.42h-2.17l-1.35-3.2H185.2v3.2h-2v-8.48h4.05a2.66,2.66,0,0,1,1.32.35,2.63,2.63,0,0,1,1,3.56,2.73,2.73,0,0,1-.87.95ZM187.71,370a.82.82,0,0,0-.56-.28h-2v1.8h2a.83.83,0,0,0,.56-.29.93.93,0,0,0,.23-.62A.91.91,0,0,0,187.71,370Z"/><path class="cls-3" d="M196.59,374.59v1.83h-5.77v-8.48h5.66v1.84H193v1.48h2.94v1.84H193v1.49Z"/><path class="cls-3" d="M202,368l2.77,8.4h-2.09l-.55-1.71h-2.63l-.54,1.71h-2.1l2.78-8.4ZM200,373h1.52l-.76-2.38Z"/><path class="cls-3" d="M211.37,367.94v2.16H209.2v6.32H207V370.1h-2.17v-2.16h6.51Z"/><path class="cls-3" d="M214.37,367.94v8.48h-2.16v-8.48Z"/><path class="cls-3" d="M220,367.94h2.16v8.48H220l-2.49-4.54v4.54h-2.18v-8.48h2.18l2.49,4.55Z"/><path class="cls-3" d="M231.46,372.22a4.19,4.19,0,0,1-.57,2.15,4.27,4.27,0,0,1-1.57,1.56,4.16,4.16,0,0,1-2.15.58,4.1,4.1,0,0,1-2.15-.58,4.17,4.17,0,0,1-1.56-1.56,4.1,4.1,0,0,1-.58-2.15,4.16,4.16,0,0,1,.58-2.15A4.27,4.27,0,0,1,225,368.5a4.19,4.19,0,0,1,2.15-.57,4.25,4.25,0,0,1,1.67.33,4.35,4.35,0,0,1,1.37.94l-1.93,1.1a2.12,2.12,0,0,0-1.11-.3,2.15,2.15,0,0,0-1.11.3,2.3,2.3,0,0,0-.8.81,2.2,2.2,0,0,0,0,2.22,2.36,2.36,0,0,0,.8.8,2.2,2.2,0,0,0,2.27,0,2.31,2.31,0,0,0,.82-.88h-2.67v-2h4.86A4.59,4.59,0,0,1,231.46,372.22Z"/><path class="cls-3" d="M240.2,368l2.77,8.4h-2.09l-.55-1.71H237.7l-.54,1.71h-2.1l2.79-8.4ZM238.27,373h1.51l-.76-2.38Z"/><path class="cls-3" d="M247.88,367.94H250v8.48h-2.16l-2.5-4.54v4.54h-2.17v-8.48h2.17l2.5,4.55Z"/><path class="cls-3" d="M254.72,367.91a4.88,4.88,0,0,1,1.28.31,3.63,3.63,0,0,1,1.17.73,4.34,4.34,0,0,1,.93,5.16,3.94,3.94,0,0,1-1.31,1.5,4.78,4.78,0,0,1-1.73.68,13.45,13.45,0,0,1-2.14.16h-1l-.93,0v-8.58h2.17C253.77,367.84,254.29,367.87,254.72,367.91Zm1.78,4.24a2.18,2.18,0,0,0-.28-1.08,2.33,2.33,0,0,0-.79-.83,2.16,2.16,0,0,0-1.08-.32h-1.18v4.43a10.23,10.23,0,0,0,1.48-.1,2.55,2.55,0,0,0,1.12-.48,1.91,1.91,0,0,0,.68-1.11A2.43,2.43,0,0,0,256.5,372.15Z"/><path class="cls-3" d="M266.76,370.63v-.16a.72.72,0,0,0-.29-.59,1,1,0,0,0-.71-.25,1.11,1.11,0,0,0-.74.25.72.72,0,0,0-.31.59.56.56,0,0,0,.32.52,2.47,2.47,0,0,0,.81.33l.19,0,.21.05a4.05,4.05,0,0,1,1.71.71l.11.09a2.56,2.56,0,0,1,.57.83,2.38,2.38,0,0,1,.21,1,2.46,2.46,0,0,1-.23,1,2.86,2.86,0,0,1-.68.88,3.14,3.14,0,0,1-1,.57,3.6,3.6,0,0,1-1.17.2,3.51,3.51,0,0,1-1.17-.2,3.14,3.14,0,0,1-1-.57,2.86,2.86,0,0,1-.68-.88,2.32,2.32,0,0,1-.24-1v-.16h2.1V374a.75.75,0,0,0,.29.59,1,1,0,0,0,.71.25,1.1,1.1,0,0,0,.73-.25.72.72,0,0,0,.31-.59.7.7,0,0,0-.33-.53,1.29,1.29,0,0,0-.33-.18c-.13-.05-.29-.09-.47-.14l-.4-.1c-.43-.11-.78-.21-1-.3a2.1,2.1,0,0,1-.68-.41l-.05,0a2.81,2.81,0,0,1-.63-.84,2.27,2.27,0,0,1-.22-1,2.32,2.32,0,0,1,.24-1,2.86,2.86,0,0,1,.68-.88,3.57,3.57,0,0,1,1-.57,3.5,3.5,0,0,1,1.17-.19,3.34,3.34,0,0,1,2.18.76,2.86,2.86,0,0,1,.68.88,2.46,2.46,0,0,1,.23,1v.16Z"/><path class="cls-3" d="M274.14,367.94h2.16v8.48h-2.16v-3.16h-2.42v3.16h-2.16v-8.48h2.16v3.16h2.42Z"/><path class="cls-3" d="M281.68,368l2.77,8.4h-2.08l-.56-1.71h-2.63l-.54,1.71h-2.1l2.79-8.4ZM279.75,373h1.51l-.76-2.38Z"/><path class="cls-3" d="M291.62,376.42h-2.18l-1.34-3.2h-1.38v3.2h-2v-8.48h4.05a2.66,2.66,0,0,1,1.32.35,2.63,2.63,0,0,1,1,1,2.57,2.57,0,0,1,.36,1.32,2.53,2.53,0,0,1-.33,1.27,2.82,2.82,0,0,1-.87.95ZM289.23,370a.82.82,0,0,0-.56-.28h-2v1.8h2a.83.83,0,0,0,.56-.29.93.93,0,0,0,.23-.62A.91.91,0,0,0,289.23,370Z"/><path class="cls-3" d="M294.5,367.94v8.48h-2.16v-8.48Z"/><path class="cls-3" d="M300.13,367.94h2.16v8.48h-2.16l-2.5-4.54v4.54h-2.17v-8.48h2.17l2.5,4.55Z"/><path class="cls-3" d="M311.58,372.22a4.19,4.19,0,0,1-.57,2.15,4.27,4.27,0,0,1-1.57,1.56,4.29,4.29,0,0,1-5.86-1.56,4.2,4.2,0,0,1-.58-2.15,4.31,4.31,0,0,1,6-4,4.39,4.39,0,0,1,1.38.94l-1.94,1.1a2.1,2.1,0,0,0-1.11-.3,2.15,2.15,0,0,0-1.11.3,2.3,2.3,0,0,0-.8.81,2.2,2.2,0,0,0,0,2.22,2.36,2.36,0,0,0,.8.8,2.2,2.2,0,0,0,2.27,0,2.24,2.24,0,0,0,.82-.88H306.6v-2h4.86A4.59,4.59,0,0,1,311.58,372.22Z"/><path class="cls-3" d="M312.39,376.08a1.18,1.18,0,0,1-.33-.83,1,1,0,0,1,.33-.78,1.09,1.09,0,0,1,.79-.33,1.1,1.1,0,0,1,.8.34,1.07,1.07,0,0,1,.34.8,1.14,1.14,0,0,1-1.14,1.14A1,1,0,0,1,312.39,376.08Z"/><rect class="cls-4" x="31.7" y="266.55" width="8.5" height="8.5"/><rect class="cls-4" x="31.7" y="289.49" width="8.5" height="8.5"/><rect class="cls-4" x="31.7" y="325.31" width="8.5" height="8.5"/><rect class="cls-4" x="31.7" y="346.78" width="8.5" height="8.5"/><rect class="cls-4" x="31.7" y="368.25" width="8.5" height="8.5"/></svg>