<svg id="Слой_1" data-name="Слой 1" xmlns="http://www.w3.org/2000/svg" viewBox="0 0 405 405"><defs><style>.cls-1{fill:#fff;}.cls-2{fill:#e7335d;}</style></defs><rect class="cls-1" width="405" height="405"/><path d="M36.73,95.42a5.59,5.59,0,0,1,1.49.36,4.23,4.23,0,0,1,1.37.85,4.9,4.9,0,0,1,1.21,1.7,5.19,5.19,0,0,1,.43,2,4.86,4.86,0,0,1-.55,2.28,4.47,4.47,0,0,1-1.53,1.75,5.27,5.27,0,0,1-2,.79,14.22,14.22,0,0,1-2.5.19H33.48l-1.09,0v-10h2.54C35.63,95.34,36.23,95.37,36.73,95.42Zm2.09,5a2.49,2.49,0,0,0-.34-1.27,2.79,2.79,0,0,0-.91-1,2.48,2.48,0,0,0-1.27-.38H34.93v5.17a10.73,10.73,0,0,0,1.73-.12,3,3,0,0,0,1.3-.55,2.18,2.18,0,0,0,.79-1.3A3.36,3.36,0,0,0,38.82,100.37Z"/><path d="M48.8,103.21v2.14H42.07v-9.9h6.6V97.6H44.6v1.73H48v2.14H44.6v1.74Z"/><path d="M56.43,95.43h2.74l-3.23,9.92H52.86l-3.22-9.92h2.77l2,6.18Z"/><path d="M66.75,103.21v2.14H60v-9.9h6.61V97.6H62.55v1.73H66v2.14H62.55v1.74Z"/><path d="M70.39,103h3.89v2.38H67.87v-9.9h2.52Z"/><path d="M82.5,96.13A5,5,0,0,1,84.32,98a4.9,4.9,0,0,1,.67,2.52,4.83,4.83,0,0,1-.67,2.5,5,5,0,0,1-1.82,1.82,5,5,0,0,1-5,0A5,5,0,0,1,75.65,103a4.93,4.93,0,0,1-.67-2.5A5,5,0,0,1,75.65,98a5,5,0,0,1,6.85-1.82Zm-1.22,6.56a2.57,2.57,0,0,0,.94-.94,2.49,2.49,0,0,0,.35-1.28,2.59,2.59,0,0,0-1.29-2.24A2.41,2.41,0,0,0,80,97.88a2.43,2.43,0,0,0-1.29.35,2.59,2.59,0,0,0-1,.94,2.56,2.56,0,0,0-.35,1.3,2.49,2.49,0,0,0,.35,1.28,2.59,2.59,0,0,0,1,.94A2.43,2.43,0,0,0,80,103,2.41,2.41,0,0,0,81.28,102.69Z"/><path d="M92.1,95.87A3,3,0,0,1,93.21,97a3,3,0,0,1,.42,1.54,3.06,3.06,0,0,1-3.08,3.08H88.2v3.74H85.83v-9.9h4.72A3,3,0,0,1,92.1,95.87Zm-1,1.94a1,1,0,0,0-.67-.33H88.14v2.1h2.32a.9.9,0,0,0,.67-.34,1.08,1.08,0,0,0,.27-.72A1,1,0,0,0,91.13,97.81Z"/><path d="M102.1,95.45h2.52v9.9H102.1V99.77L100.87,102l-.06.11H98.29l-.07-.11-.17-.33-1-1.91v5.58H94.47v-9.9H97l2.55,4.22Z"/><path d="M112.47,103.21v2.14h-6.73v-9.9h6.61V97.6h-4.08v1.73h3.43v2.14h-3.43v1.74Z"/><path d="M119,95.45h2.52v9.9H119l-2.91-5.3v5.3h-2.54v-9.9h2.54l2.91,5.31Z"/><path d="M130.14,95.45V98h-2.53v7.38h-2.54V98h-2.53V95.45h7.6Z"/><path d="M142.56,96.13A5,5,0,0,1,144.38,98a4.9,4.9,0,0,1,.67,2.52,4.83,4.83,0,0,1-.67,2.5,5,5,0,0,1-1.82,1.82,5,5,0,0,1-5,0,5,5,0,0,1-1.83-1.82,4.83,4.83,0,0,1-.67-2.5,5,5,0,0,1,7.52-4.34Zm-1.22,6.56a2.65,2.65,0,0,0,.94-.94,2.49,2.49,0,0,0,.35-1.28,2.56,2.56,0,0,0-.35-1.3,2.65,2.65,0,0,0-.94-.94,2.55,2.55,0,0,0-2.58,0,2.52,2.52,0,0,0-.95.94,2.56,2.56,0,0,0-.35,1.3,2.49,2.49,0,0,0,.35,1.28,2.52,2.52,0,0,0,.95.94,2.55,2.55,0,0,0,2.58,0Z"/><path d="M152.78,97.6h-4.37v1.73h3.5v2.14h-3.5v3.88h-2.52v-9.9h6.89Z"/><path d="M163,95.55l3.23,9.8h-2.43l-.65-2h-3.06l-.63,2H157l3.24-9.8Zm-2.26,5.76h1.77l-.88-2.78Z"/><path d="M169,95.45v9.9h-2.52v-9.9Z"/><path d="M178.2,105.35h-2.53l-1.57-3.74h-1.61v3.74h-2.37v-9.9h4.72a3,3,0,0,1,1.54.42A3,3,0,0,1,177.51,97a3.09,3.09,0,0,1,.41,1.54,3,3,0,0,1-.38,1.48,3.11,3.11,0,0,1-1,1.11Zm-2.78-7.54a1,1,0,0,0-.66-.33h-2.33v2.1h2.33a1,1,0,0,0,.66-.34,1.11,1.11,0,0,0,0-1.43Z"/><path d="M183.38,95.42a5.68,5.68,0,0,1,1.49.36,4.23,4.23,0,0,1,1.37.85,5,5,0,0,1,1.21,1.7,5.19,5.19,0,0,1,.43,2,4.86,4.86,0,0,1-.55,2.28,4.47,4.47,0,0,1-1.53,1.75,5.33,5.33,0,0,1-2,.79,14.29,14.29,0,0,1-2.5.19h-1.15l-1.09,0v-10h2.54C182.28,95.34,182.88,95.37,183.38,95.42Zm2.09,5a2.49,2.49,0,0,0-.34-1.27,2.72,2.72,0,0,0-.92-1,2.45,2.45,0,0,0-1.26-.38h-1.37v5.17a10.6,10.6,0,0,0,1.72-.12,2.94,2.94,0,0,0,1.31-.55,2.23,2.23,0,0,0,.79-1.3A3.36,3.36,0,0,0,185.47,100.37Z"/><path d="M196.79,105.35h-2.53l-1.57-3.74h-1.61v3.74h-2.37v-9.9h4.72a3,3,0,0,1,1.54.42A3,3,0,0,1,196.1,97a3,3,0,0,1,.41,1.54,2.89,2.89,0,0,1-.38,1.48,3.11,3.11,0,0,1-1,1.11ZM194,97.81a1,1,0,0,0-.66-.33H191v2.1h2.32a1,1,0,0,0,.66-.34,1.11,1.11,0,0,0,0-1.43Z"/><path d="M204.87,96.13a5,5,0,0,1,2.49,4.34,4.83,4.83,0,0,1-.67,2.5,5,5,0,0,1-1.82,1.82,4.83,4.83,0,0,1-2.5.67A5,5,0,0,1,198,103a4.84,4.84,0,0,1-.68-2.5A4.91,4.91,0,0,1,198,98a4.82,4.82,0,0,1,1.82-1.82,4.91,4.91,0,0,1,2.52-.68A4.84,4.84,0,0,1,204.87,96.13Zm-1.22,6.56a2.57,2.57,0,0,0,.94-.94,2.49,2.49,0,0,0,.35-1.28,2.59,2.59,0,0,0-1.29-2.24,2.4,2.4,0,0,0-1.28-.35,2.46,2.46,0,0,0-1.3.35,2.5,2.5,0,0,0-.94.94,2.46,2.46,0,0,0-.35,1.3,2.4,2.4,0,0,0,.35,1.28,2.5,2.5,0,0,0,.94.94,2.46,2.46,0,0,0,1.3.35A2.4,2.4,0,0,0,203.65,102.69Z"/><path d="M214.47,95.87A3.08,3.08,0,0,1,215.59,97a3,3,0,0,1,.41,1.54,3.06,3.06,0,0,1-1.53,2.67,3,3,0,0,1-1.55.41h-2.35v3.74H208.2v-9.9h4.72A3,3,0,0,1,214.47,95.87Zm-1,1.94a1,1,0,0,0-.66-.33h-2.33v2.1h2.33a.9.9,0,0,0,.66-.34,1.09,1.09,0,0,0,.28-.72A1,1,0,0,0,213.5,97.81Z"/><path d="M229.12,105.35h-2.54L225,101.61h-1.61v3.74H221v-9.9h4.72a3,3,0,0,1,1.54.42,3,3,0,0,1,1.54,2.66,3,3,0,0,1-.38,1.48,3.11,3.11,0,0,1-1,1.11Zm-2.79-7.54a.92.92,0,0,0-.66-.33h-2.32v2.1h2.32a.93.93,0,0,0,.66-.34,1.08,1.08,0,0,0,0-1.43Z"/><path d="M238,95.47v6.12a3.82,3.82,0,0,1-.53,2,3.94,3.94,0,0,1-1.42,1.42,3.87,3.87,0,0,1-2,.52h-.23a3.83,3.83,0,0,1-2-.52,4,4,0,0,1-1.42-1.42,3.81,3.81,0,0,1-.52-2V95.47h2.34V101a2.36,2.36,0,0,0,.42,1.44,1.34,1.34,0,0,0,1.14.57h.23a1.36,1.36,0,0,0,1.14-.58,2.32,2.32,0,0,0,.44-1.43V95.47Z"/><path d="M241.65,103h3.89v2.38h-6.41v-9.9h2.52Z"/><path d="M253.25,103.21v2.14h-6.73v-9.9h6.61V97.6h-4.08v1.73h3.43v2.14h-3.43v1.74Z"/><path d="M258.9,98.59v-.18a.87.87,0,0,0-.35-.69,1.2,1.2,0,0,0-.83-.29,1.28,1.28,0,0,0-.86.29.85.85,0,0,0-.36.69.63.63,0,0,0,.37.6,2.92,2.92,0,0,0,.95.39l.22,0,.24.06a4.72,4.72,0,0,1,2,.83l.13.11a2.94,2.94,0,0,1,.66,1,2.7,2.7,0,0,1,0,2.33,3.06,3.06,0,0,1-.79,1,3.76,3.76,0,0,1-1.17.67,4.24,4.24,0,0,1-1.37.23,4.19,4.19,0,0,1-1.37-.23,4,4,0,0,1-1.17-.67,3.19,3.19,0,0,1-.79-1,2.7,2.7,0,0,1-.29-1.21v-.18h2.45v.18a.88.88,0,0,0,.35.7,1.24,1.24,0,0,0,.82.28,1.35,1.35,0,0,0,.86-.28.85.85,0,0,0,.35-.7.79.79,0,0,0-.37-.61,1.39,1.39,0,0,0-.4-.21c-.15-.06-.33-.11-.54-.17l-.46-.11c-.52-.13-.92-.25-1.21-.35a2.37,2.37,0,0,1-.8-.48l0,0a3.29,3.29,0,0,1-.74-1,2.67,2.67,0,0,1,0-2.36,3.19,3.19,0,0,1,.79-1,3.76,3.76,0,0,1,1.17-.66,3.94,3.94,0,0,1,1.37-.23,4,4,0,0,1,1.37.23,3.55,3.55,0,0,1,1.17.66,3.06,3.06,0,0,1,.79,1,2.72,2.72,0,0,1,.28,1.21v.18Z"/><path d="M262.63,103.63H265l-1,3.16h-2.08Z"/><path d="M275.75,102.81a2.66,2.66,0,0,0,.84-.55L278.3,104a5.18,5.18,0,0,1-1.61,1.08,5,5,0,0,1-4.44-.29,5,5,0,0,1-1.82-1.82,5,5,0,0,1,0-5,5.07,5.07,0,0,1,1.82-1.83,4.87,4.87,0,0,1,2.51-.67,4.91,4.91,0,0,1,3.54,1.47l-1.71,1.7a2.84,2.84,0,0,0-.84-.55,2.61,2.61,0,0,0-1-.2,2.5,2.5,0,0,0-1.29.35,2.73,2.73,0,0,0-.94.94,2.56,2.56,0,0,0-.35,1.3,2.52,2.52,0,0,0,.35,1.29,2.7,2.7,0,0,0,.94.93,2.41,2.41,0,0,0,1.29.35A2.43,2.43,0,0,0,275.75,102.81Z"/><path d="M287.22,105.35h-2.54l-1.56-3.74h-1.61v3.74h-2.37v-9.9h4.72a3,3,0,0,1,1.54.42,3,3,0,0,1,1.54,2.66,3,3,0,0,1-.38,1.48,3.11,3.11,0,0,1-1,1.11Zm-2.79-7.54a.94.94,0,0,0-.66-.33h-2.32v2.1h2.32a1,1,0,0,0,.66-.34,1.08,1.08,0,0,0,0-1.43Z"/><path d="M294.79,103.21v2.14h-6.73v-9.9h6.61V97.6h-4.08v1.73H294v2.14h-3.43v1.74Z"/><path d="M301.06,95.55l3.24,9.8h-2.44l-.64-2h-3.07l-.63,2h-2.45l3.25-9.8Zm-2.25,5.76h1.76l-.88-2.78Z"/><path d="M312,95.45V98h-2.53v7.38H307V98h-2.53V95.45H312Z"/><path d="M315.54,95.45v9.9H313v-9.9Z"/><path d="M323.9,96.13A5,5,0,0,1,325.72,98a4.9,4.9,0,0,1,.67,2.52,4.83,4.83,0,0,1-.67,2.5,5,5,0,0,1-1.82,1.82,5,5,0,0,1-5,0,5,5,0,0,1-1.83-1.82,4.83,4.83,0,0,1-.67-2.5,5,5,0,0,1,7.52-4.34Zm-1.22,6.56a2.65,2.65,0,0,0,.94-.94,2.49,2.49,0,0,0,.35-1.28,2.56,2.56,0,0,0-.35-1.3,2.65,2.65,0,0,0-.94-.94,2.41,2.41,0,0,0-1.29-.35,2.43,2.43,0,0,0-1.29.35,2.52,2.52,0,0,0-1,.94,2.56,2.56,0,0,0-.35,1.3,2.49,2.49,0,0,0,.35,1.28,2.52,2.52,0,0,0,1,.94,2.43,2.43,0,0,0,1.29.35A2.41,2.41,0,0,0,322.68,102.69Z"/><path d="M332.68,95.45h2.52v9.9h-2.52l-2.92-5.3v5.3h-2.53v-9.9h2.53l2.92,5.31Z"/><path d="M347.75,96.13A4.82,4.82,0,0,1,349.57,98a4.91,4.91,0,0,1,.68,2.52,4.84,4.84,0,0,1-.68,2.5,4.89,4.89,0,0,1-1.82,1.82,4.83,4.83,0,0,1-2.5.67,4.9,4.9,0,0,1-2.52-.67,5,5,0,0,1-1.82-1.82,4.83,4.83,0,0,1-.67-2.5,5,5,0,0,1,5-5A4.84,4.84,0,0,1,347.75,96.13Zm-1.21,6.56a2.54,2.54,0,0,0,.93-.94,2.4,2.4,0,0,0,.35-1.28,2.46,2.46,0,0,0-.35-1.3,2.54,2.54,0,0,0-.93-.94,2.57,2.57,0,0,0-2.59,0,2.57,2.57,0,0,0-.94.94,2.46,2.46,0,0,0-.35,1.3,2.4,2.4,0,0,0,.35,1.28,2.57,2.57,0,0,0,.94.94,2.57,2.57,0,0,0,2.59,0Z"/><path d="M358,97.6h-4.36v1.73h3.5v2.14h-3.5v3.88h-2.52v-9.9H358Z"/><path d="M37.54,112.35l3.24,9.8H38.34l-.64-2H34.63l-.63,2H31.55l3.25-9.8Zm-2.25,5.76h1.76l-.88-2.78Z"/><path d="M52.72,112.25v2.52H50.19v7.38H47.65v-7.38H45.12v-2.52h7.6Z"/><path d="M60.43,120v2.14H53.7v-9.9h6.61v2.15H56.23v1.73h3.43v2.14H56.23V120Z"/><path d="M64.07,119.77H68v2.38H61.55v-9.9h2.52Z"/><path d="M75.68,120v2.14H69v-9.9h6.6v2.15H71.48v1.73h3.43v2.14H71.48V120Z"/><path d="M86.53,117.25a4.87,4.87,0,0,1-.67,2.51A5.07,5.07,0,0,1,84,121.58a5,5,0,0,1-5,0,5.12,5.12,0,0,1-1.82-1.82,5,5,0,0,1,0-5A5.07,5.07,0,0,1,79,112.91a4.87,4.87,0,0,1,2.51-.67,4.93,4.93,0,0,1,3.55,1.48L82.82,115a2.53,2.53,0,0,0-1.3-.35,2.5,2.5,0,0,0-1.29.35,2.76,2.76,0,0,0-.94.95,2.52,2.52,0,0,0-.35,1.29,2.5,2.5,0,0,0,.35,1.29,2.73,2.73,0,0,0,.94.94,2.56,2.56,0,0,0,2.65,0,2.62,2.62,0,0,0,1-1H80.72v-2.32h5.67A5.62,5.62,0,0,1,86.53,117.25Z"/><path d="M95.45,122.15H92.91l-1.56-3.74H89.74v3.74H87.37v-9.9h4.72a3,3,0,0,1,1.54.42,3,3,0,0,1,1.54,2.66,3,3,0,0,1-.38,1.48,3.11,3.11,0,0,1-1,1.11Zm-2.79-7.54a.92.92,0,0,0-.66-.33H89.68v2.1H92a.93.93,0,0,0,.66-.34,1.08,1.08,0,0,0,0-1.43Z"/><path d="M101.44,112.35l3.23,9.8h-2.43l-.65-2H98.53l-.63,2H95.45l3.25-9.8Zm-2.25,5.76H101l-.88-2.78Z"/><path d="M112.58,112.25h2.52v9.9h-2.52v-5.58l-1.23,2.24,0,.11h-2.52l-.07-.11-.17-.33-1.05-1.91v5.58H105v-9.9h2.53l2.55,4.22Z"/><path d="M127.89,118a2.87,2.87,0,0,1,.32,1.33,2.82,2.82,0,0,1-.38,1.42,2.75,2.75,0,0,1-1,1,2.82,2.82,0,0,1-1.43.4h-5v-9.9h4.5a2.73,2.73,0,0,1,1.44.39,2.9,2.9,0,0,1,1,1,2.8,2.8,0,0,1,.17,2.43,2.63,2.63,0,0,1-.55.87A2.85,2.85,0,0,1,127.89,118Zm-2.61-3.4a1,1,0,0,0-.73-.3h-1.82v2.1h1.82l.34-.06a.58.58,0,0,0,.25-.14,1,1,0,0,0,.32-.37,1,1,0,0,0,.12-.49A1,1,0,0,0,125.28,114.57Zm.42,5.23a1,1,0,0,0,.28-.74,1,1,0,0,0-.24-.67,1,1,0,0,0-.6-.35s-.72,0-2,0h-.42v2.1H125A1,1,0,0,0,125.7,119.8Z"/><path d="M136.29,112.93a5,5,0,0,1,1.82,6.84,5,5,0,0,1-1.82,1.82,5,5,0,0,1-5,0,5,5,0,0,1-1.83-1.82,4.83,4.83,0,0,1-.67-2.5,5,5,0,0,1,7.52-4.34Zm-1.22,6.56a2.65,2.65,0,0,0,.94-.94,2.49,2.49,0,0,0,.35-1.28A2.56,2.56,0,0,0,136,116a2.65,2.65,0,0,0-.94-.94,2.55,2.55,0,0,0-2.58,0,2.52,2.52,0,0,0-1,.94,2.56,2.56,0,0,0-.35,1.3,2.49,2.49,0,0,0,.35,1.28,2.52,2.52,0,0,0,1,.94,2.55,2.55,0,0,0,2.58,0Z"/><path d="M147.08,112.25v2.52h-2.53v7.38H142v-7.38h-2.53v-2.52h7.6Z"/><path d="M148.54,120.43h2.36l-1,3.16h-2.09Z"/><path d="M163.4,118a2.76,2.76,0,0,1,.33,1.33,2.83,2.83,0,0,1-1.41,2.45,2.86,2.86,0,0,1-1.44.4h-4.94v-9.9h4.5a2.73,2.73,0,0,1,1.44.39,2.88,2.88,0,0,1,1,1,2.72,2.72,0,0,1,.37,1.4,2.74,2.74,0,0,1-.74,1.9A2.82,2.82,0,0,1,163.4,118Zm-2.61-3.4a1,1,0,0,0-.72-.3h-1.82v2.1h1.82l.34-.06a.65.65,0,0,0,.25-.14,1,1,0,0,0,.32-.37,1,1,0,0,0,.11-.49A1,1,0,0,0,160.79,114.57Zm.42,5.23a1,1,0,0,0,.29-.74,1,1,0,0,0-.24-.67,1,1,0,0,0-.6-.35c-.06,0-.72,0-2,0h-.42v2.1h2.24A1,1,0,0,0,161.21,119.8Z"/><path d="M171.8,112.93a4.82,4.82,0,0,1,1.82,1.82,4.9,4.9,0,0,1,.67,2.52,4.83,4.83,0,0,1-.67,2.5,4.89,4.89,0,0,1-1.82,1.82,4.83,4.83,0,0,1-2.5.67,4.9,4.9,0,0,1-2.52-.67,5,5,0,0,1-1.82-1.82,4.83,4.83,0,0,1-.67-2.5,5,5,0,0,1,5-5A4.84,4.84,0,0,1,171.8,112.93Zm-1.21,6.56a2.54,2.54,0,0,0,.93-.94,2.4,2.4,0,0,0,.35-1.28,2.46,2.46,0,0,0-.35-1.3,2.54,2.54,0,0,0-.93-.94,2.57,2.57,0,0,0-2.59,0,2.57,2.57,0,0,0-.94.94,2.46,2.46,0,0,0-.35,1.3,2.4,2.4,0,0,0,.35,1.28,2.57,2.57,0,0,0,.94.94,2.57,2.57,0,0,0,2.59,0Z"/><path d="M182.6,112.25v2.52h-2.54v7.38h-2.53v-7.38H175v-2.52h7.6Z"/><path d="M195.41,112.25h2.52v9.9h-2.52v-5.58l-1.24,2.24,0,.11H191.6l-.07-.11-.17-.33-1.05-1.91v5.58h-2.53v-9.9h2.53l2.55,4.22Z"/><path d="M204.2,112.35l3.23,9.8H205l-.65-2h-3.06l-.63,2h-2.45l3.25-9.8ZM202,118.11h1.76l-.88-2.78Z"/><path d="M213.16,112.25h2.52v9.9h-2.52l-2.91-5.3v5.3h-2.54v-9.9h2.54l2.91,5.31Z"/><path d="M222,112.35l3.23,9.8h-2.43l-.64-2H219l-.63,2H216l3.25-9.8Zm-2.25,5.76h1.76l-.88-2.78Z"/><path d="M235.2,117.25a4.87,4.87,0,0,1-.68,2.51,5,5,0,0,1-1.82,1.82,4.9,4.9,0,0,1-2.52.67,4.83,4.83,0,0,1-2.5-.67,5,5,0,0,1-1.82-1.82,5,5,0,0,1,4.32-7.52,4.93,4.93,0,0,1,3.56,1.48L231.48,115a2.51,2.51,0,0,0-1.3-.35,2.55,2.55,0,0,0-1.29.35,2.65,2.65,0,0,0-.93.95,2.43,2.43,0,0,0-.35,1.29,2.41,2.41,0,0,0,.35,1.29,2.62,2.62,0,0,0,.93.94,2.55,2.55,0,0,0,1.29.35,2.48,2.48,0,0,0,1.36-.39,2.55,2.55,0,0,0,1-1h-3.11v-2.32h5.67A5.06,5.06,0,0,1,235.2,117.25Z"/><path d="M242.77,120v2.14H236v-9.9h6.6v2.15h-4.07v1.73H242v2.14h-3.43V120Z"/><path d="M251.52,112.25H254v9.9h-2.52v-5.58l-1.23,2.24-.06.11h-2.52l-.07-.11-.17-.33-1.05-1.91v5.58h-2.53v-9.9h2.53l2.55,4.22Z"/><path d="M261.89,120v2.14h-6.73v-9.9h6.61v2.15h-4.08v1.73h3.43v2.14h-3.43V120Z"/><path d="M268.46,112.25H271v9.9h-2.52l-2.91-5.3v5.3H263v-9.9h2.54l2.91,5.31Z"/><path d="M279.56,112.25v2.52H277v7.38h-2.54v-7.38H272v-2.52h7.6Z"/><path d="M281,120.43h2.36l-1,3.16h-2.09Z"/><path d="M296.47,112.27v6.12a3.81,3.81,0,0,1-.52,2,4,4,0,0,1-1.43,1.42,3.84,3.84,0,0,1-2,.52h-.22a3.78,3.78,0,0,1-2-.52,3.94,3.94,0,0,1-1.42-1.42,3.82,3.82,0,0,1-.53-2v-6.12h2.34v5.56a2.36,2.36,0,0,0,.42,1.44,1.35,1.35,0,0,0,1.15.57h.22a1.35,1.35,0,0,0,1.14-.58,2.26,2.26,0,0,0,.44-1.43v-5.56Z"/><path d="M302.11,115.39v-.18a.86.86,0,0,0-.34-.69,1.22,1.22,0,0,0-.83-.29,1.26,1.26,0,0,0-.86.29.85.85,0,0,0-.36.69.64.64,0,0,0,.36.6,3,3,0,0,0,1,.39l.21,0,.25.06a4.78,4.78,0,0,1,2,.83l.13.11a2.94,2.94,0,0,1,.66,1,2.88,2.88,0,0,1,.25,1.12,2.69,2.69,0,0,1-.28,1.21,3.06,3.06,0,0,1-.79,1,3.88,3.88,0,0,1-1.17.67,4.25,4.25,0,0,1-1.38.23,4.13,4.13,0,0,1-1.36-.23,3.88,3.88,0,0,1-1.17-.67,3.23,3.23,0,0,1-.8-1,2.69,2.69,0,0,1-.28-1.21v-.18h2.45v.18a.88.88,0,0,0,.35.7,1.21,1.21,0,0,0,.81.28,1.35,1.35,0,0,0,.87-.28.88.88,0,0,0,.35-.7.78.78,0,0,0-.38-.61,1.22,1.22,0,0,0-.39-.21c-.15-.06-.33-.11-.54-.17l-.47-.11c-.51-.13-.91-.25-1.2-.35a2.28,2.28,0,0,1-.8-.48l-.05,0a3.13,3.13,0,0,1-.74-1,2.71,2.71,0,0,1,0-2.36,3.23,3.23,0,0,1,.8-1,3.65,3.65,0,0,1,1.17-.66,3.89,3.89,0,0,1,1.36-.23,4,4,0,0,1,1.38.23,3.65,3.65,0,0,1,1.17.66,3.06,3.06,0,0,1,.79,1,2.72,2.72,0,0,1,.28,1.21v.18Z"/><path d="M312.11,120v2.14h-6.73v-9.9H312v2.15h-4.07v1.73h3.43v2.14h-3.43V120Z"/><path d="M321.31,122.15h-2.54l-1.56-3.74H315.6v3.74h-2.37v-9.9H318a3,3,0,0,1,1.54.42,3,3,0,0,1,1.54,2.66,3,3,0,0,1-.38,1.48,3.11,3.11,0,0,1-1,1.11Zm-2.79-7.54a.94.94,0,0,0-.66-.33h-2.32v2.1h2.32a1,1,0,0,0,.66-.34,1.08,1.08,0,0,0,0-1.43Z"/><path d="M36.92,132.19V132a.9.9,0,0,0-.35-.7,1.25,1.25,0,0,0-.83-.28,1.33,1.33,0,0,0-.86.28.89.89,0,0,0-.36.7.64.64,0,0,0,.36.6,3.09,3.09,0,0,0,1,.39l.21,0,.25.06a4.78,4.78,0,0,1,2,.83l.13.11a2.94,2.94,0,0,1,.66,1,2.7,2.7,0,0,1,0,2.33,3.06,3.06,0,0,1-.79,1,3.76,3.76,0,0,1-1.17.67,4.25,4.25,0,0,1-1.38.23,4.13,4.13,0,0,1-1.36-.23,4,4,0,0,1-1.17-.67,3.38,3.38,0,0,1-.8-1,2.82,2.82,0,0,1-.28-1.21v-.18h2.45v.18a.88.88,0,0,0,.35.7,1.21,1.21,0,0,0,.81.28,1.35,1.35,0,0,0,.87-.28.88.88,0,0,0,.35-.7.78.78,0,0,0-.38-.61,1.22,1.22,0,0,0-.39-.21c-.15-.06-.33-.11-.54-.17l-.46-.11c-.52-.13-.92-.25-1.21-.35a2.37,2.37,0,0,1-.8-.48l0-.05a3.13,3.13,0,0,1-.74-1,2.72,2.72,0,0,1-.26-1.15,2.86,2.86,0,0,1,.28-1.21,3.38,3.38,0,0,1,.8-1,3.76,3.76,0,0,1,1.17-.66,3.89,3.89,0,0,1,1.36-.23,4,4,0,0,1,1.38.23,3.55,3.55,0,0,1,1.17.66,3.06,3.06,0,0,1,.79,1,2.72,2.72,0,0,1,.28,1.21v.18Z"/><path d="M48.23,129.07v6.12a3.82,3.82,0,0,1-.53,2,3.9,3.9,0,0,1-1.43,1.42,3.81,3.81,0,0,1-2,.52h-.23a3.81,3.81,0,0,1-2-.52,4,4,0,0,1-1.42-1.42,3.81,3.81,0,0,1-.52-2v-6.12h2.34v5.56a2.36,2.36,0,0,0,.42,1.44,1.33,1.33,0,0,0,1.14.57h.23a1.38,1.38,0,0,0,1.14-.58,2.32,2.32,0,0,0,.44-1.43v-5.56Z"/><path d="M55.61,129.47a3,3,0,0,1,1.12,1.12,2.94,2.94,0,0,1,.41,1.54,3,3,0,0,1-.41,1.55,3,3,0,0,1-1.12,1.12,3,3,0,0,1-1.55.41H51.71V139H49.35v-9.9h4.71A3,3,0,0,1,55.61,129.47Zm-1,1.94a1,1,0,0,0-.67-.33H51.66v2.1H54a.93.93,0,0,0,.67-.34,1.08,1.08,0,0,0,.27-.72A1,1,0,0,0,54.65,131.41Z"/><path d="M64.25,129.47a3.08,3.08,0,0,1,1.12,1.12,3,3,0,0,1,.41,1.54,3.06,3.06,0,0,1-1.53,2.67,3,3,0,0,1-1.55.41H60.35V139H58v-9.9H62.7A3,3,0,0,1,64.25,129.47Zm-1,1.94a1,1,0,0,0-.66-.33H60.29v2.1h2.33a.9.9,0,0,0,.66-.34,1,1,0,0,0,.28-.72A1,1,0,0,0,63.28,131.41Z"/><path d="M73.86,129.73a5,5,0,0,1,2.49,4.34,4.83,4.83,0,0,1-.67,2.5,5,5,0,0,1-1.82,1.82,4.84,4.84,0,0,1-2.51.67,4.89,4.89,0,0,1-2.51-.67A5,5,0,0,1,67,136.57a4.93,4.93,0,0,1-.67-2.5,5,5,0,0,1,.67-2.52,5.06,5.06,0,0,1,4.34-2.5A4.85,4.85,0,0,1,73.86,129.73Zm-1.22,6.56a2.59,2.59,0,0,0,1.29-2.22,2.56,2.56,0,0,0-.35-1.3,2.5,2.5,0,0,0-.94-.94,2.41,2.41,0,0,0-1.29-.35,2.45,2.45,0,0,0-1.29.35,2.59,2.59,0,0,0-1,.94,2.56,2.56,0,0,0-.35,1.3,2.49,2.49,0,0,0,.35,1.28,2.59,2.59,0,0,0,1,.94,2.45,2.45,0,0,0,1.29.35A2.41,2.41,0,0,0,72.64,136.29Z"/><path d="M85.27,139H82.74l-1.57-3.74H79.56V139H77.19v-9.9h4.72a3,3,0,0,1,1.54.42,3,3,0,0,1,1.13,1.12,3.09,3.09,0,0,1,.41,1.54,3,3,0,0,1-.38,1.48,3.11,3.11,0,0,1-1,1.11Zm-2.79-7.54a.92.92,0,0,0-.65-.33H79.5v2.1h2.33a.93.93,0,0,0,.65-.34,1.08,1.08,0,0,0,0-1.43Z"/><path d="M93.57,129.05v2.52H91V139H88.5v-7.38H86v-2.52h7.6Z"/><path d="M95,137.23h2.36l-1,3.16H94.27Z"/><path d="M110.06,129.05h2.52V139h-2.52v-5.58l-1.23,2.24,0,.11h-2.52l-.07-.11-.17-.33-1-1.91V139h-2.54v-9.9H105l2.55,4.22Z"/><path d="M118.86,129.15l3.23,9.8h-2.44l-.64-2h-3.07l-.63,2h-2.45l3.25-9.8Zm-2.26,5.76h1.77l-.89-2.78Z"/><path d="M130.45,139h-2.54l-1.56-3.74h-1.61V139h-2.37v-9.9h4.72a3.08,3.08,0,0,1,2.7,4.56,3.11,3.11,0,0,1-1,1.11Zm-2.79-7.54a1,1,0,0,0-.66-.33h-2.32v2.1H127a1,1,0,0,0,.66-.34,1.08,1.08,0,0,0,0-1.43Z"/><path d="M136.09,134l2.95,5h-2.8l-2.43-4v4h-2.52v-9.9h2.52v3.87l2.43-3.87H139Z"/><path d="M146.9,136.81V139h-6.74v-9.9h6.61v2.15H142.7v1.73h3.43v2.14H142.7v1.74Z"/><path d="M155.48,129.05v2.52H153V139h-2.54v-7.38h-2.53v-2.52h7.6Z"/><path d="M159,129.05V139h-2.52v-9.9Z"/><path d="M165.54,129.05h2.53V139h-2.53l-2.91-5.3V139H160.1v-9.9h2.53l2.91,5.31Z"/><path d="M178.92,134.05a4.87,4.87,0,0,1-.68,2.51,5,5,0,0,1-1.82,1.82,4.9,4.9,0,0,1-2.52.67,4.83,4.83,0,0,1-2.5-.67,5,5,0,0,1-1.82-1.82,5,5,0,0,1,0-5,5,5,0,0,1,1.82-1.83,4.83,4.83,0,0,1,2.5-.67,5,5,0,0,1,2,.39,5,5,0,0,1,1.6,1.09l-2.25,1.29a2.57,2.57,0,0,0-1.31-.35,2.49,2.49,0,0,0-1.28.35,2.59,2.59,0,0,0-.94.95,2.43,2.43,0,0,0-.35,1.29,2.41,2.41,0,0,0,.35,1.29,2.65,2.65,0,0,0,.94.94,2.54,2.54,0,0,0,2.64,0,2.55,2.55,0,0,0,1-1h-3.1v-2.32h5.67A5.62,5.62,0,0,1,178.92,134.05Z"/><path d="M185.44,139.83a12.61,12.61,0,0,1-1.43-4.6,11.39,11.39,0,0,1,0-1.21,11.57,11.57,0,0,1,.27-2.54,10.48,10.48,0,0,1,.75-2.26,12,12,0,0,1,.65-1.23l1.53,1.06-.26.47a9.51,9.51,0,0,0-.45,1A8.93,8.93,0,0,0,186,132a10.24,10.24,0,0,0-.21,2.07c0,.41,0,.76.05,1.07a10.93,10.93,0,0,0,1.22,3.88Z"/><path d="M193.43,129.15l3.24,9.8h-2.44l-.64-2h-3.07l-.63,2h-2.45l3.25-9.8Zm-2.25,5.76h1.76l-.88-2.78Z"/><path d="M201.29,129a5.68,5.68,0,0,1,1.49.36,4.18,4.18,0,0,1,1.36.85,4.77,4.77,0,0,1,1.21,1.7,5,5,0,0,1,.43,2,4.74,4.74,0,0,1-.55,2.28A4.47,4.47,0,0,1,203.7,138a5.29,5.29,0,0,1-2,.79,14.37,14.37,0,0,1-2.5.19H198L197,139v-10h2.53C200.18,128.94,200.78,129,201.29,129Zm2.08,4.95a2.59,2.59,0,0,0-.33-1.27,2.65,2.65,0,0,0-.92-1,2.48,2.48,0,0,0-1.27-.38h-1.37v5.17a10.73,10.73,0,0,0,1.73-.12,2.9,2.9,0,0,0,1.3-.55,2.21,2.21,0,0,0,.79-1.3A2.62,2.62,0,0,0,203.37,134Z"/><path d="M211,129a5.68,5.68,0,0,1,1.49.36,4.23,4.23,0,0,1,1.37.85,5,5,0,0,1,1.21,1.7,5.19,5.19,0,0,1,.43,2,4.86,4.86,0,0,1-.55,2.28,4.47,4.47,0,0,1-1.53,1.75,5.4,5.4,0,0,1-2,.79,14.29,14.29,0,0,1-2.5.19h-1.15l-1.09,0v-10h2.53C209.85,128.94,210.46,129,211,129Zm2.09,4.95a2.6,2.6,0,0,0-.34-1.27,2.57,2.57,0,0,0-.92-1,2.45,2.45,0,0,0-1.26-.38h-1.38v5.17a10.65,10.65,0,0,0,1.73-.12,3,3,0,0,0,1.31-.55,2.26,2.26,0,0,0,.79-1.3A3.36,3.36,0,0,0,213.05,134Z"/><path d="M218.81,129.05V139h-2.52v-9.9Z"/><path d="M227.4,129.05v2.52h-2.54V139h-2.53v-7.38h-2.54v-2.52h7.61Z"/><path d="M230.9,129.05V139h-2.52v-9.9Z"/><path d="M239.25,129.73a4.82,4.82,0,0,1,1.82,1.82,4.91,4.91,0,0,1,.68,2.52,4.84,4.84,0,0,1-.68,2.5,4.89,4.89,0,0,1-1.82,1.82,5,5,0,0,1-5,0,4.92,4.92,0,0,1-1.83-1.82,4.83,4.83,0,0,1-.67-2.5,4.9,4.9,0,0,1,.67-2.52,5,5,0,0,1,6.84-1.82ZM238,136.29a2.54,2.54,0,0,0,.93-.94,2.4,2.4,0,0,0,.35-1.28,2.46,2.46,0,0,0-.35-1.3,2.54,2.54,0,0,0-.93-.94,2.57,2.57,0,0,0-2.59,0,2.59,2.59,0,0,0-1.29,2.24,2.49,2.49,0,0,0,.35,1.28,2.57,2.57,0,0,0,.94.94,2.57,2.57,0,0,0,2.59,0Z"/><path d="M248,129.05h2.52V139H248l-2.91-5.3V139h-2.53v-9.9h2.53l2.91,5.31Z"/><path d="M256.82,129.15l3.24,9.8h-2.44l-.64-2h-3.07l-.63,2h-2.45l3.25-9.8Zm-2.25,5.76h1.76l-.88-2.78Z"/><path d="M262.86,136.57h3.89V139h-6.41v-9.9h2.52Z"/><path d="M277.08,129.15l3.24,9.8h-2.44l-.64-2h-3.07l-.63,2h-2.45l3.25-9.8Zm-2.25,5.76h1.76l-.88-2.78Z"/><path d="M284.94,129a5.68,5.68,0,0,1,1.49.36,4.18,4.18,0,0,1,1.36.85,4.9,4.9,0,0,1,1.21,1.7,5,5,0,0,1,.43,2,4.74,4.74,0,0,1-.55,2.28,4.47,4.47,0,0,1-1.53,1.75,5.27,5.27,0,0,1-2,.79,14.17,14.17,0,0,1-2.49.19h-1.15l-1.09,0v-10h2.53C283.83,128.94,284.43,129,284.94,129ZM287,134a2.59,2.59,0,0,0-.33-1.27,2.65,2.65,0,0,0-.92-1,2.48,2.48,0,0,0-1.27-.38h-1.37v5.17a10.73,10.73,0,0,0,1.73-.12,3,3,0,0,0,1.3-.55,2.21,2.21,0,0,0,.79-1.3A2.62,2.62,0,0,0,287,134Z"/><path d="M296.78,129h2.74L296.29,139h-3.08L290,129h2.77l2,6.18Z"/><path d="M307.1,136.81V139h-6.74v-9.9H307v2.15H302.9v1.73h3.43v2.14H302.9v1.74Z"/><path d="M316.3,139h-2.54l-1.57-3.74h-1.61V139h-2.36v-9.9h4.72a3.08,3.08,0,0,1,2.7,4.56,3.2,3.2,0,0,1-1,1.11Zm-2.79-7.54a1,1,0,0,0-.66-.33h-2.32v2.1h2.32a1,1,0,0,0,.66-.34,1.08,1.08,0,0,0,0-1.43Z"/><path d="M324.6,129.05v2.52h-2.54V139h-2.53v-7.38H317v-2.52h7.6Z"/><path d="M328.1,129.05V139h-2.52v-9.9Z"/><path d="M333.74,132.19V132a.89.89,0,0,0-.34-.7,1.27,1.27,0,0,0-.84-.28,1.35,1.35,0,0,0-.86.28.87.87,0,0,0-.35.7.64.64,0,0,0,.36.6,2.92,2.92,0,0,0,1,.39l.22,0,.24.06a4.84,4.84,0,0,1,2,.83l.12.11a3.13,3.13,0,0,1,.67,1,2.86,2.86,0,0,1,.24,1.12,2.81,2.81,0,0,1-.27,1.21,3.19,3.19,0,0,1-.79,1,3.93,3.93,0,0,1-1.18.67,4.2,4.2,0,0,1-2.74,0,3.83,3.83,0,0,1-1.16-.67,3.09,3.09,0,0,1-.8-1,2.69,2.69,0,0,1-.28-1.21v-.18h2.45v.18a.87.87,0,0,0,.34.7,1.24,1.24,0,0,0,.82.28,1.33,1.33,0,0,0,.86-.28.86.86,0,0,0,.36-.7.8.8,0,0,0-.38-.61,1.22,1.22,0,0,0-.39-.21,5.31,5.31,0,0,0-.55-.17L332,135c-.51-.13-.92-.25-1.2-.35a2.28,2.28,0,0,1-.8-.48l-.06-.05a3.1,3.1,0,0,1-.73-1,2.58,2.58,0,0,1-.26-1.15,2.72,2.72,0,0,1,.28-1.21,3.09,3.09,0,0,1,.8-1,3.6,3.6,0,0,1,1.16-.66,4.2,4.2,0,0,1,2.74,0,3.7,3.7,0,0,1,1.18.66,3.19,3.19,0,0,1,.79,1,2.85,2.85,0,0,1,.27,1.21v.18Z"/><path d="M339.52,129.05V139H337v-9.9Z"/><path d="M346.09,129.05h2.52V139h-2.52l-2.91-5.3V139h-2.54v-9.9h2.54l2.91,5.31Z"/><path d="M359.46,134.05a5,5,0,0,1-.67,2.51,5.07,5.07,0,0,1-1.83,1.82,5,5,0,0,1-5,0,5,5,0,0,1-1.82-1.82,5,5,0,0,1,0-5,5,5,0,0,1,1.82-1.83,4.87,4.87,0,0,1,2.51-.67,4.92,4.92,0,0,1,1.95.39,5,5,0,0,1,1.6,1.09l-2.25,1.29a2.53,2.53,0,0,0-1.3-.35,2.5,2.5,0,0,0-1.29.35,2.67,2.67,0,0,0-.94.95,2.52,2.52,0,0,0-.35,1.29,2.5,2.5,0,0,0,.35,1.29,2.73,2.73,0,0,0,.94.94,2.5,2.5,0,0,0,1.29.35,2.47,2.47,0,0,0,1.35-.39,2.65,2.65,0,0,0,1-1h-3.11v-2.32h5.67A5.62,5.62,0,0,1,359.46,134.05Z"/><path d="M39.86,145.85v2.52H37.32v7.38H34.79v-7.38H32.25v-2.52h7.61Z"/><path d="M48.07,146.53a4.82,4.82,0,0,1,1.82,1.82,4.9,4.9,0,0,1,.67,2.52,4.83,4.83,0,0,1-.67,2.5,4.89,4.89,0,0,1-1.82,1.82,4.83,4.83,0,0,1-2.5.67,5,5,0,0,1-4.34-2.49,4.84,4.84,0,0,1-.68-2.5,4.91,4.91,0,0,1,.68-2.52,4.82,4.82,0,0,1,1.82-1.82,4.91,4.91,0,0,1,2.52-.68A4.84,4.84,0,0,1,48.07,146.53Zm-1.21,6.56a2.54,2.54,0,0,0,.93-.94,2.4,2.4,0,0,0,.35-1.28,2.46,2.46,0,0,0-.35-1.3,2.54,2.54,0,0,0-.93-.94,2.57,2.57,0,0,0-2.59,0,2.57,2.57,0,0,0-.94.94,2.46,2.46,0,0,0-.35,1.3,2.4,2.4,0,0,0,.35,1.28,2.57,2.57,0,0,0,.94.94,2.57,2.57,0,0,0,2.59,0Z"/><path d="M60.76,146l3.23,9.8H61.55l-.64-2H57.84l-.63,2H54.76L58,146Zm-2.26,5.76h1.77l-.89-2.78Z"/><path d="M71.73,145.85v2.52H69.2v7.38H66.66v-7.38H64.13v-2.52h7.6Z"/><path d="M80.17,145.85v2.52H77.64v7.38H75.11v-7.38H72.57v-2.52h7.6Z"/><path d="M89.23,155.75H86.7L85.13,152H83.52v3.74H81.15v-9.9h4.72a3,3,0,0,1,1.54.42,3,3,0,0,1,1.13,1.12,3.09,3.09,0,0,1,.41,1.54,2.89,2.89,0,0,1-.38,1.48,3.11,3.11,0,0,1-1,1.11Zm-2.78-7.54a1,1,0,0,0-.66-.33H83.46V150h2.33a1,1,0,0,0,.66-.34,1.11,1.11,0,0,0,0-1.43Z"/><path d="M95.22,146l3.24,9.8H96l-.64-2H92.31l-.63,2H89.23l3.25-9.8ZM93,151.71h1.76l-.88-2.78Z"/><path d="M104.45,153.21a2.66,2.66,0,0,0,.84-.55l1.71,1.71a5.3,5.3,0,0,1-1.61,1.08,5,5,0,0,1-4.44-.29,5,5,0,0,1-1.82-1.82,5,5,0,0,1,0-5A5.07,5.07,0,0,1,101,146.5a4.84,4.84,0,0,1,2.51-.67,5,5,0,0,1,1.93.38A5.15,5.15,0,0,1,107,147.3l-1.71,1.7a2.84,2.84,0,0,0-.84-.55,2.61,2.61,0,0,0-1-.2,2.5,2.5,0,0,0-1.29.35,2.65,2.65,0,0,0-.94.94,2.56,2.56,0,0,0-.35,1.3,2.52,2.52,0,0,0,.35,1.29,2.62,2.62,0,0,0,.94.93,2.41,2.41,0,0,0,1.29.35A2.43,2.43,0,0,0,104.45,153.21Z"/><path d="M115.3,145.85v2.52h-2.53v7.38h-2.54v-7.38H107.7v-2.52h7.6Z"/><path d="M128.53,145.87V152a3.72,3.72,0,0,1-.53,2,3.94,3.94,0,0,1-1.42,1.42,3.87,3.87,0,0,1-2,.52h-.22a3.78,3.78,0,0,1-2-.52A4.05,4.05,0,0,1,121,154a3.81,3.81,0,0,1-.52-2v-6.12h2.34v5.56a2.36,2.36,0,0,0,.42,1.44,1.35,1.35,0,0,0,1.15.57h.22a1.35,1.35,0,0,0,1.14-.58,2.32,2.32,0,0,0,.44-1.43v-5.56Z"/><path d="M134.17,149v-.18a.86.86,0,0,0-.34-.69,1.22,1.22,0,0,0-.83-.29,1.31,1.31,0,0,0-.87.29.87.87,0,0,0-.35.69.64.64,0,0,0,.36.6,3,3,0,0,0,1,.39l.22,0,.25.06a4.85,4.85,0,0,1,2,.83l.12.11a3,3,0,0,1,.67,1,2.86,2.86,0,0,1,.24,1.12,2.81,2.81,0,0,1-.27,1.21,3.06,3.06,0,0,1-.79,1,3.93,3.93,0,0,1-1.18.67,4.17,4.17,0,0,1-2.73,0,3.76,3.76,0,0,1-1.17-.67,3.23,3.23,0,0,1-.8-1,2.69,2.69,0,0,1-.28-1.21v-.18h2.45v.18a.87.87,0,0,0,.34.7,1.24,1.24,0,0,0,.82.28,1.31,1.31,0,0,0,.86-.28.86.86,0,0,0,.36-.7.8.8,0,0,0-.38-.61,1.22,1.22,0,0,0-.39-.21,5.31,5.31,0,0,0-.55-.17l-.46-.11c-.51-.13-.91-.25-1.2-.35a2.28,2.28,0,0,1-.8-.48l-.06-.05a3.26,3.26,0,0,1-.73-1,2.71,2.71,0,0,1,0-2.36,3.23,3.23,0,0,1,.8-1,3.55,3.55,0,0,1,1.17-.66,4.17,4.17,0,0,1,2.73,0,3.7,3.7,0,0,1,1.18.66,3.06,3.06,0,0,1,.79,1,2.85,2.85,0,0,1,.27,1.21V149Z"/><path d="M144.17,153.61v2.14h-6.74v-9.9H144V148H140v1.73h3.43v2.14H140v1.74Z"/><path d="M153.37,155.75h-2.54L149.26,152h-1.61v3.74h-2.36v-9.9H150a3.08,3.08,0,0,1,2.7,4.56,3.11,3.11,0,0,1-1,1.11Zm-2.79-7.54a1,1,0,0,0-.66-.33H147.6V150h2.32a1,1,0,0,0,.66-.34,1.08,1.08,0,0,0,0-1.43Z"/><path d="M158.73,149v-.18a.87.87,0,0,0-.35-.69,1.19,1.19,0,0,0-.83-.29,1.3,1.3,0,0,0-.86.29.85.85,0,0,0-.36.69.65.65,0,0,0,.37.6,2.92,2.92,0,0,0,1,.39l.22,0,.24.06a4.72,4.72,0,0,1,2,.83l.13.11a2.94,2.94,0,0,1,.66,1,2.71,2.71,0,0,1,.25,1.12,2.81,2.81,0,0,1-.27,1.21,3.19,3.19,0,0,1-.79,1,3.93,3.93,0,0,1-1.18.67,4.24,4.24,0,0,1-1.37.23,4.19,4.19,0,0,1-1.37-.23,4,4,0,0,1-1.17-.67,3.19,3.19,0,0,1-.79-1,2.69,2.69,0,0,1-.28-1.21v-.18h2.45v.18a.87.87,0,0,0,.34.7,1.24,1.24,0,0,0,.82.28,1.35,1.35,0,0,0,.86-.28.86.86,0,0,0,.36-.7.8.8,0,0,0-.38-.61,1.33,1.33,0,0,0-.39-.21c-.15-.06-.34-.11-.55-.17l-.46-.11c-.52-.13-.92-.25-1.21-.35A2.24,2.24,0,0,1,155,151l-.06-.05a3.1,3.1,0,0,1-.73-1,2.58,2.58,0,0,1-.26-1.15,2.72,2.72,0,0,1,.28-1.21,3.19,3.19,0,0,1,.79-1,3.76,3.76,0,0,1,1.17-.66,3.94,3.94,0,0,1,1.37-.23,4,4,0,0,1,1.37.23,3.7,3.7,0,0,1,1.18.66,3.19,3.19,0,0,1,.79,1,2.85,2.85,0,0,1,.27,1.21V149Z"/><path d="M173.65,145.85v2.52h-2.53v7.38h-2.54v-7.38h-2.53v-2.52h7.6Z"/><path d="M181.87,146.53a5,5,0,0,1,1.82,1.82,4.9,4.9,0,0,1,.67,2.52,4.83,4.83,0,0,1-.67,2.5,5,5,0,0,1-1.82,1.82,5,5,0,0,1-5,0,5,5,0,0,1-1.83-1.82,4.93,4.93,0,0,1-.67-2.5,5,5,0,0,1,.67-2.52,5,5,0,0,1,6.85-1.82Zm-1.22,6.56a2.57,2.57,0,0,0,.94-.94,2.49,2.49,0,0,0,.35-1.28,2.59,2.59,0,0,0-1.29-2.24,2.41,2.41,0,0,0-1.29-.35,2.43,2.43,0,0,0-1.29.35,2.59,2.59,0,0,0-.95.94,2.56,2.56,0,0,0-.35,1.3,2.49,2.49,0,0,0,.35,1.28,2.59,2.59,0,0,0,.95.94,2.43,2.43,0,0,0,1.29.35A2.41,2.41,0,0,0,180.65,153.09Z"/><path d="M194.55,146l3.24,9.8h-2.44l-.64-2h-3.07l-.63,2h-2.45l3.25-9.8Zm-2.25,5.76h1.76l-.88-2.78Z"/><path d="M200.59,145.85v9.9h-2.52v-9.9Z"/><path d="M209.79,155.75h-2.54L205.68,152h-1.61v3.74h-2.36v-9.9h4.72a3.13,3.13,0,0,1,2.66,1.54,3.05,3.05,0,0,1,0,3,3.11,3.11,0,0,1-1,1.11ZM207,148.21a1,1,0,0,0-.66-.33H204V150h2.32a1,1,0,0,0,.66-.34,1.08,1.08,0,0,0,0-1.43Z"/><path d="M215,145.82a5.66,5.66,0,0,1,1.5.36,4.18,4.18,0,0,1,1.36.85,4.9,4.9,0,0,1,1.21,1.7,5,5,0,0,1,.43,2,4.74,4.74,0,0,1-.55,2.28,4.47,4.47,0,0,1-1.53,1.75,5.27,5.27,0,0,1-2,.79,14.17,14.17,0,0,1-2.49.19h-1.15l-1.09,0v-10h2.53C213.86,145.74,214.46,145.77,215,145.82Zm2.09,5a2.49,2.49,0,0,0-.34-1.27,2.62,2.62,0,0,0-.91-1,2.48,2.48,0,0,0-1.27-.38h-1.37v5.17a10.73,10.73,0,0,0,1.73-.12,3,3,0,0,0,1.3-.55,2.18,2.18,0,0,0,.79-1.3A2.62,2.62,0,0,0,217.05,150.77Z"/><path d="M228.38,155.75h-2.54L224.28,152h-1.61v3.74H220.3v-9.9H225a3.08,3.08,0,0,1,2.7,4.56,3.11,3.11,0,0,1-1,1.11Zm-2.79-7.54a1,1,0,0,0-.66-.33h-2.32V150h2.32a1,1,0,0,0,.66-.34,1.08,1.08,0,0,0,0-1.43Z"/><path d="M236.46,146.53a5,5,0,0,1,1.82,6.84,5,5,0,0,1-1.82,1.82,5,5,0,0,1-5,0,5,5,0,0,1-1.83-1.82,4.83,4.83,0,0,1-.67-2.5,5,5,0,0,1,7.52-4.34Zm-1.22,6.56a2.65,2.65,0,0,0,.94-.94,2.49,2.49,0,0,0,.35-1.28,2.56,2.56,0,0,0-.35-1.3,2.65,2.65,0,0,0-.94-.94,2.41,2.41,0,0,0-1.29-.35,2.46,2.46,0,0,0-1.3.35,2.59,2.59,0,0,0-1.29,2.24,2.49,2.49,0,0,0,.35,1.28,2.57,2.57,0,0,0,.94.94,2.46,2.46,0,0,0,1.3.35A2.41,2.41,0,0,0,235.24,153.09Z"/><path d="M246.05,146.27a3,3,0,0,1,1.12,1.12,2.94,2.94,0,0,1,.41,1.54,3,3,0,0,1-.41,1.55,3,3,0,0,1-1.12,1.12,3,3,0,0,1-1.55.41h-2.35v3.74h-2.36v-9.9h4.71A3,3,0,0,1,246.05,146.27Zm-1,1.94a1,1,0,0,0-.67-.33H242.1V150h2.32a.93.93,0,0,0,.67-.34,1.08,1.08,0,0,0,.27-.72A1,1,0,0,0,245.09,148.21Z"/><path d="M250.15,156.63l-1.66-.86a10.73,10.73,0,0,0,1.22-3.88,8.38,8.38,0,0,0,.06-1.07,10.24,10.24,0,0,0-.21-2.07,9.88,9.88,0,0,0-.46-1.52,6.11,6.11,0,0,0-.48-1c-.13-.21-.2-.32-.2-.33l1.53-1.06a10.64,10.64,0,0,1,.66,1.23,10.51,10.51,0,0,1,.74,2.26,11,11,0,0,1,.28,2.54,11.26,11.26,0,0,1-.06,1.21A12.59,12.59,0,0,1,250.15,156.63Z"/><path d="M252.85,155.35a1.39,1.39,0,0,1-.38-1,1.23,1.23,0,0,1,.39-.91,1.25,1.25,0,0,1,.91-.38,1.28,1.28,0,0,1,.94.39,1.31,1.31,0,0,1,.39.94,1.33,1.33,0,0,1-1.33,1.33A1.21,1.21,0,0,1,252.85,155.35Z"/><path d="M266.65,145.83h2.75l-3.24,9.92h-3.08l-3.22-9.92h2.77l2,6.18Z"/><path d="M277,153.61v2.14h-6.73v-9.9h6.6V148h-4.07v1.73h3.43v2.14h-3.43v1.74Z"/><path d="M286.17,155.75h-2.54L282.07,152h-1.61v3.74h-2.37v-9.9h4.72a3.08,3.08,0,0,1,2.7,4.56,3.11,3.11,0,0,1-1,1.11Zm-2.79-7.54a.94.94,0,0,0-.66-.33H280.4V150h2.32a1,1,0,0,0,.66-.34,1.08,1.08,0,0,0,0-1.43Z"/><path d="M289.53,145.85v9.9H287v-9.9Z"/><path d="M297.54,148h-4.37v1.73h3.5v2.14h-3.5v3.88h-2.52v-9.9h6.89Z"/><path d="M300.9,145.85v9.9h-2.52v-9.9Z"/><path d="M307.73,153.21a2.78,2.78,0,0,0,.84-.55l1.71,1.71a5.3,5.3,0,0,1-1.61,1.08,5,5,0,0,1-6.26-7.12,5,5,0,0,1,1.82-1.83,4.83,4.83,0,0,1,2.5-.67,5,5,0,0,1,1.94.38,5.15,5.15,0,0,1,1.61,1.09l-1.71,1.7a3,3,0,0,0-.84-.55,2.62,2.62,0,0,0-1-.2,2.49,2.49,0,0,0-1.28.35,2.57,2.57,0,0,0-.94.94,2.46,2.46,0,0,0-.35,1.3,2.43,2.43,0,0,0,.35,1.29,2.54,2.54,0,0,0,.94.93,2.4,2.4,0,0,0,1.28.35A2.45,2.45,0,0,0,307.73,153.21Z"/><path d="M316.27,146l3.23,9.8h-2.43l-.65-2h-3.06l-.63,2h-2.45l3.24-9.8ZM314,151.71h1.77l-.88-2.78Z"/><path d="M327.24,145.85v2.52h-2.53v7.38h-2.53v-7.38h-2.54v-2.52h7.6Z"/><path d="M330.74,145.85v9.9h-2.52v-9.9Z"/><path d="M339.1,146.53a5,5,0,0,1,2.49,4.34,4.83,4.83,0,0,1-.67,2.5,5,5,0,0,1-1.82,1.82,4.83,4.83,0,0,1-2.5.67,5,5,0,0,1-4.34-2.49,4.84,4.84,0,0,1-.68-2.5,4.91,4.91,0,0,1,.68-2.52,4.82,4.82,0,0,1,1.82-1.82,4.91,4.91,0,0,1,2.52-.68A4.84,4.84,0,0,1,339.1,146.53Zm-1.22,6.56a2.59,2.59,0,0,0,1.29-2.22,2.56,2.56,0,0,0-.35-1.3,2.5,2.5,0,0,0-.94-.94,2.4,2.4,0,0,0-1.28-.35,2.46,2.46,0,0,0-1.3.35,2.5,2.5,0,0,0-.94.94,2.46,2.46,0,0,0-.35,1.3,2.4,2.4,0,0,0,.35,1.28,2.5,2.5,0,0,0,.94.94,2.46,2.46,0,0,0,1.3.35A2.4,2.4,0,0,0,337.88,153.09Z"/><path d="M347.88,145.85h2.52v9.9h-2.52l-2.91-5.3v5.3h-2.54v-9.9H345l2.91,5.31Z"/><path d="M39.63,163.33a5,5,0,0,1,2.49,4.34,4.83,4.83,0,0,1-.67,2.5A5,5,0,0,1,39.63,172a4.83,4.83,0,0,1-2.5.67,5,5,0,0,1-4.34-2.49,4.84,4.84,0,0,1-.68-2.5,4.91,4.91,0,0,1,.68-2.52,4.82,4.82,0,0,1,1.82-1.82,4.91,4.91,0,0,1,2.52-.68A4.84,4.84,0,0,1,39.63,163.33Zm-1.22,6.56a2.57,2.57,0,0,0,.94-.94,2.49,2.49,0,0,0,.35-1.28,2.59,2.59,0,0,0-1.29-2.24,2.4,2.4,0,0,0-1.28-.35,2.46,2.46,0,0,0-1.3.35,2.59,2.59,0,0,0-.95.94,2.55,2.55,0,0,0-.34,1.3,2.48,2.48,0,0,0,.34,1.28,2.59,2.59,0,0,0,.95.94,2.46,2.46,0,0,0,1.3.35A2.4,2.4,0,0,0,38.41,169.89Z"/><path d="M49.85,164.8H45.48v1.73H49v2.14h-3.5v3.88H43v-9.9h6.89Z"/><path d="M61.16,163.07a3.08,3.08,0,0,1,1.12,1.12,3,3,0,0,1,.41,1.54,3.06,3.06,0,0,1-1.53,2.67,3,3,0,0,1-1.55.41H57.26v3.74H54.89v-9.9h4.72A3,3,0,0,1,61.16,163.07Zm-1,1.94a1,1,0,0,0-.67-.33H57.2v2.1h2.32a.9.9,0,0,0,.67-.34,1.08,1.08,0,0,0,.27-.72A1,1,0,0,0,60.19,165Z"/><path d="M68.68,162.75l3.23,9.8H69.48l-.65-2H65.77l-.63,2H62.69l3.25-9.8Zm-2.25,5.76h1.76l-.88-2.78Z"/><path d="M80.27,172.55H77.74l-1.57-3.74H74.56v3.74H72.19v-9.9h4.72a3,3,0,0,1,1.54.42,3,3,0,0,1,1.13,1.12,3.09,3.09,0,0,1,.41,1.54,2.89,2.89,0,0,1-.38,1.48,3.11,3.11,0,0,1-1,1.11ZM77.49,165a1,1,0,0,0-.66-.33H74.5v2.1h2.33a1,1,0,0,0,.66-.34,1.11,1.11,0,0,0,0-1.43Z"/><path d="M88.57,162.65v2.52H86v7.38H83.51v-7.38H81v-2.52h7.6Z"/><path d="M92.07,162.65v9.9H89.55v-9.9Z"/><path d="M98.91,170a2.91,2.91,0,0,0,.84-.55l1.7,1.71a5.06,5.06,0,0,1-1.61,1.08,5,5,0,0,1-6.93-4.61,5,5,0,0,1,5-5,4.82,4.82,0,0,1,1.93.38,4.93,4.93,0,0,1,1.61,1.09l-1.7,1.7a3.13,3.13,0,0,0-.84-.55,2.62,2.62,0,0,0-1-.2,2.49,2.49,0,0,0-1.28.35,2.57,2.57,0,0,0-.94.94,2.57,2.57,0,0,0,0,2.59,2.54,2.54,0,0,0,.94.93,2.4,2.4,0,0,0,1.28.35A2.45,2.45,0,0,0,98.91,170Z"/><path d="M104.81,162.65v9.9h-2.52v-9.9Z"/><path d="M112.2,163.07a3.08,3.08,0,0,1,1.12,1.12,3,3,0,0,1,.41,1.54,3.06,3.06,0,0,1-1.53,2.67,3,3,0,0,1-1.55.41H108.3v3.74h-2.37v-9.9h4.72A3,3,0,0,1,112.2,163.07Zm-1,1.94a1,1,0,0,0-.66-.33h-2.33v2.1h2.33a.9.9,0,0,0,.66-.34,1,1,0,0,0,.28-.72A1,1,0,0,0,111.23,165Z"/><path d="M119.72,162.75l3.24,9.8h-2.44l-.64-2h-3.07l-.63,2h-2.45l3.25-9.8Zm-2.25,5.76h1.76l-.88-2.78Z"/><path d="M128.68,162.65h2.52v9.9h-2.52l-2.91-5.3v5.3h-2.53v-9.9h2.53l2.91,5.31Z"/><path d="M139.79,162.65v2.52h-2.54v7.38h-2.53v-7.38h-2.54v-2.52h7.61Z"/><path d="M145.29,165.79v-.18a.89.89,0,0,0-.34-.69,1.23,1.23,0,0,0-.84-.29,1.3,1.3,0,0,0-.86.29.85.85,0,0,0-.36.69.65.65,0,0,0,.37.6,2.92,2.92,0,0,0,1,.39l.22,0,.24.06a4.72,4.72,0,0,1,2,.83l.13.11a2.94,2.94,0,0,1,.66,1,2.71,2.71,0,0,1,.25,1.12,2.81,2.81,0,0,1-.27,1.21,3.34,3.34,0,0,1-.79,1,3.93,3.93,0,0,1-1.18.67,4.24,4.24,0,0,1-1.37.23,4.19,4.19,0,0,1-1.37-.23,4,4,0,0,1-1.17-.67,3.19,3.19,0,0,1-.79-1,2.69,2.69,0,0,1-.28-1.21v-.18h2.45v.18a.87.87,0,0,0,.34.7,1.24,1.24,0,0,0,.82.28,1.35,1.35,0,0,0,.86-.28.86.86,0,0,0,.36-.7.8.8,0,0,0-.38-.61,1.22,1.22,0,0,0-.39-.21c-.15-.06-.34-.11-.55-.17l-.46-.11c-.52-.13-.92-.25-1.21-.35a2.24,2.24,0,0,1-.79-.48l-.06,0a3.1,3.1,0,0,1-.73-1,2.58,2.58,0,0,1-.26-1.15,2.72,2.72,0,0,1,.28-1.21,3.19,3.19,0,0,1,.79-1,3.76,3.76,0,0,1,1.17-.66,3.94,3.94,0,0,1,1.37-.23,4,4,0,0,1,1.37.23,3.7,3.7,0,0,1,1.18.66,3.34,3.34,0,0,1,.79,1,2.85,2.85,0,0,1,.27,1.21v.18Z"/><path d="M157.9,162.75l3.24,9.8H158.7l-.64-2H155l-.63,2h-2.45l3.25-9.8Zm-2.25,5.76h1.76l-.88-2.78Z"/><path d="M166.86,162.65h2.52v9.9h-2.52l-2.91-5.3v5.3h-2.53v-9.9H164l2.91,5.31Z"/><path d="M174.84,162.62a5.59,5.59,0,0,1,1.49.36,4.23,4.23,0,0,1,1.37.85,5,5,0,0,1,1.21,1.7,5.19,5.19,0,0,1,.43,2,4.86,4.86,0,0,1-.55,2.28,4.47,4.47,0,0,1-1.53,1.75,5.33,5.33,0,0,1-2,.79,14.29,14.29,0,0,1-2.5.19h-1.15l-1.09,0v-10H173C173.74,162.54,174.34,162.57,174.84,162.62Zm2.09,4.95a2.49,2.49,0,0,0-.34-1.27,2.57,2.57,0,0,0-.92-1,2.42,2.42,0,0,0-1.26-.38H173v5.17a10.82,10.82,0,0,0,1.73-.12,3,3,0,0,0,1.3-.55,2.26,2.26,0,0,0,.79-1.3A3.36,3.36,0,0,0,176.93,167.57Z"/><path d="M190.64,163.07a3.08,3.08,0,0,1,1.12,1.12,2.94,2.94,0,0,1,.41,1.54,3,3,0,0,1-.41,1.55,3.08,3.08,0,0,1-1.12,1.12,3,3,0,0,1-1.55.41h-2.35v3.74h-2.36v-9.9h4.71A3,3,0,0,1,190.64,163.07Zm-1,1.94a1,1,0,0,0-.66-.33h-2.32v2.1H189a.9.9,0,0,0,.66-.34,1,1,0,0,0,.28-.72A1,1,0,0,0,189.67,165Z"/><path d="M201.09,172.55h-2.53L197,168.81h-1.61v3.74H193v-9.9h4.72a3,3,0,0,1,1.54.42,3,3,0,0,1,1.13,1.12,3.09,3.09,0,0,1,.41,1.54,2.89,2.89,0,0,1-.38,1.48,3.11,3.11,0,0,1-1,1.11ZM198.3,165a.92.92,0,0,0-.65-.33h-2.33v2.1h2.33a.93.93,0,0,0,.65-.34,1.08,1.08,0,0,0,0-1.43Z"/><path d="M209.17,163.33a5,5,0,0,1,1.82,1.82,4.9,4.9,0,0,1,.67,2.52,4.83,4.83,0,0,1-.67,2.5,5,5,0,0,1-1.82,1.82,5,5,0,0,1-5,0,5,5,0,0,1-1.83-1.82,4.93,4.93,0,0,1-.67-2.5,5,5,0,0,1,.67-2.52,5,5,0,0,1,6.85-1.82ZM208,169.89a2.57,2.57,0,0,0,.94-.94,2.49,2.49,0,0,0,.35-1.28,2.59,2.59,0,0,0-1.29-2.24,2.41,2.41,0,0,0-1.29-.35,2.43,2.43,0,0,0-1.29.35,2.59,2.59,0,0,0-1,.94,2.56,2.56,0,0,0-.35,1.3,2.49,2.49,0,0,0,.35,1.28,2.59,2.59,0,0,0,1,.94,2.43,2.43,0,0,0,1.29.35A2.41,2.41,0,0,0,208,169.89Z"/><path d="M219,162.63h2.74l-3.23,9.92h-3.08l-3.22-9.92H215l2,6.18Z"/><path d="M225.12,162.65v9.9h-2.53v-9.9Z"/><path d="M230.57,162.62a5.66,5.66,0,0,1,1.5.36,4.18,4.18,0,0,1,1.36.85,4.9,4.9,0,0,1,1.21,1.7,5,5,0,0,1,.43,2,4.74,4.74,0,0,1-.55,2.28A4.47,4.47,0,0,1,233,171.6a5.27,5.27,0,0,1-2,.79,14.22,14.22,0,0,1-2.5.19h-1.14l-1.1,0v-10h2.54C229.47,162.54,230.07,162.57,230.57,162.62Zm2.09,4.95a2.49,2.49,0,0,0-.34-1.27,2.62,2.62,0,0,0-.91-1,2.48,2.48,0,0,0-1.27-.38h-1.37v5.17a10.73,10.73,0,0,0,1.73-.12,3,3,0,0,0,1.3-.55,2.21,2.21,0,0,0,.79-1.3A2.62,2.62,0,0,0,232.66,167.57Z"/><path d="M238.43,162.65v9.9h-2.52v-9.9Z"/><path d="M245,162.65h2.52v9.9H245l-2.91-5.3v5.3h-2.53v-9.9h2.53L245,168Z"/><path d="M258.37,167.65a4.87,4.87,0,0,1-.68,2.51,5,5,0,0,1-1.82,1.82,4.9,4.9,0,0,1-2.52.67,4.83,4.83,0,0,1-2.5-.67,5,5,0,0,1-1.82-1.82,5,5,0,0,1,4.32-7.52,4.93,4.93,0,0,1,3.56,1.48l-2.26,1.29a2.51,2.51,0,0,0-1.3-.35,2.55,2.55,0,0,0-1.29.35,2.65,2.65,0,0,0-.93,1,2.43,2.43,0,0,0-.35,1.29,2.41,2.41,0,0,0,.35,1.29,2.62,2.62,0,0,0,.93.94,2.55,2.55,0,0,0,1.29.35,2.48,2.48,0,0,0,1.36-.39,2.55,2.55,0,0,0,.95-1h-3.11v-2.32h5.67A5.06,5.06,0,0,1,258.37,167.65Z"/><path d="M270.87,162.65v2.52h-2.54v7.38H265.8v-7.38h-2.54v-2.52h7.61Z"/><path d="M277.19,162.65h2.52v9.9h-2.52v-3.69h-2.82v3.69h-2.52v-9.9h2.52v3.69h2.82Z"/><path d="M287.57,170.41v2.14h-6.74v-9.9h6.61v2.15h-4.07v1.73h3.43v2.14h-3.43v1.74Z"/><path d="M298.6,170a2.66,2.66,0,0,0,.84-.55l1.71,1.71a5.3,5.3,0,0,1-1.61,1.08,5,5,0,0,1-6.26-7.12,5,5,0,0,1,1.82-1.83,5.06,5.06,0,0,1,4.44-.29,5.15,5.15,0,0,1,1.61,1.09l-1.71,1.7a2.84,2.84,0,0,0-.84-.55,2.61,2.61,0,0,0-1-.2,2.5,2.5,0,0,0-1.29.35,2.65,2.65,0,0,0-.94.94,2.57,2.57,0,0,0,0,2.59,2.62,2.62,0,0,0,.94.93,2.41,2.41,0,0,0,1.29.35A2.43,2.43,0,0,0,298.6,170Z"/><path d="M304.51,170.17h3.89v2.38H302v-9.9h2.52Z"/><path d="M311.9,162.65v9.9h-2.52v-9.9Z"/><path d="M319.75,170.41v2.14H313v-9.9h6.61v2.15h-4.08v1.73H319v2.14h-3.43v1.74Z"/><path d="M326.32,162.65h2.52v9.9h-2.52l-2.91-5.3v5.3h-2.54v-9.9h2.54l2.91,5.31Z"/><path d="M337.42,162.65v2.52h-2.53v7.38h-2.54v-7.38h-2.53v-2.52h7.6Z"/><path d="M40.36,179.45h2.18v9.9H40l-2.55-4.21-2.56,4.21H32.39v-9.9h2.52V185l1.23-2.24.07-.11h2.52l.06.11L40,185v-5.59Z"/><path d="M46.18,179.45v9.9H43.66v-9.9Z"/><path d="M54.77,179.45V182H52.23v7.38H49.7V182H47.16v-2.52h7.61Z"/><path d="M61.09,179.45h2.52v9.9H61.09v-3.69H58.27v3.69H55.75v-9.9h2.52v3.69h2.82Z"/><path d="M74.08,179.55l3.24,9.8H74.88l-.64-2H71.17l-.63,2H68.09l3.25-9.8Zm-2.25,5.76h1.76l-.88-2.78Z"/><path d="M84.32,187h3.89v2.38H81.8v-9.9h2.52Z"/><path d="M91.71,179.45v9.9H89.19v-9.9Z"/><path d="M97.35,182.59v-.18a.86.86,0,0,0-.34-.69,1.22,1.22,0,0,0-.83-.29,1.26,1.26,0,0,0-.86.29.85.85,0,0,0-.36.69.64.64,0,0,0,.36.6,3,3,0,0,0,1,.39l.22,0,.25.06a4.85,4.85,0,0,1,2,.83l.13.11a3.1,3.1,0,0,1,.66,1,2.86,2.86,0,0,1,.24,1.12,2.81,2.81,0,0,1-.27,1.21,3.06,3.06,0,0,1-.79,1,3.88,3.88,0,0,1-1.17.67,4.25,4.25,0,0,1-1.38.23,4.13,4.13,0,0,1-1.36-.23,3.76,3.76,0,0,1-1.17-.67,3.23,3.23,0,0,1-.8-1,2.69,2.69,0,0,1-.28-1.21v-.18H95v.18a.9.9,0,0,0,.34.7,1.26,1.26,0,0,0,.82.28,1.31,1.31,0,0,0,.86-.28.86.86,0,0,0,.36-.7.8.8,0,0,0-.38-.61,1.22,1.22,0,0,0-.39-.21,5.31,5.31,0,0,0-.55-.17l-.46-.11c-.51-.13-.91-.25-1.2-.35a2.28,2.28,0,0,1-.8-.48l-.06-.05a3.26,3.26,0,0,1-.73-1,2.71,2.71,0,0,1,0-2.36,3.23,3.23,0,0,1,.8-1,3.55,3.55,0,0,1,1.17-.66,3.89,3.89,0,0,1,1.36-.23,4,4,0,0,1,1.38.23,3.65,3.65,0,0,1,1.17.66,3.06,3.06,0,0,1,.79,1,2.85,2.85,0,0,1,.27,1.21v.18Z"/><path d="M108.08,179.45V182h-2.54v7.38H103V182h-2.54v-2.52h7.61Z"/><path d="M120.49,180.13a4.82,4.82,0,0,1,1.82,1.82,4.91,4.91,0,0,1,.68,2.52,4.84,4.84,0,0,1-.68,2.5,4.89,4.89,0,0,1-1.82,1.82,4.83,4.83,0,0,1-2.5.67,4.93,4.93,0,0,1-2.52-.67,5,5,0,0,1-1.82-1.82,4.83,4.83,0,0,1-.67-2.5,4.9,4.9,0,0,1,.67-2.52,5,5,0,0,1,4.34-2.5A4.84,4.84,0,0,1,120.49,180.13Zm-1.21,6.56a2.54,2.54,0,0,0,.93-.94,2.4,2.4,0,0,0,.35-1.28,2.46,2.46,0,0,0-.35-1.3,2.54,2.54,0,0,0-.93-.94,2.43,2.43,0,0,0-1.29-.35,2.46,2.46,0,0,0-1.3.35,2.57,2.57,0,0,0-.94.94,2.46,2.46,0,0,0-.35,1.3,2.4,2.4,0,0,0,.35,1.28,2.57,2.57,0,0,0,.94.94,2.46,2.46,0,0,0,1.3.35A2.43,2.43,0,0,0,119.28,186.69Z"/><path d="M130.71,181.6h-4.36v1.73h3.5v2.14h-3.5v3.88h-2.52v-9.9h6.88Z"/><path d="M142,179.87a3.08,3.08,0,0,1,1.12,1.12,3,3,0,0,1,.41,1.54A3.06,3.06,0,0,1,142,185.2a3,3,0,0,1-1.55.41h-2.35v3.74h-2.37v-9.9h4.72A3,3,0,0,1,142,179.87Zm-1,1.94a1,1,0,0,0-.66-.33h-2.33v2.1h2.33a.9.9,0,0,0,.66-.34,1.09,1.09,0,0,0,.28-.72A1,1,0,0,0,141.05,181.81Z"/><path d="M149.54,179.55l3.24,9.8h-2.44l-.64-2h-3.07l-.63,2h-2.45l3.25-9.8Zm-2.25,5.76h1.76l-.88-2.78Z"/><path d="M161.14,189.35H158.6L157,185.61h-1.61v3.74h-2.36v-9.9h4.72a3.08,3.08,0,0,1,2.7,4.56,3.2,3.2,0,0,1-1,1.11Zm-2.79-7.54a1,1,0,0,0-.66-.33h-2.32v2.1h2.32a1,1,0,0,0,.66-.34,1.08,1.08,0,0,0,0-1.43Z"/><path d="M169.44,179.45V182H166.9v7.38h-2.53V182h-2.53v-2.52h7.6Z"/><path d="M172.94,179.45v9.9h-2.52v-9.9Z"/><path d="M179.77,186.81a2.66,2.66,0,0,0,.84-.55l1.71,1.71a5.3,5.3,0,0,1-1.61,1.08,5,5,0,0,1-6.26-7.12,5,5,0,0,1,1.82-1.83,4.87,4.87,0,0,1,2.51-.67,5,5,0,0,1,1.93.38,5.15,5.15,0,0,1,1.61,1.09l-1.71,1.7a2.84,2.84,0,0,0-.84-.55,2.61,2.61,0,0,0-1-.2,2.5,2.5,0,0,0-1.29.35,2.65,2.65,0,0,0-.94.94,2.56,2.56,0,0,0-.35,1.3,2.52,2.52,0,0,0,.35,1.29,2.62,2.62,0,0,0,.94.93,2.41,2.41,0,0,0,1.29.35A2.43,2.43,0,0,0,179.77,186.81Z"/><path d="M185.68,179.45v9.9h-2.52v-9.9Z"/><path d="M193.06,179.87a3,3,0,0,1,1.12,1.12,3,3,0,0,1,.42,1.54,3.1,3.1,0,0,1-1.54,2.67,2.94,2.94,0,0,1-1.54.41h-2.36v3.74H186.8v-9.9h4.72A3,3,0,0,1,193.06,179.87Zm-1,1.94a1,1,0,0,0-.67-.33h-2.32v2.1h2.32a.93.93,0,0,0,.67-.34,1.08,1.08,0,0,0,.27-.72A1,1,0,0,0,192.1,181.81Z"/><path d="M200.59,179.55l3.23,9.8h-2.44l-.64-2h-3.06l-.64,2H194.6l3.24-9.8Zm-2.26,5.76h1.77l-.89-2.78Z"/><path d="M209.55,179.45h2.52v9.9h-2.52l-2.91-5.3v5.3H204.1v-9.9h2.54l2.91,5.31Z"/><path d="M220.65,179.45V182h-2.53v7.38h-2.54V182h-2.53v-2.52h7.6Z"/><path d="M226.15,182.59v-.18a.86.86,0,0,0-.34-.69,1.23,1.23,0,0,0-.84-.29,1.3,1.3,0,0,0-.86.29.87.87,0,0,0-.35.69.64.64,0,0,0,.36.6,2.92,2.92,0,0,0,.95.39l.22,0,.25.06a4.85,4.85,0,0,1,2,.83l.12.11a3,3,0,0,1,.67,1,2.86,2.86,0,0,1,.24,1.12,2.81,2.81,0,0,1-.27,1.21,3.19,3.19,0,0,1-.79,1,3.93,3.93,0,0,1-1.18.67,4.19,4.19,0,0,1-1.37.23,4.13,4.13,0,0,1-1.36-.23,3.76,3.76,0,0,1-1.17-.67,3.23,3.23,0,0,1-.8-1,2.69,2.69,0,0,1-.28-1.21v-.18h2.45v.18a.87.87,0,0,0,.34.7,1.24,1.24,0,0,0,.82.28,1.33,1.33,0,0,0,.86-.28.86.86,0,0,0,.36-.7.8.8,0,0,0-.38-.61,1.22,1.22,0,0,0-.39-.21,5.31,5.31,0,0,0-.55-.17l-.46-.11c-.51-.13-.91-.25-1.2-.35a2.28,2.28,0,0,1-.8-.48l-.06-.05a3.26,3.26,0,0,1-.73-1,2.71,2.71,0,0,1,0-2.36,3.23,3.23,0,0,1,.8-1,3.55,3.55,0,0,1,1.17-.66,3.89,3.89,0,0,1,1.36-.23,3.94,3.94,0,0,1,1.37.23,3.7,3.7,0,0,1,1.18.66,3.19,3.19,0,0,1,.79,1,2.85,2.85,0,0,1,.27,1.21v.18Z"/><path d="M229.51,189a1.39,1.39,0,0,1-.38-1,1.23,1.23,0,0,1,.39-.91,1.3,1.3,0,0,1,1.85,0,1.32,1.32,0,0,1,.4.94,1.29,1.29,0,0,1-.4.94,1.27,1.27,0,0,1-.93.39A1.21,1.21,0,0,1,229.51,189Z"/><path class="cls-2" d="M44.12,41.71h3.12V55.85h-3.6l-3.64-6-3.66,6h-3.6V41.71h3.6v8l1.76-3.2.1-.16h3.6l.08.16,1.76,3.2v-8Z"/><path class="cls-2" d="M56.48,41.71h3.6V55.85h-3.6V50.57h-4v5.28h-3.6V41.71h3.6V47h4Z"/><path class="cls-2" d="M69,41.85l4.62,14H70.18L69.26,53H64.88L64,55.85h-3.5l4.64-14Zm-3.22,8.22h2.52l-1.26-4Z"/><path class="cls-2" d="M84.72,41.71v3.6H81.1V55.85H77.48V45.31H73.86v-3.6H84.72Z"/><path class="cls-2" d="M95.72,41.71V55.85h-3.6V41.71Z"/><path class="cls-2" d="M103.78,46.19v-.26a1.23,1.23,0,0,0-.49-1,1.76,1.76,0,0,0-1.19-.41,1.87,1.87,0,0,0-1.23.41,1.22,1.22,0,0,0-.51,1,.92.92,0,0,0,.52.86,4.6,4.6,0,0,0,1.36.56l.31.06.35.08a6.82,6.82,0,0,1,2.86,1.18l.18.16a4.1,4.1,0,0,1,1,1.38,3.91,3.91,0,0,1,0,3.32A4.6,4.6,0,0,1,105.72,55a5.34,5.34,0,0,1-1.68.95,5.89,5.89,0,0,1-2,.33,5.79,5.79,0,0,1-2-.33A5.41,5.41,0,0,1,98.46,55a4.79,4.79,0,0,1-1.14-1.46,3.84,3.84,0,0,1-.4-1.72v-.26h3.5v.26a1.26,1.26,0,0,0,.49,1,1.79,1.79,0,0,0,1.17.41,1.92,1.92,0,0,0,1.23-.41,1.25,1.25,0,0,0,.51-1,1.15,1.15,0,0,0-.54-.88,2.29,2.29,0,0,0-.56-.3,7.5,7.5,0,0,0-.78-.24l-.66-.16c-.73-.19-1.31-.36-1.72-.5a3.71,3.71,0,0,1-1.14-.68L98.34,49a4.68,4.68,0,0,1-1-1.4,3.74,3.74,0,0,1-.37-1.64,3.81,3.81,0,0,1,.4-1.72,4.56,4.56,0,0,1,1.14-1.46,5.21,5.21,0,0,1,1.67-1,5.79,5.79,0,0,1,2-.33,5.89,5.89,0,0,1,2,.33,5.15,5.15,0,0,1,1.68,1,4.39,4.39,0,0,1,1.13,1.46,3.94,3.94,0,0,1,.39,1.72v.26Z"/><path class="cls-2" d="M118,41.71V55.85h-3.6V41.71Z"/><path class="cls-2" d="M127.42,41.71H131V55.85h-3.6l-4.16-7.58v7.58h-3.62V41.71h3.62l4.16,7.58Z"/><path class="cls-2" d="M140.78,52.22a4.24,4.24,0,0,0,1.2-.79l2.44,2.44a7.35,7.35,0,0,1-2.3,1.55,7.15,7.15,0,0,1-2.76.55,7,7,0,0,1-3.58-1,7.2,7.2,0,0,1-2.6-2.6,7.17,7.17,0,0,1,0-7.17,7.15,7.15,0,0,1,2.6-2.61,7.13,7.13,0,0,1,8.64,1.14L142,46.21a3.85,3.85,0,0,0-1.2-.79,3.63,3.63,0,0,0-3.26.21A3.69,3.69,0,0,0,136.18,47a3.65,3.65,0,0,0,0,3.69A3.82,3.82,0,0,0,137.52,52a3.55,3.55,0,0,0,1.84.5A3.64,3.64,0,0,0,140.78,52.22Z"/><path class="cls-2" d="M149.22,52.45h5.56v3.4h-9.16V41.71h3.6Z"/><path class="cls-2" d="M167.68,41.73v8.74a5.47,5.47,0,0,1-.75,2.8,5.59,5.59,0,0,1-2,2,5.5,5.5,0,0,1-2.81.75h-.32a5.44,5.44,0,0,1-2.8-.75,5.64,5.64,0,0,1-2-2,5.47,5.47,0,0,1-.75-2.8V41.73h3.34v7.94a3.42,3.42,0,0,0,.6,2.06,1.94,1.94,0,0,0,1.64.82h.32a2,2,0,0,0,1.63-.83,3.31,3.31,0,0,0,.63-2V41.73Z"/><path class="cls-2" d="M175.48,41.66a8.07,8.07,0,0,1,2.13.51,6,6,0,0,1,1.95,1.22,7,7,0,0,1,1.73,2.43,7.2,7.2,0,0,1,.61,2.91,6.91,6.91,0,0,1-.78,3.26,6.48,6.48,0,0,1-2.19,2.5,7.78,7.78,0,0,1-2.88,1.13,20.94,20.94,0,0,1-3.57.27l-1.64,0c-.35,0-.87,0-1.56,0V41.55h3.62A24.06,24.06,0,0,1,175.48,41.66Zm3,7.07a3.61,3.61,0,0,0-.48-1.81,3.74,3.74,0,0,0-1.31-1.37,3.42,3.42,0,0,0-1.81-.54h-2v7.38a15.85,15.85,0,0,0,2.47-.17,4.29,4.29,0,0,0,1.86-.79,3.2,3.2,0,0,0,1.13-1.86A3.82,3.82,0,0,0,178.46,48.73Z"/><path class="cls-2" d="M192.72,52.79v3.06H183.1V41.71h9.44v3.06h-5.82v2.48h4.9v3.06h-4.9v2.48Z"/><path class="cls-2" d="M200.52,41.66a8.07,8.07,0,0,1,2.13.51,6,6,0,0,1,1.95,1.22,7,7,0,0,1,1.73,2.43,7.2,7.2,0,0,1,.61,2.91,6.91,6.91,0,0,1-.78,3.26,6.48,6.48,0,0,1-2.19,2.5,7.78,7.78,0,0,1-2.88,1.13,20.94,20.94,0,0,1-3.57.27l-1.64,0c-.35,0-.87,0-1.56,0V41.55h3.62A24.06,24.06,0,0,1,200.52,41.66Zm3,7.07a3.61,3.61,0,0,0-.48-1.81,3.74,3.74,0,0,0-1.31-1.37A3.42,3.42,0,0,0,199.9,45h-2v7.38a15.85,15.85,0,0,0,2.47-.17,4.29,4.29,0,0,0,1.86-.79,3.2,3.2,0,0,0,1.13-1.86A3.82,3.82,0,0,0,203.5,48.73Z"/><path class="cls-2" d="M36.34,65.71V79.85h-3.6V65.71Z"/><path class="cls-2" d="M45.72,65.71h3.6V79.85h-3.6l-4.16-7.58v7.58H37.94V65.71h3.62l4.16,7.58Z"/><path class="cls-2" d="M67.58,65.71v3.6H64V79.85H60.34V69.31H56.72v-3.6H67.58Z"/><path class="cls-2" d="M76.62,65.71h3.6V79.85h-3.6V74.57h-4v5.28H69V65.71h3.6V71h4Z"/><path class="cls-2" d="M91.44,76.79v3.06H81.82V65.71h9.44v3.06H85.44v2.48h4.9v3.06h-4.9v2.48Z"/><path class="cls-2" d="M105.5,70.19v-.26a1.23,1.23,0,0,0-.49-1,1.76,1.76,0,0,0-1.19-.41,1.87,1.87,0,0,0-1.23.41,1.22,1.22,0,0,0-.51,1,.92.92,0,0,0,.52.86,4.6,4.6,0,0,0,1.36.56l.31.06.35.08a6.82,6.82,0,0,1,2.86,1.18l.18.16a4.1,4.1,0,0,1,1,1.38,3.91,3.91,0,0,1,0,3.32A4.6,4.6,0,0,1,107.44,79a5.34,5.34,0,0,1-1.68,1,5.89,5.89,0,0,1-2,.33,5.79,5.79,0,0,1-2-.33,5.41,5.41,0,0,1-1.67-1A4.79,4.79,0,0,1,99,77.53a3.84,3.84,0,0,1-.4-1.72v-.26h3.5v.26a1.26,1.26,0,0,0,.49,1,1.79,1.79,0,0,0,1.17.41A1.92,1.92,0,0,0,105,76.8a1.25,1.25,0,0,0,.51-1,1.15,1.15,0,0,0-.54-.88,2.29,2.29,0,0,0-.56-.3,7.5,7.5,0,0,0-.78-.24l-.66-.16c-.73-.19-1.31-.36-1.72-.5a3.71,3.71,0,0,1-1.14-.68l-.08-.08a4.68,4.68,0,0,1-1-1.4,3.74,3.74,0,0,1-.37-1.64,3.81,3.81,0,0,1,.4-1.72,4.56,4.56,0,0,1,1.14-1.46,5.21,5.21,0,0,1,1.67-1,5.79,5.79,0,0,1,2-.33,5.89,5.89,0,0,1,2,.33,5.15,5.15,0,0,1,1.68,1,4.39,4.39,0,0,1,1.13,1.46,3.94,3.94,0,0,1,.39,1.72v.26Z"/><path class="cls-2" d="M119.78,76.79v3.06h-9.62V65.71h9.44v3.06h-5.82v2.48h4.9v3.06h-4.9v2.48Z"/><path class="cls-2" d="M132.92,79.85H129.3l-2.24-5.34h-2.3v5.34h-3.38V65.71h6.74a4.25,4.25,0,0,1,2.2.59,4.29,4.29,0,0,1,1.61,1.61,4.34,4.34,0,0,1,.59,2.2,4.28,4.28,0,0,1-.54,2.11,4.73,4.73,0,0,1-1.46,1.59Zm-4-10.77a1.3,1.3,0,0,0-.94-.47h-3.32v3H128a1.45,1.45,0,0,0,.94-.49,1.52,1.52,0,0,0,.38-1A1.47,1.47,0,0,0,128.94,69.08Z"/><path class="cls-2" d="M143.42,65.67h3.92l-4.62,14.18h-4.4l-4.6-14.18h4l2.86,8.84Z"/><path class="cls-2" d="M152.14,65.71V79.85h-3.6V65.71Z"/><path class="cls-2" d="M161.9,76.22a4.24,4.24,0,0,0,1.2-.79l2.44,2.44a7.35,7.35,0,0,1-2.3,1.55,7.15,7.15,0,0,1-2.76.55,7,7,0,0,1-3.58-1,7.2,7.2,0,0,1-2.6-2.6,7.17,7.17,0,0,1,0-7.17,7.15,7.15,0,0,1,2.6-2.61,7.13,7.13,0,0,1,8.64,1.14l-2.44,2.44a3.85,3.85,0,0,0-1.2-.79,3.63,3.63,0,0,0-3.26.21A3.69,3.69,0,0,0,157.3,71a3.65,3.65,0,0,0,0,3.69A3.82,3.82,0,0,0,158.64,76a3.55,3.55,0,0,0,1.84.5A3.64,3.64,0,0,0,161.9,76.22Z"/><path class="cls-2" d="M176.36,76.79v3.06h-9.62V65.71h9.44v3.06h-5.82v2.48h4.9v3.06h-4.9v2.48Z"/><path class="cls-2" d="M178.56,73.15a1.78,1.78,0,0,1-.5-1.16,1.54,1.54,0,0,1,.46-1.17,1.56,1.56,0,0,1,1.16-.49A1.64,1.64,0,0,1,181.34,72a1.56,1.56,0,0,1-.49,1.16,1.62,1.62,0,0,1-1.17.48A1.5,1.5,0,0,1,178.56,73.15Zm0,6.22a1.78,1.78,0,0,1-.5-1.16,1.54,1.54,0,0,1,.46-1.17,1.56,1.56,0,0,1,1.16-.49,1.64,1.64,0,0,1,1.66,1.66,1.56,1.56,0,0,1-.49,1.16,1.62,1.62,0,0,1-1.17.48A1.5,1.5,0,0,1,178.56,79.37Z"/><path d="M38.85,322.12H41v8.48H38.85v-4.79l-1.05,1.92,0,.1H35.59l-.06-.1-.15-.27-.9-1.65v4.79H32.31v-8.48h2.17l2.19,3.61Z"/><path d="M48.37,327a2.44,2.44,0,0,1,.27,1.13,2.34,2.34,0,0,1-.32,1.22,2.5,2.5,0,0,1-.88.89,2.47,2.47,0,0,1-1.23.34H42v-8.48h3.85a2.37,2.37,0,0,1,1.24.33,2.47,2.47,0,0,1,.87.89,2.39,2.39,0,0,1,.15,2.08,2.22,2.22,0,0,1-.47.75A2.52,2.52,0,0,1,48.37,327Zm-2.24-2.92a.84.84,0,0,0-.62-.25H44v1.8h1.56l.29,0a1,1,0,0,0,.22-.12.86.86,0,0,0,.27-.33.82.82,0,0,0,.1-.42A.89.89,0,0,0,46.13,324.1Zm.36,4.49a.89.89,0,0,0,.25-.64.84.84,0,0,0-.21-.57.88.88,0,0,0-.51-.31H44v1.8h1.92A.91.91,0,0,0,46.49,328.59Z"/><path d="M51.53,322.12v8.48H49.37v-8.48Z"/><path d="M59.8,322.09a4.77,4.77,0,0,1,1.28.3,3.67,3.67,0,0,1,1.17.74,4.07,4.07,0,0,1,1,1.45,4.3,4.3,0,0,1,.37,1.75,4.2,4.2,0,0,1-.47,2,4,4,0,0,1-1.31,1.5,4.59,4.59,0,0,1-1.73.67,12.41,12.41,0,0,1-2.15.17l-1,0h-.94V322h2.18A13.66,13.66,0,0,1,59.8,322.09Zm1.79,4.24a2.12,2.12,0,0,0-.29-1.09,2.27,2.27,0,0,0-.78-.82,2.1,2.1,0,0,0-1.09-.32H58.26v4.43a9,9,0,0,0,1.48-.11,2.47,2.47,0,0,0,1.12-.47,1.89,1.89,0,0,0,.67-1.12A2.34,2.34,0,0,0,61.59,326.33Z"/><path d="M70.15,328.77v1.83H64.38v-8.48H70V324H66.55v1.49h2.94v1.84H66.55v1.49Z"/><path d="M77,324H73.27v1.49h3v1.84h-3v3.32H71.11v-8.48H77Z"/><path d="M79.89,322.12v8.48H77.73v-8.48Z"/><path d="M81.26,329.13h2l-.89,2.71H80.61Z"/><path d="M94,327a2.34,2.34,0,0,1,.28,1.13,2.41,2.41,0,0,1-1.21,2.11,2.47,2.47,0,0,1-1.23.34H87.61v-8.48h3.85a2.37,2.37,0,0,1,1.24.33,2.65,2.65,0,0,1,.87.89,2.41,2.41,0,0,1-.32,2.83A2.39,2.39,0,0,1,94,327Zm-2.23-2.92a.86.86,0,0,0-.62-.25H89.59v1.8h1.56l.29,0,.21-.12a1,1,0,0,0,.28-.33.93.93,0,0,0,.09-.42A.88.88,0,0,0,91.77,324.1Zm.36,4.49a.84.84,0,0,0,.24-.64.88.88,0,0,0-.2-.57.91.91,0,0,0-.52-.31H89.59v1.8h1.92A.93.93,0,0,0,92.13,328.59Z"/><path d="M97.16,322.12v8.48H95v-8.48Z"/><path d="M104.52,322.12v2.16h-2.18v6.32h-2.17v-6.32H98v-2.16h6.52Z"/><path d="M111.56,322.69a4.33,4.33,0,0,1,2.14,3.72,4.3,4.3,0,0,1-2.14,3.71,4.27,4.27,0,0,1-4.3,0,4.27,4.27,0,0,1-1.57-1.56,4.19,4.19,0,0,1-.57-2.15,4.24,4.24,0,0,1,.57-2.15,4.38,4.38,0,0,1,1.57-1.57,4.34,4.34,0,0,1,4.3,0Zm-1,5.63a2.36,2.36,0,0,0,.8-.8,2.2,2.2,0,0,0,0-2.22,2.3,2.3,0,0,0-.8-.81,2.2,2.2,0,0,0-2.22,0,2.25,2.25,0,0,0-.81.81,2.2,2.2,0,0,0,0,2.22,2.3,2.3,0,0,0,.81.8,2.2,2.2,0,0,0,2.22,0Z"/><path d="M120.32,324h-3.74v1.49h3v1.84h-3v3.32h-2.16v-8.48h5.9Z"/><path d="M127.44,322.12v2.16h-2.18v6.32h-2.17v-6.32h-2.17v-2.16h6.52Z"/><path d="M135.2,330.6H133l-1.35-3.2H130.3v3.2h-2v-8.48h4a2.63,2.63,0,0,1,2.64,2.64,2.59,2.59,0,0,1-.32,1.26,2.79,2.79,0,0,1-.88,1Zm-2.39-6.46a.78.78,0,0,0-.56-.28h-2v1.8h2a.84.84,0,0,0,.56-.3.92.92,0,0,0,0-1.22Z"/><path d="M140.34,322.2l2.77,8.4H141l-.55-1.71h-2.63l-.54,1.71h-2.1l2.78-8.4Zm-1.94,4.93h1.52l-.76-2.37Z"/><path d="M147.07,322.09a4.86,4.86,0,0,1,1.28.3,3.67,3.67,0,0,1,1.17.74,4.17,4.17,0,0,1,1,1.45,4.3,4.3,0,0,1,.37,1.75,4.2,4.2,0,0,1-.47,2,3.94,3.94,0,0,1-1.31,1.5,4.52,4.52,0,0,1-1.73.67,12.29,12.29,0,0,1-2.14.17l-1,0h-.93V322h2.17A13.85,13.85,0,0,1,147.07,322.09Zm1.79,4.24a2.22,2.22,0,0,0-.29-1.09,2.3,2.3,0,0,0-.79-.82,2.06,2.06,0,0,0-1.08-.32h-1.18v4.43a8.86,8.86,0,0,0,1.48-.11,2.42,2.42,0,0,0,1.12-.47,1.9,1.9,0,0,0,.68-1.12A2.34,2.34,0,0,0,148.86,326.33Z"/><path d="M157.41,328.77v1.83h-5.77v-8.48h5.66V324h-3.49v1.49h2.94v1.84h-2.94v1.49Z"/><path d="M166.39,322.2l2.77,8.4h-2.09l-.55-1.71h-2.63l-.54,1.71h-2.1l2.79-8.4Zm-1.93,4.93H166l-.76-2.37Z"/><path d="M173.28,324.81v-.16a.73.73,0,0,0-.3-.59,1,1,0,0,0-.71-.25,1.11,1.11,0,0,0-.74.25.74.74,0,0,0-.31.59.57.57,0,0,0,.32.52,2.83,2.83,0,0,0,.81.33l.19,0,.21,0a4.07,4.07,0,0,1,1.71.7l.11.1a2.56,2.56,0,0,1,.57.83,2.38,2.38,0,0,1,.21,1,2.46,2.46,0,0,1-.23,1,2.71,2.71,0,0,1-.68.88,3.34,3.34,0,0,1-2.18.76,3.5,3.5,0,0,1-1.17-.19,3.57,3.57,0,0,1-1-.57,2.86,2.86,0,0,1-.68-.88,2.32,2.32,0,0,1-.24-1V328h2.1v.16a.75.75,0,0,0,.29.59,1,1,0,0,0,.71.25,1.1,1.1,0,0,0,.73-.25.72.72,0,0,0,.31-.59.7.7,0,0,0-.32-.53,1.56,1.56,0,0,0-.34-.18,3,3,0,0,0-.47-.14l-.39-.1c-.44-.11-.79-.21-1-.3a2.1,2.1,0,0,1-.68-.41l-.05,0a2.58,2.58,0,0,1-.63-.84,2.23,2.23,0,0,1-.22-1,2.32,2.32,0,0,1,.24-1,2.86,2.86,0,0,1,.68-.88,3.14,3.14,0,0,1,1-.57,3.51,3.51,0,0,1,1.17-.2,3.6,3.6,0,0,1,1.17.2,3.14,3.14,0,0,1,1,.57,2.71,2.71,0,0,1,.68.88,2.46,2.46,0,0,1,.23,1v.16Z"/><path d="M186.5,322.12h1.87v8.48h-2.16L184,327l-2.2,3.61h-2.16v-8.48h2.16v4.79l1.06-1.92.06-.1h2.16l0,.1,1.06,1.92v-4.79Z"/><path d="M195.1,328.77v1.83h-5.77v-8.48H195V324h-3.5v1.49h2.94v1.84H191.5v1.49Z"/><path d="M198.22,328.56h3.34v2h-5.5v-8.48h2.16Z"/><path d="M204.56,328.56h3.33v2H202.4v-8.48h2.16Z"/><path d="M216.75,322.2l2.77,8.4h-2.08l-.56-1.71h-2.63l-.54,1.71h-2.09l2.78-8.4Zm-1.93,4.93h1.51l-.75-2.37Z"/><path d="M223.64,324.81v-.16a.73.73,0,0,0-.3-.59,1,1,0,0,0-.71-.25,1.12,1.12,0,0,0-.74.25.73.73,0,0,0-.3.59.56.56,0,0,0,.31.52,2.83,2.83,0,0,0,.81.33l.19,0,.21,0a4.13,4.13,0,0,1,1.72.7l.1.1a2.41,2.41,0,0,1,.57.83,2.38,2.38,0,0,1,.21,1,2.31,2.31,0,0,1-.23,1,2.71,2.71,0,0,1-.68.88,3.44,3.44,0,0,1-1,.57,3.42,3.42,0,0,1-3.34-.57,2.75,2.75,0,0,1-.69-.88,2.32,2.32,0,0,1-.24-1V328h2.1v.16a.73.73,0,0,0,.3.59,1,1,0,0,0,.7.25,1.12,1.12,0,0,0,.74-.25.73.73,0,0,0,.3-.59.7.7,0,0,0-.32-.53,1.56,1.56,0,0,0-.34-.18,2.84,2.84,0,0,0-.46-.14l-.4-.1a10.25,10.25,0,0,1-1-.3,2,2,0,0,1-.69-.41l0,0a2.48,2.48,0,0,1-.64-.84,2.38,2.38,0,0,1-.22-1,2.32,2.32,0,0,1,.24-1,2.75,2.75,0,0,1,.69-.88,3.1,3.1,0,0,1,1-.57,3.52,3.52,0,0,1,2.34,0,3,3,0,0,1,1,.57,2.71,2.71,0,0,1,.68.88,2.31,2.31,0,0,1,.23,1v.16Z"/><path d="M233.91,324.81v-.16a.75.75,0,0,0-.29-.59,1.07,1.07,0,0,0-.72-.25,1.12,1.12,0,0,0-.74.25.73.73,0,0,0-.3.59.56.56,0,0,0,.31.52,2.78,2.78,0,0,0,.82.33l.18,0,.21,0a4.13,4.13,0,0,1,1.72.7l.11.1a2.56,2.56,0,0,1,.57.83,2.38,2.38,0,0,1,.21,1,2.32,2.32,0,0,1-.24,1,2.58,2.58,0,0,1-.68.88,3.51,3.51,0,0,1-1,.57,3.6,3.6,0,0,1-1.18.19,3.29,3.29,0,0,1-2.17-.76,2.75,2.75,0,0,1-.69-.88,2.32,2.32,0,0,1-.24-1V328h2.1v.16a.73.73,0,0,0,.3.59,1,1,0,0,0,.7.25,1.12,1.12,0,0,0,.74-.25.73.73,0,0,0,.3-.59.67.67,0,0,0-.32-.53,1.56,1.56,0,0,0-.34-.18,2.84,2.84,0,0,0-.46-.14l-.4-.1c-.44-.11-.78-.21-1-.3a2,2,0,0,1-.69-.41l0,0a2.33,2.33,0,0,1-.63-.84,2.24,2.24,0,0,1-.23-1,2.32,2.32,0,0,1,.24-1,2.75,2.75,0,0,1,.69-.88,3.1,3.1,0,0,1,1-.57,3.51,3.51,0,0,1,1.17-.2,3.61,3.61,0,0,1,1.18.2,3.1,3.1,0,0,1,1,.57,2.58,2.58,0,0,1,.68.88,2.32,2.32,0,0,1,.24,1v.16Z"/><path d="M241.6,328.42a2.3,2.3,0,0,0,.72-.47l1.47,1.46a4.31,4.31,0,0,1-1.38.93,4.34,4.34,0,0,1-3.81-.24,4.48,4.48,0,0,1-1.56-1.56,4.34,4.34,0,0,1,0-4.3,4.35,4.35,0,0,1,1.56-1.57,4.3,4.3,0,0,1,3.81-.25,4.31,4.31,0,0,1,1.38.93l-1.47,1.47a2.52,2.52,0,0,0-.72-.48,2.22,2.22,0,0,0-.85-.17,2.09,2.09,0,0,0-1.1.3,2.25,2.25,0,0,0-.81.81,2.15,2.15,0,0,0-.3,1.11,2.09,2.09,0,0,0,.3,1.1,2.25,2.25,0,0,0,.81.81,2.09,2.09,0,0,0,1.1.3A2.06,2.06,0,0,0,241.6,328.42Z"/><path d="M251.43,330.6h-2.17l-1.35-3.2h-1.38v3.2h-2v-8.48h4a2.63,2.63,0,0,1,2.64,2.64,2.59,2.59,0,0,1-.32,1.26,2.79,2.79,0,0,1-.88,1ZM249,324.14a.78.78,0,0,0-.56-.28h-2v1.8h2a.84.84,0,0,0,.56-.3.92.92,0,0,0,0-1.22Z"/><path d="M257.92,328.77v1.83h-5.77v-8.48h5.66V324h-3.49v1.49h2.94v1.84h-2.94v1.49Z"/><path d="M264.65,328.77v1.83h-5.77v-8.48h5.67V324h-3.5v1.49H264v1.84h-2.94v1.49Z"/><path d="M270.28,322.12h2.16v8.48h-2.16l-2.49-4.55v4.55h-2.18v-8.48h2.18l2.49,4.55Z"/><path d="M277.28,324.81v-.16a.73.73,0,0,0-.3-.59,1,1,0,0,0-.71-.25,1.12,1.12,0,0,0-.74.25.73.73,0,0,0-.3.59.56.56,0,0,0,.31.52,2.83,2.83,0,0,0,.81.33l.19,0,.21,0a4,4,0,0,1,1.71.7l.11.1a2.56,2.56,0,0,1,.57.83,2.38,2.38,0,0,1,.21,1,2.31,2.31,0,0,1-.23,1,2.71,2.71,0,0,1-.68.88,3.44,3.44,0,0,1-1,.57,3.7,3.7,0,0,1-2.34,0,3.38,3.38,0,0,1-1-.57,2.75,2.75,0,0,1-.69-.88,2.32,2.32,0,0,1-.24-1V328h2.1v.16a.75.75,0,0,0,.29.59,1.06,1.06,0,0,0,.71.25,1.14,1.14,0,0,0,.74-.25.73.73,0,0,0,.3-.59.7.7,0,0,0-.32-.53,1.56,1.56,0,0,0-.34-.18,3,3,0,0,0-.47-.14l-.39-.1a10.25,10.25,0,0,1-1-.3,2,2,0,0,1-.69-.41l-.05,0a2.58,2.58,0,0,1-.63-.84,2.38,2.38,0,0,1-.22-1,2.32,2.32,0,0,1,.24-1,2.75,2.75,0,0,1,.69-.88,3,3,0,0,1,1-.57,3.52,3.52,0,0,1,2.34,0,3,3,0,0,1,1,.57,2.71,2.71,0,0,1,.68.88,2.31,2.31,0,0,1,.23,1v.16Z"/><path d="M284.66,322.12h2.16v8.48h-2.16v-3.17h-2.43v3.17h-2.16v-8.48h2.16v3.15h2.43Z"/><path d="M294,322.69a4.27,4.27,0,0,1,1.56,1.57,4.16,4.16,0,0,1,.58,2.15,4.1,4.1,0,0,1-.58,2.15,4.17,4.17,0,0,1-1.56,1.56,4.1,4.1,0,0,1-2.15.58,4.16,4.16,0,0,1-2.15-.58,4.27,4.27,0,0,1-1.57-1.56,4.19,4.19,0,0,1-.57-2.15,4.24,4.24,0,0,1,.57-2.15,4.38,4.38,0,0,1,1.57-1.57,4.24,4.24,0,0,1,2.15-.57A4.19,4.19,0,0,1,294,322.69Zm-1,5.63a2.36,2.36,0,0,0,.8-.8,2.2,2.2,0,0,0,0-2.22,2.3,2.3,0,0,0-.8-.81,2.2,2.2,0,0,0-2.22,0,2.25,2.25,0,0,0-.81.81,2.2,2.2,0,0,0,0,2.22,2.3,2.3,0,0,0,.81.8,2.2,2.2,0,0,0,2.22,0Z"/><path d="M303.23,322.12v2.16h-2.17v6.32h-2.17v-6.32h-2.17v-2.16h6.51Z"/><path d="M308,324.81v-.16a.75.75,0,0,0-.29-.59,1.07,1.07,0,0,0-.72-.25,1.12,1.12,0,0,0-.74.25.73.73,0,0,0-.3.59.56.56,0,0,0,.31.52,2.78,2.78,0,0,0,.82.33l.18,0,.21,0a4.13,4.13,0,0,1,1.72.7l.11.1a2.56,2.56,0,0,1,.57.83,2.38,2.38,0,0,1,.21,1,2.32,2.32,0,0,1-.24,1,2.71,2.71,0,0,1-.68.88,3.51,3.51,0,0,1-1,.57,3.6,3.6,0,0,1-1.18.19,3.29,3.29,0,0,1-2.17-.76,2.75,2.75,0,0,1-.69-.88,2.32,2.32,0,0,1-.24-1V328h2.1v.16a.73.73,0,0,0,.3.59,1,1,0,0,0,.7.25,1.12,1.12,0,0,0,.74-.25.73.73,0,0,0,.3-.59.67.67,0,0,0-.32-.53,1.56,1.56,0,0,0-.34-.18,2.84,2.84,0,0,0-.46-.14l-.4-.1c-.44-.11-.78-.21-1-.3a2,2,0,0,1-.69-.41l0,0a2.48,2.48,0,0,1-.64-.84,2.38,2.38,0,0,1-.22-1,2.32,2.32,0,0,1,.24-1,2.75,2.75,0,0,1,.69-.88,3.1,3.1,0,0,1,1-.57,3.51,3.51,0,0,1,1.17-.2,3.61,3.61,0,0,1,1.18.2,3.1,3.1,0,0,1,1,.57,2.71,2.71,0,0,1,.68.88,2.32,2.32,0,0,1,.24,1v.16Z"/><path d="M38.52,337.09a4.43,4.43,0,0,1,1.56,1.57,4.24,4.24,0,0,1,.57,2.15,4.19,4.19,0,0,1-.57,2.15,4.32,4.32,0,0,1-1.56,1.56A4.29,4.29,0,0,1,32.65,343a4.2,4.2,0,0,1-.58-2.15,4.31,4.31,0,0,1,6.45-3.72Zm-1.05,5.63a2.3,2.3,0,0,0,.81-.8,2.2,2.2,0,0,0,0-2.22,2.25,2.25,0,0,0-.81-.81,2.09,2.09,0,0,0-1.1-.3,2.15,2.15,0,0,0-1.11.3,2.25,2.25,0,0,0-.81.81,2.2,2.2,0,0,0,0,2.22,2.3,2.3,0,0,0,.81.8,2.15,2.15,0,0,0,1.11.3A2.09,2.09,0,0,0,37.47,342.72Z"/><path d="M47.28,338.35H43.53v1.49h3v1.84h-3V345H41.37v-8.48h5.91Z"/><path d="M53.76,336.52V345H51.6v-8.48Z"/><path d="M61.26,336.52h2.16V345H61.26v-4.79l-1.06,1.92-.05.1H58l-.06-.1-.14-.27-.9-1.65V345H54.72v-8.48h2.17l2.18,3.61Z"/><path d="M69.75,336.87a2.76,2.76,0,0,1,1,1,2.67,2.67,0,0,1,.35,1.33,2.62,2.62,0,0,1-1.31,2.28,2.58,2.58,0,0,1-1.33.36h-2V345h-2v-8.48h4A2.67,2.67,0,0,1,69.75,336.87Zm-.83,1.67a.82.82,0,0,0-.57-.28h-2v1.8h2a.85.85,0,0,0,.57-.3.88.88,0,0,0,.23-.61A.84.84,0,0,0,68.92,338.54Z"/><path d="M73.94,343h3.34v2h-5.5v-8.48h2.16Z"/><path d="M83.89,343.17V345H78.12v-8.48h5.66v1.83H80.29v1.49h2.94v1.84H80.29v1.49Z"/><path d="M91.39,336.52h2.16V345H91.39v-4.79l-1.06,1.92,0,.1H88.13l-.07-.1-.14-.27-.9-1.65V345H84.85v-8.48H87l2.19,3.61Z"/><path d="M100.28,343.17V345H94.51v-8.48h5.66v1.83H96.68v1.49h2.94v1.84H96.68v1.49Z"/><path d="M105.91,336.52h2.16V345h-2.16l-2.5-4.55V345h-2.17v-8.48h2.17l2.5,4.55Z"/><path d="M115.42,336.52v2.16h-2.17V345h-2.17v-6.32h-2.17v-2.16h6.51Z"/><path d="M122,343.17V345h-5.78v-8.48h5.67v1.83h-3.49v1.49h2.94v1.84h-2.94v1.49Z"/><path d="M126.72,336.49a4.79,4.79,0,0,1,1.27.3,3.67,3.67,0,0,1,1.17.74,4.07,4.07,0,0,1,1,1.45,4.3,4.3,0,0,1,.37,1.75,4.2,4.2,0,0,1-.47,2,3.94,3.94,0,0,1-1.31,1.5,4.59,4.59,0,0,1-1.73.67,12.38,12.38,0,0,1-2.14.17l-1,0H123v-8.58h2.17A14,14,0,0,1,126.72,336.49Zm1.78,4.24a2.21,2.21,0,0,0-.28-1.09,2.39,2.39,0,0,0-.79-.82,2.07,2.07,0,0,0-1.09-.32h-1.17v4.43a9,9,0,0,0,1.48-.11,2.47,2.47,0,0,0,1.12-.47,1.89,1.89,0,0,0,.67-1.12A2.34,2.34,0,0,0,128.5,340.73Z"/><path d="M139.3,336.6l2.78,8.4H140l-.55-1.71h-2.63l-.54,1.71h-2.1l2.78-8.4Zm-1.93,4.93h1.51l-.75-2.37Z"/><path d="M144.48,336.52V345h-2.16v-8.48Z"/><path d="M152.36,345h-2.17l-1.35-3.2h-1.38V345h-2v-8.48h4a2.63,2.63,0,0,1,2.64,2.64,2.5,2.5,0,0,1-.33,1.26,2.67,2.67,0,0,1-.87,1ZM150,338.54a.78.78,0,0,0-.56-.28h-2v1.8h2a.84.84,0,0,0,.56-.3.92.92,0,0,0,0-1.22Z"/><path d="M156.8,336.49a4.86,4.86,0,0,1,1.28.3,3.67,3.67,0,0,1,1.17.74,4.2,4.2,0,0,1,1,1.45,4.46,4.46,0,0,1,.36,1.75,4.08,4.08,0,0,1-.47,2,3.94,3.94,0,0,1-1.31,1.5,4.52,4.52,0,0,1-1.73.67A12.29,12.29,0,0,1,155,345l-1,0h-.94v-8.58h2.17A13.85,13.85,0,0,1,156.8,336.49Zm1.79,4.24a2.26,2.26,0,0,0-1.08-1.91,2.06,2.06,0,0,0-1.08-.32h-1.18v4.43a8.86,8.86,0,0,0,1.48-.11,2.38,2.38,0,0,0,1.12-.47,1.9,1.9,0,0,0,.68-1.12A2.34,2.34,0,0,0,158.59,340.73Z"/><path d="M168.29,345h-2.17l-1.34-3.2H163.4V345h-2v-8.48h4a2.66,2.66,0,0,1,1.32.35,2.7,2.7,0,0,1,1,1,2.57,2.57,0,0,1,.36,1.32,2.5,2.5,0,0,1-.33,1.26,2.77,2.77,0,0,1-.87,1Zm-2.38-6.46a.79.79,0,0,0-.57-.28h-2v1.8h2a.85.85,0,0,0,.57-.3.92.92,0,0,0,0-1.22Z"/><path d="M175.22,337.09a4.33,4.33,0,0,1,2.14,3.72,4.3,4.3,0,0,1-2.14,3.71,4.27,4.27,0,0,1-4.3,0,4.27,4.27,0,0,1-1.57-1.56,4.19,4.19,0,0,1-.57-2.15,4.24,4.24,0,0,1,.57-2.15,4.38,4.38,0,0,1,1.57-1.57,4.34,4.34,0,0,1,4.3,0Zm-1,5.63a2.36,2.36,0,0,0,.8-.8,2.2,2.2,0,0,0,0-2.22,2.3,2.3,0,0,0-.8-.81,2.2,2.2,0,0,0-2.22,0,2.25,2.25,0,0,0-.81.81,2.2,2.2,0,0,0,0,2.22,2.3,2.3,0,0,0,.81.8,2.2,2.2,0,0,0,2.22,0Z"/><path d="M183.45,336.87a2.76,2.76,0,0,1,1,1,2.67,2.67,0,0,1,.35,1.33,2.62,2.62,0,0,1-1.31,2.28,2.58,2.58,0,0,1-1.33.36h-2V345h-2v-8.48h4A2.67,2.67,0,0,1,183.45,336.87Zm-.83,1.67a.82.82,0,0,0-.57-.28h-2v1.8h2a.85.85,0,0,0,.57-.3.93.93,0,0,0,.23-.61A.89.89,0,0,0,182.62,338.54Z"/><path d="M194,342.82a2.23,2.23,0,0,0,.73-.47l1.46,1.46a4.31,4.31,0,0,1-1.38.93,4.34,4.34,0,0,1-3.81-.24,4.37,4.37,0,0,1-1.55-1.56,4.27,4.27,0,0,1,0-4.3,4.28,4.28,0,0,1,5.36-1.82,4.31,4.31,0,0,1,1.38.93l-1.46,1.47a2.44,2.44,0,0,0-.73-.48,2.22,2.22,0,0,0-.85-.17,2.12,2.12,0,0,0-1.1.3,2.33,2.33,0,0,0-.81.81,2.24,2.24,0,0,0-.29,1.11,2.18,2.18,0,0,0,.29,1.1,2.33,2.33,0,0,0,.81.81,2.12,2.12,0,0,0,1.1.3A2.06,2.06,0,0,0,194,342.82Z"/><path d="M203.08,337.09a4.27,4.27,0,0,1,1.56,1.57,4.16,4.16,0,0,1,.58,2.15,4.1,4.1,0,0,1-.58,2.15,4.17,4.17,0,0,1-1.56,1.56,4.09,4.09,0,0,1-2.14.58,4.17,4.17,0,0,1-2.16-.58,4.27,4.27,0,0,1-1.57-1.56,4.19,4.19,0,0,1-.57-2.15,4.24,4.24,0,0,1,.57-2.15,4.38,4.38,0,0,1,1.57-1.57,4.25,4.25,0,0,1,2.16-.57A4.18,4.18,0,0,1,203.08,337.09Zm-1,5.63a2.27,2.27,0,0,0,.8-.8,2.2,2.2,0,0,0,0-2.22,2.22,2.22,0,0,0-.8-.81,2.14,2.14,0,0,0-1.1-.3,2.21,2.21,0,0,0-1.12.3,2.14,2.14,0,0,0-.8.81,2.14,2.14,0,0,0,0,2.22,2.21,2.21,0,0,0,1.92,1.1A2.14,2.14,0,0,0,202,342.72Z"/><path d="M212.48,336.52h2.16V345h-2.16v-4.79l-1.06,1.92,0,.1h-2.17l-.06-.1-.14-.27-.9-1.65V345h-2.17v-8.48h2.17l2.18,3.61Z"/><path d="M221,336.87a2.76,2.76,0,0,1,1,1,2.67,2.67,0,0,1,.35,1.33,2.62,2.62,0,0,1-1.31,2.28,2.58,2.58,0,0,1-1.33.36h-2V345h-2v-8.48h4A2.67,2.67,0,0,1,221,336.87Zm-.83,1.67a.82.82,0,0,0-.57-.28h-2v1.8h2a.85.85,0,0,0,.57-.3.89.89,0,0,0,.24-.61A.85.85,0,0,0,220.14,338.54Z"/><path d="M227.42,336.6l2.77,8.4H228.1l-.55-1.71h-2.63l-.54,1.71h-2.1l2.79-8.4Zm-1.93,4.93H227l-.76-2.37Z"/><path d="M235.1,336.52h2.16V345H235.1l-2.5-4.55V345h-2.17v-8.48h2.17l2.5,4.55Z"/><path d="M240.38,336.52V345h-2.16v-8.48Z"/><path d="M247.11,343.17V345h-5.77v-8.48H247v1.83h-3.49v1.49h2.94v1.84h-2.94v1.49Z"/><path d="M252,339.21v-.16a.73.73,0,0,0-.3-.59,1,1,0,0,0-.71-.25,1.11,1.11,0,0,0-.74.25.74.74,0,0,0-.31.59.57.57,0,0,0,.32.52,2.83,2.83,0,0,0,.81.33l.19,0,.21.05a4.07,4.07,0,0,1,1.71.7l.11.1a2.56,2.56,0,0,1,.57.83,2.38,2.38,0,0,1,.21,1,2.46,2.46,0,0,1-.23,1,2.71,2.71,0,0,1-.68.88,3.34,3.34,0,0,1-2.18.76,3.5,3.5,0,0,1-1.17-.19,3.57,3.57,0,0,1-1-.57,2.86,2.86,0,0,1-.68-.88,2.32,2.32,0,0,1-.24-1v-.16h2.1v.16a.75.75,0,0,0,.29.59,1,1,0,0,0,.71.25,1.1,1.1,0,0,0,.73-.25.72.72,0,0,0,.31-.59.7.7,0,0,0-.32-.53,1.56,1.56,0,0,0-.34-.18,3,3,0,0,0-.47-.14l-.39-.1c-.44-.11-.79-.21-1-.3a2.1,2.1,0,0,1-.68-.41l0-.05a2.58,2.58,0,0,1-.63-.84,2.23,2.23,0,0,1-.22-1,2.32,2.32,0,0,1,.24-1,2.86,2.86,0,0,1,.68-.88,3.14,3.14,0,0,1,1-.57,3.51,3.51,0,0,1,1.17-.2,3.55,3.55,0,0,1,1.17.2,3.14,3.14,0,0,1,1,.57,2.71,2.71,0,0,1,.68.88,2.46,2.46,0,0,1,.23,1v.16Z"/><path class="cls-2" d="M44.12,270.82h3.12V285h-3.6l-3.64-6-3.66,6h-3.6V270.82h3.6v8l1.76-3.2.1-.16h3.6l.08.16,1.76,3.2v-8Z"/><path class="cls-2" d="M56.48,270.82h3.6V285h-3.6v-5.28h-4V285h-3.6V270.82h3.6v5.26h4Z"/><path class="cls-2" d="M71.3,281.9V285H61.68V270.82h9.44v3.06H65.3v2.48h4.9v3.06H65.3v2.48Z"/><path class="cls-2" d="M84.44,285H80.82l-2.24-5.34h-2.3V285H72.9V270.82h6.74a4.34,4.34,0,0,1,2.2.59A4.29,4.29,0,0,1,83.45,273a4.39,4.39,0,0,1,0,4.31A4.46,4.46,0,0,1,82,278.92Zm-4-10.77a1.34,1.34,0,0,0-.94-.47H76.2v3h3.32a1.4,1.4,0,0,0,.94-.49,1.52,1.52,0,0,0,.38-1A1.49,1.49,0,0,0,80.46,274.19Z"/><path class="cls-2" d="M95.26,281.9V285H85.64V270.82h9.44v3.06H89.26v2.48h4.9v3.06h-4.9v2.48Z"/><path class="cls-2" d="M110.38,270.82H114l-4.16,8.38V285h-3.6V279.2l-4.16-8.38h3.6l2.36,4.82Z"/><path class="cls-2" d="M125.12,271.78a7.15,7.15,0,0,1,2.6,2.61,7.17,7.17,0,0,1,0,7.17,7.2,7.2,0,0,1-2.6,2.6,7.17,7.17,0,0,1-7.17,0,7.15,7.15,0,0,1-2.61-2.6,7.17,7.17,0,0,1,0-7.17,7.1,7.1,0,0,1,2.61-2.61,7.17,7.17,0,0,1,7.17,0Zm-1.74,9.38a3.74,3.74,0,0,0,1.34-1.34,3.55,3.55,0,0,0,.5-1.84,3.62,3.62,0,0,0-.5-1.85,3.69,3.69,0,0,0-1.34-1.35,3.55,3.55,0,0,0-1.84-.5,3.71,3.71,0,0,0-3.7,3.7,3.55,3.55,0,0,0,.5,1.84,3.69,3.69,0,0,0,1.35,1.34,3.62,3.62,0,0,0,1.85.5A3.55,3.55,0,0,0,123.38,281.16Z"/><path class="cls-2" d="M141.38,270.84v8.74a5.44,5.44,0,0,1-.75,2.8,5.59,5.59,0,0,1-2,2,5.5,5.5,0,0,1-2.81.75h-.32a5.44,5.44,0,0,1-2.8-.75,5.64,5.64,0,0,1-2-2,5.44,5.44,0,0,1-.75-2.8v-8.74h3.34v7.94a3.4,3.4,0,0,0,.6,2.06,1.92,1.92,0,0,0,1.64.82h.32a2,2,0,0,0,1.63-.83,3.29,3.29,0,0,0,.63-2.05v-7.94Z"/><path class="cls-2" d="M157.14,281.33a4,4,0,0,0,1.2-.79l2.44,2.44a7.18,7.18,0,0,1-2.3,1.55,7.17,7.17,0,0,1-6.34-.41,7.2,7.2,0,0,1-2.6-2.6,7.17,7.17,0,0,1,0-7.17,7.15,7.15,0,0,1,2.6-2.61,7.17,7.17,0,0,1,6.34-.41,7.18,7.18,0,0,1,2.3,1.55l-2.44,2.44a4,4,0,0,0-1.2-.79,3.64,3.64,0,0,0-1.42-.29,3.55,3.55,0,0,0-1.84.5,3.69,3.69,0,0,0-1.34,1.35,3.62,3.62,0,0,0-.5,1.85,3.55,3.55,0,0,0,.5,1.84,3.74,3.74,0,0,0,1.34,1.34,3.55,3.55,0,0,0,1.84.5A3.64,3.64,0,0,0,157.14,281.33Z"/><path class="cls-2" d="M169.34,271,174,285h-3.48l-.92-2.86h-4.38l-.9,2.86h-3.5l4.64-14Zm-3.22,8.22h2.52l-1.26-4Z"/><path class="cls-2" d="M182.14,270.82h3.6V285h-3.6L178,277.38V285h-3.62V270.82H178l4.16,7.58Z"/><path class="cls-2" d="M202.64,270.78h3.92L201.94,285h-4.4l-4.6-14.18h4l2.86,8.84Z"/><path class="cls-2" d="M211.36,270.82V285h-3.6V270.82Z"/><path class="cls-2" d="M222.58,281.9V285H213V270.82h9.44v3.06h-5.82v2.48h4.9v3.06h-4.9v2.48Z"/><path class="cls-2" d="M235.56,270.82h3.12V285h-3.6l-3.64-6-3.66,6h-3.6V270.82h3.6v8l1.76-3.2.1-.16h3.6l.08.16,1.76,3.2v-8Z"/><path class="cls-2" d="M42.36,305.9V309H32.74V294.82h9.44v3.06H36.36v2.48h4.9v3.06h-4.9v2.48Z"/><path class="cls-2" d="M56.38,309H52.2L50,305.28,47.74,309H43.56l4.32-7.14-4.24-7h4.18L50,298.36l2.14-3.54h4.2l-4.24,7Z"/><path class="cls-2" d="M64.94,295l4.62,14H66.08l-.92-2.86H60.78l-.9,2.86h-3.5L61,295Zm-3.22,8.22h2.52l-1.26-4Z"/><path class="cls-2" d="M80.86,294.82h3.6V309h-3.6v-8l-1.76,3.2-.08.16h-3.6l-.1-.16-.24-.46L73.58,301v8H70V294.82h3.62l3.64,6Z"/><path class="cls-2" d="M95,295.41a4.31,4.31,0,0,1,1.6,1.6,4.43,4.43,0,0,1,0,4.42,4.39,4.39,0,0,1-3.81,2.19H89.44V309H86.06V294.82H92.8A4.33,4.33,0,0,1,95,295.41Zm-1.38,2.78a1.38,1.38,0,0,0-.95-.47H89.36v3h3.32a1.37,1.37,0,0,0,.95-.49,1.52,1.52,0,0,0,.39-1A1.45,1.45,0,0,0,93.63,298.19Z"/><path class="cls-2" d="M102,305.56h5.56V309H98.4V294.82H102Z"/><path class="cls-2" d="M118.58,305.9V309H109V294.82h9.44v3.06h-5.82v2.48h4.9v3.06h-4.9v2.48Z"/><path class="cls-2" d="M126.64,299.3V299a1.23,1.23,0,0,0-.49-1,1.79,1.79,0,0,0-1.19-.41,1.92,1.92,0,0,0-1.23.41,1.22,1.22,0,0,0-.51,1,.91.91,0,0,0,.52.86,4.46,4.46,0,0,0,1.36.56l.31.06.35.08a7,7,0,0,1,2.86,1.18l.18.16a4.31,4.31,0,0,1,.95,1.38,4,4,0,0,1,.35,1.6,4,4,0,0,1-.39,1.72,4.36,4.36,0,0,1-1.13,1.46,5.34,5.34,0,0,1-1.68.95,6,6,0,0,1-3.91,0,5.41,5.41,0,0,1-1.67-.95,4.67,4.67,0,0,1-1.14-1.46,4,4,0,0,1-.4-1.72v-.26h3.5v.26a1.26,1.26,0,0,0,.49,1,1.79,1.79,0,0,0,1.17.41,1.92,1.92,0,0,0,1.23-.41,1.22,1.22,0,0,0,.51-1,1.15,1.15,0,0,0-.54-.88,2.29,2.29,0,0,0-.56-.3,7.5,7.5,0,0,0-.78-.24l-.66-.16c-.73-.19-1.31-.35-1.72-.5a3.52,3.52,0,0,1-1.14-.68l-.08-.08a4.56,4.56,0,0,1-1-1.4,3.74,3.74,0,0,1-.37-1.64,4,4,0,0,1,.4-1.72,4.67,4.67,0,0,1,1.14-1.46,5.41,5.41,0,0,1,1.67-.95,6,6,0,0,1,3.91,0,5.34,5.34,0,0,1,1.68.95,4.36,4.36,0,0,1,1.13,1.46,4,4,0,0,1,.39,1.72v.26Z"/><path class="cls-2" d="M131.9,302.26a1.83,1.83,0,0,1-.5-1.16,1.62,1.62,0,0,1,1.62-1.66,1.64,1.64,0,0,1,1.66,1.66,1.56,1.56,0,0,1-.49,1.16,1.61,1.61,0,0,1-1.17.48A1.5,1.5,0,0,1,131.9,302.26Zm0,6.22a1.83,1.83,0,0,1-.5-1.16,1.62,1.62,0,0,1,1.62-1.66,1.64,1.64,0,0,1,1.66,1.66,1.56,1.56,0,0,1-.49,1.16A1.61,1.61,0,0,1,133,309,1.5,1.5,0,0,1,131.9,308.48Z"/></svg>