<svg id="Слой_1" data-name="Слой 1" xmlns="http://www.w3.org/2000/svg" viewBox="0 0 405 405"><defs><style>.cls-1{fill:#fff;}.cls-2{fill:#e7335d;}.cls-3{fill:#378762;}.cls-4{fill:#fcea0d;}</style></defs><rect class="cls-1" width="405" height="405"/><path class="cls-1" d="M73.19,160.15h1.9v7.32h-1.9v-2.73H71.05v2.73h-1.9v-7.32h1.9v2.72h2.14Z"/><path class="cls-1" d="M81,165.88v1.59H75.93v-7.32h5v1.58H77.84V163h2.59v1.58H77.84v1.28Z"/><path class="cls-1" d="M88,167.47H86l-1.18-2.76H83.64v2.76H81.86v-7.32h3.56a2.36,2.36,0,0,1,2,1.14,2.22,2.22,0,0,1,0,2.23,2.32,2.32,0,0,1-.77.82Zm-2.1-5.58a.77.77,0,0,0-.5-.24H83.6v1.55h1.75a.73.73,0,0,0,.5-.25.78.78,0,0,0,.2-.53A.79.79,0,0,0,85.85,161.89Z"/><path class="cls-1" d="M93.67,165.88v1.59H88.58v-7.32h5v1.58H90.5V163h2.58v1.58H90.5v1.28Z"/><path class="cls-1" d="M130.06,177.5H32.75a.75.75,0,0,1-.75-.75V151a.75.75,0,0,1,.75-.75h97.31a.74.74,0,0,1,.75.75v25.77A.74.74,0,0,1,130.06,177.5ZM33.5,176h95.81V151.73H33.5Z"/><path class="cls-2" d="M44.12,39h3.12V53.09h-3.6l-3.64-6-3.66,6h-3.6V39h3.6v8l1.76-3.2.1-.16h3.6l.08.16,1.76,3.2V39Z"/><path class="cls-2" d="M56.48,39h3.6V53.09h-3.6V47.81h-4v5.28h-3.6V39h3.6v5.26h4Z"/><path class="cls-2" d="M69,39.09l4.62,14H70.18l-.92-2.86H64.88L64,53.09h-3.5l4.64-14Zm-3.22,8.22h2.52l-1.26-4Z"/><path class="cls-2" d="M84.72,39v3.6H81.1V53.09H77.48V42.55H73.86V39H84.72Z"/><path class="cls-2" d="M95.72,39V53.09h-3.6V39Z"/><path class="cls-2" d="M103.78,43.43v-.26a1.23,1.23,0,0,0-.49-1,1.76,1.76,0,0,0-1.19-.41,1.87,1.87,0,0,0-1.23.41,1.22,1.22,0,0,0-.51,1,.92.92,0,0,0,.52.86,4.6,4.6,0,0,0,1.36.56l.31.06.35.08a6.82,6.82,0,0,1,2.86,1.18l.18.16a4.2,4.2,0,0,1,1,1.38,3.91,3.91,0,0,1,0,3.32,4.6,4.6,0,0,1-1.13,1.46,5.34,5.34,0,0,1-1.68,1,5.89,5.89,0,0,1-2,.33,5.79,5.79,0,0,1-2-.33,5.41,5.41,0,0,1-1.67-1,4.79,4.79,0,0,1-1.14-1.46,3.84,3.84,0,0,1-.4-1.72v-.26h3.5v.26a1.26,1.26,0,0,0,.49,1,1.79,1.79,0,0,0,1.17.41,1.92,1.92,0,0,0,1.23-.41,1.25,1.25,0,0,0,.51-1,1.15,1.15,0,0,0-.54-.88,2.29,2.29,0,0,0-.56-.3,7.5,7.5,0,0,0-.78-.24l-.66-.16c-.73-.19-1.31-.35-1.72-.5a3.71,3.71,0,0,1-1.14-.68l-.08-.08a4.68,4.68,0,0,1-1-1.4,3.74,3.74,0,0,1-.37-1.64,3.81,3.81,0,0,1,.4-1.72A4.56,4.56,0,0,1,98.46,40a5.21,5.21,0,0,1,1.67-1,5.79,5.79,0,0,1,2-.33,5.89,5.89,0,0,1,2,.33,5.15,5.15,0,0,1,1.68,1,4.39,4.39,0,0,1,1.13,1.46,3.94,3.94,0,0,1,.39,1.72v.26Z"/><path class="cls-2" d="M118,39V53.09h-3.6V39Z"/><path class="cls-2" d="M127.42,39H131V53.09h-3.6l-4.16-7.58v7.58h-3.62V39h3.62l4.16,7.58Z"/><path class="cls-2" d="M140.78,49.46a4.24,4.24,0,0,0,1.2-.79l2.44,2.44a7.18,7.18,0,0,1-2.3,1.55,7.17,7.17,0,0,1-6.34-.41,7.2,7.2,0,0,1-2.6-2.6,7.17,7.17,0,0,1,0-7.17,7.15,7.15,0,0,1,2.6-2.61A7.13,7.13,0,0,1,144.42,41L142,43.45a4,4,0,0,0-1.2-.79,3.47,3.47,0,0,0-1.42-.29,3.55,3.55,0,0,0-1.84.5,3.69,3.69,0,0,0-1.34,1.35,3.65,3.65,0,0,0,0,3.69,3.82,3.82,0,0,0,1.34,1.34,3.55,3.55,0,0,0,1.84.5A3.64,3.64,0,0,0,140.78,49.46Z"/><path class="cls-2" d="M149.22,49.69h5.56v3.4h-9.16V39h3.6Z"/><path class="cls-2" d="M167.68,39v8.74a5.47,5.47,0,0,1-.75,2.8,5.59,5.59,0,0,1-2,2,5.5,5.5,0,0,1-2.81.75h-.32a5.44,5.44,0,0,1-2.8-.75,5.64,5.64,0,0,1-2-2,5.47,5.47,0,0,1-.75-2.8V39h3.34v7.94a3.42,3.42,0,0,0,.6,2.06,1.94,1.94,0,0,0,1.64.82h.32a2,2,0,0,0,1.63-.83,3.31,3.31,0,0,0,.63-2.05V39Z"/><path class="cls-2" d="M175.48,38.9a8.07,8.07,0,0,1,2.13.51,6,6,0,0,1,1.95,1.22,7,7,0,0,1,1.73,2.43A7.2,7.2,0,0,1,181.9,46a6.91,6.91,0,0,1-.78,3.26,6.48,6.48,0,0,1-2.19,2.5,7.78,7.78,0,0,1-2.88,1.13,20.94,20.94,0,0,1-3.57.27l-1.64,0c-.35,0-.87,0-1.56,0V38.79h3.62A24.06,24.06,0,0,1,175.48,38.9Zm3,7.07a3.61,3.61,0,0,0-.48-1.81,3.74,3.74,0,0,0-1.31-1.37,3.42,3.42,0,0,0-1.81-.54h-2v7.38a15.85,15.85,0,0,0,2.47-.17,4.29,4.29,0,0,0,1.86-.79,3.2,3.2,0,0,0,1.13-1.86A3.82,3.82,0,0,0,178.46,46Z"/><path class="cls-2" d="M192.72,50v3.06H183.1V39h9.44V42h-5.82v2.48h4.9v3.06h-4.9V50Z"/><path class="cls-2" d="M200.52,38.9a8.07,8.07,0,0,1,2.13.51,6,6,0,0,1,1.95,1.22,7,7,0,0,1,1.73,2.43,7.2,7.2,0,0,1,.61,2.91,6.91,6.91,0,0,1-.78,3.26,6.48,6.48,0,0,1-2.19,2.5,7.78,7.78,0,0,1-2.88,1.13,20.94,20.94,0,0,1-3.57.27l-1.64,0c-.35,0-.87,0-1.56,0V38.79h3.62A24.06,24.06,0,0,1,200.52,38.9Zm3,7.07a3.61,3.61,0,0,0-.48-1.81,3.74,3.74,0,0,0-1.31-1.37,3.42,3.42,0,0,0-1.81-.54h-2v7.38a15.85,15.85,0,0,0,2.47-.17,4.29,4.29,0,0,0,1.86-.79,3.2,3.2,0,0,0,1.13-1.86A3.82,3.82,0,0,0,203.5,46Z"/><path class="cls-2" d="M36.34,63V77.09h-3.6V63Z"/><path class="cls-2" d="M45.72,63h3.6V77.09h-3.6l-4.16-7.58v7.58H37.94V63h3.62l4.16,7.58Z"/><path class="cls-2" d="M67.58,63v3.6H64V77.09H60.34V66.55H56.72V63H67.58Z"/><path class="cls-2" d="M76.62,63h3.6V77.09h-3.6V71.81h-4v5.28H69V63h3.6v5.26h4Z"/><path class="cls-2" d="M91.44,74v3.06H81.82V63h9.44V66H85.44v2.48h4.9v3.06h-4.9V74Z"/><path class="cls-2" d="M105.5,67.43v-.26a1.23,1.23,0,0,0-.49-1,1.76,1.76,0,0,0-1.19-.41,1.87,1.87,0,0,0-1.23.41,1.22,1.22,0,0,0-.51,1,.92.92,0,0,0,.52.86,4.6,4.6,0,0,0,1.36.56l.31.06.35.08a6.82,6.82,0,0,1,2.86,1.18l.18.16a4.2,4.2,0,0,1,1,1.38,3.91,3.91,0,0,1,0,3.32,4.6,4.6,0,0,1-1.13,1.46,5.34,5.34,0,0,1-1.68,1,5.89,5.89,0,0,1-2,.33,5.79,5.79,0,0,1-2-.33,5.41,5.41,0,0,1-1.67-1A4.79,4.79,0,0,1,99,74.77a3.84,3.84,0,0,1-.4-1.72v-.26h3.5v.26a1.26,1.26,0,0,0,.49,1,1.79,1.79,0,0,0,1.17.41A1.92,1.92,0,0,0,105,74a1.25,1.25,0,0,0,.51-1,1.15,1.15,0,0,0-.54-.88,2.29,2.29,0,0,0-.56-.3,7.5,7.5,0,0,0-.78-.24l-.66-.16c-.73-.19-1.31-.35-1.72-.5a3.71,3.71,0,0,1-1.14-.68l-.08-.08a4.68,4.68,0,0,1-1-1.4,3.74,3.74,0,0,1-.37-1.64,3.81,3.81,0,0,1,.4-1.72A4.56,4.56,0,0,1,100.18,64a5.21,5.21,0,0,1,1.67-1,5.79,5.79,0,0,1,2-.33,5.89,5.89,0,0,1,2,.33,5.15,5.15,0,0,1,1.68,1,4.39,4.39,0,0,1,1.13,1.46,3.94,3.94,0,0,1,.39,1.72v.26Z"/><path class="cls-2" d="M119.78,74v3.06h-9.62V63h9.44V66h-5.82v2.48h4.9v3.06h-4.9V74Z"/><path class="cls-2" d="M132.92,77.09H129.3l-2.24-5.34h-2.3v5.34h-3.38V63h6.74a4.25,4.25,0,0,1,2.2.59,4.29,4.29,0,0,1,1.61,1.61,4.34,4.34,0,0,1,.59,2.2,4.28,4.28,0,0,1-.54,2.11,4.64,4.64,0,0,1-1.46,1.59Zm-4-10.77a1.34,1.34,0,0,0-.94-.47h-3.32v3H128a1.45,1.45,0,0,0,.94-.49,1.52,1.52,0,0,0,.38-1A1.49,1.49,0,0,0,128.94,66.32Z"/><path class="cls-2" d="M143.42,62.91h3.92l-4.62,14.18h-4.4l-4.6-14.18h4l2.86,8.84Z"/><path class="cls-2" d="M152.14,63V77.09h-3.6V63Z"/><path class="cls-2" d="M161.9,73.46a4.24,4.24,0,0,0,1.2-.79l2.44,2.44a7.18,7.18,0,0,1-2.3,1.55,7.17,7.17,0,0,1-6.34-.41,7.2,7.2,0,0,1-2.6-2.6,7.17,7.17,0,0,1,0-7.17,7.15,7.15,0,0,1,2.6-2.61A7.13,7.13,0,0,1,165.54,65l-2.44,2.44a4,4,0,0,0-1.2-.79,3.47,3.47,0,0,0-1.42-.29,3.55,3.55,0,0,0-1.84.5,3.69,3.69,0,0,0-1.34,1.35,3.65,3.65,0,0,0,0,3.69,3.82,3.82,0,0,0,1.34,1.34,3.55,3.55,0,0,0,1.84.5A3.64,3.64,0,0,0,161.9,73.46Z"/><path class="cls-2" d="M176.36,74v3.06h-9.62V63h9.44V66h-5.82v2.48h4.9v3.06h-4.9V74Z"/><path class="cls-2" d="M178.56,70.39a1.78,1.78,0,0,1-.5-1.16,1.62,1.62,0,0,1,1.62-1.66,1.64,1.64,0,0,1,1.66,1.66,1.56,1.56,0,0,1-.49,1.16,1.62,1.62,0,0,1-1.17.48A1.5,1.5,0,0,1,178.56,70.39Zm0,6.22a1.78,1.78,0,0,1-.5-1.16,1.62,1.62,0,0,1,1.62-1.66,1.64,1.64,0,0,1,1.66,1.66,1.56,1.56,0,0,1-.49,1.16,1.62,1.62,0,0,1-1.17.48A1.5,1.5,0,0,1,178.56,76.61Z"/><path class="cls-2" d="M44.12,303.14h3.12v14.14h-3.6l-3.64-6-3.66,6h-3.6V303.14h3.6v8l1.76-3.2.1-.16h3.6l.08.16,1.76,3.2v-8Z"/><path class="cls-2" d="M56.48,303.14h3.6v14.14h-3.6V312h-4v5.28h-3.6V303.14h3.6v5.26h4Z"/><path class="cls-2" d="M71.3,314.22v3.06H61.68V303.14h9.44v3.06H65.3v2.48h4.9v3.06H65.3v2.48Z"/><path class="cls-2" d="M84.44,317.28H80.82l-2.24-5.34h-2.3v5.34H72.9V303.14h6.74a4.34,4.34,0,0,1,2.2.59,4.29,4.29,0,0,1,1.61,1.61,4.39,4.39,0,0,1,0,4.31A4.46,4.46,0,0,1,82,311.24Zm-4-10.77a1.34,1.34,0,0,0-.94-.47H76.2v3h3.32a1.4,1.4,0,0,0,.94-.49,1.52,1.52,0,0,0,.38-1A1.49,1.49,0,0,0,80.46,306.51Z"/><path class="cls-2" d="M95.26,314.22v3.06H85.64V303.14h9.44v3.06H89.26v2.48h4.9v3.06h-4.9v2.48Z"/><path class="cls-2" d="M110.38,303.14H114l-4.16,8.38v5.76h-3.6v-5.76l-4.16-8.38h3.6L108,308Z"/><path class="cls-2" d="M125.12,304.1a7.15,7.15,0,0,1,2.6,2.61,7.17,7.17,0,0,1,0,7.17,7.2,7.2,0,0,1-2.6,2.6,7.17,7.17,0,0,1-7.17,0,7.15,7.15,0,0,1-2.61-2.6,7.17,7.17,0,0,1,0-7.17A7.1,7.1,0,0,1,118,304.1a7.17,7.17,0,0,1,7.17,0Zm-1.74,9.38a3.74,3.74,0,0,0,1.34-1.34,3.55,3.55,0,0,0,.5-1.84,3.62,3.62,0,0,0-.5-1.85,3.69,3.69,0,0,0-1.34-1.35,3.55,3.55,0,0,0-1.84-.5,3.71,3.71,0,0,0-3.7,3.7,3.55,3.55,0,0,0,.5,1.84,3.69,3.69,0,0,0,1.35,1.34,3.62,3.62,0,0,0,1.85.5A3.55,3.55,0,0,0,123.38,313.48Z"/><path class="cls-2" d="M141.38,303.16v8.74a5.44,5.44,0,0,1-.75,2.8,5.59,5.59,0,0,1-2,2,5.5,5.5,0,0,1-2.81.75h-.32a5.44,5.44,0,0,1-2.8-.75,5.64,5.64,0,0,1-2-2,5.44,5.44,0,0,1-.75-2.8v-8.74h3.34v7.94a3.4,3.4,0,0,0,.6,2.06,1.92,1.92,0,0,0,1.64.82h.32a2,2,0,0,0,1.63-.83,3.29,3.29,0,0,0,.63-2v-7.94Z"/><path class="cls-2" d="M157.14,313.65a4,4,0,0,0,1.2-.79l2.44,2.44a7.18,7.18,0,0,1-2.3,1.55,7.17,7.17,0,0,1-6.34-.41,7.2,7.2,0,0,1-2.6-2.6,7.17,7.17,0,0,1,0-7.17,7.15,7.15,0,0,1,2.6-2.61,7.17,7.17,0,0,1,6.34-.41,7.18,7.18,0,0,1,2.3,1.55l-2.44,2.44a4,4,0,0,0-1.2-.79,3.64,3.64,0,0,0-1.42-.29,3.55,3.55,0,0,0-1.84.5,3.69,3.69,0,0,0-1.34,1.35,3.62,3.62,0,0,0-.5,1.85,3.55,3.55,0,0,0,.5,1.84,3.74,3.74,0,0,0,1.34,1.34,3.55,3.55,0,0,0,1.84.5A3.64,3.64,0,0,0,157.14,313.65Z"/><path class="cls-2" d="M169.34,303.28l4.62,14h-3.48l-.92-2.86h-4.38l-.9,2.86h-3.5l4.64-14Zm-3.22,8.22h2.52l-1.26-4Z"/><path class="cls-2" d="M182.14,303.14h3.6v14.14h-3.6L178,309.7v7.58h-3.62V303.14H178l4.16,7.58Z"/><path class="cls-2" d="M202.64,303.1h3.92l-4.62,14.18h-4.4l-4.6-14.18h4l2.86,8.84Z"/><path class="cls-2" d="M211.36,303.14v14.14h-3.6V303.14Z"/><path class="cls-2" d="M222.58,314.22v3.06H213V303.14h9.44v3.06h-5.82v2.48h4.9v3.06h-4.9v2.48Z"/><path class="cls-2" d="M235.56,303.14h3.12v14.14h-3.6l-3.64-6-3.66,6h-3.6V303.14h3.6v8l1.76-3.2.1-.16h3.6l.08.16,1.76,3.2v-8Z"/><path class="cls-2" d="M42.36,338.22v3.06H32.74V327.14h9.44v3.06H36.36v2.48h4.9v3.06h-4.9v2.48Z"/><path class="cls-2" d="M56.38,341.28H52.2L50,337.6l-2.22,3.68H43.56l4.32-7.14-4.24-7h4.18L50,330.68l2.14-3.54h4.2l-4.24,7Z"/><path class="cls-2" d="M64.94,327.28l4.62,14H66.08l-.92-2.86H60.78l-.9,2.86h-3.5l4.64-14Zm-3.22,8.22h2.52l-1.26-4Z"/><path class="cls-2" d="M80.86,327.14h3.6v14.14h-3.6v-8l-1.76,3.2-.08.16h-3.6l-.1-.16-.24-.46-1.5-2.74v8H70V327.14h3.62l3.64,6Z"/><path class="cls-2" d="M95,327.73a4.31,4.31,0,0,1,1.6,1.6,4.43,4.43,0,0,1,0,4.42,4.39,4.39,0,0,1-3.81,2.19H89.44v5.34H86.06V327.14H92.8A4.33,4.33,0,0,1,95,327.73Zm-1.38,2.78a1.38,1.38,0,0,0-.95-.47H89.36v3h3.32a1.37,1.37,0,0,0,.95-.49,1.52,1.52,0,0,0,.39-1A1.45,1.45,0,0,0,93.63,330.51Z"/><path class="cls-2" d="M102,337.88h5.56v3.4H98.4V327.14H102Z"/><path class="cls-2" d="M118.58,338.22v3.06H109V327.14h9.44v3.06h-5.82v2.48h4.9v3.06h-4.9v2.48Z"/><path class="cls-2" d="M126.64,331.62v-.26a1.23,1.23,0,0,0-.49-1A1.79,1.79,0,0,0,125,330a1.92,1.92,0,0,0-1.23.41,1.22,1.22,0,0,0-.51,1,.91.91,0,0,0,.52.86,4.46,4.46,0,0,0,1.36.56l.31.06.35.08a7,7,0,0,1,2.86,1.18l.18.16a4.31,4.31,0,0,1,.95,1.38,4,4,0,0,1,.35,1.6,4,4,0,0,1-.39,1.72,4.36,4.36,0,0,1-1.13,1.46,5.34,5.34,0,0,1-1.68.95,6,6,0,0,1-3.91,0,5.41,5.41,0,0,1-1.67-.95,4.67,4.67,0,0,1-1.14-1.46,4,4,0,0,1-.4-1.72V337h3.5v.26a1.26,1.26,0,0,0,.49,1,1.79,1.79,0,0,0,1.17.41,1.92,1.92,0,0,0,1.23-.41,1.22,1.22,0,0,0,.51-1,1.15,1.15,0,0,0-.54-.88,2.29,2.29,0,0,0-.56-.3,7.5,7.5,0,0,0-.78-.24l-.66-.16c-.73-.19-1.31-.35-1.72-.5a3.52,3.52,0,0,1-1.14-.68l-.08-.08a4.56,4.56,0,0,1-1-1.4,3.74,3.74,0,0,1-.37-1.64,4,4,0,0,1,.4-1.72,4.67,4.67,0,0,1,1.14-1.46,5.41,5.41,0,0,1,1.67-.95,6,6,0,0,1,3.91,0,5.34,5.34,0,0,1,1.68.95,4.36,4.36,0,0,1,1.13,1.46,4,4,0,0,1,.39,1.72v.26Z"/><path class="cls-2" d="M131.9,334.58a1.83,1.83,0,0,1-.5-1.16,1.62,1.62,0,0,1,1.62-1.66,1.64,1.64,0,0,1,1.66,1.66,1.56,1.56,0,0,1-.49,1.16,1.61,1.61,0,0,1-1.17.48A1.5,1.5,0,0,1,131.9,334.58Zm0,6.22a1.83,1.83,0,0,1-.5-1.16A1.62,1.62,0,0,1,133,338a1.64,1.64,0,0,1,1.66,1.66,1.56,1.56,0,0,1-.49,1.16,1.61,1.61,0,0,1-1.17.48A1.5,1.5,0,0,1,131.9,340.8Z"/><path d="M36.31,94.25a5.37,5.37,0,0,1,1.41.34,4,4,0,0,1,1.29.8,4.88,4.88,0,0,1,1.55,3.53,4.48,4.48,0,0,1-.52,2.16,4.27,4.27,0,0,1-1.45,1.65,5,5,0,0,1-1.9.75,13.74,13.74,0,0,1-2.36.18l-1.08,0h-1V94.18h2.4A16.6,16.6,0,0,1,36.31,94.25Zm2,4.67A2.38,2.38,0,0,0,38,97.73a2.53,2.53,0,0,0-.87-.91,2.34,2.34,0,0,0-1.2-.36H34.61v4.88a9.63,9.63,0,0,0,1.63-.11,2.8,2.8,0,0,0,1.23-.52,2.08,2.08,0,0,0,.75-1.23A2.89,2.89,0,0,0,38.28,98.92Z"/><path d="M47.71,101.61v2H41.35V94.28h6.24v2H43.74V98H47v2H43.74v1.64Z"/><path d="M54.92,94.26h2.59l-3.06,9.37H51.54l-3-9.37h2.62L53,100.1Z"/><path d="M64.66,101.61v2H58.3V94.28h6.24v2H60.69V98h3.24v2H60.69v1.64Z"/><path d="M68.1,101.38h3.67v2.25h-6V94.28H68.1Z"/><path d="M79.54,94.92a4.7,4.7,0,0,1,1.71,1.72A4.59,4.59,0,0,1,81.89,99a4.52,4.52,0,0,1-.64,2.36,4.71,4.71,0,0,1-4.08,2.36,4.53,4.53,0,0,1-2.37-.64A4.68,4.68,0,0,1,72.44,99a4.68,4.68,0,0,1,2.36-4.1,4.63,4.63,0,0,1,2.37-.64A4.68,4.68,0,0,1,79.54,94.92Zm-1.15,6.2a2.5,2.5,0,0,0,.88-.89A2.32,2.32,0,0,0,79.6,99a2.41,2.41,0,0,0-.33-1.23,2.5,2.5,0,0,0-.88-.89,2.42,2.42,0,0,0-2.44,0,2.48,2.48,0,0,0-.9.89A2.41,2.41,0,0,0,74.72,99a2.32,2.32,0,0,0,.33,1.21,2.48,2.48,0,0,0,.9.89,2.42,2.42,0,0,0,2.44,0Z"/><path d="M88.6,94.67a3,3,0,0,1,1.06,1.06,2.93,2.93,0,0,1,0,2.92,2.91,2.91,0,0,1-1.06,1.06,2.85,2.85,0,0,1-1.46.39H84.92v3.53H82.68V94.28h4.46A2.85,2.85,0,0,1,88.6,94.67Zm-.91,1.84a.91.91,0,0,0-.63-.31h-2.2v2h2.2a.85.85,0,0,0,.63-.32,1,1,0,0,0,.26-.68A1,1,0,0,0,87.69,96.51Z"/><path d="M98.05,94.28h2.38v9.35H98.05V98.36l-1.17,2.11,0,.11H94.45l-.07-.11-.16-.3-1-1.81v5.27H90.84V94.28h2.39l2.41,4Z"/><path d="M107.84,101.61v2h-6.36V94.28h6.24v2h-3.84V98h3.24v2h-3.24v1.64Z"/><path d="M114,94.28h2.38v9.35H114l-2.75-5v5H108.9V94.28h2.39l2.75,5Z"/><path d="M124.53,94.28v2.38h-2.39v7h-2.4v-7h-2.39V94.28h7.18Z"/><path d="M136.26,94.92A4.81,4.81,0,0,1,138,96.64a4.68,4.68,0,0,1,.63,2.38,4.61,4.61,0,0,1-.63,2.36,4.73,4.73,0,0,1-1.72,1.72,4.53,4.53,0,0,1-2.37.64A4.71,4.71,0,0,1,129.16,99a4.74,4.74,0,0,1,4.73-4.74A4.63,4.63,0,0,1,136.26,94.92Zm-1.15,6.2a2.5,2.5,0,0,0,.88-.89,2.32,2.32,0,0,0,.33-1.21,2.41,2.41,0,0,0-.33-1.23,2.5,2.5,0,0,0-.88-.89,2.42,2.42,0,0,0-2.44,0,2.45,2.45,0,0,0-.89.89,2.33,2.33,0,0,0-.34,1.23,2.24,2.24,0,0,0,.34,1.21,2.45,2.45,0,0,0,.89.89,2.42,2.42,0,0,0,2.44,0Z"/><path d="M145.91,96.31h-4.13V98h3.31v2h-3.31v3.66H139.4V94.28h6.51Z"/><path d="M157.72,99.69a2.71,2.71,0,0,1-.06,2.59,2.58,2.58,0,0,1-1,1,2.64,2.64,0,0,1-1.35.38h-4.67V94.27h4.24a2.56,2.56,0,0,1,1.37.37,2.7,2.7,0,0,1,.95,1,2.53,2.53,0,0,1,.35,1.32,2.65,2.65,0,0,1-.18,1,2.54,2.54,0,0,1-.52.83A2.65,2.65,0,0,1,157.72,99.69Zm-2.47-3.22a.93.93,0,0,0-.68-.28h-1.72v2h1.72a2.41,2.41,0,0,0,.32,0,1,1,0,0,0,.24-.13,1,1,0,0,0,.4-.82A.94.94,0,0,0,155.25,96.47Zm.4,4.94a.91.91,0,0,0,.27-.7,1,1,0,0,0-.23-.63,1,1,0,0,0-.56-.34h-2.28v2H155A1,1,0,0,0,155.65,101.41Z"/><path d="M165.65,94.92A4.7,4.7,0,0,1,168,99a4.7,4.7,0,0,1-2.35,4.08,4.53,4.53,0,0,1-2.37.64,4.58,4.58,0,0,1-2.37-.64,4.68,4.68,0,0,1-1.73-1.72,4.61,4.61,0,0,1-.63-2.36,4.68,4.68,0,0,1,.63-2.38,4.76,4.76,0,0,1,1.73-1.72,4.68,4.68,0,0,1,2.37-.64A4.63,4.63,0,0,1,165.65,94.92Zm-1.15,6.2a2.42,2.42,0,0,0,.88-.89,2.24,2.24,0,0,0,.34-1.21,2.33,2.33,0,0,0-.34-1.23,2.42,2.42,0,0,0-.88-.89,2.42,2.42,0,0,0-2.44,0,2.53,2.53,0,0,0-.89.89,2.41,2.41,0,0,0-.33,1.23,2.32,2.32,0,0,0,.33,1.21,2.53,2.53,0,0,0,.89.89,2.42,2.42,0,0,0,2.44,0Z"/><path d="M176.4,94.3v5.78a3.62,3.62,0,0,1-.5,1.85,3.69,3.69,0,0,1-1.35,1.34,3.58,3.58,0,0,1-1.85.49h-.21a3.64,3.64,0,0,1-1.86-.49,3.74,3.74,0,0,1-1.34-1.34,3.61,3.61,0,0,1-.49-1.85V94.3H171v5.25a2.28,2.28,0,0,0,.4,1.36,1.29,1.29,0,0,0,1.09.54h.21a1.26,1.26,0,0,0,1.07-.55,2.15,2.15,0,0,0,.42-1.35V94.3Z"/><path d="M182.6,94.28H185v9.35H182.6l-2.75-5v5h-2.39V94.28h2.39l2.75,5Z"/><path d="M193.08,94.28v2.38h-2.39v7H188.3v-7h-2.39V94.28h7.17Z"/><path d="M199,94.28h2.38l-2.75,5.54v3.81h-2.38V99.82l-2.75-5.54h2.38l1.56,3.19Z"/><path d="M213.49,103.63h-2.4l-1.48-3.53h-1.52v3.53h-2.23V94.28h4.45a2.89,2.89,0,0,1,2.52,1.46,2.84,2.84,0,0,1,.39,1.45,2.91,2.91,0,0,1-.35,1.4,3,3,0,0,1-1,1Zm-2.63-7.12a.91.91,0,0,0-.63-.31H208v2h2.19a.92.92,0,0,0,.63-.32,1,1,0,0,0,.25-.68A1,1,0,0,0,210.86,96.51Z"/><path d="M221.88,94.3v5.78a3.61,3.61,0,0,1-.49,1.85,3.69,3.69,0,0,1-1.35,1.34,3.64,3.64,0,0,1-1.86.49H218a3.58,3.58,0,0,1-1.85-.49,3.66,3.66,0,0,1-1.34-1.34,3.62,3.62,0,0,1-.5-1.85V94.3h2.21v5.25a2.28,2.28,0,0,0,.39,1.36,1.29,1.29,0,0,0,1.09.54h.21a1.29,1.29,0,0,0,1.08-.55,2.15,2.15,0,0,0,.41-1.35V94.3Z"/><path d="M225.32,101.38H229v2.25h-6.06V94.28h2.38Z"/><path d="M236.28,101.61v2h-6.36V94.28h6.24v2h-3.84V98h3.23v2h-3.23v1.64Z"/><path d="M241.61,97.25v-.18a.84.84,0,0,0-.32-.65,1.2,1.2,0,0,0-.79-.27,1.24,1.24,0,0,0-.81.27.8.8,0,0,0-.34.65.6.6,0,0,0,.34.57,2.71,2.71,0,0,0,.9.37l.21,0,.23.06a4.52,4.52,0,0,1,1.89.77L243,99a3.08,3.08,0,0,1,.63.91,2.74,2.74,0,0,1,.23,1.06,2.64,2.64,0,0,1-.26,1.14,2.85,2.85,0,0,1-.75,1,3.21,3.21,0,0,1-1.11.63,3.89,3.89,0,0,1-2.58,0,3.4,3.4,0,0,1-1.11-.63,3.13,3.13,0,0,1-.75-1,2.51,2.51,0,0,1-.26-1.14v-.17h2.31V101a.84.84,0,0,0,.32.66,1.19,1.19,0,0,0,.78.27,1.26,1.26,0,0,0,.81-.27.83.83,0,0,0,.34-.66.76.76,0,0,0-.36-.58,1.46,1.46,0,0,0-.37-.2l-.52-.16-.43-.1q-.74-.19-1.14-.33a2.42,2.42,0,0,1-.75-.45l-.06-.06a2.89,2.89,0,0,1-.69-.92,2.58,2.58,0,0,1-.24-1.09,2.49,2.49,0,0,1,.26-1.13,3.17,3.17,0,0,1,.75-1,3.8,3.8,0,0,1,1.11-.63,4.07,4.07,0,0,1,2.58,0,3.56,3.56,0,0,1,1.11.63,2.89,2.89,0,0,1,.75,1,2.63,2.63,0,0,1,.26,1.13v.18Z"/><path d="M250.06,104.46a12.09,12.09,0,0,1-1.35-4.34,10.18,10.18,0,0,1-.05-1.14,11,11,0,0,1,.26-2.41,10,10,0,0,1,.7-2.13,8.9,8.9,0,0,1,.62-1.16l1.45,1-.25.44a8.36,8.36,0,0,0-.43,1,9.35,9.35,0,0,0-.4,1.35,9.87,9.87,0,0,0-.19,2,7.49,7.49,0,0,0,.05,1,10,10,0,0,0,1.15,3.66Z"/><path d="M255.12,94.28v9.35h-2.38V94.28Z"/><path d="M261.32,94.28h2.38v9.35h-2.38l-2.75-5v5h-2.39V94.28h2.39l2.75,5Z"/><path d="M270.16,101.23a2.64,2.64,0,0,0,.79-.52l1.61,1.61a4.73,4.73,0,0,1-5.71.76,4.81,4.81,0,0,1-1.72-1.72,4.72,4.72,0,0,1,7.43-5.71L271,97.26a2.47,2.47,0,0,0-.79-.52,2.42,2.42,0,0,0-3,1,2.36,2.36,0,0,0,0,2.44,2.4,2.4,0,0,0,.88.88,2.42,2.42,0,0,0,2.16.14Z"/><path d="M275.74,101.38h3.67v2.25h-6.05V94.28h2.38Z"/><path d="M287.94,94.3v5.78a3.62,3.62,0,0,1-.5,1.85,3.74,3.74,0,0,1-1.34,1.34,3.64,3.64,0,0,1-1.86.49H284a3.64,3.64,0,0,1-1.86-.49,3.74,3.74,0,0,1-1.34-1.34,3.61,3.61,0,0,1-.49-1.85V94.3h2.2v5.25a2.28,2.28,0,0,0,.4,1.36,1.29,1.29,0,0,0,1.09.54h.21a1.29,1.29,0,0,0,1.08-.55,2.21,2.21,0,0,0,.41-1.35V94.3Z"/><path d="M293.1,94.25a5.4,5.4,0,0,1,1.4.34,3.81,3.81,0,0,1,1.29.8A4.62,4.62,0,0,1,296.94,97a4.76,4.76,0,0,1,.4,1.92,4.59,4.59,0,0,1-.51,2.16,4.36,4.36,0,0,1-1.45,1.65,5.09,5.09,0,0,1-1.91.75,13.74,13.74,0,0,1-2.36.18l-1.08,0h-1V94.18h2.39A16.94,16.94,0,0,1,293.1,94.25Zm2,4.67a2.39,2.39,0,0,0-.32-1.19,2.45,2.45,0,0,0-.87-.91,2.28,2.28,0,0,0-1.19-.36h-1.3v4.88a9.56,9.56,0,0,0,1.63-.11,2.71,2.71,0,0,0,1.23-.52,2,2,0,0,0,.75-1.23A3,3,0,0,0,295.07,98.92Z"/><path d="M300.51,94.28v9.35h-2.38V94.28Z"/><path d="M306.71,94.28h2.38v9.35h-2.38l-2.75-5v5h-2.39V94.28H304l2.75,5Z"/><path d="M319.34,99a4.62,4.62,0,0,1-.63,2.37,4.76,4.76,0,0,1-1.73,1.72,4.67,4.67,0,0,1-2.37.63,4.62,4.62,0,0,1-2.37-.63,4.81,4.81,0,0,1-1.72-1.72,4.62,4.62,0,0,1-.63-2.37,4.67,4.67,0,0,1,.63-2.37,4.73,4.73,0,0,1,1.72-1.72,4.73,4.73,0,0,1,4.21-.27,4.7,4.7,0,0,1,1.52,1l-2.13,1.22a2.44,2.44,0,0,0-2.45,0,2.5,2.5,0,0,0-.88.89,2.38,2.38,0,0,0-.33,1.22,2.33,2.33,0,0,0,.33,1.22,2.5,2.5,0,0,0,.88.89,2.35,2.35,0,0,0,1.22.33,2.3,2.3,0,0,0,1.28-.37,2.4,2.4,0,0,0,.9-1h-2.94V97.91h5.36A4.89,4.89,0,0,1,319.34,99Z"/><path d="M36.49,113.11v-.17a.81.81,0,0,0-.33-.65,1.19,1.19,0,0,0-.79-.28,1.28,1.28,0,0,0-.81.28.82.82,0,0,0-.34.65.6.6,0,0,0,.35.57,2.94,2.94,0,0,0,.9.37l.2,0,.23,0a4.51,4.51,0,0,1,1.89.78l.12.11a2.65,2.65,0,0,1,.63.91,2.57,2.57,0,0,1,0,2.19,2.89,2.89,0,0,1-.74,1,3.8,3.8,0,0,1-1.11.63,4.08,4.08,0,0,1-1.3.22,4,4,0,0,1-1.29-.22,3.63,3.63,0,0,1-1.1-.63,3,3,0,0,1-.76-1,2.63,2.63,0,0,1-.26-1.13v-.17h2.31v.17a.82.82,0,0,0,.33.65,1.15,1.15,0,0,0,.77.27,1.24,1.24,0,0,0,.81-.27.8.8,0,0,0,.34-.65.76.76,0,0,0-.36-.58,1.31,1.31,0,0,0-.37-.2,3.45,3.45,0,0,0-.51-.16l-.44-.11a11.45,11.45,0,0,1-1.13-.33,2,2,0,0,1-.76-.45l0,0a3,3,0,0,1-.7-.93,2.51,2.51,0,0,1-.24-1.08,2.64,2.64,0,0,1,.26-1.14,3,3,0,0,1,.76-1,3.43,3.43,0,0,1,1.1-.63,3.72,3.72,0,0,1,1.29-.22,3.82,3.82,0,0,1,1.3.22,3.59,3.59,0,0,1,1.11.63,3,3,0,0,1,.74,1,2.51,2.51,0,0,1,.26,1.14v.17Z"/><path d="M45.48,110.54A2.91,2.91,0,0,1,44,116H41.8v3.53H39.57v-9.35H44A2.83,2.83,0,0,1,45.48,110.54Zm-.91,1.84a.91.91,0,0,0-.63-.31H41.75v2h2.19a.88.88,0,0,0,.63-.32,1,1,0,0,0,.26-.68A1,1,0,0,0,44.57,112.38Z"/><path d="M54.08,117.48v2H47.72v-9.35H54v2H50.12v1.64h3.24v2H50.12v1.64Z"/><path d="M60.54,117.1a2.64,2.64,0,0,0,.79-.52l1.61,1.61a4.62,4.62,0,0,1-1.52,1,4.69,4.69,0,0,1-4.19-.27,4.75,4.75,0,0,1-1.72-6.46,4.73,4.73,0,0,1,1.72-1.72,4.72,4.72,0,0,1,5.71.75l-1.61,1.62a2.67,2.67,0,0,0-.79-.53,2.54,2.54,0,0,0-.94-.19,2.35,2.35,0,0,0-1.22.33,2.42,2.42,0,0,0-.88.89,2.33,2.33,0,0,0-.34,1.23,2.24,2.24,0,0,0,.34,1.21,2.42,2.42,0,0,0,.88.89,2.42,2.42,0,0,0,2.16.14Z"/><path d="M66.12,110.15v9.35H63.74v-9.35Z"/><path d="M72,110.24l3,9.26h-2.3l-.61-1.89H69.29l-.6,1.89H66.38l3.07-9.26Zm-2.13,5.44h1.67l-.84-2.62Z"/><path d="M77.74,117.25h3.67v2.25h-6v-9.35h2.38Z"/><path d="M84.72,110.15v9.35H82.34v-9.35Z"/><path d="M93.31,110.12v2.29L89,117.21h4.31v2.29H85.78v-2.28h0l4.54-4.8H85.92v-2.29Z"/><path d="M100.73,117.48v2H94.37v-9.35h6.24v2H96.76v1.64H100v2H96.76v1.64Z"/><path d="M105.89,110.12a5.57,5.57,0,0,1,1.41.34,3.87,3.87,0,0,1,1.28.8,4.62,4.62,0,0,1,1.15,1.61,4.76,4.76,0,0,1,.4,1.92,4.62,4.62,0,0,1-.51,2.16,4.36,4.36,0,0,1-1.45,1.65,5.09,5.09,0,0,1-1.91.75,14.82,14.82,0,0,1-2.36.18l-1.08,0h-1V110h2.39A16.65,16.65,0,0,1,105.89,110.12Zm2,4.67a2.45,2.45,0,0,0-.32-1.2,2.5,2.5,0,0,0-.87-.9,2.28,2.28,0,0,0-1.19-.36h-1.3v4.88a10.7,10.7,0,0,0,1.63-.11,2.82,2.82,0,0,0,1.23-.52,2.09,2.09,0,0,0,.75-1.23A3.05,3.05,0,0,0,107.86,114.79Z"/><path d="M121.94,110.15v2.38h-2.4v7h-2.39v-7h-2.39v-2.38h7.18Z"/><path d="M127.73,110.24l3,9.26h-2.3l-.6-1.89H125l-.6,1.89h-2.31l3.07-9.26Zm-2.13,5.44h1.67l-.84-2.62Z"/><path d="M135.32,113.11v-.17a.82.82,0,0,0-.32-.65,1.21,1.21,0,0,0-.79-.28,1.24,1.24,0,0,0-.81.28.79.79,0,0,0-.34.65.6.6,0,0,0,.34.57,2.94,2.94,0,0,0,.9.37l.21,0,.23,0a4.64,4.64,0,0,1,1.89.78l.12.11a3,3,0,0,1,.63.91,2.66,2.66,0,0,1,.23,1.06,2.63,2.63,0,0,1-.26,1.13,2.79,2.79,0,0,1-.75,1,3.56,3.56,0,0,1-1.11.63,3.89,3.89,0,0,1-2.58,0,3.8,3.8,0,0,1-1.11-.63,2.92,2.92,0,0,1-.75-1,2.51,2.51,0,0,1-.27-1.13v-.17h2.32v.17a.84.84,0,0,0,.32.65,1.19,1.19,0,0,0,.78.27,1.28,1.28,0,0,0,.81-.27.83.83,0,0,0,.34-.65.76.76,0,0,0-.36-.58,1.46,1.46,0,0,0-.37-.2,3.25,3.25,0,0,0-.52-.16l-.43-.11a11,11,0,0,1-1.14-.33,2,2,0,0,1-.75-.45l-.06,0A2.82,2.82,0,0,1,131,114a2.5,2.5,0,0,1,0-2.22,3,3,0,0,1,.75-1,3.59,3.59,0,0,1,1.11-.63,3.89,3.89,0,0,1,2.58,0,3.37,3.37,0,0,1,1.11.63,2.85,2.85,0,0,1,.75,1,2.64,2.64,0,0,1,.26,1.14v.17Z"/><path d="M142.94,114.78l2.79,4.72h-2.65l-2.3-3.77v3.77H138.4v-9.35h2.38v3.65l2.3-3.65h2.65Z"/><path d="M151.05,113.11v-.17a.8.8,0,0,0-.32-.65,1.21,1.21,0,0,0-.79-.28,1.26,1.26,0,0,0-.81.28.82.82,0,0,0-.34.65.6.6,0,0,0,.35.57,2.94,2.94,0,0,0,.9.37l.2,0,.23,0a4.51,4.51,0,0,1,1.89.78l.12.11a2.65,2.65,0,0,1,.6,3.1,2.89,2.89,0,0,1-.74,1,3.8,3.8,0,0,1-1.11.63,4.08,4.08,0,0,1-1.3.22,4,4,0,0,1-1.29-.22,3.63,3.63,0,0,1-1.1-.63,3,3,0,0,1-.76-1,2.63,2.63,0,0,1-.26-1.13v-.17h2.31v.17a.82.82,0,0,0,.33.65,1.15,1.15,0,0,0,.77.27,1.24,1.24,0,0,0,.81-.27.8.8,0,0,0,.34-.65.76.76,0,0,0-.36-.58,1.31,1.31,0,0,0-.37-.2,3.45,3.45,0,0,0-.51-.16l-.44-.11q-.72-.18-1.14-.33a2.09,2.09,0,0,1-.75-.45l0,0a3,3,0,0,1-.7-.93,2.51,2.51,0,0,1-.24-1.08,2.64,2.64,0,0,1,.26-1.14,3,3,0,0,1,.76-1,3.43,3.43,0,0,1,1.1-.63,3.72,3.72,0,0,1,1.29-.22,3.82,3.82,0,0,1,1.3.22,3.59,3.59,0,0,1,1.11.63,3,3,0,0,1,.74,1,2.64,2.64,0,0,1,.26,1.14v.17Z"/><path d="M164.61,112.17h-4.13v1.64h3.31v2h-3.31v3.66H158.1v-9.35h6.51Z"/><path d="M172.24,110.79a4.76,4.76,0,0,1,2.35,4.09,4.53,4.53,0,0,1-.64,2.37,4.67,4.67,0,0,1-4.08,2.35,4.62,4.62,0,0,1-2.37-.63,4.68,4.68,0,0,1-1.73-1.72,4.63,4.63,0,0,1-.64-2.37,4.68,4.68,0,0,1,.64-2.37,4.61,4.61,0,0,1,1.73-1.72,4.53,4.53,0,0,1,2.37-.64A4.58,4.58,0,0,1,172.24,110.79Zm-1.16,6.2a2.45,2.45,0,0,0,.89-.89,2.35,2.35,0,0,0,.33-1.22,2.38,2.38,0,0,0-.33-1.22,2.45,2.45,0,0,0-.89-.89,2.32,2.32,0,0,0-1.21-.33,2.35,2.35,0,0,0-1.22.33,2.48,2.48,0,0,0-.9.89,2.38,2.38,0,0,0-.33,1.22,2.35,2.35,0,0,0,.33,1.22,2.48,2.48,0,0,0,.9.89,2.35,2.35,0,0,0,1.22.33A2.32,2.32,0,0,0,171.08,117Z"/><path d="M183,119.5h-2.39L179.14,116h-1.52v3.53h-2.24v-9.35h4.46a2.84,2.84,0,0,1,1.45.39,2.89,2.89,0,0,1,1.07,1.07,2.82,2.82,0,0,1,.39,1.45,2.77,2.77,0,0,1-.36,1.39,3.08,3.08,0,0,1-1,1.06Zm-2.63-7.12a.91.91,0,0,0-.62-.31h-2.2v2h2.2a1,1,0,0,0,.62-.32,1,1,0,0,0,.25-.68A1,1,0,0,0,180.38,112.38Z"/><path d="M190.15,110.15v9.35h-2.38v-9.35Z"/><path d="M196.35,110.15h2.38v9.35h-2.38l-2.75-5v5h-2.39v-9.35h2.39l2.75,5Z"/><path d="M203.89,110.12a5.57,5.57,0,0,1,1.41.34,3.87,3.87,0,0,1,1.28.8,4.62,4.62,0,0,1,1.15,1.61,4.76,4.76,0,0,1,.4,1.92,4.62,4.62,0,0,1-.51,2.16,4.36,4.36,0,0,1-1.45,1.65,5.09,5.09,0,0,1-1.91.75,14.82,14.82,0,0,1-2.36.18l-1.08,0h-1V110h2.39A16.65,16.65,0,0,1,203.89,110.12Zm2,4.67a2.45,2.45,0,0,0-.32-1.2,2.5,2.5,0,0,0-.87-.9,2.28,2.28,0,0,0-1.19-.36h-1.3v4.88a10.94,10.94,0,0,0,1.64-.11,2.83,2.83,0,0,0,1.22-.52,2.09,2.09,0,0,0,.75-1.23A2.38,2.38,0,0,0,205.86,114.79Z"/><path d="M211.3,110.15v9.35h-2.38v-9.35Z"/><path d="M218.51,110.12h2.59l-3,9.38h-2.91l-3-9.38h2.62l1.89,5.85Z"/><path d="M224.28,110.15v9.35H221.9v-9.35Z"/><path d="M229.43,110.12a5.37,5.37,0,0,1,1.41.34,4,4,0,0,1,1.29.8,4.88,4.88,0,0,1,1.55,3.53,4.62,4.62,0,0,1-.52,2.16,4.27,4.27,0,0,1-1.45,1.65,5,5,0,0,1-1.9.75,14.82,14.82,0,0,1-2.36.18l-1.09,0h-1V110h2.4A16.3,16.3,0,0,1,229.43,110.12Zm2,4.67a2.35,2.35,0,0,0-.32-1.2,2.56,2.56,0,0,0-.86-.9,2.34,2.34,0,0,0-1.2-.36h-1.29v4.88a10.8,10.8,0,0,0,1.63-.11,2.92,2.92,0,0,0,1.23-.52,2.14,2.14,0,0,0,.75-1.23A3,3,0,0,0,231.4,114.79Z"/><path d="M242.07,110.16v5.78a3.64,3.64,0,0,1-1.84,3.19,3.65,3.65,0,0,1-1.86.5h-.21a3.7,3.7,0,0,1-3.19-1.84,3.5,3.5,0,0,1-.5-1.85v-5.78h2.21v5.25a2.31,2.31,0,0,0,.39,1.37,1.29,1.29,0,0,0,1.09.54h.21a1.32,1.32,0,0,0,1.08-.55,2.18,2.18,0,0,0,.41-1.36v-5.25Z"/><path d="M248,110.24l3.05,9.26h-2.3l-.61-1.89h-2.89l-.6,1.89h-2.31l3.06-9.26Zm-2.13,5.44h1.66l-.83-2.62Z"/><path d="M253.69,117.25h3.68v2.25h-6.06v-9.35h2.38Z"/><path d="M266.53,113.11v-.17a.82.82,0,0,0-.32-.65,1.21,1.21,0,0,0-.79-.28,1.26,1.26,0,0,0-.81.28.79.79,0,0,0-.34.65.6.6,0,0,0,.35.57,2.94,2.94,0,0,0,.9.37l.2,0,.23,0a4.57,4.57,0,0,1,1.89.78l.12.11a2.8,2.8,0,0,1,.63.91,2.66,2.66,0,0,1,.23,1.06,2.63,2.63,0,0,1-.26,1.13,2.89,2.89,0,0,1-.74,1,3.8,3.8,0,0,1-1.11.63,4.08,4.08,0,0,1-1.3.22,4,4,0,0,1-1.29-.22,3.63,3.63,0,0,1-1.1-.63,3,3,0,0,1-.76-1,2.63,2.63,0,0,1-.26-1.13v-.17h2.31v.17a.82.82,0,0,0,.33.65,1.15,1.15,0,0,0,.77.27,1.24,1.24,0,0,0,.81-.27.8.8,0,0,0,.34-.65.76.76,0,0,0-.36-.58,1.31,1.31,0,0,0-.37-.2,3.45,3.45,0,0,0-.51-.16l-.44-.11q-.72-.18-1.14-.33A2.09,2.09,0,0,1,263,115l-.05,0a3,3,0,0,1-.7-.93,2.51,2.51,0,0,1-.24-1.08,2.64,2.64,0,0,1,.26-1.14,3,3,0,0,1,.76-1,3.43,3.43,0,0,1,1.1-.63,3.72,3.72,0,0,1,1.29-.22,3.82,3.82,0,0,1,1.3.22,3.59,3.59,0,0,1,1.11.63,3,3,0,0,1,.74,1,2.64,2.64,0,0,1,.26,1.14v.17Z"/><path d="M276.45,110.79a4.75,4.75,0,0,1,1.72,6.46,4.73,4.73,0,0,1-1.72,1.72,4.62,4.62,0,0,1-2.37.63,4.67,4.67,0,0,1-2.37-.63,4.76,4.76,0,0,1-1.73-1.72,4.62,4.62,0,0,1-.63-2.37,4.68,4.68,0,0,1,2.36-4.09,4.58,4.58,0,0,1,2.37-.64A4.53,4.53,0,0,1,276.45,110.79ZM275.3,117a2.61,2.61,0,0,0,.89-.89,2.35,2.35,0,0,0,.33-1.22,2.38,2.38,0,0,0-.33-1.22,2.61,2.61,0,0,0-.89-.89,2.42,2.42,0,0,0-2.44,0,2.53,2.53,0,0,0-.89.89,2.38,2.38,0,0,0-.33,1.22,2.35,2.35,0,0,0,.33,1.22,2.53,2.53,0,0,0,.89.89,2.42,2.42,0,0,0,2.44,0Z"/><path d="M285,117.1a2.52,2.52,0,0,0,.79-.52l1.62,1.61a4.73,4.73,0,0,1-1.52,1,4.73,4.73,0,0,1-6.55-4.35,4.59,4.59,0,0,1,.64-2.38,4.74,4.74,0,0,1,4.08-2.36,4.75,4.75,0,0,1,3.35,1.39l-1.62,1.62a2.55,2.55,0,0,0-.79-.53,2.5,2.5,0,0,0-.94-.19,2.32,2.32,0,0,0-1.21.33,2.53,2.53,0,0,0-.89.89,2.41,2.41,0,0,0-.33,1.23,2.32,2.32,0,0,0,.33,1.21,2.53,2.53,0,0,0,.89.89,2.4,2.4,0,0,0,2.15.14Z"/><path d="M290.57,110.15v9.35h-2.38v-9.35Z"/><path d="M296.49,110.24l3.06,9.26h-2.3l-.61-1.89h-2.9l-.59,1.89h-2.32l3.07-9.26Zm-2.12,5.44H296l-.83-2.62Z"/><path d="M302.19,117.25h3.68v2.25h-6.06v-9.35h2.38Z"/><path d="M37.36,126h2.38v9.35H37.36l-2.75-5v5h-2.4V126h2.4l2.75,5Z"/><path d="M47.16,133.34v2H40.79V126H47v2H43.19v1.64h3.24v2H43.19v1.64Z"/><path d="M55.26,126v2.38H52.87v7h-2.4v-7H48.08V126h7.18Z"/><path d="M63.71,126h2.06v9.35H63.39l-2.4-4-2.42,4H56.19V126h2.38v5.27l1.16-2.11.07-.11h2.38l0,.11,1.16,2.11V126Z"/><path d="M73.67,126.65a4.65,4.65,0,0,1,1.71,1.73,4.71,4.71,0,0,1,0,4.74,4.78,4.78,0,0,1-1.71,1.72,4.79,4.79,0,0,1-4.75,0,4.81,4.81,0,0,1-1.72-1.72,4.74,4.74,0,0,1,6.47-6.47Zm-1.16,6.2a2.5,2.5,0,0,0,.89-.88,2.42,2.42,0,0,0,0-2.44,2.56,2.56,0,0,0-.89-.9,2.41,2.41,0,0,0-1.21-.33,2.45,2.45,0,0,0-1.22.33,2.5,2.5,0,0,0-.9.9,2.42,2.42,0,0,0,0,2.44,2.45,2.45,0,0,0,.9.88,2.35,2.35,0,0,0,1.22.33A2.32,2.32,0,0,0,72.51,132.85Z"/><path d="M84.44,135.37H82.05l-1.48-3.54H79.05v3.54H76.81V126h4.46a2.94,2.94,0,0,1,2.52,1.45,2.88,2.88,0,0,1,.39,1.46,2.8,2.8,0,0,1-.36,1.39,3,3,0,0,1-1,1.05Zm-2.63-7.12a.9.9,0,0,0-.62-.32H79v2h2.2a1,1,0,0,0,.62-.33,1,1,0,0,0,.25-.68A.94.94,0,0,0,81.81,128.25Z"/><path d="M89.77,130.64l2.79,4.73H89.92l-2.31-3.77v3.77H85.23V126h2.38v3.65L89.92,126h2.64Z"/><path d="M97.89,129v-.17a.82.82,0,0,0-.33-.66,1.16,1.16,0,0,0-.78-.27,1.28,1.28,0,0,0-.82.27.82.82,0,0,0-.33.66.62.62,0,0,0,.34.57,2.94,2.94,0,0,0,.9.37.79.79,0,0,1,.2,0l.24.05a4.64,4.64,0,0,1,1.89.78l.12.1a2.82,2.82,0,0,1,.62.92,2.49,2.49,0,0,1,.23,1.05,2.63,2.63,0,0,1-.25,1.14,3,3,0,0,1-.75,1,3.56,3.56,0,0,1-1.11.62,3.78,3.78,0,0,1-1.3.22,3.72,3.72,0,0,1-1.29-.22,3.51,3.51,0,0,1-1.1-.62,3,3,0,0,1-.75-1,2.52,2.52,0,0,1-.27-1.14v-.17h2.32v.17a.81.81,0,0,0,.32.66,1.17,1.17,0,0,0,.77.27,1.28,1.28,0,0,0,.82-.27.82.82,0,0,0,.33-.66.78.78,0,0,0-.35-.58,1.86,1.86,0,0,0-.37-.2l-.52-.15-.43-.11a11,11,0,0,1-1.14-.33,2.35,2.35,0,0,1-.76-.45l0-.05a3,3,0,0,1-.69-.93,2.38,2.38,0,0,1-.25-1.08,2.52,2.52,0,0,1,.27-1.14,2.85,2.85,0,0,1,.75-1,3.35,3.35,0,0,1,1.1-.63,3.72,3.72,0,0,1,1.29-.22,3.78,3.78,0,0,1,1.3.22,3.4,3.4,0,0,1,1.11.63,2.85,2.85,0,0,1,.75,1,2.63,2.63,0,0,1,.25,1.14V129Z"/><path d="M111.77,126.65a4.76,4.76,0,0,1,1.72,6.47,4.81,4.81,0,0,1-1.72,1.72,4.62,4.62,0,0,1-2.37.63,4.67,4.67,0,0,1-2.37-.63,4.83,4.83,0,0,1-1.73-1.72,4.77,4.77,0,0,1,0-4.74,4.71,4.71,0,0,1,4.1-2.36A4.62,4.62,0,0,1,111.77,126.65Zm-1.15,6.2a2.5,2.5,0,0,0,.89-.88,2.42,2.42,0,0,0,0-2.44,2.56,2.56,0,0,0-.89-.9,2.45,2.45,0,0,0-1.22-.33,2.48,2.48,0,0,0-1.22.33,2.56,2.56,0,0,0-.89.9,2.42,2.42,0,0,0,0,2.44,2.5,2.5,0,0,0,.89.88,2.38,2.38,0,0,0,1.22.33A2.35,2.35,0,0,0,110.62,132.85Z"/><path d="M122.55,135.37h-2.4l-1.48-3.54h-1.52v3.54h-2.23V126h4.45a2.88,2.88,0,0,1,1.46.39,2.84,2.84,0,0,1,1.06,1.06,2.88,2.88,0,0,1,.39,1.46,2.8,2.8,0,0,1-.36,1.39,2.85,2.85,0,0,1-1,1.05Zm-2.63-7.12a.92.92,0,0,0-.63-.32H117.1v2h2.19a1,1,0,0,0,.63-.33,1,1,0,0,0,.25-.68A1,1,0,0,0,119.92,128.25Z"/><path d="M133.81,128h-4.12v1.64H133v2h-3.3v3.67h-2.38V126h6.5Z"/><path d="M141.44,126.65a4.76,4.76,0,0,1,1.72,6.47,4.81,4.81,0,0,1-1.72,1.72,4.62,4.62,0,0,1-2.37.63,4.67,4.67,0,0,1-2.37-.63,4.83,4.83,0,0,1-1.73-1.72,4.77,4.77,0,0,1,0-4.74,4.71,4.71,0,0,1,4.1-2.36A4.62,4.62,0,0,1,141.44,126.65Zm-1.15,6.2a2.5,2.5,0,0,0,.89-.88,2.42,2.42,0,0,0,0-2.44,2.56,2.56,0,0,0-.89-.9,2.42,2.42,0,0,0-2.44,0,2.56,2.56,0,0,0-.89.9,2.42,2.42,0,0,0,0,2.44,2.5,2.5,0,0,0,.89.88,2.42,2.42,0,0,0,2.44,0Z"/><path d="M152.22,135.37h-2.4l-1.48-3.54h-1.52v3.54h-2.23V126H149a2.88,2.88,0,0,1,1.46.39,2.84,2.84,0,0,1,1.06,1.06,2.88,2.88,0,0,1,.39,1.46,2.8,2.8,0,0,1-.36,1.39,2.93,2.93,0,0,1-1,1.05Zm-2.64-7.12a.88.88,0,0,0-.62-.32h-2.19v2H149a.93.93,0,0,0,.62-.33,1,1,0,0,0,.26-.68A1,1,0,0,0,149.58,128.25Z"/><path d="M160.61,126v5.78a3.58,3.58,0,0,1-.49,1.85,3.69,3.69,0,0,1-1.35,1.34,3.65,3.65,0,0,1-1.86.5h-.21a3.59,3.59,0,0,1-1.85-.5,3.77,3.77,0,0,1-1.35-1.34,3.58,3.58,0,0,1-.49-1.85V126h2.21v5.25a2.26,2.26,0,0,0,.39,1.36,1.29,1.29,0,0,0,1.09.54h.21a1.29,1.29,0,0,0,1.08-.55,2.19,2.19,0,0,0,.41-1.35V126Z"/><path d="M168.88,126h2.38v9.35h-2.38v-5.28l-1.17,2.12-.05.1h-2.38l-.07-.1-.16-.31-1-1.81v5.28h-2.39V126h2.39l2.41,4Z"/><path d="M183.33,131.42a2.65,2.65,0,0,1,.3,1.25A2.7,2.7,0,0,1,182.3,135a2.74,2.74,0,0,1-1.35.38h-4.67V126h4.24a2.65,2.65,0,0,1,1.37.37,2.78,2.78,0,0,1,1,1,2.57,2.57,0,0,1,.36,1.32,2.75,2.75,0,0,1-.19,1,2.6,2.6,0,0,1-.52.82A2.74,2.74,0,0,1,183.33,131.42Zm-2.47-3.21a.94.94,0,0,0-.68-.29h-1.72v2h1.72a1.42,1.42,0,0,0,.32-.05,1,1,0,0,0,.24-.13,1,1,0,0,0,.3-.36,1,1,0,0,0,.11-.46A.93.93,0,0,0,180.86,128.21Zm.4,4.93a.9.9,0,0,0,.27-.7,1,1,0,0,0-.23-.63.93.93,0,0,0-.56-.33c-.06,0-.68,0-1.88,0h-.4v2h2.12A1,1,0,0,0,181.26,133.14Z"/><path d="M192.05,135.37h-2.39l-1.48-3.54h-1.52v3.54h-2.24V126h4.46a2.82,2.82,0,0,1,1.45.39,2.89,2.89,0,0,1,1.46,2.52,2.8,2.8,0,0,1-.36,1.39,3,3,0,0,1-1,1.05Zm-2.63-7.12a.9.9,0,0,0-.62-.32h-2.19v2h2.19a1,1,0,0,0,.62-.33,1,1,0,0,0,.25-.68A.94.94,0,0,0,189.42,128.25Z"/><path d="M197.71,126.11l3.06,9.26h-2.3l-.61-1.9H195l-.59,1.9h-2.32l3.07-9.26Zm-2.13,5.43h1.67l-.83-2.61Z"/><path d="M206.17,126h2.38v9.35h-2.38l-2.75-5v5H201V126h2.39l2.75,5Z"/><path d="M215,133a2.47,2.47,0,0,0,.79-.52l1.61,1.62a4.75,4.75,0,0,1-5.71.75,4.81,4.81,0,0,1-1.72-1.72,4.62,4.62,0,0,1-.63-2.37,4.67,4.67,0,0,1,.63-2.37,4.73,4.73,0,0,1,1.72-1.72,4.53,4.53,0,0,1,2.37-.64,4.65,4.65,0,0,1,1.82.36,4.81,4.81,0,0,1,1.52,1L215.8,129a2.64,2.64,0,0,0-.79-.52,2.42,2.42,0,0,0-2.16.14,2.5,2.5,0,0,0-.88.89,2.38,2.38,0,0,0-.33,1.22,2.33,2.33,0,0,0,.33,1.22,2.5,2.5,0,0,0,.88.89A2.37,2.37,0,0,0,215,133Z"/><path d="M223.26,126h2.38v9.35h-2.38v-3.49h-2.67v3.49h-2.38V126h2.38v3.47h2.67Z"/><path d="M233.06,133.34v2H226.7V126h6.24v2h-3.85v1.64h3.24v2h-3.24v1.64Z"/><path d="M238.38,129v-.17a.81.81,0,0,0-.32-.66,1.2,1.2,0,0,0-.79-.27,1.26,1.26,0,0,0-.81.27.83.83,0,0,0-.34.66.62.62,0,0,0,.35.57,2.94,2.94,0,0,0,.9.37.79.79,0,0,1,.2,0l.23.05a4.51,4.51,0,0,1,1.89.78l.12.1a2.69,2.69,0,0,1,.63.92,2.57,2.57,0,0,1,0,2.19,3.1,3.1,0,0,1-.74,1,3.56,3.56,0,0,1-1.11.62,3.82,3.82,0,0,1-1.3.22,3.72,3.72,0,0,1-1.29-.22,3.4,3.4,0,0,1-1.1-.62,3.17,3.17,0,0,1-.76-1,2.64,2.64,0,0,1-.26-1.14v-.17h2.31v.17a.82.82,0,0,0,.33.66,1.15,1.15,0,0,0,.77.27,1.24,1.24,0,0,0,.81-.27.81.81,0,0,0,.34-.66.77.77,0,0,0-.36-.58,1.61,1.61,0,0,0-.37-.2l-.51-.15-.44-.11q-.72-.18-1.14-.33a2.42,2.42,0,0,1-.75-.45l-.05-.05a3.25,3.25,0,0,1-.7-.93,2.51,2.51,0,0,1-.24-1.08,2.64,2.64,0,0,1,.26-1.14,3,3,0,0,1,.76-1,3.25,3.25,0,0,1,1.1-.63,3.72,3.72,0,0,1,1.29-.22,3.82,3.82,0,0,1,1.3.22,3.4,3.4,0,0,1,1.11.63,3,3,0,0,1,.74,1,2.64,2.64,0,0,1,.26,1.14V129Z"/><path d="M243.09,136.2l-1.56-.82a10.17,10.17,0,0,0,1.15-3.66,7.75,7.75,0,0,0,0-1,9.94,9.94,0,0,0-.19-2,10.36,10.36,0,0,0-.43-1.44,8.34,8.34,0,0,0-.46-1c-.12-.19-.19-.29-.19-.3l1.45-1a9.66,9.66,0,0,1,.62,1.16,10.43,10.43,0,0,1,.7,2.13,11.06,11.06,0,0,1,.26,2.41c0,.42,0,.79-.05,1.14A12.08,12.08,0,0,1,243.09,136.2Z"/><path d="M246,133.74h2.23l-1,3h-2Z"/><path d="M260.6,126v5.78a3.59,3.59,0,0,1-.5,1.85,3.69,3.69,0,0,1-1.35,1.34,3.65,3.65,0,0,1-1.86.5h-.21a3.62,3.62,0,0,1-1.85-.5,3.74,3.74,0,0,1-1.34-1.34,3.59,3.59,0,0,1-.5-1.85V126h2.21v5.25a2.19,2.19,0,0,0,.4,1.36,1.26,1.26,0,0,0,1.08.54h.21a1.29,1.29,0,0,0,1.08-.55,2.13,2.13,0,0,0,.42-1.35V126Z"/><path d="M265.92,129v-.17a.81.81,0,0,0-.32-.66,1.2,1.2,0,0,0-.79-.27,1.28,1.28,0,0,0-.81.27.83.83,0,0,0-.34.66.62.62,0,0,0,.35.57,2.94,2.94,0,0,0,.9.37.79.79,0,0,1,.2,0l.23.05a4.51,4.51,0,0,1,1.89.78l.12.1a2.69,2.69,0,0,1,.63.92,2.65,2.65,0,0,1,.23,1.05,2.51,2.51,0,0,1-.26,1.14,3.1,3.1,0,0,1-.74,1,3.56,3.56,0,0,1-1.11.62,3.82,3.82,0,0,1-1.3.22,3.72,3.72,0,0,1-1.29-.22,3.4,3.4,0,0,1-1.1-.62,3.17,3.17,0,0,1-.76-1,2.64,2.64,0,0,1-.26-1.14v-.17h2.31v.17a.82.82,0,0,0,.33.66,1.15,1.15,0,0,0,.77.27,1.24,1.24,0,0,0,.81-.27.81.81,0,0,0,.34-.66.77.77,0,0,0-.36-.58,1.43,1.43,0,0,0-.37-.2l-.51-.15-.44-.11q-.72-.18-1.14-.33a2.42,2.42,0,0,1-.75-.45l-.05-.05a3.25,3.25,0,0,1-.7-.93,2.51,2.51,0,0,1-.24-1.08,2.64,2.64,0,0,1,.26-1.14,3,3,0,0,1,.76-1,3.25,3.25,0,0,1,1.1-.63,3.72,3.72,0,0,1,1.29-.22,3.82,3.82,0,0,1,1.3.22,3.4,3.4,0,0,1,1.11.63,3,3,0,0,1,.74,1,2.51,2.51,0,0,1,.26,1.14V129Z"/><path d="M275.37,133.34v2H269V126h6.24v2H271.4v1.64h3.24v2H271.4v1.64Z"/><path d="M284.05,135.37h-2.39l-1.48-3.54h-1.52v3.54h-2.24V126h4.46a2.94,2.94,0,0,1,2.52,1.45,2.88,2.88,0,0,1,.39,1.46,2.8,2.8,0,0,1-.36,1.39,3,3,0,0,1-1,1.05Zm-2.63-7.12a.9.9,0,0,0-.62-.32h-2.2v2h2.2a1,1,0,0,0,.62-.33,1,1,0,0,0,.25-.68A.94.94,0,0,0,281.42,128.25Z"/><path d="M293.08,129v-.17a.84.84,0,0,0-.32-.66,1.2,1.2,0,0,0-.79-.27,1.24,1.24,0,0,0-.81.27.81.81,0,0,0-.34.66.62.62,0,0,0,.35.57,3,3,0,0,0,.89.37.86.86,0,0,1,.21,0l.23.05a4.64,4.64,0,0,1,1.89.78l.12.1a2.84,2.84,0,0,1,.63.92,2.57,2.57,0,0,1,0,2.19,3.1,3.1,0,0,1-.74,1,3.5,3.5,0,0,1-1.12.62,3.89,3.89,0,0,1-2.58,0,3.4,3.4,0,0,1-1.1-.62,3.17,3.17,0,0,1-.76-1,2.64,2.64,0,0,1-.26-1.14v-.17h2.31v.17a.82.82,0,0,0,.33.66,1.15,1.15,0,0,0,.77.27,1.24,1.24,0,0,0,.81-.27.81.81,0,0,0,.34-.66.77.77,0,0,0-.36-.58,1.61,1.61,0,0,0-.37-.2l-.51-.15-.44-.11q-.72-.18-1.14-.33a2.42,2.42,0,0,1-.75-.45l-.05-.05a3.25,3.25,0,0,1-.7-.93,2.51,2.51,0,0,1-.24-1.08,2.64,2.64,0,0,1,.26-1.14,3,3,0,0,1,.76-1,3.25,3.25,0,0,1,1.1-.63,3.89,3.89,0,0,1,2.58,0,3.34,3.34,0,0,1,1.12.63,3,3,0,0,1,.74,1,2.64,2.64,0,0,1,.26,1.14V129Z"/><path d="M303.77,126v5.78a3.59,3.59,0,0,1-.5,1.85,3.69,3.69,0,0,1-1.35,1.34,3.65,3.65,0,0,1-1.86.5h-.21A3.62,3.62,0,0,1,298,135a3.74,3.74,0,0,1-1.34-1.34,3.59,3.59,0,0,1-.5-1.85V126h2.21v5.25a2.19,2.19,0,0,0,.4,1.36,1.26,1.26,0,0,0,1.08.54h.21a1.29,1.29,0,0,0,1.08-.55,2.13,2.13,0,0,0,.42-1.35V126Z"/><path d="M310.74,126.41a2.87,2.87,0,0,1,1.45,2.52,2.85,2.85,0,0,1-.39,1.46,2.91,2.91,0,0,1-1.06,1.06,2.82,2.82,0,0,1-1.46.38h-2.22v3.54h-2.24V126h4.46A2.83,2.83,0,0,1,310.74,126.41Zm-.91,1.84a.92.92,0,0,0-.63-.32H307v2h2.19a.89.89,0,0,0,.63-.33,1,1,0,0,0,.26-.68A1,1,0,0,0,309.83,128.25Z"/><path d="M318.9,126.41a3,3,0,0,1,1.06,1,2.89,2.89,0,0,1,.39,1.47,2.85,2.85,0,0,1-.39,1.46,3,3,0,0,1-1.06,1.06,2.84,2.84,0,0,1-1.46.38h-2.22v3.54H313V126h4.46A2.85,2.85,0,0,1,318.9,126.41Zm-.91,1.84a.94.94,0,0,0-.63-.32h-2.2v2h2.2a.91.91,0,0,0,.63-.33,1,1,0,0,0,.25-.68A.94.94,0,0,0,318,128.25Z"/><path d="M328,126.65a4.65,4.65,0,0,1,1.71,1.73,4.71,4.71,0,0,1,0,4.74,4.78,4.78,0,0,1-1.71,1.72,4.67,4.67,0,0,1-2.37.63,4.62,4.62,0,0,1-2.37-.63,4.76,4.76,0,0,1-1.73-1.72,4.74,4.74,0,0,1,6.47-6.47Zm-1.15,6.2a2.47,2.47,0,0,0,.88-.88,2.42,2.42,0,0,0,0-2.44,2.53,2.53,0,0,0-.88-.9,2.42,2.42,0,0,0-2.44,0,2.5,2.5,0,0,0-.9.9,2.42,2.42,0,0,0,0,2.44,2.45,2.45,0,0,0,.9.88,2.42,2.42,0,0,0,2.44,0Z"/><path d="M338.75,135.37h-2.39l-1.48-3.54h-1.52v3.54h-2.24V126h4.46a2.94,2.94,0,0,1,2.52,1.45,2.88,2.88,0,0,1,.39,1.46,2.8,2.8,0,0,1-.36,1.39,3,3,0,0,1-1,1.05Zm-2.63-7.12a.9.9,0,0,0-.62-.32h-2.2v2h2.2a1,1,0,0,0,.62-.33,1,1,0,0,0,.25-.68A.94.94,0,0,0,336.12,128.25Z"/><path d="M346.59,126v2.38H344.2v7h-2.39v-7h-2.4V126h7.18Z"/><path d="M348,133.74h2.23l-1,3h-2Z"/><path d="M39.42,141.88H41.8v9.35H39.42V146l-1.16,2.11-.06.11H35.82l-.06-.11-.16-.3-1-1.81v5.27h-2.4v-9.35h2.4l2.4,4Z"/><path d="M47.72,142l3.06,9.25h-2.3l-.61-1.89H45l-.59,1.89H42.06L45.13,142Zm-2.13,5.43h1.67l-.83-2.62Z"/><path d="M58.67,151.23H56.28L54.8,147.7H53.28v3.53H51v-9.35H55.5a2.84,2.84,0,0,1,1.45.39A2.89,2.89,0,0,1,58,143.34a2.9,2.9,0,0,1,0,2.85,3,3,0,0,1-1,1.05ZM56,144.11a.89.89,0,0,0-.62-.31h-2.2v2h2.2a.9.9,0,0,0,.62-.32,1,1,0,0,0,.25-.68A1,1,0,0,0,56,144.11Z"/><path d="M64,146.51l2.79,4.72H64.15l-2.31-3.77v3.77H59.46v-9.35h2.38v3.65l2.31-3.65h2.64Z"/><path d="M74.21,149.21v2H67.85v-9.35h6.24v2H70.24v1.64h3.24v2H70.24v1.64Z"/><path d="M82.31,141.88v2.38H79.92v7H77.53v-7h-2.4v-2.38h7.18Z"/><path d="M85.62,141.88v9.35H83.24v-9.35Z"/><path d="M91.82,141.88H94.2v9.35H91.82l-2.75-5v5H86.68v-9.35h2.39l2.75,5Z"/><path d="M104.45,146.6a4.63,4.63,0,0,1-.64,2.37,4.7,4.7,0,0,1-4.1,2.35A4.7,4.7,0,0,1,95.63,149,4.53,4.53,0,0,1,95,146.6a4.74,4.74,0,0,1,2.36-4.09,4.52,4.52,0,0,1,2.36-.64,4.6,4.6,0,0,1,1.85.37,4.77,4.77,0,0,1,1.51,1l-2.13,1.22a2.36,2.36,0,0,0-1.23-.33,2.32,2.32,0,0,0-1.21.33,2.53,2.53,0,0,0-.89.89,2.38,2.38,0,0,0-.33,1.22,2.35,2.35,0,0,0,.33,1.22,2.53,2.53,0,0,0,.89.89,2.41,2.41,0,0,0,2.5,0,2.45,2.45,0,0,0,.89-1H99v-2.19h5.35A4.94,4.94,0,0,1,104.45,146.6Z"/><path d="M110.61,152.06a12,12,0,0,1-1.35-4.35,9.89,9.89,0,0,1-.05-1.13,10.41,10.41,0,0,1,.26-2.41,10,10,0,0,1,.7-2.13,8.9,8.9,0,0,1,.62-1.16l1.44,1c0,.07-.11.21-.24.44a8.36,8.36,0,0,0-.43,1,9.35,9.35,0,0,0-.4,1.35,9.87,9.87,0,0,0-.2,2,7.36,7.36,0,0,0,.06,1,10.15,10.15,0,0,0,1.15,3.67Z"/><path d="M118.16,142l3,9.25h-2.3l-.61-1.89h-2.89l-.6,1.89H112.5l3.07-9.25ZM116,147.41h1.66l-.83-2.62Z"/><path d="M125.57,141.85a5.37,5.37,0,0,1,1.41.34,3.81,3.81,0,0,1,1.29.8,4.62,4.62,0,0,1,1.15,1.61,4.94,4.94,0,0,1,.4,1.93,4.47,4.47,0,0,1-.52,2.15,4.33,4.33,0,0,1-1.44,1.65,5.16,5.16,0,0,1-1.91.75,13.74,13.74,0,0,1-2.36.18h-1.08l-1,0v-9.45h2.39A16.6,16.6,0,0,1,125.57,141.85Zm2,4.68a2.39,2.39,0,0,0-.31-1.2,2.45,2.45,0,0,0-.87-.91,2.19,2.19,0,0,0-1.2-.35h-1.29v4.87a9.63,9.63,0,0,0,1.63-.11,2.71,2.71,0,0,0,1.23-.52,2,2,0,0,0,.75-1.23A2.88,2.88,0,0,0,127.54,146.53Z"/><path d="M134.71,141.85a5.37,5.37,0,0,1,1.41.34,4,4,0,0,1,1.29.8,4.72,4.72,0,0,1,1.14,1.61,4.78,4.78,0,0,1,.41,1.93,4.58,4.58,0,0,1-.52,2.15,4.27,4.27,0,0,1-1.45,1.65,5,5,0,0,1-1.9.75,13.82,13.82,0,0,1-2.36.18h-1.09l-1,0v-9.45H133A16.81,16.81,0,0,1,134.71,141.85Zm2,4.68a2.3,2.3,0,0,0-.32-1.2,2.5,2.5,0,0,0-.86-.91,2.24,2.24,0,0,0-1.2-.35H133v4.87a9.76,9.76,0,0,0,1.64-.11,2.8,2.8,0,0,0,1.23-.52,2.07,2.07,0,0,0,.74-1.23A2.3,2.3,0,0,0,136.68,146.53Z"/><path d="M142.13,141.88v9.35h-2.38v-9.35Z"/><path d="M150.23,141.88v2.38h-2.39v7h-2.39v-7h-2.4v-2.38h7.18Z"/><path d="M153.54,141.88v9.35h-2.38v-9.35Z"/><path d="M161.43,142.52a4.74,4.74,0,0,1,2.36,4.1,4.74,4.74,0,0,1-2.36,4.08,4.52,4.52,0,0,1-2.36.64A4.74,4.74,0,0,1,155,149a4.52,4.52,0,0,1-.64-2.36,4.59,4.59,0,0,1,.64-2.38,4.72,4.72,0,0,1,6.46-1.72Zm-1.15,6.2a2.53,2.53,0,0,0,.89-.89,2.32,2.32,0,0,0,.33-1.21,2.41,2.41,0,0,0-.33-1.23,2.53,2.53,0,0,0-.89-.89,2.32,2.32,0,0,0-1.21-.33,2.39,2.39,0,0,0-1.23.33,2.53,2.53,0,0,0-.89.89,2.41,2.41,0,0,0-.33,1.23,2.32,2.32,0,0,0,.33,1.21,2.53,2.53,0,0,0,.89.89,2.39,2.39,0,0,0,1.23.33A2.32,2.32,0,0,0,160.28,148.72Z"/><path d="M169.72,141.88h2.38v9.35h-2.38l-2.75-5v5h-2.39v-9.35H167l2.75,5Z"/><path d="M178,142l3.05,9.25h-2.3l-.61-1.89h-2.89l-.6,1.89h-2.31l3.06-9.25Zm-2.13,5.43h1.66l-.83-2.62Z"/><path d="M183.72,149h3.68v2.25h-6.06v-9.35h2.38Z"/><path d="M197.16,142l3.05,9.25h-2.3l-.61-1.89h-2.89l-.6,1.89H191.5l3.07-9.25ZM195,147.41h1.67l-.84-2.62Z"/><path d="M204.58,141.85a5.4,5.4,0,0,1,1.4.34,3.81,3.81,0,0,1,1.29.8,4.62,4.62,0,0,1,1.15,1.61,4.77,4.77,0,0,1,.4,1.93,4.47,4.47,0,0,1-.52,2.15,4.33,4.33,0,0,1-1.44,1.65,5.16,5.16,0,0,1-1.91.75,13.74,13.74,0,0,1-2.36.18h-1.08l-1,0v-9.45h2.39A16.94,16.94,0,0,1,204.58,141.85Zm2,4.68a2.39,2.39,0,0,0-.31-1.2,2.45,2.45,0,0,0-.87-.91,2.18,2.18,0,0,0-1.19-.35h-1.3v4.87a9.63,9.63,0,0,0,1.63-.11,2.71,2.71,0,0,0,1.23-.52,2,2,0,0,0,.75-1.23A2.88,2.88,0,0,0,206.54,146.53Z"/><path d="M215.76,141.86h2.59l-3,9.37h-2.91l-3-9.37H212l1.89,5.84Z"/><path d="M225.51,149.21v2h-6.36v-9.35h6.24v2h-3.85v1.64h3.24v2h-3.24v1.64Z"/><path d="M234.19,151.23H231.8l-1.48-3.53H228.8v3.53h-2.24v-9.35H231a2.84,2.84,0,0,1,1.45.39,2.89,2.89,0,0,1,1.07,1.07,2.9,2.9,0,0,1,0,2.85,3,3,0,0,1-1,1.05Zm-2.63-7.12a.89.89,0,0,0-.62-.31h-2.19v2h2.19a.9.9,0,0,0,.62-.32,1,1,0,0,0,.25-.68A1,1,0,0,0,231.56,144.11Z"/><path d="M242,141.88v2.38h-2.39v7h-2.39v-7h-2.4v-2.38H242Z"/><path d="M245.34,141.88v9.35H243v-9.35Z"/><path d="M250.67,144.85v-.18a.82.82,0,0,0-.33-.65,1.16,1.16,0,0,0-.78-.27,1.28,1.28,0,0,0-.82.27.82.82,0,0,0-.33.65.6.6,0,0,0,.34.57,2.71,2.71,0,0,0,.9.37l.2,0,.23.06a4.37,4.37,0,0,1,1.9.78l.11.1a2.75,2.75,0,0,1,.63.91,2.57,2.57,0,0,1,.23,1.06,2.63,2.63,0,0,1-.25,1.14,3,3,0,0,1-.75,1,3.4,3.4,0,0,1-1.11.63,3.82,3.82,0,0,1-1.3.22,3.72,3.72,0,0,1-1.29-.22,3.35,3.35,0,0,1-1.1-.63,2.85,2.85,0,0,1-.75-1,2.52,2.52,0,0,1-.27-1.14v-.17h2.32v.17a.78.78,0,0,0,.32.65,1.13,1.13,0,0,0,.77.28,1.24,1.24,0,0,0,.82-.28.79.79,0,0,0,.33-.65.77.77,0,0,0-.35-.58,1.46,1.46,0,0,0-.37-.2l-.52-.16-.44-.1c-.48-.13-.86-.24-1.13-.33a2.35,2.35,0,0,1-.76-.45l-.05-.06a2.89,2.89,0,0,1-.69-.92,2.45,2.45,0,0,1-.25-1.09,2.51,2.51,0,0,1,.27-1.13,2.89,2.89,0,0,1,.75-1,3.75,3.75,0,0,1,1.1-.63,4,4,0,0,1,1.29-.22,4.08,4.08,0,0,1,1.3.22,3.8,3.8,0,0,1,1.11.63,3,3,0,0,1,.75,1,2.62,2.62,0,0,1,.25,1.13v.18Z"/><path d="M256.13,141.88v9.35h-2.38v-9.35Z"/><path d="M262.33,141.88h2.38v9.35h-2.38l-2.75-5v5h-2.39v-9.35h2.39l2.75,5Z"/><path d="M275,146.6a4.63,4.63,0,0,1-.64,2.37,4.7,4.7,0,0,1-4.1,2.35,4.7,4.7,0,0,1-4.08-2.35,4.53,4.53,0,0,1-.64-2.37,4.74,4.74,0,0,1,2.36-4.09,4.52,4.52,0,0,1,2.36-.64,4.6,4.6,0,0,1,1.85.37,4.77,4.77,0,0,1,1.51,1l-2.13,1.22a2.36,2.36,0,0,0-1.23-.33,2.32,2.32,0,0,0-1.21.33,2.53,2.53,0,0,0-.89.89,2.38,2.38,0,0,0-.33,1.22,2.35,2.35,0,0,0,.33,1.22,2.53,2.53,0,0,0,.89.89,2.32,2.32,0,0,0,1.21.33,2.28,2.28,0,0,0,1.28-.37,2.4,2.4,0,0,0,.9-1h-2.93v-2.19h5.35A4.94,4.94,0,0,1,275,146.6Z"/><path d="M39.26,157.75v2.38H36.87v7H34.48v-7h-2.4v-2.38h7.18Z"/><path d="M47,158.38a4.68,4.68,0,0,1,1.72,1.73,4.58,4.58,0,0,1,.64,2.37,4.53,4.53,0,0,1-.64,2.37,4.72,4.72,0,0,1-6.46,1.72,4.73,4.73,0,0,1-1.72-1.72,4.53,4.53,0,0,1-.64-2.37,4.58,4.58,0,0,1,.64-2.37,4.76,4.76,0,0,1,1.72-1.73,4.68,4.68,0,0,1,2.38-.63A4.61,4.61,0,0,1,47,158.38Zm-1.15,6.21a2.53,2.53,0,0,0,.89-.89,2.35,2.35,0,0,0,.33-1.22,2.38,2.38,0,0,0-.33-1.22,2.53,2.53,0,0,0-.89-.89,2.32,2.32,0,0,0-1.21-.33,2.41,2.41,0,0,0-1.23.33,2.53,2.53,0,0,0-.89.89,2.38,2.38,0,0,0-.33,1.22,2.35,2.35,0,0,0,.33,1.22,2.53,2.53,0,0,0,.89.89,2.41,2.41,0,0,0,1.23.33A2.32,2.32,0,0,0,45.87,164.59Z"/><path d="M59,157.84l3.06,9.26h-2.3l-.61-1.89h-2.9l-.59,1.89H53.34l3.07-9.26Zm-2.13,5.44h1.67l-.83-2.62Z"/><path d="M69.37,157.75v2.38H67v7H64.58v-7H62.19v-2.38h7.18Z"/><path d="M77.34,157.75v2.38H75v7h-2.4v-7H70.16v-2.38h7.18Z"/><path d="M85.9,167.1H83.5L82,163.57H80.5v3.53H78.27v-9.35h4.45a2.89,2.89,0,0,1,2.52,1.46,2.82,2.82,0,0,1,.39,1.45,2.77,2.77,0,0,1-.36,1.39,3,3,0,0,1-1,1.06ZM83.26,160a.87.87,0,0,0-.62-.31H80.45v2h2.19a.88.88,0,0,0,.62-.32,1,1,0,0,0,.26-.68A1,1,0,0,0,83.26,160Z"/><path d="M91.55,157.84l3.06,9.26h-2.3l-.61-1.89H88.8l-.59,1.89H85.9L89,157.84Zm-2.12,5.44h1.66l-.83-2.62Z"/><path d="M100.27,164.7a2.64,2.64,0,0,0,.79-.52l1.61,1.61a4.62,4.62,0,0,1-1.52,1,4.49,4.49,0,0,1-1.82.37,4.56,4.56,0,0,1-2.37-.64,4.73,4.73,0,0,1-1.72-1.72,4.61,4.61,0,0,1-.63-2.36,4.68,4.68,0,0,1,.63-2.38A4.81,4.81,0,0,1,97,158.36a4.72,4.72,0,0,1,5.71.75l-1.61,1.62a2.67,2.67,0,0,0-.79-.53,2.5,2.5,0,0,0-.94-.19,2.35,2.35,0,0,0-1.22.33,2.5,2.5,0,0,0-.88.89,2.41,2.41,0,0,0-.33,1.23,2.32,2.32,0,0,0,.33,1.21,2.5,2.5,0,0,0,.88.89,2.35,2.35,0,0,0,1.22.33A2.32,2.32,0,0,0,100.27,164.7Z"/><path d="M110.52,157.75v2.38h-2.4v7h-2.39v-7h-2.39v-2.38h7.18Z"/><path d="M123,157.76v5.78a3.59,3.59,0,0,1-.5,1.85,3.66,3.66,0,0,1-1.34,1.34,3.56,3.56,0,0,1-1.86.5h-.21a3.5,3.5,0,0,1-1.85-.5,3.64,3.64,0,0,1-1.84-3.19v-5.78h2.21V163a2.31,2.31,0,0,0,.39,1.37,1.29,1.29,0,0,0,1.09.54h.21a1.32,1.32,0,0,0,1.08-.55,2.24,2.24,0,0,0,.41-1.36v-5.25Z"/><path d="M128.34,160.71v-.17a.82.82,0,0,0-.33-.65,1.16,1.16,0,0,0-.78-.27,1.24,1.24,0,0,0-.81.27.8.8,0,0,0-.34.65.6.6,0,0,0,.34.57,2.94,2.94,0,0,0,.9.37l.21,0,.23,0a4.64,4.64,0,0,1,1.89.78l.12.11a3,3,0,0,1,.63.91,2.7,2.7,0,0,1,.23,1.06,2.63,2.63,0,0,1-.26,1.13,2.79,2.79,0,0,1-.75,1,3.8,3.8,0,0,1-1.11.63,3.89,3.89,0,0,1-2.58,0,3.8,3.8,0,0,1-1.11-.63,2.92,2.92,0,0,1-.75-1,2.51,2.51,0,0,1-.27-1.13v-.17h2.32v.17a.84.84,0,0,0,.32.65,1.19,1.19,0,0,0,.77.27,1.28,1.28,0,0,0,.82-.27.83.83,0,0,0,.34-.65.74.74,0,0,0-.36-.58,1.46,1.46,0,0,0-.37-.2,3.25,3.25,0,0,0-.52-.16l-.43-.11a11,11,0,0,1-1.14-.33,2,2,0,0,1-.75-.45l-.06,0a2.89,2.89,0,0,1-.69-.92,2.45,2.45,0,0,1-.25-1.09,2.52,2.52,0,0,1,.27-1.14,3,3,0,0,1,.75-1,3.8,3.8,0,0,1,1.11-.63,3.89,3.89,0,0,1,2.58,0,3.8,3.8,0,0,1,1.11.63,2.85,2.85,0,0,1,.75,1,2.64,2.64,0,0,1,.26,1.14v.17Z"/><path d="M137.78,165.08v2h-6.36v-9.35h6.24v2h-3.85v1.64h3.24v2h-3.24v1.64Z"/><path d="M146.47,167.1h-2.4l-1.48-3.53h-1.52v3.53h-2.23v-9.35h4.45a2.89,2.89,0,0,1,2.52,1.46,2.82,2.82,0,0,1,.39,1.45,2.77,2.77,0,0,1-.36,1.39,3,3,0,0,1-1,1.06ZM143.83,160a.87.87,0,0,0-.62-.31H141v2h2.19a.88.88,0,0,0,.62-.32,1,1,0,0,0,.26-.68A1,1,0,0,0,143.83,160Z"/><path d="M151.53,160.71v-.17a.84.84,0,0,0-.32-.65,1.2,1.2,0,0,0-.79-.27,1.24,1.24,0,0,0-.81.27.8.8,0,0,0-.34.65.6.6,0,0,0,.34.57,2.94,2.94,0,0,0,.9.37l.21,0,.23,0a4.64,4.64,0,0,1,1.89.78l.12.11a3,3,0,0,1,.63.91,2.7,2.7,0,0,1,.23,1.06,2.63,2.63,0,0,1-.26,1.13,2.79,2.79,0,0,1-.75,1,3.56,3.56,0,0,1-1.11.63,3.89,3.89,0,0,1-2.58,0,3.8,3.8,0,0,1-1.11-.63,3.05,3.05,0,0,1-.75-1,2.49,2.49,0,0,1-.26-1.13v-.17h2.31v.17a.84.84,0,0,0,.32.65,1.19,1.19,0,0,0,.78.27,1.26,1.26,0,0,0,.81-.27.83.83,0,0,0,.34-.65.74.74,0,0,0-.36-.58,1.46,1.46,0,0,0-.37-.2,3.25,3.25,0,0,0-.52-.16l-.43-.11a11,11,0,0,1-1.14-.33,2.09,2.09,0,0,1-.75-.45l-.06,0a2.89,2.89,0,0,1-.69-.92,2.58,2.58,0,0,1-.24-1.09,2.51,2.51,0,0,1,.26-1.14,3.13,3.13,0,0,1,.75-1,3.8,3.8,0,0,1,1.11-.63,3.89,3.89,0,0,1,2.58,0,3.56,3.56,0,0,1,1.11.63,2.85,2.85,0,0,1,.75,1,2.64,2.64,0,0,1,.26,1.14v.17Z"/><path d="M156.24,167.93l-1.56-.82a10.3,10.3,0,0,0,1.15-3.66,9.81,9.81,0,0,0-.15-3,8.56,8.56,0,0,0-.43-1.44,6.91,6.91,0,0,0-.45-1,2.43,2.43,0,0,1-.19-.3l1.44-1a9.28,9.28,0,0,1,.62,1.15,9.75,9.75,0,0,1,.71,2.14,11,11,0,0,1,.26,2.4c0,.42,0,.8,0,1.14A12.08,12.08,0,0,1,156.24,167.93Z"/><path d="M159.15,165.47h2.23l-1,3h-2Z"/><path d="M171.53,164.7a2.69,2.69,0,0,0,.8-.52l1.61,1.61a4.73,4.73,0,0,1-1.52,1,4.69,4.69,0,0,1-4.19-.27,4.75,4.75,0,0,1-1.72-6.46,4.73,4.73,0,0,1,1.72-1.72,4.69,4.69,0,0,1,4.19-.27,4.73,4.73,0,0,1,1.52,1l-1.61,1.62a2.72,2.72,0,0,0-.8-.53,2.45,2.45,0,0,0-.93-.19,2.35,2.35,0,0,0-1.22.33,2.53,2.53,0,0,0-.89.89,2.41,2.41,0,0,0-.33,1.23,2.32,2.32,0,0,0,.33,1.21,2.53,2.53,0,0,0,.89.89,2.35,2.35,0,0,0,1.22.33A2.28,2.28,0,0,0,171.53,164.7Z"/><path d="M179.79,157.75h2.38v9.35h-2.38v-3.49h-2.68v3.49h-2.38v-9.35h2.38v3.48h2.68Z"/><path d="M189.58,165.08v2h-6.36v-9.35h6.24v2h-3.84v1.64h3.24v2h-3.24v1.64Z"/><path d="M196,164.7a2.78,2.78,0,0,0,.79-.52l1.61,1.61a4.73,4.73,0,0,1-1.52,1,4.69,4.69,0,0,1-4.19-.27,4.75,4.75,0,0,1-1.72-6.46,4.73,4.73,0,0,1,1.72-1.72,4.69,4.69,0,0,1,4.19-.27,4.73,4.73,0,0,1,1.52,1l-1.61,1.62a2.81,2.81,0,0,0-.79-.53,2.54,2.54,0,0,0-.94-.19,2.35,2.35,0,0,0-1.22.33,2.53,2.53,0,0,0-.89.89,2.41,2.41,0,0,0-.33,1.23,2.32,2.32,0,0,0,.33,1.21,2.53,2.53,0,0,0,.89.89,2.42,2.42,0,0,0,2.16.14Z"/><path d="M203.77,162.38l2.79,4.72h-2.64l-2.31-3.77v3.77h-2.38v-9.35h2.38v3.65l2.31-3.65h2.64Z"/><path d="M210,157.75v9.35h-2.38v-9.35Z"/><path d="M216.2,157.75h2.38v9.35H216.2l-2.75-5v5h-2.4v-9.35h2.4l2.75,5Z"/><path d="M228.83,162.47a4.63,4.63,0,0,1-.64,2.37,4.81,4.81,0,0,1-1.72,1.72,4.68,4.68,0,0,1-2.38.63,4.61,4.61,0,0,1-2.36-.63,4.73,4.73,0,0,1-1.72-1.72,4.71,4.71,0,0,1,0-4.74,4.71,4.71,0,0,1,7.44-1l-2.13,1.22a2.27,2.27,0,0,0-1.23-.33,2.23,2.23,0,0,0-1.21.33,2.38,2.38,0,0,0-.89.89,2.42,2.42,0,0,0,0,2.44,2.42,2.42,0,0,0,.89.88,2.32,2.32,0,0,0,1.21.33,2.36,2.36,0,0,0,1.28-.36,2.47,2.47,0,0,0,.9-1h-2.93v-2.2h5.35A5.1,5.1,0,0,1,228.83,162.47Z"/><path d="M240.63,157.75v2.38h-2.39v7h-2.39v-7h-2.4v-2.38h7.18Z"/><path d="M246.61,157.75H249v9.35h-2.38v-3.49h-2.67v3.49h-2.38v-9.35h2.38v3.48h2.67Z"/><path d="M256.41,165.08v2h-6.36v-9.35h6.24v2h-3.85v1.64h3.24v2h-3.24v1.64Z"/><path d="M38.72,175.64H34.59v1.64H37.9v2H34.59V183H32.21v-9.34h6.51Z"/><path d="M47.12,173.63v5.78a3.59,3.59,0,0,1-.5,1.85,3.69,3.69,0,0,1-1.35,1.34,3.65,3.65,0,0,1-1.86.5H43.2a3.59,3.59,0,0,1-1.85-.5A3.74,3.74,0,0,1,40,181.26a3.59,3.59,0,0,1-.5-1.85v-5.78h2.21v5.25a2.19,2.19,0,0,0,.4,1.36,1.26,1.26,0,0,0,1.08.54h.21a1.29,1.29,0,0,0,1.08-.55,2.13,2.13,0,0,0,.42-1.35v-5.25Z"/><path d="M50.55,180.72h3.68V183H48.17v-9.34h2.38Z"/><path d="M61.66,175.64H57.53v1.64h3.31v2H57.53V183H55.15v-9.34h6.51Z"/><path d="M64.83,173.62V183H62.45v-9.34Z"/><path d="M68.27,180.72H72V183H65.89v-9.34h2.38Z"/><path d="M75.25,180.72h3.68V183H72.87v-9.34h2.38Z"/><path d="M87.06,173.62h2.38V183H87.06v-5.27L85.9,179.8l-.06.11H83.46l-.06-.11-.16-.3-1-1.81V183h-2.4v-9.34h2.4l2.4,4Z"/><path d="M96.86,180.94v2H90.5v-9.34h6.24v2H92.89v1.64h3.24v2H92.89v1.64Z"/><path d="M103.06,173.62h2.38V183h-2.38l-2.75-5v5h-2.4v-9.34h2.4l2.75,5Z"/><path d="M113.54,173.62V176h-2.39v7h-2.39v-7h-2.4v-2.38h7.18Z"/><path d="M125.27,174.25a4.73,4.73,0,0,1,2.35,4.1,4.62,4.62,0,0,1-.63,2.37,4.81,4.81,0,0,1-1.72,1.72,4.62,4.62,0,0,1-2.37.63,4.67,4.67,0,0,1-2.37-.63,4.83,4.83,0,0,1-1.73-1.72,4.62,4.62,0,0,1-.63-2.37,4.71,4.71,0,0,1,4.73-4.73A4.62,4.62,0,0,1,125.27,174.25Zm-1.15,6.2a2.5,2.5,0,0,0,.89-.88,2.42,2.42,0,0,0,0-2.44,2.45,2.45,0,0,0-.89-.89,2.36,2.36,0,0,0-1.22-.34,2.39,2.39,0,0,0-1.22.34,2.45,2.45,0,0,0-.89.89,2.42,2.42,0,0,0,0,2.44,2.5,2.5,0,0,0,.89.88,2.38,2.38,0,0,0,1.22.33A2.35,2.35,0,0,0,124.12,180.45Z"/><path d="M134.92,175.64H130.8v1.64h3.3v2h-3.3V183h-2.38v-9.34h6.5Z"/><path d="M146.73,179a2.65,2.65,0,0,1,.3,1.25,2.71,2.71,0,0,1-.35,1.34,2.76,2.76,0,0,1-1,1,2.7,2.7,0,0,1-1.36.37h-4.67V173.6h4.25a2.64,2.64,0,0,1,1.36.37,2.9,2.9,0,0,1,1,1,2.67,2.67,0,0,1,.35,1.33,2.54,2.54,0,0,1-.19,1,2.57,2.57,0,0,1-.51.82A2.63,2.63,0,0,1,146.73,179Zm-2.47-3.21a.92.92,0,0,0-.68-.29h-1.72v2h1.72a1.42,1.42,0,0,0,.32-.05,1,1,0,0,0,.24-.13,1,1,0,0,0,.3-.36,1,1,0,0,0,.11-.46A.94.94,0,0,0,144.26,175.81Zm.4,4.93a.9.9,0,0,0,.27-.7.92.92,0,0,0-.22-.62.9.9,0,0,0-.57-.34c-.06,0-.68,0-1.88,0h-.4v2H144A1,1,0,0,0,144.66,180.74Z"/><path d="M154.66,174.25a4.61,4.61,0,0,1,1.72,1.73,4.68,4.68,0,0,1,.64,2.37,4.63,4.63,0,0,1-.64,2.37,4.73,4.73,0,0,1-1.72,1.72,4.61,4.61,0,0,1-2.36.63,4.68,4.68,0,0,1-2.38-.63,4.81,4.81,0,0,1-1.72-1.72,4.53,4.53,0,0,1-.64-2.37,4.58,4.58,0,0,1,.64-2.37,4.68,4.68,0,0,1,4.1-2.36A4.61,4.61,0,0,1,154.66,174.25Zm-1.15,6.2a2.5,2.5,0,0,0,.89-.88,2.42,2.42,0,0,0,0-2.44,2.45,2.45,0,0,0-.89-.89,2.33,2.33,0,0,0-1.21-.34,2.42,2.42,0,0,0-1.23.34,2.45,2.45,0,0,0-.89.89,2.42,2.42,0,0,0,0,2.44,2.5,2.5,0,0,0,.89.88,2.41,2.41,0,0,0,1.23.33A2.32,2.32,0,0,0,153.51,180.45Z"/><path d="M165.41,173.63v5.78a3.58,3.58,0,0,1-.49,1.85,3.69,3.69,0,0,1-1.35,1.34,3.65,3.65,0,0,1-1.86.5h-.21a3.59,3.59,0,0,1-1.85-.5,3.66,3.66,0,0,1-1.34-1.34,3.5,3.5,0,0,1-.5-1.85v-5.78H160v5.25a2.26,2.26,0,0,0,.39,1.36,1.29,1.29,0,0,0,1.09.54h.21a1.29,1.29,0,0,0,1.08-.55,2.13,2.13,0,0,0,.41-1.35v-5.25Z"/><path d="M171.61,173.62H174V183h-2.38l-2.75-5v5h-2.39v-9.34h2.39l2.75,5Z"/><path d="M182.1,173.62V176h-2.39v7h-2.4v-7h-2.39v-2.38h7.18Z"/><path d="M188,173.62h2.38l-2.75,5.54V183h-2.38v-3.8l-2.75-5.54h2.38l1.56,3.18Z"/><path d="M200.27,180.57a2.67,2.67,0,0,0,.79-.53l1.61,1.62a4.73,4.73,0,0,1-1.52,1,4.78,4.78,0,0,1-4.19-.27,4.73,4.73,0,0,1-1.72-1.72,4.62,4.62,0,0,1-.63-2.37,4.7,4.7,0,0,1,2.35-4.09,4.69,4.69,0,0,1,4.19-.27,4.73,4.73,0,0,1,1.52,1l-1.61,1.61a2.64,2.64,0,0,0-.79-.52,2.42,2.42,0,0,0-2.16.14,2.53,2.53,0,0,0-.89.89,2.38,2.38,0,0,0-.33,1.22,2.33,2.33,0,0,0,.33,1.22,2.53,2.53,0,0,0,.89.89,2.35,2.35,0,0,0,1.22.33A2.54,2.54,0,0,0,200.27,180.57Z"/><path d="M210.3,174.25a4.73,4.73,0,0,1,2.35,4.1,4.62,4.62,0,0,1-.63,2.37,4.81,4.81,0,0,1-1.72,1.72,4.62,4.62,0,0,1-2.37.63,4.67,4.67,0,0,1-2.37-.63,4.83,4.83,0,0,1-1.73-1.72,4.62,4.62,0,0,1-.63-2.37,4.71,4.71,0,0,1,4.73-4.73A4.62,4.62,0,0,1,210.3,174.25Zm-1.15,6.2a2.5,2.5,0,0,0,.89-.88,2.42,2.42,0,0,0,0-2.44,2.45,2.45,0,0,0-.89-.89,2.33,2.33,0,0,0-1.22-.34,2.39,2.39,0,0,0-1.22.34,2.45,2.45,0,0,0-.89.89,2.42,2.42,0,0,0,0,2.44,2.5,2.5,0,0,0,.89.88,2.38,2.38,0,0,0,1.22.33A2.33,2.33,0,0,0,209.15,180.45Z"/><path d="M218.59,173.62H221V183h-2.38l-2.75-5v5h-2.39v-9.34h2.39l2.75,5Z"/><path d="M226.13,173.58a6,6,0,0,1,1.41.34,4.23,4.23,0,0,1,1.29.81,4.68,4.68,0,0,1,1.14,1.6,4.84,4.84,0,0,1,.4,1.93,4.58,4.58,0,0,1-.51,2.15,4.31,4.31,0,0,1-1.45,1.66,5.07,5.07,0,0,1-1.91.74,13.74,13.74,0,0,1-2.36.18h-1.08l-1,0v-9.45h2.39C225.08,173.51,225.65,173.54,226.13,173.58Zm2,4.68a2.48,2.48,0,0,0-1.19-2.1,2.28,2.28,0,0,0-1.19-.36h-1.3v4.88a10.7,10.7,0,0,0,1.63-.11,2.72,2.72,0,0,0,1.23-.53,2,2,0,0,0,.75-1.23A2.24,2.24,0,0,0,228.1,178.26Z"/><path d="M233.54,173.62V183h-2.37v-9.34Z"/><path d="M241.65,173.62V176h-2.39v7h-2.4v-7h-2.39v-2.38h7.18Z"/><path d="M245,173.62V183h-2.38v-9.34Z"/><path d="M252.85,174.25a4.76,4.76,0,0,1,1.72,1.73,4.67,4.67,0,0,1,.63,2.37,4.62,4.62,0,0,1-.63,2.37,4.89,4.89,0,0,1-1.72,1.72,4.62,4.62,0,0,1-2.37.63,4.67,4.67,0,0,1-2.37-.63,4.83,4.83,0,0,1-1.73-1.72,4.62,4.62,0,0,1-.63-2.37,4.71,4.71,0,0,1,4.73-4.73A4.62,4.62,0,0,1,252.85,174.25Zm-1.15,6.2a2.47,2.47,0,0,0,.88-.88,2.36,2.36,0,0,0,0-2.44,2.42,2.42,0,0,0-.88-.89,2.44,2.44,0,0,0-3.33,3.33,2.42,2.42,0,0,0,.89.88,2.42,2.42,0,0,0,2.44,0Z"/><path d="M261.14,173.62h2.38V183h-2.38l-2.75-5v5H256v-9.34h2.39l2.75,5Z"/><path d="M268.85,176.58v-.17a.82.82,0,0,0-.33-.66,1.17,1.17,0,0,0-.78-.27,1.28,1.28,0,0,0-.82.27.82.82,0,0,0-.33.66.62.62,0,0,0,.34.57,2.94,2.94,0,0,0,.9.37l.2,0,.24.05a4.64,4.64,0,0,1,1.89.78l.12.1a2.82,2.82,0,0,1,.62.92,2.49,2.49,0,0,1,.23,1,2.63,2.63,0,0,1-.25,1.14,2.89,2.89,0,0,1-.75,1A3.8,3.8,0,0,1,269,183a4.07,4.07,0,0,1-1.3.21,4,4,0,0,1-1.29-.21,3.75,3.75,0,0,1-1.1-.63,2.89,2.89,0,0,1-.75-1,2.52,2.52,0,0,1-.27-1.14v-.17h2.32v.17a.81.81,0,0,0,.32.66,1.17,1.17,0,0,0,.77.27,1.28,1.28,0,0,0,.82-.27.82.82,0,0,0,.33-.66.78.78,0,0,0-.35-.58,1.86,1.86,0,0,0-.37-.2l-.52-.15-.44-.11a11.45,11.45,0,0,1-1.13-.33,2.35,2.35,0,0,1-.76-.45l-.05-.05a3,3,0,0,1-.69-.93,2.38,2.38,0,0,1-.25-1.08,2.52,2.52,0,0,1,.27-1.14,3,3,0,0,1,.75-1,3.51,3.51,0,0,1,1.1-.62,3.72,3.72,0,0,1,1.29-.22,3.82,3.82,0,0,1,1.3.22,3.56,3.56,0,0,1,1.11.62,3,3,0,0,1,.75,1,2.63,2.63,0,0,1,.25,1.14v.17Z"/><path d="M272.38,181.34h2.23l-1,3h-2Z"/><path d="M37.61,196.43a2.64,2.64,0,0,0,.79-.52L40,197.52a5,5,0,0,1-1.52,1,4.74,4.74,0,0,1-1.83.36,4.67,4.67,0,0,1-2.37-.63,4.89,4.89,0,0,1-1.72-1.72,4.77,4.77,0,0,1,0-4.74,4.83,4.83,0,0,1,1.72-1.73,4.67,4.67,0,0,1,2.37-.63,4.74,4.74,0,0,1,1.83.36,4.87,4.87,0,0,1,1.52,1l-1.62,1.61a2.47,2.47,0,0,0-.79-.52,2.32,2.32,0,0,0-.94-.19,2.35,2.35,0,0,0-1.22.33,2.42,2.42,0,0,0-.88.89,2.42,2.42,0,0,0,0,2.44,2.47,2.47,0,0,0,.88.88,2.35,2.35,0,0,0,1.22.33A2.32,2.32,0,0,0,37.61,196.43Z"/><path d="M47.64,190.12a4.65,4.65,0,0,1,1.72,1.72,4.59,4.59,0,0,1,.64,2.38,4.52,4.52,0,0,1-.64,2.36,4.58,4.58,0,0,1-1.72,1.72,4.52,4.52,0,0,1-2.36.64,4.59,4.59,0,0,1-2.38-.64,4.72,4.72,0,0,1-1.72-6.46,4.74,4.74,0,0,1,4.1-2.36A4.62,4.62,0,0,1,47.64,190.12Zm-1.15,6.2a2.53,2.53,0,0,0,.89-.89,2.32,2.32,0,0,0,.33-1.21,2.41,2.41,0,0,0-.33-1.23,2.53,2.53,0,0,0-.89-.89,2.32,2.32,0,0,0-1.21-.33,2.41,2.41,0,0,0-1.23.33,2.53,2.53,0,0,0-.89.89,2.41,2.41,0,0,0-.33,1.23,2.32,2.32,0,0,0,.33,1.21,2.53,2.53,0,0,0,.89.89,2.41,2.41,0,0,0,1.23.33A2.32,2.32,0,0,0,46.49,196.32Z"/><path d="M58,189.48h2.38v9.35H58v-5.27l-1.17,2.11,0,.11H54.4l-.07-.11-.15-.3-1-1.81v5.27H50.79v-9.35h2.39l2.41,4Z"/><path d="M67.35,189.87a2.91,2.91,0,0,1,1.06,1.06,2.91,2.91,0,0,1-2.52,4.37H63.67v3.53H61.43v-9.35h4.46A2.83,2.83,0,0,1,67.35,189.87Zm-.91,1.84a.91.91,0,0,0-.63-.31H63.62v2h2.19a.85.85,0,0,0,.63-.32,1,1,0,0,0,.26-.68A1,1,0,0,0,66.44,191.71Z"/><path d="M72,189.48v9.35H69.59v-9.35Z"/><path d="M75.41,196.58h3.67v2.25H73v-9.35h2.38Z"/><path d="M82.39,189.48v9.35H80v-9.35Z"/><path d="M88.59,189.48H91v9.35H88.59l-2.75-5v5H83.45v-9.35h2.39l2.75,5Z"/><path d="M101.22,194.2a4.53,4.53,0,0,1-.64,2.37,4.75,4.75,0,0,1-6.46,1.72,4.73,4.73,0,0,1-1.72-1.72,4.62,4.62,0,0,1-.63-2.37,4.7,4.7,0,0,1,2.35-4.09,4.53,4.53,0,0,1,2.37-.64,4.58,4.58,0,0,1,1.84.37,4.66,4.66,0,0,1,1.51,1l-2.13,1.22a2.42,2.42,0,0,0-2.44,0,2.53,2.53,0,0,0-.89.89,2.38,2.38,0,0,0-.33,1.22,2.35,2.35,0,0,0,.33,1.22,2.53,2.53,0,0,0,.89.89,2.41,2.41,0,0,0,2.5,0,2.4,2.4,0,0,0,.9-1H95.73v-2.19h5.36A5.55,5.55,0,0,1,101.22,194.2Z"/><path d="M113.61,198.83h-2.4l-1.48-3.53h-1.52v3.53H106v-9.35h4.45a2.89,2.89,0,0,1,2.52,1.46,2.84,2.84,0,0,1,.39,1.45,2.94,2.94,0,0,1-.35,1.4,3,3,0,0,1-1,1.05ZM111,191.71a.91.91,0,0,0-.63-.31h-2.19v2h2.19a.92.92,0,0,0,.63-.32,1,1,0,0,0,.25-.68A1,1,0,0,0,111,191.71Z"/><path d="M120.76,196.81v2H114.4v-9.35h6.24v2h-3.85v1.64H120v2h-3.24v1.64Z"/><path d="M126.09,192.45v-.18a.82.82,0,0,0-.33-.65,1.16,1.16,0,0,0-.78-.27,1.24,1.24,0,0,0-.81.27.8.8,0,0,0-.34.65.6.6,0,0,0,.34.57,2.71,2.71,0,0,0,.9.37l.21,0,.23.05a4.62,4.62,0,0,1,1.89.79l.12.1a3.08,3.08,0,0,1,.63.91,2.74,2.74,0,0,1,.23,1.06,2.64,2.64,0,0,1-.26,1.14,2.85,2.85,0,0,1-.75,1,3.4,3.4,0,0,1-1.11.63,3.89,3.89,0,0,1-2.58,0,3.4,3.4,0,0,1-1.11-.63,3,3,0,0,1-.75-1,2.52,2.52,0,0,1-.27-1.14V196h2.32v.17a.86.86,0,0,0,.32.66,1.19,1.19,0,0,0,.77.27,1.28,1.28,0,0,0,.82-.27.85.85,0,0,0,.34-.66.76.76,0,0,0-.36-.58,1.46,1.46,0,0,0-.37-.2l-.52-.16-.43-.1q-.73-.19-1.14-.33a2.31,2.31,0,0,1-.75-.45l-.06-.06a2.89,2.89,0,0,1-.69-.92,2.45,2.45,0,0,1-.25-1.09,2.51,2.51,0,0,1,.27-1.13,3,3,0,0,1,.75-1,3.8,3.8,0,0,1,1.11-.63,4.07,4.07,0,0,1,2.58,0,3.8,3.8,0,0,1,1.11.63,2.89,2.89,0,0,1,.75,1,2.63,2.63,0,0,1,.26,1.13v.18Z"/><path d="M136.77,189.5v5.78a3.61,3.61,0,0,1-.49,1.85,3.69,3.69,0,0,1-1.35,1.34,3.64,3.64,0,0,1-1.86.49h-.21a3.58,3.58,0,0,1-1.85-.49,3.66,3.66,0,0,1-1.34-1.34,3.52,3.52,0,0,1-.5-1.85V189.5h2.21v5.25a2.28,2.28,0,0,0,.39,1.36,1.29,1.29,0,0,0,1.09.54h.21a1.29,1.29,0,0,0,1.08-.55,2.15,2.15,0,0,0,.41-1.35V189.5Z"/><path d="M140.21,196.58h3.68v2.25h-6.06v-9.35h2.38Z"/><path d="M151.86,189.48v2.38h-2.39v7h-2.4v-7h-2.39v-2.38h7.18Z"/><path d="M157.06,192.45v-.18a.82.82,0,0,0-.33-.65,1.17,1.17,0,0,0-.78-.27,1.28,1.28,0,0,0-.82.27.83.83,0,0,0-.34.65.6.6,0,0,0,.35.57,2.71,2.71,0,0,0,.9.37l.2,0,.23.05a4.61,4.61,0,0,1,1.9.79l.11.1a2.75,2.75,0,0,1,.63.91,2.57,2.57,0,0,1,.23,1.06,2.51,2.51,0,0,1-.26,1.14,3,3,0,0,1-.74,1,3.4,3.4,0,0,1-1.11.63,3.82,3.82,0,0,1-1.3.22,3.72,3.72,0,0,1-1.29-.22,3.25,3.25,0,0,1-1.1-.63,2.85,2.85,0,0,1-.75-1,2.52,2.52,0,0,1-.27-1.14V196h2.31v.17a.84.84,0,0,0,.33.66,1.15,1.15,0,0,0,.77.27,1.28,1.28,0,0,0,.82-.27.84.84,0,0,0,.33-.66.77.77,0,0,0-.35-.58,1.46,1.46,0,0,0-.37-.2l-.52-.16-.44-.1c-.48-.13-.86-.24-1.13-.33a2.35,2.35,0,0,1-.76-.45l0-.06a2.89,2.89,0,0,1-.69-.92,2.45,2.45,0,0,1-.25-1.09,2.51,2.51,0,0,1,.27-1.13,2.89,2.89,0,0,1,.75-1,3.63,3.63,0,0,1,1.1-.63,4,4,0,0,1,1.29-.21,4.07,4.07,0,0,1,1.3.21,3.8,3.8,0,0,1,1.11.63,3,3,0,0,1,.74,1,2.49,2.49,0,0,1,.26,1.13v.18Z"/><path d="M160.59,197.21h2.23l-1,3h-2Z"/><path d="M173.5,189.87a3,3,0,0,1,1.05,1.06,2.93,2.93,0,0,1,0,2.92A2.87,2.87,0,0,1,172,195.3h-2.23v3.53h-2.23v-9.35H172A2.88,2.88,0,0,1,173.5,189.87Zm-.92,1.84a.91.91,0,0,0-.62-.31h-2.2v2H172a.84.84,0,0,0,.62-.32,1,1,0,0,0,.26-.68A.93.93,0,0,0,172.58,191.71Z"/><path d="M183.37,198.83H181l-1.48-3.53H178v3.53h-2.23v-9.35h4.45a2.89,2.89,0,0,1,2.52,1.46,2.84,2.84,0,0,1,.39,1.45,2.94,2.94,0,0,1-.35,1.4,3,3,0,0,1-1,1.05Zm-2.63-7.12a.91.91,0,0,0-.63-.31h-2.19v2h2.19a.92.92,0,0,0,.63-.32,1,1,0,0,0,.25-.68A1,1,0,0,0,180.74,191.71Z"/><path d="M191,190.12a4.7,4.7,0,0,1,1.71,1.72,4.59,4.59,0,0,1,.64,2.38,4.52,4.52,0,0,1-.64,2.36,4.71,4.71,0,0,1-4.08,2.36,4.53,4.53,0,0,1-2.37-.64,4.68,4.68,0,0,1-2.36-4.08,4.68,4.68,0,0,1,2.36-4.1,4.63,4.63,0,0,1,2.37-.64A4.68,4.68,0,0,1,191,190.12Zm-1.15,6.2a2.5,2.5,0,0,0,.88-.89,2.32,2.32,0,0,0,.33-1.21,2.41,2.41,0,0,0-.33-1.23,2.5,2.5,0,0,0-.88-.89,2.42,2.42,0,0,0-2.44,0,2.48,2.48,0,0,0-.9.89,2.41,2.41,0,0,0-.33,1.23,2.32,2.32,0,0,0,.33,1.21,2.48,2.48,0,0,0,.9.89,2.42,2.42,0,0,0,2.44,0Z"/><path d="M200.29,189.46h2.59l-3,9.37h-2.91l-3-9.37h2.62l1.89,5.84Z"/><path d="M206.06,189.48v9.35h-2.38v-9.35Z"/><path d="M211.21,189.45a5.37,5.37,0,0,1,1.41.34,4,4,0,0,1,1.29.8,4.72,4.72,0,0,1,1.14,1.61,4.78,4.78,0,0,1,.41,1.93,4.58,4.58,0,0,1-.52,2.15,4.27,4.27,0,0,1-1.45,1.65,5,5,0,0,1-1.9.75,13.74,13.74,0,0,1-2.36.18h-1.09l-1,0v-9.45h2.4A16.6,16.6,0,0,1,211.21,189.45Zm2,4.68a2.39,2.39,0,0,0-.31-1.2A2.62,2.62,0,0,0,212,192a2.24,2.24,0,0,0-1.2-.35h-1.29v4.87a9.63,9.63,0,0,0,1.63-.11,2.8,2.8,0,0,0,1.23-.52,2.13,2.13,0,0,0,.75-1.23A2.88,2.88,0,0,0,213.18,194.13Z"/><path d="M218.63,189.48v9.35h-2.38v-9.35Z"/><path d="M224.83,189.48h2.38v9.35h-2.38l-2.75-5v5h-2.39v-9.35h2.39l2.75,5Z"/><path d="M237.46,194.2a4.53,4.53,0,0,1-.64,2.37,4.7,4.7,0,0,1-4.1,2.35,4.7,4.7,0,0,1-4.08-2.35,4.53,4.53,0,0,1-.64-2.37,4.74,4.74,0,0,1,2.36-4.09,4.52,4.52,0,0,1,2.36-.64,4.6,4.6,0,0,1,1.85.37,4.66,4.66,0,0,1,1.51,1L234,192.09a2.36,2.36,0,0,0-1.23-.33,2.32,2.32,0,0,0-1.21.33,2.53,2.53,0,0,0-.89.89,2.38,2.38,0,0,0-.33,1.22,2.35,2.35,0,0,0,.33,1.22,2.53,2.53,0,0,0,.89.89,2.41,2.41,0,0,0,2.5,0,2.55,2.55,0,0,0,.9-1H232v-2.19h5.36A5.55,5.55,0,0,1,237.46,194.2Z"/><path d="M249.26,189.48v2.38h-2.39v7h-2.39v-7h-2.4v-2.38h7.18Z"/><path d="M255.24,189.48h2.38v9.35h-2.38v-3.49h-2.67v3.49h-2.38v-9.35h2.38V193h2.67Z"/><path d="M265,196.81v2h-6.36v-9.35h6.24v2h-3.85v1.64h3.24v2h-3.24v1.64Z"/><path d="M37.61,212.3a2.64,2.64,0,0,0,.79-.52L40,213.39a4.84,4.84,0,0,1-1.52,1,4.71,4.71,0,0,1-4.2-.27,4.73,4.73,0,0,1-1.72-1.72,4.61,4.61,0,0,1-.63-2.36,4.68,4.68,0,0,1,.63-2.38A4.81,4.81,0,0,1,34.3,206a4.68,4.68,0,0,1,2.37-.64,4.75,4.75,0,0,1,1.83.37,4.84,4.84,0,0,1,1.52,1l-1.62,1.62a2.67,2.67,0,0,0-.79-.53,2.5,2.5,0,0,0-.94-.19,2.35,2.35,0,0,0-1.22.33,2.5,2.5,0,0,0-.88.89,2.41,2.41,0,0,0-.33,1.23,2.32,2.32,0,0,0,.33,1.21,2.5,2.5,0,0,0,.88.89,2.35,2.35,0,0,0,1.22.33A2.32,2.32,0,0,0,37.61,212.3Z"/><path d="M43.19,212.45h3.67v2.25h-6v-9.35h2.38Z"/><path d="M50.17,205.35v9.35H47.79v-9.35Z"/><path d="M57.59,212.68v2H51.23v-9.35h6.24v2H53.62V209h3.24v2H53.62v1.64Z"/><path d="M63.79,205.35h2.38v9.35H63.79l-2.75-5v5h-2.4v-9.35H61l2.75,5Z"/><path d="M74.27,205.35v2.38H71.88v7H69.49v-7h-2.4v-2.38h7.18Z"/><path d="M86.69,205.35h2.06v9.35H86.37l-2.41-4-2.42,4H79.17v-9.35h2.37v5.28l1.17-2.12.07-.11h2.38l0,.11,1.16,2.12v-5.28Z"/><path d="M92.19,205.35v9.35H89.81v-9.35Z"/><path d="M100.29,205.35v2.38H97.9v7H95.51v-7h-2.4v-2.38h7.18Z"/><path d="M106.27,205.35h2.38v9.35h-2.38v-3.49H103.6v3.49h-2.38v-9.35h2.38v3.48h2.67Z"/><path d="M118.54,205.44l3,9.26h-2.3l-.6-1.89h-2.9l-.59,1.89h-2.32l3.07-9.26Zm-2.13,5.44h1.67l-.83-2.62Z"/><path d="M128.21,212.45h3.67v2.25h-6v-9.35h2.38Z"/><path d="M135.19,205.35v9.35h-2.38v-9.35Z"/><path d="M140.52,208.31v-.17a.81.81,0,0,0-.33-.65,1.19,1.19,0,0,0-.79-.28,1.28,1.28,0,0,0-.81.28.82.82,0,0,0-.34.65.6.6,0,0,0,.35.57,2.94,2.94,0,0,0,.9.37l.2,0,.23,0a4.51,4.51,0,0,1,1.89.78l.12.11a2.65,2.65,0,0,1,.63.91,2.54,2.54,0,0,1,.23,1.06,2.57,2.57,0,0,1-.26,1.14,3,3,0,0,1-.74,1,3.8,3.8,0,0,1-1.11.63,4.08,4.08,0,0,1-1.3.22,4,4,0,0,1-1.29-.22,3.63,3.63,0,0,1-1.1-.63,3,3,0,0,1-.76-1A2.71,2.71,0,0,1,136,212v-.17h2.31V212a.82.82,0,0,0,.33.65,1.15,1.15,0,0,0,.77.27,1.24,1.24,0,0,0,.81-.27.8.8,0,0,0,.34-.65.76.76,0,0,0-.36-.58,1.18,1.18,0,0,0-.37-.2,5.27,5.27,0,0,0-.51-.16l-.44-.11a11.45,11.45,0,0,1-1.13-.33,2,2,0,0,1-.76-.45l-.05,0a3,3,0,0,1-.7-.93,2.51,2.51,0,0,1-.24-1.08,2.68,2.68,0,0,1,.26-1.14,3,3,0,0,1,.76-1,3.63,3.63,0,0,1,1.1-.63,3.72,3.72,0,0,1,1.29-.22,3.74,3.74,0,0,1,2.41.85,3,3,0,0,1,.74,1,2.54,2.54,0,0,1,.26,1.14v.17Z"/><path d="M150.64,205.35v2.38h-2.39v7h-2.39v-7h-2.4v-2.38h7.18Z"/><path d="M162.37,206a4.75,4.75,0,0,1,1.72,6.46,4.73,4.73,0,0,1-1.72,1.72,4.62,4.62,0,0,1-2.37.63,4.7,4.7,0,0,1-4.09-2.35,4.53,4.53,0,0,1-.64-2.37,4.74,4.74,0,0,1,4.73-4.73A4.53,4.53,0,0,1,162.37,206Zm-1.15,6.2a2.53,2.53,0,0,0,.89-.89,2.33,2.33,0,0,0,.33-1.22,2.38,2.38,0,0,0-.33-1.22,2.53,2.53,0,0,0-.89-.89,2.33,2.33,0,0,0-1.22-.33,2.38,2.38,0,0,0-1.22.33,2.53,2.53,0,0,0-.89.89,2.38,2.38,0,0,0-.33,1.22,2.33,2.33,0,0,0,.33,1.22,2.53,2.53,0,0,0,.89.89,2.38,2.38,0,0,0,1.22.33A2.33,2.33,0,0,0,161.22,212.19Z"/><path d="M172,207.37H167.9V209h3.3v2h-3.3v3.66h-2.38v-9.35H172Z"/><path d="M182.7,205.74a2.91,2.91,0,0,1,1.06,1.06,2.93,2.93,0,0,1,0,2.92,2.91,2.91,0,0,1-1.06,1.06,2.85,2.85,0,0,1-1.46.39H179v3.53h-2.24v-9.35h4.46A2.85,2.85,0,0,1,182.7,205.74Zm-.91,1.84a.91.91,0,0,0-.63-.31H179v2h2.2a.88.88,0,0,0,.63-.32,1,1,0,0,0,.25-.68A1,1,0,0,0,181.79,207.58Z"/><path d="M189.81,205.44l3.05,9.26h-2.3l-.61-1.89h-2.89l-.6,1.89h-2.31l3.06-9.26Zm-2.13,5.44h1.66l-.83-2.62Z"/><path d="M200.75,214.7h-2.39l-1.48-3.53h-1.52v3.53h-2.23v-9.35h4.45a2.88,2.88,0,0,1,1.46.39,2.91,2.91,0,0,1,1.06,1.06,2.88,2.88,0,0,1,.39,1.46,2.77,2.77,0,0,1-.36,1.39,3,3,0,0,1-1,1.06Zm-2.63-7.12a.87.87,0,0,0-.62-.31h-2.19v2h2.19a.92.92,0,0,0,.62-.32,1,1,0,0,0,.26-.68A1,1,0,0,0,198.12,207.58Z"/><path d="M208.59,205.35v2.38H206.2v7h-2.39v-7h-2.39v-2.38h7.17Z"/><path d="M211.9,205.35v9.35h-2.38v-9.35Z"/><path d="M218.35,212.3a2.69,2.69,0,0,0,.8-.52l1.61,1.61a4.73,4.73,0,0,1-1.52,1,4.69,4.69,0,0,1-4.19-.27,4.74,4.74,0,0,1-2.36-4.08,4.74,4.74,0,0,1,2.36-4.1,4.62,4.62,0,0,1,2.36-.64,4.67,4.67,0,0,1,1.83.37,4.73,4.73,0,0,1,1.52,1l-1.61,1.62a2.72,2.72,0,0,0-.8-.53,2.5,2.5,0,0,0-.94-.19,2.32,2.32,0,0,0-1.21.33,2.53,2.53,0,0,0-.89.89,2.41,2.41,0,0,0-.33,1.23,2.32,2.32,0,0,0,.33,1.21,2.53,2.53,0,0,0,.89.89,2.4,2.4,0,0,0,2.15.14Z"/><path d="M223.93,205.35v9.35h-2.38v-9.35Z"/><path d="M230.91,205.74a2.92,2.92,0,0,1,0,5,2.88,2.88,0,0,1-1.46.39h-2.23v3.53H225v-9.35h4.46A2.88,2.88,0,0,1,230.91,205.74Zm-.91,1.84a1,1,0,0,0-.63-.31h-2.2v2h2.2a.92.92,0,0,0,.63-.32,1,1,0,0,0,.25-.68A1,1,0,0,0,230,207.58Z"/><path d="M238,205.44l3.06,9.26h-2.3l-.61-1.89h-2.9l-.59,1.89h-2.32l3.07-9.26Zm-2.13,5.44h1.67l-.83-2.62Z"/><path d="M246.48,205.35h2.38v9.35h-2.38l-2.75-5v5h-2.4v-9.35h2.4l2.75,5Z"/><path d="M257,205.35v2.38h-2.39v7h-2.4v-7h-2.39v-2.38H257Z"/><path d="M262.16,208.31v-.17a.81.81,0,0,0-.33-.65,1.16,1.16,0,0,0-.78-.28,1.29,1.29,0,0,0-.82.28.81.81,0,0,0-.33.65.6.6,0,0,0,.34.57,2.94,2.94,0,0,0,.9.37l.2,0,.24,0a4.64,4.64,0,0,1,1.89.78l.11.11a2.65,2.65,0,0,1,.63.91,2.54,2.54,0,0,1,.23,1.06,2.7,2.7,0,0,1-.25,1.14,3,3,0,0,1-.75,1,3.8,3.8,0,0,1-1.11.63,4,4,0,0,1-1.3.22,4,4,0,0,1-1.29-.22,3.75,3.75,0,0,1-1.1-.63,2.85,2.85,0,0,1-.75-1,2.58,2.58,0,0,1-.27-1.14v-.17h2.32V212a.81.81,0,0,0,.32.65,1.17,1.17,0,0,0,.77.27,1.28,1.28,0,0,0,.82-.27.82.82,0,0,0,.33-.65.77.77,0,0,0-.35-.58,1.46,1.46,0,0,0-.37-.2c-.14-.05-.32-.11-.52-.16l-.44-.11a11.45,11.45,0,0,1-1.13-.33,2,2,0,0,1-.76-.45l-.05,0a2.82,2.82,0,0,1-.69-.93,2.38,2.38,0,0,1-.25-1.08,2.55,2.55,0,0,1,.27-1.14,2.85,2.85,0,0,1,.75-1,3.84,3.84,0,0,1,3.69-.63,3.8,3.8,0,0,1,1.11.63,3,3,0,0,1,.75,1,2.66,2.66,0,0,1,.25,1.14v.17Z"/><path d="M37.08,221.31l3.05,9.26h-2.3l-.6-1.9h-2.9l-.6,1.9H31.42l3.07-9.26ZM35,226.74h1.67l-.84-2.61Z"/><path d="M45.54,221.22h2.38v9.35H45.54l-2.75-5v5H40.4v-9.35h2.39l2.75,5Z"/><path d="M53.08,221.18a6,6,0,0,1,1.41.34,4.23,4.23,0,0,1,1.29.81,4.68,4.68,0,0,1,1.14,1.6,4.84,4.84,0,0,1,.4,1.93,4.58,4.58,0,0,1-.51,2.15,4.23,4.23,0,0,1-1.45,1.66,5.27,5.27,0,0,1-1.9.74,13.82,13.82,0,0,1-2.36.18H49v-9.46h2.39C52,221.11,52.6,221.14,53.08,221.18Zm2,4.68a2.45,2.45,0,0,0-.32-1.2,2.56,2.56,0,0,0-.86-.9,2.34,2.34,0,0,0-1.2-.36h-1.3v4.88a10.94,10.94,0,0,0,1.64-.11,2.82,2.82,0,0,0,1.23-.53,2.07,2.07,0,0,0,.74-1.23A2.24,2.24,0,0,0,55.05,225.86Z"/><path d="M67.48,228.17a2.67,2.67,0,0,0,.79-.53l1.61,1.62a4.75,4.75,0,0,1-5.71.75,4.81,4.81,0,0,1-1.72-1.72,4.62,4.62,0,0,1-.63-2.37,4.67,4.67,0,0,1,.63-2.37,4.73,4.73,0,0,1,1.72-1.72,4.53,4.53,0,0,1,2.37-.64,4.65,4.65,0,0,1,1.82.36,4.81,4.81,0,0,1,1.52,1l-1.61,1.61a2.64,2.64,0,0,0-.79-.52,2.42,2.42,0,0,0-2.16.14,2.5,2.5,0,0,0-.88.89,2.38,2.38,0,0,0-.33,1.22,2.33,2.33,0,0,0,.33,1.22,2.5,2.5,0,0,0,.88.89,2.35,2.35,0,0,0,1.22.33A2.54,2.54,0,0,0,67.48,228.17Z"/><path d="M75.54,221.31l3.06,9.26H76.3l-.61-1.9h-2.9l-.59,1.9H69.88L73,221.31Zm-2.13,5.43h1.67l-.83-2.61Z"/><path d="M81.24,228.32h3.68v2.25H78.86v-9.35h2.38Z"/><path d="M91.24,228.17a2.67,2.67,0,0,0,.79-.53l1.61,1.62a4.75,4.75,0,0,1-5.71.75,4.81,4.81,0,0,1-1.72-1.72,4.62,4.62,0,0,1-.63-2.37,4.67,4.67,0,0,1,.63-2.37,4.73,4.73,0,0,1,1.72-1.72,4.53,4.53,0,0,1,2.37-.64,4.65,4.65,0,0,1,1.82.36,4.81,4.81,0,0,1,1.52,1L92,224.19a2.64,2.64,0,0,0-.79-.52,2.42,2.42,0,0,0-2.16.14,2.5,2.5,0,0,0-.88.89,2.38,2.38,0,0,0-.33,1.22,2.33,2.33,0,0,0,.33,1.22,2.5,2.5,0,0,0,.88.89,2.35,2.35,0,0,0,1.22.33A2.54,2.54,0,0,0,91.24,228.17Z"/><path d="M102,221.23V227a3.59,3.59,0,0,1-.5,1.85,3.74,3.74,0,0,1-1.34,1.34,3.65,3.65,0,0,1-1.86.5h-.21a3.65,3.65,0,0,1-1.86-.5,3.74,3.74,0,0,1-1.34-1.34,3.58,3.58,0,0,1-.49-1.85v-5.78h2.2v5.25a2.26,2.26,0,0,0,.4,1.36,1.29,1.29,0,0,0,1.09.54h.21a1.29,1.29,0,0,0,1.08-.55,2.19,2.19,0,0,0,.41-1.35v-5.25Z"/><path d="M105.48,228.32h3.67v2.25H103.1v-9.35h2.38Z"/><path d="M114.94,221.31l3.06,9.26h-2.3l-.61-1.9h-2.9l-.59,1.9h-2.31l3.06-9.26Zm-2.12,5.43h1.66l-.83-2.61Z"/><path d="M125.31,221.22v2.38h-2.39v7h-2.4v-7h-2.39v-2.38h7.18Z"/><path d="M128.62,221.22v9.35h-2.38v-9.35Z"/><path d="M136.51,221.85a4.76,4.76,0,0,1,1.72,1.73,4.77,4.77,0,0,1,0,4.74,4.81,4.81,0,0,1-1.72,1.72,4.62,4.62,0,0,1-2.37.63,4.67,4.67,0,0,1-2.37-.63,4.83,4.83,0,0,1-1.73-1.72,4.77,4.77,0,0,1,0-4.74,4.78,4.78,0,0,1,1.73-1.73,4.67,4.67,0,0,1,2.37-.63A4.62,4.62,0,0,1,136.51,221.85Zm-1.15,6.2a2.5,2.5,0,0,0,.89-.88,2.42,2.42,0,0,0,0-2.44,2.45,2.45,0,0,0-.89-.89,2.36,2.36,0,0,0-2.44,0,2.45,2.45,0,0,0-.89.89,2.42,2.42,0,0,0,0,2.44,2.5,2.5,0,0,0,.89.88,2.42,2.42,0,0,0,2.44,0Z"/><path d="M144.8,221.22h2.38v9.35H144.8l-2.75-5v5h-2.39v-9.35h2.39l2.75,5Z"/><path d="M152.51,224.18V224a.82.82,0,0,0-.33-.66,1.16,1.16,0,0,0-.78-.27,1.28,1.28,0,0,0-.82.27.82.82,0,0,0-.33.66.62.62,0,0,0,.34.57,2.94,2.94,0,0,0,.9.37l.21,0,.23,0a4.64,4.64,0,0,1,1.89.78l.12.1a2.82,2.82,0,0,1,.62.92,2.51,2.51,0,0,1,.24,1,2.64,2.64,0,0,1-.26,1.14,3,3,0,0,1-.75,1,3.8,3.8,0,0,1-1.11.63,4,4,0,0,1-1.3.21,3.86,3.86,0,0,1-1.28-.21A3.8,3.8,0,0,1,149,230a3.13,3.13,0,0,1-.75-1,2.52,2.52,0,0,1-.27-1.14v-.17h2.32v.17a.81.81,0,0,0,.32.66,1.17,1.17,0,0,0,.77.27,1.28,1.28,0,0,0,.82-.27.83.83,0,0,0,.34-.66.77.77,0,0,0-.36-.58,1.86,1.86,0,0,0-.37-.2,5,5,0,0,0-.52-.15l-.43-.11a11,11,0,0,1-1.14-.33,2.46,2.46,0,0,1-.76-.45l-.05,0a2.93,2.93,0,0,1-.69-.93A2.38,2.38,0,0,1,148,224a2.52,2.52,0,0,1,.27-1.14,3.13,3.13,0,0,1,.75-1,3.56,3.56,0,0,1,1.11-.62,3.63,3.63,0,0,1,1.28-.22,3.78,3.78,0,0,1,1.3.22,3.56,3.56,0,0,1,1.11.62,3,3,0,0,1,.75,1,2.64,2.64,0,0,1,.26,1.14v.17Z"/><path d="M155.68,230.18a1.27,1.27,0,0,1-.35-.91,1.16,1.16,0,0,1,.36-.86,1.18,1.18,0,0,1,.86-.36,1.24,1.24,0,0,1,.89.37,1.2,1.2,0,0,1,.37.89,1.22,1.22,0,0,1-.37.89,1.24,1.24,0,0,1-.89.37A1.14,1.14,0,0,1,155.68,230.18Z"/><path class="cls-3" d="M179.19,268.52H32.75a.75.75,0,0,1-.75-.75V242.1a.75.75,0,0,1,.75-.75H179.19a.76.76,0,0,1,.75.75v25.67A.76.76,0,0,1,179.19,268.52ZM33.5,267H178.44V242.85H33.5Z"/><path class="cls-3" d="M62.57,255.87a6.81,6.81,0,0,1-1.23-.1,3.87,3.87,0,0,1-1-.3v-1.54a4.69,4.69,0,0,0,1,.33,4.27,4.27,0,0,0,1,.13,2.43,2.43,0,0,0,.75-.08.36.36,0,0,0,.25-.38.39.39,0,0,0-.14-.33,1.34,1.34,0,0,0-.45-.22l-.79-.25a4.4,4.4,0,0,1-1-.46,1.52,1.52,0,0,1-.55-.61,2.1,2.1,0,0,1-.16-.88,1.67,1.67,0,0,1,.67-1.44,3.37,3.37,0,0,1,2-.5,7,7,0,0,1,1.1.09,7.19,7.19,0,0,1,.91.2v1.56a4.16,4.16,0,0,0-.9-.27,4.63,4.63,0,0,0-.81-.08,3.15,3.15,0,0,0-.74.07.35.35,0,0,0-.31.36.36.36,0,0,0,.26.36,7.08,7.08,0,0,0,.94.3,3.75,3.75,0,0,1,1.21.51,1.58,1.58,0,0,1,.56.69,2.54,2.54,0,0,1,.15.9,1.72,1.72,0,0,1-.68,1.41A3.33,3.33,0,0,1,62.57,255.87Z"/><path class="cls-3" d="M69.88,255.87a3.47,3.47,0,0,1-2.44-.78,3.28,3.28,0,0,1-.84-2.51,4.12,4.12,0,0,1,.38-1.93,2.26,2.26,0,0,1,1.11-1.07,4.88,4.88,0,0,1,3.58,0,2.32,2.32,0,0,1,1.12,1.07,4.24,4.24,0,0,1,.38,1.93,3.28,3.28,0,0,1-.85,2.51A3.49,3.49,0,0,1,69.88,255.87Zm0-1.6a1.24,1.24,0,0,0,1-.4,2,2,0,0,0,.33-1.29,2.1,2.1,0,0,0-.33-1.34,1.55,1.55,0,0,0-2.08,0,2.1,2.1,0,0,0-.33,1.34,2,2,0,0,0,.33,1.29A1.24,1.24,0,0,0,69.88,254.27Z"/><path class="cls-3" d="M74.66,255.77v-6.43h4.83v1.4H76.54v1.11h2.57v1.42H76.54v2.5Z"/><path class="cls-3" d="M80.79,255.77v-6.43h1.88v6.43Z"/><path class="cls-3" d="M87.75,255.87a3.73,3.73,0,0,1-2.67-.86,3.16,3.16,0,0,1-.92-2.42,3.26,3.26,0,0,1,.9-2.48,3.71,3.71,0,0,1,2.68-.87,5.59,5.59,0,0,1,1.06.09,5.91,5.91,0,0,1,.9.25v1.64a4.51,4.51,0,0,0-1.83-.38,1.88,1.88,0,0,0-1.35.42,1.76,1.76,0,0,0-.44,1.33,1.6,1.6,0,0,0,.46,1.29,2.05,2.05,0,0,0,1.35.39,4.73,4.73,0,0,0,.93-.09,5.13,5.13,0,0,0,.9-.27v1.64a5.91,5.91,0,0,1-.9.24A6.87,6.87,0,0,1,87.75,255.87Z"/><path class="cls-3" d="M94.2,255.87a3.49,3.49,0,0,1-2.44-.78,3.28,3.28,0,0,1-.84-2.51,4.24,4.24,0,0,1,.38-1.93,2.26,2.26,0,0,1,1.11-1.07,4.91,4.91,0,0,1,3.59,0,2.26,2.26,0,0,1,1.11,1.07,4.24,4.24,0,0,1,.38,1.93,3.24,3.24,0,0,1-.85,2.51A3.49,3.49,0,0,1,94.2,255.87Zm0-1.6a1.27,1.27,0,0,0,1-.4,2.11,2.11,0,0,0,.32-1.29,2.18,2.18,0,0,0-.32-1.34,1.57,1.57,0,0,0-2.09,0,2.18,2.18,0,0,0-.32,1.34,2.11,2.11,0,0,0,.32,1.29A1.27,1.27,0,0,0,94.2,254.27Z"/><path class="cls-3" d="M105.21,255.87a3.72,3.72,0,0,1-2.66-.86,3.16,3.16,0,0,1-.92-2.42,3.26,3.26,0,0,1,.9-2.48,3.7,3.7,0,0,1,2.67-.87,5.7,5.7,0,0,1,1.07.09,6.63,6.63,0,0,1,.9.25v1.64a4.56,4.56,0,0,0-1.84-.38,1.87,1.87,0,0,0-1.34.42,1.72,1.72,0,0,0-.44,1.33,1.6,1.6,0,0,0,.46,1.29,2,2,0,0,0,1.34.39,4.91,4.91,0,0,0,.94-.09,5.13,5.13,0,0,0,.9-.27v1.64a6.61,6.61,0,0,1-.9.24A7,7,0,0,1,105.21,255.87Z"/><path class="cls-3" d="M111.67,255.87a3.47,3.47,0,0,1-2.44-.78,3.28,3.28,0,0,1-.84-2.51,4.12,4.12,0,0,1,.38-1.93,2.26,2.26,0,0,1,1.11-1.07,4.88,4.88,0,0,1,3.58,0,2.32,2.32,0,0,1,1.12,1.07,4.25,4.25,0,0,1,.37,1.93,3.28,3.28,0,0,1-.84,2.51A3.49,3.49,0,0,1,111.67,255.87Zm0-1.6a1.24,1.24,0,0,0,1-.4,2,2,0,0,0,.33-1.29,2.1,2.1,0,0,0-.33-1.34,1.55,1.55,0,0,0-2.08,0,2.1,2.1,0,0,0-.33,1.34,2,2,0,0,0,.33,1.29A1.24,1.24,0,0,0,111.67,254.27Z"/><path class="cls-3" d="M116.45,255.77v-6.43h1.83l1.59,3.27,1.59-3.27h1.82v6.43H121.4v-3.21l-1,2.11h-1l-1-2.11v3.21Z"/><path class="cls-3" d="M125,255.77v-6.43h1.83l1.6,3.27,1.59-3.27h1.81v6.43h-1.87v-3.21l-1,2.11h-1l-1-2.11v3.21Z"/><path class="cls-3" d="M136.49,255.87a4.08,4.08,0,0,1-1.58-.29,2.34,2.34,0,0,1-1.46-2.28v-4h1.87v3.76a1,1,0,0,0,1.17,1.17,1,1,0,0,0,1.16-1.17v-3.76h1.88v4a2.44,2.44,0,0,1-.39,1.41,2.38,2.38,0,0,1-1.07.87A4,4,0,0,1,136.49,255.87Z"/><path class="cls-3" d="M141.17,255.77v-6.43h1.6l2.43,3.41v-3.41h1.87v6.43h-1.6l-2.42-3.39v3.39Z"/><path class="cls-3" d="M148.77,255.77v-6.43h1.88v6.43Z"/><path class="cls-3" d="M153.75,255.77v-5h-1.81v-1.4h5.49v1.4h-1.8v5Z"/><path class="cls-3" d="M160.75,255.77v-2.35l-2.32-4.08h2l1.29,2.43,1.3-2.43h2l-2.32,4.08v2.35Z"/><path class="cls-3" d="M62.69,261.12a.77.77,0,0,0,.36-.33,1,1,0,0,0,.13-.53,1,1,0,0,0-.27-.77,1.15,1.15,0,0,0-.84-.27H60.26v3.91h1.9a1.27,1.27,0,0,0,.88-.27,1.1,1.1,0,0,0,.29-.85.91.91,0,0,0-.17-.61A.83.83,0,0,0,62.69,261.12Zm-1.93-1.51H62a.81.81,0,0,1,.61.17.76.76,0,0,1,.16.51.72.72,0,0,1-.16.47.65.65,0,0,1-.52.17H60.76Zm1.9,3a.82.82,0,0,1-.58.17H60.76v-1.44H62a1,1,0,0,1,.66.17.7.7,0,0,1,.18.52A.77.77,0,0,1,62.66,262.58Z"/><path class="cls-3" d="M66.23,259.16a1.73,1.73,0,0,0-1.36.49,2.88,2.88,0,0,0,0,3.06,2.17,2.17,0,0,0,2.72,0,2.88,2.88,0,0,0,0-3.06A1.73,1.73,0,0,0,66.23,259.16Zm1.16,2.95a.94.94,0,0,1-.43.5,1.46,1.46,0,0,1-.73.16,1.44,1.44,0,0,1-.73-.16.86.86,0,0,1-.43-.5,2.38,2.38,0,0,1-.15-.93,2.43,2.43,0,0,1,.15-.94.89.89,0,0,1,.43-.5,1.55,1.55,0,0,1,.73-.15,1.58,1.58,0,0,1,.73.15,1,1,0,0,1,.43.5,2.66,2.66,0,0,1,.14.94A2.6,2.6,0,0,1,67.39,262.11Z"/><path class="cls-3" d="M72,261.71a1,1,0,0,1-.3.79,1.44,1.44,0,0,1-1.68,0,1,1,0,0,1-.3-.79v-2.49h-.5v2.48a1.44,1.44,0,0,0,.42,1.11,2.15,2.15,0,0,0,2.44,0,1.44,1.44,0,0,0,.42-1.11v-2.48H72Z"/><polygon class="cls-3" points="76.47 262.37 74.24 259.23 73.8 259.23 73.8 263.13 74.29 263.13 74.29 260 76.51 263.13 76.97 263.13 76.97 259.23 76.47 259.23 76.47 262.37"/><polygon class="cls-3" points="78.06 259.62 79.36 259.62 79.36 263.13 79.85 263.13 79.85 259.62 81.15 259.62 81.15 259.23 78.06 259.23 78.06 259.62"/><polygon class="cls-3" points="83.7 261.25 82.58 259.23 82.06 259.23 83.46 261.68 83.46 263.13 83.95 263.13 83.95 261.68 85.35 259.23 84.83 259.23 83.7 261.25"/><path class="cls-3" d="M91.39,262a2.31,2.31,0,0,0,0-.46v-.08h-.39v.08a1.35,1.35,0,0,1-.11.57l-1-1a2.54,2.54,0,0,0,.5-.46.85.85,0,0,0,.18-.55.86.86,0,0,0-.25-.63,1,1,0,0,0-.7-.24,1,1,0,0,0-.71.26.81.81,0,0,0-.25.61.77.77,0,0,0,.16.5,5,5,0,0,0,.4.44,2.47,2.47,0,0,0-.7.53,1,1,0,0,0-.25.71.83.83,0,0,0,.36.71,1.61,1.61,0,0,0,1,.27,2.39,2.39,0,0,0,.79-.12,1.27,1.27,0,0,0,.55-.38l.48.48.31-.28-.55-.55A1.38,1.38,0,0,0,91.39,262Zm-2.13-1.54a.55.55,0,0,1,0-.72.71.71,0,0,1,.83,0,.55.55,0,0,1,.12.37.57.57,0,0,1-.14.41,2.07,2.07,0,0,1-.43.34A4.1,4.1,0,0,1,89.26,260.41Zm1,2.32a1.59,1.59,0,0,1-.61.1,1.07,1.07,0,0,1-.61-.16.52.52,0,0,1-.24-.47.73.73,0,0,1,.19-.53,2,2,0,0,1,.58-.4l1.11,1.14A1.1,1.1,0,0,1,90.26,262.73Z"/><rect class="cls-3" x="99.57" y="259.22" width="0.5" height="3.91"/><path class="cls-3" d="M104.11,261.15a1.17,1.17,0,0,0,.21-.71,1.27,1.27,0,0,0-.29-.89,1.16,1.16,0,0,0-.92-.33H101.4v3.91h.5v-1.47h.82a.68.68,0,0,1,.4.08.55.55,0,0,1,.19.26l.5,1.13h.51l-.51-1.18a2.73,2.73,0,0,0-.13-.25.6.6,0,0,0-.19-.16A1,1,0,0,0,104.11,261.15Zm-.51-.08a1,1,0,0,1-.63.2H101.9v-1.65H103c.52,0,.78.27.78.82A.79.79,0,0,1,103.6,261.07Z"/><path class="cls-3" d="M107.06,259.22h-1.53v3.91h1.53a1.52,1.52,0,0,0,1.25-.46,2.27,2.27,0,0,0,.39-1.47,2.32,2.32,0,0,0-.39-1.51A1.56,1.56,0,0,0,107.06,259.22Zm1,2.94a.89.89,0,0,1-.41.46,1.74,1.74,0,0,1-.69.12H106v-3.12H107a1.45,1.45,0,0,1,.71.14.81.81,0,0,1,.4.48,3,3,0,0,1,.12,1A2.66,2.66,0,0,1,108.07,262.16Z"/><path class="cls-3" d="M112.63,261.15a1.17,1.17,0,0,0,.21-.71,1.32,1.32,0,0,0-.29-.89,1.16,1.16,0,0,0-.92-.33h-1.72v3.91h.5v-1.47h.82a.66.66,0,0,1,.4.08.49.49,0,0,1,.19.26l.5,1.13h.51l-.51-1.18a1.42,1.42,0,0,0-.13-.25.44.44,0,0,0-.19-.16A1.07,1.07,0,0,0,112.63,261.15Zm-.52-.08a.92.92,0,0,1-.62.2h-1.08v-1.65h1.15c.52,0,.78.27.78.82A.79.79,0,0,1,112.11,261.07Z"/><path class="cls-3" d="M115.64,259.16a1.73,1.73,0,0,0-1.36.49,2.88,2.88,0,0,0,0,3.06,2.17,2.17,0,0,0,2.72,0,2.88,2.88,0,0,0,0-3.06A1.73,1.73,0,0,0,115.64,259.16Zm1.16,2.95a.94.94,0,0,1-.43.5,1.46,1.46,0,0,1-.73.16,1.44,1.44,0,0,1-.73-.16.86.86,0,0,1-.43-.5,2.38,2.38,0,0,1-.15-.93,2.43,2.43,0,0,1,.15-.94.89.89,0,0,1,.43-.5,1.55,1.55,0,0,1,.73-.15,1.58,1.58,0,0,1,.73.15,1,1,0,0,1,.43.5,2.66,2.66,0,0,1,.14.94A2.6,2.6,0,0,1,116.8,262.11Z"/><path class="cls-3" d="M121.26,259.58a1.18,1.18,0,0,0-1-.36h-1.65v3.91h.5v-1.41h1.13a1.3,1.3,0,0,0,.94-.33,1.15,1.15,0,0,0,.35-.9A1.29,1.29,0,0,0,121.26,259.58Zm-.41,1.52a.86.86,0,0,1-.65.23h-1v-1.71h1.08a.81.81,0,0,1,.64.23.9.9,0,0,1,.21.64A.82.82,0,0,1,120.85,261.1Z"/><path class="cls-3" d="M98.6,262.05l-.7-1.22-.7-1.21a.71.71,0,0,0-1.23,0l-.7,1.21-.7,1.22a.71.71,0,0,0,.62,1.06H98A.7.7,0,0,0,98.6,262.05Zm-1,.67h-2a.51.51,0,0,1-.44-.76l.49-.86.5-.86a.51.51,0,0,1,.87,0l.5.86L98,262A.5.5,0,0,1,97.58,262.72Z"/><path class="cls-3" d="M50.58,252.39a.59.59,0,0,0,0-1l-2.7-1.56a.59.59,0,0,0-.88.51v3.12a.59.59,0,0,0,.88.51Z"/><path class="cls-3" d="M50.86,246.76l-2.7,1.56a.58.58,0,0,0,0,1l2.7,1.56a.58.58,0,0,0,.88-.5v-3.12A.58.58,0,0,0,50.86,246.76Z"/><path class="cls-3" d="M56.23,255.92l-2.71,1.56a.59.59,0,0,0,0,1l2.71,1.56a.59.59,0,0,0,.88-.51v-3.12A.59.59,0,0,0,56.23,255.92Z"/><path class="cls-3" d="M50.86,252.87l-2.7,1.56a.58.58,0,0,0,0,1l2.7,1.56a.58.58,0,0,0,.88-.5v-3.13A.58.58,0,0,0,50.86,252.87Z"/><path class="cls-3" d="M53.24,257l2.7-1.56a.58.58,0,0,0,0-1l-2.7-1.56a.58.58,0,0,0-.88.5v3.13A.58.58,0,0,0,53.24,257Z"/><path class="cls-3" d="M55.94,260.54,53.24,259a.59.59,0,0,0-.88.51v3.12a.58.58,0,0,0,.88.51l2.7-1.56A.58.58,0,0,0,55.94,260.54Z"/><path class="cls-4" d="M55.94,248.32l-2.7-1.56a.58.58,0,0,0-.88.51v3.12a.58.58,0,0,0,.88.5l2.7-1.56A.58.58,0,0,0,55.94,248.32Z"/><path class="cls-4" d="M50.86,259l-2.7,1.57a.58.58,0,0,0,0,1l2.7,1.56a.58.58,0,0,0,.88-.51v-3.12A.59.59,0,0,0,50.86,259Z"/></svg>