<svg id="Слой_1" data-name="Слой 1" xmlns="http://www.w3.org/2000/svg" viewBox="0 0 405 405"><defs><style>.cls-1{fill:#010101;}.cls-2{fill:#e7335d;}.cls-3{fill:#fff;}.cls-4{isolation:isolate;}.cls-5{fill:#fdd825;}</style></defs><rect class="cls-1" width="405" height="405"/><rect class="cls-1" x="71.67" y="92.35" width="261.67" height="149"/><path class="cls-2" d="M34.78,288.74v9.34H32.4v-9.34Z"/><path class="cls-2" d="M42.88,288.74v2.38H40.49v7h-2.4v-7H35.7v-2.38h7.18Z"/><path class="cls-2" d="M50.15,288.74v9.34H47.77v-9.34Z"/><path class="cls-2" d="M55.48,291.7v-.17a.84.84,0,0,0-.32-.66,1.2,1.2,0,0,0-.79-.27,1.24,1.24,0,0,0-.81.27.81.81,0,0,0-.34.66.59.59,0,0,0,.34.56,2.71,2.71,0,0,0,.9.37l.21,0,.23.06a4.64,4.64,0,0,1,1.89.78l.12.1a3,3,0,0,1,.63.92,2.57,2.57,0,0,1,0,2.19,3,3,0,0,1-.75,1,3.35,3.35,0,0,1-1.11.62,3.89,3.89,0,0,1-2.58,0,3.56,3.56,0,0,1-1.11-.62,3.29,3.29,0,0,1-.75-1,2.51,2.51,0,0,1-.26-1.14v-.17h2.31v.17a.84.84,0,0,0,.32.66,1.19,1.19,0,0,0,.78.27,1.26,1.26,0,0,0,.81-.27.83.83,0,0,0,.34-.66.77.77,0,0,0-.36-.58,1.86,1.86,0,0,0-.37-.2l-.52-.16-.43-.1c-.49-.12-.87-.24-1.14-.33a2.42,2.42,0,0,1-.75-.45l-.06,0a3,3,0,0,1-.69-.93,2.54,2.54,0,0,1-.24-1.08,2.51,2.51,0,0,1,.26-1.14,3.29,3.29,0,0,1,.75-1,3.8,3.8,0,0,1,1.11-.63,4.07,4.07,0,0,1,2.58,0,3.56,3.56,0,0,1,1.11.63,3,3,0,0,1,.75,1,2.64,2.64,0,0,1,.26,1.14v.17Z"/><path class="cls-2" d="M67.39,288.83l3.06,9.25h-2.3l-.61-1.89h-2.9l-.59,1.89H61.73l3.07-9.25Zm-2.13,5.43h1.67l-.83-2.62Z"/><path class="cls-2" d="M81.88,288.74h2.38v9.34H81.88v-5.27l-1.16,2.11,0,.11H78.29l-.07-.11-.16-.3-1-1.81v5.27H74.68v-9.34h2.39l2.41,4Z"/><path class="cls-2" d="M90.19,288.83l3,9.25h-2.3l-.61-1.89H87.44l-.6,1.89H84.53l3.07-9.25Zm-2.13,5.43h1.67l-.84-2.62Z"/><path class="cls-2" d="M101.14,298.08h-2.4l-1.48-3.53H95.74v3.53H93.51v-9.34H98a2.88,2.88,0,0,1,1.46.39,2.84,2.84,0,0,1,1.06,1.06,2.87,2.87,0,0,1,.39,1.45,2.81,2.81,0,0,1-.36,1.4,2.93,2.93,0,0,1-1,1ZM98.5,291a.87.87,0,0,0-.62-.31H95.69v2h2.19a.93.93,0,0,0,.62-.33,1,1,0,0,0,.26-.68A1,1,0,0,0,98.5,291Z"/><path class="cls-2" d="M106.46,293.36l2.79,4.72h-2.64l-2.3-3.76v3.76h-2.38v-9.34h2.38v3.64l2.3-3.64h2.64Z"/><path class="cls-2" d="M116.67,296.06v2h-6.36v-9.34h6.24v2h-3.84v1.64h3.23v2h-3.23v1.64Z"/><path class="cls-2" d="M124.78,288.74v2.38h-2.4v7H120v-7H117.6v-2.38h7.18Z"/><path class="cls-2" d="M128.08,288.74v9.34H125.7v-9.34Z"/><path class="cls-2" d="M134.28,288.74h2.38v9.34h-2.38l-2.75-5v5h-2.39v-9.34h2.39l2.75,5Z"/><path class="cls-2" d="M146.91,293.46a4.61,4.61,0,0,1-.63,2.36,4.77,4.77,0,0,1-4.1,2.36,4.71,4.71,0,0,1-4.72-4.72,4.7,4.7,0,0,1,2.35-4.1,4.53,4.53,0,0,1,2.37-.64,4.76,4.76,0,0,1,1.84.37,4.81,4.81,0,0,1,1.52,1l-2.13,1.22a2.44,2.44,0,0,0-2.45,0,2.53,2.53,0,0,0-.89.89,2.41,2.41,0,0,0-.33,1.23,2.32,2.32,0,0,0,.33,1.21,2.53,2.53,0,0,0,.89.89,2.35,2.35,0,0,0,1.22.33,2.4,2.4,0,0,0,1.28-.36,2.5,2.5,0,0,0,.9-1h-2.94v-2.19h5.36A5,5,0,0,1,146.91,293.46Z"/><path class="cls-2" d="M158.72,288.74v2.38h-2.4v7h-2.39v-7h-2.39v-2.38h7.18Z"/><path class="cls-2" d="M166.48,289.37a4.76,4.76,0,0,1,1.72,1.73,4.77,4.77,0,0,1,0,4.74,4.78,4.78,0,0,1-1.72,1.71,4.53,4.53,0,0,1-2.37.64,4.58,4.58,0,0,1-2.37-.64,4.73,4.73,0,0,1-1.73-1.71,4.73,4.73,0,0,1,4.1-7.1A4.62,4.62,0,0,1,166.48,289.37Zm-1.15,6.2a2.47,2.47,0,0,0,.88-.88,2.42,2.42,0,0,0,0-2.44,2.45,2.45,0,0,0-.88-.9,2.42,2.42,0,0,0-2.44,0,2.4,2.4,0,0,0-.89.9,2.42,2.42,0,0,0,0,2.44,2.42,2.42,0,0,0,.89.88,2.42,2.42,0,0,0,2.44,0Z"/><path class="cls-2" d="M176.46,289.37a4.72,4.72,0,0,1,0,8.18,4.53,4.53,0,0,1-2.37.64,4.73,4.73,0,0,1-2.37-8.82,4.67,4.67,0,0,1,2.37-.63A4.62,4.62,0,0,1,176.46,289.37Zm-1.15,6.2a2.5,2.5,0,0,0,.89-.88,2.42,2.42,0,0,0,0-2.44,2.48,2.48,0,0,0-.89-.9,2.33,2.33,0,0,0-1.22-.33,2.38,2.38,0,0,0-1.22.33,2.48,2.48,0,0,0-.89.9,2.42,2.42,0,0,0,0,2.44,2.5,2.5,0,0,0,.89.88,2.38,2.38,0,0,0,1.22.33A2.33,2.33,0,0,0,175.31,295.57Z"/><path class="cls-2" d="M182,295.84h3.67v2.24h-6v-9.34H182Z"/><path class="cls-2" d="M197.6,288.74v2.38h-2.39v7h-2.39v-7h-2.4v-2.38h7.18Z"/><path class="cls-2" d="M203.58,288.74H206v9.34h-2.38v-3.49h-2.67v3.49h-2.38v-9.34h2.38v3.47h2.67Z"/><path class="cls-2" d="M211.88,288.83l3.06,9.25h-2.3l-.61-1.89h-2.9l-.59,1.89h-2.32l3.07-9.25Zm-2.13,5.43h1.67l-.83-2.62Z"/><path class="cls-2" d="M222.25,288.74v2.38h-2.39v7h-2.4v-7h-2.39v-2.38h7.18Z"/><path class="cls-2" d="M232,288.83l3.05,9.25h-2.3l-.61-1.89h-2.89l-.6,1.89h-2.31l3.07-9.25Zm-2.13,5.43h1.66l-.83-2.62Z"/><path class="cls-2" d="M237.71,295.84h3.67v2.24h-6v-9.34h2.38Z"/><path class="cls-2" d="M244.69,295.84h3.67v2.24h-6.05v-9.34h2.38Z"/><path class="cls-2" d="M256.13,289.37a4.65,4.65,0,0,1,1.71,1.73,4.71,4.71,0,0,1,0,4.74,4.67,4.67,0,0,1-1.71,1.71,4.73,4.73,0,0,1-4.75,0,4.71,4.71,0,0,1-2.36-4.08,4.75,4.75,0,0,1,7.11-4.1Zm-1.16,6.2a2.5,2.5,0,0,0,.89-.88,2.42,2.42,0,0,0,0-2.44,2.48,2.48,0,0,0-.89-.9,2.32,2.32,0,0,0-1.21-.33,2.35,2.35,0,0,0-1.22.33,2.43,2.43,0,0,0-.9.9,2.42,2.42,0,0,0,0,2.44,2.45,2.45,0,0,0,.9.88,2.35,2.35,0,0,0,1.22.33A2.32,2.32,0,0,0,255,295.57Z"/><path class="cls-2" d="M266.79,288.74h2.07v9.34h-2.38l-2.41-4-2.42,4h-2.38v-9.34h2.38V294l1.16-2.11.07-.11h2.38l.05.11,1.17,2.11v-5.27Z"/><path class="cls-2" d="M274.19,291.7v-.17a.82.82,0,0,0-.33-.66,1.17,1.17,0,0,0-.78-.27,1.28,1.28,0,0,0-.82.27.83.83,0,0,0-.34.66.6.6,0,0,0,.35.56,2.71,2.71,0,0,0,.9.37l.2,0,.23.06a4.63,4.63,0,0,1,1.9.78l.11.1a2.69,2.69,0,0,1,.63.92,2.57,2.57,0,0,1,0,2.19,3.1,3.1,0,0,1-.74,1,3.56,3.56,0,0,1-1.11.62,3.82,3.82,0,0,1-1.3.22,3.72,3.72,0,0,1-1.29-.22,3.4,3.4,0,0,1-1.1-.62,3,3,0,0,1-.75-1,2.52,2.52,0,0,1-.27-1.14v-.17H272v.17a.82.82,0,0,0,.33.66,1.15,1.15,0,0,0,.77.27,1.28,1.28,0,0,0,.82-.27.82.82,0,0,0,.33-.66.78.78,0,0,0-.35-.58,1.86,1.86,0,0,0-.37-.2l-.52-.16-.44-.1c-.48-.12-.86-.24-1.13-.33a2.35,2.35,0,0,1-.76-.45l-.05,0a3,3,0,0,1-.69-.93,2.41,2.41,0,0,1-.25-1.08,2.52,2.52,0,0,1,.27-1.14,3,3,0,0,1,.75-1,3.63,3.63,0,0,1,1.1-.63,4,4,0,0,1,1.29-.21,4.07,4.07,0,0,1,1.3.21,3.8,3.8,0,0,1,1.11.63,3.1,3.1,0,0,1,.74,1,2.51,2.51,0,0,1,.26,1.14v.17Z"/><path class="cls-2" d="M286.2,288.74h2.38l-2.75,5.54v3.8h-2.38v-3.8l-2.75-5.54h2.38l1.56,3.18Z"/><path class="cls-2" d="M296,289.37a4.72,4.72,0,0,1,0,8.18,4.53,4.53,0,0,1-2.37.64,4.58,4.58,0,0,1-2.37-.64,4.73,4.73,0,0,1-1.73-1.71,4.73,4.73,0,0,1,4.1-7.1A4.62,4.62,0,0,1,296,289.37Zm-1.15,6.2a2.47,2.47,0,0,0,.88-.88,2.42,2.42,0,0,0,0-2.44,2.45,2.45,0,0,0-.88-.9,2.42,2.42,0,0,0-2.44,0,2.4,2.4,0,0,0-.89.9,2.42,2.42,0,0,0,0,2.44,2.42,2.42,0,0,0,.89.88,2.42,2.42,0,0,0,2.44,0Z"/><path class="cls-2" d="M306.7,288.75v5.78a3.62,3.62,0,0,1-.5,1.85,3.69,3.69,0,0,1-1.35,1.34,3.59,3.59,0,0,1-1.85.5h-.22a3.62,3.62,0,0,1-1.85-.5,3.74,3.74,0,0,1-1.34-1.34,3.61,3.61,0,0,1-.49-1.85v-5.78h2.2V294a2.28,2.28,0,0,0,.4,1.36,1.27,1.27,0,0,0,1.08.54H303a1.26,1.26,0,0,0,1.07-.55,2.13,2.13,0,0,0,.42-1.35v-5.25Z"/><path class="cls-2" d="M318.77,288.74v2.38h-2.39v7H314v-7h-2.39v-2.38h7.18Z"/><path class="cls-2" d="M326.53,289.37a4.72,4.72,0,0,1,0,8.18,4.52,4.52,0,0,1-2.36.64,4.73,4.73,0,0,1-2.38-8.82,4.68,4.68,0,0,1,2.38-.63A4.61,4.61,0,0,1,326.53,289.37Zm-1.15,6.2a2.5,2.5,0,0,0,.89-.88,2.42,2.42,0,0,0,0-2.44,2.48,2.48,0,0,0-.89-.9,2.32,2.32,0,0,0-1.21-.33,2.39,2.39,0,0,0-1.23.33,2.48,2.48,0,0,0-.89.9,2.42,2.42,0,0,0,0,2.44,2.5,2.5,0,0,0,.89.88,2.39,2.39,0,0,0,1.23.33A2.32,2.32,0,0,0,325.38,295.57Z"/><path class="cls-2" d="M34.78,304.6V314H32.4V304.6Z"/><path class="cls-2" d="M41,304.6h2.38V314H41l-2.75-5v5h-2.4V304.6h2.4l2.75,5Z"/><path class="cls-2" d="M49.81,311.55a2.64,2.64,0,0,0,.79-.52l1.61,1.61a4.81,4.81,0,0,1-1.52,1,4.78,4.78,0,0,1-4.19-.27,4.89,4.89,0,0,1-1.72-1.72,4.77,4.77,0,0,1,0-4.74,4.76,4.76,0,0,1,1.72-1.73,4.72,4.72,0,0,1,5.71.75l-1.61,1.62a2.67,2.67,0,0,0-.79-.53,2.5,2.5,0,0,0-.94-.19,2.35,2.35,0,0,0-1.22.33,2.45,2.45,0,0,0-.88.9,2.42,2.42,0,0,0,0,2.44,2.47,2.47,0,0,0,.88.88,2.35,2.35,0,0,0,1.22.33A2.32,2.32,0,0,0,49.81,311.55Z"/><path class="cls-2" d="M60.64,314h-2.4l-1.48-3.53H55.24V314H53V304.6h4.45A2.89,2.89,0,0,1,60,306.06a2.84,2.84,0,0,1,.39,1.45,2.94,2.94,0,0,1-.35,1.4,3.14,3.14,0,0,1-1,1ZM58,306.83a.91.91,0,0,0-.63-.31H55.19v2h2.19a.92.92,0,0,0,.63-.32,1,1,0,0,0,.25-.68A1,1,0,0,0,58,306.83Z"/><path class="cls-2" d="M67.79,311.93v2H61.43V304.6h6.24v2H63.82v1.64h3.24v2H63.82v1.64Z"/><path class="cls-2" d="M73.71,304.7,76.77,314h-2.3l-.61-1.89H71L70.37,314H68.05l3.07-9.25Zm-2.13,5.43h1.67l-.83-2.62Z"/><path class="cls-2" d="M81.3,307.56v-.17a.81.81,0,0,0-.32-.65,1.2,1.2,0,0,0-.79-.27,1.26,1.26,0,0,0-.81.27.8.8,0,0,0-.34.65.6.6,0,0,0,.35.57,2.94,2.94,0,0,0,.9.37l.2,0,.23.05a4.57,4.57,0,0,1,1.89.78l.12.11a2.75,2.75,0,0,1,.63.91,2.7,2.7,0,0,1,.23,1.06,2.64,2.64,0,0,1-.26,1.14,3,3,0,0,1-.74,1,3.4,3.4,0,0,1-1.11.63,3.82,3.82,0,0,1-1.3.22,3.72,3.72,0,0,1-1.29-.22,3.25,3.25,0,0,1-1.1-.63,3,3,0,0,1-.76-1,2.64,2.64,0,0,1-.26-1.14v-.17h2.31v.17a.81.81,0,0,0,.33.65,1.11,1.11,0,0,0,.77.28,1.19,1.19,0,0,0,.81-.28.79.79,0,0,0,.34-.65.76.76,0,0,0-.36-.58,1.31,1.31,0,0,0-.37-.2,5.27,5.27,0,0,0-.51-.16l-.44-.1c-.48-.13-.86-.24-1.14-.34a2.21,2.21,0,0,1-.75-.44l-.05-.06a3.08,3.08,0,0,1-.7-.92,2.58,2.58,0,0,1-.24-1.09,2.63,2.63,0,0,1,.26-1.13,3,3,0,0,1,.76-1,3.63,3.63,0,0,1,1.1-.63,4,4,0,0,1,1.29-.22,4.08,4.08,0,0,1,1.3.22,3.8,3.8,0,0,1,1.11.63,2.89,2.89,0,0,1,.74,1,2.63,2.63,0,0,1,.26,1.13v.17Z"/><path class="cls-2" d="M90.74,311.93v2H84.38V304.6h6.25v2H86.78v1.64H90v2H86.78v1.64Z"/><path class="cls-2" d="M100.63,304.7l3.06,9.25h-2.3l-.61-1.89h-2.9L97.29,314H95L98,304.7Zm-2.13,5.43h1.67l-.83-2.62Z"/><path class="cls-2" d="M109.35,311.55a2.64,2.64,0,0,0,.79-.52l1.61,1.61a4.81,4.81,0,0,1-1.52,1,4.78,4.78,0,0,1-4.19-.27,4.89,4.89,0,0,1-1.72-1.72,4.77,4.77,0,0,1,0-4.74,4.76,4.76,0,0,1,1.72-1.73,4.72,4.72,0,0,1,5.71.75l-1.61,1.62a2.67,2.67,0,0,0-.79-.53,2.54,2.54,0,0,0-.94-.19,2.35,2.35,0,0,0-1.22.33,2.45,2.45,0,0,0-.88.9,2.42,2.42,0,0,0,0,2.44,2.47,2.47,0,0,0,.88.88,2.42,2.42,0,0,0,2.16.14Z"/><path class="cls-2" d="M119.59,304.6V307H117.2v7h-2.39v-7h-2.4V304.6h7.18Z"/><path class="cls-2" d="M122.9,304.6V314h-2.38V304.6Z"/><path class="cls-2" d="M130.11,304.58h2.59L129.64,314h-2.91l-3-9.37h2.62l1.89,5.84Z"/><path class="cls-2" d="M135.87,304.6V314h-2.38V304.6Z"/><path class="cls-2" d="M144,304.6V307h-2.4v7h-2.39v-7H136.8V304.6H144Z"/><path class="cls-2" d="M149.87,304.6h2.38l-2.75,5.54V314h-2.38v-3.81l-2.75-5.54h2.38l1.56,3.19Z"/><path class="cls-2" d="M159.13,304.6V314h-2.38V304.6Z"/><path class="cls-2" d="M165.33,304.6h2.38V314h-2.38l-2.75-5v5h-2.39V304.6h2.39l2.75,5Z"/><path class="cls-2" d="M177,307.56v-.17a.81.81,0,0,0-.32-.65,1.2,1.2,0,0,0-.79-.27,1.26,1.26,0,0,0-.81.27.8.8,0,0,0-.34.65.6.6,0,0,0,.35.57,2.94,2.94,0,0,0,.9.37l.2,0,.23.05a4.51,4.51,0,0,1,1.89.78l.12.11a2.75,2.75,0,0,1,.63.91,2.7,2.7,0,0,1,.23,1.06,2.51,2.51,0,0,1-.26,1.14,3,3,0,0,1-.74,1,3.4,3.4,0,0,1-1.11.63,3.82,3.82,0,0,1-1.3.22,3.72,3.72,0,0,1-1.29-.22,3.25,3.25,0,0,1-1.1-.63,3,3,0,0,1-.76-1,2.64,2.64,0,0,1-.26-1.14v-.17h2.31v.17a.81.81,0,0,0,.33.65,1.11,1.11,0,0,0,.77.28,1.19,1.19,0,0,0,.81-.28.79.79,0,0,0,.34-.65.76.76,0,0,0-.36-.58,1.31,1.31,0,0,0-.37-.2,5.27,5.27,0,0,0-.51-.16l-.44-.1c-.48-.13-.86-.24-1.14-.34a2.21,2.21,0,0,1-.75-.44l-.05-.06a3.08,3.08,0,0,1-.7-.92,2.58,2.58,0,0,1-.24-1.09,2.63,2.63,0,0,1,.26-1.13,3,3,0,0,1,.76-1,3.63,3.63,0,0,1,1.1-.63,4,4,0,0,1,1.29-.22,4.08,4.08,0,0,1,1.3.22,3.8,3.8,0,0,1,1.11.63,2.89,2.89,0,0,1,.74,1,2.49,2.49,0,0,1,.26,1.13v.17Z"/><path class="cls-2" d="M186.92,305.24a4.7,4.7,0,0,1,2.35,4.1,4.72,4.72,0,0,1-4.72,4.72,4.77,4.77,0,0,1-4.1-2.36,4.61,4.61,0,0,1-.63-2.36,4.68,4.68,0,0,1,.63-2.38,4.76,4.76,0,0,1,1.73-1.72,4.58,4.58,0,0,1,2.37-.64A4.53,4.53,0,0,1,186.92,305.24Zm-1.15,6.2a2.53,2.53,0,0,0,.89-.89,2.32,2.32,0,0,0,.33-1.21,2.41,2.41,0,0,0-.33-1.23,2.53,2.53,0,0,0-.89-.89,2.35,2.35,0,0,0-1.22-.33,2.38,2.38,0,0,0-1.22.33,2.53,2.53,0,0,0-.89.89,2.41,2.41,0,0,0-.33,1.23,2.32,2.32,0,0,0,.33,1.21,2.53,2.53,0,0,0,.89.89,2.38,2.38,0,0,0,1.22.33A2.35,2.35,0,0,0,185.77,311.44Z"/><path class="cls-2" d="M195.46,311.55a2.52,2.52,0,0,0,.79-.52l1.62,1.61a4.92,4.92,0,0,1-1.52,1,4.7,4.7,0,0,1-1.83.36,4.61,4.61,0,0,1-2.36-.63,4.73,4.73,0,0,1-1.72-1.72,4.72,4.72,0,0,1,4.08-7.1,4.69,4.69,0,0,1,3.35,1.38l-1.62,1.62a2.55,2.55,0,0,0-.79-.53,2.5,2.5,0,0,0-.94-.19,2.32,2.32,0,0,0-1.21.33,2.48,2.48,0,0,0-.89.9,2.42,2.42,0,0,0,0,2.44,2.5,2.5,0,0,0,.89.88,2.4,2.4,0,0,0,2.15.14Z"/><path class="cls-2" d="M201,304.6V314h-2.38V304.6Z"/><path class="cls-2" d="M207,304.7,210,314h-2.3l-.61-1.89h-2.9l-.59,1.89H201.3l3.07-9.25Zm-2.12,5.43h1.66l-.83-2.62Z"/><path class="cls-2" d="M212.66,311.7h3.68V314h-6.06V304.6h2.38Z"/><path class="cls-2" d="M226.37,304.6h2.38V314h-2.38l-2.75-5v5h-2.39V304.6h2.39l2.75,5Z"/><path class="cls-2" d="M236.17,311.93v2h-6.36V304.6h6.24v2h-3.84v1.64h3.23v2h-3.23v1.64Z"/><path class="cls-2" d="M244.28,304.6V307h-2.4v7h-2.39v-7H237.1V304.6h7.18Z"/><path class="cls-2" d="M252.73,304.6h2.06V314h-2.38L250,310l-2.42,4H245.2V304.6h2.38v5.28l1.17-2.12.06-.1h2.38l.06.1,1.16,2.12V304.6Z"/><path class="cls-2" d="M262.68,305.24a4.74,4.74,0,0,1,2.36,4.1,4.74,4.74,0,0,1-4.72,4.72,4.69,4.69,0,0,1-2.38-.64,4.58,4.58,0,0,1-1.72-1.72,4.52,4.52,0,0,1-.64-2.36,4.59,4.59,0,0,1,.64-2.38,4.65,4.65,0,0,1,1.72-1.72,4.59,4.59,0,0,1,2.38-.64A4.52,4.52,0,0,1,262.68,305.24Zm-1.15,6.2a2.53,2.53,0,0,0,.89-.89,2.32,2.32,0,0,0,.33-1.21,2.41,2.41,0,0,0-.33-1.23,2.53,2.53,0,0,0-.89-.89,2.32,2.32,0,0,0-1.21-.33,2.39,2.39,0,0,0-1.23.33,2.53,2.53,0,0,0-.89.89,2.41,2.41,0,0,0-.33,1.23,2.32,2.32,0,0,0,.33,1.21,2.53,2.53,0,0,0,.89.89,2.39,2.39,0,0,0,1.23.33A2.32,2.32,0,0,0,261.53,311.44Z"/><path class="cls-2" d="M273.46,314h-2.4l-1.48-3.53h-1.52V314h-2.23V304.6h4.45a2.89,2.89,0,0,1,2.52,1.46,2.84,2.84,0,0,1,.39,1.45,2.94,2.94,0,0,1-.35,1.4,3.14,3.14,0,0,1-1,1Zm-2.63-7.12a.91.91,0,0,0-.62-.31H268v2h2.2a.92.92,0,0,0,.62-.32,1,1,0,0,0,.25-.68A1,1,0,0,0,270.83,306.83Z"/><path class="cls-2" d="M278.79,309.23l2.79,4.72h-2.65l-2.3-3.77V314h-2.38V304.6h2.38v3.65l2.3-3.65h2.65Z"/><path class="cls-2" d="M286.9,307.56v-.17a.81.81,0,0,0-.32-.65,1.2,1.2,0,0,0-.79-.27,1.28,1.28,0,0,0-.81.27.83.83,0,0,0-.34.65.6.6,0,0,0,.35.57,2.94,2.94,0,0,0,.9.37l.2,0,.23.05a4.51,4.51,0,0,1,1.89.78l.12.11a2.75,2.75,0,0,1,.63.91,2.7,2.7,0,0,1,.23,1.06,2.51,2.51,0,0,1-.26,1.14,3,3,0,0,1-.74,1,3.4,3.4,0,0,1-1.11.63,3.82,3.82,0,0,1-1.3.22,3.72,3.72,0,0,1-1.29-.22,3.25,3.25,0,0,1-1.1-.63,3,3,0,0,1-.76-1,2.64,2.64,0,0,1-.26-1.14v-.17h2.31v.17a.81.81,0,0,0,.33.65,1.11,1.11,0,0,0,.77.28,1.19,1.19,0,0,0,.81-.28.79.79,0,0,0,.34-.65.76.76,0,0,0-.36-.58,1.31,1.31,0,0,0-.37-.2,5.27,5.27,0,0,0-.51-.16l-.44-.1c-.48-.13-.86-.24-1.14-.34a2.21,2.21,0,0,1-.75-.44l-.05-.06a3.08,3.08,0,0,1-.7-.92,2.58,2.58,0,0,1-.24-1.09,2.63,2.63,0,0,1,.26-1.13,3,3,0,0,1,.76-1,3.63,3.63,0,0,1,1.1-.63,4,4,0,0,1,1.29-.22,4.08,4.08,0,0,1,1.3.22,3.8,3.8,0,0,1,1.11.63,2.89,2.89,0,0,1,.74,1,2.49,2.49,0,0,1,.26,1.13v.17Z"/><path class="cls-2" d="M298.82,304.7l3.05,9.25h-2.3l-.61-1.89h-2.89l-.6,1.89h-2.31l3.07-9.25Zm-2.13,5.43h1.66l-.83-2.62Z"/><path class="cls-2" d="M307.28,304.6h2.38V314h-2.38l-2.75-5v5h-2.39V304.6h2.39l2.75,5Z"/><path class="cls-2" d="M314.82,304.57a5.4,5.4,0,0,1,1.4.34,3.81,3.81,0,0,1,1.29.8,4.62,4.62,0,0,1,1.15,1.61,4.76,4.76,0,0,1,.4,1.92,4.48,4.48,0,0,1-.52,2.16,4.25,4.25,0,0,1-1.44,1.65,5.09,5.09,0,0,1-1.91.75,13.74,13.74,0,0,1-2.36.18l-1.08,0h-1V304.5h2.39A16.94,16.94,0,0,1,314.82,304.57Zm2,4.67a2.39,2.39,0,0,0-.32-1.19,2.45,2.45,0,0,0-.87-.91,2.28,2.28,0,0,0-1.19-.36h-1.3v4.88a9.56,9.56,0,0,0,1.63-.11A2.71,2.71,0,0,0,316,311a2,2,0,0,0,.75-1.23A3,3,0,0,0,316.79,309.24Z"/><path class="cls-2" d="M328.09,307.56v-.17a.84.84,0,0,0-.32-.65,1.2,1.2,0,0,0-.79-.27,1.24,1.24,0,0,0-.81.27.8.8,0,0,0-.34.65.6.6,0,0,0,.34.57,2.94,2.94,0,0,0,.9.37l.21,0,.23.05a4.64,4.64,0,0,1,1.89.78l.12.11a3.08,3.08,0,0,1,.63.91,2.7,2.7,0,0,1,.23,1.06,2.64,2.64,0,0,1-.26,1.14,2.85,2.85,0,0,1-.75,1,3.21,3.21,0,0,1-1.11.63,3.89,3.89,0,0,1-2.58,0,3.4,3.4,0,0,1-1.11-.63,3.13,3.13,0,0,1-.75-1,2.51,2.51,0,0,1-.26-1.14v-.17h2.31v.17a.82.82,0,0,0,.32.65,1.15,1.15,0,0,0,.78.28,1.23,1.23,0,0,0,.81-.28.82.82,0,0,0,.34-.65.76.76,0,0,0-.36-.58,1.46,1.46,0,0,0-.37-.2,4.76,4.76,0,0,0-.52-.16l-.43-.1c-.49-.13-.87-.24-1.14-.34a2.21,2.21,0,0,1-.75-.44l-.06-.06a2.89,2.89,0,0,1-.69-.92,2.58,2.58,0,0,1-.24-1.09,2.49,2.49,0,0,1,.26-1.13,3.05,3.05,0,0,1,.75-1,3.8,3.8,0,0,1,1.11-.63,3.89,3.89,0,0,1,2.58,0,3.56,3.56,0,0,1,1.11.63,2.79,2.79,0,0,1,.75,1,2.63,2.63,0,0,1,.26,1.13v.17Z"/><path class="cls-2" d="M336,304.7l3,9.25h-2.3l-.61-1.89h-2.89l-.6,1.89h-2.31l3.07-9.25Zm-2.13,5.43h1.66l-.83-2.62Z"/><path class="cls-2" d="M345.5,304.58h2.6L345,314h-2.91l-3-9.37h2.62l1.89,5.84Z"/><path class="cls-2" d="M355.25,311.93v2h-6.36V304.6h6.24v2h-3.85v1.64h3.24v2h-3.24v1.64Z"/><path class="cls-2" d="M39.23,321.1A4.76,4.76,0,0,1,41,322.83a4.67,4.67,0,0,1,.63,2.37,4.62,4.62,0,0,1-.63,2.37,4.73,4.73,0,0,1-1.72,1.72,4.62,4.62,0,0,1-2.37.63,4.7,4.7,0,0,1-4.09-2.35,4.53,4.53,0,0,1-.64-2.37,4.58,4.58,0,0,1,.64-2.37,4.68,4.68,0,0,1,4.09-2.36A4.62,4.62,0,0,1,39.23,321.1Zm-1.15,6.2a2.5,2.5,0,0,0,.89-.88A2.42,2.42,0,0,0,39,324a2.53,2.53,0,0,0-.89-.89,2.35,2.35,0,0,0-1.22-.33,2.38,2.38,0,0,0-1.22.33,2.53,2.53,0,0,0-.89.89,2.42,2.42,0,0,0,0,2.44,2.5,2.5,0,0,0,.89.88,2.29,2.29,0,0,0,1.22.34A2.27,2.27,0,0,0,38.08,327.3Z"/><path class="cls-2" d="M47.52,320.47H49.9v9.35H47.52l-2.75-5v5H42.38v-9.35h2.39l2.75,5Z"/><path class="cls-2" d="M59.2,323.43v-.17a.84.84,0,0,0-.33-.66,1.18,1.18,0,0,0-.79-.27,1.28,1.28,0,0,0-.81.27.85.85,0,0,0-.34.66.6.6,0,0,0,.35.57,2.94,2.94,0,0,0,.9.37l.2,0,.23.05a4.51,4.51,0,0,1,1.89.78l.12.11a2.65,2.65,0,0,1,.63.91,2.5,2.5,0,0,1,.23,1.06,2.62,2.62,0,0,1-.25,1.13,3.17,3.17,0,0,1-.75,1,3.8,3.8,0,0,1-1.11.63,4.08,4.08,0,0,1-1.3.22,4,4,0,0,1-1.29-.22,3.63,3.63,0,0,1-1.1-.63,3.05,3.05,0,0,1-.76-1,2.63,2.63,0,0,1-.26-1.13V327H57v.18a.82.82,0,0,0,.33.65,1.15,1.15,0,0,0,.77.27,1.24,1.24,0,0,0,.81-.27.8.8,0,0,0,.34-.65.78.78,0,0,0-.35-.59,1.84,1.84,0,0,0-.37-.19,4.06,4.06,0,0,0-.52-.16l-.44-.11a11.45,11.45,0,0,1-1.13-.33,2.19,2.19,0,0,1-.76-.45l0-.05a2.82,2.82,0,0,1-.69-.93,2.38,2.38,0,0,1-.25-1.08,2.64,2.64,0,0,1,.26-1.14,3,3,0,0,1,.76-1,3.25,3.25,0,0,1,1.1-.63,3.72,3.72,0,0,1,1.29-.22,3.82,3.82,0,0,1,1.3.22,3.4,3.4,0,0,1,1.11.63,3.13,3.13,0,0,1,.75,1,2.63,2.63,0,0,1,.25,1.14v.17Z"/><path class="cls-2" d="M69.11,321.1a4.76,4.76,0,0,1,1.72,1.73,4.68,4.68,0,0,1,.64,2.37,4.63,4.63,0,0,1-.64,2.37,4.73,4.73,0,0,1-1.72,1.72,4.61,4.61,0,0,1-2.36.63,4.7,4.7,0,0,1-4.1-2.35A4.53,4.53,0,0,1,62,325.2a4.58,4.58,0,0,1,.64-2.37,4.76,4.76,0,0,1,1.72-1.73,4.68,4.68,0,0,1,2.38-.63A4.61,4.61,0,0,1,69.11,321.1ZM68,327.3a2.5,2.5,0,0,0,.89-.88,2.42,2.42,0,0,0,0-2.44,2.53,2.53,0,0,0-.89-.89,2.32,2.32,0,0,0-1.21-.33,2.39,2.39,0,0,0-1.23.33,2.53,2.53,0,0,0-.89.89,2.42,2.42,0,0,0,0,2.44,2.5,2.5,0,0,0,.89.88,2.3,2.3,0,0,0,1.23.34A2.24,2.24,0,0,0,68,327.3Z"/><path class="cls-2" d="M74.64,327.57h3.67v2.25h-6v-9.35h2.38Z"/><path class="cls-2" d="M85.39,320.44H88l-3,9.38H82l-3-9.38h2.61l1.9,5.85Z"/><path class="cls-2" d="M91.15,320.47v9.35H88.77v-9.35Z"/><path class="cls-2" d="M97.35,320.47h2.38v9.35H97.35l-2.75-5v5H92.21v-9.35H94.6l2.75,5Z"/><path class="cls-2" d="M110,325.19a4.67,4.67,0,0,1-.63,2.37,4.83,4.83,0,0,1-1.73,1.72,4.67,4.67,0,0,1-2.37.63,4.62,4.62,0,0,1-2.37-.63,4.89,4.89,0,0,1-1.72-1.72,4.67,4.67,0,0,1-.63-2.37,4.62,4.62,0,0,1,.63-2.37,4.76,4.76,0,0,1,1.72-1.73,4.62,4.62,0,0,1,2.37-.63,4.55,4.55,0,0,1,1.84.37,4.65,4.65,0,0,1,1.52,1l-2.13,1.21a2.44,2.44,0,0,0-2.45,0,2.45,2.45,0,0,0-.88.9,2.42,2.42,0,0,0,0,2.44,2.47,2.47,0,0,0,.88.88,2.35,2.35,0,0,0,1.22.33,2.4,2.4,0,0,0,1.28-.36,2.47,2.47,0,0,0,.9-1h-2.94v-2.2h5.36A5,5,0,0,1,110,325.19Z"/><path class="cls-2" d="M121.79,320.47v2.38H119.4v7H117v-7h-2.39v-2.38h7.18Z"/><path class="cls-2" d="M127.76,320.47h2.39v9.35h-2.39v-3.49h-2.67v3.49h-2.38v-9.35h2.38V324h2.67Z"/><path class="cls-2" d="M137.56,327.79v2H131.2v-9.35h6.24v2H133.6v1.64h3.24v2H133.6v1.64Z"/><path class="cls-2" d="M149.63,320.47v2.38h-2.39v7h-2.39v-7h-2.4v-2.38h7.18Z"/><path class="cls-2" d="M155.43,320.56l3,9.26h-2.3l-.61-1.89h-2.89l-.6,1.89h-2.31l3.06-9.26ZM153.3,326H155l-.83-2.62Z"/><path class="cls-2" d="M163,323.43v-.17a.84.84,0,0,0-.33-.66,1.18,1.18,0,0,0-.79-.27,1.28,1.28,0,0,0-.81.27.85.85,0,0,0-.34.66.6.6,0,0,0,.35.57,2.94,2.94,0,0,0,.9.37l.2,0,.23.05a4.51,4.51,0,0,1,1.89.78l.12.11a2.65,2.65,0,0,1,.63.91,2.57,2.57,0,0,1,0,2.19,3,3,0,0,1-.74,1,3.8,3.8,0,0,1-1.11.63,4.08,4.08,0,0,1-1.3.22,4,4,0,0,1-1.29-.22,3.63,3.63,0,0,1-1.1-.63,3.05,3.05,0,0,1-.76-1,2.63,2.63,0,0,1-.26-1.13V327h2.31v.18a.82.82,0,0,0,.33.65,1.15,1.15,0,0,0,.77.27,1.24,1.24,0,0,0,.81-.27.8.8,0,0,0,.34-.65.77.77,0,0,0-.36-.59,1.42,1.42,0,0,0-.37-.19,3.45,3.45,0,0,0-.51-.16l-.44-.11a11.45,11.45,0,0,1-1.13-.33,2.19,2.19,0,0,1-.76-.45l-.05-.05a3,3,0,0,1-.7-.93,2.51,2.51,0,0,1-.24-1.08,2.64,2.64,0,0,1,.26-1.14,3,3,0,0,1,.76-1,3.25,3.25,0,0,1,1.1-.63,3.72,3.72,0,0,1,1.29-.22,3.82,3.82,0,0,1,1.3.22,3.4,3.4,0,0,1,1.11.63,3,3,0,0,1,.74,1,2.51,2.51,0,0,1,.26,1.14v.17Z"/><path class="cls-2" d="M170.63,325.1l2.79,4.72h-2.64l-2.3-3.77v3.77H166.1v-9.35h2.38v3.65l2.3-3.65h2.64Z"/><path class="cls-2" d="M178.75,323.43v-.17a.86.86,0,0,0-.32-.66,1.2,1.2,0,0,0-.79-.27,1.24,1.24,0,0,0-.81.27.82.82,0,0,0-.34.66.6.6,0,0,0,.34.57,2.94,2.94,0,0,0,.9.37l.21,0,.23.05a4.64,4.64,0,0,1,1.89.78l.12.11a3,3,0,0,1,.63.91,2.66,2.66,0,0,1,.23,1.06,2.63,2.63,0,0,1-.26,1.13,2.89,2.89,0,0,1-.75,1,3.56,3.56,0,0,1-1.11.63,3.89,3.89,0,0,1-2.58,0,3.8,3.8,0,0,1-1.11-.63,3.17,3.17,0,0,1-.75-1,2.51,2.51,0,0,1-.27-1.13V327h2.32v.18a.84.84,0,0,0,.32.65,1.19,1.19,0,0,0,.78.27,1.28,1.28,0,0,0,.81-.27.83.83,0,0,0,.34-.65.77.77,0,0,0-.36-.59,1.84,1.84,0,0,0-.37-.19,3.25,3.25,0,0,0-.52-.16l-.43-.11a11,11,0,0,1-1.14-.33,2.24,2.24,0,0,1-.75-.45l-.06-.05a2.82,2.82,0,0,1-.69-.93,2.5,2.5,0,0,1,0-2.22,3.13,3.13,0,0,1,.75-1,3.4,3.4,0,0,1,1.11-.63,3.89,3.89,0,0,1,2.58,0,3.21,3.21,0,0,1,1.11.63,2.85,2.85,0,0,1,.75,1,2.64,2.64,0,0,1,.26,1.14v.17Z"/><path class="cls-2" d="M190.94,320.47h2.38v9.35h-2.38l-2.75-5v5H185.8v-9.35h2.39l2.75,5Z"/><path class="cls-2" d="M200.74,327.79v2h-6.36v-9.35h6.24v2h-3.85v1.64H200v2h-3.24v1.64Z"/><path class="cls-2" d="M207.19,327.42a2.64,2.64,0,0,0,.79-.52l1.62,1.61a4.73,4.73,0,0,1-1.52,1,4.71,4.71,0,0,1-4.2-.27,4.63,4.63,0,0,1-1.71-1.72,4.52,4.52,0,0,1-.64-2.36,4.59,4.59,0,0,1,.64-2.38,4.7,4.7,0,0,1,1.71-1.72,4.71,4.71,0,0,1,4.2-.27,4.73,4.73,0,0,1,1.52,1L208,323.44a2.64,2.64,0,0,0-.79-.52,2.4,2.4,0,0,0-2.15.14,2.45,2.45,0,0,0-.89.89,2.41,2.41,0,0,0-.33,1.23,2.32,2.32,0,0,0,.33,1.21,2.45,2.45,0,0,0,.89.89,2.32,2.32,0,0,0,1.21.33A2.5,2.5,0,0,0,207.19,327.42Z"/><path class="cls-2" d="M216.75,327.79v2h-6.36v-9.35h6.24v2h-3.85v1.64H216v2h-3.24v1.64Z"/><path class="cls-2" d="M222.08,323.43v-.17a.84.84,0,0,0-.33-.66,1.16,1.16,0,0,0-.78-.27,1.28,1.28,0,0,0-.82.27.84.84,0,0,0-.33.66.6.6,0,0,0,.34.57,2.94,2.94,0,0,0,.9.37l.2,0,.24.05a4.64,4.64,0,0,1,1.89.78l.12.11a2.77,2.77,0,0,1,.62.91,2.52,2.52,0,0,1,.24,1.06,2.63,2.63,0,0,1-.26,1.13,2.89,2.89,0,0,1-.75,1,3.8,3.8,0,0,1-1.11.63,4.08,4.08,0,0,1-1.3.22,3.87,3.87,0,0,1-1.28-.22,3.68,3.68,0,0,1-1.11-.63,2.89,2.89,0,0,1-.75-1,2.51,2.51,0,0,1-.27-1.13V327h2.32v.18a.81.81,0,0,0,.32.65,1.17,1.17,0,0,0,.77.27,1.28,1.28,0,0,0,.82-.27.82.82,0,0,0,.33-.65.76.76,0,0,0-.35-.59,1.84,1.84,0,0,0-.37-.19,3.61,3.61,0,0,0-.52-.16l-.44-.11a11.45,11.45,0,0,1-1.13-.33,2.19,2.19,0,0,1-.76-.45l-.05-.05a2.82,2.82,0,0,1-.69-.93,2.38,2.38,0,0,1-.25-1.08,2.52,2.52,0,0,1,.27-1.14,2.85,2.85,0,0,1,.75-1,3.3,3.3,0,0,1,1.11-.63,3.63,3.63,0,0,1,1.28-.22,3.82,3.82,0,0,1,1.3.22,3.4,3.4,0,0,1,1.11.63,2.85,2.85,0,0,1,.75,1,2.64,2.64,0,0,1,.26,1.14v.17Z"/><path class="cls-2" d="M229.43,323.43v-.17a.86.86,0,0,0-.32-.66,1.2,1.2,0,0,0-.79-.27,1.24,1.24,0,0,0-.81.27.82.82,0,0,0-.34.66.6.6,0,0,0,.34.57,2.94,2.94,0,0,0,.9.37l.21,0,.23.05a4.64,4.64,0,0,1,1.89.78l.12.11a3,3,0,0,1,.63.91,2.66,2.66,0,0,1,.23,1.06,2.63,2.63,0,0,1-.26,1.13,2.89,2.89,0,0,1-.75,1,3.56,3.56,0,0,1-1.11.63,4,4,0,0,1-1.29.22,4,4,0,0,1-1.29-.22,3.8,3.8,0,0,1-1.11-.63,3,3,0,0,1-.75-1,2.51,2.51,0,0,1-.27-1.13V327h2.32v.18a.84.84,0,0,0,.32.65,1.19,1.19,0,0,0,.78.27,1.28,1.28,0,0,0,.81-.27.83.83,0,0,0,.34-.65.77.77,0,0,0-.36-.59,1.84,1.84,0,0,0-.37-.19,3.25,3.25,0,0,0-.52-.16l-.43-.11a11,11,0,0,1-1.14-.33,2.24,2.24,0,0,1-.75-.45l-.06-.05a2.82,2.82,0,0,1-.69-.93,2.5,2.5,0,0,1,0-2.22,3,3,0,0,1,.75-1,3.4,3.4,0,0,1,1.11-.63,3.72,3.72,0,0,1,1.29-.22,3.76,3.76,0,0,1,1.29.22,3.21,3.21,0,0,1,1.11.63,2.85,2.85,0,0,1,.75,1,2.64,2.64,0,0,1,.26,1.14v.17Z"/><path class="cls-2" d="M237.38,320.56l3.05,9.26h-2.3l-.61-1.89h-2.89l-.6,1.89h-2.31l3.06-9.26ZM235.25,326h1.66l-.83-2.62Z"/><path class="cls-2" d="M248.32,329.82h-2.39l-1.48-3.53h-1.52v3.53h-2.24v-9.35h4.46a2.88,2.88,0,0,1,1.46.39,2.91,2.91,0,0,1,1.06,1.06,2.88,2.88,0,0,1,.39,1.46,2.77,2.77,0,0,1-.36,1.39,3,3,0,0,1-1,1.05Zm-2.63-7.12a.83.83,0,0,0-.62-.31h-2.19v2h2.19a.92.92,0,0,0,.62-.32,1,1,0,0,0,.25-.68A1,1,0,0,0,245.69,322.7Z"/><path class="cls-2" d="M254.09,320.47h2.38L253.72,326v3.81h-2.38V326l-2.75-5.54H251l1.56,3.19Z"/><path class="cls-2" d="M267.47,322.49h-4.13v1.64h3.31v2h-3.31v3.67H261v-9.35h6.51Z"/><path class="cls-2" d="M275.1,321.1a4.83,4.83,0,0,1,1.72,1.73,4.67,4.67,0,0,1,.63,2.37,4.62,4.62,0,0,1-.63,2.37,4.81,4.81,0,0,1-1.72,1.72,4.77,4.77,0,0,1-4.74,0,4.76,4.76,0,0,1-1.73-1.72,4.62,4.62,0,0,1-.63-2.37,4.67,4.67,0,0,1,.63-2.37,4.78,4.78,0,0,1,1.73-1.73,4.77,4.77,0,0,1,4.74,0ZM274,327.3a2.47,2.47,0,0,0,.88-.88,2.42,2.42,0,0,0,0-2.44,2.5,2.5,0,0,0-.88-.89,2.42,2.42,0,0,0-2.44,0,2.45,2.45,0,0,0-.89.89,2.42,2.42,0,0,0,0,2.44,2.42,2.42,0,0,0,.89.88,2.36,2.36,0,0,0,2.44,0Z"/><path class="cls-2" d="M285.87,329.82h-2.39L282,326.29h-1.52v3.53h-2.24v-9.35h4.46a2.88,2.88,0,0,1,1.46.39,2.91,2.91,0,0,1,1.06,1.06,2.88,2.88,0,0,1,.39,1.46,2.77,2.77,0,0,1-.36,1.39,3,3,0,0,1-1,1.05Zm-2.63-7.12a.83.83,0,0,0-.62-.31h-2.19v2h2.19a.92.92,0,0,0,.62-.32,1,1,0,0,0,.25-.68A1,1,0,0,0,283.24,322.7Z"/><path class="cls-2" d="M297.68,320.47v2.38h-2.39v7h-2.4v-7H290.5v-2.38h7.18Z"/><path class="cls-2" d="M303.66,320.47H306v9.35h-2.38v-3.49H301v3.49h-2.38v-9.35H301V324h2.67Z"/><path class="cls-2" d="M313.46,327.79v2h-6.37v-9.35h6.25v2h-3.85v1.64h3.24v2h-3.24v1.64Z"/><path class="cls-2" d="M38.31,336.73a2.9,2.9,0,0,1,0,5,2.83,2.83,0,0,1-1.46.39H34.63v3.53H32.4v-9.34h4.45A2.83,2.83,0,0,1,38.31,336.73Zm-.91,1.83a1,1,0,0,0-.63-.31H34.58v2h2.19a.89.89,0,0,0,.63-.33,1,1,0,0,0,.26-.68A1,1,0,0,0,37.4,338.56Z"/><path class="cls-2" d="M48.18,345.68H45.79l-1.48-3.53H42.79v3.53H40.55v-9.34H45a2.9,2.9,0,0,1,2.91,2.9,2.81,2.81,0,0,1-.36,1.4,3,3,0,0,1-1,1.05Zm-2.63-7.12a.93.93,0,0,0-.62-.31H42.74v2h2.19a1,1,0,0,0,.62-.33,1,1,0,0,0,.25-.68A1,1,0,0,0,45.55,338.56Z"/><path class="cls-2" d="M55.81,337a4.68,4.68,0,0,1,1.72,1.73,4.63,4.63,0,0,1,.64,2.37,4.68,4.68,0,0,1-.64,2.37,4.81,4.81,0,0,1-1.72,1.72,4.61,4.61,0,0,1-2.36.63,4.7,4.7,0,0,1-4.1-2.35,4.58,4.58,0,0,1-.64-2.37,4.53,4.53,0,0,1,.64-2.37A4.61,4.61,0,0,1,51.07,337a4.68,4.68,0,0,1,2.38-.63A4.61,4.61,0,0,1,55.81,337Zm-1.15,6.2a2.5,2.5,0,0,0,.89-.88,2.42,2.42,0,0,0,0-2.44,2.48,2.48,0,0,0-.89-.9,2.32,2.32,0,0,0-1.21-.33,2.39,2.39,0,0,0-1.23.33,2.48,2.48,0,0,0-.89.9,2.42,2.42,0,0,0,0,2.44,2.5,2.5,0,0,0,.89.88,2.39,2.39,0,0,0,1.23.33A2.32,2.32,0,0,0,54.66,343.17Z"/><path class="cls-2" d="M63.86,336.31h2.21v5.78a3.58,3.58,0,0,1-.49,1.85,3.69,3.69,0,0,1-1.35,1.34,3.67,3.67,0,0,1-3.7,0,3.74,3.74,0,0,1-1.34-1.34,3.59,3.59,0,0,1-.5-1.85v-.39H60.9a2.09,2.09,0,0,0,.43,1.27,1.26,1.26,0,0,0,1.05.49,1.29,1.29,0,0,0,1.07-.55,2.19,2.19,0,0,0,.41-1.35Z"/><path class="cls-2" d="M73.49,343.66v2H67.13v-9.34h6.24v2H69.52V340h3.24v2H69.52v1.64Z"/><path class="cls-2" d="M79.94,343.28a2.51,2.51,0,0,0,.8-.52l1.61,1.62A4.69,4.69,0,0,1,79,345.76a4.7,4.7,0,0,1-4.08-2.35,4.53,4.53,0,0,1-.64-2.37,4.58,4.58,0,0,1,.64-2.37,4.68,4.68,0,0,1,1.72-1.73,4.61,4.61,0,0,1,2.36-.63,4.7,4.7,0,0,1,1.83.36,4.92,4.92,0,0,1,1.52,1l-1.61,1.61a2.69,2.69,0,0,0-.8-.52,2.4,2.4,0,0,0-2.15.14,2.53,2.53,0,0,0-.89.89,2.38,2.38,0,0,0-.33,1.22,2.35,2.35,0,0,0,.33,1.22,2.53,2.53,0,0,0,.89.89,2.35,2.35,0,0,0,2.15.13Z"/><path class="cls-2" d="M90.19,336.34v2.38H87.8v7H85.4v-7H83v-2.38h7.18Z"/><path class="cls-2" d="M102.13,341.74a2.65,2.65,0,0,1,.3,1.25,2.71,2.71,0,0,1-.35,1.34,2.79,2.79,0,0,1-1,1,2.63,2.63,0,0,1-1.35.37H95.08v-9.35h4.25a2.64,2.64,0,0,1,1.36.37,2.9,2.9,0,0,1,1,1,2.62,2.62,0,0,1,.16,2.29,2.38,2.38,0,0,1-.52.83A2.56,2.56,0,0,1,102.13,341.74Zm-2.47-3.22a.91.91,0,0,0-.68-.28H97.26v2H99a1.42,1.42,0,0,0,.32-.05,1,1,0,0,0,.24-.13,1,1,0,0,0,.3-.36,1,1,0,0,0,.11-.46A1,1,0,0,0,99.66,338.52Zm.4,4.94a.9.9,0,0,0,.27-.7,1,1,0,0,0-.22-.63.93.93,0,0,0-.57-.33c-.06,0-.68,0-1.88,0h-.4v2h2.12A1,1,0,0,0,100.06,343.46Z"/><path class="cls-2" d="M108.2,336.34h2.38l-2.75,5.54v3.8h-2.38v-3.8l-2.75-5.54h2.38l1.56,3.18Z"/><path class="cls-2" d="M121,336.73a3,3,0,0,1,1.06,1,2.95,2.95,0,0,1,0,2.93,3,3,0,0,1-1.06,1.05,2.85,2.85,0,0,1-1.46.39h-2.22v3.53h-2.24v-9.34h4.46A2.85,2.85,0,0,1,121,336.73Zm-.91,1.83a1,1,0,0,0-.63-.31h-2.2v2h2.2a.89.89,0,0,0,.63-.33,1,1,0,0,0,.25-.68A1,1,0,0,0,120.08,338.56Z"/><path class="cls-2" d="M128.1,336.43l3.05,9.25h-2.3l-.61-1.89h-2.89l-.6,1.89h-2.31l3.06-9.25ZM126,341.86h1.66l-.83-2.62Z"/><path class="cls-2" d="M136.39,336.34h2.38L136,341.88v3.8h-2.38v-3.8l-2.75-5.54h2.38l1.56,3.18Z"/><path class="cls-2" d="M141.67,336.34v9.34h-2.38v-9.34Z"/><path class="cls-2" d="M147.88,336.34h2.38v9.34h-2.38l-2.75-5v5h-2.4v-9.34h2.4l2.75,5Z"/><path class="cls-2" d="M160.5,341.06a4.74,4.74,0,0,1-4.73,4.72,4.74,4.74,0,0,1-4.09-2.36,4.61,4.61,0,0,1-.63-2.36,4.68,4.68,0,0,1,.63-2.38A4.81,4.81,0,0,1,153.4,337a4.58,4.58,0,0,1,2.37-.64,4.71,4.71,0,0,1,3.36,1.4L157,338.94a2.44,2.44,0,0,0-2.45,0,2.5,2.5,0,0,0-.88.89,2.41,2.41,0,0,0-.33,1.23,2.32,2.32,0,0,0,.33,1.21,2.5,2.5,0,0,0,.88.89,2.35,2.35,0,0,0,1.22.33,2.38,2.38,0,0,0,1.28-.36,2.5,2.5,0,0,0,.9-1H155V340h5.35A5,5,0,0,1,160.5,341.06Z"/><path class="cls-2" d="M171.77,338.36h-4.13V340H171v2h-3.31v3.66h-2.38v-9.34h6.51Z"/><path class="cls-2" d="M179.4,337a4.76,4.76,0,0,1,1.72,1.73,4.62,4.62,0,0,1,.63,2.37,4.67,4.67,0,0,1-.63,2.37,4.89,4.89,0,0,1-1.72,1.72,4.67,4.67,0,0,1-2.37.63,4.62,4.62,0,0,1-2.37-.63,4.76,4.76,0,0,1-1.73-1.72,4.67,4.67,0,0,1-.63-2.37,4.71,4.71,0,0,1,4.73-4.73A4.67,4.67,0,0,1,179.4,337Zm-1.15,6.2a2.47,2.47,0,0,0,.88-.88,2.42,2.42,0,0,0,0-2.44,2.45,2.45,0,0,0-.88-.9,2.42,2.42,0,0,0-2.44,0,2.43,2.43,0,0,0-.9.9,2.42,2.42,0,0,0,0,2.44,2.45,2.45,0,0,0,.9.88,2.42,2.42,0,0,0,2.44,0Z"/><path class="cls-2" d="M190.17,345.68h-2.39l-1.48-3.53h-1.52v3.53h-2.24v-9.34H187a2.9,2.9,0,0,1,2.91,2.9,2.81,2.81,0,0,1-.36,1.4,3,3,0,0,1-1,1.05Zm-2.63-7.12a.93.93,0,0,0-.62-.31h-2.2v2h2.2a1,1,0,0,0,.62-.33,1,1,0,0,0,.25-.68A1,1,0,0,0,187.54,338.56Z"/><path class="cls-2" d="M202,336.34v2.38h-2.39v7h-2.4v-7H194.8v-2.38H202Z"/><path class="cls-2" d="M208,336.34h2.38v9.34H208v-3.49h-2.67v3.49h-2.38v-9.34h2.38v3.47H208Z"/><path class="cls-2" d="M217.75,343.66v2h-6.36v-9.34h6.24v2h-3.84V340H217v2h-3.24v1.64Z"/><path class="cls-2" d="M226,336.34h2.38v9.34H226v-5.27l-1.17,2.11,0,.11h-2.38l-.07-.11-.15-.3-1-1.81v5.27h-2.39v-9.34h2.39l2.41,4Z"/><path class="cls-2" d="M240.94,336.34H243v9.34h-2.38l-2.41-4-2.42,4h-2.38v-9.34h2.38v5.27L237,339.5l.07-.11h2.38l.05.11,1.17,2.11v-5.27Z"/><path class="cls-2" d="M246.44,336.34v9.34h-2.38v-9.34Z"/><path class="cls-2" d="M254.55,336.34v2.38h-2.39v7h-2.4v-7h-2.39v-2.38h7.18Z"/><path class="cls-2" d="M260.53,336.34h2.38v9.34h-2.38v-3.49h-2.67v3.49h-2.38v-9.34h2.38v3.47h2.67Z"/><path class="cls-2" d="M275,336.34v2.38h-2.4v7h-2.39v-7H267.8v-2.38H275Z"/><path class="cls-2" d="M282.74,337a4.68,4.68,0,0,1,1.72,1.73,4.62,4.62,0,0,1,.63,2.37,4.67,4.67,0,0,1-.63,2.37,4.81,4.81,0,0,1-1.72,1.72,4.62,4.62,0,0,1-2.37.63,4.67,4.67,0,0,1-2.37-.63,4.83,4.83,0,0,1-1.73-1.72,4.67,4.67,0,0,1-.63-2.37,4.62,4.62,0,0,1,.63-2.37,4.71,4.71,0,0,1,4.1-2.36A4.62,4.62,0,0,1,282.74,337Zm-1.15,6.2a2.47,2.47,0,0,0,.88-.88,2.36,2.36,0,0,0,0-2.44,2.45,2.45,0,0,0-.88-.9,2.42,2.42,0,0,0-2.44,0,2.48,2.48,0,0,0-.89.9,2.42,2.42,0,0,0,0,2.44,2.5,2.5,0,0,0,.89.88,2.42,2.42,0,0,0,2.44,0Z"/><path class="cls-2" d="M290.42,341l2.79,4.72h-2.64l-2.3-3.76v3.76h-2.38v-9.34h2.38V340l2.3-3.65h2.64Z"/><path class="cls-2" d="M300.63,343.66v2h-6.36v-9.34h6.24v2h-3.85V340h3.24v2h-3.24v1.64Z"/><path class="cls-2" d="M306.83,336.34h2.38v9.34h-2.38l-2.75-5v5h-2.39v-9.34h2.39l2.75,5Z"/><path class="cls-2" d="M314.54,339.3v-.17a.82.82,0,0,0-.33-.66,1.16,1.16,0,0,0-.78-.27,1.28,1.28,0,0,0-.82.27.82.82,0,0,0-.33.66.59.59,0,0,0,.34.56,2.71,2.71,0,0,0,.9.37l.2,0,.24.06a4.64,4.64,0,0,1,1.89.78l.12.1a2.82,2.82,0,0,1,.62.92,2.51,2.51,0,0,1,.24,1.05,2.64,2.64,0,0,1-.26,1.14,3,3,0,0,1-.75,1,3.56,3.56,0,0,1-1.11.62,3.78,3.78,0,0,1-1.3.22,3.67,3.67,0,0,1-1.28-.22,3.45,3.45,0,0,1-1.11-.62,3.13,3.13,0,0,1-.75-1A2.52,2.52,0,0,1,310,343v-.17h2.32V343a.81.81,0,0,0,.32.66,1.17,1.17,0,0,0,.77.27,1.28,1.28,0,0,0,.82-.27.82.82,0,0,0,.33-.66.76.76,0,0,0-.35-.58,1.86,1.86,0,0,0-.37-.2l-.52-.16-.43-.1a11,11,0,0,1-1.14-.33,2.21,2.21,0,0,1-.75-.45l-.06-.05a3,3,0,0,1-.69-.93,2.41,2.41,0,0,1-.25-1.08,2.52,2.52,0,0,1,.27-1.14,3.13,3.13,0,0,1,.75-1,3.45,3.45,0,0,1,1.11-.62,3.67,3.67,0,0,1,1.28-.22,3.78,3.78,0,0,1,1.3.22,3.56,3.56,0,0,1,1.11.62,3,3,0,0,1,.75,1,2.64,2.64,0,0,1,.26,1.14v.17Z"/><path class="cls-2" d="M317.71,345.3a1.29,1.29,0,0,1-.36-.91,1.25,1.25,0,0,1,1.23-1.22,1.26,1.26,0,0,1,1.26,1.26,1.18,1.18,0,0,1-.37.88,1.2,1.2,0,0,1-.89.37A1.13,1.13,0,0,1,317.71,345.3Z"/><path class="cls-2" d="M39.44,356.34v2.38H37.05v7H34.66v-7h-2.4v-2.38h7.18Z"/><path class="cls-2" d="M45.42,356.34H47.8v9.34H45.42v-3.49H42.75v3.49H40.37v-9.34h2.38v3.47h2.67Z"/><path class="cls-2" d="M55.22,363.66v2H48.86v-9.34H55.1v2H51.25V360h3.24v2H51.25v1.64Z"/><path class="cls-2" d="M66.6,363.66v2H60.24v-9.34h6.24v2H62.63V360h3.24v2H62.63v1.64Z"/><path class="cls-2" d="M71.93,359.3v-.17a.84.84,0,0,0-.32-.66,1.2,1.2,0,0,0-.79-.27,1.24,1.24,0,0,0-.81.27.81.81,0,0,0-.34.66.59.59,0,0,0,.34.56,2.71,2.71,0,0,0,.9.37l.21,0,.23.06a4.64,4.64,0,0,1,1.89.78l.12.1A3,3,0,0,1,74,362a2.57,2.57,0,0,1,0,2.19,3,3,0,0,1-.75,1,3.35,3.35,0,0,1-1.11.62,3.76,3.76,0,0,1-1.29.22,3.72,3.72,0,0,1-1.29-.22,3.56,3.56,0,0,1-1.11-.62,3.13,3.13,0,0,1-.75-1,2.52,2.52,0,0,1-.27-1.14v-.17h2.32V363a.84.84,0,0,0,.32.66,1.19,1.19,0,0,0,.78.27,1.28,1.28,0,0,0,.81-.27A.83.83,0,0,0,72,363a.77.77,0,0,0-.36-.58,1.86,1.86,0,0,0-.37-.2l-.52-.16-.43-.1a11,11,0,0,1-1.14-.33,2.42,2.42,0,0,1-.75-.45l-.06-.05a3,3,0,0,1-.69-.93,2.55,2.55,0,0,1-.25-1.08,2.52,2.52,0,0,1,.27-1.14,3.13,3.13,0,0,1,.75-1,3.56,3.56,0,0,1,1.11-.62,3.72,3.72,0,0,1,1.29-.22,3.76,3.76,0,0,1,1.29.22,3.35,3.35,0,0,1,1.11.62,3,3,0,0,1,.75,1,2.64,2.64,0,0,1,.26,1.14v.17Z"/><path class="cls-2" d="M79.28,359.3v-.17a.84.84,0,0,0-.32-.66,1.2,1.2,0,0,0-.79-.27,1.24,1.24,0,0,0-.81.27.81.81,0,0,0-.34.66.59.59,0,0,0,.34.56,2.71,2.71,0,0,0,.9.37l.21,0,.23.06a4.64,4.64,0,0,1,1.89.78l.12.1a3,3,0,0,1,.63.92,2.57,2.57,0,0,1,0,2.19,3,3,0,0,1-.75,1,3.35,3.35,0,0,1-1.11.62,3.89,3.89,0,0,1-2.58,0,3.56,3.56,0,0,1-1.11-.62,3.29,3.29,0,0,1-.75-1,2.51,2.51,0,0,1-.26-1.14v-.17h2.31V363a.84.84,0,0,0,.32.66,1.19,1.19,0,0,0,.78.27,1.26,1.26,0,0,0,.81-.27.81.81,0,0,0,.34-.66.77.77,0,0,0-.36-.58,1.86,1.86,0,0,0-.37-.2l-.52-.16-.43-.1a11,11,0,0,1-1.14-.33,2.42,2.42,0,0,1-.75-.45l-.06-.05a3,3,0,0,1-.69-.93,2.54,2.54,0,0,1-.24-1.08A2.51,2.51,0,0,1,75,358a3.29,3.29,0,0,1,.75-1,3.56,3.56,0,0,1,1.11-.62,3.89,3.89,0,0,1,2.58,0,3.35,3.35,0,0,1,1.11.62,3,3,0,0,1,.75,1,2.64,2.64,0,0,1,.26,1.14v.17Z"/><path class="cls-2" d="M88.72,363.66v2H82.36v-9.34H88.6v2H84.75V360H88v2H84.75v1.64Z"/><path class="cls-2" d="M94.92,356.34H97.3v9.34H94.92l-2.75-5v5H89.78v-9.34h2.39l2.75,5Z"/><path class="cls-2" d="M103.75,363.28a2.51,2.51,0,0,0,.8-.52l1.61,1.62a4.73,4.73,0,0,1-1.52,1,4.78,4.78,0,0,1-4.19-.27,4.73,4.73,0,0,1-1.72-1.72A4.62,4.62,0,0,1,98.1,361a4.67,4.67,0,0,1,.63-2.37,4.76,4.76,0,0,1,1.72-1.73,4.78,4.78,0,0,1,4.19-.27,4.92,4.92,0,0,1,1.52,1l-1.61,1.61a2.69,2.69,0,0,0-.8-.52,2.28,2.28,0,0,0-.93-.19,2.35,2.35,0,0,0-1.22.33,2.53,2.53,0,0,0-.89.89,2.38,2.38,0,0,0-.33,1.22,2.35,2.35,0,0,0,.33,1.22,2.53,2.53,0,0,0,.89.89,2.35,2.35,0,0,0,1.22.33A2.29,2.29,0,0,0,103.75,363.28Z"/><path class="cls-2" d="M113.31,363.66v2H107v-9.34h6.25v2h-3.85V360h3.24v2h-3.24v1.64Z"/><path class="cls-2" d="M125.17,357a4.61,4.61,0,0,1,1.72,1.73,4.53,4.53,0,0,1,.64,2.37,4.58,4.58,0,0,1-.64,2.37,4.73,4.73,0,0,1-1.72,1.72,4.61,4.61,0,0,1-2.36.63,4.68,4.68,0,0,1-2.38-.63,4.81,4.81,0,0,1-1.72-1.72,4.68,4.68,0,0,1-.64-2.37,4.63,4.63,0,0,1,.64-2.37,4.68,4.68,0,0,1,4.1-2.36A4.61,4.61,0,0,1,125.17,357Zm-1.15,6.2a2.5,2.5,0,0,0,.89-.88,2.42,2.42,0,0,0,0-2.44,2.48,2.48,0,0,0-.89-.9,2.32,2.32,0,0,0-1.21-.33,2.41,2.41,0,0,0-1.23.33,2.48,2.48,0,0,0-.89.9,2.42,2.42,0,0,0,0,2.44,2.5,2.5,0,0,0,.89.88,2.41,2.41,0,0,0,1.23.33A2.32,2.32,0,0,0,124,363.17Z"/><path class="cls-2" d="M134.83,358.36H130.7V360H134v2H130.7v3.66h-2.38v-9.34h6.51Z"/><path class="cls-2" d="M146.63,361.74a2.66,2.66,0,0,1,.31,1.25,2.61,2.61,0,0,1-.36,1.34,2.76,2.76,0,0,1-1,1,2.64,2.64,0,0,1-1.36.37h-4.67v-9.35h4.25a2.62,2.62,0,0,1,1.36.37,2.73,2.73,0,0,1,1,1,2.68,2.68,0,0,1,.17,2.29,2.71,2.71,0,0,1-.52.83A2.63,2.63,0,0,1,146.63,361.74Zm-2.46-3.22a.93.93,0,0,0-.68-.28h-1.72v2h1.72a1.3,1.3,0,0,0,.31-.05A1,1,0,0,0,144,360a1.19,1.19,0,0,0,.31-.36,1,1,0,0,0,.1-.46A1,1,0,0,0,144.17,358.52Zm.39,4.94a.9.9,0,0,0,.27-.7,1,1,0,0,0-.22-.63.93.93,0,0,0-.57-.33s-.68,0-1.88,0h-.39v2h2.11A.94.94,0,0,0,144.56,363.46Z"/><path class="cls-2" d="M154.57,357a4.76,4.76,0,0,1,1.72,1.73,4.62,4.62,0,0,1,.63,2.37,4.67,4.67,0,0,1-.63,2.37,4.89,4.89,0,0,1-1.72,1.72,4.67,4.67,0,0,1-2.37.63,4.62,4.62,0,0,1-2.37-.63,4.76,4.76,0,0,1-1.73-1.72,4.67,4.67,0,0,1-.63-2.37,4.71,4.71,0,0,1,4.73-4.73A4.67,4.67,0,0,1,154.57,357Zm-1.15,6.2a2.47,2.47,0,0,0,.88-.88,2.42,2.42,0,0,0,0-2.44,2.45,2.45,0,0,0-.88-.9,2.42,2.42,0,0,0-2.44,0,2.43,2.43,0,0,0-.9.9,2.42,2.42,0,0,0,0,2.44,2.45,2.45,0,0,0,.9.88,2.42,2.42,0,0,0,2.44,0Z"/><path class="cls-2" d="M165.32,356.35v5.78a3.62,3.62,0,0,1-.5,1.85,3.69,3.69,0,0,1-1.35,1.34,3.65,3.65,0,0,1-1.86.5h-.21a3.59,3.59,0,0,1-1.85-.5,3.74,3.74,0,0,1-1.34-1.34,3.62,3.62,0,0,1-.5-1.85v-5.78h2.21v5.25a2.21,2.21,0,0,0,.4,1.36,1.26,1.26,0,0,0,1.08.54h.21a1.29,1.29,0,0,0,1.08-.55,2.13,2.13,0,0,0,.42-1.35v-5.25Z"/><path class="cls-2" d="M171.52,356.34h2.38v9.34h-2.38l-2.75-5v5h-2.4v-9.34h2.4l2.75,5Z"/><path class="cls-2" d="M182,356.34v2.38h-2.39v7h-2.39v-7h-2.4v-2.38H182Z"/><path class="cls-2" d="M187.9,356.34h2.38l-2.75,5.54v3.8h-2.38v-3.8l-2.75-5.54h2.38l1.56,3.18Z"/><path class="cls-2" d="M197.15,356.34v9.34h-2.38v-9.34Z"/><path class="cls-2" d="M202.48,359.3v-.17a.84.84,0,0,0-.32-.66,1.2,1.2,0,0,0-.79-.27,1.24,1.24,0,0,0-.81.27.81.81,0,0,0-.34.66.6.6,0,0,0,.35.56,2.65,2.65,0,0,0,.89.37l.21,0,.23.06a4.64,4.64,0,0,1,1.89.78l.12.1a3,3,0,0,1,.63.92,2.57,2.57,0,0,1,0,2.19,3,3,0,0,1-.75,1,3.35,3.35,0,0,1-1.11.62,3.89,3.89,0,0,1-2.58,0,3.4,3.4,0,0,1-1.1-.62,3.17,3.17,0,0,1-.76-1A2.64,2.64,0,0,1,198,363v-.17h2.31V363a.84.84,0,0,0,.32.66,1.19,1.19,0,0,0,.78.27,1.24,1.24,0,0,0,.81-.27.81.81,0,0,0,.34-.66.77.77,0,0,0-.36-.58,1.61,1.61,0,0,0-.37-.2l-.51-.16-.44-.1a11.78,11.78,0,0,1-1.14-.33,2.42,2.42,0,0,1-.75-.45l-.05-.05a3.08,3.08,0,0,1-.7-.93,2.54,2.54,0,0,1-.24-1.08,2.64,2.64,0,0,1,.26-1.14,3.17,3.17,0,0,1,.76-1,3.4,3.4,0,0,1,1.1-.62,3.89,3.89,0,0,1,2.58,0,3.35,3.35,0,0,1,1.11.62,3,3,0,0,1,.75,1,2.64,2.64,0,0,1,.26,1.14v.17Z"/><path class="cls-2" d="M216.58,356.34v2.38h-2.4v7h-2.39v-7H209.4v-2.38h7.18Z"/><path class="cls-2" d="M222.55,356.34h2.38v9.34h-2.38v-3.49h-2.67v3.49H217.5v-9.34h2.38v3.47h2.67Z"/><path class="cls-2" d="M230.86,356.43l3,9.25h-2.3l-.61-1.89h-2.89l-.6,1.89H225.2l3.07-9.25Zm-2.13,5.43h1.66l-.83-2.62Z"/><path class="cls-2" d="M241.22,356.34v2.38h-2.39v7h-2.39v-7H234v-2.38h7.18Z"/><path class="cls-2" d="M252,356.73a2.9,2.9,0,0,1,0,5,2.83,2.83,0,0,1-1.46.39h-2.22v3.53h-2.23v-9.34h4.45A2.83,2.83,0,0,1,252,356.73Zm-.91,1.83a1,1,0,0,0-.63-.31H248.3v2h2.19a.89.89,0,0,0,.63-.33,1,1,0,0,0,.26-.68A1,1,0,0,0,251.12,358.56Z"/><path class="cls-2" d="M259.14,356.43l3.05,9.25h-2.3l-.61-1.89h-2.89l-.6,1.89h-2.31l3.07-9.25ZM257,361.86h1.67l-.84-2.62Z"/><path class="cls-2" d="M270.09,365.68h-2.4l-1.48-3.53h-1.52v3.53h-2.23v-9.34h4.45a2.88,2.88,0,0,1,1.46.39,2.9,2.9,0,0,1,1.45,2.51,2.91,2.91,0,0,1-.35,1.4,3,3,0,0,1-1,1.05Zm-2.63-7.12a1,1,0,0,0-.63-.31h-2.19v2h2.19a1,1,0,0,0,.63-.33,1,1,0,0,0,.25-.68A1,1,0,0,0,267.46,358.56Z"/><path class="cls-2" d="M277.93,356.34v2.38h-2.4v7h-2.39v-7h-2.39v-2.38h7.18Z"/><path class="cls-2" d="M281.23,356.34v9.34h-2.38v-9.34Z"/><path class="cls-2" d="M287.69,363.28a2.47,2.47,0,0,0,.79-.52l1.61,1.62a4.73,4.73,0,0,1-1.52,1,4.78,4.78,0,0,1-4.19-.27,4.73,4.73,0,0,1-1.72-1.72A4.62,4.62,0,0,1,282,361a4.67,4.67,0,0,1,.63-2.37,4.76,4.76,0,0,1,1.72-1.73,4.78,4.78,0,0,1,4.19-.27,4.92,4.92,0,0,1,1.52,1l-1.61,1.61a2.64,2.64,0,0,0-.79-.52,2.42,2.42,0,0,0-2.16.14,2.53,2.53,0,0,0-.89.89,2.38,2.38,0,0,0-.33,1.22,2.35,2.35,0,0,0,.33,1.22,2.53,2.53,0,0,0,.89.89,2.37,2.37,0,0,0,2.16.13Z"/><path class="cls-2" d="M293.26,356.34v9.34h-2.38v-9.34Z"/><path class="cls-2" d="M300.24,356.73a3,3,0,0,1,1.06,1,2.95,2.95,0,0,1,0,2.93,3,3,0,0,1-1.06,1.05,2.85,2.85,0,0,1-1.46.39h-2.22v3.53h-2.24v-9.34h4.46A2.85,2.85,0,0,1,300.24,356.73Zm-.91,1.83a1,1,0,0,0-.63-.31h-2.2v2h2.2a.89.89,0,0,0,.63-.33,1,1,0,0,0,.25-.68A1,1,0,0,0,299.33,358.56Z"/><path class="cls-2" d="M307.35,356.43l3,9.25h-2.3l-.61-1.89H304.6l-.6,1.89h-2.31l3.06-9.25Zm-2.13,5.43h1.66l-.83-2.62Z"/><path class="cls-2" d="M315.81,356.34h2.38v9.34h-2.38l-2.75-5v5h-2.39v-9.34h2.39l2.75,5Z"/><path class="cls-2" d="M326.29,356.34v2.38H323.9v7h-2.39v-7h-2.4v-2.38h7.18Z"/><path class="cls-2" d="M331.49,359.3v-.17a.84.84,0,0,0-.32-.66,1.2,1.2,0,0,0-.79-.27,1.24,1.24,0,0,0-.81.27.81.81,0,0,0-.34.66.59.59,0,0,0,.34.56,2.71,2.71,0,0,0,.9.37l.21,0,.23.06a4.64,4.64,0,0,1,1.89.78l.12.1a3,3,0,0,1,.63.92,2.57,2.57,0,0,1,0,2.19,3,3,0,0,1-.75,1,3.35,3.35,0,0,1-1.11.62,3.89,3.89,0,0,1-2.58,0,3.56,3.56,0,0,1-1.11-.62,3.29,3.29,0,0,1-.75-1A2.51,2.51,0,0,1,327,363v-.17h2.31V363a.84.84,0,0,0,.32.66,1.19,1.19,0,0,0,.78.27,1.28,1.28,0,0,0,.81-.27.83.83,0,0,0,.34-.66.77.77,0,0,0-.36-.58,1.86,1.86,0,0,0-.37-.2l-.52-.16-.43-.1a11,11,0,0,1-1.14-.33,2.42,2.42,0,0,1-.75-.45l-.06-.05a3,3,0,0,1-.69-.93,2.54,2.54,0,0,1-.24-1.08,2.51,2.51,0,0,1,.26-1.14,3.29,3.29,0,0,1,.75-1,3.56,3.56,0,0,1,1.11-.62,3.89,3.89,0,0,1,2.58,0,3.35,3.35,0,0,1,1.11.62,3,3,0,0,1,.75,1,2.64,2.64,0,0,1,.26,1.14v.17Z"/><path class="cls-2" d="M38.31,372.59a2.91,2.91,0,0,1,1.06,1.06A2.91,2.91,0,0,1,36.85,378H34.63v3.53H32.4V372.2h4.45A2.83,2.83,0,0,1,38.31,372.59Zm-.91,1.84a.91.91,0,0,0-.63-.31H34.58v2h2.19a.85.85,0,0,0,.63-.32,1,1,0,0,0,.26-.68A1,1,0,0,0,37.4,374.43Z"/><path class="cls-2" d="M46.53,379.53v2H40.17V372.2h6.24v2H42.56v1.64H45.8v2H42.56v1.64Z"/><path class="cls-2" d="M54.83,381.55H52.44L51,378H49.44v3.53H47.2V372.2h4.46a2.82,2.82,0,0,1,1.45.39,2.89,2.89,0,0,1,1.07,1.07,2.9,2.9,0,0,1,0,2.85,3.12,3.12,0,0,1-1,1.05Zm-2.63-7.12a.89.89,0,0,0-.62-.31H49.39v2h2.19a.9.9,0,0,0,.62-.32,1,1,0,0,0,.25-.68A1,1,0,0,0,52.2,374.43Z"/><path class="cls-2" d="M61.75,374.23H57.62v1.64h3.31v2H57.62v3.66H55.24V372.2h6.51Z"/><path class="cls-2" d="M69,372.84a4.65,4.65,0,0,1,1.72,1.72,4.59,4.59,0,0,1,.64,2.38,4.52,4.52,0,0,1-.64,2.36A4.58,4.58,0,0,1,69,381a4.52,4.52,0,0,1-2.36.64,4.59,4.59,0,0,1-2.38-.64,4.72,4.72,0,0,1-1.72-6.46,4.73,4.73,0,0,1,1.72-1.72,4.59,4.59,0,0,1,2.38-.64A4.52,4.52,0,0,1,69,372.84ZM67.84,379a2.53,2.53,0,0,0,.89-.89,2.32,2.32,0,0,0,.33-1.21,2.41,2.41,0,0,0-.33-1.23,2.53,2.53,0,0,0-.89-.89,2.32,2.32,0,0,0-1.21-.33,2.41,2.41,0,0,0-1.23.33,2.53,2.53,0,0,0-.89.89,2.41,2.41,0,0,0-.33,1.23,2.32,2.32,0,0,0,.33,1.21,2.53,2.53,0,0,0,.89.89,2.41,2.41,0,0,0,1.23.33A2.32,2.32,0,0,0,67.84,379Z"/><path class="cls-2" d="M79.39,381.55H77L75.51,378H74v3.53H71.76V372.2h4.45a2.89,2.89,0,0,1,2.52,1.46,2.9,2.9,0,0,1,0,2.85,2.93,2.93,0,0,1-1,1.05Zm-2.64-7.12a.87.87,0,0,0-.62-.31H73.94v2h2.19a.88.88,0,0,0,.62-.32,1,1,0,0,0,.26-.68A1,1,0,0,0,76.75,374.43Z"/><path class="cls-2" d="M87,372.2h2.38v9.35H87v-5.27l-1.16,2.11,0,.11H83.41l-.07-.11-.16-.3-1-1.81v5.27H79.8V372.2h2.39l2.41,4Z"/><path class="cls-2" d="M99.79,372.18h2.59l-3.06,9.37h-2.9l-3-9.37H96L97.88,378Z"/><path class="cls-2" d="M107.65,372.29l3.06,9.26h-2.3l-.61-1.89h-2.9l-.59,1.89H102l3.06-9.26Zm-2.12,5.44h1.66l-.83-2.62Z"/><path class="cls-2" d="M118.22,381.55h-2.39L114.34,378h-1.52v3.53h-2.23V372.2h4.46a2.92,2.92,0,0,1,2.55,4.31,3,3,0,0,1-1,1.05Zm-2.63-7.12a.91.91,0,0,0-.62-.31h-2.2v2H115a.92.92,0,0,0,.62-.32,1,1,0,0,0,.25-.68A1,1,0,0,0,115.59,374.43Z"/><path class="cls-2" d="M121,372.2v9.35h-2.38V372.2Z"/><path class="cls-2" d="M128.52,372.84a4.81,4.81,0,0,1,1.72,1.72,4.68,4.68,0,0,1,.63,2.38,4.61,4.61,0,0,1-.63,2.36,4.73,4.73,0,0,1-1.72,1.72,4.53,4.53,0,0,1-2.37.64,4.58,4.58,0,0,1-2.37-.64,4.68,4.68,0,0,1-1.73-1.72,4.61,4.61,0,0,1-.63-2.36,4.68,4.68,0,0,1,.63-2.38,4.76,4.76,0,0,1,1.73-1.72,4.58,4.58,0,0,1,2.37-.64A4.53,4.53,0,0,1,128.52,372.84Zm-1.15,6.2a2.5,2.5,0,0,0,.88-.89,2.32,2.32,0,0,0,.33-1.21,2.41,2.41,0,0,0-.33-1.23,2.5,2.5,0,0,0-.88-.89,2.42,2.42,0,0,0-2.44,0,2.45,2.45,0,0,0-.89.89,2.41,2.41,0,0,0-.33,1.23,2.32,2.32,0,0,0,.33,1.21,2.45,2.45,0,0,0,.89.89,2.42,2.42,0,0,0,2.44,0Z"/><path class="cls-2" d="M138.88,372.22V378a3.64,3.64,0,0,1-.49,1.86,3.69,3.69,0,0,1-1.35,1.34,3.64,3.64,0,0,1-1.86.49H135a3.58,3.58,0,0,1-1.85-.49,3.74,3.74,0,0,1-1.34-1.34,3.65,3.65,0,0,1-.5-1.86v-5.77h2.21v5.24a2.23,2.23,0,0,0,.4,1.37,1.26,1.26,0,0,0,1.08.54h.21a1.29,1.29,0,0,0,1.08-.55,2.16,2.16,0,0,0,.42-1.36v-5.24Z"/><path class="cls-2" d="M143.83,375.16V375a.84.84,0,0,0-.32-.65,1.2,1.2,0,0,0-.79-.27,1.24,1.24,0,0,0-.81.27.8.8,0,0,0-.34.65.6.6,0,0,0,.34.57,2.94,2.94,0,0,0,.9.37l.21,0,.23,0a4.64,4.64,0,0,1,1.89.78l.12.11a3.08,3.08,0,0,1,.63.91,2.7,2.7,0,0,1,.23,1.06,2.64,2.64,0,0,1-.26,1.14,2.85,2.85,0,0,1-.75,1,3.37,3.37,0,0,1-1.11.63,3.89,3.89,0,0,1-2.58,0,3.59,3.59,0,0,1-1.11-.63,3.13,3.13,0,0,1-.75-1,2.52,2.52,0,0,1-.27-1.14v-.17h2.32v.17a.82.82,0,0,0,.32.65,1.2,1.2,0,0,0,.78.28,1.28,1.28,0,0,0,.81-.28.82.82,0,0,0,.34-.65.76.76,0,0,0-.36-.58,1.46,1.46,0,0,0-.37-.2,4.76,4.76,0,0,0-.52-.16l-.43-.1c-.49-.13-.87-.24-1.14-.34a2.09,2.09,0,0,1-.75-.45l-.06-.05a2.89,2.89,0,0,1-.69-.92,2.59,2.59,0,0,1-.25-1.09,2.51,2.51,0,0,1,.27-1.13,3.05,3.05,0,0,1,.75-1,3.8,3.8,0,0,1,1.11-.63,3.89,3.89,0,0,1,2.58,0,3.56,3.56,0,0,1,1.11.63,2.79,2.79,0,0,1,.75,1,2.63,2.63,0,0,1,.26,1.13v.17Z"/><path class="cls-2" d="M155,372.29l3.05,9.26h-2.3l-.61-1.89h-2.89l-.6,1.89h-2.31l3.06-9.26Zm-2.13,5.44h1.66l-.83-2.62Z"/><path class="cls-2" d="M163.31,379.15a2.64,2.64,0,0,0,.79-.52l1.61,1.61a4.92,4.92,0,0,1-1.52,1A4.78,4.78,0,0,1,160,381a4.81,4.81,0,0,1-1.72-1.72,4.67,4.67,0,0,1-.63-2.37,4.62,4.62,0,0,1,.63-2.37,4.68,4.68,0,0,1,1.72-1.73,4.78,4.78,0,0,1,4.19-.27,4.73,4.73,0,0,1,1.52,1l-1.61,1.62a2.47,2.47,0,0,0-.79-.52,2.37,2.37,0,0,0-2.16.13,2.48,2.48,0,0,0-.89.9,2.42,2.42,0,0,0,0,2.44,2.5,2.5,0,0,0,.89.88,2.42,2.42,0,0,0,2.16.14Z"/><path class="cls-2" d="M173.17,372.2v2.38h-2.39v7h-2.4v-7H166V372.2h7.18Z"/><path class="cls-2" d="M176.09,372.2v9.35h-2.38V372.2Z"/><path class="cls-2" d="M183.6,372.84a4.74,4.74,0,0,1,2.36,4.1A4.74,4.74,0,0,1,183.6,381a4.53,4.53,0,0,1-2.37.64,4.74,4.74,0,0,1-4.09-2.36,4.52,4.52,0,0,1-.64-2.36,4.59,4.59,0,0,1,.64-2.38,4.65,4.65,0,0,1,1.72-1.72,4.58,4.58,0,0,1,2.37-.64A4.53,4.53,0,0,1,183.6,372.84Zm-1.15,6.2a2.53,2.53,0,0,0,.89-.89,2.32,2.32,0,0,0,.33-1.21,2.41,2.41,0,0,0-.33-1.23,2.53,2.53,0,0,0-.89-.89,2.35,2.35,0,0,0-1.22-.33,2.38,2.38,0,0,0-1.22.33,2.53,2.53,0,0,0-.89.89,2.41,2.41,0,0,0-.33,1.23,2.32,2.32,0,0,0,.33,1.21,2.53,2.53,0,0,0,.89.89,2.38,2.38,0,0,0,1.22.33A2.35,2.35,0,0,0,182.45,379Z"/><path class="cls-2" d="M191.51,372.2h2.38v9.35h-2.38l-2.75-5v5h-2.4V372.2h2.4l2.75,5Z"/><path class="cls-2" d="M198.83,375.16V375a.84.84,0,0,0-.32-.65,1.2,1.2,0,0,0-.79-.27,1.26,1.26,0,0,0-.81.27.8.8,0,0,0-.34.65.6.6,0,0,0,.35.57,2.94,2.94,0,0,0,.9.37l.2,0,.23,0a4.57,4.57,0,0,1,1.89.78l.12.11a2.91,2.91,0,0,1,.63.91,2.7,2.7,0,0,1,.23,1.06,2.64,2.64,0,0,1-.26,1.14,3,3,0,0,1-.74,1,3.53,3.53,0,0,1-1.12.63,3.89,3.89,0,0,1-2.58,0,3.43,3.43,0,0,1-1.1-.63,3,3,0,0,1-.76-1,2.64,2.64,0,0,1-.26-1.14v-.17h2.31v.17a.81.81,0,0,0,.33.65,1.16,1.16,0,0,0,.77.28,1.24,1.24,0,0,0,.81-.28.79.79,0,0,0,.34-.65.76.76,0,0,0-.36-.58,1.31,1.31,0,0,0-.37-.2,5.27,5.27,0,0,0-.51-.16l-.44-.1c-.48-.13-.86-.24-1.14-.34a2.09,2.09,0,0,1-.75-.45l0-.05a3.08,3.08,0,0,1-.7-.92,2.58,2.58,0,0,1-.24-1.09,2.63,2.63,0,0,1,.26-1.13,3,3,0,0,1,.76-1,3.63,3.63,0,0,1,1.1-.63,3.89,3.89,0,0,1,2.58,0,3.73,3.73,0,0,1,1.12.63,2.89,2.89,0,0,1,.74,1,2.63,2.63,0,0,1,.26,1.13v.17Z"/><path class="cls-2" d="M210,372.29l3.05,9.26h-2.3l-.61-1.89h-2.89l-.6,1.89h-2.31l3.07-9.26Zm-2.13,5.44h1.67l-.84-2.62Z"/><path class="cls-2" d="M218.06,372.2h2.38v9.35h-2.38l-2.75-5v5h-2.4V372.2h2.4l2.75,5Z"/><path class="cls-2" d="M225.21,372.17a5.37,5.37,0,0,1,1.41.34,4,4,0,0,1,1.29.8,4.88,4.88,0,0,1,1.55,3.53,4.6,4.6,0,0,1-.52,2.16,4.27,4.27,0,0,1-1.45,1.65,5,5,0,0,1-1.9.75,13.82,13.82,0,0,1-2.36.18l-1.09,0h-1V372.1h2.39A16.68,16.68,0,0,1,225.21,372.17Zm2,4.67a2.29,2.29,0,0,0-.32-1.19,2.5,2.5,0,0,0-.86-.91,2.34,2.34,0,0,0-1.2-.36h-1.3v4.88a9.76,9.76,0,0,0,1.64-.11,2.8,2.8,0,0,0,1.23-.52,2.13,2.13,0,0,0,.75-1.23A2.89,2.89,0,0,0,227.18,376.84Z"/><path class="cls-2" d="M242.64,376.92a4.53,4.53,0,0,1-.64,2.37,4.7,4.7,0,0,1-4.1,2.35,4.7,4.7,0,0,1-4.08-2.35,4.53,4.53,0,0,1-.64-2.37,4.58,4.58,0,0,1,.64-2.37,4.68,4.68,0,0,1,1.72-1.73,4.77,4.77,0,0,1,4.21-.26,4.66,4.66,0,0,1,1.51,1l-2.13,1.22a2.36,2.36,0,0,0-1.23-.33,2.32,2.32,0,0,0-1.21.33,2.53,2.53,0,0,0-.89.89,2.42,2.42,0,0,0,0,2.44,2.61,2.61,0,0,0,.89.89,2.32,2.32,0,0,0,1.21.33,2.42,2.42,0,0,0,1.29-.37,2.45,2.45,0,0,0,.89-1h-2.93v-2.19h5.35A4.94,4.94,0,0,1,242.64,376.92Z"/><path class="cls-2" d="M249.41,379.53v2h-6.36V372.2h6.24v2h-3.85v1.64h3.24v2h-3.24v1.64Z"/><path class="cls-2" d="M257.13,372.2v2.38h-2.4v7h-2.39v-7H250V372.2h7.18Z"/><path class="cls-2" d="M268.88,381.55h-2.39L265,378h-1.52v3.53h-2.24V372.2h4.46a2.84,2.84,0,0,1,1.45.39,2.89,2.89,0,0,1,1.07,1.07,2.9,2.9,0,0,1,0,2.85,3.12,3.12,0,0,1-1,1.05Zm-2.63-7.12a.89.89,0,0,0-.62-.31h-2.2v2h2.2a.9.9,0,0,0,.62-.32,1,1,0,0,0,.25-.68A1,1,0,0,0,266.25,374.43Z"/><path class="cls-2" d="M275.65,379.53v2h-6.36V372.2h6.24v2h-3.84v1.64h3.23v2h-3.23v1.64Z"/><path class="cls-2" d="M283.85,372.2h2.06v9.35h-2.38l-2.4-4-2.42,4h-2.38V372.2h2.38v5.28l1.16-2.12.07-.1h2.38l.05.1,1.16,2.12V372.2Z"/><path class="cls-2" d="M291.45,372.29l3.06,9.26h-2.3l-.61-1.89h-2.9l-.59,1.89h-2.32l3.07-9.26Zm-2.13,5.44H291l-.83-2.62Z"/><path class="cls-2" d="M302,381.55h-2.4L298.14,378h-1.52v3.53h-2.23V372.2h4.45a2.89,2.89,0,0,1,2.52,1.46,2.84,2.84,0,0,1,.39,1.45,2.94,2.94,0,0,1-.35,1.4,3.15,3.15,0,0,1-1,1.05Zm-2.63-7.12a.91.91,0,0,0-.63-.31h-2.19v2h2.19a.92.92,0,0,0,.63-.32,1,1,0,0,0,.25-.68A1,1,0,0,0,299.39,374.43Z"/><path class="cls-2" d="M306.53,372.17a5.4,5.4,0,0,1,1.4.34,3.81,3.81,0,0,1,1.29.8,4.62,4.62,0,0,1,1.15,1.61,4.93,4.93,0,0,1,.4,1.92,4.48,4.48,0,0,1-.52,2.16,4.25,4.25,0,0,1-1.44,1.65,5.16,5.16,0,0,1-1.91.75,13.74,13.74,0,0,1-2.36.18l-1.08,0h-1V372.1h2.39A16.94,16.94,0,0,1,306.53,372.17Zm2,4.67a2.39,2.39,0,0,0-.32-1.19,2.45,2.45,0,0,0-.87-.91,2.28,2.28,0,0,0-1.19-.36h-1.3v4.88a9.63,9.63,0,0,0,1.63-.11,2.71,2.71,0,0,0,1.23-.52,2,2,0,0,0,.75-1.23A3,3,0,0,0,308.5,376.84Z"/><path class="cls-2" d="M317.54,379.53v2h-6.36V372.2h6.24v2h-3.85v1.64h3.24v2h-3.24v1.64Z"/><path class="cls-2" d="M322.31,372.17a5.37,5.37,0,0,1,1.41.34,4,4,0,0,1,1.29.8,4.88,4.88,0,0,1,1.55,3.53A4.6,4.6,0,0,1,326,379a4.27,4.27,0,0,1-1.45,1.65,5,5,0,0,1-1.9.75,13.74,13.74,0,0,1-2.36.18l-1.09,0h-1V372.1h2.4A16.6,16.6,0,0,1,322.31,372.17Zm2,4.67a2.29,2.29,0,0,0-.32-1.19,2.5,2.5,0,0,0-.86-.91,2.34,2.34,0,0,0-1.2-.36h-1.29v4.88a9.63,9.63,0,0,0,1.63-.11,2.8,2.8,0,0,0,1.23-.52,2.13,2.13,0,0,0,.75-1.23A2.89,2.89,0,0,0,324.28,376.84Z"/><path class="cls-2" d="M337.05,374.23h-4.12v1.64h3.3v2h-3.3v3.66h-2.38V372.2h6.5Z"/><path class="cls-2" d="M344.3,372.84a4.7,4.7,0,0,1,2.35,4.1A4.7,4.7,0,0,1,344.3,381a4.53,4.53,0,0,1-2.37.64,4.58,4.58,0,0,1-2.37-.64,4.68,4.68,0,0,1-1.73-1.72,4.61,4.61,0,0,1-.63-2.36,4.68,4.68,0,0,1,.63-2.38,4.76,4.76,0,0,1,1.73-1.72,4.58,4.58,0,0,1,2.37-.64A4.53,4.53,0,0,1,344.3,372.84Zm-1.15,6.2a2.61,2.61,0,0,0,.89-.89,2.32,2.32,0,0,0,.33-1.21,2.41,2.41,0,0,0-.33-1.23,2.61,2.61,0,0,0-.89-.89,2.42,2.42,0,0,0-2.44,0,2.45,2.45,0,0,0-.89.89,2.41,2.41,0,0,0-.33,1.23,2.32,2.32,0,0,0,.33,1.21,2.45,2.45,0,0,0,.89.89,2.42,2.42,0,0,0,2.44,0Z"/><path class="cls-2" d="M354.69,381.55H352.3L350.82,378H349.3v3.53h-2.24V372.2h4.46a2.84,2.84,0,0,1,1.45.39,2.89,2.89,0,0,1,1.07,1.07,2.9,2.9,0,0,1,0,2.85,3.12,3.12,0,0,1-1,1.05Zm-2.63-7.12a.89.89,0,0,0-.62-.31h-2.2v2h2.2a.9.9,0,0,0,.62-.32,1,1,0,0,0,.25-.68A1,1,0,0,0,352.06,374.43Z"/><path class="cls-2" d="M361.06,372.2v9.35h-2.38V372.2Z"/><path class="cls-2" d="M368.79,372.2v2.38h-2.4v7H364v-7h-2.39V372.2h7.18Z"/><path class="cls-2" d="M369.42,381.17a1.3,1.3,0,0,1-.36-.92,1.15,1.15,0,0,1,.37-.85,1.18,1.18,0,0,1,.86-.36,1.26,1.26,0,1,1,0,2.51A1.17,1.17,0,0,1,369.42,381.17Z"/><path class="cls-3" d="M44.05,261.92h3.12v14.14h-3.6l-3.64-6-3.66,6h-3.6V261.92h3.6v8L38,266.7l.1-.16h3.6l.08.16,1.76,3.2v-8Z"/><path class="cls-3" d="M56.41,261.92H60v14.14h-3.6v-5.28h-4v5.28h-3.6V261.92h3.6v5.26h4Z"/><path class="cls-3" d="M69,262.06l4.62,14H70.11l-.92-2.86H64.81l-.9,2.86h-3.5l4.64-14Zm-3.22,8.22h2.52l-1.26-4Z"/><path class="cls-3" d="M84.65,261.92v3.6H81v10.54H77.41V265.52H73.79v-3.6H84.65Z"/><path class="cls-3" d="M95.65,261.92v14.14h-3.6V261.92Z"/><path class="cls-3" d="M107.91,261.92v3.6h-3.62v10.54h-3.62V265.52H97.05v-3.6h10.86Z"/><path class="cls-3" d="M118.91,261.92v14.14h-3.6V261.92Z"/><path class="cls-3" d="M127,266.4v-.26a1.26,1.26,0,0,0-.49-1,1.83,1.83,0,0,0-1.19-.41,1.92,1.92,0,0,0-1.23.41,1.22,1.22,0,0,0-.51,1,.91.91,0,0,0,.52.86,4.25,4.25,0,0,0,1.36.56l.31.06.35.08a7,7,0,0,1,2.86,1.18l.18.16a4.47,4.47,0,0,1,1,1.38,4,4,0,0,1,.35,1.6,4,4,0,0,1-.39,1.72,4.5,4.5,0,0,1-1.13,1.46,5.57,5.57,0,0,1-1.68.95,5.89,5.89,0,0,1-2,.33,5.79,5.79,0,0,1-2-.33,5.41,5.41,0,0,1-1.67-.95,4.4,4.4,0,0,1-1.14-1.46,3.84,3.84,0,0,1-.4-1.72v-.26h3.5V272a1.23,1.23,0,0,0,.49,1,1.76,1.76,0,0,0,1.17.41,1.92,1.92,0,0,0,1.23-.41,1.22,1.22,0,0,0,.51-1,1.15,1.15,0,0,0-.54-.88,2.29,2.29,0,0,0-.56-.3q-.33-.12-.78-.24l-.66-.16c-.74-.19-1.31-.35-1.72-.5a3.33,3.33,0,0,1-1.14-.68l-.08-.08a4.26,4.26,0,0,1-1-1.4,3.74,3.74,0,0,1-.37-1.64,3.84,3.84,0,0,1,.4-1.72,4.4,4.4,0,0,1,1.14-1.46,5.41,5.41,0,0,1,1.67-.95,5.79,5.79,0,0,1,2-.33,5.89,5.89,0,0,1,2,.33,5.57,5.57,0,0,1,1.68.95,4.5,4.5,0,0,1,1.13,1.46,4,4,0,0,1,.39,1.72v.26Z"/><path class="cls-3" d="M149.13,261.94v8.74a5.44,5.44,0,0,1-.75,2.8,5.59,5.59,0,0,1-2,2,5.5,5.5,0,0,1-2.81.75h-.32a5.41,5.41,0,0,1-2.8-.75,5.57,5.57,0,0,1-2-2,5.44,5.44,0,0,1-.75-2.8v-8.74H141v7.94a3.4,3.4,0,0,0,.6,2.06,1.91,1.91,0,0,0,1.64.82h.32a2,2,0,0,0,1.63-.83,3.29,3.29,0,0,0,.63-2.05v-7.94Z"/><path class="cls-3" d="M157.19,266.4v-.26a1.26,1.26,0,0,0-.49-1,1.83,1.83,0,0,0-1.19-.41,1.92,1.92,0,0,0-1.23.41,1.22,1.22,0,0,0-.51,1,.91.91,0,0,0,.52.86,4.25,4.25,0,0,0,1.36.56l.31.06.35.08a7,7,0,0,1,2.86,1.18l.18.16a4.47,4.47,0,0,1,1,1.38,4,4,0,0,1,.35,1.6,4,4,0,0,1-.39,1.72,4.5,4.5,0,0,1-1.13,1.46,5.57,5.57,0,0,1-1.68.95,5.89,5.89,0,0,1-2,.33,5.79,5.79,0,0,1-2-.33,5.41,5.41,0,0,1-1.67-.95,4.4,4.4,0,0,1-1.14-1.46,3.84,3.84,0,0,1-.4-1.72v-.26h3.5V272a1.23,1.23,0,0,0,.49,1,1.76,1.76,0,0,0,1.17.41,1.92,1.92,0,0,0,1.23-.41,1.22,1.22,0,0,0,.51-1,1.15,1.15,0,0,0-.54-.88,2.29,2.29,0,0,0-.56-.3q-.33-.12-.78-.24l-.66-.16c-.74-.19-1.31-.35-1.72-.5a3.33,3.33,0,0,1-1.14-.68l-.08-.08a4.26,4.26,0,0,1-1.05-1.4,3.74,3.74,0,0,1-.37-1.64,3.84,3.84,0,0,1,.4-1.72,4.4,4.4,0,0,1,1.14-1.46,5.41,5.41,0,0,1,1.67-.95,5.79,5.79,0,0,1,2-.33,5.89,5.89,0,0,1,2,.33,5.57,5.57,0,0,1,1.68.95,4.5,4.5,0,0,1,1.13,1.46,4,4,0,0,1,.39,1.72v.26Z"/><path class="cls-3" d="M171.47,273v3.06h-9.62V261.92h9.44V265h-5.82v2.48h4.9v3.06h-4.9V273Z"/><path class="cls-3" d="M179.27,261.87a8.07,8.07,0,0,1,2.13.51,6.12,6.12,0,0,1,1.95,1.22,7.15,7.15,0,0,1,1.73,2.43,7.37,7.37,0,0,1,.61,2.91,6.88,6.88,0,0,1-.78,3.26,6.57,6.57,0,0,1-2.19,2.5,7.78,7.78,0,0,1-2.88,1.13,21.1,21.1,0,0,1-3.57.27l-1.64,0-1.56,0v-14.3h3.62C177.69,261.76,178.55,261.8,179.27,261.87Zm3,7.07a3.63,3.63,0,0,0-.48-1.81,3.82,3.82,0,0,0-1.31-1.37,3.45,3.45,0,0,0-1.81-.54h-2v7.38a15.85,15.85,0,0,0,2.47-.17,4.27,4.27,0,0,0,1.86-.79,3.14,3.14,0,0,0,1.13-1.86A4.54,4.54,0,0,0,182.25,268.94Z"/><path class="cls-3" d="M202.73,265h-6.24v2.48h5v3.06h-5v5.54h-3.6V261.92h9.84Z"/><path class="cls-3" d="M214.27,262.88a7.17,7.17,0,0,1,3.56,6.2,7.06,7.06,0,0,1-1,3.58,7.2,7.2,0,0,1-2.6,2.6,7.17,7.17,0,0,1-7.17,0,7.15,7.15,0,0,1-2.61-2.6,7.17,7.17,0,0,1,0-7.17,7.1,7.1,0,0,1,2.61-2.61,7.17,7.17,0,0,1,7.17,0Zm-1.74,9.38a3.91,3.91,0,0,0,1.34-1.34,3.55,3.55,0,0,0,.5-1.84,3.62,3.62,0,0,0-.5-1.85,3.85,3.85,0,0,0-1.34-1.35,3.61,3.61,0,0,0-1.84-.5,3.65,3.65,0,0,0-1.86.5,3.69,3.69,0,0,0-1.34,1.35,3.52,3.52,0,0,0-.5,1.85,3.46,3.46,0,0,0,.5,1.84,3.74,3.74,0,0,0,1.34,1.34,3.65,3.65,0,0,0,1.86.5A3.61,3.61,0,0,0,212.53,272.26Z"/><path class="cls-3" d="M230.56,276.06H227l-2.24-5.34h-2.3v5.34H219V261.92h6.74a4.32,4.32,0,0,1,2.2.59,4.39,4.39,0,0,1,1.62,1.61,4.39,4.39,0,0,1,0,4.31,4.64,4.64,0,0,1-1.46,1.59Zm-4-10.77a1.32,1.32,0,0,0-.94-.47h-3.31v3h3.31a1.38,1.38,0,0,0,.94-.49,1.48,1.48,0,0,0,.38-1A1.45,1.45,0,0,0,226.58,265.29Z"/><path class="cls-3" d="M232.36,269.36a1.83,1.83,0,0,1-.5-1.16,1.62,1.62,0,0,1,1.62-1.66,1.62,1.62,0,0,1,1.66,1.66,1.56,1.56,0,0,1-.49,1.16,1.59,1.59,0,0,1-1.17.48A1.5,1.5,0,0,1,232.36,269.36Zm0,6.22a1.83,1.83,0,0,1-.5-1.16,1.62,1.62,0,0,1,1.62-1.66,1.62,1.62,0,0,1,1.66,1.66,1.56,1.56,0,0,1-.49,1.16,1.59,1.59,0,0,1-1.17.48A1.5,1.5,0,0,1,232.36,275.58Z"/><path class="cls-3" d="M57.08,63.3a8.79,8.79,0,0,1,1,4.16,8.64,8.64,0,0,1-1.19,4.46,9,9,0,0,1-7.74,4.51H33.63V45.28H47.75a8.55,8.55,0,0,1,4.53,1.23,9,9,0,0,1,3.19,3.26,8.63,8.63,0,0,1,1.17,4.4,9,9,0,0,1-2.33,6A8.86,8.86,0,0,1,57.08,63.3ZM48.87,52.6a3.07,3.07,0,0,0-2.26-.94H40.89v6.6h5.72a7.15,7.15,0,0,0,1-.18,2.73,2.73,0,0,0,.8-.44,3.35,3.35,0,0,0,1-1.18,3.48,3.48,0,0,0,.35-1.54A3.19,3.19,0,0,0,48.87,52.6ZM50.19,69a3.11,3.11,0,0,0,.91-2.33,3.26,3.26,0,0,0-2.64-3.21q-.27,0-6.25,0H40.89v6.6h7A3.22,3.22,0,0,0,50.19,69Z"/><path class="cls-3" d="M83.48,47.43a15.77,15.77,0,0,1,5.72,5.75A15.79,15.79,0,0,1,89.2,69a15.76,15.76,0,0,1-5.72,5.72,15.79,15.79,0,0,1-15.77,0A15.69,15.69,0,0,1,62,69a15.79,15.79,0,0,1,0-15.77,15.7,15.7,0,0,1,5.75-5.75,15.79,15.79,0,0,1,15.77,0ZM79.65,68.07a8.34,8.34,0,0,0,2.95-2.95,7.79,7.79,0,0,0,1.1-4.05A7.94,7.94,0,0,0,82.6,57a8.39,8.39,0,0,0-2.95-3,7.79,7.79,0,0,0-4.05-1.1A7.94,7.94,0,0,0,71.53,54a8.45,8.45,0,0,0-3,3,7.94,7.94,0,0,0-1.1,4.07,7.79,7.79,0,0,0,1.1,4.05,8.39,8.39,0,0,0,3,2.95,7.94,7.94,0,0,0,4.07,1.1A7.79,7.79,0,0,0,79.65,68.07Z"/><path class="cls-3" d="M119.25,45.37V64.59a12,12,0,0,1-1.65,6.16,12.33,12.33,0,0,1-10.67,6.12h-.7a12,12,0,0,1-6.16-1.65,12.28,12.28,0,0,1-4.47-4.47A12,12,0,0,1,94,64.59V45.37h7.35V62.83a7.51,7.51,0,0,0,1.32,4.54,4.23,4.23,0,0,0,3.61,1.8h.7a4.31,4.31,0,0,0,3.59-1.83,7.25,7.25,0,0,0,1.38-4.51V45.37Z"/><path class="cls-3" d="M139.89,45.32h7.92V76.43h-7.92l-9.16-16.68V76.43h-8V45.32h8L139.89,62Z"/><path class="cls-3" d="M174.78,45.32v7.92h-8V76.43h-8V53.24h-8V45.32h23.89Z"/><path class="cls-3" d="M194.4,45.32h7.92l-9.15,18.44V76.43h-7.92V63.76L176.1,45.32H184l5.19,10.61Z"/><g class="cls-4"><path class="cls-3" d="M129.37,123.17V123a1,1,0,0,0-.37-.76,1.38,1.38,0,0,0-.91-.31,1.44,1.44,0,0,0-.94.31.94.94,0,0,0-.39.76.69.69,0,0,0,.4.65,3.1,3.1,0,0,0,1,.43l.24,0,.27.06a5.11,5.11,0,0,1,2.18.9l.14.12a3.29,3.29,0,0,1,.73,1.06,3,3,0,0,1,0,2.53,3.43,3.43,0,0,1-.87,1.12,4.12,4.12,0,0,1-1.28.72,4.46,4.46,0,0,1-1.5.26,4.41,4.41,0,0,1-1.49-.26,4.18,4.18,0,0,1-1.27-.72,3.43,3.43,0,0,1-.87-1.12,2.87,2.87,0,0,1-.31-1.31v-.2h2.67v.2a.94.94,0,0,0,.38.75,1.35,1.35,0,0,0,.89.32,1.45,1.45,0,0,0,.94-.32.93.93,0,0,0,.39-.75.87.87,0,0,0-.41-.67,1.47,1.47,0,0,0-.43-.23,5.93,5.93,0,0,0-.59-.19l-.51-.12c-.56-.14-1-.27-1.31-.38a2.58,2.58,0,0,1-.87-.52l-.06-.06a3.45,3.45,0,0,1-.81-1.07,3,3,0,0,1-.28-1.25,2.91,2.91,0,0,1,.31-1.32,3.4,3.4,0,0,1,.87-1.11,4,4,0,0,1,1.27-.73,4.4,4.4,0,0,1,1.49-.25,4.46,4.46,0,0,1,1.5.25,4,4,0,0,1,1.28.73,3.4,3.4,0,0,1,.87,1.11A3.17,3.17,0,0,1,132,123v.19Z"/><path class="cls-3" d="M141.71,119.77v6.67a4.23,4.23,0,0,1-2.13,3.69,4.09,4.09,0,0,1-2.14.58h-.25a4.12,4.12,0,0,1-2.14-.58,4.27,4.27,0,0,1-1.55-1.55,4.16,4.16,0,0,1-.57-2.14v-6.67h2.55v6.06a2.59,2.59,0,0,0,.46,1.58,1.48,1.48,0,0,0,1.25.62h.25a1.49,1.49,0,0,0,1.24-.63,2.53,2.53,0,0,0,.48-1.57v-6.06Z"/><path class="cls-3" d="M151.08,126a3.14,3.14,0,0,1,.35,1.45A3.1,3.1,0,0,1,151,129a3.12,3.12,0,0,1-2.69,1.56h-5.39v-10.8h4.9a2.89,2.89,0,0,1,1.57.43,3.08,3.08,0,0,1,1.11,1.13,3,3,0,0,1,.41,1.52,3.15,3.15,0,0,1-.22,1.13,3,3,0,0,1-.59,1A3.25,3.25,0,0,1,151.08,126Zm-2.85-3.71a1.07,1.07,0,0,0-.79-.33h-2v2.29h2l.37-.06a1,1,0,0,0,.27-.15,1.18,1.18,0,0,0,.36-.41,1.19,1.19,0,0,0,.12-.54A1.09,1.09,0,0,0,148.23,122.28Zm.46,5.71a1.15,1.15,0,0,0-.61-1.93h-2.62v2.29h2.44A1.13,1.13,0,0,0,148.69,128Z"/><path class="cls-3" d="M157.28,123.17V123a1,1,0,0,0-.37-.76,1.38,1.38,0,0,0-.91-.31,1.44,1.44,0,0,0-.94.31.94.94,0,0,0-.39.76.69.69,0,0,0,.4.65,3.07,3.07,0,0,0,1,.43l.23,0,.27.06a5.11,5.11,0,0,1,2.18.9l.14.12a3.29,3.29,0,0,1,.73,1.06,2.94,2.94,0,0,1,.26,1.22,3,3,0,0,1-.29,1.31,3.43,3.43,0,0,1-.87,1.12,4.12,4.12,0,0,1-1.28.72,4.46,4.46,0,0,1-1.5.26,4.41,4.41,0,0,1-1.49-.26,4.18,4.18,0,0,1-1.27-.72,3.43,3.43,0,0,1-.87-1.12,2.87,2.87,0,0,1-.31-1.31v-.2h2.68v.2a.93.93,0,0,0,.37.75,1.35,1.35,0,0,0,.89.32,1.45,1.45,0,0,0,.94-.32.93.93,0,0,0,.39-.75.87.87,0,0,0-.41-.67,1.47,1.47,0,0,0-.43-.23,5.93,5.93,0,0,0-.59-.19l-.51-.12c-.56-.14-1-.27-1.31-.38a2.58,2.58,0,0,1-.87-.52l-.06-.06a3.45,3.45,0,0,1-.81-1.07A3,3,0,0,1,152,123a2.91,2.91,0,0,1,.31-1.32,3.4,3.4,0,0,1,.87-1.11,4,4,0,0,1,1.27-.73,4.4,4.4,0,0,1,1.49-.25,4.46,4.46,0,0,1,1.5.25,4,4,0,0,1,1.28.73,3.4,3.4,0,0,1,.87,1.11,3,3,0,0,1,.29,1.32v.19Z"/><path class="cls-3" d="M167.07,127.78a3,3,0,0,0,.92-.6l1.86,1.86a5.49,5.49,0,0,1-1.75,1.19,5.47,5.47,0,0,1-4.85-.32,5.53,5.53,0,0,1-2-2,5.51,5.51,0,0,1,0-5.48,5.4,5.4,0,0,1,2-2,5.47,5.47,0,0,1,4.85-.32,5.49,5.49,0,0,1,1.75,1.19L168,123.19a2.87,2.87,0,0,0-.92-.6,2.79,2.79,0,0,0-2.49.16,2.88,2.88,0,0,0-1,1,2.81,2.81,0,0,0,0,2.82,2.93,2.93,0,0,0,1,1,2.79,2.79,0,0,0,2.49.16Z"/><path class="cls-3" d="M179.59,130.55h-2.77l-1.71-4.08h-1.76v4.08h-2.58v-10.8h5.15a3.36,3.36,0,0,1,3.36,3.36,3.36,3.36,0,0,1-.41,1.62,3.51,3.51,0,0,1-1.12,1.21Zm-3-8.22a1,1,0,0,0-.72-.36h-2.54v2.29h2.54a1.15,1.15,0,0,0,.72-.37,1.18,1.18,0,0,0,.29-.79A1.13,1.13,0,0,0,176.55,122.33Z"/><path class="cls-3" d="M183.25,119.75v10.8H180.5v-10.8Z"/><path class="cls-3" d="M192.62,126a3.14,3.14,0,0,1,.35,1.45,3.13,3.13,0,0,1-1.54,2.68,3.1,3.1,0,0,1-1.56.43h-5.4v-10.8h4.91a2.92,2.92,0,0,1,1.57.43,3.08,3.08,0,0,1,1.11,1.13,3,3,0,0,1,.4,1.52,3.14,3.14,0,0,1-.21,1.13,2.84,2.84,0,0,1-.6,1A3.17,3.17,0,0,1,192.62,126Zm-2.85-3.71A1.07,1.07,0,0,0,189,122h-2v2.29h2l.37-.06a1,1,0,0,0,.27-.15,1.15,1.15,0,0,0,.35-.41,1.2,1.2,0,0,0,.13-.54A1.09,1.09,0,0,0,189.77,122.28Zm.46,5.71a1.19,1.19,0,0,0,.05-1.54,1.07,1.07,0,0,0-.66-.39H187v2.29h2.45A1.15,1.15,0,0,0,190.23,128Z"/><path class="cls-3" d="M201.23,128.22v2.33h-7.35v-10.8h7.21v2.34h-4.44V124h3.74v2.34h-3.74v1.9Z"/><path class="cls-3" d="M214.94,120.49a5.48,5.48,0,0,1,2,2,5.51,5.51,0,0,1,0,5.48,5.53,5.53,0,0,1-2,2,5.44,5.44,0,0,1-5.48,0,5.4,5.4,0,0,1-2-2,5.46,5.46,0,0,1,7.47-7.47Zm-1.33,7.16a2.85,2.85,0,0,0,1-1,2.81,2.81,0,0,0,0-2.82,2.88,2.88,0,0,0-1-1,2.81,2.81,0,0,0-2.82,0,2.75,2.75,0,0,0-1,1,2.74,2.74,0,0,0,0,2.82,2.73,2.73,0,0,0,1,1,2.81,2.81,0,0,0,2.82,0Z"/><path class="cls-3" d="M224.51,119.75h2.75v10.8h-2.75l-3.17-5.79v5.79h-2.77v-10.8h2.77l3.17,5.79Z"/><path class="cls-3" d="M240.58,122.09h-4.76V124h3.82v2.34h-3.82v4.23h-2.75v-10.8h7.51Z"/><path class="cls-3" d="M247.12,119.86l3.53,10.69H248l-.7-2.18H244l-.69,2.18h-2.68l3.55-10.69Zm-2.46,6.28h1.93l-1-3Z"/><path class="cls-3" d="M257.19,127.78a3.18,3.18,0,0,0,.92-.6L260,129a5.42,5.42,0,0,1-1.76,1.19,5.45,5.45,0,0,1-4.84-.32,5.45,5.45,0,0,1-2-2,5.46,5.46,0,0,1,6.82-7.79,5.42,5.42,0,0,1,1.76,1.19l-1.86,1.86a3,3,0,0,0-.92-.6,2.71,2.71,0,0,0-1.08-.22,2.67,2.67,0,0,0-1.41.38,2.8,2.8,0,0,0-1,1,2.74,2.74,0,0,0,0,2.82,2.85,2.85,0,0,0,1,1,2.67,2.67,0,0,0,1.41.38A2.71,2.71,0,0,0,257.19,127.78Z"/><path class="cls-3" d="M268.23,128.22v2.33h-7.34v-10.8h7.21v2.34h-4.45V124h3.75v2.34h-3.75v1.9Z"/><path class="cls-3" d="M277.6,126a3.14,3.14,0,0,1,.35,1.45,3.1,3.1,0,0,1-.41,1.55,3.12,3.12,0,0,1-2.69,1.56h-5.39v-10.8h4.9a2.89,2.89,0,0,1,1.57.43A3.08,3.08,0,0,1,277,121.3a3.09,3.09,0,0,1-.4,3.6A3.14,3.14,0,0,1,277.6,126Zm-2.85-3.71A1.07,1.07,0,0,0,274,122h-2v2.29h2l.37-.06a1.12,1.12,0,0,0,.28-.15,1.15,1.15,0,0,0,.35-.41,1.19,1.19,0,0,0,.12-.54A1.09,1.09,0,0,0,274.75,122.28Zm.46,5.71a1.16,1.16,0,0,0-.6-1.93H272v2.29h2.44A1.13,1.13,0,0,0,275.21,128Z"/><path class="cls-3" d="M286.77,120.49a5.48,5.48,0,0,1,2,2,5.44,5.44,0,0,1,0,5.48,5.53,5.53,0,0,1-2,2,5.44,5.44,0,0,1-5.48,0,5.4,5.4,0,0,1-2-2,5.46,5.46,0,0,1,7.47-7.47Zm-1.33,7.16a2.85,2.85,0,0,0,1-1,2.81,2.81,0,0,0,0-2.82,2.88,2.88,0,0,0-1-1,2.81,2.81,0,0,0-2.82,0,2.83,2.83,0,0,0-1,1,2.81,2.81,0,0,0,0,2.82,2.8,2.8,0,0,0,1,1,2.81,2.81,0,0,0,2.82,0Z"/><path class="cls-3" d="M298.3,120.49a5.5,5.5,0,0,1,2,2,5.51,5.51,0,0,1,0,5.48,5.55,5.55,0,0,1-2,2,5.44,5.44,0,0,1-5.48,0,5.48,5.48,0,0,1-2-2,5.51,5.51,0,0,1,0-5.48,5.43,5.43,0,0,1,2-2,5.44,5.44,0,0,1,5.48,0ZM297,127.65a2.77,2.77,0,0,0,1-1,2.74,2.74,0,0,0,0-2.82,2.8,2.8,0,0,0-1-1,2.81,2.81,0,0,0-2.82,0,2.9,2.9,0,0,0-1,1,2.81,2.81,0,0,0,0,2.82,2.88,2.88,0,0,0,1,1,2.81,2.81,0,0,0,2.82,0Z"/><path class="cls-3" d="M307.18,125.1l3.22,5.45h-3.06l-2.65-4.35v4.35h-2.75v-10.8h2.75V124l2.65-4.22h3.06Z"/></g><g class="cls-4"><path class="cls-3" d="M129.37,156v-.19a1,1,0,0,0-.37-.76,1.38,1.38,0,0,0-.91-.31,1.44,1.44,0,0,0-.94.31.94.94,0,0,0-.39.76.69.69,0,0,0,.4.65,3.07,3.07,0,0,0,1,.43l.23.05.27.06a5.11,5.11,0,0,1,2.18.9l.14.12a3.36,3.36,0,0,1,.73,1.05,3.07,3.07,0,0,1,0,2.54,3.43,3.43,0,0,1-.87,1.12,4.12,4.12,0,0,1-1.28.72,4.46,4.46,0,0,1-1.5.25,4.4,4.4,0,0,1-1.49-.25,4.18,4.18,0,0,1-1.27-.72,3.43,3.43,0,0,1-.87-1.12,2.9,2.9,0,0,1-.31-1.31v-.2h2.68v.2a1,1,0,0,0,.37.75,1.35,1.35,0,0,0,.89.32,1.45,1.45,0,0,0,.94-.32.94.94,0,0,0,.39-.75.9.9,0,0,0-.41-.68,1.74,1.74,0,0,0-.43-.22,4.12,4.12,0,0,0-.59-.19l-.51-.12c-.56-.14-1-.27-1.31-.38a2.58,2.58,0,0,1-.87-.52l-.06-.06a3.57,3.57,0,0,1-.81-1.07,3,3,0,0,1-.28-1.25,2.91,2.91,0,0,1,.31-1.32,3.3,3.3,0,0,1,.87-1.11,4,4,0,0,1,1.27-.73,4.4,4.4,0,0,1,1.49-.25,4.46,4.46,0,0,1,1.5.25,4,4,0,0,1,1.28.73,3.3,3.3,0,0,1,.87,1.11,3,3,0,0,1,.29,1.32V156Z"/><path class="cls-3" d="M138.77,152.6h2.75v10.8h-2.75v-4h-3.09v4h-2.75V152.6h2.75v4h3.09Z"/><path class="cls-3" d="M148.36,152.71l3.53,10.69h-2.66l-.7-2.18h-3.35l-.68,2.18h-2.68l3.55-10.69ZM145.9,159h1.93l-1-3Z"/><path class="cls-3" d="M161,163.4h-2.77l-1.71-4.08h-1.75v4.08h-2.59V152.6h5.15A3.36,3.36,0,0,1,160.7,156a3.19,3.19,0,0,1-.41,1.61,3.51,3.51,0,0,1-1.11,1.22Zm-3-8.22a1,1,0,0,0-.72-.36h-2.53v2.29h2.53a1.07,1.07,0,0,0,.72-.38,1.14,1.14,0,0,0,.29-.78A1.12,1.12,0,0,0,158,155.18Z"/><path class="cls-3" d="M169.27,161.07v2.33h-7.34V152.6h7.21v2.34h-4.45v1.89h3.74v2.34h-3.74v1.9Z"/><path class="cls-3" d="M177.83,160.81h4.25v2.59h-7V152.6h2.75Z"/><path class="cls-3" d="M188.77,152.71l3.53,10.69h-2.66l-.71-2.18h-3.34l-.69,2.18h-2.67l3.54-10.69ZM186.31,159h1.92l-1-3Z"/><path class="cls-3" d="M197.54,156v-.19a1,1,0,0,0-.38-.76,1.36,1.36,0,0,0-.91-.31,1.46,1.46,0,0,0-.94.31.94.94,0,0,0-.39.76.7.7,0,0,0,.4.65,3.07,3.07,0,0,0,1,.43l.24.05.26.06a5.23,5.23,0,0,1,2.19.9l.14.12a3.5,3.5,0,0,1,.72,1.05,3,3,0,0,1,0,2.54,3.54,3.54,0,0,1-.86,1.12,4.29,4.29,0,0,1-1.29.72,4.57,4.57,0,0,1-3,0,4.23,4.23,0,0,1-1.28-.72,3.43,3.43,0,0,1-.87-1.12,3,3,0,0,1-.3-1.31v-.2H195v.2a1,1,0,0,0,.37.75,1.36,1.36,0,0,0,.9.32,1.47,1.47,0,0,0,.94-.32.94.94,0,0,0,.39-.75.89.89,0,0,0-.42-.68,1.67,1.67,0,0,0-.42-.22,4.76,4.76,0,0,0-.6-.19l-.5-.12c-.56-.14-1-.27-1.32-.38a2.79,2.79,0,0,1-.87-.52l-.06-.06a3.53,3.53,0,0,1-.8-1.07,2.89,2.89,0,0,1-.28-1.25,3,3,0,0,1,.3-1.32,3.3,3.3,0,0,1,.87-1.11,4.06,4.06,0,0,1,1.28-.73,4.57,4.57,0,0,1,3,0,4.11,4.11,0,0,1,1.29.73,3.4,3.4,0,0,1,.86,1.11,3,3,0,0,1,.3,1.32V156Z"/><path class="cls-3" d="M209.24,152.6v2.75h-2.77v8.05h-2.76v-8.05h-2.77V152.6h8.3Z"/><path class="cls-3" d="M221.73,153.05a3.4,3.4,0,0,1,1.22,1.22,3.36,3.36,0,0,1-2.91,5h-2.57v4.08h-2.58V152.6H220A3.32,3.32,0,0,1,221.73,153.05Zm-1.06,2.13a1,1,0,0,0-.72-.36h-2.54v2.29H220a1,1,0,0,0,.72-.38,1.16,1.16,0,0,0,.3-.78A1.08,1.08,0,0,0,220.67,155.18Z"/><path class="cls-3" d="M232.21,153.33a5.45,5.45,0,0,1,2,2,5.51,5.51,0,0,1,0,5.48,5.48,5.48,0,0,1-2,2,5.27,5.27,0,0,1-2.73.73,5.33,5.33,0,0,1-2.74-.73,5.5,5.5,0,0,1-2-2,5.51,5.51,0,0,1,0-5.48,5.46,5.46,0,0,1,4.74-2.73A5.37,5.37,0,0,1,232.21,153.33Zm-1.33,7.17a3,3,0,0,0,1-1,2.81,2.81,0,0,0,0-2.82,2.83,2.83,0,0,0-1-1,2.62,2.62,0,0,0-1.4-.39,2.67,2.67,0,0,0-1.41.39,2.81,2.81,0,0,0-1,3.85,2.91,2.91,0,0,0,1,1,2.76,2.76,0,0,0,1.41.38A2.7,2.7,0,0,0,230.88,160.5Z"/><path class="cls-3" d="M240.78,156v-.19a1,1,0,0,0-.37-.76,1.36,1.36,0,0,0-.91-.31,1.44,1.44,0,0,0-.94.31.94.94,0,0,0-.39.76.69.69,0,0,0,.4.65,3.07,3.07,0,0,0,1,.43l.23.05.27.06a5.23,5.23,0,0,1,2.19.9l.13.12a3.36,3.36,0,0,1,.73,1.05,3,3,0,0,1,0,2.54,3.54,3.54,0,0,1-.86,1.12,4.29,4.29,0,0,1-1.29.72,4.46,4.46,0,0,1-1.5.25,4.34,4.34,0,0,1-1.48-.25,4.23,4.23,0,0,1-1.28-.72,3.43,3.43,0,0,1-.87-1.12,3,3,0,0,1-.31-1.31v-.2h2.68v.2a1,1,0,0,0,.37.75,1.35,1.35,0,0,0,.89.32,1.45,1.45,0,0,0,.94-.32.94.94,0,0,0,.39-.75.88.88,0,0,0-.41-.68,1.58,1.58,0,0,0-.43-.22,4.12,4.12,0,0,0-.59-.19l-.51-.12c-.56-.14-1-.27-1.31-.38a2.58,2.58,0,0,1-.87-.52l-.06-.06a3.37,3.37,0,0,1-.8-1.07,2.9,2.9,0,0,1-.29-1.25,3,3,0,0,1,.31-1.32,3.3,3.3,0,0,1,.87-1.11,4.06,4.06,0,0,1,1.28-.73,4.34,4.34,0,0,1,1.48-.25,4.46,4.46,0,0,1,1.5.25,4.11,4.11,0,0,1,1.29.73,3.4,3.4,0,0,1,.86,1.11,3,3,0,0,1,.3,1.32V156Z"/><path class="cls-3" d="M252.48,152.6v2.75h-2.76v8.05H247v-8.05h-2.77V152.6h8.29Z"/></g><g class="cls-4"><path class="cls-3" d="M130.1,185.42h2.56v6.68a4.12,4.12,0,0,1-.58,2.14,4.34,4.34,0,0,1-1.55,1.55,4.28,4.28,0,0,1-4.27,0,4.37,4.37,0,0,1-1.56-1.55,4.21,4.21,0,0,1-.57-2.14v-.45h2.55a2.44,2.44,0,0,0,.49,1.46,1.54,1.54,0,0,0,2.45-.06,2.5,2.5,0,0,0,.48-1.56Z"/><path class="cls-3" d="M141.78,186.18a5.5,5.5,0,0,1,2,2,5.44,5.44,0,0,1,0,5.48,5.53,5.53,0,0,1-2,2,5.51,5.51,0,0,1-5.48,0,5.4,5.4,0,0,1-2-2,5.49,5.49,0,0,1,2-7.48,5.51,5.51,0,0,1,5.48,0Zm-1.33,7.17a2.93,2.93,0,0,0,1-1,2.81,2.81,0,0,0,0-2.82,2.73,2.73,0,0,0-1-1,2.74,2.74,0,0,0-2.82,0,2.75,2.75,0,0,0-1,1,2.81,2.81,0,0,0,0,2.82,3,3,0,0,0,1,1,2.81,2.81,0,0,0,2.82,0Z"/><path class="cls-3" d="M148.16,185.45v10.8h-2.75v-10.8Z"/><path class="cls-3" d="M155.33,185.45h2.75v10.8h-2.75l-3.18-5.79v5.79h-2.77v-10.8h2.77l3.18,5.79Z"/><path class="cls-3" d="M171.78,186.18a5.53,5.53,0,0,1,2,2,5.51,5.51,0,0,1,0,5.48,5.55,5.55,0,0,1-2,2,5.51,5.51,0,0,1-5.48,0,5.48,5.48,0,0,1-2-2,5.51,5.51,0,0,1,0-5.48,5.48,5.48,0,0,1,7.47-2Zm-1.33,7.17a2.93,2.93,0,0,0,1-1,2.74,2.74,0,0,0,0-2.82,2.73,2.73,0,0,0-1-1,2.74,2.74,0,0,0-2.82,0,2.81,2.81,0,0,0-1,3.85,3,3,0,0,0,1,1,2.81,2.81,0,0,0,2.82,0Z"/><path class="cls-3" d="M184.2,185.47v6.67a4.16,4.16,0,0,1-.57,2.14,4.37,4.37,0,0,1-1.56,1.55,4.22,4.22,0,0,1-2.15.57h-.24a4.16,4.16,0,0,1-2.14-.57,4.27,4.27,0,0,1-1.55-1.55,4.16,4.16,0,0,1-.58-2.14v-6.67H178v6.06a2.6,2.6,0,0,0,.45,1.57,1.48,1.48,0,0,0,1.26.63h.24a1.5,1.5,0,0,0,1.25-.63,2.55,2.55,0,0,0,.48-1.57v-6.06Z"/><path class="cls-3" d="M194.24,196.25h-2.77l-1.71-4.08H188v4.08h-2.58v-10.8h5.15a3.36,3.36,0,0,1,3,5,3.54,3.54,0,0,1-1.12,1.22Zm-3-8.22a1,1,0,0,0-.72-.36h-2.54V190h2.54a1.11,1.11,0,0,0,.72-.38,1.14,1.14,0,0,0,.29-.78A1.12,1.12,0,0,0,191.2,188Z"/><path class="cls-3" d="M206,193.48a3.13,3.13,0,0,0,.91-.6l1.87,1.86a5.5,5.5,0,0,1-1.76,1.18,5.49,5.49,0,0,1-4.84-.31,5.43,5.43,0,0,1-2-2,5.27,5.27,0,0,1-.73-2.73,5.33,5.33,0,0,1,.73-2.74,5.45,5.45,0,0,1,2-2,5.39,5.39,0,0,1,2.73-.73,5.33,5.33,0,0,1,2.11.42,5.67,5.67,0,0,1,1.76,1.18l-1.87,1.87a2.77,2.77,0,0,0-.91-.6,2.73,2.73,0,0,0-1.09-.23,2.64,2.64,0,0,0-1.4.39,2.83,2.83,0,0,0-1,1,2.76,2.76,0,0,0-.38,1.41,2.7,2.7,0,0,0,.38,1.4,3,3,0,0,0,1,1,2.79,2.79,0,0,0,2.49.16Z"/><path class="cls-3" d="M217.56,186.18a5.45,5.45,0,0,1,2,2,5.51,5.51,0,0,1,0,5.48,5.48,5.48,0,0,1-2,2,5.27,5.27,0,0,1-2.73.73,5.33,5.33,0,0,1-2.74-.73,5.5,5.5,0,0,1-2-2,5.51,5.51,0,0,1,0-5.48,5.46,5.46,0,0,1,4.74-2.73A5.37,5.37,0,0,1,217.56,186.18Zm-1.33,7.17a3,3,0,0,0,1-1,2.81,2.81,0,0,0,0-2.82,2.83,2.83,0,0,0-1-1,2.62,2.62,0,0,0-1.4-.39,2.67,2.67,0,0,0-1.41.39,2.81,2.81,0,0,0-1,3.85,3,3,0,0,0,1,1,2.76,2.76,0,0,0,1.41.38A2.7,2.7,0,0,0,216.23,193.35Z"/><path class="cls-3" d="M229.52,185.45h2.75v10.8h-2.75v-6.09l-1.34,2.44-.06.12h-2.75l-.08-.12-.18-.35L224,190.16v6.09H221.2v-10.8H224l2.78,4.6Z"/><path class="cls-3" d="M241.82,185.45h2.75v10.8h-2.75v-6.09l-1.34,2.44-.06.12h-2.75l-.08-.12-.18-.35-1.15-2.09v6.09H233.5v-10.8h2.76l2.78,4.6Z"/><path class="cls-3" d="M254.58,185.47v6.67a4.16,4.16,0,0,1-.57,2.14,4.37,4.37,0,0,1-1.56,1.55,4.24,4.24,0,0,1-2.15.57h-.24a4.16,4.16,0,0,1-2.14-.57,4.27,4.27,0,0,1-1.55-1.55,4.16,4.16,0,0,1-.58-2.14v-6.67h2.56v6.06a2.6,2.6,0,0,0,.45,1.57,1.48,1.48,0,0,0,1.26.63h.24a1.5,1.5,0,0,0,1.25-.63,2.55,2.55,0,0,0,.48-1.57v-6.06Z"/><path class="cls-3" d="M261.74,185.45h2.75v10.8h-2.75l-3.17-5.79v5.79H255.8v-10.8h2.77l3.17,5.79Z"/><path class="cls-3" d="M268.46,185.45v10.8h-2.75v-10.8Z"/><path class="cls-3" d="M277.83,185.45v2.75h-2.77v8.05H272.3V188.2h-2.77v-2.75h8.3Z"/><path class="cls-3" d="M284.64,185.45h2.75l-3.18,6.4v4.4h-2.74v-4.4l-3.18-6.4H281l1.8,3.68Z"/></g><g class="cls-4"><path class="cls-3" d="M134.83,229.68H131.6l-2-4.76h-2.05v4.76h-3V217.07h6a3.93,3.93,0,0,1,3.93,3.93,3.84,3.84,0,0,1-.48,1.88,4.24,4.24,0,0,1-1.31,1.42Zm-3.55-9.6a1.14,1.14,0,0,0-.83-.42h-3v2.67h3a1.23,1.23,0,0,0,.83-.43,1.34,1.34,0,0,0,.34-.92A1.28,1.28,0,0,0,131.28,220.08Z"/><path class="cls-3" d="M144.49,227v2.73H135.9V217.07h8.43v2.73h-5.2V222h4.37v2.73h-4.37V227Z"/><path class="cls-3" d="M153.19,226.45a3.57,3.57,0,0,0,1.07-.71l2.18,2.18a6.61,6.61,0,0,1-2.05,1.38,6.4,6.4,0,0,1-5.66-.37,6.42,6.42,0,0,1-2.32-2.31,6.45,6.45,0,0,1,0-6.4,6.4,6.4,0,0,1,2.32-2.33,6.24,6.24,0,0,1,3.2-.86,6.29,6.29,0,0,1,4.51,1.88l-2.18,2.17a3.54,3.54,0,0,0-1.07-.7,3.19,3.19,0,0,0-1.26-.26,3.15,3.15,0,0,0-1.65.45,3.42,3.42,0,0,0-1.19,1.2,3.2,3.2,0,0,0-.45,1.65,3.11,3.11,0,0,0,.45,1.64,3.5,3.5,0,0,0,1.19,1.2,3.14,3.14,0,0,0,1.65.44A3.18,3.18,0,0,0,153.19,226.45Z"/><path class="cls-3" d="M166.09,227v2.73h-8.58V217.07h8.42v2.73h-5.19V222h4.37v2.73h-4.37V227Z"/><path class="cls-3" d="M170.73,217.07v12.61h-3.21V217.07Z"/><path class="cls-3" d="M180.45,217H184l-4.12,12.65H175.9L171.8,217h3.53l2.55,7.89Z"/><path class="cls-3" d="M193.6,227v2.73H185V217.07h8.42v2.73h-5.19V222h4.37v2.73h-4.37V227Z"/><path class="cls-3" d="M209.89,224.36a3.48,3.48,0,0,1,.41,1.68,3.61,3.61,0,0,1-1.79,3.13,3.6,3.6,0,0,1-1.83.51h-6.3V217.05h5.73a3.5,3.5,0,0,1,1.84.5,3.71,3.71,0,0,1,1.29,1.32,3.61,3.61,0,0,1,.22,3.1,3.52,3.52,0,0,1-.69,1.11A3.63,3.63,0,0,1,209.89,224.36ZM206.56,220a1.25,1.25,0,0,0-.91-.38h-2.32v2.68h2.32a2.6,2.6,0,0,0,.42-.08,1,1,0,0,0,.32-.17,1.51,1.51,0,0,0,.42-.49A1.41,1.41,0,0,0,207,221,1.28,1.28,0,0,0,206.56,220Zm.54,6.67a1.3,1.3,0,0,0,.37-.95,1.33,1.33,0,0,0-.31-.85,1.3,1.3,0,0,0-.77-.45c-.07,0-.91,0-2.53,0h-.53v2.68h2.85A1.35,1.35,0,0,0,207.1,226.69Z"/><path class="cls-3" d="M220.6,217.93a6.45,6.45,0,0,1,2.32,2.32,6.29,6.29,0,0,1,.85,3.21,6.2,6.2,0,0,1-.85,3.19A6.45,6.45,0,0,1,220.6,229a6.38,6.38,0,0,1-6.4,0,6.32,6.32,0,0,1-2.33-2.32,6.2,6.2,0,0,1-.85-3.19,6.38,6.38,0,0,1,9.58-5.53ZM219,226.29a3.34,3.34,0,0,0,1.2-1.19,3.23,3.23,0,0,0,0-3.29,3.39,3.39,0,0,0-1.2-1.21,3.1,3.1,0,0,0-1.64-.44,3.19,3.19,0,0,0-1.65.44,3.39,3.39,0,0,0-1.2,1.21,3.23,3.23,0,0,0,0,3.29,3.34,3.34,0,0,0,1.2,1.19,3.2,3.2,0,0,0,1.65.45A3.11,3.11,0,0,0,219,226.29Z"/><path class="cls-3" d="M235.1,217.09v7.79a4.8,4.8,0,0,1-.67,2.5,5,5,0,0,1-4.32,2.48h-.29a4.83,4.83,0,0,1-2.5-.67,5,5,0,0,1-1.81-1.81,4.9,4.9,0,0,1-.67-2.5v-7.79h3v7.08a3,3,0,0,0,.54,1.84,1.69,1.69,0,0,0,1.46.73h.29a1.75,1.75,0,0,0,1.45-.74,3,3,0,0,0,.56-1.83v-7.08Z"/><path class="cls-3" d="M243.47,217.07h3.21v12.61h-3.21l-3.71-6.76v6.76h-3.23V217.07h3.23l3.71,6.76Z"/><path class="cls-3" d="M257.62,217.07v3.21h-3.23v9.4h-3.23v-9.4h-3.23v-3.21h9.69Z"/><path class="cls-3" d="M265.57,217.07h3.22l-3.72,7.47v5.14h-3.21v-5.14l-3.71-7.47h3.21l2.11,4.3Z"/></g><polygon class="cls-5" points="111.83 132.58 97.09 132.58 96.24 117.72 111.83 117.83 111.83 132.58"/><path class="cls-2" d="M94,115.94c0,.28,11.05,14.8,11.05,14.8l24.64-26L106.07,121Z"/><polygon class="cls-5" points="96.24 163.38 110.99 163.38 111.83 148.53 96.24 148.63 96.24 163.38"/><path class="cls-2" d="M94,146.75C94,147,105,161.54,105,161.54l24.64-26L106.07,151.8Z"/><polygon class="cls-5" points="111.83 196.25 97.09 196.25 96.24 181.4 111.83 181.5 111.83 196.25"/><path class="cls-2" d="M94,179.62c0,.28,11.05,14.8,11.05,14.8l24.64-26-23.61,16.3Z"/><polygon class="cls-5" points="96.24 229.68 110.99 229.68 111.83 214.83 96.24 214.93 96.24 229.68"/></svg>