<svg id="Слой_1" data-name="Слой 1" xmlns="http://www.w3.org/2000/svg" viewBox="0 0 405 405"><defs><style>.cls-1{fill:#fed841;}.cls-2{fill:#e7335d;}</style></defs><rect class="cls-1" width="405" height="405"/><path class="cls-2" d="M35,271.76v9.9H32.43v-9.9Z"/><path class="cls-2" d="M43.53,271.76v2.52H41v7.38H38.46v-7.38H35.93v-2.52h7.6Z"/><path class="cls-2" d="M53.86,271.86l3.23,9.8H54.66l-.65-2H51l-.63,2H47.87l3.25-9.8Zm-2.25,5.75h1.76l-.88-2.77Z"/><path class="cls-2" d="M59.89,279.28h3.9v2.38H57.37v-9.9h2.52Z"/><path class="cls-2" d="M67.29,279.28h3.89v2.38H64.77v-9.9h2.52Z"/><path class="cls-2" d="M79.4,272.43a5.07,5.07,0,0,1,1.82,1.83,5,5,0,0,1,.67,2.51,4.94,4.94,0,0,1-.67,2.51,5,5,0,0,1-1.82,1.82,5,5,0,0,1-5,0,5,5,0,0,1-1.83-1.82,4.84,4.84,0,0,1-.67-2.51,4.89,4.89,0,0,1,.67-2.51,5,5,0,0,1,4.34-2.5A5,5,0,0,1,79.4,272.43ZM78.18,279a2.73,2.73,0,0,0,.94-.94,2.5,2.5,0,0,0,.35-1.29,2.55,2.55,0,0,0-.35-1.29,2.76,2.76,0,0,0-.94-1,2.55,2.55,0,0,0-2.58,0,2.62,2.62,0,0,0-.95,1,2.55,2.55,0,0,0-.35,1.29,2.5,2.5,0,0,0,.35,1.29,2.6,2.6,0,0,0,.95.94,2.55,2.55,0,0,0,2.58,0Z"/><path class="cls-2" d="M90.69,271.76h2.19v9.9H90.36l-2.55-4.21-2.56,4.21H82.73v-9.9h2.52v5.59l1.23-2.24.07-.11h2.52l.06.11,1.23,2.24v-5.59Z"/><path class="cls-2" d="M98.52,274.9v-.18a.88.88,0,0,0-.34-.7,1.27,1.27,0,0,0-.84-.28,1.35,1.35,0,0,0-.86.28.89.89,0,0,0-.35.7.64.64,0,0,0,.36.6,2.92,2.92,0,0,0,1,.39l.22,0,.24.06a5,5,0,0,1,2,.82l.12.12a3.13,3.13,0,0,1,.67,1,2.79,2.79,0,0,1,0,2.33,3.19,3.19,0,0,1-.79,1,3.7,3.7,0,0,1-1.18.66,4.2,4.2,0,0,1-2.74,0,3.6,3.6,0,0,1-1.16-.66,3.09,3.09,0,0,1-.8-1,2.72,2.72,0,0,1-.28-1.21v-.18h2.45v.18a.89.89,0,0,0,.34.7,1.24,1.24,0,0,0,.82.28,1.33,1.33,0,0,0,.86-.28.89.89,0,0,0,.36-.7.8.8,0,0,0-.38-.61,1.22,1.22,0,0,0-.39-.21,3.64,3.64,0,0,0-.55-.17l-.46-.11c-.51-.13-.91-.25-1.2-.35a2.44,2.44,0,0,1-.8-.48l-.06-.06a2.89,2.89,0,0,1-.73-1,2.51,2.51,0,0,1-.26-1.14,2.72,2.72,0,0,1,.28-1.21,3.09,3.09,0,0,1,.8-1,3.6,3.6,0,0,1,1.16-.66,4,4,0,0,1,2.74,0,3.7,3.7,0,0,1,1.18.66,3.19,3.19,0,0,1,.79,1,2.85,2.85,0,0,1,.27,1.21v.18Z"/><path class="cls-2" d="M111.25,271.76h2.52l-2.92,5.87v4h-2.52v-4l-2.91-5.87h2.52l1.65,3.38Z"/><path class="cls-2" d="M121.56,272.43a5.06,5.06,0,0,1,2.5,4.34,5,5,0,0,1-5,5,4.9,4.9,0,0,1-2.52-.67,5,5,0,0,1-1.82-1.82,4.84,4.84,0,0,1-.67-2.51,4.89,4.89,0,0,1,.67-2.51,5,5,0,0,1,4.34-2.5A4.93,4.93,0,0,1,121.56,272.43ZM120.35,279a2.62,2.62,0,0,0,.93-.94,2.41,2.41,0,0,0,.35-1.29,2.45,2.45,0,0,0-.35-1.29,2.65,2.65,0,0,0-.93-1,2.57,2.57,0,0,0-2.59,0,2.67,2.67,0,0,0-.94,1,2.45,2.45,0,0,0-.35,1.29,2.41,2.41,0,0,0,.35,1.29,2.65,2.65,0,0,0,.94.94,2.57,2.57,0,0,0,2.59,0Z"/><path class="cls-2" d="M133,271.78v6.11a3.79,3.79,0,0,1-.53,2,3.92,3.92,0,0,1-1.43,1.43,3.81,3.81,0,0,1-2,.52h-.23a3.81,3.81,0,0,1-2-.52,3.9,3.9,0,0,1-1.42-1.43,3.78,3.78,0,0,1-.52-2v-6.11h2.33v5.55a2.41,2.41,0,0,0,.42,1.45,1.36,1.36,0,0,0,1.15.57H129a1.38,1.38,0,0,0,1.14-.58,2.35,2.35,0,0,0,.44-1.44v-5.55Z"/><path class="cls-2" d="M145.73,271.76v2.52h-2.54v7.38h-2.53v-7.38h-2.53v-2.52h7.6Z"/><path class="cls-2" d="M154,272.43a5.07,5.07,0,0,1,1.82,1.83,5,5,0,0,1,.67,2.51,4.94,4.94,0,0,1-.67,2.51A5,5,0,0,1,154,281.1a5,5,0,0,1-5,0,5,5,0,0,1-1.83-1.82,4.84,4.84,0,0,1-.67-2.51,4.89,4.89,0,0,1,.67-2.51,5,5,0,0,1,1.83-1.83,5,5,0,0,1,5,0ZM152.73,279a2.73,2.73,0,0,0,.94-.94,2.5,2.5,0,0,0,.35-1.29,2.55,2.55,0,0,0-.35-1.29,2.76,2.76,0,0,0-.94-1,2.52,2.52,0,0,0-1.29-.35,2.56,2.56,0,0,0-1.3.35,2.67,2.67,0,0,0-.94,1,2.55,2.55,0,0,0-.35,1.29,2.5,2.5,0,0,0,.35,1.29,2.65,2.65,0,0,0,.94.94,2.56,2.56,0,0,0,1.3.35A2.52,2.52,0,0,0,152.73,279Z"/><path class="cls-2" d="M166.63,271.86l3.23,9.8h-2.43l-.65-2h-3.06l-.63,2h-2.45l3.24-9.8Zm-2.25,5.75h1.76l-.88-2.77Z"/><path class="cls-2" d="M177.6,271.76v2.52h-2.53v7.38h-2.53v-7.38H170v-2.52h7.6Z"/><path class="cls-2" d="M186.05,271.76v2.52h-2.54v7.38H181v-7.38h-2.54v-2.52h7.61Z"/><path class="cls-2" d="M195.1,281.66h-2.53L191,277.92h-1.61v3.74H187v-9.9h4.71a3.07,3.07,0,0,1,3.08,3.08,3,3,0,0,1-.37,1.48,3.32,3.32,0,0,1-1,1.11Zm-2.78-7.54a1,1,0,0,0-.66-.33h-2.32v2.1h2.32a1,1,0,0,0,.66-.34,1.11,1.11,0,0,0,0-1.43Z"/><path class="cls-2" d="M201.1,271.86l3.23,9.8h-2.44l-.64-2h-3.07l-.63,2H195.1l3.25-9.8Zm-2.26,5.75h1.77l-.89-2.77Z"/><path class="cls-2" d="M210.32,279.12a2.84,2.84,0,0,0,.84-.55l1.71,1.7a5,5,0,0,1-1.61,1.09,5.06,5.06,0,0,1-4.44-.29,5,5,0,0,1-1.82-1.82,4.83,4.83,0,0,1-.67-2.5,4.9,4.9,0,0,1,.67-2.52,5,5,0,0,1,1.82-1.82,5,5,0,0,1,4.44-.29,5.18,5.18,0,0,1,1.61,1.08l-1.71,1.71a2.84,2.84,0,0,0-.84-.55,2.43,2.43,0,0,0-1-.2,2.41,2.41,0,0,0-1.29.35,2.65,2.65,0,0,0-.94.94,2.56,2.56,0,0,0-.35,1.3,2.49,2.49,0,0,0,.35,1.28,2.65,2.65,0,0,0,.94.94,2.41,2.41,0,0,0,1.29.35A2.61,2.61,0,0,0,210.32,279.12Z"/><path class="cls-2" d="M221.17,271.76v2.52h-2.53v7.38H216.1v-7.38h-2.53v-2.52h7.6Z"/><path class="cls-2" d="M233.81,271.76v2.52h-2.53v7.38h-2.53v-7.38h-2.54v-2.52h7.6Z"/><path class="cls-2" d="M240.14,271.76h2.52v9.9h-2.52V278h-2.83v3.7h-2.52v-9.9h2.52v3.68h2.83Z"/><path class="cls-2" d="M250.52,279.52v2.14h-6.74v-9.9h6.61v2.14h-4.07v1.74h3.43v2.14h-3.43v1.74Z"/><path class="cls-2" d="M261,271.86l3.23,9.8h-2.43l-.65-2h-3.06l-.63,2H255l3.24-9.8Zm-2.26,5.75h1.77l-.88-2.77Z"/><path class="cls-2" d="M272,271.76v2.52h-2.53v7.38H266.9v-7.38h-2.54v-2.52H272Z"/><path class="cls-2" d="M280.41,271.76v2.52h-2.54v7.38h-2.53v-7.38H272.8v-2.52h7.61Z"/><path class="cls-2" d="M288.12,279.52v2.14h-6.73v-9.9H288v2.14h-4.07v1.74h3.43v2.14h-3.43v1.74Z"/><path class="cls-2" d="M294.69,271.76h2.52v9.9h-2.52l-2.92-5.31v5.31h-2.53v-9.9h2.53l2.92,5.31Z"/><path class="cls-2" d="M305.79,271.76v2.52h-2.54v7.38h-2.53v-7.38h-2.53v-2.52h7.6Z"/><path class="cls-2" d="M309.29,271.76v9.9h-2.52v-9.9Z"/><path class="cls-2" d="M317.65,272.43a5.07,5.07,0,0,1,1.82,1.83,5,5,0,0,1,.67,2.51,4.94,4.94,0,0,1-.67,2.51,5,5,0,0,1-1.82,1.82,5,5,0,0,1-5,0,5,5,0,0,1-1.83-1.82,4.84,4.84,0,0,1-.67-2.51,4.89,4.89,0,0,1,.67-2.51,5,5,0,0,1,1.83-1.83,5,5,0,0,1,5,0ZM316.43,279a2.73,2.73,0,0,0,.94-.94,2.5,2.5,0,0,0,.35-1.29,2.55,2.55,0,0,0-.35-1.29,2.76,2.76,0,0,0-.94-1,2.5,2.5,0,0,0-1.29-.35,2.56,2.56,0,0,0-1.3.35,2.67,2.67,0,0,0-.94,1,2.55,2.55,0,0,0-.35,1.29,2.5,2.5,0,0,0,.35,1.29,2.65,2.65,0,0,0,.94.94,2.56,2.56,0,0,0,1.3.35A2.5,2.5,0,0,0,316.43,279Z"/><path class="cls-2" d="M326.42,271.76h2.52v9.9h-2.52l-2.91-5.31v5.31H321v-9.9h2.53l2.91,5.31Z"/><path class="cls-2" d="M341.5,272.43a5,5,0,0,1,1.82,1.83,4.89,4.89,0,0,1,.67,2.51,4.84,4.84,0,0,1-.67,2.51,5,5,0,0,1-1.82,1.82,4.83,4.83,0,0,1-2.5.67,5,5,0,0,1-4.34-2.49,4.85,4.85,0,0,1-.68-2.51,5.06,5.06,0,0,1,2.5-4.34,5,5,0,0,1,2.52-.67A4.93,4.93,0,0,1,341.5,272.43ZM340.28,279a2.65,2.65,0,0,0,.94-.94,2.5,2.5,0,0,0,.35-1.29,2.55,2.55,0,0,0-.35-1.29,2.67,2.67,0,0,0-.94-1,2.49,2.49,0,0,0-1.28-.35,2.56,2.56,0,0,0-1.3.35,2.7,2.7,0,0,0-.95,1,2.54,2.54,0,0,0-.34,1.29,2.49,2.49,0,0,0,.34,1.29,2.67,2.67,0,0,0,.95.94,2.56,2.56,0,0,0,1.3.35A2.49,2.49,0,0,0,340.28,279Z"/><path class="cls-2" d="M351.72,273.9h-4.37v1.74h3.5v2.14h-3.5v3.88h-2.52v-9.9h6.89Z"/><path class="cls-2" d="M37.62,288.53H40v6.12a3.82,3.82,0,0,1-.53,2A3.87,3.87,0,0,1,38,298a3.89,3.89,0,0,1-3.92,0,3.94,3.94,0,0,1-1.42-1.42,3.81,3.81,0,0,1-.52-2v-.4h2.33a2.19,2.19,0,0,0,.45,1.33,1.37,1.37,0,0,0,1.12.53,1.35,1.35,0,0,0,1.13-.58,2.35,2.35,0,0,0,.44-1.44Z"/><path class="cls-2" d="M48.32,289.23a5.07,5.07,0,0,1,1.82,1.83,5,5,0,0,1,.67,2.51,4.94,4.94,0,0,1-.67,2.51,5,5,0,0,1-1.82,1.82,5,5,0,0,1-5,0,5,5,0,0,1-1.83-1.82,4.84,4.84,0,0,1-.67-2.51,4.89,4.89,0,0,1,.67-2.51,5,5,0,0,1,4.34-2.5A5,5,0,0,1,48.32,289.23ZM47.1,295.8a2.73,2.73,0,0,0,.94-.94,2.5,2.5,0,0,0,.35-1.29,2.55,2.55,0,0,0-.35-1.29,2.76,2.76,0,0,0-.94-.95,2.55,2.55,0,0,0-2.58,0,2.62,2.62,0,0,0-1,.95,2.55,2.55,0,0,0-.35,1.29,2.5,2.5,0,0,0,.35,1.29,2.6,2.6,0,0,0,1,.94,2.55,2.55,0,0,0,2.58,0Z"/><path class="cls-2" d="M59.7,288.58v6.11a3.79,3.79,0,0,1-.53,2,3.9,3.9,0,0,1-1.42,1.43,4,4,0,0,1-2,.52h-.23a3.91,3.91,0,0,1-2-.52,4,4,0,0,1-1.42-1.43,3.78,3.78,0,0,1-.52-2v-6.11H54v5.55a2.41,2.41,0,0,0,.42,1.45,1.34,1.34,0,0,0,1.14.57h.23a1.35,1.35,0,0,0,1.14-.58,2.35,2.35,0,0,0,.44-1.44v-5.55Z"/><path class="cls-2" d="M68.9,298.46H66.36l-1.57-3.74H63.18v3.74H60.82v-9.9h4.72a3.08,3.08,0,0,1,2.7,4.56,3.19,3.19,0,0,1-1,1.11Zm-2.79-7.54a1,1,0,0,0-.66-.33H63.13v2.1h2.32a1,1,0,0,0,.66-.34,1.08,1.08,0,0,0,0-1.43Z"/><path class="cls-2" d="M75.18,288.56H77.7v9.9H75.18l-2.91-5.31v5.31H69.74v-9.9h2.53l2.91,5.31Z"/><path class="cls-2" d="M84,288.66l3.24,9.8H84.77l-.64-2H81.06l-.63,2H78l3.25-9.8Zm-2.25,5.75h1.76l-.88-2.77Z"/><path class="cls-2" d="M90,296.08H93.9v2.38H87.49v-9.9H90Z"/><path class="cls-2" d="M97.4,288.56v9.9H94.88v-9.9Z"/><path class="cls-2" d="M103,291.7v-.18a.88.88,0,0,0-.34-.7,1.26,1.26,0,0,0-.83-.28,1.35,1.35,0,0,0-.87.28.89.89,0,0,0-.35.7.64.64,0,0,0,.36.6,3,3,0,0,0,.95.39l.22,0,.25.06a5,5,0,0,1,2,.82l.12.12a3,3,0,0,1,.67,1,2.79,2.79,0,0,1,0,2.33,3.06,3.06,0,0,1-.79,1,3.7,3.7,0,0,1-1.18.66,4.17,4.17,0,0,1-2.73,0,3.55,3.55,0,0,1-1.17-.66,3.23,3.23,0,0,1-.8-1,2.72,2.72,0,0,1-.28-1.21v-.18h2.45v.18a.89.89,0,0,0,.34.7,1.26,1.26,0,0,0,.82.28,1.31,1.31,0,0,0,.86-.28.89.89,0,0,0,.36-.7.8.8,0,0,0-.38-.61,1.22,1.22,0,0,0-.39-.21,3.64,3.64,0,0,0-.55-.17l-.46-.11c-.51-.13-.91-.25-1.2-.35a2.44,2.44,0,0,1-.8-.48l-.06-.06a3,3,0,0,1-.73-1,2.64,2.64,0,0,1-.26-1.14,2.72,2.72,0,0,1,.28-1.21,3.23,3.23,0,0,1,.8-1,3.55,3.55,0,0,1,1.17-.66,4,4,0,0,1,2.73,0,3.7,3.7,0,0,1,1.18.66,3.06,3.06,0,0,1,.79,1,2.85,2.85,0,0,1,.27,1.21v.18Z"/><path class="cls-2" d="M113.77,288.56v2.52h-2.54v7.38H108.7v-7.38h-2.54v-2.52h7.61Z"/><path class="cls-2" d="M119.27,291.7v-.18a.89.89,0,0,0-.35-.7,1.23,1.23,0,0,0-.83-.28,1.35,1.35,0,0,0-.86.28.87.87,0,0,0-.36.7.65.65,0,0,0,.37.6,2.92,2.92,0,0,0,1,.39l.22,0,.24.06a4.88,4.88,0,0,1,2,.82l.13.12a3.13,3.13,0,0,1,.67,1,2.79,2.79,0,0,1,0,2.33,3.19,3.19,0,0,1-.79,1,3.7,3.7,0,0,1-1.18.66,4,4,0,0,1-1.37.23,3.94,3.94,0,0,1-1.37-.23,3.76,3.76,0,0,1-1.17-.66,3.19,3.19,0,0,1-.79-1,2.72,2.72,0,0,1-.28-1.21v-.18h2.45v.18a.89.89,0,0,0,.34.7,1.24,1.24,0,0,0,.82.28,1.35,1.35,0,0,0,.86-.28.89.89,0,0,0,.36-.7.8.8,0,0,0-.38-.61,1.22,1.22,0,0,0-.39-.21,3.64,3.64,0,0,0-.55-.17l-.46-.11c-.52-.13-.92-.25-1.21-.35a2.4,2.4,0,0,1-.79-.48l-.06-.06a2.89,2.89,0,0,1-.73-1,2.51,2.51,0,0,1-.26-1.14,2.72,2.72,0,0,1,.28-1.21,3.19,3.19,0,0,1,.79-1,3.76,3.76,0,0,1,1.17-.66,4,4,0,0,1,1.37-.24,4,4,0,0,1,1.37.24,3.7,3.7,0,0,1,1.18.66,3.19,3.19,0,0,1,.79,1,2.85,2.85,0,0,1,.27,1.21v.18Z"/><path class="cls-2" d="M123,296.74h2.36l-1,3.16h-2.09Z"/><path class="cls-2" d="M137.15,296.32v2.14h-6.74v-9.9H137v2.14H133v1.74h3.43v2.14H133v1.74Z"/><path class="cls-2" d="M142.61,288.53a6.08,6.08,0,0,1,1.49.35,4.39,4.39,0,0,1,1.36.86,4.8,4.8,0,0,1,1.21,1.7,5,5,0,0,1,.43,2,4.74,4.74,0,0,1-.55,2.28,4.54,4.54,0,0,1-1.53,1.75,5.43,5.43,0,0,1-2,.79,15.21,15.21,0,0,1-2.49.19l-1.15,0h-1.09v-10h2.53C141.5,288.45,142.1,288.48,142.61,288.53Zm2.08,5a2.59,2.59,0,0,0-.33-1.27,2.65,2.65,0,0,0-.92-1,2.48,2.48,0,0,0-1.27-.38H140.8V296a10.73,10.73,0,0,0,1.73-.12,3,3,0,0,0,1.3-.55,2.21,2.21,0,0,0,.79-1.31A2.54,2.54,0,0,0,144.69,293.48Z"/><path class="cls-2" d="M150.46,288.56v9.9h-2.52v-9.9Z"/><path class="cls-2" d="M159,288.56v2.52h-2.53v7.38H154v-7.38h-2.53v-2.52H159Z"/><path class="cls-2" d="M167.26,289.23a5.07,5.07,0,0,1,1.82,1.83,4.89,4.89,0,0,1,.67,2.51,4.84,4.84,0,0,1-.67,2.51,5,5,0,0,1-1.82,1.82,5,5,0,0,1-5,0,5,5,0,0,1-1.83-1.82,4.94,4.94,0,0,1-.67-2.51,5,5,0,0,1,7.52-4.34ZM166,295.8a2.65,2.65,0,0,0,.94-.94,2.5,2.5,0,0,0,.35-1.29,2.55,2.55,0,0,0-.35-1.29,2.67,2.67,0,0,0-.94-.95,2.5,2.5,0,0,0-1.29-.35,2.55,2.55,0,0,0-1.29.35,2.7,2.7,0,0,0-1,.95,2.55,2.55,0,0,0-.35,1.29,2.5,2.5,0,0,0,.35,1.29,2.67,2.67,0,0,0,1,.94,2.55,2.55,0,0,0,1.29.35A2.5,2.5,0,0,0,166,295.8Z"/><path class="cls-2" d="M178.67,298.46h-2.53l-1.57-3.74H173v3.74h-2.37v-9.9h4.72a3,3,0,0,1,1.54.42A3,3,0,0,1,178,290.1a3.09,3.09,0,0,1,.41,1.54,3,3,0,0,1-.38,1.48,3.19,3.19,0,0,1-1,1.11Zm-2.79-7.54a.92.92,0,0,0-.65-.33H172.9v2.1h2.33a1,1,0,0,0,.65-.34,1.08,1.08,0,0,0,0-1.43Z"/><path class="cls-2" d="M184,291.7v-.18a.88.88,0,0,0-.34-.7,1.26,1.26,0,0,0-.83-.28,1.35,1.35,0,0,0-.87.28.89.89,0,0,0-.35.7.64.64,0,0,0,.36.6,2.92,2.92,0,0,0,.95.39l.22,0,.25.06a5,5,0,0,1,2,.82l.12.12a3.13,3.13,0,0,1,.67,1,2.79,2.79,0,0,1,0,2.33,3.19,3.19,0,0,1-.79,1,3.7,3.7,0,0,1-1.18.66,3.94,3.94,0,0,1-1.37.23,3.89,3.89,0,0,1-1.36-.23,3.55,3.55,0,0,1-1.17-.66,3.23,3.23,0,0,1-.8-1,2.72,2.72,0,0,1-.28-1.21v-.18h2.45v.18a.89.89,0,0,0,.34.7,1.24,1.24,0,0,0,.82.28,1.33,1.33,0,0,0,.86-.28.89.89,0,0,0,.36-.7.8.8,0,0,0-.38-.61,1.22,1.22,0,0,0-.39-.21,3.64,3.64,0,0,0-.55-.17l-.46-.11c-.51-.13-.91-.25-1.2-.35a2.44,2.44,0,0,1-.8-.48l-.06-.06a3,3,0,0,1-.73-1,2.64,2.64,0,0,1-.26-1.14,2.72,2.72,0,0,1,.28-1.21,3.23,3.23,0,0,1,.8-1,3.55,3.55,0,0,1,1.17-.66,3.89,3.89,0,0,1,1.36-.24,4,4,0,0,1,1.37.24,3.7,3.7,0,0,1,1.18.66,3.19,3.19,0,0,1,.79,1,2.85,2.85,0,0,1,.27,1.21v.18Z"/><path class="cls-2" d="M187.77,296.74h2.37l-1,3.16H187Z"/><path class="cls-2" d="M200.33,288.66l3.23,9.8h-2.43l-.65-2h-3.06l-.63,2h-2.46l3.25-9.8Zm-2.26,5.75h1.77l-.88-2.77Z"/><path class="cls-2" d="M209.29,288.56h2.52v9.9h-2.52l-2.91-5.31v5.31h-2.54v-9.9h2.54l2.91,5.31Z"/><path class="cls-2" d="M217.27,288.53a6.08,6.08,0,0,1,1.49.35,4.39,4.39,0,0,1,1.36.86,4.68,4.68,0,0,1,1.21,1.7,5,5,0,0,1,.43,2,4.74,4.74,0,0,1-.55,2.28,4.54,4.54,0,0,1-1.53,1.75,5.45,5.45,0,0,1-2,.79,15.43,15.43,0,0,1-2.5.19l-1.15,0h-1.09v-10h2.53C216.16,288.45,216.76,288.48,217.27,288.53Zm2.08,5a2.59,2.59,0,0,0-.33-1.27,2.65,2.65,0,0,0-.92-1,2.48,2.48,0,0,0-1.27-.38h-1.37V296a10.73,10.73,0,0,0,1.73-.12,3,3,0,0,0,1.3-.55,2.21,2.21,0,0,0,.79-1.31A2.54,2.54,0,0,0,219.35,293.48Z"/><path class="cls-2" d="M234.88,298.46h-2.54l-1.56-3.74h-1.61v3.74H226.8v-9.9h4.72a3,3,0,0,1,1.54.42,3,3,0,0,1,1.54,2.66,3,3,0,0,1-.38,1.48,3.19,3.19,0,0,1-1,1.11Zm-2.79-7.54a.92.92,0,0,0-.66-.33h-2.32v2.1h2.32a1,1,0,0,0,.66-.34,1.08,1.08,0,0,0,0-1.43Z"/><path class="cls-2" d="M242.45,296.32v2.14h-6.73v-9.9h6.61v2.14h-4.08v1.74h3.43v2.14h-3.43v1.74Z"/><path class="cls-2" d="M248.72,288.66l3.24,9.8h-2.44l-.64-2h-3.07l-.63,2h-2.45l3.25-9.8Zm-2.25,5.75h1.76l-.88-2.77Z"/><path class="cls-2" d="M256.58,288.53a6.08,6.08,0,0,1,1.49.35,4.39,4.39,0,0,1,1.36.86,4.83,4.83,0,0,1,1.22,1.7,5.17,5.17,0,0,1,.42,2,4.85,4.85,0,0,1-.54,2.28,4.56,4.56,0,0,1-1.54,1.75,5.45,5.45,0,0,1-2,.79,15.43,15.43,0,0,1-2.5.19l-1.15,0h-1.09v-10h2.53C255.47,288.45,256.07,288.48,256.58,288.53Zm2.08,5a2.59,2.59,0,0,0-.33-1.27,2.65,2.65,0,0,0-.92-1,2.48,2.48,0,0,0-1.27-.38h-1.37V296a10.73,10.73,0,0,0,1.73-.12,2.9,2.9,0,0,0,1.3-.55,2.21,2.21,0,0,0,.79-1.31A2.54,2.54,0,0,0,258.66,293.48Z"/><path class="cls-2" d="M268.65,296.32v2.14h-6.74v-9.9h6.61v2.14h-4.07v1.74h3.43v2.14h-3.43v1.74Z"/><path class="cls-2" d="M277.84,298.46h-2.53l-1.57-3.74h-1.61v3.74h-2.36v-9.9h4.71a3.13,3.13,0,0,1,2.67,1.54,3.12,3.12,0,0,1,0,3,3.32,3.32,0,0,1-1,1.11Zm-2.78-7.54a1,1,0,0,0-.66-.33h-2.32v2.1h2.32a1,1,0,0,0,.66-.34,1.11,1.11,0,0,0,0-1.43Z"/><path class="cls-2" d="M283.21,291.7v-.18a.89.89,0,0,0-.35-.7,1.25,1.25,0,0,0-.83-.28,1.33,1.33,0,0,0-.86.28.87.87,0,0,0-.36.7.63.63,0,0,0,.37.6,2.92,2.92,0,0,0,.95.39l.22,0,.24.06a4.88,4.88,0,0,1,2,.82l.13.12a2.94,2.94,0,0,1,.66,1,2.71,2.71,0,0,1,.25,1.12,2.85,2.85,0,0,1-.27,1.21,3.23,3.23,0,0,1-.8,1,3.55,3.55,0,0,1-1.17.66,4,4,0,0,1-1.37.23,3.9,3.9,0,0,1-1.37-.23,3.76,3.76,0,0,1-1.17-.66,3.38,3.38,0,0,1-.8-1,2.86,2.86,0,0,1-.28-1.21v-.18h2.45v.18a.9.9,0,0,0,.35.7,1.24,1.24,0,0,0,.82.28,1.35,1.35,0,0,0,.86-.28.87.87,0,0,0,.35-.7.79.79,0,0,0-.37-.61,1.39,1.39,0,0,0-.4-.21,3.86,3.86,0,0,0-.54-.17l-.46-.11c-.52-.13-.92-.25-1.21-.35a2.55,2.55,0,0,1-.8-.48l-.05-.06a3.06,3.06,0,0,1-.74-1,2.64,2.64,0,0,1-.26-1.14,2.86,2.86,0,0,1,.28-1.21,3.38,3.38,0,0,1,.8-1,3.76,3.76,0,0,1,1.17-.66,3.91,3.91,0,0,1,1.37-.24,4,4,0,0,1,1.37.24,3.55,3.55,0,0,1,1.17.66,3.23,3.23,0,0,1,.8,1,2.85,2.85,0,0,1,.27,1.21v.18Z"/><path class="cls-2" d="M298.13,288.56v2.52H295.6v7.38h-2.54v-7.38h-2.53v-2.52h7.6Z"/><path class="cls-2" d="M306.35,289.23a5.07,5.07,0,0,1,1.82,1.83,4.89,4.89,0,0,1,.67,2.51,4.84,4.84,0,0,1-.67,2.51,5,5,0,0,1-1.82,1.82,5,5,0,0,1-5,0,5,5,0,0,1-1.83-1.82,4.84,4.84,0,0,1-.67-2.51,4.89,4.89,0,0,1,.67-2.51,5,5,0,0,1,4.34-2.5A5,5,0,0,1,306.35,289.23Zm-1.22,6.57a2.73,2.73,0,0,0,.94-.94,2.5,2.5,0,0,0,.35-1.29,2.55,2.55,0,0,0-.35-1.29,2.76,2.76,0,0,0-.94-.95,2.5,2.5,0,0,0-1.29-.35,2.52,2.52,0,0,0-1.29.35,2.62,2.62,0,0,0-.95.95,2.55,2.55,0,0,0-.35,1.29,2.5,2.5,0,0,0,.35,1.29,2.6,2.6,0,0,0,.95.94,2.52,2.52,0,0,0,1.29.35A2.5,2.5,0,0,0,305.13,295.8Z"/><path class="cls-2" d="M321.34,288.56v2.52h-2.53v7.38h-2.54v-7.38h-2.53v-2.52h7.6Z"/><path class="cls-2" d="M327.67,288.56h2.52v9.9h-2.52v-3.7h-2.83v3.7h-2.52v-9.9h2.52v3.68h2.83Z"/><path class="cls-2" d="M338,296.32v2.14h-6.73v-9.9h6.61v2.14h-4.08v1.74h3.43v2.14h-3.43v1.74Z"/><path class="cls-2" d="M38.69,305.78A3.1,3.1,0,0,1,39.81,310a3.06,3.06,0,0,1-2.67,1.53H34.79v3.74H32.43v-9.9h4.71A3,3,0,0,1,38.69,305.78Zm-1,1.94a1,1,0,0,0-.67-.33H34.74v2.1h2.32a1,1,0,0,0,.67-.34,1.08,1.08,0,0,0,.27-.72A1,1,0,0,0,37.73,307.72Z"/><path class="cls-2" d="M49.14,315.26H46.61L45,311.52H43.43v3.74H41.06v-9.9h4.72a3,3,0,0,1,1.54.42,3,3,0,0,1,1.13,1.12,3.09,3.09,0,0,1,.41,1.54,2.91,2.91,0,0,1-.38,1.48,3.19,3.19,0,0,1-1,1.11Zm-2.78-7.54a1,1,0,0,0-.66-.33H43.37v2.1H45.7a1,1,0,0,0,.66-.34,1.11,1.11,0,0,0,0-1.43Z"/><path class="cls-2" d="M57.22,306A5,5,0,0,1,59,307.86a4.89,4.89,0,0,1,.67,2.51,4.84,4.84,0,0,1-.67,2.51,5,5,0,0,1-1.82,1.82,4.84,4.84,0,0,1-2.51.67,4.89,4.89,0,0,1-2.51-.67,5,5,0,0,1-1.83-1.82,4.94,4.94,0,0,1-.67-2.51,5,5,0,0,1,5-5A4.94,4.94,0,0,1,57.22,306ZM56,312.6a2.65,2.65,0,0,0,.94-.94,2.5,2.5,0,0,0,.35-1.29,2.55,2.55,0,0,0-.35-1.29,2.67,2.67,0,0,0-.94-.95,2.5,2.5,0,0,0-1.29-.35,2.55,2.55,0,0,0-1.29.35,2.7,2.7,0,0,0-1,.95,2.55,2.55,0,0,0-.35,1.29,2.5,2.5,0,0,0,.35,1.29,2.67,2.67,0,0,0,1,.94,2.55,2.55,0,0,0,1.29.35A2.5,2.5,0,0,0,56,312.6Z"/><path class="cls-2" d="M65.75,305.33h2.33v6.12a3.81,3.81,0,0,1-.52,2,3.87,3.87,0,0,1-1.42,1.42,3.89,3.89,0,0,1-3.92,0,3.87,3.87,0,0,1-1.42-1.42,3.82,3.82,0,0,1-.53-2v-.4h2.34a2.19,2.19,0,0,0,.45,1.33,1.41,1.41,0,0,0,2.24-.05,2.29,2.29,0,0,0,.45-1.44Z"/><path class="cls-2" d="M75.94,313.12v2.14H69.2v-9.9h6.61v2.14H71.74v1.74h3.43v2.14H71.74v1.74Z"/><path class="cls-2" d="M82.77,312.72a2.84,2.84,0,0,0,.84-.55l1.71,1.7A5.15,5.15,0,0,1,83.71,315a5.06,5.06,0,0,1-4.44-.29,5,5,0,0,1-1.82-1.82,4.83,4.83,0,0,1-.67-2.5,5,5,0,0,1,6.93-4.63,5.3,5.3,0,0,1,1.61,1.08l-1.71,1.71a2.66,2.66,0,0,0-.84-.55,2.43,2.43,0,0,0-1-.2,2.41,2.41,0,0,0-1.29.35,2.59,2.59,0,0,0-1.29,2.24,2.49,2.49,0,0,0,.35,1.28,2.57,2.57,0,0,0,.94.94,2.41,2.41,0,0,0,1.29.35A2.61,2.61,0,0,0,82.77,312.72Z"/><path class="cls-2" d="M93.62,305.36v2.52H91.09v7.38H88.55v-7.38H86v-2.52h7.6Z"/><path class="cls-2" d="M94.7,314.85a1.37,1.37,0,0,1-.38-1,1.21,1.21,0,0,1,.39-.91,1.25,1.25,0,0,1,.91-.38,1.28,1.28,0,0,1,.94.39,1.33,1.33,0,0,1,0,1.88,1.28,1.28,0,0,1-.94.39A1.18,1.18,0,0,1,94.7,314.85Z"/><path class="cls-2" d="M110,305.36h2.18v9.9h-2.52l-2.55-4.21-2.56,4.21H102v-9.9h2.52V311l1.23-2.24.07-.11h2.52l.06.11,1.23,2.24v-5.59Z"/><path class="cls-2" d="M120.5,306a5.07,5.07,0,0,1,1.82,1.83,4.89,4.89,0,0,1,.67,2.51,4.84,4.84,0,0,1-.67,2.51,5,5,0,0,1-1.82,1.82,5,5,0,0,1-5,0,5,5,0,0,1-1.83-1.82,4.94,4.94,0,0,1-.67-2.51A5,5,0,0,1,120.5,306Zm-1.22,6.57a2.65,2.65,0,0,0,.94-.94,2.5,2.5,0,0,0,.35-1.29,2.55,2.55,0,0,0-.35-1.29,2.67,2.67,0,0,0-.94-.95,2.5,2.5,0,0,0-1.29-.35,2.52,2.52,0,0,0-1.29.35,2.7,2.7,0,0,0-1,.95,2.55,2.55,0,0,0-.35,1.29,2.5,2.5,0,0,0,.35,1.29,2.67,2.67,0,0,0,1,.94A2.52,2.52,0,0,0,118,313,2.5,2.5,0,0,0,119.28,312.6Z"/><path class="cls-2" d="M131.91,315.26h-2.53l-1.57-3.74H126.2v3.74h-2.37v-9.9h4.72a3,3,0,0,1,1.54.42,3,3,0,0,1,1.13,1.12,3.09,3.09,0,0,1,.41,1.54,3,3,0,0,1-.38,1.48,3.19,3.19,0,0,1-1,1.11Zm-2.79-7.54a.92.92,0,0,0-.66-.33h-2.32v2.1h2.32a1,1,0,0,0,.66-.34,1.08,1.08,0,0,0,0-1.43Z"/><path class="cls-2" d="M137.55,310.26l2.95,5h-2.79l-2.44-4v4h-2.52v-9.9h2.52v3.87l2.44-3.87h2.79Z"/><path class="cls-2" d="M144.15,305.36v9.9h-2.52v-9.9Z"/><path class="cls-2" d="M150.71,305.36h2.52v9.9h-2.52L147.8,310v5.31h-2.53v-9.9h2.53l2.91,5.31Z"/><path class="cls-2" d="M164.08,310.36a4.87,4.87,0,0,1-.67,2.51,5.07,5.07,0,0,1-1.83,1.82,5,5,0,0,1-5,0,5.12,5.12,0,0,1-1.82-1.82,5,5,0,0,1,0-5,5.07,5.07,0,0,1,1.82-1.83,4.87,4.87,0,0,1,2.51-.67,4.92,4.92,0,0,1,2,.39,5.09,5.09,0,0,1,1.61,1.09l-2.26,1.29a2.53,2.53,0,0,0-1.3-.35,2.5,2.5,0,0,0-1.29.35,2.67,2.67,0,0,0-.94.95,2.55,2.55,0,0,0,0,2.58,2.82,2.82,0,0,0,.94.94,2.56,2.56,0,0,0,2.65,0,2.62,2.62,0,0,0,.95-1h-3.11V309.2h5.67A5.62,5.62,0,0,1,164.08,310.36Z"/><path class="cls-2" d="M171.64,305.36v9.9h-2.52v-9.9Z"/><path class="cls-2" d="M178.21,305.36h2.52v9.9h-2.52L175.29,310v5.31h-2.53v-9.9h2.53l2.92,5.31Z"/><path class="cls-2" d="M193.51,305.36v2.52H191v7.38h-2.53v-7.38h-2.53v-2.52h7.6Z"/><path class="cls-2" d="M199.84,305.36h2.52v9.9h-2.52v-3.7H197v3.7h-2.52v-9.9H197V309h2.83Z"/><path class="cls-2" d="M206,305.36v9.9h-2.52v-9.9Z"/><path class="cls-2" d="M211.64,308.5v-.18a.89.89,0,0,0-.35-.7,1.23,1.23,0,0,0-.83-.28,1.35,1.35,0,0,0-.86.28.87.87,0,0,0-.36.7.65.65,0,0,0,.37.6,2.92,2.92,0,0,0,.95.39l.22,0,.24.06a4.88,4.88,0,0,1,2,.82l.13.12a3.13,3.13,0,0,1,.67,1,2.79,2.79,0,0,1,0,2.33,3.19,3.19,0,0,1-.79,1,3.7,3.7,0,0,1-1.18.66,4,4,0,0,1-1.37.23,3.94,3.94,0,0,1-1.37-.23,3.76,3.76,0,0,1-1.17-.66,3.19,3.19,0,0,1-.79-1,2.72,2.72,0,0,1-.28-1.21v-.18h2.45v.18a.89.89,0,0,0,.34.7,1.24,1.24,0,0,0,.82.28,1.35,1.35,0,0,0,.86-.28.89.89,0,0,0,.36-.7.8.8,0,0,0-.38-.61,1.22,1.22,0,0,0-.39-.21,3.64,3.64,0,0,0-.55-.17l-.46-.11c-.51-.13-.92-.25-1.21-.35a2.58,2.58,0,0,1-.79-.48l-.06-.06a2.89,2.89,0,0,1-.73-1,2.51,2.51,0,0,1-.26-1.14,2.72,2.72,0,0,1,.28-1.21,3.19,3.19,0,0,1,.79-1,4,4,0,0,1,1.17-.67,4.19,4.19,0,0,1,1.37-.23,4.24,4.24,0,0,1,1.37.23,3.93,3.93,0,0,1,1.18.67,3.19,3.19,0,0,1,.79,1,2.85,2.85,0,0,1,.27,1.21v.18Z"/><path class="cls-2" d="M223.44,305.33a6.08,6.08,0,0,1,1.49.35,4.44,4.44,0,0,1,1.37.86,4.93,4.93,0,0,1,1.21,1.7,5.17,5.17,0,0,1,.42,2,4.85,4.85,0,0,1-.54,2.28,4.54,4.54,0,0,1-1.53,1.75,5.57,5.57,0,0,1-2,.79,15.34,15.34,0,0,1-2.5.19l-1.15,0H219.1v-10h2.53C222.33,305.25,222.94,305.28,223.44,305.33Zm2.09,4.95a2.6,2.6,0,0,0-.34-1.27,2.57,2.57,0,0,0-.92-1,2.45,2.45,0,0,0-1.26-.38h-1.38v5.17a10.65,10.65,0,0,0,1.73-.12,3,3,0,0,0,1.31-.55,2.25,2.25,0,0,0,.79-1.31A3.25,3.25,0,0,0,225.53,310.28Z"/><path class="cls-2" d="M231.29,305.36v9.9h-2.52v-9.9Z"/><path class="cls-2" d="M240.49,315.26H238l-1.57-3.74h-1.61v3.74h-2.37v-9.9h4.72a3,3,0,0,1,1.54.42,3,3,0,0,1,1.13,1.12,3.09,3.09,0,0,1,.41,1.54,2.91,2.91,0,0,1-.38,1.48,3.19,3.19,0,0,1-1,1.11Zm-2.78-7.54a1,1,0,0,0-.66-.33h-2.33v2.1h2.33a1,1,0,0,0,.66-.34,1.11,1.11,0,0,0,0-1.43Z"/><path class="cls-2" d="M248.07,313.12v2.14h-6.74v-9.9h6.61v2.14h-4.07v1.74h3.43v2.14h-3.43v1.74Z"/><path class="cls-2" d="M254.9,312.72a2.84,2.84,0,0,0,.84-.55l1.71,1.7a5.15,5.15,0,0,1-1.61,1.09,4.9,4.9,0,0,1-1.94.38,4.83,4.83,0,0,1-2.5-.67,5,5,0,0,1-1.82-1.82,4.83,4.83,0,0,1-.67-2.5A5,5,0,0,1,251.4,306a4.84,4.84,0,0,1,2.5-.68,4.91,4.91,0,0,1,1.94.39,5.3,5.3,0,0,1,1.61,1.08l-1.71,1.71a2.66,2.66,0,0,0-.84-.55,2.45,2.45,0,0,0-1-.2,2.4,2.4,0,0,0-1.28.35,2.5,2.5,0,0,0-.94.94,2.46,2.46,0,0,0-.35,1.3,2.4,2.4,0,0,0,.35,1.28,2.5,2.5,0,0,0,.94.94,2.4,2.4,0,0,0,1.28.35A2.62,2.62,0,0,0,254.9,312.72Z"/><path class="cls-2" d="M265.75,305.36v2.52h-2.54v7.38h-2.53v-7.38h-2.53v-2.52h7.6Z"/><path class="cls-2" d="M269.25,305.36v9.9h-2.52v-9.9Z"/><path class="cls-2" d="M277.61,306a5.07,5.07,0,0,1,1.82,1.83,5,5,0,0,1,.67,2.51,4.94,4.94,0,0,1-.67,2.51,5,5,0,0,1-1.82,1.82,5,5,0,0,1-5,0,5,5,0,0,1-1.83-1.82,4.84,4.84,0,0,1-.67-2.51,4.89,4.89,0,0,1,.67-2.51,5,5,0,0,1,4.34-2.5A5,5,0,0,1,277.61,306Zm-1.22,6.57a2.73,2.73,0,0,0,.94-.94,2.5,2.5,0,0,0,.35-1.29,2.55,2.55,0,0,0-.35-1.29,2.76,2.76,0,0,0-.94-.95,2.55,2.55,0,0,0-2.58,0,2.62,2.62,0,0,0-.95.95,2.55,2.55,0,0,0-.35,1.29,2.5,2.5,0,0,0,.35,1.29,2.6,2.6,0,0,0,.95.94,2.55,2.55,0,0,0,2.58,0Z"/><path class="cls-2" d="M286.38,305.36h2.52v9.9h-2.52L283.47,310v5.31h-2.53v-9.9h2.53l2.91,5.31Z"/><path class="cls-2" d="M296.74,305.36v9.9h-2.52v-9.9Z"/><path class="cls-2" d="M302.39,308.5v-.18a.89.89,0,0,0-.35-.7,1.25,1.25,0,0,0-.83-.28,1.33,1.33,0,0,0-.86.28.87.87,0,0,0-.36.7.63.63,0,0,0,.37.6,2.92,2.92,0,0,0,.95.39l.22,0,.24.06a4.88,4.88,0,0,1,2,.82l.13.12a2.94,2.94,0,0,1,.66,1,2.71,2.71,0,0,1,.25,1.12,2.85,2.85,0,0,1-.27,1.21,3.23,3.23,0,0,1-.8,1,3.55,3.55,0,0,1-1.17.66,4,4,0,0,1-1.37.23,3.9,3.9,0,0,1-1.37-.23,3.76,3.76,0,0,1-1.17-.66,3.38,3.38,0,0,1-.8-1,2.86,2.86,0,0,1-.28-1.21v-.18H300v.18a.9.9,0,0,0,.35.7,1.24,1.24,0,0,0,.82.28,1.35,1.35,0,0,0,.86-.28.9.9,0,0,0,.35-.7.79.79,0,0,0-.37-.61,1.39,1.39,0,0,0-.4-.21,3.86,3.86,0,0,0-.54-.17l-.46-.11c-.52-.13-.92-.25-1.21-.35a2.75,2.75,0,0,1-.8-.48l-.05-.06a3.06,3.06,0,0,1-.74-1,2.64,2.64,0,0,1-.26-1.14,2.86,2.86,0,0,1,.28-1.21,3.38,3.38,0,0,1,.8-1,4,4,0,0,1,1.17-.67,4.15,4.15,0,0,1,1.37-.23,4.24,4.24,0,0,1,1.37.23,3.76,3.76,0,0,1,1.17.67,3.23,3.23,0,0,1,.8,1,2.85,2.85,0,0,1,.27,1.21v.18Z"/><path class="cls-2" d="M38.69,322.58a3.06,3.06,0,0,1,1.53,2.66,3,3,0,0,1-.41,1.55,3.06,3.06,0,0,1-2.67,1.53H34.79v3.74H32.43v-9.9h4.71A3,3,0,0,1,38.69,322.58Zm-1,1.94a1,1,0,0,0-.67-.33H34.74v2.1h2.32a1,1,0,0,0,.67-.34,1.08,1.08,0,0,0,.27-.72A1,1,0,0,0,37.73,324.52Z"/><path class="cls-2" d="M49.14,332.06H46.61L45,328.32H43.43v3.74H41.06v-9.9h4.72a3,3,0,0,1,1.54.42,3,3,0,0,1,1.13,1.12,3.09,3.09,0,0,1,.41,1.54,2.91,2.91,0,0,1-.38,1.48,3.19,3.19,0,0,1-1,1.11Zm-2.78-7.54a1,1,0,0,0-.66-.33H43.37v2.1H45.7a1,1,0,0,0,.66-.34,1.11,1.11,0,0,0,0-1.43Z"/><path class="cls-2" d="M52.5,322.16v9.9H50v-9.9Z"/><path class="cls-2" d="M61.25,322.16h2.52v9.9H61.25v-5.59L60,328.71l-.06.12H57.44l-.07-.12-.16-.32-1.05-1.92v5.59H53.62v-9.9h2.54l2.54,4.22Z"/><path class="cls-2" d="M70,322.26l3.24,9.8H70.84l-.64-2H67.13l-.63,2H64.05l3.25-9.8ZM67.79,328h1.76l-.88-2.77Z"/><path class="cls-2" d="M81.64,332.06H79.1l-1.57-3.74H75.92v3.74H73.56v-9.9h4.72a3.08,3.08,0,0,1,2.7,4.56,3.19,3.19,0,0,1-1,1.11Zm-2.79-7.54a1,1,0,0,0-.66-.33H75.87v2.1h2.32a1,1,0,0,0,.66-.34,1.08,1.08,0,0,0,0-1.43Z"/><path class="cls-2" d="M85,322.16v9.9H82.48v-9.9Z"/><path class="cls-2" d="M88.64,329.68h3.89v2.38H86.12v-9.9h2.52Z"/><path class="cls-2" d="M98.77,322.16h2.52L98.38,328v4H95.86v-4L93,322.16h2.52l1.65,3.38Z"/><path class="cls-2" d="M111.2,322.26l3.24,9.8H112l-.64-2h-3.07l-.63,2h-2.45l3.25-9.8ZM109,328h1.76l-.88-2.77Z"/><path class="cls-2" d="M117.24,322.16v9.9h-2.52v-9.9Z"/><path class="cls-2" d="M126,322.16h2.52v9.9H126v-5.59l-1.23,2.24-.06.12h-2.52l-.07-.12-.17-.32-1-1.92v5.59h-2.53v-9.9h2.53l2.55,4.22Z"/><path class="cls-2" d="M136.36,329.92v2.14h-6.73v-9.9h6.61v2.14h-4.08V326h3.43v2.14h-3.43v1.74Z"/><path class="cls-2" d="M141.82,322.13a6,6,0,0,1,1.49.35,4.44,4.44,0,0,1,1.37.86,4.93,4.93,0,0,1,1.21,1.7,5.19,5.19,0,0,1,.43,2,4.86,4.86,0,0,1-.55,2.28,4.54,4.54,0,0,1-1.53,1.75,5.5,5.5,0,0,1-2,.79,14.22,14.22,0,0,1-2.5.19l-1.15,0h-1.09v-10H140C140.72,322.05,141.32,322.08,141.82,322.13Zm2.09,4.95a2.49,2.49,0,0,0-.34-1.27,2.62,2.62,0,0,0-.91-1,2.48,2.48,0,0,0-1.27-.38H140v5.17a10.82,10.82,0,0,0,1.73-.12,3,3,0,0,0,1.3-.55,2.25,2.25,0,0,0,.79-1.31A3.25,3.25,0,0,0,143.91,327.08Z"/><path class="cls-2" d="M156.51,322.26l3.23,9.8h-2.43l-.65-2H153.6l-.63,2h-2.45l3.24-9.8ZM154.25,328H156l-.88-2.77Z"/><path class="cls-2" d="M167.48,322.16v2.52H165v7.38h-2.53v-7.38h-2.54v-2.52h7.6Z"/><path class="cls-2" d="M178.93,322.58a3.06,3.06,0,0,1,1.53,2.66,3.07,3.07,0,0,1-.41,1.55,3.16,3.16,0,0,1-1.12,1.12,3.07,3.07,0,0,1-1.55.41H175v3.74h-2.37v-9.9h4.72A3,3,0,0,1,178.93,322.58Zm-1,1.94a1,1,0,0,0-.66-.33H175v2.1h2.33A.93.93,0,0,0,178,326a1.09,1.09,0,0,0,.28-.72A1,1,0,0,0,178,324.52Z"/><path class="cls-2" d="M189.38,332.06h-2.54l-1.56-3.74h-1.61v3.74H181.3v-9.9H186a3,3,0,0,1,1.54.42,3,3,0,0,1,1.13,1.12,3.09,3.09,0,0,1,.41,1.54,3,3,0,0,1-.38,1.48,3.19,3.19,0,0,1-1,1.11Zm-2.79-7.54a.92.92,0,0,0-.66-.33h-2.32v2.1h2.32a1,1,0,0,0,.66-.34,1.08,1.08,0,0,0,0-1.43Z"/><path class="cls-2" d="M197.46,322.83a5.07,5.07,0,0,1,1.82,1.83,5,5,0,0,1,.67,2.51,4.94,4.94,0,0,1-.67,2.51,5,5,0,0,1-1.82,1.82,5,5,0,0,1-5,0,5,5,0,0,1-1.83-1.82,4.84,4.84,0,0,1-.67-2.51,4.89,4.89,0,0,1,.67-2.51,5,5,0,0,1,4.34-2.5A5,5,0,0,1,197.46,322.83Zm-1.22,6.57a2.73,2.73,0,0,0,.94-.94,2.5,2.5,0,0,0,.35-1.29,2.55,2.55,0,0,0-.35-1.29,2.76,2.76,0,0,0-.94-.95,2.55,2.55,0,0,0-2.58,0,2.62,2.62,0,0,0-.95.95,2.55,2.55,0,0,0-.35,1.29,2.5,2.5,0,0,0,.35,1.29,2.6,2.6,0,0,0,.95.94,2.55,2.55,0,0,0,2.58,0Z"/><path class="cls-2" d="M208.42,322.16h2.52v9.9h-2.52v-5.59l-1.23,2.24-.06.12h-2.52l-.07-.12-.17-.32-1.05-1.92v5.59h-2.53v-9.9h2.53l2.55,4.22Z"/><path class="cls-2" d="M219.3,322.83a5.07,5.07,0,0,1,1.82,1.83,5,5,0,0,1,.67,2.51,4.94,4.94,0,0,1-.67,2.51,5,5,0,0,1-1.82,1.82,5,5,0,0,1-5,0,5,5,0,0,1-1.83-1.82,4.84,4.84,0,0,1-.67-2.51,4.89,4.89,0,0,1,.67-2.51,5,5,0,0,1,4.34-2.5A5,5,0,0,1,219.3,322.83Zm-1.22,6.57a2.73,2.73,0,0,0,.94-.94,2.5,2.5,0,0,0,.35-1.29,2.55,2.55,0,0,0-.35-1.29,2.76,2.76,0,0,0-.94-.95,2.55,2.55,0,0,0-2.58,0,2.62,2.62,0,0,0-.95.95,2.55,2.55,0,0,0-.35,1.29,2.5,2.5,0,0,0,.35,1.29,2.6,2.6,0,0,0,.95.94,2.55,2.55,0,0,0,2.58,0Z"/><path class="cls-2" d="M230.09,322.16v2.52h-2.53v7.38H225v-7.38h-2.53v-2.52h7.6Z"/><path class="cls-2" d="M233.59,322.16v9.9h-2.52v-9.9Z"/><path class="cls-2" d="M240.16,322.16h2.52v9.9h-2.52l-2.91-5.31v5.31h-2.54v-9.9h2.54l2.91,5.31Z"/><path class="cls-2" d="M253.53,327.16a4.87,4.87,0,0,1-.68,2.51,5,5,0,0,1-6.84,1.82,5,5,0,0,1-1.82-1.82,5,5,0,0,1,0-5,5,5,0,0,1,1.82-1.83,4.83,4.83,0,0,1,2.5-.67,4.93,4.93,0,0,1,2,.39,5,5,0,0,1,1.6,1.09l-2.25,1.29a2.57,2.57,0,0,0-1.31-.35,2.49,2.49,0,0,0-1.28.35,2.52,2.52,0,0,0-.94.95,2.55,2.55,0,0,0,0,2.58,2.65,2.65,0,0,0,.94.94,2.54,2.54,0,0,0,2.64,0,2.62,2.62,0,0,0,.95-1h-3.1V326h5.67A5.62,5.62,0,0,1,253.53,327.16Z"/><path class="cls-2" d="M266,322.16v2.52h-2.54v7.38H261v-7.38h-2.53v-2.52H266Z"/><path class="cls-2" d="M272.36,322.16h2.52v9.9h-2.52v-3.7h-2.83v3.7H267v-9.9h2.52v3.68h2.83Z"/><path class="cls-2" d="M282.73,329.92v2.14H276v-9.9h6.6v2.14h-4.07V326H282v2.14h-3.43v1.74Z"/><path class="cls-2" d="M294.31,322.58a2.87,2.87,0,0,1,1.12,1.12,3,3,0,0,1,.42,1.54,3.1,3.1,0,0,1-1.54,2.67,3,3,0,0,1-1.54.41h-2.35v3.74h-2.37v-9.9h4.72A3,3,0,0,1,294.31,322.58Zm-1,1.94a1,1,0,0,0-.67-.33h-2.32v2.1h2.32a1,1,0,0,0,.67-.34,1.08,1.08,0,0,0,.27-.72A1,1,0,0,0,293.35,324.52Z"/><path class="cls-2" d="M304.77,332.06h-2.54l-1.57-3.74h-1.61v3.74h-2.36v-9.9h4.72a3.08,3.08,0,0,1,2.7,4.56,3.22,3.22,0,0,1-1,1.11ZM302,324.52a1,1,0,0,0-.66-.33H299v2.1h2.32A1,1,0,0,0,302,326a1.08,1.08,0,0,0,0-1.43Z"/><path class="cls-2" d="M312.84,322.83a5,5,0,0,1,1.82,1.83,4.89,4.89,0,0,1,.67,2.51,4.84,4.84,0,0,1-.67,2.51,5,5,0,0,1-1.82,1.82,4.83,4.83,0,0,1-2.5.67,4.9,4.9,0,0,1-2.52-.67,5,5,0,0,1-1.82-1.82,4.84,4.84,0,0,1-.67-2.51,4.89,4.89,0,0,1,.67-2.51,5,5,0,0,1,4.34-2.5A4.93,4.93,0,0,1,312.84,322.83Zm-1.21,6.57a2.62,2.62,0,0,0,.93-.94,2.41,2.41,0,0,0,.35-1.29,2.45,2.45,0,0,0-.35-1.29,2.65,2.65,0,0,0-.93-.95,2.57,2.57,0,0,0-2.59,0,2.67,2.67,0,0,0-.94.95,2.45,2.45,0,0,0-.35,1.29,2.41,2.41,0,0,0,.35,1.29,2.65,2.65,0,0,0,.94.94,2.57,2.57,0,0,0,2.59,0Z"/><path class="cls-2" d="M321.37,322.13h2.34v6.12a3.79,3.79,0,0,1-.53,2,3.87,3.87,0,0,1-1.42,1.42,3.89,3.89,0,0,1-3.92,0,3.87,3.87,0,0,1-1.42-1.42,3.79,3.79,0,0,1-.53-2v-.4h2.34a2.19,2.19,0,0,0,.45,1.33,1.36,1.36,0,0,0,1.12.53,1.38,1.38,0,0,0,1.13-.58,2.35,2.35,0,0,0,.44-1.44Z"/><path class="cls-2" d="M331.56,329.92v2.14h-6.73v-9.9h6.6v2.14h-4.07V326h3.43v2.14h-3.43v1.74Z"/><path class="cls-2" d="M338.39,329.52a2.84,2.84,0,0,0,.84-.55l1.71,1.7a5,5,0,0,1-1.61,1.09,5.06,5.06,0,0,1-4.44-.29,5,5,0,0,1-1.82-1.82,4.93,4.93,0,0,1-.67-2.5,5,5,0,0,1,2.49-4.34,5,5,0,0,1,4.44-.29,5.18,5.18,0,0,1,1.61,1.08l-1.71,1.71a2.66,2.66,0,0,0-.84-.55,2.55,2.55,0,0,0-2.28.15,2.73,2.73,0,0,0-.94.94,2.56,2.56,0,0,0-.35,1.3,2.49,2.49,0,0,0,.35,1.28,2.65,2.65,0,0,0,.94.94,2.41,2.41,0,0,0,1.29.35A2.57,2.57,0,0,0,338.39,329.52Z"/><path class="cls-2" d="M349.24,322.16v2.52h-2.53v7.38h-2.54v-7.38h-2.53v-2.52h7.6Z"/><path class="cls-2" d="M356.94,322.16v9.9h-2.52v-9.9Z"/><path class="cls-2" d="M363.51,322.16H366v9.9h-2.52l-2.91-5.31v5.31h-2.54v-9.9h2.54l2.91,5.31Z"/><path class="cls-2" d="M39.89,339v2.52H37.35v7.38H34.82v-7.38H32.29V339h7.6Z"/><path class="cls-2" d="M46.22,339h2.52v9.9H46.22v-3.7H43.39v3.7H40.87V339h2.52v3.68h2.83Z"/><path class="cls-2" d="M56.59,346.72v2.14H49.86V339h6.6v2.14H52.39v1.74h3.43V345H52.39v1.74Z"/><path class="cls-2" d="M69.54,339h2.52v9.9H69.54v-5.59l-1.23,2.24-.06.12H65.73l-.07-.12-.17-.32-1-1.92v5.59H61.91V339h2.53L67,343.18Z"/><path class="cls-2" d="M79.91,346.72v2.14H73.18V339h6.61v2.14H75.71v1.74h3.43V345H75.71v1.74Z"/><path class="cls-2" d="M85.37,338.93a6.05,6.05,0,0,1,1.5.35,4.51,4.51,0,0,1,1.36.86,4.8,4.8,0,0,1,1.21,1.7,5,5,0,0,1,.43,2,4.74,4.74,0,0,1-.55,2.28,4.54,4.54,0,0,1-1.53,1.75,5.43,5.43,0,0,1-2,.79,14.22,14.22,0,0,1-2.5.19l-1.14,0H81v-10h2.54C84.27,338.85,84.87,338.88,85.37,338.93Zm2.09,4.95a2.49,2.49,0,0,0-.34-1.27,2.62,2.62,0,0,0-.91-1,2.48,2.48,0,0,0-1.27-.38H83.57v5.17a10.73,10.73,0,0,0,1.73-.12,3,3,0,0,0,1.3-.55,2.21,2.21,0,0,0,.79-1.31A2.54,2.54,0,0,0,87.46,343.88Z"/><path class="cls-2" d="M93.23,339v9.9H90.71V339Z"/><path class="cls-2" d="M99.5,339.06l3.23,9.8H100.3l-.65-2H96.59l-.63,2H93.51l3.25-9.8Zm-2.25,5.75H99L98.13,342Z"/><path class="cls-2" d="M103.11,348.45a1.37,1.37,0,0,1-.38-1,1.21,1.21,0,0,1,.39-.91,1.3,1.3,0,0,1,1.85,0,1.33,1.33,0,0,1-.93,2.27A1.22,1.22,0,0,1,103.11,348.45Z"/><path class="cls-2" d="M117.87,339v2.52h-2.54v7.38H112.8v-7.38h-2.53V339h7.6Z"/><path class="cls-2" d="M124.2,339h2.52v9.9H124.2v-3.7h-2.83v3.7h-2.52V339h2.52v3.68h2.83Z"/><path class="cls-2" d="M134.57,346.72v2.14h-6.74V339h6.61v2.14h-4.07v1.74h3.43V345h-3.43v1.74Z"/><path class="cls-2" d="M149.62,344a5,5,0,0,1-.67,2.51,5.07,5.07,0,0,1-1.83,1.82,5,5,0,0,1-5,0,5.12,5.12,0,0,1-1.82-1.82,5,5,0,0,1,0-5,5.07,5.07,0,0,1,1.82-1.83,4.87,4.87,0,0,1,2.51-.67,4.93,4.93,0,0,1,3.55,1.48l-2.25,1.29a2.53,2.53,0,0,0-1.3-.35,2.5,2.5,0,0,0-1.29.35,2.6,2.6,0,0,0-.94.95,2.55,2.55,0,0,0,0,2.58,2.73,2.73,0,0,0,.94.94,2.5,2.5,0,0,0,1.29.35,2.47,2.47,0,0,0,1.35-.39,2.64,2.64,0,0,0,1-1h-3.11V342.8h5.67A5.62,5.62,0,0,1,149.62,344Z"/><path class="cls-2" d="M157.7,339.63a5.07,5.07,0,0,1,1.82,1.83,5,5,0,0,1-1.82,6.84,5,5,0,0,1-5,0,5,5,0,0,1-1.83-1.82,5,5,0,0,1,0-5,5,5,0,0,1,4.34-2.5A5,5,0,0,1,157.7,339.63Zm-1.22,6.57a2.73,2.73,0,0,0,.94-.94,2.5,2.5,0,0,0,.35-1.29,2.55,2.55,0,0,0-.35-1.29,2.76,2.76,0,0,0-.94-.95,2.55,2.55,0,0,0-2.58,0,2.62,2.62,0,0,0-1,.95,2.55,2.55,0,0,0-.35,1.29,2.5,2.5,0,0,0,.35,1.29,2.6,2.6,0,0,0,1,.94,2.55,2.55,0,0,0,2.58,0Z"/><path class="cls-2" d="M166.18,339.06l3.23,9.8H167l-.65-2h-3.06l-.63,2h-2.45l3.25-9.8Zm-2.25,5.75h1.76l-.88-2.77Z"/><path class="cls-2" d="M172.21,346.48h3.9v2.38h-6.42V339h2.52Z"/><path class="cls-2" d="M183.81,339v9.9h-2.52V339Z"/><path class="cls-2" d="M189.45,342.1v-.18a.91.91,0,0,0-.34-.7,1.27,1.27,0,0,0-.84-.28,1.35,1.35,0,0,0-.86.28.87.87,0,0,0-.36.7.65.65,0,0,0,.37.6,2.92,2.92,0,0,0,1,.39l.22,0,.24.06a4.88,4.88,0,0,1,2,.82l.13.12a3.13,3.13,0,0,1,.67,1,2.79,2.79,0,0,1,0,2.33,3.19,3.19,0,0,1-.79,1,3.7,3.7,0,0,1-1.18.66,4,4,0,0,1-1.37.23,3.94,3.94,0,0,1-1.37-.23,3.76,3.76,0,0,1-1.17-.66,3.19,3.19,0,0,1-.79-1,2.72,2.72,0,0,1-.28-1.21v-.18h2.45V346a.89.89,0,0,0,.34.7,1.24,1.24,0,0,0,.82.28,1.35,1.35,0,0,0,.86-.28.89.89,0,0,0,.36-.7.8.8,0,0,0-.38-.61,1.22,1.22,0,0,0-.39-.21,3.64,3.64,0,0,0-.55-.17l-.46-.11c-.52-.13-.92-.25-1.21-.35a2.7,2.7,0,0,1-.79-.48l-.06-.06a3,3,0,0,1-.73-1,2.51,2.51,0,0,1-.26-1.14,2.69,2.69,0,0,1,.28-1.21,3.19,3.19,0,0,1,.79-1,3.76,3.76,0,0,1,1.17-.66,4,4,0,0,1,1.37-.24,4,4,0,0,1,1.37.24,3.7,3.7,0,0,1,1.18.66,3.19,3.19,0,0,1,.79,1,2.81,2.81,0,0,1,.27,1.21v.18Z"/><path class="cls-2" d="M204.37,339v2.52h-2.53v7.38H199.3v-7.38h-2.53V339h7.6Z"/><path class="cls-2" d="M212.59,339.63a5,5,0,0,1,1.82,1.83,5,5,0,0,1,0,5,5,5,0,0,1-1.82,1.82,4.84,4.84,0,0,1-2.51.67,4.89,4.89,0,0,1-2.51-.67,5,5,0,0,1,2.51-9.34A4.94,4.94,0,0,1,212.59,339.63Zm-1.22,6.57a2.65,2.65,0,0,0,.94-.94,2.5,2.5,0,0,0,.35-1.29,2.55,2.55,0,0,0-.35-1.29,2.67,2.67,0,0,0-.94-.95,2.5,2.5,0,0,0-1.29-.35,2.55,2.55,0,0,0-1.29.35,2.7,2.7,0,0,0-.95.95,2.55,2.55,0,0,0-.35,1.29,2.5,2.5,0,0,0,.35,1.29,2.67,2.67,0,0,0,.95.94,2.55,2.55,0,0,0,1.29.35A2.5,2.5,0,0,0,211.37,346.2Z"/><path class="cls-2" d="M229.85,344a4.87,4.87,0,0,1-.67,2.51,5.07,5.07,0,0,1-1.83,1.82,5,5,0,0,1-5,0,5.12,5.12,0,0,1-1.82-1.82,5,5,0,0,1,0-5,5.07,5.07,0,0,1,1.82-1.83,4.87,4.87,0,0,1,2.51-.67,4.92,4.92,0,0,1,1.95.39,5.09,5.09,0,0,1,1.61,1.09l-2.26,1.29a2.57,2.57,0,0,0-2.59,0,2.67,2.67,0,0,0-.94.95,2.55,2.55,0,0,0,0,2.58,2.82,2.82,0,0,0,.94.94,2.56,2.56,0,0,0,2.65,0,2.62,2.62,0,0,0,1-1H224V342.8h5.67A5.62,5.62,0,0,1,229.85,344Z"/><path class="cls-2" d="M237.43,346.72v2.14h-6.74V339h6.61v2.14h-4.07v1.74h3.43V345h-3.43v1.74Z"/><path class="cls-2" d="M246,339v2.52h-2.54v7.38h-2.53v-7.38h-2.53V339H246Z"/><path class="cls-2" d="M256.38,338.93h2.34v6.12a3.79,3.79,0,0,1-.53,2,3.87,3.87,0,0,1-1.42,1.42,3.89,3.89,0,0,1-3.92,0,3.94,3.94,0,0,1-1.42-1.42,3.78,3.78,0,0,1-.52-2v-.4h2.34a2.12,2.12,0,0,0,.44,1.33,1.42,1.42,0,0,0,2.25-.05,2.35,2.35,0,0,0,.44-1.44Z"/><path class="cls-2" d="M267.08,339.63a5.07,5.07,0,0,1,1.82,1.83,5,5,0,0,1-1.82,6.84,5,5,0,0,1-5,0,5,5,0,0,1-1.83-1.82,5,5,0,0,1,0-5,5,5,0,0,1,4.34-2.5A5,5,0,0,1,267.08,339.63Zm-1.22,6.57a2.73,2.73,0,0,0,.94-.94,2.5,2.5,0,0,0,.35-1.29,2.55,2.55,0,0,0-.35-1.29,2.76,2.76,0,0,0-.94-.95,2.55,2.55,0,0,0-2.58,0,2.62,2.62,0,0,0-.95.95A2.55,2.55,0,0,0,262,344a2.5,2.5,0,0,0,.35,1.29,2.6,2.6,0,0,0,.95.94,2.55,2.55,0,0,0,2.58,0Z"/><path class="cls-2" d="M278.46,339v6.11a3.79,3.79,0,0,1-.53,2,3.86,3.86,0,0,1-3.39,1.95h-.23a3.83,3.83,0,0,1-2-.52,4,4,0,0,1-1.42-1.43,3.78,3.78,0,0,1-.52-2V339h2.34v5.55a2.41,2.41,0,0,0,.42,1.45,1.34,1.34,0,0,0,1.14.57h.23a1.35,1.35,0,0,0,1.14-.58,2.35,2.35,0,0,0,.44-1.44V339Z"/><path class="cls-2" d="M287.66,348.86h-2.54l-1.57-3.74h-1.61v3.74h-2.36V339h4.72a3.08,3.08,0,0,1,2.7,4.56,3.19,3.19,0,0,1-1,1.11Zm-2.79-7.54a1,1,0,0,0-.66-.33h-2.32v2.1h2.32a1,1,0,0,0,.66-.34,1.08,1.08,0,0,0,0-1.43Z"/><path class="cls-2" d="M293.94,339h2.52v9.9h-2.52L291,343.55v5.31H288.5V339H291l2.91,5.31Z"/><path class="cls-2" d="M302.73,339.06l3.24,9.8h-2.44l-.64-2h-3.07l-.63,2h-2.45l3.25-9.8Zm-2.25,5.75h1.77l-.89-2.77Z"/><path class="cls-2" d="M308.77,346.48h3.89v2.38h-6.41V339h2.52Z"/><path class="cls-2" d="M316.16,339v9.9h-2.52V339Z"/><path class="cls-2" d="M321.8,342.1v-.18a.88.88,0,0,0-.34-.7,1.26,1.26,0,0,0-.83-.28,1.31,1.31,0,0,0-.86.28.87.87,0,0,0-.36.7.64.64,0,0,0,.36.6,3,3,0,0,0,1,.39l.22,0,.25.06a4.94,4.94,0,0,1,2,.82l.13.12a3.1,3.1,0,0,1,.66,1,2.79,2.79,0,0,1,0,2.33,3.06,3.06,0,0,1-.79,1,3.65,3.65,0,0,1-1.17.66,4,4,0,0,1-1.38.23,3.89,3.89,0,0,1-1.36-.23,3.55,3.55,0,0,1-1.17-.66,3.23,3.23,0,0,1-.8-1A2.72,2.72,0,0,1,317,346v-.18h2.45V346a.93.93,0,0,0,.34.7,1.26,1.26,0,0,0,.82.28,1.31,1.31,0,0,0,.86-.28.89.89,0,0,0,.36-.7.78.78,0,0,0-.38-.61,1.22,1.22,0,0,0-.39-.21,3.64,3.64,0,0,0-.55-.17l-.46-.11c-.51-.13-.91-.25-1.2-.35a2.62,2.62,0,0,1-.8-.48L318,344a3,3,0,0,1-.74-1,2.64,2.64,0,0,1-.26-1.14,2.69,2.69,0,0,1,.28-1.21,3.23,3.23,0,0,1,.8-1,3.55,3.55,0,0,1,1.17-.66,3.89,3.89,0,0,1,1.36-.24A4,4,0,0,1,322,339a3.65,3.65,0,0,1,1.17.66,3.06,3.06,0,0,1,.79,1,2.81,2.81,0,0,1,.27,1.21v.18Z"/><path class="cls-2" d="M332.53,339v2.52H330v7.38h-2.53v-7.38h-2.54V339h7.61Z"/><path class="cls-2" d="M338,342.1v-.18a.88.88,0,0,0-.34-.7,1.27,1.27,0,0,0-.84-.28,1.35,1.35,0,0,0-.86.28.87.87,0,0,0-.36.7.65.65,0,0,0,.37.6,2.92,2.92,0,0,0,.95.39l.22,0,.24.06a5,5,0,0,1,2,.82l.12.12a3.13,3.13,0,0,1,.67,1,2.79,2.79,0,0,1,0,2.33,3.19,3.19,0,0,1-.79,1,3.7,3.7,0,0,1-1.18.66,4.2,4.2,0,0,1-2.74,0,3.76,3.76,0,0,1-1.17-.66,3.19,3.19,0,0,1-.79-1,2.72,2.72,0,0,1-.28-1.21v-.18h2.45V346a.89.89,0,0,0,.34.7,1.24,1.24,0,0,0,.82.28,1.35,1.35,0,0,0,.86-.28.89.89,0,0,0,.36-.7.8.8,0,0,0-.38-.61,1.22,1.22,0,0,0-.39-.21,3.64,3.64,0,0,0-.55-.17l-.46-.11c-.51-.13-.92-.25-1.2-.35a2.62,2.62,0,0,1-.8-.48l-.06-.06a3,3,0,0,1-.73-1,2.51,2.51,0,0,1-.26-1.14,2.69,2.69,0,0,1,.28-1.21,3.19,3.19,0,0,1,.79-1,3.76,3.76,0,0,1,1.17-.66,4,4,0,0,1,2.74,0,3.7,3.7,0,0,1,1.18.66,3.19,3.19,0,0,1,.79,1,2.81,2.81,0,0,1,.27,1.21v.18Z"/><path class="cls-2" d="M35,355.76v9.9H32.43v-9.9Z"/><path class="cls-2" d="M41.51,355.76H44v9.9H41.51l-2.91-5.31v5.31H36.07v-9.9H38.6l2.91,5.31Z"/><path class="cls-2" d="M52.61,355.76v2.52H50.08v7.38H47.55v-7.38H45v-2.52h7.6Z"/><path class="cls-2" d="M60.33,363.52v2.14H53.59v-9.9H60.2v2.14H56.13v1.74h3.43v2.14H56.13v1.74Z"/><path class="cls-2" d="M69.53,365.66H67l-1.57-3.74H63.81v3.74H61.45v-9.9h4.72a3.08,3.08,0,0,1,2.7,4.56,3.19,3.19,0,0,1-1,1.11Zm-2.79-7.54a1,1,0,0,0-.66-.33H63.76v2.1h2.32a1,1,0,0,0,.66-.34,1.08,1.08,0,0,0,0-1.43Z"/><path class="cls-2" d="M77.1,363.52v2.14H70.37v-9.9H77v2.14H72.9v1.74h3.43v2.14H72.9v1.74Z"/><path class="cls-2" d="M82.74,358.9v-.18a.88.88,0,0,0-.34-.7,1.26,1.26,0,0,0-.83-.28,1.31,1.31,0,0,0-.86.28.87.87,0,0,0-.36.7.64.64,0,0,0,.36.6,3,3,0,0,0,1,.39l.22,0,.25.06a4.94,4.94,0,0,1,2,.82l.12.12a3,3,0,0,1,.67,1,2.79,2.79,0,0,1,0,2.33,3.06,3.06,0,0,1-.79,1,3.7,3.7,0,0,1-1.18.66,4.17,4.17,0,0,1-2.73,0,3.55,3.55,0,0,1-1.17-.66,3.23,3.23,0,0,1-.8-1,2.72,2.72,0,0,1-.28-1.21v-.18h2.45v.18a.89.89,0,0,0,.34.7,1.26,1.26,0,0,0,.82.28,1.31,1.31,0,0,0,.86-.28.89.89,0,0,0,.36-.7.8.8,0,0,0-.38-.61A1.22,1.22,0,0,0,82,362a3.64,3.64,0,0,0-.55-.17l-.46-.11c-.51-.13-.91-.25-1.2-.35a2.44,2.44,0,0,1-.8-.48l-.06-.06a3,3,0,0,1-.73-1,2.64,2.64,0,0,1-.26-1.14,2.72,2.72,0,0,1,.28-1.21,3.23,3.23,0,0,1,.8-1,3.55,3.55,0,0,1,1.17-.66,4,4,0,0,1,2.73,0,3.7,3.7,0,0,1,1.18.66,3.06,3.06,0,0,1,.79,1,2.85,2.85,0,0,1,.27,1.21v.18Z"/><path class="cls-2" d="M93.47,355.76v2.52H90.93v7.38H88.4v-7.38H85.86v-2.52h7.61Z"/><path class="cls-2" d="M101.18,363.52v2.14H94.45v-9.9h6.6v2.14H97v1.74h3.43v2.14H97v1.74Z"/><path class="cls-2" d="M106.64,355.73a6.08,6.08,0,0,1,1.49.35,4.44,4.44,0,0,1,1.37.86,4.93,4.93,0,0,1,1.21,1.7,5.17,5.17,0,0,1,.42,2,4.85,4.85,0,0,1-.54,2.28,4.54,4.54,0,0,1-1.53,1.75,5.57,5.57,0,0,1-2,.79,14.29,14.29,0,0,1-2.5.19l-1.15,0H102.3v-10h2.53C105.53,355.65,106.14,355.68,106.64,355.73Zm2.09,4.95a2.6,2.6,0,0,0-.34-1.27,2.57,2.57,0,0,0-.92-1,2.45,2.45,0,0,0-1.26-.38h-1.38v5.17a10.65,10.65,0,0,0,1.73-.12,3,3,0,0,0,1.31-.55,2.25,2.25,0,0,0,.79-1.31A3.25,3.25,0,0,0,108.73,360.68Z"/><path class="cls-2" d="M118.69,355.76v9.9h-2.52v-9.9Z"/><path class="cls-2" d="M125.26,355.76h2.52v9.9h-2.52l-2.91-5.31v5.31h-2.54v-9.9h2.54l2.91,5.31Z"/><path class="cls-2" d="M141.07,355.76h2.18v9.9h-2.52l-2.55-4.21-2.56,4.21H133.1v-9.9h2.52v5.59l1.23-2.24.07-.11h2.52l.06.11,1.23,2.24v-5.59Z"/><path class="cls-2" d="M152.45,365.66h-2.54l-1.56-3.74h-1.61v3.74h-2.37v-9.9h4.72a3.08,3.08,0,0,1,2.7,4.56,3.19,3.19,0,0,1-1,1.11Zm-2.79-7.54a1,1,0,0,0-.66-.33h-2.32v2.1H149a1,1,0,0,0,.66-.34,1.08,1.08,0,0,0,0-1.43Z"/><path class="cls-2" d="M155.81,355.76v9.9h-2.52v-9.9Z"/><path class="cls-2" d="M164.39,355.76v2.52h-2.53v7.38h-2.54v-7.38h-2.53v-2.52h7.6Z"/><path class="cls-2" d="M167.89,355.76v9.9h-2.52v-9.9Z"/><path class="cls-2" d="M174.46,355.76H177v9.9h-2.52l-2.92-5.31v5.31H169v-9.9h2.53l2.92,5.31Z"/><path class="cls-2" d="M187.83,360.76a4.87,4.87,0,0,1-.68,2.51,5,5,0,0,1-6.84,1.82,5,5,0,0,1-1.82-1.82,5,5,0,0,1,0-5,5,5,0,0,1,1.82-1.83,4.83,4.83,0,0,1,2.5-.67,5,5,0,0,1,2,.39,5,5,0,0,1,1.6,1.09l-2.25,1.29a2.57,2.57,0,0,0-1.31-.35,2.49,2.49,0,0,0-1.28.35,2.52,2.52,0,0,0-.94,1,2.55,2.55,0,0,0,0,2.58,2.65,2.65,0,0,0,.94.94,2.54,2.54,0,0,0,2.64,0,2.62,2.62,0,0,0,1-1H182V359.6h5.67A5.62,5.62,0,0,1,187.83,360.76Z"/><path class="cls-2" d="M198,355.86l3.23,9.8h-2.43l-.65-2h-3.06l-.63,2H192l3.24-9.8Zm-2.26,5.75h1.77l-.88-2.77Z"/><path class="cls-2" d="M209,361.48a2.75,2.75,0,0,1,.33,1.32,2.83,2.83,0,0,1-.38,1.43,2.9,2.9,0,0,1-1,1,2.86,2.86,0,0,1-1.44.4h-4.94v-9.9H206a2.73,2.73,0,0,1,1.44.39,2.8,2.8,0,0,1,1,1,2.72,2.72,0,0,1,.37,1.4,2.84,2.84,0,0,1-.19,1,2.8,2.8,0,0,1-.55.87A2.82,2.82,0,0,1,209,361.48Zm-2.61-3.4a1,1,0,0,0-.72-.3h-1.82v2.1h1.82l.34-.06a.82.82,0,0,0,.25-.14,1.05,1.05,0,0,0,.43-.87A1,1,0,0,0,206.38,358.08Zm.42,5.23a1,1,0,0,0,.29-.74,1,1,0,0,0-.24-.67,1,1,0,0,0-.6-.36h-2.41v2.1h2.24A1,1,0,0,0,206.8,363.31Z"/><path class="cls-2" d="M217.39,356.43a5.06,5.06,0,0,1,2.5,4.34,5,5,0,0,1-5,5,4.9,4.9,0,0,1-2.52-.67,5,5,0,0,1-1.82-1.82,4.84,4.84,0,0,1-.67-2.51,4.89,4.89,0,0,1,.67-2.51,5,5,0,0,1,4.34-2.5A4.93,4.93,0,0,1,217.39,356.43ZM216.18,363a2.62,2.62,0,0,0,.93-.94,2.41,2.41,0,0,0,.35-1.29,2.45,2.45,0,0,0-.35-1.29,2.65,2.65,0,0,0-.93-1,2.57,2.57,0,0,0-2.59,0,2.67,2.67,0,0,0-.94,1,2.45,2.45,0,0,0-.35,1.29,2.41,2.41,0,0,0,.35,1.29,2.65,2.65,0,0,0,.94.94,2.57,2.57,0,0,0,2.59,0Z"/><path class="cls-2" d="M228.78,355.78v6.11a3.79,3.79,0,0,1-.53,2,3.92,3.92,0,0,1-1.43,1.43,3.83,3.83,0,0,1-2,.52h-.23a3.81,3.81,0,0,1-2-.52,3.9,3.9,0,0,1-1.42-1.43,3.78,3.78,0,0,1-.52-2v-6.11h2.33v5.55a2.41,2.41,0,0,0,.42,1.45,1.36,1.36,0,0,0,1.15.57h.23a1.38,1.38,0,0,0,1.14-.58,2.35,2.35,0,0,0,.44-1.44v-5.55Z"/><path class="cls-2" d="M237.36,355.76v2.52h-2.54v7.38h-2.53v-7.38h-2.54v-2.52h7.61Z"/><path class="cls-2" d="M250,355.76v2.52h-2.54v7.38h-2.53v-7.38H242.4v-2.52H250Z"/><path class="cls-2" d="M256.33,355.76h2.52v9.9h-2.52V362H253.5v3.7H251v-9.9h2.52v3.68h2.83Z"/><path class="cls-2" d="M266.7,363.52v2.14H260v-9.9h6.6v2.14H262.5v1.74h3.43v2.14H262.5v1.74Z"/><path class="cls-2" d="M278.29,356.18a3.06,3.06,0,0,1,1.12,1.11,3.13,3.13,0,0,1,0,3.1,3.16,3.16,0,0,1-1.12,1.12,3,3,0,0,1-1.55.41h-2.35v3.74H272v-9.9h4.72A3,3,0,0,1,278.29,356.18Zm-1,1.94a1,1,0,0,0-.67-.33h-2.32v2.1h2.32a.93.93,0,0,0,.67-.34,1.08,1.08,0,0,0,.27-.72A1,1,0,0,0,277.32,358.12Z"/><path class="cls-2" d="M288.74,365.66H286.2l-1.57-3.74H283v3.74h-2.36v-9.9h4.72a3.08,3.08,0,0,1,2.7,4.56,3.19,3.19,0,0,1-1,1.11ZM286,358.12a1,1,0,0,0-.66-.33H283v2.1h2.32a1,1,0,0,0,.66-.34,1.08,1.08,0,0,0,0-1.43Z"/><path class="cls-2" d="M296.81,356.43a5.06,5.06,0,0,1,2.5,4.34,5,5,0,0,1-5,5,4.9,4.9,0,0,1-2.52-.67,5,5,0,0,1-1.82-1.82,4.84,4.84,0,0,1-.67-2.51,4.89,4.89,0,0,1,.67-2.51,5,5,0,0,1,4.34-2.5A4.93,4.93,0,0,1,296.81,356.43ZM295.6,363a2.62,2.62,0,0,0,.93-.94,2.41,2.41,0,0,0,.35-1.29,2.45,2.45,0,0,0-.35-1.29,2.65,2.65,0,0,0-.93-1,2.57,2.57,0,0,0-2.59,0,2.67,2.67,0,0,0-.94,1,2.45,2.45,0,0,0-.35,1.29,2.41,2.41,0,0,0,.35,1.29,2.65,2.65,0,0,0,.94.94,2.57,2.57,0,0,0,2.59,0Z"/><path class="cls-2" d="M305.34,355.73h2.34v6.12a3.82,3.82,0,0,1-.53,2,3.87,3.87,0,0,1-1.42,1.42,3.89,3.89,0,0,1-3.92,0,3.87,3.87,0,0,1-1.42-1.42,3.81,3.81,0,0,1-.52-2v-.4h2.33a2.19,2.19,0,0,0,.45,1.33,1.42,1.42,0,0,0,2.25,0,2.35,2.35,0,0,0,.44-1.44Z"/><path class="cls-2" d="M315.53,363.52v2.14H308.8v-9.9h6.61v2.14h-4.08v1.74h3.43v2.14h-3.43v1.74Z"/><path class="cls-2" d="M322.36,363.12a2.84,2.84,0,0,0,.84-.55l1.71,1.7a5,5,0,0,1-1.61,1.09,5.06,5.06,0,0,1-4.44-.29,5,5,0,0,1-1.82-1.82,4.93,4.93,0,0,1-.67-2.5,5,5,0,0,1,2.49-4.34,5,5,0,0,1,4.44-.29,5.18,5.18,0,0,1,1.61,1.08l-1.71,1.71a2.84,2.84,0,0,0-.84-.55,2.55,2.55,0,0,0-2.28.15,2.65,2.65,0,0,0-.94.94,2.56,2.56,0,0,0-.35,1.3,2.49,2.49,0,0,0,.35,1.28,2.65,2.65,0,0,0,.94.94,2.41,2.41,0,0,0,1.29.35A2.57,2.57,0,0,0,322.36,363.12Z"/><path class="cls-2" d="M333.21,355.76v2.52h-2.53v7.38h-2.53v-7.38h-2.54v-2.52h7.6Z"/><path class="cls-2" d="M40.39,372.56h2.19v9.9H40.06l-2.55-4.21L35,382.46H32.43v-9.9H35v5.59l1.23-2.24.07-.11h2.52l0,.11,1.24,2.24v-5.59Z"/><path class="cls-2" d="M46.22,372.56v9.9H43.7v-9.9Z"/><path class="cls-2" d="M54.8,372.56v2.52H52.26v7.38H49.73v-7.38H47.2v-2.52h7.6Z"/><path class="cls-2" d="M61.13,372.56h2.52v9.9H61.13v-3.7H58.3v3.7H55.78v-9.9H58.3v3.68h2.83Z"/><path class="cls-2" d="M72,373.23a5.06,5.06,0,0,1,2.5,4.34A5,5,0,0,1,67,381.9a4.92,4.92,0,0,1-1.83-1.82,4.84,4.84,0,0,1-.67-2.51,4.89,4.89,0,0,1,.67-2.51A5,5,0,0,1,72,373.23Zm-1.21,6.57a2.62,2.62,0,0,0,.93-.94,2.41,2.41,0,0,0,.35-1.29,2.45,2.45,0,0,0-.35-1.29,2.65,2.65,0,0,0-.93-.95,2.57,2.57,0,0,0-2.59,0,2.67,2.67,0,0,0-.94.95,2.45,2.45,0,0,0-.35,1.29,2.41,2.41,0,0,0,.35,1.29,2.65,2.65,0,0,0,.94.94,2.57,2.57,0,0,0,2.59,0Z"/><path class="cls-2" d="M83.39,372.58v6.11a3.79,3.79,0,0,1-.53,2,3.85,3.85,0,0,1-1.43,1.43,3.91,3.91,0,0,1-2,.52h-.23a3.86,3.86,0,0,1-3.38-2,3.78,3.78,0,0,1-.52-2v-6.11h2.33v5.55a2.41,2.41,0,0,0,.42,1.45,1.36,1.36,0,0,0,1.15.57h.23a1.38,1.38,0,0,0,1.14-.58,2.35,2.35,0,0,0,.44-1.44v-5.55Z"/><path class="cls-2" d="M92,372.56v2.52H89.43v7.38H86.9v-7.38H84.37v-2.52H92Z"/><path class="cls-2" d="M102.3,372.66l3.23,9.8H103.1l-.65-2H99.39l-.63,2H96.31l3.25-9.8Zm-2.25,5.75h1.76l-.88-2.77Z"/><path class="cls-2" d="M110.15,372.53a6,6,0,0,1,1.49.35,4.44,4.44,0,0,1,1.37.86,4.8,4.8,0,0,1,1.21,1.7,5.19,5.19,0,0,1,.43,2,4.74,4.74,0,0,1-.55,2.28,4.54,4.54,0,0,1-1.53,1.75,5.43,5.43,0,0,1-2,.79,15.24,15.24,0,0,1-2.5.19l-1.14,0h-1.1v-10h2.54C109.05,372.45,109.65,372.48,110.15,372.53Zm2.09,5a2.49,2.49,0,0,0-.34-1.27,2.62,2.62,0,0,0-.91-1,2.48,2.48,0,0,0-1.27-.38h-1.37V380a10.73,10.73,0,0,0,1.73-.12,3,3,0,0,0,1.3-.55,2.21,2.21,0,0,0,.79-1.31A2.54,2.54,0,0,0,112.24,377.48Z"/><path class="cls-2" d="M119.83,372.53a6.08,6.08,0,0,1,1.49.35,4.39,4.39,0,0,1,1.36.86,4.68,4.68,0,0,1,1.21,1.7,5,5,0,0,1,.43,2,4.85,4.85,0,0,1-.54,2.28,4.65,4.65,0,0,1-1.54,1.75,5.45,5.45,0,0,1-2,.79,15.43,15.43,0,0,1-2.5.19l-1.15,0h-1.09v-10H118C118.72,372.45,119.32,372.48,119.83,372.53Zm2.08,5a2.59,2.59,0,0,0-.33-1.27,2.65,2.65,0,0,0-.92-1,2.48,2.48,0,0,0-1.27-.38H118V380a10.73,10.73,0,0,0,1.73-.12,2.9,2.9,0,0,0,1.3-.55,2.21,2.21,0,0,0,.79-1.31A2.54,2.54,0,0,0,121.91,377.48Z"/><path class="cls-2" d="M127.68,372.56v9.9h-2.52v-9.9Z"/><path class="cls-2" d="M136.26,372.56v2.52h-2.53v7.38H131.2v-7.38h-2.54v-2.52h7.6Z"/><path class="cls-2" d="M139.76,372.56v9.9h-2.52v-9.9Z"/><path class="cls-2" d="M148.12,373.23a5,5,0,0,1,1.82,1.83,4.89,4.89,0,0,1,.67,2.51,4.84,4.84,0,0,1-.67,2.51,5,5,0,0,1-1.82,1.82,4.83,4.83,0,0,1-2.5.67,5,5,0,0,1-4.34-2.49,4.85,4.85,0,0,1-.68-2.51,5.06,5.06,0,0,1,2.5-4.34,5,5,0,0,1,2.52-.67A4.93,4.93,0,0,1,148.12,373.23Zm-1.22,6.57a2.57,2.57,0,0,0,.94-.94,2.5,2.5,0,0,0,.35-1.29,2.55,2.55,0,0,0-.35-1.29,2.59,2.59,0,0,0-.94-.95,2.49,2.49,0,0,0-1.28-.35,2.56,2.56,0,0,0-1.3.35,2.59,2.59,0,0,0-.94.95,2.45,2.45,0,0,0-.35,1.29,2.41,2.41,0,0,0,.35,1.29,2.59,2.59,0,0,0,2.24,1.29A2.49,2.49,0,0,0,146.9,379.8Z"/><path class="cls-2" d="M156.9,372.56h2.52v9.9H156.9L154,377.15v5.31h-2.54v-9.9H154l2.91,5.31Z"/><path class="cls-2" d="M165.69,372.66l3.23,9.8h-2.43l-.64-2h-3.07l-.63,2H159.7l3.25-9.8Zm-2.25,5.75h1.76l-.88-2.77Z"/><path class="cls-2" d="M171.73,380.08h3.89v2.38h-6.41v-9.9h2.52Z"/><path class="cls-2" d="M188.26,378.28a2.86,2.86,0,0,1,.32,1.32,2.74,2.74,0,0,1-.38,1.43,2.9,2.9,0,0,1-2.46,1.43H180.8v-9.9h4.49a2.73,2.73,0,0,1,1.44.39,2.9,2.9,0,0,1,1,1,2.72,2.72,0,0,1,.37,1.4,2.86,2.86,0,0,1-.2,1,2.77,2.77,0,0,1-.54.87A2.92,2.92,0,0,1,188.26,378.28Zm-2.61-3.4a1,1,0,0,0-.72-.3h-1.82v2.1h1.82l.33-.06a.72.72,0,0,0,.25-.14,1,1,0,0,0,.33-.38,1.1,1.1,0,0,0,.11-.49A1,1,0,0,0,185.65,374.88Zm.42,5.23a1,1,0,0,0,.29-.74,1,1,0,0,0-.24-.67,1,1,0,0,0-.61-.36h-2.4v2.1h2.24A1,1,0,0,0,186.07,380.11Z"/><path class="cls-2" d="M197.47,372.58v6.11a3.78,3.78,0,0,1-.52,2,3.89,3.89,0,0,1-3.4,2h-.22a3.86,3.86,0,0,1-3.38-2,3.79,3.79,0,0,1-.53-2v-6.11h2.34v5.55a2.41,2.41,0,0,0,.42,1.45,1.35,1.35,0,0,0,1.15.57h.22a1.35,1.35,0,0,0,1.14-.58,2.29,2.29,0,0,0,.44-1.44v-5.55Z"/><path class="cls-2" d="M202.93,372.53a6.08,6.08,0,0,1,1.49.35,4.44,4.44,0,0,1,1.37.86,4.93,4.93,0,0,1,1.21,1.7,5.17,5.17,0,0,1,.42,2,4.85,4.85,0,0,1-.54,2.28,4.54,4.54,0,0,1-1.53,1.75,5.5,5.5,0,0,1-2,.79,15.34,15.34,0,0,1-2.5.19l-1.15,0h-1.09v-10h2.54C201.83,372.45,202.43,372.48,202.93,372.53Zm2.09,5a2.49,2.49,0,0,0-.34-1.27,2.57,2.57,0,0,0-.92-1,2.45,2.45,0,0,0-1.26-.38h-1.37V380a10.6,10.6,0,0,0,1.72-.12,3,3,0,0,0,1.31-.55,2.25,2.25,0,0,0,.79-1.31A3.25,3.25,0,0,0,205,377.48Z"/><path class="cls-2" d="M218,377.56a4.87,4.87,0,0,1-.68,2.51,5,5,0,0,1-8.66,0,5,5,0,0,1,4.32-7.52,4.93,4.93,0,0,1,3.56,1.48l-2.25,1.29A2.57,2.57,0,0,0,213,375a2.49,2.49,0,0,0-1.28.35,2.52,2.52,0,0,0-.94.95,2.55,2.55,0,0,0,0,2.58,2.65,2.65,0,0,0,.94.94,2.54,2.54,0,0,0,2.64,0,2.62,2.62,0,0,0,.95-1h-3.11V376.4h5.67A5.06,5.06,0,0,1,218,377.56Z"/><path class="cls-2" d="M225.57,380.32v2.14h-6.74v-9.9h6.61v2.14h-4.07v1.74h3.43v2.14h-3.43v1.74Z"/><path class="cls-2" d="M234.15,372.56v2.52h-2.53v7.38h-2.54v-7.38h-2.53v-2.52h7.6Z"/><path class="cls-2" d="M239.65,375.7v-.18a.88.88,0,0,0-.34-.7,1.26,1.26,0,0,0-.83-.28,1.31,1.31,0,0,0-.86.28.87.87,0,0,0-.36.7.64.64,0,0,0,.36.6,3,3,0,0,0,.95.39l.22,0,.25.06a4.94,4.94,0,0,1,2,.82l.13.12a3.1,3.1,0,0,1,.66,1,2.79,2.79,0,0,1,0,2.33,3.06,3.06,0,0,1-.79,1,3.59,3.59,0,0,1-1.18.66,4.17,4.17,0,0,1-2.73,0,3.55,3.55,0,0,1-1.17-.66,3.23,3.23,0,0,1-.8-1,2.72,2.72,0,0,1-.28-1.21v-.18h2.45v.18a.93.93,0,0,0,.34.7,1.26,1.26,0,0,0,.82.28,1.31,1.31,0,0,0,.86-.28.89.89,0,0,0,.36-.7.8.8,0,0,0-.38-.61,1.22,1.22,0,0,0-.39-.21,3.64,3.64,0,0,0-.55-.17l-.46-.11c-.51-.13-.91-.25-1.2-.35a2.44,2.44,0,0,1-.8-.48l-.06-.06a3,3,0,0,1-.73-1,2.64,2.64,0,0,1-.26-1.14,2.72,2.72,0,0,1,.28-1.21,3.23,3.23,0,0,1,.8-1,3.55,3.55,0,0,1,1.17-.66,4,4,0,0,1,2.73,0,3.59,3.59,0,0,1,1.18.66,3.06,3.06,0,0,1,.79,1,2.85,2.85,0,0,1,.27,1.21v.18Z"/><path class="cls-2" d="M243,382.05a1.37,1.37,0,0,1-.38-1,1.21,1.21,0,0,1,.39-.91,1.28,1.28,0,0,1,.92-.38,1.31,1.31,0,0,1,.94.39,1.33,1.33,0,0,1,0,1.88,1.31,1.31,0,0,1-.94.39A1.19,1.19,0,0,1,243,382.05Z"/><path d="M44.05,244.83h3.12V259h-3.6l-3.64-6-3.66,6h-3.6V244.83h3.6v8l1.76-3.2.1-.16h3.6l.08.16,1.76,3.2v-8Z"/><path d="M56.41,244.83H60V259h-3.6v-5.28h-4V259h-3.6V244.83h3.6v5.26h4Z"/><path d="M69,245l4.62,14H70.11l-.92-2.86H64.81l-.9,2.86h-3.5l4.64-14Zm-3.22,8.22h2.52l-1.26-4Z"/><path d="M84.65,244.83v3.6H81V259H77.41V248.43H73.79v-3.6H84.65Z"/><path d="M95.65,244.83V259h-3.6V244.83Z"/><path d="M107.91,244.83v3.6h-3.62V259h-3.62V248.43H97.05v-3.6h10.86Z"/><path d="M118.91,244.83V259h-3.6V244.83Z"/><path d="M127,249.31v-.26a1.29,1.29,0,0,0-.49-1,1.83,1.83,0,0,0-1.19-.41,1.92,1.92,0,0,0-1.23.41,1.25,1.25,0,0,0-.51,1,.9.9,0,0,0,.52.86,4,4,0,0,0,1.36.56l.31.06.35.08a7,7,0,0,1,2.86,1.18l.18.16a4.47,4.47,0,0,1,1,1.38,4.06,4.06,0,0,1,.35,1.6,3.94,3.94,0,0,1-.39,1.72,4.39,4.39,0,0,1-1.13,1.46,5.37,5.37,0,0,1-1.68.95,5.89,5.89,0,0,1-2,.33,5.79,5.79,0,0,1-2-.33,5.21,5.21,0,0,1-1.67-.95,4.3,4.3,0,0,1-1.14-1.46,3.81,3.81,0,0,1-.4-1.72v-.26h3.5v.26a1.23,1.23,0,0,0,.49,1,1.71,1.71,0,0,0,1.17.41,1.87,1.87,0,0,0,1.23-.41,1.22,1.22,0,0,0,.51-1,1.16,1.16,0,0,0-.54-.88,2.29,2.29,0,0,0-.56-.3q-.33-.12-.78-.24l-.66-.16a16.59,16.59,0,0,1-1.72-.5,3.18,3.18,0,0,1-1.14-.68l-.08-.08a4.26,4.26,0,0,1-1-1.4,3.71,3.71,0,0,1-.37-1.64,3.84,3.84,0,0,1,.4-1.72,4.5,4.5,0,0,1,1.14-1.46,5.41,5.41,0,0,1,1.67-1,5.79,5.79,0,0,1,2-.33,5.89,5.89,0,0,1,2,.33,5.57,5.57,0,0,1,1.68,1,4.6,4.6,0,0,1,1.13,1.46,4,4,0,0,1,.39,1.72v.26Z"/><path d="M149.13,244.85v8.74a5.41,5.41,0,0,1-.75,2.8,5.6,5.6,0,0,1-4.85,2.78h-.32a5.41,5.41,0,0,1-2.8-.75,5.49,5.49,0,0,1-2-2,5.41,5.41,0,0,1-.75-2.8v-8.74H141v7.94a3.38,3.38,0,0,0,.6,2.06,1.91,1.91,0,0,0,1.64.82h.32a2,2,0,0,0,1.63-.83,3.27,3.27,0,0,0,.63-2.05v-7.94Z"/><path d="M157.19,249.31v-.26a1.29,1.29,0,0,0-.49-1,1.83,1.83,0,0,0-1.19-.41,1.92,1.92,0,0,0-1.23.41,1.25,1.25,0,0,0-.51,1,.9.9,0,0,0,.52.86,4,4,0,0,0,1.36.56l.31.06.35.08a7,7,0,0,1,2.86,1.18l.18.16a4.47,4.47,0,0,1,1,1.38,4.06,4.06,0,0,1,.35,1.6,3.94,3.94,0,0,1-.39,1.72,4.39,4.39,0,0,1-1.13,1.46,5.37,5.37,0,0,1-1.68.95,5.89,5.89,0,0,1-2,.33,5.79,5.79,0,0,1-2-.33,5.21,5.21,0,0,1-1.67-.95,4.3,4.3,0,0,1-1.14-1.46,3.81,3.81,0,0,1-.4-1.72v-.26h3.5v.26a1.23,1.23,0,0,0,.49,1,1.71,1.71,0,0,0,1.17.41,1.87,1.87,0,0,0,1.23-.41,1.22,1.22,0,0,0,.51-1,1.16,1.16,0,0,0-.54-.88,2.29,2.29,0,0,0-.56-.3q-.33-.12-.78-.24l-.66-.16a16.59,16.59,0,0,1-1.72-.5,3.18,3.18,0,0,1-1.14-.68l-.08-.08a4.26,4.26,0,0,1-1.05-1.4,3.71,3.71,0,0,1-.37-1.64,3.84,3.84,0,0,1,.4-1.72,4.5,4.5,0,0,1,1.14-1.46,5.41,5.41,0,0,1,1.67-1,5.79,5.79,0,0,1,2-.33,5.89,5.89,0,0,1,2,.33,5.57,5.57,0,0,1,1.68,1,4.6,4.6,0,0,1,1.13,1.46,4,4,0,0,1,.39,1.72v.26Z"/><path d="M171.47,255.91V259h-9.62V244.83h9.44v3.06h-5.82v2.48h4.9v3.06h-4.9v2.48Z"/><path d="M179.27,244.78a8.93,8.93,0,0,1,2.13.51,6.12,6.12,0,0,1,1.95,1.22,7.15,7.15,0,0,1,1.73,2.43,7.37,7.37,0,0,1,.61,2.91,6.86,6.86,0,0,1-.78,3.26,6.5,6.5,0,0,1-2.19,2.5,7.61,7.61,0,0,1-2.88,1.13,21.1,21.1,0,0,1-3.57.27l-1.64,0-1.56,0v-14.3h3.62C177.69,244.67,178.55,244.71,179.27,244.78Zm3,7.07a3.63,3.63,0,0,0-.48-1.81,3.9,3.9,0,0,0-1.31-1.37,3.64,3.64,0,0,0-1.81-.54h-2v7.38a14.71,14.71,0,0,0,2.47-.17,4.27,4.27,0,0,0,1.86-.79,3.14,3.14,0,0,0,1.13-1.86A4.44,4.44,0,0,0,182.25,251.85Z"/><path d="M202.73,247.89h-6.24v2.48h5v3.06h-5V259h-3.6V244.83h9.84Z"/><path d="M214.27,245.79a7.17,7.17,0,0,1,3.56,6.2,7,7,0,0,1-1,3.58,7.12,7.12,0,0,1-2.6,2.6,7.17,7.17,0,0,1-7.17,0,7.08,7.08,0,0,1-2.61-2.6,6.93,6.93,0,0,1-1-3.58,7,7,0,0,1,1-3.59,7.1,7.1,0,0,1,2.61-2.61,7.17,7.17,0,0,1,7.17,0Zm-1.74,9.38a3.91,3.91,0,0,0,1.34-1.34,3.55,3.55,0,0,0,.5-1.84,3.64,3.64,0,0,0-.5-1.85,4,4,0,0,0-1.34-1.35,3.61,3.61,0,0,0-1.84-.5,3.65,3.65,0,0,0-1.86.5,3.85,3.85,0,0,0-1.34,1.35A3.55,3.55,0,0,0,207,252a3.46,3.46,0,0,0,.5,1.84,3.74,3.74,0,0,0,1.34,1.34,3.56,3.56,0,0,0,1.86.5A3.51,3.51,0,0,0,212.53,255.17Z"/><path d="M230.56,259H227l-2.24-5.34h-2.3V259H219V244.83h6.74a4.32,4.32,0,0,1,2.2.59,4.47,4.47,0,0,1,1.62,1.61,4.39,4.39,0,0,1,0,4.31,4.64,4.64,0,0,1-1.46,1.59Zm-4-10.77a1.36,1.36,0,0,0-.94-.47h-3.31v3h3.31a1.38,1.38,0,0,0,.94-.49,1.56,1.56,0,0,0,0-2Z"/><path d="M232.36,252.27a1.81,1.81,0,0,1-.5-1.16,1.57,1.57,0,0,1,.46-1.17,1.6,1.6,0,0,1,1.16-.49,1.62,1.62,0,0,1,1.66,1.66,1.54,1.54,0,0,1-.49,1.16,1.59,1.59,0,0,1-1.17.48A1.5,1.5,0,0,1,232.36,252.27Zm0,6.22a1.81,1.81,0,0,1-.5-1.16,1.57,1.57,0,0,1,.46-1.17,1.6,1.6,0,0,1,1.16-.49,1.62,1.62,0,0,1,1.66,1.66,1.54,1.54,0,0,1-.49,1.16,1.59,1.59,0,0,1-1.17.48A1.5,1.5,0,0,1,232.36,258.49Z"/><path d="M51.58,62.9a8.6,8.6,0,0,0,2.64-1.74l5.37,5.37a15.9,15.9,0,0,1-5.06,3.41,15.8,15.8,0,0,1-14-.9,15.76,15.76,0,0,1-5.72-5.72,15.81,15.81,0,0,1,0-15.78,15.67,15.67,0,0,1,5.72-5.74,15.8,15.8,0,0,1,14-.9,15.9,15.9,0,0,1,5.06,3.41l-5.37,5.37a8.78,8.78,0,0,0-2.64-1.74,8,8,0,0,0-7.17.46,8.31,8.31,0,0,0-2.95,3,7.94,7.94,0,0,0-1.1,4.07,7.79,7.79,0,0,0,1.1,4.05,8.26,8.26,0,0,0,2.95,2.95,8,8,0,0,0,7.17.46Z"/><path d="M85,41.89a15.59,15.59,0,0,1,5.72,5.74,15.74,15.74,0,0,1,0,15.78A15.69,15.69,0,0,1,85,69.13a15.79,15.79,0,0,1-15.77,0,15.74,15.74,0,0,1-5.74-5.72,15.81,15.81,0,0,1,0-15.78,15.65,15.65,0,0,1,5.74-5.74,15.79,15.79,0,0,1,15.77,0ZM81.15,62.53a8.39,8.39,0,0,0,2.94-3,7.7,7.7,0,0,0,1.1-4,7.82,7.82,0,0,0-1.1-4.07,8.21,8.21,0,0,0-2.94-3,7.79,7.79,0,0,0-4.05-1.1A7.92,7.92,0,0,0,73,48.49a8.13,8.13,0,0,0-3,3A7.92,7.92,0,0,0,69,55.53a7.79,7.79,0,0,0,1.1,4,8.31,8.31,0,0,0,3,3,7.92,7.92,0,0,0,4.07,1.1A7.79,7.79,0,0,0,81.15,62.53Z"/><path d="M112.56,39.78h7.92V70.89h-7.92l-9.15-16.68V70.89h-8V39.78h8l9.15,16.67Z"/><path d="M138.21,49.63v-.57a2.78,2.78,0,0,0-1.07-2.18,4,4,0,0,0-2.62-.9,4.2,4.2,0,0,0-2.71.9,2.72,2.72,0,0,0-1.12,2.18A2,2,0,0,0,131.83,51a9.74,9.74,0,0,0,3,1.24,5.33,5.33,0,0,1,.68.13l.77.17c3.14.77,5.23,1.63,6.29,2.6l.4.35a9.47,9.47,0,0,1,2.09,3,8.59,8.59,0,0,1-.09,7.3A9.55,9.55,0,0,1,142.48,69a11.58,11.58,0,0,1-3.69,2.09,12.81,12.81,0,0,1-4.32.73,12.64,12.64,0,0,1-4.29-.73A11.7,11.7,0,0,1,126.51,69,9.88,9.88,0,0,1,124,65.78a8.59,8.59,0,0,1-.88-3.78v-.57h7.7V62a2.75,2.75,0,0,0,1.08,2.18,3.89,3.89,0,0,0,2.57.9,4.2,4.2,0,0,0,2.71-.9A2.71,2.71,0,0,0,138.3,62a2.52,2.52,0,0,0-1.19-1.94,5.12,5.12,0,0,0-1.23-.66c-.47-.17-1-.35-1.71-.53l-1.46-.35c-1.61-.41-2.87-.77-3.78-1.1a7.59,7.59,0,0,1-2.51-1.49l-.17-.18a9.86,9.86,0,0,1-2.31-3.08,8.22,8.22,0,0,1-.82-3.61,8.59,8.59,0,0,1,.88-3.78,10,10,0,0,1,2.51-3.21A11.7,11.7,0,0,1,130.18,40a12.64,12.64,0,0,1,4.29-.73,12.81,12.81,0,0,1,4.32.73,11.58,11.58,0,0,1,3.69,2.09A9.65,9.65,0,0,1,145,45.28a8.71,8.71,0,0,1,.86,3.78v.57Z"/><path d="M173.77,39.82V59.05a12,12,0,0,1-1.65,6.16,12.26,12.26,0,0,1-4.49,4.47,12.1,12.1,0,0,1-6.18,1.65h-.71a12,12,0,0,1-6.16-1.65,12.26,12.26,0,0,1-4.46-4.47,12,12,0,0,1-1.65-6.16V39.82h7.34V57.29a7.46,7.46,0,0,0,1.32,4.53,4.25,4.25,0,0,0,3.61,1.81h.71A4.29,4.29,0,0,0,165,61.8a7.21,7.21,0,0,0,1.39-4.51V39.82Z"/><path d="M185.21,63.41h12.23v7.48H177.29V39.78h7.92Z"/><path d="M224,39.78V47.7h-8V70.89h-8V47.7h-8V39.78H224Z"/><path d="M235,39.78V70.89h-7.92V39.78Z"/><path d="M255.61,39.78h7.92V70.89h-7.92l-9.16-16.68V70.89h-8V39.78h8l9.16,16.67Z"/><path d="M297.63,55.49a15.28,15.28,0,0,1-2.12,7.87,15.59,15.59,0,0,1-5.74,5.72,15.79,15.79,0,0,1-15.77,0,15.69,15.69,0,0,1-5.72-5.72,15.79,15.79,0,0,1,0-15.77A15.59,15.59,0,0,1,274,41.85,15.73,15.73,0,0,1,288,41a15.49,15.49,0,0,1,5,3.43L286,48.45a7.83,7.83,0,0,0-4.1-1.1,7.69,7.69,0,0,0-4,1.1,8.16,8.16,0,0,0-2.95,3,7.8,7.8,0,0,0-1.1,4.07,7.69,7.69,0,0,0,1.1,4,8.18,8.18,0,0,0,2.95,2.95,8.06,8.06,0,0,0,8.31-.11,8.16,8.16,0,0,0,3-3.23h-9.76V51.83h17.82A17.17,17.17,0,0,1,297.63,55.49Z"/><path d="M219.9,232.53a12.62,12.62,0,0,1-2.43-.88,6.53,6.53,0,0,1-3.26-5.84c-.06-7.62,0-15.25,0-22.88q0-8.25,0-16.51a9.69,9.69,0,0,1,4.32-8.5,8.33,8.33,0,0,1,4.73-1.48q10.64,0,21.29,0c.73,0,1-.22,1.09-.9,1.42-7.12,2.87-14.24,4.29-21.36a67.62,67.62,0,0,1,1.85-8.47A11,11,0,0,1,263,138.15a11.37,11.37,0,0,1,10.64,9.07,17.25,17.25,0,0,1-.47,6.93c-1.75,8.67-3.45,17.35-5.22,26a55.85,55.85,0,0,1-1.44,6.65,11.47,11.47,0,0,1-11.32,7.9c-8.88,0-17.77,0-26.66,0-.64,0-.7.23-.7.77q0,8.31,0,16.63c0,4.37,0,8.75,0,13.12a7,7,0,0,1-3.56,6.51,12.53,12.53,0,0,1-2.35.8Z"/><path class="cls-2" d="M183.21,232.53a17,17,0,0,1-1.83-.87,6.52,6.52,0,0,1-3.2-5.79c-.05-6.71,0-13.42,0-20.13,0-3.32,0-6.65,0-10,0-.77-.17-1-1-1-9,0-18,0-27.05,0a11.1,11.1,0,0,1-11-8.77c-1.3-5.94-2.43-11.93-3.62-17.9-1.06-5.24-2.09-10.48-3.16-15.71-1.92-9.48,6.13-15.59,13.92-13.79,4.88,1.13,7.47,4.62,8.45,9.36,1.45,7,2.82,14,4.23,21,.46,2.28.93,4.56,1.35,6.85.1.52.29.69.81.69,5.28,0,10.56,0,15.84.07a42.87,42.87,0,0,1,7.08.2,9.3,9.3,0,0,1,7.6,8.52c0,.48,0,1,0,1.43q0,19.11,0,38.21a8.39,8.39,0,0,1-1.32,5.11,8.16,8.16,0,0,1-3.6,2.51Z"/><path d="M285.72,159.34c-.69,2.38-1.07,4.82-1.58,7.24-1.22,5.76-2.37,11.53-3.57,17.29a55.57,55.57,0,0,1-1.92,8.28c-2.83,7.66-8.06,12.81-16,15.06a18.78,18.78,0,0,1-5.23.68c-6.5,0-13,0-19.5,0a5.07,5.07,0,0,1-5.37-4.52,5.17,5.17,0,0,1,4.94-6.08c5.93-.06,11.87,0,17.8,0,4.72,0,8.77-1.39,11.73-5.25a17.94,17.94,0,0,0,3.05-7.67c1.75-8.67,3.54-17.33,5.31-26a16.19,16.19,0,0,1,.51-2.08,4.76,4.76,0,0,1,5-3.23,5.2,5.2,0,0,1,4.71,3.91,4.16,4.16,0,0,0,.16.4Z"/><path d="M120.26,157a9.25,9.25,0,0,1,1.46-2.32,5,5,0,0,1,8.44,2.26c1,3.94,1.68,7.95,2.51,11.92,1.26,6.09,2.44,12.19,3.8,18.25a13.14,13.14,0,0,0,12.37,10.2c6.26.22,12.53.09,18.79.06,2.67,0,4.66,1.17,5.44,3.4a5.5,5.5,0,0,1-1.8,6.28,5.23,5.23,0,0,1-3.21,1c-6.59,0-13.18.08-19.77,0-10.15-.12-18.59-7.29-21.34-16.78-1.21-4.16-1.84-8.46-2.73-12.7-1.29-6.2-2.55-12.4-3.82-18.61a.74.74,0,0,0-.14-.22Z"/><path d="M264,136a12.81,12.81,0,1,1,12.76-13A12.84,12.84,0,0,1,264,136Z"/><path class="cls-2" d="M139.18,136a12.81,12.81,0,1,1,12.76-13A12.84,12.84,0,0,1,139.18,136Z"/><path d="M247.88,110.85c-1.82-1.16-3.66-2.26-5.48-3.27l1.27-2.29c1.86,1,3.75,2.17,5.61,3.36Zm-90.4,0-1.41-2.2c2.19-1.41,4.41-2.73,6.61-3.93l1.26,2.29C161.79,108.18,159.62,109.48,157.48,110.85Zm78.24-6.7c-2.3-1.07-4.62-2-6.92-2.88l.91-2.46c2.36.87,4.75,1.87,7.11,3Zm-65.08-.5-1.08-2.38c2.37-1.08,4.78-2,7.15-2.89l.88,2.46C175.28,101.66,173,102.61,170.64,103.65Zm51-4.66c-2.43-.65-4.88-1.19-7.31-1.59l.43-2.58c2.51.42,5,1,7.55,1.65Zm-36.93-.32-.64-2.53c2.51-.64,5.06-1.15,7.58-1.53l.38,2.59C189.64,97.56,187.18,98.06,184.75,98.67ZM207,96.55c-1.45-.09-2.92-.13-4.38-.13h0c-1,0-2.06,0-3.08.06l-.11-2.61c1.06,0,2.13-.07,3.19-.07h0c1.51,0,3,0,4.54.14Z"/></svg>