<svg id="Слой_1" data-name="Слой 1" xmlns="http://www.w3.org/2000/svg" viewBox="0 0 405 405"><defs><style>.cls-1{fill:#fed841;}.cls-2{fill:#e7335d;}</style></defs><rect class="cls-1" width="405" height="405"/><path d="M44.12,39h3.12V53.09h-3.6l-3.64-6-3.66,6h-3.6V39h3.6v8l1.76-3.2.1-.16h3.6l.08.16,1.76,3.2V39Z"/><path d="M56.48,39h3.6V53.09h-3.6V47.81h-4v5.28h-3.6V39h3.6v5.26h4Z"/><path d="M69,39.09l4.62,14H70.18l-.92-2.86H64.88L64,53.09h-3.5l4.64-14Zm-3.22,8.22h2.52l-1.26-4Z"/><path d="M84.72,39v3.6H81.1V53.09H77.48V42.55H73.86V39H84.72Z"/><path d="M95.72,39V53.09h-3.6V39Z"/><path d="M103.78,43.43v-.26a1.23,1.23,0,0,0-.49-1,1.76,1.76,0,0,0-1.19-.41,1.87,1.87,0,0,0-1.23.41,1.22,1.22,0,0,0-.51,1,.92.92,0,0,0,.52.86,4.6,4.6,0,0,0,1.36.56l.31.06.35.08a6.82,6.82,0,0,1,2.86,1.18l.18.16a4.1,4.1,0,0,1,1,1.38,3.91,3.91,0,0,1,0,3.32,4.6,4.6,0,0,1-1.13,1.46,5.34,5.34,0,0,1-1.68,1,5.89,5.89,0,0,1-2,.33,5.79,5.79,0,0,1-2-.33,5.41,5.41,0,0,1-1.67-1,4.79,4.79,0,0,1-1.14-1.46,3.84,3.84,0,0,1-.4-1.72v-.26h3.5v.26a1.26,1.26,0,0,0,.49,1,1.79,1.79,0,0,0,1.17.41,1.92,1.92,0,0,0,1.23-.41,1.25,1.25,0,0,0,.51-1,1.15,1.15,0,0,0-.54-.88,2.29,2.29,0,0,0-.56-.3,7.5,7.5,0,0,0-.78-.24l-.66-.16c-.73-.19-1.31-.36-1.72-.5a3.71,3.71,0,0,1-1.14-.68l-.08-.08a4.68,4.68,0,0,1-1-1.4,3.74,3.74,0,0,1-.37-1.64,3.81,3.81,0,0,1,.4-1.72A4.56,4.56,0,0,1,98.46,40a5.21,5.21,0,0,1,1.67-1,5.79,5.79,0,0,1,2-.33,5.89,5.89,0,0,1,2,.33,5.15,5.15,0,0,1,1.68,1,4.39,4.39,0,0,1,1.13,1.46,3.94,3.94,0,0,1,.39,1.72v.26Z"/><path d="M118,39V53.09h-3.6V39Z"/><path d="M127.42,39H131V53.09h-3.6l-4.16-7.58v7.58h-3.62V39h3.62l4.16,7.58Z"/><path d="M140.78,49.46a4.24,4.24,0,0,0,1.2-.79l2.44,2.44a7.35,7.35,0,0,1-2.3,1.55,7.15,7.15,0,0,1-2.76.55,7,7,0,0,1-3.58-1,7.2,7.2,0,0,1-2.6-2.6,7.17,7.17,0,0,1,0-7.17,7.15,7.15,0,0,1,2.6-2.61A7.13,7.13,0,0,1,144.42,41L142,43.45a3.85,3.85,0,0,0-1.2-.79,3.63,3.63,0,0,0-3.26.21,3.69,3.69,0,0,0-1.34,1.35,3.65,3.65,0,0,0,0,3.69,3.82,3.82,0,0,0,1.34,1.34,3.55,3.55,0,0,0,1.84.5A3.64,3.64,0,0,0,140.78,49.46Z"/><path d="M149.22,49.69h5.56v3.4h-9.16V39h3.6Z"/><path d="M167.68,39v8.74a5.47,5.47,0,0,1-.75,2.8,5.59,5.59,0,0,1-2,2,5.5,5.5,0,0,1-2.81.75h-.32a5.44,5.44,0,0,1-2.8-.75,5.64,5.64,0,0,1-2-2,5.47,5.47,0,0,1-.75-2.8V39h3.34v7.94a3.42,3.42,0,0,0,.6,2.06,1.94,1.94,0,0,0,1.64.82h.32a2,2,0,0,0,1.63-.83,3.31,3.31,0,0,0,.63-2.05V39Z"/><path d="M175.48,38.9a8.07,8.07,0,0,1,2.13.51,6,6,0,0,1,1.95,1.22,7,7,0,0,1,1.73,2.43A7.2,7.2,0,0,1,181.9,46a6.91,6.91,0,0,1-.78,3.26,6.48,6.48,0,0,1-2.19,2.5,7.78,7.78,0,0,1-2.88,1.13,20.94,20.94,0,0,1-3.57.27l-1.64,0c-.35,0-.87,0-1.56,0V38.79h3.62A24.06,24.06,0,0,1,175.48,38.9Zm3,7.07a3.61,3.61,0,0,0-.48-1.81,3.74,3.74,0,0,0-1.31-1.37,3.42,3.42,0,0,0-1.81-.54h-2v7.38a15.85,15.85,0,0,0,2.47-.17,4.29,4.29,0,0,0,1.86-.79,3.2,3.2,0,0,0,1.13-1.86A3.82,3.82,0,0,0,178.46,46Z"/><path d="M192.72,50v3.06H183.1V39h9.44V42h-5.82v2.48h4.9v3.06h-4.9V50Z"/><path d="M200.52,38.9a8.07,8.07,0,0,1,2.13.51,6,6,0,0,1,1.95,1.22,7,7,0,0,1,1.73,2.43,7.2,7.2,0,0,1,.61,2.91,6.91,6.91,0,0,1-.78,3.26,6.48,6.48,0,0,1-2.19,2.5,7.78,7.78,0,0,1-2.88,1.13,20.94,20.94,0,0,1-3.57.27l-1.64,0c-.35,0-.87,0-1.56,0V38.79h3.62A24.06,24.06,0,0,1,200.52,38.9Zm3,7.07a3.61,3.61,0,0,0-.48-1.81,3.74,3.74,0,0,0-1.31-1.37,3.42,3.42,0,0,0-1.81-.54h-2v7.38a15.85,15.85,0,0,0,2.47-.17,4.29,4.29,0,0,0,1.86-.79,3.2,3.2,0,0,0,1.13-1.86A3.82,3.82,0,0,0,203.5,46Z"/><path d="M36.34,63V77.09h-3.6V63Z"/><path d="M45.72,63h3.6V77.09h-3.6l-4.16-7.58v7.58H37.94V63h3.62l4.16,7.58Z"/><path d="M67.58,63v3.6H64V77.09H60.34V66.55H56.72V63H67.58Z"/><path d="M76.62,63h3.6V77.09h-3.6V71.81h-4v5.28H69V63h3.6v5.26h4Z"/><path d="M91.44,74v3.06H81.82V63h9.44V66H85.44v2.48h4.9v3.06h-4.9V74Z"/><path d="M105.5,67.43v-.26a1.23,1.23,0,0,0-.49-1,1.76,1.76,0,0,0-1.19-.41,1.87,1.87,0,0,0-1.23.41,1.22,1.22,0,0,0-.51,1,.92.92,0,0,0,.52.86,4.6,4.6,0,0,0,1.36.56l.31.06.35.08a6.82,6.82,0,0,1,2.86,1.18l.18.16a4.1,4.1,0,0,1,1,1.38,3.91,3.91,0,0,1,0,3.32,4.6,4.6,0,0,1-1.13,1.46,5.34,5.34,0,0,1-1.68,1,5.89,5.89,0,0,1-2,.33,5.79,5.79,0,0,1-2-.33,5.41,5.41,0,0,1-1.67-1A4.79,4.79,0,0,1,99,74.77a3.84,3.84,0,0,1-.4-1.72v-.26h3.5v.26a1.26,1.26,0,0,0,.49,1,1.79,1.79,0,0,0,1.17.41A1.92,1.92,0,0,0,105,74a1.25,1.25,0,0,0,.51-1,1.15,1.15,0,0,0-.54-.88,2.29,2.29,0,0,0-.56-.3,7.5,7.5,0,0,0-.78-.24l-.66-.16c-.73-.19-1.31-.36-1.72-.5a3.71,3.71,0,0,1-1.14-.68l-.08-.08a4.68,4.68,0,0,1-1-1.4,3.74,3.74,0,0,1-.37-1.64,3.81,3.81,0,0,1,.4-1.72A4.56,4.56,0,0,1,100.18,64a5.21,5.21,0,0,1,1.67-1,5.79,5.79,0,0,1,2-.33,5.89,5.89,0,0,1,2,.33,5.15,5.15,0,0,1,1.68,1,4.39,4.39,0,0,1,1.13,1.46,3.94,3.94,0,0,1,.39,1.72v.26Z"/><path d="M119.78,74v3.06h-9.62V63h9.44V66h-5.82v2.48h4.9v3.06h-4.9V74Z"/><path d="M132.92,77.09H129.3l-2.24-5.34h-2.3v5.34h-3.38V63h6.74a4.25,4.25,0,0,1,2.2.59,4.29,4.29,0,0,1,1.61,1.61,4.34,4.34,0,0,1,.59,2.2,4.28,4.28,0,0,1-.54,2.11,4.73,4.73,0,0,1-1.46,1.59Zm-4-10.77a1.34,1.34,0,0,0-.94-.47h-3.32v3H128a1.45,1.45,0,0,0,.94-.49,1.52,1.52,0,0,0,.38-1A1.47,1.47,0,0,0,128.94,66.32Z"/><path d="M143.42,62.91h3.92l-4.62,14.18h-4.4l-4.6-14.18h4l2.86,8.84Z"/><path d="M152.14,63V77.09h-3.6V63Z"/><path d="M161.9,73.46a4.24,4.24,0,0,0,1.2-.79l2.44,2.44a7.35,7.35,0,0,1-2.3,1.55,7.15,7.15,0,0,1-2.76.55,7,7,0,0,1-3.58-1,7.2,7.2,0,0,1-2.6-2.6,7.17,7.17,0,0,1,0-7.17,7.15,7.15,0,0,1,2.6-2.61A7.13,7.13,0,0,1,165.54,65l-2.44,2.44a3.85,3.85,0,0,0-1.2-.79,3.63,3.63,0,0,0-3.26.21,3.69,3.69,0,0,0-1.34,1.35,3.65,3.65,0,0,0,0,3.69,3.82,3.82,0,0,0,1.34,1.34,3.55,3.55,0,0,0,1.84.5A3.64,3.64,0,0,0,161.9,73.46Z"/><path d="M176.36,74v3.06h-9.62V63h9.44V66h-5.82v2.48h4.9v3.06h-4.9V74Z"/><path d="M178.56,70.39a1.78,1.78,0,0,1-.5-1.16,1.54,1.54,0,0,1,.46-1.17,1.56,1.56,0,0,1,1.16-.49,1.64,1.64,0,0,1,1.66,1.66,1.56,1.56,0,0,1-.49,1.16,1.62,1.62,0,0,1-1.17.48A1.5,1.5,0,0,1,178.56,70.39Zm0,6.22a1.78,1.78,0,0,1-.5-1.16,1.54,1.54,0,0,1,.46-1.17,1.56,1.56,0,0,1,1.16-.49,1.64,1.64,0,0,1,1.66,1.66,1.56,1.56,0,0,1-.49,1.16,1.62,1.62,0,0,1-1.17.48A1.5,1.5,0,0,1,178.56,76.61Z"/><path d="M44.12,278.45h3.12v14.14h-3.6l-3.64-6-3.66,6h-3.6V278.45h3.6v8l1.76-3.2.1-.16h3.6l.08.16,1.76,3.2v-8Z"/><path d="M56.48,278.45h3.6v14.14h-3.6v-5.28h-4v5.28h-3.6V278.45h3.6v5.26h4Z"/><path d="M71.3,289.53v3.06H61.68V278.45h9.44v3.06H65.3V284h4.9v3.06H65.3v2.48Z"/><path d="M84.44,292.59H80.82l-2.24-5.34h-2.3v5.34H72.9V278.45h6.74a4.34,4.34,0,0,1,2.2.59,4.29,4.29,0,0,1,1.61,1.61,4.39,4.39,0,0,1,0,4.31A4.46,4.46,0,0,1,82,286.55Zm-4-10.77a1.34,1.34,0,0,0-.94-.47H76.2v3h3.32a1.4,1.4,0,0,0,.94-.49,1.52,1.52,0,0,0,.38-1A1.49,1.49,0,0,0,80.46,281.82Z"/><path d="M95.26,289.53v3.06H85.64V278.45h9.44v3.06H89.26V284h4.9v3.06h-4.9v2.48Z"/><path d="M110.38,278.45H114l-4.16,8.38v5.76h-3.6v-5.76l-4.16-8.38h3.6l2.36,4.82Z"/><path d="M125.12,279.41a7.15,7.15,0,0,1,2.6,2.61,7.17,7.17,0,0,1,0,7.17,7.2,7.2,0,0,1-2.6,2.6,7.17,7.17,0,0,1-7.17,0,7.15,7.15,0,0,1-2.61-2.6,7.17,7.17,0,0,1,0-7.17,7.1,7.1,0,0,1,2.61-2.61,7.17,7.17,0,0,1,7.17,0Zm-1.74,9.38a3.74,3.74,0,0,0,1.34-1.34,3.55,3.55,0,0,0,.5-1.84,3.62,3.62,0,0,0-.5-1.85,3.69,3.69,0,0,0-1.34-1.35,3.55,3.55,0,0,0-1.84-.5,3.71,3.71,0,0,0-3.7,3.7,3.55,3.55,0,0,0,.5,1.84,3.69,3.69,0,0,0,1.35,1.34,3.62,3.62,0,0,0,1.85.5A3.55,3.55,0,0,0,123.38,288.79Z"/><path d="M141.38,278.47v8.74a5.44,5.44,0,0,1-.75,2.8,5.59,5.59,0,0,1-2,2,5.5,5.5,0,0,1-2.81.75h-.32a5.44,5.44,0,0,1-2.8-.75,5.64,5.64,0,0,1-2-2,5.44,5.44,0,0,1-.75-2.8v-8.74h3.34v7.94a3.4,3.4,0,0,0,.6,2.06,1.92,1.92,0,0,0,1.64.82h.32a2,2,0,0,0,1.63-.83,3.29,3.29,0,0,0,.63-2v-7.94Z"/><path d="M157.14,289a4,4,0,0,0,1.2-.79l2.44,2.44a7.18,7.18,0,0,1-2.3,1.55,7.17,7.17,0,0,1-6.34-.41,7.2,7.2,0,0,1-2.6-2.6,7.17,7.17,0,0,1,0-7.17,7.15,7.15,0,0,1,2.6-2.61,7.17,7.17,0,0,1,6.34-.41,7.18,7.18,0,0,1,2.3,1.55L158.34,283a4,4,0,0,0-1.2-.79,3.64,3.64,0,0,0-1.42-.29,3.55,3.55,0,0,0-1.84.5,3.69,3.69,0,0,0-1.34,1.35,3.62,3.62,0,0,0-.5,1.85,3.55,3.55,0,0,0,.5,1.84,3.74,3.74,0,0,0,1.34,1.34,3.55,3.55,0,0,0,1.84.5A3.64,3.64,0,0,0,157.14,289Z"/><path d="M169.34,278.59l4.62,14h-3.48l-.92-2.86h-4.38l-.9,2.86h-3.5l4.64-14Zm-3.22,8.22h2.52l-1.26-4Z"/><path d="M182.14,278.45h3.6v14.14h-3.6L178,285v7.58h-3.62V278.45H178l4.16,7.58Z"/><path d="M202.64,278.41h3.92l-4.62,14.18h-4.4l-4.6-14.18h4l2.86,8.84Z"/><path d="M211.36,278.45v14.14h-3.6V278.45Z"/><path d="M222.58,289.53v3.06H213V278.45h9.44v3.06h-5.82V284h4.9v3.06h-4.9v2.48Z"/><path d="M235.56,278.45h3.12v14.14h-3.6l-3.64-6-3.66,6h-3.6V278.45h3.6v8l1.76-3.2.1-.16h3.6l.08.16,1.76,3.2v-8Z"/><path d="M42.36,313.53v3.06H32.74V302.45h9.44v3.06H36.36V308h4.9v3.06h-4.9v2.48Z"/><path d="M56.38,316.59H52.2L50,312.91l-2.22,3.68H43.56l4.32-7.14-4.24-7h4.18L50,306l2.14-3.54h4.2l-4.24,7Z"/><path d="M64.94,302.59l4.62,14H66.08l-.92-2.86H60.78l-.9,2.86h-3.5l4.64-14Zm-3.22,8.22h2.52l-1.26-4Z"/><path d="M80.86,302.45h3.6v14.14h-3.6v-8l-1.76,3.2L79,312h-3.6l-.1-.16-.24-.46-1.5-2.74v8H70V302.45h3.62l3.64,6Z"/><path d="M95,303a4.31,4.31,0,0,1,1.6,1.6,4.43,4.43,0,0,1,0,4.42,4.39,4.39,0,0,1-3.81,2.19H89.44v5.34H86.06V302.45H92.8A4.33,4.33,0,0,1,95,303Zm-1.38,2.78a1.38,1.38,0,0,0-.95-.47H89.36v3h3.32a1.37,1.37,0,0,0,.95-.49,1.52,1.52,0,0,0,.39-1A1.45,1.45,0,0,0,93.63,305.82Z"/><path d="M102,313.19h5.56v3.4H98.4V302.45H102Z"/><path d="M118.58,313.53v3.06H109V302.45h9.44v3.06h-5.82V308h4.9v3.06h-4.9v2.48Z"/><path d="M126.64,306.93v-.26a1.23,1.23,0,0,0-.49-1,1.79,1.79,0,0,0-1.19-.41,1.92,1.92,0,0,0-1.23.41,1.22,1.22,0,0,0-.51,1,.91.91,0,0,0,.52.86,4.46,4.46,0,0,0,1.36.56l.31.06.35.08a7,7,0,0,1,2.86,1.18l.18.16a4.31,4.31,0,0,1,.95,1.38,4,4,0,0,1,.35,1.6,4,4,0,0,1-.39,1.72,4.36,4.36,0,0,1-1.13,1.46,5.34,5.34,0,0,1-1.68.95,6,6,0,0,1-3.91,0,5.41,5.41,0,0,1-1.67-.95,4.67,4.67,0,0,1-1.14-1.46,4,4,0,0,1-.4-1.72v-.26h3.5v.26a1.26,1.26,0,0,0,.49,1,1.79,1.79,0,0,0,1.17.41,1.92,1.92,0,0,0,1.23-.41,1.22,1.22,0,0,0,.51-1,1.15,1.15,0,0,0-.54-.88,2.29,2.29,0,0,0-.56-.3,7.5,7.5,0,0,0-.78-.24l-.66-.16c-.73-.19-1.31-.35-1.72-.5a3.52,3.52,0,0,1-1.14-.68l-.08-.08a4.56,4.56,0,0,1-1-1.4,3.74,3.74,0,0,1-.37-1.64,4,4,0,0,1,.4-1.72,4.67,4.67,0,0,1,1.14-1.46,5.41,5.41,0,0,1,1.67-.95,6,6,0,0,1,3.91,0,5.34,5.34,0,0,1,1.68.95,4.36,4.36,0,0,1,1.13,1.46,4,4,0,0,1,.39,1.72v.26Z"/><path d="M131.9,309.89a1.83,1.83,0,0,1-.5-1.16,1.62,1.62,0,0,1,1.62-1.66,1.64,1.64,0,0,1,1.66,1.66,1.56,1.56,0,0,1-.49,1.16,1.61,1.61,0,0,1-1.17.48A1.5,1.5,0,0,1,131.9,309.89Zm0,6.22a1.83,1.83,0,0,1-.5-1.16,1.62,1.62,0,0,1,1.62-1.66,1.64,1.64,0,0,1,1.66,1.66,1.56,1.56,0,0,1-.49,1.16,1.61,1.61,0,0,1-1.17.48A1.5,1.5,0,0,1,131.9,316.11Z"/><path class="cls-2" d="M41.4,99a4.62,4.62,0,0,1-.63,2.37A4.68,4.68,0,0,1,39,103.09a4.62,4.62,0,0,1-2.37.63,4.67,4.67,0,0,1-2.37-.63,4.81,4.81,0,0,1-1.72-1.72A4.62,4.62,0,0,1,32,99a4.67,4.67,0,0,1,.63-2.37,4.73,4.73,0,0,1,1.72-1.72,4.73,4.73,0,0,1,4.21-.27,4.7,4.7,0,0,1,1.52,1L37.9,96.89a2.44,2.44,0,0,0-2.45,0,2.5,2.5,0,0,0-.88.89A2.38,2.38,0,0,0,34.24,99a2.33,2.33,0,0,0,.33,1.22,2.5,2.5,0,0,0,.88.89,2.35,2.35,0,0,0,1.22.33,2.3,2.3,0,0,0,1.28-.37,2.4,2.4,0,0,0,.9-1H35.92V97.91h5.35A4.89,4.89,0,0,1,41.4,99Z"/><path class="cls-2" d="M48.56,101.61v2H42.2V94.28h6.24v2H44.59V98h3.24v2H44.59v1.64Z"/><path class="cls-2" d="M54.76,94.28h2.38v9.35H54.76l-2.75-5v5h-2.4V94.28H52l2.75,5Z"/><path class="cls-2" d="M64.55,101.61v2H58.2V94.28h6.24v2H60.59V98h3.24v2H60.59v1.64Z"/><path class="cls-2" d="M73.24,103.63H70.85l-1.48-3.53H67.85v3.53H65.61V94.28h4.46a2.84,2.84,0,0,1,1.45.39,2.89,2.89,0,0,1,1.07,1.07A2.84,2.84,0,0,1,73,97.19a2.81,2.81,0,0,1-.36,1.4,3,3,0,0,1-1,1Zm-2.63-7.12A.89.89,0,0,0,70,96.2h-2.2v2H70a.9.9,0,0,0,.62-.32,1,1,0,0,0,.25-.68A1,1,0,0,0,70.61,96.51Z"/><path class="cls-2" d="M78.9,94.38,82,103.63H79.65l-.6-1.89h-2.9l-.59,1.89H73.24l3.07-9.25Zm-2.13,5.43h1.67l-.83-2.62Z"/><path class="cls-2" d="M89.27,94.28v2.38h-2.4v7H84.48v-7H82.09V94.28h7.18Z"/><path class="cls-2" d="M92.57,94.28v9.35H90.19V94.28Z"/><path class="cls-2" d="M98.77,94.28h2.38v9.35H98.77l-2.75-5v5H93.63V94.28H96l2.75,5Z"/><path class="cls-2" d="M111.4,99a4.62,4.62,0,0,1-.63,2.37,4.76,4.76,0,0,1-1.73,1.72,4.67,4.67,0,0,1-2.37.63,4.62,4.62,0,0,1-2.37-.63,4.73,4.73,0,0,1-1.72-1.72A4.62,4.62,0,0,1,102,99a4.7,4.7,0,0,1,2.35-4.09,4.53,4.53,0,0,1,2.37-.64,4.58,4.58,0,0,1,1.84.37,4.81,4.81,0,0,1,1.52,1l-2.13,1.22a2.44,2.44,0,0,0-2.45,0,2.61,2.61,0,0,0-.89.89,2.38,2.38,0,0,0-.33,1.22,2.33,2.33,0,0,0,.33,1.22,2.61,2.61,0,0,0,.89.89,2.35,2.35,0,0,0,1.22.33,2.33,2.33,0,0,0,1.28-.37,2.4,2.4,0,0,0,.9-1h-2.94V97.91h5.36A4.89,4.89,0,0,1,111.4,99Z"/><path class="cls-2" d="M121,94.38l3,9.25h-2.3l-.61-1.89h-2.89l-.6,1.89h-2.31l3.06-9.25Zm-2.13,5.43h1.66l-.83-2.62Z"/><path class="cls-2" d="M129.49,94.28h2.38v9.35h-2.38l-2.75-5v5h-2.4V94.28h2.4l2.75,5Z"/><path class="cls-2" d="M139.27,94.28v9.35h-2.38V94.28Z"/><path class="cls-2" d="M145.47,94.28h2.38v9.35h-2.38l-2.75-5v5h-2.39V94.28h2.39l2.75,5Z"/><path class="cls-2" d="M155.42,96.31h-4.13V98h3.31v2h-3.31v3.66h-2.38V94.28h6.51Z"/><path class="cls-2" d="M163,94.92a4.65,4.65,0,0,1,1.72,1.72A4.59,4.59,0,0,1,165.4,99a4.52,4.52,0,0,1-.64,2.36A4.58,4.58,0,0,1,163,103.1a4.52,4.52,0,0,1-2.36.64,4.59,4.59,0,0,1-2.38-.64,4.72,4.72,0,0,1-1.72-6.46,4.74,4.74,0,0,1,4.1-2.36A4.62,4.62,0,0,1,163,94.92Zm-1.15,6.2a2.53,2.53,0,0,0,.89-.89,2.32,2.32,0,0,0,.33-1.21,2.41,2.41,0,0,0-.33-1.23,2.53,2.53,0,0,0-.89-.89,2.32,2.32,0,0,0-1.21-.33,2.35,2.35,0,0,0-1.22.33,2.48,2.48,0,0,0-.9.89,2.41,2.41,0,0,0-.33,1.23,2.32,2.32,0,0,0,.33,1.21,2.48,2.48,0,0,0,.9.89,2.35,2.35,0,0,0,1.22.33A2.32,2.32,0,0,0,161.89,101.12Z"/><path class="cls-2" d="M173.82,103.63h-2.39L170,100.1h-1.52v3.53h-2.24V94.28h4.46a2.84,2.84,0,0,1,1.45.39,2.89,2.89,0,0,1,1.07,1.07,2.84,2.84,0,0,1,.39,1.45,2.81,2.81,0,0,1-.36,1.4,3,3,0,0,1-1,1Zm-2.63-7.12a.91.91,0,0,0-.62-.31h-2.2v2h2.2a.92.92,0,0,0,.62-.32,1,1,0,0,0,.25-.68A1,1,0,0,0,171.19,96.51Z"/><path class="cls-2" d="M181.82,94.28h2.38v9.35h-2.38V98.36l-1.16,2.11-.06.11h-2.38l-.06-.11-.16-.3-1-1.81v5.27h-2.4V94.28H177l2.4,4Z"/><path class="cls-2" d="M190.12,94.38l3.06,9.25h-2.3l-.61-1.89h-2.9l-.59,1.89h-2.32l3.07-9.25ZM188,99.81h1.67l-.83-2.62Z"/><path class="cls-2" d="M200.49,94.28v2.38H198.1v7h-2.4v-7h-2.39V94.28h7.18Z"/><path class="cls-2" d="M203.79,94.28v9.35h-2.37V94.28Z"/><path class="cls-2" d="M211.69,94.92a4.81,4.81,0,0,1,1.72,1.72A4.68,4.68,0,0,1,214,99a4.61,4.61,0,0,1-.63,2.36,4.73,4.73,0,0,1-1.72,1.72,4.53,4.53,0,0,1-2.37.64,4.58,4.58,0,0,1-2.37-.64,4.68,4.68,0,0,1-1.73-1.72,4.61,4.61,0,0,1-.63-2.36,4.68,4.68,0,0,1,.63-2.38A4.76,4.76,0,0,1,207,94.92a4.68,4.68,0,0,1,2.37-.64A4.63,4.63,0,0,1,211.69,94.92Zm-1.15,6.2a2.5,2.5,0,0,0,.88-.89,2.32,2.32,0,0,0,.33-1.21,2.41,2.41,0,0,0-.33-1.23,2.5,2.5,0,0,0-.88-.89,2.42,2.42,0,0,0-2.44,0,2.45,2.45,0,0,0-.89.89,2.41,2.41,0,0,0-.33,1.23,2.32,2.32,0,0,0,.33,1.21,2.45,2.45,0,0,0,.89.89,2.42,2.42,0,0,0,2.44,0Z"/><path class="cls-2" d="M220,94.28h2.38v9.35H220l-2.75-5v5h-2.4V94.28h2.4l2.75,5Z"/><path class="cls-2" d="M234.22,94.92a4.81,4.81,0,0,1,1.72,1.72,4.68,4.68,0,0,1,.63,2.38,4.61,4.61,0,0,1-.63,2.36,4.73,4.73,0,0,1-1.72,1.72,4.53,4.53,0,0,1-2.37.64,4.58,4.58,0,0,1-2.37-.64,4.68,4.68,0,0,1-1.73-1.72,4.61,4.61,0,0,1-.63-2.36,4.68,4.68,0,0,1,.63-2.38,4.76,4.76,0,0,1,1.73-1.72,4.68,4.68,0,0,1,2.37-.64A4.63,4.63,0,0,1,234.22,94.92Zm-1.15,6.2a2.5,2.5,0,0,0,.88-.89,2.32,2.32,0,0,0,.33-1.21,2.41,2.41,0,0,0-.33-1.23,2.5,2.5,0,0,0-.88-.89,2.42,2.42,0,0,0-2.44,0,2.45,2.45,0,0,0-.89.89,2.41,2.41,0,0,0-.33,1.23,2.32,2.32,0,0,0,.33,1.21,2.45,2.45,0,0,0,.89.89,2.42,2.42,0,0,0,2.44,0Z"/><path class="cls-2" d="M242.76,101.23a2.64,2.64,0,0,0,.79-.52l1.62,1.61a4.87,4.87,0,0,1-1.52,1,4.74,4.74,0,0,1-1.83.36,4.67,4.67,0,0,1-2.37-.63,4.89,4.89,0,0,1-1.72-1.72,4.77,4.77,0,0,1,0-4.74,4.76,4.76,0,0,1,1.72-1.73,4.67,4.67,0,0,1,2.37-.63,4.74,4.74,0,0,1,1.83.36,4.87,4.87,0,0,1,1.52,1l-1.62,1.61a2.47,2.47,0,0,0-.79-.52,2.33,2.33,0,0,0-.94-.2,2.36,2.36,0,0,0-1.22.34,2.42,2.42,0,0,0-.88.89,2.42,2.42,0,0,0,0,2.44,2.47,2.47,0,0,0,.88.88,2.35,2.35,0,0,0,1.22.33A2.32,2.32,0,0,0,242.76,101.23Z"/><path class="cls-2" d="M251.35,101.23a2.69,2.69,0,0,0,.8-.52l1.61,1.61a4.76,4.76,0,0,1-1.52,1,4.78,4.78,0,0,1-4.19-.27,4.81,4.81,0,0,1-1.72-1.72,4.73,4.73,0,0,1,5.91-6.74,4.76,4.76,0,0,1,1.52,1l-1.61,1.61a2.51,2.51,0,0,0-.8-.52,2.32,2.32,0,0,0-2.15.14,2.45,2.45,0,0,0-.89.89,2.42,2.42,0,0,0,0,2.44,2.5,2.5,0,0,0,.89.88,2.4,2.4,0,0,0,2.15.14Z"/><path class="cls-2" d="M259.42,94.38l3.05,9.25h-2.3l-.61-1.89h-2.89l-.6,1.89h-2.31l3.07-9.25Zm-2.13,5.43H259l-.84-2.62Z"/><path class="cls-2" d="M267,97.25v-.18a.82.82,0,0,0-.33-.65,1.16,1.16,0,0,0-.78-.27,1.28,1.28,0,0,0-.82.27.82.82,0,0,0-.33.65.6.6,0,0,0,.34.57,2.71,2.71,0,0,0,.9.37l.21,0,.23.06a4.52,4.52,0,0,1,1.89.77l.12.11a2.88,2.88,0,0,1,.62.91,2.59,2.59,0,0,1,.24,1.06,2.64,2.64,0,0,1-.26,1.14,2.85,2.85,0,0,1-.75,1,3.4,3.4,0,0,1-1.11.63,3.78,3.78,0,0,1-1.3.22,3.63,3.63,0,0,1-1.28-.22,3.4,3.4,0,0,1-1.11-.63,3,3,0,0,1-.75-1,2.52,2.52,0,0,1-.27-1.14v-.17h2.32V101a.81.81,0,0,0,.32.66,1.17,1.17,0,0,0,.77.27,1.28,1.28,0,0,0,.82-.27A.83.83,0,0,0,267,101a.76.76,0,0,0-.36-.58,1.46,1.46,0,0,0-.37-.2l-.52-.16-.43-.1q-.74-.19-1.14-.33a2.46,2.46,0,0,1-.76-.45l0-.06a2.89,2.89,0,0,1-.69-.92,2.45,2.45,0,0,1-.25-1.09,2.51,2.51,0,0,1,.27-1.13,3,3,0,0,1,.75-1,3.8,3.8,0,0,1,1.11-.63,3.86,3.86,0,0,1,1.28-.21,4,4,0,0,1,1.3.21,3.8,3.8,0,0,1,1.11.63,2.89,2.89,0,0,1,.75,1,2.63,2.63,0,0,1,.26,1.13v.18Z"/><path class="cls-2" d="M272.47,94.28v9.35h-2.38V94.28Z"/><path class="cls-2" d="M280.36,94.92a4.74,4.74,0,0,1,2.36,4.1,4.74,4.74,0,0,1-2.36,4.08,4.52,4.52,0,0,1-2.36.64,4.59,4.59,0,0,1-2.38-.64,4.65,4.65,0,0,1-1.72-1.72,4.52,4.52,0,0,1-.64-2.36,4.59,4.59,0,0,1,.64-2.38,4.74,4.74,0,0,1,4.1-2.36A4.62,4.62,0,0,1,280.36,94.92Zm-1.15,6.2a2.53,2.53,0,0,0,.89-.89,2.32,2.32,0,0,0,.33-1.21,2.41,2.41,0,0,0-.33-1.23,2.53,2.53,0,0,0-.89-.89,2.32,2.32,0,0,0-1.21-.33,2.39,2.39,0,0,0-1.23.33,2.53,2.53,0,0,0-.89.89,2.41,2.41,0,0,0-.33,1.23,2.32,2.32,0,0,0,.33,1.21,2.53,2.53,0,0,0,.89.89,2.39,2.39,0,0,0,1.23.33A2.32,2.32,0,0,0,279.21,101.12Z"/><path class="cls-2" d="M288.65,94.28H291v9.35h-2.38l-2.75-5v5h-2.39V94.28h2.39l2.75,5Z"/><path class="cls-2" d="M292.54,102h2.23l-1,3h-2Z"/><path class="cls-2" d="M305.45,94.67a2.91,2.91,0,0,1,1.06,1.06A2.91,2.91,0,0,1,304,100.1h-2.22v3.53h-2.24V94.28H304A2.85,2.85,0,0,1,305.45,94.67Zm-.91,1.84a.91.91,0,0,0-.63-.31h-2.2v2h2.2a.85.85,0,0,0,.63-.32,1,1,0,0,0,.26-.68A1,1,0,0,0,304.54,96.51Z"/><path class="cls-2" d="M315.32,103.63h-2.39l-1.48-3.53h-1.52v3.53h-2.24V94.28h4.46a2.84,2.84,0,0,1,1.45.39,2.89,2.89,0,0,1,1.07,1.07,2.84,2.84,0,0,1,.39,1.45,2.81,2.81,0,0,1-.36,1.4,3,3,0,0,1-1,1Zm-2.63-7.12a.89.89,0,0,0-.62-.31h-2.2v2h2.2a.9.9,0,0,0,.62-.32,1,1,0,0,0,.25-.68A1,1,0,0,0,312.69,96.51Z"/><path class="cls-2" d="M322.47,101.61v2h-6.36V94.28h6.25v2h-3.85V98h3.24v2h-3.24v1.64Z"/><path class="cls-2" d="M329.45,94.67a3,3,0,0,1,1.06,1.06,2.93,2.93,0,0,1,0,2.92,2.91,2.91,0,0,1-1.06,1.06,2.85,2.85,0,0,1-1.46.39h-2.22v3.53h-2.24V94.28H328A2.85,2.85,0,0,1,329.45,94.67Zm-.91,1.84a.93.93,0,0,0-.63-.31h-2.2v2h2.2a.86.86,0,0,0,.63-.32,1,1,0,0,0,.25-.68A1,1,0,0,0,328.54,96.51Z"/><path class="cls-2" d="M336.56,94.38l3.05,9.25h-2.3l-.61-1.89h-2.89l-.6,1.89H330.9L334,94.38Zm-2.13,5.43h1.66l-.83-2.62Z"/><path class="cls-2" d="M347.5,103.63h-2.39l-1.48-3.53h-1.52v3.53h-2.24V94.28h4.46a2.9,2.9,0,0,1,1.46.39,2.94,2.94,0,0,1,1.06,1.07,2.84,2.84,0,0,1,.39,1.45,2.81,2.81,0,0,1-.36,1.4,3,3,0,0,1-1,1Zm-2.63-7.12a.87.87,0,0,0-.62-.31h-2.19v2h2.19a.88.88,0,0,0,.62-.32,1,1,0,0,0,.25-.68A1,1,0,0,0,344.87,96.51Z"/><path class="cls-2" d="M350.68,94.28v9.35H348.3V94.28Z"/><path class="cls-2" d="M356.88,94.28h2.38v9.35h-2.38l-2.75-5v5h-2.4V94.28h2.4l2.75,5Z"/><path class="cls-2" d="M369.5,99a4.62,4.62,0,0,1-.63,2.37,4.68,4.68,0,0,1-1.73,1.72,4.62,4.62,0,0,1-2.37.63,4.67,4.67,0,0,1-4.08-2.35,4.53,4.53,0,0,1-.64-2.37,4.72,4.72,0,0,1,4.72-4.73,4.63,4.63,0,0,1,1.85.37,4.77,4.77,0,0,1,1.51,1L366,96.89a2.44,2.44,0,0,0-2.45,0,2.5,2.5,0,0,0-.88.89,2.38,2.38,0,0,0-.33,1.22,2.33,2.33,0,0,0,.33,1.22,2.5,2.5,0,0,0,.88.89,2.35,2.35,0,0,0,1.22.33,2.28,2.28,0,0,0,1.28-.37,2.4,2.4,0,0,0,.9-1H364V97.91h5.35A4.89,4.89,0,0,1,369.5,99Z"/><path class="cls-2" d="M37.61,117.1a2.64,2.64,0,0,0,.79-.52L40,118.19a4.84,4.84,0,0,1-1.52,1,4.71,4.71,0,0,1-4.2-.27,4.73,4.73,0,0,1-1.72-1.72,4.61,4.61,0,0,1-.63-2.36,4.68,4.68,0,0,1,.63-2.38,4.81,4.81,0,0,1,1.72-1.72,4.68,4.68,0,0,1,2.37-.64,4.75,4.75,0,0,1,1.83.37,4.84,4.84,0,0,1,1.52,1l-1.62,1.62a2.67,2.67,0,0,0-.79-.53,2.5,2.5,0,0,0-.94-.19,2.35,2.35,0,0,0-1.22.33,2.5,2.5,0,0,0-.88.89,2.41,2.41,0,0,0-.33,1.23,2.32,2.32,0,0,0,.33,1.21,2.5,2.5,0,0,0,.88.89,2.35,2.35,0,0,0,1.22.33A2.32,2.32,0,0,0,37.61,117.1Z"/><path class="cls-2" d="M47.64,110.79A4.74,4.74,0,0,1,50,114.88a4.53,4.53,0,0,1-.64,2.37A4.75,4.75,0,0,1,42.9,119a4.73,4.73,0,0,1-1.72-1.72,4.63,4.63,0,0,1-.64-2.37,4.74,4.74,0,0,1,2.36-4.09,4.59,4.59,0,0,1,2.38-.64A4.52,4.52,0,0,1,47.64,110.79ZM46.49,117a2.53,2.53,0,0,0,.89-.89,2.35,2.35,0,0,0,.33-1.22,2.38,2.38,0,0,0-.33-1.22,2.53,2.53,0,0,0-.89-.89,2.32,2.32,0,0,0-1.21-.33,2.41,2.41,0,0,0-1.23.33,2.53,2.53,0,0,0-.89.89,2.38,2.38,0,0,0-.33,1.22,2.35,2.35,0,0,0,.33,1.22,2.53,2.53,0,0,0,.89.89,2.41,2.41,0,0,0,1.23.33A2.32,2.32,0,0,0,46.49,117Z"/><path class="cls-2" d="M55.93,110.15h2.38v9.35H55.93l-2.75-5v5H50.79v-9.35h2.39l2.75,5Z"/><path class="cls-2" d="M66.42,110.15v2.38H64v7h-2.4v-7H59.24v-2.38h7.18Z"/><path class="cls-2" d="M73.71,117.48v2H67.34v-9.35h6.25v2H69.74v1.64H73v2H69.74v1.64Z"/><path class="cls-2" d="M79.91,110.15h2.38v9.35H79.91l-2.75-5v5h-2.4v-9.35h2.4l2.75,5Z"/><path class="cls-2" d="M90.39,110.15v2.38H88v7H85.6v-7H83.21v-2.38h7.18Z"/><path class="cls-2" d="M101.79,112.17H97.66v1.64H101v2H97.66v3.66H95.28v-9.35h6.51Z"/><path class="cls-2" d="M109.42,110.79a4.73,4.73,0,0,1,1.72,1.72,4.67,4.67,0,0,1,.63,2.37,4.62,4.62,0,0,1-.63,2.37,4.81,4.81,0,0,1-1.72,1.72,4.77,4.77,0,0,1-4.74,0,4.76,4.76,0,0,1-1.73-1.72,4.62,4.62,0,0,1-.63-2.37,4.68,4.68,0,0,1,2.36-4.09,4.71,4.71,0,0,1,4.74,0Zm-1.15,6.2a2.5,2.5,0,0,0,.88-.89,2.35,2.35,0,0,0,.33-1.22,2.38,2.38,0,0,0-.33-1.22,2.5,2.5,0,0,0-.88-.89,2.42,2.42,0,0,0-2.44,0,2.56,2.56,0,0,0-.9.89,2.38,2.38,0,0,0-.33,1.22,2.35,2.35,0,0,0,.33,1.22,2.56,2.56,0,0,0,.9.89,2.42,2.42,0,0,0,2.44,0Z"/><path class="cls-2" d="M120.19,119.5H117.8L116.32,116H114.8v3.53h-2.24v-9.35H117a2.84,2.84,0,0,1,1.45.39,2.89,2.89,0,0,1,1.07,1.07,2.82,2.82,0,0,1,.39,1.45,2.77,2.77,0,0,1-.36,1.39,3.15,3.15,0,0,1-1,1.06Zm-2.63-7.12a.89.89,0,0,0-.62-.31h-2.19v2h2.19a.94.94,0,0,0,.62-.32,1,1,0,0,0,.25-.68A1,1,0,0,0,117.56,112.38Z"/><path class="cls-2" d="M132,110.15v2.38h-2.39v7h-2.4v-7h-2.39v-2.38H132Z"/><path class="cls-2" d="M138,110.15h2.38v9.35H138V116h-2.67v3.49h-2.38v-9.35h2.38v3.48H138Z"/><path class="cls-2" d="M147.77,117.48v2h-6.36v-9.35h6.25v2h-3.85v1.64h3.24v2h-3.24v1.64Z"/><path class="cls-2" d="M157.94,110.15h2.38v9.35h-2.38l-2.75-5v5H152.8v-9.35h2.39l2.75,5Z"/><path class="cls-2" d="M167.74,117.48v2h-6.36v-9.35h6.24v2h-3.85v1.64H167v2h-3.24v1.64Z"/><path class="cls-2" d="M176.32,110.15h2.06v9.35H176l-2.4-4-2.42,4H168.8v-9.35h2.38v5.28l1.16-2.12.07-.1h2.38l.05.1,1.16,2.12v-5.28Z"/><path class="cls-2" d="M183.71,113.11v-.17a.82.82,0,0,0-.32-.65,1.21,1.21,0,0,0-.79-.28,1.24,1.24,0,0,0-.81.28.79.79,0,0,0-.34.65.6.6,0,0,0,.34.57,2.94,2.94,0,0,0,.9.37l.21,0,.23,0a4.64,4.64,0,0,1,1.89.78l.12.11a3,3,0,0,1,.63.91,2.66,2.66,0,0,1,.23,1.06,2.63,2.63,0,0,1-.26,1.13,2.79,2.79,0,0,1-.75,1,3.56,3.56,0,0,1-1.11.63,3.89,3.89,0,0,1-2.58,0,3.8,3.8,0,0,1-1.11-.63,3.05,3.05,0,0,1-.75-1,2.49,2.49,0,0,1-.26-1.13v-.17h2.31v.17a.84.84,0,0,0,.32.65,1.19,1.19,0,0,0,.78.27,1.26,1.26,0,0,0,.81-.27.8.8,0,0,0,.34-.65.76.76,0,0,0-.36-.58,1.46,1.46,0,0,0-.37-.2,3.25,3.25,0,0,0-.52-.16l-.43-.11a11,11,0,0,1-1.14-.33,2.09,2.09,0,0,1-.75-.45l-.06,0a2.82,2.82,0,0,1-.69-.93,2.59,2.59,0,0,1,0-2.22,3.13,3.13,0,0,1,.75-1,3.59,3.59,0,0,1,1.11-.63,3.89,3.89,0,0,1,2.58,0,3.37,3.37,0,0,1,1.11.63,2.85,2.85,0,0,1,.75,1,2.64,2.64,0,0,1,.26,1.14v.17Z"/><path class="cls-2" d="M189.17,117.25h3.68v2.25h-6.06v-9.35h2.38Z"/><path class="cls-2" d="M200.13,117.48v2h-6.36v-9.35H200v2h-3.84v1.64h3.24v2h-3.24v1.64Z"/><path class="cls-2" d="M208.24,110.15v2.38h-2.4v7h-2.39v-7h-2.39v-2.38h7.18Z"/><path class="cls-2" d="M216.21,110.15v2.38h-2.39v7h-2.4v-7H209v-2.38h7.18Z"/><path class="cls-2" d="M223.5,117.48v2h-6.36v-9.35h6.24v2h-3.85v1.64h3.24v2h-3.24v1.64Z"/><path class="cls-2" d="M232.18,119.5h-2.39L228.31,116h-1.52v3.53h-2.24v-9.35H229a2.82,2.82,0,0,1,1.45.39,2.89,2.89,0,0,1,1.07,1.07,2.82,2.82,0,0,1,.39,1.45,2.77,2.77,0,0,1-.36,1.39,3.15,3.15,0,0,1-1,1.06Zm-2.63-7.12a.89.89,0,0,0-.62-.31h-2.19v2h2.19a.94.94,0,0,0,.62-.32,1,1,0,0,0,.25-.68A1,1,0,0,0,229.55,112.38Z"/><path class="cls-2" d="M233.43,117.87h2.23l-1,3h-2Z"/><path class="cls-2" d="M245.56,110.15h2.38v9.35h-2.38l-2.75-5v5h-2.39v-9.35h2.39l2.75,5Z"/><path class="cls-2" d="M255.36,117.48v2H249v-9.35h6.24v2h-3.85v1.64h3.24v2h-3.24v1.64Z"/><path class="cls-2" d="M263.94,110.15H266v9.35h-2.37l-2.41-4-2.42,4h-2.38v-9.35h2.38v5.28l1.16-2.12.07-.1h2.38l0,.1,1.17,2.12v-5.28Z"/><path class="cls-2" d="M271.33,113.11v-.17a.82.82,0,0,0-.32-.65,1.21,1.21,0,0,0-.79-.28,1.26,1.26,0,0,0-.81.28.79.79,0,0,0-.34.65.6.6,0,0,0,.35.57,2.94,2.94,0,0,0,.9.37l.2,0,.23,0a4.57,4.57,0,0,1,1.89.78l.12.11a2.8,2.8,0,0,1,.63.91,2.66,2.66,0,0,1,.23,1.06,2.63,2.63,0,0,1-.26,1.13,2.89,2.89,0,0,1-.74,1,3.73,3.73,0,0,1-1.12.63,3.89,3.89,0,0,1-2.58,0,3.63,3.63,0,0,1-1.1-.63,3,3,0,0,1-.76-1,2.63,2.63,0,0,1-.26-1.13v-.17h2.31v.17a.82.82,0,0,0,.33.65,1.15,1.15,0,0,0,.77.27,1.24,1.24,0,0,0,.81-.27.8.8,0,0,0,.34-.65.76.76,0,0,0-.36-.58,1.31,1.31,0,0,0-.37-.2,3.45,3.45,0,0,0-.51-.16l-.44-.11q-.72-.18-1.14-.33a2.09,2.09,0,0,1-.75-.45l-.05,0a3,3,0,0,1-.7-.93,2.51,2.51,0,0,1-.24-1.08,2.64,2.64,0,0,1,.26-1.14,3,3,0,0,1,.76-1,3.43,3.43,0,0,1,1.1-.63,3.89,3.89,0,0,1,2.58,0,3.53,3.53,0,0,1,1.12.63,3,3,0,0,1,.74,1,2.64,2.64,0,0,1,.26,1.14v.17Z"/><path class="cls-2" d="M276.79,117.25h3.68v2.25h-6.06v-9.35h2.38Z"/><path class="cls-2" d="M287.75,117.48v2H281.4v-9.35h6.24v2h-3.85v1.64H287v2h-3.24v1.64Z"/><path class="cls-2" d="M295.86,110.15v2.38h-2.39v7h-2.4v-7h-2.39v-2.38h7.18Z"/><path class="cls-2" d="M303.83,110.15v2.38h-2.39v7h-2.39v-7h-2.4v-2.38h7.18Z"/><path class="cls-2" d="M311.12,117.48v2h-6.36v-9.35H311v2h-3.85v1.64h3.24v2h-3.24v1.64Z"/><path class="cls-2" d="M319.81,119.5h-2.4L315.93,116h-1.52v3.53h-2.23v-9.35h4.45a2.89,2.89,0,0,1,2.52,1.46,2.82,2.82,0,0,1,.39,1.45,2.77,2.77,0,0,1-.36,1.39,3,3,0,0,1-1,1.06Zm-2.64-7.12a.87.87,0,0,0-.62-.31h-2.19v2h2.19a.92.92,0,0,0,.62-.32,1,1,0,0,0,.26-.68A1,1,0,0,0,317.17,112.38Z"/><path class="cls-2" d="M36.49,129v-.17a.82.82,0,0,0-.33-.66,1.18,1.18,0,0,0-.79-.27,1.28,1.28,0,0,0-.81.27.83.83,0,0,0-.34.66.62.62,0,0,0,.35.57,2.94,2.94,0,0,0,.9.37.79.79,0,0,1,.2,0l.23.05a4.51,4.51,0,0,1,1.89.78l.12.1a2.69,2.69,0,0,1,.63.92,2.57,2.57,0,0,1,0,2.19,3.1,3.1,0,0,1-.74,1,3.56,3.56,0,0,1-1.11.62,3.82,3.82,0,0,1-1.3.22,3.72,3.72,0,0,1-1.29-.22,3.4,3.4,0,0,1-1.1-.62,3.17,3.17,0,0,1-.76-1,2.64,2.64,0,0,1-.26-1.14v-.17h2.31v.17a.82.82,0,0,0,.33.66,1.15,1.15,0,0,0,.77.27,1.24,1.24,0,0,0,.81-.27.81.81,0,0,0,.34-.66.77.77,0,0,0-.36-.58,1.61,1.61,0,0,0-.37-.2l-.51-.15-.44-.11a11.45,11.45,0,0,1-1.13-.33,2.35,2.35,0,0,1-.76-.45l0-.05a3.25,3.25,0,0,1-.7-.93,2.51,2.51,0,0,1-.24-1.08,2.64,2.64,0,0,1,.26-1.14,3,3,0,0,1,.76-1,3.25,3.25,0,0,1,1.1-.63,3.72,3.72,0,0,1,1.29-.22,3.82,3.82,0,0,1,1.3.22,3.4,3.4,0,0,1,1.11.63,3,3,0,0,1,.74,1,2.51,2.51,0,0,1,.26,1.14V129Z"/><path class="cls-2" d="M45.93,133.34v2H39.57V126h6.24v2H42v1.64H45.2v2H42v1.64Z"/><path class="cls-2" d="M54,126v2.38H51.64v7h-2.4v-7H46.85V126H54Z"/><path class="cls-2" d="M62,126v2.38H59.61v7H57.22v-7h-2.4V126H62Z"/><path class="cls-2" d="M65.31,126v9.35H62.93V126Z"/><path class="cls-2" d="M71.51,126h2.38v9.35H71.51l-2.75-5v5H66.37V126h2.39l2.75,5Z"/><path class="cls-2" d="M84.14,130.74a4.52,4.52,0,0,1-.64,2.36,4.65,4.65,0,0,1-1.72,1.72,4.59,4.59,0,0,1-2.38.64,4.52,4.52,0,0,1-2.36-.64,4.74,4.74,0,0,1-2.36-4.08,4.74,4.74,0,0,1,2.36-4.1A4.52,4.52,0,0,1,79.4,126a4.77,4.77,0,0,1,1.85.37,4.53,4.53,0,0,1,1.51,1l-2.13,1.21a2.36,2.36,0,0,0-1.23-.33,2.32,2.32,0,0,0-1.21.33,2.53,2.53,0,0,0-.89.89,2.41,2.41,0,0,0-.33,1.23A2.32,2.32,0,0,0,77.3,132a2.53,2.53,0,0,0,.89.89,2.32,2.32,0,0,0,1.21.33,2.41,2.41,0,0,0,1.29-.36,2.65,2.65,0,0,0,.9-1H78.65v-2.19H84A5,5,0,0,1,84.14,130.74Z"/><path class="cls-2" d="M96.5,126v5.78a3.59,3.59,0,0,1-.5,1.85A3.74,3.74,0,0,1,94.66,135a3.65,3.65,0,0,1-1.86.5h-.21a3.65,3.65,0,0,1-1.86-.5,3.74,3.74,0,0,1-1.34-1.34,3.58,3.58,0,0,1-.49-1.85V126h2.2v5.25a2.26,2.26,0,0,0,.4,1.36,1.29,1.29,0,0,0,1.09.54h.21a1.29,1.29,0,0,0,1.08-.55,2.19,2.19,0,0,0,.41-1.35V126Z"/><path class="cls-2" d="M103.47,126.41a2.87,2.87,0,0,1,1.45,2.52,2.85,2.85,0,0,1-.39,1.46,2.91,2.91,0,0,1-1.06,1.06,2.82,2.82,0,0,1-1.46.38H99.79v3.54H97.56V126H102A2.83,2.83,0,0,1,103.47,126.41Zm-.91,1.84a.92.92,0,0,0-.63-.32H99.74v2h2.19a.89.89,0,0,0,.63-.33,1,1,0,0,0,.26-.68A1,1,0,0,0,102.56,128.25Z"/><path class="cls-2" d="M106.17,133.74h2.23l-1,3h-2Z"/><path class="cls-2" d="M120.36,126h2.39v9.35h-2.39v-5.28l-1.16,2.12,0,.1h-2.38l-.07-.1-.16-.31-1-1.81v5.28h-2.39V126h2.39l2.41,4Z"/><path class="cls-2" d="M130.64,126.65a4.76,4.76,0,0,1,1.72,1.73,4.77,4.77,0,0,1,0,4.74,4.89,4.89,0,0,1-1.72,1.72,4.62,4.62,0,0,1-2.37.63,4.67,4.67,0,0,1-2.37-.63,4.83,4.83,0,0,1-1.73-1.72,4.77,4.77,0,0,1,0-4.74,4.71,4.71,0,0,1,4.1-2.36A4.62,4.62,0,0,1,130.64,126.65Zm-1.15,6.2a2.47,2.47,0,0,0,.88-.88,2.42,2.42,0,0,0,0-2.44,2.53,2.53,0,0,0-.88-.9,2.42,2.42,0,0,0-2.44,0,2.48,2.48,0,0,0-.89.9,2.42,2.42,0,0,0,0,2.44,2.42,2.42,0,0,0,.89.88,2.42,2.42,0,0,0,2.44,0Z"/><path class="cls-2" d="M138.93,126h2.38v9.35h-2.38l-2.75-5v5h-2.4V126h2.4l2.75,5Z"/><path class="cls-2" d="M144.75,126v9.35h-2.38V126Z"/><path class="cls-2" d="M152.85,126v2.38h-2.39v7h-2.4v-7h-2.39V126h7.18Z"/><path class="cls-2" d="M160.61,126.65a4.73,4.73,0,0,1,1.72,6.47,4.81,4.81,0,0,1-1.72,1.72,4.61,4.61,0,0,1-2.36.63,4.7,4.7,0,0,1-4.1-2.35,4.71,4.71,0,0,1,0-4.74,4.61,4.61,0,0,1,1.72-1.73,4.68,4.68,0,0,1,2.38-.63A4.61,4.61,0,0,1,160.61,126.65Zm-1.15,6.2a2.5,2.5,0,0,0,.89-.88,2.42,2.42,0,0,0,0-2.44,2.56,2.56,0,0,0-.89-.9,2.41,2.41,0,0,0-1.21-.33,2.49,2.49,0,0,0-1.23.33,2.56,2.56,0,0,0-.89.9,2.42,2.42,0,0,0,0,2.44,2.5,2.5,0,0,0,.89.88,2.39,2.39,0,0,0,1.23.33A2.32,2.32,0,0,0,159.46,132.85Z"/><path class="cls-2" d="M171.39,135.37H169l-1.48-3.54H166v3.54h-2.23V126h4.45a2.88,2.88,0,0,1,1.46.39,2.84,2.84,0,0,1,1.06,1.06,2.93,2.93,0,0,1,0,2.85,3,3,0,0,1-1,1.05Zm-2.63-7.12a.92.92,0,0,0-.63-.32h-2.19v2h2.19a1,1,0,0,0,.63-.33,1,1,0,0,0,.25-.68A1,1,0,0,0,168.76,128.25Z"/><path class="cls-2" d="M174.56,126v9.35h-2.38V126Z"/><path class="cls-2" d="M180.76,126h2.38v9.35h-2.38l-2.75-5v5h-2.39V126H178l2.75,5Z"/><path class="cls-2" d="M193.39,130.74a4.52,4.52,0,0,1-.64,2.36,4.74,4.74,0,0,1-4.09,2.36,4.53,4.53,0,0,1-2.37-.64,4.75,4.75,0,0,1-1.72-6.46,4.73,4.73,0,0,1,1.72-1.72,4.53,4.53,0,0,1,2.37-.64,4.76,4.76,0,0,1,1.84.37,4.53,4.53,0,0,1,1.51,1l-2.13,1.21a2.42,2.42,0,0,0-2.44,0,2.53,2.53,0,0,0-.89.89,2.41,2.41,0,0,0-.33,1.23,2.32,2.32,0,0,0,.33,1.21,2.53,2.53,0,0,0,.89.89,2.33,2.33,0,0,0,1.22.33,2.4,2.4,0,0,0,1.28-.36,2.5,2.5,0,0,0,.9-1H187.9v-2.19h5.36A5.65,5.65,0,0,1,193.39,130.74Z"/><path class="cls-2" d="M205.2,126v2.38h-2.4v7h-2.39v-7H198V126h7.18Z"/><path class="cls-2" d="M211.17,126h2.38v9.35h-2.38v-3.49H208.5v3.49h-2.38V126h2.38v3.47h2.67Z"/><path class="cls-2" d="M221,133.34v2h-6.36V126h6.24v2H217v1.64h3.24v2H217v1.64Z"/><path class="cls-2" d="M232.35,133.34v2H226V126h6.25v2h-3.85v1.64h3.24v2h-3.24v1.64Z"/><path class="cls-2" d="M241.62,135.37h-2.76l-1.48-2.44-1.47,2.44h-2.76l2.85-4.73L233.2,126H236l1.42,2.34,1.41-2.34h2.78l-2.8,4.62Z"/><path class="cls-2" d="M248.78,133.34v2h-6.36V126h6.24v2h-3.85v1.64h3.24v2h-3.24v1.64Z"/><path class="cls-2" d="M255.23,133a2.47,2.47,0,0,0,.79-.52l1.61,1.62a4.75,4.75,0,0,1-5.71.75,4.81,4.81,0,0,1-1.72-1.72,4.62,4.62,0,0,1-.63-2.37,4.67,4.67,0,0,1,.63-2.37,4.73,4.73,0,0,1,1.72-1.72,4.56,4.56,0,0,1,2.37-.64,4.65,4.65,0,0,1,1.82.36,4.81,4.81,0,0,1,1.52,1L256,129a2.64,2.64,0,0,0-.79-.52,2.32,2.32,0,0,0-.94-.19,2.35,2.35,0,0,0-1.22.33,2.5,2.5,0,0,0-.88.89,2.38,2.38,0,0,0-.33,1.22,2.33,2.33,0,0,0,.33,1.22,2.5,2.5,0,0,0,.88.89,2.37,2.37,0,0,0,2.16.13Z"/><path class="cls-2" d="M266,126v5.78a3.5,3.5,0,0,1-.5,1.85,3.74,3.74,0,0,1-1.34,1.34,3.65,3.65,0,0,1-1.86.5h-.21a3.59,3.59,0,0,1-1.85-.5,3.69,3.69,0,0,1-1.35-1.34,3.58,3.58,0,0,1-.49-1.85V126h2.21v5.25a2.26,2.26,0,0,0,.39,1.36,1.29,1.29,0,0,0,1.09.54h.21a1.29,1.29,0,0,0,1.08-.55,2.19,2.19,0,0,0,.41-1.35V126Z"/><path class="cls-2" d="M274.14,126v2.38h-2.4v7h-2.39v-7H267V126h7.18Z"/><path class="cls-2" d="M277.44,126v9.35h-2.38V126Z"/><path class="cls-2" d="M285.33,126.65a4.61,4.61,0,0,1,1.72,1.73,4.71,4.71,0,0,1,0,4.74,4.73,4.73,0,0,1-1.72,1.72,4.61,4.61,0,0,1-2.36.63,4.68,4.68,0,0,1-2.38-.63,4.81,4.81,0,0,1-1.72-1.72,4.73,4.73,0,0,1,6.46-6.47Zm-1.15,6.2a2.5,2.5,0,0,0,.89-.88,2.42,2.42,0,0,0,0-2.44,2.56,2.56,0,0,0-.89-.9,2.41,2.41,0,0,0-1.21-.33,2.45,2.45,0,0,0-1.22.33,2.5,2.5,0,0,0-.9.9,2.42,2.42,0,0,0,0,2.44,2.45,2.45,0,0,0,.9.88,2.35,2.35,0,0,0,1.22.33A2.32,2.32,0,0,0,284.18,132.85Z"/><path class="cls-2" d="M293.63,126H296v9.35h-2.37l-2.76-5v5h-2.39V126h2.39l2.76,5Z"/><path class="cls-2" d="M307.86,126.65a4.61,4.61,0,0,1,1.72,1.73,4.71,4.71,0,0,1,0,4.74,4.73,4.73,0,0,1-1.72,1.72,4.61,4.61,0,0,1-2.36.63,4.68,4.68,0,0,1-2.38-.63,4.81,4.81,0,0,1-1.72-1.72,4.73,4.73,0,0,1,6.46-6.47Zm-1.15,6.2a2.5,2.5,0,0,0,.89-.88,2.42,2.42,0,0,0,0-2.44,2.56,2.56,0,0,0-.89-.9,2.41,2.41,0,0,0-1.21-.33,2.52,2.52,0,0,0-1.23.33,2.56,2.56,0,0,0-.89.9,2.42,2.42,0,0,0,0,2.44,2.5,2.5,0,0,0,.89.88,2.41,2.41,0,0,0,1.23.33A2.32,2.32,0,0,0,306.71,132.85Z"/><path class="cls-2" d="M317.52,128h-4.13v1.64h3.31v2h-3.31v3.67H311V126h6.51Z"/><path class="cls-2" d="M37.36,141.88h2.38v9.35H37.36l-2.75-5v5h-2.4v-9.35h2.4l2.75,5Z"/><path class="cls-2" d="M47.16,149.21v2H40.79v-9.35H47v2H43.19v1.64h3.24v2H43.19v1.64Z"/><path class="cls-2" d="M55.74,141.88H57.8v9.35H55.42l-2.41-4-2.42,4H48.21v-9.35h2.38v5.28L51.76,145l.06-.1H54.2l0,.1,1.17,2.12v-5.28Z"/><path class="cls-2" d="M63.13,144.85v-.18a.82.82,0,0,0-.33-.65,1.16,1.16,0,0,0-.78-.27,1.28,1.28,0,0,0-.82.27.82.82,0,0,0-.33.65.6.6,0,0,0,.34.57,2.71,2.71,0,0,0,.9.37l.2,0,.23.06a4.37,4.37,0,0,1,1.9.78l.11.1a2.75,2.75,0,0,1,.63.91,2.57,2.57,0,0,1,.23,1.06,2.63,2.63,0,0,1-.25,1.14,3,3,0,0,1-.75,1,3.4,3.4,0,0,1-1.11.63,3.82,3.82,0,0,1-1.3.22,3.72,3.72,0,0,1-1.29-.22,3.35,3.35,0,0,1-1.1-.63,2.85,2.85,0,0,1-.75-1,2.52,2.52,0,0,1-.27-1.14v-.17h2.32v.17a.78.78,0,0,0,.32.65,1.13,1.13,0,0,0,.77.28,1.24,1.24,0,0,0,.82-.28.79.79,0,0,0,.33-.65.77.77,0,0,0-.35-.58,1.46,1.46,0,0,0-.37-.2l-.52-.16-.44-.1c-.48-.13-.86-.24-1.13-.33a2.35,2.35,0,0,1-.76-.45l0-.06a2.89,2.89,0,0,1-.69-.92,2.45,2.45,0,0,1-.25-1.09,2.51,2.51,0,0,1,.27-1.13,2.89,2.89,0,0,1,.75-1,3.75,3.75,0,0,1,1.1-.63,4,4,0,0,1,1.29-.22,4.08,4.08,0,0,1,1.3.22,3.8,3.8,0,0,1,1.11.63,3,3,0,0,1,.75,1,2.62,2.62,0,0,1,.25,1.13v.18Z"/><path class="cls-2" d="M68.59,149h3.67v2.25H66.21v-9.35h2.38Z"/><path class="cls-2" d="M79.55,149.21v2H73.19v-9.35h6.24v2H75.58v1.64h3.24v2H75.58v1.64Z"/><path class="cls-2" d="M87.65,141.88v2.38H85.26v7H82.87v-7h-2.4v-2.38h7.18Z"/><path class="cls-2" d="M95.63,141.88v2.38h-2.4v7H90.84v-7H88.45v-2.38h7.18Z"/><path class="cls-2" d="M102.91,149.21v2H96.55v-9.35h6.24v2H99v1.64h3.24v2H99v1.64Z"/><path class="cls-2" d="M111.6,151.23h-2.39l-1.48-3.53h-1.52v3.53H104v-9.35h4.46a2.84,2.84,0,0,1,1.45.39,2.89,2.89,0,0,1,1.07,1.07,3,3,0,0,1,0,2.85,3,3,0,0,1-1,1.05ZM109,144.11a.91.91,0,0,0-.62-.31h-2.2v2h2.2a.92.92,0,0,0,.62-.32,1,1,0,0,0,.25-.68A1,1,0,0,0,109,144.11Z"/><path class="cls-2" d="M123.2,142.52a4.7,4.7,0,0,1,1.71,1.72,4.59,4.59,0,0,1,.64,2.38,4.52,4.52,0,0,1-.64,2.36,4.71,4.71,0,0,1-4.08,2.36,4.53,4.53,0,0,1-2.37-.64,4.72,4.72,0,0,1-2.37-4.08,4.72,4.72,0,0,1,2.37-4.1,4.63,4.63,0,0,1,2.37-.64A4.68,4.68,0,0,1,123.2,142.52Zm-1.16,6.2a2.45,2.45,0,0,0,.89-.89,2.32,2.32,0,0,0,.33-1.21,2.41,2.41,0,0,0-.33-1.23,2.45,2.45,0,0,0-.89-.89,2.32,2.32,0,0,0-1.21-.33,2.35,2.35,0,0,0-1.22.33,2.48,2.48,0,0,0-.9.89,2.41,2.41,0,0,0-.33,1.23,2.32,2.32,0,0,0,.33,1.21,2.48,2.48,0,0,0,.9.89,2.35,2.35,0,0,0,1.22.33A2.32,2.32,0,0,0,122,148.72Z"/><path class="cls-2" d="M131.49,141.88h2.38v9.35h-2.38l-2.76-5v5h-2.39v-9.35h2.39l2.76,5Z"/><path class="cls-2" d="M145.94,141.88v2.38h-2.4v7h-2.39v-7h-2.39v-2.38h7.18Z"/><path class="cls-2" d="M151.91,141.88h2.38v9.35h-2.38v-3.49h-2.67v3.49h-2.38v-9.35h2.38v3.48h2.67Z"/><path class="cls-2" d="M161.71,149.21v2h-6.36v-9.35h6.24v2h-3.85v1.64H161v2h-3.24v1.64Z"/><path class="cls-2" d="M170.83,141.85a5.37,5.37,0,0,1,1.41.34,4,4,0,0,1,1.29.8,4.59,4.59,0,0,1,1.14,1.61,4.78,4.78,0,0,1,.41,1.93,4.47,4.47,0,0,1-.52,2.15,4.27,4.27,0,0,1-1.45,1.65,5,5,0,0,1-1.9.75,13.74,13.74,0,0,1-2.36.18h-1.08l-1,0v-9.45h2.4A16.6,16.6,0,0,1,170.83,141.85Zm2,4.68a2.39,2.39,0,0,0-.31-1.2,2.53,2.53,0,0,0-.87-.91,2.21,2.21,0,0,0-1.2-.35h-1.29v4.87a9.63,9.63,0,0,0,1.63-.11,2.75,2.75,0,0,0,1.23-.52,2,2,0,0,0,.75-1.23A2.88,2.88,0,0,0,172.8,146.53Z"/><path class="cls-2" d="M180.74,142l3,9.25h-2.3l-.61-1.89H178l-.6,1.89h-2.31l3.07-9.25Zm-2.13,5.43h1.66l-.83-2.62Z"/><path class="cls-2" d="M191.1,141.88v2.38h-2.39v7h-2.39v-7h-2.4v-2.38h7.18Z"/><path class="cls-2" d="M196.89,142l3.06,9.25h-2.3l-.61-1.89h-2.9l-.59,1.89h-2.31L194.3,142Zm-2.12,5.43h1.66l-.83-2.62Z"/><path class="cls-2" d="M207.26,147.29a2.75,2.75,0,0,1,0,2.59,2.69,2.69,0,0,1-2.33,1.35h-4.67v-9.35h4.25a2.55,2.55,0,0,1,1.36.37,2.82,2.82,0,0,1,1,1,2.66,2.66,0,0,1,.35,1.32,2.47,2.47,0,0,1-.19,1,2.51,2.51,0,0,1-.51.83A2.63,2.63,0,0,1,207.26,147.29Zm-2.47-3.22a.9.9,0,0,0-.68-.28h-1.72v2h1.72a2.41,2.41,0,0,0,.32-.05,1,1,0,0,0,.24-.13,1,1,0,0,0,.41-.82A1,1,0,0,0,204.79,144.07Zm.4,4.94a.91.91,0,0,0,.27-.7,1,1,0,0,0-.22-.63,1,1,0,0,0-.57-.34h-2.28v2h2.12A.91.91,0,0,0,205.19,149Z"/><path class="cls-2" d="M213.22,142l3.06,9.25H214l-.61-1.89h-2.9l-.59,1.89h-2.32l3.07-9.25Zm-2.12,5.43h1.66l-.83-2.62Z"/><path class="cls-2" d="M220.81,144.85v-.18a.81.81,0,0,0-.32-.65,1.2,1.2,0,0,0-.79-.27,1.26,1.26,0,0,0-.81.27.83.83,0,0,0-.34.65.6.6,0,0,0,.35.57,2.71,2.71,0,0,0,.9.37l.2,0,.23.06a4.32,4.32,0,0,1,1.89.78l.12.1a2.91,2.91,0,0,1,.63.91,2.74,2.74,0,0,1,.23,1.06,2.64,2.64,0,0,1-.26,1.14,3,3,0,0,1-.74,1,3.4,3.4,0,0,1-1.11.63,3.82,3.82,0,0,1-1.3.22,3.72,3.72,0,0,1-1.29-.22,3.25,3.25,0,0,1-1.1-.63,3,3,0,0,1-.76-1,2.64,2.64,0,0,1-.26-1.14v-.17h2.31v.17a.79.79,0,0,0,.33.65,1.11,1.11,0,0,0,.77.28,1.19,1.19,0,0,0,.81-.28.78.78,0,0,0,.34-.65.76.76,0,0,0-.36-.58,1.31,1.31,0,0,0-.37-.2l-.51-.16-.44-.1-1.14-.33a2.42,2.42,0,0,1-.75-.45l-.05-.06a3.08,3.08,0,0,1-.7-.92,2.58,2.58,0,0,1-.24-1.09,2.63,2.63,0,0,1,.26-1.13,3.05,3.05,0,0,1,.76-1,3.63,3.63,0,0,1,1.1-.63,4,4,0,0,1,1.29-.22,4.08,4.08,0,0,1,1.3.22,3.8,3.8,0,0,1,1.11.63,3,3,0,0,1,.74,1,2.63,2.63,0,0,1,.26,1.13v.18Z"/><path class="cls-2" d="M230.25,149.21v2h-6.36v-9.35h6.25v2h-3.85v1.64h3.24v2h-3.24v1.64Z"/><path class="cls-2" d="M242.11,142.52a4.65,4.65,0,0,1,1.72,1.72,4.59,4.59,0,0,1,.64,2.38,4.52,4.52,0,0,1-.64,2.36,4.58,4.58,0,0,1-1.72,1.72,4.52,4.52,0,0,1-2.36.64,4.59,4.59,0,0,1-2.38-.64,4.72,4.72,0,0,1-1.72-6.46,4.74,4.74,0,0,1,4.1-2.36A4.62,4.62,0,0,1,242.11,142.52Zm-1.15,6.2a2.53,2.53,0,0,0,.89-.89,2.32,2.32,0,0,0,.33-1.21,2.41,2.41,0,0,0-.33-1.23,2.53,2.53,0,0,0-.89-.89,2.32,2.32,0,0,0-1.21-.33,2.41,2.41,0,0,0-1.23.33,2.53,2.53,0,0,0-.89.89,2.41,2.41,0,0,0-.33,1.23,2.32,2.32,0,0,0,.33,1.21,2.53,2.53,0,0,0,.89.89,2.41,2.41,0,0,0,1.23.33A2.32,2.32,0,0,0,241,148.72Z"/><path class="cls-2" d="M251.77,143.91h-4.13v1.64H251v2h-3.31v3.66h-2.38v-9.35h6.51Z"/><path class="cls-2" d="M259,141.88h1.09v9.35h-2.38v-6.61l-1.3.41V142.7l1.3-.41Z"/><path class="cls-2" d="M266.65,142.51a4.31,4.31,0,0,1,1.4,1.71,5.41,5.41,0,0,1,.52,2.37,5.35,5.35,0,0,1-.52,2.37,4.31,4.31,0,0,1-1.4,1.73,3.27,3.27,0,0,1-3.86,0,4.42,4.42,0,0,1-1.41-1.73,5.49,5.49,0,0,1-.52-2.37,5.55,5.55,0,0,1,.52-2.37,4.42,4.42,0,0,1,1.41-1.71,3.23,3.23,0,0,1,3.86,0Zm-1.12,6a1.94,1.94,0,0,0,.58-.82,2.9,2.9,0,0,0,.21-1.12,2.76,2.76,0,0,0-.22-1.12,2.06,2.06,0,0,0-.58-.81,1.22,1.22,0,0,0-1.6,0,2,2,0,0,0-.59.81,2.76,2.76,0,0,0-.22,1.12,2.73,2.73,0,0,0,.22,1.12,2,2,0,0,0,.59.82,1.23,1.23,0,0,0,.8.3A1.27,1.27,0,0,0,265.53,148.53Z"/><path class="cls-2" d="M273.9,146.51l2.79,4.72H274l-2.3-3.77v3.77h-2.38v-9.35h2.38v3.65l2.3-3.65h2.65Z"/><path class="cls-2" d="M289.32,141.9v5.78a3.62,3.62,0,0,1-.5,1.85,3.69,3.69,0,0,1-1.35,1.34,3.64,3.64,0,0,1-1.86.49h-.21a3.58,3.58,0,0,1-1.85-.49,3.74,3.74,0,0,1-1.34-1.34,3.62,3.62,0,0,1-.5-1.85V141.9h2.21v5.25a2.21,2.21,0,0,0,.4,1.36,1.26,1.26,0,0,0,1.08.54h.21a1.29,1.29,0,0,0,1.08-.55,2.15,2.15,0,0,0,.42-1.35V141.9Z"/><path class="cls-2" d="M294.64,144.85v-.18a.81.81,0,0,0-.32-.65,1.2,1.2,0,0,0-.79-.27,1.28,1.28,0,0,0-.81.27.83.83,0,0,0-.34.65.6.6,0,0,0,.35.57,2.71,2.71,0,0,0,.9.37l.2,0,.23.06a4.26,4.26,0,0,1,1.89.78l.12.1a2.81,2.81,0,0,1,.86,2,2.51,2.51,0,0,1-.26,1.14,3,3,0,0,1-.74,1,3.4,3.4,0,0,1-1.11.63,3.82,3.82,0,0,1-1.3.22,3.72,3.72,0,0,1-1.29-.22,3.25,3.25,0,0,1-1.1-.63,3,3,0,0,1-.76-1,2.64,2.64,0,0,1-.26-1.14v-.17h2.31v.17a.79.79,0,0,0,.33.65,1.11,1.11,0,0,0,.77.28,1.19,1.19,0,0,0,.81-.28.78.78,0,0,0,.34-.65.76.76,0,0,0-.36-.58,1.31,1.31,0,0,0-.37-.2l-.51-.16-.44-.1-1.14-.33a2.42,2.42,0,0,1-.75-.45l-.05-.06a3.08,3.08,0,0,1-.7-.92,2.58,2.58,0,0,1-.24-1.09,2.63,2.63,0,0,1,.26-1.13,3.05,3.05,0,0,1,.76-1,3.63,3.63,0,0,1,1.1-.63,4,4,0,0,1,1.29-.22,4.08,4.08,0,0,1,1.3.22,3.8,3.8,0,0,1,1.11.63,3,3,0,0,1,.74,1,2.49,2.49,0,0,1,.26,1.13v.18Z"/><path class="cls-2" d="M304.08,149.21v2h-6.36v-9.35H304v2h-3.85v1.64h3.24v2h-3.24v1.64Z"/><path class="cls-2" d="M312.77,151.23h-2.39l-1.48-3.53h-1.52v3.53h-2.24v-9.35h4.46a2.84,2.84,0,0,1,1.45.39,2.89,2.89,0,0,1,1.07,1.07,2.9,2.9,0,0,1,0,2.85,3,3,0,0,1-1,1.05Zm-2.63-7.12a.89.89,0,0,0-.62-.31h-2.2v2h2.2a.9.9,0,0,0,.62-.32,1,1,0,0,0,.25-.68A1,1,0,0,0,310.14,144.11Z"/><path class="cls-2" d="M317.84,144.85v-.18a.82.82,0,0,0-.33-.65,1.18,1.18,0,0,0-.79-.27,1.28,1.28,0,0,0-.81.27.83.83,0,0,0-.34.65.6.6,0,0,0,.35.57,2.71,2.71,0,0,0,.9.37l.2,0,.23.06a4.26,4.26,0,0,1,1.89.78l.12.1a2.75,2.75,0,0,1,.63.91,2.57,2.57,0,0,1,.23,1.06,2.63,2.63,0,0,1-.25,1.14,3.13,3.13,0,0,1-.75,1,3.4,3.4,0,0,1-1.11.63,3.82,3.82,0,0,1-1.3.22,3.72,3.72,0,0,1-1.29-.22,3.25,3.25,0,0,1-1.1-.63,3,3,0,0,1-.76-1,2.64,2.64,0,0,1-.26-1.14v-.17h2.31v.17a.79.79,0,0,0,.33.65,1.11,1.11,0,0,0,.77.28,1.19,1.19,0,0,0,.81-.28.78.78,0,0,0,.34-.65.76.76,0,0,0-.36-.58,1.18,1.18,0,0,0-.37-.2l-.51-.16-.44-.1c-.48-.13-.86-.24-1.13-.33a2.35,2.35,0,0,1-.76-.45l-.05-.06a3.08,3.08,0,0,1-.7-.92,2.58,2.58,0,0,1-.24-1.09,2.63,2.63,0,0,1,.26-1.13,3.05,3.05,0,0,1,.76-1,3.63,3.63,0,0,1,1.1-.63,4,4,0,0,1,1.29-.22,4.08,4.08,0,0,1,1.3.22,3.8,3.8,0,0,1,1.11.63,3.17,3.17,0,0,1,.75,1,2.62,2.62,0,0,1,.25,1.13v.18Z"/><path class="cls-2" d="M321.37,149.61h2.23l-1,3h-2Z"/><path class="cls-2" d="M38.13,158.14a2.91,2.91,0,0,1-1.46,5.43H34.45v3.53H32.21v-9.35h4.46A2.83,2.83,0,0,1,38.13,158.14ZM37.22,160a.91.91,0,0,0-.63-.31H34.4v2h2.19a.88.88,0,0,0,.63-.32,1,1,0,0,0,.26-.68A1,1,0,0,0,37.22,160Z"/><path class="cls-2" d="M48,167.1H45.61l-1.48-3.53H42.61v3.53H40.37v-9.35h4.46a2.84,2.84,0,0,1,1.45.39,2.89,2.89,0,0,1,1.07,1.07,2.82,2.82,0,0,1,.39,1.45,2.77,2.77,0,0,1-.36,1.39,3.15,3.15,0,0,1-1,1.06ZM45.37,160a.89.89,0,0,0-.62-.31h-2.2v2h2.2a.9.9,0,0,0,.62-.32,1,1,0,0,0,.25-.68A1,1,0,0,0,45.37,160Z"/><path class="cls-2" d="M55.63,158.38a4.76,4.76,0,0,1,1.72,1.73,4.67,4.67,0,0,1,.63,2.37,4.62,4.62,0,0,1-.63,2.37,4.73,4.73,0,0,1-1.72,1.72,4.63,4.63,0,0,1-2.37.64,4.74,4.74,0,0,1-4.09-2.36,4.53,4.53,0,0,1-.64-2.37,4.58,4.58,0,0,1,.64-2.37,4.68,4.68,0,0,1,4.09-2.36A4.62,4.62,0,0,1,55.63,158.38Zm-1.15,6.21a2.53,2.53,0,0,0,.89-.89,2.35,2.35,0,0,0,.33-1.22,2.38,2.38,0,0,0-.33-1.22,2.53,2.53,0,0,0-.89-.89,2.35,2.35,0,0,0-1.22-.33,2.38,2.38,0,0,0-1.22.33,2.53,2.53,0,0,0-.89.89,2.38,2.38,0,0,0-.33,1.22,2.35,2.35,0,0,0,.33,1.22,2.53,2.53,0,0,0,.89.89,2.38,2.38,0,0,0,1.22.33A2.35,2.35,0,0,0,54.48,164.59Z"/><path class="cls-2" d="M64.93,157.72h2.59l-3.06,9.38H61.55l-3-9.38h2.62L63,163.57Z"/><path class="cls-2" d="M70.69,157.75v9.35H68.31v-9.35Z"/><path class="cls-2" d="M75.85,157.72a5.81,5.81,0,0,1,1.4.33,4,4,0,0,1,1.29.81,4.62,4.62,0,0,1,1.15,1.61,4.76,4.76,0,0,1,.4,1.92,4.62,4.62,0,0,1-.51,2.16,4.36,4.36,0,0,1-1.45,1.65,5.09,5.09,0,0,1-1.91.75,13.74,13.74,0,0,1-2.36.18l-1.08,0h-1v-9.46h2.39A16.65,16.65,0,0,1,75.85,157.72Zm2,4.67a2.39,2.39,0,0,0-.32-1.19,2.45,2.45,0,0,0-.87-.91,2.28,2.28,0,0,0-1.19-.36h-1.3v4.88a10.7,10.7,0,0,0,1.63-.11,2.82,2.82,0,0,0,1.23-.52,2.09,2.09,0,0,0,.75-1.23A3.05,3.05,0,0,0,77.82,162.39Z"/><path class="cls-2" d="M83.26,157.75v9.35H80.88v-9.35Z"/><path class="cls-2" d="M89.46,157.75h2.38v9.35H89.46l-2.75-5v5H84.32v-9.35h2.39l2.75,5Z"/><path class="cls-2" d="M102.09,162.47a4.62,4.62,0,0,1-.63,2.37,4.83,4.83,0,0,1-1.73,1.72,4.67,4.67,0,0,1-2.37.63,4.62,4.62,0,0,1-2.37-.63,4.89,4.89,0,0,1-1.72-1.72,4.77,4.77,0,0,1,0-4.74A4.76,4.76,0,0,1,95,158.37a4.62,4.62,0,0,1,2.37-.63,4.71,4.71,0,0,1,3.36,1.4l-2.13,1.22a2.44,2.44,0,0,0-2.45,0,2.42,2.42,0,0,0-.88.89,2.42,2.42,0,0,0,0,2.44,2.47,2.47,0,0,0,.88.88,2.35,2.35,0,0,0,1.22.33,2.38,2.38,0,0,0,1.28-.36,2.47,2.47,0,0,0,.9-1H96.6v-2.2H102A5,5,0,0,1,102.09,162.47Z"/><path class="cls-2" d="M111.72,157.84l3,9.26h-2.3l-.61-1.89H109l-.6,1.89h-2.31l3.07-9.26Zm-2.13,5.44h1.66l-.83-2.62Z"/><path class="cls-2" d="M126.63,167.1h-2.39l-1.48-3.53h-1.52v3.53H119v-9.35h4.46a2.84,2.84,0,0,1,1.45.39,2.89,2.89,0,0,1,1.07,1.07,2.82,2.82,0,0,1,.39,1.45,2.77,2.77,0,0,1-.36,1.39,3.08,3.08,0,0,1-1,1.06ZM124,160a.89.89,0,0,0-.62-.31h-2.2v2h2.2a.9.9,0,0,0,.62-.32,1,1,0,0,0,.25-.68A1,1,0,0,0,124,160Z"/><path class="cls-2" d="M133.78,165.08v2h-6.36v-9.35h6.25v2h-3.85v1.64h3.24v2h-3.24v1.64Z"/><path class="cls-2" d="M140.76,158.14a2.91,2.91,0,0,1,1.06,1.06,2.93,2.93,0,0,1,0,2.92,2.91,2.91,0,0,1-1.06,1.06,2.85,2.85,0,0,1-1.46.39h-2.22v3.53h-2.24v-9.35h4.46A2.85,2.85,0,0,1,140.76,158.14Zm-.91,1.84a.93.93,0,0,0-.63-.31H137v2h2.2a.9.9,0,0,0,.63-.32,1,1,0,0,0,.25-.68A1,1,0,0,0,139.85,160Z"/><path class="cls-2" d="M149.84,158.38a4.73,4.73,0,0,1,1.71,1.73,4.58,4.58,0,0,1,.64,2.37,4.53,4.53,0,0,1-.64,2.37,4.71,4.71,0,0,1-4.08,2.36,4.63,4.63,0,0,1-2.37-.64,4.68,4.68,0,0,1-1.73-1.72,4.62,4.62,0,0,1-.63-2.37,4.71,4.71,0,0,1,2.36-4.1,4.62,4.62,0,0,1,2.37-.63A4.67,4.67,0,0,1,149.84,158.38Zm-1.15,6.21a2.5,2.5,0,0,0,.88-.89,2.35,2.35,0,0,0,.33-1.22,2.38,2.38,0,0,0-.33-1.22,2.5,2.5,0,0,0-.88-.89,2.42,2.42,0,0,0-2.44,0,2.48,2.48,0,0,0-.9.89,2.38,2.38,0,0,0-.33,1.22,2.35,2.35,0,0,0,.33,1.22,2.48,2.48,0,0,0,.9.89,2.42,2.42,0,0,0,2.44,0Z"/><path class="cls-2" d="M160.61,167.1h-2.39l-1.48-3.53h-1.52v3.53H153v-9.35h4.46a2.84,2.84,0,0,1,1.45.39,2.89,2.89,0,0,1,1.07,1.07,2.82,2.82,0,0,1,.39,1.45,2.77,2.77,0,0,1-.36,1.39,3.15,3.15,0,0,1-1,1.06ZM158,160a.89.89,0,0,0-.62-.31h-2.2v2h2.2a.9.9,0,0,0,.62-.32,1,1,0,0,0,.25-.68A1,1,0,0,0,158,160Z"/><path class="cls-2" d="M168.45,157.75v2.38h-2.39v7h-2.39v-7h-2.4v-2.38h7.18Z"/><path class="cls-2" d="M180.39,157.75v2.38H178v7h-2.39v-7h-2.4v-2.38h7.18Z"/><path class="cls-2" d="M188.15,158.38a4.68,4.68,0,0,1,1.72,1.73,4.58,4.58,0,0,1,.64,2.37,4.53,4.53,0,0,1-.64,2.37,4.72,4.72,0,0,1-6.46,1.72,4.73,4.73,0,0,1-1.72-1.72,4.53,4.53,0,0,1-.64-2.37,4.58,4.58,0,0,1,.64-2.37,4.76,4.76,0,0,1,1.72-1.73,4.68,4.68,0,0,1,2.38-.63A4.61,4.61,0,0,1,188.15,158.38ZM187,164.59a2.53,2.53,0,0,0,.89-.89,2.35,2.35,0,0,0,.33-1.22,2.38,2.38,0,0,0-.33-1.22,2.53,2.53,0,0,0-.89-.89,2.32,2.32,0,0,0-1.21-.33,2.41,2.41,0,0,0-1.23.33,2.53,2.53,0,0,0-.89.89,2.38,2.38,0,0,0-.33,1.22,2.35,2.35,0,0,0,.33,1.22,2.53,2.53,0,0,0,.89.89,2.41,2.41,0,0,0,1.23.33A2.32,2.32,0,0,0,187,164.59Z"/><path class="cls-2" d="M202.31,157.75v2.38h-2.39v7h-2.39v-7h-2.4v-2.38h7.18Z"/><path class="cls-2" d="M208.29,157.75h2.38v9.35h-2.38v-3.49h-2.67v3.49h-2.38v-9.35h2.38v3.48h2.67Z"/><path class="cls-2" d="M218.09,165.08v2h-6.36v-9.35H218v2h-3.85v1.64h3.24v2h-3.24v1.64Z"/><path class="cls-2" d="M228.51,164.7a2.64,2.64,0,0,0,.79-.52l1.61,1.61a4.62,4.62,0,0,1-1.52,1,4.69,4.69,0,0,1-4.19-.27,4.73,4.73,0,0,1-1.72-1.72,4.61,4.61,0,0,1-.63-2.36,4.68,4.68,0,0,1,.63-2.38,4.81,4.81,0,0,1,1.72-1.72,4.72,4.72,0,0,1,5.71.75l-1.61,1.62a2.67,2.67,0,0,0-.79-.53,2.54,2.54,0,0,0-.94-.19,2.35,2.35,0,0,0-1.22.33,2.5,2.5,0,0,0-.88.89,2.42,2.42,0,0,0-.34,1.23,2.33,2.33,0,0,0,.34,1.21,2.5,2.5,0,0,0,.88.89,2.42,2.42,0,0,0,2.16.14Z"/><path class="cls-2" d="M239.31,157.76v5.78a3.68,3.68,0,0,1-1.85,3.19,3.5,3.5,0,0,1-1.85.5h-.21a3.56,3.56,0,0,1-1.86-.5,3.66,3.66,0,0,1-1.34-1.34,3.58,3.58,0,0,1-.49-1.85v-5.78h2.2V163a2.31,2.31,0,0,0,.4,1.37,1.29,1.29,0,0,0,1.09.54h.21a1.29,1.29,0,0,0,1.07-.55,2.18,2.18,0,0,0,.42-1.36v-5.25Z"/><path class="cls-2" d="M244.64,160.71v-.17a.82.82,0,0,0-.33-.65,1.16,1.16,0,0,0-.78-.27,1.28,1.28,0,0,0-.82.27.82.82,0,0,0-.33.65.6.6,0,0,0,.34.57,2.94,2.94,0,0,0,.9.37l.2,0,.24,0a4.64,4.64,0,0,1,1.89.78l.12.11a2.77,2.77,0,0,1,.62.91,2.54,2.54,0,0,1,.23,1.06,2.62,2.62,0,0,1-.25,1.13,2.79,2.79,0,0,1-.75,1,3.8,3.8,0,0,1-1.11.63,4,4,0,0,1-1.3.22,4,4,0,0,1-1.29-.22,3.75,3.75,0,0,1-1.1-.63,2.79,2.79,0,0,1-.75-1,2.51,2.51,0,0,1-.27-1.13v-.17h2.32v.17a.81.81,0,0,0,.32.65,1.17,1.17,0,0,0,.77.27,1.28,1.28,0,0,0,.82-.27.82.82,0,0,0,.33-.65.75.75,0,0,0-.35-.58,1.46,1.46,0,0,0-.37-.2,3.61,3.61,0,0,0-.52-.16l-.43-.11a11,11,0,0,1-1.14-.33,2,2,0,0,1-.76-.45l-.05,0a2.89,2.89,0,0,1-.69-.92,2.45,2.45,0,0,1-.25-1.09,2.52,2.52,0,0,1,.27-1.14,2.85,2.85,0,0,1,.75-1,3.84,3.84,0,0,1,3.69-.63,3.8,3.8,0,0,1,1.11.63,2.85,2.85,0,0,1,.75,1,2.63,2.63,0,0,1,.25,1.14v.17Z"/><path class="cls-2" d="M254.77,157.75v2.38h-2.4v7H250v-7h-2.39v-2.38h7.18Z"/><path class="cls-2" d="M262.53,158.38a4.83,4.83,0,0,1,1.72,1.73,4.67,4.67,0,0,1,.63,2.37,4.62,4.62,0,0,1-.63,2.37,4.81,4.81,0,0,1-1.72,1.72,4.71,4.71,0,0,1-4.74,0,4.76,4.76,0,0,1-1.73-1.72,4.62,4.62,0,0,1-.63-2.37,4.67,4.67,0,0,1,.63-2.37,4.78,4.78,0,0,1,1.73-1.73,4.77,4.77,0,0,1,4.74,0Zm-1.15,6.21a2.5,2.5,0,0,0,.88-.89,2.35,2.35,0,0,0,.33-1.22,2.38,2.38,0,0,0-.33-1.22,2.5,2.5,0,0,0-.88-.89,2.42,2.42,0,0,0-2.44,0,2.56,2.56,0,0,0-.9.89,2.48,2.48,0,0,0-.33,1.22,2.45,2.45,0,0,0,.33,1.22,2.56,2.56,0,0,0,.9.89,2.42,2.42,0,0,0,2.44,0Z"/><path class="cls-2" d="M272.88,157.75h2.38v9.35h-2.38v-5.28l-1.16,2.12-.06.1h-2.38l-.06-.1-.16-.31-1-1.81v5.28h-2.4v-9.35h2.4l2.4,4Z"/><path class="cls-2" d="M282.68,165.08v2h-6.36v-9.35h6.24v2h-3.85v1.64H282v2h-3.24v1.64Z"/><path class="cls-2" d="M291.36,167.1H289l-1.48-3.53H286v3.53h-2.23v-9.35h4.45a2.88,2.88,0,0,1,1.46.39,2.94,2.94,0,0,1,1.06,1.07,2.82,2.82,0,0,1,.39,1.45,2.77,2.77,0,0,1-.36,1.39,3.15,3.15,0,0,1-1,1.06ZM288.73,160a.87.87,0,0,0-.62-.31h-2.19v2h2.19a.88.88,0,0,0,.62-.32,1,1,0,0,0,.25-.68A1,1,0,0,0,288.73,160Z"/><path class="cls-2" d="M292.25,166.71a1.26,1.26,0,0,1-.36-.91,1.15,1.15,0,0,1,.37-.86,1.26,1.26,0,0,1,2.12.9,1.26,1.26,0,0,1-1.26,1.26A1.14,1.14,0,0,1,292.25,166.71Z"/><path class="cls-2" d="M38.72,340.94v2H32.36v-9.34H38.6v2H34.75v1.64H38v2H34.75v1.64Z"/><path class="cls-2" d="M48,343H45.23l-1.48-2.43L42.28,343H39.51l2.86-4.71-2.8-4.63h2.76L43.75,336l1.41-2.34h2.78l-2.81,4.63Z"/><path class="cls-2" d="M53.65,333.71,56.7,343H54.4l-.61-1.89H50.9L50.3,343H48l3.07-9.25Zm-2.13,5.43h1.67l-.84-2.61Z"/><path class="cls-2" d="M64.17,333.62h2.38V343H64.17v-5.27L63,339.8l0,.11H60.58l-.07-.11-.16-.3-1-1.81V343H57v-9.34h2.39l2.41,4Z"/><path class="cls-2" d="M73.53,334a3,3,0,0,1,1.06,1.05,2.92,2.92,0,0,1-2.52,4.38H69.85V343H67.61v-9.34h4.46A2.85,2.85,0,0,1,73.53,334Zm-.91,1.84a.89.89,0,0,0-.63-.31h-2.2v2H72a.91.91,0,0,0,.63-.33,1,1,0,0,0,.25-.68A1,1,0,0,0,72.62,335.85Z"/><path class="cls-2" d="M78.15,340.72h3.68V343H75.77v-9.34h2.38Z"/><path class="cls-2" d="M89.11,340.94v2H82.75v-9.34H89v2H85.14v1.64h3.24v2H85.14v1.64Z"/><path class="cls-2" d="M94.44,336.58v-.17a.84.84,0,0,0-.32-.66,1.2,1.2,0,0,0-.79-.27,1.24,1.24,0,0,0-.81.27.81.81,0,0,0-.34.66.62.62,0,0,0,.34.57,2.94,2.94,0,0,0,.9.37l.21,0,.23.05a4.64,4.64,0,0,1,1.89.78l.12.1a3,3,0,0,1,.63.92,2.57,2.57,0,0,1,0,2.19,2.89,2.89,0,0,1-.75,1,3.56,3.56,0,0,1-1.11.63A4.07,4.07,0,0,1,92,343a3.8,3.8,0,0,1-1.11-.63,3,3,0,0,1-.75-1,2.52,2.52,0,0,1-.27-1.14v-.17h2.32v.17a.84.84,0,0,0,.32.66,1.19,1.19,0,0,0,.78.27,1.28,1.28,0,0,0,.81-.27.83.83,0,0,0,.34-.66.77.77,0,0,0-.36-.58,1.86,1.86,0,0,0-.37-.2,5,5,0,0,0-.52-.15l-.43-.11a11,11,0,0,1-1.14-.33,2.42,2.42,0,0,1-.75-.45l-.06-.05a3,3,0,0,1-.69-.93,2.5,2.5,0,0,1,0-2.22,3.13,3.13,0,0,1,.75-1,3.56,3.56,0,0,1,1.11-.62,3.89,3.89,0,0,1,2.58,0,3.35,3.35,0,0,1,1.11.62,3,3,0,0,1,.75,1,2.64,2.64,0,0,1,.26,1.14v.17Z"/><path class="cls-2" d="M106.88,340.57a2.55,2.55,0,0,0,.79-.53l1.62,1.62a4.69,4.69,0,0,1-3.35,1.38,4.7,4.7,0,0,1-4.08-2.35,4.53,4.53,0,0,1-.64-2.37,4.74,4.74,0,0,1,2.36-4.09,4.69,4.69,0,0,1,4.19-.27,4.73,4.73,0,0,1,1.52,1l-1.62,1.61a2.52,2.52,0,0,0-.79-.52,2.4,2.4,0,0,0-2.15.14,2.53,2.53,0,0,0-.89.89,2.38,2.38,0,0,0-.33,1.22,2.33,2.33,0,0,0,.33,1.22,2.53,2.53,0,0,0,.89.89,2.32,2.32,0,0,0,1.21.33A2.5,2.5,0,0,0,106.88,340.57Z"/><path class="cls-2" d="M115,333.71l3,9.25h-2.3l-.61-1.89H112.2l-.6,1.89h-2.31l3.07-9.25Zm-2.13,5.43h1.66l-.83-2.61Z"/><path class="cls-2" d="M123.41,333.62h2.38V343h-2.38l-2.75-5v5h-2.39v-9.34h2.39l2.75,5Z"/><path class="cls-2" d="M137.86,339a2.65,2.65,0,0,1,.3,1.25,2.66,2.66,0,0,1-1.32,2.32,2.67,2.67,0,0,1-1.36.37h-4.67V333.6h4.25a2.64,2.64,0,0,1,1.36.37,2.9,2.9,0,0,1,1,1,2.67,2.67,0,0,1,.35,1.33,2.54,2.54,0,0,1-.19,1,2.57,2.57,0,0,1-.51.82A2.63,2.63,0,0,1,137.86,339Zm-2.47-3.21a.91.91,0,0,0-.68-.29H133v2h1.72a1.42,1.42,0,0,0,.32-.05,1,1,0,0,0,.24-.13,1,1,0,0,0,.3-.36,1,1,0,0,0,.11-.46A.94.94,0,0,0,135.39,335.81Zm.4,4.93a.9.9,0,0,0,.27-.7.92.92,0,0,0-.22-.62.9.9,0,0,0-.57-.34c-.05,0-.68,0-1.88,0H133v2h2.12A1,1,0,0,0,135.79,340.74Z"/><path class="cls-2" d="M145.32,340.94v2H139v-9.34h6.24v2h-3.85v1.64h3.24v2h-3.24v1.64Z"/><path class="cls-2" d="M156.49,333.59h2.59L156,343h-2.91l-3-9.37h2.62l1.89,5.85Z"/><path class="cls-2" d="M162.25,333.62V343h-2.37v-9.34Z"/><path class="cls-2" d="M169.67,340.94v2h-6.36v-9.34h6.24v2h-3.84v1.64H169v2h-3.24v1.64Z"/><path class="cls-2" d="M178.25,333.62h2.07V343h-2.38l-2.41-4-2.42,4h-2.38v-9.34h2.38v5.27l1.16-2.11.07-.11h2.38l.05.11,1.17,2.11v-5.27Z"/><path class="cls-2" d="M187.73,340.94v2h-6.36v-9.34h6.24v2h-3.84v1.64H187v2h-3.24v1.64Z"/><path class="cls-2" d="M192.89,333.58a5.91,5.91,0,0,1,1.41.34,4.23,4.23,0,0,1,1.29.81,4.68,4.68,0,0,1,1.14,1.6,4.84,4.84,0,0,1,.4,1.93,4.58,4.58,0,0,1-.51,2.15,4.23,4.23,0,0,1-1.45,1.66,5.09,5.09,0,0,1-1.9.74,13.82,13.82,0,0,1-2.36.18h-1.09l-1,0v-9.45h2.39C191.84,333.51,192.41,333.54,192.89,333.58Zm2,4.68a2.42,2.42,0,0,0-.32-1.2,2.48,2.48,0,0,0-.86-.9,2.34,2.34,0,0,0-1.2-.36h-1.3v4.88a10.94,10.94,0,0,0,1.64-.11,2.82,2.82,0,0,0,1.23-.53,2.07,2.07,0,0,0,.74-1.23A2.24,2.24,0,0,0,194.86,338.26Z"/><path class="cls-2" d="M208.94,339a2.66,2.66,0,0,1,.31,1.25,2.61,2.61,0,0,1-.36,1.34,2.69,2.69,0,0,1-2.33,1.35h-4.67V333.6h4.25a2.64,2.64,0,0,1,1.36.37,2.81,2.81,0,0,1,1,1,2.67,2.67,0,0,1,.35,1.33,2.54,2.54,0,0,1-.19,1,2.57,2.57,0,0,1-.51.82A2.63,2.63,0,0,1,208.94,339Zm-2.47-3.21a.91.91,0,0,0-.68-.29h-1.71v2h1.71a1.42,1.42,0,0,0,.32-.05,1,1,0,0,0,.24-.13,1,1,0,0,0,.3-.36,1,1,0,0,0,.11-.46A.94.94,0,0,0,206.47,335.81Zm.4,4.93a.9.9,0,0,0,.27-.7.92.92,0,0,0-.22-.62.9.9,0,0,0-.57-.34s-.68,0-1.88,0h-.39v2h2.11A.94.94,0,0,0,206.87,340.74Z"/><path class="cls-2" d="M215,333.62h2.38l-2.75,5.54V343h-2.38v-3.8l-2.75-5.54h2.38l1.56,3.18Z"/><path class="cls-2" d="M224.26,340.72h3.68V343h-6.06v-9.34h2.38Z"/><path class="cls-2" d="M231.25,333.62V343h-2.38v-9.34Z"/><path class="cls-2" d="M237.45,333.62h2.38V343h-2.38l-2.75-5v5h-2.4v-9.34h2.4l2.75,5Z"/><path class="cls-2" d="M245.42,338.25l2.79,4.71h-2.64l-2.31-3.76V343h-2.38v-9.34h2.38v3.65l2.31-3.65h2.64Z"/><path class="cls-2" d="M253.54,336.58v-.17a.82.82,0,0,0-.33-.66,1.16,1.16,0,0,0-.78-.27,1.24,1.24,0,0,0-.81.27.81.81,0,0,0-.34.66.62.62,0,0,0,.34.57,2.94,2.94,0,0,0,.9.37l.21,0,.23.05a4.64,4.64,0,0,1,1.89.78l.12.1a2.82,2.82,0,0,1,.62.92,2.51,2.51,0,0,1,.24,1.05,2.64,2.64,0,0,1-.26,1.14,2.89,2.89,0,0,1-.75,1,3.56,3.56,0,0,1-1.11.63,4,4,0,0,1-1.29.21,3.92,3.92,0,0,1-1.29-.21,3.8,3.8,0,0,1-1.11-.63,3,3,0,0,1-.75-1,2.52,2.52,0,0,1-.27-1.14v-.17h2.32v.17a.81.81,0,0,0,.32.66,1.19,1.19,0,0,0,.78.27,1.28,1.28,0,0,0,.81-.27.83.83,0,0,0,.34-.66.77.77,0,0,0-.36-.58,1.86,1.86,0,0,0-.37-.2,5,5,0,0,0-.52-.15l-.43-.11a11,11,0,0,1-1.14-.33,2.31,2.31,0,0,1-.75-.45l-.06-.05a3,3,0,0,1-.69-.93,2.38,2.38,0,0,1-.25-1.08,2.52,2.52,0,0,1,.27-1.14,3.13,3.13,0,0,1,.75-1,3.56,3.56,0,0,1,1.11-.62,3.68,3.68,0,0,1,1.29-.22,3.76,3.76,0,0,1,1.29.22,3.35,3.35,0,0,1,1.11.62,3,3,0,0,1,.75,1,2.64,2.64,0,0,1,.26,1.14v.17Z"/><path class="cls-2" d="M257,338.54a1.13,1.13,0,0,1-.33-.77,1,1,0,0,1,.3-.77,1,1,0,0,1,.77-.33,1.08,1.08,0,0,1,1.09,1.1,1,1,0,0,1-.32.77,1.06,1.06,0,0,1-.77.31A1,1,0,0,1,257,338.54Zm0,4.11a1.11,1.11,0,0,1-.33-.77,1,1,0,0,1,.3-.77,1,1,0,0,1,.77-.33,1.08,1.08,0,0,1,1.09,1.1,1,1,0,0,1-.32.77,1.06,1.06,0,0,1-.77.31A1,1,0,0,1,257,342.65Z"/></svg>