<svg id="Слой_1" data-name="Слой 1" xmlns="http://www.w3.org/2000/svg" xmlns:xlink="http://www.w3.org/1999/xlink" viewBox="0 0 405 405"><defs><style>.cls-1{fill:none;}.cls-2{fill:#fed841;}.cls-3{fill:#e7335d;}.cls-4{fill:#010101;}.cls-5{fill:#fff;}.cls-6{fill:#6f6f6e;}.cls-7{clip-path:url(#clip-path);}</style><clipPath id="clip-path"><rect class="cls-1" x="105.74" y="101.52" width="197.82" height="105.79" transform="translate(409.31 308.84) rotate(180)"/></clipPath></defs><rect class="cls-2" width="405" height="405"/><path class="cls-3" d="M34.78,284.64h3.67v2.24H32.4v-9.34h2.38Z"/><path class="cls-3" d="M45.74,284.86v2H39.38v-9.34h6.24v2H41.77v1.64H45v2H41.77v1.64Z"/><path class="cls-3" d="M51.66,277.63l3.05,9.25h-2.3l-.6-1.89h-2.9l-.6,1.89H46l3.07-9.25Zm-2.13,5.43H51.2l-.84-2.62Z"/><path class="cls-3" d="M59.08,277.5a5.57,5.57,0,0,1,1.41.34,4.23,4.23,0,0,1,1.29.81,4.68,4.68,0,0,1,1.14,1.6,4.8,4.8,0,0,1,.4,1.93,4.58,4.58,0,0,1-.51,2.15A4.28,4.28,0,0,1,61.36,286a5.09,5.09,0,0,1-1.91.75,13.74,13.74,0,0,1-2.36.18H56l-1,0v-9.45h2.39A16.94,16.94,0,0,1,59.08,277.5Zm2,4.68a2.4,2.4,0,0,0-.32-1.2,2.53,2.53,0,0,0-.87-.91,2.36,2.36,0,0,0-1.19-.35h-1.3v4.88a9.45,9.45,0,0,0,1.63-.12,2.71,2.71,0,0,0,1.23-.52,2,2,0,0,0,.75-1.23A2.3,2.3,0,0,0,61.05,282.18Z"/><path class="cls-3" d="M70.47,284.86v2H64.12v-9.34h6.24v2H66.51v1.64h3.24v2H66.51v1.64Z"/><path class="cls-3" d="M79.16,286.88H76.77l-1.48-3.53H73.77v3.53H71.53v-9.34H76a2.9,2.9,0,0,1,2.91,2.9,2.81,2.81,0,0,1-.36,1.4,3,3,0,0,1-1,1.05Zm-2.63-7.12a.89.89,0,0,0-.62-.31h-2.2v2h2.2a1,1,0,0,0,.62-.33,1,1,0,0,0,.25-.68A1,1,0,0,0,76.53,279.76Z"/><path class="cls-3" d="M84.23,280.5v-.17a.82.82,0,0,0-.33-.66,1.17,1.17,0,0,0-.78-.27,1.28,1.28,0,0,0-.82.27.83.83,0,0,0-.34.66.6.6,0,0,0,.35.56,2.71,2.71,0,0,0,.9.37l.2,0,.23.06a4.63,4.63,0,0,1,1.9.78l.11.1a2.69,2.69,0,0,1,.63.92,2.57,2.57,0,0,1,0,2.19,3.1,3.1,0,0,1-.74,1,3.56,3.56,0,0,1-1.11.62,3.82,3.82,0,0,1-1.3.22,3.72,3.72,0,0,1-1.29-.22,3.4,3.4,0,0,1-1.1-.62,3,3,0,0,1-.75-1,2.52,2.52,0,0,1-.27-1.14V284H82v.17a.82.82,0,0,0,.33.66,1.15,1.15,0,0,0,.77.27,1.28,1.28,0,0,0,.82-.27.82.82,0,0,0,.33-.66.78.78,0,0,0-.35-.58,1.86,1.86,0,0,0-.37-.2l-.52-.16-.44-.1c-.48-.13-.86-.23-1.13-.33a2.35,2.35,0,0,1-.76-.45l-.05-.05a3,3,0,0,1-.69-.93,2.41,2.41,0,0,1-.25-1.08,2.52,2.52,0,0,1,.27-1.14,3,3,0,0,1,.75-1,3.4,3.4,0,0,1,1.1-.62,3.72,3.72,0,0,1,1.29-.22,3.82,3.82,0,0,1,1.3.22,3.56,3.56,0,0,1,1.11.62,3.1,3.1,0,0,1,.74,1,2.51,2.51,0,0,1,.26,1.14v.17Z"/><path class="cls-3" d="M98.32,277.54v2.38H95.93v7h-2.4v-7H91.14v-2.38h7.18Z"/><path class="cls-3" d="M106.88,286.88h-2.4L103,283.35h-1.52v3.53H99.25v-9.34h4.45a2.88,2.88,0,0,1,1.46.39,2.9,2.9,0,0,1,1.45,2.51,2.81,2.81,0,0,1-.36,1.4,2.93,2.93,0,0,1-1,1.05Zm-2.64-7.12a.87.87,0,0,0-.62-.31h-2.19v2h2.19a.93.93,0,0,0,.62-.33,1,1,0,0,0,.26-.68A1,1,0,0,0,104.24,279.76Z"/><path class="cls-3" d="M112.53,277.63l3.06,9.25h-2.3l-.61-1.89h-2.9l-.59,1.89h-2.31l3.06-9.25Zm-2.12,5.43h1.66l-.83-2.62Z"/><path class="cls-3" d="M120,277.5a5.37,5.37,0,0,1,1.41.34,4.23,4.23,0,0,1,1.29.81,4.68,4.68,0,0,1,1.14,1.6,4.81,4.81,0,0,1,.41,1.93,4.58,4.58,0,0,1-.52,2.15,4.2,4.2,0,0,1-1.45,1.65,5,5,0,0,1-1.9.75,13.74,13.74,0,0,1-2.36.18h-1.09l-1,0v-9.45h2.4A16.6,16.6,0,0,1,120,277.5Zm2,4.68a2.3,2.3,0,0,0-.32-1.2,2.59,2.59,0,0,0-.86-.91,2.43,2.43,0,0,0-1.2-.35h-1.29v4.88a9.61,9.61,0,0,0,1.63-.12,2.8,2.8,0,0,0,1.23-.52,2.13,2.13,0,0,0,.75-1.23A2.88,2.88,0,0,0,121.92,282.18Z"/><path class="cls-3" d="M127.37,277.54v9.34H125v-9.34Z"/><path class="cls-3" d="M135.47,277.54v2.38h-2.39v7h-2.39v-7h-2.4v-2.38h7.18Z"/><path class="cls-3" d="M138.78,277.54v9.34H136.4v-9.34Z"/><path class="cls-3" d="M146.67,278.17a4.61,4.61,0,0,1,1.72,1.73,4.53,4.53,0,0,1,.64,2.37,4.71,4.71,0,0,1-2.36,4.08,4.52,4.52,0,0,1-2.36.64,4.59,4.59,0,0,1-2.38-.64,4.7,4.7,0,0,1-1.72-1.71,4.58,4.58,0,0,1-.64-2.37,4.53,4.53,0,0,1,.64-2.37,4.68,4.68,0,0,1,4.1-2.36A4.61,4.61,0,0,1,146.67,278.17Zm-1.15,6.2a2.5,2.5,0,0,0,.89-.88,2.42,2.42,0,0,0,0-2.44,2.48,2.48,0,0,0-.89-.9,2.32,2.32,0,0,0-1.21-.33,2.41,2.41,0,0,0-1.23.33,2.48,2.48,0,0,0-.89.9,2.42,2.42,0,0,0,0,2.44,2.5,2.5,0,0,0,.89.88,2.41,2.41,0,0,0,1.23.33A2.32,2.32,0,0,0,145.52,284.37Z"/><path class="cls-3" d="M155,277.54h2.38v9.34H155l-2.75-5v5h-2.39v-9.34h2.39l2.75,5Z"/><path class="cls-3" d="M163.27,277.63l3,9.25H164l-.61-1.89h-2.89l-.6,1.89h-2.31l3.06-9.25Zm-2.13,5.43h1.66l-.83-2.62Z"/><path class="cls-3" d="M169,284.64h3.68v2.24h-6.06v-9.34H169Z"/><path class="cls-3" d="M176,284.64h3.67v2.24h-6.05v-9.34H176Z"/><path class="cls-3" d="M185.52,277.54h2.38l-2.75,5.54v3.8h-2.38v-3.8L180,277.54h2.38l1.56,3.18Z"/><path class="cls-3" d="M196.49,277.5a5.37,5.37,0,0,1,1.41.34,4.23,4.23,0,0,1,1.29.81,4.55,4.55,0,0,1,1.14,1.6,4.81,4.81,0,0,1,.41,1.93,4.47,4.47,0,0,1-.52,2.15,4.2,4.2,0,0,1-1.45,1.65,5,5,0,0,1-1.9.75,13.74,13.74,0,0,1-2.36.18h-1.08l-1,0v-9.45h2.4A16.6,16.6,0,0,1,196.49,277.5Zm2,4.68a2.39,2.39,0,0,0-.31-1.2,2.61,2.61,0,0,0-.87-.91,2.37,2.37,0,0,0-1.2-.35h-1.29v4.88a9.53,9.53,0,0,0,1.63-.12,2.71,2.71,0,0,0,1.23-.52,2,2,0,0,0,.75-1.23A2.88,2.88,0,0,0,198.46,282.18Z"/><path class="cls-3" d="M208.37,278.17a4.76,4.76,0,0,1,1.72,1.73,4.62,4.62,0,0,1,.63,2.37,4.67,4.67,0,0,1-.63,2.37,4.78,4.78,0,0,1-1.72,1.71,4.71,4.71,0,0,1-4.74,0,4.73,4.73,0,0,1,4.74-8.18Zm-1.15,6.2a2.47,2.47,0,0,0,.88-.88,2.42,2.42,0,0,0,0-2.44,2.45,2.45,0,0,0-.88-.9,2.42,2.42,0,0,0-2.44,0,2.43,2.43,0,0,0-.9.9,2.42,2.42,0,0,0,0,2.44,2.45,2.45,0,0,0,.9.88,2.42,2.42,0,0,0,2.44,0Z"/><path class="cls-3" d="M218.72,277.54h2.38v9.34h-2.38v-5.27l-1.16,2.11-.06.11h-2.38l-.06-.11-.16-.3-1-1.81v5.27h-2.4v-9.34h2.4l2.4,4Z"/><path class="cls-3" d="M224.54,277.54v9.34h-2.38v-9.34Z"/><path class="cls-3" d="M230.74,277.54h2.38v9.34h-2.38l-2.75-5v5h-2.4v-9.34H228l2.75,5Z"/><path class="cls-3" d="M239,277.63l3.06,9.25h-2.31l-.6-1.89h-2.9l-.59,1.89h-2.32l3.07-9.25Zm-2.13,5.43h1.67l-.83-2.62Z"/><path class="cls-3" d="M249.41,277.54v2.38H247v7h-2.39v-7h-2.39v-2.38h7.18Z"/><path class="cls-3" d="M256.69,284.86v2h-6.36v-9.34h6.24v2h-3.84v1.64H256v2h-3.24v1.64Z"/><path class="cls-3" d="M267.11,284.48a2.51,2.51,0,0,0,.8-.52l1.61,1.61a4.6,4.6,0,0,1-1.52,1,4.7,4.7,0,0,1-1.83.36,4.7,4.7,0,0,1-4.08-2.35,4.53,4.53,0,0,1-.64-2.37,4.58,4.58,0,0,1,.64-2.37,4.68,4.68,0,0,1,1.72-1.73,4.61,4.61,0,0,1,2.36-.63,4.7,4.7,0,0,1,1.83.36,4.92,4.92,0,0,1,1.52,1l-1.61,1.61a2.69,2.69,0,0,0-.8-.52,2.4,2.4,0,0,0-2.15.14,2.53,2.53,0,0,0-.89.89,2.42,2.42,0,0,0,0,2.44,2.53,2.53,0,0,0,.89.89,2.35,2.35,0,0,0,2.15.13Z"/><path class="cls-3" d="M276.67,284.86v2h-6.36v-9.34h6.24v2H272.7v1.64h3.24v2H272.7v1.64Z"/><path class="cls-3" d="M285.36,286.88H283l-1.48-3.53H280v3.53h-2.23v-9.34h4.45a2.9,2.9,0,0,1,2.91,2.9,2.91,2.91,0,0,1-.35,1.4,3,3,0,0,1-1,1.05Zm-2.63-7.12a.91.91,0,0,0-.62-.31h-2.2v2h2.2a1,1,0,0,0,.62-.33,1,1,0,0,0,.25-.68A1,1,0,0,0,282.73,279.76Z"/><path class="cls-3" d="M293.2,277.54v2.38h-2.39v7h-2.4v-7H286v-2.38h7.18Z"/><path class="cls-3" d="M299,277.63l3.05,9.25h-2.3l-.6-1.89h-2.9l-.6,1.89h-2.31l3.07-9.25Zm-2.13,5.43h1.67l-.84-2.62Z"/><path class="cls-3" d="M304.69,277.54v9.34h-2.38v-9.34Z"/><path class="cls-3" d="M310.89,277.54h2.38v9.34h-2.38l-2.75-5v5h-2.39v-9.34h2.39l2.75,5Z"/><path class="cls-3" d="M322.56,280.5v-.17a.81.81,0,0,0-.32-.66,1.2,1.2,0,0,0-.79-.27,1.28,1.28,0,0,0-.81.27.83.83,0,0,0-.34.66.6.6,0,0,0,.35.56,2.71,2.71,0,0,0,.9.37l.2,0,.23.06a4.51,4.51,0,0,1,1.89.78l.12.1a2.69,2.69,0,0,1,.63.92,2.65,2.65,0,0,1,.23,1,2.51,2.51,0,0,1-.26,1.14,3.1,3.1,0,0,1-.74,1,3.56,3.56,0,0,1-1.11.62,3.82,3.82,0,0,1-1.3.22,3.72,3.72,0,0,1-1.29-.22,3.4,3.4,0,0,1-1.1-.62,3.17,3.17,0,0,1-.76-1,2.64,2.64,0,0,1-.26-1.14V284h2.31v.17a.82.82,0,0,0,.33.66,1.15,1.15,0,0,0,.77.27,1.24,1.24,0,0,0,.81-.27.81.81,0,0,0,.34-.66.77.77,0,0,0-.36-.58,1.61,1.61,0,0,0-.37-.2l-.51-.16-.44-.1c-.48-.13-.86-.23-1.14-.33a2.42,2.42,0,0,1-.75-.45l0-.05a3.25,3.25,0,0,1-.7-.93,2.54,2.54,0,0,1-.24-1.08,2.64,2.64,0,0,1,.26-1.14,3.17,3.17,0,0,1,.76-1,3.4,3.4,0,0,1,1.1-.62,3.72,3.72,0,0,1,1.29-.22,3.82,3.82,0,0,1,1.3.22,3.56,3.56,0,0,1,1.11.62,3.1,3.1,0,0,1,.74,1,2.51,2.51,0,0,1,.26,1.14v.17Z"/><path class="cls-3" d="M332.48,278.17a4.68,4.68,0,0,1,1.72,1.73,4.62,4.62,0,0,1,.63,2.37,4.67,4.67,0,0,1-2.35,4.08,4.53,4.53,0,0,1-2.37.64,4.72,4.72,0,0,1-4.73-4.72,4.53,4.53,0,0,1,.64-2.37,4.61,4.61,0,0,1,1.72-1.73,4.67,4.67,0,0,1,2.37-.63A4.62,4.62,0,0,1,332.48,278.17Zm-1.15,6.2a2.5,2.5,0,0,0,.89-.88,2.42,2.42,0,0,0,0-2.44,2.48,2.48,0,0,0-.89-.9,2.35,2.35,0,0,0-1.22-.33,2.38,2.38,0,0,0-1.22.33,2.48,2.48,0,0,0-.89.9,2.42,2.42,0,0,0,0,2.44,2.5,2.5,0,0,0,.89.88,2.38,2.38,0,0,0,1.22.33A2.35,2.35,0,0,0,331.33,284.37Z"/><path class="cls-3" d="M341,284.48a2.51,2.51,0,0,0,.8-.52l1.61,1.61a4.6,4.6,0,0,1-1.52,1,4.7,4.7,0,0,1-1.83.36,4.72,4.72,0,0,1-4.72-4.72,4.77,4.77,0,0,1,2.36-4.1,4.61,4.61,0,0,1,2.36-.63,4.7,4.7,0,0,1,1.83.36,4.92,4.92,0,0,1,1.52,1l-1.61,1.61a2.69,2.69,0,0,0-.8-.52,2.4,2.4,0,0,0-2.15.14,2.53,2.53,0,0,0-.89.89,2.42,2.42,0,0,0,0,2.44,2.53,2.53,0,0,0,.89.89,2.35,2.35,0,0,0,2.15.13Z"/><path class="cls-3" d="M346.6,277.54v9.34h-2.38v-9.34Z"/><path class="cls-3" d="M352.53,277.63l3.05,9.25h-2.3l-.61-1.89h-2.89l-.6,1.89h-2.31l3.06-9.25Zm-2.13,5.43h1.66l-.83-2.62Z"/><path class="cls-3" d="M358.22,284.64h3.68v2.24h-6.06v-9.34h2.38Z"/><path class="cls-3" d="M37.54,293.4h2.38v9.35H37.54l-2.75-5v5H32.4V293.4h2.39l2.75,5Z"/><path class="cls-3" d="M47.34,300.73v2H41V293.4h6.24v2H43.37v1.63h3.24v2H43.37v1.64Z"/><path class="cls-3" d="M55.44,293.4v2.38H53.05v7H50.66v-7h-2.4V293.4h7.18Z"/><path class="cls-3" d="M63.89,293.4H66v9.35H63.57l-2.4-4-2.42,4H56.37V293.4h2.38v5.28l1.16-2.12.07-.1h2.38l0,.1,1.16,2.12V293.4Z"/><path class="cls-3" d="M73.85,294a4.81,4.81,0,0,1,1.72,1.72,4.68,4.68,0,0,1,.63,2.38,4.61,4.61,0,0,1-.63,2.36,4.74,4.74,0,0,1-4.09,2.36,4.65,4.65,0,0,1-2.37-.64,4.68,4.68,0,0,1-2.36-4.08,4.68,4.68,0,0,1,2.36-4.1,4.71,4.71,0,0,1,4.74,0Zm-1.15,6.2a2.5,2.5,0,0,0,.88-.89,2.32,2.32,0,0,0,.33-1.21,2.41,2.41,0,0,0-.33-1.23,2.5,2.5,0,0,0-.88-.89,2.42,2.42,0,0,0-2.44,0,2.48,2.48,0,0,0-.9.89,2.41,2.41,0,0,0-.33,1.23,2.32,2.32,0,0,0,.33,1.21,2.48,2.48,0,0,0,.9.89,2.42,2.42,0,0,0,2.44,0Z"/><path class="cls-3" d="M84.62,302.75H82.23l-1.48-3.53H79.23v3.53H77V293.4h4.46a2.84,2.84,0,0,1,1.45.39A2.89,2.89,0,0,1,84,294.86a2.9,2.9,0,0,1,0,2.85,3.21,3.21,0,0,1-1,1.05ZM82,295.63a.89.89,0,0,0-.62-.31h-2.2v2h2.2A.9.9,0,0,0,82,297a1,1,0,0,0,.25-.68A1,1,0,0,0,82,295.63Z"/><path class="cls-3" d="M90,298l2.79,4.72H90.1L87.79,299v3.77H85.42V293.4h2.37v3.65l2.31-3.65h2.64Z"/><path class="cls-3" d="M98.07,296.36v-.17a.84.84,0,0,0-.32-.65,1.2,1.2,0,0,0-.79-.27,1.24,1.24,0,0,0-.81.27.8.8,0,0,0-.34.65.6.6,0,0,0,.34.57,2.94,2.94,0,0,0,.9.37l.21,0,.23.05a4.64,4.64,0,0,1,1.89.78l.12.11a3.08,3.08,0,0,1,.63.91,2.7,2.7,0,0,1,.23,1.06,2.64,2.64,0,0,1-.26,1.14,2.85,2.85,0,0,1-.75,1,3.37,3.37,0,0,1-1.11.63A3.76,3.76,0,0,1,97,303a3.72,3.72,0,0,1-1.29-.22,3.59,3.59,0,0,1-1.11-.63,3,3,0,0,1-.75-1,2.52,2.52,0,0,1-.27-1.14v-.17h2.32v.17a.82.82,0,0,0,.32.65A1.15,1.15,0,0,0,97,301a1.23,1.23,0,0,0,.81-.28.82.82,0,0,0,.34-.65.76.76,0,0,0-.36-.58,1.46,1.46,0,0,0-.37-.2,4.76,4.76,0,0,0-.52-.16l-.43-.1c-.49-.13-.87-.24-1.14-.34a2,2,0,0,1-.75-.45l-.06-.05a2.89,2.89,0,0,1-.69-.92,2.59,2.59,0,0,1-.25-1.09,2.51,2.51,0,0,1,.27-1.13,2.92,2.92,0,0,1,.75-1,3.8,3.8,0,0,1,1.11-.63,4,4,0,0,1,1.29-.22,4,4,0,0,1,1.29.22,3.56,3.56,0,0,1,1.11.63,2.79,2.79,0,0,1,.75,1,2.63,2.63,0,0,1,.26,1.13v.17Z"/><path class="cls-3" d="M101.6,301.12h2.23l-1,3h-2Z"/><path class="cls-3" d="M116.22,302.75h-2.39l-1.48-3.53h-1.52v3.53h-2.24V293.4h4.46a2.84,2.84,0,0,1,1.45.39,2.89,2.89,0,0,1,1.07,1.07,2.9,2.9,0,0,1,0,2.85,3.21,3.21,0,0,1-1,1.05Zm-2.63-7.12a.89.89,0,0,0-.62-.31h-2.2v2H113a.9.9,0,0,0,.62-.32,1,1,0,0,0,.25-.68A1,1,0,0,0,113.59,295.63Z"/><path class="cls-3" d="M123.38,300.73v2H117V293.4h6.24v2h-3.85v1.63h3.24v2h-3.24v1.64Z"/><path class="cls-3" d="M131.64,293.4H134v9.35h-2.38v-5.28l-1.16,2.12-.06.11H128l-.06-.11-.16-.3-1-1.82v5.28h-2.4V293.4h2.4l2.4,4Z"/><path class="cls-3" d="M139.94,293.5l3.06,9.25h-2.3l-.61-1.89h-2.9l-.59,1.89h-2.32l3.07-9.25Zm-2.13,5.43h1.67l-.83-2.62Z"/><path class="cls-3" d="M145.64,293.4v9.35h-2.38V293.4Z"/><path class="cls-3" d="M151.84,293.4h2.38v9.35h-2.38l-2.75-5v5H146.7V293.4h2.39l2.75,5Z"/><path class="cls-3" d="M161.63,293.4v9.35h-2.38V293.4Z"/><path class="cls-3" d="M167.83,293.4h2.38v9.35h-2.38l-2.75-5v5h-2.4V293.4h2.4l2.75,5Z"/><path class="cls-3" d="M179.5,296.36v-.17a.84.84,0,0,0-.32-.65,1.2,1.2,0,0,0-.79-.27,1.24,1.24,0,0,0-.81.27.8.8,0,0,0-.34.65.61.61,0,0,0,.34.57,2.94,2.94,0,0,0,.9.37l.21,0,.23.05a4.64,4.64,0,0,1,1.89.78l.12.11a3.08,3.08,0,0,1,.63.91,2.7,2.7,0,0,1,.23,1.06,2.64,2.64,0,0,1-.26,1.14,2.85,2.85,0,0,1-.75,1,3.37,3.37,0,0,1-1.11.63,3.89,3.89,0,0,1-2.58,0,3.59,3.59,0,0,1-1.11-.63,3.13,3.13,0,0,1-.75-1,2.51,2.51,0,0,1-.26-1.14v-.17h2.31v.17a.82.82,0,0,0,.32.65,1.15,1.15,0,0,0,.78.28,1.19,1.19,0,0,0,.81-.28.79.79,0,0,0,.34-.65.76.76,0,0,0-.36-.58,1.31,1.31,0,0,0-.37-.2,5.27,5.27,0,0,0-.51-.16l-.44-.1c-.49-.13-.87-.24-1.14-.34a2.09,2.09,0,0,1-.75-.45l-.05-.05a2.92,2.92,0,0,1-.7-.92,2.58,2.58,0,0,1-.24-1.09,2.49,2.49,0,0,1,.26-1.13,3.05,3.05,0,0,1,.75-1,3.8,3.8,0,0,1,1.11-.63,3.89,3.89,0,0,1,2.58,0,3.56,3.56,0,0,1,1.11.63,2.79,2.79,0,0,1,.75,1,2.63,2.63,0,0,1,.26,1.13v.17Z"/><path class="cls-3" d="M189.63,293.4v2.38h-2.39v7h-2.4v-7h-2.39V293.4h7.18Z"/><path class="cls-3" d="M195.42,293.5l3.06,9.25h-2.31l-.6-1.89h-2.9l-.59,1.89h-2.32l3.07-9.25Zm-2.13,5.43H195l-.83-2.62Z"/><path class="cls-3" d="M205.79,298.8a2.68,2.68,0,0,1,.3,1.25,2.62,2.62,0,0,1-.36,1.35,2.58,2.58,0,0,1-1,1,2.64,2.64,0,0,1-1.35.38h-4.67v-9.35H203a2.56,2.56,0,0,1,1.37.37,2.7,2.7,0,0,1,1,1,2.52,2.52,0,0,1,.36,1.32,2.7,2.7,0,0,1-.71,1.8A2.62,2.62,0,0,1,205.79,298.8Zm-2.47-3.21a.91.91,0,0,0-.68-.28h-1.72v2h1.72l.32-.05a.79.79,0,0,0,.24-.14.92.92,0,0,0,.3-.35,1,1,0,0,0,.11-.47A.94.94,0,0,0,203.32,295.59Zm.4,4.94a.91.91,0,0,0,.27-.7,1,1,0,0,0-.23-.63,1,1,0,0,0-.56-.34h-2.28v2H203A1,1,0,0,0,203.72,300.53Z"/><path class="cls-3" d="M209.26,300.5h3.68v2.25h-6.06V293.4h2.38Z"/><path class="cls-3" d="M220.23,300.73v2h-6.36V293.4h6.24v2h-3.85v1.63h3.24v2h-3.24v1.64Z"/><path class="cls-3" d="M231.17,293.79a3,3,0,0,1,1.05,1.06,2.86,2.86,0,0,1,0,2.92,2.89,2.89,0,0,1-1.05,1.06,2.85,2.85,0,0,1-1.46.39h-2.22v3.53h-2.24V293.4h4.46A2.85,2.85,0,0,1,231.17,293.79Zm-.92,1.84a.91.91,0,0,0-.62-.31h-2.2v2h2.2a.84.84,0,0,0,.62-.32,1,1,0,0,0,.26-.68A.93.93,0,0,0,230.25,295.63Z"/><path class="cls-3" d="M240.24,294a4.65,4.65,0,0,1,1.72,1.72,4.59,4.59,0,0,1,.64,2.38,4.52,4.52,0,0,1-.64,2.36,4.74,4.74,0,0,1-4.08,2.36,4.74,4.74,0,0,1-4.1-2.36,4.62,4.62,0,0,1-.64-2.36,4.74,4.74,0,0,1,2.36-4.1,4.59,4.59,0,0,1,2.38-.64A4.52,4.52,0,0,1,240.24,294Zm-1.15,6.2a2.53,2.53,0,0,0,.89-.89,2.32,2.32,0,0,0,.33-1.21,2.41,2.41,0,0,0-.33-1.23,2.53,2.53,0,0,0-.89-.89,2.32,2.32,0,0,0-1.21-.33,2.41,2.41,0,0,0-1.23.33,2.53,2.53,0,0,0-.89.89,2.41,2.41,0,0,0-.33,1.23,2.32,2.32,0,0,0,.33,1.21,2.53,2.53,0,0,0,.89.89,2.41,2.41,0,0,0,1.23.33A2.32,2.32,0,0,0,239.09,300.24Z"/><path class="cls-3" d="M247.66,296.36v-.17a.84.84,0,0,0-.32-.65,1.2,1.2,0,0,0-.79-.27,1.24,1.24,0,0,0-.81.27.8.8,0,0,0-.34.65.6.6,0,0,0,.34.57,2.94,2.94,0,0,0,.9.37l.21,0,.23.05A4.64,4.64,0,0,1,249,298l.12.11a3.08,3.08,0,0,1,.63.91,2.7,2.7,0,0,1,.23,1.06,2.64,2.64,0,0,1-.26,1.14,2.85,2.85,0,0,1-.75,1,3.37,3.37,0,0,1-1.11.63,3.89,3.89,0,0,1-2.58,0,3.59,3.59,0,0,1-1.11-.63,3.13,3.13,0,0,1-.75-1,2.51,2.51,0,0,1-.26-1.14v-.17h2.31v.17a.82.82,0,0,0,.32.65,1.15,1.15,0,0,0,.78.28,1.21,1.21,0,0,0,.81-.28.79.79,0,0,0,.34-.65.76.76,0,0,0-.36-.58,1.46,1.46,0,0,0-.37-.2,4.76,4.76,0,0,0-.52-.16L246,299c-.49-.13-.87-.24-1.14-.34a2.09,2.09,0,0,1-.75-.45l-.06-.05a2.89,2.89,0,0,1-.69-.92,2.58,2.58,0,0,1-.24-1.09,2.49,2.49,0,0,1,.26-1.13,3.05,3.05,0,0,1,.75-1,3.8,3.8,0,0,1,1.11-.63,3.89,3.89,0,0,1,2.58,0,3.56,3.56,0,0,1,1.11.63,2.79,2.79,0,0,1,.75,1,2.63,2.63,0,0,1,.26,1.13v.17Z"/><path class="cls-3" d="M253.12,293.4v9.35h-2.38V293.4Z"/><path class="cls-3" d="M261.23,293.4v2.38h-2.4v7h-2.39v-7h-2.39V293.4h7.18Z"/><path class="cls-3" d="M264.53,293.4v9.35h-2.38V293.4Z"/><path class="cls-3" d="M272.43,294a4.7,4.7,0,0,1,1.71,1.72,4.59,4.59,0,0,1,.64,2.38,4.52,4.52,0,0,1-.64,2.36,4.63,4.63,0,0,1-1.71,1.72,4.68,4.68,0,0,1-2.37.64,4.71,4.71,0,0,1-4.73-4.72,4.68,4.68,0,0,1,2.36-4.1,4.53,4.53,0,0,1,2.37-.64A4.58,4.58,0,0,1,272.43,294Zm-1.15,6.2a2.5,2.5,0,0,0,.88-.89,2.32,2.32,0,0,0,.33-1.21,2.41,2.41,0,0,0-.33-1.23,2.5,2.5,0,0,0-.88-.89,2.42,2.42,0,0,0-2.44,0,2.48,2.48,0,0,0-.9.89,2.41,2.41,0,0,0-.33,1.23,2.32,2.32,0,0,0,.33,1.21,2.48,2.48,0,0,0,.9.89,2.42,2.42,0,0,0,2.44,0Z"/><path class="cls-3" d="M280.72,293.4h2.38v9.35h-2.38l-2.75-5v5h-2.4V293.4H278l2.75,5Z"/><path class="cls-3" d="M288.42,296.36v-.17a.81.81,0,0,0-.32-.65,1.2,1.2,0,0,0-.79-.27,1.28,1.28,0,0,0-.81.27.83.83,0,0,0-.34.65.6.6,0,0,0,.35.57,2.94,2.94,0,0,0,.9.37l.2,0,.23.05a4.51,4.51,0,0,1,1.89.78l.12.11a2.75,2.75,0,0,1,.63.91,2.7,2.7,0,0,1,.23,1.06,2.51,2.51,0,0,1-.26,1.14,3,3,0,0,1-.74,1,3.59,3.59,0,0,1-1.11.63,3.82,3.82,0,0,1-1.3.22,3.72,3.72,0,0,1-1.29-.22,3.43,3.43,0,0,1-1.1-.63,3,3,0,0,1-.76-1,2.64,2.64,0,0,1-.26-1.14v-.17h2.31v.17a.81.81,0,0,0,.33.65,1.11,1.11,0,0,0,.77.28,1.19,1.19,0,0,0,.81-.28.79.79,0,0,0,.34-.65.76.76,0,0,0-.36-.58,1.31,1.31,0,0,0-.37-.2,5.27,5.27,0,0,0-.51-.16l-.44-.1c-.48-.13-.86-.24-1.14-.34a2.09,2.09,0,0,1-.75-.45l-.05-.05a3.08,3.08,0,0,1-.7-.92,2.58,2.58,0,0,1-.24-1.09,2.63,2.63,0,0,1,.26-1.13,3,3,0,0,1,.76-1,3.63,3.63,0,0,1,1.1-.63,4,4,0,0,1,1.29-.22,4.08,4.08,0,0,1,1.3.22,3.8,3.8,0,0,1,1.11.63,2.89,2.89,0,0,1,.74,1,2.49,2.49,0,0,1,.26,1.13v.17Z"/><path class="cls-3" d="M302.31,294a4.81,4.81,0,0,1,1.72,1.72,4.68,4.68,0,0,1,.63,2.38,4.61,4.61,0,0,1-.63,2.36,4.73,4.73,0,0,1-1.72,1.72,4.71,4.71,0,0,1-4.74,0,4.68,4.68,0,0,1-2.36-4.08,4.68,4.68,0,0,1,2.36-4.1,4.71,4.71,0,0,1,4.74,0Zm-1.15,6.2a2.5,2.5,0,0,0,.88-.89,2.32,2.32,0,0,0,.33-1.21,2.41,2.41,0,0,0-.33-1.23,2.5,2.5,0,0,0-.88-.89,2.42,2.42,0,0,0-2.44,0,2.38,2.38,0,0,0-.89.89,2.33,2.33,0,0,0-.34,1.23,2.24,2.24,0,0,0,.34,1.21,2.38,2.38,0,0,0,.89.89,2.42,2.42,0,0,0,2.44,0Z"/><path class="cls-3" d="M310.6,293.4H313v9.35H310.6l-2.75-5v5h-2.4V293.4h2.4l2.75,5Z"/><path class="cls-3" d="M325.05,293.4v2.38h-2.39v7h-2.4v-7h-2.39V293.4h7.18Z"/><path class="cls-3" d="M331,293.4h2.38v9.35H331v-3.49h-2.68v3.49H326V293.4h2.38v3.48H331Z"/><path class="cls-3" d="M340.82,300.73v2h-6.36V293.4h6.24v2h-3.84v1.63h3.24v2h-3.24v1.64Z"/><path class="cls-3" d="M37.26,309.36l3.06,9.26H38l-.6-1.89h-2.9l-.59,1.89H31.6l3.07-9.26Zm-2.13,5.44H36.8L36,312.18Z"/><path class="cls-3" d="M43,309.27v9.35H40.58v-9.35Z"/><path class="cls-3" d="M51.65,318.62h-2.4l-1.48-3.53H46.25v3.53H44v-9.35h4.45a2.88,2.88,0,0,1,1.46.39A2.84,2.84,0,0,1,51,310.72a2.93,2.93,0,0,1,0,2.85,3.05,3.05,0,0,1-1,1.05ZM49,311.5a.87.87,0,0,0-.63-.31H46.2v2h2.19a1,1,0,0,0,.63-.32,1,1,0,0,0,.25-.69A1,1,0,0,0,49,311.5Z"/><path class="cls-3" d="M52.89,317h2.23l-1,3h-2Z"/><path class="cls-3" d="M64.75,309.36l3,9.26H65.5l-.61-1.89H62l-.6,1.89H59.09l3.07-9.26Zm-2.13,5.44h1.67l-.84-2.62Z"/><path class="cls-3" d="M73.21,309.27h2.38v9.35H73.21l-2.75-5v5H68.07v-9.35h2.39l2.75,5Z"/><path class="cls-3" d="M80.75,309.24a5.54,5.54,0,0,1,1.41.33,4.23,4.23,0,0,1,1.29.81A4.63,4.63,0,0,1,84.59,312a4.76,4.76,0,0,1,.4,1.92,4.65,4.65,0,0,1-.51,2.16A4.36,4.36,0,0,1,83,317.72a5.09,5.09,0,0,1-1.91.75,14.92,14.92,0,0,1-2.36.17H76.65v-9.46H79A16.65,16.65,0,0,1,80.75,309.24Zm2,4.67a2.45,2.45,0,0,0-.32-1.2,2.5,2.5,0,0,0-.87-.9,2.28,2.28,0,0,0-1.19-.36H79v4.88a10.7,10.7,0,0,0,1.63-.11,2.82,2.82,0,0,0,1.23-.52,2.09,2.09,0,0,0,.75-1.23A2.38,2.38,0,0,0,82.72,313.91Z"/><path class="cls-3" d="M95.15,316.22a2.64,2.64,0,0,0,.79-.52l1.61,1.61a4.73,4.73,0,0,1-1.52,1,4.49,4.49,0,0,1-1.82.37A4.71,4.71,0,0,1,89.49,314a4.7,4.7,0,0,1,2.35-4.1,4.69,4.69,0,0,1,4.19-.27,4.73,4.73,0,0,1,1.52,1l-1.61,1.61a2.64,2.64,0,0,0-.79-.52,2.42,2.42,0,0,0-2.16.14,2.61,2.61,0,0,0-.89.89,2.41,2.41,0,0,0-.33,1.23,2.32,2.32,0,0,0,.33,1.21,2.61,2.61,0,0,0,.89.89,2.42,2.42,0,0,0,2.16.14Z"/><path class="cls-3" d="M103.21,309.36l3.06,9.26H104l-.6-1.89h-2.9l-.59,1.89H97.55l3.07-9.26Zm-2.13,5.44h1.67l-.83-2.62Z"/><path class="cls-3" d="M111.67,309.27h2.38v9.35h-2.38l-2.75-5v5h-2.39v-9.35h2.39l2.75,5Z"/><path class="cls-3" d="M126.13,314.67a2.65,2.65,0,0,1,.3,1.25,2.61,2.61,0,0,1-.36,1.34,2.68,2.68,0,0,1-1,1,2.74,2.74,0,0,1-1.35.38h-4.67v-9.36h4.24a2.53,2.53,0,0,1,1.36.37,2.63,2.63,0,0,1,1,1,2.57,2.57,0,0,1,.35,1.33,2.69,2.69,0,0,1-.18,1,2.84,2.84,0,0,1-.52.83A2.72,2.72,0,0,1,126.13,314.67Zm-2.47-3.21a.94.94,0,0,0-.68-.29h-1.72v2H123l.31-.06a.57.57,0,0,0,.24-.13.89.89,0,0,0,.31-.36,1,1,0,0,0,.1-.46A.94.94,0,0,0,123.66,311.46Zm.4,4.94a1,1,0,0,0,0-1.33.94.94,0,0,0-.57-.34h-2.27v2h2.12A1,1,0,0,0,124.06,316.4Z"/><path class="cls-3" d="M134.06,309.9a4.83,4.83,0,0,1,1.72,1.73,4.67,4.67,0,0,1,.63,2.37,4.62,4.62,0,0,1-.63,2.37,4.81,4.81,0,0,1-1.72,1.72,4.62,4.62,0,0,1-2.37.63,4.67,4.67,0,0,1-2.37-.63,4.76,4.76,0,0,1-1.73-1.72A4.62,4.62,0,0,1,127,314a4.67,4.67,0,0,1,.63-2.37,4.78,4.78,0,0,1,1.73-1.73,4.67,4.67,0,0,1,2.37-.63A4.62,4.62,0,0,1,134.06,309.9Zm-1.15,6.2a2.47,2.47,0,0,0,.88-.88,2.42,2.42,0,0,0,0-2.44,2.42,2.42,0,0,0-.88-.89,2.42,2.42,0,0,0-2.44,0,2.38,2.38,0,0,0-.89.89,2.42,2.42,0,0,0,0,2.44,2.42,2.42,0,0,0,.89.88,2.36,2.36,0,0,0,2.44,0Z"/><path class="cls-3" d="M142.07,309.36l3.06,9.26h-2.31l-.6-1.89h-2.9l-.59,1.89h-2.32l3.07-9.26Zm-2.13,5.44h1.67l-.83-2.62Z"/><path class="cls-3" d="M149.66,312.23v-.17a.86.86,0,0,0-.32-.66,1.2,1.2,0,0,0-.79-.27,1.24,1.24,0,0,0-.81.27.82.82,0,0,0-.34.66.62.62,0,0,0,.34.57,2.94,2.94,0,0,0,.9.37l.21,0,.23,0a4.64,4.64,0,0,1,1.89.78l.12.11a3,3,0,0,1,.63.91A2.66,2.66,0,0,1,152,316a2.63,2.63,0,0,1-.26,1.13,2.89,2.89,0,0,1-.75,1,3.56,3.56,0,0,1-1.11.63,3.89,3.89,0,0,1-2.58,0,3.8,3.8,0,0,1-1.11-.63,3.17,3.17,0,0,1-.75-1,2.49,2.49,0,0,1-.26-1.13v-.18h2.31V316a.84.84,0,0,0,.32.65,1.19,1.19,0,0,0,.78.27,1.26,1.26,0,0,0,.81-.27.83.83,0,0,0,.34-.65.77.77,0,0,0-.36-.59,1.84,1.84,0,0,0-.37-.19,3.25,3.25,0,0,0-.52-.16l-.43-.11a11,11,0,0,1-1.14-.33,2.42,2.42,0,0,1-.75-.45l-.06-.05a2.82,2.82,0,0,1-.69-.93,2.59,2.59,0,0,1,0-2.22,3.13,3.13,0,0,1,.75-1,3.4,3.4,0,0,1,1.11-.63,3.89,3.89,0,0,1,2.58,0,3.21,3.21,0,0,1,1.11.63,2.85,2.85,0,0,1,.75,1,2.64,2.64,0,0,1,.26,1.14v.17Z"/><path class="cls-3" d="M159.79,309.27v2.38H157.4v7H155v-7h-2.39v-2.38h7.18Z"/><path class="cls-3" d="M169.73,309.27h2.38v9.35h-2.38v-3.49h-2.67v3.49h-2.38v-9.35h2.38v3.48h2.67Z"/><path class="cls-3" d="M175.55,309.27v9.35h-2.38v-9.35Z"/><path class="cls-3" d="M185.8,314a4.68,4.68,0,0,1-.64,2.37,4.81,4.81,0,0,1-1.72,1.72,4.68,4.68,0,0,1-2.38.63,4.61,4.61,0,0,1-2.36-.63,4.73,4.73,0,0,1-1.72-1.72,4.58,4.58,0,0,1-.64-2.37,4.53,4.53,0,0,1,.64-2.37,4.71,4.71,0,0,1,7.44-1l-2.13,1.21a2.36,2.36,0,0,0-1.23-.33,2.32,2.32,0,0,0-1.21.33,2.48,2.48,0,0,0-.89.9,2.42,2.42,0,0,0,0,2.44,2.5,2.5,0,0,0,.89.88,2.32,2.32,0,0,0,1.21.33,2.36,2.36,0,0,0,1.28-.36,2.47,2.47,0,0,0,.9-1h-2.93v-2.2h5.35A5,5,0,0,1,185.8,314Z"/><path class="cls-3" d="M191.64,309.27H194v9.35h-2.38v-3.49H189v3.49h-2.38v-9.35H189v3.48h2.67Z"/><path class="cls-3" d="M201.42,316.37h3.68v2.25H199v-9.35h2.38Z"/><path class="cls-3" d="M212.39,316.59v2H206v-9.35h6.24v2h-3.85v1.64h3.24v2h-3.24v1.64Z"/><path class="cls-3" d="M219.59,309.24h2.59l-3.05,9.38h-2.91l-3-9.38h2.62l1.89,5.85Z"/><path class="cls-3" d="M229.34,316.59v2H223v-9.35h6.24v2h-3.85v1.64h3.24v2h-3.24v1.64Z"/><path class="cls-3" d="M232.77,316.37h3.68v2.25h-6.06v-9.35h2.38Z"/><path class="cls-3" d="M241.65,312.23v-.17a.84.84,0,0,0-.33-.66,1.17,1.17,0,0,0-.78-.27,1.28,1.28,0,0,0-.82.27.85.85,0,0,0-.34.66.62.62,0,0,0,.35.57,2.94,2.94,0,0,0,.9.37l.2,0,.23,0a4.63,4.63,0,0,1,1.9.78l.11.11a2.65,2.65,0,0,1,.63.91,2.5,2.5,0,0,1,.23,1.06,2.62,2.62,0,0,1-.25,1.13,3.17,3.17,0,0,1-.75,1,3.8,3.8,0,0,1-1.11.63,4.08,4.08,0,0,1-1.3.22,4,4,0,0,1-1.29-.22,3.75,3.75,0,0,1-1.1-.63,2.89,2.89,0,0,1-.75-1,2.51,2.51,0,0,1-.27-1.13v-.18h2.31V316a.82.82,0,0,0,.33.65,1.15,1.15,0,0,0,.77.27,1.24,1.24,0,0,0,.81-.27.8.8,0,0,0,.34-.65.78.78,0,0,0-.35-.59,1.84,1.84,0,0,0-.37-.19,4.06,4.06,0,0,0-.52-.16l-.44-.11a11.45,11.45,0,0,1-1.13-.33,2.35,2.35,0,0,1-.76-.45l0-.05a2.82,2.82,0,0,1-.69-.93,2.38,2.38,0,0,1-.25-1.08,2.52,2.52,0,0,1,.27-1.14,2.85,2.85,0,0,1,.75-1,3.35,3.35,0,0,1,1.1-.63,3.72,3.72,0,0,1,1.29-.22,3.82,3.82,0,0,1,1.3.22,3.4,3.4,0,0,1,1.11.63,3.13,3.13,0,0,1,.75,1,2.63,2.63,0,0,1,.25,1.14v.17Z"/><path class="cls-3" d="M255.53,309.9a4.76,4.76,0,0,1,1.72,1.73,4.67,4.67,0,0,1,.63,2.37,4.62,4.62,0,0,1-.63,2.37,4.73,4.73,0,0,1-1.72,1.72,4.62,4.62,0,0,1-2.37.63,4.67,4.67,0,0,1-2.37-.63,4.76,4.76,0,0,1-1.73-1.72,4.62,4.62,0,0,1-.63-2.37,4.67,4.67,0,0,1,.63-2.37,4.78,4.78,0,0,1,1.73-1.73,4.67,4.67,0,0,1,2.37-.63A4.62,4.62,0,0,1,255.53,309.9Zm-1.15,6.2a2.47,2.47,0,0,0,.88-.88,2.42,2.42,0,0,0,0-2.44,2.42,2.42,0,0,0-.88-.89,2.42,2.42,0,0,0-2.44,0,2.38,2.38,0,0,0-.89.89,2.42,2.42,0,0,0,0,2.44,2.42,2.42,0,0,0,.89.88,2.36,2.36,0,0,0,2.44,0Z"/><path class="cls-3" d="M265.18,311.29h-4.12v1.64h3.3v2h-3.3v3.67h-2.38v-9.35h6.5Z"/><path class="cls-3" d="M274.81,309.36l3.05,9.26h-2.3l-.61-1.89h-2.89l-.6,1.89h-2.31l3.06-9.26Zm-2.13,5.44h1.66l-.83-2.62Z"/><path class="cls-3" d="M285.73,309.28v5.78a3.71,3.71,0,0,1-3.7,3.69h-.22a3.62,3.62,0,0,1-1.85-.5,3.66,3.66,0,0,1-1.34-1.34,3.58,3.58,0,0,1-.49-1.85v-5.78h2.2v5.25a2.19,2.19,0,0,0,.4,1.36,1.28,1.28,0,0,0,1.08.55H282a1.29,1.29,0,0,0,1.07-.55,2.18,2.18,0,0,0,.42-1.36v-5.25Z"/><path class="cls-3" d="M290.88,309.24a5.35,5.35,0,0,1,1.41.33,4.23,4.23,0,0,1,1.29.81,4.53,4.53,0,0,1,1.15,1.61,4.93,4.93,0,0,1,.4,1.92,4.54,4.54,0,0,1-.52,2.16,4.33,4.33,0,0,1-1.44,1.65,5.16,5.16,0,0,1-1.91.75,14.92,14.92,0,0,1-2.36.17h-2.11v-9.46h2.39A16.3,16.3,0,0,1,290.88,309.24Zm2,4.67a2.44,2.44,0,0,0-.31-1.2,2.5,2.5,0,0,0-.87-.9,2.28,2.28,0,0,0-1.2-.36h-1.29v4.88a10.8,10.8,0,0,0,1.63-.11,2.82,2.82,0,0,0,1.23-.52,2.09,2.09,0,0,0,.75-1.23A3,3,0,0,0,292.85,313.91Z"/><path class="cls-3" d="M298.3,309.27v9.35h-2.38v-9.35Z"/><path class="cls-3" d="M305.72,316.59v2h-6.36v-9.35h6.24v2h-3.85v1.64H305v2h-3.24v1.64Z"/><path class="cls-3" d="M311.92,309.27h2.38v9.35h-2.38l-2.75-5v5h-2.39v-9.35h2.39l2.75,5Z"/><path class="cls-3" d="M320.75,316.22a2.69,2.69,0,0,0,.8-.52l1.61,1.61a4.73,4.73,0,0,1-1.52,1,4.5,4.5,0,0,1-1.83.37,4.74,4.74,0,0,1-4.08-2.36,4.52,4.52,0,0,1-.64-2.36,4.59,4.59,0,0,1,.64-2.38,4.65,4.65,0,0,1,1.72-1.72,4.69,4.69,0,0,1,4.19-.27,4.73,4.73,0,0,1,1.52,1l-1.61,1.61a2.69,2.69,0,0,0-.8-.52,2.4,2.4,0,0,0-2.15.14,2.53,2.53,0,0,0-.89.89,2.41,2.41,0,0,0-.33,1.23,2.32,2.32,0,0,0,.33,1.21,2.53,2.53,0,0,0,.89.89,2.4,2.4,0,0,0,2.15.14Z"/><path class="cls-3" d="M330.31,316.59v2H324v-9.35h6.24v2h-3.85v1.64h3.24v2h-3.24v1.64Z"/><path class="cls-3" d="M39.44,325.14v2.38H37.05v7H34.66v-7h-2.4v-2.38h7.18Z"/><path class="cls-3" d="M48,334.48H45.6L44.12,331H42.6v3.53H40.37v-9.34h4.45a2.88,2.88,0,0,1,1.46.39A2.9,2.9,0,0,1,47.73,328a2.91,2.91,0,0,1-.35,1.4,3,3,0,0,1-1,1.05Zm-2.63-7.12a.91.91,0,0,0-.62-.31h-2.2v2h2.2a1,1,0,0,0,.62-.33,1,1,0,0,0,.25-.68A1,1,0,0,0,45.37,327.36Z"/><path class="cls-3" d="M56.39,325.15v5.78a3.61,3.61,0,0,1-.49,1.85,3.69,3.69,0,0,1-1.35,1.34,3.65,3.65,0,0,1-1.86.5h-.21a3.59,3.59,0,0,1-1.85-.5,3.66,3.66,0,0,1-1.34-1.34,3.62,3.62,0,0,1-.5-1.85v-5.78H51v5.25a2.21,2.21,0,0,0,.4,1.36,1.26,1.26,0,0,0,1.08.54h.21a1.29,1.29,0,0,0,1.08-.55,2.13,2.13,0,0,0,.42-1.35v-5.25Z"/><path class="cls-3" d="M61.72,328.1v-.17a.84.84,0,0,0-.32-.66,1.2,1.2,0,0,0-.79-.27,1.24,1.24,0,0,0-.81.27.81.81,0,0,0-.34.66.61.61,0,0,0,.34.56,2.9,2.9,0,0,0,.9.37l.21,0,.23.06a4.64,4.64,0,0,1,1.89.78l.12.1a2.84,2.84,0,0,1,.63.92,2.57,2.57,0,0,1,0,2.19,3,3,0,0,1-.75,1,3.35,3.35,0,0,1-1.11.62,3.89,3.89,0,0,1-2.58,0,3.4,3.4,0,0,1-1.1-.62,3.17,3.17,0,0,1-.76-1,2.64,2.64,0,0,1-.26-1.14v-.17H59.5v.17a.82.82,0,0,0,.33.66,1.15,1.15,0,0,0,.77.27,1.24,1.24,0,0,0,.81-.27.81.81,0,0,0,.34-.66.77.77,0,0,0-.36-.58A1.61,1.61,0,0,0,61,331l-.51-.16-.44-.1a11.78,11.78,0,0,1-1.14-.33,2.42,2.42,0,0,1-.75-.45l0-.05a3.08,3.08,0,0,1-.7-.93,2.54,2.54,0,0,1-.24-1.08,2.64,2.64,0,0,1,.26-1.14,3.17,3.17,0,0,1,.76-1,3.4,3.4,0,0,1,1.1-.62,3.89,3.89,0,0,1,2.58,0,3.35,3.35,0,0,1,1.11.62,3,3,0,0,1,.75,1,2.64,2.64,0,0,1,.26,1.14v.17Z"/><path class="cls-3" d="M71.85,325.14v2.38H69.46v7h-2.4v-7H64.67v-2.38h7.18Z"/><path class="cls-3" d="M81.61,325.23l3,9.25h-2.3l-.61-1.89H78.86l-.6,1.89H76L79,325.23Zm-2.13,5.43h1.67L80.31,328Z"/><path class="cls-3" d="M90.07,325.14h2.38v9.34H90.07l-2.75-5v5H84.93v-9.34h2.39l2.75,5Z"/><path class="cls-3" d="M97.61,325.1a5.57,5.57,0,0,1,1.41.34,4.07,4.07,0,0,1,1.28.81,4.58,4.58,0,0,1,1.15,1.6,4.8,4.8,0,0,1,.4,1.93,4.58,4.58,0,0,1-.51,2.15,4.28,4.28,0,0,1-1.45,1.65,5.09,5.09,0,0,1-1.91.75,13.74,13.74,0,0,1-2.36.18H94.54l-1,0V325H95.9A16.94,16.94,0,0,1,97.61,325.1Zm2,4.68a2.42,2.42,0,0,0-.32-1.2,2.53,2.53,0,0,0-.87-.91,2.36,2.36,0,0,0-1.19-.35H95.9v4.88a9.45,9.45,0,0,0,1.63-.12,2.71,2.71,0,0,0,1.23-.52,2,2,0,0,0,.75-1.23A3,3,0,0,0,99.58,329.78Z"/><path class="cls-3" d="M109,332.24h3.68v2.24h-6.06v-9.34H109Z"/><path class="cls-3" d="M120.43,325.77a4.76,4.76,0,0,1,1.72,1.73,4.62,4.62,0,0,1,.63,2.37,4.67,4.67,0,0,1-.63,2.37,4.89,4.89,0,0,1-1.72,1.72,4.62,4.62,0,0,1-2.37.63,4.67,4.67,0,0,1-2.37-.63,4.83,4.83,0,0,1-1.73-1.72,4.67,4.67,0,0,1-.63-2.37,4.62,4.62,0,0,1,.63-2.37,4.71,4.71,0,0,1,4.1-2.36A4.62,4.62,0,0,1,120.43,325.77Zm-1.15,6.2a2.47,2.47,0,0,0,.88-.88,2.42,2.42,0,0,0,0-2.44,2.45,2.45,0,0,0-.88-.9,2.42,2.42,0,0,0-2.44,0,2.4,2.4,0,0,0-.89.9,2.42,2.42,0,0,0,0,2.44,2.42,2.42,0,0,0,.89.88,2.42,2.42,0,0,0,2.44,0Z"/><path class="cls-3" d="M128.55,325.14h2.38l-2.75,5.54v3.8H125.8v-3.8l-2.75-5.54h2.38l1.56,3.18Z"/><path class="cls-3" d="M136.32,325.23l3.06,9.25h-2.31l-.6-1.89h-2.9l-.59,1.89h-2.32l3.07-9.25Zm-2.13,5.43h1.67L135,328Z"/><path class="cls-3" d="M142,332.24h3.68v2.24h-6.06v-9.34H142Z"/><path class="cls-3" d="M153.67,325.14v2.38h-2.39v7h-2.4v-7h-2.39v-2.38h7.18Z"/><path class="cls-3" d="M159.57,325.14H162l-2.75,5.54v3.8h-2.38v-3.8l-2.75-5.54h2.38l1.56,3.18Z"/><path class="cls-3" d="M162.57,334.1a1.29,1.29,0,0,1-.36-.91,1.16,1.16,0,0,1,.36-.86,1.2,1.2,0,0,1,.87-.36,1.26,1.26,0,0,1,.89.37,1.24,1.24,0,0,1,.37.89,1.26,1.26,0,0,1-1.26,1.25A1.12,1.12,0,0,1,162.57,334.1Z"/><path class="cls-3" d="M37.79,348a2.64,2.64,0,0,0,.79-.52L40.2,349a4.92,4.92,0,0,1-1.52,1,4.74,4.74,0,0,1-1.83.36,4.67,4.67,0,0,1-2.37-.63,4.78,4.78,0,0,1-1.71-1.72,4.58,4.58,0,0,1-.64-2.37,4.53,4.53,0,0,1,.64-2.37A4.65,4.65,0,0,1,36.85,341a4.69,4.69,0,0,1,3.35,1.38L38.58,344a2.47,2.47,0,0,0-.79-.52,2.37,2.37,0,0,0-2.16.13,2.45,2.45,0,0,0-.88.9,2.42,2.42,0,0,0,0,2.44,2.47,2.47,0,0,0,.88.88,2.35,2.35,0,0,0,1.22.33A2.32,2.32,0,0,0,37.79,348Z"/><path class="cls-3" d="M47.83,341.64a4.7,4.7,0,0,1,1.71,1.72,4.59,4.59,0,0,1,.64,2.38,4.52,4.52,0,0,1-.64,2.36,4.63,4.63,0,0,1-1.71,1.72,4.73,4.73,0,0,1-6.47-1.72,4.61,4.61,0,0,1-.63-2.36,4.7,4.7,0,0,1,2.35-4.1,4.73,4.73,0,0,1,4.75,0Zm-1.16,6.2a2.53,2.53,0,0,0,.89-.89,2.32,2.32,0,0,0,.33-1.21,2.41,2.41,0,0,0-.33-1.23,2.53,2.53,0,0,0-.89-.89,2.32,2.32,0,0,0-1.21-.33,2.35,2.35,0,0,0-1.22.33,2.48,2.48,0,0,0-.9.89,2.41,2.41,0,0,0-.33,1.23,2.32,2.32,0,0,0,.33,1.21,2.48,2.48,0,0,0,.9.89,2.35,2.35,0,0,0,1.22.33A2.32,2.32,0,0,0,46.67,347.84Z"/><path class="cls-3" d="M57.81,341.64a4.81,4.81,0,0,1,1.72,1.72,4.68,4.68,0,0,1,.63,2.38,4.61,4.61,0,0,1-.63,2.36,4.73,4.73,0,0,1-1.72,1.72,4.73,4.73,0,0,1-6.47-6.46,4.76,4.76,0,0,1,1.73-1.72,4.71,4.71,0,0,1,4.74,0Zm-1.15,6.2a2.5,2.5,0,0,0,.88-.89,2.32,2.32,0,0,0,.33-1.21,2.41,2.41,0,0,0-.33-1.23,2.5,2.5,0,0,0-.88-.89,2.42,2.42,0,0,0-2.44,0,2.45,2.45,0,0,0-.89.89,2.41,2.41,0,0,0-.33,1.23,2.32,2.32,0,0,0,.33,1.21,2.45,2.45,0,0,0,.89.89,2.42,2.42,0,0,0,2.44,0Z"/><path class="cls-3" d="M66.87,341.39a2.91,2.91,0,0,1,1.06,1.06,2.91,2.91,0,0,1-2.52,4.37H63.19v3.53H61V341h4.46A2.83,2.83,0,0,1,66.87,341.39ZM66,343.23a.91.91,0,0,0-.63-.31H63.14v2h2.19a.85.85,0,0,0,.63-.32,1,1,0,0,0,.26-.68A1,1,0,0,0,66,343.23Z"/><path class="cls-3" d="M75.47,348.33v2H69.11V341h6.24v2H71.5v1.64h3.25v2H71.5v1.64Z"/><path class="cls-3" d="M84.16,350.35H81.77l-1.48-3.53H78.76v3.53H76.53V341H81a2.92,2.92,0,0,1,2.55,4.31,3.14,3.14,0,0,1-1,1.05Zm-2.63-7.12a.91.91,0,0,0-.62-.31h-2.2v2h2.2a.92.92,0,0,0,.62-.32,1,1,0,0,0,.25-.68A1,1,0,0,0,81.53,343.23Z"/><path class="cls-3" d="M89.82,341.1l3.05,9.25h-2.3L90,348.46H87.07l-.6,1.89H84.16l3.07-9.25Zm-2.13,5.43h1.67l-.84-2.62Z"/><path class="cls-3" d="M100.18,341v2.38H97.79v7H95.4v-7H93V341h7.18Z"/><path class="cls-3" d="M103.49,341v9.35h-2.38V341Z"/><path class="cls-3" d="M111.38,341.64a4.65,4.65,0,0,1,1.72,1.72,4.59,4.59,0,0,1,.64,2.38,4.52,4.52,0,0,1-.64,2.36,4.74,4.74,0,0,1-4.08,2.36,4.74,4.74,0,0,1-4.1-2.36,4.52,4.52,0,0,1-.64-2.36,4.59,4.59,0,0,1,.64-2.38,4.73,4.73,0,0,1,1.72-1.72A4.59,4.59,0,0,1,109,341,4.52,4.52,0,0,1,111.38,341.64Zm-1.15,6.2a2.53,2.53,0,0,0,.89-.89,2.32,2.32,0,0,0,.33-1.21,2.41,2.41,0,0,0-.33-1.23,2.53,2.53,0,0,0-.89-.89,2.32,2.32,0,0,0-1.21-.33,2.41,2.41,0,0,0-1.23.33,2.53,2.53,0,0,0-.89.89,2.41,2.41,0,0,0-.33,1.23,2.32,2.32,0,0,0,.33,1.21,2.53,2.53,0,0,0,.89.89,2.41,2.41,0,0,0,1.23.33A2.32,2.32,0,0,0,110.23,347.84Z"/><path class="cls-3" d="M119.67,341h2.38v9.35h-2.38l-2.75-5v5h-2.39V341h2.39l2.75,5Z"/><path class="cls-3" d="M134.6,341h2.06v9.35h-2.38l-2.4-4-2.42,4h-2.38V341h2.38v5.28l1.16-2.12.07-.1h2.38l.05.1,1.16,2.12V341Z"/><path class="cls-3" d="M140.1,341v9.35h-2.38V341Z"/><path class="cls-3" d="M148.21,341v2.38h-2.4v7h-2.39v-7H141V341h7.18Z"/><path class="cls-3" d="M154.18,341h2.38v9.35h-2.38v-3.49h-2.67v3.49h-2.38V341h2.38v3.48h2.67Z"/><path class="cls-3" d="M165.86,344v-.17a.82.82,0,0,0-.33-.65,1.17,1.17,0,0,0-.78-.27,1.28,1.28,0,0,0-.82.27.82.82,0,0,0-.33.65.6.6,0,0,0,.34.57,2.94,2.94,0,0,0,.9.37l.2,0,.24.05a4.64,4.64,0,0,1,1.89.78l.12.11a2.88,2.88,0,0,1,.62.91,2.54,2.54,0,0,1,.23,1.06,2.63,2.63,0,0,1-.25,1.14,3,3,0,0,1-.75,1,3.59,3.59,0,0,1-1.11.63,3.82,3.82,0,0,1-1.3.22,3.72,3.72,0,0,1-1.29-.22,3.54,3.54,0,0,1-1.1-.63,2.85,2.85,0,0,1-.75-1,2.52,2.52,0,0,1-.27-1.14v-.17h2.32v.17a.8.8,0,0,0,.32.65,1.13,1.13,0,0,0,.77.28,1.24,1.24,0,0,0,.82-.28.81.81,0,0,0,.33-.65.77.77,0,0,0-.35-.58,1.46,1.46,0,0,0-.37-.2c-.14,0-.32-.11-.52-.16l-.44-.1c-.48-.13-.86-.24-1.13-.34a2,2,0,0,1-.76-.45l-.05-.05a2.89,2.89,0,0,1-.69-.92,2.45,2.45,0,0,1-.25-1.09,2.51,2.51,0,0,1,.27-1.13,2.79,2.79,0,0,1,.75-1,3.75,3.75,0,0,1,1.1-.63,4,4,0,0,1,1.29-.22,4.08,4.08,0,0,1,1.3.22,3.8,3.8,0,0,1,1.11.63,2.92,2.92,0,0,1,.75,1,2.62,2.62,0,0,1,.25,1.13V344Z"/><path class="cls-3" d="M176.54,341v5.77a3.56,3.56,0,0,1-.5,1.86A3.74,3.74,0,0,1,174.7,350a3.64,3.64,0,0,1-1.86.49h-.21a3.58,3.58,0,0,1-1.85-.49,3.69,3.69,0,0,1-1.35-1.34,3.64,3.64,0,0,1-.49-1.86V341h2.21v5.25a2.28,2.28,0,0,0,.39,1.36,1.29,1.29,0,0,0,1.09.54h.21a1.29,1.29,0,0,0,1.08-.55,2.23,2.23,0,0,0,.41-1.35V341Z"/><path class="cls-3" d="M183,348a2.69,2.69,0,0,0,.8-.52L185.4,349a4.92,4.92,0,0,1-1.52,1,4.67,4.67,0,0,1-1.83.36,4.61,4.61,0,0,1-2.36-.63,4.74,4.74,0,0,1-2.36-4.09,4.74,4.74,0,0,1,6.55-4.37,4.73,4.73,0,0,1,1.52,1L183.79,344a2.51,2.51,0,0,0-.8-.52,2.35,2.35,0,0,0-2.15.13,2.48,2.48,0,0,0-.89.9,2.42,2.42,0,0,0,0,2.44,2.5,2.5,0,0,0,.89.88A2.4,2.4,0,0,0,183,348Z"/><path class="cls-3" d="M191.24,341h2.38v9.35h-2.38v-3.49h-2.67v3.49h-2.38V341h2.38v3.48h2.67Z"/><path class="cls-3" d="M204.56,341.39a2.91,2.91,0,0,1,1.06,1.06,2.91,2.91,0,0,1-2.52,4.37h-2.22v3.53h-2.23V341h4.45A2.83,2.83,0,0,1,204.56,341.39Zm-.91,1.84a.91.91,0,0,0-.63-.31h-2.19v2H203a.85.85,0,0,0,.63-.32,1,1,0,0,0,.26-.68A1,1,0,0,0,203.65,343.23Z"/><path class="cls-3" d="M213.17,348.33v2h-6.36V341h6.24v2H209.2v1.64h3.24v2H209.2v1.64Z"/><path class="cls-3" d="M221.85,350.35h-2.39L218,346.82h-1.52v3.53h-2.24V341h4.46a2.84,2.84,0,0,1,1.45.39,2.89,2.89,0,0,1,1.07,1.07,2.9,2.9,0,0,1,0,2.85,3.21,3.21,0,0,1-1,1.05Zm-2.63-7.12a.89.89,0,0,0-.62-.31h-2.2v2h2.2a.9.9,0,0,0,.62-.32,1,1,0,0,0,.25-.68A1,1,0,0,0,219.22,343.23Z"/><path class="cls-3" d="M226.92,344v-.17a.82.82,0,0,0-.33-.65,1.17,1.17,0,0,0-.78-.27,1.28,1.28,0,0,0-.82.27.82.82,0,0,0-.33.65.6.6,0,0,0,.34.57,2.94,2.94,0,0,0,.9.37l.2,0,.23.05a4.63,4.63,0,0,1,1.9.78l.11.11a2.75,2.75,0,0,1,.63.91,2.54,2.54,0,0,1,.23,1.06,2.63,2.63,0,0,1-.25,1.14,3.13,3.13,0,0,1-.75,1,3.59,3.59,0,0,1-1.11.63,3.82,3.82,0,0,1-1.3.22,3.72,3.72,0,0,1-1.29-.22,3.43,3.43,0,0,1-1.1-.63,2.85,2.85,0,0,1-.75-1,2.52,2.52,0,0,1-.27-1.14v-.17h2.31v.17a.81.81,0,0,0,.33.65,1.11,1.11,0,0,0,.77.28,1.24,1.24,0,0,0,.82-.28.81.81,0,0,0,.33-.65.77.77,0,0,0-.35-.58,1.46,1.46,0,0,0-.37-.2c-.15,0-.32-.11-.52-.16l-.44-.1c-.48-.13-.86-.24-1.13-.34a2,2,0,0,1-.76-.45l-.05-.05a2.89,2.89,0,0,1-.69-.92,2.45,2.45,0,0,1-.25-1.09,2.51,2.51,0,0,1,.27-1.13,2.79,2.79,0,0,1,.75-1,3.63,3.63,0,0,1,1.1-.63,4,4,0,0,1,1.29-.22,4.08,4.08,0,0,1,1.3.22,3.8,3.8,0,0,1,1.11.63,3.05,3.05,0,0,1,.75,1,2.62,2.62,0,0,1,.25,1.13V344Z"/><path class="cls-3" d="M236.83,341.64a4.72,4.72,0,0,1,1.72,6.46,4.74,4.74,0,0,1-4.08,2.36,4.74,4.74,0,0,1-4.1-2.36,4.52,4.52,0,0,1-.64-2.36,4.59,4.59,0,0,1,.64-2.38,4.73,4.73,0,0,1,1.72-1.72,4.59,4.59,0,0,1,2.38-.64A4.52,4.52,0,0,1,236.83,341.64Zm-1.15,6.2a2.53,2.53,0,0,0,.89-.89,2.32,2.32,0,0,0,.33-1.21,2.41,2.41,0,0,0-.33-1.23,2.53,2.53,0,0,0-.89-.89,2.32,2.32,0,0,0-1.21-.33,2.41,2.41,0,0,0-1.23.33,2.53,2.53,0,0,0-.89.89,2.41,2.41,0,0,0-.33,1.23,2.32,2.32,0,0,0,.33,1.21,2.53,2.53,0,0,0,.89.89,2.41,2.41,0,0,0,1.23.33A2.32,2.32,0,0,0,235.68,347.84Z"/><path class="cls-3" d="M245.12,341h2.38v9.35h-2.38l-2.75-5v5H240V341h2.39l2.75,5Z"/><path class="cls-3" d="M253.43,341.1l3.05,9.25h-2.3l-.61-1.89h-2.89l-.6,1.89h-2.31l3.06-9.25Zm-2.13,5.43H253l-.83-2.62Z"/><path class="cls-3" d="M259.13,348.1h3.67v2.25h-6.05V341h2.38Z"/><path class="cls-3" d="M266.11,341v9.35h-2.38V341Z"/><path class="cls-3" d="M274.21,341v2.38h-2.39v7h-2.4v-7H267V341h7.18Z"/><path class="cls-3" d="M277.52,341v9.35h-2.38V341Z"/><path class="cls-3" d="M284.93,348.33v2h-6.36V341h6.25v2H281v1.64h3.24v2H281v1.64Z"/><path class="cls-3" d="M290.26,344v-.17a.84.84,0,0,0-.32-.65,1.2,1.2,0,0,0-.79-.27,1.24,1.24,0,0,0-.81.27.8.8,0,0,0-.34.65.6.6,0,0,0,.35.57,2.94,2.94,0,0,0,.9.37l.2,0,.23.05a4.64,4.64,0,0,1,1.89.78l.12.11a2.91,2.91,0,0,1,.63.91,2.7,2.7,0,0,1,.23,1.06,2.64,2.64,0,0,1-.26,1.14,2.85,2.85,0,0,1-.75,1,3.37,3.37,0,0,1-1.11.63,3.89,3.89,0,0,1-2.58,0,3.43,3.43,0,0,1-1.1-.63,3,3,0,0,1-.76-1,2.64,2.64,0,0,1-.26-1.14v-.17H288v.17a.81.81,0,0,0,.33.65,1.11,1.11,0,0,0,.77.28,1.19,1.19,0,0,0,.81-.28.79.79,0,0,0,.34-.65.76.76,0,0,0-.36-.58,1.31,1.31,0,0,0-.37-.2,5.27,5.27,0,0,0-.51-.16l-.44-.1c-.48-.13-.86-.24-1.14-.34a2.09,2.09,0,0,1-.75-.45l-.05-.05a2.92,2.92,0,0,1-.7-.92,2.58,2.58,0,0,1-.24-1.09,2.63,2.63,0,0,1,.26-1.13,3,3,0,0,1,.76-1,3.63,3.63,0,0,1,1.1-.63,3.89,3.89,0,0,1,2.58,0,3.56,3.56,0,0,1,1.11.63,2.79,2.79,0,0,1,.75,1,2.63,2.63,0,0,1,.26,1.13V344Z"/><path class="cls-3" d="M302.18,341.1l3.05,9.25h-2.3l-.61-1.89h-2.89l-.6,1.89h-2.31l3.06-9.25Zm-2.13,5.43h1.66l-.83-2.62Z"/><path class="cls-3" d="M307.87,348.1h3.68v2.25h-6.06V341h2.38Z"/><path class="cls-3" d="M314.86,348.1h3.67v2.25h-6V341h2.38Z"/><path class="cls-3" d="M326.29,341.64a4.65,4.65,0,0,1,1.72,1.72,4.59,4.59,0,0,1,.64,2.38,4.52,4.52,0,0,1-.64,2.36,4.74,4.74,0,0,1-4.08,2.36,4.74,4.74,0,0,1-4.1-2.36,4.52,4.52,0,0,1-.64-2.36,4.59,4.59,0,0,1,.64-2.38,4.73,4.73,0,0,1,1.72-1.72,4.59,4.59,0,0,1,2.38-.64A4.52,4.52,0,0,1,326.29,341.64Zm-1.15,6.2A2.53,2.53,0,0,0,326,347a2.32,2.32,0,0,0,.33-1.21,2.41,2.41,0,0,0-.33-1.23,2.53,2.53,0,0,0-.89-.89,2.32,2.32,0,0,0-1.21-.33,2.41,2.41,0,0,0-1.23.33,2.53,2.53,0,0,0-.89.89,2.41,2.41,0,0,0-.33,1.23,2.32,2.32,0,0,0,.33,1.21,2.53,2.53,0,0,0,.89.89,2.41,2.41,0,0,0,1.23.33A2.32,2.32,0,0,0,325.14,347.84Z"/><path class="cls-3" d="M337,341H339v9.35h-2.38l-2.41-4-2.42,4h-2.38V341h2.38v5.28l1.16-2.12.07-.1h2.38l.05.1,1.17,2.12V341Z"/><path class="cls-3" d="M344.35,344v-.17a.81.81,0,0,0-.32-.65,1.2,1.2,0,0,0-.79-.27,1.28,1.28,0,0,0-.81.27.83.83,0,0,0-.34.65.6.6,0,0,0,.35.57,2.94,2.94,0,0,0,.9.37l.2,0,.23.05a4.51,4.51,0,0,1,1.89.78l.12.11a2.75,2.75,0,0,1,.63.91,2.7,2.7,0,0,1,.23,1.06,2.51,2.51,0,0,1-.26,1.14,3,3,0,0,1-.74,1,3.59,3.59,0,0,1-1.11.63,3.82,3.82,0,0,1-1.3.22,3.72,3.72,0,0,1-1.29-.22,3.43,3.43,0,0,1-1.1-.63,3,3,0,0,1-.76-1,2.64,2.64,0,0,1-.26-1.14v-.17h2.31v.17a.81.81,0,0,0,.33.65,1.11,1.11,0,0,0,.77.28,1.19,1.19,0,0,0,.81-.28.79.79,0,0,0,.34-.65.76.76,0,0,0-.36-.58,1.31,1.31,0,0,0-.37-.2,5.27,5.27,0,0,0-.51-.16l-.44-.1c-.48-.13-.86-.24-1.14-.34a2.09,2.09,0,0,1-.75-.45l-.05-.05a3.08,3.08,0,0,1-.7-.92,2.58,2.58,0,0,1-.24-1.09,2.63,2.63,0,0,1,.26-1.13,3,3,0,0,1,.76-1,3.63,3.63,0,0,1,1.1-.63,4,4,0,0,1,1.29-.22,4.08,4.08,0,0,1,1.3.22,3.8,3.8,0,0,1,1.11.63,2.89,2.89,0,0,1,.74,1,2.49,2.49,0,0,1,.26,1.13V344Z"/><path class="cls-3" d="M37.37,356.87h2.38L37,362.41v3.81H34.62v-3.81l-2.75-5.54h2.38l1.56,3.19Z"/><path class="cls-3" d="M47.11,357.5a4.76,4.76,0,0,1,1.72,1.73,4.67,4.67,0,0,1,.63,2.37,4.62,4.62,0,0,1-.63,2.37,4.73,4.73,0,0,1-1.72,1.72,4.61,4.61,0,0,1-2.36.63,4.7,4.7,0,0,1-4.1-2.35A4.53,4.53,0,0,1,40,361.6a4.58,4.58,0,0,1,.64-2.37,4.68,4.68,0,0,1,4.1-2.36A4.61,4.61,0,0,1,47.11,357.5ZM46,363.71a2.61,2.61,0,0,0,.89-.89,2.42,2.42,0,0,0,0-2.44,2.45,2.45,0,0,0-.89-.89,2.32,2.32,0,0,0-1.21-.33,2.39,2.39,0,0,0-1.23.33,2.45,2.45,0,0,0-.89.89,2.42,2.42,0,0,0,0,2.44,2.61,2.61,0,0,0,.89.89,2.39,2.39,0,0,0,1.23.33A2.32,2.32,0,0,0,46,363.71Z"/><path class="cls-3" d="M57.86,356.88v5.78a3.58,3.58,0,0,1-.49,1.85A3.77,3.77,0,0,1,56,365.85a3.65,3.65,0,0,1-1.86.5H54a3.67,3.67,0,0,1-3.69-3.69v-5.78h2.21v5.25a2.26,2.26,0,0,0,.39,1.36A1.3,1.3,0,0,0,54,364h.21a1.32,1.32,0,0,0,1.08-.55,2.24,2.24,0,0,0,.41-1.36v-5.25Z"/><path class="cls-3" d="M69.93,356.87v2.38H67.54v7H65.15v-7h-2.4v-2.38h7.18Z"/><path class="cls-3" d="M77.69,357.5a4.68,4.68,0,0,1,1.72,1.73,4.58,4.58,0,0,1,.64,2.37,4.53,4.53,0,0,1-.64,2.37A4.75,4.75,0,0,1,73,365.69,4.73,4.73,0,0,1,71.23,364a4.63,4.63,0,0,1-.64-2.37,4.68,4.68,0,0,1,.64-2.37A4.76,4.76,0,0,1,73,357.5a4.68,4.68,0,0,1,2.38-.63A4.61,4.61,0,0,1,77.69,357.5Zm-1.15,6.21a2.61,2.61,0,0,0,.89-.89,2.42,2.42,0,0,0,0-2.44,2.45,2.45,0,0,0-.89-.89,2.32,2.32,0,0,0-1.21-.33,2.41,2.41,0,0,0-1.23.33,2.45,2.45,0,0,0-.89.89,2.42,2.42,0,0,0,0,2.44,2.61,2.61,0,0,0,.89.89,2.41,2.41,0,0,0,1.23.33A2.32,2.32,0,0,0,76.54,363.71Z"/><path class="cls-3" d="M87.19,356.87v9.35H84.81v-9.35Z"/><path class="cls-3" d="M93.39,356.87h2.38v9.35H93.39l-2.75-5v5h-2.4v-9.35h2.4l2.75,5Z"/><path class="cls-3" d="M102.22,363.82a2.64,2.64,0,0,0,.79-.52l1.62,1.61a4.73,4.73,0,0,1-1.52,1,4.57,4.57,0,0,1-1.83.37,4.74,4.74,0,0,1-4.08-2.36,4.52,4.52,0,0,1-.64-2.36,4.59,4.59,0,0,1,.64-2.38,4.65,4.65,0,0,1,1.72-1.72,4.52,4.52,0,0,1,2.36-.64,4.57,4.57,0,0,1,1.83.37,4.73,4.73,0,0,1,1.52,1L103,359.84a2.64,2.64,0,0,0-.79-.52,2.4,2.4,0,0,0-2.15.14,2.45,2.45,0,0,0-.89.89,2.41,2.41,0,0,0-.33,1.23,2.32,2.32,0,0,0,.33,1.21,2.45,2.45,0,0,0,.89.89,2.4,2.4,0,0,0,2.15.14Z"/><path class="cls-3" d="M113.05,366.22h-2.39l-1.49-3.53h-1.52v3.53h-2.23v-9.35h4.46a2.9,2.9,0,0,1,2.51,1.45,2.88,2.88,0,0,1,.39,1.46,2.76,2.76,0,0,1-.35,1.39,3,3,0,0,1-1,1.05Zm-2.63-7.12a.87.87,0,0,0-.62-.31h-2.2v2h2.2a1,1,0,0,0,.62-.32,1,1,0,0,0,.25-.69A1,1,0,0,0,110.42,359.1Z"/><path class="cls-3" d="M120.2,364.19v2h-6.36v-9.35h6.24v2h-3.84v1.64h3.23v2h-3.23v1.64Z"/><path class="cls-3" d="M126.13,357l3.05,9.26h-2.3l-.61-1.89h-2.89l-.6,1.89h-2.31l3.06-9.26ZM124,362.4h1.66l-.83-2.62Z"/><path class="cls-3" d="M133.71,359.83v-.17a.83.83,0,0,0-.32-.66,1.2,1.2,0,0,0-.79-.27,1.28,1.28,0,0,0-.81.27.85.85,0,0,0-.34.66.61.61,0,0,0,.35.57,2.94,2.94,0,0,0,.9.37l.2,0,.23.05a4.51,4.51,0,0,1,1.89.78l.12.11a2.81,2.81,0,0,1,.86,2,2.49,2.49,0,0,1-.26,1.13,3,3,0,0,1-.74,1,3.8,3.8,0,0,1-1.11.63,4.08,4.08,0,0,1-1.3.22,4,4,0,0,1-1.29-.22,3.63,3.63,0,0,1-1.1-.63,3.05,3.05,0,0,1-.76-1,2.63,2.63,0,0,1-.26-1.13v-.18h2.31v.18a.82.82,0,0,0,.33.65,1.15,1.15,0,0,0,.77.27,1.24,1.24,0,0,0,.81-.27.8.8,0,0,0,.34-.65.77.77,0,0,0-.36-.59,1.42,1.42,0,0,0-.37-.19,3.45,3.45,0,0,0-.51-.16l-.44-.11q-.72-.18-1.14-.33a2.42,2.42,0,0,1-.75-.45l0-.05a3,3,0,0,1-.7-.93,2.51,2.51,0,0,1-.24-1.08,2.64,2.64,0,0,1,.26-1.14,3,3,0,0,1,.76-1,3.25,3.25,0,0,1,1.1-.63,3.72,3.72,0,0,1,1.29-.22,3.82,3.82,0,0,1,1.3.22,3.4,3.4,0,0,1,1.11.63,3,3,0,0,1,.74,1,2.51,2.51,0,0,1,.26,1.14v.17Z"/><path class="cls-3" d="M143.16,364.19v2H136.8v-9.35H143v2h-3.85v1.64h3.24v2h-3.24v1.64Z"/><path class="cls-3" d="M155.23,356.87v2.38h-2.4v7h-2.39v-7h-2.39v-2.38h7.18Z"/><path class="cls-3" d="M163.78,366.22h-2.39l-1.48-3.53h-1.52v3.53h-2.24v-9.35h4.46a2.94,2.94,0,0,1,2.52,1.45,2.88,2.88,0,0,1,.39,1.46,2.77,2.77,0,0,1-.36,1.39,3,3,0,0,1-1,1.05Zm-2.63-7.12a.85.85,0,0,0-.62-.31h-2.2v2h2.2a.94.94,0,0,0,.62-.32,1,1,0,0,0,.25-.69A1,1,0,0,0,161.15,359.1Z"/><path class="cls-3" d="M169.44,357l3.06,9.26h-2.31l-.6-1.89h-2.9l-.59,1.89h-2.32l3.07-9.26Zm-2.13,5.44H169l-.83-2.62Z"/><path class="cls-3" d="M179.26,358.89h-4.12v1.64h3.31v2h-3.31v3.67h-2.38v-9.35h6.5Z"/><path class="cls-3" d="M186.56,358.89h-4.12v1.64h3.3v2h-3.3v3.67h-2.38v-9.35h6.5Z"/><path class="cls-3" d="M189.74,356.87v9.35h-2.38v-9.35Z"/><path class="cls-3" d="M196.19,363.82a2.64,2.64,0,0,0,.79-.52l1.61,1.61a4.62,4.62,0,0,1-1.52,1,4.49,4.49,0,0,1-1.82.37,4.65,4.65,0,0,1-2.37-.64,4.73,4.73,0,0,1-1.72-1.72,4.61,4.61,0,0,1-.63-2.36,4.68,4.68,0,0,1,.63-2.38,4.81,4.81,0,0,1,1.72-1.72,4.56,4.56,0,0,1,2.37-.64,4.49,4.49,0,0,1,1.82.37,4.62,4.62,0,0,1,1.52,1L197,359.84a2.64,2.64,0,0,0-.79-.52,2.32,2.32,0,0,0-.94-.19,2.35,2.35,0,0,0-1.22.33,2.5,2.5,0,0,0-.88.89,2.41,2.41,0,0,0-.33,1.23,2.32,2.32,0,0,0,.33,1.21,2.5,2.5,0,0,0,.88.89,2.35,2.35,0,0,0,1.22.33A2.32,2.32,0,0,0,196.19,363.82Z"/><path class="cls-3" d="M208.22,357l3.05,9.26H209l-.6-1.89h-2.9l-.59,1.89h-2.32l3.07-9.26Zm-2.13,5.44h1.67l-.84-2.62Z"/><path class="cls-3" d="M216.68,356.87h2.38v9.35h-2.38l-2.75-5v5h-2.39v-9.35h2.39l2.75,5Z"/><path class="cls-3" d="M224.22,356.84a5.45,5.45,0,0,1,1.41.33,4.23,4.23,0,0,1,1.29.81,4.63,4.63,0,0,1,1.14,1.61,4.76,4.76,0,0,1,.4,1.92,4.65,4.65,0,0,1-.51,2.16,4.27,4.27,0,0,1-1.45,1.65,5.11,5.11,0,0,1-1.9.75,15,15,0,0,1-2.36.17h-2.12v-9.46h2.39A16.65,16.65,0,0,1,224.22,356.84Zm2,4.67a2.45,2.45,0,0,0-.32-1.2,2.56,2.56,0,0,0-.86-.9,2.34,2.34,0,0,0-1.2-.36h-1.3v4.88a10.94,10.94,0,0,0,1.64-.11,2.92,2.92,0,0,0,1.23-.52,2.13,2.13,0,0,0,.74-1.23A2.38,2.38,0,0,0,226.19,361.51Z"/><path class="cls-3" d="M235.6,356.87v9.35h-2.38v-9.35Z"/><path class="cls-3" d="M241.8,356.87h2.38v9.35H241.8l-2.75-5v5h-2.39v-9.35h2.39l2.75,5Z"/><path class="cls-3" d="M250.64,363.82a2.64,2.64,0,0,0,.79-.52l1.61,1.61a4.73,4.73,0,0,1-1.52,1,4.49,4.49,0,0,1-1.82.37,4.71,4.71,0,0,1-4.72-4.72,4.7,4.7,0,0,1,2.35-4.1,4.69,4.69,0,0,1,4.19-.27,4.73,4.73,0,0,1,1.52,1l-1.61,1.61a2.64,2.64,0,0,0-.79-.52,2.42,2.42,0,0,0-2.16.14,2.53,2.53,0,0,0-.89.89,2.41,2.41,0,0,0-.33,1.23,2.32,2.32,0,0,0,.33,1.21,2.53,2.53,0,0,0,.89.89,2.42,2.42,0,0,0,2.16.14Z"/><path class="cls-3" d="M261.46,366.22h-2.39l-1.48-3.53h-1.52v3.53h-2.24v-9.35h4.46a2.88,2.88,0,0,1,1.46.39,2.84,2.84,0,0,1,1.06,1.06,2.88,2.88,0,0,1,.39,1.46,2.77,2.77,0,0,1-.36,1.39,2.93,2.93,0,0,1-1,1.05Zm-2.63-7.12a.83.83,0,0,0-.62-.31H256v2h2.19a.92.92,0,0,0,.62-.32,1,1,0,0,0,.25-.69A1,1,0,0,0,258.83,359.1Z"/><path class="cls-3" d="M268.62,364.19v2h-6.36v-9.35h6.24v2h-3.85v1.64h3.24v2h-3.24v1.64Z"/><path class="cls-3" d="M274.54,357l3.06,9.26h-2.31l-.6-1.89h-2.9l-.59,1.89h-2.32L272,357Zm-2.13,5.44h1.67l-.83-2.62Z"/><path class="cls-3" d="M282.13,359.83v-.17a.86.86,0,0,0-.32-.66,1.2,1.2,0,0,0-.79-.27,1.24,1.24,0,0,0-.81.27.82.82,0,0,0-.34.66.61.61,0,0,0,.34.57,2.94,2.94,0,0,0,.9.37l.21,0,.23.05a4.64,4.64,0,0,1,1.89.78l.12.11a3,3,0,0,1,.63.91,2.66,2.66,0,0,1,.23,1.06,2.63,2.63,0,0,1-.26,1.13,2.89,2.89,0,0,1-.75,1,3.56,3.56,0,0,1-1.11.63,3.89,3.89,0,0,1-2.58,0,3.8,3.8,0,0,1-1.11-.63,3.17,3.17,0,0,1-.75-1,2.49,2.49,0,0,1-.26-1.13v-.18h2.31v.18a.84.84,0,0,0,.32.65,1.19,1.19,0,0,0,.78.27,1.28,1.28,0,0,0,.81-.27.83.83,0,0,0,.34-.65.77.77,0,0,0-.36-.59,1.84,1.84,0,0,0-.37-.19,3.25,3.25,0,0,0-.52-.16l-.43-.11a11,11,0,0,1-1.14-.33,2.42,2.42,0,0,1-.75-.45l-.06-.05a2.82,2.82,0,0,1-.69-.93,2.59,2.59,0,0,1,0-2.22,3.13,3.13,0,0,1,.75-1,3.4,3.4,0,0,1,1.11-.63,3.89,3.89,0,0,1,2.58,0,3.21,3.21,0,0,1,1.11.63,2.85,2.85,0,0,1,.75,1,2.64,2.64,0,0,1,.26,1.14v.17Z"/><path class="cls-3" d="M291.57,364.19v2h-6.36v-9.35h6.24v2H287.6v1.64h3.24v2H287.6v1.64Z"/><path class="cls-3" d="M303.64,356.87v2.38h-2.39v7h-2.39v-7h-2.4v-2.38h7.18Z"/><path class="cls-3" d="M309.62,356.87H312v9.35h-2.38v-3.49H307v3.49h-2.38v-9.35H307v3.48h2.67Z"/><path class="cls-3" d="M319.42,364.19v2h-6.36v-9.35h6.24v2h-3.85v1.64h3.24v2h-3.24v1.64Z"/><path class="cls-3" d="M326.82,364h3.68v2.25h-6.06v-9.35h2.38Z"/><path class="cls-3" d="M337.78,364.19v2h-6.36v-9.35h6.24v2h-3.84v1.64h3.23v2h-3.23v1.64Z"/><path class="cls-3" d="M345,356.84h2.59l-3.05,9.38h-2.91l-3-9.38h2.61l1.89,5.85Z"/><path class="cls-3" d="M354.73,364.19v2h-6.36v-9.35h6.24v2h-3.84v1.64H354v2h-3.24v1.64Z"/><path class="cls-3" d="M358.17,364h3.68v2.25h-6.06v-9.35h2.38Z"/><path class="cls-3" d="M39.23,373.37A4.68,4.68,0,0,1,41,375.1a4.62,4.62,0,0,1,.63,2.37,4.67,4.67,0,0,1-.63,2.37,4.81,4.81,0,0,1-1.72,1.72,4.62,4.62,0,0,1-2.37.63,4.67,4.67,0,0,1-2.37-.63,4.73,4.73,0,0,1-1.72-1.72,4.58,4.58,0,0,1-.64-2.37,4.53,4.53,0,0,1,.64-2.37,4.61,4.61,0,0,1,1.72-1.73,4.67,4.67,0,0,1,2.37-.63A4.62,4.62,0,0,1,39.23,373.37Zm-1.15,6.2a2.5,2.5,0,0,0,.89-.88,2.42,2.42,0,0,0,0-2.44,2.48,2.48,0,0,0-.89-.9,2.35,2.35,0,0,0-1.22-.33,2.38,2.38,0,0,0-1.22.33,2.48,2.48,0,0,0-.89.9,2.42,2.42,0,0,0,0,2.44,2.5,2.5,0,0,0,.89.88,2.38,2.38,0,0,0,1.22.33A2.35,2.35,0,0,0,38.08,379.57Z"/><path class="cls-3" d="M48.88,374.76H44.76v1.64h3.3v2h-3.3v3.66H42.38v-9.34h6.5Z"/><path class="cls-3" d="M60.69,378.14a2.65,2.65,0,0,1,.3,1.25,2.61,2.61,0,0,1-.35,1.34,2.76,2.76,0,0,1-1,1,2.7,2.7,0,0,1-1.36.37H53.64v-9.35h4.25a2.64,2.64,0,0,1,1.36.37,2.9,2.9,0,0,1,1,1,2.66,2.66,0,0,1,.35,1.32,2.71,2.71,0,0,1-.7,1.8A2.63,2.63,0,0,1,60.69,378.14Zm-2.47-3.22a.91.91,0,0,0-.68-.28H55.82v2h1.72a1.42,1.42,0,0,0,.32-.05,1,1,0,0,0,.24-.13,1,1,0,0,0,.3-.36,1,1,0,0,0,.11-.46A1,1,0,0,0,58.22,374.92Zm.4,4.94a.9.9,0,0,0,.27-.7,1,1,0,0,0-.22-.63.93.93,0,0,0-.57-.33c-.05,0-.68,0-1.88,0h-.4v2h2.12A1,1,0,0,0,58.62,379.86Z"/><path class="cls-3" d="M69.42,382.08H67l-1.48-3.53H64v3.53H61.79v-9.34h4.45a2.88,2.88,0,0,1,1.46.39,2.84,2.84,0,0,1,1.06,1.06,2.87,2.87,0,0,1,.39,1.45,2.81,2.81,0,0,1-.36,1.4,2.85,2.85,0,0,1-1,1ZM66.79,375a.91.91,0,0,0-.63-.31H64v2h2.19a1,1,0,0,0,.63-.33,1,1,0,0,0,.25-.68A1,1,0,0,0,66.79,375Z"/><path class="cls-3" d="M75.08,372.83l3,9.25h-2.3l-.61-1.89H72.33l-.6,1.89H69.42l3.06-9.25ZM73,378.26h1.66l-.83-2.62Z"/><path class="cls-3" d="M83.54,372.74h2.38v9.34H83.54l-2.75-5v5h-2.4v-9.34h2.4l2.75,5Z"/><path class="cls-3" d="M91.07,372.7a5.37,5.37,0,0,1,1.41.34,4,4,0,0,1,1.29.81,4.58,4.58,0,0,1,1.15,1.6,5,5,0,0,1,.4,1.93,4.47,4.47,0,0,1-.52,2.15,4.37,4.37,0,0,1-1.44,1.66,5.31,5.31,0,0,1-1.91.74,13.74,13.74,0,0,1-2.36.18H88l-1,0v-9.45h2.39A16.6,16.6,0,0,1,91.07,372.7Zm2,4.68a2.41,2.41,0,0,0-.31-1.2,2.53,2.53,0,0,0-.87-.91,2.37,2.37,0,0,0-1.2-.35H89.37v4.88a9.53,9.53,0,0,0,1.63-.12,2.6,2.6,0,0,0,1.23-.52,2,2,0,0,0,.75-1.23A2.88,2.88,0,0,0,93,377.38Z"/><path class="cls-3" d="M104.94,372.83l3.06,9.25h-2.3l-.61-1.89h-2.9l-.59,1.89H99.28l3.07-9.25Zm-2.12,5.43h1.66l-.83-2.62Z"/><path class="cls-3" d="M115.79,372.74h2.06v9.34h-2.38l-2.41-4-2.42,4h-2.38v-9.34h2.38V378l1.17-2.11.06-.11h2.38l0,.11,1.17,2.11v-5.27Z"/><path class="cls-3" d="M123.77,372.83l3.06,9.25h-2.3l-.61-1.89H121l-.59,1.89h-2.32l3.07-9.25Zm-2.13,5.43h1.67l-.83-2.62Z"/><path class="cls-3" d="M134.72,382.08h-2.39l-1.48-3.53h-1.52v3.53h-2.24v-9.34h4.46a2.9,2.9,0,0,1,2.91,2.9,2.81,2.81,0,0,1-.36,1.4,3,3,0,0,1-1,1ZM132.09,375a.91.91,0,0,0-.62-.31h-2.2v2h2.2a1,1,0,0,0,.62-1.68Z"/><path class="cls-3" d="M141.87,380.06v2h-6.36v-9.34h6.24v2h-3.84v1.64h3.24v2h-3.24v1.64Z"/><path class="cls-3" d="M148.07,372.74h2.38v9.34h-2.38l-2.75-5v5h-2.39v-9.34h2.39l2.75,5Z"/><path class="cls-3" d="M157.87,380.06v2h-6.36v-9.34h6.24v2H153.9v1.64h3.24v2H153.9v1.64Z"/><path class="cls-3" d="M163.2,375.7v-.17a.84.84,0,0,0-.32-.66,1.2,1.2,0,0,0-.79-.27,1.24,1.24,0,0,0-.81.27.81.81,0,0,0-.34.66.59.59,0,0,0,.34.56,2.71,2.71,0,0,0,.9.37l.21,0,.23.06a4.64,4.64,0,0,1,1.89.78l.12.1a3,3,0,0,1,.63.92,2.57,2.57,0,0,1,0,2.19,3,3,0,0,1-.75,1,3.35,3.35,0,0,1-1.11.62,3.89,3.89,0,0,1-2.58,0,3.56,3.56,0,0,1-1.11-.62,3.29,3.29,0,0,1-.75-1,2.51,2.51,0,0,1-.26-1.14v-.17H161v.17a.84.84,0,0,0,.32.66,1.19,1.19,0,0,0,.78.27,1.28,1.28,0,0,0,.81-.27.83.83,0,0,0,.34-.66.77.77,0,0,0-.36-.58,1.86,1.86,0,0,0-.37-.2l-.52-.16-.43-.1a11,11,0,0,1-1.14-.33,2.42,2.42,0,0,1-.75-.45l-.06,0a3,3,0,0,1-.69-.93,2.54,2.54,0,0,1-.24-1.08,2.51,2.51,0,0,1,.26-1.14,3.29,3.29,0,0,1,.75-1,3.56,3.56,0,0,1,1.11-.62,3.89,3.89,0,0,1,2.58,0,3.35,3.35,0,0,1,1.11.62,3,3,0,0,1,.75,1,2.64,2.64,0,0,1,.26,1.14v.17Z"/><path class="cls-3" d="M170.55,375.7v-.17a.84.84,0,0,0-.32-.66,1.2,1.2,0,0,0-.79-.27,1.24,1.24,0,0,0-.81.27.81.81,0,0,0-.34.66.61.61,0,0,0,.34.56,2.71,2.71,0,0,0,.9.37l.21,0,.23.06a4.64,4.64,0,0,1,1.89.78l.12.1a3,3,0,0,1,.63.92,2.57,2.57,0,0,1,0,2.19,3,3,0,0,1-.75,1,3.35,3.35,0,0,1-1.11.62,3.89,3.89,0,0,1-2.58,0,3.56,3.56,0,0,1-1.11-.62,3.29,3.29,0,0,1-.75-1,2.51,2.51,0,0,1-.26-1.14v-.17h2.31v.17a.84.84,0,0,0,.32.66,1.19,1.19,0,0,0,.78.27,1.24,1.24,0,0,0,.81-.27.81.81,0,0,0,.34-.66.77.77,0,0,0-.36-.58,1.61,1.61,0,0,0-.37-.2l-.52-.16-.43-.1a11,11,0,0,1-1.14-.33,2.42,2.42,0,0,1-.75-.45l0,0a3.08,3.08,0,0,1-.7-.93,2.54,2.54,0,0,1-.24-1.08,2.51,2.51,0,0,1,.26-1.14,3.29,3.29,0,0,1,.75-1,3.56,3.56,0,0,1,1.11-.62,3.89,3.89,0,0,1,2.58,0,3.35,3.35,0,0,1,1.11.62,3,3,0,0,1,.75,1,2.64,2.64,0,0,1,.26,1.14v.17Z"/><path class="cls-3" d="M173.72,381.7a1.33,1.33,0,0,1-.35-.91,1.16,1.16,0,0,1,.36-.86,1.19,1.19,0,0,1,.87-.36,1.22,1.22,0,0,1,.88.37,1.2,1.2,0,0,1,.37.89,1.26,1.26,0,0,1-1.25,1.25A1.14,1.14,0,0,1,173.72,381.7Z"/><path d="M44.05,250.72h3.12v14.14h-3.6l-3.64-6-3.66,6h-3.6V250.72h3.6v8L38,255.5l.1-.16h3.6l.08.16,1.76,3.2v-8Z"/><path d="M56.41,250.72H60v14.14h-3.6v-5.28h-4v5.28h-3.6V250.72h3.6V256h4Z"/><path d="M69,250.86l4.62,14H70.11L69.19,262H64.81l-.9,2.86h-3.5l4.64-14Zm-3.22,8.22h2.52l-1.26-4Z"/><path d="M84.65,250.72v3.6H81v10.54H77.41V254.32H73.79v-3.6H84.65Z"/><path d="M95.65,250.72v14.14h-3.6V250.72Z"/><path d="M107.91,250.72v3.6h-3.62v10.54h-3.62V254.32H97.05v-3.6h10.86Z"/><path d="M118.91,250.72v14.14h-3.6V250.72Z"/><path d="M127,255.2v-.26a1.26,1.26,0,0,0-.49-1,1.83,1.83,0,0,0-1.19-.41,1.92,1.92,0,0,0-1.23.41,1.22,1.22,0,0,0-.51,1,.91.91,0,0,0,.52.86,4.25,4.25,0,0,0,1.36.56l.31.06.35.08a7,7,0,0,1,2.86,1.18l.18.16a4.47,4.47,0,0,1,1,1.38,4,4,0,0,1,.35,1.6,4,4,0,0,1-.39,1.72,4.5,4.5,0,0,1-1.13,1.46,5.57,5.57,0,0,1-1.68.95,5.89,5.89,0,0,1-2,.33,5.79,5.79,0,0,1-2-.33,5.41,5.41,0,0,1-1.67-.95,4.4,4.4,0,0,1-1.14-1.46,3.84,3.84,0,0,1-.4-1.72v-.26h3.5v.26a1.23,1.23,0,0,0,.49,1,1.76,1.76,0,0,0,1.17.41,1.92,1.92,0,0,0,1.23-.41,1.22,1.22,0,0,0,.51-1,1.15,1.15,0,0,0-.54-.88,2.29,2.29,0,0,0-.56-.3q-.33-.12-.78-.24l-.66-.16c-.74-.19-1.31-.35-1.72-.5a3.33,3.33,0,0,1-1.14-.68l-.08-.08a4.26,4.26,0,0,1-1-1.4,3.74,3.74,0,0,1-.37-1.64,3.84,3.84,0,0,1,.4-1.72,4.4,4.4,0,0,1,1.14-1.46,5.41,5.41,0,0,1,1.67-.95,5.79,5.79,0,0,1,2-.33,5.89,5.89,0,0,1,2,.33,5.57,5.57,0,0,1,1.68.95,4.5,4.5,0,0,1,1.13,1.46,4,4,0,0,1,.39,1.72v.26Z"/><path d="M149.13,250.74v8.74a5.44,5.44,0,0,1-.75,2.8,5.59,5.59,0,0,1-2,2,5.5,5.5,0,0,1-2.81.75h-.32a5.41,5.41,0,0,1-2.8-.75,5.57,5.57,0,0,1-2-2,5.44,5.44,0,0,1-.75-2.8v-8.74H141v7.94a3.4,3.4,0,0,0,.6,2.06,1.91,1.91,0,0,0,1.64.82h.32a2,2,0,0,0,1.63-.83,3.29,3.29,0,0,0,.63-2.05v-7.94Z"/><path d="M157.19,255.2v-.26a1.26,1.26,0,0,0-.49-1,1.83,1.83,0,0,0-1.19-.41,1.92,1.92,0,0,0-1.23.41,1.22,1.22,0,0,0-.51,1,.91.91,0,0,0,.52.86,4.25,4.25,0,0,0,1.36.56l.31.06.35.08a7,7,0,0,1,2.86,1.18l.18.16a4.47,4.47,0,0,1,1,1.38,4,4,0,0,1,.35,1.6,4,4,0,0,1-.39,1.72,4.5,4.5,0,0,1-1.13,1.46,5.57,5.57,0,0,1-1.68.95,5.89,5.89,0,0,1-2,.33,5.79,5.79,0,0,1-2-.33,5.41,5.41,0,0,1-1.67-.95,4.4,4.4,0,0,1-1.14-1.46,3.84,3.84,0,0,1-.4-1.72v-.26h3.5v.26a1.23,1.23,0,0,0,.49,1,1.76,1.76,0,0,0,1.17.41,1.92,1.92,0,0,0,1.23-.41,1.22,1.22,0,0,0,.51-1,1.15,1.15,0,0,0-.54-.88,2.29,2.29,0,0,0-.56-.3q-.33-.12-.78-.24l-.66-.16c-.74-.19-1.31-.35-1.72-.5a3.33,3.33,0,0,1-1.14-.68l-.08-.08a4.26,4.26,0,0,1-1.05-1.4,3.74,3.74,0,0,1-.37-1.64,3.84,3.84,0,0,1,.4-1.72,4.4,4.4,0,0,1,1.14-1.46,5.41,5.41,0,0,1,1.67-.95,5.79,5.79,0,0,1,2-.33,5.89,5.89,0,0,1,2,.33,5.57,5.57,0,0,1,1.68.95,4.5,4.5,0,0,1,1.13,1.46,4,4,0,0,1,.39,1.72v.26Z"/><path d="M171.47,261.8v3.06h-9.62V250.72h9.44v3.06h-5.82v2.48h4.9v3.06h-4.9v2.48Z"/><path d="M179.27,250.67a8.07,8.07,0,0,1,2.13.51,6.12,6.12,0,0,1,1.95,1.22,7.15,7.15,0,0,1,1.73,2.43,7.37,7.37,0,0,1,.61,2.91,6.88,6.88,0,0,1-.78,3.26,6.57,6.57,0,0,1-2.19,2.5,7.78,7.78,0,0,1-2.88,1.13,21.1,21.1,0,0,1-3.57.27l-1.64,0-1.56,0v-14.3h3.62C177.69,250.56,178.55,250.6,179.27,250.67Zm3,7.07a3.63,3.63,0,0,0-.48-1.81,3.82,3.82,0,0,0-1.31-1.37,3.45,3.45,0,0,0-1.81-.54h-2v7.38a15.85,15.85,0,0,0,2.47-.17,4.27,4.27,0,0,0,1.86-.79,3.14,3.14,0,0,0,1.13-1.86A4.54,4.54,0,0,0,182.25,257.74Z"/><path d="M202.73,253.78h-6.24v2.48h5v3.06h-5v5.54h-3.6V250.72h9.84Z"/><path d="M214.27,251.68a7.17,7.17,0,0,1,3.56,6.2,7.06,7.06,0,0,1-1,3.58,7.2,7.2,0,0,1-2.6,2.6,7.17,7.17,0,0,1-7.17,0,7.15,7.15,0,0,1-2.61-2.6,7.17,7.17,0,0,1,0-7.17,7.1,7.1,0,0,1,2.61-2.61,7.17,7.17,0,0,1,7.17,0Zm-1.74,9.38a3.91,3.91,0,0,0,1.34-1.34,3.55,3.55,0,0,0,.5-1.84,3.62,3.62,0,0,0-.5-1.85,3.85,3.85,0,0,0-1.34-1.35,3.61,3.61,0,0,0-1.84-.5,3.65,3.65,0,0,0-1.86.5,3.69,3.69,0,0,0-1.34,1.35,3.52,3.52,0,0,0-.5,1.85,3.46,3.46,0,0,0,.5,1.84,3.74,3.74,0,0,0,1.34,1.34,3.65,3.65,0,0,0,1.86.5A3.61,3.61,0,0,0,212.53,261.06Z"/><path d="M230.56,264.86H227l-2.24-5.34h-2.3v5.34H219V250.72h6.74a4.32,4.32,0,0,1,2.2.59,4.39,4.39,0,0,1,1.62,1.61,4.39,4.39,0,0,1,0,4.31,4.64,4.64,0,0,1-1.46,1.59Zm-4-10.77a1.32,1.32,0,0,0-.94-.47h-3.31v3h3.31a1.38,1.38,0,0,0,.94-.49,1.48,1.48,0,0,0,.38-1A1.45,1.45,0,0,0,226.58,254.09Z"/><path d="M232.36,258.16a1.83,1.83,0,0,1-.5-1.16,1.62,1.62,0,0,1,1.62-1.66,1.62,1.62,0,0,1,1.66,1.66,1.56,1.56,0,0,1-.49,1.16,1.59,1.59,0,0,1-1.17.48A1.5,1.5,0,0,1,232.36,258.16Zm0,6.22a1.83,1.83,0,0,1-.5-1.16,1.62,1.62,0,0,1,1.62-1.66,1.62,1.62,0,0,1,1.66,1.66,1.56,1.56,0,0,1-.49,1.16,1.59,1.59,0,0,1-1.17.48A1.5,1.5,0,0,1,232.36,264.38Z"/><path class="cls-4" d="M41.55,39.24V70.35H33.63V39.24Z"/><path class="cls-4" d="M62.18,39.24H70.1V70.35H62.18L53,53.68V70.35h-8V39.24h8l9.15,16.68Z"/><path class="cls-4" d="M95.27,46H81.54v5.45h11v6.73h-11V70.35H73.62V39.24H95.27Z"/><path class="cls-4" d="M105.83,62.87h12.23v7.48H97.91V39.24h7.92Z"/><path class="cls-4" d="M146.44,39.29V58.52a12,12,0,0,1-1.65,6.16,12.23,12.23,0,0,1-4.49,4.46,12.07,12.07,0,0,1-6.18,1.65h-.7a12,12,0,0,1-6.16-1.65,12.33,12.33,0,0,1-4.47-4.46,12,12,0,0,1-1.65-6.16V39.29h7.35V56.76a7.46,7.46,0,0,0,1.32,4.53,4.23,4.23,0,0,0,3.61,1.8h.7a4.33,4.33,0,0,0,3.59-1.82,7.27,7.27,0,0,0,1.38-4.51V39.29Z"/><path class="cls-4" d="M171.13,63.62v6.73H150V39.24h20.77V46h-12.8v5.45h10.78v6.73H157.93v5.46Z"/><path class="cls-4" d="M191.76,39.24h7.92V70.35h-7.92l-9.15-16.67V70.35h-8V39.24h8l9.15,16.68Z"/><path class="cls-4" d="M221.15,62.37a8.78,8.78,0,0,0,2.64-1.74L229.16,66a16,16,0,0,1-5.06,3.41A15.55,15.55,0,0,1,218,70.62a15.32,15.32,0,0,1-7.88-2.12,15.69,15.69,0,0,1-5.72-5.72,15.79,15.79,0,0,1,0-15.77,15.74,15.74,0,0,1,5.72-5.74,15.8,15.8,0,0,1,13.95-.9,15.63,15.63,0,0,1,5.06,3.41l-5.37,5.36a8.57,8.57,0,0,0-2.64-1.73,8,8,0,0,0-7.17.46,8.31,8.31,0,0,0-2.95,3A8,8,0,0,0,211,59,8.39,8.39,0,0,0,214,61.9,7.7,7.7,0,0,0,218,63,7.94,7.94,0,0,0,221.15,62.37Z"/><path class="cls-4" d="M253,63.62v6.73H231.8V39.24h20.77V46h-12.8v5.45h10.78v6.73H239.77v5.46Z"/><path class="cls-4" d="M281.87,70.35h-8L269,58.6h-5.06V70.35h-7.44V39.24h14.83A9.69,9.69,0,0,1,281,48.92a9.43,9.43,0,0,1-1.18,4.65,10.07,10.07,0,0,1-3.22,3.49Zm-8.75-23.69a3,3,0,0,0-2.07-1h-7.31v6.6h7.31a3.09,3.09,0,0,0,2.07-1.07,3.34,3.34,0,0,0,.83-2.27A3.27,3.27,0,0,0,273.12,46.66Z"/><path class="cls-4" d="M298.72,49.1v-.57a2.77,2.77,0,0,0-1.07-2.18,4,4,0,0,0-2.62-.9,4.2,4.2,0,0,0-2.71.9,2.71,2.71,0,0,0-1.12,2.18,2,2,0,0,0,1.14,1.89,9.51,9.51,0,0,0,3,1.23l.68.13.77.18c3.14.76,5.23,1.63,6.29,2.6l.4.35a9.54,9.54,0,0,1,2.09,3,8.61,8.61,0,0,1-.09,7.31A9.75,9.75,0,0,1,303,68.46a11.58,11.58,0,0,1-3.69,2.09,13.06,13.06,0,0,1-4.32.73,12.89,12.89,0,0,1-4.29-.73A11.7,11.7,0,0,1,287,68.46a10.23,10.23,0,0,1-2.51-3.21,8.63,8.63,0,0,1-.88-3.79v-.57h7.7v.57a2.75,2.75,0,0,0,1.08,2.18,3.89,3.89,0,0,0,2.57.9,4.2,4.2,0,0,0,2.71-.9,2.71,2.71,0,0,0,1.12-2.18,2.51,2.51,0,0,0-1.19-1.93,4.51,4.51,0,0,0-1.23-.66c-.47-.18-1-.35-1.71-.53L293.22,58c-1.61-.41-2.87-.78-3.78-1.1a7.45,7.45,0,0,1-2.51-1.5l-.17-.17a9.86,9.86,0,0,1-2.31-3.08,8.25,8.25,0,0,1-.82-3.61,8.67,8.67,0,0,1,.88-3.79A10.23,10.23,0,0,1,287,41.53a11.9,11.9,0,0,1,3.67-2.09,12.88,12.88,0,0,1,4.29-.72,13.06,13.06,0,0,1,4.32.72A11.77,11.77,0,0,1,303,41.53a9.75,9.75,0,0,1,2.49,3.21,8.79,8.79,0,0,1,.86,3.79v.57Z"/><path d="M102.37,233.13h199.3a3,3,0,0,0,3-3.29l-1.1-13a5,5,0,0,1,0-.67L308,101a3,3,0,0,0-3-3.15l-201.4-1.49a5.45,5.45,0,0,0-5.48,5.56l2.16,111.59v3l.41,14.94A1.73,1.73,0,0,0,102.37,233.13Z"/><path class="cls-5" d="M113.18,207.31h178a7.43,7.43,0,0,0,7.43-7.29l1.65-86.21a7.43,7.43,0,0,0-7.53-7.57l-179.63,2.33a7.44,7.44,0,0,0-7.34,7.44v83.87A7.43,7.43,0,0,0,113.18,207.31Z"/><rect x="101.62" y="215.26" width="200.54" height="1.24" transform="translate(403.79 431.76) rotate(180)"/><rect class="cls-3" x="131.51" y="217.16" width="0.42" height="15.97" transform="translate(263.43 450.29) rotate(180)"/><path class="cls-3" d="M120.53,225l-3.47-2-3.46-2a.19.19,0,0,0-.28.16v8a.19.19,0,0,0,.28.16l3.46-2,3.47-2A.19.19,0,0,0,120.53,225Z"/><polygon class="cls-3" points="294.97 223.74 294.11 223.74 294.11 221.98 292.13 221.98 292.13 221.12 294.97 221.12 294.97 223.74"/><polygon class="cls-3" points="290.01 228.8 287.25 228.8 287.25 226.06 288.11 226.06 288.11 227.94 290.01 227.94 290.01 228.8"/><polygon class="cls-3" points="294.95 228.82 292.33 228.82 292.33 227.96 294.09 227.96 294.09 225.98 294.95 225.98 294.95 228.82"/><polygon class="cls-3" points="288.13 223.86 287.27 223.86 287.27 221.1 290.01 221.1 290.01 221.96 288.13 221.96 288.13 223.86"/><polygon class="cls-3" points="274.18 223.55 274.18 226.39 276.06 226.39 278.47 228.81 278.47 221.13 276.06 223.55 274.18 223.55"/><path class="cls-3" d="M279.32,222.33v.6a2.13,2.13,0,0,1,0,4.08v.6a2.71,2.71,0,0,0,0-5.28Z"/><path class="cls-3" d="M279.32,223.65v.3a1.07,1.07,0,0,1,0,2v.3a1.36,1.36,0,0,0,0-2.64Z"/><path class="cls-3" d="M248.64,141.4a1.44,1.44,0,0,1,0-.23C248.71,141.38,248.68,141.42,248.64,141.4Z"/><rect class="cls-6" x="158.7" y="213.48" width="144.87" height="3.02"/><rect class="cls-3" x="100.23" y="213.48" width="58.47" height="3.02"/><g class="cls-7"><path class="cls-3" d="M246.36,171a25.28,25.28,0,1,0-27.21,0,38.2,38.2,0,0,0-24.52,35.62c0,27,5.56,12.41,12.41,12.41h51.43c6.85,0,12.41,15.73,12.41-12.41A38.2,38.2,0,0,0,246.36,171Z"/></g></svg>