<svg id="Слой_1" data-name="Слой 1" xmlns="http://www.w3.org/2000/svg" viewBox="0 0 405 405"><defs><style>.cls-1{fill:#fff;}.cls-2{fill:#e7335d;}</style></defs><rect class="cls-1" width="405" height="405"/><path d="M34.91,95.45v9.9H32.39v-9.9Z"/><path d="M42.3,95.87A3.08,3.08,0,0,1,43.42,97a3,3,0,0,1,.41,1.54,3.06,3.06,0,0,1-1.53,2.67,3,3,0,0,1-1.55.41H38.4v3.74H36v-9.9h4.72A3,3,0,0,1,42.3,95.87Zm-1,1.94a1,1,0,0,0-.66-.33H38.34v2.1h2.33a.9.9,0,0,0,.66-.34,1.09,1.09,0,0,0,.28-.72A1,1,0,0,0,41.33,97.81Z"/><path d="M49.19,98.59v-.18a.86.86,0,0,0-.34-.69,1.22,1.22,0,0,0-.83-.29,1.26,1.26,0,0,0-.86.29.85.85,0,0,0-.36.69.64.64,0,0,0,.36.6,3,3,0,0,0,1,.39l.21,0,.25.06a4.78,4.78,0,0,1,2,.83l.13.11a3.1,3.1,0,0,1,.66,1,2.88,2.88,0,0,1,.25,1.12,2.82,2.82,0,0,1-.28,1.21,3.06,3.06,0,0,1-.79,1,3.88,3.88,0,0,1-1.17.67,4.25,4.25,0,0,1-1.38.23,4.13,4.13,0,0,1-1.36-.23,3.76,3.76,0,0,1-1.17-.67,3.23,3.23,0,0,1-.8-1,2.69,2.69,0,0,1-.28-1.21v-.18h2.45v.18a.9.9,0,0,0,.34.7,1.26,1.26,0,0,0,.82.28,1.31,1.31,0,0,0,.86-.28.86.86,0,0,0,.36-.7.8.8,0,0,0-.38-.61,1.22,1.22,0,0,0-.39-.21,5.31,5.31,0,0,0-.55-.17l-.46-.11c-.51-.13-.91-.25-1.2-.35a2.28,2.28,0,0,1-.8-.48l-.06,0a3.26,3.26,0,0,1-.73-1,2.71,2.71,0,0,1,0-2.36,3.23,3.23,0,0,1,.8-1,3.55,3.55,0,0,1,1.17-.66A3.89,3.89,0,0,1,48,95.29a4,4,0,0,1,1.38.23,3.65,3.65,0,0,1,1.17.66,3.06,3.06,0,0,1,.79,1,2.86,2.86,0,0,1,.28,1.21v.18Z"/><path d="M57.61,95.55l3.23,9.8H58.4l-.64-2H54.7l-.64,2H51.62l3.24-9.8Zm-2.26,5.76h1.77l-.89-2.78Z"/><path class="cls-2" d="M44.12,41.71h3.12V55.85h-3.6l-3.64-6-3.66,6h-3.6V41.71h3.6v8l1.76-3.2.1-.16h3.6l.08.16,1.76,3.2v-8Z"/><path class="cls-2" d="M56.48,41.71h3.6V55.85h-3.6V50.57h-4v5.28h-3.6V41.71h3.6V47h4Z"/><path class="cls-2" d="M69,41.85l4.62,14H70.18L69.26,53H64.88L64,55.85h-3.5l4.64-14Zm-3.22,8.22h2.52l-1.26-4Z"/><path class="cls-2" d="M84.72,41.71v3.6H81.1V55.85H77.48V45.31H73.86v-3.6H84.72Z"/><path class="cls-2" d="M95.72,41.71V55.85h-3.6V41.71Z"/><path class="cls-2" d="M103.78,46.19v-.26a1.23,1.23,0,0,0-.49-1,1.76,1.76,0,0,0-1.19-.41,1.87,1.87,0,0,0-1.23.41,1.22,1.22,0,0,0-.51,1,.92.92,0,0,0,.52.86,4.6,4.6,0,0,0,1.36.56l.31.06.35.08a6.82,6.82,0,0,1,2.86,1.18l.18.16a4.1,4.1,0,0,1,1,1.38,3.91,3.91,0,0,1,0,3.32A4.6,4.6,0,0,1,105.72,55a5.34,5.34,0,0,1-1.68.95,5.89,5.89,0,0,1-2,.33,5.79,5.79,0,0,1-2-.33A5.41,5.41,0,0,1,98.46,55a4.79,4.79,0,0,1-1.14-1.46,3.84,3.84,0,0,1-.4-1.72v-.26h3.5v.26a1.26,1.26,0,0,0,.49,1,1.79,1.79,0,0,0,1.17.41,1.92,1.92,0,0,0,1.23-.41,1.25,1.25,0,0,0,.51-1,1.15,1.15,0,0,0-.54-.88,2.29,2.29,0,0,0-.56-.3,7.5,7.5,0,0,0-.78-.24l-.66-.16c-.73-.19-1.31-.36-1.72-.5a3.71,3.71,0,0,1-1.14-.68L98.34,49a4.68,4.68,0,0,1-1-1.4,3.74,3.74,0,0,1-.37-1.64,3.81,3.81,0,0,1,.4-1.72,4.56,4.56,0,0,1,1.14-1.46,5.21,5.21,0,0,1,1.67-1,5.79,5.79,0,0,1,2-.33,5.89,5.89,0,0,1,2,.33,5.15,5.15,0,0,1,1.68,1,4.39,4.39,0,0,1,1.13,1.46,3.94,3.94,0,0,1,.39,1.72v.26Z"/><path class="cls-2" d="M118,41.71V55.85h-3.6V41.71Z"/><path class="cls-2" d="M127.42,41.71H131V55.85h-3.6l-4.16-7.58v7.58h-3.62V41.71h3.62l4.16,7.58Z"/><path class="cls-2" d="M140.78,52.22a4.24,4.24,0,0,0,1.2-.79l2.44,2.44a7.35,7.35,0,0,1-2.3,1.55,7.15,7.15,0,0,1-2.76.55,7,7,0,0,1-3.58-1,7.2,7.2,0,0,1-2.6-2.6,7.17,7.17,0,0,1,0-7.17,7.15,7.15,0,0,1,2.6-2.61,7.13,7.13,0,0,1,8.64,1.14L142,46.21a3.85,3.85,0,0,0-1.2-.79,3.63,3.63,0,0,0-3.26.21A3.69,3.69,0,0,0,136.18,47a3.65,3.65,0,0,0,0,3.69A3.82,3.82,0,0,0,137.52,52a3.55,3.55,0,0,0,1.84.5A3.64,3.64,0,0,0,140.78,52.22Z"/><path class="cls-2" d="M149.22,52.45h5.56v3.4h-9.16V41.71h3.6Z"/><path class="cls-2" d="M167.68,41.73v8.74a5.47,5.47,0,0,1-.75,2.8,5.59,5.59,0,0,1-2,2,5.5,5.5,0,0,1-2.81.75h-.32a5.44,5.44,0,0,1-2.8-.75,5.64,5.64,0,0,1-2-2,5.47,5.47,0,0,1-.75-2.8V41.73h3.34v7.94a3.42,3.42,0,0,0,.6,2.06,1.94,1.94,0,0,0,1.64.82h.32a2,2,0,0,0,1.63-.83,3.31,3.31,0,0,0,.63-2V41.73Z"/><path class="cls-2" d="M175.48,41.66a8.07,8.07,0,0,1,2.13.51,6,6,0,0,1,1.95,1.22,7,7,0,0,1,1.73,2.43,7.2,7.2,0,0,1,.61,2.91,6.91,6.91,0,0,1-.78,3.26,6.48,6.48,0,0,1-2.19,2.5,7.78,7.78,0,0,1-2.88,1.13,20.94,20.94,0,0,1-3.57.27l-1.64,0c-.35,0-.87,0-1.56,0V41.55h3.62A24.06,24.06,0,0,1,175.48,41.66Zm3,7.07a3.61,3.61,0,0,0-.48-1.81,3.74,3.74,0,0,0-1.31-1.37,3.42,3.42,0,0,0-1.81-.54h-2v7.38a15.85,15.85,0,0,0,2.47-.17,4.29,4.29,0,0,0,1.86-.79,3.2,3.2,0,0,0,1.13-1.86A3.82,3.82,0,0,0,178.46,48.73Z"/><path class="cls-2" d="M192.72,52.79v3.06H183.1V41.71h9.44v3.06h-5.82v2.48h4.9v3.06h-4.9v2.48Z"/><path class="cls-2" d="M200.52,41.66a8.07,8.07,0,0,1,2.13.51,6,6,0,0,1,1.95,1.22,7,7,0,0,1,1.73,2.43,7.2,7.2,0,0,1,.61,2.91,6.91,6.91,0,0,1-.78,3.26,6.48,6.48,0,0,1-2.19,2.5,7.78,7.78,0,0,1-2.88,1.13,20.94,20.94,0,0,1-3.57.27l-1.64,0c-.35,0-.87,0-1.56,0V41.55h3.62A24.06,24.06,0,0,1,200.52,41.66Zm3,7.07a3.61,3.61,0,0,0-.48-1.81,3.74,3.74,0,0,0-1.31-1.37A3.42,3.42,0,0,0,199.9,45h-2v7.38a15.85,15.85,0,0,0,2.47-.17,4.29,4.29,0,0,0,1.86-.79,3.2,3.2,0,0,0,1.13-1.86A3.82,3.82,0,0,0,203.5,48.73Z"/><path class="cls-2" d="M36.34,65.71V79.85h-3.6V65.71Z"/><path class="cls-2" d="M45.72,65.71h3.6V79.85h-3.6l-4.16-7.58v7.58H37.94V65.71h3.62l4.16,7.58Z"/><path class="cls-2" d="M67.58,65.71v3.6H64V79.85H60.34V69.31H56.72v-3.6H67.58Z"/><path class="cls-2" d="M76.62,65.71h3.6V79.85h-3.6V74.57h-4v5.28H69V65.71h3.6V71h4Z"/><path class="cls-2" d="M91.44,76.79v3.06H81.82V65.71h9.44v3.06H85.44v2.48h4.9v3.06h-4.9v2.48Z"/><path class="cls-2" d="M105.5,70.19v-.26a1.23,1.23,0,0,0-.49-1,1.76,1.76,0,0,0-1.19-.41,1.87,1.87,0,0,0-1.23.41,1.22,1.22,0,0,0-.51,1,.92.92,0,0,0,.52.86,4.6,4.6,0,0,0,1.36.56l.31.06.35.08a6.82,6.82,0,0,1,2.86,1.18l.18.16a4.1,4.1,0,0,1,1,1.38,3.91,3.91,0,0,1,0,3.32A4.6,4.6,0,0,1,107.44,79a5.34,5.34,0,0,1-1.68,1,5.89,5.89,0,0,1-2,.33,5.79,5.79,0,0,1-2-.33,5.41,5.41,0,0,1-1.67-1A4.79,4.79,0,0,1,99,77.53a3.84,3.84,0,0,1-.4-1.72v-.26h3.5v.26a1.26,1.26,0,0,0,.49,1,1.79,1.79,0,0,0,1.17.41A1.92,1.92,0,0,0,105,76.8a1.25,1.25,0,0,0,.51-1,1.15,1.15,0,0,0-.54-.88,2.29,2.29,0,0,0-.56-.3,7.5,7.5,0,0,0-.78-.24l-.66-.16c-.73-.19-1.31-.36-1.72-.5a3.71,3.71,0,0,1-1.14-.68l-.08-.08a4.68,4.68,0,0,1-1-1.4,3.74,3.74,0,0,1-.37-1.64,3.81,3.81,0,0,1,.4-1.72,4.56,4.56,0,0,1,1.14-1.46,5.21,5.21,0,0,1,1.67-1,5.79,5.79,0,0,1,2-.33,5.89,5.89,0,0,1,2,.33,5.15,5.15,0,0,1,1.68,1,4.39,4.39,0,0,1,1.13,1.46,3.94,3.94,0,0,1,.39,1.72v.26Z"/><path class="cls-2" d="M119.78,76.79v3.06h-9.62V65.71h9.44v3.06h-5.82v2.48h4.9v3.06h-4.9v2.48Z"/><path class="cls-2" d="M132.92,79.85H129.3l-2.24-5.34h-2.3v5.34h-3.38V65.71h6.74a4.25,4.25,0,0,1,2.2.59,4.29,4.29,0,0,1,1.61,1.61,4.34,4.34,0,0,1,.59,2.2,4.28,4.28,0,0,1-.54,2.11,4.73,4.73,0,0,1-1.46,1.59Zm-4-10.77a1.3,1.3,0,0,0-.94-.47h-3.32v3H128a1.45,1.45,0,0,0,.94-.49,1.52,1.52,0,0,0,.38-1A1.47,1.47,0,0,0,128.94,69.08Z"/><path class="cls-2" d="M143.42,65.67h3.92l-4.62,14.18h-4.4l-4.6-14.18h4l2.86,8.84Z"/><path class="cls-2" d="M152.14,65.71V79.85h-3.6V65.71Z"/><path class="cls-2" d="M161.9,76.22a4.24,4.24,0,0,0,1.2-.79l2.44,2.44a7.35,7.35,0,0,1-2.3,1.55,7.15,7.15,0,0,1-2.76.55,7,7,0,0,1-3.58-1,7.2,7.2,0,0,1-2.6-2.6,7.17,7.17,0,0,1,0-7.17,7.15,7.15,0,0,1,2.6-2.61,7.13,7.13,0,0,1,8.64,1.14l-2.44,2.44a3.85,3.85,0,0,0-1.2-.79,3.63,3.63,0,0,0-3.26.21A3.69,3.69,0,0,0,157.3,71a3.65,3.65,0,0,0,0,3.69A3.82,3.82,0,0,0,158.64,76a3.55,3.55,0,0,0,1.84.5A3.64,3.64,0,0,0,161.9,76.22Z"/><path class="cls-2" d="M176.36,76.79v3.06h-9.62V65.71h9.44v3.06h-5.82v2.48h4.9v3.06h-4.9v2.48Z"/><path class="cls-2" d="M178.56,73.15a1.78,1.78,0,0,1-.5-1.16,1.54,1.54,0,0,1,.46-1.17,1.56,1.56,0,0,1,1.16-.49A1.64,1.64,0,0,1,181.34,72a1.56,1.56,0,0,1-.49,1.16,1.62,1.62,0,0,1-1.17.48A1.5,1.5,0,0,1,178.56,73.15Zm0,6.22a1.78,1.78,0,0,1-.5-1.16,1.54,1.54,0,0,1,.46-1.17,1.56,1.56,0,0,1,1.16-.49,1.64,1.64,0,0,1,1.66,1.66,1.56,1.56,0,0,1-.49,1.16,1.62,1.62,0,0,1-1.17.48A1.5,1.5,0,0,1,178.56,79.37Z"/><path d="M34.47,317.32v8.48H32.31v-8.48Z"/><path d="M40.8,317.67A2.65,2.65,0,0,1,42.12,320a2.52,2.52,0,0,1-.36,1.32,2.46,2.46,0,0,1-1,1,2.52,2.52,0,0,1-1.32.36h-2v3.2h-2v-8.48h4A2.61,2.61,0,0,1,40.8,317.67ZM40,319.34a.78.78,0,0,0-.56-.28h-2v1.8h2a.81.81,0,0,0,.56-.3.89.89,0,0,0,.24-.61A.85.85,0,0,0,40,319.34Z"/><path d="M46.71,320v-.16a.72.72,0,0,0-.29-.59,1.06,1.06,0,0,0-.71-.25,1.11,1.11,0,0,0-.74.25.72.72,0,0,0-.31.59.56.56,0,0,0,.31.52,2.9,2.9,0,0,0,.82.33l.18,0,.22.05a4.13,4.13,0,0,1,1.71.7l.11.1a2.56,2.56,0,0,1,.57.83,2.38,2.38,0,0,1,.21,1,2.32,2.32,0,0,1-.24,1,2.68,2.68,0,0,1-.67.88,3.71,3.71,0,0,1-1,.57,3.6,3.6,0,0,1-1.18.19,3.54,3.54,0,0,1-1.17-.19,3.66,3.66,0,0,1-1-.57,2.71,2.71,0,0,1-.68-.88,2.32,2.32,0,0,1-.24-1v-.16h2.1v.16A.72.72,0,0,0,45,324a1,1,0,0,0,.7.25,1.11,1.11,0,0,0,.74-.25.74.74,0,0,0,.31-.59.69.69,0,0,0-.33-.53,1.29,1.29,0,0,0-.33-.18,3.35,3.35,0,0,0-.47-.14l-.4-.1c-.44-.11-.78-.21-1-.3a2,2,0,0,1-.68-.41l0-.05a2.58,2.58,0,0,1-.63-.84,2.23,2.23,0,0,1-.22-1,2.32,2.32,0,0,1,.24-1,2.71,2.71,0,0,1,.68-.88,3.21,3.21,0,0,1,1-.57,3.55,3.55,0,0,1,1.17-.2,3.61,3.61,0,0,1,1.18.2,3.25,3.25,0,0,1,1,.57,2.68,2.68,0,0,1,.67.88,2.32,2.32,0,0,1,.24,1V320Z"/><path d="M53.92,317.4l2.78,8.4H54.61l-.55-1.71H51.43l-.54,1.71h-2.1l2.78-8.4ZM52,322.33H53.5L52.75,320Z"/><path class="cls-2" d="M44.12,266h3.12v14.14h-3.6l-3.64-6-3.66,6h-3.6V266h3.6v8l1.76-3.2.1-.16h3.6l.08.16,1.76,3.2v-8Z"/><path class="cls-2" d="M56.48,266h3.6v14.14h-3.6v-5.28h-4v5.28h-3.6V266h3.6v5.26h4Z"/><path class="cls-2" d="M71.3,277.1v3.06H61.68V266h9.44v3.06H65.3v2.48h4.9v3.06H65.3v2.48Z"/><path class="cls-2" d="M84.44,280.16H80.82l-2.24-5.34h-2.3v5.34H72.9V266h6.74a4.34,4.34,0,0,1,2.2.59,4.29,4.29,0,0,1,1.61,1.61,4.39,4.39,0,0,1,0,4.31A4.46,4.46,0,0,1,82,274.12Zm-4-10.77a1.34,1.34,0,0,0-.94-.47H76.2v3h3.32a1.4,1.4,0,0,0,.94-.49,1.52,1.52,0,0,0,.38-1A1.49,1.49,0,0,0,80.46,269.39Z"/><path class="cls-2" d="M95.26,277.1v3.06H85.64V266h9.44v3.06H89.26v2.48h4.9v3.06h-4.9v2.48Z"/><path class="cls-2" d="M110.38,266H114l-4.16,8.38v5.76h-3.6V274.4L102.06,266h3.6l2.36,4.82Z"/><path class="cls-2" d="M125.12,267a7.15,7.15,0,0,1,2.6,2.61,7.17,7.17,0,0,1,0,7.17,7.2,7.2,0,0,1-2.6,2.6,7.17,7.17,0,0,1-7.17,0,7.15,7.15,0,0,1-2.61-2.6,7.17,7.17,0,0,1,0-7.17A7.1,7.1,0,0,1,118,267a7.17,7.17,0,0,1,7.17,0Zm-1.74,9.38a3.74,3.74,0,0,0,1.34-1.34,3.55,3.55,0,0,0,.5-1.84,3.62,3.62,0,0,0-.5-1.85,3.69,3.69,0,0,0-1.34-1.35,3.55,3.55,0,0,0-1.84-.5,3.71,3.71,0,0,0-3.7,3.7,3.55,3.55,0,0,0,.5,1.84,3.69,3.69,0,0,0,1.35,1.34,3.62,3.62,0,0,0,1.85.5A3.55,3.55,0,0,0,123.38,276.36Z"/><path class="cls-2" d="M141.38,266v8.74a5.44,5.44,0,0,1-.75,2.8,5.59,5.59,0,0,1-2,2,5.5,5.5,0,0,1-2.81.75h-.32a5.44,5.44,0,0,1-2.8-.75,5.64,5.64,0,0,1-2-2,5.44,5.44,0,0,1-.75-2.8V266h3.34V274a3.4,3.4,0,0,0,.6,2.06,1.92,1.92,0,0,0,1.64.82h.32a2,2,0,0,0,1.63-.83,3.29,3.29,0,0,0,.63-2V266Z"/><path class="cls-2" d="M157.14,276.53a4,4,0,0,0,1.2-.79l2.44,2.44a7.18,7.18,0,0,1-2.3,1.55,7.17,7.17,0,0,1-6.34-.41,7.2,7.2,0,0,1-2.6-2.6,7.17,7.17,0,0,1,0-7.17,7.15,7.15,0,0,1,2.6-2.61,7.17,7.17,0,0,1,6.34-.41,7.18,7.18,0,0,1,2.3,1.55l-2.44,2.44a4,4,0,0,0-1.2-.79,3.64,3.64,0,0,0-1.42-.29,3.55,3.55,0,0,0-1.84.5,3.69,3.69,0,0,0-1.34,1.35,3.62,3.62,0,0,0-.5,1.85,3.55,3.55,0,0,0,.5,1.84,3.74,3.74,0,0,0,1.34,1.34,3.55,3.55,0,0,0,1.84.5A3.64,3.64,0,0,0,157.14,276.53Z"/><path class="cls-2" d="M169.34,266.16l4.62,14h-3.48l-.92-2.86h-4.38l-.9,2.86h-3.5l4.64-14Zm-3.22,8.22h2.52l-1.26-4Z"/><path class="cls-2" d="M182.14,266h3.6v14.14h-3.6L178,272.58v7.58h-3.62V266H178l4.16,7.58Z"/><path class="cls-2" d="M202.64,266h3.92l-4.62,14.18h-4.4L192.94,266h4l2.86,8.84Z"/><path class="cls-2" d="M211.36,266v14.14h-3.6V266Z"/><path class="cls-2" d="M222.58,277.1v3.06H213V266h9.44v3.06h-5.82v2.48h4.9v3.06h-4.9v2.48Z"/><path class="cls-2" d="M235.56,266h3.12v14.14h-3.6l-3.64-6-3.66,6h-3.6V266h3.6v8l1.76-3.2.1-.16h3.6l.08.16,1.76,3.2v-8Z"/><path class="cls-2" d="M42.36,301.1v3.06H32.74V290h9.44v3.06H36.36v2.48h4.9v3.06h-4.9v2.48Z"/><path class="cls-2" d="M56.38,304.16H52.2L50,300.48l-2.22,3.68H43.56L47.88,297l-4.24-7h4.18L50,293.56,52.1,290h4.2l-4.24,7Z"/><path class="cls-2" d="M64.94,290.16l4.62,14H66.08l-.92-2.86H60.78l-.9,2.86h-3.5l4.64-14Zm-3.22,8.22h2.52l-1.26-4Z"/><path class="cls-2" d="M80.86,290h3.6v14.14h-3.6v-8l-1.76,3.2-.08.16h-3.6l-.1-.16-.24-.46-1.5-2.74v8H70V290h3.62l3.64,6Z"/><path class="cls-2" d="M95,290.61a4.31,4.31,0,0,1,1.6,1.6,4.43,4.43,0,0,1,0,4.42,4.39,4.39,0,0,1-3.81,2.19H89.44v5.34H86.06V290H92.8A4.33,4.33,0,0,1,95,290.61Zm-1.38,2.78a1.38,1.38,0,0,0-.95-.47H89.36v3h3.32a1.37,1.37,0,0,0,.95-.49,1.52,1.52,0,0,0,.39-1A1.45,1.45,0,0,0,93.63,293.39Z"/><path class="cls-2" d="M102,300.76h5.56v3.4H98.4V290H102Z"/><path class="cls-2" d="M118.58,301.1v3.06H109V290h9.44v3.06h-5.82v2.48h4.9v3.06h-4.9v2.48Z"/><path class="cls-2" d="M126.64,294.5v-.26a1.23,1.23,0,0,0-.49-1,1.79,1.79,0,0,0-1.19-.41,1.92,1.92,0,0,0-1.23.41,1.22,1.22,0,0,0-.51,1,.91.91,0,0,0,.52.86,4.46,4.46,0,0,0,1.36.56l.31.06.35.08a7,7,0,0,1,2.86,1.18l.18.16a4.31,4.31,0,0,1,.95,1.38,4,4,0,0,1,.35,1.6,4,4,0,0,1-.39,1.72,4.36,4.36,0,0,1-1.13,1.46,5.34,5.34,0,0,1-1.68.95,6,6,0,0,1-3.91,0,5.41,5.41,0,0,1-1.67-.95,4.67,4.67,0,0,1-1.14-1.46,4,4,0,0,1-.4-1.72v-.26h3.5v.26a1.26,1.26,0,0,0,.49,1,1.79,1.79,0,0,0,1.17.41,1.92,1.92,0,0,0,1.23-.41,1.22,1.22,0,0,0,.51-1,1.15,1.15,0,0,0-.54-.88,2.29,2.29,0,0,0-.56-.3,7.5,7.5,0,0,0-.78-.24l-.66-.16c-.73-.19-1.31-.35-1.72-.5a3.52,3.52,0,0,1-1.14-.68l-.08-.08a4.56,4.56,0,0,1-1-1.4,3.74,3.74,0,0,1-.37-1.64,4,4,0,0,1,.4-1.72,4.67,4.67,0,0,1,1.14-1.46,5.41,5.41,0,0,1,1.67-.95,6,6,0,0,1,3.91,0,5.34,5.34,0,0,1,1.68.95,4.36,4.36,0,0,1,1.13,1.46,4,4,0,0,1,.39,1.72v.26Z"/><path class="cls-2" d="M131.9,297.46a1.83,1.83,0,0,1-.5-1.16,1.62,1.62,0,0,1,1.62-1.66,1.64,1.64,0,0,1,1.66,1.66,1.56,1.56,0,0,1-.49,1.16,1.61,1.61,0,0,1-1.17.48A1.5,1.5,0,0,1,131.9,297.46Zm0,6.22a1.83,1.83,0,0,1-.5-1.16,1.62,1.62,0,0,1,1.62-1.66,1.64,1.64,0,0,1,1.66,1.66,1.56,1.56,0,0,1-.49,1.16,1.61,1.61,0,0,1-1.17.48A1.5,1.5,0,0,1,131.9,303.68Z"/></svg>