<svg id="Слой_1" data-name="Слой 1" xmlns="http://www.w3.org/2000/svg" viewBox="0 0 405 405"><defs><style>.cls-1{fill:#010101;}.cls-2{fill:#fed841;}.cls-3{fill:#e7335d;}.cls-4{fill:#fff;}</style></defs><rect class="cls-1" width="405" height="405"/><path class="cls-2" d="M38.75,279.61v2H32.4v-9.35h6.24v2H34.79V276H38v2H34.79v1.64Z"/><path class="cls-2" d="M48,281.64H45.26l-1.48-2.44-1.47,2.44H39.55l2.85-4.72-2.8-4.63h2.76l1.42,2.34,1.41-2.34H48l-2.8,4.63Z"/><path class="cls-2" d="M54.73,272.68a2.92,2.92,0,0,1,1.06,4,2.91,2.91,0,0,1-1.06,1.06,2.83,2.83,0,0,1-1.46.39H51.05v3.53H48.82v-9.35h4.45A2.83,2.83,0,0,1,54.73,272.68Zm-.91,1.84a.87.87,0,0,0-.63-.31H51v2h2.19a.92.92,0,0,0,.63-.32,1,1,0,0,0,.26-.69A1,1,0,0,0,53.82,274.52Z"/><path class="cls-2" d="M61.84,272.38l3.06,9.26H62.59l-.6-1.89h-2.9l-.59,1.89H56.18l3.07-9.26Zm-2.13,5.44h1.67l-.83-2.62Z"/><path class="cls-2" d="M70.3,272.29h2.38v9.35H70.3l-2.75-5v5H65.16v-9.35h2.39l2.75,5Z"/><path class="cls-2" d="M77.84,272.26a5.35,5.35,0,0,1,1.41.33,4.23,4.23,0,0,1,1.29.81A4.63,4.63,0,0,1,81.68,275a4.76,4.76,0,0,1,.4,1.92,4.58,4.58,0,0,1-.51,2.15,4.23,4.23,0,0,1-1.45,1.66,5.11,5.11,0,0,1-1.9.75,15,15,0,0,1-2.36.17H73.74v-9.46h2.39A16.65,16.65,0,0,1,77.84,272.26Zm2,4.67a2.45,2.45,0,0,0-.32-1.2,2.56,2.56,0,0,0-.86-.9,2.34,2.34,0,0,0-1.2-.36h-1.3v4.88a10.94,10.94,0,0,0,1.64-.11,2.82,2.82,0,0,0,1.23-.53,2.07,2.07,0,0,0,.74-1.22A2.38,2.38,0,0,0,79.81,276.93Z"/><path class="cls-2" d="M85.26,272.29v9.35H82.88v-9.35Z"/><path class="cls-2" d="M91.46,272.29h2.38v9.35H91.46l-2.75-5v5h-2.4v-9.35h2.4l2.75,5Z"/><path class="cls-2" d="M104.08,277a4.67,4.67,0,0,1-2.35,4.08,4.59,4.59,0,0,1-2.38.64,4.52,4.52,0,0,1-2.36-.64A4.71,4.71,0,0,1,94.63,277a4.53,4.53,0,0,1,.64-2.37,4.71,4.71,0,0,1,7.44-1l-2.13,1.21a2.36,2.36,0,0,0-1.23-.33,2.32,2.32,0,0,0-1.21.33,2.4,2.4,0,0,0-.89.9,2.42,2.42,0,0,0,0,2.44,2.42,2.42,0,0,0,.89.88,2.32,2.32,0,0,0,1.21.33,2.36,2.36,0,0,0,1.28-.36,2.47,2.47,0,0,0,.9-1H98.6v-2.2H104A5,5,0,0,1,104.08,277Z"/><path class="cls-2" d="M115.89,272.29v2.38H113.5v7h-2.39v-7h-2.4v-2.38h7.18Z"/><path class="cls-2" d="M121.87,272.29h2.38v9.35h-2.38v-3.49H119.2v3.49h-2.38v-9.35h2.38v3.48h2.67Z"/><path class="cls-2" d="M131.67,279.61v2h-6.36v-9.35h6.24v2H127.7V276h3.24v2H127.7v1.64Z"/><path class="cls-2" d="M141.56,272.38l3.05,9.26h-2.3l-.61-1.89h-2.89l-.6,1.89H135.9l3.06-9.26Zm-2.13,5.44h1.66l-.83-2.62Z"/><path class="cls-2" d="M152.48,272.3v5.78a3.71,3.71,0,0,1-3.7,3.69h-.22a3.62,3.62,0,0,1-1.85-.5,3.66,3.66,0,0,1-1.34-1.34,3.58,3.58,0,0,1-.49-1.85V272.3h2.2v5.25a2.19,2.19,0,0,0,.4,1.36,1.28,1.28,0,0,0,1.08.55h.22a1.29,1.29,0,0,0,1.07-.55,2.18,2.18,0,0,0,.42-1.36V272.3Z"/><path class="cls-2" d="M157.63,272.26a5.35,5.35,0,0,1,1.41.33,4.23,4.23,0,0,1,1.29.81,4.53,4.53,0,0,1,1.15,1.61,4.93,4.93,0,0,1,.4,1.92,4.47,4.47,0,0,1-.52,2.15,4.29,4.29,0,0,1-1.44,1.66,5.16,5.16,0,0,1-1.91.75,14.92,14.92,0,0,1-2.36.17h-2.11v-9.46h2.39A16.3,16.3,0,0,1,157.63,272.26Zm2,4.67a2.44,2.44,0,0,0-.31-1.2,2.5,2.5,0,0,0-.87-.9,2.28,2.28,0,0,0-1.2-.36h-1.29v4.88a10.8,10.8,0,0,0,1.63-.11,2.72,2.72,0,0,0,1.23-.53,2,2,0,0,0,.75-1.22A3,3,0,0,0,159.6,276.93Z"/><path class="cls-2" d="M165.05,272.29v9.35h-2.38v-9.35Z"/><path class="cls-2" d="M172.47,279.61v2h-6.36v-9.35h6.24v2H168.5V276h3.24v2H168.5v1.64Z"/><path class="cls-2" d="M178.67,272.29h2.38v9.35h-2.38l-2.75-5v5h-2.39v-9.35h2.39l2.75,5Z"/><path class="cls-2" d="M187.5,279.24a2.54,2.54,0,0,0,.8-.53l1.61,1.62a4.73,4.73,0,0,1-1.52,1,4.5,4.5,0,0,1-1.83.37,4.74,4.74,0,0,1-4.08-2.36,4.52,4.52,0,0,1-.64-2.36,4.59,4.59,0,0,1,.64-2.38,4.65,4.65,0,0,1,1.72-1.72,4.69,4.69,0,0,1,4.19-.27,4.73,4.73,0,0,1,1.52,1l-1.61,1.61a2.69,2.69,0,0,0-.8-.52,2.4,2.4,0,0,0-2.15.14,2.53,2.53,0,0,0-.89.89,2.41,2.41,0,0,0-.33,1.23,2.32,2.32,0,0,0,.33,1.21,2.53,2.53,0,0,0,.89.89,2.4,2.4,0,0,0,2.15.14Z"/><path class="cls-2" d="M197.06,279.61v2H190.7v-9.35h6.24v2h-3.85V276h3.24v2h-3.24v1.64Z"/><path class="cls-2" d="M208.92,272.92a4.76,4.76,0,0,1,1.72,1.73,4.68,4.68,0,0,1,.64,2.37,4.63,4.63,0,0,1-.64,2.37,4.81,4.81,0,0,1-1.72,1.72,4.62,4.62,0,0,1-2.37.63,4.67,4.67,0,0,1-2.37-.63,4.73,4.73,0,0,1-1.72-1.72,4.53,4.53,0,0,1-.64-2.37,4.58,4.58,0,0,1,.64-2.37,4.68,4.68,0,0,1,4.09-2.36A4.62,4.62,0,0,1,208.92,272.92Zm-1.15,6.21a2.61,2.61,0,0,0,.89-.89,2.42,2.42,0,0,0,0-2.44,2.45,2.45,0,0,0-.89-.89,2.33,2.33,0,0,0-1.22-.33,2.38,2.38,0,0,0-1.22.33,2.45,2.45,0,0,0-.89.89,2.42,2.42,0,0,0,0,2.44,2.61,2.61,0,0,0,.89.89,2.48,2.48,0,0,0,1.22.33A2.42,2.42,0,0,0,207.77,279.13Z"/><path class="cls-2" d="M218.57,274.31h-4.12V276h3.3v2h-3.3v3.67h-2.38v-9.35h6.5Z"/><path class="cls-2" d="M230.38,272.29v2.38H228v7h-2.4v-7H223.2v-2.38h7.18Z"/><path class="cls-2" d="M236.36,272.29h2.38v9.35h-2.38v-3.49h-2.67v3.49h-2.38v-9.35h2.38v3.48h2.67Z"/><path class="cls-2" d="M246.15,279.61v2h-6.36v-9.35H246v2h-3.85V276h3.24v2h-3.24v1.64Z"/><path class="cls-2" d="M257.1,272.68a2.89,2.89,0,0,1,1,1.06,2.93,2.93,0,0,1,0,2.92,3,3,0,0,1-1,1.06,2.89,2.89,0,0,1-1.47.39h-2.22v3.53h-2.23v-9.35h4.45A2.89,2.89,0,0,1,257.1,272.68Zm-.92,1.84a.87.87,0,0,0-.63-.31h-2.19v2h2.19a.92.92,0,0,0,.63-.32,1,1,0,0,0,.26-.69A.92.92,0,0,0,256.18,274.52Z"/><path class="cls-2" d="M267,281.64h-2.4l-1.48-3.53h-1.52v3.53h-2.23v-9.35h4.45a2.88,2.88,0,0,1,1.46.39,2.84,2.84,0,0,1,1.06,1.06,2.88,2.88,0,0,1,.39,1.46,2.77,2.77,0,0,1-.36,1.39,2.93,2.93,0,0,1-1,1.05Zm-2.64-7.12a.83.83,0,0,0-.62-.31h-2.19v2h2.19a1,1,0,0,0,.62-.32,1,1,0,0,0,.26-.69A1,1,0,0,0,264.33,274.52Z"/><path class="cls-2" d="M274.59,272.92a4.68,4.68,0,0,1,1.72,1.73A4.58,4.58,0,0,1,277,277a4.53,4.53,0,0,1-.64,2.37,4.73,4.73,0,0,1-1.72,1.72,4.61,4.61,0,0,1-2.36.63,4.68,4.68,0,0,1-2.38-.63,4.81,4.81,0,0,1-1.72-1.72,4.62,4.62,0,0,1-.63-2.37,4.67,4.67,0,0,1,.63-2.37,4.76,4.76,0,0,1,1.72-1.73,4.68,4.68,0,0,1,2.38-.63A4.61,4.61,0,0,1,274.59,272.92Zm-1.15,6.21a2.61,2.61,0,0,0,.89-.89,2.42,2.42,0,0,0,0-2.44,2.45,2.45,0,0,0-.89-.89,2.32,2.32,0,0,0-1.21-.33,2.41,2.41,0,0,0-1.23.33,2.45,2.45,0,0,0-.89.89,2.42,2.42,0,0,0,0,2.44,2.61,2.61,0,0,0,.89.89,2.52,2.52,0,0,0,1.23.33A2.41,2.41,0,0,0,273.44,279.13Z"/><path class="cls-2" d="M282.65,272.26h2.21V278a3.59,3.59,0,0,1-.5,1.85,3.66,3.66,0,0,1-1.34,1.34,3.68,3.68,0,0,1-5.54-3.19v-.38h2.21a2,2,0,0,0,.42,1.26,1.33,1.33,0,0,0,2.12-.05,2.18,2.18,0,0,0,.42-1.36Z"/><path class="cls-2" d="M292.27,279.61v2h-6.36v-9.35h6.24v2h-3.84V276h3.24v2h-3.24v1.64Z"/><path class="cls-2" d="M298.72,279.24a2.54,2.54,0,0,0,.8-.53l1.61,1.62a4.73,4.73,0,0,1-1.52,1,4.49,4.49,0,0,1-1.82.37,4.71,4.71,0,0,1-4.72-4.72,4.7,4.7,0,0,1,2.35-4.1,4.69,4.69,0,0,1,4.19-.27,4.73,4.73,0,0,1,1.52,1l-1.61,1.61a2.69,2.69,0,0,0-.8-.52,2.28,2.28,0,0,0-.93-.19,2.35,2.35,0,0,0-1.22.33,2.53,2.53,0,0,0-.89.89,2.41,2.41,0,0,0-.33,1.23,2.32,2.32,0,0,0,.33,1.21,2.53,2.53,0,0,0,.89.89,2.35,2.35,0,0,0,1.22.33A2.28,2.28,0,0,0,298.72,279.24Z"/><path class="cls-2" d="M309,272.29v2.38h-2.39v7h-2.39v-7h-2.4v-2.38H309Z"/><path class="cls-2" d="M39.44,288.16v2.38H37.05v7H34.66v-7h-2.4v-2.38h7.18Z"/><path class="cls-2" d="M45.42,288.16H47.8v9.34H45.42V294H42.75v3.49H40.37v-9.34h2.38v3.47h2.67Z"/><path class="cls-2" d="M56.49,297.5h-2.4L52.61,294H51.09v3.53H48.86v-9.34h4.45a2.88,2.88,0,0,1,1.46.39,2.9,2.9,0,0,1,1.45,2.51,2.91,2.91,0,0,1-.35,1.4,3.05,3.05,0,0,1-1,1.05Zm-2.63-7.12a.91.91,0,0,0-.63-.31H51v2h2.19a1,1,0,0,0,.63-.33,1,1,0,0,0,.25-.68A1,1,0,0,0,53.86,290.38Z"/><path class="cls-2" d="M64.12,288.79a4.65,4.65,0,0,1,1.71,1.73,4.53,4.53,0,0,1,.64,2.37,4.58,4.58,0,0,1-.64,2.37A4.67,4.67,0,0,1,64.12,297a4.58,4.58,0,0,1-2.37.64,4.53,4.53,0,0,1-2.37-.64,4.73,4.73,0,0,1,4.74-8.18ZM63,295a2.5,2.5,0,0,0,.89-.88,2.42,2.42,0,0,0,0-2.44,2.48,2.48,0,0,0-.89-.9,2.32,2.32,0,0,0-1.21-.33,2.35,2.35,0,0,0-1.22.33,2.43,2.43,0,0,0-.9.9,2.42,2.42,0,0,0,0,2.44,2.45,2.45,0,0,0,.9.88,2.35,2.35,0,0,0,1.22.33A2.32,2.32,0,0,0,63,295Z"/><path class="cls-2" d="M74.87,288.17V294a3.62,3.62,0,0,1-.5,1.85A3.69,3.69,0,0,1,73,297.14a3.65,3.65,0,0,1-1.86.5H71a3.59,3.59,0,0,1-1.85-.5,3.74,3.74,0,0,1-1.34-1.34,3.62,3.62,0,0,1-.5-1.85v-5.78h2.21v5.25a2.21,2.21,0,0,0,.4,1.36,1.26,1.26,0,0,0,1.08.54h.21a1.29,1.29,0,0,0,1.08-.55,2.13,2.13,0,0,0,.42-1.35v-5.25Z"/><path class="cls-2" d="M85.11,292.88a4.61,4.61,0,0,1-.63,2.36,4.77,4.77,0,0,1-4.1,2.36A4.63,4.63,0,0,1,78,297a4.73,4.73,0,0,1-1.72-1.72,4.61,4.61,0,0,1-.63-2.36,4.68,4.68,0,0,1,.63-2.38A4.81,4.81,0,0,1,78,288.78a4.53,4.53,0,0,1,2.37-.64,4.72,4.72,0,0,1,1.84.37,4.81,4.81,0,0,1,1.52,1l-2.13,1.22a2.44,2.44,0,0,0-2.45,0,2.5,2.5,0,0,0-.88.89,2.41,2.41,0,0,0-.33,1.23,2.32,2.32,0,0,0,.33,1.21,2.5,2.5,0,0,0,.88.89,2.35,2.35,0,0,0,1.22.33,2.38,2.38,0,0,0,1.28-.36,2.5,2.5,0,0,0,.9-1H79.63v-2.19H85A4.9,4.9,0,0,1,85.11,292.88Z"/><path class="cls-2" d="M91,288.16h2.38v9.34H91V294H88.29v3.49H85.91v-9.34h2.38v3.47H91Z"/><path class="cls-2" d="M104.28,288.55a2.89,2.89,0,0,1,1.44,2.51,2.89,2.89,0,0,1-.39,1.47,2.89,2.89,0,0,1-2.51,1.44h-2.23v3.53H98.36v-9.34h4.46A2.88,2.88,0,0,1,104.28,288.55Zm-.91,1.83a1,1,0,0,0-.63-.31h-2.2v2h2.2a.93.93,0,0,0,.63-.33,1,1,0,0,0,.25-.68A1,1,0,0,0,103.37,290.38Z"/><path class="cls-2" d="M111.38,288.25l3.06,9.25h-2.3l-.61-1.89h-2.9L108,297.5h-2.32l3.07-9.25Zm-2.12,5.43h1.66l-.83-2.62Z"/><path class="cls-2" d="M117.08,288.16v9.34H114.7v-9.34Z"/><path class="cls-2" d="M122.24,288.12a5.47,5.47,0,0,1,1.41.34,4.23,4.23,0,0,1,1.29.81,4.68,4.68,0,0,1,1.14,1.6,4.8,4.8,0,0,1,.4,1.93A4.58,4.58,0,0,1,126,295a4.2,4.2,0,0,1-1.45,1.65,5.11,5.11,0,0,1-1.9.75,13.82,13.82,0,0,1-2.36.18h-1.09l-1,0v-9.45h2.39A16.94,16.94,0,0,1,122.24,288.12Zm2,4.68a2.4,2.4,0,0,0-.32-1.2,2.59,2.59,0,0,0-.86-.91,2.33,2.33,0,0,0-1.2-.35h-1.3v4.88a9.66,9.66,0,0,0,1.64-.12,2.8,2.8,0,0,0,1.23-.52,2.07,2.07,0,0,0,.74-1.23A2.3,2.3,0,0,0,124.21,292.8Z"/><path class="cls-2" d="M136.11,288.25l3,9.25h-2.3l-.61-1.89h-2.89l-.6,1.89h-2.31l3.07-9.25ZM134,293.68h1.67l-.84-2.62Z"/><path class="cls-2" d="M143.53,288.12a5.4,5.4,0,0,1,1.4.34,4,4,0,0,1,1.29.81,4.58,4.58,0,0,1,1.15,1.6,4.8,4.8,0,0,1,.4,1.93,4.47,4.47,0,0,1-.52,2.15,4.18,4.18,0,0,1-1.44,1.65,5.09,5.09,0,0,1-1.91.75,13.74,13.74,0,0,1-2.36.18h-1.08l-1,0v-9.45h2.39A16.94,16.94,0,0,1,143.53,288.12Zm2,4.68a2.4,2.4,0,0,0-.32-1.2,2.53,2.53,0,0,0-.87-.91,2.27,2.27,0,0,0-1.19-.35h-1.3v4.88a9.45,9.45,0,0,0,1.63-.12,2.71,2.71,0,0,0,1.23-.52,2,2,0,0,0,.75-1.23A3,3,0,0,0,145.5,292.8Z"/><path class="cls-2" d="M154.71,288.13h2.59l-3.05,9.37h-2.91l-3-9.37h2.62l1.89,5.84Z"/><path class="cls-2" d="M164.46,295.48v2H158.1v-9.34h6.24v2h-3.85v1.64h3.24v2h-3.24v1.64Z"/><path class="cls-2" d="M173.14,297.5h-2.39L169.27,294h-1.52v3.53h-2.24v-9.34H170a2.82,2.82,0,0,1,1.45.39,2.89,2.89,0,0,1,1.46,2.51,2.81,2.81,0,0,1-.36,1.4,3,3,0,0,1-1,1.05Zm-2.63-7.12a.89.89,0,0,0-.62-.31H167.7v2h2.19a1,1,0,0,0,.62-.33,1,1,0,0,0,.25-.68A1,1,0,0,0,170.51,290.38Z"/><path class="cls-2" d="M181,288.16v2.38h-2.39v7H176.2v-7h-2.4v-2.38H181Z"/><path class="cls-2" d="M184.29,288.16v9.34h-2.38v-9.34Z"/><path class="cls-2" d="M189.62,291.12V291a.82.82,0,0,0-.33-.66,1.16,1.16,0,0,0-.78-.27,1.28,1.28,0,0,0-.82.27.82.82,0,0,0-.33.66.59.59,0,0,0,.34.56,2.71,2.71,0,0,0,.9.37l.2,0,.24.06a4.64,4.64,0,0,1,1.89.78l.12.1a2.82,2.82,0,0,1,.62.92,2.51,2.51,0,0,1,.24,1.05,2.64,2.64,0,0,1-.26,1.14,3,3,0,0,1-.75,1,3.56,3.56,0,0,1-1.11.62,3.78,3.78,0,0,1-1.3.22,3.67,3.67,0,0,1-1.28-.22,3.45,3.45,0,0,1-1.11-.62,3.13,3.13,0,0,1-.75-1,2.52,2.52,0,0,1-.27-1.14v-.17h2.32v.17a.81.81,0,0,0,.32.66,1.17,1.17,0,0,0,.77.27,1.28,1.28,0,0,0,.82-.27.82.82,0,0,0,.33-.66.76.76,0,0,0-.35-.58,1.86,1.86,0,0,0-.37-.2l-.52-.16-.43-.1c-.49-.12-.87-.24-1.14-.33a2.21,2.21,0,0,1-.75-.45L186,293a3,3,0,0,1-.69-.93,2.41,2.41,0,0,1-.25-1.08,2.52,2.52,0,0,1,.27-1.14,3.13,3.13,0,0,1,.75-1,3.68,3.68,0,0,1,1.11-.63,3.9,3.9,0,0,1,1.28-.21,4,4,0,0,1,1.3.21,3.8,3.8,0,0,1,1.11.63,3,3,0,0,1,.75,1,2.64,2.64,0,0,1,.26,1.14v.17Z"/><path class="cls-2" d="M195.08,288.16v9.34H192.7v-9.34Z"/><path class="cls-2" d="M201.28,288.16h2.38v9.34h-2.38l-2.75-5v5h-2.39v-9.34h2.39l2.75,5Z"/><path class="cls-2" d="M213.91,292.88a4.52,4.52,0,0,1-.64,2.36,4.72,4.72,0,0,1-6.46,1.72,4.74,4.74,0,0,1-2.36-4.08,4.74,4.74,0,0,1,2.36-4.1,4.52,4.52,0,0,1,2.36-.64,4.77,4.77,0,0,1,1.85.37,4.66,4.66,0,0,1,1.51,1l-2.13,1.22a2.36,2.36,0,0,0-1.23-.33,2.32,2.32,0,0,0-1.21.33,2.53,2.53,0,0,0-.89.89,2.41,2.41,0,0,0-.33,1.23,2.32,2.32,0,0,0,.33,1.21,2.53,2.53,0,0,0,.89.89,2.32,2.32,0,0,0,1.21.33,2.41,2.41,0,0,0,1.29-.36,2.65,2.65,0,0,0,.9-1h-2.94v-2.19h5.35A5,5,0,0,1,213.91,292.88Z"/><path class="cls-2" d="M224.58,288.55a2.9,2.9,0,0,1,0,5,2.83,2.83,0,0,1-1.46.39H220.9v3.53h-2.23v-9.34h4.45A2.83,2.83,0,0,1,224.58,288.55Zm-.91,1.83a.91.91,0,0,0-.63-.31h-2.19v2H223a.89.89,0,0,0,.63-.33,1,1,0,0,0,.26-.68A1,1,0,0,0,223.67,290.38Z"/><path class="cls-2" d="M234.43,288.17V294a3.62,3.62,0,0,1-.5,1.85,3.69,3.69,0,0,1-1.35,1.34,3.65,3.65,0,0,1-1.86.5h-.21a3.62,3.62,0,0,1-1.85-.5,3.74,3.74,0,0,1-1.34-1.34,3.62,3.62,0,0,1-.5-1.85v-5.78H229v5.25a2.21,2.21,0,0,0,.4,1.36,1.26,1.26,0,0,0,1.08.54h.21a1.28,1.28,0,0,0,1.08-.55,2.13,2.13,0,0,0,.42-1.35v-5.25Z"/><path class="cls-2" d="M242.53,293.56a2.66,2.66,0,0,1,.31,1.25,2.61,2.61,0,0,1-.36,1.34,2.76,2.76,0,0,1-1,1,2.64,2.64,0,0,1-1.36.37h-4.67v-9.35h4.25a2.62,2.62,0,0,1,1.36.37,2.73,2.73,0,0,1,1,1,2.66,2.66,0,0,1,.35,1.32,2.71,2.71,0,0,1-.7,1.8A2.63,2.63,0,0,1,242.53,293.56Zm-2.46-3.22a.93.93,0,0,0-.68-.28h-1.72v2h1.72a1.3,1.3,0,0,0,.31-.05,1,1,0,0,0,.24-.13,1.19,1.19,0,0,0,.31-.36,1,1,0,0,0,.1-.46A.94.94,0,0,0,240.07,290.34Zm.39,4.94a.91.91,0,0,0,.27-.7,1,1,0,0,0-.22-.63.93.93,0,0,0-.57-.33c-.05,0-.68,0-1.88,0h-.39v2h2.11A.94.94,0,0,0,240.46,295.28Z"/><path class="cls-2" d="M246,295.26h3.68v2.24h-6.06v-9.34H246Z"/><path class="cls-2" d="M253,288.16v9.34h-2.38v-9.34Z"/><path class="cls-2" d="M259.44,295.1a2.51,2.51,0,0,0,.8-.52l1.61,1.61a4.6,4.6,0,0,1-1.52,1,4.67,4.67,0,0,1-1.83.36,4.61,4.61,0,0,1-2.36-.63,4.73,4.73,0,0,1-1.72-1.72,4.63,4.63,0,0,1-.64-2.37,4.68,4.68,0,0,1,.64-2.37,4.76,4.76,0,0,1,1.72-1.73,4.61,4.61,0,0,1,2.36-.63,4.67,4.67,0,0,1,1.83.36,4.92,4.92,0,0,1,1.52,1l-1.61,1.61a2.69,2.69,0,0,0-.8-.52,2.4,2.4,0,0,0-2.15.14,2.45,2.45,0,0,0-.89.89,2.42,2.42,0,0,0,0,2.44,2.42,2.42,0,0,0,.89.88,2.24,2.24,0,0,0,1.21.34A2.33,2.33,0,0,0,259.44,295.1Z"/><path class="cls-2" d="M267.51,288.25l3.05,9.25h-2.3l-.61-1.89h-2.89l-.6,1.89h-2.31l3.07-9.25Zm-2.13,5.43h1.67l-.84-2.62Z"/><path class="cls-2" d="M277.88,288.16v2.38h-2.4v7h-2.39v-7H270.7v-2.38h7.18Z"/><path class="cls-2" d="M281.18,288.16v9.34H278.8v-9.34Z"/><path class="cls-2" d="M289.07,288.79a4.61,4.61,0,0,1,1.72,1.73,4.53,4.53,0,0,1,.64,2.37,4.71,4.71,0,0,1-2.36,4.08,4.52,4.52,0,0,1-2.36.64,4.59,4.59,0,0,1-2.38-.64,4.71,4.71,0,0,1-2.36-4.08,4.63,4.63,0,0,1,.64-2.37,4.68,4.68,0,0,1,4.1-2.36A4.61,4.61,0,0,1,289.07,288.79Zm-1.15,6.2a2.5,2.5,0,0,0,.89-.88,2.42,2.42,0,0,0,0-2.44,2.48,2.48,0,0,0-.89-.9,2.32,2.32,0,0,0-1.21-.33,2.41,2.41,0,0,0-1.23.33,2.48,2.48,0,0,0-.89.9,2.42,2.42,0,0,0,0,2.44,2.5,2.5,0,0,0,.89.88,2.41,2.41,0,0,0,1.23.33A2.32,2.32,0,0,0,287.92,295Z"/><path class="cls-2" d="M297.36,288.16h2.38v9.34h-2.38l-2.75-5v5h-2.39v-9.34h2.39l2.75,5Z"/><path class="cls-2" d="M305.07,291.12V291a.84.84,0,0,0-.32-.66A1.2,1.2,0,0,0,304,290a1.24,1.24,0,0,0-.81.27.81.81,0,0,0-.34.66.6.6,0,0,0,.35.56,2.65,2.65,0,0,0,.89.37l.21,0,.23.06a4.64,4.64,0,0,1,1.89.78l.12.1a3,3,0,0,1,.63.92,2.57,2.57,0,0,1,0,2.19,3,3,0,0,1-.75,1,3.35,3.35,0,0,1-1.11.62,3.89,3.89,0,0,1-2.58,0,3.4,3.4,0,0,1-1.1-.62,3.17,3.17,0,0,1-.76-1,2.64,2.64,0,0,1-.26-1.14v-.17h2.31v.17a.84.84,0,0,0,.32.66,1.19,1.19,0,0,0,.78.27,1.24,1.24,0,0,0,.81-.27.81.81,0,0,0,.34-.66.77.77,0,0,0-.36-.58,1.61,1.61,0,0,0-.37-.2l-.51-.16-.44-.1c-.49-.12-.86-.24-1.14-.33a2.42,2.42,0,0,1-.75-.45l0-.05a3.08,3.08,0,0,1-.7-.93,2.54,2.54,0,0,1-.24-1.08,2.64,2.64,0,0,1,.26-1.14,3.17,3.17,0,0,1,.76-1,3.63,3.63,0,0,1,1.1-.63,4.07,4.07,0,0,1,2.58,0,3.56,3.56,0,0,1,1.11.63,3,3,0,0,1,.75,1,2.64,2.64,0,0,1,.26,1.14v.17Z"/><path class="cls-2" d="M317,288.25,320,297.5h-2.3l-.61-1.89h-2.89l-.6,1.89h-2.31l3.06-9.25Zm-2.13,5.43h1.66l-.83-2.62Z"/><path class="cls-2" d="M322.68,295.26h3.68v2.24H320.3v-9.34h2.38Z"/><path class="cls-2" d="M329.67,295.26h3.67v2.24h-6v-9.34h2.38Z"/><path class="cls-2" d="M341.1,288.79a4.61,4.61,0,0,1,1.72,1.73,4.53,4.53,0,0,1,.64,2.37A4.71,4.71,0,0,1,341.1,297a4.52,4.52,0,0,1-2.36.64,4.59,4.59,0,0,1-2.38-.64,4.7,4.7,0,0,1-1.72-1.71,4.58,4.58,0,0,1-.64-2.37,4.53,4.53,0,0,1,.64-2.37,4.68,4.68,0,0,1,4.1-2.36A4.61,4.61,0,0,1,341.1,288.79ZM340,295a2.5,2.5,0,0,0,.89-.88,2.42,2.42,0,0,0,0-2.44,2.48,2.48,0,0,0-.89-.9,2.32,2.32,0,0,0-1.21-.33,2.39,2.39,0,0,0-1.23.33,2.48,2.48,0,0,0-.89.9,2.42,2.42,0,0,0,0,2.44,2.5,2.5,0,0,0,.89.88,2.39,2.39,0,0,0,1.23.33A2.32,2.32,0,0,0,340,295Z"/><path class="cls-2" d="M351.77,288.16h2.07v9.34h-2.38l-2.41-4-2.42,4h-2.38v-9.34h2.38v5.27l1.16-2.11.07-.11h2.38l.05.11,1.17,2.11v-5.27Z"/><path class="cls-2" d="M359.16,291.12V291a.81.81,0,0,0-.32-.66,1.2,1.2,0,0,0-.79-.27,1.26,1.26,0,0,0-.81.27.81.81,0,0,0-.34.66.6.6,0,0,0,.35.56,2.71,2.71,0,0,0,.9.37l.2,0,.23.06a4.51,4.51,0,0,1,1.89.78l.12.1a2.69,2.69,0,0,1,.63.92,2.65,2.65,0,0,1,.23,1.05,2.51,2.51,0,0,1-.26,1.14,3.1,3.1,0,0,1-.74,1,3.56,3.56,0,0,1-1.11.62,3.82,3.82,0,0,1-1.3.22,3.72,3.72,0,0,1-1.29-.22,3.4,3.4,0,0,1-1.1-.62,3.17,3.17,0,0,1-.76-1,2.64,2.64,0,0,1-.26-1.14v-.17h2.31v.17a.82.82,0,0,0,.33.66,1.15,1.15,0,0,0,.77.27,1.24,1.24,0,0,0,.81-.27.81.81,0,0,0,.34-.66.77.77,0,0,0-.36-.58,1.61,1.61,0,0,0-.37-.2l-.51-.16-.44-.1c-.48-.12-.86-.24-1.14-.33a2.42,2.42,0,0,1-.75-.45l-.05-.05a3.25,3.25,0,0,1-.7-.93,2.54,2.54,0,0,1-.24-1.08,2.64,2.64,0,0,1,.26-1.14,3.17,3.17,0,0,1,.76-1,3.63,3.63,0,0,1,1.1-.63A4,4,0,0,1,358,288a4.07,4.07,0,0,1,1.3.21,3.8,3.8,0,0,1,1.11.63,3.1,3.1,0,0,1,.74,1,2.51,2.51,0,0,1,.26,1.14v.17Z"/><path class="cls-3" d="M37.37,309.24h2.38L37,314.78v3.81H34.62v-3.81l-2.75-5.54h2.38l1.56,3.19Z"/><path class="cls-3" d="M47.11,309.88a4.7,4.7,0,0,1,2.35,4.1,4.7,4.7,0,0,1-2.35,4.08,4.52,4.52,0,0,1-2.36.64,4.74,4.74,0,0,1-4.1-2.36A4.52,4.52,0,0,1,40,314a4.59,4.59,0,0,1,.64-2.38,4.72,4.72,0,0,1,6.46-1.72ZM46,316.08a2.53,2.53,0,0,0,.89-.89,2.32,2.32,0,0,0,.33-1.21,2.41,2.41,0,0,0-.33-1.23,2.53,2.53,0,0,0-.89-.89,2.32,2.32,0,0,0-1.21-.33,2.39,2.39,0,0,0-1.23.33,2.53,2.53,0,0,0-.89.89A2.41,2.41,0,0,0,42.3,314a2.32,2.32,0,0,0,.33,1.21,2.53,2.53,0,0,0,.89.89,2.39,2.39,0,0,0,1.23.33A2.32,2.32,0,0,0,46,316.08Z"/><path class="cls-3" d="M57.86,309.26V315a3.61,3.61,0,0,1-.49,1.85A3.85,3.85,0,0,1,56,318.23a3.64,3.64,0,0,1-1.86.49H54a3.58,3.58,0,0,1-1.85-.49,3.69,3.69,0,0,1-1.35-1.34,3.61,3.61,0,0,1-.49-1.85v-5.78h2.21v5.25a2.28,2.28,0,0,0,.39,1.36,1.29,1.29,0,0,0,1.09.54h.21a1.29,1.29,0,0,0,1.08-.55,2.21,2.21,0,0,0,.41-1.35v-5.25Z"/><path class="cls-3" d="M69.93,309.24v2.38H67.54v7H65.15v-7h-2.4v-2.38h7.18Z"/><path class="cls-3" d="M77.69,309.88a4.65,4.65,0,0,1,1.72,1.72,4.59,4.59,0,0,1,.64,2.38,4.52,4.52,0,0,1-.64,2.36,4.58,4.58,0,0,1-1.72,1.72,4.52,4.52,0,0,1-2.36.64,4.59,4.59,0,0,1-2.38-.64,4.72,4.72,0,0,1-1.72-6.46,4.74,4.74,0,0,1,4.1-2.36A4.62,4.62,0,0,1,77.69,309.88Zm-1.15,6.2a2.53,2.53,0,0,0,.89-.89,2.32,2.32,0,0,0,.33-1.21,2.41,2.41,0,0,0-.33-1.23,2.53,2.53,0,0,0-.89-.89,2.32,2.32,0,0,0-1.21-.33,2.41,2.41,0,0,0-1.23.33,2.53,2.53,0,0,0-.89.89,2.41,2.41,0,0,0-.33,1.23,2.32,2.32,0,0,0,.33,1.21,2.53,2.53,0,0,0,.89.89,2.41,2.41,0,0,0,1.23.33A2.32,2.32,0,0,0,76.54,316.08Z"/><path class="cls-3" d="M92.44,318.59H90l-1.48-3.53H87v3.53H84.81v-9.35h4.45a2.89,2.89,0,0,1,2.52,1.46,2.9,2.9,0,0,1,0,2.85,3,3,0,0,1-1,1.05Zm-2.64-7.12a.87.87,0,0,0-.62-.31H87v2h2.19a.88.88,0,0,0,.62-.32,1,1,0,0,0,.26-.68A1,1,0,0,0,89.8,311.47Z"/><path class="cls-3" d="M98.09,309.34l3.06,9.25h-2.3l-.61-1.89h-2.9l-.59,1.89H92.44l3.06-9.25ZM96,314.77h1.66l-.83-2.62Z"/><path class="cls-3" d="M103.79,309.24v9.35h-2.38v-9.35Z"/><path class="cls-3" d="M109.12,312.21V312a.84.84,0,0,0-.32-.65,1.2,1.2,0,0,0-.79-.27,1.24,1.24,0,0,0-.81.27.8.8,0,0,0-.34.65.6.6,0,0,0,.35.57,2.56,2.56,0,0,0,.89.37l.21,0,.23.05a4.48,4.48,0,0,1,1.89.79l.12.1a3.08,3.08,0,0,1,.63.91,2.74,2.74,0,0,1,.23,1.06,2.64,2.64,0,0,1-.26,1.14,2.85,2.85,0,0,1-.75,1,3.21,3.21,0,0,1-1.11.63,3.89,3.89,0,0,1-2.58,0,3.25,3.25,0,0,1-1.1-.63,3,3,0,0,1-.76-1,2.51,2.51,0,0,1-.26-1.14v-.17h2.31v.17a.86.86,0,0,0,.32.66,1.19,1.19,0,0,0,.78.27,1.24,1.24,0,0,0,.81-.27.82.82,0,0,0,.34-.66.76.76,0,0,0-.36-.58,1.31,1.31,0,0,0-.37-.2l-.51-.16-.44-.1c-.49-.13-.86-.24-1.14-.33a2.42,2.42,0,0,1-.75-.45l0-.06a2.92,2.92,0,0,1-.7-.92,2.58,2.58,0,0,1-.24-1.09,2.49,2.49,0,0,1,.26-1.13,3.05,3.05,0,0,1,.76-1,3.63,3.63,0,0,1,1.1-.63,3.89,3.89,0,0,1,2.58,0,3.56,3.56,0,0,1,1.11.63,2.89,2.89,0,0,1,.75,1,2.63,2.63,0,0,1,.26,1.13v.18Z"/><path class="cls-3" d="M118.56,316.57v2H112.2v-9.35h6.24v2H114.6v1.64h3.24v2H114.6v1.64Z"/><path class="cls-3" d="M130.63,309.24v2.38h-2.39v7h-2.39v-7h-2.4v-2.38h7.18Z"/><path class="cls-3" d="M136.61,309.24H139v9.35h-2.38V315.1h-2.67v3.49h-2.38v-9.35h2.38v3.48h2.67Z"/><path class="cls-3" d="M146.41,316.57v2h-6.36v-9.35h6.24v2h-3.85v1.64h3.24v2h-3.24v1.64Z"/><path class="cls-3" d="M153.81,316.34h3.68v2.25h-6.06v-9.35h2.38Z"/><path class="cls-3" d="M164.77,316.57v2h-6.36v-9.35h6.25v2h-3.85v1.64h3.24v2h-3.24v1.64Z"/><path class="cls-3" d="M172,309.22h2.59l-3,9.37h-2.91l-3-9.37h2.61l1.9,5.84Z"/><path class="cls-3" d="M181.72,316.57v2h-6.36v-9.35h6.25v2h-3.85v1.64H181v2h-3.24v1.64Z"/><path class="cls-3" d="M185.16,316.34h3.68v2.25h-6.06v-9.35h2.38Z"/><path class="cls-3" d="M200.57,309.88a4.7,4.7,0,0,1,1.71,1.72,4.59,4.59,0,0,1,.64,2.38,4.52,4.52,0,0,1-.64,2.36,4.71,4.71,0,0,1-4.08,2.36,4.53,4.53,0,0,1-2.37-.64,4.68,4.68,0,0,1-2.36-4.08,4.68,4.68,0,0,1,2.36-4.1,4.63,4.63,0,0,1,2.37-.64A4.68,4.68,0,0,1,200.57,309.88Zm-1.15,6.2a2.5,2.5,0,0,0,.88-.89,2.32,2.32,0,0,0,.33-1.21,2.41,2.41,0,0,0-.33-1.23,2.5,2.5,0,0,0-.88-.89,2.38,2.38,0,0,0-1.22-.33,2.35,2.35,0,0,0-1.22.33,2.48,2.48,0,0,0-.9.89,2.41,2.41,0,0,0-.33,1.23,2.32,2.32,0,0,0,.33,1.21,2.48,2.48,0,0,0,.9.89,2.35,2.35,0,0,0,1.22.33A2.38,2.38,0,0,0,199.42,316.08Z"/><path class="cls-3" d="M210.22,311.27h-4.13v1.64h3.31v2h-3.31v3.66h-2.38v-9.35h6.51Z"/><path class="cls-3" d="M222,309.24v2.38h-2.39v7h-2.39v-7h-2.4v-2.38H222Z"/><path class="cls-3" d="M230.58,318.59h-2.39l-1.48-3.53h-1.53v3.53H223v-9.35h4.46a2.84,2.84,0,0,1,1.45.39,2.79,2.79,0,0,1,1.06,1.07,2.93,2.93,0,0,1,0,2.85,3,3,0,0,1-1,1.05ZM228,311.47a.91.91,0,0,0-.62-.31h-2.2v2h2.2a.92.92,0,0,0,.62-.32,1,1,0,0,0,.25-.68A1,1,0,0,0,228,311.47Z"/><path class="cls-3" d="M239,309.26V315a3.62,3.62,0,0,1-.5,1.85,3.69,3.69,0,0,1-1.35,1.34,3.64,3.64,0,0,1-1.86.49h-.21a3.58,3.58,0,0,1-1.85-.49,3.74,3.74,0,0,1-1.34-1.34,3.62,3.62,0,0,1-.5-1.85v-5.78h2.21v5.25a2.21,2.21,0,0,0,.4,1.36,1.26,1.26,0,0,0,1.08.54h.21a1.29,1.29,0,0,0,1.08-.55,2.15,2.15,0,0,0,.42-1.35v-5.25Z"/><path class="cls-3" d="M244.3,312.21V312a.81.81,0,0,0-.32-.65,1.2,1.2,0,0,0-.79-.27,1.26,1.26,0,0,0-.81.27.83.83,0,0,0-.34.65.6.6,0,0,0,.35.57,2.71,2.71,0,0,0,.9.37l.2,0,.23.05a4.36,4.36,0,0,1,1.89.79l.12.1a2.81,2.81,0,0,1,.86,2,2.64,2.64,0,0,1-.26,1.14,3,3,0,0,1-.74,1,3.4,3.4,0,0,1-1.11.63,3.82,3.82,0,0,1-1.3.22,3.72,3.72,0,0,1-1.29-.22,3.25,3.25,0,0,1-1.1-.63,3,3,0,0,1-.76-1,2.64,2.64,0,0,1-.26-1.14v-.17h2.31v.17a.84.84,0,0,0,.33.66,1.15,1.15,0,0,0,.77.27,1.24,1.24,0,0,0,.81-.27.82.82,0,0,0,.34-.66.76.76,0,0,0-.36-.58,1.31,1.31,0,0,0-.37-.2l-.51-.16-.44-.1-1.14-.33a2.42,2.42,0,0,1-.75-.45l0-.06a3.08,3.08,0,0,1-.7-.92,2.58,2.58,0,0,1-.24-1.09,2.63,2.63,0,0,1,.26-1.13,3.05,3.05,0,0,1,.76-1,3.63,3.63,0,0,1,1.1-.63,4,4,0,0,1,1.29-.22,4.08,4.08,0,0,1,1.3.22,3.8,3.8,0,0,1,1.11.63,3,3,0,0,1,.74,1,2.63,2.63,0,0,1,.26,1.13v.18Z"/><path class="cls-3" d="M254.43,309.24v2.38H252v7h-2.39v-7h-2.4v-2.38h7.18Z"/><path class="cls-3" d="M261.7,309.24v9.35h-2.38v-9.35Z"/><path class="cls-3" d="M267.91,309.24h2.38v9.35h-2.38l-2.76-5v5h-2.39v-9.35h2.39l2.76,5Z"/><path class="cls-3" d="M282.36,309.24v2.38H280v7h-2.39v-7h-2.39v-2.38h7.18Z"/><path class="cls-3" d="M288.33,309.24h2.38v9.35h-2.38V315.1h-2.67v3.49h-2.38v-9.35h2.38v3.48h2.67Z"/><path class="cls-3" d="M298.13,316.57v2h-6.36v-9.35H298v2h-3.85v1.64h3.24v2h-3.24v1.64Z"/><path class="cls-3" d="M309.07,309.63a2.91,2.91,0,0,1,1.06,1.06,2.91,2.91,0,0,1-2.52,4.37h-2.22v3.53h-2.24v-9.35h4.46A2.83,2.83,0,0,1,309.07,309.63Zm-.91,1.84a.91.91,0,0,0-.63-.31h-2.19v2h2.19a.85.85,0,0,0,.63-.32,1,1,0,0,0,.26-.68A1,1,0,0,0,308.16,311.47Z"/><path class="cls-3" d="M318.94,318.59h-2.39l-1.48-3.53h-1.52v3.53h-2.24v-9.35h4.46a2.84,2.84,0,0,1,1.45.39,2.89,2.89,0,0,1,1.07,1.07,2.9,2.9,0,0,1,0,2.85,3,3,0,0,1-1,1.05Zm-2.63-7.12a.89.89,0,0,0-.62-.31h-2.2v2h2.2a.9.9,0,0,0,.62-.32,1,1,0,0,0,.25-.68A1,1,0,0,0,316.31,311.47Z"/><path class="cls-3" d="M326.57,309.88a4.7,4.7,0,0,1,2.35,4.1,4.7,4.7,0,0,1-2.35,4.08,4.53,4.53,0,0,1-2.37.64,4.58,4.58,0,0,1-2.37-.64,4.68,4.68,0,0,1-1.73-1.72,4.61,4.61,0,0,1-.63-2.36,4.68,4.68,0,0,1,.63-2.38,4.76,4.76,0,0,1,1.73-1.72,4.68,4.68,0,0,1,2.37-.64A4.63,4.63,0,0,1,326.57,309.88Zm-1.15,6.2a2.53,2.53,0,0,0,.89-.89,2.32,2.32,0,0,0,.33-1.21,2.41,2.41,0,0,0-.33-1.23,2.53,2.53,0,0,0-.89-.89,2.35,2.35,0,0,0-1.22-.33,2.38,2.38,0,0,0-1.22.33,2.53,2.53,0,0,0-.89.89,2.41,2.41,0,0,0-.33,1.23,2.32,2.32,0,0,0,.33,1.21,2.53,2.53,0,0,0,.89.89,2.38,2.38,0,0,0,1.22.33A2.35,2.35,0,0,0,325.42,316.08Z"/><path class="cls-3" d="M334.62,309.22h2.21V315a3.52,3.52,0,0,1-.5,1.85,3.66,3.66,0,0,1-1.34,1.34,3.74,3.74,0,0,1-3.7,0,3.74,3.74,0,0,1-1.34-1.34,3.62,3.62,0,0,1-.5-1.85v-.39h2.21a2.17,2.17,0,0,0,.42,1.27,1.35,1.35,0,0,0,2.13-.06,2.21,2.21,0,0,0,.41-1.35Z"/><path class="cls-3" d="M344.25,316.57v2h-6.36v-9.35h6.24v2h-3.85v1.64h3.24v2h-3.24v1.64Z"/><path class="cls-3" d="M350.7,316.19a2.64,2.64,0,0,0,.79-.52l1.62,1.61a4.92,4.92,0,0,1-1.52,1,4.7,4.7,0,0,1-1.83.36,4.61,4.61,0,0,1-2.36-.63,4.73,4.73,0,0,1-1.72-1.72,4.71,4.71,0,0,1,0-4.74,4.68,4.68,0,0,1,1.72-1.73,4.61,4.61,0,0,1,2.36-.63,4.7,4.7,0,0,1,1.83.36,4.76,4.76,0,0,1,1.52,1l-1.62,1.61a2.47,2.47,0,0,0-.79-.52,2.32,2.32,0,0,0-2.15.14,2.38,2.38,0,0,0-.89.89,2.42,2.42,0,0,0,0,2.44,2.42,2.42,0,0,0,.89.88,2.4,2.4,0,0,0,2.15.14Z"/><path class="cls-3" d="M361,309.24v2.38h-2.4v7h-2.39v-7h-2.39v-2.38H361Z"/><path class="cls-3" d="M362.32,317h2.24l-1,3h-2Z"/><path class="cls-3" d="M37.26,325.2l3.06,9.26H38l-.6-1.89h-2.9l-.59,1.89H31.6l3.07-9.26Zm-2.13,5.44H36.8L36,328Z"/><path class="cls-3" d="M47.63,325.11v2.38h-2.4v7H42.84v-7H40.45v-2.38h7.18Z"/><path class="cls-3" d="M55.6,325.11v2.38H53.21v7h-2.4v-7H48.42v-2.38H55.6Z"/><path class="cls-3" d="M64.16,334.46h-2.4l-1.48-3.53H58.76v3.53H56.53v-9.35H61a2.88,2.88,0,0,1,1.46.39,2.91,2.91,0,0,1,1.06,1.06,2.88,2.88,0,0,1,.39,1.46,2.77,2.77,0,0,1-.36,1.39,2.93,2.93,0,0,1-1,1Zm-2.64-7.12a.83.83,0,0,0-.62-.31H58.71v2H60.9a.92.92,0,0,0,.62-.32,1,1,0,0,0,.26-.68A1,1,0,0,0,61.52,327.34Z"/><path class="cls-3" d="M69.81,325.2l3.06,9.26h-2.3L70,332.57h-2.9l-.59,1.89H64.16l3.06-9.26Zm-2.12,5.44h1.66L68.52,328Z"/><path class="cls-3" d="M78.53,332.06a2.64,2.64,0,0,0,.79-.52l1.61,1.61a4.62,4.62,0,0,1-1.52,1,4.49,4.49,0,0,1-1.82.37,4.56,4.56,0,0,1-2.37-.64,4.73,4.73,0,0,1-1.72-1.72,4.61,4.61,0,0,1-.63-2.36,4.68,4.68,0,0,1,.63-2.38,4.81,4.81,0,0,1,1.72-1.72,4.56,4.56,0,0,1,2.37-.64,4.75,4.75,0,0,1,3.34,1.39l-1.61,1.62a2.67,2.67,0,0,0-.79-.53,2.5,2.5,0,0,0-.94-.19,2.35,2.35,0,0,0-1.22.33,2.5,2.5,0,0,0-.88.89,2.41,2.41,0,0,0-.33,1.23,2.32,2.32,0,0,0,.33,1.21,2.5,2.5,0,0,0,.88.89,2.35,2.35,0,0,0,1.22.33A2.32,2.32,0,0,0,78.53,332.06Z"/><path class="cls-3" d="M88.77,325.11v2.38H86.38v7H84v-7h-2.4v-2.38h7.18Z"/><path class="cls-3" d="M98.81,325.11h2.38v9.35H98.81l-2.75-5v5H93.67v-9.35h2.39l2.75,5Z"/><path class="cls-3" d="M108.61,332.44v2h-6.36v-9.35h6.24v2h-3.85v1.64h3.24v2h-3.24v1.64Z"/><path class="cls-3" d="M117.19,325.11h2.06v9.35h-2.38l-2.41-4-2.42,4h-2.37v-9.35H112v5.28l1.17-2.12.07-.11h2.38l0,.11,1.16,2.12v-5.28Z"/><path class="cls-3" d="M129.14,325.2l3.06,9.26h-2.31l-.6-1.89h-2.9l-.59,1.89h-2.32l3.07-9.26ZM127,330.64h1.67l-.83-2.62Z"/><path class="cls-3" d="M140.06,325.12v5.78a3.7,3.7,0,0,1-3.7,3.69h-.21a3.5,3.5,0,0,1-1.85-.5,3.7,3.7,0,0,1-1.84-3.19v-5.78h2.21v5.25a2.26,2.26,0,0,0,.39,1.36,1.27,1.27,0,0,0,1.09.55h.21a1.32,1.32,0,0,0,1.08-.55,2.18,2.18,0,0,0,.41-1.36v-5.25Z"/><path class="cls-3" d="M145.22,325.08a5.78,5.78,0,0,1,1.41.33,4.23,4.23,0,0,1,1.29.81,4.82,4.82,0,0,1,1.54,3.53,4.62,4.62,0,0,1-.51,2.16,4.27,4.27,0,0,1-1.45,1.65,5.11,5.11,0,0,1-1.9.75,13.89,13.89,0,0,1-2.36.17h-2.12V325h2.39A16.65,16.65,0,0,1,145.22,325.08Zm2,4.67a2.45,2.45,0,0,0-.32-1.2,2.56,2.56,0,0,0-.86-.9,2.34,2.34,0,0,0-1.2-.36h-1.3v4.88a10.94,10.94,0,0,0,1.64-.11,2.92,2.92,0,0,0,1.23-.52,2.13,2.13,0,0,0,.74-1.23A2.38,2.38,0,0,0,147.19,329.75Z"/><path class="cls-3" d="M152.64,325.11v9.35h-2.38v-9.35Z"/><path class="cls-3" d="M160.05,332.44v2h-6.36v-9.35h6.25v2h-3.85v1.64h3.24v2h-3.24v1.64Z"/><path class="cls-3" d="M166.25,325.11h2.38v9.35h-2.38l-2.75-5v5h-2.39v-9.35h2.39l2.75,5Z"/><path class="cls-3" d="M175.09,332.06a2.64,2.64,0,0,0,.79-.52l1.61,1.61a4.62,4.62,0,0,1-1.52,1,4.69,4.69,0,0,1-4.19-.27,4.73,4.73,0,0,1-1.72-1.72,4.61,4.61,0,0,1-.63-2.36,4.68,4.68,0,0,1,.63-2.38,4.81,4.81,0,0,1,1.72-1.72,4.53,4.53,0,0,1,2.37-.64,4.75,4.75,0,0,1,3.34,1.39l-1.61,1.62a2.67,2.67,0,0,0-.79-.53,2.54,2.54,0,0,0-.94-.19,2.35,2.35,0,0,0-1.22.33,2.5,2.5,0,0,0-.88.89,2.41,2.41,0,0,0-.33,1.23,2.32,2.32,0,0,0,.33,1.21,2.5,2.5,0,0,0,.88.89,2.42,2.42,0,0,0,2.16.14Z"/><path class="cls-3" d="M184.65,332.44v2h-6.36v-9.35h6.24v2h-3.85v1.64h3.24v2h-3.24v1.64Z"/><path class="cls-3" d="M190,328.07v-.17a.81.81,0,0,0-.33-.65,1.19,1.19,0,0,0-.79-.28,1.28,1.28,0,0,0-.81.28.82.82,0,0,0-.34.65.6.6,0,0,0,.35.57,2.94,2.94,0,0,0,.9.37l.2,0,.23.05a4.51,4.51,0,0,1,1.89.78l.12.11a2.65,2.65,0,0,1,.63.91,2.54,2.54,0,0,1,.23,1.06,2.49,2.49,0,0,1-.26,1.13,2.89,2.89,0,0,1-.74,1,3.8,3.8,0,0,1-1.11.63,4.08,4.08,0,0,1-1.3.22,4,4,0,0,1-1.29-.22,3.63,3.63,0,0,1-1.1-.63,3,3,0,0,1-.76-1,2.63,2.63,0,0,1-.26-1.13v-.17h2.31v.17a.82.82,0,0,0,.33.65,1.15,1.15,0,0,0,.77.27,1.24,1.24,0,0,0,.81-.27.8.8,0,0,0,.34-.65.74.74,0,0,0-.36-.58,1.18,1.18,0,0,0-.37-.2,5.27,5.27,0,0,0-.51-.16l-.44-.11a11.45,11.45,0,0,1-1.13-.33,2,2,0,0,1-.76-.45l-.05,0a3,3,0,0,1-.7-.93,2.51,2.51,0,0,1-.24-1.08,2.68,2.68,0,0,1,.26-1.14,3,3,0,0,1,.76-1,3.63,3.63,0,0,1,1.1-.63,3.72,3.72,0,0,1,1.29-.22,3.74,3.74,0,0,1,2.41.85,3,3,0,0,1,.74,1,2.54,2.54,0,0,1,.26,1.14v.17Z"/><path class="cls-3" d="M201.89,325.2l3.05,9.26h-2.3l-.61-1.89h-2.89l-.6,1.89h-2.31l3.07-9.26Zm-2.13,5.44h1.67l-.84-2.62Z"/><path class="cls-3" d="M210.35,325.11h2.38v9.35h-2.38l-2.75-5v5h-2.39v-9.35h2.39l2.75,5Z"/><path class="cls-3" d="M217.89,325.08a5.81,5.81,0,0,1,1.4.33,4,4,0,0,1,1.29.81,4.62,4.62,0,0,1,1.15,1.61,4.76,4.76,0,0,1,.4,1.92,4.62,4.62,0,0,1-.51,2.16,4.36,4.36,0,0,1-1.45,1.65,5.09,5.09,0,0,1-1.91.75,13.82,13.82,0,0,1-2.36.17h-2.11V325h2.39A16.65,16.65,0,0,1,217.89,325.08Zm2,4.67a2.45,2.45,0,0,0-.32-1.2,2.5,2.5,0,0,0-.87-.9,2.28,2.28,0,0,0-1.19-.36h-1.3v4.88a10.7,10.7,0,0,0,1.63-.11,2.82,2.82,0,0,0,1.23-.52,2.09,2.09,0,0,0,.75-1.23A3.05,3.05,0,0,0,219.86,329.75Z"/><path class="cls-3" d="M232.81,325.5a2.91,2.91,0,0,1,1.06,1.06,3,3,0,0,1,0,2.92,2.91,2.91,0,0,1-1.06,1.06,2.85,2.85,0,0,1-1.46.39h-2.22v3.53h-2.24v-9.35h4.46A2.85,2.85,0,0,1,232.81,325.5Zm-.91,1.84a.91.91,0,0,0-.63-.31h-2.2v2h2.2a1,1,0,0,0,.63-.32,1,1,0,0,0,.25-.68A1,1,0,0,0,231.9,327.34Z"/><path class="cls-3" d="M241.88,325.75a4.74,4.74,0,0,1,2.36,4.09,4.53,4.53,0,0,1-.64,2.37,4.75,4.75,0,0,1-6.46,1.72,4.73,4.73,0,0,1-1.72-1.72,4.63,4.63,0,0,1-.64-2.37,4.74,4.74,0,0,1,2.36-4.09,4.59,4.59,0,0,1,2.38-.64A4.52,4.52,0,0,1,241.88,325.75Zm-1.15,6.2a2.53,2.53,0,0,0,.89-.89,2.33,2.33,0,0,0,.33-1.22,2.38,2.38,0,0,0-.33-1.22,2.53,2.53,0,0,0-.89-.89,2.32,2.32,0,0,0-1.21-.33,2.41,2.41,0,0,0-1.23.33,2.53,2.53,0,0,0-.89.89,2.38,2.38,0,0,0-.33,1.22,2.33,2.33,0,0,0,.33,1.22,2.53,2.53,0,0,0,.89.89,2.41,2.41,0,0,0,1.23.33A2.32,2.32,0,0,0,240.73,332Z"/><path class="cls-3" d="M252.08,325.11v2.38h-2.39v7h-2.4v-7H244.9v-2.38h7.18Z"/><path class="cls-3" d="M259.36,332.44v2H253v-9.35h6.25v2H255.4v1.64h3.24v2H255.4v1.64Z"/><path class="cls-3" d="M265.57,325.11H268v9.35h-2.38l-2.76-5v5h-2.39v-9.35h2.39l2.76,5Z"/><path class="cls-3" d="M276.05,325.11v2.38h-2.39v7h-2.4v-7h-2.39v-2.38h7.18Z"/><path class="cls-3" d="M279.36,325.11v9.35H277v-9.35Z"/><path class="cls-3" d="M285.28,325.2l3.05,9.26H286l-.61-1.89h-2.89l-.6,1.89h-2.31l3.07-9.26Zm-2.13,5.44h1.67L284,328Z"/><path class="cls-3" d="M291,332.21h3.67v2.25h-6v-9.35H291Z"/><path class="cls-3" d="M37.79,347.93a2.67,2.67,0,0,0,.79-.53L40.2,349a4.69,4.69,0,0,1-3.35,1.38,4.67,4.67,0,0,1-4.08-2.35,4.53,4.53,0,0,1-.64-2.37A4.72,4.72,0,0,1,36.85,341a4.74,4.74,0,0,1,1.83.36,4.92,4.92,0,0,1,1.52,1L38.58,344a2.64,2.64,0,0,0-.79-.52,2.32,2.32,0,0,0-.94-.19,2.35,2.35,0,0,0-1.22.33,2.5,2.5,0,0,0-.88.89,2.38,2.38,0,0,0-.33,1.22,2.33,2.33,0,0,0,.33,1.22,2.5,2.5,0,0,0,.88.89,2.35,2.35,0,0,0,1.22.33A2.5,2.5,0,0,0,37.79,347.93Z"/><path class="cls-3" d="M48.59,341v5.78a3.58,3.58,0,0,1-.49,1.85A3.69,3.69,0,0,1,46.75,350a3.65,3.65,0,0,1-1.86.5h-.21a3.59,3.59,0,0,1-1.85-.5,3.66,3.66,0,0,1-1.34-1.34,3.59,3.59,0,0,1-.5-1.85V341H43.2v5.25a2.26,2.26,0,0,0,.39,1.36,1.29,1.29,0,0,0,1.09.54h.21a1.29,1.29,0,0,0,1.08-.55,2.13,2.13,0,0,0,.41-1.35V341Z"/><path class="cls-3" d="M53.92,343.94v-.17a.84.84,0,0,0-.32-.66,1.2,1.2,0,0,0-.79-.27,1.24,1.24,0,0,0-.81.27.81.81,0,0,0-.34.66.62.62,0,0,0,.34.57,2.94,2.94,0,0,0,.9.37,1,1,0,0,1,.21,0l.23.05a4.64,4.64,0,0,1,1.89.78l.12.1a3,3,0,0,1,.63.92,2.57,2.57,0,0,1,0,2.19,3,3,0,0,1-.75,1,3.35,3.35,0,0,1-1.11.62,3.89,3.89,0,0,1-2.58,0,3.56,3.56,0,0,1-1.11-.62,3.29,3.29,0,0,1-.75-1,2.51,2.51,0,0,1-.26-1.14v-.17H51.7v.17a.84.84,0,0,0,.32.66,1.19,1.19,0,0,0,.78.27,1.26,1.26,0,0,0,.81-.27.83.83,0,0,0,.34-.66.77.77,0,0,0-.36-.58,1.86,1.86,0,0,0-.37-.2l-.52-.16-.43-.1a11,11,0,0,1-1.14-.33,2.42,2.42,0,0,1-.75-.45l-.06-.05a2.93,2.93,0,0,1-.69-.93,2.59,2.59,0,0,1,0-2.22,3.29,3.29,0,0,1,.75-1,3.56,3.56,0,0,1,1.11-.62,3.89,3.89,0,0,1,2.58,0,3.35,3.35,0,0,1,1.11.62,3,3,0,0,1,.75,1,2.64,2.64,0,0,1,.26,1.14v.17Z"/><path class="cls-3" d="M64.05,341v2.38H61.66v7h-2.4v-7H56.87V341h7.18Z"/><path class="cls-3" d="M71.81,341.61a4.76,4.76,0,0,1,1.72,1.73,4.77,4.77,0,0,1,0,4.74,4.81,4.81,0,0,1-1.72,1.72,4.62,4.62,0,0,1-2.37.63,4.67,4.67,0,0,1-2.37-.63,4.83,4.83,0,0,1-1.73-1.72,4.77,4.77,0,0,1,0-4.74,4.78,4.78,0,0,1,1.73-1.73,4.67,4.67,0,0,1,2.37-.63A4.62,4.62,0,0,1,71.81,341.61Zm-1.15,6.2a2.5,2.5,0,0,0,.89-.88,2.42,2.42,0,0,0,0-2.44,2.45,2.45,0,0,0-.89-.89,2.36,2.36,0,0,0-1.22-.34,2.39,2.39,0,0,0-1.22.34,2.45,2.45,0,0,0-.89.89,2.42,2.42,0,0,0,0,2.44,2.5,2.5,0,0,0,.89.88,2.38,2.38,0,0,0,1.22.33A2.35,2.35,0,0,0,70.66,347.81Z"/><path class="cls-3" d="M82.16,341h2.38v9.35H82.16v-5.28L81,347.17l0,.1H78.57l-.07-.1-.16-.31-1-1.81v5.28H75V341h2.39l2.41,4Z"/><path class="cls-3" d="M92,348.3v2H85.6V341h6.24v2H88v1.64h3.24v2H88v1.64Z"/><path class="cls-3" d="M100.65,350.33h-2.4l-1.48-3.54H95.25v3.54H93V341h4.45a2.88,2.88,0,0,1,1.46.39,2.84,2.84,0,0,1,1.06,1.06,2.93,2.93,0,0,1,0,2.85,3,3,0,0,1-1,1.05ZM98,343.21a.92.92,0,0,0-.63-.32H95.2v2h2.19a1,1,0,0,0,.63-.33,1,1,0,0,0,.25-.68A1,1,0,0,0,98,343.21Z"/><path class="cls-3" d="M105.71,343.94v-.17a.84.84,0,0,0-.32-.66,1.2,1.2,0,0,0-.79-.27,1.24,1.24,0,0,0-.81.27.81.81,0,0,0-.34.66.63.63,0,0,0,.34.57,2.94,2.94,0,0,0,.9.37,1,1,0,0,1,.21,0l.23.05a4.64,4.64,0,0,1,1.89.78l.12.1a3,3,0,0,1,.63.92,2.57,2.57,0,0,1,0,2.19,3,3,0,0,1-.75,1,3.35,3.35,0,0,1-1.11.62,3.89,3.89,0,0,1-2.58,0,3.56,3.56,0,0,1-1.11-.62,3.29,3.29,0,0,1-.75-1,2.51,2.51,0,0,1-.26-1.14v-.17h2.31v.17a.84.84,0,0,0,.32.66,1.19,1.19,0,0,0,.78.27,1.24,1.24,0,0,0,.81-.27.81.81,0,0,0,.34-.66.77.77,0,0,0-.36-.58,1.61,1.61,0,0,0-.37-.2l-.51-.16-.44-.1a11,11,0,0,1-1.14-.33,2.42,2.42,0,0,1-.75-.45l0-.05a3,3,0,0,1-.7-.93,2.59,2.59,0,0,1,0-2.22,3.29,3.29,0,0,1,.75-1,3.56,3.56,0,0,1,1.11-.62,3.89,3.89,0,0,1,2.58,0,3.35,3.35,0,0,1,1.11.62,3,3,0,0,1,.75,1,2.64,2.64,0,0,1,.26,1.14v.17Z"/><path class="cls-3" d="M109.24,348.7h2.24l-1,3h-2Z"/><path class="cls-3" d="M121.63,347.93a2.67,2.67,0,0,0,.79-.53L124,349a4.69,4.69,0,0,1-3.35,1.38,4.7,4.7,0,0,1-4.08-2.35,4.53,4.53,0,0,1-.64-2.37,4.74,4.74,0,0,1,2.36-4.09,4.52,4.52,0,0,1,2.36-.64,4.74,4.74,0,0,1,1.83.36,4.92,4.92,0,0,1,1.52,1L122.42,344a2.64,2.64,0,0,0-.79-.52,2.4,2.4,0,0,0-2.15.14,2.45,2.45,0,0,0-.89.89,2.38,2.38,0,0,0-.33,1.22,2.33,2.33,0,0,0,.33,1.22,2.45,2.45,0,0,0,.89.89,2.32,2.32,0,0,0,1.21.33A2.5,2.5,0,0,0,121.63,347.93Z"/><path class="cls-3" d="M132.46,350.33h-2.39l-1.49-3.54h-1.52v3.54h-2.23V341h4.46a2.9,2.9,0,0,1,2.51,1.45,2.88,2.88,0,0,1,.39,1.46,2.79,2.79,0,0,1-.35,1.39,3,3,0,0,1-1,1.05Zm-2.63-7.12a.92.92,0,0,0-.62-.32H127v2h2.2a1,1,0,0,0,.87-1A.94.94,0,0,0,129.83,343.21Z"/><path class="cls-3" d="M139.61,348.3v2h-6.36V341h6.24v2h-3.84v1.64h3.23v2h-3.23v1.64Z"/><path class="cls-3" d="M145.54,341.07l3.05,9.26h-2.3l-.61-1.9h-2.89l-.6,1.9h-2.31l3.06-9.26Zm-2.13,5.43h1.66l-.83-2.61Z"/><path class="cls-3" d="M155.9,341v2.38h-2.39v7h-2.39v-7h-2.4V341h7.18Z"/><path class="cls-3" d="M163.19,348.3v2h-6.36V341h6.24v2h-3.85v1.64h3.24v2h-3.24v1.64Z"/><path class="cls-3" d="M175.26,341v2.38h-2.39v7h-2.4v-7h-2.39V341h7.18Z"/><path class="cls-3" d="M181.24,341h2.38v9.35h-2.38v-3.5h-2.68v3.5h-2.38V341h2.38v3.48h2.68Z"/><path class="cls-3" d="M191,348.3v2h-6.36V341h6.24v2h-3.84v1.64h3.24v2h-3.24v1.64Z"/><path class="cls-3" d="M203.69,350.33h-2.4l-1.48-3.54h-1.52v3.54h-2.23V341h4.45a2.88,2.88,0,0,1,1.46.39,2.84,2.84,0,0,1,1.06,1.06,2.88,2.88,0,0,1,.39,1.46,2.8,2.8,0,0,1-.36,1.39,2.93,2.93,0,0,1-1,1.05Zm-2.64-7.12a.88.88,0,0,0-.62-.32h-2.19v2h2.19a.93.93,0,0,0,.62-.33,1,1,0,0,0,.26-.68A1,1,0,0,0,201.05,343.21Z"/><path class="cls-3" d="M206.86,341v9.35h-2.38V341Z"/><path class="cls-3" d="M217.11,345.7a4.74,4.74,0,0,1-4.74,4.72,4.52,4.52,0,0,1-2.36-.64,4.58,4.58,0,0,1-1.72-1.72,4.52,4.52,0,0,1-.64-2.36,4.59,4.59,0,0,1,.64-2.38,4.74,4.74,0,0,1,4.08-2.36,4.77,4.77,0,0,1,1.85.37,4.64,4.64,0,0,1,1.51,1l-2.13,1.21a2.36,2.36,0,0,0-1.23-.33,2.32,2.32,0,0,0-1.21.33,2.53,2.53,0,0,0-.89.89,2.41,2.41,0,0,0-.33,1.23,2.32,2.32,0,0,0,.33,1.21,2.53,2.53,0,0,0,.89.89,2.32,2.32,0,0,0,1.21.33,2.41,2.41,0,0,0,1.29-.36,2.55,2.55,0,0,0,.89-1h-2.93V344.6H217A5,5,0,0,1,217.11,345.7Z"/><path class="cls-3" d="M223,341h2.38v9.35H223v-3.5h-2.67v3.5H217.9V341h2.38v3.48H223Z"/><path class="cls-3" d="M233.44,341v2.38H231v7h-2.39v-7h-2.39V341h7.18Z"/><path class="cls-3" d="M240.71,341v9.35h-2.38V341Z"/><path class="cls-3" d="M246.91,341h2.38v9.35h-2.38l-2.75-5v5h-2.4V341h2.4l2.75,5Z"/><path class="cls-3" d="M256.85,343h-4.12v1.64H256v2h-3.3v3.67h-2.38V341h6.5Z"/><path class="cls-3" d="M264.48,341.61a4.76,4.76,0,0,1,1.72,1.73,4.77,4.77,0,0,1,0,4.74,4.81,4.81,0,0,1-1.72,1.72,4.62,4.62,0,0,1-2.37.63,4.67,4.67,0,0,1-2.37-.63,4.83,4.83,0,0,1-1.73-1.72,4.77,4.77,0,0,1,0-4.74,4.78,4.78,0,0,1,1.73-1.73,4.67,4.67,0,0,1,2.37-.63A4.62,4.62,0,0,1,264.48,341.61Zm-1.15,6.2a2.5,2.5,0,0,0,.89-.88,2.42,2.42,0,0,0,0-2.44,2.45,2.45,0,0,0-.89-.89,2.36,2.36,0,0,0-2.44,0,2.45,2.45,0,0,0-.89.89,2.42,2.42,0,0,0,0,2.44,2.5,2.5,0,0,0,.89.88,2.42,2.42,0,0,0,2.44,0Z"/><path class="cls-3" d="M275.26,350.33h-2.4l-1.48-3.54h-1.52v3.54h-2.23V341h4.45a2.88,2.88,0,0,1,1.46.39,2.84,2.84,0,0,1,1.06,1.06,2.88,2.88,0,0,1,.39,1.46,2.8,2.8,0,0,1-.36,1.39,2.93,2.93,0,0,1-1,1.05Zm-2.63-7.12a.92.92,0,0,0-.63-.32h-2.19v2H272a1,1,0,0,0,.63-.33,1,1,0,0,0,.25-.68A1,1,0,0,0,272.63,343.21Z"/><path class="cls-3" d="M283.25,341h2.39v9.35h-2.39v-5.28l-1.16,2.12,0,.1h-2.38l-.07-.1-.16-.31-1-1.81v5.28h-2.39V341h2.39l2.41,4Z"/><path class="cls-3" d="M291.56,341.07l3.05,9.26h-2.3l-.61-1.9h-2.89l-.6,1.9H285.9l3.07-9.26Zm-2.13,5.43h1.67l-.84-2.61Z"/><path class="cls-3" d="M301.92,341v2.38h-2.39v7h-2.39v-7h-2.39V341h7.17Z"/><path class="cls-3" d="M305.23,341v9.35h-2.38V341Z"/><path class="cls-3" d="M313.12,341.61a4.68,4.68,0,0,1,1.72,1.73,4.71,4.71,0,0,1,0,4.74,4.73,4.73,0,0,1-1.72,1.72,4.61,4.61,0,0,1-2.36.63,4.68,4.68,0,0,1-2.38-.63,4.81,4.81,0,0,1-1.72-1.72,4.71,4.71,0,0,1,0-4.74,4.76,4.76,0,0,1,1.72-1.73,4.68,4.68,0,0,1,2.38-.63A4.61,4.61,0,0,1,313.12,341.61Zm-1.15,6.2a2.5,2.5,0,0,0,.89-.88,2.42,2.42,0,0,0,0-2.44,2.45,2.45,0,0,0-.89-.89,2.33,2.33,0,0,0-1.21-.34,2.42,2.42,0,0,0-1.23.34,2.45,2.45,0,0,0-.89.89,2.42,2.42,0,0,0,0,2.44,2.5,2.5,0,0,0,.89.88,2.41,2.41,0,0,0,1.23.33A2.32,2.32,0,0,0,312,347.81Z"/><path class="cls-3" d="M321.41,341h2.38v9.35h-2.38l-2.75-5v5h-2.39V341h2.39l2.75,5Z"/><path class="cls-3" d="M39.44,362.25a2.51,2.51,0,0,1,.31,1.24,2.62,2.62,0,0,1-.36,1.35,2.74,2.74,0,0,1-2.33,1.35H32.4v-9.35h4.24a2.53,2.53,0,0,1,1.36.37,2.68,2.68,0,0,1,1.13,3.27,2.71,2.71,0,0,1-.52.83A2.63,2.63,0,0,1,39.44,362.25ZM37,359a.93.93,0,0,0-.68-.28H34.58v2H36.3a2.19,2.19,0,0,0,.31-.05,1,1,0,0,0,.24-.13,1.19,1.19,0,0,0,.31-.36,1,1,0,0,0,.1-.46A.94.94,0,0,0,37,359Zm.39,4.94a.91.91,0,0,0,.27-.7,1,1,0,0,0-.22-.63,1,1,0,0,0-.57-.34H34.58v2h2.11A1,1,0,0,0,37.37,364Z"/><path class="cls-3" d="M45.41,356.94l3.05,9.25h-2.3l-.61-1.89H42.66l-.6,1.89H39.75l3.06-9.25Zm-2.13,5.43h1.66l-.83-2.62Z"/><path class="cls-3" d="M54.12,363.79a2.64,2.64,0,0,0,.79-.52l1.62,1.61a4.87,4.87,0,0,1-1.52,1,4.74,4.74,0,0,1-1.83.36,4.67,4.67,0,0,1-2.37-.63,4.89,4.89,0,0,1-1.72-1.72,4.77,4.77,0,0,1,0-4.74,4.83,4.83,0,0,1,1.72-1.73,4.67,4.67,0,0,1,2.37-.63,4.74,4.74,0,0,1,1.83.36,4.87,4.87,0,0,1,1.52,1l-1.62,1.61a2.47,2.47,0,0,0-.79-.52,2.32,2.32,0,0,0-.94-.19,2.26,2.26,0,0,0-1.22.33,2.42,2.42,0,0,0-.88.89,2.42,2.42,0,0,0,0,2.44,2.47,2.47,0,0,0,.88.88,2.35,2.35,0,0,0,1.22.33A2.32,2.32,0,0,0,54.12,363.79Z"/><path class="cls-3" d="M61.85,361.47l2.79,4.72H62l-2.3-3.77v3.77H57.32v-9.35H59.7v3.65l2.3-3.65h2.64Z"/><path class="cls-3" d="M74.89,361.56a4.62,4.62,0,0,1-.63,2.37,4.76,4.76,0,0,1-1.73,1.72,4.68,4.68,0,0,1-2.37.64,4.63,4.63,0,0,1-2.37-.64,4.81,4.81,0,0,1-1.72-1.72,4.62,4.62,0,0,1-.63-2.37,4.67,4.67,0,0,1,.63-2.37,4.83,4.83,0,0,1,1.72-1.73A4.77,4.77,0,0,1,72,357.2a4.81,4.81,0,0,1,1.52,1l-2.13,1.22a2.44,2.44,0,0,0-2.45,0,2.5,2.5,0,0,0-.88.89,2.29,2.29,0,0,0-.34,1.22,2.27,2.27,0,0,0,.34,1.22,2.5,2.5,0,0,0,.88.89,2.35,2.35,0,0,0,1.22.33,2.3,2.3,0,0,0,1.28-.37,2.4,2.4,0,0,0,.9-1H69.4v-2.19h5.36A4.89,4.89,0,0,1,74.89,361.56Z"/><path class="cls-3" d="M83.31,366.19H80.92l-1.48-3.53H77.92v3.53H75.68v-9.35h4.46a2.82,2.82,0,0,1,1.45.39,2.89,2.89,0,0,1,1.07,1.07,2.9,2.9,0,0,1,0,2.85,3,3,0,0,1-1,1.05Zm-2.63-7.12a.89.89,0,0,0-.62-.31H77.87v2h2.19a.9.9,0,0,0,.62-.32,1,1,0,0,0,.25-.68A1,1,0,0,0,80.68,359.07Z"/><path class="cls-3" d="M90.94,357.48a4.72,4.72,0,0,1,1.72,6.46,4.58,4.58,0,0,1-1.72,1.72,4.52,4.52,0,0,1-2.36.64,4.59,4.59,0,0,1-2.38-.64,4.65,4.65,0,0,1-1.72-1.72,4.52,4.52,0,0,1-.64-2.36,4.59,4.59,0,0,1,.64-2.38,4.73,4.73,0,0,1,1.72-1.72,4.59,4.59,0,0,1,2.38-.64A4.52,4.52,0,0,1,90.94,357.48Zm-1.15,6.2a2.53,2.53,0,0,0,.89-.89,2.32,2.32,0,0,0,.33-1.21,2.41,2.41,0,0,0-.33-1.23,2.53,2.53,0,0,0-.89-.89,2.32,2.32,0,0,0-1.21-.33,2.39,2.39,0,0,0-1.23.33,2.53,2.53,0,0,0-.89.89,2.41,2.41,0,0,0-.33,1.23,2.32,2.32,0,0,0,.33,1.21,2.53,2.53,0,0,0,.89.89,2.39,2.39,0,0,0,1.23.33A2.32,2.32,0,0,0,89.79,363.68Z"/><path class="cls-3" d="M101.69,356.86v5.77a3.64,3.64,0,0,1-.49,1.86,3.69,3.69,0,0,1-1.35,1.34,3.64,3.64,0,0,1-1.86.49h-.21a3.58,3.58,0,0,1-1.85-.49,3.77,3.77,0,0,1-1.35-1.34,3.64,3.64,0,0,1-.49-1.86v-5.77H96.3v5.25a2.28,2.28,0,0,0,.39,1.36,1.29,1.29,0,0,0,1.09.54H98a1.29,1.29,0,0,0,1.08-.55,2.21,2.21,0,0,0,.41-1.35v-5.25Z"/><path class="cls-3" d="M107.89,356.84h2.38v9.35h-2.38l-2.75-5v5h-2.39v-9.35h2.39l2.75,5Z"/><path class="cls-3" d="M115.43,356.81a5.37,5.37,0,0,1,1.41.34,3.88,3.88,0,0,1,1.29.81,4.59,4.59,0,0,1,1.14,1.6,4.76,4.76,0,0,1,.4,1.92,4.59,4.59,0,0,1-.51,2.16,4.27,4.27,0,0,1-1.45,1.65,5.11,5.11,0,0,1-1.9.75,13.82,13.82,0,0,1-2.36.18h-1.09l-1,0v-9.45h2.39A16.94,16.94,0,0,1,115.43,356.81Zm2,4.67a2.39,2.39,0,0,0-.32-1.19,2.5,2.5,0,0,0-.86-.91A2.24,2.24,0,0,0,115,359h-1.3v4.87a9.76,9.76,0,0,0,1.64-.11,2.8,2.8,0,0,0,1.23-.52,2.07,2.07,0,0,0,.74-1.23A2.32,2.32,0,0,0,117.4,361.48Z"/><path class="cls-3" d="M120.92,364.57h2.23l-1,3h-2Z"/><path class="cls-3" d="M132.78,356.94l3.05,9.25h-2.3l-.61-1.89H130l-.6,1.89h-2.31l3.06-9.25Zm-2.13,5.43h1.66l-.83-2.62Z"/><path class="cls-3" d="M141.24,356.84h2.38v9.35h-2.38l-2.75-5v5h-2.4v-9.35h2.4l2.75,5Z"/><path class="cls-3" d="M148.78,356.81a5.4,5.4,0,0,1,1.4.34,3.69,3.69,0,0,1,1.29.81,4.49,4.49,0,0,1,1.15,1.6,4.93,4.93,0,0,1,.4,1.92,4.48,4.48,0,0,1-.52,2.16,4.25,4.25,0,0,1-1.44,1.65,5.16,5.16,0,0,1-1.91.75,13.74,13.74,0,0,1-2.36.18h-1.08l-1,0v-9.45h2.39A16.94,16.94,0,0,1,148.78,356.81Zm2,4.67a2.39,2.39,0,0,0-.32-1.19,2.45,2.45,0,0,0-.87-.91,2.18,2.18,0,0,0-1.19-.35h-1.3v4.87a9.63,9.63,0,0,0,1.63-.11,2.71,2.71,0,0,0,1.23-.52,2,2,0,0,0,.75-1.23A3,3,0,0,0,150.75,361.48Z"/><path class="cls-3" d="M163.7,357.23a3,3,0,0,1,1.05,1.06,2.93,2.93,0,0,1,0,2.92,2.87,2.87,0,0,1-2.52,1.45H160v3.53h-2.23v-9.35h4.45A2.89,2.89,0,0,1,163.7,357.23Zm-.92,1.84a.91.91,0,0,0-.62-.31H160v2h2.2a.84.84,0,0,0,.62-.32,1,1,0,0,0,.26-.68A.93.93,0,0,0,162.78,359.07Z"/><path class="cls-3" d="M173.57,366.19h-2.4l-1.48-3.53h-1.52v3.53h-2.23v-9.35h4.45a2.89,2.89,0,0,1,2.52,1.46,2.9,2.9,0,0,1,0,2.85,2.93,2.93,0,0,1-1,1.05Zm-2.64-7.12a.87.87,0,0,0-.62-.31h-2.19v2h2.19a.88.88,0,0,0,.62-.32,1,1,0,0,0,.26-.68A1,1,0,0,0,170.93,359.07Z"/><path class="cls-3" d="M180.72,364.17v2h-6.36v-9.35h6.24v2h-3.85v1.64H180v2h-3.24v1.64Z"/><path class="cls-3" d="M186.05,359.81v-.18a.82.82,0,0,0-.33-.65,1.16,1.16,0,0,0-.78-.27,1.28,1.28,0,0,0-.82.27.82.82,0,0,0-.33.65.6.6,0,0,0,.34.57,2.71,2.71,0,0,0,.9.37l.2,0,.23.06a4.37,4.37,0,0,1,1.9.78l.11.1a2.75,2.75,0,0,1,.63.91,2.57,2.57,0,0,1,.23,1.06,2.63,2.63,0,0,1-.25,1.14,3,3,0,0,1-.75,1,3.4,3.4,0,0,1-1.11.63,3.82,3.82,0,0,1-1.3.22,3.72,3.72,0,0,1-1.29-.22,3.35,3.35,0,0,1-1.1-.63,2.85,2.85,0,0,1-.75-1,2.52,2.52,0,0,1-.27-1.14v-.17h2.32v.17a.81.81,0,0,0,.32.66,1.17,1.17,0,0,0,.77.27,1.28,1.28,0,0,0,.82-.27.82.82,0,0,0,.33-.66.78.78,0,0,0-.35-.58,1.46,1.46,0,0,0-.37-.2c-.14-.05-.32-.11-.52-.16l-.44-.1c-.48-.13-.86-.24-1.13-.33a2.35,2.35,0,0,1-.76-.45l-.05-.06a2.89,2.89,0,0,1-.69-.92,2.45,2.45,0,0,1-.25-1.09,2.51,2.51,0,0,1,.27-1.13,2.79,2.79,0,0,1,.75-1,3.75,3.75,0,0,1,1.1-.63,4,4,0,0,1,1.29-.21,4.07,4.07,0,0,1,1.3.21,3.8,3.8,0,0,1,1.11.63,2.92,2.92,0,0,1,.75,1,2.62,2.62,0,0,1,.25,1.13v.18Z"/><path class="cls-3" d="M195.49,364.17v2h-6.36v-9.35h6.24v2h-3.85v1.64h3.24v2h-3.24v1.64Z"/><path class="cls-3" d="M201.69,356.84h2.38v9.35h-2.38l-2.75-5v5h-2.4v-9.35h2.4l2.75,5Z"/><path class="cls-3" d="M212.17,356.84v2.38h-2.39v7h-2.39v-7H205v-2.38h7.18Z"/><path class="cls-3" d="M224.11,356.84v2.38h-2.39v7h-2.39v-7h-2.4v-2.38h7.18Z"/><path class="cls-3" d="M231.88,357.48a4.7,4.7,0,0,1,1.71,1.72,4.59,4.59,0,0,1,.64,2.38,4.52,4.52,0,0,1-.64,2.36,4.73,4.73,0,0,1-8.82-2.36,4.74,4.74,0,0,1,2.36-4.1,4.73,4.73,0,0,1,4.75,0Zm-1.16,6.2a2.53,2.53,0,0,0,.89-.89,2.32,2.32,0,0,0,.33-1.21,2.41,2.41,0,0,0-.33-1.23,2.53,2.53,0,0,0-.89-.89,2.32,2.32,0,0,0-1.21-.33,2.35,2.35,0,0,0-1.22.33,2.48,2.48,0,0,0-.9.89,2.41,2.41,0,0,0-.33,1.23,2.32,2.32,0,0,0,.33,1.21,2.48,2.48,0,0,0,.9.89,2.35,2.35,0,0,0,1.22.33A2.32,2.32,0,0,0,230.72,363.68Z"/><path class="cls-3" d="M246,356.84v2.38h-2.4v7h-2.39v-7h-2.39v-2.38H246Z"/><path class="cls-3" d="M252,356.84h2.38v9.35H252V362.7h-2.67v3.49H247v-9.35h2.38v3.48H252Z"/><path class="cls-3" d="M261.81,364.17v2h-6.36v-9.35h6.24v2h-3.85v1.64h3.24v2h-3.24v1.64Z"/><path class="cls-3" d="M272.75,357.23a2.91,2.91,0,0,1,1.06,1.06,2.91,2.91,0,0,1-2.52,4.37h-2.22v3.53h-2.24v-9.35h4.46A2.85,2.85,0,0,1,272.75,357.23Zm-.91,1.84a.91.91,0,0,0-.63-.31H269v2h2.2a.85.85,0,0,0,.63-.32,1,1,0,0,0,.26-.68A1,1,0,0,0,271.84,359.07Z"/><path class="cls-3" d="M281.83,357.48a4.81,4.81,0,0,1,1.72,1.72,4.68,4.68,0,0,1,.63,2.38,4.61,4.61,0,0,1-.63,2.36,4.73,4.73,0,0,1-1.72,1.72,4.71,4.71,0,0,1-4.74,0,4.68,4.68,0,0,1-2.36-4.08,4.68,4.68,0,0,1,2.36-4.1,4.71,4.71,0,0,1,4.74,0Zm-1.15,6.2a2.5,2.5,0,0,0,.88-.89,2.32,2.32,0,0,0,.33-1.21,2.41,2.41,0,0,0-.33-1.23,2.5,2.5,0,0,0-.88-.89,2.42,2.42,0,0,0-2.44,0,2.48,2.48,0,0,0-.9.89,2.41,2.41,0,0,0-.33,1.23,2.32,2.32,0,0,0,.33,1.21,2.48,2.48,0,0,0,.9.89,2.42,2.42,0,0,0,2.44,0Z"/><path class="cls-3" d="M292,356.84v2.38h-2.39v7h-2.4v-7h-2.39v-2.38H292Z"/><path class="cls-3" d="M299.31,364.17v2H293v-9.35h6.24v2h-3.85v1.64h3.24v2h-3.24v1.64Z"/><path class="cls-3" d="M305.51,356.84h2.38v9.35h-2.38l-2.75-5v5h-2.4v-9.35h2.4l2.75,5Z"/><path class="cls-3" d="M316,356.84v2.38H313.6v7h-2.39v-7h-2.4v-2.38H316Z"/><path class="cls-3" d="M319.3,356.84v9.35h-2.38v-9.35Z"/><path class="cls-3" d="M325.22,356.94l3.06,9.25H326l-.61-1.89h-2.9l-.59,1.89h-2.32l3.07-9.25Zm-2.13,5.43h1.67l-.83-2.62Z"/><path class="cls-3" d="M330.92,363.94h3.68v2.25h-6.06v-9.35h2.38Z"/><path class="cls-3" d="M37.79,379.66a2.64,2.64,0,0,0,.79-.52l1.62,1.61a4.73,4.73,0,0,1-1.52,1,4.71,4.71,0,0,1-4.2-.27,4.63,4.63,0,0,1-1.71-1.72,4.52,4.52,0,0,1-.64-2.36,4.59,4.59,0,0,1,.64-2.38,4.71,4.71,0,0,1,4.08-2.36,4.57,4.57,0,0,1,1.83.37,4.73,4.73,0,0,1,1.52,1l-1.62,1.62a2.46,2.46,0,0,0-1.73-.72,2.35,2.35,0,0,0-1.22.33,2.5,2.5,0,0,0-.88.89,2.41,2.41,0,0,0-.33,1.23,2.32,2.32,0,0,0,.33,1.21,2.5,2.5,0,0,0,.88.89,2.35,2.35,0,0,0,1.22.33A2.32,2.32,0,0,0,37.79,379.66Z"/><path class="cls-3" d="M43.37,379.81H47v2.25H41v-9.35h2.38Z"/><path class="cls-3" d="M50.35,372.71v9.35H48v-9.35Z"/><path class="cls-3" d="M57.77,380v2H51.41v-9.35h6.24v2H53.8v1.64H57v2H53.8V380Z"/><path class="cls-3" d="M64,372.71h2.38v9.35H64l-2.75-5v5H58.83v-9.35h2.39l2.75,5Z"/><path class="cls-3" d="M74.45,372.71v2.38H72.06v7H69.67v-7h-2.4v-2.38h7.18Z"/><path class="cls-3" d="M84.21,372.8l3.06,9.26H85l-.61-1.89h-2.9l-.59,1.89H78.55l3.07-9.26Zm-2.13,5.44h1.67l-.83-2.62Z"/><path class="cls-3" d="M89.91,379.81h3.68v2.25H87.53v-9.35h2.38Z"/><path class="cls-3" d="M96.89,379.81h3.68v2.25H94.51v-9.35h2.38Z"/><path class="cls-3" d="M112.51,372.71v2.38h-2.4v7h-2.39v-7h-2.39v-2.38h7.18Z"/><path class="cls-3" d="M118.48,372.71h2.38v9.35h-2.38v-3.49h-2.67v3.49h-2.38v-9.35h2.38v3.48h2.67Z"/><path class="cls-3" d="M128.28,380v2h-6.36v-9.35h6.24v2h-3.84v1.64h3.23v2h-3.23V380Z"/><path class="cls-3" d="M137.58,375.67v-.17a.81.81,0,0,0-.33-.65,1.18,1.18,0,0,0-.78-.28,1.29,1.29,0,0,0-.82.28.81.81,0,0,0-.33.65.6.6,0,0,0,.34.57,2.94,2.94,0,0,0,.9.37l.2,0,.24,0a4.64,4.64,0,0,1,1.89.78l.11.11a2.65,2.65,0,0,1,.63.91,2.54,2.54,0,0,1,.23,1.06,2.7,2.7,0,0,1-.25,1.14,3,3,0,0,1-.75,1,3.8,3.8,0,0,1-1.11.63,4.08,4.08,0,0,1-1.3.22,4,4,0,0,1-1.29-.22,3.75,3.75,0,0,1-1.1-.63,2.85,2.85,0,0,1-.75-1,2.58,2.58,0,0,1-.27-1.14v-.17h2.32v.17a.81.81,0,0,0,.32.65,1.17,1.17,0,0,0,.77.27,1.28,1.28,0,0,0,.82-.27.82.82,0,0,0,.33-.65.77.77,0,0,0-.35-.58,1.46,1.46,0,0,0-.37-.2,3.61,3.61,0,0,0-.52-.16l-.44-.11a11.45,11.45,0,0,1-1.13-.33,2,2,0,0,1-.76-.45l-.05-.05a2.82,2.82,0,0,1-.69-.93,2.38,2.38,0,0,1-.25-1.08,2.52,2.52,0,0,1,.27-1.14,2.85,2.85,0,0,1,.75-1,3.75,3.75,0,0,1,1.1-.63,4,4,0,0,1,1.29-.22,4.08,4.08,0,0,1,1.3.22,3.8,3.8,0,0,1,1.11.63,3,3,0,0,1,.75,1,2.63,2.63,0,0,1,.25,1.14v.17Z"/><path class="cls-3" d="M147.71,372.71v2.38h-2.4v7h-2.39v-7h-2.39v-2.38h7.18Z"/><path class="cls-3" d="M156.26,382.06h-2.39l-1.48-3.53h-1.52v3.53h-2.24v-9.35h4.46a2.92,2.92,0,0,1,2.91,2.91,2.77,2.77,0,0,1-.36,1.39,3.08,3.08,0,0,1-1,1.06Zm-2.63-7.12a.91.91,0,0,0-.62-.31h-2.2v2H153a1,1,0,0,0,.62-.32,1,1,0,0,0,.25-.68A1,1,0,0,0,153.63,374.94Z"/><path class="cls-3" d="M163.41,380v2h-6.36v-9.35h6.24v2h-3.84v1.64h3.24v2h-3.24V380Z"/><path class="cls-3" d="M169.61,372.71H172v9.35h-2.38l-2.75-5v5h-2.39v-9.35h2.39l2.75,5Z"/><path class="cls-3" d="M182.24,377.43a4.65,4.65,0,0,1-.63,2.37,4.83,4.83,0,0,1-1.73,1.72,4.67,4.67,0,0,1-2.37.63,4.62,4.62,0,0,1-2.37-.63,4.81,4.81,0,0,1-1.72-1.72,4.72,4.72,0,0,1,4.09-7.1,4.58,4.58,0,0,1,1.84.37,4.65,4.65,0,0,1,1.52,1l-2.13,1.22a2.38,2.38,0,0,0-2.45,0,2.42,2.42,0,0,0-.88.89,2.36,2.36,0,0,0,0,2.44,2.47,2.47,0,0,0,.88.88,2.35,2.35,0,0,0,1.22.33,2.4,2.4,0,0,0,1.28-.36,2.47,2.47,0,0,0,.9-1h-2.94v-2.2h5.36A5,5,0,0,1,182.24,377.43Z"/><path class="cls-3" d="M190.08,372.71v2.38h-2.39v7h-2.4v-7H182.9v-2.38h7.18Z"/><path class="cls-3" d="M196.06,372.71h2.38v9.35h-2.38v-3.49h-2.67v3.49H191v-9.35h2.38v3.48h2.67Z"/><path class="cls-3" d="M203.77,375.67v-.17a.81.81,0,0,0-.33-.65,1.18,1.18,0,0,0-.78-.28,1.29,1.29,0,0,0-.82.28.81.81,0,0,0-.33.65.6.6,0,0,0,.34.57,2.94,2.94,0,0,0,.9.37l.2,0,.23,0a4.63,4.63,0,0,1,1.9.78l.11.11a2.65,2.65,0,0,1,.63.91,2.54,2.54,0,0,1,.23,1.06,2.7,2.7,0,0,1-.25,1.14,3,3,0,0,1-.75,1,3.8,3.8,0,0,1-1.11.63,4.08,4.08,0,0,1-1.3.22,4,4,0,0,1-1.29-.22,3.75,3.75,0,0,1-1.1-.63,2.85,2.85,0,0,1-.75-1,2.58,2.58,0,0,1-.27-1.14v-.17h2.31v.17a.82.82,0,0,0,.33.65,1.15,1.15,0,0,0,.77.27,1.28,1.28,0,0,0,.82-.27.82.82,0,0,0,.33-.65.77.77,0,0,0-.35-.58,1.46,1.46,0,0,0-.37-.2,4.06,4.06,0,0,0-.52-.16l-.44-.11A11.45,11.45,0,0,1,201,378a2,2,0,0,1-.76-.45l-.05-.05a2.82,2.82,0,0,1-.69-.93,2.38,2.38,0,0,1-.25-1.08,2.52,2.52,0,0,1,.27-1.14,2.85,2.85,0,0,1,.75-1,3.75,3.75,0,0,1,1.1-.63,4,4,0,0,1,1.29-.22,4.08,4.08,0,0,1,1.3.22,3.8,3.8,0,0,1,1.11.63,3,3,0,0,1,.75,1,2.63,2.63,0,0,1,.25,1.14v.17Z"/><path class="cls-3" d="M217.65,373.35a4.75,4.75,0,0,1,1.72,6.46,4.73,4.73,0,0,1-1.72,1.72,4.62,4.62,0,0,1-2.37.63,4.67,4.67,0,0,1-2.37-.63,4.76,4.76,0,0,1-1.73-1.72,4.62,4.62,0,0,1-.63-2.37,4.68,4.68,0,0,1,2.36-4.09,4.58,4.58,0,0,1,2.37-.64A4.53,4.53,0,0,1,217.65,373.35Zm-1.15,6.2a2.42,2.42,0,0,0,.88-.89,2.27,2.27,0,0,0,.34-1.22,2.29,2.29,0,0,0-.34-1.22,2.42,2.42,0,0,0-.88-.89,2.42,2.42,0,0,0-2.44,0,2.53,2.53,0,0,0-.89.89,2.38,2.38,0,0,0-.33,1.22,2.35,2.35,0,0,0,.33,1.22,2.53,2.53,0,0,0,.89.89,2.42,2.42,0,0,0,2.44,0Z"/><path class="cls-3" d="M227.3,374.73h-4.12v1.64h3.3v2h-3.3v3.66H220.8v-9.35h6.5Z"/><path class="cls-3" d="M239.11,372.71v2.38h-2.4v7h-2.39v-7h-2.39v-2.38h7.18Z"/><path class="cls-3" d="M245.08,372.71h2.38v9.35h-2.38v-3.49h-2.67v3.49H240v-9.35h2.38v3.48h2.67Z"/><path class="cls-3" d="M254.88,380v2h-6.36v-9.35h6.24v2h-3.84v1.64h3.24v2h-3.24V380Z"/><path class="cls-3" d="M265.82,373.1a2.91,2.91,0,0,1-1.46,5.43h-2.22v3.53h-2.23v-9.35h4.45A2.83,2.83,0,0,1,265.82,373.1Zm-.91,1.84a.91.91,0,0,0-.63-.31h-2.19v2h2.19a.88.88,0,0,0,.63-.32,1,1,0,0,0,.26-.68A1,1,0,0,0,264.91,374.94Z"/><path class="cls-3" d="M275.69,382.06H273.3l-1.48-3.53H270.3v3.53h-2.24v-9.35h4.46a2.92,2.92,0,0,1,2.91,2.91,2.77,2.77,0,0,1-.36,1.39,3.15,3.15,0,0,1-1,1.06Zm-2.63-7.12a.89.89,0,0,0-.62-.31h-2.19v2h2.19a.94.94,0,0,0,.62-.32,1,1,0,0,0,.25-.68A1,1,0,0,0,273.06,374.94Z"/><path class="cls-3" d="M283.32,373.35a4.72,4.72,0,0,1,1.72,6.46,4.73,4.73,0,0,1-1.72,1.72,4.61,4.61,0,0,1-2.36.63,4.7,4.7,0,0,1-4.1-2.35,4.53,4.53,0,0,1-.64-2.37,4.58,4.58,0,0,1,.64-2.37,4.65,4.65,0,0,1,1.72-1.72,4.59,4.59,0,0,1,2.38-.64A4.52,4.52,0,0,1,283.32,373.35Zm-1.15,6.2a2.53,2.53,0,0,0,.89-.89,2.35,2.35,0,0,0,.33-1.22,2.38,2.38,0,0,0-.33-1.22,2.53,2.53,0,0,0-.89-.89A2.32,2.32,0,0,0,281,375a2.39,2.39,0,0,0-1.23.33,2.53,2.53,0,0,0-.89.89,2.38,2.38,0,0,0-.33,1.22,2.35,2.35,0,0,0,.33,1.22,2.53,2.53,0,0,0,.89.89,2.39,2.39,0,0,0,1.23.33A2.32,2.32,0,0,0,282.17,379.55Z"/><path class="cls-3" d="M290.57,372.68A6,6,0,0,1,292,373a4.23,4.23,0,0,1,1.29.81,4.82,4.82,0,0,1,1.54,3.53,4.62,4.62,0,0,1-.51,2.16,4.36,4.36,0,0,1-1.45,1.65,5.09,5.09,0,0,1-1.91.75,13.82,13.82,0,0,1-2.36.17h-2.11V372.6h2.39A16.65,16.65,0,0,1,290.57,372.68Zm2,4.67a2.45,2.45,0,0,0-.32-1.2,2.5,2.5,0,0,0-.87-.9,2.28,2.28,0,0,0-1.19-.36h-1.3v4.88a10.94,10.94,0,0,0,1.64-.11,2.83,2.83,0,0,0,1.22-.52,2.09,2.09,0,0,0,.75-1.23A2.38,2.38,0,0,0,292.54,377.35Z"/><path class="cls-3" d="M303.21,372.72v5.78a3.59,3.59,0,0,1-.5,1.85,3.72,3.72,0,0,1-1.35,1.35,3.61,3.61,0,0,1-1.85.49h-.22a3.61,3.61,0,0,1-1.85-.49,3.77,3.77,0,0,1-1.34-1.35,3.58,3.58,0,0,1-.49-1.85v-5.78h2.2V378a2.26,2.26,0,0,0,.4,1.36,1.26,1.26,0,0,0,1.08.55h.22a1.29,1.29,0,0,0,1.07-.55A2.18,2.18,0,0,0,301,378v-5.25Z"/><path class="cls-3" d="M309.66,379.66a2.64,2.64,0,0,0,.79-.52l1.62,1.61a4.73,4.73,0,0,1-1.52,1,4.73,4.73,0,0,1-6.55-4.35,4.59,4.59,0,0,1,.64-2.38,4.74,4.74,0,0,1,4.08-2.36,4.54,4.54,0,0,1,1.83.37,4.73,4.73,0,0,1,1.52,1l-1.62,1.62a2.46,2.46,0,0,0-1.73-.72,2.32,2.32,0,0,0-1.21.33,2.45,2.45,0,0,0-.89.89,2.41,2.41,0,0,0-.33,1.23,2.32,2.32,0,0,0,.33,1.21,2.45,2.45,0,0,0,.89.89,2.4,2.4,0,0,0,2.15.14Z"/><path class="cls-3" d="M319.91,372.71v2.38h-2.4v7h-2.39v-7h-2.39v-2.38h7.18Z"/><path class="cls-3" d="M320.93,381.68a1.3,1.3,0,0,1-.36-.92,1.18,1.18,0,0,1,.36-.86,1.22,1.22,0,0,1,.87-.35,1.26,1.26,0,0,1,1.25,1.25,1.2,1.2,0,0,1-.37.89,1.18,1.18,0,0,1-.88.37A1.15,1.15,0,0,1,320.93,381.68Z"/><path class="cls-4" d="M44.05,245.47h3.12v14.14h-3.6l-3.64-6-3.66,6h-3.6V245.47h3.6v8l1.76-3.2.1-.16h3.6l.08.16,1.76,3.2v-8Z"/><path class="cls-4" d="M56.41,245.47H60v14.14h-3.6v-5.28h-4v5.28h-3.6V245.47h3.6v5.26h4Z"/><path class="cls-4" d="M69,245.61l4.62,14H70.11l-.92-2.86H64.81l-.9,2.86h-3.5l4.64-14Zm-3.22,8.22h2.52l-1.26-4Z"/><path class="cls-4" d="M84.65,245.47v3.6H81v10.54H77.41V249.07H73.79v-3.6H84.65Z"/><path class="cls-4" d="M95.65,245.47v14.14h-3.6V245.47Z"/><path class="cls-4" d="M107.91,245.47v3.6h-3.62v10.54h-3.62V249.07H97.05v-3.6h10.86Z"/><path class="cls-4" d="M118.91,245.47v14.14h-3.6V245.47Z"/><path class="cls-4" d="M127,250v-.26a1.26,1.26,0,0,0-.49-1,1.83,1.83,0,0,0-1.19-.41,1.92,1.92,0,0,0-1.23.41,1.22,1.22,0,0,0-.51,1,.91.91,0,0,0,.52.86,4.25,4.25,0,0,0,1.36.56l.31.06.35.08a7,7,0,0,1,2.86,1.18l.18.16a4.47,4.47,0,0,1,1,1.38,4,4,0,0,1,.35,1.6,4,4,0,0,1-.39,1.72,4.5,4.5,0,0,1-1.13,1.46,5.57,5.57,0,0,1-1.68.95,5.89,5.89,0,0,1-2,.33,5.79,5.79,0,0,1-2-.33,5.41,5.41,0,0,1-1.67-.95,4.4,4.4,0,0,1-1.14-1.46,3.84,3.84,0,0,1-.4-1.72v-.26h3.5v.26a1.23,1.23,0,0,0,.49,1,1.76,1.76,0,0,0,1.17.41,1.92,1.92,0,0,0,1.23-.41,1.22,1.22,0,0,0,.51-1,1.15,1.15,0,0,0-.54-.88,2.29,2.29,0,0,0-.56-.3q-.33-.12-.78-.24l-.66-.16c-.74-.19-1.31-.35-1.72-.5a3.33,3.33,0,0,1-1.14-.68l-.08-.08a4.26,4.26,0,0,1-1-1.4,3.74,3.74,0,0,1-.37-1.64,3.84,3.84,0,0,1,.4-1.72,4.4,4.4,0,0,1,1.14-1.46,5.41,5.41,0,0,1,1.67-.95,5.79,5.79,0,0,1,2-.33,5.89,5.89,0,0,1,2,.33,5.57,5.57,0,0,1,1.68.95A4.5,4.5,0,0,1,130,248a4,4,0,0,1,.39,1.72V250Z"/><path class="cls-4" d="M149.13,245.49v8.74a5.44,5.44,0,0,1-.75,2.8,5.59,5.59,0,0,1-2,2,5.5,5.5,0,0,1-2.81.75h-.32a5.41,5.41,0,0,1-2.8-.75,5.57,5.57,0,0,1-2-2,5.44,5.44,0,0,1-.75-2.8v-8.74H141v7.94a3.4,3.4,0,0,0,.6,2.06,1.91,1.91,0,0,0,1.64.82h.32a2,2,0,0,0,1.63-.83,3.29,3.29,0,0,0,.63-2v-7.94Z"/><path class="cls-4" d="M157.19,250v-.26a1.26,1.26,0,0,0-.49-1,1.83,1.83,0,0,0-1.19-.41,1.92,1.92,0,0,0-1.23.41,1.22,1.22,0,0,0-.51,1,.91.91,0,0,0,.52.86,4.25,4.25,0,0,0,1.36.56l.31.06.35.08a7,7,0,0,1,2.86,1.18l.18.16a4.47,4.47,0,0,1,1,1.38,4,4,0,0,1,.35,1.6,4,4,0,0,1-.39,1.72,4.5,4.5,0,0,1-1.13,1.46,5.57,5.57,0,0,1-1.68.95,5.89,5.89,0,0,1-2,.33,5.79,5.79,0,0,1-2-.33,5.41,5.41,0,0,1-1.67-.95,4.4,4.4,0,0,1-1.14-1.46,3.84,3.84,0,0,1-.4-1.72v-.26h3.5v.26a1.23,1.23,0,0,0,.49,1,1.76,1.76,0,0,0,1.17.41,1.92,1.92,0,0,0,1.23-.41,1.22,1.22,0,0,0,.51-1,1.15,1.15,0,0,0-.54-.88,2.29,2.29,0,0,0-.56-.3q-.33-.12-.78-.24l-.66-.16c-.74-.19-1.31-.35-1.72-.5a3.33,3.33,0,0,1-1.14-.68l-.08-.08a4.26,4.26,0,0,1-1.05-1.4,3.74,3.74,0,0,1-.37-1.64,3.84,3.84,0,0,1,.4-1.72,4.4,4.4,0,0,1,1.14-1.46,5.41,5.41,0,0,1,1.67-.95,5.79,5.79,0,0,1,2-.33,5.89,5.89,0,0,1,2,.33,5.57,5.57,0,0,1,1.68.95,4.5,4.5,0,0,1,1.13,1.46,4,4,0,0,1,.39,1.72V250Z"/><path class="cls-4" d="M171.47,256.55v3.06h-9.62V245.47h9.44v3.06h-5.82V251h4.9v3.06h-4.9v2.48Z"/><path class="cls-4" d="M179.27,245.42a8.07,8.07,0,0,1,2.13.51,6.12,6.12,0,0,1,1.95,1.22,7.15,7.15,0,0,1,1.73,2.43,7.37,7.37,0,0,1,.61,2.91,6.88,6.88,0,0,1-.78,3.26,6.57,6.57,0,0,1-2.19,2.5,7.78,7.78,0,0,1-2.88,1.13,21.1,21.1,0,0,1-3.57.27l-1.64,0-1.56,0v-14.3h3.62C177.69,245.31,178.55,245.35,179.27,245.42Zm3,7.07a3.63,3.63,0,0,0-.48-1.81,3.82,3.82,0,0,0-1.31-1.37,3.45,3.45,0,0,0-1.81-.54h-2v7.38a15.85,15.85,0,0,0,2.47-.17,4.27,4.27,0,0,0,1.86-.79,3.14,3.14,0,0,0,1.13-1.86A4.54,4.54,0,0,0,182.25,252.49Z"/><path class="cls-4" d="M202.73,248.53h-6.24V251h5v3.06h-5v5.54h-3.6V245.47h9.84Z"/><path class="cls-4" d="M214.27,246.43a7.17,7.17,0,0,1,3.56,6.2,7.06,7.06,0,0,1-1,3.58,7.2,7.2,0,0,1-2.6,2.6,7.17,7.17,0,0,1-7.17,0,7.15,7.15,0,0,1-2.61-2.6,7.17,7.17,0,0,1,0-7.17,7.1,7.1,0,0,1,2.61-2.61,7.17,7.17,0,0,1,7.17,0Zm-1.74,9.38a3.91,3.91,0,0,0,1.34-1.34,3.55,3.55,0,0,0,.5-1.84,3.62,3.62,0,0,0-.5-1.85,3.85,3.85,0,0,0-1.34-1.35,3.61,3.61,0,0,0-1.84-.5,3.65,3.65,0,0,0-1.86.5,3.69,3.69,0,0,0-1.34,1.35,3.52,3.52,0,0,0-.5,1.85,3.46,3.46,0,0,0,.5,1.84,3.74,3.74,0,0,0,1.34,1.34,3.65,3.65,0,0,0,1.86.5A3.61,3.61,0,0,0,212.53,255.81Z"/><path class="cls-4" d="M230.56,259.61H227l-2.24-5.34h-2.3v5.34H219V245.47h6.74a4.32,4.32,0,0,1,2.2.59,4.39,4.39,0,0,1,1.62,1.61,4.39,4.39,0,0,1,0,4.31,4.64,4.64,0,0,1-1.46,1.59Zm-4-10.77a1.32,1.32,0,0,0-.94-.47h-3.31v3h3.31a1.38,1.38,0,0,0,.94-.49,1.48,1.48,0,0,0,.38-1A1.45,1.45,0,0,0,226.58,248.84Z"/><path class="cls-4" d="M232.36,252.91a1.83,1.83,0,0,1-.5-1.16,1.62,1.62,0,0,1,1.62-1.66,1.62,1.62,0,0,1,1.66,1.66,1.56,1.56,0,0,1-.49,1.16,1.59,1.59,0,0,1-1.17.48A1.5,1.5,0,0,1,232.36,252.91Zm0,6.22a1.83,1.83,0,0,1-.5-1.16,1.62,1.62,0,0,1,1.62-1.66,1.62,1.62,0,0,1,1.66,1.66,1.56,1.56,0,0,1-.49,1.16,1.59,1.59,0,0,1-1.17.48A1.5,1.5,0,0,1,232.36,259.13Z"/><path class="cls-4" d="M56.65,39.15h7.92V70.26H56.65V52.7l-3.87,7-.18.35H44.68l-.22-.35-.53-1-3.3-6V70.26h-8V39.15h8l8,13.24Z"/><path class="cls-4" d="M84.28,39.46l10.16,30.8H86.79l-2-6.29H75.13l-2,6.29h-7.7l10.21-30.8ZM77.2,57.54h5.54L80,48.83Z"/><path class="cls-4" d="M109.53,49v-.58a2.75,2.75,0,0,0-1.07-2.17,4,4,0,0,0-2.62-.91,4.2,4.2,0,0,0-2.71.91A2.69,2.69,0,0,0,102,48.43a2,2,0,0,0,1.14,1.9,9.51,9.51,0,0,0,3,1.23c.2,0,.43.07.68.13l.77.18c3.14.76,5.23,1.63,6.29,2.59l.4.35a9.69,9.69,0,0,1,2.09,3,8.61,8.61,0,0,1-.09,7.31,9.75,9.75,0,0,1-2.49,3.21,11.77,11.77,0,0,1-3.69,2.09,13.06,13.06,0,0,1-4.32.72,12.88,12.88,0,0,1-4.29-.72,12,12,0,0,1-3.67-2.09,10.23,10.23,0,0,1-2.51-3.21,8.67,8.67,0,0,1-.88-3.79V60.8h7.7v.57a2.75,2.75,0,0,0,1.08,2.18,3.89,3.89,0,0,0,2.57.9,4.2,4.2,0,0,0,2.71-.9,2.71,2.71,0,0,0,1.12-2.18,2.54,2.54,0,0,0-1.19-1.94,5.12,5.12,0,0,0-1.23-.66c-.47-.17-1-.35-1.71-.52L104,57.89c-1.61-.41-2.87-.77-3.78-1.1a7.59,7.59,0,0,1-2.51-1.49l-.17-.18A9.74,9.74,0,0,1,95.26,52a8.19,8.19,0,0,1-.82-3.61,8.62,8.62,0,0,1,.88-3.78,10.23,10.23,0,0,1,2.51-3.21,11.82,11.82,0,0,1,3.67-2.09,12.89,12.89,0,0,1,4.29-.73,13.06,13.06,0,0,1,4.32.73,11.58,11.58,0,0,1,3.69,2.09,9.75,9.75,0,0,1,2.49,3.21,8.74,8.74,0,0,1,.86,3.78V49Z"/><path class="cls-4" d="M134,49v-.58a2.73,2.73,0,0,0-1.08-2.17,4,4,0,0,0-2.62-.91,4.18,4.18,0,0,0-2.7.91,2.7,2.7,0,0,0-1.13,2.17,2,2,0,0,0,1.15,1.9,9.45,9.45,0,0,0,3,1.23c.21,0,.43.07.68.13l.77.18c3.14.76,5.24,1.63,6.29,2.59l.4.35a9.53,9.53,0,0,1,2.09,3,8.61,8.61,0,0,1-.09,7.31,9.85,9.85,0,0,1-2.48,3.21,11.94,11.94,0,0,1-3.7,2.09,13,13,0,0,1-4.31.72,12.79,12.79,0,0,1-4.29-.72,12,12,0,0,1-3.68-2.09,10.06,10.06,0,0,1-2.5-3.21,8.53,8.53,0,0,1-.88-3.79V60.8h7.7v.57a2.74,2.74,0,0,0,1.07,2.18,3.9,3.9,0,0,0,2.58.9,4.17,4.17,0,0,0,2.7-.9,2.72,2.72,0,0,0,1.13-2.18,2.57,2.57,0,0,0-1.19-1.94,5.32,5.32,0,0,0-1.23-.66,17.6,17.6,0,0,0-1.72-.52l-1.45-.36c-1.62-.41-2.88-.77-3.79-1.1a7.55,7.55,0,0,1-2.5-1.49l-.18-.18A9.74,9.74,0,0,1,119.72,52a8.32,8.32,0,0,1-.81-3.61,8.49,8.49,0,0,1,.88-3.78,10.06,10.06,0,0,1,2.5-3.21A11.75,11.75,0,0,1,126,39.35a12.8,12.8,0,0,1,4.29-.73,13,13,0,0,1,4.31.73,11.74,11.74,0,0,1,3.7,2.09,9.85,9.85,0,0,1,2.48,3.21,8.74,8.74,0,0,1,.86,3.78V49Z"/><path class="cls-4" d="M181.43,39.15h7.92V70.26h-7.92V52.7l-3.87,7-.18.35h-7.92l-.22-.35-.53-1-3.3-6V70.26h-8V39.15h8l8,13.24Z"/><path class="cls-4" d="M214,63.53v6.73H192.87V39.15h20.77v6.73H200.83v5.46h10.78v6.73H200.83v5.46Z"/><path class="cls-4" d="M231.19,39a18.52,18.52,0,0,1,4.69,1.12,13.42,13.42,0,0,1,4.29,2.69,15.38,15.38,0,0,1,3.8,5.34,15.88,15.88,0,0,1,1.35,6.4,15.08,15.08,0,0,1-1.72,7.18,14.25,14.25,0,0,1-4.82,5.5,16.8,16.8,0,0,1-6.33,2.48,45.8,45.8,0,0,1-7.86.6l-3.6,0c-.77,0-1.91,0-3.44,0V38.8h8Q228.82,38.8,231.19,39Zm6.56,15.55a7.94,7.94,0,0,0-1.06-4,8.31,8.31,0,0,0-2.88-3,7.69,7.69,0,0,0-4-1.19h-4.31V62.65a33.75,33.75,0,0,0,5.43-.38A9.32,9.32,0,0,0,235,60.54a6.93,6.93,0,0,0,2.49-4.1A8.51,8.51,0,0,0,237.75,54.59Z"/><path class="cls-4" d="M255.88,39.15V70.26H248V39.15Z"/><path class="cls-4" d="M275.59,39.46l10.16,30.8H278.1l-2-6.29h-9.63l-2,6.29h-7.7L267,39.46ZM268.5,57.54h5.55l-2.77-8.71Z"/><path class="cls-2" d="M198.36,223.18Q174,224,149.66,225l-36.74,1.34c-2.41.08-2.49,0-2.39-2.48q1.52-39,3-78,1.09-28.23,2.19-56.45c.06-1.67.58-2.2,2.12-2.14q29.61,1.14,59.23,2.2,10.69.39,21.4.8c2.11.08,2.14.13,2.14,2.34q0,32.07-.08,64.14h0q0,32.15-.05,64.31C200.53,222.58,200,223.12,198.36,223.18Z"/><path class="cls-2" d="M293.89,219.66q-24.34.85-48.7,1.78-18.37.69-36.74,1.34c-2.41.09-2.49,0-2.49-2.34q0-37.11-.09-74.23c0-17.89,0-35.78-.07-53.67,0-1.6.5-2.1,2-2q29.61,1.14,59.22,2.2,10.71.39,21.41.8c2.11.08,2.14.12,2.23,2.22q1.32,30.42,2.61,60.85h0q1.31,30.5,2.65,61C296,219.1,295.51,219.61,293.89,219.66Z"/><path class="cls-3" d="M288.5,138.34l-77.44-.75-.15-43.78,75.88,2.65Z"/><path d="M156.32,127.9l-30.39-.44c-3,0-3.85-1-3.74-4.12q.42-11.79.82-23.59c.14-3.84,1.09-4.75,4.65-4.63L186.27,97a10.49,10.49,0,0,1,2,.21,2.7,2.7,0,0,1,2.28,2.91q0,12.72-.15,25.44c0,1.89-1.13,2.78-3.27,2.75Zm.38-5.62a48.89,48.89,0,0,0,6.17.13c6.85.11,13.7.3,20.55.5,1.22,0,1.64-.43,1.64-1.67,0-5.53.11-11.06.16-16.59,0-1.85-.16-2-1.87-2.08l-53-1.56c-1.83-.05-1.9,0-2,2-.19,5.66-.36,11.31-.54,17-.06,1.85.1,2.1,1.88,2,2.8-.2,5.58.11,8.38.08C144.12,121.94,150.19,122.16,156.7,122.28Z"/><path d="M190,195.2c0,3.49,0,7-.07,10.48,0,1.77-1,2.49-3.55,2.57q-14.83.45-29.67.86c-2.63.08-3.67-.66-3.63-2.57q.19-10.48.45-20.95c.05-2.06,1-2.74,3.93-2.78q14.5-.23,29-.43c2.64,0,3.57.59,3.57,2.44C190.09,188.28,190.05,191.74,190,195.2Zm-18.45,9.48h0c3.56-.1,7.12-.18,10.68-.29,1.94-.06,2.11-.17,2.13-1.53.07-5,.08-10.08.15-15.12,0-.93-.45-1.36-1.85-1.33q-10.89.22-21.79.36c-1.32,0-1.78.43-1.79,1.34q-.09,7.83-.29,15.66c0,.93.46,1.27,1.78,1.23C164.26,204.85,167.92,204.78,171.58,204.68Z"/><path d="M139.68,132.66q7.15.08,14.33.17c2.68,0,3.54,1,3.49,3.7q-.28,13.49-.57,27c-.06,2.89-.9,3.67-3.77,3.71-7.54.09-15.08.22-22.61.28-2.1,0-4.19,0-6.29,0-2.52.07-3.6-1.14-3.51-3.65q.47-13.67,1-27.33c.13-3.17,1-4,4.06-4q6.94.06,13.89.16Zm-.81,29.1h0c3.69,0,7.38-.05,11.06,0,1.06,0,1.57-.39,1.6-1.53q.19-9.88.44-19.79c0-1.44-.53-2-1.92-2-7,0-13.91-.09-20.86-.12-1.91,0-2,.11-2.09,2.14-.23,6.58-.42,13.16-.67,19.75-.05,1.2.36,1.66,1.52,1.64C131.59,161.76,135.23,161.78,138.87,161.76Z"/><path d="M134.52,182.87c4.12-.06,8.24-.08,12.37-.21,1.46,0,2,.4,2,2-.08,4.44-.06,3.71-3.72,3.79q-11.34.26-22.68.44c-2.6,0-2.6,0-2.55-2.61.07-3.15.07-3.15,3.11-3.19l11.46-.17Z"/><path d="M134,199.21c-4.2.1-8.4.16-12.61.32-1.44.05-2-.5-1.85-2,.26-4.21-.22-3.8,3.79-3.89,7.78-.18,15.55-.32,23.33-.46,1.91,0,2.07.11,2,2.06-.15,4.11.14,3.58-3.57,3.68s-7.39.18-11.09.26Z"/><path d="M133.56,209.78c-4.22.12-8.44.21-12.67.39-1.29.05-1.81-.36-1.74-1.74.24-4.6-.3-4,4-4.12q11.33-.33,22.67-.62c2.52-.06,2.6,0,2.55,2.48,0,3.19,0,3.2-3.24,3.29l-11.59.33Z"/><path d="M155.31,172.12l29.89-.27c4.64,0,4.86.07,4.93,2,.11,3.52.11,3.51-8.65,3.62l-56.27.67c-4.64.06-5-.08-4.89-2.06.23-4.27-.65-3.61,8.74-3.72,8.75-.11,17.5-.17,26.25-.25Z"/><path d="M176.26,141.22c-4.15,0-8.3-.09-12.46-.08-1.09,0-1.62-.31-1.57-1.56.17-4.76-.54-4.11,3.91-4.08,7.24,0,14.49.12,21.74.2,2.49,0,2.51,0,2.49,2.48,0,3.39.39,3.14-3.14,3.13s-7.31-.05-11-.08Z"/><path d="M176.16,151.55c-4.12,0-8.24-.05-12.36,0-1.32,0-1.86-.41-1.78-1.83.22-4-.66-3.86,3.82-3.84,7.47,0,14.94.09,22.42.13,2,0,2.06,0,2,2.13-.06,4,.46,3.39-3.42,3.41-3.58,0-7.15,0-10.72,0Z"/><path d="M175.87,161.86c-4.14,0-8.28,0-12.42.07-1.24,0-1.64-.41-1.62-1.66,0-3.78,0-3.78,3.72-3.81,7.2-.05,14.41-.12,21.62-.16,3.13,0,3.13,0,3.08,3.12-.05,2.38-.05,2.39-2.4,2.4q-6,0-12,.05Z"/><path d="M249.94,176.22l31.06-.38c3.06,0,4,.8,4.11,3.66q.42,10.77.85,21.55c.14,3.5-.79,4.39-4.55,4.49l-61.6,1.76a10.8,10.8,0,0,1-2.13-.07,2.57,2.57,0,0,1-2.43-2.73q-.1-12.54-.13-25.09c0-1.87,1.12-2.77,3.31-2.8Q234.18,176.4,249.94,176.22Zm-.16,5.35a50.31,50.31,0,0,0-6.33.07c-7,.12-14.08.16-21.12.19-1.24,0-1.67.47-1.65,1.68.07,5.43.07,10.85.11,16.27,0,1.82.19,2,2,1.94l55.48-1.43c1.92,0,2-.12,1.92-1.91-.18-5.2-.38-10.4-.57-15.6-.07-1.7-.25-1.92-2.07-1.75-2.86.28-5.73.08-8.6.2C262.71,181.48,256.47,181.47,249.78,181.57Z"/><path class="cls-4" d="M214.76,116c0-4.85-.06-9.7-.07-14.55,0-2.44.92-3.37,3.35-3.3q14.1.42,28.21.9c2.52.09,3.53,1.14,3.6,3.69q.35,14,.62,27.93c.06,2.75-.87,3.62-3.7,3.59l-28.4-.35c-2.58,0-3.5-.94-3.53-3.51C214.79,125.56,214.79,120.76,214.76,116Zm17.51-12v0c-3.4-.1-6.8-.22-10.2-.29-1.85,0-2,.09-2,2,0,7,.11,13.9.14,20.85,0,1.28.46,1.89,1.83,1.9q10.6.12,21.23.34c1.28,0,1.71-.51,1.68-1.73q-.25-10.5-.42-21c0-1.26-.5-1.75-1.76-1.77C239.27,104.24,235.77,104.1,232.27,104Z"/><path class="cls-4" d="M268.92,124.69c-4-.07-8-.18-12-.19-1.43,0-2-.44-2.06-1.92-.13-4.19-.11-3.5,3.44-3.44q11,.18,22,.42c2.52.06,2.52.08,2.65,2.49.15,2.88.15,2.87-2.81,2.82l-11.16-.2Z"/><path class="cls-4" d="M268.5,109.53c4,.1,8.07.24,12.1.3,1.39,0,1.91.54,1.92,1.89,0,3.85.48,3.49-3.39,3.41-7.5-.16-15-.36-22.52-.54-1.84,0-2-.2-2-2,0-3.86-.3-3.38,3.26-3.3s7.1.19,10.65.28Z"/><path class="cls-4" d="M268.3,99.72c4,.13,8,.3,12,.38,1.23,0,1.75.43,1.78,1.69.09,4.19.57,3.67-3.56,3.56q-10.85-.28-21.68-.61c-2.41-.07-2.48-.16-2.56-2.47-.09-3-.09-3,2.95-2.91l11,.35Z"/><path class="cls-4" d="M269.23,134.48c-4,0-8.08-.08-12.12-.14-1.88,0-2-.14-2.05-2-.14-3.39-.14-3.39,3.4-3.33l22.7.36c1.87,0,2,.16,2.08,2,.11,3.89.44,3.3-3.37,3.28-3.54,0-7.09-.08-10.64-.12Z"/><path d="M239.62,163.77c7.25,0,14.5-.05,21.74-.13,1.92,0,2.86.27,2.85,1.45,0,4.5,1.18,3.87-6.62,4q-19.08.19-38.15.34c-4.37,0-4.41,0-4.4-2.4,0-3.33-.73-3.08,5.42-3.13,6.39-.05,12.77-.07,19.16-.1Z"/><path d="M233.38,153.8c5.36,0,10.73,0,16.1,0,1.73,0,2.44.4,2.4,1.74-.11,3.81,1.05,3.67-4.82,3.69q-14.69,0-29.37,0c-2.64,0-2.71,0-2.7-2.08,0-3.89-.65-3.34,4.42-3.36,4.65,0,9.31,0,14,0Z"/><path d="M229.14,143.78c4.11,0,8.22.09,12.33.06,1.23,0,1.64.4,1.67,1.6.07,3.61.12,3.62-3.57,3.63l-21.55.07c-3.12,0-3.12,0-3.1-3.09,0-2.35,0-2.36,2.34-2.35l11.88.07Z"/><path d="M270.29,163.61c4.19,0,8.39,0,12.58-.08,1.11,0,1.66.28,1.68,1.44.08,4.45.76,3.83-3.75,3.89q-11,.13-22.07.21c-2.53,0-2.56,0-2.6-2.36-.06-3.26-.49-3,3.07-3.05s7.39,0,11.09-.06Z"/><path d="M269.93,153.82c4.13,0,8.25,0,12.37,0,1.33,0,1.88.39,1.88,1.71,0,3.73.88,3.59-3.63,3.61-7.51,0-15,0-22.55,0-2,0-2.08,0-2.12-2-.06-3.8-.56-3.26,3.33-3.29,3.57,0,7.15,0,10.72,0Z"/><path d="M265,144c5.52,0,11,.1,16.55.08,1.65,0,2.21.4,2.26,1.58.15,3.52.2,3.53-4.75,3.53l-28.92.05c-4.19,0-4.19,0-4.2-3,0-2.31,0-2.32,3.12-2.3L265,144Z"/></svg>