<svg id="Слой_1" data-name="Слой 1" xmlns="http://www.w3.org/2000/svg" viewBox="0 0 405 405"><defs><style>.cls-1{fill:#fed841;}.cls-2{fill:#e7335d;}</style></defs><rect width="405" height="405"/><path class="cls-1" d="M37.37,100.54v-.19a.89.89,0,0,0-.34-.69,1.28,1.28,0,0,0-.84-.29,1.35,1.35,0,0,0-.86.29.85.85,0,0,0-.36.69.65.65,0,0,0,.37.61,2.92,2.92,0,0,0,.95.39l.22,0,.24.06a4.74,4.74,0,0,1,2,.82l.13.11a3.09,3.09,0,0,1,.66,1,2.68,2.68,0,0,1,.25,1.12,2.77,2.77,0,0,1-.27,1.2,3.26,3.26,0,0,1-.79,1,3.7,3.7,0,0,1-1.18.66,4,4,0,0,1-1.37.23,3.94,3.94,0,0,1-1.37-.23,3.76,3.76,0,0,1-1.17-.66,3.12,3.12,0,0,1-.79-1,2.64,2.64,0,0,1-.28-1.2v-.18H35v.18a.86.86,0,0,0,.34.69,1.24,1.24,0,0,0,.82.29,1.35,1.35,0,0,0,.86-.29.85.85,0,0,0,.36-.69.84.84,0,0,0-.38-.62,1.79,1.79,0,0,0-.39-.21c-.15,0-.34-.11-.55-.16l-.46-.12a11.63,11.63,0,0,1-1.21-.35,2.47,2.47,0,0,1-.79-.47l-.06-.06a3,3,0,0,1-.73-1,2.52,2.52,0,0,1-.26-1.15,2.64,2.64,0,0,1,.28-1.2,3.19,3.19,0,0,1,.79-1,4,4,0,0,1,1.17-.67,4.19,4.19,0,0,1,1.37-.23,4.24,4.24,0,0,1,1.37.23,3.93,3.93,0,0,1,1.18.67,3.34,3.34,0,0,1,.79,1,2.77,2.77,0,0,1,.27,1.2v.19Z"/><path class="cls-1" d="M47.36,105.16v2.14H40.63V97.4h6.61v2.14H43.17v1.74h3.42v2.14H43.17v1.74Z"/><path class="cls-1" d="M56,97.4v2.52H53.41v7.38H50.88V99.92H48.34V97.4H56Z"/><path class="cls-1" d="M64.39,97.4v2.52H61.85v7.38H59.32V99.92H56.79V97.4h7.6Z"/><path class="cls-1" d="M67.89,97.4v9.9H65.37V97.4Z"/><path class="cls-1" d="M74.45,97.4H77v9.9H74.45L71.54,102v5.31H69V97.4h2.53l2.91,5.31Z"/><path class="cls-1" d="M87.82,102.4a4.83,4.83,0,0,1-.67,2.5,5,5,0,0,1-4.34,2.5,5,5,0,0,1-4.32-7.51,4.92,4.92,0,0,1,1.82-1.83,4.83,4.83,0,0,1,2.5-.67,5,5,0,0,1,2,.39,4.89,4.89,0,0,1,1.6,1.09l-2.26,1.29a2.51,2.51,0,0,0-1.3-.35,2.55,2.55,0,0,0-1.29.35,2.62,2.62,0,0,0-.93.94,2.46,2.46,0,0,0-.35,1.3,2.43,2.43,0,0,0,.35,1.29,2.59,2.59,0,0,0,.93.93,2.59,2.59,0,0,0,2.65,0,2.62,2.62,0,0,0,1-1H82v-2.32h5.67A5,5,0,0,1,87.82,102.4Z"/><path class="cls-1" d="M100.91,97.41v6.12a3.78,3.78,0,0,1-.52,2A3.9,3.9,0,0,1,99,106.91a3.85,3.85,0,0,1-2,.53h-.22a3.82,3.82,0,0,1-2-.53,3.87,3.87,0,0,1-1.42-1.42,3.79,3.79,0,0,1-.53-2V97.41H95.2V103a2.36,2.36,0,0,0,.42,1.44,1.33,1.33,0,0,0,1.15.58H97a1.38,1.38,0,0,0,1.14-.58,2.29,2.29,0,0,0,.45-1.44V97.41Z"/><path class="cls-1" d="M108.3,97.81a3.16,3.16,0,0,1,1.12,1.12,3.13,3.13,0,0,1,0,3.1,3.16,3.16,0,0,1-1.12,1.12,3.07,3.07,0,0,1-1.55.41H104.4v3.74H102V97.4h4.72A3.07,3.07,0,0,1,108.3,97.81Zm-1,2a1,1,0,0,0-.66-.33h-2.33v2.1h2.33a.93.93,0,0,0,.66-.34,1.09,1.09,0,0,0,.28-.72A1,1,0,0,0,107.33,99.76Z"/><path class="cls-1" d="M122.11,98.07a5.07,5.07,0,0,1,1.82,1.83,5,5,0,0,1,0,5,5.12,5.12,0,0,1-1.82,1.82,5,5,0,0,1-5,0,5.07,5.07,0,0,1-1.83-1.82,5,5,0,0,1,0-5,5,5,0,0,1,1.83-1.83,5,5,0,0,1,5,0Zm-1.22,6.57a2.65,2.65,0,0,0,.94-.94,2.5,2.5,0,0,0,.35-1.29,2.52,2.52,0,0,0-.35-1.29,2.67,2.67,0,0,0-.94-1,2.5,2.5,0,0,0-1.29-.35,2.55,2.55,0,0,0-1.29.35,2.7,2.7,0,0,0-1,1,2.52,2.52,0,0,0-.35,1.29,2.5,2.5,0,0,0,.35,1.29,2.67,2.67,0,0,0,1,.94,2.55,2.55,0,0,0,1.29.35A2.5,2.5,0,0,0,120.89,104.64Z"/><path class="cls-1" d="M132.33,99.54H128v1.74h3.5v2.14H128v3.88h-2.52V97.4h6.89Z"/><path class="cls-1" d="M133.59,102.61a1.25,1.25,0,0,1-.35-.81,1.09,1.09,0,0,1,.32-.82,1.11,1.11,0,0,1,.81-.35,1.16,1.16,0,0,1,1.17,1.17,1.11,1.11,0,0,1-.35.81,1.14,1.14,0,0,1-.82.33A1.05,1.05,0,0,1,133.59,102.61Zm0,4.35a1.2,1.2,0,0,1-.35-.81,1.09,1.09,0,0,1,.32-.82,1.1,1.1,0,0,1,.81-.34,1.13,1.13,0,0,1,.83.33,1.16,1.16,0,0,1,.34.83,1.08,1.08,0,0,1-.35.81,1.11,1.11,0,0,1-.82.34A1,1,0,0,1,133.59,107Z"/><path class="cls-1" d="M150.66,102.4a5,5,0,0,1-2.5,4.32,4.91,4.91,0,0,1-2.52.68,5,5,0,0,1-4.32-7.51,4.92,4.92,0,0,1,1.82-1.83,4.83,4.83,0,0,1,2.5-.67,5,5,0,0,1,2,.39,4.89,4.89,0,0,1,1.6,1.09L147,100.16a2.57,2.57,0,0,0-1.31-.35,2.49,2.49,0,0,0-1.28.35,2.57,2.57,0,0,0-.94.94,2.46,2.46,0,0,0-.35,1.3,2.43,2.43,0,0,0,.35,1.29,2.54,2.54,0,0,0,.94.93,2.4,2.4,0,0,0,1.28.35,2.47,2.47,0,0,0,1.36-.38,2.62,2.62,0,0,0,.95-1h-3.11v-2.32h5.67A5,5,0,0,1,150.66,102.4Z"/><path class="cls-1" d="M158.73,98.07a5,5,0,0,1,1.82,1.83,5,5,0,0,1,0,5,5,5,0,0,1-1.82,1.82,4.83,4.83,0,0,1-2.5.67,4.9,4.9,0,0,1-2.52-.67,5,5,0,0,1-1.82-1.82,5,5,0,0,1,6.84-6.85Zm-1.22,6.57a2.57,2.57,0,0,0,.94-.94,2.41,2.41,0,0,0,.35-1.29,2.43,2.43,0,0,0-.35-1.29,2.59,2.59,0,0,0-.94-1,2.49,2.49,0,0,0-1.28-.35,2.56,2.56,0,0,0-1.3.35,2.67,2.67,0,0,0-.94,1,2.43,2.43,0,0,0-.35,1.29,2.41,2.41,0,0,0,.35,1.29,2.65,2.65,0,0,0,.94.94,2.56,2.56,0,0,0,1.3.35A2.49,2.49,0,0,0,157.51,104.64Z"/><path class="cls-1" d="M169.3,98.07a5,5,0,0,1,1.82,1.83,5,5,0,0,1,0,5,5,5,0,0,1-1.82,1.82,4.83,4.83,0,0,1-2.5.67,4.9,4.9,0,0,1-2.52-.67,5,5,0,0,1-1.82-1.82,5,5,0,0,1,6.84-6.85Zm-1.22,6.57a2.57,2.57,0,0,0,.94-.94,2.41,2.41,0,0,0,.35-1.29,2.43,2.43,0,0,0-.35-1.29,2.59,2.59,0,0,0-.94-1,2.49,2.49,0,0,0-1.28-.35,2.56,2.56,0,0,0-1.3.35,2.59,2.59,0,0,0-.94,1,2.43,2.43,0,0,0-.35,1.29,2.41,2.41,0,0,0,.35,1.29A2.59,2.59,0,0,0,166.8,105,2.49,2.49,0,0,0,168.08,104.64Z"/><path class="cls-1" d="M182.36,102.4a4.83,4.83,0,0,1-.67,2.5,5,5,0,0,1-4.34,2.5A5,5,0,0,1,173,99.89a4.92,4.92,0,0,1,1.82-1.83,4.83,4.83,0,0,1,2.5-.67,5,5,0,0,1,2,.39,4.89,4.89,0,0,1,1.6,1.09l-2.26,1.29a2.51,2.51,0,0,0-1.3-.35,2.55,2.55,0,0,0-1.29.35,2.62,2.62,0,0,0-.93.94,2.46,2.46,0,0,0-.35,1.3,2.43,2.43,0,0,0,.35,1.29,2.59,2.59,0,0,0,.93.93,2.59,2.59,0,0,0,2.65,0,2.62,2.62,0,0,0,.95-1h-3.11v-2.32h5.67A5,5,0,0,1,182.36,102.4Z"/><path class="cls-1" d="M185.72,104.92h3.9v2.38H183.2V97.4h2.52Z"/><path class="cls-1" d="M197.33,105.16v2.14H190.6V97.4h6.6v2.14h-4.07v1.74h3.43v2.14h-3.43v1.74Z"/><path class="cls-1" d="M207,97.37a6.08,6.08,0,0,1,1.49.35,4.26,4.26,0,0,1,1.37.86,4.93,4.93,0,0,1,1.21,1.7,5.13,5.13,0,0,1,.42,2,4.87,4.87,0,0,1-.54,2.29,4.54,4.54,0,0,1-1.53,1.75,5.57,5.57,0,0,1-2,.79,15.34,15.34,0,0,1-2.5.19l-1.15,0h-1.09v-10h2.53A15.82,15.82,0,0,1,207,97.37Zm2.09,4.94a2.66,2.66,0,0,0-1.26-2.22,2.45,2.45,0,0,0-1.26-.38h-1.38v5.17a10.65,10.65,0,0,0,1.73-.12,2.92,2.92,0,0,0,1.3-.56,2.16,2.16,0,0,0,.8-1.3A3.25,3.25,0,0,0,209.08,102.31Z"/><path class="cls-1" d="M214.84,97.4v9.9h-2.52V97.4Z"/><path class="cls-1" d="M220.49,100.54v-.19a.87.87,0,0,0-.35-.69,1.25,1.25,0,0,0-.83-.29,1.33,1.33,0,0,0-.86.29.85.85,0,0,0-.36.69.64.64,0,0,0,.37.61,2.92,2.92,0,0,0,.95.39l.22,0,.24.06a4.74,4.74,0,0,1,2,.82l.13.11a3.09,3.09,0,0,1,.66,1,2.68,2.68,0,0,1,.25,1.12,2.64,2.64,0,0,1-.28,1.2,3,3,0,0,1-.79,1,3.55,3.55,0,0,1-1.17.66,4,4,0,0,1-1.37.23,3.94,3.94,0,0,1-1.37-.23,3.76,3.76,0,0,1-1.17-.66,3.3,3.3,0,0,1-.8-1,2.78,2.78,0,0,1-.28-1.2v-.18h2.45v.18a.87.87,0,0,0,.35.69,1.24,1.24,0,0,0,.82.29,1.35,1.35,0,0,0,.86-.29.84.84,0,0,0,.35-.69.82.82,0,0,0-.37-.62,2.15,2.15,0,0,0-.4-.21c-.15,0-.33-.11-.54-.16l-.46-.12a11.63,11.63,0,0,1-1.21-.35,2.51,2.51,0,0,1-.8-.47l0-.06a3.17,3.17,0,0,1-.74-1,2.65,2.65,0,0,1-.26-1.15,2.78,2.78,0,0,1,.28-1.2,3.38,3.38,0,0,1,.8-1,4,4,0,0,1,1.17-.67,4.19,4.19,0,0,1,1.37-.23,4.24,4.24,0,0,1,1.37.23,3.76,3.76,0,0,1,1.17.67,3.06,3.06,0,0,1,.79,1,2.64,2.64,0,0,1,.28,1.2v.19Z"/><path class="cls-1" d="M230,97.81a3.08,3.08,0,0,1,1.12,1.12,3.07,3.07,0,0,1,0,3.1,3.08,3.08,0,0,1-1.12,1.12,3,3,0,0,1-1.54.41h-2.36v3.74h-2.36V97.4h4.72A3,3,0,0,1,230,97.81Zm-1,2a1,1,0,0,0-.67-.33h-2.32v2.1h2.32a1,1,0,0,0,.67-.34,1.08,1.08,0,0,0,.27-.72A1,1,0,0,0,229.05,99.76Z"/><path class="cls-1" d="M234.91,104.92h3.89v2.38h-6.41V97.4h2.52Z"/><path class="cls-1" d="M244.93,97.5l3.23,9.8h-2.43l-.65-2H242l-.63,2h-2.45l3.25-9.8Zm-2.25,5.75h1.76l-.88-2.77Z"/><path class="cls-1" d="M253.71,97.4h2.52l-2.91,5.87v4H250.8v-4l-2.92-5.87h2.52l1.66,3.37Z"/><path class="cls-1" d="M266.43,97.4H269v9.9h-2.52L263.52,102v5.31H261V97.4h2.53l2.91,5.31Z"/><path class="cls-1" d="M276.81,105.16v2.14h-6.74V97.4h6.61v2.14h-4.07v1.74H276v2.14h-3.43v1.74Z"/><path class="cls-1" d="M285.39,97.4v2.52h-2.53v7.38h-2.54V99.92h-2.53V97.4h7.6Z"/><path class="cls-1" d="M294.33,97.4h2.19v9.9H294l-2.55-4.22-2.56,4.22h-2.52V97.4h2.52V103l1.23-2.24.07-.12h2.52l.06.12L294,103V97.4Z"/><path class="cls-1" d="M304.88,98.07a5.07,5.07,0,0,1,1.82,1.83,5,5,0,0,1,0,5,5.12,5.12,0,0,1-1.82,1.82,5,5,0,0,1-5,0,5.07,5.07,0,0,1-1.83-1.82,5,5,0,0,1,0-5,5,5,0,0,1,1.83-1.83,5,5,0,0,1,5,0Zm-1.22,6.57a2.73,2.73,0,0,0,.94-.94,2.5,2.5,0,0,0,.35-1.29,2.52,2.52,0,0,0-.35-1.29,2.76,2.76,0,0,0-.94-1,2.55,2.55,0,0,0-2.58,0,2.62,2.62,0,0,0-.95,1,2.52,2.52,0,0,0-.35,1.29,2.5,2.5,0,0,0,.35,1.29,2.6,2.6,0,0,0,.95.94,2.55,2.55,0,0,0,2.58,0Z"/><path class="cls-1" d="M316.29,107.3h-2.54l-1.56-3.74h-1.61v3.74h-2.37V97.4h4.72a3.09,3.09,0,0,1,1.54.41,3,3,0,0,1,1.12,1.13,3,3,0,0,1,.42,1.54,3,3,0,0,1-.38,1.48,3.19,3.19,0,0,1-1,1.11Zm-2.79-7.54a1,1,0,0,0-.66-.33h-2.32v2.1h2.32a1,1,0,0,0,.66-.34,1.08,1.08,0,0,0,0-1.43Z"/><path class="cls-1" d="M321.93,102.3l2.95,5h-2.8l-2.43-4v4h-2.52V97.4h2.52v3.86l2.43-3.86h2.8Z"/><path class="cls-1" d="M326.48,105.58h2.36l-1,3.16h-2.09Z"/><path class="cls-1" d="M38.11,114.2h2.52l-2.91,5.87v4H35.2v-4l-2.91-5.87h2.52l1.65,3.37Z"/><path class="cls-1" d="M48.43,114.87a5.07,5.07,0,0,1,1.82,1.83,5,5,0,0,1,0,5,5.12,5.12,0,0,1-1.82,1.82,5,5,0,0,1-5,0,5.07,5.07,0,0,1-1.83-1.82,5,5,0,0,1,0-5,5,5,0,0,1,1.83-1.83,5,5,0,0,1,5,0Zm-1.22,6.57a2.65,2.65,0,0,0,.94-.94,2.5,2.5,0,0,0,.35-1.29,2.52,2.52,0,0,0-.35-1.29,2.67,2.67,0,0,0-.94-1,2.5,2.5,0,0,0-1.29-.35,2.52,2.52,0,0,0-1.29.35,2.7,2.7,0,0,0-1,1,2.52,2.52,0,0,0-.35,1.29,2.5,2.5,0,0,0,.35,1.29,2.67,2.67,0,0,0,1,.94,2.52,2.52,0,0,0,1.29.35A2.5,2.5,0,0,0,47.21,121.44Z"/><path class="cls-1" d="M59.81,114.21v6.12a3.91,3.91,0,0,1-.52,2,4,4,0,0,1-1.43,1.42,3.88,3.88,0,0,1-2,.53h-.22a3.92,3.92,0,0,1-3.38-1.95,3.72,3.72,0,0,1-.53-2v-6.12H54.1v5.56a2.36,2.36,0,0,0,.42,1.44,1.33,1.33,0,0,0,1.15.58h.22a1.38,1.38,0,0,0,1.14-.58,2.29,2.29,0,0,0,.44-1.44v-5.56Z"/><path class="cls-1" d="M68.39,114.2v2.52H65.86v7.38H63.32v-7.38H60.79V114.2h7.6Z"/><path class="cls-1" d="M77.42,114.21v6.12a3.81,3.81,0,0,1-.52,2,3.9,3.9,0,0,1-1.43,1.42,3.85,3.85,0,0,1-2,.53h-.22a3.82,3.82,0,0,1-2-.53,3.87,3.87,0,0,1-1.42-1.42,3.82,3.82,0,0,1-.53-2v-6.12h2.34v5.56a2.36,2.36,0,0,0,.42,1.44,1.33,1.33,0,0,0,1.15.58h.22a1.38,1.38,0,0,0,1.14-.58,2.29,2.29,0,0,0,.44-1.44v-5.56Z"/><path class="cls-1" d="M86,119.92a2.82,2.82,0,0,1,0,2.74,2.88,2.88,0,0,1-2.47,1.44H78.54v-9.91H83a2.73,2.73,0,0,1,1.44.39,2.85,2.85,0,0,1,1,1,2.86,2.86,0,0,1,.18,2.43,2.85,2.85,0,0,1-.55.88A2.65,2.65,0,0,1,86,119.92Zm-2.61-3.4a1,1,0,0,0-.72-.3H80.85v2.1h1.82l.34-.06a1.11,1.11,0,0,0,.25-.14,1,1,0,0,0,.32-.38,1,1,0,0,0,.11-.49A1,1,0,0,0,83.39,116.52Zm.42,5.23a1.07,1.07,0,0,0,0-1.41,1,1,0,0,0-.6-.36H80.85v2.1h2.24A1,1,0,0,0,83.81,121.75Z"/><path class="cls-1" d="M93.9,122v2.14H87.17v-9.9h6.6v2.14H89.7v1.74h3.43v2.14H89.7V122Z"/><path class="cls-1" d="M95.5,122.38h2.36l-1,3.16H94.74Z"/><path class="cls-1" d="M109.79,116.34h-4.37v1.74h3.5v2.14h-3.5v3.88H102.9v-9.9h6.89Z"/><path class="cls-1" d="M115.78,114.3l3.23,9.8h-2.43l-.64-2h-3.07l-.63,2h-2.45l3.25-9.8Zm-2.25,5.75h1.76l-.88-2.77Z"/><path class="cls-1" d="M125,121.56a2.94,2.94,0,0,0,.84-.56l1.7,1.71a5,5,0,0,1-1.6,1.09,5.08,5.08,0,0,1-1.94.38,4.83,4.83,0,0,1-2.5-.67,5,5,0,0,1,4.44-9,5,5,0,0,1,1.6,1.08l-1.7,1.71a2.91,2.91,0,0,0-.84-.55,2.46,2.46,0,0,0-1-.21,2.49,2.49,0,0,0-1.28.35,2.59,2.59,0,0,0-.94,1,2.45,2.45,0,0,0-.35,1.29,2.41,2.41,0,0,0,.35,1.29,2.57,2.57,0,0,0,.94.94,2.49,2.49,0,0,0,1.28.35A2.62,2.62,0,0,0,125,121.56Z"/><path class="cls-1" d="M135.13,122v2.14H128.4v-9.9H135v2.14h-4.07v1.74h3.43v2.14h-3.43V122Z"/><path class="cls-1" d="M143.71,119.92a2.9,2.9,0,0,1-.05,2.74,2.93,2.93,0,0,1-1,1,2.89,2.89,0,0,1-1.44.4h-4.94v-9.91h4.49a2.74,2.74,0,0,1,1.45.39,3,3,0,0,1,1,1,2.86,2.86,0,0,1,.18,2.43,3,3,0,0,1-.55.88A2.74,2.74,0,0,1,143.71,119.92Zm-2.61-3.4a1,1,0,0,0-.72-.3h-1.82v2.1h1.82l.33-.06a1.14,1.14,0,0,0,.26-.14,1.07,1.07,0,0,0,.32-.38,1.14,1.14,0,0,0,.11-.49A1,1,0,0,0,141.1,116.52Zm.42,5.23a1.07,1.07,0,0,0,0-1.41,1,1,0,0,0-.6-.36h-2.41v2.1h2.24A1,1,0,0,0,141.52,121.75Z"/><path class="cls-1" d="M152.11,114.87a5,5,0,0,1,1.82,1.83,5,5,0,0,1,0,5,5,5,0,0,1-1.82,1.82,4.83,4.83,0,0,1-2.5.67,4.9,4.9,0,0,1-2.52-.67,5,5,0,0,1-1.82-1.82,5,5,0,0,1,6.84-6.85Zm-1.22,6.57a2.57,2.57,0,0,0,.94-.94,2.5,2.5,0,0,0,.35-1.29,2.52,2.52,0,0,0-.35-1.29,2.59,2.59,0,0,0-.94-1,2.49,2.49,0,0,0-1.28-.35,2.56,2.56,0,0,0-1.3.35,2.59,2.59,0,0,0-.94,1,2.43,2.43,0,0,0-.35,1.29,2.41,2.41,0,0,0,.35,1.29,2.59,2.59,0,0,0,2.24,1.29A2.49,2.49,0,0,0,150.89,121.44Z"/><path class="cls-1" d="M162.68,114.87a5,5,0,0,1,1.82,1.83,5,5,0,0,1,0,5,5,5,0,0,1-1.82,1.82,4.84,4.84,0,0,1-2.51.67,4.89,4.89,0,0,1-2.51-.67,5.07,5.07,0,0,1-1.83-1.82,5,5,0,0,1,0-5,5,5,0,0,1,1.83-1.83,4.89,4.89,0,0,1,2.51-.67A4.84,4.84,0,0,1,162.68,114.87Zm-1.22,6.57a2.57,2.57,0,0,0,.94-.94,2.5,2.5,0,0,0,.35-1.29,2.52,2.52,0,0,0-.35-1.29,2.59,2.59,0,0,0-.94-1,2.5,2.5,0,0,0-1.29-.35,2.55,2.55,0,0,0-1.29.35,2.7,2.7,0,0,0-.95,1,2.52,2.52,0,0,0-.35,1.29,2.5,2.5,0,0,0,.35,1.29,2.67,2.67,0,0,0,.95.94,2.55,2.55,0,0,0,1.29.35A2.5,2.5,0,0,0,161.46,121.44Z"/><path class="cls-1" d="M170.81,119.1l3,5H171l-2.44-4v4H166v-9.9h2.52v3.86L171,114.2h2.8Z"/><path class="cls-1" d="M175.37,122.38h2.36l-1,3.16h-2.09Z"/><path class="cls-1" d="M185.29,114.2v9.9h-2.52v-9.9Z"/><path class="cls-1" d="M191.86,114.2h2.52v9.9h-2.52l-2.92-5.31v5.31h-2.53v-9.9h2.53l2.92,5.31Z"/><path class="cls-1" d="M200,117.34v-.19a.87.87,0,0,0-.35-.69,1.23,1.23,0,0,0-.83-.29,1.35,1.35,0,0,0-.86.29.85.85,0,0,0-.36.69.66.66,0,0,0,.37.61,2.92,2.92,0,0,0,.95.39l.22,0,.24.06a4.74,4.74,0,0,1,2,.82l.13.11a3.3,3.3,0,0,1,.67,1,2.82,2.82,0,0,1,.24,1.12,2.77,2.77,0,0,1-.27,1.2,3.12,3.12,0,0,1-.79,1,3.7,3.7,0,0,1-1.18.66,4.24,4.24,0,0,1-1.37.23,4.19,4.19,0,0,1-1.37-.23,3.76,3.76,0,0,1-1.17-.66,3.12,3.12,0,0,1-.79-1,2.64,2.64,0,0,1-.28-1.2v-.18h2.45v.18a.86.86,0,0,0,.34.69,1.24,1.24,0,0,0,.82.29,1.35,1.35,0,0,0,.86-.29.85.85,0,0,0,.36-.69.84.84,0,0,0-.38-.62,1.79,1.79,0,0,0-.39-.21,5.55,5.55,0,0,0-.55-.16l-.46-.12a11.63,11.63,0,0,1-1.21-.35,2.37,2.37,0,0,1-.79-.47l-.06-.06a3,3,0,0,1-.73-1,2.52,2.52,0,0,1-.26-1.15,2.64,2.64,0,0,1,.28-1.2,3.19,3.19,0,0,1,.79-1,4,4,0,0,1,1.17-.67,4.19,4.19,0,0,1,1.37-.23,4.24,4.24,0,0,1,1.37.23,3.93,3.93,0,0,1,1.18.67,3.19,3.19,0,0,1,.79,1,2.77,2.77,0,0,1,.27,1.2v.19Z"/><path class="cls-1" d="M210.74,114.2v2.52h-2.53v7.38h-2.54v-7.38h-2.53V114.2h7.6Z"/><path class="cls-1" d="M216.87,114.3l3.24,9.8h-2.44l-.64-2H214l-.63,2h-2.45l3.25-9.8Zm-2.25,5.75h1.76l-.88-2.77Z"/><path class="cls-1" d="M230.12,119.2a5,5,0,0,1-5,5,5,5,0,0,1-4.33-7.51,5,5,0,0,1,1.82-1.83,4.87,4.87,0,0,1,2.51-.67,4.92,4.92,0,0,1,1.95.39,4.79,4.79,0,0,1,1.6,1.09L226.41,117a2.53,2.53,0,0,0-1.3-.35,2.5,2.5,0,0,0-1.29.35,2.65,2.65,0,0,0-.94.94,2.56,2.56,0,0,0-.35,1.3,2.52,2.52,0,0,0,.35,1.29,2.62,2.62,0,0,0,.94.93,2.41,2.41,0,0,0,1.29.35,2.46,2.46,0,0,0,1.35-.38,2.64,2.64,0,0,0,1-1h-3.11V118H230A5.54,5.54,0,0,1,230.12,119.2Z"/><path class="cls-1" d="M239,124.1H236.5l-1.57-3.74h-1.61v3.74H231v-9.9h4.72a3.09,3.09,0,0,1,1.54.41,3,3,0,0,1,1.12,1.13,3,3,0,0,1,.42,1.54,3,3,0,0,1-.38,1.48,3.19,3.19,0,0,1-1,1.11Zm-2.79-7.54a1,1,0,0,0-.66-.33h-2.32v2.1h2.32a1,1,0,0,0,.66-.34,1.08,1.08,0,0,0,0-1.43Z"/><path class="cls-1" d="M245,114.3l3.23,9.8h-2.43l-.65-2h-3.06l-.63,2H239l3.24-9.8Zm-2.26,5.75h1.77l-.88-2.77Z"/><path class="cls-1" d="M256.17,114.2h2.52v9.9h-2.52v-5.59l-1.23,2.24-.06.11h-2.52l-.07-.11-.16-.32-1-1.92v5.59h-2.54v-9.9h2.54l2.54,4.21Z"/><path class="cls-1" d="M260.29,122.38h2.36l-1,3.16h-2.09Z"/><path class="cls-1" d="M275.16,114.2v2.52h-2.54v7.38h-2.53v-7.38h-2.54V114.2h7.61Z"/><path class="cls-1" d="M284.1,114.2h2.19v9.9h-2.52l-2.55-4.22-2.56,4.22h-2.52v-9.9h2.52v5.59l1.23-2.24.07-.12h2.52l0,.12,1.24,2.24V114.2Z"/><path class="cls-1" d="M289.93,114.2v9.9h-2.52v-9.9Z"/><path class="cls-1" d="M298.51,114.2v2.52H296v7.38h-2.53v-7.38h-2.53V114.2h7.6Z"/><path class="cls-1" d="M307,114.2v2.52h-2.53v7.38h-2.54v-7.38h-2.53V114.2H307Z"/><path class="cls-1" d="M314.66,122v2.14h-6.73v-9.9h6.61v2.14h-4.08v1.74h3.43v2.14h-3.43V122Z"/><path class="cls-1" d="M323.86,124.1h-2.53l-1.57-3.74h-1.61v3.74h-2.37v-9.9h4.72a3.07,3.07,0,0,1,3.08,3.08,2.94,2.94,0,0,1-.38,1.48,3.19,3.19,0,0,1-1,1.11Zm-2.78-7.54a1,1,0,0,0-.66-.33h-2.33v2.1h2.33a1,1,0,0,0,.66-.34,1.11,1.11,0,0,0,0-1.43Z"/><path class="cls-1" d="M325.18,122.38h2.36l-1,3.16h-2.09Z"/><path class="cls-1" d="M35.37,138.52h3.89v2.38H32.85V131h2.52Z"/><path class="cls-1" d="M42.76,131v9.9H40.24V131Z"/><path class="cls-1" d="M49.32,131h2.52v9.9H49.32l-2.91-5.31v5.31H43.88V131h2.53l2.91,5.31Z"/><path class="cls-1" d="M57.77,135.9l2.95,5h-2.8l-2.44-4v4H53V131h2.52v3.86L57.92,131h2.8Z"/><path class="cls-1" d="M68.57,138.76v2.14H61.84V131h6.61v2.14H64.38v1.74H67.8V137H64.38v1.74Z"/><path class="cls-1" d="M74,131a6.56,6.56,0,0,1,1.5.36,4.22,4.22,0,0,1,1.36.86,4.8,4.8,0,0,1,1.21,1.7,5,5,0,0,1,.43,2A4.78,4.78,0,0,1,78,138.2,4.62,4.62,0,0,1,76.45,140a5.43,5.43,0,0,1-2,.79,15.24,15.24,0,0,1-2.5.19l-1.14,0h-1.1v-10h2.54C72.93,130.89,73.53,130.91,74,131Zm2.09,4.95a2.46,2.46,0,0,0-.34-1.26,2.62,2.62,0,0,0-.91-1,2.48,2.48,0,0,0-1.27-.38H72.23v5.17a10.73,10.73,0,0,0,1.73-.12,3,3,0,0,0,1.3-.56,2.18,2.18,0,0,0,.79-1.3A2.55,2.55,0,0,0,76.12,135.91Z"/><path class="cls-1" d="M81.89,131v9.9H79.37V131Z"/><path class="cls-1" d="M88.45,131H91v9.9H88.45l-2.91-5.31v5.31H83V131h2.53l2.91,5.31Z"/><path class="cls-1" d="M92.57,139.18h2.37l-1,3.16H91.81Z"/><path class="cls-1" d="M105.13,131.1l3.23,9.8h-2.43l-.65-2h-3.06l-.63,2H99.14l3.24-9.8Zm-2.26,5.75h1.77l-.88-2.77Z"/><path class="cls-1" d="M113,131a6.48,6.48,0,0,1,1.49.36,4.26,4.26,0,0,1,1.37.86,4.93,4.93,0,0,1,1.21,1.7,5.14,5.14,0,0,1,.43,2,4.9,4.9,0,0,1-.55,2.29A4.62,4.62,0,0,1,115.4,140a5.5,5.5,0,0,1-2,.79,15.34,15.34,0,0,1-2.5.19l-1.15,0h-1.09v-10h2.54C111.88,130.89,112.48,130.91,113,131Zm2.09,4.95a2.46,2.46,0,0,0-.34-1.26,2.57,2.57,0,0,0-.92-1,2.45,2.45,0,0,0-1.26-.38h-1.37v5.17a10.82,10.82,0,0,0,1.73-.12,3,3,0,0,0,1.3-.56,2.23,2.23,0,0,0,.79-1.3A3.25,3.25,0,0,0,115.07,135.91Z"/><path class="cls-1" d="M126.28,131h2.19v9.9H126l-2.55-4.22-2.56,4.22h-2.52V131h2.52v5.59l1.23-2.24.07-.12h2.52l0,.12,1.24,2.24V131Z"/><path class="cls-1" d="M136.82,131.67a5,5,0,0,1,0,8.67,4.83,4.83,0,0,1-2.5.67,4.9,4.9,0,0,1-2.52-.67,5,5,0,0,1-1.82-1.82,5,5,0,0,1,0-5,5,5,0,0,1,1.82-1.83,4.9,4.9,0,0,1,2.52-.67A4.83,4.83,0,0,1,136.82,131.67Zm-1.21,6.57a2.7,2.7,0,0,0,.93-.94,2.41,2.41,0,0,0,.35-1.29,2.43,2.43,0,0,0-.35-1.29,2.65,2.65,0,0,0-.93-.95,2.57,2.57,0,0,0-2.59,0,2.67,2.67,0,0,0-.94.95,2.43,2.43,0,0,0-.35,1.29,2.41,2.41,0,0,0,.35,1.29,2.73,2.73,0,0,0,.94.94,2.57,2.57,0,0,0,2.59,0Z"/><path class="cls-1" d="M148.23,140.9H145.7l-1.57-3.74h-1.61v3.74h-2.36V131h4.71a3.07,3.07,0,0,1,2.67,1.54,3,3,0,0,1,.41,1.54,3,3,0,0,1-.37,1.48,3.32,3.32,0,0,1-1,1.11Zm-2.78-7.54a1,1,0,0,0-.66-.33h-2.32v2.1h2.32a1,1,0,0,0,.66-.34,1.11,1.11,0,0,0,0-1.43Z"/><path class="cls-1" d="M153.41,131a6.48,6.48,0,0,1,1.49.36,4.26,4.26,0,0,1,1.37.86,4.8,4.8,0,0,1,1.21,1.7,5.14,5.14,0,0,1,.43,2,4.78,4.78,0,0,1-.55,2.29,4.62,4.62,0,0,1-1.53,1.75,5.43,5.43,0,0,1-2,.79,15.24,15.24,0,0,1-2.5.19l-1.14,0h-1.1v-10h2.54C152.31,130.89,152.91,130.91,153.41,131Zm2.09,4.95a2.46,2.46,0,0,0-.34-1.26,2.62,2.62,0,0,0-.91-1,2.48,2.48,0,0,0-1.27-.38h-1.37v5.17a10.73,10.73,0,0,0,1.73-.12,3,3,0,0,0,1.3-.56,2.18,2.18,0,0,0,.79-1.3A2.55,2.55,0,0,0,155.5,135.91Z"/><path class="cls-1" d="M163.27,134.14V134a.86.86,0,0,0-.34-.69,1.28,1.28,0,0,0-.84-.29,1.35,1.35,0,0,0-.86.29.84.84,0,0,0-.35.69.65.65,0,0,0,.36.61,3.16,3.16,0,0,0,.95.39l.22,0,.24.06a4.86,4.86,0,0,1,2,.82l.12.11a3.17,3.17,0,0,1,.67,1,2.82,2.82,0,0,1,.24,1.12,2.77,2.77,0,0,1-.27,1.2,3.12,3.12,0,0,1-.79,1,3.7,3.7,0,0,1-1.18.66,4.2,4.2,0,0,1-2.74,0,3.76,3.76,0,0,1-1.17-.66,3.12,3.12,0,0,1-.79-1,2.64,2.64,0,0,1-.28-1.2v-.18h2.45v.18a.86.86,0,0,0,.34.69,1.24,1.24,0,0,0,.82.29,1.33,1.33,0,0,0,.86-.29.85.85,0,0,0,.36-.69.84.84,0,0,0-.38-.62,1.79,1.79,0,0,0-.39-.21,5.55,5.55,0,0,0-.55-.16l-.46-.12a11.32,11.32,0,0,1-1.2-.35,2.41,2.41,0,0,1-.8-.47l-.06-.06a3,3,0,0,1-.73-1,2.52,2.52,0,0,1-.26-1.15,2.64,2.64,0,0,1,.28-1.2,3.19,3.19,0,0,1,.79-1,4,4,0,0,1,1.17-.67,4.2,4.2,0,0,1,2.74,0,3.93,3.93,0,0,1,1.18.67,3.19,3.19,0,0,1,.79,1,2.77,2.77,0,0,1,.27,1.2v.19Z"/><path class="cls-1" d="M167,139.18h2.36l-1,3.16h-2.09Z"/><path class="cls-1" d="M181.4,137h1.37v2.11H181.4v1.84h-2.27v-1.84H174.2v-2.32l4.58-5.73h2.62Zm-4.69,0h2.42v-3Z"/><path class="cls-1" d="M189.46,138.36a2.69,2.69,0,0,0,.84-.56l1.71,1.71a4.91,4.91,0,0,1-3.54,1.47,4.87,4.87,0,0,1-2.51-.67,5,5,0,0,1-1.82-1.82,5,5,0,0,1,0-5,5.07,5.07,0,0,1,1.82-1.83,5,5,0,0,1,2.51-.67,4.86,4.86,0,0,1,1.93.39,5,5,0,0,1,1.61,1.08l-1.71,1.71a2.66,2.66,0,0,0-.84-.55,2.41,2.41,0,0,0-1-.21,2.5,2.5,0,0,0-1.29.35,2.76,2.76,0,0,0-.94.95,2.55,2.55,0,0,0-.35,1.29,2.5,2.5,0,0,0,.35,1.29,2.73,2.73,0,0,0,.94.94,2.5,2.5,0,0,0,1.29.35A2.57,2.57,0,0,0,189.46,138.36Z"/><path class="cls-1" d="M198.2,131h2.52v9.9H198.2v-3.7h-2.83v3.7h-2.52V131h2.52v3.68h2.83Z"/><path class="cls-1" d="M207,131.1l3.23,9.8h-2.43l-.65-2h-3.06l-.63,2H201l3.25-9.8Zm-2.25,5.75h1.76l-.88-2.77Z"/><path class="cls-1" d="M216,131h2.52v9.9H216L213,135.59v5.31H210.5V131H213l2.91,5.31Z"/><path class="cls-1" d="M228.94,131.1l3.24,9.8h-2.44l-.64-2H226l-.63,2H223l3.25-9.8Zm-2.25,5.75h1.76l-.88-2.77Z"/><path class="cls-1" d="M236.8,131a6.6,6.6,0,0,1,1.49.36,4.22,4.22,0,0,1,1.36.86,4.8,4.8,0,0,1,1.21,1.7,5,5,0,0,1,.43,2,4.78,4.78,0,0,1-.55,2.29,4.62,4.62,0,0,1-1.53,1.75,5.45,5.45,0,0,1-2,.79,15.43,15.43,0,0,1-2.5.19l-1.15,0h-1.09v-10H235C235.69,130.89,236.29,130.91,236.8,131Zm2.08,4.95a2.55,2.55,0,0,0-.33-1.26,2.65,2.65,0,0,0-.92-1,2.48,2.48,0,0,0-1.27-.38H235v5.17a10.73,10.73,0,0,0,1.73-.12,3,3,0,0,0,1.3-.56,2.18,2.18,0,0,0,.79-1.3A2.55,2.55,0,0,0,238.88,135.91Z"/><path class="cls-1" d="M246.65,134.14V134a.86.86,0,0,0-.34-.69,1.27,1.27,0,0,0-.83-.29,1.31,1.31,0,0,0-.86.29.85.85,0,0,0-.36.69.65.65,0,0,0,.36.61,3.28,3.28,0,0,0,.95.39l.22,0,.25.06a4.87,4.87,0,0,1,2,.82l.12.11a3,3,0,0,1,.67,1,2.82,2.82,0,0,1,.24,1.12,2.77,2.77,0,0,1-.27,1.2,3,3,0,0,1-.79,1,3.59,3.59,0,0,1-1.18.66,4.17,4.17,0,0,1-2.73,0,3.55,3.55,0,0,1-1.17-.66,3.16,3.16,0,0,1-.8-1,2.64,2.64,0,0,1-.28-1.2v-.18h2.45v.18a.86.86,0,0,0,.34.69,1.24,1.24,0,0,0,.82.29,1.33,1.33,0,0,0,.86-.29.85.85,0,0,0,.36-.69.84.84,0,0,0-.38-.62,1.79,1.79,0,0,0-.39-.21,5.55,5.55,0,0,0-.55-.16l-.46-.12a12.08,12.08,0,0,1-1.2-.35,2.41,2.41,0,0,1-.8-.47l-.06-.06a3.14,3.14,0,0,1-.73-1,2.69,2.69,0,0,1,0-2.35,3.23,3.23,0,0,1,.8-1,3.76,3.76,0,0,1,1.17-.67,4.17,4.17,0,0,1,2.73,0,3.81,3.81,0,0,1,1.18.67,3.06,3.06,0,0,1,.79,1,2.77,2.77,0,0,1,.27,1.2v.19Z"/><path class="cls-1" d="M250.39,139.18h2.37l-1,3.16h-2.09Z"/><path class="cls-1" d="M265.87,140.9h-2.53l-1.57-3.74h-1.61v3.74H257.8V131h4.71a3.06,3.06,0,0,1,1.54.41,3.07,3.07,0,0,1,1.54,2.67,3,3,0,0,1-.37,1.48,3.32,3.32,0,0,1-1,1.11Zm-2.78-7.54a1,1,0,0,0-.66-.33h-2.32v2.1h2.32a1,1,0,0,0,.66-.34,1.11,1.11,0,0,0,0-1.43Z"/><path class="cls-1" d="M273.45,138.76v2.14h-6.74V131h6.61v2.14h-4.07v1.74h3.43V137h-3.43v1.74Z"/><path class="cls-1" d="M278.91,131a6.6,6.6,0,0,1,1.49.36,4.22,4.22,0,0,1,1.36.86,4.68,4.68,0,0,1,1.21,1.7,5,5,0,0,1,.43,2,4.89,4.89,0,0,1-.54,2.29,4.72,4.72,0,0,1-1.54,1.75,5.45,5.45,0,0,1-2,.79,15.43,15.43,0,0,1-2.5.19l-1.15,0h-1.09v-10h2.53C277.8,130.89,278.4,130.91,278.91,131Zm2.08,4.95a2.55,2.55,0,0,0-.33-1.26,2.65,2.65,0,0,0-.92-1,2.48,2.48,0,0,0-1.27-.38H277.1v5.17a10.73,10.73,0,0,0,1.73-.12,2.92,2.92,0,0,0,1.3-.56,2.18,2.18,0,0,0,.79-1.3A2.55,2.55,0,0,0,281,135.91Z"/><path class="cls-1" d="M288.58,131a6.6,6.6,0,0,1,1.49.36,4.26,4.26,0,0,1,1.37.86,4.93,4.93,0,0,1,1.21,1.7,5.14,5.14,0,0,1,.43,2,4.9,4.9,0,0,1-.55,2.29A4.62,4.62,0,0,1,291,140a5.5,5.5,0,0,1-2,.79,15.34,15.34,0,0,1-2.5.19l-1.15,0h-1.09v-10h2.54C287.48,130.89,288.08,130.91,288.58,131Zm2.09,4.95a2.46,2.46,0,0,0-.34-1.26,2.57,2.57,0,0,0-.92-1,2.45,2.45,0,0,0-1.26-.38h-1.37v5.17a10.6,10.6,0,0,0,1.72-.12,3,3,0,0,0,1.31-.56,2.23,2.23,0,0,0,.79-1.3A3.25,3.25,0,0,0,290.67,135.91Z"/><path class="cls-1" d="M296.44,131v9.9h-2.52V131Z"/><path class="cls-1" d="M305,131v2.52h-2.54v7.38H300v-7.38h-2.53V131H305Z"/><path class="cls-1" d="M315.35,131.1l3.23,9.8h-2.43l-.65-2h-3.06l-.63,2h-2.45l3.24-9.8Zm-2.26,5.75h1.77l-.88-2.77Z"/><path class="cls-1" d="M323.2,131a6.48,6.48,0,0,1,1.49.36,4.26,4.26,0,0,1,1.37.86,4.8,4.8,0,0,1,1.21,1.7,5.14,5.14,0,0,1,.43,2,4.9,4.9,0,0,1-.55,2.29,4.62,4.62,0,0,1-1.53,1.75,5.43,5.43,0,0,1-2,.79,15.24,15.24,0,0,1-2.5.19l-1.14,0h-1.1v-10h2.54C322.1,130.89,322.7,130.91,323.2,131Zm2.09,4.95a2.46,2.46,0,0,0-.34-1.26,2.62,2.62,0,0,0-.91-1,2.48,2.48,0,0,0-1.27-.38H321.4v5.17a10.73,10.73,0,0,0,1.73-.12,3,3,0,0,0,1.3-.56,2.18,2.18,0,0,0,.79-1.3A2.55,2.55,0,0,0,325.29,135.91Z"/><path class="cls-1" d="M333.06,134.14V134a.89.89,0,0,0-.34-.69,1.28,1.28,0,0,0-.84-.29,1.35,1.35,0,0,0-.86.29.84.84,0,0,0-.35.69.65.65,0,0,0,.36.61,3.16,3.16,0,0,0,1,.39l.22,0,.24.06a4.74,4.74,0,0,1,2,.82l.13.11a3.17,3.17,0,0,1,.67,1,2.82,2.82,0,0,1,.24,1.12,2.77,2.77,0,0,1-.27,1.2,3.12,3.12,0,0,1-.79,1,3.7,3.7,0,0,1-1.18.66,4.24,4.24,0,0,1-1.37.23,4.19,4.19,0,0,1-1.37-.23,3.76,3.76,0,0,1-1.17-.66,3.12,3.12,0,0,1-.79-1,2.64,2.64,0,0,1-.28-1.2v-.18h2.45v.18a.86.86,0,0,0,.34.69,1.24,1.24,0,0,0,.82.29,1.33,1.33,0,0,0,.86-.29.85.85,0,0,0,.36-.69.84.84,0,0,0-.38-.62,1.79,1.79,0,0,0-.39-.21,5.55,5.55,0,0,0-.55-.16l-.46-.12a11.63,11.63,0,0,1-1.21-.35,2.47,2.47,0,0,1-.79-.47l-.06-.06a3,3,0,0,1-.73-1,2.52,2.52,0,0,1-.26-1.15,2.64,2.64,0,0,1,.28-1.2,3.19,3.19,0,0,1,.79-1,4,4,0,0,1,1.17-.67,4.19,4.19,0,0,1,1.37-.23,4.24,4.24,0,0,1,1.37.23,3.93,3.93,0,0,1,1.18.67,3.19,3.19,0,0,1,.79,1,2.77,2.77,0,0,1,.27,1.2v.19Z"/><path class="cls-1" d="M347.25,138.76v2.14h-6.73V131h6.61v2.14h-4.08v1.74h3.43V137h-3.43v1.74Z"/><path class="cls-1" d="M355.84,131v2.52H353.3v7.38h-2.53v-7.38h-2.54V131h7.61Z"/><path class="cls-1" d="M362.53,138.36a2.69,2.69,0,0,0,.84-.56l1.71,1.71a5.15,5.15,0,0,1-1.61,1.09,5,5,0,0,1-1.94.38,4.83,4.83,0,0,1-2.5-.67,5,5,0,0,1-1.82-1.82,5,5,0,0,1,0-5,5,5,0,0,1,1.82-1.83,4.93,4.93,0,0,1,2.5-.67,4.87,4.87,0,0,1,1.94.39,5.12,5.12,0,0,1,1.61,1.08l-1.71,1.71a2.66,2.66,0,0,0-.84-.55,2.46,2.46,0,0,0-1-.21,2.49,2.49,0,0,0-1.28.35,2.59,2.59,0,0,0-.94.95A2.55,2.55,0,0,0,359,136a2.5,2.5,0,0,0,.35,1.29,2.57,2.57,0,0,0,.94.94,2.49,2.49,0,0,0,1.28.35A2.62,2.62,0,0,0,362.53,138.36Z"/><path class="cls-1" d="M366,140.49a1.36,1.36,0,0,1-.37-1,1.2,1.2,0,0,1,.38-.91,1.24,1.24,0,0,1,.92-.38,1.29,1.29,0,0,1,.94.39,1.28,1.28,0,0,1,.39.94,1.31,1.31,0,0,1-.39.94,1.29,1.29,0,0,1-.94.39A1.24,1.24,0,0,1,366,140.49Z"/><path class="cls-1" d="M38,164.7l3.23,9.8H38.8l-.65-2H35.09l-.63,2H32l3.24-9.8Zm-2.26,5.75h1.77l-.88-2.77Z"/><path class="cls-1" d="M41.23,175.21l3.82-10.71h2.22l-3.84,10.71Z"/><path class="cls-1" d="M55.57,170.32a2.86,2.86,0,0,1,.32,1.32,2.86,2.86,0,0,1-1.41,2.46,2.82,2.82,0,0,1-1.43.4H48.11v-9.91H52.6A2.73,2.73,0,0,1,54,165a2.88,2.88,0,0,1,1,1,2.84,2.84,0,0,1,.37,1.4,2.78,2.78,0,0,1-.2,1,2.82,2.82,0,0,1-.54.88A2.83,2.83,0,0,1,55.57,170.32ZM53,166.92a1,1,0,0,0-.72-.3H50.42v2.1h1.82l.33-.06a.93.93,0,0,0,.25-.14,1.1,1.1,0,0,0,.33-.38,1.14,1.14,0,0,0,.11-.49A1,1,0,0,0,53,166.92Zm.42,5.23a1,1,0,0,0,.28-.75,1,1,0,0,0-.84-1h-2.4v2.1h2.24A1,1,0,0,0,53.38,172.15Z"/><path class="cls-1" d="M68.39,164.6v2.52H65.86v7.38H63.32v-7.38H60.79V164.6h7.6Z"/><path class="cls-1" d="M76.11,172.36v2.14H69.37v-9.9H76v2.14H71.91v1.74h3.43v2.14H71.91v1.74Z"/><path class="cls-1" d="M81.75,167.74v-.19a.87.87,0,0,0-.35-.69,1.23,1.23,0,0,0-.83-.29,1.35,1.35,0,0,0-.86.29.85.85,0,0,0-.36.69.65.65,0,0,0,.37.61,3.16,3.16,0,0,0,1,.39l.22,0,.24.06a4.74,4.74,0,0,1,2,.82l.13.11a3,3,0,0,1,.66,1,2.68,2.68,0,0,1,.25,1.12,2.77,2.77,0,0,1-.27,1.2,3.26,3.26,0,0,1-.79,1,3.7,3.7,0,0,1-1.18.66,4.24,4.24,0,0,1-1.37.23,4.19,4.19,0,0,1-1.37-.23A3.76,3.76,0,0,1,78,173.9a3.12,3.12,0,0,1-.79-1,2.64,2.64,0,0,1-.28-1.2v-.18H79.4v.18a.86.86,0,0,0,.34.69,1.24,1.24,0,0,0,.82.29,1.35,1.35,0,0,0,.86-.29.85.85,0,0,0,.36-.69.84.84,0,0,0-.38-.62,1.79,1.79,0,0,0-.39-.21c-.15-.05-.34-.11-.55-.16l-.46-.12a11.63,11.63,0,0,1-1.21-.35,2.37,2.37,0,0,1-.79-.47l-.06-.06a3,3,0,0,1-.73-1,2.52,2.52,0,0,1-.26-1.15,2.64,2.64,0,0,1,.28-1.2,3.19,3.19,0,0,1,.79-1,4,4,0,0,1,1.17-.67,4.19,4.19,0,0,1,1.37-.23,4.24,4.24,0,0,1,1.37.23,3.93,3.93,0,0,1,1.18.67,3.34,3.34,0,0,1,.79,1,2.77,2.77,0,0,1,.27,1.2v.19Z"/><path class="cls-1" d="M92.47,164.6v2.52H89.94v7.38H87.4v-7.38H84.87V164.6h7.6Z"/><path class="cls-1" d="M96,164.6v9.9H93.45v-9.9Z"/><path class="cls-1" d="M102.54,164.6h2.52v9.9h-2.52l-2.91-5.31v5.31H97.09v-9.9h2.54l2.91,5.31Z"/><path class="cls-1" d="M115.91,169.6a5,5,0,0,1-5,5,4.87,4.87,0,0,1-2.51-.68,5,5,0,0,1-1.82-1.82,4.83,4.83,0,0,1-.67-2.5,4.9,4.9,0,0,1,.67-2.52,5,5,0,0,1,1.82-1.82,4.87,4.87,0,0,1,2.51-.67,4.93,4.93,0,0,1,3.55,1.48l-2.25,1.29a2.53,2.53,0,0,0-1.3-.35,2.5,2.5,0,0,0-1.29.35,2.65,2.65,0,0,0-.94.94,2.57,2.57,0,0,0,0,2.59,2.62,2.62,0,0,0,.94.93,2.41,2.41,0,0,0,1.29.35,2.46,2.46,0,0,0,1.35-.38,2.72,2.72,0,0,0,1-1H110.1v-2.32h5.67A5.54,5.54,0,0,1,115.91,169.6Z"/><path class="cls-1" d="M128.19,165.27A5.07,5.07,0,0,1,130,167.1a5,5,0,0,1,0,5,5.12,5.12,0,0,1-1.82,1.82,5,5,0,0,1-5,0,5.07,5.07,0,0,1-1.83-1.82,5,5,0,0,1,0-5,5,5,0,0,1,1.83-1.83,5,5,0,0,1,5,0ZM127,171.84a2.82,2.82,0,0,0,.94-.94,2.5,2.5,0,0,0,.35-1.29,2.52,2.52,0,0,0-.35-1.29,2.76,2.76,0,0,0-.94-.95,2.5,2.5,0,0,0-1.29-.35,2.56,2.56,0,0,0-1.3.35,2.67,2.67,0,0,0-.94.95,2.52,2.52,0,0,0-.35,1.29,2.5,2.5,0,0,0,.35,1.29,2.73,2.73,0,0,0,.94.94,2.56,2.56,0,0,0,1.3.35A2.5,2.5,0,0,0,127,171.84Z"/><path class="cls-1" d="M138.41,166.74H134v1.74h3.5v2.14H134v3.88h-2.52v-9.9h6.89Z"/><path class="cls-1" d="M149.16,172a2.94,2.94,0,0,0,.84-.56l1.71,1.71a5.08,5.08,0,0,1-1.62,1.09,5,5,0,0,1-1.93.38,4.83,4.83,0,0,1-2.5-.67,5,5,0,0,1-1.82-1.82,5,5,0,0,1,0-5,5,5,0,0,1,1.82-1.83,4.93,4.93,0,0,1,2.5-.67,4.82,4.82,0,0,1,1.93.39,5.05,5.05,0,0,1,1.62,1.08L150,167.75a2.91,2.91,0,0,0-.84-.55,2.46,2.46,0,0,0-1-.21,2.49,2.49,0,0,0-1.28.35,2.59,2.59,0,0,0-.94.95,2.45,2.45,0,0,0-.35,1.29,2.41,2.41,0,0,0,.35,1.29,2.57,2.57,0,0,0,.94.94,2.49,2.49,0,0,0,1.28.35A2.62,2.62,0,0,0,149.16,172Z"/><path class="cls-1" d="M157.7,164.7l3.23,9.8H158.5l-.65-2h-3.06l-.63,2h-2.45l3.24-9.8Zm-2.26,5.75h1.77l-.88-2.77Z"/><path class="cls-1" d="M168.84,164.6h2.52v9.9h-2.52v-5.59l-1.23,2.24-.06.11H165l-.07-.11-.17-.32-1-1.92v5.59h-2.54v-9.9h2.54l2.54,4.21Z"/><path class="cls-1" d="M178.75,165a3.16,3.16,0,0,1,1.12,1.12,3.13,3.13,0,0,1,0,3.1,3.16,3.16,0,0,1-1.12,1.12,3.1,3.1,0,0,1-1.55.41h-2.35v3.74h-2.37v-9.9h4.72A3.1,3.1,0,0,1,178.75,165Zm-1,2a1,1,0,0,0-.66-.33h-2.33v2.1h2.33a.93.93,0,0,0,.66-.34,1.08,1.08,0,0,0,.27-.72A1,1,0,0,0,177.78,167Z"/><path class="cls-1" d="M186.27,164.7l3.23,9.8h-2.43l-.65-2h-3.06l-.63,2h-2.45l3.25-9.8ZM184,170.45h1.76l-.88-2.77Z"/><path class="cls-1" d="M192.3,164.6v9.9h-2.51v-9.9Z"/><path class="cls-1" d="M203.16,169.6a5,5,0,0,1-2.5,4.32,4.91,4.91,0,0,1-2.52.68,5,5,0,0,1-5-5,5,5,0,0,1,2.5-4.34,4.83,4.83,0,0,1,2.5-.67,5,5,0,0,1,2,.39,4.89,4.89,0,0,1,1.6,1.09l-2.25,1.29a2.57,2.57,0,0,0-1.31-.35,2.49,2.49,0,0,0-1.28.35,2.57,2.57,0,0,0-.94.94,2.57,2.57,0,0,0,0,2.59,2.54,2.54,0,0,0,.94.93,2.4,2.4,0,0,0,1.28.35,2.47,2.47,0,0,0,1.36-.38,2.62,2.62,0,0,0,.95-1h-3.11v-2.32H203A5,5,0,0,1,203.16,169.6Z"/><path class="cls-1" d="M209.44,164.6H212v9.9h-2.52l-2.91-5.31v5.31H204v-9.9h2.53l2.91,5.31Z"/><path class="cls-1" d="M217.6,167.74v-.19a.86.86,0,0,0-.34-.69,1.27,1.27,0,0,0-.83-.29,1.31,1.31,0,0,0-.86.29.85.85,0,0,0-.36.69.65.65,0,0,0,.36.61,3.28,3.28,0,0,0,1,.39l.22,0,.25.06a4.8,4.8,0,0,1,2,.82l.13.11a3.14,3.14,0,0,1,.66,1,2.82,2.82,0,0,1,.24,1.12,2.77,2.77,0,0,1-.27,1.2,3,3,0,0,1-.79,1,3.65,3.65,0,0,1-1.17.66,4.25,4.25,0,0,1-1.38.23,4.13,4.13,0,0,1-1.36-.23,3.55,3.55,0,0,1-1.17-.66,3.16,3.16,0,0,1-.8-1,2.64,2.64,0,0,1-.28-1.2v-.18h2.45v.18a.89.89,0,0,0,.34.69,1.26,1.26,0,0,0,.82.29,1.31,1.31,0,0,0,.86-.29.85.85,0,0,0,.36-.69.84.84,0,0,0-.38-.62,1.79,1.79,0,0,0-.39-.21,5.55,5.55,0,0,0-.55-.16l-.46-.12a12.08,12.08,0,0,1-1.2-.35,2.41,2.41,0,0,1-.8-.47l-.06-.06a3.14,3.14,0,0,1-.73-1,2.69,2.69,0,0,1,0-2.35,3.23,3.23,0,0,1,.8-1,3.76,3.76,0,0,1,1.17-.67,4.13,4.13,0,0,1,1.36-.23,4.25,4.25,0,0,1,1.38.23,3.88,3.88,0,0,1,1.17.67,3.06,3.06,0,0,1,.79,1,2.77,2.77,0,0,1,.27,1.2v.19Z"/><path class="cls-1" d="M221.34,172.78h2.37l-1,3.16h-2.09Z"/><path class="cls-1" d="M236,165.27a5,5,0,0,1,0,8.67,4.83,4.83,0,0,1-2.5.67,4.93,4.93,0,0,1-2.52-.67,5.12,5.12,0,0,1-1.82-1.82,5,5,0,0,1,0-5,5.07,5.07,0,0,1,1.82-1.83,4.93,4.93,0,0,1,2.52-.67A4.83,4.83,0,0,1,236,165.27Zm-1.21,6.57a2.7,2.7,0,0,0,.93-.94,2.41,2.41,0,0,0,.35-1.29,2.43,2.43,0,0,0-.35-1.29,2.65,2.65,0,0,0-.93-.95,2.52,2.52,0,0,0-1.29-.35,2.56,2.56,0,0,0-1.3.35,2.67,2.67,0,0,0-.94.95,2.43,2.43,0,0,0-.35,1.29,2.41,2.41,0,0,0,.35,1.29,2.73,2.73,0,0,0,.94.94,2.56,2.56,0,0,0,1.3.35A2.52,2.52,0,0,0,234.77,171.84Z"/><path class="cls-1" d="M246.2,166.74h-4.36v1.74h3.5v2.14h-3.5v3.88h-2.52v-9.9h6.88Z"/><path class="cls-1" d="M258.71,164.6v2.52h-2.54v7.38h-2.53v-7.38H251.1V164.6h7.61Z"/><path class="cls-1" d="M264.84,164.7l3.23,9.8h-2.43l-.65-2h-3.06l-.63,2h-2.45l3.24-9.8Zm-2.26,5.75h1.77l-.88-2.77Z"/><path class="cls-1" d="M276.43,174.5H273.9l-1.57-3.74h-1.61v3.74h-2.37v-9.9h4.72a3.07,3.07,0,0,1,3.08,3.08,3,3,0,0,1-.38,1.48,3.19,3.19,0,0,1-1,1.11ZM273.64,167a.92.92,0,0,0-.65-.33h-2.33v2.1H273a1,1,0,0,0,.65-.34,1.08,1.08,0,0,0,0-1.43Z"/><path class="cls-1" d="M287,169.6a4.83,4.83,0,0,1-.67,2.5,5,5,0,0,1-8.67,0,4.83,4.83,0,0,1-.67-2.5,4.9,4.9,0,0,1,.67-2.52,5,5,0,0,1,1.82-1.82,4.87,4.87,0,0,1,2.51-.67,4.92,4.92,0,0,1,1.95.39,4.79,4.79,0,0,1,1.6,1.09l-2.25,1.29A2.53,2.53,0,0,0,282,167a2.5,2.5,0,0,0-1.29.35,2.73,2.73,0,0,0-.94.94,2.57,2.57,0,0,0,0,2.59,2.7,2.7,0,0,0,.94.93,2.41,2.41,0,0,0,1.29.35,2.52,2.52,0,0,0,1.36-.38,2.69,2.69,0,0,0,.95-1h-3.11v-2.32h5.67A5.54,5.54,0,0,1,287,169.6Z"/><path class="cls-1" d="M294.57,172.36v2.14h-6.73v-9.9h6.61v2.14h-4.08v1.74h3.43v2.14h-3.43v1.74Z"/><path class="cls-1" d="M303.16,164.6v2.52h-2.54v7.38h-2.53v-7.38h-2.54V164.6h7.61Z"/><path class="cls-1" d="M38,181.5l3.23,9.8H38.8l-.65-2H35.09l-.63,2H32l3.24-9.8Zm-2.26,5.75h1.77l-.88-2.77Z"/><path class="cls-1" d="M49.56,181.41v6.12a3.78,3.78,0,0,1-.52,2,3.9,3.9,0,0,1-1.43,1.42,3.85,3.85,0,0,1-2,.53h-.22a3.82,3.82,0,0,1-2-.53A3.87,3.87,0,0,1,42,189.49a3.79,3.79,0,0,1-.53-2v-6.12h2.34V187a2.36,2.36,0,0,0,.42,1.44,1.33,1.33,0,0,0,1.15.58h.22a1.38,1.38,0,0,0,1.14-.58,2.29,2.29,0,0,0,.44-1.44v-5.56Z"/><path class="cls-1" d="M55,181.37a6,6,0,0,1,1.49.35,4.26,4.26,0,0,1,1.37.86,4.93,4.93,0,0,1,1.21,1.7,5.14,5.14,0,0,1,.43,2A4.87,4.87,0,0,1,59,188.6a4.54,4.54,0,0,1-1.53,1.75,5.5,5.5,0,0,1-2,.79,15.24,15.24,0,0,1-2.5.19l-1.15,0H50.68v-10h2.54A15.63,15.63,0,0,1,55,181.37Zm2.09,4.94a2.46,2.46,0,0,0-.34-1.26,2.62,2.62,0,0,0-.91-1,2.48,2.48,0,0,0-1.27-.38H53.22v5.17a10.82,10.82,0,0,0,1.73-.12,3,3,0,0,0,1.3-.56,2.2,2.2,0,0,0,.79-1.3A3.25,3.25,0,0,0,57.11,186.31Z"/><path class="cls-1" d="M62.88,181.4v9.9H60.36v-9.9Z"/><path class="cls-1" d="M70.73,189.16v2.14H64v-9.9h6.6v2.14H66.53v1.74H70v2.14H66.53v1.74Z"/><path class="cls-1" d="M77.3,181.4h2.52v9.9H77.3L74.38,186v5.31H71.85v-9.9h2.53l2.92,5.31Z"/><path class="cls-1" d="M86.65,188.76a2.69,2.69,0,0,0,.84-.56l1.71,1.71A5.15,5.15,0,0,1,87.59,191a5.08,5.08,0,0,1-1.94.38,4.83,4.83,0,0,1-2.5-.67,5,5,0,0,1-1.82-1.82,4.84,4.84,0,0,1-.67-2.51,4.89,4.89,0,0,1,.67-2.51A5,5,0,0,1,83.15,182a5,5,0,0,1,4.44-.28,5.12,5.12,0,0,1,1.61,1.08l-1.71,1.71a2.66,2.66,0,0,0-.84-.55,2.46,2.46,0,0,0-1-.21,2.49,2.49,0,0,0-1.28.35,2.59,2.59,0,0,0-.94,1,2.45,2.45,0,0,0-.35,1.29,2.41,2.41,0,0,0,.35,1.29,2.57,2.57,0,0,0,.94.94,2.49,2.49,0,0,0,1.28.35A2.62,2.62,0,0,0,86.65,188.76Z"/><path class="cls-1" d="M96.77,189.16v2.14H90v-9.9h6.6v2.14H92.57v1.74H96v2.14H92.57v1.74Z"/><path class="cls-1" d="M98.37,189.58h2.36l-1,3.16H97.61Z"/><path class="cls-1" d="M113,182.07a5.07,5.07,0,0,1,1.82,1.83,5,5,0,0,1,0,5,5.12,5.12,0,0,1-1.82,1.82,5,5,0,0,1-5,0,5.07,5.07,0,0,1-1.83-1.82,5,5,0,0,1,0-5,5,5,0,0,1,1.83-1.83,5,5,0,0,1,5,0Zm-1.22,6.57a2.65,2.65,0,0,0,.94-.94,2.5,2.5,0,0,0,.35-1.29,2.52,2.52,0,0,0-.35-1.29,2.67,2.67,0,0,0-.94-1,2.5,2.5,0,0,0-1.29-.35,2.55,2.55,0,0,0-1.29.35,2.7,2.7,0,0,0-.95,1,2.52,2.52,0,0,0-.35,1.29,2.5,2.5,0,0,0,.35,1.29,2.67,2.67,0,0,0,.95.94,2.55,2.55,0,0,0,1.29.35A2.5,2.5,0,0,0,111.79,188.64Z"/><path class="cls-1" d="M123.23,183.54h-4.37v1.74h3.5v2.14h-3.5v3.88h-2.52v-9.9h6.89Z"/><path class="cls-1" d="M134,188.76a2.69,2.69,0,0,0,.84-.56l1.71,1.71a4.91,4.91,0,0,1-3.54,1.47,4.87,4.87,0,0,1-2.51-.67,5,5,0,0,1-1.82-1.82,4.84,4.84,0,0,1-.67-2.51,4.89,4.89,0,0,1,.67-2.51,5.07,5.07,0,0,1,1.82-1.83,5,5,0,0,1,2.51-.67,4.86,4.86,0,0,1,1.93.39,5,5,0,0,1,1.61,1.08l-1.71,1.71A2.66,2.66,0,0,0,134,184a2.45,2.45,0,0,0-1-.21,2.5,2.5,0,0,0-1.29.35,2.67,2.67,0,0,0-.94,1,2.55,2.55,0,0,0-.35,1.29,2.5,2.5,0,0,0,.35,1.29,2.65,2.65,0,0,0,.94.94A2.5,2.5,0,0,0,133,189,2.61,2.61,0,0,0,134,188.76Z"/><path class="cls-1" d="M145.45,191.3h-2.54l-1.56-3.74h-1.61v3.74h-2.37v-9.9h4.72a3.09,3.09,0,0,1,1.54.41,3,3,0,0,1,1.12,1.13,3,3,0,0,1,.42,1.54,3,3,0,0,1-.38,1.48,3.19,3.19,0,0,1-1,1.11Zm-2.79-7.54a1,1,0,0,0-.66-.33h-2.32v2.1H142a1,1,0,0,0,.66-.34,1.08,1.08,0,0,0,0-1.43Z"/><path class="cls-1" d="M153,189.16v2.14h-6.73v-9.9h6.61v2.14h-4.08v1.74h3.43v2.14h-3.43v1.74Z"/><path class="cls-1" d="M159.29,181.5l3.24,9.8h-2.44l-.64-2h-3.07l-.63,2H153.3l3.25-9.8ZM157,187.25h1.76l-.88-2.77Z"/><path class="cls-1" d="M170.27,181.4v2.52h-2.53v7.38H165.2v-7.38h-2.53V181.4h7.6Z"/><path class="cls-1" d="M173.77,181.4v9.9h-2.52v-9.9Z"/><path class="cls-1" d="M181.4,181.37h2.74l-3.23,9.93h-3.08l-3.22-9.93h2.77l2,6.19Z"/><path class="cls-1" d="M191.72,189.16v2.14H185v-9.9h6.61v2.14h-4.07v1.74H191v2.14h-3.43v1.74Z"/><path class="cls-1" d="M197.36,184.54v-.19a.86.86,0,0,0-.34-.69,1.28,1.28,0,0,0-.84-.29,1.35,1.35,0,0,0-.86.29.85.85,0,0,0-.36.69.65.65,0,0,0,.37.61,2.92,2.92,0,0,0,.95.39l.22,0,.24.06a4.86,4.86,0,0,1,2,.82l.12.11a3.3,3.3,0,0,1,.67,1,2.82,2.82,0,0,1,.24,1.12,2.77,2.77,0,0,1-.27,1.2,3.12,3.12,0,0,1-.79,1,3.7,3.7,0,0,1-1.18.66,4.2,4.2,0,0,1-2.74,0,3.76,3.76,0,0,1-1.17-.66,3.12,3.12,0,0,1-.79-1,2.64,2.64,0,0,1-.28-1.2v-.18H195v.18a.86.86,0,0,0,.34.69,1.24,1.24,0,0,0,.82.29,1.35,1.35,0,0,0,.86-.29.85.85,0,0,0,.36-.69.84.84,0,0,0-.38-.62,1.79,1.79,0,0,0-.39-.21,5.55,5.55,0,0,0-.55-.16l-.46-.12a11.32,11.32,0,0,1-1.2-.35,2.41,2.41,0,0,1-.8-.47l-.06-.06a3,3,0,0,1-.73-1,2.52,2.52,0,0,1-.26-1.15,2.64,2.64,0,0,1,.28-1.2,3.19,3.19,0,0,1,.79-1,4,4,0,0,1,1.17-.67,4.2,4.2,0,0,1,2.74,0,3.93,3.93,0,0,1,1.18.67,3.19,3.19,0,0,1,.79,1,2.77,2.77,0,0,1,.27,1.2v.19Z"/><path class="cls-1" d="M210,181.5l3.24,9.8h-2.44l-.64-2h-3.07l-.63,2H204l3.25-9.8Zm-2.25,5.75h1.76l-.88-2.77Z"/><path class="cls-1" d="M218.93,181.4h2.52v9.9h-2.52L216,186v5.31h-2.53v-9.9H216l2.91,5.31Z"/><path class="cls-1" d="M226.91,181.37a6,6,0,0,1,1.49.35,4.26,4.26,0,0,1,1.37.86,4.8,4.8,0,0,1,1.21,1.7,5.14,5.14,0,0,1,.43,2,4.87,4.87,0,0,1-.55,2.29,4.54,4.54,0,0,1-1.53,1.75,5.43,5.43,0,0,1-2,.79,15.24,15.24,0,0,1-2.5.19l-1.14,0h-1.1v-10h2.54A15.63,15.63,0,0,1,226.91,181.37Zm2.09,4.94a2.46,2.46,0,0,0-.34-1.26,2.62,2.62,0,0,0-.91-1,2.48,2.48,0,0,0-1.27-.38h-1.37v5.17a10.73,10.73,0,0,0,1.73-.12,3,3,0,0,0,1.3-.56,2.15,2.15,0,0,0,.79-1.3A2.55,2.55,0,0,0,229,186.31Z"/><path class="cls-1" d="M243,181.37h2.74l-3.23,9.93h-3.08l-3.22-9.93h2.77l2,6.19Z"/><path class="cls-1" d="M249.06,181.4v9.9h-2.52v-9.9Z"/><path class="cls-1" d="M254.7,184.54v-.19a.86.86,0,0,0-.34-.69,1.27,1.27,0,0,0-.83-.29,1.31,1.31,0,0,0-.86.29.85.85,0,0,0-.36.69.64.64,0,0,0,.36.61,3,3,0,0,0,1,.39l.22,0,.25.06a4.87,4.87,0,0,1,2,.82l.12.11a3.12,3.12,0,0,1,.67,1,2.82,2.82,0,0,1,.24,1.12,2.77,2.77,0,0,1-.27,1.2,3,3,0,0,1-.79,1,3.7,3.7,0,0,1-1.18.66,4.17,4.17,0,0,1-2.73,0,3.55,3.55,0,0,1-1.17-.66,3.16,3.16,0,0,1-.8-1,2.64,2.64,0,0,1-.28-1.2v-.18h2.45v.18a.86.86,0,0,0,.34.69,1.26,1.26,0,0,0,.82.29,1.31,1.31,0,0,0,.86-.29.85.85,0,0,0,.36-.69.84.84,0,0,0-.38-.62,1.79,1.79,0,0,0-.39-.21,5.55,5.55,0,0,0-.55-.16l-.46-.12a12.08,12.08,0,0,1-1.2-.35,2.41,2.41,0,0,1-.8-.47l-.06-.06a3.14,3.14,0,0,1-.73-1,2.69,2.69,0,0,1,0-2.35,3.23,3.23,0,0,1,.8-1,3.76,3.76,0,0,1,1.17-.67,4.17,4.17,0,0,1,2.73,0,3.93,3.93,0,0,1,1.18.67,3.06,3.06,0,0,1,.79,1,2.77,2.77,0,0,1,.27,1.2v.19Z"/><path class="cls-1" d="M266,181.41v6.12a3.78,3.78,0,0,1-.52,2,3.9,3.9,0,0,1-1.43,1.42,3.85,3.85,0,0,1-2,.53h-.22a3.82,3.82,0,0,1-2-.53,3.87,3.87,0,0,1-1.42-1.42,3.79,3.79,0,0,1-.53-2v-6.12h2.34V187a2.36,2.36,0,0,0,.42,1.44,1.33,1.33,0,0,0,1.15.58h.22a1.41,1.41,0,0,0,1.15-.58,2.35,2.35,0,0,0,.44-1.44v-5.56Z"/><path class="cls-1" d="M272.29,181.5l3.23,9.8h-2.44l-.64-2h-3.07l-.63,2h-2.45l3.25-9.8ZM270,187.25h1.77l-.89-2.77Z"/><path class="cls-1" d="M278.32,188.92h3.89v2.38H275.8v-9.9h2.52Z"/><path class="cls-1" d="M287.71,184.54v-.19a.86.86,0,0,0-.34-.69,1.25,1.25,0,0,0-.83-.29,1.33,1.33,0,0,0-.86.29.85.85,0,0,0-.36.69.64.64,0,0,0,.36.61,3.09,3.09,0,0,0,1,.39l.21,0,.25.06a4.8,4.8,0,0,1,2,.82l.13.11a3.09,3.09,0,0,1,.66,1,2.84,2.84,0,0,1,.25,1.12,2.64,2.64,0,0,1-.28,1.2,3,3,0,0,1-.79,1,3.65,3.65,0,0,1-1.17.66,4,4,0,0,1-1.38.23,3.89,3.89,0,0,1-1.36-.23,3.76,3.76,0,0,1-1.17-.66,3.3,3.3,0,0,1-.8-1,2.78,2.78,0,0,1-.28-1.2v-.18h2.45v.18a.87.87,0,0,0,.35.69,1.22,1.22,0,0,0,.81.29,1.36,1.36,0,0,0,.87-.29.87.87,0,0,0,.35-.69.81.81,0,0,0-.38-.62,1.79,1.79,0,0,0-.39-.21c-.15,0-.33-.11-.54-.16l-.47-.12a12.08,12.08,0,0,1-1.2-.35,2.51,2.51,0,0,1-.8-.47l0-.06a3,3,0,0,1-.74-1,2.65,2.65,0,0,1-.26-1.15,2.78,2.78,0,0,1,.28-1.2,3.38,3.38,0,0,1,.8-1,4,4,0,0,1,1.17-.67,4.13,4.13,0,0,1,1.36-.23,4.25,4.25,0,0,1,1.38.23,3.88,3.88,0,0,1,1.17.67,3.06,3.06,0,0,1,.79,1,2.64,2.64,0,0,1,.28,1.2v.19Z"/><path class="cls-1" d="M291.08,190.89a1.33,1.33,0,0,1-.38-1,1.3,1.3,0,0,1,1.3-1.29,1.29,1.29,0,0,1,.94.39,1.28,1.28,0,0,1,.39.94A1.33,1.33,0,0,1,292,191.3,1.2,1.2,0,0,1,291.08,190.89Z"/><path class="cls-1" d="M40.81,215H43v9.9H40.48l-2.55-4.22-2.56,4.22H32.85V215h2.52v5.59l1.23-2.24.07-.12h2.52l.05.12,1.24,2.24V215Z"/><path class="cls-1" d="M50.85,222.76v2.14H44.12V215h6.6v2.14H46.65v1.74h3.43V221H46.65v1.74Z"/><path class="cls-1" d="M61.88,222.36a2.69,2.69,0,0,0,.84-.56l1.71,1.71A4.91,4.91,0,0,1,60.89,225a4.87,4.87,0,0,1-2.51-.67,5,5,0,0,1-1.82-1.82,5,5,0,0,1,0-5,5.07,5.07,0,0,1,1.82-1.83,5,5,0,0,1,2.51-.67,4.86,4.86,0,0,1,1.93.39,5,5,0,0,1,1.61,1.08l-1.71,1.71a2.66,2.66,0,0,0-.84-.55,2.45,2.45,0,0,0-1-.21,2.5,2.5,0,0,0-1.29.35,2.76,2.76,0,0,0-.94.95,2.55,2.55,0,0,0-.35,1.29,2.5,2.5,0,0,0,.35,1.29,2.73,2.73,0,0,0,.94.94,2.5,2.5,0,0,0,1.29.35A2.61,2.61,0,0,0,61.88,222.36Z"/><path class="cls-1" d="M72.51,215.67a5.07,5.07,0,0,1,1.82,1.83,5,5,0,0,1,0,5,5.12,5.12,0,0,1-1.82,1.82,5,5,0,0,1-5,0,5.07,5.07,0,0,1-1.83-1.82,5,5,0,0,1,0-5,5,5,0,0,1,1.83-1.83,5,5,0,0,1,5,0Zm-1.22,6.57a2.73,2.73,0,0,0,.94-.94,2.5,2.5,0,0,0,.35-1.29,2.52,2.52,0,0,0-.35-1.29,2.67,2.67,0,0,0-.94-.95,2.5,2.5,0,0,0-1.29-.35,2.52,2.52,0,0,0-1.29.35,2.7,2.7,0,0,0-.95.95,2.52,2.52,0,0,0-.35,1.29,2.5,2.5,0,0,0,.35,1.29,2.76,2.76,0,0,0,.95.94,2.52,2.52,0,0,0,1.29.35A2.5,2.5,0,0,0,71.29,222.24Z"/><path class="cls-1" d="M83.89,215v6.12a3.91,3.91,0,0,1-.52,2,4,4,0,0,1-1.43,1.42,3.88,3.88,0,0,1-2,.53h-.22a3.92,3.92,0,0,1-3.38-1.95,3.72,3.72,0,0,1-.53-2V215h2.34v5.56A2.36,2.36,0,0,0,78.6,222a1.33,1.33,0,0,0,1.15.58H80a1.38,1.38,0,0,0,1.14-.58,2.29,2.29,0,0,0,.44-1.44V215Z"/><path class="cls-1" d="M87.53,222.52h3.89v2.38H85V215h2.52Z"/><path class="cls-1" d="M96.74,215a6.48,6.48,0,0,1,1.49.36,4.26,4.26,0,0,1,1.37.86,4.93,4.93,0,0,1,1.21,1.7,5.14,5.14,0,0,1,.43,2,4.9,4.9,0,0,1-.55,2.29A4.62,4.62,0,0,1,99.16,224a5.5,5.5,0,0,1-2,.79,15.34,15.34,0,0,1-2.5.19l-1.15,0H92.4v-10h2.54C95.64,214.89,96.24,214.91,96.74,215Zm2.09,4.95a2.46,2.46,0,0,0-.34-1.26,2.62,2.62,0,0,0-.91-1,2.48,2.48,0,0,0-1.27-.38H94.94v5.17a10.82,10.82,0,0,0,1.73-.12,3,3,0,0,0,1.3-.56,2.23,2.23,0,0,0,.79-1.3A3.25,3.25,0,0,0,98.83,219.91Z"/><path class="cls-1" d="M116,220a5,5,0,0,1-2.5,4.32A4.91,4.91,0,0,1,111,225a4.84,4.84,0,0,1-2.5-.68,4.89,4.89,0,0,1-1.82-1.82A4.83,4.83,0,0,1,106,220a4.9,4.9,0,0,1,.67-2.52,5,5,0,0,1,1.82-1.82A4.83,4.83,0,0,1,111,215a5,5,0,0,1,2,.39,4.89,4.89,0,0,1,1.6,1.09l-2.25,1.29a2.47,2.47,0,0,0-1.31-.35,2.4,2.4,0,0,0-1.28.35,2.57,2.57,0,0,0-.94.94,2.57,2.57,0,0,0,0,2.59,2.54,2.54,0,0,0,.94.93,2.4,2.4,0,0,0,1.28.35,2.47,2.47,0,0,0,1.36-.38,2.62,2.62,0,0,0,1-1h-3.1v-2.32h5.67A5.54,5.54,0,0,1,116,220Z"/><path class="cls-1" d="M124.9,215v6.12a3.82,3.82,0,0,1-.53,2,3.9,3.9,0,0,1-1.43,1.42,3.84,3.84,0,0,1-2,.53h-.23a3.82,3.82,0,0,1-2-.53,3.87,3.87,0,0,1-1.42-1.42,3.81,3.81,0,0,1-.52-2V215h2.33v5.56a2.36,2.36,0,0,0,.42,1.44,1.34,1.34,0,0,0,1.15.58H121a1.4,1.4,0,0,0,1.14-.58,2.35,2.35,0,0,0,.44-1.44V215Z"/><path class="cls-1" d="M131.17,215.1l3.23,9.8H132l-.64-2h-3.07l-.62,2h-2.45l3.24-9.8Zm-2.26,5.75h1.77l-.89-2.77Z"/><path class="cls-1" d="M142.76,224.9h-2.53l-1.57-3.74h-1.61v3.74h-2.37V215h4.72a3.07,3.07,0,0,1,3.08,3.08,3,3,0,0,1-.38,1.48,3.19,3.19,0,0,1-1,1.11ZM140,217.36a.92.92,0,0,0-.65-.33H137v2.1h2.33a1,1,0,0,0,.65-.34,1.08,1.08,0,0,0,0-1.43Z"/><path class="cls-1" d="M148.75,215.1l3.24,9.8h-2.44l-.64-2h-3.07l-.63,2h-2.45l3.25-9.8Zm-2.25,5.75h1.76l-.88-2.77Z"/><path class="cls-1" d="M157.71,215h2.52v9.9h-2.52l-2.91-5.31v5.31h-2.53V215h2.53l2.91,5.31Z"/><path class="cls-1" d="M168.81,215v2.52h-2.53v7.38h-2.53v-7.38h-2.54V215h7.6Z"/><path class="cls-1" d="M176.53,222.76v2.14h-6.74V215h6.61v2.14h-4.07v1.74h3.43V221h-3.43v1.74Z"/><path class="cls-1" d="M184.38,222.76v2.14h-6.73V215h6.6v2.14h-4.07v1.74h3.43V221h-3.43v1.74Z"/><path class="cls-1" d="M196,215.41a3.16,3.16,0,0,1,1.12,1.12,3.13,3.13,0,0,1,0,3.1,3.16,3.16,0,0,1-1.12,1.12,3.1,3.1,0,0,1-1.55.41h-2.35v3.74H189.7V215h4.72A3.1,3.1,0,0,1,196,215.41Zm-1,2a1,1,0,0,0-.67-.33H192v2.1h2.32a.93.93,0,0,0,.67-.34,1.08,1.08,0,0,0,.27-.72A1,1,0,0,0,195,217.36Z"/><path class="cls-1" d="M203.49,215.1l3.23,9.8h-2.43l-.65-2h-3.06l-.63,2H197.5l3.25-9.8Zm-2.25,5.75H203l-.88-2.77Z"/><path class="cls-1" d="M211.53,218.14V218a.87.87,0,0,0-.35-.69,1.23,1.23,0,0,0-.83-.29,1.33,1.33,0,0,0-.86.29.85.85,0,0,0-.36.69.65.65,0,0,0,.37.61,3.16,3.16,0,0,0,.95.39l.22,0,.24.06a4.74,4.74,0,0,1,2,.82l.13.11a3,3,0,0,1,.66,1,2.68,2.68,0,0,1,.25,1.12,2.77,2.77,0,0,1-.27,1.2,3.16,3.16,0,0,1-.8,1,3.55,3.55,0,0,1-1.17.66,4.24,4.24,0,0,1-1.37.23A4.19,4.19,0,0,1,209,225a3.76,3.76,0,0,1-1.17-.66,3.3,3.3,0,0,1-.8-1,2.78,2.78,0,0,1-.28-1.2v-.18h2.45v.18a.87.87,0,0,0,.35.69,1.24,1.24,0,0,0,.82.29,1.35,1.35,0,0,0,.86-.29.84.84,0,0,0,.35-.69.82.82,0,0,0-.37-.62,2.15,2.15,0,0,0-.4-.21c-.15-.05-.33-.11-.54-.16l-.46-.12a11.63,11.63,0,0,1-1.21-.35,2.51,2.51,0,0,1-.8-.47l-.05-.06a3.17,3.17,0,0,1-.74-1,2.65,2.65,0,0,1-.26-1.15,2.78,2.78,0,0,1,.28-1.2,3.38,3.38,0,0,1,.8-1,4,4,0,0,1,1.17-.67,4.19,4.19,0,0,1,1.37-.23,4.24,4.24,0,0,1,1.37.23,3.76,3.76,0,0,1,1.17.67,3.23,3.23,0,0,1,.8,1A2.77,2.77,0,0,1,214,218v.19Z"/><path class="cls-1" d="M219.31,218.14V218a.86.86,0,0,0-.34-.69,1.28,1.28,0,0,0-.84-.29,1.35,1.35,0,0,0-.86.29.87.87,0,0,0-.35.69.65.65,0,0,0,.36.61,3.16,3.16,0,0,0,.95.39l.22,0,.24.06a4.86,4.86,0,0,1,2,.82l.12.11a3.17,3.17,0,0,1,.67,1,2.82,2.82,0,0,1,.24,1.12,2.77,2.77,0,0,1-.27,1.2,3.12,3.12,0,0,1-.79,1,3.7,3.7,0,0,1-1.18.66,4.19,4.19,0,0,1-1.37.23,4.09,4.09,0,0,1-1.36-.23,3.55,3.55,0,0,1-1.17-.66,3.16,3.16,0,0,1-.8-1,2.64,2.64,0,0,1-.28-1.2v-.18H217v.18a.86.86,0,0,0,.34.69,1.24,1.24,0,0,0,.82.29,1.33,1.33,0,0,0,.86-.29.85.85,0,0,0,.36-.69.84.84,0,0,0-.38-.62,1.79,1.79,0,0,0-.39-.21,5.55,5.55,0,0,0-.55-.16l-.46-.12a12.08,12.08,0,0,1-1.2-.35,2.41,2.41,0,0,1-.8-.47l-.06-.06a3.14,3.14,0,0,1-.73-1,2.52,2.52,0,0,1-.26-1.15,2.64,2.64,0,0,1,.28-1.2,3.23,3.23,0,0,1,.8-1,3.76,3.76,0,0,1,1.17-.67,4.09,4.09,0,0,1,1.36-.23,4.19,4.19,0,0,1,1.37.23,3.93,3.93,0,0,1,1.18.67,3.19,3.19,0,0,1,.79,1,2.77,2.77,0,0,1,.27,1.2v.19Z"/><path class="cls-1" d="M225.09,215v9.9h-2.52V215Z"/><path class="cls-1" d="M231.66,215h2.52v9.9h-2.52l-2.91-5.31v5.31h-2.54V215h2.54l2.91,5.31Z"/><path class="cls-1" d="M245,220a5,5,0,0,1-5,5,4.87,4.87,0,0,1-2.51-.68,5,5,0,0,1-1.82-1.82A4.83,4.83,0,0,1,235,220a4.9,4.9,0,0,1,.67-2.52,5,5,0,0,1,1.82-1.82A4.87,4.87,0,0,1,240,215a4.92,4.92,0,0,1,1.95.39,4.79,4.79,0,0,1,1.6,1.09l-2.25,1.29a2.44,2.44,0,0,0-1.3-.35,2.41,2.41,0,0,0-1.29.35,2.65,2.65,0,0,0-.94.94,2.57,2.57,0,0,0,0,2.59,2.62,2.62,0,0,0,.94.93,2.41,2.41,0,0,0,1.29.35,2.52,2.52,0,0,0,1.36-.38,2.69,2.69,0,0,0,1-1h-3.11v-2.32h5.67A5.54,5.54,0,0,1,245,220Z"/><path class="cls-1" d="M257.53,215v2.52H255v7.38h-2.54v-7.38h-2.53V215h7.6Z"/><path class="cls-1" d="M263.86,215h2.52v9.9h-2.52v-3.7H261v3.7h-2.52V215H261v3.68h2.83Z"/><path class="cls-1" d="M275.58,224.9H273l-1.57-3.74h-1.61v3.74H267.5V215h4.72a3.09,3.09,0,0,1,1.54.41,3,3,0,0,1,1.12,1.13,3,3,0,0,1,.42,1.54,3,3,0,0,1-.38,1.48,3.19,3.19,0,0,1-1,1.11Zm-2.79-7.54a1,1,0,0,0-.66-.33h-2.32v2.1h2.32a1,1,0,0,0,.66-.34,1.08,1.08,0,0,0,0-1.43Z"/><path class="cls-1" d="M283.65,215.67a5,5,0,0,1,0,8.67,4.83,4.83,0,0,1-2.5.67,4.93,4.93,0,0,1-2.52-.67,5.12,5.12,0,0,1-1.82-1.82,5,5,0,0,1,0-5,5.07,5.07,0,0,1,1.82-1.83,4.93,4.93,0,0,1,2.52-.67A4.83,4.83,0,0,1,283.65,215.67Zm-1.21,6.57a2.7,2.7,0,0,0,.93-.94,2.41,2.41,0,0,0,.35-1.29,2.43,2.43,0,0,0-.35-1.29,2.65,2.65,0,0,0-.93-.95,2.52,2.52,0,0,0-1.29-.35,2.56,2.56,0,0,0-1.3.35,2.67,2.67,0,0,0-.94.95,2.43,2.43,0,0,0-.35,1.29,2.41,2.41,0,0,0,.35,1.29,2.73,2.73,0,0,0,.94.94,2.56,2.56,0,0,0,1.3.35A2.52,2.52,0,0,0,282.44,222.24Z"/><path class="cls-1" d="M295,215v6.12a3.82,3.82,0,0,1-.53,2,3.9,3.9,0,0,1-1.43,1.42,3.82,3.82,0,0,1-2,.53h-.23a3.82,3.82,0,0,1-2-.53,3.87,3.87,0,0,1-1.42-1.42,3.81,3.81,0,0,1-.52-2V215h2.33v5.56a2.36,2.36,0,0,0,.42,1.44,1.34,1.34,0,0,0,1.15.58h.23a1.4,1.4,0,0,0,1.14-.58,2.35,2.35,0,0,0,.44-1.44V215Z"/><path class="cls-1" d="M305.89,220a5,5,0,0,1-2.5,4.32,4.91,4.91,0,0,1-2.52.68,4.84,4.84,0,0,1-2.5-.68,4.89,4.89,0,0,1-1.82-1.82,4.83,4.83,0,0,1-.67-2.5,4.9,4.9,0,0,1,.67-2.52,5,5,0,0,1,1.82-1.82,4.83,4.83,0,0,1,2.5-.67,5,5,0,0,1,2,.39,4.89,4.89,0,0,1,1.6,1.09l-2.25,1.29a2.47,2.47,0,0,0-1.31-.35,2.4,2.4,0,0,0-1.28.35,2.57,2.57,0,0,0-.94.94,2.57,2.57,0,0,0,0,2.59,2.54,2.54,0,0,0,.94.93,2.4,2.4,0,0,0,1.28.35,2.47,2.47,0,0,0,1.36-.38,2.62,2.62,0,0,0,.95-1h-3.1v-2.32h5.67A5.54,5.54,0,0,1,305.89,220Z"/><path class="cls-1" d="M312.07,215h2.52v9.9h-2.52v-3.7h-2.82v3.7h-2.52V215h2.52v3.68h2.82Z"/><path class="cls-1" d="M40.48,231.8H43v9.9H40.48v-5.59l-1.24,2.24-.05.11H36.67l-.07-.11-.17-.32-1-1.92v5.59H32.85v-9.9h2.53L37.93,236Z"/><path class="cls-1" d="M51.35,232.47a5,5,0,0,1,0,8.67,4.83,4.83,0,0,1-2.5.67,4.93,4.93,0,0,1-2.52-.67,5.12,5.12,0,0,1-1.82-1.82,5,5,0,0,1,0-5,5.07,5.07,0,0,1,1.82-1.83,4.93,4.93,0,0,1,2.52-.67A4.83,4.83,0,0,1,51.35,232.47ZM50.14,239a2.62,2.62,0,0,0,.93-.94,2.41,2.41,0,0,0,.35-1.29,2.43,2.43,0,0,0-.35-1.29,2.65,2.65,0,0,0-.93-1,2.52,2.52,0,0,0-1.29-.35,2.56,2.56,0,0,0-1.3.35,2.67,2.67,0,0,0-.94,1,2.52,2.52,0,0,0-.35,1.29,2.5,2.5,0,0,0,.35,1.29,2.65,2.65,0,0,0,.94.94,2.56,2.56,0,0,0,1.3.35A2.52,2.52,0,0,0,50.14,239Z"/><path class="cls-1" d="M59,231.77a6.08,6.08,0,0,1,1.49.35,4.22,4.22,0,0,1,1.36.86,4.68,4.68,0,0,1,1.21,1.7,5,5,0,0,1,.43,2A4.78,4.78,0,0,1,63,239a4.54,4.54,0,0,1-1.53,1.75,5.43,5.43,0,0,1-2,.79,15.21,15.21,0,0,1-2.49.19l-1.15,0H54.69v-10h2.53A15.93,15.93,0,0,1,59,231.77Zm2.08,4.94a2.55,2.55,0,0,0-.33-1.26,2.65,2.65,0,0,0-.92-1,2.48,2.48,0,0,0-1.27-.38H57.22v5.17a10.73,10.73,0,0,0,1.73-.12,3,3,0,0,0,1.3-.56,2.18,2.18,0,0,0,.79-1.3A2.55,2.55,0,0,0,61.11,236.71Z"/><path class="cls-1" d="M71.09,239.56v2.14H64.36v-9.9H71v2.14H66.89v1.74h3.43v2.14H66.89v1.74Z"/><path class="cls-1" d="M80.29,241.7H77.76L76.19,238H74.58v3.74H72.21v-9.9h4.72A3.07,3.07,0,0,1,80,234.88a2.94,2.94,0,0,1-.38,1.48,3.19,3.19,0,0,1-1,1.11Zm-2.78-7.54a1,1,0,0,0-.66-.33H74.52v2.1h2.33a1,1,0,0,0,.66-.34,1.11,1.11,0,0,0,0-1.43Z"/><path class="cls-1" d="M86.28,231.9l3.24,9.8H87.08l-.64-2H83.37l-.63,2H80.29l3.25-9.8ZM84,237.65h1.76l-.88-2.77Z"/><path class="cls-1" d="M97.26,231.8v2.52H94.73v7.38H92.19v-7.38H89.66V231.8h7.6Z"/><path class="cls-1" d="M100.76,231.8v9.9H98.24v-9.9Z"/><path class="cls-1" d="M109.12,232.47a5.07,5.07,0,0,1,1.82,1.83,5,5,0,0,1,0,5,5.12,5.12,0,0,1-1.82,1.82,5,5,0,0,1-5,0,5.07,5.07,0,0,1-1.83-1.82,5,5,0,0,1,0-5,5,5,0,0,1,1.83-1.83,5,5,0,0,1,5,0ZM107.9,239a2.73,2.73,0,0,0,.94-.94,2.5,2.5,0,0,0,.35-1.29,2.52,2.52,0,0,0-.35-1.29,2.76,2.76,0,0,0-.94-1,2.5,2.5,0,0,0-1.29-.35,2.52,2.52,0,0,0-1.29.35,2.7,2.7,0,0,0-.95,1,2.52,2.52,0,0,0-.35,1.29,2.5,2.5,0,0,0,.35,1.29,2.67,2.67,0,0,0,.95.94,2.52,2.52,0,0,0,1.29.35A2.5,2.5,0,0,0,107.9,239Z"/><path class="cls-1" d="M117.9,231.8h2.52v9.9H117.9L115,236.39v5.31h-2.53v-9.9H115l2.92,5.31Z"/><path class="cls-1" d="M133,232.47a5,5,0,0,1,0,8.67,4.83,4.83,0,0,1-2.5.67,4.9,4.9,0,0,1-2.52-.67,5,5,0,0,1-1.82-1.82,5,5,0,0,1,0-5,5,5,0,0,1,1.82-1.83,4.9,4.9,0,0,1,2.52-.67A4.83,4.83,0,0,1,133,232.47ZM131.76,239a2.62,2.62,0,0,0,.93-.94,2.41,2.41,0,0,0,.35-1.29,2.43,2.43,0,0,0-.35-1.29,2.65,2.65,0,0,0-.93-1,2.57,2.57,0,0,0-2.59,0,2.67,2.67,0,0,0-.94,1,2.43,2.43,0,0,0-.35,1.29,2.41,2.41,0,0,0,.35,1.29,2.65,2.65,0,0,0,.94.94,2.57,2.57,0,0,0,2.59,0Z"/><path class="cls-1" d="M143.19,233.94h-4.36v1.74h3.5v2.14h-3.5v3.88h-2.52v-9.9h6.88Z"/><path class="cls-1" d="M153.38,231.9l3.24,9.8h-2.44l-.64-2h-3.07l-.63,2h-2.45l3.25-9.8Zm-2.25,5.75h1.77l-.89-2.77Z"/><path class="cls-1" d="M159.42,239.32h3.89v2.38H156.9v-9.9h2.52Z"/><path class="cls-1" d="M166.81,239.32h3.89v2.38h-6.41v-9.9h2.52Z"/><path class="cls-1" d="M183.12,232.47a5,5,0,0,1,1.82,1.83,5,5,0,0,1,0,5,5,5,0,0,1-1.82,1.82,4.83,4.83,0,0,1-2.5.67,4.9,4.9,0,0,1-2.52-.67,5,5,0,0,1-1.82-1.82,5,5,0,0,1,6.84-6.85ZM181.9,239a2.65,2.65,0,0,0,.94-.94,2.5,2.5,0,0,0,.35-1.29,2.52,2.52,0,0,0-.35-1.29,2.67,2.67,0,0,0-.94-1,2.49,2.49,0,0,0-1.28-.35,2.56,2.56,0,0,0-1.3.35,2.59,2.59,0,0,0-.94,1,2.43,2.43,0,0,0-.35,1.29,2.41,2.41,0,0,0,.35,1.29,2.59,2.59,0,0,0,2.24,1.29A2.49,2.49,0,0,0,181.9,239Z"/><path class="cls-1" d="M193.34,233.94H189v1.74h3.5v2.14H189v3.88h-2.52v-9.9h6.89Z"/><path class="cls-1" d="M205.84,231.8v2.52h-2.53v7.38h-2.54v-7.38h-2.53V231.8h7.6Z"/><path class="cls-1" d="M212.17,231.8h2.52v9.9h-2.52V238h-2.83v3.7h-2.52v-9.9h2.52v3.68h2.83Z"/><path class="cls-1" d="M222.54,239.56v2.14h-6.73v-9.9h6.61v2.14h-4.08v1.74h3.43v2.14h-3.43v1.74Z"/><path class="cls-1" d="M228.19,234.94v-.19a.87.87,0,0,0-.35-.69,1.25,1.25,0,0,0-.83-.29,1.33,1.33,0,0,0-.86.29.85.85,0,0,0-.36.69.65.65,0,0,0,.37.61,2.92,2.92,0,0,0,1,.39l.22,0,.24.06a4.74,4.74,0,0,1,2,.82l.13.11a3.09,3.09,0,0,1,.66,1,2.68,2.68,0,0,1,.25,1.12,2.64,2.64,0,0,1-.28,1.2,3,3,0,0,1-.79,1,3.55,3.55,0,0,1-1.17.66A4,4,0,0,1,227,242a3.94,3.94,0,0,1-1.37-.23,3.76,3.76,0,0,1-1.17-.66,3.3,3.3,0,0,1-.8-1,2.78,2.78,0,0,1-.28-1.2v-.18h2.45v.18a.87.87,0,0,0,.35.69,1.24,1.24,0,0,0,.82.29,1.35,1.35,0,0,0,.86-.29.84.84,0,0,0,.35-.69.82.82,0,0,0-.37-.62,2.15,2.15,0,0,0-.4-.21c-.15,0-.33-.11-.54-.16l-.46-.12a11.63,11.63,0,0,1-1.21-.35,2.51,2.51,0,0,1-.8-.47l-.05-.06a3.17,3.17,0,0,1-.74-1,2.65,2.65,0,0,1-.26-1.15,2.78,2.78,0,0,1,.28-1.2,3.38,3.38,0,0,1,.8-1,4,4,0,0,1,1.17-.67,4.19,4.19,0,0,1,1.37-.23,4.24,4.24,0,0,1,1.37.23,3.76,3.76,0,0,1,1.17.67,3.06,3.06,0,0,1,.79,1,2.64,2.64,0,0,1,.28,1.2v.19Z"/><path class="cls-1" d="M238.18,239.56v2.14h-6.73v-9.9h6.61v2.14H234v1.74h3.43v2.14H234v1.74Z"/><path class="cls-1" d="M249.77,232.21a3.16,3.16,0,0,1,1.12,1.12,3.13,3.13,0,0,1,0,3.1,3.16,3.16,0,0,1-1.12,1.12,3.07,3.07,0,0,1-1.55.41h-2.35v3.74H243.5v-9.9h4.72A3.07,3.07,0,0,1,249.77,232.21Zm-1,1.95a1,1,0,0,0-.66-.33h-2.33v2.1h2.33a.93.93,0,0,0,.66-.34,1.08,1.08,0,0,0,.27-.72A1,1,0,0,0,248.8,234.16Z"/><path class="cls-1" d="M254.66,239.32h3.89v2.38h-6.41v-9.9h2.52Z"/><path class="cls-1" d="M264.68,231.9l3.24,9.8h-2.44l-.64-2h-3.07l-.63,2h-2.45l3.25-9.8Zm-2.25,5.75h1.76l-.88-2.77Z"/><path class="cls-1" d="M275.66,231.8v2.52h-2.53v7.38h-2.54v-7.38h-2.53V231.8h7.6Z"/><path class="cls-1" d="M283.53,233.94h-4.37v1.74h3.5v2.14h-3.5v3.88h-2.52v-9.9h6.89Z"/><path class="cls-1" d="M291.61,232.47a5.07,5.07,0,0,1,1.82,1.83,5,5,0,0,1,0,5,5.12,5.12,0,0,1-1.82,1.82,5,5,0,0,1-5,0,5.07,5.07,0,0,1-1.83-1.82,5,5,0,0,1,0-5,5,5,0,0,1,1.83-1.83,5,5,0,0,1,5,0ZM290.39,239a2.73,2.73,0,0,0,.94-.94,2.5,2.5,0,0,0,.35-1.29,2.52,2.52,0,0,0-.35-1.29,2.76,2.76,0,0,0-.94-1,2.5,2.5,0,0,0-1.29-.35,2.56,2.56,0,0,0-1.3.35,2.67,2.67,0,0,0-.94,1,2.52,2.52,0,0,0-.35,1.29,2.5,2.5,0,0,0,.35,1.29,2.65,2.65,0,0,0,.94.94,2.56,2.56,0,0,0,1.3.35A2.5,2.5,0,0,0,290.39,239Z"/><path class="cls-1" d="M303,241.7h-2.54L298.91,238H297.3v3.74h-2.36v-9.9h4.72a3.09,3.09,0,0,1,1.54.41,3,3,0,0,1,1.12,1.13,3,3,0,0,1,.42,1.54,3,3,0,0,1-.38,1.48,3.29,3.29,0,0,1-1,1.11Zm-2.79-7.54a1,1,0,0,0-.66-.33h-2.32v2.1h2.32a1,1,0,0,0,.66-.34,1.08,1.08,0,0,0,0-1.43Z"/><path class="cls-1" d="M311.49,231.8H314v9.9h-2.52v-5.59l-1.24,2.24-.05.11h-2.52l-.07-.11-.17-.32-1.05-1.92v5.59h-2.53v-9.9h2.53l2.55,4.21Z"/><path class="cls-1" d="M319.65,234.94v-.19a.87.87,0,0,0-.35-.69,1.23,1.23,0,0,0-.83-.29,1.35,1.35,0,0,0-.86.29.85.85,0,0,0-.36.69.66.66,0,0,0,.37.61,2.92,2.92,0,0,0,.95.39l.22,0,.24.06a4.74,4.74,0,0,1,2,.82l.13.11a3.09,3.09,0,0,1,.66,1,2.68,2.68,0,0,1,.25,1.12,2.77,2.77,0,0,1-.27,1.2,3.26,3.26,0,0,1-.79,1,3.7,3.7,0,0,1-1.18.66,4,4,0,0,1-1.37.23,3.94,3.94,0,0,1-1.37-.23,3.76,3.76,0,0,1-1.17-.66,3.12,3.12,0,0,1-.79-1,2.64,2.64,0,0,1-.28-1.2v-.18h2.45v.18a.86.86,0,0,0,.34.69,1.24,1.24,0,0,0,.82.29,1.35,1.35,0,0,0,.86-.29.85.85,0,0,0,.36-.69.84.84,0,0,0-.38-.62,2.06,2.06,0,0,0-.39-.21c-.15,0-.34-.11-.55-.16l-.46-.12a11.63,11.63,0,0,1-1.21-.35,2.37,2.37,0,0,1-.79-.47l-.06-.06a3.17,3.17,0,0,1-.74-1,2.74,2.74,0,0,1,0-2.35,3.19,3.19,0,0,1,.79-1,4,4,0,0,1,1.17-.67,4.19,4.19,0,0,1,1.37-.23,4.24,4.24,0,0,1,1.37.23,3.93,3.93,0,0,1,1.18.67,3.34,3.34,0,0,1,.79,1,2.77,2.77,0,0,1,.27,1.2v.19Z"/><path class="cls-1" d="M323,241.29a1.37,1.37,0,0,1-.38-1,1.24,1.24,0,0,1,.38-.91,1.25,1.25,0,0,1,.92-.38,1.33,1.33,0,0,1,1.33,1.33,1.31,1.31,0,0,1-.39.94,1.28,1.28,0,0,1-.94.39A1.22,1.22,0,0,1,323,241.29Z"/><path class="cls-1" d="M37.19,265.37a6.08,6.08,0,0,1,1.49.35,4.22,4.22,0,0,1,1.36.86,4.68,4.68,0,0,1,1.21,1.7,5,5,0,0,1,.43,2,4.76,4.76,0,0,1-.55,2.29,4.54,4.54,0,0,1-1.53,1.75,5.43,5.43,0,0,1-2,.79,15.21,15.21,0,0,1-2.49.19l-1.15,0H32.85v-10h2.53A15.93,15.93,0,0,1,37.19,265.37Zm2.08,4.94a2.55,2.55,0,0,0-.33-1.26,2.65,2.65,0,0,0-.92-1,2.48,2.48,0,0,0-1.27-.38H35.38v5.17a10.73,10.73,0,0,0,1.73-.12,3,3,0,0,0,1.3-.56,2.15,2.15,0,0,0,.79-1.3A2.55,2.55,0,0,0,39.27,270.31Z"/><path class="cls-1" d="M49.25,273.16v2.14H42.52v-9.9h6.61v2.14H45.05v1.74h3.43v2.14H45.05v1.74Z"/><path class="cls-1" d="M56.88,265.37h2.75l-3.24,9.93H53.31l-3.22-9.93h2.78l2,6.19Z"/><path class="cls-1" d="M67.2,273.16v2.14H60.47v-9.9h6.61v2.14H63v1.74h3.43v2.14H63v1.74Z"/><path class="cls-1" d="M70.84,272.92h3.89v2.38H68.32v-9.9h2.52Z"/><path class="cls-1" d="M83,266.07a5,5,0,0,1,1.82,1.83,5,5,0,0,1,0,5A5,5,0,0,1,83,274.74a4.83,4.83,0,0,1-2.5.67,4.9,4.9,0,0,1-2.52-.67,5,5,0,0,1-1.82-1.82A5,5,0,0,1,83,266.07Zm-1.22,6.57a2.57,2.57,0,0,0,.94-.94,2.41,2.41,0,0,0,.35-1.29,2.43,2.43,0,0,0-.35-1.29,2.59,2.59,0,0,0-.94-.95,2.49,2.49,0,0,0-1.28-.35,2.56,2.56,0,0,0-1.3.35,2.59,2.59,0,0,0-.94.95,2.43,2.43,0,0,0-.35,1.29,2.41,2.41,0,0,0,.35,1.29A2.59,2.59,0,0,0,80.45,273,2.49,2.49,0,0,0,81.73,272.64Z"/><path class="cls-1" d="M92.55,265.81a3.16,3.16,0,0,1,1.12,1.12,3.13,3.13,0,0,1,0,3.1,3.16,3.16,0,0,1-1.12,1.12,3.07,3.07,0,0,1-1.55.41H88.65v3.74H86.28v-9.9H91A3.07,3.07,0,0,1,92.55,265.81Zm-1,1.95a1,1,0,0,0-.66-.33H88.59v2.1h2.33a.93.93,0,0,0,.66-.34,1.09,1.09,0,0,0,.28-.72A1,1,0,0,0,91.58,267.76Z"/><path class="cls-1" d="M102.55,265.4h2.52v9.9h-2.52v-5.59L101.32,272l-.06.11H98.74l-.07-.11-.16-.32-1.05-1.92v5.59H94.92v-9.9h2.54l2.54,4.21Z"/><path class="cls-1" d="M112.93,273.16v2.14h-6.74v-9.9h6.61v2.14h-4.07v1.74h3.43v2.14h-3.43v1.74Z"/><path class="cls-1" d="M119.49,265.4H122v9.9h-2.52L116.58,270v5.31h-2.53v-9.9h2.53l2.91,5.31Z"/><path class="cls-1" d="M130.59,265.4v2.52h-2.53v7.38h-2.53v-7.38H123V265.4h7.6Z"/><path class="cls-1" d="M143,266.07a5,5,0,0,1,1.82,1.83,5,5,0,0,1,0,5,5,5,0,0,1-1.82,1.82,4.84,4.84,0,0,1-2.51.67,4.89,4.89,0,0,1-2.51-.67,5,5,0,0,1-1.82-1.82,5,5,0,0,1,6.84-6.85Zm-1.22,6.57a2.57,2.57,0,0,0,.94-.94,2.5,2.5,0,0,0,.35-1.29,2.52,2.52,0,0,0-.35-1.29,2.59,2.59,0,0,0-.94-.95,2.5,2.5,0,0,0-1.29-.35,2.55,2.55,0,0,0-1.29.35,2.7,2.7,0,0,0-1,.95,2.51,2.51,0,0,0-.34,1.29,2.49,2.49,0,0,0,.34,1.29,2.67,2.67,0,0,0,1,.94,2.55,2.55,0,0,0,1.29.35A2.5,2.5,0,0,0,141.79,272.64Z"/><path class="cls-1" d="M153.23,267.54h-4.37v1.74h3.5v2.14h-3.5v3.88h-2.52v-9.9h6.89Z"/><path class="cls-1" d="M164,272.76a2.69,2.69,0,0,0,.84-.56l1.71,1.71a4.91,4.91,0,0,1-3.54,1.47,4.87,4.87,0,0,1-2.51-.67,5,5,0,0,1-1.82-1.82,4.84,4.84,0,0,1-.67-2.51,4.89,4.89,0,0,1,.67-2.51,5.07,5.07,0,0,1,1.82-1.83,5,5,0,0,1,2.51-.67,4.86,4.86,0,0,1,1.93.39,5,5,0,0,1,1.61,1.08l-1.71,1.71A2.66,2.66,0,0,0,164,268a2.41,2.41,0,0,0-1-.21,2.5,2.5,0,0,0-1.29.35,2.76,2.76,0,0,0-.94.95,2.55,2.55,0,0,0-.35,1.29,2.5,2.5,0,0,0,.35,1.29,2.73,2.73,0,0,0,.94.94A2.5,2.5,0,0,0,163,273,2.57,2.57,0,0,0,164,272.76Z"/><path class="cls-1" d="M175.45,275.3h-2.53l-1.57-3.74h-1.61v3.74h-2.37v-9.9h4.72a3.09,3.09,0,0,1,1.54.41,3.14,3.14,0,0,1,1.13,1.13,3.09,3.09,0,0,1,.41,1.54,3,3,0,0,1-.38,1.48,3.19,3.19,0,0,1-1,1.11Zm-2.79-7.54a.92.92,0,0,0-.66-.33h-2.32v2.1H172a1,1,0,0,0,.66-.34,1.08,1.08,0,0,0,0-1.43Z"/><path class="cls-1" d="M183,273.16v2.14h-6.73v-9.9h6.61v2.14h-4.08v1.74h3.43v2.14h-3.43v1.74Z"/><path class="cls-1" d="M189.29,265.5l3.24,9.8h-2.44l-.64-2h-3.07l-.63,2H183.3l3.25-9.8ZM187,271.25h1.76l-.88-2.77Z"/><path class="cls-1" d="M200.27,265.4v2.52h-2.53v7.38H195.2v-7.38h-2.53V265.4h7.6Z"/><path class="cls-1" d="M203.77,265.4v9.9h-2.52v-9.9Z"/><path class="cls-1" d="M211.4,265.37h2.74l-3.23,9.93h-3.08l-3.22-9.93h2.77l2,6.19Z"/><path class="cls-1" d="M221.72,273.16v2.14H215v-9.9h6.61v2.14h-4.07v1.74H221v2.14h-3.43v1.74Z"/><path class="cls-1" d="M232.19,265.5l3.23,9.8H233l-.65-2h-3.06l-.63,2H226.2l3.25-9.8Zm-2.25,5.75h1.76l-.88-2.77Z"/><path class="cls-1" d="M241.15,265.4h2.52v9.9h-2.52L238.24,270v5.31H235.7v-9.9h2.54l2.91,5.31Z"/><path class="cls-1" d="M249.13,265.37a6.08,6.08,0,0,1,1.49.35,4.26,4.26,0,0,1,1.37.86,4.93,4.93,0,0,1,1.21,1.7,5.13,5.13,0,0,1,.42,2,4.87,4.87,0,0,1-.54,2.29,4.48,4.48,0,0,1-1.54,1.75,5.45,5.45,0,0,1-2,.79,15.34,15.34,0,0,1-2.5.19l-1.15,0h-1.09v-10h2.53A15.82,15.82,0,0,1,249.13,265.37Zm2.09,4.94a2.66,2.66,0,0,0-1.26-2.22,2.45,2.45,0,0,0-1.26-.38h-1.38v5.17a10.65,10.65,0,0,0,1.73-.12,3,3,0,0,0,1.31-.56,2.2,2.2,0,0,0,.79-1.3A3.25,3.25,0,0,0,251.22,270.31Z"/><path class="cls-1" d="M266.13,271.12a2.86,2.86,0,0,1,.32,1.32,2.77,2.77,0,0,1-.38,1.42,2.85,2.85,0,0,1-1,1,2.82,2.82,0,0,1-1.43.4h-4.95v-9.91h4.5a2.73,2.73,0,0,1,1.44.39,3,3,0,0,1,1,1,2.84,2.84,0,0,1,.37,1.4,2.78,2.78,0,0,1-.2,1,2.67,2.67,0,0,1-.55.88A2.77,2.77,0,0,1,266.13,271.12Zm-2.62-3.4a1,1,0,0,0-.72-.3H261v2.1h1.82l.34-.06a.72.72,0,0,0,.25-.14,1,1,0,0,0,.32-.38,1,1,0,0,0,.12-.49A1,1,0,0,0,263.51,267.72Zm.42,5.23a1,1,0,0,0,.29-.75,1,1,0,0,0-.24-.66,1,1,0,0,0-.6-.36H261v2.1h2.24A1,1,0,0,0,263.93,273Z"/><path class="cls-1" d="M272.44,265.5l3.23,9.8h-2.43l-.65-2h-3.06l-.63,2h-2.45l3.25-9.8Zm-2.25,5.75H272l-.88-2.77Z"/><path class="cls-1" d="M281.4,265.4h2.52v9.9H281.4L278.49,270v5.31H276v-9.9h2.54l2.91,5.31Z"/><path class="cls-1" d="M290.49,265.4H293v9.9h-2.52L287.57,270v5.31H285v-9.9h2.53l2.92,5.31Z"/><path class="cls-1" d="M300.86,273.16v2.14h-6.73v-9.9h6.6v2.14h-4.07v1.74h3.43v2.14h-3.43v1.74Z"/><path class="cls-1" d="M310.06,275.3h-2.54L306,271.56h-1.61v3.74H302v-9.9h4.72a3.09,3.09,0,0,1,1.54.41,3,3,0,0,1,1.12,1.13,3,3,0,0,1,.42,1.54,3,3,0,0,1-.38,1.48,3.19,3.19,0,0,1-1,1.11Zm-2.79-7.54a.94.94,0,0,0-.66-.33h-2.32v2.1h2.32a1,1,0,0,0,.66-.34,1.08,1.08,0,0,0,0-1.43Z"/><path class="cls-1" d="M315.42,268.54v-.19a.86.86,0,0,0-.34-.69,1.28,1.28,0,0,0-.84-.29,1.35,1.35,0,0,0-.86.29.84.84,0,0,0-.35.69.64.64,0,0,0,.36.61,2.92,2.92,0,0,0,.95.39l.22,0,.24.06a4.86,4.86,0,0,1,2,.82l.12.11a3.3,3.3,0,0,1,.67,1,2.82,2.82,0,0,1,.24,1.12,2.77,2.77,0,0,1-.27,1.2,3.12,3.12,0,0,1-.79,1,3.7,3.7,0,0,1-1.18.66,4.2,4.2,0,0,1-2.74,0,3.6,3.6,0,0,1-1.16-.66,3,3,0,0,1-.8-1,2.64,2.64,0,0,1-.28-1.2v-.18h2.45v.18a.86.86,0,0,0,.34.69,1.24,1.24,0,0,0,.82.29,1.33,1.33,0,0,0,.86-.29.85.85,0,0,0,.36-.69.84.84,0,0,0-.38-.62,1.79,1.79,0,0,0-.39-.21,5.55,5.55,0,0,0-.55-.16l-.46-.12a11.32,11.32,0,0,1-1.2-.35,2.41,2.41,0,0,1-.8-.47l-.06-.06a3,3,0,0,1-.73-1,2.52,2.52,0,0,1-.26-1.15,2.64,2.64,0,0,1,.28-1.2,3.09,3.09,0,0,1,.8-1,3.83,3.83,0,0,1,1.16-.67,4.2,4.2,0,0,1,2.74,0,3.93,3.93,0,0,1,1.18.67,3.19,3.19,0,0,1,.79,1,2.77,2.77,0,0,1,.27,1.2v.19Z"/><path class="cls-1" d="M328,265.5l3.24,9.8h-2.44l-.64-2h-3.07l-.63,2H322l3.25-9.8Zm-2.25,5.75h1.76l-.88-2.77Z"/><path class="cls-1" d="M339.63,275.3h-2.54l-1.57-3.74h-1.61v3.74h-2.36v-9.9h4.72a3.09,3.09,0,0,1,1.54.41,3,3,0,0,1,1.12,1.13,3,3,0,0,1,.42,1.54A3,3,0,0,1,339,270a3.19,3.19,0,0,1-1,1.11Zm-2.79-7.54a1,1,0,0,0-.66-.33h-2.32v2.1h2.32a1,1,0,0,0,.66-.34,1.08,1.08,0,0,0,0-1.43Z"/><path class="cls-1" d="M347.2,273.16v2.14h-6.73v-9.9h6.6v2.14H343v1.74h3.43v2.14H343v1.74Z"/><path class="cls-1" d="M35.37,282.2v9.9H32.85v-9.9Z"/><path class="cls-1" d="M41.93,282.2h2.52v9.9H41.93L39,286.79v5.31H36.49v-9.9H39l2.91,5.31Z"/><path class="cls-1" d="M51.28,289.56a2.69,2.69,0,0,0,.84-.56l1.71,1.71a4.93,4.93,0,0,1-1.61,1.09,5,5,0,0,1-1.93.38,4.87,4.87,0,0,1-2.51-.67A5,5,0,0,1,46,289.69a5,5,0,0,1,0-5,5.07,5.07,0,0,1,1.82-1.83,5,5,0,0,1,2.51-.67,4.82,4.82,0,0,1,1.93.39,4.91,4.91,0,0,1,1.61,1.08l-1.71,1.71a2.66,2.66,0,0,0-.84-.55,2.38,2.38,0,0,0-1-.21,2.5,2.5,0,0,0-1.29.35,2.76,2.76,0,0,0-.94.95,2.55,2.55,0,0,0-.35,1.29,2.5,2.5,0,0,0,.35,1.29,2.73,2.73,0,0,0,.94.94,2.5,2.5,0,0,0,1.29.35A2.54,2.54,0,0,0,51.28,289.56Z"/><path class="cls-1" d="M57.19,289.72h3.89v2.38H54.67v-9.9h2.52Z"/><path class="cls-1" d="M70.11,282.21v6.12a3.81,3.81,0,0,1-.52,2,3.9,3.9,0,0,1-1.43,1.42,3.85,3.85,0,0,1-2,.53H66a3.82,3.82,0,0,1-2-.53,3.87,3.87,0,0,1-1.42-1.42,3.82,3.82,0,0,1-.53-2v-6.12H64.4v5.56a2.36,2.36,0,0,0,.42,1.44,1.34,1.34,0,0,0,1.15.58h.22a1.41,1.41,0,0,0,1.15-.58,2.35,2.35,0,0,0,.44-1.44v-5.56Z"/><path class="cls-1" d="M75.57,282.17a6.05,6.05,0,0,1,1.5.35,4.22,4.22,0,0,1,1.36.86,4.8,4.8,0,0,1,1.21,1.7,5,5,0,0,1,.43,2,4.78,4.78,0,0,1-.55,2.29A4.54,4.54,0,0,1,78,291.15a5.43,5.43,0,0,1-2,.79,15.24,15.24,0,0,1-2.5.19l-1.14,0h-1.1v-10h2.54A15.63,15.63,0,0,1,75.57,282.17Zm2.09,4.94a2.46,2.46,0,0,0-.34-1.26,2.62,2.62,0,0,0-.91-1,2.48,2.48,0,0,0-1.27-.38H73.77v5.17a10.73,10.73,0,0,0,1.73-.12,3,3,0,0,0,1.3-.56,2.18,2.18,0,0,0,.79-1.3A2.55,2.55,0,0,0,77.66,287.11Z"/><path class="cls-1" d="M87.64,290v2.14H80.91v-9.9h6.61v2.14H83.44v1.74h3.43v2.14H83.44V290Z"/><path class="cls-1" d="M93.1,282.17a6,6,0,0,1,1.49.35,4.26,4.26,0,0,1,1.37.86,4.93,4.93,0,0,1,1.21,1.7,5.14,5.14,0,0,1,.43,2,4.9,4.9,0,0,1-.55,2.29,4.54,4.54,0,0,1-1.53,1.75,5.5,5.5,0,0,1-2,.79,15.24,15.24,0,0,1-2.5.19l-1.15,0H88.76v-10H91.3A15.63,15.63,0,0,1,93.1,282.17Zm2.09,4.94a2.46,2.46,0,0,0-.34-1.26,2.62,2.62,0,0,0-.91-1,2.48,2.48,0,0,0-1.27-.38H91.3v5.17a10.82,10.82,0,0,0,1.73-.12,3,3,0,0,0,1.3-.56,2.23,2.23,0,0,0,.79-1.3A2.55,2.55,0,0,0,95.19,287.11Z"/><path class="cls-1" d="M98.53,291.69a1.36,1.36,0,0,1-.37-1,1.2,1.2,0,0,1,.38-.91,1.24,1.24,0,0,1,.92-.38,1.31,1.31,0,0,1,.94.39,1.28,1.28,0,0,1,.39.94,1.33,1.33,0,0,1-1.33,1.33A1.24,1.24,0,0,1,98.53,291.69Z"/><path class="cls-1" d="M110.35,285.34v-.19a.86.86,0,0,0-.34-.69,1.28,1.28,0,0,0-.84-.29,1.35,1.35,0,0,0-.86.29.87.87,0,0,0-.35.69.65.65,0,0,0,.36.61,2.92,2.92,0,0,0,1,.39l.22,0,.24.06a4.86,4.86,0,0,1,2,.82l.12.11a3.3,3.3,0,0,1,.67,1,2.82,2.82,0,0,1,.24,1.12,2.77,2.77,0,0,1-.27,1.2,3.12,3.12,0,0,1-.79,1,3.7,3.7,0,0,1-1.18.66,4.2,4.2,0,0,1-2.74,0,3.6,3.6,0,0,1-1.16-.66,3,3,0,0,1-.8-1,2.64,2.64,0,0,1-.28-1.2v-.18H108v.18a.86.86,0,0,0,.34.69,1.24,1.24,0,0,0,.82.29A1.33,1.33,0,0,0,110,290a.85.85,0,0,0,.36-.69.84.84,0,0,0-.38-.62,1.79,1.79,0,0,0-.39-.21,5.55,5.55,0,0,0-.55-.16l-.46-.12a11.32,11.32,0,0,1-1.2-.35,2.41,2.41,0,0,1-.8-.47l-.06-.06a3,3,0,0,1-.73-1,2.52,2.52,0,0,1-.26-1.15,2.64,2.64,0,0,1,.28-1.2,3.09,3.09,0,0,1,.8-1,3.83,3.83,0,0,1,1.16-.67,4.2,4.2,0,0,1,2.74,0,3.93,3.93,0,0,1,1.18.67,3.19,3.19,0,0,1,.79,1,2.77,2.77,0,0,1,.27,1.2v.19Z"/><path class="cls-1" d="M121.07,282.2v2.52h-2.53v7.38H116v-7.38h-2.54V282.2h7.6Z"/><path class="cls-1" d="M127.21,282.3l3.23,9.8H128l-.64-2h-3.07l-.63,2h-2.45l3.25-9.8ZM125,288.05h1.77l-.89-2.77Z"/><path class="cls-1" d="M138.18,282.2v2.52h-2.53v7.38h-2.54v-7.38h-2.53V282.2h7.6Z"/><path class="cls-1" d="M141.68,282.2v9.9h-2.52v-9.9Z"/><path class="cls-1" d="M148.51,289.56a2.69,2.69,0,0,0,.84-.56l1.71,1.71a4.91,4.91,0,0,1-3.54,1.47,4.87,4.87,0,0,1-2.51-.67,5,5,0,0,1-1.82-1.82,5,5,0,0,1,0-5,5.07,5.07,0,0,1,1.82-1.83,5,5,0,0,1,2.51-.67,4.86,4.86,0,0,1,1.93.39,5,5,0,0,1,1.61,1.08l-1.71,1.71a2.66,2.66,0,0,0-.84-.55,2.38,2.38,0,0,0-1-.21,2.5,2.5,0,0,0-1.29.35,2.76,2.76,0,0,0-.94.95,2.55,2.55,0,0,0-.35,1.29,2.5,2.5,0,0,0,.35,1.29,2.73,2.73,0,0,0,.94.94,2.5,2.5,0,0,0,1.29.35A2.54,2.54,0,0,0,148.51,289.56Z"/><path class="cls-1" d="M161.25,282.3l3.24,9.8h-2.44l-.64-2h-3.07l-.63,2h-2.45l3.25-9.8ZM159,288.05h1.76l-.88-2.77Z"/><path class="cls-1" d="M170.21,282.2h2.52v9.9h-2.52l-2.91-5.31v5.31h-2.53v-9.9h2.53l2.91,5.31Z"/><path class="cls-1" d="M178.19,282.17a6,6,0,0,1,1.49.35,4.26,4.26,0,0,1,1.37.86,4.8,4.8,0,0,1,1.21,1.7,5.14,5.14,0,0,1,.43,2,4.78,4.78,0,0,1-.55,2.29,4.54,4.54,0,0,1-1.53,1.75,5.43,5.43,0,0,1-2,.79,15.24,15.24,0,0,1-2.5.19l-1.14,0h-1.1v-10h2.54A15.63,15.63,0,0,1,178.19,282.17Zm2.09,4.94a2.46,2.46,0,0,0-.34-1.26,2.62,2.62,0,0,0-.91-1,2.48,2.48,0,0,0-1.27-.38h-1.37v5.17a10.73,10.73,0,0,0,1.73-.12,3,3,0,0,0,1.3-.56,2.18,2.18,0,0,0,.79-1.3A2.55,2.55,0,0,0,180.28,287.11Z"/><path class="cls-1" d="M195.36,282.2h2.52v9.9h-2.52v-5.59l-1.23,2.24-.06.11h-2.52l-.07-.11-.17-.32-1.05-1.92v5.59h-2.53v-9.9h2.53l2.55,4.21Z"/><path class="cls-1" d="M206.24,282.87a5.07,5.07,0,0,1,1.82,1.83,5,5,0,0,1,0,5,5.12,5.12,0,0,1-1.82,1.82,5,5,0,0,1-5,0,5.07,5.07,0,0,1-1.83-1.82,5,5,0,0,1,0-5,5,5,0,0,1,1.83-1.83,5,5,0,0,1,5,0ZM205,289.44a2.73,2.73,0,0,0,.94-.94,2.5,2.5,0,0,0,.35-1.29,2.52,2.52,0,0,0-.35-1.29A2.76,2.76,0,0,0,205,285a2.5,2.5,0,0,0-1.29-.35,2.56,2.56,0,0,0-1.3.35,2.67,2.67,0,0,0-.94.95,2.52,2.52,0,0,0-.35,1.29,2.5,2.5,0,0,0,.35,1.29,2.65,2.65,0,0,0,.94.94,2.56,2.56,0,0,0,1.3.35A2.5,2.5,0,0,0,205,289.44Z"/><path class="cls-1" d="M217,282.2v2.52H214.5v7.38H212v-7.38h-2.53V282.2H217Z"/><path class="cls-1" d="M220.53,282.2v9.9H218v-9.9Z"/><path class="cls-1" d="M228.89,282.87a5.07,5.07,0,0,1,1.82,1.83,5,5,0,0,1,0,5,5.12,5.12,0,0,1-1.82,1.82,5,5,0,0,1-5,0,5.07,5.07,0,0,1-1.83-1.82,5,5,0,0,1,0-5,5,5,0,0,1,1.83-1.83,5,5,0,0,1,5,0Zm-1.22,6.57a2.73,2.73,0,0,0,.94-.94,2.5,2.5,0,0,0,.35-1.29,2.52,2.52,0,0,0-.35-1.29,2.76,2.76,0,0,0-.94-.95,2.55,2.55,0,0,0-2.58,0,2.62,2.62,0,0,0-1,.95,2.52,2.52,0,0,0-.35,1.29,2.5,2.5,0,0,0,.35,1.29,2.6,2.6,0,0,0,1,.94,2.55,2.55,0,0,0,2.58,0Z"/><path class="cls-1" d="M237.67,282.2h2.51v9.9h-2.51l-2.92-5.31v5.31h-2.53v-9.9h2.53l2.92,5.31Z"/><path class="cls-1" d="M252.39,284.34H248v1.74h3.5v2.14H248v3.88H245.5v-9.9h6.89Z"/><path class="cls-1" d="M260.47,282.87a5,5,0,0,1,1.82,1.83,5,5,0,0,1,0,5,5,5,0,0,1-1.82,1.82,4.84,4.84,0,0,1-2.51.67,4.89,4.89,0,0,1-2.51-.67,5,5,0,0,1-1.82-1.82,5,5,0,0,1,6.84-6.85Zm-1.22,6.57a2.65,2.65,0,0,0,.94-.94,2.5,2.5,0,0,0,.35-1.29,2.52,2.52,0,0,0-.35-1.29,2.67,2.67,0,0,0-.94-.95,2.5,2.5,0,0,0-1.29-.35,2.55,2.55,0,0,0-1.29.35,2.7,2.7,0,0,0-1,.95,2.51,2.51,0,0,0-.34,1.29,2.49,2.49,0,0,0,.34,1.29,2.67,2.67,0,0,0,1,.94,2.55,2.55,0,0,0,1.29.35A2.5,2.5,0,0,0,259.25,289.44Z"/><path class="cls-1" d="M271.88,292.1h-2.53l-1.57-3.74h-1.61v3.74H263.8v-9.9h4.72a3.07,3.07,0,0,1,3.08,3.08,3,3,0,0,1-.38,1.48,3.19,3.19,0,0,1-1,1.11Zm-2.79-7.54a.92.92,0,0,0-.65-.33h-2.33v2.1h2.33a1,1,0,0,0,.65-.34,1.08,1.08,0,0,0,0-1.43Z"/><path class="cls-1" d="M280.35,282.2h2.52v9.9h-2.52v-5.59l-1.23,2.24-.06.11h-2.52l-.07-.11-.17-.32-1.05-1.92v5.59h-2.53v-9.9h2.53l2.55,4.21Z"/><path class="cls-1" d="M289.14,282.3l3.24,9.8h-2.44l-.64-2h-3.07l-.63,2h-2.45l3.25-9.8Zm-2.25,5.75h1.76l-.88-2.77Z"/><path class="cls-1" d="M300.12,282.2v2.52h-2.54v7.38h-2.53v-7.38h-2.53V282.2h7.6Z"/><path class="cls-2" d="M44.12,42.6h3.12V56.74h-3.6l-3.64-6-3.66,6h-3.6V42.6h3.6v8l1.76-3.2.1-.16h3.6l.08.16,1.76,3.2v-8Z"/><path class="cls-2" d="M56.48,42.6h3.6V56.74h-3.6V51.46h-4v5.28h-3.6V42.6h3.6v5.26h4Z"/><path class="cls-2" d="M69,42.74l4.62,14H70.18l-.92-2.86H64.88L64,56.74h-3.5l4.64-14ZM65.82,51h2.52l-1.26-4Z"/><path class="cls-2" d="M84.72,42.6v3.6H81.1V56.74H77.48V46.2H73.86V42.6H84.72Z"/><path class="cls-2" d="M95.72,42.6V56.74h-3.6V42.6Z"/><path class="cls-2" d="M103.78,47.08v-.26a1.23,1.23,0,0,0-.49-1,1.76,1.76,0,0,0-1.19-.41,1.87,1.87,0,0,0-1.23.41,1.22,1.22,0,0,0-.51,1,.92.92,0,0,0,.52.86,4.6,4.6,0,0,0,1.36.56l.31.06.35.08a6.82,6.82,0,0,1,2.86,1.18l.18.16a4.1,4.1,0,0,1,1,1.38,3.91,3.91,0,0,1,0,3.32,4.6,4.6,0,0,1-1.13,1.46,5.34,5.34,0,0,1-1.68.95,5.89,5.89,0,0,1-2,.33,5.79,5.79,0,0,1-2-.33,5.41,5.41,0,0,1-1.67-.95,4.79,4.79,0,0,1-1.14-1.46,3.84,3.84,0,0,1-.4-1.72v-.26h3.5v.26a1.26,1.26,0,0,0,.49,1,1.79,1.79,0,0,0,1.17.41,1.92,1.92,0,0,0,1.23-.41,1.25,1.25,0,0,0,.51-1,1.15,1.15,0,0,0-.54-.88,2.29,2.29,0,0,0-.56-.3,7.5,7.5,0,0,0-.78-.24l-.66-.16c-.73-.19-1.31-.36-1.72-.5a3.71,3.71,0,0,1-1.14-.68l-.08-.08a4.68,4.68,0,0,1-1-1.4,3.74,3.74,0,0,1-.37-1.64,3.81,3.81,0,0,1,.4-1.72,4.56,4.56,0,0,1,1.14-1.46,5.21,5.21,0,0,1,1.67-1,5.79,5.79,0,0,1,2-.33,5.89,5.89,0,0,1,2,.33,5.15,5.15,0,0,1,1.68,1,4.39,4.39,0,0,1,1.13,1.46,3.94,3.94,0,0,1,.39,1.72v.26Z"/><path class="cls-2" d="M118,42.6V56.74h-3.6V42.6Z"/><path class="cls-2" d="M127.42,42.6H131V56.74h-3.6l-4.16-7.58v7.58h-3.62V42.6h3.62l4.16,7.58Z"/><path class="cls-2" d="M140.78,53.11a4.24,4.24,0,0,0,1.2-.79l2.44,2.44a7.35,7.35,0,0,1-2.3,1.55,7.15,7.15,0,0,1-2.76.55,7,7,0,0,1-3.58-1,7.2,7.2,0,0,1-2.6-2.6,7.17,7.17,0,0,1,0-7.17,7.15,7.15,0,0,1,2.6-2.61,7.13,7.13,0,0,1,8.64,1.14L142,47.1a3.85,3.85,0,0,0-1.2-.79,3.63,3.63,0,0,0-3.26.21,3.69,3.69,0,0,0-1.34,1.35,3.65,3.65,0,0,0,0,3.69,3.82,3.82,0,0,0,1.34,1.34,3.55,3.55,0,0,0,1.84.5A3.64,3.64,0,0,0,140.78,53.11Z"/><path class="cls-2" d="M149.22,53.34h5.56v3.4h-9.16V42.6h3.6Z"/><path class="cls-2" d="M167.68,42.62v8.74a5.47,5.47,0,0,1-.75,2.8,5.59,5.59,0,0,1-2,2,5.5,5.5,0,0,1-2.81.75h-.32a5.44,5.44,0,0,1-2.8-.75,5.64,5.64,0,0,1-2-2,5.47,5.47,0,0,1-.75-2.8V42.62h3.34v7.94a3.42,3.42,0,0,0,.6,2.06,1.94,1.94,0,0,0,1.64.82h.32a2,2,0,0,0,1.63-.83,3.31,3.31,0,0,0,.63-2V42.62Z"/><path class="cls-2" d="M175.48,42.55a8.07,8.07,0,0,1,2.13.51,6,6,0,0,1,1.95,1.22,7,7,0,0,1,1.73,2.43,7.2,7.2,0,0,1,.61,2.91,6.91,6.91,0,0,1-.78,3.26,6.48,6.48,0,0,1-2.19,2.5,7.78,7.78,0,0,1-2.88,1.13,20.94,20.94,0,0,1-3.57.27l-1.64,0c-.35,0-.87,0-1.56,0V42.44h3.62A24.06,24.06,0,0,1,175.48,42.55Zm3,7.07a3.61,3.61,0,0,0-.48-1.81,3.74,3.74,0,0,0-1.31-1.37,3.42,3.42,0,0,0-1.81-.54h-2v7.38a15.85,15.85,0,0,0,2.47-.17,4.29,4.29,0,0,0,1.86-.79,3.2,3.2,0,0,0,1.13-1.86A3.82,3.82,0,0,0,178.46,49.62Z"/><path class="cls-2" d="M192.72,53.68v3.06H183.1V42.6h9.44v3.06h-5.82v2.48h4.9V51.2h-4.9v2.48Z"/><path class="cls-2" d="M200.52,42.55a8.07,8.07,0,0,1,2.13.51,6,6,0,0,1,1.95,1.22,7,7,0,0,1,1.73,2.43,7.2,7.2,0,0,1,.61,2.91,6.91,6.91,0,0,1-.78,3.26,6.48,6.48,0,0,1-2.19,2.5,7.78,7.78,0,0,1-2.88,1.13,20.94,20.94,0,0,1-3.57.27l-1.64,0c-.35,0-.87,0-1.56,0V42.44h3.62A24.06,24.06,0,0,1,200.52,42.55Zm3,7.07a3.61,3.61,0,0,0-.48-1.81,3.74,3.74,0,0,0-1.31-1.37,3.42,3.42,0,0,0-1.81-.54h-2v7.38a15.85,15.85,0,0,0,2.47-.17,4.29,4.29,0,0,0,1.86-.79,3.2,3.2,0,0,0,1.13-1.86A3.82,3.82,0,0,0,203.5,49.62Z"/><path class="cls-2" d="M36.34,66.6V80.74h-3.6V66.6Z"/><path class="cls-2" d="M45.72,66.6h3.6V80.74h-3.6l-4.16-7.58v7.58H37.94V66.6h3.62l4.16,7.58Z"/><path class="cls-2" d="M67.58,66.6v3.6H64V80.74H60.34V70.2H56.72V66.6H67.58Z"/><path class="cls-2" d="M76.62,66.6h3.6V80.74h-3.6V75.46h-4v5.28H69V66.6h3.6v5.26h4Z"/><path class="cls-2" d="M91.44,77.68v3.06H81.82V66.6h9.44v3.06H85.44v2.48h4.9V75.2h-4.9v2.48Z"/><path class="cls-2" d="M105.5,71.08v-.26a1.23,1.23,0,0,0-.49-1,1.76,1.76,0,0,0-1.19-.41,1.87,1.87,0,0,0-1.23.41,1.22,1.22,0,0,0-.51,1,.92.92,0,0,0,.52.86,4.6,4.6,0,0,0,1.36.56l.31.06.35.08a6.82,6.82,0,0,1,2.86,1.18l.18.16a4.1,4.1,0,0,1,1,1.38,3.91,3.91,0,0,1,0,3.32,4.6,4.6,0,0,1-1.13,1.46,5.34,5.34,0,0,1-1.68,1,5.89,5.89,0,0,1-2,.33,5.79,5.79,0,0,1-2-.33,5.41,5.41,0,0,1-1.67-1A4.79,4.79,0,0,1,99,78.42a3.84,3.84,0,0,1-.4-1.72v-.26h3.5v.26a1.26,1.26,0,0,0,.49,1,1.79,1.79,0,0,0,1.17.41,1.92,1.92,0,0,0,1.23-.41,1.25,1.25,0,0,0,.51-1,1.15,1.15,0,0,0-.54-.88,2.29,2.29,0,0,0-.56-.3,7.5,7.5,0,0,0-.78-.24l-.66-.16c-.73-.19-1.31-.36-1.72-.5a3.71,3.71,0,0,1-1.14-.68l-.08-.08a4.68,4.68,0,0,1-1-1.4,3.74,3.74,0,0,1-.37-1.64A3.81,3.81,0,0,1,99,69.1a4.56,4.56,0,0,1,1.14-1.46,5.21,5.21,0,0,1,1.67-1,5.79,5.79,0,0,1,2-.33,5.89,5.89,0,0,1,2,.33,5.15,5.15,0,0,1,1.68,1,4.39,4.39,0,0,1,1.13,1.46,3.94,3.94,0,0,1,.39,1.72v.26Z"/><path class="cls-2" d="M119.78,77.68v3.06h-9.62V66.6h9.44v3.06h-5.82v2.48h4.9V75.2h-4.9v2.48Z"/><path class="cls-2" d="M132.92,80.74H129.3l-2.24-5.34h-2.3v5.34h-3.38V66.6h6.74a4.25,4.25,0,0,1,2.2.59,4.29,4.29,0,0,1,1.61,1.61,4.34,4.34,0,0,1,.59,2.2,4.28,4.28,0,0,1-.54,2.11,4.73,4.73,0,0,1-1.46,1.59Zm-4-10.77a1.3,1.3,0,0,0-.94-.47h-3.32v3H128a1.45,1.45,0,0,0,.94-.49,1.52,1.52,0,0,0,.38-1A1.47,1.47,0,0,0,128.94,70Z"/><path class="cls-2" d="M143.42,66.56h3.92l-4.62,14.18h-4.4l-4.6-14.18h4l2.86,8.84Z"/><path class="cls-2" d="M152.14,66.6V80.74h-3.6V66.6Z"/><path class="cls-2" d="M161.9,77.11a4.24,4.24,0,0,0,1.2-.79l2.44,2.44a7.35,7.35,0,0,1-2.3,1.55,7.15,7.15,0,0,1-2.76.55,7,7,0,0,1-3.58-1,7.2,7.2,0,0,1-2.6-2.6,7.17,7.17,0,0,1,0-7.17,7.15,7.15,0,0,1,2.6-2.61,7.13,7.13,0,0,1,8.64,1.14L163.1,71.1a3.85,3.85,0,0,0-1.2-.79,3.63,3.63,0,0,0-3.26.21,3.69,3.69,0,0,0-1.34,1.35,3.65,3.65,0,0,0,0,3.69,3.82,3.82,0,0,0,1.34,1.34,3.55,3.55,0,0,0,1.84.5A3.64,3.64,0,0,0,161.9,77.11Z"/><path class="cls-2" d="M176.36,77.68v3.06h-9.62V66.6h9.44v3.06h-5.82v2.48h4.9V75.2h-4.9v2.48Z"/><path class="cls-2" d="M178.56,74a1.78,1.78,0,0,1-.5-1.16,1.54,1.54,0,0,1,.46-1.17,1.56,1.56,0,0,1,1.16-.49,1.64,1.64,0,0,1,1.66,1.66,1.56,1.56,0,0,1-.49,1.16,1.62,1.62,0,0,1-1.17.48A1.5,1.5,0,0,1,178.56,74Zm0,6.22a1.78,1.78,0,0,1-.5-1.16,1.54,1.54,0,0,1,.46-1.17,1.56,1.56,0,0,1,1.16-.49,1.64,1.64,0,0,1,1.66,1.66,1.56,1.56,0,0,1-.49,1.16,1.62,1.62,0,0,1-1.17.48A1.5,1.5,0,0,1,178.56,80.26Z"/></svg>