<svg id="Слой_1" data-name="Слой 1" xmlns="http://www.w3.org/2000/svg" viewBox="0 0 405 405"><defs><style>.cls-1{fill:#e7335d;}.cls-2{fill:#fff;}.cls-3{fill:#fed841;}</style></defs><rect class="cls-1" width="405" height="405"/><path class="cls-2" d="M57.08,39v7.92h-8V70.13h-8V46.94h-8V39H57.08Z"/><path class="cls-2" d="M76.35,39.33l10.17,30.8H78.86l-2-6.29H67.2l-2,6.29h-7.7l10.21-30.8ZM69.27,57.41h5.54L72,48.7Z"/><path class="cls-2" d="M112.78,70.13h-8L99.89,58.38H94.83V70.13H87.4V39h14.82a9.69,9.69,0,0,1,8.5,14.32,10.1,10.1,0,0,1-3.22,3.5ZM104,46.43a3,3,0,0,0-2.07-1H94.65V52H102A3.15,3.15,0,0,0,104,50.92a3.45,3.45,0,0,0,0-4.49Z"/><path class="cls-2" d="M146,54.73a15.27,15.27,0,0,1-2.11,7.87,15.59,15.59,0,0,1-5.74,5.72,15.74,15.74,0,0,1-15.78,0,15.69,15.69,0,0,1-5.72-5.72,15.79,15.79,0,0,1,0-15.77,15.74,15.74,0,0,1,5.72-5.74A15.31,15.31,0,0,1,130.25,39a15.56,15.56,0,0,1,11.18,4.66l-7.09,4a8.08,8.08,0,0,0-8.14,0,8.31,8.31,0,0,0-3,3,7.92,7.92,0,0,0-1.1,4.07,7.82,7.82,0,0,0,1.1,4.05,8.39,8.39,0,0,0,3,2.94,7.73,7.73,0,0,0,4,1.1,7.86,7.86,0,0,0,4.27-1.21,8.16,8.16,0,0,0,3-3.23h-9.77v-7.3h17.82A16.46,16.46,0,0,1,146,54.73Z"/><path class="cls-2" d="M169.81,63.4v6.73H148.64V39h20.77v6.73h-12.8v5.46h10.78v6.73H156.61V63.4Z"/><path class="cls-2" d="M196.78,39v7.92h-8V70.13h-8V46.94h-8V39h23.89Z"/><path class="cls-2" d="M207.78,39V70.13h-7.92V39Z"/><path class="cls-2" d="M228.41,39h7.92V70.13h-7.92l-9.15-16.68V70.13h-8V39h8l9.15,16.68Z"/><path class="cls-2" d="M270.43,54.73a15.27,15.27,0,0,1-2.11,7.87,15.59,15.59,0,0,1-5.74,5.72,15.72,15.72,0,0,1-21.49-21.49,15.59,15.59,0,0,1,5.72-5.74A15.27,15.27,0,0,1,254.68,39a15.56,15.56,0,0,1,11.18,4.66l-7.09,4a8.08,8.08,0,0,0-8.14,0,8.21,8.21,0,0,0-2.94,3,7.82,7.82,0,0,0-1.1,4.07,7.73,7.73,0,0,0,1.1,4.05,8.28,8.28,0,0,0,2.94,2.94,7.73,7.73,0,0,0,4.05,1.1A7.86,7.86,0,0,0,259,61.61a8.16,8.16,0,0,0,3-3.23h-9.77v-7.3H270A16.46,16.46,0,0,1,270.43,54.73Z"/><path class="cls-2" d="M164.42,142.58a11,11,0,1,0-11.89,0,16.7,16.7,0,0,0-10.71,15.56,5.42,5.42,0,0,0,5.42,5.42h22.47a5.43,5.43,0,0,0,5.42-5.42A16.7,16.7,0,0,0,164.42,142.58Zm-14.13-9.28a8.19,8.19,0,1,1,8.18,8.19A8.19,8.19,0,0,1,150.29,133.3Z"/><path class="cls-2" d="M150.29,133.3a8.19,8.19,0,1,1,8.18,8.19A8.19,8.19,0,0,1,150.29,133.3Z"/><path class="cls-2" d="M120.45,142.58a11,11,0,1,0-11.89,0,16.7,16.7,0,0,0-10.71,15.56,5.43,5.43,0,0,0,5.42,5.42h22.47a5.42,5.42,0,0,0,5.42-5.42A16.7,16.7,0,0,0,120.45,142.58Zm-14.13-9.28a8.19,8.19,0,1,1,8.19,8.19A8.19,8.19,0,0,1,106.32,133.3Z"/><path class="cls-2" d="M106.32,133.3a8.19,8.19,0,1,1,8.19,8.19A8.19,8.19,0,0,1,106.32,133.3Z"/><path class="cls-2" d="M76.48,142.58a11,11,0,1,0-11.88,0,16.69,16.69,0,0,0-10.72,15.56,5.43,5.43,0,0,0,5.43,5.42H81.77a5.42,5.42,0,0,0,5.42-5.42A16.7,16.7,0,0,0,76.48,142.58ZM62.35,133.3a8.19,8.19,0,1,1,8.19,8.19A8.19,8.19,0,0,1,62.35,133.3Z"/><path class="cls-2" d="M62.35,133.3a8.19,8.19,0,1,1,8.19,8.19A8.19,8.19,0,0,1,62.35,133.3Z"/><path class="cls-2" d="M208.38,142.58a11,11,0,1,0-11.88,0,16.7,16.7,0,0,0-10.71,15.56,5.42,5.42,0,0,0,5.42,5.42h22.46a5.42,5.42,0,0,0,5.42-5.42A16.68,16.68,0,0,0,208.38,142.58Zm-14.12-9.28a8.19,8.19,0,1,1,8.18,8.19A8.19,8.19,0,0,1,194.26,133.3Z"/><path class="cls-2" d="M194.26,133.3a8.19,8.19,0,1,1,8.18,8.19A8.19,8.19,0,0,1,194.26,133.3Z"/><path class="cls-2" d="M252.35,142.58a11,11,0,1,0-11.88,0,16.68,16.68,0,0,0-10.71,15.56,5.42,5.42,0,0,0,5.42,5.42h22.46a5.42,5.42,0,0,0,5.42-5.42A16.68,16.68,0,0,0,252.35,142.58Zm-14.13-9.28a8.19,8.19,0,1,1,8.19,8.19A8.2,8.2,0,0,1,238.22,133.3Z"/><path class="cls-2" d="M238.22,133.3a8.19,8.19,0,1,1,8.19,8.19A8.2,8.2,0,0,1,238.22,133.3Z"/><path class="cls-2" d="M296.32,142.58a11,11,0,1,0-11.88,0,16.68,16.68,0,0,0-10.71,15.56,5.42,5.42,0,0,0,5.42,5.42h22.46a5.42,5.42,0,0,0,5.42-5.42A16.68,16.68,0,0,0,296.32,142.58Zm-14.13-9.28a8.19,8.19,0,1,1,8.19,8.19A8.2,8.2,0,0,1,282.19,133.3Z"/><path class="cls-2" d="M282.19,133.3a8.19,8.19,0,1,1,8.19,8.19A8.2,8.2,0,0,1,282.19,133.3Z"/><path class="cls-2" d="M340.29,142.58a11,11,0,1,0-11.88,0,16.68,16.68,0,0,0-10.71,15.56,5.42,5.42,0,0,0,5.42,5.42h22.46a5.42,5.42,0,0,0,5.42-5.42A16.7,16.7,0,0,0,340.29,142.58Zm-14.13-9.28a8.19,8.19,0,1,1,8.19,8.19A8.19,8.19,0,0,1,326.16,133.3Z"/><path class="cls-2" d="M326.16,133.3a8.19,8.19,0,1,1,8.19,8.19A8.19,8.19,0,0,1,326.16,133.3Z"/><path class="cls-2" d="M164.42,243.52a11,11,0,1,0-11.89,0,16.7,16.7,0,0,0-10.71,15.56,5.43,5.43,0,0,0,5.42,5.42h22.47a5.44,5.44,0,0,0,5.42-5.42A16.7,16.7,0,0,0,164.42,243.52Zm-14.13-9.28a8.19,8.19,0,1,1,8.18,8.18A8.19,8.19,0,0,1,150.29,234.24Z"/><path class="cls-2" d="M150.29,234.24a8.19,8.19,0,1,1,8.18,8.18A8.19,8.19,0,0,1,150.29,234.24Z"/><path class="cls-2" d="M120.45,243.52a11,11,0,1,0-11.89,0,16.7,16.7,0,0,0-10.71,15.56,5.44,5.44,0,0,0,5.42,5.42h22.47a5.43,5.43,0,0,0,5.42-5.42A16.7,16.7,0,0,0,120.45,243.52Zm-14.13-9.28a8.19,8.19,0,1,1,8.19,8.18A8.19,8.19,0,0,1,106.32,234.24Z"/><path class="cls-2" d="M106.32,234.24a8.19,8.19,0,1,1,8.19,8.18A8.19,8.19,0,0,1,106.32,234.24Z"/><path class="cls-2" d="M76.48,243.52a11,11,0,1,0-11.88,0,16.69,16.69,0,0,0-10.72,15.56,5.44,5.44,0,0,0,5.43,5.42H81.77a5.43,5.43,0,0,0,5.42-5.42A16.7,16.7,0,0,0,76.48,243.52Zm-14.13-9.28a8.19,8.19,0,1,1,8.19,8.18A8.19,8.19,0,0,1,62.35,234.24Z"/><path class="cls-2" d="M62.35,234.24a8.19,8.19,0,1,1,8.19,8.18A8.19,8.19,0,0,1,62.35,234.24Z"/><path class="cls-2" d="M208.38,243.52a11,11,0,1,0-11.88,0,16.7,16.7,0,0,0-10.71,15.56,5.43,5.43,0,0,0,5.42,5.42h22.46a5.43,5.43,0,0,0,5.42-5.42A16.68,16.68,0,0,0,208.38,243.52Zm-14.12-9.28a8.19,8.19,0,1,1,8.18,8.18A8.19,8.19,0,0,1,194.26,234.24Z"/><path class="cls-2" d="M194.26,234.24a8.19,8.19,0,1,1,8.18,8.18A8.19,8.19,0,0,1,194.26,234.24Z"/><path class="cls-2" d="M252.35,243.52a11,11,0,1,0-11.88,0,16.68,16.68,0,0,0-10.71,15.56,5.43,5.43,0,0,0,5.42,5.42h22.46a5.43,5.43,0,0,0,5.42-5.42A16.68,16.68,0,0,0,252.35,243.52Zm-14.13-9.28a8.19,8.19,0,1,1,8.19,8.18A8.2,8.2,0,0,1,238.22,234.24Z"/><path class="cls-2" d="M238.22,234.24a8.19,8.19,0,1,1,8.19,8.18A8.2,8.2,0,0,1,238.22,234.24Z"/><path class="cls-2" d="M296.32,243.52a11,11,0,1,0-11.88,0,16.68,16.68,0,0,0-10.71,15.56,5.43,5.43,0,0,0,5.42,5.42h22.46a5.43,5.43,0,0,0,5.42-5.42A16.68,16.68,0,0,0,296.32,243.52Zm-14.13-9.28a8.19,8.19,0,1,1,8.19,8.18A8.2,8.2,0,0,1,282.19,234.24Z"/><path class="cls-2" d="M282.19,234.24a8.19,8.19,0,1,1,8.19,8.18A8.2,8.2,0,0,1,282.19,234.24Z"/><path class="cls-2" d="M340.29,243.52a11,11,0,1,0-11.88,0,16.68,16.68,0,0,0-10.71,15.56,5.43,5.43,0,0,0,5.42,5.42h22.46a5.43,5.43,0,0,0,5.42-5.42A16.7,16.7,0,0,0,340.29,243.52Zm-14.13-9.28a8.19,8.19,0,1,1,8.19,8.18A8.19,8.19,0,0,1,326.16,234.24Z"/><path class="cls-2" d="M326.16,234.24a8.19,8.19,0,1,1,8.19,8.18A8.19,8.19,0,0,1,326.16,234.24Z"/><path class="cls-2" d="M120.45,193.05a11,11,0,1,0-11.89,0,16.7,16.7,0,0,0-10.71,15.56,5.43,5.43,0,0,0,5.42,5.42h22.47a5.42,5.42,0,0,0,5.42-5.42A16.7,16.7,0,0,0,120.45,193.05Zm-14.13-9.28a8.19,8.19,0,1,1,8.19,8.18A8.19,8.19,0,0,1,106.32,183.77Z"/><path class="cls-2" d="M106.32,183.77a8.19,8.19,0,1,1,8.19,8.18A8.19,8.19,0,0,1,106.32,183.77Z"/><path class="cls-2" d="M76.48,193.05a11,11,0,1,0-11.88,0,16.69,16.69,0,0,0-10.72,15.56A5.43,5.43,0,0,0,59.31,214H81.77a5.42,5.42,0,0,0,5.42-5.42A16.7,16.7,0,0,0,76.48,193.05Zm-14.13-9.28A8.19,8.19,0,1,1,70.54,192,8.19,8.19,0,0,1,62.35,183.77Z"/><path class="cls-2" d="M62.35,183.77A8.19,8.19,0,1,1,70.54,192,8.19,8.19,0,0,1,62.35,183.77Z"/><path class="cls-2" d="M164,193.05a11,11,0,1,0-11.88,0,16.69,16.69,0,0,0-10.72,15.56,5.43,5.43,0,0,0,5.43,5.42H169.3a5.42,5.42,0,0,0,5.42-5.42A16.7,16.7,0,0,0,164,193.05Zm-14.13-9.28a8.19,8.19,0,1,1,8.19,8.18A8.19,8.19,0,0,1,149.88,183.77Z"/><path class="cls-2" d="M149.88,183.77a8.19,8.19,0,1,1,8.19,8.18A8.19,8.19,0,0,1,149.88,183.77Z"/><path class="cls-3" d="M296.32,193.05a11,11,0,1,0-11.88,0,16.68,16.68,0,0,0-10.71,15.56,5.42,5.42,0,0,0,5.42,5.42h22.46a5.42,5.42,0,0,0,5.42-5.42A16.68,16.68,0,0,0,296.32,193.05Zm-14.13-9.28a8.19,8.19,0,1,1,8.19,8.18A8.2,8.2,0,0,1,282.19,183.77Z"/><path class="cls-3" d="M282.19,183.77a8.19,8.19,0,1,1,8.19,8.18A8.2,8.2,0,0,1,282.19,183.77Z"/><path class="cls-2" d="M340.29,193.05a11,11,0,1,0-11.88,0,16.68,16.68,0,0,0-10.71,15.56,5.42,5.42,0,0,0,5.42,5.42h22.46a5.42,5.42,0,0,0,5.42-5.42A16.7,16.7,0,0,0,340.29,193.05Zm-14.13-9.28a8.19,8.19,0,1,1,8.19,8.18A8.19,8.19,0,0,1,326.16,183.77Z"/><path class="cls-2" d="M326.16,183.77a8.19,8.19,0,1,1,8.19,8.18A8.19,8.19,0,0,1,326.16,183.77Z"/><path class="cls-2" d="M252.76,193.05a11,11,0,1,0-11.88,0,16.68,16.68,0,0,0-10.71,15.56,5.42,5.42,0,0,0,5.42,5.42h22.46a5.42,5.42,0,0,0,5.42-5.42A16.7,16.7,0,0,0,252.76,193.05Zm-14.13-9.28a8.19,8.19,0,1,1,8.19,8.18A8.19,8.19,0,0,1,238.63,183.77Z"/><path class="cls-2" d="M238.63,183.77a8.19,8.19,0,1,1,8.19,8.18A8.19,8.19,0,0,1,238.63,183.77Z"/><path class="cls-2" d="M208.38,193.05a11,11,0,1,0-11.88,0,16.7,16.7,0,0,0-10.71,15.56,5.42,5.42,0,0,0,5.42,5.42h22.46a5.42,5.42,0,0,0,5.42-5.42A16.68,16.68,0,0,0,208.38,193.05Zm-14.12-9.28a8.19,8.19,0,1,1,8.18,8.18A8.19,8.19,0,0,1,194.26,183.77Z"/><path class="cls-2" d="M194.26,183.77a8.19,8.19,0,1,1,8.18,8.18A8.19,8.19,0,0,1,194.26,183.77Z"/><path d="M37.26,325.31l3.06,9.26H38l-.6-1.9h-2.9l-.59,1.9H31.6l3.07-9.26Zm-2.13,5.43H36.8L36,328.13Z"/><path d="M47.63,325.22v2.38h-2.4v7H42.84v-7H40.45v-2.38h7.18Z"/><path d="M55.6,325.22v2.38H53.21v7h-2.4v-7H48.42v-2.38H55.6Z"/><path d="M64.16,334.57h-2.4L60.28,331H58.76v3.53H56.53v-9.35H61a2.88,2.88,0,0,1,1.46.39,2.84,2.84,0,0,1,1.06,1.06,2.88,2.88,0,0,1,.39,1.46,2.8,2.8,0,0,1-.36,1.39,2.93,2.93,0,0,1-1,1.05Zm-2.64-7.12a.88.88,0,0,0-.62-.32H58.71v2H60.9a.93.93,0,0,0,.62-.33,1,1,0,0,0,.26-.68A1,1,0,0,0,61.52,327.45Z"/><path d="M69.81,325.31l3.06,9.26h-2.3l-.61-1.9h-2.9l-.59,1.9H64.16l3.06-9.26Zm-2.12,5.43h1.66l-.83-2.61Z"/><path d="M78.53,332.17a2.67,2.67,0,0,0,.79-.53l1.61,1.62a4.75,4.75,0,0,1-5.71.75,4.81,4.81,0,0,1-1.72-1.72,4.62,4.62,0,0,1-.63-2.37,4.67,4.67,0,0,1,.63-2.37,4.73,4.73,0,0,1,1.72-1.72,4.56,4.56,0,0,1,2.37-.64,4.65,4.65,0,0,1,1.82.36,4.81,4.81,0,0,1,1.52,1l-1.61,1.61a2.64,2.64,0,0,0-.79-.52,2.32,2.32,0,0,0-.94-.19,2.35,2.35,0,0,0-1.22.33,2.5,2.5,0,0,0-.88.89,2.38,2.38,0,0,0-.33,1.22,2.33,2.33,0,0,0,.33,1.22,2.5,2.5,0,0,0,.88.89,2.35,2.35,0,0,0,1.22.33A2.5,2.5,0,0,0,78.53,332.17Z"/><path d="M88.77,325.22v2.38H86.38v7H84v-7h-2.4v-2.38h7.18Z"/><path d="M92.08,325.22v9.35H89.7v-9.35Z"/><path d="M98.28,325.22h2.38v9.35H98.28l-2.75-5v5H93.14v-9.35h2.39l2.75,5Z"/><path d="M110.91,329.94a4.52,4.52,0,0,1-.64,2.36,4.74,4.74,0,0,1-4.1,2.36,4.52,4.52,0,0,1-2.36-.64,4.7,4.7,0,0,1-2.35-4.08,4.7,4.7,0,0,1,2.35-4.1,4.62,4.62,0,0,1,2.36-.64,4.77,4.77,0,0,1,1.85.37,4.68,4.68,0,0,1,1.51,1l-2.13,1.21a2.42,2.42,0,0,0-2.44,0,2.53,2.53,0,0,0-.89.89,2.41,2.41,0,0,0-.33,1.23,2.32,2.32,0,0,0,.33,1.21,2.53,2.53,0,0,0,.89.89,2.32,2.32,0,0,0,1.21.33,2.41,2.41,0,0,0,1.29-.36,2.54,2.54,0,0,0,.9-1h-2.94v-2.2h5.36A5.65,5.65,0,0,1,110.91,329.94Z"/><path d="M120.53,325.31l3.06,9.26h-2.3l-.61-1.9h-2.9l-.59,1.9h-2.32l3.07-9.26Zm-2.12,5.43h1.66l-.83-2.61Z"/><path d="M132.87,325.22h2.38v9.35h-2.38v-3.5H130.2v3.5h-2.38v-9.35h2.38v3.47h2.67Z"/><path d="M143.14,325.85a4.61,4.61,0,0,1,1.72,1.73,4.71,4.71,0,0,1,0,4.74,4.73,4.73,0,0,1-1.72,1.72,4.61,4.61,0,0,1-2.36.63,4.68,4.68,0,0,1-2.38-.63,4.81,4.81,0,0,1-1.72-1.72,4.71,4.71,0,0,1,0-4.74,4.68,4.68,0,0,1,4.1-2.36A4.61,4.61,0,0,1,143.14,325.85Zm-1.15,6.2a2.5,2.5,0,0,0,.89-.88,2.42,2.42,0,0,0,0-2.44,2.45,2.45,0,0,0-.89-.89,2.33,2.33,0,0,0-1.21-.34,2.42,2.42,0,0,0-1.23.34,2.45,2.45,0,0,0-.89.89,2.42,2.42,0,0,0,0,2.44,2.5,2.5,0,0,0,.89.88,2.41,2.41,0,0,0,1.23.33A2.32,2.32,0,0,0,142,332.05Z"/><path d="M153.34,325.22v2.38h-2.4v7h-2.39v-7h-2.39v-2.38h7.18Z"/><path d="M163.09,325.31l3.06,9.26h-2.3l-.61-1.9h-2.9l-.59,1.9h-2.31l3.06-9.26ZM161,330.74h1.66l-.83-2.61Z"/><path d="M174,325.23V331a3.59,3.59,0,0,1-.5,1.85,3.69,3.69,0,0,1-1.35,1.34,3.65,3.65,0,0,1-1.86.5h-.21a3.62,3.62,0,0,1-1.85-.5,3.74,3.74,0,0,1-1.34-1.34,3.59,3.59,0,0,1-.5-1.85v-5.78h2.21v5.25a2.19,2.19,0,0,0,.4,1.36,1.26,1.26,0,0,0,1.08.54h.21a1.29,1.29,0,0,0,1.08-.55,2.13,2.13,0,0,0,.42-1.35v-5.25Z"/><path d="M179.17,325.18a5.8,5.8,0,0,1,1.41.34,4.23,4.23,0,0,1,1.29.81,4.55,4.55,0,0,1,1.14,1.6,4.85,4.85,0,0,1,.41,1.93,4.47,4.47,0,0,1-.52,2.15,4.23,4.23,0,0,1-1.45,1.66,5,5,0,0,1-1.9.74,13.74,13.74,0,0,1-2.36.18h-2.12v-9.46h2.4C178.13,325.11,178.7,325.14,179.17,325.18Zm2,4.68a2.44,2.44,0,0,0-.31-1.2,2.58,2.58,0,0,0-.87-.9,2.31,2.31,0,0,0-1.2-.36h-1.29v4.88a10.8,10.8,0,0,0,1.63-.11,2.82,2.82,0,0,0,1.23-.53,2,2,0,0,0,.75-1.23A2.8,2.8,0,0,0,181.14,329.86Z"/><path d="M186.59,325.22v9.35h-2.38v-9.35Z"/><path d="M194,332.54v2h-6.36v-9.35h6.24v2H190v1.64h3.24v2H190v1.64Z"/><path d="M200.21,325.22h2.38v9.35h-2.38l-2.75-5v5h-2.39v-9.35h2.39l2.75,5Z"/><path d="M209,332.17a2.55,2.55,0,0,0,.79-.53l1.62,1.62a4.69,4.69,0,0,1-3.35,1.38,4.7,4.7,0,0,1-4.08-2.35,4.53,4.53,0,0,1-.64-2.37,4.74,4.74,0,0,1,2.36-4.09,4.52,4.52,0,0,1,2.36-.64,4.7,4.7,0,0,1,1.83.36,4.92,4.92,0,0,1,1.52,1l-1.62,1.61a2.52,2.52,0,0,0-.79-.52,2.4,2.4,0,0,0-2.15.14,2.53,2.53,0,0,0-.89.89,2.38,2.38,0,0,0-.33,1.22,2.33,2.33,0,0,0,.33,1.22,2.53,2.53,0,0,0,.89.89,2.32,2.32,0,0,0,1.21.33A2.5,2.5,0,0,0,209,332.17Z"/><path d="M218.6,332.54v2h-6.36v-9.35h6.24v2h-3.85v1.64h3.24v2h-3.24v1.64Z"/><path d="M230.46,325.85a4.73,4.73,0,0,1,2.35,4.1,4.62,4.62,0,0,1-.63,2.37,4.81,4.81,0,0,1-1.72,1.72,4.62,4.62,0,0,1-2.37.63,4.67,4.67,0,0,1-2.37-.63,4.73,4.73,0,0,1-1.72-1.72,4.71,4.71,0,0,1,0-4.74,4.61,4.61,0,0,1,1.72-1.73,4.67,4.67,0,0,1,2.37-.63A4.62,4.62,0,0,1,230.46,325.85Zm-1.15,6.2a2.5,2.5,0,0,0,.89-.88,2.42,2.42,0,0,0,0-2.44,2.45,2.45,0,0,0-.89-.89,2.36,2.36,0,0,0-1.22-.34,2.39,2.39,0,0,0-1.22.34,2.45,2.45,0,0,0-.89.89,2.42,2.42,0,0,0,0,2.44,2.5,2.5,0,0,0,.89.88,2.38,2.38,0,0,0,1.22.33A2.35,2.35,0,0,0,229.31,332.05Z"/><path d="M240.11,327.24H236v1.64h3.3v2H236v3.67h-2.38v-9.35h6.5Z"/><path d="M251.92,325.22v2.38h-2.39v7h-2.4v-7h-2.39v-2.38h7.18Z"/><path d="M257.9,325.22h2.38v9.35H257.9v-3.5h-2.68v3.5h-2.38v-9.35h2.38v3.47h2.68Z"/><path d="M267.69,332.54v2h-6.36v-9.35h6.25v2h-3.85v1.64H267v2h-3.24v1.64Z"/><path d="M278.63,325.61a2.92,2.92,0,0,1,1.06,4,2.91,2.91,0,0,1-1.06,1.06,2.83,2.83,0,0,1-1.46.39H275v3.53h-2.23v-9.35h4.45A2.83,2.83,0,0,1,278.63,325.61Zm-.91,1.84a.92.92,0,0,0-.63-.32H274.9v2h2.19a.89.89,0,0,0,.63-.33,1,1,0,0,0,.26-.68A1,1,0,0,0,277.72,327.45Z"/><path d="M288.5,334.57h-2.39L284.63,331h-1.52v3.53h-2.23v-9.35h4.45a2.88,2.88,0,0,1,1.46.39,2.84,2.84,0,0,1,1.06,1.06,2.88,2.88,0,0,1,.39,1.46,2.8,2.8,0,0,1-.36,1.39,2.93,2.93,0,0,1-1,1.05Zm-2.63-7.12a.88.88,0,0,0-.62-.32h-2.19v2h2.19a.93.93,0,0,0,.62-.33,1,1,0,0,0,.26-.68A1,1,0,0,0,285.87,327.45Z"/><path d="M296.13,325.85a4.61,4.61,0,0,1,1.72,1.73,4.71,4.71,0,0,1,0,4.74,4.73,4.73,0,0,1-1.72,1.72,4.61,4.61,0,0,1-2.36.63,4.68,4.68,0,0,1-2.38-.63,4.81,4.81,0,0,1-1.72-1.72,4.71,4.71,0,0,1,0-4.74,4.68,4.68,0,0,1,4.1-2.36A4.61,4.61,0,0,1,296.13,325.85Zm-1.15,6.2a2.5,2.5,0,0,0,.89-.88,2.42,2.42,0,0,0,0-2.44,2.45,2.45,0,0,0-.89-.89,2.33,2.33,0,0,0-1.21-.34,2.42,2.42,0,0,0-1.23.34,2.45,2.45,0,0,0-.89.89,2.42,2.42,0,0,0,0,2.44,2.5,2.5,0,0,0,.89.88,2.41,2.41,0,0,0,1.23.33A2.32,2.32,0,0,0,295,332.05Z"/><path d="M304.19,325.19h2.2V331a3.58,3.58,0,0,1-.49,1.85,3.74,3.74,0,0,1-1.34,1.34,3.69,3.69,0,0,1-3.71,0,3.74,3.74,0,0,1-1.34-1.34A3.58,3.58,0,0,1,299,331v-.38h2.2a2.06,2.06,0,0,0,.43,1.26,1.27,1.27,0,0,0,1.06.49,1.29,1.29,0,0,0,1.06-.54,2.18,2.18,0,0,0,.42-1.36Z"/><path d="M313.81,332.54v2h-6.36v-9.35h6.24v2h-3.85v1.64h3.24v2h-3.24v1.64Z"/><path d="M320.26,332.17a2.72,2.72,0,0,0,.8-.53l1.61,1.62a4.73,4.73,0,0,1-1.52,1A4.78,4.78,0,0,1,317,334a4.73,4.73,0,0,1-1.72-1.72,4.62,4.62,0,0,1-.63-2.37,4.7,4.7,0,0,1,2.35-4.09,4.53,4.53,0,0,1,2.37-.64,4.65,4.65,0,0,1,1.82.36,4.92,4.92,0,0,1,1.52,1l-1.61,1.61a2.69,2.69,0,0,0-.8-.52,2.4,2.4,0,0,0-2.15.14,2.53,2.53,0,0,0-.89.89,2.38,2.38,0,0,0-.33,1.22,2.33,2.33,0,0,0,.33,1.22,2.53,2.53,0,0,0,.89.89,2.33,2.33,0,0,0,1.22.33A2.49,2.49,0,0,0,320.26,332.17Z"/><path d="M330.51,325.22v2.38h-2.39v7h-2.4v-7h-2.39v-2.38h7.18Z"/><path d="M341.91,327.24h-4.13v1.64h3.31v2h-3.31v3.67H335.4v-9.35h6.51Z"/><path d="M350.33,334.57h-2.39L346.46,331h-1.52v3.53H342.7v-9.35h4.46a2.94,2.94,0,0,1,2.52,1.45,2.88,2.88,0,0,1,.39,1.46,2.8,2.8,0,0,1-.36,1.39,3,3,0,0,1-1,1.05Zm-2.63-7.12a.9.9,0,0,0-.62-.32h-2.2v2h2.2a1,1,0,0,0,.62-.33,1,1,0,0,0,.25-.68A.94.94,0,0,0,347.7,327.45Z"/><path d="M358,325.85a4.73,4.73,0,0,1,2.35,4.1,4.62,4.62,0,0,1-.63,2.37A4.81,4.81,0,0,1,358,334a4.62,4.62,0,0,1-2.37.63,4.67,4.67,0,0,1-2.37-.63,4.83,4.83,0,0,1-1.73-1.72,4.77,4.77,0,0,1,0-4.74,4.71,4.71,0,0,1,4.1-2.36A4.62,4.62,0,0,1,358,325.85Zm-1.15,6.2a2.58,2.58,0,0,0,.89-.88,2.42,2.42,0,0,0,0-2.44,2.53,2.53,0,0,0-.89-.89,2.36,2.36,0,0,0-2.44,0,2.45,2.45,0,0,0-.89.89,2.42,2.42,0,0,0,0,2.44,2.5,2.5,0,0,0,.89.88,2.42,2.42,0,0,0,2.44,0Z"/><path d="M368.31,325.22h2.38v9.35h-2.38v-5.28l-1.16,2.12,0,.1h-2.38l-.07-.1-.16-.31-1-1.81v5.28h-2.39v-9.35h2.39l2.41,4Z"/><path d="M36.67,344.05v-.18a.82.82,0,0,0-.33-.65,1.17,1.17,0,0,0-.78-.27,1.28,1.28,0,0,0-.82.27.82.82,0,0,0-.33.65.6.6,0,0,0,.34.57,2.71,2.71,0,0,0,.9.37l.2,0,.23.06a4.37,4.37,0,0,1,1.9.78l.11.1a2.75,2.75,0,0,1,.63.91,2.57,2.57,0,0,1,.23,1.06,2.63,2.63,0,0,1-.25,1.14,3.13,3.13,0,0,1-.75,1,3.4,3.4,0,0,1-1.11.63,3.82,3.82,0,0,1-1.3.22,3.72,3.72,0,0,1-1.29-.22,3.25,3.25,0,0,1-1.1-.63,2.85,2.85,0,0,1-.75-1,2.52,2.52,0,0,1-.27-1.14v-.17h2.31v.17a.82.82,0,0,0,.33.66,1.15,1.15,0,0,0,.77.27,1.28,1.28,0,0,0,.82-.27.82.82,0,0,0,.33-.66.77.77,0,0,0-.35-.58A1.46,1.46,0,0,0,36,347l-.52-.16-.44-.1c-.48-.13-.86-.24-1.13-.33a2.35,2.35,0,0,1-.76-.45l0-.06a2.89,2.89,0,0,1-.69-.92,2.45,2.45,0,0,1-.25-1.09,2.51,2.51,0,0,1,.27-1.13,2.89,2.89,0,0,1,.75-1,3.63,3.63,0,0,1,1.1-.63,4,4,0,0,1,1.29-.21,4.07,4.07,0,0,1,1.3.21,3.8,3.8,0,0,1,1.11.63,3.17,3.17,0,0,1,.75,1,2.62,2.62,0,0,1,.25,1.13v.18Z"/><path d="M46.58,341.72a4.72,4.72,0,0,1,1.72,6.46,4.58,4.58,0,0,1-1.72,1.72,4.52,4.52,0,0,1-2.36.64,4.59,4.59,0,0,1-2.38-.64,4.65,4.65,0,0,1-1.72-1.72,4.52,4.52,0,0,1-.64-2.36,4.59,4.59,0,0,1,.64-2.38,4.74,4.74,0,0,1,4.1-2.36A4.62,4.62,0,0,1,46.58,341.72Zm-1.15,6.2a2.53,2.53,0,0,0,.89-.89,2.32,2.32,0,0,0,.33-1.21,2.41,2.41,0,0,0-.33-1.23,2.53,2.53,0,0,0-.89-.89,2.32,2.32,0,0,0-1.21-.33,2.41,2.41,0,0,0-1.23.33,2.53,2.53,0,0,0-.89.89,2.41,2.41,0,0,0-.33,1.23A2.32,2.32,0,0,0,42.1,347a2.53,2.53,0,0,0,.89.89,2.41,2.41,0,0,0,1.23.33A2.32,2.32,0,0,0,45.43,347.92Z"/><path d="M55.12,348a2.69,2.69,0,0,0,.8-.52l1.61,1.61a4.76,4.76,0,0,1-1.52,1,4.78,4.78,0,0,1-4.19-.27,4.81,4.81,0,0,1-1.72-1.72,4.63,4.63,0,0,1-.64-2.37,4.68,4.68,0,0,1,.64-2.37,4.76,4.76,0,0,1,1.72-1.73,4.78,4.78,0,0,1,4.19-.27,4.76,4.76,0,0,1,1.52,1l-1.61,1.61a2.51,2.51,0,0,0-.8-.52,2.4,2.4,0,0,0-2.15.14,2.45,2.45,0,0,0-.89.89,2.42,2.42,0,0,0,0,2.44,2.5,2.5,0,0,0,.89.88,2.4,2.4,0,0,0,2.15.14Z"/><path d="M60.7,341.08v9.35H58.32v-9.35Z"/><path d="M66.63,341.18l3.05,9.25h-2.3l-.61-1.89H63.88l-.6,1.89H61L64,341.18Zm-2.13,5.43h1.66L65.33,344Z"/><path d="M72.33,348.18H76v2.25H70v-9.35h2.38Z"/><path d="M86,341.08h2.38v9.35H86l-2.75-5v5h-2.4v-9.35h2.4l2.75,5Z"/><path d="M95.83,348.41v2H89.47v-9.35h6.25v2H91.87v1.64h3.24v2H91.87v1.64Z"/><path d="M103.94,341.08v2.38h-2.39v7h-2.4v-7H96.76v-2.38h7.18Z"/><path d="M112.39,341.08h2.06v9.35h-2.38l-2.4-4-2.42,4h-2.38v-9.35h2.38v5.28l1.16-2.12.06-.1h2.38l.06.1,1.16,2.12v-5.28Z"/><path d="M122.34,341.72a4.65,4.65,0,0,1,1.72,1.72,4.59,4.59,0,0,1,.64,2.38,4.52,4.52,0,0,1-.64,2.36,4.58,4.58,0,0,1-1.72,1.72,4.52,4.52,0,0,1-2.36.64,4.59,4.59,0,0,1-2.38-.64,4.72,4.72,0,0,1-1.72-6.46,4.74,4.74,0,0,1,4.1-2.36A4.62,4.62,0,0,1,122.34,341.72Zm-1.15,6.2a2.53,2.53,0,0,0,.89-.89,2.32,2.32,0,0,0,.33-1.21,2.41,2.41,0,0,0-.33-1.23,2.53,2.53,0,0,0-.89-.89,2.32,2.32,0,0,0-1.21-.33,2.41,2.41,0,0,0-1.23.33,2.53,2.53,0,0,0-.89.89,2.41,2.41,0,0,0-.33,1.23,2.32,2.32,0,0,0,.33,1.21,2.53,2.53,0,0,0,.89.89,2.41,2.41,0,0,0,1.23.33A2.32,2.32,0,0,0,121.19,347.92Z"/><path d="M133.12,350.43h-2.39l-1.48-3.53h-1.52v3.53h-2.24v-9.35H130a2.84,2.84,0,0,1,1.45.39,2.89,2.89,0,0,1,1.07,1.07,2.84,2.84,0,0,1,.39,1.45,2.81,2.81,0,0,1-.36,1.4,3,3,0,0,1-1,1.05Zm-2.63-7.12a.91.91,0,0,0-.62-.31h-2.2v2h2.2a.92.92,0,0,0,.62-.32,1,1,0,0,0,.25-.68A1,1,0,0,0,130.49,343.31Z"/><path d="M138.45,345.71l2.79,4.72h-2.65l-2.3-3.77v3.77h-2.38v-9.35h2.38v3.65l2.3-3.65h2.65Z"/><path d="M146.57,344.05v-.18a.82.82,0,0,0-.33-.65,1.17,1.17,0,0,0-.78-.27,1.28,1.28,0,0,0-.82.27.82.82,0,0,0-.33.65.6.6,0,0,0,.34.57,2.71,2.71,0,0,0,.9.37l.2,0,.24.06a4.37,4.37,0,0,1,1.89.78l.12.1a2.88,2.88,0,0,1,.62.91,2.57,2.57,0,0,1,.23,1.06,2.63,2.63,0,0,1-.25,1.14,3,3,0,0,1-.75,1,3.4,3.4,0,0,1-1.11.63,3.82,3.82,0,0,1-1.3.22,3.72,3.72,0,0,1-1.29-.22,3.35,3.35,0,0,1-1.1-.63,2.85,2.85,0,0,1-.75-1,2.52,2.52,0,0,1-.27-1.14v-.17h2.32v.17a.81.81,0,0,0,.32.66,1.17,1.17,0,0,0,.77.27,1.28,1.28,0,0,0,.82-.27.82.82,0,0,0,.33-.66.77.77,0,0,0-.35-.58,1.46,1.46,0,0,0-.37-.2l-.52-.16-.44-.1c-.48-.13-.86-.24-1.13-.33a2.35,2.35,0,0,1-.76-.45l-.05-.06a2.89,2.89,0,0,1-.69-.92,2.45,2.45,0,0,1-.25-1.09,2.51,2.51,0,0,1,.27-1.13,2.89,2.89,0,0,1,.75-1,3.75,3.75,0,0,1,1.1-.63,4,4,0,0,1,1.29-.21,4.07,4.07,0,0,1,1.3.21,3.8,3.8,0,0,1,1.11.63,3,3,0,0,1,.75,1,2.62,2.62,0,0,1,.25,1.13v.18Z"/><path d="M150.1,348.81h2.23l-1,3h-2Z"/><path d="M161.36,344.05v-.18a.84.84,0,0,0-.32-.65,1.2,1.2,0,0,0-.79-.27,1.24,1.24,0,0,0-.81.27.8.8,0,0,0-.34.65.61.61,0,0,0,.34.57,2.8,2.8,0,0,0,.9.37l.21,0,.23.06a4.37,4.37,0,0,1,1.89.78l.12.1a3.08,3.08,0,0,1,.63.91,2.74,2.74,0,0,1,.23,1.06,2.64,2.64,0,0,1-.26,1.14,2.85,2.85,0,0,1-.75,1,3.21,3.21,0,0,1-1.11.63,3.89,3.89,0,0,1-2.58,0,3.4,3.4,0,0,1-1.11-.63,3.13,3.13,0,0,1-.75-1,2.64,2.64,0,0,1-.26-1.14v-.17h2.31v.17a.84.84,0,0,0,.32.66,1.19,1.19,0,0,0,.78.27,1.24,1.24,0,0,0,.81-.27.81.81,0,0,0,.34-.66.76.76,0,0,0-.36-.58,1.31,1.31,0,0,0-.37-.2l-.51-.16-.44-.1q-.74-.2-1.14-.33a2.42,2.42,0,0,1-.75-.45l0-.06a2.92,2.92,0,0,1-.7-.92,2.58,2.58,0,0,1-.24-1.09,2.63,2.63,0,0,1,.26-1.13,3.17,3.17,0,0,1,.75-1,3.8,3.8,0,0,1,1.11-.63,4.07,4.07,0,0,1,2.58,0,3.56,3.56,0,0,1,1.11.63,2.89,2.89,0,0,1,.75,1,2.63,2.63,0,0,1,.26,1.13v.18Z"/><path d="M170.8,348.41v2h-6.36v-9.35h6.24v2h-3.84v1.64h3.24v2h-3.24v1.64Z"/><path d="M176.73,341.18l3.05,9.25h-2.3l-.61-1.89H174l-.6,1.89h-2.31l3.06-9.25Zm-2.13,5.43h1.66l-.83-2.62Z"/><path d="M187.67,350.43h-2.39l-1.48-3.53h-1.52v3.53H180v-9.35h4.46a2.88,2.88,0,0,1,1.46.39,2.94,2.94,0,0,1,1.06,1.07,2.84,2.84,0,0,1,.39,1.45,2.81,2.81,0,0,1-.36,1.4,3,3,0,0,1-1,1.05ZM185,343.31a.87.87,0,0,0-.62-.31h-2.19v2h2.19a.88.88,0,0,0,.62-.32,1,1,0,0,0,.25-.68A1,1,0,0,0,185,343.31Z"/><path d="M193.86,348a2.69,2.69,0,0,0,.8-.52l1.61,1.61a4.76,4.76,0,0,1-1.52,1,4.7,4.7,0,0,1-1.83.36,4.61,4.61,0,0,1-2.36-.63,4.73,4.73,0,0,1-1.72-1.72,4.53,4.53,0,0,1-.64-2.37,4.58,4.58,0,0,1,.64-2.37,4.68,4.68,0,0,1,1.72-1.73,4.61,4.61,0,0,1,2.36-.63,4.7,4.7,0,0,1,1.83.36,4.76,4.76,0,0,1,1.52,1l-1.61,1.61a2.51,2.51,0,0,0-.8-.52,2.4,2.4,0,0,0-2.15.14,2.45,2.45,0,0,0-.89.89,2.42,2.42,0,0,0,0,2.44,2.5,2.5,0,0,0,.89.88,2.4,2.4,0,0,0,2.15.14Z"/><path d="M202.11,341.08h2.38v9.35h-2.38v-3.49h-2.67v3.49h-2.38v-9.35h2.38v3.48h2.67Z"/><path d="M213.79,344.05v-.18a.82.82,0,0,0-.33-.65,1.16,1.16,0,0,0-.78-.27,1.28,1.28,0,0,0-.82.27.82.82,0,0,0-.33.65.6.6,0,0,0,.34.57,2.71,2.71,0,0,0,.9.37l.2,0,.24.06a4.37,4.37,0,0,1,1.89.78l.11.1a2.75,2.75,0,0,1,.63.91,2.57,2.57,0,0,1,.23,1.06,2.63,2.63,0,0,1-.25,1.14,3,3,0,0,1-.75,1,3.4,3.4,0,0,1-1.11.63,3.82,3.82,0,0,1-1.3.22,3.72,3.72,0,0,1-1.29-.22,3.35,3.35,0,0,1-1.1-.63,2.85,2.85,0,0,1-.75-1,2.52,2.52,0,0,1-.27-1.14v-.17h2.32v.17a.81.81,0,0,0,.32.66,1.17,1.17,0,0,0,.77.27,1.28,1.28,0,0,0,.82-.27.82.82,0,0,0,.33-.66.77.77,0,0,0-.35-.58,1.46,1.46,0,0,0-.37-.2l-.52-.16-.44-.1c-.48-.13-.86-.24-1.13-.33a2.35,2.35,0,0,1-.76-.45l-.05-.06a2.89,2.89,0,0,1-.69-.92,2.45,2.45,0,0,1-.25-1.09,2.51,2.51,0,0,1,.27-1.13,2.89,2.89,0,0,1,.75-1,3.75,3.75,0,0,1,1.1-.63,4,4,0,0,1,1.29-.21,4.07,4.07,0,0,1,1.3.21,3.8,3.8,0,0,1,1.11.63,3,3,0,0,1,.75,1,2.62,2.62,0,0,1,.25,1.13v.18Z"/><path d="M223.23,348.41v2h-6.36v-9.35h6.24v2h-3.85v1.64h3.24v2h-3.24v1.64Z"/><path d="M231.92,350.43h-2.4L228,346.9h-1.52v3.53h-2.23v-9.35h4.45a2.89,2.89,0,0,1,2.52,1.46,2.84,2.84,0,0,1,.39,1.45,2.81,2.81,0,0,1-.36,1.4,2.93,2.93,0,0,1-1,1.05Zm-2.64-7.12a.87.87,0,0,0-.62-.31h-2.19v2h2.19a.88.88,0,0,0,.62-.32,1,1,0,0,0,.26-.68A1,1,0,0,0,229.28,343.31Z"/><path d="M238.86,341.06h2.59l-3.06,9.37h-2.91l-3-9.37h2.62L237,346.9Z"/><path d="M244.62,341.08v9.35h-2.38v-9.35Z"/><path d="M251.07,348a2.69,2.69,0,0,0,.8-.52l1.61,1.61a4.76,4.76,0,0,1-1.52,1,4.67,4.67,0,0,1-1.83.36,4.61,4.61,0,0,1-2.36-.63,4.73,4.73,0,0,1-1.72-1.72,4.63,4.63,0,0,1-.64-2.37,4.77,4.77,0,0,1,2.36-4.1,4.61,4.61,0,0,1,2.36-.63,4.67,4.67,0,0,1,1.83.36,4.76,4.76,0,0,1,1.52,1l-1.61,1.61a2.51,2.51,0,0,0-.8-.52,2.4,2.4,0,0,0-2.15.14,2.45,2.45,0,0,0-.89.89,2.42,2.42,0,0,0,0,2.44,2.5,2.5,0,0,0,.89.88,2.4,2.4,0,0,0,2.15.14Z"/><path d="M260.63,348.41v2h-6.36v-9.35h6.24v2h-3.84v1.64h3.24v2h-3.24v1.64Z"/><path d="M266,344.05v-.18a.84.84,0,0,0-.32-.65,1.2,1.2,0,0,0-.79-.27,1.24,1.24,0,0,0-.81.27.8.8,0,0,0-.34.65.6.6,0,0,0,.34.57,2.71,2.71,0,0,0,.9.37l.21,0,.23.06a4.37,4.37,0,0,1,1.89.78l.12.1a3.08,3.08,0,0,1,.63.91,2.74,2.74,0,0,1,.23,1.06,2.64,2.64,0,0,1-.26,1.14,2.85,2.85,0,0,1-.75,1,3.21,3.21,0,0,1-1.11.63,3.89,3.89,0,0,1-2.58,0,3.4,3.4,0,0,1-1.11-.63,3.13,3.13,0,0,1-.75-1,2.51,2.51,0,0,1-.26-1.14v-.17h2.31v.17a.84.84,0,0,0,.32.66,1.19,1.19,0,0,0,.78.27,1.26,1.26,0,0,0,.81-.27.81.81,0,0,0,.34-.66.76.76,0,0,0-.36-.58,1.46,1.46,0,0,0-.37-.2l-.52-.16-.43-.1q-.74-.2-1.14-.33a2.42,2.42,0,0,1-.75-.45l-.06-.06a2.89,2.89,0,0,1-.69-.92,2.58,2.58,0,0,1-.24-1.09,2.49,2.49,0,0,1,.26-1.13,3.17,3.17,0,0,1,.75-1,3.8,3.8,0,0,1,1.11-.63,4.07,4.07,0,0,1,2.58,0,3.56,3.56,0,0,1,1.11.63,2.89,2.89,0,0,1,.75,1,2.63,2.63,0,0,1,.26,1.13v.18Z"/><path d="M269.49,348.81h2.24l-1,3h-2Z"/><path d="M37.26,357l3.06,9.26H38l-.6-1.89h-2.9l-.59,1.89H31.6L34.67,357Zm-2.13,5.44H36.8L36,359.86Z"/><path d="M45.72,357H48.1v9.35H45.72l-2.75-5v5H40.58V357H43l2.75,5Z"/><path d="M53.26,356.92a5.78,5.78,0,0,1,1.41.33,4.23,4.23,0,0,1,1.29.81,4.82,4.82,0,0,1,1.54,3.53,4.62,4.62,0,0,1-.51,2.16,4.27,4.27,0,0,1-1.45,1.65,5.11,5.11,0,0,1-1.9.75,13.82,13.82,0,0,1-2.36.18l-1.09,0h-1v-9.46h2.39A16.65,16.65,0,0,1,53.26,356.92Zm2,4.67a2.39,2.39,0,0,0-.32-1.19,2.5,2.5,0,0,0-.86-.91,2.34,2.34,0,0,0-1.2-.36h-1.3V364a10.94,10.94,0,0,0,1.64-.11,2.92,2.92,0,0,0,1.23-.52,2.13,2.13,0,0,0,.74-1.23A2.38,2.38,0,0,0,55.23,361.59Z"/><path d="M69.31,357v2.38H66.92v7h-2.4v-7H62.13V357h7.18Z"/><path d="M75.29,357h2.38v9.35H75.29v-3.49H72.62v3.49H70.24V357h2.38v3.48h2.67Z"/><path d="M85.08,364.28v2H78.73V357H85v2H81.12v1.64h3.24v2H81.12v1.64Z"/><path d="M92.49,357v9.35H90.11V357Z"/><path d="M98.69,357h2.38v9.35H98.69l-2.75-5v5H93.55V357h2.39l2.75,5Z"/><path d="M109.17,357v2.38h-2.39v7h-2.39v-7H102V357h7.17Z"/><path d="M116.46,364.28v2H110.1V357h6.24v2h-3.85v1.64h3.24v2h-3.24v1.64Z"/><path d="M125.15,366.3h-2.4l-1.48-3.53h-1.52v3.53h-2.23V357H122a2.89,2.89,0,0,1,2.52,1.46,2.82,2.82,0,0,1,.39,1.45,2.87,2.87,0,0,1-.35,1.39,3.08,3.08,0,0,1-1,1.06Zm-2.63-7.12a.91.91,0,0,0-.63-.31H119.7v2h2.19a1,1,0,0,0,.63-.32,1,1,0,0,0,.25-.68A1,1,0,0,0,122.52,359.18Z"/><path d="M131.08,357h2.38v9.35h-2.38l-2.75-5v5h-2.39V357h2.39l2.75,5Z"/><path d="M140.88,364.28v2h-6.36V357h6.24v2h-3.84v1.64h3.23v2h-3.23v1.64Z"/><path d="M149,357v2.38h-2.4v7H144.2v-7h-2.39V357H149Z"/><path d="M158.74,357l3.06,9.26h-2.3l-.61-1.89H156l-.59,1.89h-2.32l3.07-9.26Zm-2.12,5.44h1.66l-.83-2.62Z"/><path d="M167.21,357h2.38v9.35h-2.38l-2.75-5v5h-2.4V357h2.4l2.75,5Z"/><path d="M174.74,356.92a5.78,5.78,0,0,1,1.41.33,4.23,4.23,0,0,1,1.29.81,4.59,4.59,0,0,1,1.14,1.61,4.77,4.77,0,0,1,.41,1.92,4.51,4.51,0,0,1-.52,2.16A4.27,4.27,0,0,1,177,365.4a5,5,0,0,1-1.9.75,13.74,13.74,0,0,1-2.36.18l-1.08,0h-1v-9.46H173A16.3,16.3,0,0,1,174.74,356.92Zm2,4.67a2.38,2.38,0,0,0-.31-1.19,2.53,2.53,0,0,0-.87-.91,2.31,2.31,0,0,0-1.2-.36H173V364a10.8,10.8,0,0,0,1.63-.11,2.92,2.92,0,0,0,1.23-.52,2.14,2.14,0,0,0,.75-1.23A3,3,0,0,0,176.71,361.59Z"/><path d="M188.61,357l3.06,9.26h-2.3l-.61-1.89h-2.9l-.59,1.89H183L186,357Zm-2.13,5.44h1.67l-.83-2.62Z"/><path d="M194.31,364.05H198v2.25h-6.06V357h2.38Z"/><path d="M203.18,359.91v-.17a.8.8,0,0,0-.32-.65,1.21,1.21,0,0,0-.79-.28,1.26,1.26,0,0,0-.81.28.82.82,0,0,0-.34.65.6.6,0,0,0,.35.57,2.94,2.94,0,0,0,.9.37l.2,0,.23,0a4.57,4.57,0,0,1,1.89.78l.12.11a2.8,2.8,0,0,1,.63.91,2.59,2.59,0,0,1,0,2.2,3,3,0,0,1-.74,1,3.8,3.8,0,0,1-1.11.63,4.08,4.08,0,0,1-1.3.22,4,4,0,0,1-1.29-.22,3.63,3.63,0,0,1-1.1-.63,3,3,0,0,1-.76-1,2.71,2.71,0,0,1-.26-1.14v-.17H201v.17a.82.82,0,0,0,.33.65,1.15,1.15,0,0,0,.77.27,1.24,1.24,0,0,0,.81-.27.8.8,0,0,0,.34-.65.76.76,0,0,0-.36-.58,1.31,1.31,0,0,0-.37-.2,3.45,3.45,0,0,0-.51-.16l-.44-.11q-.72-.18-1.14-.33a2.09,2.09,0,0,1-.75-.45l0-.05a3,3,0,0,1-.7-.93,2.51,2.51,0,0,1-.24-1.08,2.64,2.64,0,0,1,.26-1.14,3,3,0,0,1,.76-1,3.63,3.63,0,0,1,1.1-.63,3.72,3.72,0,0,1,1.29-.22,3.74,3.74,0,0,1,2.41.85,3,3,0,0,1,.74,1,2.64,2.64,0,0,1,.26,1.14v.17Z"/><path d="M213.1,357.59a4.75,4.75,0,0,1,1.72,6.46,4.73,4.73,0,0,1-1.72,1.72,4.62,4.62,0,0,1-2.37.63,4.67,4.67,0,0,1-2.37-.63,4.76,4.76,0,0,1-1.73-1.72,4.62,4.62,0,0,1-.63-2.37,4.68,4.68,0,0,1,2.36-4.09,4.58,4.58,0,0,1,2.37-.64A4.53,4.53,0,0,1,213.1,357.59Zm-1.15,6.2a2.53,2.53,0,0,0,.89-.89,2.33,2.33,0,0,0,.33-1.22,2.38,2.38,0,0,0-.33-1.22,2.53,2.53,0,0,0-.89-.89,2.42,2.42,0,0,0-2.44,0,2.53,2.53,0,0,0-.89.89,2.38,2.38,0,0,0-.33,1.22,2.33,2.33,0,0,0,.33,1.22,2.53,2.53,0,0,0,.89.89,2.42,2.42,0,0,0,2.44,0Z"/><path d="M227.84,366.3h-2.39L224,362.77h-1.52v3.53h-2.24V357h4.46a2.84,2.84,0,0,1,1.45.39,2.89,2.89,0,0,1,1.07,1.07,2.82,2.82,0,0,1,.39,1.45,2.77,2.77,0,0,1-.36,1.39,3.15,3.15,0,0,1-1,1.06Zm-2.63-7.12a.89.89,0,0,0-.62-.31h-2.2v2h2.2a.94.94,0,0,0,.62-.32,1,1,0,0,0,.25-.68A1,1,0,0,0,225.21,359.18Z"/><path d="M235,364.28v2h-6.36V357h6.24v2H231v1.64h3.24v2H231v1.64Z"/><path d="M243.1,357v2.38h-2.39v7h-2.4v-7h-2.39V357h7.18Z"/><path d="M248.89,357,252,366.3h-2.3l-.61-1.89h-2.9l-.59,1.89h-2.32L246.3,357Zm-2.13,5.44h1.67l-.83-2.62Z"/><path d="M259.84,366.3h-2.39L256,362.77h-1.52v3.53h-2.24V357h4.46a2.84,2.84,0,0,1,1.45.39,2.89,2.89,0,0,1,1.07,1.07,2.82,2.82,0,0,1,.39,1.45,2.77,2.77,0,0,1-.36,1.39,3.08,3.08,0,0,1-1,1.06Zm-2.63-7.12a.91.91,0,0,0-.62-.31h-2.2v2h2.2a1,1,0,0,0,.62-.32,1,1,0,0,0,.25-.68A1,1,0,0,0,257.21,359.18Z"/><path d="M269.82,361.67a4.65,4.65,0,0,1-.63,2.37,4.83,4.83,0,0,1-1.73,1.72,4.77,4.77,0,0,1-4.74,0A4.89,4.89,0,0,1,261,364a4.77,4.77,0,0,1,0-4.74,4.83,4.83,0,0,1,1.72-1.73,4.65,4.65,0,0,1,2.37-.63,4.71,4.71,0,0,1,3.36,1.4l-2.13,1.22a2.44,2.44,0,0,0-2.45,0,2.42,2.42,0,0,0-.88.89,2.42,2.42,0,0,0,0,2.44,2.47,2.47,0,0,0,.88.88,2.35,2.35,0,0,0,1.22.33,2.38,2.38,0,0,0,1.28-.36,2.47,2.47,0,0,0,.9-1h-2.94v-2.2h5.36A5,5,0,0,1,269.82,361.67Z"/><path d="M277,364.28v2h-6.36V357h6.24v2H273v1.64h3.24v2H273v1.64Z"/><path d="M285.08,357v2.38h-2.39v7h-2.4v-7H277.9V357h7.18Z"/><path d="M288.39,357v9.35H286V357Z"/><path d="M294.59,357H297v9.35h-2.38l-2.75-5v5h-2.4V357h2.4l2.75,5Z"/><path d="M307.21,361.67a4.65,4.65,0,0,1-.63,2.37,4.76,4.76,0,0,1-1.73,1.72,4.62,4.62,0,0,1-2.37.63,4.67,4.67,0,0,1-2.37-.63,4.89,4.89,0,0,1-1.72-1.72,4.77,4.77,0,0,1,0-4.74,4.83,4.83,0,0,1,1.72-1.73,4.79,4.79,0,0,1,4.22-.26,4.61,4.61,0,0,1,1.51,1l-2.13,1.22a2.44,2.44,0,0,0-2.45,0,2.42,2.42,0,0,0-.88.89,2.42,2.42,0,0,0,0,2.44,2.47,2.47,0,0,0,.88.88,2.44,2.44,0,0,0,2.5,0,2.47,2.47,0,0,0,.9-1h-2.93v-2.2h5.35A5,5,0,0,1,307.21,361.67Z"/><path d="M318.81,357.59a4.75,4.75,0,0,1,1.72,6.46,4.73,4.73,0,0,1-1.72,1.72,4.62,4.62,0,0,1-2.37.63,4.67,4.67,0,0,1-2.37-.63,4.76,4.76,0,0,1-1.73-1.72,4.62,4.62,0,0,1-.63-2.37,4.68,4.68,0,0,1,2.36-4.09,4.58,4.58,0,0,1,2.37-.64A4.53,4.53,0,0,1,318.81,357.59Zm-1.15,6.2a2.5,2.5,0,0,0,.88-.89,2.25,2.25,0,0,0,.34-1.22,2.29,2.29,0,0,0-.34-1.22,2.5,2.5,0,0,0-.88-.89,2.42,2.42,0,0,0-2.44,0,2.45,2.45,0,0,0-.89.89,2.38,2.38,0,0,0-.33,1.22,2.33,2.33,0,0,0,.33,1.22,2.45,2.45,0,0,0,.89.89,2.42,2.42,0,0,0,2.44,0Z"/><path d="M328.46,359h-4.12v1.64h3.3v2h-3.3v3.66H322V357h6.5Z"/><path d="M340.82,357v5.78a3.58,3.58,0,0,1-.49,1.85,3.72,3.72,0,0,1-1.35,1.35,3.64,3.64,0,0,1-1.86.49h-.21a3.58,3.58,0,0,1-1.85-.49,3.69,3.69,0,0,1-1.34-1.35,3.59,3.59,0,0,1-.5-1.85V357h2.21v5.25a2.25,2.25,0,0,0,.4,1.37,1.26,1.26,0,0,0,1.08.54h.21a1.32,1.32,0,0,0,1.08-.55,2.18,2.18,0,0,0,.42-1.36V357Z"/><path d="M346.15,359.91v-.17a.82.82,0,0,0-.32-.65,1.21,1.21,0,0,0-.79-.28,1.24,1.24,0,0,0-.81.28.79.79,0,0,0-.34.65.61.61,0,0,0,.34.57,3,3,0,0,0,.9.37l.21,0,.23,0a4.64,4.64,0,0,1,1.89.78l.12.11a3,3,0,0,1,.63.91,2.59,2.59,0,0,1,0,2.2,2.85,2.85,0,0,1-.75,1,3.56,3.56,0,0,1-1.11.63,3.89,3.89,0,0,1-2.58,0,3.8,3.8,0,0,1-1.11-.63,3.13,3.13,0,0,1-.75-1,2.71,2.71,0,0,1-.26-1.14v-.17h2.31v.17a.84.84,0,0,0,.32.65,1.19,1.19,0,0,0,.78.27,1.24,1.24,0,0,0,.81-.27.8.8,0,0,0,.34-.65.76.76,0,0,0-.36-.58,1.31,1.31,0,0,0-.37-.2,3.45,3.45,0,0,0-.51-.16l-.44-.11a11,11,0,0,1-1.14-.33,2.09,2.09,0,0,1-.75-.45l-.05-.05a2.85,2.85,0,0,1-.7-.93,2.51,2.51,0,0,1-.24-1.08,2.64,2.64,0,0,1,.26-1.14,3.13,3.13,0,0,1,.75-1,3.8,3.8,0,0,1,1.11-.63,3.89,3.89,0,0,1,2.58,0,3.56,3.56,0,0,1,1.11.63,2.85,2.85,0,0,1,.75,1,2.64,2.64,0,0,1,.26,1.14v.17Z"/><path d="M355.59,364.28v2h-6.36V357h6.24v2h-3.84v1.64h3.24v2h-3.24v1.64Z"/><path d="M364.28,366.3h-2.39l-1.48-3.53h-1.53v3.53h-2.23V357h4.46a2.84,2.84,0,0,1,1.45.39,2.88,2.88,0,0,1,1.45,2.52,2.76,2.76,0,0,1-.35,1.39,3.08,3.08,0,0,1-1,1.06Zm-2.63-7.12a.91.91,0,0,0-.62-.31h-2.2v2H361a1,1,0,0,0,.62-.32,1,1,0,0,0,.25-.68A1,1,0,0,0,361.65,359.18Z"/><path d="M369.34,359.91v-.17a.8.8,0,0,0-.32-.65,1.21,1.21,0,0,0-.79-.28,1.26,1.26,0,0,0-.81.28.79.79,0,0,0-.34.65.6.6,0,0,0,.35.57,2.94,2.94,0,0,0,.9.37l.2,0,.23,0a4.57,4.57,0,0,1,1.89.78l.12.11a2.65,2.65,0,0,1,.63.91,2.59,2.59,0,0,1,0,2.2,3,3,0,0,1-.74,1,3.8,3.8,0,0,1-1.11.63,4.08,4.08,0,0,1-1.3.22,4,4,0,0,1-1.29-.22,3.63,3.63,0,0,1-1.1-.63,3,3,0,0,1-.76-1,2.71,2.71,0,0,1-.26-1.14v-.17h2.31v.17a.82.82,0,0,0,.33.65,1.15,1.15,0,0,0,.77.27,1.24,1.24,0,0,0,.81-.27.8.8,0,0,0,.34-.65.76.76,0,0,0-.36-.58,1.31,1.31,0,0,0-.37-.2,3.45,3.45,0,0,0-.51-.16l-.44-.11q-.72-.18-1.14-.33a2.09,2.09,0,0,1-.75-.45l-.05-.05a3,3,0,0,1-.7-.93,2.51,2.51,0,0,1-.24-1.08,2.64,2.64,0,0,1,.26-1.14,3,3,0,0,1,.76-1,3.63,3.63,0,0,1,1.1-.63,3.72,3.72,0,0,1,1.29-.22,3.74,3.74,0,0,1,2.41.85,3,3,0,0,1,.74,1,2.64,2.64,0,0,1,.26,1.14v.17Z"/><path d="M39.92,372.82H42v9.35H39.6l-2.4-4-2.42,4H32.4v-9.35h2.38v5.27L35.94,376l.06-.11h2.38l.06.11,1.16,2.11v-5.27Z"/><path d="M48.09,372.82h2.38v9.35H48.09v-3.5H45.42v3.5H43v-9.35h2.38v3.47h2.67Z"/><path d="M58.36,373.45a4.68,4.68,0,0,1,1.72,1.73,4.71,4.71,0,0,1,0,4.74,4.73,4.73,0,0,1-1.72,1.72,4.61,4.61,0,0,1-2.36.63,4.68,4.68,0,0,1-2.38-.63,4.81,4.81,0,0,1-1.72-1.72,4.71,4.71,0,0,1,0-4.74,4.76,4.76,0,0,1,1.72-1.73,4.68,4.68,0,0,1,2.38-.63A4.61,4.61,0,0,1,58.36,373.45Zm-1.15,6.2a2.5,2.5,0,0,0,.89-.88,2.42,2.42,0,0,0,0-2.44,2.45,2.45,0,0,0-.89-.89A2.33,2.33,0,0,0,56,375.1a2.42,2.42,0,0,0-1.23.34,2.45,2.45,0,0,0-.89.89,2.42,2.42,0,0,0,0,2.44,2.5,2.5,0,0,0,.89.88A2.41,2.41,0,0,0,56,380,2.32,2.32,0,0,0,57.21,379.65Z"/><path d="M70.34,372.91l3.06,9.26H71.1l-.61-1.9h-2.9l-.59,1.9H64.68l3.07-9.26Zm-2.13,5.43h1.67l-.83-2.61Z"/><path d="M76,379.92h3.68v2.25H73.66v-9.35H76Z"/><path d="M88.27,382.17H85.88l-1.48-3.53H82.88v3.53H80.64v-9.35H85.1a2.94,2.94,0,0,1,2.52,1.45,2.88,2.88,0,0,1,.39,1.46,2.8,2.8,0,0,1-.36,1.39,3,3,0,0,1-1,1.05Zm-2.63-7.12a.9.9,0,0,0-.62-.32h-2.2v2H85a1,1,0,0,0,.62-.33,1,1,0,0,0,.25-.68A.94.94,0,0,0,85.64,375.05Z"/><path d="M95.42,380.14v2H89.06v-9.35h6.25v2H91.46v1.64H94.7v2H91.46v1.64Z"/><path d="M101.35,372.91l3.05,9.26h-2.3l-.61-1.9H98.6l-.6,1.9H95.69l3.07-9.26Zm-2.13,5.43h1.67l-.84-2.61Z"/><path d="M108.77,372.78a5.84,5.84,0,0,1,1.4.34,4,4,0,0,1,1.29.81,4.58,4.58,0,0,1,1.15,1.6,4.84,4.84,0,0,1,.4,1.93,4.47,4.47,0,0,1-.52,2.15,4.21,4.21,0,0,1-1.44,1.66,5.07,5.07,0,0,1-1.91.74,13.74,13.74,0,0,1-2.36.18h-2.11v-9.46h2.39C107.72,372.71,108.29,372.74,108.77,372.78Zm2,4.68a2.45,2.45,0,0,0-.32-1.2,2.5,2.5,0,0,0-.87-.9,2.28,2.28,0,0,0-1.19-.36h-1.3v4.88a10.8,10.8,0,0,0,1.63-.11,2.72,2.72,0,0,0,1.23-.53,2,2,0,0,0,.75-1.23A2.86,2.86,0,0,0,110.74,377.46Z"/><path d="M118.77,372.82h2.38l-2.75,5.54v3.81H116v-3.81l-2.75-5.54h2.38l1.56,3.18Z"/><path d="M131.8,372.79h2.59l-3.06,9.38h-2.9l-3-9.38H128l1.89,5.85Z"/><path d="M137.56,372.82v9.35h-2.38v-9.35Z"/><path d="M142.89,375.78v-.17a.84.84,0,0,0-.32-.66,1.2,1.2,0,0,0-.79-.27,1.24,1.24,0,0,0-.81.27.81.81,0,0,0-.34.66.63.63,0,0,0,.34.57,2.94,2.94,0,0,0,.9.37l.21,0,.23.05a4.64,4.64,0,0,1,1.89.78l.12.1a3,3,0,0,1,.63.92,2.57,2.57,0,0,1,0,2.19,3,3,0,0,1-.75,1,3.56,3.56,0,0,1-1.11.63,4.07,4.07,0,0,1-2.58,0,3.8,3.8,0,0,1-1.11-.63,3.29,3.29,0,0,1-.75-1,2.51,2.51,0,0,1-.26-1.14v-.17h2.31v.17a.84.84,0,0,0,.32.66,1.19,1.19,0,0,0,.78.27,1.26,1.26,0,0,0,.81-.27.81.81,0,0,0,.34-.66.77.77,0,0,0-.36-.58,1.61,1.61,0,0,0-.37-.2,5,5,0,0,0-.52-.15l-.43-.11a11,11,0,0,1-1.14-.33,2.42,2.42,0,0,1-.75-.45l-.06-.05a3.09,3.09,0,0,1-.69-.93,2.59,2.59,0,0,1,0-2.22,3.29,3.29,0,0,1,.75-1,3.56,3.56,0,0,1,1.11-.62,3.89,3.89,0,0,1,2.58,0,3.35,3.35,0,0,1,1.11.62,3,3,0,0,1,.75,1,2.64,2.64,0,0,1,.26,1.14v.17Z"/><path d="M148.35,372.82v9.35H146v-9.35Z"/><path d="M156.46,372.82v2.38h-2.4v7h-2.39v-7h-2.39v-2.38h7.18Z"/><path d="M163.74,380.14v2h-6.36v-9.35h6.24v2h-3.84v1.64H163v2h-3.24v1.64Z"/><path d="M168.9,372.78a5.91,5.91,0,0,1,1.41.34,4.23,4.23,0,0,1,1.29.81,4.68,4.68,0,0,1,1.14,1.6,4.84,4.84,0,0,1,.4,1.93,4.58,4.58,0,0,1-.51,2.15,4.23,4.23,0,0,1-1.45,1.66,5.09,5.09,0,0,1-1.9.74,13.82,13.82,0,0,1-2.36.18H164.8v-9.46h2.39C167.85,372.71,168.42,372.74,168.9,372.78Zm2,4.68a2.45,2.45,0,0,0-.32-1.2,2.56,2.56,0,0,0-.86-.9,2.34,2.34,0,0,0-1.2-.36h-1.3v4.88a10.94,10.94,0,0,0,1.64-.11,2.82,2.82,0,0,0,1.23-.53,2.07,2.07,0,0,0,.74-1.23A2.24,2.24,0,0,0,170.87,377.46Z"/><path d="M185.43,372.82h2.06v9.35h-2.38l-2.41-4-2.42,4H177.9v-9.35h2.38v5.27l1.17-2.11.06-.11h2.38l.06.11,1.16,2.11v-5.27Z"/><path d="M194.91,380.14v2h-6.36v-9.35h6.24v2h-3.85v1.64h3.24v2h-3.24v1.64Z"/><path d="M203,378.22a2.66,2.66,0,0,1,.31,1.25,2.61,2.61,0,0,1-.36,1.34,2.68,2.68,0,0,1-1,1,2.75,2.75,0,0,1-1.36.38H196V372.8h4.25a2.64,2.64,0,0,1,1.36.37,2.81,2.81,0,0,1,1,1,2.67,2.67,0,0,1,.35,1.33,2.54,2.54,0,0,1-.19,1,2.47,2.47,0,0,1-.51.82A2.71,2.71,0,0,1,203,378.22ZM200.54,375a.91.91,0,0,0-.68-.29h-1.71v2h1.71a1.42,1.42,0,0,0,.32-.05,1,1,0,0,0,.24-.13,1,1,0,0,0,.3-.36,1,1,0,0,0,.11-.46A.94.94,0,0,0,200.54,375Zm.4,4.93a.9.9,0,0,0,.27-.7.94.94,0,0,0-.22-.62.9.9,0,0,0-.57-.34h-2.27v2h2.11A.94.94,0,0,0,200.94,379.94Z"/><path d="M208.38,375.78v-.17a.84.84,0,0,0-.32-.66,1.2,1.2,0,0,0-.79-.27,1.24,1.24,0,0,0-.81.27.81.81,0,0,0-.34.66.62.62,0,0,0,.34.57,2.94,2.94,0,0,0,.9.37l.21,0,.23.05a4.64,4.64,0,0,1,1.89.78l.12.1a3,3,0,0,1,.63.92,2.57,2.57,0,0,1,0,2.19,3,3,0,0,1-.75,1,3.56,3.56,0,0,1-1.11.63,4.07,4.07,0,0,1-2.58,0,3.8,3.8,0,0,1-1.11-.63,3.29,3.29,0,0,1-.75-1,2.52,2.52,0,0,1-.27-1.14v-.17h2.32v.17a.84.84,0,0,0,.32.66,1.19,1.19,0,0,0,.78.27,1.28,1.28,0,0,0,.81-.27.83.83,0,0,0,.34-.66.77.77,0,0,0-.36-.58,1.86,1.86,0,0,0-.37-.2,5,5,0,0,0-.52-.15l-.43-.11a11,11,0,0,1-1.14-.33,2.42,2.42,0,0,1-.75-.45l-.06-.05a2.93,2.93,0,0,1-.69-.93,2.5,2.5,0,0,1,0-2.22,3.29,3.29,0,0,1,.75-1,3.56,3.56,0,0,1,1.11-.62,3.89,3.89,0,0,1,2.58,0,3.35,3.35,0,0,1,1.11.62,3,3,0,0,1,.75,1,2.64,2.64,0,0,1,.26,1.14v.17Z"/><path d="M213.84,372.82v9.35h-2.38v-9.35Z"/><path d="M222,372.82v2.38h-2.4v7h-2.39v-7h-2.39v-2.38H222Z"/><path d="M229.23,380.14v2h-6.36v-9.35h6.24v2h-3.85v1.64h3.24v2h-3.24v1.64Z"/><path class="cls-2" d="M44.05,298.4h3.12v14.14h-3.6l-3.64-6-3.66,6h-3.6V298.4h3.6v8l1.76-3.2.1-.16h3.6l.08.16,1.76,3.2v-8Z"/><path class="cls-2" d="M56.41,298.4H60v14.14h-3.6v-5.28h-4v5.28h-3.6V298.4h3.6v5.26h4Z"/><path class="cls-2" d="M69,298.54l4.62,14H70.11l-.92-2.86H64.81l-.9,2.86h-3.5l4.64-14Zm-3.22,8.22h2.52l-1.26-4Z"/><path class="cls-2" d="M84.65,298.4V302H81v10.54H77.41V302H73.79v-3.6H84.65Z"/><path class="cls-2" d="M95.65,298.4v14.14h-3.6V298.4Z"/><path class="cls-2" d="M107.91,298.4V302h-3.62v10.54h-3.62V302H97.05v-3.6h10.86Z"/><path class="cls-2" d="M118.91,298.4v14.14h-3.6V298.4Z"/><path class="cls-2" d="M127,302.88v-.26a1.29,1.29,0,0,0-.49-1,1.83,1.83,0,0,0-1.19-.41,1.92,1.92,0,0,0-1.23.41,1.25,1.25,0,0,0-.51,1,.9.9,0,0,0,.52.86,4,4,0,0,0,1.36.56l.31.06.35.08a7,7,0,0,1,2.86,1.18l.18.16a4.47,4.47,0,0,1,1,1.38,4.06,4.06,0,0,1,.35,1.6,3.94,3.94,0,0,1-.39,1.72,4.39,4.39,0,0,1-1.13,1.46,5.37,5.37,0,0,1-1.68.95,5.89,5.89,0,0,1-2,.33,5.79,5.79,0,0,1-2-.33,5.21,5.21,0,0,1-1.67-.95,4.3,4.3,0,0,1-1.14-1.46,3.81,3.81,0,0,1-.4-1.72v-.26h3.5v.26a1.23,1.23,0,0,0,.49,1,1.71,1.71,0,0,0,1.17.41,1.87,1.87,0,0,0,1.23-.41,1.22,1.22,0,0,0,.51-1,1.16,1.16,0,0,0-.54-.88,2.29,2.29,0,0,0-.56-.3q-.33-.12-.78-.24l-.66-.16a16.59,16.59,0,0,1-1.72-.5,3.18,3.18,0,0,1-1.14-.68l-.08-.08a4.26,4.26,0,0,1-1-1.4,3.71,3.71,0,0,1-.37-1.64,3.84,3.84,0,0,1,.4-1.72,4.5,4.5,0,0,1,1.14-1.46,5.41,5.41,0,0,1,1.67-.95,5.79,5.79,0,0,1,2-.33,5.89,5.89,0,0,1,2,.33,5.57,5.57,0,0,1,1.68.95A4.6,4.6,0,0,1,130,300.9a4,4,0,0,1,.39,1.72v.26Z"/><path class="cls-2" d="M149.13,298.42v8.74a5.41,5.41,0,0,1-.75,2.8,5.6,5.6,0,0,1-4.85,2.78h-.32a5.41,5.41,0,0,1-2.8-.75,5.49,5.49,0,0,1-2-2,5.41,5.41,0,0,1-.75-2.8v-8.74H141v7.94a3.38,3.38,0,0,0,.6,2.06,1.91,1.91,0,0,0,1.64.82h.32a2,2,0,0,0,1.63-.83,3.27,3.27,0,0,0,.63-2.05v-7.94Z"/><path class="cls-2" d="M157.19,302.88v-.26a1.29,1.29,0,0,0-.49-1,1.83,1.83,0,0,0-1.19-.41,1.92,1.92,0,0,0-1.23.41,1.25,1.25,0,0,0-.51,1,.9.9,0,0,0,.52.86,4,4,0,0,0,1.36.56l.31.06.35.08a7,7,0,0,1,2.86,1.18l.18.16a4.47,4.47,0,0,1,1,1.38,4.06,4.06,0,0,1,.35,1.6,3.94,3.94,0,0,1-.39,1.72,4.39,4.39,0,0,1-1.13,1.46,5.37,5.37,0,0,1-1.68.95,5.89,5.89,0,0,1-2,.33,5.79,5.79,0,0,1-2-.33,5.21,5.21,0,0,1-1.67-.95,4.3,4.3,0,0,1-1.14-1.46,3.81,3.81,0,0,1-.4-1.72v-.26h3.5v.26a1.23,1.23,0,0,0,.49,1,1.71,1.71,0,0,0,1.17.41,1.87,1.87,0,0,0,1.23-.41,1.22,1.22,0,0,0,.51-1,1.16,1.16,0,0,0-.54-.88,2.29,2.29,0,0,0-.56-.3q-.33-.12-.78-.24l-.66-.16a16.59,16.59,0,0,1-1.72-.5,3.18,3.18,0,0,1-1.14-.68l-.08-.08a4.26,4.26,0,0,1-1.05-1.4,3.71,3.71,0,0,1-.37-1.64,3.84,3.84,0,0,1,.4-1.72,4.5,4.5,0,0,1,1.14-1.46,5.41,5.41,0,0,1,1.67-.95,5.79,5.79,0,0,1,2-.33,5.89,5.89,0,0,1,2,.33,5.57,5.57,0,0,1,1.68.95,4.6,4.6,0,0,1,1.13,1.46,4,4,0,0,1,.39,1.72v.26Z"/><path class="cls-2" d="M171.47,309.48v3.06h-9.62V298.4h9.44v3.06h-5.82v2.48h4.9V307h-4.9v2.48Z"/><path class="cls-2" d="M179.27,298.35a8.93,8.93,0,0,1,2.13.51,6.31,6.31,0,0,1,1.95,1.22,7.15,7.15,0,0,1,1.73,2.43,7.37,7.37,0,0,1,.61,2.91,6.86,6.86,0,0,1-.78,3.26,6.5,6.5,0,0,1-2.19,2.5,7.61,7.61,0,0,1-2.88,1.13,21.1,21.1,0,0,1-3.57.27l-1.64,0-1.56,0v-14.3h3.62C177.69,298.24,178.55,298.28,179.27,298.35Zm3,7.07a3.63,3.63,0,0,0-.48-1.81,3.9,3.9,0,0,0-1.31-1.37,3.64,3.64,0,0,0-1.81-.54h-2v7.38a14.71,14.71,0,0,0,2.47-.17,4.16,4.16,0,0,0,1.86-.79,3.14,3.14,0,0,0,1.13-1.86A4.35,4.35,0,0,0,182.25,305.42Z"/><path class="cls-2" d="M202.73,301.46h-6.24v2.48h5V307h-5v5.54h-3.6V298.4h9.84Z"/><path class="cls-2" d="M214.27,299.36a7.17,7.17,0,0,1,3.56,6.2,7,7,0,0,1-1,3.58,7.12,7.12,0,0,1-2.6,2.6,7.17,7.17,0,0,1-7.17,0,7.08,7.08,0,0,1-2.61-2.6,6.93,6.93,0,0,1-1-3.58,7,7,0,0,1,1-3.59,7.1,7.1,0,0,1,2.61-2.61,7.17,7.17,0,0,1,7.17,0Zm-1.74,9.38a3.91,3.91,0,0,0,1.34-1.34,3.55,3.55,0,0,0,.5-1.84,3.64,3.64,0,0,0-.5-1.85,4,4,0,0,0-1.34-1.35,3.61,3.61,0,0,0-1.84-.5,3.65,3.65,0,0,0-1.86.5,3.85,3.85,0,0,0-1.34,1.35,3.55,3.55,0,0,0-.5,1.85,3.46,3.46,0,0,0,.5,1.84,3.74,3.74,0,0,0,1.34,1.34,3.56,3.56,0,0,0,1.86.5A3.51,3.51,0,0,0,212.53,308.74Z"/><path class="cls-2" d="M230.56,312.54H227l-2.24-5.34h-2.3v5.34H219V298.4h6.74a4.32,4.32,0,0,1,2.2.59,4.47,4.47,0,0,1,1.62,1.61,4.39,4.39,0,0,1,0,4.31,4.64,4.64,0,0,1-1.46,1.59Zm-4-10.77a1.36,1.36,0,0,0-.94-.47h-3.31v3h3.31a1.38,1.38,0,0,0,.94-.49,1.56,1.56,0,0,0,0-2Z"/><path class="cls-2" d="M232.36,305.84a1.81,1.81,0,0,1-.5-1.16,1.57,1.57,0,0,1,.46-1.17,1.6,1.6,0,0,1,1.16-.49,1.62,1.62,0,0,1,1.66,1.66,1.54,1.54,0,0,1-.49,1.16,1.59,1.59,0,0,1-1.17.48A1.5,1.5,0,0,1,232.36,305.84Zm0,6.22a1.81,1.81,0,0,1-.5-1.16,1.57,1.57,0,0,1,.46-1.17,1.6,1.6,0,0,1,1.16-.49,1.62,1.62,0,0,1,1.66,1.66,1.54,1.54,0,0,1-.49,1.16,1.59,1.59,0,0,1-1.17.48A1.5,1.5,0,0,1,232.36,312.06Z"/></svg>