<svg id="close_button" data-name="close button" xmlns="http://www.w3.org/2000/svg" width="24.578" height="21.517" viewBox="0 0 24.578 21.517">
  <path id="Контур_1879" data-name="Контур 1879" d="M190.829-1617.828c.44,0,.88,0,1.32,0,.1,0,.137.019.117.119a.485.485,0,0,0,0,.093q0,10.546,0,21.092c0,.174-.039.213-.213.213q-12.125-.008-24.251,0a.223.223,0,0,1-.045-.15c0-.442,0-.884,0-1.325a.194.194,0,0,1,.031-.108.376.376,0,0,1,.261-.066c.428,0,.856-.009,1.284,0,.123-.012.247-.007.37-.007H190.3c.49,0,.456.024.456-.45q0-8.783,0-17.566a2.8,2.8,0,0,1,.007-.3c-.012-.427,0-.854,0-1.281A.356.356,0,0,1,190.829-1617.828Z" transform="translate(-167.693 1617.831)" fill="#040506"/>
  <path id="Контур_1880" data-name="Контур 1880" d="M169.3-1597.835l-1.523.008c-.067-.071-.046-.16-.046-.243q0-9.725,0-19.449a.353.353,0,0,1,.046-.245H190.8q0,.762-.006,1.525a.332.332,0,0,1-.258.078c-.424,0-.847.009-1.271,0a3.6,3.6,0,0,1-.37.007H169.834c-.489,0-.455-.024-.455.451q0,8.018,0,16.036a2.776,2.776,0,0,1-.007.3c.012.426,0,.853,0,1.279A.329.329,0,0,1,169.3-1597.835Z" transform="translate(-167.661 1617.766)" fill="#fff"/>
  <path id="Контур_1881" data-name="Контур 1881" d="M166.446-1617.784v21.51c-.029-.016-.08.033-.091-.023a.926.926,0,0,1,0-.162q0-10.569,0-21.139C166.359-1617.657,166.263-1617.8,166.446-1617.784Z" transform="translate(-166.334 1617.788)" fill="#a7a7a6"/>
  <path id="Контур_1882" data-name="Контур 1882" d="M221.6-1584.872l1.517-.008c0,.077.005.154.005.232q0,8.947.006,17.893c0,.234-.056.29-.289.289q-10.492-.01-20.984-.006c-.077,0-.154,0-.231-.005q0-.759.008-1.518a.334.334,0,0,1,.258-.079c.424,0,.848-.009,1.272,0a3.153,3.153,0,0,1,.324-.007h17.6c.432,0,.432,0,.432-.428q0-7.265,0-14.53a2.814,2.814,0,0,1,.007-.3c-.013-.419,0-.839,0-1.258A.357.357,0,0,1,221.6-1584.872Z" transform="translate(-199.989 1586.408)" fill="#6d6e6e"/>
  <path id="Контур_1883" data-name="Контур 1883" d="M203.187-1568.014l-1.522.013q0-3.418,0-6.836,0-4.889,0-9.779c0-.186.024-.27.246-.27q9.807.01,19.613.005c.039,0,.077,0,.116,0q-.006.762-.012,1.523a.456.456,0,0,1-.351.078c-.71,0-1.42,0-2.13,0H203.7c-.43,0-.431,0-.431.43q0,7.194,0,14.387C203.265-1568.307,203.3-1568.146,203.187-1568.014Z" transform="translate(-200.02 1586.414)" fill="#d7d7d7"/>
  <path id="Контур_1884" data-name="Контур 1884" d="M234.584-1536.549q0-5.712,0-11.423c0-1.213.006-2.425-.005-3.638,0-.224.06-.281.282-.281q8.926.009,17.852,0c.1,0,.2,0,.3,0,0,.077.006.154.006.231q0,7.415.006,14.83c0,.235-.059.292-.292.292q-8.961-.01-17.922-.006C234.738-1536.542,234.661-1536.547,234.584-1536.549Z" transform="translate(-231.417 1554.949)" fill="#b3b2b2"/>
  <path id="Контур_1885" data-name="Контур 1885" d="M312.283-1518.885c.463,0,.926,0,1.389,0,.131,0,.17.036.167.167q-.012.6,0,1.2c0,.137-.045.166-.171.163-.386-.007-.772.005-1.158-.006-.156,0-.213.029-.207.2.014.394,0,.788.007,1.182,0,.121-.032.158-.155.156-.409-.007-.818.006-1.227-.007-.168-.005-.2.049-.2.207.012.37,0,.742.008,1.112.005.165-.027.228-.21.22-.385-.016-.772,0-1.158-.008-.13,0-.171.034-.168.166q.012.626,0,1.251c0,.135.043.167.17.164.378-.008.757.005,1.135-.006.171-.005.241.028.232.221-.017.378,0,.757-.008,1.135,0,.141.032.185.178.181.409-.011.818,0,1.227-.008.148,0,.18.043.177.182-.01.363.008.727-.008,1.089-.008.2.032.282.256.269.369-.022.741,0,1.111-.009.129,0,.172.031.169.165q-.013.6,0,1.2c0,.134-.041.166-.169.165q-1.389-.008-2.779,0c-.139,0-.163-.049-.161-.173.007-.394,0-.788.006-1.182,0-.139-.029-.186-.177-.182-.4.011-.8,0-1.2.007-.124,0-.156-.038-.154-.157.007-.386,0-.773.006-1.159,0-.161-.021-.225-.207-.222-.888.011-1.775.008-2.663,0-.146,0-.2.03-.194.188.012.394,0,.788.007,1.182,0,.132-.037.169-.168.167-.386-.008-.772.009-1.158-.008-.183-.008-.216.054-.21.22.012.386,0,.772.006,1.159,0,.117-.024.16-.151.159q-1.378-.008-2.756,0c-.122,0-.158-.033-.155-.155q.011-.614,0-1.228c0-.128.043-.153.159-.151.386.006.772-.006,1.158.006.166.005.227-.028.22-.211-.016-.385,0-.772-.008-1.158,0-.13.035-.171.167-.168.394.008.788-.005,1.181.007.158,0,.191-.049.187-.195-.01-.371.005-.742-.007-1.112-.006-.172.029-.241.221-.232.385.017.772,0,1.158.008.121,0,.159-.031.156-.154q-.011-.637,0-1.275c0-.126-.041-.154-.158-.152-.378.007-.757-.008-1.135.007-.185.007-.254-.03-.244-.233.019-.378,0-.757.008-1.135,0-.129-.032-.172-.166-.169-.393.008-.788,0-1.181.007-.156,0-.192-.046-.188-.194.01-.363-.013-.727.009-1.089.014-.225-.07-.263-.269-.255-.37.015-.741,0-1.111.007-.119,0-.16-.028-.157-.153q.012-.614,0-1.228c0-.125.039-.154.157-.153q1.378.007,2.756,0c.13,0,.151.047.149.161-.006.394,0,.788-.006,1.182,0,.147.032.2.188.194.393-.012.787,0,1.181-.007.133,0,.168.039.166.168-.008.386,0,.773-.006,1.159,0,.153.023.212.2.21.9-.01,1.791-.007,2.686,0,.137,0,.187-.027.183-.176-.011-.4,0-.8-.007-1.2,0-.123.035-.157.156-.155.393.007.788-.007,1.181.007.17.006.2-.051.2-.208-.011-.378,0-.757-.007-1.135,0-.146.029-.2.187-.195C311.372-1518.878,311.828-1518.885,312.283-1518.885Z" transform="translate(-295.287 1523.478)" fill="#040506"/>
</svg>
