<svg id="home" xmlns="http://www.w3.org/2000/svg" width="58" height="75.307" viewBox="0 0 58 75.307">
  <g id="Сгруппировать_282" data-name="Сгруппировать 282" transform="translate(2.556)">
    <g id="Сгруппировать_277" data-name="Сгруппировать 277" transform="translate(0)">
      <path id="Контур_2972" data-name="Контур 2972" d="M2331.643,2000.33c0-.418.018-.837,0-1.254-.015-.3.1-.393.391-.381.417.018.836,0,1.254,0a3.188,3.188,0,0,1,1.658-.148q1.642-.061,3.286,0c1.13-.04,2.259-.042,3.389,0q1.653-.061,3.305,0c.547-.055,1.094-.025,1.642-.026q3.817-.005,7.634,0a4.452,4.452,0,0,1,.675.027c.611-.05,1.223-.022,1.835-.023,2.932,0,5.865,0,8.8,0,.717,0,.729-.02.736-.729a5.193,5.193,0,0,1,.025-.724,4.189,4.189,0,0,1,.1-1.657c.306-.26.677-.169,1.022-.168.372,0,.518-.139.516-.514,0-.345-.093-.717.167-1.024a.977.977,0,0,1,.555-.121c.751-.006,1.5-.008,2.255,0a.879.879,0,0,1,.591.154.992.992,0,0,1,.161.689q.008,2.632,0,5.264a1.1,1.1,0,0,1-.13.653,3.2,3.2,0,0,1-1.68.15,14.435,14.435,0,0,1-1.774,0q-3.273.066-6.545,0a13.306,13.306,0,0,1-1.689,0c-1.622.061-3.244.021-4.866.024-1.14,0-2.28.037-3.42-.023a13.432,13.432,0,0,1-1.691,0c-1.654.061-3.308.021-4.962.024-1.076,0-2.152.038-3.227-.023a14.669,14.669,0,0,1-1.782,0q-3.263.064-6.526,0a4.527,4.527,0,0,1-1.639-.1Z" transform="translate(-2324.958 -1958.884)" fill="gray"/>
      <path id="Контур_2973" data-name="Контур 2973" d="M2305.6,2054.393c-.467,0-.933,0-1.4.016-.238.008-.346-.057-.345-.321q.015-2.147,0-4.294c0-.253.085-.338.335-.332.466.011.932,0,1.4-.01l.066.052a1.922,1.922,0,0,1,.109.987c0,.323.134.465.458.458.367-.008.735-.005,1.1.011a3.053,3.053,0,0,1,.628-.027h20.162a4.478,4.478,0,0,1,.627.028c2.229-.041,4.457-.045,6.686,0,1.646-.04,3.291-.045,4.937,0,.944-.05,1.888-.02,2.833-.016a.772.772,0,0,1,.458.121,2.214,2.214,0,0,1,.091,1.655.367.367,0,0,1-.14.13,2.62,2.62,0,0,1-1.006.085q-17.723,0-35.446,0h-.387c-1.083,0-.986-.006-.991.918A.679.679,0,0,1,2305.6,2054.393Z" transform="translate(-2303.856 -2001.32)" fill="#9e9d9d"/>
      <path id="Контур_2974" data-name="Контур 2974" d="M2311.092,2064.806c0-.4.024-.809,0-1.21-.023-.353.123-.467.448-.424a1.509,1.509,0,0,0,.194,0h37.432a1.775,1.775,0,0,1,0,1.634c-.161,0-.322.012-.483.012h-37.108C2311.414,2064.819,2311.253,2064.81,2311.092,2064.806Z" transform="translate(-2309.348 -2011.733)" fill="#616160"/>
      <path id="Контур_2975" data-name="Контур 2975" d="M2381.248,1988.538l-3.4.01a.664.664,0,0,1-.49.161c-.93,0-1.861.035-2.791-.018q-1.652.06-3.3,0-3.289.064-6.578,0-3.343.063-6.686,0a4.88,4.88,0,0,1-.579.028q-5.2,0-10.392,0a3.79,3.79,0,0,1-.627-.027,3.883,3.883,0,0,1-1.693-.119,1.946,1.946,0,0,1,.016-1.667l1.654-.025a1.314,1.314,0,0,1,.93-.166q7.283-.006,14.566,0,9.2,0,18.39,0a1.843,1.843,0,0,1,.948.118,2.012,2.012,0,0,1,.1,1.64Z" transform="translate(-2334.748 -1953.663)" fill="#616160"/>
      <path id="Контур_2976" data-name="Контур 2976" d="M2365.849,1851.042c0-.468.021-.936.008-1.4-.007-.256.089-.354.338-.329.112.011.226,0,.339,0q15.947,0,31.894,0c.753,0,.648-.094.658.678.005.355.008.709.012,1.064l-.065.066a4.962,4.962,0,0,1-1.644.087,2.788,2.788,0,0,1-.579.028q-14.226,0-28.452,0a3.542,3.542,0,0,1-.675-.026,8.477,8.477,0,0,1-1.7-.051A.306.306,0,0,1,2365.849,1851.042Z" transform="translate(-2350.941 -1849.307)" fill="#9e9d9d"/>
      <path id="Контур_2977" data-name="Контур 2977" d="M2387.067,1981.686H2352.49c-.1,0-.194-.007-.291-.011q0-.814-.006-1.628l.064-.069a.9.9,0,0,1,.51-.108c.914,0,1.828-.031,2.742.018,1.622-.061,3.244-.021,4.865-.024,1.14,0,2.28-.038,3.419.023a13.6,13.6,0,0,1,1.7,0,3.589,3.589,0,0,1,.579-.029q10.01,0,20.019,0a1.829,1.829,0,0,1,.947.119,2.008,2.008,0,0,1,.1,1.638Z" transform="translate(-2340.57 -1948.459)"/>
      <path id="Контур_2978" data-name="Контур 2978" d="M2503.469,1856.572c.451,0,.9.007,1.354,0,.207,0,.3.072.282.281-.009.128,0,.258,0,.386q0,12.575,0,25.149c0,.209.01.418.015.628a2.234,2.234,0,0,1,0,1.761,2.017,2.017,0,0,1-1.691-.009,1.575,1.575,0,0,1-.152-.984q0-11.413,0-22.825c0-.9-.038-1.8.026-2.706a3.277,3.277,0,0,1,.149-1.675Z" transform="translate(-2455.312 -1854.823)"/>
      <path id="Контур_2979" data-name="Контур 2979" d="M2346.97,1896.763c-.436,0-.871-.015-1.306,0-.243.006-.369-.066-.338-.327a2.156,2.156,0,0,0,0-.242q0-12.7-.011-25.4c0-.46.1-.64.579-.585a8.49,8.49,0,0,0,1.063-.006l.073.063a1.236,1.236,0,0,1,.12.7q0,10.963,0,21.927a2.548,2.548,0,0,1-.027.434,14.778,14.778,0,0,1,0,1.774,3.135,3.135,0,0,1-.146,1.649Z" transform="translate(-2335.345 -1865.174)" fill="#9e9d9d"/>
      <path id="Контур_2980" data-name="Контур 2980" d="M2517.209,1973.777c.419,0,.838.009,1.255-.016.31-.018.375.115.374.4q-.01,5.359,0,10.719c0,.354-.125.441-.448.422-.4-.023-.8-.006-1.207-.006l-.067-.068a1.035,1.035,0,0,1-.107-.562q-.007-4.468,0-8.936a1.175,1.175,0,0,1,.023-.24,7.025,7.025,0,0,1,.055-1.583A.273.273,0,0,1,2517.209,1973.777Z" transform="translate(-2465.748 -1943.83)" fill="#1f1f1f"/>
      <path id="Контур_2981" data-name="Контур 2981" d="M2340.128,1987.451q0,.818,0,1.635c.314.527.133,1.1.151,1.654.053.928.02,1.857.019,2.785a.664.664,0,0,1-.159.49l-1.664.005c0-2.025.014-4.049,0-6.073,0-.385.073-.56.5-.517C2339.354,1987.47,2339.742,1987.447,2340.128,1987.451Z" transform="translate(-2330.151 -1954.209)" fill="#9e9d9d"/>
      <path id="Контур_2982" data-name="Контур 2982" d="M2324.761,2025.041c0-.991.021-1.982.007-2.973,0-.311.085-.425.4-.409.414.021.831,0,1.246-.01l.007.037c.313.518.125,1.08.146,1.624a4.5,4.5,0,0,1-.1,1.727,2.292,2.292,0,0,1-1.574.121A.3.3,0,0,1,2324.761,2025.041Z" transform="translate(-2319.734 -1980.203)" fill="#9e9d9d"/>
      <path id="Контур_2983" data-name="Контур 2983" d="M2505.125,2027.989c0,.479-.007.959,0,1.438,0,.226-.081.313-.307.309-.448-.01-.9,0-1.343,0l-.066-.067a3.171,3.171,0,0,1-.066-1.432.393.393,0,0,1,.377-.378,2.816,2.816,0,0,1,1.336.067Z" transform="translate(-2455.334 -1984.881)" fill="#1f1f1f"/>
      <path id="Контур_2984" data-name="Контур 2984" d="M2484.275,2048.915c0,.447-.007.9,0,1.342.005.227-.083.312-.308.307-.479-.01-.959,0-1.438,0l-.065-.064a2.328,2.328,0,0,1,.046-1.6,2.529,2.529,0,0,1,1.7-.051Z" transform="translate(-2439.424 -2000.769)" fill="#1f1f1f"/>
      <path id="Контур_2985" data-name="Контур 2985" d="M2510.847,1968.236q.015-.865.03-1.73c.382,0,.766.021,1.146-.005.362-.025.521.075.493.472-.031.427.006.858.013,1.288l-.025-.007a2.365,2.365,0,0,1-1.527.1A.3.3,0,0,1,2510.847,1968.236Z" transform="translate(-2461.068 -1938.315)" fill="#616160"/>
      <path id="Контур_2986" data-name="Контур 2986" d="M2359,1858.168c0-.434.022-.869.01-1.3-.007-.253.085-.339.335-.333.434.012.869,0,1.3-.009l.029.03a2.191,2.191,0,0,1,.038,1.621,2.378,2.378,0,0,1-1.58.111A.3.3,0,0,1,2359,1858.168Z" transform="translate(-2345.735 -1854.788)" fill="#9e9d9d"/>
      <path id="Контур_2987" data-name="Контур 2987" d="M2352.144,1865.01c.005-.434.022-.869.011-1.3-.007-.252.082-.34.334-.334.434.011.868-.006,1.3-.011l.029.03a1.983,1.983,0,0,1,.006,1.646,1.951,1.951,0,0,1-1.652,0Z" transform="translate(-2340.531 -1859.982)" fill="#9e9d9d"/>
      <path id="Контур_2988" data-name="Контур 2988" d="M2511.931,2021.1c0,.448-.007.9,0,1.342,0,.226-.082.313-.308.308-.447-.01-.894,0-1.341,0h0a2.058,2.058,0,0,1-.11-1.5.311.311,0,0,1,.26-.26,2.051,2.051,0,0,1,1.5.11Z" transform="translate(-2460.493 -1979.636)" fill="#1f1f1f"/>
      <path id="Контур_2989" data-name="Контур 2989" d="M2317.918,2037.4c0-.435.021-.869.009-1.3-.007-.252.082-.341.334-.334.434.012.869-.005,1.3-.01l.03.03a2.124,2.124,0,0,1,.031,1.614,2.308,2.308,0,0,1-1.571.119A.3.3,0,0,1,2317.918,2037.4Z" transform="translate(-2314.536 -1990.916)" fill="#9e9d9d"/>
      <path id="Контур_2990" data-name="Контур 2990" d="M2498.272,2035.2c0,.447-.007.895,0,1.342.005.226-.082.313-.308.308-.447-.01-.895,0-1.342,0l-.068-.069a2.746,2.746,0,0,1-.068-1.333.361.361,0,0,1,.286-.352,2.086,2.086,0,0,1,1.5.108Z" transform="translate(-2450.127 -1990.352)" fill="#1f1f1f"/>
      <path id="Контур_2991" data-name="Контур 2991" d="M2311.064,2044.252c.005-.435.022-.87.01-1.3-.007-.252.083-.34.334-.333.434.012.869,0,1.3-.009l.03.03a2.062,2.062,0,0,1,.013,1.654,2.023,2.023,0,0,1-1.661-.009Z" transform="translate(-2309.331 -1996.12)" fill="#9e9d9d"/>
      <path id="Контур_2992" data-name="Контур 2992" d="M2491.389,2042.042c0,.447-.007.895,0,1.342.005.226-.081.313-.308.308-.447-.01-.894,0-1.342,0h0a2.057,2.057,0,0,1-.11-1.5.311.311,0,0,1,.26-.26,2.056,2.056,0,0,1,1.5.11Z" transform="translate(-2444.891 -1995.544)" fill="#1f1f1f"/>
      <path id="Контур_2993" data-name="Контур 2993" d="M2477.323,2055.733c0,.447-.008.895,0,1.341.005.227-.081.313-.308.308-.447-.01-.895,0-1.342,0l-.066-.065a2.2,2.2,0,0,1,.068-1.615,1.97,1.97,0,0,1,1.645.035Z" transform="translate(-2434.216 -2005.941)" fill="#1f1f1f"/>
      <path id="Контур_2994" data-name="Контур 2994" d="M2469.42,2064.2q0-.817,0-1.634h0a1.786,1.786,0,0,1,1.647,0h0c0,.447-.008.894,0,1.341.005.224-.079.315-.306.309C2470.314,2064.2,2469.867,2064.206,2469.42,2064.2Z" transform="translate(-2429.603 -2011.129)" fill="#1f1f1f"/>
      <path id="Контур_2995" data-name="Контур 2995" d="M2485.943,1994.965c-.447,0-.893.007-1.34,0-.225,0-.314.084-.31.309.009.446,0,.893,0,1.34l-1.729.014-.07-.057a4.217,4.217,0,0,1-.093-1.593,6.16,6.16,0,0,1,.053-1.584.345.345,0,0,1,.107-.132,2.72,2.72,0,0,1,1.14-.1c.3-.009.428-.132.433-.436a3.2,3.2,0,0,1,.076-1.1.322.322,0,0,1,.112-.121,2.363,2.363,0,0,1,1-.09c.324,0,.454-.133.462-.458.009-.343-.094-.71.15-1.021q.005-3.3.009-6.594l0,0c.293-.248.648-.159.978-.158.372,0,.523-.145.512-.516a2.337,2.337,0,0,1,.069-.911.328.328,0,0,1,.106-.125,1.108,1.108,0,0,1,.565-.1c.994-.006.9.047.907-.931a1.152,1.152,0,0,1,.083-.521.323.323,0,0,1,.125-.121,2.324,2.324,0,0,1,1.584.073l.013,9.89c-.447,0-.893.007-1.34,0-.225,0-.313.085-.309.31.009.447,0,.893,0,1.34-.447,0-.894.006-1.34,0-.225,0-.313.086-.309.31.009.479,0,.957,0,1.436-.447,0-.893.006-1.34,0-.225,0-.314.084-.31.309C2485.95,1994.072,2485.943,1994.519,2485.943,1994.965Z" transform="translate(-2439.444 -1948.466)" fill="#616160"/>
      <path id="Контур_2996" data-name="Контур 2996" d="M2396.192,1994.378l6.588,0a1.985,1.985,0,0,1,.05,1.644.954.954,0,0,1-.684.161c-.674.009-1.348,0-2.021,0-.324,0-.456.136-.463.461a1.821,1.821,0,0,1-.134,1.033,1.028,1.028,0,0,1-.694.15c-.629.007-1.258,0-1.886.005-.534.009-.557.042-.578.589-.012.3.061.62-.172.878l-9.98,0a2.015,2.015,0,0,1-.028-1.658,3.492,3.492,0,0,1,1.666-.129c1.3-.05,2.609-.011,3.913-.022.849-.007.848,0,.869-.835a1.092,1.092,0,0,1,.131-.652.983.983,0,0,1,.69-.156c.693-.009,1.386-.007,2.079,0,.346,0,.491-.133.495-.486C2396.035,1995.025,2395.945,1994.67,2396.192,1994.378Z" transform="translate(-2366.264 -1959.488)" fill="#aeae8f"/>
      <path id="Контур_2997" data-name="Контур 2997" d="M2413.636,2021.782h8.337a2.01,2.01,0,0,1,.039,1.621.814.814,0,0,1-.627.174c-.955.012-.886-.063-.9.932a.931.931,0,0,1-.164.681,2.282,2.282,0,0,1-1.628.015c-.277-.311-.166-.694-.182-1.049-.026-.538-.042-.564-.572-.576-.3-.006-.6.015-.906-.02a6.167,6.167,0,0,1-.723.019c-.849,0-.846,0-.86.832a1.07,1.07,0,0,1-.169.782,2.175,2.175,0,0,1-1.65-.011,3.6,3.6,0,0,1-.142-1.759C2413.51,2022.874,2413.32,2022.306,2413.636,2021.782Z" transform="translate(-2387.095 -1980.304)" fill="#e0dfd0"/>
      <path id="Контур_2998" data-name="Контур 2998" d="M2372.552,2021.782h8.24a2.327,2.327,0,0,1,.087,1.567.338.338,0,0,1-.114.131,2.279,2.279,0,0,1-1,.094c-.325,0-.452.135-.464.461-.016.391.113.81-.172,1.164a2.326,2.326,0,0,1-1.618,0c-.277-.318-.161-.706-.181-1.067-.028-.516-.045-.544-.558-.556-.306-.007-.613.015-.919-.02a5.551,5.551,0,0,1-.628.02c-.849,0-.846,0-.861.833a1.067,1.067,0,0,1-.169.782,2.18,2.18,0,0,1-1.649-.012,3.6,3.6,0,0,1-.143-1.759C2372.427,2022.874,2372.237,2022.306,2372.552,2021.782Z" transform="translate(-2355.891 -1980.304)" fill="#e0dfd0"/>
      <path id="Контур_2999" data-name="Контур 2999" d="M2428.3,2009.092c0-.383.022-.769,0-1.151s.084-.51.479-.5c.942.026,1.886.006,2.83,0a.822.822,0,0,1,.634-.172q3.476-.008,6.951,0a.865.865,0,0,1,.636.169c0,.386-.018.774.007,1.159.023.362-.073.507-.476.5C2435.675,2009.09,2431.989,2009.095,2428.3,2009.092Z" transform="translate(-2398.37 -1969.283)" fill="#9e9d9d"/>
      <path id="Контур_3000" data-name="Контур 3000" d="M2455.123,2021.782h6.594c.314.522.126,1.088.147,1.636a3.515,3.515,0,0,1-.143,1.744l-.009-.008a2.018,2.018,0,0,1-1.627.049c-.276-.311-.165-.693-.181-1.049-.026-.537-.042-.563-.572-.575-.3-.006-.6.015-.9-.02a5.559,5.559,0,0,1-.628.02c-.85,0-.846,0-.861.833a1.066,1.066,0,0,1-.169.782,2.18,2.18,0,0,1-1.649-.012,3.6,3.6,0,0,1-.142-1.759C2455,2022.874,2454.807,2022.306,2455.123,2021.782Z" transform="translate(-2418.604 -1980.304)" fill="#e0dfd0"/>
      <path id="Контур_3001" data-name="Контур 3001" d="M2337.931,2021.764l6.581,0a2.326,2.326,0,0,1,.087,1.567.333.333,0,0,1-.114.131,2.271,2.271,0,0,1-1,.094c-.325,0-.452.135-.465.461-.015.391.113.81-.171,1.164a2.334,2.334,0,0,1-1.617,0c-.276-.312-.164-.694-.181-1.05-.025-.538-.041-.563-.572-.574-.3-.006-.6.014-.906-.02a5.637,5.637,0,0,1-1.594-.06.339.339,0,0,1-.133-.124A2.148,2.148,0,0,1,2337.931,2021.764Z" transform="translate(-2329.587 -1980.291)" fill="#e0dfd0"/>
      <path id="Контур_3002" data-name="Контур 3002" d="M2450.24,2002.242l-8.222,0c0-.434.009-.868-.015-1.3-.015-.282.092-.35.358-.348.979.009,1.958-.005,2.938-.01a.724.724,0,0,1,.494-.155c.929,0,1.857-.035,2.785.019a9.164,9.164,0,0,1,1.181-.014.568.568,0,0,1,.471.173Q2450.234,2001.426,2450.24,2002.242Z" transform="translate(-2408.779 -1964.08)" fill="#1f1f1f"/>
      <path id="Контур_3003" data-name="Контур 3003" d="M2345.405,2003.882l0-3.289a2.341,2.341,0,0,1,1.568-.086.341.341,0,0,1,.131.113,2.259,2.259,0,0,1,.095,1c0,.326.134.455.461.465.36.011.748-.1,1.069.173a1.975,1.975,0,0,1-.047,1.618Z" transform="translate(-2335.413 -1964.075)" fill="#e0dfd0"/>
      <path id="Контур_3004" data-name="Контур 3004" d="M2359.043,2009.066l0-1.61.055-.073a4.235,4.235,0,0,1,1.616-.1,3.953,3.953,0,0,1,1.747.122,1.926,1.926,0,0,1-.03,1.66Z" transform="translate(-2345.771 -1969.265)" fill="#cececd"/>
      <path id="Контур_3005" data-name="Контур 3005" d="M2470.422,1996.01l-1.632-.024a1.719,1.719,0,0,1,0-1.62l3.282,0c0,.4-.016.8.013,1.193.028.371-.126.471-.471.451C2471.219,1995.985,2470.82,1996.007,2470.422,1996.01Z" transform="translate(-2428.972 -1959.48)" fill="#9e9d9d"/>
      <path id="Контур_3006" data-name="Контур 3006" d="M2373.137,2009.057q0-.815.006-1.63c.522-.328,1.094-.131,1.645-.153.553.02,1.127-.172,1.651.155q-.006.817-.011,1.633Z" transform="translate(-2356.476 -1969.255)" fill="#bfbebe"/>
      <path id="Контур_3007" data-name="Контур 3007" d="M2365.915,2023.418v-1.636h1.737v1.641A2.056,2.056,0,0,1,2365.915,2023.418Z" transform="translate(-2350.991 -1980.304)" fill="#eee"/>
      <path id="Контур_3008" data-name="Контур 3008" d="M2483.118,2023.394q0-.819,0-1.637l1.728-.008a1.717,1.717,0,0,1,.011,1.638h0A2.011,2.011,0,0,1,2483.118,2023.394Z" transform="translate(-2440.008 -1980.279)" fill="#eee"/>
      <path id="Контур_3009" data-name="Контур 3009" d="M2407.394,2023.414l0-1.632h1.64v1.641A1.827,1.827,0,0,1,2407.394,2023.414Z" transform="translate(-2382.495 -1980.304)" fill="#eee"/>
      <path id="Контур_3010" data-name="Контур 3010" d="M2450.529,2021.782v1.641a2.328,2.328,0,0,1-1.521.082.236.236,0,0,1-.116-.125q0-.8,0-1.6Z" transform="translate(-2414.011 -1980.304)" fill="#eee"/>
      <path id="Контур_3011" data-name="Контур 3011" d="M2490.323,2023.384q-.006-.818-.011-1.638h1.65c0,.429-.006.86.012,1.289.011.273-.1.364-.363.355C2491.183,2023.374,2490.752,2023.385,2490.323,2023.384Z" transform="translate(-2445.472 -1980.276)" fill="#9e9d9d"/>
      <path id="Контур_3012" data-name="Контур 3012" d="M2333.333,2021.764l-.009,1.639a1.84,1.84,0,0,1-1.64.007q0-.819,0-1.637Z" transform="translate(-2324.989 -1980.291)" fill="#afafaf"/>
      <path id="Контур_3013" data-name="Контур 3013" d="M2317.338,2044.3q.009-.812.018-1.624l1.634-.016.059.057a1.933,1.933,0,0,1,.1.941c0,.34.124.5.477.488a10.447,10.447,0,0,1,1.053.011,12.332,12.332,0,0,1,1.62,0q1.631-.062,3.262,0a12.892,12.892,0,0,1,1.671,0c1.122-.04,2.243-.043,3.365,0a12.9,12.9,0,0,1,1.671,0c1.089-.04,2.178-.043,3.268,0a12.911,12.911,0,0,1,1.667,0,3.679,3.679,0,0,1,1.671.122,1.928,1.928,0,0,1-.029,1.664q-6.693.006-13.386.01-4.059,0-8.118-.013A1.8,1.8,0,0,1,2317.338,2044.3Z" transform="translate(-2313.945 -1996.164)" fill="#e0dfd0"/>
      <path id="Контур_3014" data-name="Контур 3014" d="M2407.375,2050.546q0-.817,0-1.633c.52-.328,1.089-.133,1.638-.153a12.715,12.715,0,0,1,1.654,0,14,14,0,0,1,1.747,0,3.482,3.482,0,0,1,1.663.131,1.874,1.874,0,0,1-.02,1.658Z" transform="translate(-2382.48 -2000.764)" fill="#cececd"/>
      <path id="Контур_3015" data-name="Контур 3015" d="M2435.163,2045.368q0-.8,0-1.605a.209.209,0,0,1,.1-.118,1.211,1.211,0,0,1,.518-.071c.933-.006.868.056.874-.9a1.181,1.181,0,0,1,.088-.564.329.329,0,0,1,.129-.114,2.609,2.609,0,0,1,1.59.06c.224.276.148.606.16.918.021.561.033.573.606.593.312.011.643-.066.915.171a1.961,1.961,0,0,1-.042,1.638Z" transform="translate(-2403.585 -1995.583)" fill="#bfbebe"/>
      <path id="Контур_3016" data-name="Контур 3016" d="M2455.671,2050.573l-.012-1.618.054-.074a4.114,4.114,0,0,1,1.619-.1,3.7,3.7,0,0,1,1.635.114,2.224,2.224,0,0,1,.072,1.618l-.065.066Z" transform="translate(-2419.152 -2000.783)" fill="#aeae8f"/>
      <path id="Контур_3017" data-name="Контур 3017" d="M2312.756,2049.482l0,1.64c-.435,0-.87,0-1.3.017-.245.009-.352-.071-.341-.33.019-.435.014-.87.019-1.3Z" transform="translate(-2309.363 -2001.342)" fill="#eee"/>
      <path id="Контур_3018" data-name="Контур 3018" d="M2471.065,2057.435h-1.647q0-.822,0-1.644l0,0a2.279,2.279,0,0,1,1.529-.1.29.29,0,0,1,.13.115Q2471.072,2056.619,2471.065,2057.435Z" transform="translate(-2429.603 -2005.995)" fill="#616160"/>
      <path id="Контур_3019" data-name="Контур 3019" d="M2358.272,1997.669l-1.642.005-1.756-.006c-.242-.311-.144-.677-.152-1.02-.007-.323-.13-.465-.458-.459a9.758,9.758,0,0,1-1.055-.016,3.077,3.077,0,0,1-1.609-.139l-.026-.025a1.847,1.847,0,0,1,.013-1.615h11.624a1.961,1.961,0,0,1,.035,1.652,3.423,3.423,0,0,1-1.657.129c-.862.045-1.727,0-2.59.023-.508.011-.533.046-.556.552C2358.43,1997.063,2358.513,1997.4,2358.272,1997.669Z" transform="translate(-2339.963 -1959.503)" fill="#e0dfd0"/>
      <path id="Контур_3020" data-name="Контур 3020" d="M2400.532,1996.015v-1.628l6.679,0c0,.418-.01.837.012,1.255.015.3-.112.386-.4.383-1-.011-2,0-2.993,0A7.193,7.193,0,0,1,2400.532,1996.015Z" transform="translate(-2377.283 -1959.496)" fill="#cececd"/>
      <path id="Контур_3021" data-name="Контур 3021" d="M2459,1994.374l0,1.62h-3.3q0-.81,0-1.62Z" transform="translate(-2419.184 -1959.487)" fill="#8f8e8e"/>
      <path id="Контур_3022" data-name="Контур 3022" d="M2347,1994.351q-.006.808-.013,1.615l-1.617.011-.014-1.64Z" transform="translate(-2335.379 -1959.459)" fill="#eee"/>
      <path id="Контур_3023" data-name="Контур 3023" d="M2498.853,1986.841c0,.447-.009.894,0,1.341,0,.225-.084.315-.31.311-.446-.008-.894,0-1.34,0q0-.826,0-1.651h0A1.806,1.806,0,0,1,2498.853,1986.841Z" transform="translate(-2450.705 -1953.614)" fill="#9e9d9d"/>
      <path id="Контур_3024" data-name="Контур 3024" d="M2372.512,1856.587q4.473,0,8.947-.008,10.446,0,20.893,0a2.36,2.36,0,0,1,.1,1.567.355.355,0,0,1-.105.135,1.466,1.466,0,0,1-.747.1c-.725.01-.723.008-.732.752a1.569,1.569,0,0,1-.088.706.335.335,0,0,1-.131.119,2.6,2.6,0,0,1-1.719-.092,1.347,1.347,0,0,1-.141-.794c-.018-.646-.033-.668-.7-.671-1.48-.005-2.961,0-4.442,0h-7.241a5.7,5.7,0,0,1-.626-.026,4.1,4.1,0,0,1-.531.029q-5.92,0-11.84,0a1.545,1.545,0,0,1-.894-.133A1.9,1.9,0,0,1,2372.512,1856.587Z" transform="translate(-2355.854 -1854.829)" fill="#bfbebe"/>
      <path id="Контур_3025" data-name="Контур 3025" d="M2367.606,1856.615l.012,1.629a1.885,1.885,0,0,1-1.76,0l.027-1.62Z" transform="translate(-2350.948 -1854.858)" fill="#e0dfd0"/>
      <path id="Контур_3026" data-name="Контур 3026" d="M2497.2,1858.224q0-.823,0-1.645l1.643,0-.011,1.638A1.728,1.728,0,0,1,2497.2,1858.224Z" transform="translate(-2450.702 -1854.83)" fill="gray"/>
      <path id="Контур_3027" data-name="Контур 3027" d="M2428.362,1974.847l-21.316,0c-.1,0-.193-.009-.289-.014a1.919,1.919,0,0,1-.01-1.67,1.037,1.037,0,0,1,.649-.139q8.6-.007,17.2,0a2.121,2.121,0,0,1,.336.027,14.855,14.855,0,0,1,1.772,0,4.033,4.033,0,0,1,1.656.1,2.241,2.241,0,0,1,.067,1.624Z" transform="translate(-2381.861 -1943.268)" fill="#505050"/>
      <path id="Контур_3028" data-name="Контур 3028" d="M2373.607,1974.848h-8.337a1.929,1.929,0,0,1-.011-1.669,1.114,1.114,0,0,1,.7-.14q3.475-.006,6.951,0a1.174,1.174,0,0,1,.7.132A1.874,1.874,0,0,1,2373.607,1974.848Z" transform="translate(-2350.352 -1943.281)" fill="#505050"/>
      <path id="Контур_3029" data-name="Контур 3029" d="M2355.5,1973.208q0,.807-.006,1.616l-3.286.012q0-.821,0-1.643a3.089,3.089,0,0,1,1.649-.151,8.4,8.4,0,0,1,1.181-.014A.539.539,0,0,1,2355.5,1973.208Z" transform="translate(-2340.58 -1943.257)" fill="#60605f"/>
      <path id="Контур_3030" data-name="Контур 3030" d="M2400.536,1974.771l-.005-1.616a1.656,1.656,0,0,1,1.652,0q0,.808-.006,1.616Z" transform="translate(-2377.282 -1943.204)" fill="#605f5f"/>
      <path id="Контур_3031" data-name="Контур 3031" d="M2498.852,1981.7H2497.2q0-.824,0-1.648l0,.007a2.291,2.291,0,0,1,1.591-.091.34.34,0,0,1,.134.125,2.225,2.225,0,0,1-.079,1.611Z" transform="translate(-2450.704 -1948.47)" fill="#616160"/>
      <path id="Контур_3032" data-name="Контур 3032" d="M2491.424,1889.956l-1.664-.011a1.352,1.352,0,0,1-.172-.976q-.007-10.937,0-21.875c0-.468,0-.936,0-1.4a.873.873,0,0,1,.176-.636h0a1.353,1.353,0,0,1,.976-.159c.372,0,.517-.14.512-.512a1.353,1.353,0,0,1,.159-.976h0l1.634,0c.005.1.015.193.015.289q0,13.13,0,26.259l-.064.063A2.157,2.157,0,0,1,2491.424,1889.956Z" transform="translate(-2444.914 -1860.014)" fill="#616160"/>
      <path id="Контур_3033" data-name="Контур 3033" d="M2503.424,1973.745l1.636-.017.032.032a1.842,1.842,0,0,1-.021,1.632l.006-.006a1.839,1.839,0,0,1-1.631.021l-.032-.032a1.822,1.822,0,0,1,.017-1.636Z" transform="translate(-2455.281 -1943.807)" fill="#616160"/>
      <path id="Контур_3034" data-name="Контур 3034" d="M2352.218,1870.274l1.627-.019.067.063a4.743,4.743,0,0,1,.09,1.634c.06,1.706.02,3.413.024,5.12,0,1.014.038,2.029-.023,3.042a14.724,14.724,0,0,1,0,1.78c.042,1.635.045,3.271,0,4.906a13.025,13.025,0,0,1,0,1.674c.039,1.082.042,2.164,0,3.246a6.131,6.131,0,0,1-.062,1.627.346.346,0,0,1-.123.135,2.141,2.141,0,0,1-1.6-.081q-.008-4.6-.015-9.193,0-6.678,0-13.355C2352.2,1870.66,2352.213,1870.467,2352.218,1870.274Z" transform="translate(-2340.575 -1865.217)" fill="#fefdfa"/>
      <path id="Контур_3035" data-name="Контур 3035" d="M2352.222,1966.5l1.635.012a1.949,1.949,0,0,1-.008,1.724l-1.642.016Q2352.215,1967.378,2352.222,1966.5Z" transform="translate(-2340.58 -1938.318)" fill="#e0dfd0"/>
      <path id="Контур_3036" data-name="Контур 3036" d="M2510.891,1975.447l.021-1.632,1.625-.015-.009,1.634Z" transform="translate(-2461.102 -1943.862)" fill="#9e9d9d"/>
      <path id="Контур_3037" data-name="Контур 3037" d="M2331.683,2028.577l1.641-.007,0,0a2.206,2.206,0,0,1,.047,1.732,2.155,2.155,0,0,1-1.619.08l-.066-.066Z" transform="translate(-2324.989 -1985.457)" fill="#eee"/>
      <path id="Контур_3038" data-name="Контур 3038" d="M2324.825,2037.456q.006-.816.012-1.632l1.635-.012-.005,0a2.315,2.315,0,0,1,.089,1.59.338.338,0,0,1-.125.134,2.207,2.207,0,0,1-1.607-.079Z" transform="translate(-2319.781 -1990.956)" fill="#eee"/>
      <path id="Контур_3039" data-name="Контур 3039" d="M2477.292,2050.532l-1.633.015-.03-.031a1.99,1.99,0,0,1-.005-1.645,1.959,1.959,0,0,1,1.652,0l.031.031Q2477.3,2049.716,2477.292,2050.532Z" transform="translate(-2434.183 -2000.739)" fill="#616160"/>
      <path id="Контур_3040" data-name="Контур 3040" d="M2360.675,1863.386h1.76l12.535.01c.242,0,.484.007.725.011a1.93,1.93,0,0,1,.03,1.664.678.678,0,0,1-.452.139c-.98.006-1.961.037-2.941-.016a13.1,13.1,0,0,1-1.676,0c-1.09.04-2.18.043-3.27,0a12.91,12.91,0,0,1-1.672,0q-1.643.062-3.286,0c-.965.053-1.931.021-2.9.018a.666.666,0,0,1-.49-.167l-.007-.006q.01-.814.02-1.628Z" transform="translate(-2345.764 -1860)" fill="#fefefe"/>
      <path id="Контур_3041" data-name="Контур 3041" d="M2483.118,2028.567l1.741-.007c0,.462-.01.924,0,1.385.008.265-.083.372-.355.364-.461-.014-.923,0-1.385,0Z" transform="translate(-2440.008 -1985.452)" fill="#9e9d9d"/>
      <path id="Контур_3042" data-name="Контур 3042" d="M2475.662,2035.771l1.656.009q-.005.821-.011,1.641a1.925,1.925,0,0,1-1.629.044,2.256,2.256,0,0,1-.08-1.625Z" transform="translate(-2434.212 -1990.929)" fill="#bfbebe"/>
      <path id="Контур_3043" data-name="Контур 3043" d="M2475.709,2042.644l1.627-.012q0,.819,0,1.638l-1.615.031-.069-.055a2.513,2.513,0,0,1-.007-1.544Z" transform="translate(-2434.241 -1996.14)" fill="#9e9d9d"/>
      <path id="Контур_3044" data-name="Контур 3044" d="M2504.064,1980.642l1.632-.021c0,.447-.009.894,0,1.341,0,.225-.085.314-.31.31-.447-.008-.895,0-1.342,0Q2504.054,1981.458,2504.064,1980.642Z" transform="translate(-2455.901 -1949.042)" fill="#9e9d9d"/>
      <path id="Контур_3045" data-name="Контур 3045" d="M2394.706,2001.164l3.3.007c0,.4-.023.808,0,1.21.02.344-.113.442-.446.438-1.5-.016-3-.01-4.5-.013a1.776,1.776,0,0,1,.006-1.637Z" transform="translate(-2371.457 -1964.645)" fill="#bfbebe"/>
      <path id="Контур_3046" data-name="Контур 3046" d="M2383.278,2001.164q0,.819-.005,1.637l-1.638.011-1.654-.007c0-.419.015-.839,0-1.258-.012-.3.105-.394.4-.39C2381.342,2001.17,2382.31,2001.163,2383.278,2001.164Z" transform="translate(-2361.671 -1964.639)" fill="#cececd"/>
      <path id="Контур_3047" data-name="Контур 3047" d="M2420.985,2030.262c.008-.429.035-.859.018-1.287-.013-.323.078-.464.424-.442.444.028.891.011,1.337.014a2.3,2.3,0,0,1,.034,1.72,2.562,2.562,0,0,1-1.68.116A.3.3,0,0,1,2420.985,2030.262Z" transform="translate(-2392.817 -1985.429)" fill="#9e9d9d"/>
      <path id="Контур_3048" data-name="Контур 3048" d="M2428.357,2030.127l.006-1.74c.527.005,1.236-.194,1.531.07.335.3.073,1.022.1,1.56a.479.479,0,0,1-.014.1l-.056.065a2.608,2.608,0,0,1-1.509.011Z" transform="translate(-2398.417 -1985.269)"/>
      <path id="Контур_3049" data-name="Контур 3049" d="M2441.942,2030.18c.007-.418.036-.838.013-1.256-.019-.351.079-.5.455-.473.4.025.8-.014,1.205-.025l.016.024-.019.022a2.247,2.247,0,0,1,.044,1.715,2.3,2.3,0,0,1-1.583.116A.283.283,0,0,1,2441.942,2030.18Z" transform="translate(-2408.734 -1985.35)" fill="#9e9d9d"/>
      <path id="Контур_3050" data-name="Контур 3050" d="M2406.766,2028.569l1.642.009q0,.861-.008,1.722l-.061.07a1.189,1.189,0,0,1-1.563-1.791Z" transform="translate(-2381.867 -1985.459)"/>
      <path id="Контур_3051" data-name="Контур 3051" d="M2413.637,2035.739l1.634-.009.036.031a2.435,2.435,0,0,1,.081,1.563.345.345,0,0,1-.115.136,3.019,3.019,0,0,1-1.583.013.329.329,0,0,1-.126-.13,2.374,2.374,0,0,1,.079-1.609Z" transform="translate(-2387.104 -1990.898)" fill="#aeae8f"/>
      <path id="Контур_3052" data-name="Контур 3052" d="M2434.572,2035.733l1.642-.012.033.034a1.821,1.821,0,0,1-.015,1.641l.009-.01a2.31,2.31,0,0,1-1.6.089.338.338,0,0,1-.134-.126,2.307,2.307,0,0,1,.073-1.621Z" transform="translate(-2403.006 -1990.891)" fill="#9e9d9d"/>
      <path id="Контур_3053" data-name="Контур 3053" d="M2365.28,2028.584l1.737,0q0,.863-.006,1.725l-.062.069a2.359,2.359,0,0,1-1.705-.061,2.1,2.1,0,0,1,.045-1.733Z" transform="translate(-2350.355 -1985.47)"/>
      <path id="Контур_3054" data-name="Контур 3054" d="M2386.233,2028.552c.448,0,.9.008,1.345-.011.234-.01.3.068.294.3-.02.48-.014.96-.019,1.441l-.061.069a1.189,1.189,0,0,1-1.559-1.8Z" transform="translate(-2366.263 -1985.438)"/>
      <path id="Контур_3055" data-name="Контур 3055" d="M2381.593,2028.55l-.016,1.74-.059.06a3.119,3.119,0,0,1-1.486.03.248.248,0,0,1-.118-.116c.007-.434.03-.868.015-1.3-.01-.308.085-.441.409-.423C2380.755,2028.562,2381.174,2028.548,2381.593,2028.55Z" transform="translate(-2361.623 -1985.435)" fill="#bfbebe"/>
      <path id="Контур_3056" data-name="Контур 3056" d="M2402.133,2028.553l-.014,1.736-.06.06a3.144,3.144,0,0,1-1.487.029.25.25,0,0,1-.119-.116c.007-.435.031-.87.015-1.3-.011-.308.08-.441.407-.422C2401.294,2028.563,2401.713,2028.55,2402.133,2028.553Z" transform="translate(-2377.223 -1985.433)" fill="#aeae8f"/>
      <path id="Контур_3057" data-name="Контур 3057" d="M2372.555,2035.731l1.636-.015.03.033a2.415,2.415,0,0,1,.083,1.564.348.348,0,0,1-.115.136,3.017,3.017,0,0,1-1.583.014.331.331,0,0,1-.126-.13,2.371,2.371,0,0,1,.078-1.606Z" transform="translate(-2355.901 -1990.887)" fill="#bfbebe"/>
      <path id="Контур_3058" data-name="Контур 3058" d="M2393.091,2035.731l1.64-.013.032.034a2.429,2.429,0,0,1,.081,1.563.347.347,0,0,1-.115.136,3.017,3.017,0,0,1-1.583.013.331.331,0,0,1-.126-.13,2.358,2.358,0,0,1,.081-1.608Z" transform="translate(-2371.501 -1990.889)" fill="#aeae8f"/>
      <path id="Контур_3059" data-name="Контур 3059" d="M2448.891,2030.344l0-1.737,1.64,0q0,.861-.008,1.722l-.055.066a2.6,2.6,0,0,1-1.514.012Z" transform="translate(-2414.011 -1985.486)"/>
      <path id="Контур_3060" data-name="Контур 3060" d="M2462.484,2030.263c.007-.435.031-.871.015-1.305-.012-.308.078-.441.406-.421.418.025.838.011,1.258.014a2.748,2.748,0,0,1,.086,1.651.366.366,0,0,1-.108.139,3.089,3.089,0,0,1-1.534.041A.265.265,0,0,1,2462.484,2030.263Z" transform="translate(-2424.336 -1985.432)" fill="#9e9d9d"/>
      <path id="Контур_3061" data-name="Контур 3061" d="M2469.412,2030.128l.013-1.742c.526.005,1.235-.194,1.531.069.335.3.072,1.022.1,1.56a.635.635,0,0,1-.01.1h.007A1.751,1.751,0,0,1,2469.412,2030.128Z" transform="translate(-2429.598 -1985.269)"/>
      <path id="Контур_3062" data-name="Контур 3062" d="M2455.123,2035.732l1.637-.011.033.034a2.43,2.43,0,0,1,.081,1.562.349.349,0,0,1-.115.136,3.014,3.014,0,0,1-1.583.013.329.329,0,0,1-.126-.13,2.374,2.374,0,0,1,.079-1.609Z" transform="translate(-2418.613 -1990.891)" fill="#9e9d9d"/>
      <path id="Контур_3063" data-name="Контур 3063" d="M2338.42,2030.285q.009-.859.018-1.718l1.663.005a1.2,1.2,0,0,1-1.551,1.836A.286.286,0,0,1,2338.42,2030.285Z" transform="translate(-2330.108 -1985.457)" fill="#bfbebe"/>
      <path id="Контур_3064" data-name="Контур 3064" d="M2345.388,2030.3q0-.872,0-1.744c.449,0,.9.008,1.345-.011.234-.01.3.068.294.3-.019.48-.013.96-.017,1.441l-.055.066a2.62,2.62,0,0,1-1.511.011Z" transform="translate(-2335.4 -1985.438)"/>
      <path id="Контур_3065" data-name="Контур 3065" d="M2360.647,2028.553l-.017,1.734-.058.061a3.082,3.082,0,0,1-1.486.031.248.248,0,0,1-.118-.116c.007-.434.03-.869.015-1.3-.01-.308.085-.441.409-.423C2359.81,2028.562,2360.229,2028.55,2360.647,2028.553Z" transform="translate(-2345.715 -1985.435)" fill="#bfbebe"/>
      <path id="Контур_3066" data-name="Контур 3066" d="M2351.608,2035.73l1.639-.014.03.033a2.416,2.416,0,0,1,.084,1.564.347.347,0,0,1-.115.136,3.015,3.015,0,0,1-1.583.014.333.333,0,0,1-.126-.13,2.361,2.361,0,0,1,.08-1.606Z" transform="translate(-2339.992 -1990.887)" fill="#bfbebe"/>
      <path id="Контур_3067" data-name="Контур 3067" d="M2352.2,2001.216l1.642,0a1.763,1.763,0,0,1,0,1.615v.039c-.431-.007-.862-.029-1.292-.017-.265.007-.373-.071-.359-.349C2352.206,2002.079,2352.2,2001.647,2352.2,2001.216Z" transform="translate(-2340.561 -1964.684)" fill="#72b63e"/>
      <path id="Контур_3068" data-name="Контур 3068" d="M2359.057,2002.633q0-.807,0-1.615c.527,0,1.237-.2,1.533.067.337.3.085,1.022.1,1.561Z" transform="translate(-2345.782 -1964.481)" fill="#098036"/>
      <path id="Контур_3069" data-name="Контур 3069" d="M2361.824,2043.709h-3.414a1.815,1.815,0,0,1,.017-1.646l-.011.01a2.994,2.994,0,0,1,1.641-.155,3.854,3.854,0,0,1,1.732.127l.033.033A1.87,1.87,0,0,1,2361.824,2043.709Z" transform="translate(-2345.147 -1995.57)" fill="#bfbebe"/>
      <path id="Контур_3070" data-name="Контур 3070" d="M2341.24,2043.72h-3.317a2.41,2.41,0,0,1-.075-1.582.336.336,0,0,1,.123-.133,5.109,5.109,0,0,1,1.619-.074,3.389,3.389,0,0,1,1.613.125l.035.034A1.873,1.873,0,0,1,2341.24,2043.72Z" transform="translate(-2329.6 -1995.58)" fill="#bfbebe"/>
      <path id="Контур_3071" data-name="Контур 3071" d="M2403.213,2043.711l-1.661.008-1.656-.009a1.808,1.808,0,0,1,.018-1.644l-.01.01c.52-.319,1.086-.145,1.636-.156.545.021,1.108-.162,1.629.139a.079.079,0,0,0,.044.019A1.886,1.886,0,0,1,2403.213,2043.711Z" transform="translate(-2376.657 -1995.571)" fill="#bfbebe"/>
      <path id="Контур_3072" data-name="Контур 3072" d="M2382.672,2043.71h-3.317a1.815,1.815,0,0,1,.017-1.646l-.011.011a2.989,2.989,0,0,1,1.638-.155c.546.02,1.109-.161,1.632.137l.042.021A1.892,1.892,0,0,1,2382.672,2043.71Z" transform="translate(-2361.055 -1995.57)" fill="#bfbebe"/>
      <path id="Контур_3073" data-name="Контур 3073" d="M2324.807,2042.644l1.651.008a1.85,1.85,0,0,1,.006,1.636c-.432,0-.863-.005-1.294.009-.265.009-.376-.087-.367-.36C2324.817,2043.507,2324.807,2043.076,2324.807,2042.644Z" transform="translate(-2319.765 -1996.149)" fill="#bfbebe"/>
      <path id="Контур_3074" data-name="Контур 3074" d="M2331.69,2043.664l-.006-1.636v0a1.781,1.781,0,0,1,1.648-.011l-.018,1.646Z" transform="translate(-2324.99 -1995.524)"/>
      <path id="Контур_3075" data-name="Контур 3075" d="M2352.252,2044.285v-1.63l1.642-.016q-.009.823-.017,1.646Z" transform="translate(-2340.613 -1996.146)"/>
      <path id="Контур_3076" data-name="Контур 3076" d="M2374.834,2042.639l-.017,1.646h-1.623q0-.816,0-1.631Z" transform="translate(-2356.517 -1996.146)"/>
      <path id="Контур_3077" data-name="Контур 3077" d="M2393.742,2044.291q0-.816,0-1.632l1.639-.012q-.009.822-.018,1.644Z" transform="translate(-2372.126 -1996.151)"/>
      <path id="Контур_3078" data-name="Контур 3078" d="M2422.2,2043.674h-1.761a1.809,1.809,0,0,1,.018-1.645l-.01.01a2.123,2.123,0,0,1,1.757-.03A1.908,1.908,0,0,1,2422.2,2043.674Z" transform="translate(-2392.259 -1995.533)" fill="#bfbebe"/>
      <path id="Контур_3079" data-name="Контур 3079" d="M2415.926,2042.647q-.009.823-.018,1.645h-1.624q0-.816,0-1.633Z" transform="translate(-2387.728 -1996.151)"/>
      <path id="Контур_3080" data-name="Контур 3080" d="M2428.306,2043.725l-.017-1.663.069-.058a2.367,2.367,0,0,1,1.568.058l.033.033a1.849,1.849,0,0,1-.006,1.622.053.053,0,0,1-.012.046Z" transform="translate(-2398.365 -1995.584)" fill="#9e9d9d"/>
      <path id="Контур_3081" data-name="Контур 3081" d="M2442.015,2037.452l.015-1.641,1.64-.007-.01-.01a2.046,2.046,0,0,1,.063,1.576l-.069.06Z" transform="translate(-2408.79 -1990.946)"/>
      <path id="Контур_3082" data-name="Контур 3082" d="M2435.21,2044.286l.006-1.622,1.64-.016c0,.45-.015.9,0,1.351.007.225-.054.314-.293.3C2436.111,2044.283,2435.66,2044.291,2435.21,2044.286Z" transform="translate(-2403.621 -1996.153)"/>
      <path id="Контур_3083" data-name="Контур 3083" d="M2450.468,2043.709c-.381-.009-.764-.04-1.144-.02-.363.02-.526-.08-.5-.476s0-.795,0-1.193v.012a1.905,1.905,0,0,1,1.637-.018l.034.034a1.863,1.863,0,0,1,0,1.625Z" transform="translate(-2413.962 -1995.538)" fill="#9e9d9d"/>
      <path id="Контур_3084" data-name="Контур 3084" d="M2455.763,2044.284l0-1.625,1.639-.017a1.749,1.749,0,0,1-.015,1.646Z" transform="translate(-2419.231 -1996.147)"/>
      <path id="Контур_3085" data-name="Контур 3085" d="M2462.525,2043.726q.007-.823.015-1.646l-.009.009a2.333,2.333,0,0,1,1.573-.1.36.36,0,0,1,.138.113,2.717,2.717,0,0,1,0,1.57l-.065.061Z" transform="translate(-2424.367 -1995.586)" fill="#9e9d9d"/>
      <path id="Контур_3086" data-name="Контур 3086" d="M2471.074,2048.9q-.015.808-.031,1.616l-1.628.021q0-.825,0-1.65l.005,0a1.851,1.851,0,0,1,1.628-.012Z" transform="translate(-2429.596 -2000.738)" fill="#9e9d9d"/>
      <path id="Контур_3087" data-name="Контур 3087" d="M2484.269,1870.262q0,12.446,0,24.891l-1.748-.006a1.2,1.2,0,0,1-.167-.879q-.007-6.361,0-12.721,0-4.449,0-8.9a3.484,3.484,0,0,1,.026-.675,4.839,4.839,0,0,1,.092-1.64l.069-.062Z" transform="translate(-2439.419 -1865.223)" fill="#7f8080"/>
      <path id="Контур_3088" data-name="Контур 3088" d="M2427.705,1865.052q0-.818,0-1.636,6.378-.005,12.756-.018c.354,0,.443.13.427.452-.02.4,0,.8,0,1.208l-.008-.007c-.288.244-.637.162-.961.156-.393-.007-.542.152-.527.536a2.181,2.181,0,0,1-.071.9.334.334,0,0,1-.115.127,3.1,3.1,0,0,1-1.57.013.323.323,0,0,1-.124-.119,2.561,2.561,0,0,1-.089-1c-.007-.3-.124-.441-.432-.441-.691,0-1.382,0-2.073,0-.329,0-.448.143-.46.463-.014.36.1.745-.165,1.069a2.5,2.5,0,0,1-1.636,0c-.257-.287-.159-.641-.176-.97-.026-.517-.048-.555-.552-.562q-.918-.013-1.837,0c-.528.007-.549.042-.571.593-.013.315.069.65-.162.93a2.321,2.321,0,0,1-1.672-.014A1.964,1.964,0,0,1,2427.705,1865.052Z" transform="translate(-2397.77 -1860.009)" fill="#eee"/>
      <path id="Контур_3089" data-name="Контур 3089" d="M2492,1863.415c0,.43-.009.861.005,1.29.009.268-.094.371-.362.363-.43-.014-.86,0-1.29-.006,0-.446.009-.891,0-1.337,0-.224.085-.313.309-.309C2491.107,1863.424,2491.552,1863.416,2492,1863.415Z" transform="translate(-2445.501 -1860.022)" fill="#7f8080"/>
      <path id="Контур_3090" data-name="Контур 3090" d="M2388.86,1876.484c0,.42.013.839.013,1.259q0,10.677,0,21.354c0,.21-.007.419-.01.629l-17.23.011c-.323,0-.645.01-.967.015h-9.977l-1.654-.031q0-.862.008-1.724l-.005-.008a3.249,3.249,0,0,1,1.669-.148,4.168,4.168,0,0,1,.676-.028h24.73c.933,0,.934,0,.934-.913q0-8.2,0-16.406a3.886,3.886,0,0,1,.027-.676,13.335,13.335,0,0,1,0-1.679,3.066,3.066,0,0,1,.151-1.649h0A1.791,1.791,0,0,1,2388.86,1876.484Z" transform="translate(-2345.765 -1869.801)" fill="#bfbebe"/>
      <path id="Контур_3091" data-name="Контур 3091" d="M2498.852,1973.773q-.009.818-.018,1.636l-1.635.018q.007-.822.014-1.645Z" transform="translate(-2450.704 -1943.841)"/>
      <path id="Контур_3092" data-name="Контур 3092" d="M2359.067,1884.721V1876.5a1.943,1.943,0,0,1,1.678-.022,1.082,1.082,0,0,1,.143.7q.007,3.432,0,6.864a1.154,1.154,0,0,1-.135.7A1.879,1.879,0,0,1,2359.067,1884.721Z" transform="translate(-2345.789 -1869.804)" fill="#e0dfd0"/>
      <path id="Контур_3093" data-name="Контур 3093" d="M2359.067,1922.915q0-2.466,0-4.933a1.953,1.953,0,0,1,1.676-.025,1,1,0,0,1,.144.647q.008,1.837,0,3.673a1.059,1.059,0,0,1-.136.651A1.889,1.889,0,0,1,2359.067,1922.915Z" transform="translate(-2345.789 -1901.314)" fill="#e0dfd1"/>
      <path id="Контур_3094" data-name="Контур 3094" d="M2360.721,1871.931l-1.655,0q0-.824,0-1.647h3.391a2.01,2.01,0,0,1,.028,1.666A2.191,2.191,0,0,1,2360.721,1871.931Z" transform="translate(-2345.788 -1865.237)" fill="#eee"/>
      <path id="Контур_3095" data-name="Контур 3095" d="M2359.062,1948.662v-3.291a1.98,1.98,0,0,1,1.673-.027.452.452,0,0,1,.116.261,23.626,23.626,0,0,1,0,2.8.462.462,0,0,1-.114.263A1.868,1.868,0,0,1,2359.062,1948.662Z" transform="translate(-2345.786 -1922.118)" fill="#e0dfd0"/>
      <path id="Контур_3096" data-name="Контур 3096" d="M2360.694,1913.084l-1.628,0q0-.875,0-1.751l1.627,0A1.8,1.8,0,0,1,2360.694,1913.084Z" transform="translate(-2345.789 -1896.42)" fill="#eee"/>
      <path id="Контур_3097" data-name="Контур 3097" d="M2359.05,1959.669l1.652,0,.063.066a2.142,2.142,0,0,1-.073,1.581l-1.646,0Q2359.048,1960.491,2359.05,1959.669Z" transform="translate(-2345.774 -1933.125)" fill="#eee"/>
      <path id="Контур_3098" data-name="Контур 3098" d="M2360.691,1940.779l-1.629,0q0-.826,0-1.652l1.627.005A1.648,1.648,0,0,1,2360.691,1940.779Z" transform="translate(-2345.786 -1917.528)" fill="#eee"/>
      <path id="Контур_3099" data-name="Контур 3099" d="M2333.312,2037.377l-1.648.011q0-.827-.006-1.654l1.626-.023.033.035a1.8,1.8,0,0,1-.016,1.641Z" transform="translate(-2324.972 -1990.883)" fill="#bfbebe"/>
      <path id="Контур_3100" data-name="Контур 3100" d="M2416.995,1870.276q0,.815,0,1.63a.5.5,0,0,1-.43.181c-.855.023-1.71.022-2.565,0a.689.689,0,0,1-.41-.127,1.907,1.907,0,0,1,.016-1.682Z" transform="translate(-2387.06 -1865.233)" fill="#e0dfd0"/>
      <path id="Контур_3101" data-name="Контур 3101" d="M2373.145,1871.915q0-.814.005-1.627h3.286a1.948,1.948,0,0,1,.026,1.675.784.784,0,0,1-.5.14q-1.149.02-2.3,0A.6.6,0,0,1,2373.145,1871.915Z" transform="translate(-2356.482 -1865.242)" fill="#e0dfd0"/>
      <path id="Контур_3102" data-name="Контур 3102" d="M2393.066,1870.288h3.286a1.958,1.958,0,0,1,.028,1.673.41.41,0,0,1-.216.1,19.678,19.678,0,0,1-2.9,0,.439.439,0,0,1-.219-.1A1.909,1.909,0,0,1,2393.066,1870.288Z" transform="translate(-2371.458 -1865.242)" fill="#e0dfd0"/>
      <path id="Контур_3103" data-name="Контур 3103" d="M2388.485,1870.288l-.005,1.627a1.643,1.643,0,0,1-1.644,0q0-.814-.005-1.627Z" transform="translate(-2366.877 -1865.242)" fill="#eee"/>
      <path id="Контур_3104" data-name="Контур 3104" d="M2407.379,1871.915q0-.814-.005-1.627h1.654q0,.813-.005,1.627A1.643,1.643,0,0,1,2407.379,1871.915Z" transform="translate(-2382.479 -1865.242)" fill="#eee"/>
      <path id="Контур_3105" data-name="Контур 3105" d="M2468.782,2035.784l1.643-.018q.005.831.011,1.663l-.01-.007a1.684,1.684,0,0,1-1.609-.006l-.025-.016-.021.021a1.8,1.8,0,0,1,.02-1.644Z" transform="translate(-2428.969 -1990.925)" fill="#eee"/>
      <path id="Контур_3106" data-name="Контур 3106" d="M2469.46,2042.625l1.609.006q-.005.817-.011,1.634l-1.628.012Q2469.445,2043.451,2469.46,2042.625Z" transform="translate(-2429.612 -1996.135)" fill="#e0dfd0"/>
      <path id="Контур_3107" data-name="Контур 3107" d="M2422.805,2037.426l-1.736.027q.008-.821.016-1.642l1.737-.006-.01-.01a1.721,1.721,0,0,1-.006,1.649Z" transform="translate(-2392.881 -1990.947)"/>
      <path id="Контур_3108" data-name="Контур 3108" d="M2428.289,2037.413l.006-1.649,1.648-.01q-.008.82-.016,1.641Z" transform="translate(-2398.365 -1990.917)" fill="#eee"/>
      <path id="Контур_3109" data-name="Контур 3109" d="M2408.369,2037.4l-1.624.008a1.794,1.794,0,0,1,.017-1.646l-.011.006,1.644-.02Z" transform="translate(-2381.856 -1990.912)" fill="#e0dfd0"/>
      <path id="Контур_3110" data-name="Контур 3110" d="M2366.988,2037.4l-1.729.021a1.8,1.8,0,0,1,.016-1.648l-.013,0,1.743-.013Q2367,2036.58,2366.988,2037.4Z" transform="translate(-2350.346 -1990.922)" fill="#e0dfd0"/>
      <path id="Контур_3111" data-name="Контур 3111" d="M2387.83,2037.4l-1.626.011a1.79,1.79,0,0,1,.016-1.648l-.012.006,1.647-.018Q2387.842,2036.578,2387.83,2037.4Z" transform="translate(-2366.253 -1990.916)" fill="#eee"/>
      <path id="Контур_3112" data-name="Контур 3112" d="M2381.637,2035.8l-.016,1.648-1.644.007.015-1.643Z" transform="translate(-2361.671 -1990.951)"/>
      <path id="Контур_3113" data-name="Контур 3113" d="M2402.185,2035.805q-.008.823-.017,1.646l-1.641.009q.007-.821.015-1.642Z" transform="translate(-2377.279 -1990.955)"/>
      <path id="Контур_3114" data-name="Контур 3114" d="M2450.463,2037.388l-1.637.018q0-.824.007-1.648l1.646-.011Z" transform="translate(-2413.963 -1990.911)" fill="#e0dfd0"/>
      <path id="Контур_3115" data-name="Контур 3115" d="M2464.21,2035.81l-.02,1.644-1.639.008q.008-.82.016-1.639Z" transform="translate(-2424.387 -1990.959)"/>
      <path id="Контур_3116" data-name="Контур 3116" d="M2338.491,2037.448l.016-1.641,1.643,0-.013-.012a1.728,1.728,0,0,1,0,1.651Z" transform="translate(-2330.162 -1990.943)"/>
      <path id="Контур_3117" data-name="Контур 3117" d="M2345.326,2037.422q0-.825,0-1.651l1.648-.006q-.01.817-.019,1.635Z" transform="translate(-2335.353 -1990.925)" fill="#eee"/>
      <path id="Контур_3118" data-name="Контур 3118" d="M2360.691,2035.8q-.008.824-.016,1.648l-1.643.008.015-1.643Z" transform="translate(-2345.763 -1990.949)"/>
      <path id="Контур_3119" data-name="Контур 3119" d="M2477.889,1871.905l-1.632.007c0-.436.008-.872,0-1.307-.006-.248.091-.349.341-.343.435.01.871,0,1.307,0Q2477.895,1871.085,2477.889,1871.905Z" transform="translate(-2434.794 -1865.223)" fill="#e0dfd0"/>
      <path id="Контур_3120" data-name="Контур 3120" d="M2375.83,1876.473h6.68a7.924,7.924,0,0,1,3.3,0h1.643c.026-.019.05-.049.079-.054a9.609,9.609,0,0,1,3.1-.008c.046.007.078.055.115.086l0,0a2.189,2.189,0,0,1,.082,1.606.349.349,0,0,1-.137.127.762.762,0,0,1-.327.074c-2.057.009-4.115.04-6.172-.014a12.984,12.984,0,0,1-1.666,0,12.843,12.843,0,0,1-1.662,0c-1.12.04-2.24.043-3.36,0a1626.488,1626.488,0,0,0-3.333,0c-1.791.06-3.582.01-5.373.027-1.091.01-1.013-.095-1.014,1.03q0,6.512,0,13.024a4.853,4.853,0,0,1-.027.677c.04.305.019.613.029.919.016.5.054.537.569.554.178.006.355,0,.533,0H2383.5a3.828,3.828,0,0,1,.628.026,1267.626,1267.626,0,0,0,3.338,0c.939-.055,1.878-.022,2.817-.018a.717.717,0,0,1,.493.148,2.382,2.382,0,0,1,.1,1.42.451.451,0,0,1-.428.4,3.921,3.921,0,0,1-.677.032q-11.5,0-23,0c-.316,0-.653.065-.922-.187l0,0q-.011-1.644-.023-3.289v-8.328q.007-3.654.016-7.309c0-.306.007-.613.011-.919l1.73-.022h8.237Z" transform="translate(-2350.93 -1869.801)" fill="#003030"/>
      <path id="Контур_3121" data-name="Контур 3121" d="M2459,1871.916l-3.29-.024c0-.419.011-.838,0-1.257-.008-.261.075-.381.356-.377.87.011,1.74.01,2.611,0,.258,0,.337.113.332.351C2459,1871.046,2459,1871.481,2459,1871.916Z" transform="translate(-2419.189 -1865.22)" fill="#e0dfd0"/>
      <path id="Контур_3122" data-name="Контур 3122" d="M2438.459,1871.884h-3.3c0-.4.015-.8,0-1.2-.012-.3.065-.44.4-.432q1.252.027,2.5,0c.333-.008.411.135.4.432C2438.444,1871.081,2438.458,1871.483,2438.459,1871.884Z" transform="translate(-2403.582 -1865.212)" fill="#e0dfd0"/>
      <path id="Контур_3123" data-name="Контур 3123" d="M2469.406,1878.772l-.021-1.646,1.655,0q0,.825-.008,1.65A1.792,1.792,0,0,1,2469.406,1878.772Z" transform="translate(-2429.578 -1870.433)" fill="#e0dfd0"/>
      <path id="Контур_3124" data-name="Контур 3124" d="M2365.9,1906.736q12.27,0,24.54.012c.266,0,.371-.061.354-.344-.027-.434-.016-.87-.021-1.305a.977.977,0,0,1-.163-.689q0-6.766,0-13.532a1.168,1.168,0,0,1,.134-.7,1.9,1.9,0,0,1,1.685,0q0,8.879.014,17.758c0,.365-.113.464-.47.464q-13.04-.016-26.081-.013Q2365.9,1907.561,2365.9,1906.736Z" transform="translate(-2350.973 -1880.199)" fill="#e0dfd0"/>
      <path id="Контур_3125" data-name="Контур 3125" d="M2470.416,1885.6l-1.624,0a1.769,1.769,0,0,1-.03-1.649l.027.008h1.627Z" transform="translate(-2428.961 -1875.618)" fill="#eee"/>
      <path id="Контур_3126" data-name="Контур 3126" d="M2373.152,1898.863q-.007-5.679-.014-11.358c0-1.063.006-2.127,0-3.19,0-.263.068-.37.351-.368,2.079.014,4.157.014,6.235.019a1.927,1.927,0,0,1,.034,1.658,1.711,1.711,0,0,1-1.034.15c-.328.008-.461.144-.463.469,0,.646.006,1.291,0,1.937-.012.755-.13.876-.872.887-.581.009-1.162,0-1.743,0-.645.006-.673.031-.675.693,0,2.76,0,5.52,0,8.279a1.365,1.365,0,0,1-.14.844A1.889,1.889,0,0,1,2373.152,1898.863Z" transform="translate(-2356.473 -1875.616)" fill="#009e9e"/>
      <path id="Контур_3127" data-name="Контур 3127" d="M2447.971,1883.949q.015.825.03,1.649-.008,3.212-.016,6.422-.009,4.249-.016,8.5l-3.284-.012a2.079,2.079,0,0,1-.046-1.613c.279-.268.633-.171.96-.186.545-.024.572-.046.575-.631,0-.639-.024-.666-.563-.692-.328-.016-.68.08-.966-.179a2.233,2.233,0,0,1,.02-1.638,1.066,1.066,0,0,1,.737-.165c.759-.02.761-.018.762-.8q0-2.226,0-4.452c0-1.258.006-2.516,0-3.774,0-.564-.043-.595-.61-.606-.29-.006-.581.01-.87-.024-.947.053-1.894.022-2.841.017a.732.732,0,0,1-.456-.131,1.946,1.946,0,0,1,.007-1.674Z" transform="translate(-2408.169 -1875.618)" fill="#006060"/>
      <path id="Контур_3128" data-name="Контур 3128" d="M2373.143,1945.38l1.637,0a.658.658,0,0,1,.489-.168c2.027,0,4.055-.04,6.082.018,2.123-.056,4.246-.018,6.369-.021a8.22,8.22,0,0,1,1.875.067.413.413,0,0,1,.151.115,2.071,2.071,0,0,1-.06,1.628q-8.071.005-16.14.015c-.3,0-.444-.071-.422-.4C2373.15,1946.218,2373.138,1945.8,2373.143,1945.38Z" transform="translate(-2356.464 -1922.133)" fill="#018080"/>
      <path id="Контур_3129" data-name="Контур 3129" d="M2413.6,1884.013l3.389,0a1.926,1.926,0,0,1,.03,1.667c-.059.026.022.016-.04.026a9.21,9.21,0,0,1-3.383-.016A1.913,1.913,0,0,1,2413.6,1884.013Z" transform="translate(-2387.06 -1875.664)" fill="#018080"/>
      <path id="Контур_3130" data-name="Контур 3130" d="M2400.521,1885.647q0-.811,0-1.621h1.657a1.972,1.972,0,0,1,.019,1.663A1.919,1.919,0,0,1,2400.521,1885.647Z" transform="translate(-2377.273 -1875.677)" fill="#018080"/>
      <path id="Контур_3131" data-name="Контур 3131" d="M2407.4,1885.647q0-.811,0-1.621h1.636q0,.811,0,1.621A1.662,1.662,0,0,1,2407.4,1885.647Z" transform="translate(-2382.502 -1875.677)" fill="#009e9e"/>
      <path id="Контур_3132" data-name="Контур 3132" d="M2449.943,1945.435q0,.819-.005,1.638H2448.3a2.27,2.27,0,0,1-.1-1.562.353.353,0,0,1,.114-.137,2.752,2.752,0,0,1,1.564,0Z" transform="translate(-2413.423 -1922.184)" fill="#018080"/>
      <path id="Контур_3133" data-name="Контур 3133" d="M2443.655,1945.354q0,.819.005,1.638H2442q0-.818.006-1.636A1.78,1.78,0,0,1,2443.655,1945.354Z" transform="translate(-2408.779 -1922.103)" fill="#006060"/>
      <path id="Контур_3134" data-name="Контур 3134" d="M2436.192,1884.009l.005,1.627a1.94,1.94,0,0,1-1.667.042,1.914,1.914,0,0,1,.028-1.669Z" transform="translate(-2402.97 -1875.664)" fill="#018080"/>
      <path id="Контур_3135" data-name="Контур 3135" d="M2429.966,1884.009q0,.813,0,1.627a1.706,1.706,0,0,1-1.649,0l-.005-1.627Z" transform="translate(-2398.378 -1875.663)" fill="#006060"/>
      <path id="Контур_3136" data-name="Контур 3136" d="M2391.6,1890.769h3.293l3.291.013a.823.823,0,0,1,.179.631q.008,1.857,0,3.714a.975.975,0,0,1-.136.6,2.085,2.085,0,0,1-1.695.014.976.976,0,0,1-.165-.688c-.008-.58,0-1.159,0-1.74,0-.695-.017-.711-.7-.713-1.45,0-2.9,0-4.349,0-1.562-.009-3.124.034-4.685-.023-.367.018-.735.018-1.1.011-.331-.007-.467.146-.448.466.006.1,0,.192,0,.288.01.515.042.552.541.563.336.008.672,0,1.009.014,2.059-.055,4.117-.021,6.175-.017a.73.73,0,0,1,.456.132,2.173,2.173,0,0,1,.022,1.7,1.306,1.306,0,0,1-.884.157q-4.74.007-9.48,0c-.177,0-.354,0-.532,0-.534.017-.571.053-.585.587a8.973,8.973,0,0,1-.027.966c.053,1.354.01,2.709.024,4.064.007.7.012.708.7.71,1.113,0,2.226,0,3.339,0a1.2,1.2,0,0,1,.747.14,1.948,1.948,0,0,1-.014,1.669l-6.586.009c0-3.175,0-6.351-.013-9.526,0-.371.117-.467.47-.456.789.024,1.58-.009,2.369.015.354.011.483-.083.47-.456-.027-.8.007-1.612-.015-2.417-.01-.344.108-.452.442-.434.4.022.805,0,1.208-.006h3.293Z" transform="translate(-2361.663 -1880.796)" fill="#33398d"/>
      <path id="Контур_3137" data-name="Контур 3137" d="M2380.818,1890.812c.816,0,.816,0,.815.964,0,.683,0,.689-1,.68-.781-.007-.637.11-.644-.987C2379.985,1890.7,2379.909,1890.824,2380.818,1890.812Z" transform="translate(-2361.676 -1880.83)" fill="#50bcc3"/>
      <path id="Контур_3138" data-name="Контур 3138" d="M2455.148,1895.742q.005-2.469.01-4.938c.418,0,.837.009,1.255-.008.283-.011.4.078.4.381q-.011,4.609,0,9.218c0,.3-.109.4-.4.385-.418-.016-.837,0-1.255,0l-.068-.067a.949.949,0,0,1-.105-.514q-.01-1.931,0-3.862A.826.826,0,0,1,2455.148,1895.742Z" transform="translate(-2418.64 -1880.818)" fill="#018080"/>
      <path id="Контур_3139" data-name="Контур 3139" d="M2443.09,1935.006h-1.648a.738.738,0,0,1-.174-.538c-.01-.741-.019-1.483,0-2.225.016-.546.156-.686.7-.7.741-.022,1.483-.013,2.225,0a.737.737,0,0,1,.538.174h0q0,.824,0,1.647l-.056.06a1.624,1.624,0,0,1-.8.1c-.6.015-.614.029-.632.617-.01.3.065.612-.162.87Z" transform="translate(-2408.213 -1911.755)" fill="#018080"/>
      <path id="Контур_3140" data-name="Контур 3140" d="M2455.086,1939.1a10.831,10.831,0,0,1,1.294.009c.712.085.261.651.333.986.048.224.215.66-.332.652-.432-.006-.863,0-1.3,0l0,0a1.781,1.781,0,0,1,0-1.649Z" transform="translate(-2418.565 -1917.494)" fill="#018080"/>
      <path id="Контур_3141" data-name="Контур 3141" d="M2419.019,1916.4c-.964,0-1.927.011-2.89-.006-.316-.006-.415.094-.409.409.018.963.006,1.927.006,2.89l-8.325-.011,0-1.62a.539.539,0,0,1,.475-.182c.929-.007,1.86-.039,2.789.015.869-.046,1.739-.009,2.608-.022.61-.009.625-.025.636-.621.014-.821-.03-1.643.023-2.464a6.391,6.391,0,0,1,.054-1.6.36.36,0,0,1,.113-.139,3.082,3.082,0,0,1,1.569-.03.325.325,0,0,1,.126.109,2.222,2.222,0,0,1,.092.991c0,.349.148.5.491.475.143-.009.288-.006.431,0,.282.007.4-.13.405-.407,0-.367-.013-.734.015-1.1a4.607,4.607,0,0,1,.089-1.656l.068-.058,1.623,0Q2419.013,1913.883,2419.019,1916.4Z" transform="translate(-2382.497 -1896.442)" fill="#1f1f1f"/>
      <path id="Контур_3142" data-name="Контур 3142" d="M2450.511,1939.135v1.649h-1.649c0-.43.011-.859,0-1.289-.008-.267.1-.371.363-.362C2449.651,1939.146,2450.081,1939.135,2450.511,1939.135Z" transform="translate(-2413.988 -1917.53)" fill="#006060"/>
      <path id="Контур_3143" data-name="Контур 3143" d="M2398.429,1917.987q0,.82-.005,1.64c-.271.245-.608.169-.919.163-.381-.007-.541.121-.55.523-.025,1.109-.04,1.108-1.124,1.13-.586.011-.6.028-.616.639-.008.282.059.584-.167.823l-3.29.032c-1.5-.005-3-.022-4.494-.007-.354,0-.464-.077-.458-.448.027-1.5.019-3,.024-4.494a1.967,1.967,0,0,1,1.642-.05.958.958,0,0,1,.159.688c.009.644.013,1.289,0,1.933-.008.383.127.552.53.548,1.176-.014,2.353-.011,3.528,0,.386,0,.577-.136.54-.534a1.3,1.3,0,0,1,0-.145c.017-.892.077-.952.97-.97.661-.014.66-.017.678-.684a1.218,1.218,0,0,1,.161-.834.92.92,0,0,1,.553-.131c.753-.008,1.506-.01,2.259,0A.691.691,0,0,1,2398.429,1917.987Z" transform="translate(-2366.858 -1901.316)" fill="#e0dfd0"/>
      <path id="Контур_3144" data-name="Контур 3144" d="M2398.435,1913.086l-3.386.008a.863.863,0,0,1-.636.164q-2.651.007-5.3,0a.864.864,0,0,1-.636-.164l-1.639-.006c0-.451.008-.9-.02-1.352-.02-.324.1-.407.413-.4,1.627.013,3.254,0,4.881.006q3.166,0,6.33.011a2.059,2.059,0,0,1,.027,1.734Z" transform="translate(-2366.864 -1896.415)" fill="#9e9dce"/>
      <path id="Контур_3145" data-name="Контур 3145" d="M2406.762,1897.661q4.812-.008,9.625-.021c.275,0,.357.079.354.354-.011.983,0,1.967.006,2.95l-.02-.008a2.061,2.061,0,0,1-1.63.058c-.214-.223-.166-.509-.172-.777-.016-.749-.012-.746-.742-.759a1.068,1.068,0,0,1-.739-.15l-5.914-.017c-.257,0-.513-.01-.769-.015A1.723,1.723,0,0,1,2406.762,1897.661Z" transform="translate(-2381.862 -1886.017)" fill="#cecbe6"/>
      <path id="Контур_3146" data-name="Контур 3146" d="M2435.165,1904.311c.538,0,1.256-.242,1.562.095.269.3.084,1.005.1,1.531a1.956,1.956,0,0,1-.034,1.753l-1.607,0q-.013-.867-.026-1.734Q2435.162,1905.131,2435.165,1904.311Z" transform="translate(-2403.582 -1891.019)" fill="#203c8c"/>
      <path id="Контур_3147" data-name="Контур 3147" d="M2401.959,1897.674v1.615c-.144.006-.288.015-.431.015-1.362,0-1.381-.025-1.223-1.4.026-.229.134-.251.311-.247C2401.063,1897.666,2401.511,1897.669,2401.959,1897.674Z" transform="translate(-2377.06 -1886.029)" fill="#a3cbed"/>
      <path id="Контур_3148" data-name="Контур 3148" d="M2421.057,1928.706c0-.4.021-.8,0-1.2-.021-.348.121-.454.448-.432s.642,0,.963.007c.247.008.349-.092.34-.34-.011-.289.015-.579-.006-.866-.024-.328.084-.469.432-.448.4.025.8,0,1.2,0,.006,1,0,2,.021,3,0,.232-.068.3-.3.3C2423.121,1928.711,2422.089,1928.712,2421.057,1928.706Z" transform="translate(-2392.867 -1907.117)" fill="#cececd"/>
      <path id="Контур_3149" data-name="Контур 3149" d="M2441.949,1913.092q.017-.877.034-1.753h1.621q0,.875-.006,1.75a1.763,1.763,0,0,1-1.62,0Z" transform="translate(-2408.74 -1896.421)" fill="#b89ecb"/>
      <path id="Контур_3150" data-name="Контур 3150" d="M2442.023,1918.606l1.62,0c0,.128.014.257.015.385.006,1.337.006,1.331-1.354,1.266-.232-.011-.3-.075-.3-.3C2442.026,1919.506,2442.019,1919.056,2442.023,1918.606Z" transform="translate(-2408.784 -1901.94)" fill="#cecbe6"/>
      <path id="Контур_3151" data-name="Контур 3151" d="M2393.678,1918.659h6.574c0,.4-.015.807.012,1.208.024.352-.125.435-.45.435-.38,0-.862-.178-1.116.085s-.084.74-.078,1.12c.006.342-.111.443-.446.439q-2.03-.023-4.061,0c-.329,0-.456-.087-.448-.434C2393.687,1920.561,2393.676,1919.61,2393.678,1918.659Z" transform="translate(-2372.067 -1901.98)" fill="#fefefe"/>
    </g>
    <path id="Контур_4047" data-name="Контур 4047" d="M-80.57-56h1.683v5.05h5.05V-56h1.683v13.467h-1.683v-6.734h-5.05v6.734H-80.57Zm11.784,5.033h3.4v1.7h-3.4Zm-1.683,6.734v-5.033h1.683v5.033Zm5.084-5.033H-63.7v5.033h-1.683Zm-3.4,6.717v-1.667h3.4v1.667Zm6.767-8.4h6.734v1.683h-1.683v6.734h-1.683v-6.734h-1.683v6.734h-1.683Zm6.734,1.683H-53.6v6.734h-1.683Zm10.1-.034H-43.5v1.717h-1.683v-1.683h-5.05V-50.95h5.05Zm-5.05.034v1.683h5.05V-45.9h-5.05v1.683h-1.683v-5.05Zm5.05,6.75h-5.05v-1.7h5.05Z" transform="translate(87.648 113.837)"/>
  </g>
  <g id="Прямоугольник_155" data-name="Прямоугольник 155" transform="translate(0 55.307)" fill="none" stroke="#000" stroke-width="1" stroke-dasharray="3 3" opacity="0">
    <rect width="58" height="20" stroke="none"/>
    <rect x="0.5" y="0.5" width="57" height="19" fill="none"/>
  </g>
</svg>
