<svg id="mail_button" data-name="mail button" xmlns="http://www.w3.org/2000/svg" width="67.588" height="54.885" viewBox="0 0 67.588 54.885">
  <g id="Сгруппировать_253" data-name="Сгруппировать 253">
    <path id="Контур_1888" data-name="Контур 1888" d="M868.375-2782.719h65.062a9.058,9.058,0,0,1,.014,2.417c-.293.355-.6.125-.9.172a1.3,1.3,0,0,1-.366.019H869.849c-.557,0-.515-.068-.515,1.415q0,22.652,0,45.3c0,.288.005.576-.007.864a18.782,18.782,0,0,1-.06,2.464.562.562,0,0,1-.9-.021,6.466,6.466,0,0,1-.014-.725q0-25.6,0-51.191A3.826,3.826,0,0,1,868.375-2782.719Z" transform="translate(-868.256 2782.719)" fill="#fff"/>
    <path id="Контур_1889" data-name="Контур 1889" d="M868.354-2730.083l.892-.025a.284.284,0,0,1,.284-.2c.125-.007.249,0,.374,0q32.115,0,64.229,0c.661,0,.592.132.592-1.567q0-23.587,0-47.174a5.09,5.09,0,0,1,.074-1.29q0-1.189.006-2.378h.9a3.731,3.731,0,0,1,.023.717q0,26.726,0,53.451a3.736,3.736,0,0,1-.023.718H868.353A20.988,20.988,0,0,1,868.354-2730.083Z" transform="translate(-868.236 2782.719)" fill="#060708"/>
    <path id="Контур_1890" data-name="Контур 1890" d="M867.835-2730.083l0,2.25c-.274-.119-.125-.359-.125-.531q-.014-10.486-.008-20.972,0-16.393.008-32.785c0-.194-.153-.45.125-.6Q867.834-2756.4,867.835-2730.083Z" transform="translate(-867.667 2782.719)" fill="#b3b1b1"/>
    <path id="Контур_1891" data-name="Контур 1891" d="M2218.412-2727.833v-54.885c.274.12.125.359.125.531q.014,10.731.008,21.462,0,16.147-.008,32.293C2218.537-2728.237,2218.69-2727.981,2218.412-2727.833Z" transform="translate(-2150.991 2782.719)" fill="#b3b1b1"/>
    <path id="Контур_1892" data-name="Контур 1892" d="M949.3-2764.825c0,.221.005.443.005.664q0,24.386.006,48.771c0,.672-.058.828-.3.828q-30.984-.026-61.968-.017c-.079,0-.158-.01-.238-.015q0-1.18.009-2.36c.172-.378.374-.176.563-.221a.83.83,0,0,1,.3.008,1.184,1.184,0,0,1,.356-.019l59.826,0c.547,0,.507.074.507-1.4q0-21.461,0-42.923c0-.288-.005-.577.007-.864-.009-.566-.005-1.132,0-1.7a2.277,2.277,0,0,1,.079-.729Z" transform="translate(-884.264 2767.203)" fill="#6d6e6e"/>
    <path id="Контур_1893" data-name="Контур 1893" d="M887.627-2716.99l-.828.036c0-.221,0-.443,0-.664q0-23.187-.006-46.375c0-.689.066-.834.3-.834q29.793.023,59.586.015c.077,0,.155.007.232.01q-.006,1.186-.012,2.373c-.072.211-.167.211-.259.22-.116.011-.232.005-.348.005q-29.024,0-58.048,0c-.585,0-.53-.112-.53,1.491q0,21.224,0,42.449A4.641,4.641,0,0,1,887.627-2716.99Z" transform="translate(-884.249 2767.204)" fill="#d6d7d6"/>
    <path id="Контур_1894" data-name="Контур 1894" d="M904.84-2701.347q0-14.849,0-29.7,0-7.441,0-14.882c0-.85,0-.851.3-.851H962.2c.113,0,.226-.006.339-.009,0,.221.006.442.006.664q0,21.991.006,43.982c0,.689-.065.828-.288.828q-28.59-.023-57.18-.015C905.005-2701.329,904.923-2701.341,904.84-2701.347Z" transform="translate(-899.9 2751.562)" fill="#b3b1b0"/>
  </g>
  <g id="Прямоугольник_154" data-name="Прямоугольник 154" transform="translate(7 7)" fill="none" stroke="#6d6e6e" stroke-width="1" stroke-dasharray="3 3" opacity="0">
    <rect width="53" height="42" stroke="none"/>
    <rect x="0.5" y="0.5" width="52" height="41" fill="none"/>
  </g>
  <path id="Контур_1877" data-name="Контур 1877" d="M7180.769,861.084h-24.922a5.058,5.058,0,0,0-5.056,5.055v17.407a5.062,5.062,0,0,0,5.056,5.059h24.922a5.066,5.066,0,0,0,5.061-5.059V866.139A5.062,5.062,0,0,0,7180.769,861.084Zm-1.187,3.041a2.366,2.366,0,0,1,.545.066l-9.514,10.795a3.07,3.07,0,0,1-4.61,0l-9.514-10.795a2.426,2.426,0,0,1,.545-.066Zm3.212,19.1a2.535,2.535,0,0,1-2.532,2.534h-23.9a2.538,2.538,0,0,1-2.534-2.534v-16.7a2.452,2.452,0,0,1,.191-.96l10.107,11.474a5.575,5.575,0,0,0,8.369,0l10.112-11.47a2.506,2.506,0,0,1,.19.956Z" transform="translate(-7134.793 -847.084)"/>
</svg>
