<svg id="mail" xmlns="http://www.w3.org/2000/svg" width="48" height="69.492" viewBox="0 0 48 69.492">
  <g id="Сгруппировать_283" data-name="Сгруппировать 283" transform="translate(0.442 0)">
    <g id="Сгруппировать_278" data-name="Сгруппировать 278" transform="translate(0 0)">
      <path id="Контур_3152" data-name="Контур 3152" d="M2357.309,2267.889c-.006-1.421-.006-1.422,1.4-1.421l8.947.006a1.431,1.431,0,0,1,.047,1.435,2.622,2.622,0,0,1-1.446.171c-.52.014-1.04.017-1.559,0-.473.013-.946.016-1.419,0-.455.011-.909.016-1.363,0-.276,0-.553.006-.83-.005-.418-.017-.627.137-.627.59s.188.62.615.6a1.628,1.628,0,0,1,.694.081.358.358,0,0,1,.15.138c.021.083.009-.027.026.057.231,1.136.231,1.136,1.382,1.142a2.4,2.4,0,0,1,1.38.173,1.806,1.806,0,0,1,.039,1.528.73.73,0,0,1-.639.216c-.5-.026-.69.2-.666.685a.765.765,0,0,1-.18.594,3.869,3.869,0,0,1-1.775.156c-.865.025-1.045-.016-1.021.878a.674.674,0,0,1-.2.531,6.045,6.045,0,0,1-2.952.016.983.983,0,0,1-.2-.785c.014-.478-.22-.633-.668-.632-1.178,0-2.356.02-3.534-.008a3.1,3.1,0,0,1-1.429-.134.823.823,0,0,1-.184-.537c-.078-.747-.08-.727-.858-.757a4.95,4.95,0,0,1-1.914-.138.941.941,0,0,1-.2-.779c.025-.466-.163-.673-.635-.636-.254.021-.511,0-.768,0a2.526,2.526,0,0,1-1.406-.169,2.561,2.561,0,0,1-.174-1.43c-.022-2.645,0-5.29-.013-7.936,0-.249.063-.534-.188-.713a.532.532,0,0,0-.827.435c-.13.9-.128.92-1.026,1.023-.377.043-.531.215-.536.576a1.111,1.111,0,0,1-.14.621.667.667,0,0,1-.58.206c-.571-.043-.757.235-.719.765a.794.794,0,0,1-.194.654,1.777,1.777,0,0,1-1.544-.015c-.323-.491-.159-1.041-.185-1.567a3.346,3.346,0,0,1,.123-1.422.924.924,0,0,1,.78-.2c.512.028.692-.211.651-.693a6.117,6.117,0,0,1,0-.7,3.177,3.177,0,0,1,.12-1.378c.029-.031.062-.084.094-.082.966.054,1.3-.519,1.372-1.367a.719.719,0,0,1,.412-.161c.864-.125.865-.125,1-1.028a.731.731,0,0,1,.135-.357c.078-.035-.032-.037.048-.037.936,0,1.324-.533,1.384-1.4a1.282,1.282,0,0,0,1.377-1.51c0-.082,0,.029.031-.053a.8.8,0,0,1,.6-.159c.546.042.865-.129.813-.743a.671.671,0,0,1,.176-.534,2.581,2.581,0,0,1,1.352-.152c.3-.007.6,0,.9,0,.383.006.542-.169.534-.552-.007-.362-.183-.5-.523-.5-.3,0-.6,0-.906,0a2.355,2.355,0,0,1-1.389-.179,1.6,1.6,0,0,1,.024-1.562h0a.442.442,0,0,1,.219-.13,16.772,16.772,0,0,1,4.158.061c.267.251.214.588.225.9.012.337.155.484.5.525,1.082.131,1.27.476.912,1.592a.915.915,0,0,1-.776.214c-.458-.018-.678.163-.652.636a.868.868,0,0,1-.154.609c-1.037.012-1.367.661-1.411,1.568a1.121,1.121,0,0,1-.787.166c-.414-.011-.638.139-.622.584a.96.96,0,0,1-.16.663c-.9.08-1.443.493-1.375,1.478,0,.033-.046.068-.075.1a1.511,1.511,0,0,1-.869.168.441.441,0,0,0-.476.481c-.015.45,0,.9-.008,1.349s.19.617.619.617c.942,0,1.885-.005,2.827,0a1.629,1.629,0,0,1,.877.135,1.085,1.085,0,0,1,.2.844c0,.4.165.585.57.583a.9.9,0,0,1,.715.206,1.612,1.612,0,0,1-.009,1.425,1.4,1.4,0,0,1-.925.178c-1.284.007-2.567,0-3.851,0-1,0-1,.008-1.014.994,0,.107-.005.214-.013.32.019.681.015,1.363,0,2.043-.007.458.173.671.64.649a.963.963,0,0,1,.723.19h0a.943.943,0,0,1,.183.728c-.029.467.169.674.638.646a.757.757,0,0,1,.6.184l.009-.006a.736.736,0,0,1,.18.535c-.041.6.3.706.8.7,1.3-.016,2.61,0,3.915-.007.751,0,.754-.008.866-.757a.9.9,0,0,1,.181-.471l.014.006c.411-.309.885-.167,1.336-.187.276,0,.554-.007.83.005.422.017.625-.141.625-.593s-.194-.615-.619-.6a1.256,1.256,0,0,1-.687-.106Z" transform="translate(-2333.745 -2244.317)" fill="#3e5ea7"/>
      <path id="Контур_3153" data-name="Контур 3153" d="M2361.833,2341.51c1.424-.058,1.424-.058,1.424,1.375,0,6.209-.009,12.418.015,18.627,0,.585-.161.7-.718.7q-22.829-.023-45.658-.015c-1,0-.86.15-.875-.9,0-.172.01-.345.015-.517.448-.334.964-.161,1.452-.192,3.968-.043,7.936-.008,11.9-.019,1.171,0,1.169,0,1.172-1.166.012-3.969-.027-7.937.018-11.906a2.857,2.857,0,0,1,.163-1.478,1.465,1.465,0,0,1,1.449-.029c.313.447.171.953.19,1.438s.016.959,0,1.439q.024.779,0,1.559c.02.489.015.977,0,1.466q.045,3.665,0,7.33c.063,1.345.063,1.346,1.416,1.346h26.649c1.168,0,1.169,0,1.169-1.171q0-7.762,0-15.525a6.223,6.223,0,0,1,.018-.775C2361.678,2342.564,2361.488,2342,2361.833,2341.51Z" transform="translate(-2316.01 -2314.943)"/>
      <path id="Контур_3154" data-name="Контур 3154" d="M2317.429,2374.4l-1.421.019q-.008-7.128-.023-14.255c0-.4.131-.538.52-.507.3.024.6,0,.9,0,.489-.315,1.032-.153,1.555-.178.489-.019.978-.016,1.467,0,1.957-.026,3.913-.03,5.869,0,.488-.013.977-.019,1.466,0a13.488,13.488,0,0,1,2.9.11l.086.088q-.011.714-.022,1.428a1.482,1.482,0,0,1-1.053.193q-5.522.009-11.045,0c-1,0-1.005.007-1.006,1.006q0,5.523,0,11.045A1.485,1.485,0,0,1,2317.429,2374.4Z" transform="translate(-2315.984 -2328.579)" fill="#7f8080"/>
      <path id="Контур_3155" data-name="Контур 3155" d="M2370.914,2311.692c-.01-1.548-.01-1.547,1.527-1.549q2.217,0,4.434-.012a1,1,0,0,1,.729-.19c1.222,0,2.445-.023,3.667.011,3.433-.026,6.867-.032,10.3,0,.534.035,1.1-.155,1.591.194.035,1.55.035,1.55-1.527,1.55l-19.167.008A1.5,1.5,0,0,1,2370.914,2311.692Z" transform="translate(-2357.703 -2290.971)" fill="#28347c"/>
      <path id="Контур_3156" data-name="Контур 3156" d="M2413.877,2232.542c-1.8,0-3.6,0-5.4-.009-.348,0-.548.044-.557.477-.024,1.077-.047,1.077-1.148,1.081l-.257,0c-.485.324-1.029.159-1.549.185a12.8,12.8,0,0,1-2.775-.107l-.088-.085c.015-1.549.015-1.549,1.545-1.549.754,0,1.509-.03,2.261.01.5.027.677-.163.6-.63-.112-.652.141-.833.8-.821,2.389.043,4.781.017,7.171.017.827,0,.827,0,.829.841,0,.194,0,.388,0,.581A1.309,1.309,0,0,1,2413.877,2232.542Z" transform="translate(-2381.392 -2231.096)" fill="#3e5ea7"/>
      <path id="Контур_3157" data-name="Контур 3157" d="M2477.618,2341.567q-.011.766-.021,1.533c-.477.341-1.019.157-1.533.192-.488.02-.976.015-1.463,0-1.739.037-3.479.014-5.218.012a1.127,1.127,0,0,1-.68-.157,1.466,1.466,0,0,1-.012-1.577Z" transform="translate(-2431.796 -2315)" fill="#aeae8f"/>
      <path id="Контур_3158" data-name="Контур 3158" d="M2451.061,2237.088l1.436-.006c1.548.006,1.548.006,1.548,1.545,0,1.27-.013,2.541.008,3.811.006.422-.081.624-.563.609-1.186-.038-.984.076-1-1.006-.01-.947-.017-1.895,0-2.842.009-.4-.089-.576-.534-.573-.9.005-.9-.021-.9-.892C2451.068,2237.519,2451.063,2237.3,2451.061,2237.088Z" transform="translate(-2418.576 -2235.643)" fill="#295fa9"/>
      <path id="Контур_3159" data-name="Контур 3159" d="M2321.9,2301.326c0-.811.025-1.622,0-2.432-.014-.418.121-.577.544-.545a9.85,9.85,0,0,0,1.021-.02c.026.028.051.055.078.083a.544.544,0,0,1,.088.3c-.067.7.17,1.085.943,1.053.328-.014.458.265.484.57a9.3,9.3,0,0,1,.014,1.021c.021.519.016,1.038,0,1.557.009.107.016.214.017.322,0,1.255-.35,1.511-1.582,1.141-.294-.264-.218-.622-.24-.955-.006-.084,0-.17,0-.255a3.554,3.554,0,0,0-.078-1.39c-.234-.486-.841-.113-1.209-.371Z" transform="translate(-2320.476 -2282.16)" fill="#717070"/>
      <path id="Контур_3160" data-name="Контур 3160" d="M2340.214,2264.054c0-.107,0-.214,0-.321,0-1.131,0-1.141,1.14-1.221.3-.021.4-.117.419-.417.068-1.011.081-1.011,1.091-1.013.107,0,.214,0,.321,0a5.128,5.128,0,0,1,2.977-.032,1.508,1.508,0,0,1,.058,1.464c-.441.306-.939.169-1.417.184l-.19,0c-1.07.01-1.07.009-1.265,1.052a.636.636,0,0,1-.157.343,2.675,2.675,0,0,1-1.385.153,4.437,4.437,0,0,1-1.512-.108Z" transform="translate(-2334.387 -2253.688)" fill="#304999"/>
      <path id="Контур_3161" data-name="Контур 3161" d="M2322.811,2340.85l-1.566,0q0-.767,0-1.533a.669.669,0,0,1-.17-.405,28.39,28.39,0,0,1,.054-3.883.458.458,0,0,1,.156-.2,1.787,1.787,0,0,1,1.58.09,1.469,1.469,0,0,1,.144.814q.007,2.13,0,4.259A1.168,1.168,0,0,1,2322.811,2340.85Z" transform="translate(-2319.823 -2309.778)" fill="#605f5f"/>
      <path id="Контур_3162" data-name="Контур 3162" d="M2457.9,2292.407l-1.554-.016a.822.822,0,0,1-.187-.6q-.02-2.316,0-4.632a.993.993,0,0,1,.114-.5l.089-.091c1.546.026,1.547.026,1.546,1.6Q2457.906,2290.29,2457.9,2292.407Z" transform="translate(-2422.439 -2273.232)" fill="#295fa9"/>
      <path id="Контур_3163" data-name="Контур 3163" d="M2381.762,2244.961l-4.409,0c.011-1.422.011-1.422,1.461-1.422l4.491,0,.011.005c.262.563.283,1.265-.026,1.443A1.441,1.441,0,0,1,2381.762,2244.961Z" transform="translate(-2362.594 -2240.541)" fill="#295fa9"/>
      <path id="Контур_3164" data-name="Контур 3164" d="M2389.169,2335.561c.029,1.427.029,1.427-1.393,1.427-1.288,0-2.578-.033-3.865.014-.594.022-.769-.187-.7-.734a5.7,5.7,0,0,0,.01-.708Z" transform="translate(-2367.035 -2310.438)" fill="#00619f"/>
      <path id="Контур_3165" data-name="Контур 3165" d="M2317.442,2334.9q0,2.206-.006,4.411c-1.418-.034-1.42-.034-1.418-1.462,0-.983.01-1.965.015-2.948A1.271,1.271,0,0,1,2317.442,2334.9Z" transform="translate(-2316.01 -2309.777)" fill="#4f4f4f"/>
      <path id="Контур_3166" data-name="Контур 3166" d="M2367.951,2249.454q.005.784.012,1.569l-.091.077a7.669,7.669,0,0,1-2.814-.01l-.085-.083c.014-1.549.014-1.549,1.575-1.55Z" transform="translate(-2353.191 -2245.039)" fill="#295fa9"/>
      <path id="Контур_3167" data-name="Контур 3167" d="M2419.786,2249.436c.819,0,1.638.021,2.456,0,.394-.01.547.124.519.52-.024.343,0,.689,0,1.034l-.09.087a8.322,8.322,0,0,1-2.553.081.527.527,0,0,1-.515-.556,2.028,2.028,0,0,1,.094-1.075Z" transform="translate(-2394.664 -2245.025)" fill="#295fa9"/>
      <path id="Контур_3168" data-name="Контур 3168" d="M2451.83,2340.806l1.557.041a1.56,1.56,0,0,1,.022,1.542c-.493.313-1.04.153-1.567.179a2.648,2.648,0,0,1-1.45-.173,1.691,1.691,0,0,1-.008-1.576A1.415,1.415,0,0,1,2451.83,2340.806Z" transform="translate(-2417.918 -2314.277)" fill="#7f8022"/>
      <path id="Контур_3169" data-name="Контур 3169" d="M2456.365,2324.63q0-.71,0-1.422c1.558-.024,1.558-.024,1.558,1.51,0,1.451,0,1.451-1.55,1.464l-.081-.084A1.783,1.783,0,0,1,2456.365,2324.63Z" transform="translate(-2422.458 -2301.052)" fill="#00619f"/>
      <path id="Контур_3170" data-name="Контур 3170" d="M2443.931,2261.817c1.546.025,1.546.025,1.546,1.554,0,.474,0,.948.007,1.422l-.086.084a1.773,1.773,0,0,1-1.512-.086,6.385,6.385,0,0,1-.041-2.887Z" transform="translate(-2412.985 -2254.429)" fill="#295fa9"/>
      <path id="Контур_3171" data-name="Контур 3171" d="M2370.911,2317.258l1.554.013q0,1.419,0,2.837c-1.556.008-1.556.008-1.556-1.572C2370.908,2318.111,2370.91,2317.684,2370.911,2317.258Z" transform="translate(-2357.699 -2296.537)" fill="#295fa9"/>
      <path id="Контур_3172" data-name="Контур 3172" d="M2355.58,2257.348l-3-.015c.023-1.419.023-1.418,1.449-1.419l1.53,0,.007.007a1.573,1.573,0,0,1,.086,1.343Z" transform="translate(-2343.782 -2249.943)" fill="#2d5fa3"/>
      <path id="Контур_3173" data-name="Контур 3173" d="M2316.007,2313.759c-.005-.809.006-1.619-.023-2.427-.015-.4.093-.6.53-.555a8.458,8.458,0,0,0,.894,0l.013.013a5.121,5.121,0,0,1,.032,2.964A1.3,1.3,0,0,1,2316.007,2313.759Z" transform="translate(-2315.982 -2291.611)" fill="#717070"/>
      <path id="Контур_3174" data-name="Контур 3174" d="M2316.083,2323.192h1.4l.085.09a5.6,5.6,0,0,1-.082,2.889h-1.407Z" transform="translate(-2316.058 -2301.044)" fill="#605f5f"/>
      <path id="Контур_3175" data-name="Контур 3175" d="M2450.334,2274.194c1.417.024,1.416.024,1.417,1.426,0,.517,0,1.034.007,1.552l-.014.013a1.363,1.363,0,0,1-1.446,0,5.049,5.049,0,0,1,.022-2.973Z" transform="translate(-2417.835 -2263.829)" fill="#295fa9"/>
      <path id="Контур_3176" data-name="Контур 3176" d="M2432.126,2255.885c.754,0,1.509.028,2.262,0,.453-.019.629.132.583.586a7.905,7.905,0,0,0,0,.84l-.013.013a4.72,4.72,0,0,1-2.837.028,1.346,1.346,0,0,1-.01-1.452Z" transform="translate(-2404.027 -2249.921)" fill="#295fa9"/>
      <path id="Контур_3177" data-name="Контур 3177" d="M2378.788,2330.664c-1.426-.008-1.426-.008-1.418-1.558C2378.8,2329.117,2378.8,2329.117,2378.788,2330.664Z" transform="translate(-2362.606 -2305.536)" fill="#295fa9"/>
      <path id="Контур_3178" data-name="Контур 3178" d="M2409.458,2330.663l-1.413,0c0-.042-.007-.084-.008-.127-.021-1.426-.021-1.426,1.424-1.43h0A1.482,1.482,0,0,1,2409.458,2330.663Z" transform="translate(-2385.896 -2305.538)" fill="#364797"/>
      <path id="Контур_3179" data-name="Контур 3179" d="M2463.46,2343.086q0-.752,0-1.5h1.425q0,.76-.009,1.521l-.068.076a2.085,2.085,0,0,1-1.2.042A.281.281,0,0,1,2463.46,2343.086Z" transform="translate(-2427.994 -2315.011)" fill="#9e9e60"/>
      <path id="Контур_3180" data-name="Контур 3180" d="M2413.278,2243.565h1.567v1.413l-.014.013a1.666,1.666,0,0,1-1.572.028A1.438,1.438,0,0,1,2413.278,2243.565Z" transform="translate(-2389.723 -2240.565)" fill="#295fa9"/>
      <path id="Контур_3181" data-name="Контур 3181" d="M2334.272,2281.031l.022-1.55a1.368,1.368,0,0,1,1.423-.022,1.805,1.805,0,0,1,.05,1.559,1.54,1.54,0,0,1-1.406.1Z" transform="translate(-2329.874 -2267.685)" fill="#28347b"/>
      <path id="Контур_3182" data-name="Контур 3182" d="M2335.751,2275.639l-1.424-.009c-.042-1.41-.042-1.41,1.407-1.43l.007.01a1.565,1.565,0,0,1,.086,1.341Z" transform="translate(-2329.907 -2263.834)" fill="#364797"/>
      <path id="Контур_3183" data-name="Контур 3183" d="M2451.927,2336.36l-1.412.029-.08-.077a2.04,2.04,0,0,1-.012-1.309.376.376,0,0,1,.167-.151,1.656,1.656,0,0,1,1.336.1l.008.008Z" transform="translate(-2418.014 -2309.831)" fill="#00619f"/>
      <path id="Контур_3184" data-name="Контур 3184" d="M2328.411,2293.3q0-.7.008-1.394a1.6,1.6,0,0,1,1.344-.1.375.375,0,0,1,.166.167,1.724,1.724,0,0,1-.095,1.4,1.518,1.518,0,0,1-1.423-.036Z" transform="translate(-2325.422 -2277.135)" fill="#303060"/>
      <path id="Контур_3185" data-name="Контур 3185" d="M2329.817,2288.016l-1.41,0c-.044-1.421-.044-1.421,1.4-1.429l.017.006A1.3,1.3,0,0,1,2329.817,2288.016Z" transform="translate(-2325.41 -2273.246)" fill="#364797"/>
      <path id="Контур_3186" data-name="Контур 3186" d="M2375.4,2288.787c-1.329,0-2.658-.015-3.987,0-.417.006-.578-.124-.555-.55a12.719,12.719,0,0,0,0-1.671c-.042-.526.163-.692.66-.64a8.5,8.5,0,0,0,.9,0l.084.086c.317,1.139.317,1.135,1.559,1.14,2.364.008,4.728-.021,7.09.013.063,0,.126,0,.189,0,.354-.026.745.107,1.057-.083.333-.2.128-.628.244-.935a.634.634,0,0,1,.162-.267,1.566,1.566,0,0,1,1.438.035,5.369,5.369,0,0,1,0,2.887,1.082,1.082,0,0,1-.731.18c-1.218,0-2.437.027-3.655-.012-.487.012-.975.019-1.463,0-.521.015-1.043.017-1.564,0C2376.336,2288.949,2375.835,2289.1,2375.4,2288.787Z" transform="translate(-2357.65 -2272.588)" fill="#295fa9"/>
      <path id="Контур_3187" data-name="Контур 3187" d="M2352.609,2301.338c0-.151,0-.3,0-.452.006-1.131-.074-1,.958-.957.657.028.614-.346.6-.771s-.079-.824.617-.822c.652,0,.832.169.822.829-.04,2.709-.017,5.419-.017,8.128a1.647,1.647,0,0,1-1.348.1.378.378,0,0,1-.168-.16,5.084,5.084,0,0,1-.093-1.51c-.016-.466-.015-.932,0-1.4-.011-.457-.016-.913,0-1.369-.036-.421.146-.9-.1-1.252-.27-.385-.821-.057-1.194-.289Z" transform="translate(-2343.801 -2282.166)" fill="#295fa9"/>
      <path id="Контур_3188" data-name="Контур 3188" d="M2394.917,2355.429l2.973.005.082.088a1.541,1.541,0,0,1-.09,1.376,2.931,2.931,0,0,1-1.422.149c-.528.02-1.056.016-1.583,0-1.694.037-3.389.012-5.083.013a1.235,1.235,0,0,1-.684-.14c-.341-.438-.188-.947-.206-1.432a10.83,10.83,0,0,1,.024-1.3.479.479,0,0,1,.163-.308l1.418,0a1.054,1.054,0,0,1,.2.784c0,.413.212.562.6.563.917,0,1.834,0,2.751,0A1.226,1.226,0,0,1,2394.917,2355.429Z" transform="translate(-2371.352 -2324.354)" fill="#00619f"/>
      <path id="Контур_3189" data-name="Контур 3189" d="M2400.032,2243.558q0,.706.009,1.412a1.611,1.611,0,0,1,.154,1.241c-.056.449-.419.487-.772.513-.29.021-.529.058-.6.432-.2,1.031-.464,1.166-1.546.879l-.085-.083c0-.106,0-.213,0-.32,0-1.052,0-1.072-1.065-1.091-.412-.007-.516-.171-.492-.538.022-.34.008-.682.01-1.023l.127,0c1.4-.007,1.4-.007,1.427-1.423Z" transform="translate(-2376.477 -2240.558)" fill="#359cce"/>
      <path id="Контур_3190" data-name="Контур 3190" d="M2383.268,2274.991c.014-1.392.014-1.392,1.575-1.429.439-.306.936-.15,1.41-.178.523-.018,1.047-.016,1.57,0,.719-.029,1.439-.013,2.159-.008a1.053,1.053,0,0,1,.666.165,1.445,1.445,0,0,1,.03,1.458c-.457.318-.974.165-1.469.188-1.741.032-3.482.01-5.223.011a1.242,1.242,0,0,1-.627-.117Z" transform="translate(-2367.087 -2263.199)" fill="#295fa9"/>
      <path id="Контур_3191" data-name="Контур 3191" d="M2397.228,2298.455l1.419.006a1.211,1.211,0,0,1,.2.851c.013.307.156.443.464.494.992.165,1.211.644.76,1.6l-4.391.007-.007-1.414c.025-.024.05-.048.074-.073.867-.014,1.487-.282,1.376-1.32C2397.117,2298.556,2397.187,2298.5,2397.228,2298.455Z" transform="translate(-2376.508 -2282.256)" fill="#389bce"/>
      <path id="Контур_3192" data-name="Контур 3192" d="M2400.021,2355.38c-1.26,0-2.521-.022-3.779.018-.534.017-.676-.183-.629-.666a8.849,8.849,0,0,0,0-.9c1.259,0,2.52.024,3.778-.016.531-.017.681.177.633.663A8.7,8.7,0,0,0,2400.021,2355.38Z" transform="translate(-2376.457 -2324.307)" fill="#295fa9"/>
      <path id="Контур_3193" data-name="Контур 3193" d="M2339.54,2281.068q.017-.772.034-1.543l-.006,0a1.832,1.832,0,0,1,1.437-.129.411.411,0,0,1,.172.129c.021.036.056.075.052.113-.092.923.308,1.391,1.252,1.361l.068.077c-.039,1.387-.039,1.387-1.422,1.423a1.647,1.647,0,0,1-1.572.015A1.425,1.425,0,0,1,2339.54,2281.068Z" transform="translate(-2333.73 -2267.719)" fill="#cece60"/>
      <path id="Контур_3194" data-name="Контур 3194" d="M2328.375,2297.837l1.409-.02a1.686,1.686,0,0,1,1.358-.1.376.376,0,0,1,.169.162,1.979,1.979,0,0,1-.076,1.5l-.026,1.406a1.247,1.247,0,0,1-1.414.011c0-.149,0-.3,0-.446,0-.935,0-.956-.93-.966-.4,0-.524-.154-.5-.528C2328.389,2298.518,2328.373,2298.177,2328.375,2297.837Z" transform="translate(-2325.385 -2281.626)" fill="#9e9e60"/>
      <path id="Контур_3195" data-name="Контур 3195" d="M2426.335,2355.426c0-1.552,0-1.552,1.572-1.552h1.405l.083.09a1.7,1.7,0,0,1-.115,1.521,5.3,5.3,0,0,1-2.942-.055Z" transform="translate(-2399.797 -2324.347)" fill="#00619f"/>
      <path id="Контур_3196" data-name="Контур 3196" d="M2364.337,2262.586q.008-.7.015-1.4l-.006,0a1.384,1.384,0,0,1,1.448-.043,1.451,1.451,0,0,1-.029,1.463c0,.021,0,.042,0,.064-.007,1.442-.007,1.442-1.41,1.494l-.087-.083A1.744,1.744,0,0,1,2364.337,2262.586Z" transform="translate(-2352.554 -2253.778)" fill="#cece9e"/>
      <path id="Контур_3197" data-name="Контур 3197" d="M2340.255,2299.3l-.016-1.551a1.487,1.487,0,0,1,1.542-.022C2341.817,2299.286,2341.817,2299.286,2340.255,2299.3Z" transform="translate(-2334.406 -2281.551)" fill="#60619f"/>
      <path id="Контур_3198" data-name="Контур 3198" d="M2446.194,2340.868q-.01.769-.02,1.538l-.076.079a2.186,2.186,0,0,1-1.388.005l-.078-.077q0-.771,0-1.542l.082-.084a1.738,1.738,0,0,1,1.463.066Z" transform="translate(-2413.694 -2314.31)" fill="#00619f"/>
      <path id="Контур_3199" data-name="Контур 3199" d="M2353.552,2279.547c-.077.5.224,1.157-.139,1.448-.3.243-.93.082-1.414.1l-.023-.023a1.987,1.987,0,0,1-.1-1.442.393.393,0,0,1,.146-.174,2.225,2.225,0,0,1,1.451.007Z" transform="translate(-2343.18 -2267.735)" fill="#cece60"/>
      <path id="Контур_3200" data-name="Контур 3200" d="M2427.861,2330.676c-.342,0-.685-.027-1.024,0-.437.038-.536-.157-.536-.559,0-1-.017-1,.985-1,.192,0,.384.006.576.009A1.46,1.46,0,0,1,2427.861,2330.676Z" transform="translate(-2399.771 -2305.546)" fill="#329dcd"/>
      <path id="Контур_3201" data-name="Контур 3201" d="M2443.991,2329.159h1.554a1.489,1.489,0,0,1,0,1.548l0,0a1.934,1.934,0,0,1-1.475.1.384.384,0,0,1-.172-.159A1.833,1.833,0,0,1,2443.991,2329.159Z" transform="translate(-2413.053 -2305.576)" fill="#5195d0"/>
      <path id="Контур_3202" data-name="Контур 3202" d="M2413.956,2330.618v-1.554a8.675,8.675,0,0,0,.96-.006c.5-.055.614.162.6.625-.022.936,0,.937-.923.937Z" transform="translate(-2390.395 -2305.493)" fill="#00619f"/>
      <path id="Контур_3203" data-name="Контур 3203" d="M2341.155,2293.908l-1.542.021v-.013a1.513,1.513,0,0,1-.087-1.337l.079-.086,1.57.016Q2341.165,2293.208,2341.155,2293.908Z" transform="translate(-2333.779 -2277.728)" fill="#ce9d5f"/>
      <path id="Контур_3204" data-name="Контур 3204" d="M2389.752,2298.454h1.412a1.456,1.456,0,0,1,0,1.553l.005-.005C2389.729,2300.011,2389.729,2300.011,2389.752,2298.454Z" transform="translate(-2372.008 -2282.255)" fill="#329dcd"/>
      <path id="Контур_3205" data-name="Контур 3205" d="M2334.32,2310.776l1.414-.011q0,.783.008,1.566l-.084.079a1.515,1.515,0,0,1-1.331-.074Z" transform="translate(-2329.91 -2291.605)" fill="#60619f"/>
      <path id="Контур_3206" data-name="Контур 3206" d="M2346.687,2312.372c0-.042,0-.084,0-.127,0-1.425,0-1.425,1.424-1.426h0a1.669,1.669,0,0,1,.052,1.528,1.489,1.489,0,0,1-1.389.107Z" transform="translate(-2339.303 -2291.647)" fill="#295fa9"/>
      <path id="Контур_3207" data-name="Контур 3207" d="M2339.555,2317.275h1.554a1.441,1.441,0,0,1,.031,1.453,1.84,1.84,0,0,1-1.6.009,1.416,1.416,0,0,1,.02-1.463Z" transform="translate(-2333.724 -2296.55)" fill="#295fa9"/>
      <path id="Контур_3208" data-name="Контур 3208" d="M2432.78,2330.707q0-.774,0-1.548h1.425a1.893,1.893,0,0,1,.1,1.466.38.38,0,0,1-.16.169,1.613,1.613,0,0,1-1.37-.09Z" transform="translate(-2404.689 -2305.576)" fill="#5195d0"/>
      <path id="Контур_3209" data-name="Контур 3209" d="M2438.711,2330.7q0-.772,0-1.544h1.422v1.544A1.287,1.287,0,0,1,2438.711,2330.7Z" transform="translate(-2409.196 -2305.576)" fill="#329dcd"/>
      <path id="Контур_3210" data-name="Контур 3210" d="M2451.1,2330.69q0-.774,0-1.548l1.415-.006q0,.772,0,1.545Z" transform="translate(-2418.601 -2305.559)" fill="#329dcd"/>
      <path id="Контур_3211" data-name="Контур 3211" d="M2364.241,2341.5h1.423a.687.687,0,0,1,.174.435,1.714,1.714,0,0,1-.17,1.17,1.268,1.268,0,0,1-1.4-.05c-.4-.381-.26-.956-.112-1.462Z" transform="translate(-2352.456 -2314.949)" fill="#00619f"/>
      <path id="Контур_3212" data-name="Контур 3212" d="M2382.626,2255.9c.258-.006.517,0,.773-.022.505-.045.815,0,.8.683-.011.646-.2.838-.8.749a6.341,6.341,0,0,0-.772-.025A1.213,1.213,0,0,1,2382.626,2255.9Z" transform="translate(-2366.435 -2249.904)" fill="#cece9e"/>
      <path id="Контур_3213" data-name="Контур 3213" d="M2370.915,2262.632q0-.706,0-1.412a1.606,1.606,0,0,1,1.455-.1l.085.082C2372.484,2262.593,2372.484,2262.593,2370.915,2262.632Z" transform="translate(-2357.705 -2253.804)" fill="#f9f1a0"/>
      <path id="Контур_3214" data-name="Контур 3214" d="M2395.669,2263.263c-.009-1.419-.009-1.419,1.548-1.429l0,0a1.486,1.486,0,0,1,.056,1.413,1.809,1.809,0,0,1-1.519.094Z" transform="translate(-2376.505 -2254.442)" fill="#329dcd"/>
      <path id="Контур_3215" data-name="Контур 3215" d="M2391.128,2269.3l-1.381,0c0-.021-.006-.042-.007-.063-.052-1.487-.052-1.487,1.415-1.478l-.005-.005A1.383,1.383,0,0,1,2391.128,2269.3Z" transform="translate(-2371.99 -2258.937)" fill="#329dcd"/>
      <path id="Контур_3216" data-name="Контур 3216" d="M2377.348,2281.679c0-.043,0-.086,0-.129.009-1.41.009-1.41,1.421-1.424l.009.009a1.546,1.546,0,0,1,.155,1.244c-.065.445-.424.493-.783.5a1.057,1.057,0,0,1-.795-.193Z" transform="translate(-2362.59 -2268.335)" fill="#295fa9"/>
      <path id="Контур_3217" data-name="Контур 3217" d="M2378.123,2255.955v1.384l-1.438.021.009.008a1.287,1.287,0,0,1,.006-1.43l0,.009Z" transform="translate(-2361.931 -2249.964)" fill="#afafaf"/>
      <path id="Контур_3218" data-name="Контур 3218" d="M2438.712,2349.377c0-1.422,0-1.422,1.424-1.424l0,0a1.007,1.007,0,1,1-1.423,1.424Z" transform="translate(-2409.197 -2319.851)" fill="#00619f"/>
      <path id="Контур_3219" data-name="Контур 3219" d="M2438.045,2335.575h1.425l0,0a1.293,1.293,0,0,1,0,1.417v.018l-1.426-.021a1.289,1.289,0,0,1,0-1.415Z" transform="translate(-2408.531 -2310.448)" fill="#5195d0"/>
      <path id="Контур_3220" data-name="Контур 3220" d="M2434.206,2335.573q0,.708,0,1.415c-1.413.035-1.413.035-1.427-1.413Z" transform="translate(-2404.69 -2310.448)" fill="#329dcd"/>
      <path id="Контур_3221" data-name="Контур 3221" d="M2358.291,2335.582h1.427q0,.712,0,1.423h0c-.078.038.027,0-.05.039a1.005,1.005,0,0,1-1.377-1.462Z" transform="translate(-2347.933 -2310.454)" fill="#00619f"/>
      <path id="Контур_3222" data-name="Контур 3222" d="M2359.9,2273.619c-.052,1.366-.052,1.366-1.427,1.426l-.038-.033a1.789,1.789,0,0,1-.074-1.331.373.373,0,0,1,.156-.166,1.694,1.694,0,0,1,1.345.066Z" transform="translate(-2348.098 -2263.233)" fill="#cece9e"/>
      <path id="Контур_3223" data-name="Контур 3223" d="M2380.114,2349.346l0,.257c-.413.15-.514-.161-.533-.431-.041-.584-.378-.7-.873-.678a7.2,7.2,0,0,1-1.163-.019c-.265-.032-.532-.09-.466-.466l.065-.091c.787,0,1.575.026,2.36-.006.467-.019.675.116.619.606A7.217,7.217,0,0,0,2380.114,2349.346Z" transform="translate(-2362.375 -2319.818)" fill="#295fa9"/>
      <path id="Контур_3224" data-name="Контур 3224" d="M2370.907,2341.886q0-.193-.005-.387c1.546,0,1.546,0,1.557,1.55l0,0c-.2.137-.451.1-.455-.1C2371.985,2342.2,2371.438,2342.066,2370.907,2341.886Z" transform="translate(-2357.695 -2314.948)" fill="#295fa9"/>
      <path id="Контур_3225" data-name="Контур 3225" d="M2321.927,2379.546q-.007-6.424-.02-12.849c0-.366.107-.474.473-.472q6.424.023,12.848.02.008,6.465.022,12.929c0,.311-.085.4-.4.4Q2328.391,2379.546,2321.927,2379.546Z" transform="translate(-2320.482 -2333.728)" fill="#fefefe"/>
      <path id="Контур_3226" data-name="Контур 3226" d="M2411.266,2347.947l1.538-.007q.01,6.628.021,13.256c0,1.272-.028,2.545.013,3.815.017.533-.121.679-.667.677-4.635-.024-9.269-.014-13.9-.014-4.764,0-9.528-.014-14.291.017-.651,0-.9-.149-.794-.8a5.512,5.512,0,0,0,.024-.774,1.258,1.258,0,0,1,.924-.191c.667,0,1.335-.022,2,.01.523-.013,1.046-.018,1.569,0,.477-.014.955-.016,1.432,0q.714-.022,1.428,0c.516-.015,1.031-.017,1.547,0,.476-.015.952-.016,1.428,0,.516-.015,1.031-.017,1.547,0,.476-.014.952-.016,1.427,0q.714-.023,1.427,0c.516-.015,1.031-.017,1.547,0,.476-.015.952-.016,1.428,0,.516-.015,1.032-.017,1.548,0,.475-.014.951-.016,1.427,0q.714-.023,1.427,0c.516-.015,1.032-.017,1.548,0,.474-.015.949-.016,1.424,0,.5-.013,1.006-.018,1.508,0,1.442-.016,1.269.129,1.292-1.277-.019-.5-.016-1.005,0-1.508-.015-.474-.016-.948,0-1.423q-.022-.713,0-1.427c-.015-.516-.016-1.031,0-1.548-.015-.476-.016-.952,0-1.428-.015-.516-.017-1.032,0-1.548-.015-.476-.016-.951,0-1.427q-.022-.714,0-1.428-.025-.778,0-1.556C2411.106,2348.889,2410.957,2348.388,2411.266,2347.947Z" transform="translate(-2367.003 -2319.841)" fill="#9e9e60"/>
      <path id="Контур_3227" data-name="Контур 3227" d="M2386.312,2391.239l-2.951.01q0-3.681,0-7.363a.926.926,0,0,1,.724-.209c2.7,0,5.391-.028,8.086.013a5.376,5.376,0,0,1,1.44.085.382.382,0,0,1,.171.155,1.134,1.134,0,0,1,.1.431c.075.876.076.853.988.889.623.025,1.275-.175,1.865.191a1.667,1.667,0,0,1-.027,1.445,2.654,2.654,0,0,1-1.445.171,14.564,14.564,0,0,1-1.478-.01l-.188,0c-.978.008-.978.008-1.17.941a.6.6,0,0,1-.165.334,1.8,1.8,0,0,1-1.463.024c-.282-.207-.256-.519-.261-.813-.006-.4-.234-.5-.583-.492-.312.007-.469.134-.475.458,0,.34.069.587.477.6a1,1,0,0,1,.78.2,1.974,1.974,0,0,1,.1,1.427.414.414,0,0,1-.131.173c-.948-.058-1.31.505-1.416,1.34h-1.409a.8.8,0,0,1-.187-.663c.008-.42-.195-.563-.6-.563s-.605.143-.6.563A.8.8,0,0,1,2386.312,2391.239Z" transform="translate(-2367.157 -2346.977)" fill="#fefefe"/>
      <path id="Контур_3228" data-name="Контур 3228" d="M2383.335,2373.064l-.011-1.545a.935.935,0,0,1,.717-.218c2.182,0,4.365-.027,6.547.012a7.245,7.245,0,0,1,1.54.074.433.433,0,0,1,.186.145,2.233,2.233,0,0,1-.01,1.512.5.5,0,0,1-.2.144,2.55,2.55,0,0,1-.83.076q-3.478,0-6.956,0A1.328,1.328,0,0,1,2383.335,2373.064Z" transform="translate(-2367.129 -2337.577)" fill="#9e9e60"/>
      <path id="Контур_3229" data-name="Контур 3229" d="M2383.369,2378.659h8.914a1.254,1.254,0,0,1-.014,1.406l-8.9.017Q2383.369,2379.37,2383.369,2378.659Z" transform="translate(-2367.163 -2343.172)" fill="#cece9e"/>
      <path id="Контур_3230" data-name="Контур 3230" d="M2390.688,2366.971l-7.364.035q0-.727,0-1.453a1.585,1.585,0,0,1,1.547,0l5.809.025A1.227,1.227,0,0,1,2390.688,2366.971Z" transform="translate(-2367.129 -2333.063)" fill="#13132b"/>
      <path id="Контур_3231" data-name="Контур 3231" d="M2378.089,2354.677l-1.407-.006-.013-.008a1.676,1.676,0,0,1-.027-1.581,1.231,1.231,0,0,1,1.448.039,1.4,1.4,0,0,1,.09,1.465Z" transform="translate(-2361.914 -2323.582)" fill="#00619f"/>
      <path id="Контур_3232" data-name="Контур 3232" d="M2384.811,2361.052l-1.547,0q-.011-.7-.021-1.395l.019-.038a1.529,1.529,0,0,1,1.539.027Q2384.806,2360.351,2384.811,2361.052Z" transform="translate(-2367.068 -2328.566)" fill="#33398d"/>
      <path id="Контур_3233" data-name="Контур 3233" d="M2330.517,2317.275l0,1.432a5.476,5.476,0,0,1,.065,2.948.858.858,0,0,1-.712.212c-.453-.008-.588.228-.585.641.005.726.014,1.453-.005,2.179.032.733.012,1.466.01,2.2a.978.978,0,0,1-.194.73l-1.426.007q-.008-2.974-.016-5.948a5.782,5.782,0,0,1-.068-2.885l.087-.088c1.4-.008,1.4-.008,1.425-1.422Z" transform="translate(-2324.685 -2296.55)" fill="#3e5ea7"/>
      <path id="Контур_3234" data-name="Контур 3234" d="M2353.388,2339.311q0,.777,0,1.553l-2.977-.016c-.054-.065-.13-.137-.12-.217.117-.943-.4-1.241-1.233-1.226a.357.357,0,0,1-.15-.143c.013-.875-.336-1.372-1.292-1.248-.079.01-.156-.058-.221-.114a1.437,1.437,0,0,0-1.441-1.608.864.864,0,0,1-.118-.367c-.12-.956.1-1.208,1.062-1.22a4.99,4.99,0,0,1,.516.014c.531.031,1.088-.151,1.58.194l0,0c.01,1.425.01,1.425,1.427,1.423,0,.021,0,.042,0,.063,0,1.465,0,1.465,1.423,1.5.046.044.113.092.11.152-.055.879.4,1.2,1.221,1.131C2353.258,2339.175,2353.331,2339.245,2353.388,2339.311Z" transform="translate(-2338.637 -2309.784)" fill="#343d91"/>
      <path id="Контур_3235" data-name="Контур 3235" d="M2359.051,2355.4q-.005-.769-.011-1.538c1.457.006,1.457.006,1.423,1.541Z" transform="translate(-2348.685 -2324.338)"/>
      <path id="Контур_3236" data-name="Контур 3236" d="M2409.439,2292.366v-.451c0-.917,0-.936-.91-.945-.39,0-.547-.127-.519-.521.025-.342,0-.687,0-1.03l4.4-.01a1.7,1.7,0,0,1,1.5-.07.826.826,0,0,1,.232.7c.011.375-.009.744.546.735s.494-.408.516-.764a.876.876,0,0,1,.2-.654,1.56,1.56,0,0,1,1.337-.005.719.719,0,0,1,.241.638c-.006.442.017.828.634.792.365-.021.538-.131.563-.526.042-.652-.358-.68-.827-.671a.7.7,0,0,1-.586-.216,1.558,1.558,0,0,1-.032-1.335.777.777,0,0,1,.708-.225c.5.027.781-.146.738-.693a.812.812,0,0,1,.11-.5l.081-.07,1.4.02q0,2.9,0,5.805Z" transform="translate(-2385.877 -2273.213)" fill="#4694d0"/>
      <path id="Контур_3237" data-name="Контур 3237" d="M2436.066,2347.907l5.953.029a1.572,1.572,0,0,1,.1,1.34.373.373,0,0,1-.164.164,5.265,5.265,0,0,1-1.514.089q-1.027.04-2.054,0c-.536-.018-.718.206-.7.722q.033,1.025,0,2.054a3.283,3.283,0,0,1-.12,1.386c-.225.265-.544.221-.837.233-.37.015-.47.225-.468.551s.031.605.458.626c.294.015.612-.03.843.23a1.51,1.51,0,0,1-.063,1.413.441.441,0,0,1-.228.114,20.644,20.644,0,0,1-4.1-.045c-.3-.2-.251-.517-.261-.8-.013-.37-.174-.537-.55-.529-.351.007-.485.18-.5.512-.015.288.036.606-.251.815a1.858,1.858,0,0,1-.825.113q-2.067.005-4.135,0a1.283,1.283,0,0,1-.923-.2l-.008-.008a1.651,1.651,0,0,1-.1-1.346.375.375,0,0,1,.159-.167,4.873,4.873,0,0,1,1.482-.093c.063,0,.126-.005.189-.006.955-.005.956,0,1.073-.954a.728.728,0,0,1,.173-.464,2.942,2.942,0,0,1,1.369-.131c.063,0,.128,0,.192,0,1.066-.007,1.066-.007,1.278-1.008a.585.585,0,0,1,.11-.23c.079-.034-.032-.037.049-.037a1.217,1.217,0,0,0,1.36-1.37.868.868,0,0,1,.722-.189c.539.036.736-.216.7-.727a1.251,1.251,0,0,1,.074-.569.374.374,0,0,1,.136-.157c.984.1,1.277-.53,1.4-1.336Z" transform="translate(-2399.181 -2319.815)" fill="#fefefe"/>
      <path id="Контур_3238" data-name="Контур 3238" d="M2494.123,2349.388q0-.7-.008-1.406l1.425-.014q-.007.714-.013,1.428A1.279,1.279,0,0,1,2494.123,2349.388Z" transform="translate(-2451.276 -2319.862)" fill="#f9f1a0"/>
      <path id="Контур_3239" data-name="Контур 3239" d="M2321.925,2313.8q0-1.485.009-2.97c1.547-.023,1.547-.023,1.547,1.5,0,.49,0,.979.007,1.469h-.009a1.472,1.472,0,0,1-1.545,0Z" transform="translate(-2320.496 -2291.652)" fill="#606030"/>
      <path id="Контур_3240" data-name="Контур 3240" d="M2352.509,2269.3a1.039,1.039,0,0,0,.02-.127c.053-1.476.053-1.476,1.563-1.4a1.469,1.469,0,0,1-.008,1.534l0,0a1.933,1.933,0,0,1-1.4.127A.389.389,0,0,1,2352.509,2269.3Z" transform="translate(-2343.725 -2258.934)" fill="#cece9e"/>
      <path id="Контур_3241" data-name="Контур 3241" d="M2359.06,2269.289q0-.767.008-1.533l1.415-.031q-.01.77-.021,1.54Z" transform="translate(-2348.7 -2258.916)" fill="#f9f1a0"/>
      <path id="Контур_3242" data-name="Контур 3242" d="M2341.789,2275.638l-1.542.034q0-.716,0-1.433l1.562,0A1.277,1.277,0,0,1,2341.789,2275.638Z" transform="translate(-2334.409 -2263.864)" fill="#28347c"/>
      <path id="Контур_3243" data-name="Контур 3243" d="M2346.67,2275.61q.008-.7.017-1.4l1.388-.011.054.015a1.354,1.354,0,0,1-.036,1.415l0-.009a1.379,1.379,0,0,1-1.422.044Z" transform="translate(-2339.29 -2263.836)" fill="#9e9e60"/>
      <path id="Контур_3244" data-name="Контур 3244" d="M2321.94,2323.19l1.545,0q0,1.487-.01,2.974l-1.541,0Q2321.937,2324.68,2321.94,2323.19Z" transform="translate(-2320.503 -2301.043)" fill="#505050"/>
      <path id="Контур_3245" data-name="Контур 3245" d="M2367.98,2255.937l-.006,1.43-1.549.012-1.422-.008q0-.717,0-1.434Z" transform="translate(-2353.212 -2249.963)" fill="#2a4b9b"/>
      <path id="Контур_3246" data-name="Контур 3246" d="M2401.421,2253.851q0-.713,0-1.427l.385,0c.983,0,.993,0,1.031-.949.012-.3.071-.461.425-.482,1-.063,1-.08,1-1.1,0-.15,0-.3,0-.449l1.544.014c.026,1.546.026,1.546,1.555,1.547.474,0,.948,0,1.422.006l.022,1.4-.078.085a3.909,3.909,0,0,1-1.466.115c-.085,0,.023,0-.063,0-1.038.008-1.038.008-1.247,1.012a.575.575,0,0,1-.108.228.829.829,0,0,1-.667.175c-.571-.049-.787.209-.738.758a.9.9,0,0,1-.111.562l-.081.07-2.808-.026A1.385,1.385,0,0,1,2401.421,2253.851Z" transform="translate(-2380.708 -2245.027)" fill="#4595d0"/>
      <path id="Контур_3247" data-name="Контур 3247" d="M2456.348,2347.884l1.545-.048,0,.059a1.256,1.256,0,0,1,0,1.393h0a1.592,1.592,0,0,1-1.559.027A1.313,1.313,0,0,1,2456.348,2347.884Z" transform="translate(-2422.426 -2319.761)" fill="#cece9e"/>
      <path id="Контур_3248" data-name="Контур 3248" d="M2451.863,2347.95q0,.7-.005,1.406l-.089.081a1.52,1.52,0,0,1-1.381-.1,1.432,1.432,0,0,1,.046-1.408l-.011,0Z" transform="translate(-2417.941 -2319.828)" fill="#aeae8f"/>
      <path id="Контур_3249" data-name="Контур 3249" d="M2432.151,2261.776l2.825.023q.011,1.477.022,2.954l-.081.087a1.637,1.637,0,0,1-1.364-.042c-.034-.078-.01.031-.04-.05a2.926,2.926,0,0,0-1.423-1.547,1.446,1.446,0,0,1,.03-1.393Z" transform="translate(-2404.044 -2254.398)" fill="#4694d0"/>
      <path id="Контур_3250" data-name="Контур 3250" d="M2445.527,2274.178q.01,1.478.02,2.957l-.026.025a1.62,1.62,0,0,1-1.549.012c-.315-.491-.155-1.037-.18-1.562.028-.478-.13-.979.173-1.424l.031-.031Z" transform="translate(-2413.041 -2263.8)" fill="#4694d0"/>
      <path id="Контур_3251" data-name="Контур 3251" d="M2463.465,2349.416q0-.7,0-1.393l1.43-.019C2464.872,2349.417,2464.872,2349.417,2463.465,2349.416Z" transform="translate(-2427.997 -2319.889)" fill="#dddede"/>
      <path id="Контур_3252" data-name="Контур 3252" d="M2335.71,2286.6q.008.709.016,1.417l-.005-.007a1.255,1.255,0,0,1-1.408.019l-.007-.006q0-.709.008-1.418Z" transform="translate(-2329.9 -2273.251)" fill="#303060"/>
      <path id="Контур_3253" data-name="Контур 3253" d="M2444.633,2336.991q0-.708,0-1.417l1.558,0q-.006.708-.012,1.414Z" transform="translate(-2413.693 -2310.448)" fill="#329dcd"/>
      <path id="Контур_3254" data-name="Контур 3254" d="M2334.288,2292.483l1.408-.019q.006.715.013,1.43l-1.436,0Q2334.281,2293.19,2334.288,2292.483Z" transform="translate(-2329.875 -2277.706)" fill="#aeae8f"/>
      <path id="Контур_3255" data-name="Контур 3255" d="M2427.2,2283.861l-1.551,0q0-1.418-.009-2.836a1.646,1.646,0,0,1-.01-1.575,1.665,1.665,0,0,1,1.584-.011,1.835,1.835,0,0,1,.188,1.185c.008.581.023,1.161-.011,1.742a4.007,4.007,0,0,1-.108,1.416Z" transform="translate(-2399.113 -2267.661)" fill="#4ec1f0"/>
      <path id="Контур_3256" data-name="Контур 3256" d="M2395.64,2300.006q0-.776,0-1.553h1.564C2397.179,2299.994,2397.179,2299.994,2395.64,2300.006Z" transform="translate(-2376.481 -2282.255)" fill="#3e5ea7"/>
      <path id="Контур_3257" data-name="Контур 3257" d="M2413.948,2287.425l0-1.419.078-.076a2.237,2.237,0,0,1,1.4,0l.079.076C2415.5,2287.441,2415.5,2287.441,2413.948,2287.425Z" transform="translate(-2390.388 -2272.657)" fill="#203c8c"/>
      <path id="Контур_3258" data-name="Контур 3258" d="M2421.216,2279.548q-.005.783-.01,1.566l-1.411-.013h0a1.914,1.914,0,0,1-.117-1.437.423.423,0,0,1,.136-.18,1.939,1.939,0,0,1,1.321-.015Z" transform="translate(-2394.678 -2267.754)" fill="#4694d0"/>
      <path id="Контур_3259" data-name="Контур 3259" d="M2345.938,2318.686q0-.71,0-1.422l1.424-.005.073.073c.011.828.327,1.341,1.26,1.231.079-.009.149.072.214.126v1.419c-.492.344-1.048.159-1.578.192a4.051,4.051,0,0,1-.452.018C2345.743,2320.309,2345.426,2319.761,2345.938,2318.686Z" transform="translate(-2338.554 -2296.538)" fill="#333b8f"/>
      <path id="Контур_3260" data-name="Контур 3260" d="M2352.614,2312.37q0-.775,0-1.548c1.552,0,1.552,0,1.552,1.552a1.476,1.476,0,0,1-1.551,0Z" transform="translate(-2343.803 -2291.648)" fill="#3e5ea7"/>
      <path id="Контур_3261" data-name="Контур 3261" d="M2351.922,2329.113l1.544,0q0,.78,0,1.56l-1.547-.006A1.447,1.447,0,0,1,2351.922,2329.113Z" transform="translate(-2343.108 -2305.537)" fill="#00619f"/>
      <path id="Контур_3262" data-name="Контур 3262" d="M2352.615,2317.272h1.552q0,.713,0,1.427h-.127C2352.61,2318.7,2352.61,2318.7,2352.615,2317.272Z" transform="translate(-2343.805 -2296.548)" fill="#00619f"/>
      <path id="Контур_3263" data-name="Контур 3263" d="M2372.445,2345.663h-.129c-1.419,0-1.419,0-1.413-1.415q0-.588,0-1.176a4.135,4.135,0,0,0,.447,0c.505-.053.78.12.716.674-.032.278,0,.527.385.494-.027.326.156.4.44.391.452-.012.907.025,1.357-.01.565-.044.876.115.8.746-.035.277.026.526.38.555q0,.649,0,1.3l-1.539-.027c0-.043-.006-.086-.006-.129C2373.864,2345.661,2373.864,2345.661,2372.445,2345.663Z" transform="translate(-2357.694 -2316.136)" fill="#295fa9"/>
      <path id="Контур_3264" data-name="Контур 3264" d="M2426.307,2360.3l2.964-.012.086.085a1.637,1.637,0,0,1-.059,1.391,2.887,2.887,0,0,1-1.406.144,4.327,4.327,0,0,1-1.515-.111l-.082-.085Z" transform="translate(-2399.766 -2329.221)" fill="#9e9e60"/>
      <path id="Контур_3265" data-name="Контур 3265" d="M2413.923,2367.681l-.007-1.4,1.578,0a1.279,1.279,0,0,1-.023,1.4Z" transform="translate(-2390.364 -2333.774)" fill="#2f609f"/>
      <path id="Контур_3266" data-name="Контур 3266" d="M2420.379,2367.636q.012-.7.023-1.405l1.4-.021.02.02a1.688,1.688,0,0,1,.09,1.339.374.374,0,0,1-.159.167,1.635,1.635,0,0,1-1.357-.085Z" transform="translate(-2395.273 -2333.717)" fill="#9e9e60"/>
      <path id="Контур_3267" data-name="Контур 3267" d="M2397.135,2267.761q.014.768.027,1.535h-1.6q.011-.771.022-1.543Z" transform="translate(-2376.422 -2258.937)" fill="#3e5ea7"/>
      <path id="Контур_3268" data-name="Контур 3268" d="M2413.919,2274.965q-.007-.7-.015-1.409l.025-.025a1.615,1.615,0,0,1,1.552-.009,1.385,1.385,0,0,1,0,1.433l-.024.025a1.791,1.791,0,0,1-1.456.067Z" transform="translate(-2390.355 -2263.171)" fill="#4694d0"/>
      <path id="Контур_3269" data-name="Контур 3269" d="M2409.428,2281.692c-1.392,0-1.392,0-1.433-1.554h1.436a1.5,1.5,0,0,1,0,1.554Z" transform="translate(-2385.867 -2268.343)" fill="#203c8c"/>
      <path id="Контур_3270" data-name="Контур 3270" d="M2346.69,2280.155l1.423-.044-.012,1.548C2346.69,2281.7,2346.69,2281.7,2346.69,2280.155Z" transform="translate(-2339.305 -2268.323)" fill="#fbce9e"/>
      <path id="Контур_3271" data-name="Контур 3271" d="M2438.684,2353.846l1.411-.013.086.085a1.79,1.79,0,0,1-.08,1.513,1.422,1.422,0,0,1-1.41-.025l-.02-.02Q2438.677,2354.616,2438.684,2353.846Z" transform="translate(-2409.166 -2324.316)" fill="#9e9e60"/>
      <path id="Контур_3272" data-name="Контур 3272" d="M2446.154,2347.943q0,.713,0,1.427l-.085.08a1.782,1.782,0,0,1-1.458-.07l-.02-.02q.006-.706.012-1.411Z" transform="translate(-2413.663 -2319.843)" fill="#9e9e60"/>
      <path id="Контур_3273" data-name="Контур 3273" d="M2352.585,2275.641q.018-.707.037-1.414l1.524-.012q-.014.7-.028,1.409Z" transform="translate(-2343.782 -2263.845)" fill="#f9f1a0"/>
      <path id="Контур_3274" data-name="Контур 3274" d="M2342.548,2324.62v1.549h-.064c-1.38.011-1.38.011-1.356,1.408l-.083.089a1.817,1.817,0,0,1-1.531-.071,1.484,1.484,0,0,1,.052-1.432q0-1.481,0-2.964l1.549-.009C2341.121,2324.606,2341.121,2324.606,2342.548,2324.62Z" transform="translate(-2333.735 -2301.044)" fill="#283276"/>
      <path id="Контур_3275" data-name="Контур 3275" d="M2335.718,2381.08c-1.432.033-1.432.033-1.432-1.407,0-.841.017-1.683-.008-2.523-.01-.355.078-.527.455-.461a.76.76,0,0,0,.129,0c.847,0,.886-.007.834-.835-.036-.579.122-.809.722-.729.262.035.7.14.78-.072a2.892,2.892,0,0,0,.046-1.207c-.022-.237-.281-.125-.432-.129-1.209-.04-1.2-.035-1.11-1.234.019-.248.079-.331.332-.329q2.653.013,5.306,0c.254,0,.329.079.328.33q-.014,2.654,0,5.307c0,.255-.081.349-.332.325a1.988,1.988,0,0,0-.517,0c-.492.085-.643-.111-.592-.592.028-.263.138-.713-.075-.776a3.147,3.147,0,0,0-1.338-.033c-.263.04-.116.369-.121.562-.02.831-.014.88-.853.819-.593-.043-.637.247-.573.67.086.578-.051.846-.725.787-.827-.072-.831-.017-.832.833,0,.237-.007.474-.01.711Z" transform="translate(-2329.877 -2338.232)"/>
      <path id="Контур_3276" data-name="Контур 3276" d="M2340.19,2409.248a7.291,7.291,0,0,0,.962-.017c.525-.075.682.149.6.628-.044.264.137.7-.106.764a4.092,4.092,0,0,1-1.338.023c-.159-.01-.106-.206-.107-.325,0-.363,0-.727.006-1.091Z" transform="translate(-2334.368 -2366.381)"/>
      <path id="Контур_3277" data-name="Контур 3277" d="M2493.454,2353.87l1.4.009v1.538a1.381,1.381,0,0,1-1.437.036,1.652,1.652,0,0,1,.029-1.577Z" transform="translate(-2450.607 -2324.344)" fill="#fefefe"/>
      <path id="Контур_3278" data-name="Контур 3278" d="M2494.913,2371.541v1.567a1.427,1.427,0,0,1-1.388.038,1.913,1.913,0,0,1-.127-1.5.4.4,0,0,1,.153-.179A1.58,1.58,0,0,1,2494.913,2371.541Z" transform="translate(-2450.664 -2337.621)" fill="#f9f1a0"/>
      <path id="Контур_3279" data-name="Контур 3279" d="M2494.869,2383.875v1.567a1.372,1.372,0,0,1-1.423.007,1.706,1.706,0,0,1-.009-1.572A1.346,1.346,0,0,1,2494.869,2383.875Z" transform="translate(-2450.619 -2346.978)" fill="#f9f1a0"/>
      <path id="Контур_3280" data-name="Контур 3280" d="M2494.909,2402.2v1.539a1.569,1.569,0,0,1-1.338.1.377.377,0,0,1-.165-.167,1.946,1.946,0,0,1,.1-1.515A1.351,1.351,0,0,1,2494.909,2402.2Z" transform="translate(-2450.659 -2360.885)" fill="#fefefe"/>
      <path id="Контур_3281" data-name="Контур 3281" d="M2395.612,2410.684a7.064,7.064,0,0,0,0-.838c-.05-.465.148-.588.589-.574,1.147.035.95-.085.97.961,0,.151,0,.3.007.452Z" transform="translate(-2376.458 -2366.422)" fill="#f9f1a0"/>
      <path id="Контур_3282" data-name="Контур 3282" d="M2414.836,2410.029H2413.3a1.249,1.249,0,0,1,0-1.408l-.007.007a1.59,1.59,0,0,1,1.562-.03A1.307,1.307,0,0,1,2414.836,2410.029Z" transform="translate(-2389.728 -2365.766)" fill="#fefefe"/>
      <path id="Контур_3283" data-name="Контур 3283" d="M2427.219,2410.033h-1.539a1.332,1.332,0,0,1-.023-1.421,1.7,1.7,0,0,1,1.575-.01A1.309,1.309,0,0,1,2427.219,2410.033Z" transform="translate(-2399.135 -2365.771)" fill="#fefefe"/>
      <path id="Контур_3284" data-name="Контур 3284" d="M2445.531,2410.034h-1.567a1.372,1.372,0,0,1-.007-1.423,1.7,1.7,0,0,1,1.572-.009A1.347,1.347,0,0,1,2445.531,2410.034Z" transform="translate(-2413.032 -2365.772)" fill="#f9f1a0"/>
      <path id="Контур_3285" data-name="Контур 3285" d="M2457.908,2410.034h-1.567a1.371,1.371,0,0,1-.007-1.423,1.7,1.7,0,0,1,1.572-.009A1.347,1.347,0,0,1,2457.908,2410.034Z" transform="translate(-2422.433 -2365.772)" fill="#f9f1a0"/>
      <path id="Контур_3286" data-name="Контур 3286" d="M2476.191,2410.033h-1.539a1.33,1.33,0,0,1-.023-1.421,1.7,1.7,0,0,1,1.574-.01A1.309,1.309,0,0,1,2476.191,2410.033Z" transform="translate(-2436.33 -2365.771)" fill="#fefefe"/>
      <path id="Контур_3287" data-name="Контур 3287" d="M2488.566,2410.024h-1.538a1.322,1.322,0,0,1-.018-1.426,1.575,1.575,0,0,1,1.568.025l-.007-.007A1.251,1.251,0,0,1,2488.566,2410.024Z" transform="translate(-2445.728 -2365.762)" fill="#fefefe"/>
      <path id="Контур_3288" data-name="Контур 3288" d="M2494.971,2380.058l-1.407,0-.074-.078a1.944,1.944,0,0,1,0-1.262l.075-.077,1.407,0Z" transform="translate(-2450.722 -2343.162)" fill="#fefefe"/>
      <path id="Контур_3289" data-name="Контур 3289" d="M2493.48,2360.307l1.384,0v1.438a1.413,1.413,0,0,1-1.443.015A1.368,1.368,0,0,1,2493.48,2360.307Z" transform="translate(-2450.614 -2329.23)" fill="#f9f1a0"/>
      <path id="Контур_3290" data-name="Контур 3290" d="M2494.113,2410.69q0-.7,0-1.408l1.408,0C2495.531,2411,2495.831,2410.7,2494.113,2410.69Z" transform="translate(-2451.275 -2366.428)" fill="#f9f1a0"/>
      <path id="Контур_3291" data-name="Контур 3291" d="M2493.51,2391.023l1.407,0v1.409a1.381,1.381,0,0,1-1.386.054,1.514,1.514,0,0,1-.1-1.379C2493.455,2391.082,2493.482,2391.052,2493.51,2391.023Z" transform="translate(-2450.667 -2352.563)" fill="#fefefe"/>
      <path id="Контур_3292" data-name="Контур 3292" d="M2493.564,2396.91l1.407-.01v1.438l-1.407-.011-.074-.078a1.943,1.943,0,0,1,0-1.261Z" transform="translate(-2450.722 -2357.026)" fill="#f9f1a0"/>
      <path id="Контур_3293" data-name="Контур 3293" d="M2493.487,2366.269l1.384,0v1.41h-1.42A1.258,1.258,0,0,1,2493.487,2366.269Z" transform="translate(-2450.621 -2333.762)" fill="#fefefe"/>
      <path id="Контур_3294" data-name="Контур 3294" d="M2409.444,2409.293q0,.7,0,1.408h-1.438C2408.034,2409.306,2408.034,2409.306,2409.444,2409.293Z" transform="translate(-2385.878 -2366.439)" fill="#f9f1a0"/>
      <path id="Контур_3295" data-name="Контур 3295" d="M2421.815,2408.729q.005.7.01,1.407h-1.438q.005-.7.01-1.407l.078-.074a1.94,1.94,0,0,1,1.261,0Z" transform="translate(-2395.279 -2365.874)" fill="#f9f1a0"/>
      <path id="Контур_3296" data-name="Контур 3296" d="M2432.764,2410.088l.01-1.407.089-.08a1.538,1.538,0,0,1,1.373.094,1.414,1.414,0,0,1-.033,1.394Z" transform="translate(-2404.68 -2365.826)" fill="#f9f1a0"/>
      <path id="Контур_3297" data-name="Контур 3297" d="M2438.731,2410.136q0-.7,0-1.407l.078-.074a1.941,1.941,0,0,1,1.262,0l.078.075q0,.7,0,1.407Z" transform="translate(-2409.209 -2365.874)" fill="#fefefe"/>
      <path id="Контур_3298" data-name="Контур 3298" d="M2452.521,2408.729q0,.7,0,1.407h-1.409q0-.7,0-1.407l.078-.074a1.941,1.941,0,0,1,1.262,0Z" transform="translate(-2418.609 -2365.874)" fill="#fefefe"/>
      <path id="Контур_3299" data-name="Контур 3299" d="M2463.486,2410.088q0-.7,0-1.407l.088-.08a1.535,1.535,0,0,1,1.374.1,1.368,1.368,0,0,1-.05,1.392Z" transform="translate(-2428.01 -2365.825)" fill="#fefefe"/>
      <path id="Контур_3300" data-name="Контур 3300" d="M2469.358,2410.136q.006-.7.01-1.407l.079-.074a1.941,1.941,0,0,1,1.262,0l.078.075.01,1.407Z" transform="translate(-2432.473 -2365.874)" fill="#f9f1a0"/>
      <path id="Контур_3301" data-name="Контур 3301" d="M2483.163,2408.729q.005.7.01,1.407h-1.438q.005-.7.011-1.407l.078-.074a1.94,1.94,0,0,1,1.261,0Z" transform="translate(-2441.874 -2365.874)" fill="#f9f1a0"/>
      <path id="Контур_3302" data-name="Контур 3302" d="M2426.3,2383.89l5.947-.027a1.435,1.435,0,0,1,1.426,0l4.395.034.083.086a1.762,1.762,0,0,1-.084,1.491,2.845,2.845,0,0,1-1.412.151c-.476.015-.951.016-1.427,0-.516.015-1.031.016-1.547,0-.477.015-.953.016-1.43,0q-.778.024-1.556,0a2.6,2.6,0,0,1-1.425-.167c-.815-.007-1.631-.037-2.445-.012-.411.012-.585-.094-.538-.528A9.975,9.975,0,0,0,2426.3,2383.89Z" transform="translate(-2399.751 -2346.98)" fill="#2f609f"/>
      <path id="Контур_3303" data-name="Контур 3303" d="M2425.675,2396.3l2.969-.037c.446-.286.94-.146,1.417-.167.517-.015,1.034-.017,1.552,0,.476-.015.952-.016,1.428,0,.515-.015,1.031-.017,1.546,0,.475-.014.949-.016,1.424,0a3.1,3.1,0,0,1,1.412.137,1.625,1.625,0,0,1,.13,1.381.388.388,0,0,1-.155.176,4.158,4.158,0,0,1-1.4.1c-.469.017-.938.014-1.407,0q-.771.024-1.541,0c-.476.015-.951.016-1.427,0-.516.015-1.032.017-1.547,0-.476.015-.952.016-1.427,0q-.718.023-1.435,0a3.039,3.039,0,0,1-1.562-.169A1.328,1.328,0,0,1,2425.675,2396.3Z" transform="translate(-2399.129 -2356.405)" fill="#2f609f"/>
      <path id="Контур_3304" data-name="Контур 3304" d="M2415.5,2404.389l-1.56.006q0-.78.007-1.56l-.007.008h1.56l.079.087a1.737,1.737,0,0,1-.086,1.467Z" transform="translate(-2390.385 -2361.534)" fill="#f9f1a0"/>
      <path id="Контур_3305" data-name="Контур 3305" d="M2440.135,2392.48h-1.426V2391.1h1.426A1.248,1.248,0,0,1,2440.135,2392.48Z" transform="translate(-2409.194 -2352.621)" fill="#f9f1a0"/>
      <path id="Контур_3306" data-name="Контур 3306" d="M2409.431,2398.1c-.28,0-.561-.018-.838.009-.432.042-.613-.092-.6-.564.021-.83.375-1.1,1.2-.861.229.066.232.219.233.393,0,.344,0,.688,0,1.032Z" transform="translate(-2385.865 -2356.796)" fill="#f9f1a0"/>
      <path id="Контур_3307" data-name="Контур 3307" d="M2421.836,2396.942q0,.7,0,1.4l-.083.085a1.481,1.481,0,0,1-1.355-.077l.007.007c0-.021,0-.043,0-.064C2420.4,2396.889,2420.4,2396.889,2421.836,2396.942Z" transform="translate(-2395.291 -2357.046)" fill="#f9f1a0"/>
      <path id="Контур_3308" data-name="Контур 3308" d="M2421.815,2377.959q0,.706-.008,1.412l-1.431-.009q.007-.7.014-1.406l-.007-.012A1.28,1.28,0,0,1,2421.815,2377.959Z" transform="translate(-2395.271 -2342.469)" fill="#dddede"/>
      <path id="Контур_3309" data-name="Контур 3309" d="M2421.838,2373.735l-1.431-.014q0-.771.01-1.542l1.417-.008a1.452,1.452,0,0,1,0,1.545Z" transform="translate(-2395.294 -2338.244)" fill="#aeae8f"/>
      <path id="Контур_3310" data-name="Контур 3310" d="M2335.7,2335.52v1.426a1.482,1.482,0,0,1,.005,1.539l-1.418.014c0-.788.018-1.577-.02-2.364-.022-.468.11-.675.6-.615A6.543,6.543,0,0,0,2335.7,2335.52Z" transform="translate(-2329.869 -2310.399)" fill="#222652"/>
      <path id="Контур_3311" data-name="Контур 3311" d="M2349.615,2348.7c-.79,0-1.581-.029-2.37.006-.466.021-.678-.1-.616-.6a6.146,6.146,0,0,0,0-.832,1.339,1.339,0,0,1,1.441-.017c.042,0,.084.008.127.009C2349.612,2347.3,2349.612,2347.3,2349.615,2348.7Z" transform="translate(-2339.251 -2319.169)" fill="#13132b"/>
      <path id="Контур_3312" data-name="Контур 3312" d="M2347.431,2342.984l-1.44.017.007.006a1.506,1.506,0,0,1,0-1.553l.014-.025c1.4.054,1.4.054,1.421,1.491C2347.428,2342.941,2347.43,2342.963,2347.431,2342.984Z" transform="translate(-2338.614 -2314.896)" fill="#282e69"/>
      <path id="Контур_3313" data-name="Контур 3313" d="M2341.781,2341.493l0,1.553-1.546-.026q0-.77-.006-1.539Z" transform="translate(-2334.401 -2314.935)" fill="#13132b"/>
      <path id="Контур_3314" data-name="Контур 3314" d="M2444.626,2298.4c.3,0,.6.022.9-.007.483-.048.691.091.669.63-.037.9-.433,1.2-1.329.924-.223-.068-.234-.219-.235-.394,0-.385,0-.771,0-1.157Z" transform="translate(-2413.689 -2282.202)" fill="#4ec1f0"/>
      <path id="Контур_3315" data-name="Контур 3315" d="M2444.054,2286.582l1.536.017c.042,1.4.042,1.4-1.343,1.413-.064,0-.129,0-.194,0l-.077-.077a1.884,1.884,0,0,1,0-1.28Z" transform="translate(-2413.11 -2273.238)" fill="#4ec1f0"/>
      <path id="Контур_3316" data-name="Контур 3316" d="M2434.208,2297.823c0,.341-.027.683,0,1.021.037.435-.156.538-.558.536-.87-.005-.87.014-.871-.854,0-.234,0-.468,0-.7l.009-.009a1.519,1.519,0,0,1,1.342-.074Z" transform="translate(-2404.688 -2281.623)" fill="#4ec1f0"/>
      <path id="Контур_3317" data-name="Контур 3317" d="M2439.524,2293.318l-1.421.007-.008-.009a1.657,1.657,0,0,1-.1-1.344.375.375,0,0,1,.16-.168,1.62,1.62,0,0,1,1.361.088l.009.009-.007,1.421Z" transform="translate(-2408.583 -2277.124)" fill="#4ec1f0"/>
      <path id="Контур_3318" data-name="Контур 3318" d="M2479.909,2356.869l-.037,1.412.012-.007c-.47.352-1.01.17-1.522.2-.47.01-.94.017-1.41,0a4.369,4.369,0,0,1-1.495-.109l-.083-.083q0-.706,0-1.412c.459-.337.983-.156,1.48-.19,1.441-.015,1.269.13,1.29-1.283.033-.5-.148-1.027.19-1.487l1.544-.017.025,1.545Z" transform="translate(-2437.042 -2324.361)" fill="#9f3130"/>
      <path id="Контур_3319" data-name="Контур 3319" d="M2476.841,2356.825l-1.529.014c-.007-.86,0-1.722-.026-2.582-.008-.309.1-.412.4-.4.86.022,1.721.019,2.582.026q-.007.764-.014,1.529A3.108,3.108,0,0,0,2476.841,2356.825Z" transform="translate(-2436.975 -2324.331)" fill="#e95254"/>
      <path id="Контур_3320" data-name="Контур 3320" d="M2432.174,2365.6l1.41-.018a1.426,1.426,0,0,1,1.441-.013A1.32,1.32,0,0,1,2435,2367l-1.405.023a1.734,1.734,0,0,1-1.352.09.379.379,0,0,1-.17-.159A1.554,1.554,0,0,1,2432.174,2365.6Z" transform="translate(-2404.076 -2333.085)" fill="#cece9e"/>
      <path id="Контур_3321" data-name="Контур 3321" d="M2456.367,2353.874l1.552,0c0,1.524,0,1.524-1.541,1.565l-.085-.083a1.717,1.717,0,0,1,.076-1.481Z" transform="translate(-2422.451 -2324.345)" fill="#dddede"/>
      <path id="Контур_3322" data-name="Контур 3322" d="M2426.32,2373.029q0-.773,0-1.545h0a1.5,1.5,0,0,1,1.546-.008l.016.015a1.453,1.453,0,0,1-.018,1.534Z" transform="translate(-2399.785 -2337.556)" fill="#cece9e"/>
      <path id="Контур_3323" data-name="Контур 3323" d="M2444.593,2367.065l.012-1.412.079-.077a2.177,2.177,0,0,1,1.408.006l.075.082C2446.127,2367.107,2446.127,2367.107,2444.593,2367.065Z" transform="translate(-2413.664 -2333.149)" fill="#dddede"/>
      <path id="Контур_3324" data-name="Контур 3324" d="M2432.754,2373.74q.008-.767.017-1.534l1.425,0c0,.063-.006.127-.007.19C2434.175,2373.779,2434.175,2373.779,2432.754,2373.74Z" transform="translate(-2404.672 -2338.271)" fill="#dddede"/>
      <path id="Контур_3325" data-name="Контур 3325" d="M2470.759,2373.678a5.7,5.7,0,0,0-.708.008c-.543.071-.769-.093-.733-.692.052-.861.01-.864.874-.866.194,0,.387,0,.58-.007l-.011-.007a1.8,1.8,0,0,1,.079,1.478Z" transform="translate(-2432.44 -2338.201)" fill="#f9f1a0"/>
      <path id="Контур_3326" data-name="Контур 3326" d="M2475.267,2379.436q0-.72.008-1.44l-.007.007a1.888,1.888,0,0,1,1.476-.106.383.383,0,0,1,.173.164,1.611,1.611,0,0,1-.106,1.406,1.659,1.659,0,0,1-1.551-.04Z" transform="translate(-2436.955 -2342.519)" fill="#f9f1a0"/>
      <path id="Контур_3327" data-name="Контур 3327" d="M2451.915,2359.722c-.038,1.386-.038,1.386-1.424,1.424l-.021-.022a1.69,1.69,0,0,1-.09-1.337.372.372,0,0,1,.159-.167,1.646,1.646,0,0,1,1.355.081Z" transform="translate(-2417.988 -2328.631)" fill="#dddede"/>
      <path id="Контур_3328" data-name="Контур 3328" d="M2452.486,2380.005h-1.427c0-.3.023-.6,0-.9-.036-.407.143-.507.524-.509.9,0,.9-.022.905.895Q2452.485,2379.748,2452.486,2380.005Z" transform="translate(-2418.569 -2343.123)" fill="#f9f1a0"/>
      <path id="Контур_3329" data-name="Контур 3329" d="M2415.513,2269.319l-1.543-.01c-.047-1.546-.047-1.546,1.543-1.54l.075.079a2.267,2.267,0,0,1,0,1.392Z" transform="translate(-2390.396 -2258.95)" fill="#4ec1f0"/>
      <path id="Контур_3330" data-name="Контур 3330" d="M2427.254,2261.887q.007.7.014,1.41l-.081.076a2.434,2.434,0,0,1-1.422.008.372.372,0,0,1-.153-.166,1.593,1.593,0,0,1,.108-1.335Z" transform="translate(-2399.177 -2254.477)" fill="#87cede"/>
      <path id="Контур_3331" data-name="Контур 3331" d="M2421.84,2261.857q0,.708,0,1.416a1.288,1.288,0,0,1-1.427,0l0,0C2420.407,2261.828,2420.407,2261.828,2421.84,2261.857Z" transform="translate(-2395.296 -2254.454)" fill="#4ec1f0"/>
      <path id="Контур_3332" data-name="Контур 3332" d="M2451.806,2355.415l-1.412.013a1.476,1.476,0,0,1,0-1.556h1.426Z" transform="translate(-2417.901 -2324.346)" fill="#cece9e"/>
      <path id="Контур_3333" data-name="Контур 3333" d="M2432.161,2267.763c1.428,0,1.428,0,1.424,1.553l-.08.076a2.04,2.04,0,0,1-1.306,0,.384.384,0,0,1-.146-.172,1.9,1.9,0,0,1,.111-1.459Z" transform="translate(-2404.07 -2258.944)" fill="#87cede"/>
      <path id="Контур_3334" data-name="Контур 3334" d="M2439.5,2274.236q0,.7.007,1.4a1.6,1.6,0,0,1-1.341.1.376.376,0,0,1-.167-.161,1.605,1.605,0,0,1,.094-1.364l0,0Z" transform="translate(-2408.572 -2263.849)" fill="#87cede"/>
      <path id="Контур_3335" data-name="Контур 3335" d="M2438.012,2280.127l1.421-.005q.007.777.013,1.554l-.008.008a1.443,1.443,0,0,1-1.451.026A1.649,1.649,0,0,1,2438.012,2280.127Z" transform="translate(-2408.502 -2268.332)" fill="#4ec1f0"/>
      <path id="Контур_3336" data-name="Контур 3336" d="M2434.231,2279.522q.006.773.012,1.546a1.333,1.333,0,0,1-.006,1.432h0a1.278,1.278,0,0,1-1.416-.006l0-2.971.085-.08a1.478,1.478,0,0,1,1.333.084Z" transform="translate(-2404.72 -2267.727)" fill="#acdbe6"/>
      <path id="Контур_3337" data-name="Контур 3337" d="M2427.277,2275h-1.559l0,0a1.632,1.632,0,0,1-.1-1.352.372.372,0,0,1,.163-.167,1.854,1.854,0,0,1,1.491.1l0,0a1.3,1.3,0,0,1,0,1.43Z" transform="translate(-2399.18 -2263.209)" fill="#87cede"/>
      <path id="Контур_3338" data-name="Контур 3338" d="M2432.816,2292.5l1.416.006-.005,1.419h-1.416Q2432.813,2293.212,2432.816,2292.5Z" transform="translate(-2404.715 -2277.732)" fill="#87cede"/>
      <path id="Контур_3339" data-name="Контур 3339" d="M2413.963,2281.69q0-.777,0-1.554l1.539.014q.007.77.014,1.539Z" transform="translate(-2390.4 -2268.343)" fill="#295fa9"/>
      <path id="Контур_3340" data-name="Контур 3340" d="M2421.836,2273.543v1.425l-1.413-.013q-.006-.707-.01-1.413l0,0A1.289,1.289,0,0,1,2421.836,2273.543Z" transform="translate(-2395.296 -2263.172)" fill="#4ec1f0"/>
      <path id="Контур_3341" data-name="Контур 3341" d="M2427.88,2367.7l-1.546.008q0-.707.01-1.414h1.55Q2427.888,2366.994,2427.88,2367.7Z" transform="translate(-2399.796 -2333.778)" fill="#aeae8f"/>
      <path id="Контур_3342" data-name="Контур 3342" d="M2440.118,2361.735l-1.433-.009q.009-.7.017-1.406l1.407-.017.083.083a1.505,1.505,0,0,1-.075,1.35Z" transform="translate(-2409.177 -2329.231)" fill="#aeae8f"/>
      <path id="Контур_3343" data-name="Контур 3343" d="M2446.164,2353.872v1.556h0a1.5,1.5,0,0,1-1.548.006l-.014-.014q.008-.768.017-1.537Z" transform="translate(-2413.672 -2324.346)" fill="#aeae8f"/>
      <path id="Контур_3344" data-name="Контур 3344" d="M2487,2372.149l1.545-.035q0,.785,0,1.57l.007-.007a1.587,1.587,0,0,1-1.563.029A1.5,1.5,0,0,1,2487,2372.149Z" transform="translate(-2445.703 -2338.201)" fill="#fefefe"/>
      <path id="Контур_3345" data-name="Контур 3345" d="M2488.595,2383.9v1.56l.007-.007a1.658,1.658,0,0,1-1.531.057,1.863,1.863,0,0,1-.134-1.516.391.391,0,0,1,.16-.177,1.823,1.823,0,0,1,1.505.091Z" transform="translate(-2445.752 -2347)" fill="#fefefe"/>
      <path id="Контур_3346" data-name="Контур 3346" d="M2488.555,2403.714l-1.56-.007.007.007a1.573,1.573,0,0,1-.023-1.571,1.556,1.556,0,0,1,1.576.017l-.007-.007Q2488.551,2402.934,2488.555,2403.714Z" transform="translate(-2445.705 -2360.853)" fill="#f9f1a0"/>
      <path id="Контур_3347" data-name="Контур 3347" d="M2425.658,2402.8l1.544.032a1.452,1.452,0,0,1-.005,1.535l.007-.007h-1.559l.007.007a1.5,1.5,0,0,1-.019-1.542Z" transform="translate(-2399.109 -2361.51)" fill="#f9f1a0"/>
      <path id="Контур_3348" data-name="Контур 3348" d="M2443.946,2402.939h1.55a1.443,1.443,0,0,1,0,1.535l.007-.007h-1.559l.007.007A1.444,1.444,0,0,1,2443.946,2402.939Z" transform="translate(-2413.005 -2361.613)" fill="#fefefe"/>
      <path id="Контур_3349" data-name="Контур 3349" d="M2456.323,2402.939h1.55a1.444,1.444,0,0,1,0,1.535l.007-.007h-1.56l.007.007A1.444,1.444,0,0,1,2456.323,2402.939Z" transform="translate(-2422.406 -2361.613)" fill="#fefefe"/>
      <path id="Контур_3350" data-name="Контур 3350" d="M2476.168,2403.713h-1.56l.007.007a1.5,1.5,0,0,1-.006-1.568l-.009.009a1.61,1.61,0,0,1,1.577-.018,1.553,1.553,0,0,1-.015,1.577Z" transform="translate(-2436.296 -2360.858)" fill="#f9f1a0"/>
      <path id="Контур_3351" data-name="Контур 3351" d="M2488.618,2380.047h-1.56a1.526,1.526,0,0,1-.08-1.338l.08-.085,1.56-.007Z" transform="translate(-2445.769 -2343.139)" fill="#f9f1a0"/>
      <path id="Контур_3352" data-name="Контур 3352" d="M2487.048,2391l1.56-.007q0,.715-.006,1.43l.007-.006a1.664,1.664,0,0,1-1.529.058,1.484,1.484,0,0,1-.113-1.386C2486.993,2391.061,2487.021,2391.032,2487.048,2391Z" transform="translate(-2445.759 -2352.542)" fill="#f9f1a0"/>
      <path id="Контур_3353" data-name="Контур 3353" d="M2487.106,2396.922l1.56-.007v1.431l-1.56-.007-.073-.078a1.945,1.945,0,0,1,0-1.26Z" transform="translate(-2445.817 -2357.038)" fill="#fefefe"/>
      <path id="Контур_3354" data-name="Контур 3354" d="M2421.815,2402.853q.009.771.018,1.542H2420.4v-1.56Z" transform="translate(-2395.291 -2361.534)" fill="#fefefe"/>
      <path id="Контур_3355" data-name="Контур 3355" d="M2432.779,2404.474q0-.767,0-1.535h1.421a1.443,1.443,0,0,1,0,1.535l.007-.007Z" transform="translate(-2404.691 -2361.613)" fill="#fefefe"/>
      <path id="Контур_3356" data-name="Контур 3356" d="M2438.7,2404.474q0-.767,0-1.535h1.427q0,.768,0,1.535Z" transform="translate(-2409.187 -2361.613)" fill="#f9f1a0"/>
      <path id="Контур_3357" data-name="Контур 3357" d="M2452.5,2402.939q0,.768,0,1.535h-1.431q0-.767,0-1.535Z" transform="translate(-2418.588 -2361.613)" fill="#f9f1a0"/>
      <path id="Контур_3358" data-name="Контур 3358" d="M2463.454,2404.474q0-.767,0-1.535h1.426a1.452,1.452,0,0,1-.005,1.535l.007-.007Z" transform="translate(-2427.989 -2361.613)" fill="#f9f1a0"/>
      <path id="Контур_3359" data-name="Контур 3359" d="M2469.373,2404.37q0-.768,0-1.535l1.42-.033q0,.784.006,1.568Z" transform="translate(-2432.485 -2361.508)" fill="#fefefe"/>
      <path id="Контур_3360" data-name="Контур 3360" d="M2481.751,2403.785l.007-1.56.086-.079a1.5,1.5,0,0,1,1.337.085l-.006-.006.007,1.56Z" transform="translate(-2441.886 -2360.924)" fill="#fefefe"/>
      <path id="Контур_3361" data-name="Контур 3361" d="M2475.259,2384.563h1.568l.075.08a2.527,2.527,0,0,1,.018,1.4.358.358,0,0,1-.152.158,2.386,2.386,0,0,1-1.426-.016l-.078-.081Z" transform="translate(-2436.955 -2347.656)" fill="#fefefe"/>
      <path id="Контур_3362" data-name="Контур 3362" d="M2444.639,2392.48V2391.1h1.55a1.231,1.231,0,0,1,0,1.381Z" transform="translate(-2413.699 -2352.621)" fill="#fefefe"/>
      <path id="Контур_3363" data-name="Контур 3363" d="M2457.9,2392.48h-1.55a1.231,1.231,0,0,1,0-1.381h1.55A1.233,1.233,0,0,1,2457.9,2392.48Z" transform="translate(-2422.433 -2352.621)" fill="#fefefe"/>
      <path id="Контур_3364" data-name="Контур 3364" d="M2452.511,2391.1q0,.69,0,1.381h-1.427V2391.1Z" transform="translate(-2418.594 -2352.621)" fill="#f9f1a0"/>
      <path id="Контур_3365" data-name="Контур 3365" d="M2463.463,2392.48V2391.1h1.427a1.248,1.248,0,0,1,0,1.381Z" transform="translate(-2427.996 -2352.621)" fill="#f9f1a0"/>
      <path id="Контур_3366" data-name="Контур 3366" d="M2469.394,2392.391v-1.381l1.416-.028.01.011a1.516,1.516,0,0,1,.073,1.344l-.083.082Z" transform="translate(-2432.5 -2352.531)" fill="#fefefe"/>
      <path id="Контур_3367" data-name="Контур 3367" d="M2476.828,2397.721h-1.568q0-.708,0-1.415l.011-.01a1.926,1.926,0,0,1,1.47-.1.38.38,0,0,1,.17.16,1.586,1.586,0,0,1-.094,1.369Z" transform="translate(-2436.955 -2356.42)" fill="#fefefe"/>
      <path id="Контур_3368" data-name="Контур 3368" d="M2438.718,2288q0-.716.006-1.432l1.414.011V2288Z" transform="translate(-2409.202 -2273.23)" fill="#87cede"/>
      <path id="Контур_3369" data-name="Контур 3369" d="M2476.853,2373.685h-1.56q0-.785.008-1.571l1.545.035A1.448,1.448,0,0,1,2476.853,2373.685Z" transform="translate(-2436.981 -2338.201)" fill="#fefefe"/>
      <path id="Контур_3370" data-name="Контур 3370" d="M2481.756,2373.8l-.007-1.535h1.432q0,.768-.007,1.535l.007-.007a1.288,1.288,0,0,1-1.431,0Z" transform="translate(-2441.884 -2338.312)" fill="#f9f1a0"/>
      <path id="Контур_3371" data-name="Контур 3371" d="M2481.755,2361.739c.009-1.407.009-1.407,1.417-1.416C2483.207,2361.775,2483.207,2361.775,2481.755,2361.739Z" transform="translate(-2441.889 -2329.246)" fill="#e42320"/>
      <path id="Контур_3372" data-name="Контур 3372" d="M2444.643,2360.342l1.548-.006q-.006.707-.012,1.413l-1.542.013Q2444.64,2361.051,2444.643,2360.342Z" transform="translate(-2413.698 -2329.255)" fill="#cece9e"/>
      <path id="Контур_3373" data-name="Контур 3373" d="M2481.751,2378.616h1.431q0,.716-.007,1.431l.007-.007a1.289,1.289,0,0,1-1.431,0l.007.007Q2481.754,2379.331,2481.751,2378.616Z" transform="translate(-2441.886 -2343.139)" fill="#fefefe"/>
      <path id="Контур_3374" data-name="Контур 3374" d="M2421.836,2269.312l-1.427,0v-1.557l1.427,0,0,0a1.485,1.485,0,0,1,0,1.556Z" transform="translate(-2395.296 -2258.941)" fill="#4694d0"/>
      <path id="Контур_3375" data-name="Контур 3375" d="M2426.334,2269.315v-1.556h1.555q0,.778,0,1.557Z" transform="translate(-2399.796 -2258.942)" fill="#4ec1f0"/>
      <path id="Контур_3376" data-name="Контур 3376" d="M2432.789,2275.646q0-.715,0-1.43h1.426q0,.714,0,1.429Z" transform="translate(-2404.698 -2263.846)" fill="#4ec1f0"/>
      <path id="Контур_3377" data-name="Контур 3377" d="M2481.751,2384.536h1.431q0,.78-.007,1.56l.007-.007a1.294,1.294,0,0,1-1.431.007Z" transform="translate(-2441.886 -2347.636)" fill="#f9f1a0"/>
      <path id="Контур_3378" data-name="Контур 3378" d="M2481.09,2391l1.43-.007-.007,1.431.007-.007a1.291,1.291,0,0,1-1.43,0l.007.007a1.29,1.29,0,0,1,0-1.431Z" transform="translate(-2441.225 -2352.542)" fill="#fefefe"/>
      <path id="Контур_3379" data-name="Контур 3379" d="M2481.753,2396.917h1.43v1.43h-1.43Z" transform="translate(-2441.887 -2357.039)" fill="#f9f1a0"/>
      <path id="Контур_3380" data-name="Контур 3380" d="M2476.878,2391v1.431l-1.552-.008V2391Z" transform="translate(-2437.005 -2352.542)" fill="#f9f1a0"/>
    </g>
    <path id="Контур_4048" data-name="Контур 4048" d="M-57.677-56.07h1.667v1.7h-1.667Zm3.35,0h1.683v1.7h-1.683ZM-59.36-42.586V-54.37h1.683v11.784Zm3.35,0V-54.37h1.683v11.784Zm3.367-11.784h1.683v11.784h-1.683Zm5.05,3.4h5.033V-49.3h-5.033ZM-42.56-49.3h1.683v5.05H-42.56v-1.683h-5.033v-1.683h5.033Zm-6.717,3.367h1.683v1.683h-1.683Zm1.683,3.367v-1.683h5.033v1.683Zm10.067-8.4v-1.717h1.683v1.717Zm-1.683,6.7h1.683v-3.35H-39.21V-49.3h3.367v6.717H-39.21Zm5.05-10.05h1.683V-42.6h-1.683Z" transform="translate(68.652 108.249)"/>
  </g>
  <g id="Прямоугольник_156" data-name="Прямоугольник 156" transform="translate(0 49.492)" fill="none" stroke="#000" stroke-width="1" stroke-dasharray="3 3">
    <rect width="48" height="20" stroke="none"/>
    <rect x="0.5" y="0.5" width="47" height="19" fill="none"/>
  </g>
</svg>
