<svg xmlns="http://www.w3.org/2000/svg" width="220.956" height="13.811" viewBox="0 0 220.956 13.811">
  <g id="welkome_to_Windnfire" data-name="welkome to Windnfire" transform="translate(0 -0.05)">
    <g id="Сгруппировать_244" data-name="Сгруппировать 244" transform="translate(112.321)">
      <g id="Сгруппировать_4" data-name="Сгруппировать 4" transform="translate(0 0.05)">
        <g id="Сгруппировать_3" data-name="Сгруппировать 3">
          <path id="Контур_22" data-name="Контур 22" d="M10.96,1406.045h3v13.618H10.5l-3.506-5.8-3.525,5.8H0v-13.618H3.467v7.685l1.695-3.082.1-.154H8.726l.077.154,1.695,3.082v-7.685Z" transform="translate(0 -1405.891)" fill="#fff"/>
          <path id="Контур_23" data-name="Контур 23" d="M115.566,1406.045v13.618H112.1v-13.618Z" transform="translate(-95.014 -1405.891)" fill="#fff"/>
          <path id="Контур_24" data-name="Контур 24" d="M162.813,1406.045h3.467v13.618h-3.467l-4.006-7.3v7.3H155.32v-13.618h3.486l4.006,7.3Z" transform="translate(-131.647 -1405.891)" fill="#fff"/>
          <path id="Контур_25" data-name="Контур 25" d="M253.674,1405.14a8.05,8.05,0,0,1,2.051.491,5.9,5.9,0,0,1,1.878,1.175,6.759,6.759,0,0,1,1.666,2.34,6.993,6.993,0,0,1,.588,2.8,6.628,6.628,0,0,1-.751,3.14A6.223,6.223,0,0,1,257,1417.5a7.4,7.4,0,0,1-2.774,1.089,20.219,20.219,0,0,1-3.438.26l-1.579-.019q-.5-.02-1.5-.019v-13.772h3.486Q252.634,1405.034,253.674,1405.14Zm2.87,6.809a3.49,3.49,0,0,0-.462-1.743,3.659,3.659,0,0,0-1.262-1.32,3.354,3.354,0,0,0-1.743-.52h-1.888v7.108a14.842,14.842,0,0,0,2.379-.164,4.046,4.046,0,0,0,1.791-.761,3.026,3.026,0,0,0,1.088-1.791A3.849,3.849,0,0,0,256.544,1411.949Z" transform="translate(-209.95 -1405.034)" fill="#fff"/>
          <path id="Контур_26" data-name="Контур 26" d="M352.887,1406.045h3.467v13.618h-3.467l-4.006-7.3v7.3h-3.486v-13.618h3.486l4.006,7.3Z" transform="translate(-292.752 -1405.891)" fill="#fff"/>
          <path id="Контур_27" data-name="Контур 27" d="M447.254,1408.992h-6.01v2.389h4.815v2.947h-4.815v5.336h-3.467v-13.618h9.477Z" transform="translate(-371.055 -1405.891)" fill="#fff"/>
          <path id="Контур_28" data-name="Контур 28" d="M521.367,1406.045v13.618H517.9v-13.618Z" transform="translate(-438.966 -1405.891)" fill="#fff"/>
          <path id="Контур_29" data-name="Контур 29" d="M572.236,1419.663H568.75l-2.158-5.143h-2.215v5.143h-3.255v-13.618h6.491a4.239,4.239,0,0,1,4.237,4.238,4.109,4.109,0,0,1-.52,2.032,4.4,4.4,0,0,1-1.406,1.531Zm-3.833-10.373a1.293,1.293,0,0,0-.905-.453h-3.2v2.889h3.2a1.366,1.366,0,0,0,.905-.472,1.448,1.448,0,0,0,.366-.992A1.424,1.424,0,0,0,568.4,1409.291Z" transform="translate(-475.6 -1405.891)" fill="#fff"/>
          <path id="Контур_30" data-name="Контур 30" d="M661.254,1416.716v2.947h-9.265v-13.618h9.092v2.947h-5.605v2.389h4.719v2.947h-4.719v2.388Z" transform="translate(-552.618 -1405.891)" fill="#fff"/>
        </g>
      </g>
    </g>
    <path id="Контур_1886" data-name="Контур 1886" d="M58.175,21.082,54.968,7.651h2.776l2.025,9.226,2.455-9.226h3.225L67.8,17.033l2.061-9.381H72.6L69.334,21.082H66.457L63.782,11.041,61.116,21.082Zm21.081-3.1,2.565.431a4.208,4.208,0,0,1-1.562,2.148,4.589,4.589,0,0,1-2.671.738,4.353,4.353,0,0,1-3.756-1.658,5.571,5.571,0,0,1-.962-3.353A5.372,5.372,0,0,1,74.134,12.5a4.164,4.164,0,0,1,3.2-1.37,4.319,4.319,0,0,1,3.426,1.434,6.344,6.344,0,0,1,1.2,4.393h-6.45a2.6,2.6,0,0,0,.623,1.782,1.949,1.949,0,0,0,1.484.637,1.576,1.576,0,0,0,1.017-.33A2.037,2.037,0,0,0,79.255,17.986Zm.147-2.6a2.479,2.479,0,0,0-.577-1.7,1.858,1.858,0,0,0-2.73.032,2.375,2.375,0,0,0-.541,1.667Zm4.654,5.7V7.651H86.63V21.082Zm13.7-6.853-2.538.458a1.842,1.842,0,0,0-.582-1.145,1.757,1.757,0,0,0-1.177-.385,1.924,1.924,0,0,0-1.535.664,3.4,3.4,0,0,0-.573,2.222,3.937,3.937,0,0,0,.582,2.446,1.91,1.91,0,0,0,1.562.715,1.735,1.735,0,0,0,1.2-.417,2.507,2.507,0,0,0,.66-1.434l2.529.431a4.487,4.487,0,0,1-1.512,2.629,4.679,4.679,0,0,1-3,.889,4.454,4.454,0,0,1-3.4-1.347A5.221,5.221,0,0,1,88.7,16.227a5.233,5.233,0,0,1,1.273-3.752,4.523,4.523,0,0,1,3.445-1.342,4.7,4.7,0,0,1,2.826.765A4.238,4.238,0,0,1,97.753,14.229Zm1.356,1.851a5.263,5.263,0,0,1,.632-2.483,4.339,4.339,0,0,1,1.791-1.832,5.315,5.315,0,0,1,2.588-.632,4.858,4.858,0,0,1,3.619,1.434,4.954,4.954,0,0,1,1.411,3.623,5.013,5.013,0,0,1-1.425,3.66,4.815,4.815,0,0,1-3.587,1.452,5.65,5.65,0,0,1-2.551-.6,4.148,4.148,0,0,1-1.846-1.773A5.906,5.906,0,0,1,99.108,16.08Zm2.639.137a3.224,3.224,0,0,0,.687,2.217,2.246,2.246,0,0,0,3.385,0A3.268,3.268,0,0,0,106.5,16.2a3.208,3.208,0,0,0-.683-2.2,2.246,2.246,0,0,0-3.385,0A3.224,3.224,0,0,0,101.747,16.217Zm9.226-4.865h2.373v1.328a3.818,3.818,0,0,1,3.032-1.548,3.266,3.266,0,0,1,1.622.385,2.957,2.957,0,0,1,1.127,1.164,4.5,4.5,0,0,1,1.383-1.164,3.394,3.394,0,0,1,1.585-.385,3.53,3.53,0,0,1,1.814.435,2.666,2.666,0,0,1,1.109,1.278,5.544,5.544,0,0,1,.266,2.016v6.221h-2.574V15.521a4.138,4.138,0,0,0-.266-1.869,1.22,1.22,0,0,0-1.1-.55,1.755,1.755,0,0,0-1.017.33,1.83,1.83,0,0,0-.687.967,6.954,6.954,0,0,0-.211,2.011v4.672h-2.574V15.75a7.4,7.4,0,0,0-.137-1.832,1.169,1.169,0,0,0-.426-.614,1.347,1.347,0,0,0-.783-.2,1.876,1.876,0,0,0-1.072.321,1.759,1.759,0,0,0-.683.925,6.878,6.878,0,0,0-.206,2.006v4.727h-2.574Zm22.51,6.633,2.565.431a4.208,4.208,0,0,1-1.562,2.148,4.589,4.589,0,0,1-2.671.738,4.353,4.353,0,0,1-3.756-1.658,5.571,5.571,0,0,1-.962-3.353,5.372,5.372,0,0,1,1.264-3.788,4.164,4.164,0,0,1,3.2-1.37,4.319,4.319,0,0,1,3.426,1.434,6.344,6.344,0,0,1,1.2,4.393h-6.45a2.6,2.6,0,0,0,.623,1.782,1.948,1.948,0,0,0,1.484.637,1.576,1.576,0,0,0,1.017-.33A2.037,2.037,0,0,0,133.483,17.986Zm.147-2.6a2.479,2.479,0,0,0-.577-1.7,1.858,1.858,0,0,0-2.73.032,2.375,2.375,0,0,0-.541,1.667Zm14.329-4.031V13.4H146.2v3.921a9.752,9.752,0,0,0,.05,1.388.565.565,0,0,0,.229.325.726.726,0,0,0,.435.128,3.33,3.33,0,0,0,1.035-.247l.22,2a5.118,5.118,0,0,1-2.034.385,3.226,3.226,0,0,1-1.255-.234,1.832,1.832,0,0,1-.82-.6,2.386,2.386,0,0,1-.362-1,12.475,12.475,0,0,1-.082-1.814V13.4h-1.182V11.353h1.182V9.42l2.584-1.5v3.436Zm1.191,4.727a5.263,5.263,0,0,1,.632-2.483,4.339,4.339,0,0,1,1.791-1.832,5.315,5.315,0,0,1,2.588-.632,4.858,4.858,0,0,1,3.619,1.434,4.954,4.954,0,0,1,1.411,3.623,5.013,5.013,0,0,1-1.425,3.66,4.815,4.815,0,0,1-3.587,1.452,5.65,5.65,0,0,1-2.551-.6,4.148,4.148,0,0,1-1.846-1.773A5.906,5.906,0,0,1,149.149,16.08Zm2.638.137a3.224,3.224,0,0,0,.687,2.217,2.246,2.246,0,0,0,3.385,0,3.268,3.268,0,0,0,.683-2.235,3.208,3.208,0,0,0-.683-2.2,2.246,2.246,0,0,0-3.385,0A3.224,3.224,0,0,0,151.787,16.217Z" transform="translate(-54.968 -7.441)" fill="#fff"/>
  </g>
</svg>
