<svg xmlns="http://www.w3.org/2000/svg" xmlns:xlink="http://www.w3.org/1999/xlink" width="536" height="241" viewBox="0 0 536 241">
  <defs>
    <linearGradient id="linear-gradient" x1="0.993" y1="0.5" x2="0.006" y2="0.5" gradientUnits="objectBoundingBox">
      <stop offset="0" stop-color="#1180cf"/>
      <stop offset="1" stop-color="#040681"/>
    </linearGradient>
  </defs>
  <g id="Сгруппировать_298" data-name="Сгруппировать 298" transform="translate(-6944 -3598)">
    <g id="Прямоугольник_149" data-name="Прямоугольник 149" transform="translate(6947 3601)" fill="#bfbfbf" stroke="#e1f3fa" stroke-width="3">
      <rect width="530" height="235" stroke="none"/>
      <rect x="-1.5" y="-1.5" width="533" height="238" fill="none"/>
    </g>
    <rect id="Прямоугольник_150" data-name="Прямоугольник 150" width="530" height="30" transform="translate(6947 3601)" stroke="#e1f3fa" stroke-width="2" fill="url(#linear-gradient)"/>
    <g id="Сгруппировать_245" data-name="Сгруппировать 245" transform="translate(7446.805 3605.667)">
      <path id="Контур_1879" data-name="Контур 1879" d="M190.829-1617.828c.44,0,.88,0,1.32,0,.1,0,.137.019.117.119a.485.485,0,0,0,0,.093q0,10.546,0,21.092c0,.174-.039.213-.213.213q-12.125-.008-24.251,0a.223.223,0,0,1-.045-.15c0-.442,0-.884,0-1.325a.194.194,0,0,1,.031-.108.376.376,0,0,1,.261-.066c.428,0,.856-.009,1.284,0,.123-.012.247-.007.37-.007H190.3c.49,0,.456.024.456-.45q0-8.783,0-17.566a2.8,2.8,0,0,1,.007-.3c-.012-.427,0-.854,0-1.281A.356.356,0,0,1,190.829-1617.828Z" transform="translate(-167.693 1617.831)" fill="#040506"/>
      <path id="Контур_1880" data-name="Контур 1880" d="M169.3-1597.835l-1.523.008c-.067-.071-.046-.16-.046-.243q0-9.725,0-19.449a.353.353,0,0,1,.046-.245H190.8q0,.762-.006,1.525a.332.332,0,0,1-.258.078c-.424,0-.847.009-1.271,0a3.6,3.6,0,0,1-.37.007H169.834c-.489,0-.455-.024-.455.451q0,8.018,0,16.036a2.776,2.776,0,0,1-.007.3c.012.426,0,.853,0,1.279A.329.329,0,0,1,169.3-1597.835Z" transform="translate(-167.661 1617.766)" fill="#fff"/>
      <path id="Контур_1881" data-name="Контур 1881" d="M166.446-1617.784v21.51c-.029-.016-.08.033-.091-.023a.926.926,0,0,1,0-.162q0-10.569,0-21.139C166.359-1617.657,166.263-1617.8,166.446-1617.784Z" transform="translate(-166.334 1617.788)" fill="#a7a7a6"/>
      <path id="Контур_1882" data-name="Контур 1882" d="M221.6-1584.872l1.517-.008c0,.077.005.154.005.232q0,8.947.006,17.893c0,.234-.056.29-.289.289q-10.492-.01-20.984-.006c-.077,0-.154,0-.231-.005q0-.759.008-1.518a.334.334,0,0,1,.258-.079c.424,0,.848-.009,1.272,0a3.153,3.153,0,0,1,.324-.007h17.6c.432,0,.432,0,.432-.428q0-7.265,0-14.53a2.814,2.814,0,0,1,.007-.3c-.013-.419,0-.839,0-1.258A.357.357,0,0,1,221.6-1584.872Z" transform="translate(-199.989 1586.408)" fill="#6d6e6e"/>
      <path id="Контур_1883" data-name="Контур 1883" d="M203.187-1568.014l-1.522.013q0-3.418,0-6.836,0-4.889,0-9.779c0-.186.024-.27.246-.27q9.807.01,19.613.005c.039,0,.077,0,.116,0q-.006.762-.012,1.523a.456.456,0,0,1-.351.078c-.71,0-1.42,0-2.13,0H203.7c-.43,0-.431,0-.431.43q0,7.194,0,14.387C203.265-1568.307,203.3-1568.146,203.187-1568.014Z" transform="translate(-200.02 1586.414)" fill="#d7d7d7"/>
      <path id="Контур_1884" data-name="Контур 1884" d="M234.584-1536.549q0-5.712,0-11.423c0-1.213.006-2.425-.005-3.638,0-.224.06-.281.282-.281q8.926.009,17.852,0c.1,0,.2,0,.3,0,0,.077.006.154.006.231q0,7.415.006,14.83c0,.235-.059.292-.292.292q-8.961-.01-17.922-.006C234.738-1536.542,234.661-1536.547,234.584-1536.549Z" transform="translate(-231.417 1554.949)" fill="#b3b2b2"/>
      <path id="Контур_1885" data-name="Контур 1885" d="M312.283-1518.885c.463,0,.926,0,1.389,0,.131,0,.17.036.167.167q-.012.6,0,1.2c0,.137-.045.166-.171.163-.386-.007-.772.005-1.158-.006-.156,0-.213.029-.207.2.014.394,0,.788.007,1.182,0,.121-.032.158-.155.156-.409-.007-.818.006-1.227-.007-.168-.005-.2.049-.2.207.012.37,0,.742.008,1.112.005.165-.027.228-.21.22-.385-.016-.772,0-1.158-.008-.13,0-.171.034-.168.166q.012.626,0,1.251c0,.135.043.167.17.164.378-.008.757.005,1.135-.006.171-.005.241.028.232.221-.017.378,0,.757-.008,1.135,0,.141.032.185.178.181.409-.011.818,0,1.227-.008.148,0,.18.043.177.182-.01.363.008.727-.008,1.089-.008.2.032.282.256.269.369-.022.741,0,1.111-.009.129,0,.172.031.169.165q-.013.6,0,1.2c0,.134-.041.166-.169.165q-1.389-.008-2.779,0c-.139,0-.163-.049-.161-.173.007-.394,0-.788.006-1.182,0-.139-.029-.186-.177-.182-.4.011-.8,0-1.2.007-.124,0-.156-.038-.154-.157.007-.386,0-.773.006-1.159,0-.161-.021-.225-.207-.222-.888.011-1.775.008-2.663,0-.146,0-.2.03-.194.188.012.394,0,.788.007,1.182,0,.132-.037.169-.168.167-.386-.008-.772.009-1.158-.008-.183-.008-.216.054-.21.22.012.386,0,.772.006,1.159,0,.117-.024.16-.151.159q-1.378-.008-2.756,0c-.122,0-.158-.033-.155-.155q.011-.614,0-1.228c0-.128.043-.153.159-.151.386.006.772-.006,1.158.006.166.005.227-.028.22-.211-.016-.385,0-.772-.008-1.158,0-.13.035-.171.167-.168.394.008.788-.005,1.181.007.158,0,.191-.049.187-.195-.01-.371.005-.742-.007-1.112-.006-.172.029-.241.221-.232.385.017.772,0,1.158.008.121,0,.159-.031.156-.154q-.011-.637,0-1.275c0-.126-.041-.154-.158-.152-.378.007-.757-.008-1.135.007-.185.007-.254-.03-.244-.233.019-.378,0-.757.008-1.135,0-.129-.032-.172-.166-.169-.393.008-.788,0-1.181.007-.156,0-.192-.046-.188-.194.01-.363-.013-.727.009-1.089.014-.225-.07-.263-.269-.255-.37.015-.741,0-1.111.007-.119,0-.16-.028-.157-.153q.012-.614,0-1.228c0-.125.039-.154.157-.153q1.378.007,2.756,0c.13,0,.151.047.149.161-.006.394,0,.788-.006,1.182,0,.147.032.2.188.194.393-.012.787,0,1.181-.007.133,0,.168.039.166.168-.008.386,0,.773-.006,1.159,0,.153.023.212.2.21.9-.01,1.791-.007,2.686,0,.137,0,.187-.027.183-.176-.011-.4,0-.8-.007-1.2,0-.123.035-.157.156-.155.393.007.788-.007,1.181.007.17.006.2-.051.2-.208-.011-.378,0-.757-.007-1.135,0-.146.029-.2.187-.195C311.372-1518.878,311.828-1518.885,312.283-1518.885Z" transform="translate(-295.287 1523.478)" fill="#040506"/>
    </g>
    <path id="error" d="M1.455,18V3.684H12.07V6.105H4.346V9.279h7.188v2.412H4.346v3.9h8V18ZM17.4,18H14.658V7.629h2.549V9.1a4.432,4.432,0,0,1,1.177-1.377,2.165,2.165,0,0,1,1.187-.332,3.483,3.483,0,0,1,1.807.518l-.85,2.393a2.408,2.408,0,0,0-1.289-.449,1.523,1.523,0,0,0-.977.317,2.17,2.17,0,0,0-.63,1.147A16.3,16.3,0,0,0,17.4,14.8Zm7.783,0H22.441V7.629H24.99V9.1a4.432,4.432,0,0,1,1.177-1.377,2.165,2.165,0,0,1,1.187-.332,3.483,3.483,0,0,1,1.807.518l-.85,2.393a2.408,2.408,0,0,0-1.289-.449,1.523,1.523,0,0,0-.977.317,2.17,2.17,0,0,0-.63,1.147,16.3,16.3,0,0,0-.229,3.477Zm4.521-5.332a5.61,5.61,0,0,1,.674-2.646A4.625,4.625,0,0,1,32.29,8.068a5.666,5.666,0,0,1,2.759-.674,5.178,5.178,0,0,1,3.857,1.528,5.28,5.28,0,0,1,1.5,3.862,5.343,5.343,0,0,1-1.519,3.9,5.133,5.133,0,0,1-3.823,1.548,6.022,6.022,0,0,1-2.72-.645,4.421,4.421,0,0,1-1.968-1.89A6.3,6.3,0,0,1,29.707,12.668Zm2.813.146a3.436,3.436,0,0,0,.732,2.363,2.394,2.394,0,0,0,3.608,0,3.483,3.483,0,0,0,.728-2.383,3.42,3.42,0,0,0-.728-2.344,2.394,2.394,0,0,0-3.608,0A3.436,3.436,0,0,0,32.52,12.814ZM45.186,18H42.441V7.629H44.99V9.1a4.432,4.432,0,0,1,1.177-1.377,2.165,2.165,0,0,1,1.187-.332,3.483,3.483,0,0,1,1.807.518l-.85,2.393a2.408,2.408,0,0,0-1.289-.449,1.523,1.523,0,0,0-.977.317,2.17,2.17,0,0,0-.63,1.147,16.3,16.3,0,0,0-.229,3.477Z" transform="translate(6956 3606)" fill="#fff"/>
    <g id="error_description" data-name="error description" transform="translate(6430.925 3310.426)">
      <g id="Сгруппировать_291" data-name="Сгруппировать 291" transform="translate(-478.673 -2786.686)">
        <path id="Контур_4052" data-name="Контур 4052" d="M1101.093,3169.14h2.365v16.533h-2.365Zm9.461,0h2.365v18.922l-9.461-.024v-2.365h7.1Z" transform="translate(0 -0.047)"/>
        <path id="Контур_4053" data-name="Контур 4053" d="M1143.092,3190.069h7.1v2.366h-4.731v9.485h-2.365Zm7.1,2.366h2.365v9.485h-2.365Z" transform="translate(-27.807 -13.904)"/>
        <path id="Контур_4054" data-name="Контур 4054" d="M1180.457,3192.505v2.365h7.1v2.365h-7.1v2.365h-2.365v-7.1Zm7.1-.047h2.365v2.413h-2.365v-2.365h-7.1v-2.366h7.1Zm0,9.532h-7.1V3199.6h7.1Z" transform="translate(-50.981 -13.95)"/>
        <path id="Контур_4055" data-name="Контур 4055" d="M1227.211,3194.754h-2.365v2.365h-2.389v-2.365h-2.365V3190h2.365v4.708h2.389V3190h2.365Zm-7.12,7.12v-4.755h2.365v4.755Zm7.12,0h-2.365v-4.755h2.365Z" transform="translate(-78.788 -13.858)"/>
        <path id="Контур_4056" data-name="Контур 4056" d="M1250.526,3192.505v7.1h4.731v2.365h-4.731v4.731h-2.365v-14.192Zm4.731-2.366v2.366h-4.731v-2.366Zm0,2.389h2.365v7.073h-2.365Z" transform="translate(-97.373 -13.95)"/>
        <path id="Контур_4057" data-name="Контур 4057" d="M1285.526,3192.505v2.365h7.1v2.365h-7.1v2.365h-2.365v-7.1Zm7.1-.047h2.365v2.413h-2.365v-2.365h-7.1v-2.366h7.1Zm0,9.532h-7.1V3199.6h7.1Z" transform="translate(-120.546 -13.95)"/>
        <path id="Контур_4058" data-name="Контур 4058" d="M1334.526,3194.986h-2.341v-2.365h-4.66v7.072h4.66v2.342h-4.707v-2.342h-2.318v-7.072h2.318v-2.342h4.707v2.294h2.341Zm0,2.294v2.413h-2.341v-2.413Z" transform="translate(-148.353 -14.043)"/>
        <path id="Контур_4059" data-name="Контур 4059" d="M1364.633,3195.058h-2.342v-2.39h-2.341v-2.317h2.389v-7.073h2.294v7.073H1367v2.365h-2.365v2.294H1367v2.412h-2.365Z" transform="translate(-171.387 -9.408)"/>
        <path id="Контур_4060" data-name="Контур 4060" d="M1390.173,3192.505v2.365h7.1v2.365h-7.1v2.365h-2.365v-7.1Zm7.1-.047h2.365v2.413h-2.365v-2.365h-7.1v-2.366h7.1Zm0,9.532h-7.1V3199.6h7.1Z" transform="translate(-189.832 -13.95)"/>
        <path id="Контур_4061" data-name="Контур 4061" d="M1429.807,3183.119h2.389v7.12h-2.389Zm7.12-7.119h2.365v14.24h-2.365v-7.12H1432.2v-2.365h4.731Zm-4.731,16.628v-2.388h4.731v2.388Z" transform="translate(-217.639 -4.589)"/>
        <path id="Контур_4062" data-name="Контур 4062" d="M1485.875,3171.505h2.366v4.73h4.731v2.365h-4.731v7.1h7.1v2.365h-9.461Zm11.827-2.365v2.365h-9.461v-2.365Zm0,14.145v2.412h-2.365v-2.412Z" transform="translate(-254.761 -0.047)"/>
        <path id="Контур_4063" data-name="Контур 4063" d="M1527.875,3192.435h2.342v-2.366h4.731v2.366h-4.707v9.485h-2.365Z" transform="translate(-282.569 -13.904)"/>
        <path id="Контур_4064" data-name="Контур 4064" d="M1555.8,3192.435h2.342v-2.366h4.731v2.366h-4.707v9.485H1555.8Z" transform="translate(-301.061 -13.904)"/>
        <path id="Контур_4065" data-name="Контур 4065" d="M1583.734,3199.531v-7.073h2.365v7.073Zm2.365-9.462h4.778v2.389H1586.1Zm0,11.827v-2.342h4.778v2.342Zm4.778-9.438h2.365v7.073h-2.365Z" transform="translate(-319.553 -13.904)"/>
        <path id="Контур_4066" data-name="Контур 4066" d="M1618.874,3192.435h2.341v-2.366h4.731v2.366h-4.707v9.485h-2.366Z" transform="translate(-342.819 -13.904)"/>
        <path id="Контур_4067" data-name="Контур 4067" d="M1639.8,3220.5v-2.365h2.365v2.365Z" transform="translate(-356.676 -32.489)"/>
        <path id="Контур_4068" data-name="Контур 4068" d="M1677.167,3171.575v4.707h7.072v2.365h-7.072v9.461H1674.8v-16.533Zm7.072-2.365v2.365h-7.072v-2.365Zm0,2.365h2.365v4.707h-2.365Z" transform="translate(-379.849 -0.093)"/>
        <path id="Контур_4069" data-name="Контур 4069" d="M1716.732,3176.35h2.365v16.463h-2.365Z" transform="translate(-407.61 -4.82)"/>
        <path id="Контур_4070" data-name="Контур 4070" d="M1733.027,3192.505v2.365h7.1v2.365h-7.1v2.365h-2.366v-7.1Zm7.1-.047h2.365v2.413h-2.365v-2.365h-7.1v-2.366h7.1Zm0,9.532h-7.1V3199.6h7.1Z" transform="translate(-416.833 -13.95)"/>
        <path id="Контур_4071" data-name="Контур 4071" d="M1765.662,3197.352h2.365v2.365h-2.365Zm2.365-7.073h7.072v2.342h-7.072Zm7.072,2.342h2.365v7.1H1775.1v-2.365h-7.072v-2.365h7.072Zm-7.072,9.461v-2.365h7.072v2.365Z" transform="translate(-440.006 -14.043)"/>
        <path id="Контур_4072" data-name="Контур 4072" d="M1807.591,3192.458h2.389v2.413h-2.389Zm.024,9.532v-2.365h7.072v2.365Zm7.072-7.119v2.341h2.365v2.413h-2.365v-2.365h-4.707v-2.389Zm-4.683-4.731h7.049v2.366H1810Z" transform="translate(-467.768 -13.95)"/>
        <path id="Контур_4073" data-name="Контур 4073" d="M1844.956,3192.505v2.365h7.1v2.365h-7.1v2.365h-2.365v-7.1Zm7.1-.047h2.365v2.413h-2.365v-2.365h-7.1v-2.366h7.1Zm0,9.532h-7.1V3199.6h7.1Z" transform="translate(-490.941 -13.95)"/>
        <path id="Контур_4074" data-name="Контур 4074" d="M1905.589,3185.674h2.365v-14.215h-2.365v-2.39h7.1v2.39h-2.365v14.215h2.365v2.365h-7.1Z" transform="translate(-532.651 0)"/>
        <path id="Контур_4075" data-name="Контур 4075" d="M1933.589,3190.069h7.1v2.366h-4.731v9.485h-2.365Zm7.1,2.366h2.365v9.485h-2.365Z" transform="translate(-551.19 -13.904)"/>
        <path id="Контур_4076" data-name="Контур 4076" d="M1968.589,3190.139h2.365v9.462h-2.365Zm2.365,11.827V3199.6h2.365v2.365Zm2.365-11.827h2.365v9.462h-2.365Z" transform="translate(-574.363 -13.95)"/>
        <path id="Контур_4077" data-name="Контур 4077" d="M1998.954,3192.505v2.365h7.1v2.365h-7.1v2.365h-2.365v-7.1Zm7.1-.047h2.365v2.413h-2.365v-2.365h-7.1v-2.366h7.1Zm0,9.532h-7.1V3199.6h7.1Z" transform="translate(-592.902 -13.95)"/>
        <path id="Контур_4078" data-name="Контур 4078" d="M2048.1,3187.615H2041v2.365h-2.412v-2.412H2041v-2.342h7.1Zm-9.485,9.509v-2.389h7.1v2.389Zm7.1-7.144v2.342l2.389.023v2.389h-2.389v-2.365H2041v-2.389Zm9.532,2.413h-2.365v2.247h2.365v2.437h-2.365v-2.389h-2.389v-2.342l-2.389-.023V3190h2.437v-7.214h2.342V3190h2.365Z" transform="translate(-620.709 -9.084)"/>
        <path id="Контур_4079" data-name="Контур 4079" d="M2094.8,3194.966h2.365v-4.707H2094.8v-2.366h4.731v9.438H2094.8Zm2.365-9.414v-2.412h2.365v2.412Z" transform="translate(-657.925 -9.316)"/>
        <path id="Контур_4080" data-name="Контур 4080" d="M2122.918,3192.505h2.365v11.826h-2.365v-2.365h-4.755v-2.319H2115.8v-7.143h2.365v7.1h4.755Zm0-2.366v2.366h-4.755v-2.366Zm-4.755,16.581v-2.389h4.755v2.389Z" transform="translate(-671.829 -13.95)"/>
        <path id="Контур_4081" data-name="Контур 4081" d="M2150.867,3197.352h2.365v2.365h-2.365Zm2.365-7.073h7.072v2.342h-7.072Zm7.072,2.342h2.365v7.1H2160.3v-2.365h-7.072v-2.365h7.072Zm-7.072,9.461v-2.365h7.072v2.365Z" transform="translate(-695.048 -14.043)"/>
        <path id="Контур_4082" data-name="Контур 4082" d="M2197.55,3195.058h-2.342v-2.39h-2.342v-2.317h2.389v-7.073h2.294v7.073h2.365v2.365h-2.365v2.294h2.365v2.412h-2.365Z" transform="translate(-722.856 -9.408)"/>
        <path id="Контур_4083" data-name="Контур 4083" d="M2223.091,3192.505v2.365h7.1v2.365h-7.1v2.365h-2.365v-7.1Zm7.1-.047h2.365v2.413h-2.365v-2.365h-7.1v-2.366h7.1Zm0,9.532h-7.1V3199.6h7.1Z" transform="translate(-741.301 -13.95)"/>
        <path id="Контур_4084" data-name="Контур 4084" d="M2262.726,3220.5v-2.365h2.365v2.365Z" transform="translate(-769.109 -32.489)"/>
      </g>
      <g id="Сгруппировать_293" data-name="Сгруппировать 293" transform="translate(-547.173 -2403.229)">
        <path id="Контур_4116" data-name="Контур 4116" d="M1124.725,2767.4c.218.384.3.936.814,1.015,3.016.464,4.762,2.961,6,5.057.989,1.669,2.614,3.4,2.64,5.66.009.732.569,1.126,1.036,1.563a1.955,1.955,0,0,1,.877,1.637,2.469,2.469,0,0,0,1.126,2.314,2.042,2.042,0,0,1,.836,1.856c-.019.253-.051.66.083.746,2,1.273,1.4,4.075,3.226,5.437a1.464,1.464,0,0,1,.559,1.379,2.313,2.313,0,0,0,1.034,2.159,2.162,2.162,0,0,1,.923,2.011,1.68,1.68,0,0,0,.664,1.534,2.811,2.811,0,0,1,1.3,2.636,1.512,1.512,0,0,0,.711,1.311,2.662,2.662,0,0,1,1.225,2.47,1.5,1.5,0,0,0,.643,1.344,2.856,2.856,0,0,1,1.309,2.632c-.078.731.492,1.163.98,1.581a2.382,2.382,0,0,1,.953,2.006c-.044,1.286.662,1.883,1.924,1.863v7.774c-1.311,1.148-2.521,2.41-3.885,3.5h-48.564c-1.46-1.224-2.846-2.5-4.884-2.816-1.084-.168-1.756-1.231-2.5-2.014s-1.688-1.355-2.438-2.139a1.169,1.169,0,0,1,.022-.85c1.184-.783,1.86.167,2.619.784,1.114.9,1.86,2.281,3.4,2.632a20.093,20.093,0,0,0,7.578,1.129c11.378-.07,22.758-.124,34.134.039a8.047,8.047,0,0,0,6.377-2.7c1.8-1.851,3-3.811,2.5-6.494-.189-1.011-.264-2.068-1.2-2.752-.212-.154-.452-.368-.468-.6-.158-2.324-1.725-4.118-2.747-5.967-.979-1.772-1.127-4.061-2.891-5.4a.506.506,0,0,1-.21-.319c-.105-2.275-1.755-3.913-2.666-5.8-.866-1.8-1.276-3.946-2.84-5.4-.143-.133-.322-.3-.328-.469-.086-2.282-1.756-3.913-2.671-5.79-.873-1.791-1.237-3.966-2.833-5.406a.839.839,0,0,1-.326-.472c-.141-2.214-2.055-3.618-2.569-5.653-.138-.14-.264-.293-.387-.444-.572-.771-2.083-.942-1.568-2.418A.38.38,0,0,1,1124.725,2767.4Z" transform="translate(0 -3.592)" fill="#828282"/>
        <path id="Контур_4117" data-name="Контур 4117" d="M1099.585,2804.333c.322-.748.923-1.432.539-2.344-.024-.056-.04-.158-.009-.189,1.466-1.458,1.924-3.445,2.748-5.239.023-.05.128-.059.155-.109a46.669,46.669,0,0,0,2.939-6.021c.041-.11-.064-.338-.011-.372,1.96-1.276,1.516-3.949,3.147-5.408.1-.085.3-.158.3-.23-.1-2.287,2.355-3.509,2.388-5.735,0-.064-.037-.162-.007-.189,1.591-1.448,1.676-3.746,2.949-5.308.607-.745,1.255-1.238.946-2.272-.018-.06-.039-.164-.009-.188,1.727-1.423,1.652-3.833,3.028-5.476,1.035-1.237,2.814-1.888,3.047-3.771h.777a1.315,1.315,0,0,1,.4,1.066,2.208,2.208,0,0,1-.443,1.052c-.917.977-1.922,1.872-2.809,2.881-.775.637-.315,1.655-.731,2.4a8.449,8.449,0,0,1-1.173,1.456c-.815.627-.353,1.662-.763,2.419a8.239,8.239,0,0,1-1.177,1.466c-.818.627-.356,1.664-.766,2.421a8.241,8.241,0,0,1-1.177,1.466c-.818.627-.356,1.664-.765,2.421a8.239,8.239,0,0,1-1.177,1.466c-.818.627-.356,1.664-.766,2.421a8.253,8.253,0,0,1-1.177,1.466c-.818.627-.356,1.663-.766,2.421a8.251,8.251,0,0,1-1.177,1.466c-.818.627-.356,1.663-.765,2.421a8.25,8.25,0,0,1-1.177,1.466c-.818.627-.356,1.664-.766,2.421a8.2,8.2,0,0,1-1.177,1.466c-.818.627-.356,1.663-.765,2.42a8.182,8.182,0,0,1-1.179,1.468c-.826.638-.342,1.7-.792,2.464-.386.613-.851,1.082-1.664.906l-.233-.183Z" transform="translate(-5.053)" fill="#9a9a2b"/>
        <path id="Контур_4118" data-name="Контур 4118" d="M1170.344,2763.806q-.16.03-.322.045c-1.288.251-1.917.632-.536,1.769a1.409,1.409,0,0,1,.226,2.159,5.062,5.062,0,0,1-3.723-3.894c.489-.867,1.213-1.565,1.747-2.4h.777C1168.125,2763.045,1170.108,2762.737,1170.344,2763.806Z" transform="translate(-45.62)" fill="#a1a171"/>
        <path id="Контур_4119" data-name="Контур 4119" d="M1158.52,2762.653l-.012-1.17h4.274c.575,1.215-.258,1.465-1.148,1.676C1160.572,2763.138,1159.431,2763.6,1158.52,2762.653Z" transform="translate(-41.053)" fill="#858502"/>
        <path id="Контур_4120" data-name="Контур 4120" d="M1165.533,2762.687c.841.038,1.258-.338,1.175-1.2h.388a1.906,1.906,0,0,1-1.519,2.3.365.365,0,0,1-.5.065C1164.758,2763.273,1165.033,2762.936,1165.533,2762.687Z" transform="translate(-44.979)" fill="#9a9a2b"/>
        <path id="Контур_4121" data-name="Контур 4121" d="M1091.8,2818.6a.831.831,0,0,1,.039-.377,8.277,8.277,0,0,0,0-6.253q0-.369.009-.738c1.336-.056,1.894-.762,1.829-2.083-.041-.839,0-1.7,1.189-1.736a.855.855,0,0,0-.122.348,7.374,7.374,0,0,0-.072,1.295,2.439,2.439,0,0,1,.246-1.229l1.5-.914c.716-.768.036-1.929.757-2.7l1.185-1.191c.716-.768.035-1.929.757-2.7l1.185-1.192c.717-.768.036-1.929.758-2.7l1.185-1.191c.716-.768.035-1.929.757-2.7l1.185-1.191c.716-.768.035-1.929.757-2.7l1.185-1.191c.716-.769.036-1.929.758-2.7l1.185-1.192c.716-.768.035-1.929.757-2.7l1.185-1.191c.717-.768.035-1.929.757-2.7l1.185-1.192c.716-.768.036-1.929.757-2.7l1.185-1.191c.716-.768.035-1.929.757-2.7a11.762,11.762,0,0,1,2.719-2.7.647.647,0,0,1,.542.715c-1.964,3.167-3.43,6.6-5.108,9.916-1.593,3.142-3.2,6.29-4.694,9.493-.863,1.854-1.806,3.693-2.752,5.52a58.476,58.476,0,0,0-2.9,5.863,42.313,42.313,0,0,1-2.354,4.639c-1.662,3.12-3.014,6.393-4.8,9.453a6.581,6.581,0,0,0-.154,5.646,2.755,2.755,0,0,0,2.871,1.907c6.014-.439,12.037-.15,18.056-.191,7.575-.052,15.151-.019,22.727-.006a6.453,6.453,0,0,1,3.054.38,1.091,1.091,0,0,1,.528.879.926.926,0,0,1-.461.546,7.562,7.562,0,0,1-2.69.207q-18.712.014-37.424.008a19.316,19.316,0,0,0-2.512.072,4.507,4.507,0,0,0-1.119.417c-.323.118-.685.167-.907.483-1.619-.295-2.262-1.806-3.365-2.739C1093.269,2819.195,1092.769,2818.488,1091.8,2818.6Z" transform="translate(-0.33 -3.081)" fill="#a2a200"/>
        <path id="Контур_4122" data-name="Контур 4122" d="M1105.8,2826.649c-.089-.292-.083-.55.246-.694,14.283.276,28.568.014,39.961.116-10.148,0-23.187,0-36.226-.008-.944,0-1.965.226-2.734-.609.628-.516,1.371-.263,2.055-.264q19.422-.026,38.844-.02c.967,0,1.934-.108,2.9-.166a17.555,17.555,0,0,0,3.832-4.268c.724-.111.674.807,1.324,1.01a43.909,43.909,0,0,0-.009-4.838c-.647.142-.625.94-1.243.9a11.8,11.8,0,0,0-2.256-2.622,3.99,3.99,0,0,1-.588-1.234,2.827,2.827,0,0,0-1.36-2.388,6.3,6.3,0,0,1-.6-1.491,2.744,2.744,0,0,0-1.34-2.388,6.258,6.258,0,0,1-.6-1.495,2.745,2.745,0,0,0-1.34-2.391,6.275,6.275,0,0,1-.6-1.5,2.745,2.745,0,0,0-1.34-2.391,6.268,6.268,0,0,1-.6-1.5,2.745,2.745,0,0,0-1.34-2.392,6.252,6.252,0,0,1-.6-1.5,2.745,2.745,0,0,0-1.339-2.391,6.258,6.258,0,0,1-.6-1.5,2.745,2.745,0,0,0-1.34-2.391,6.261,6.261,0,0,1-.6-1.5,2.75,2.75,0,0,0-1.341-2.394,6.352,6.352,0,0,1-.606-1.507,3.089,3.089,0,0,0-1.366-2.461,2.365,2.365,0,0,1-.272-.8,6.619,6.619,0,0,0-.765-3.483c.577-.85.525-2.008,1.329-2.749.539,2.1,1.9,3.927,2.918,5.678.972,1.674.883,4.1,2.9,5.176a.546.546,0,0,1,.229.3,12.343,12.343,0,0,0,1.894,4.175c.828,1.108,1.044,2.754,2.05,4.048a11.607,11.607,0,0,1,1.6,3.363c.648,2.073,2.359,3.563,2.654,5.694.1.736.156,1.415,1.024,1.658.166.047.417.249.413.373-.075,2.371,2.375,3.706,2.459,5.956.038,1.018,1.188,1.187,1.257,1.7.3,2.263,2.31,3.726,2.608,5.909.164,1.206-.024,2.457.049,3.681.129,2.158-1.987,2.759-2.865,4.23-1.735,2.907-4.7,2.479-7.495,2.475-11.774-.016-23.549-.053-35.322.036C1109.552,2827.837,1107.741,2827.034,1105.8,2826.649Z" transform="translate(-8.85 -7.253)" fill="#4e4e4b"/>
        <path id="Контур_4123" data-name="Контур 4123" d="M1177.949,2772.587c-.21,1.024.506,2.447-1.213,2.821a.893.893,0,0,1-.866-.3,1.172,1.172,0,0,1-.192-.614c.261-2.629.261-2.629,2.216-2.166A1.287,1.287,0,0,0,1177.949,2772.587Z" transform="translate(-51.533 -6.474)" fill="#343426"/>
        <path id="Контур_4124" data-name="Контур 4124" d="M1174.777,2768.822c-2.236-.507-1.747,1.255-2,2.4-.143.064-.288.218-.414-.032a.6.6,0,0,1,.083-.663,1.668,1.668,0,0,0-.871-1.9c-.645-.376-1.4-.937-.77-1.8.563-.774,1.337-.465,2.012,0C1172.606,2768.34,1174.174,2768.108,1174.777,2768.822Z" transform="translate(-48.416 -2.973)" fill="#77776f"/>
        <path id="Контур_4125" data-name="Контур 4125" d="M1157.711,2765.63l-.242-.346.416-.8,3.088.033-.381.963a.987.987,0,0,1-.471.543A2.125,2.125,0,0,1,1157.711,2765.63Z" transform="translate(-40.419 -1.833)" fill="#a2a200"/>
        <path id="Контур_4126" data-name="Контур 4126" d="M1114.313,2843.3c-.106.94.427,2.06-.757,2.7C1113.831,2845.106,1112.882,2843.87,1114.313,2843.3Z" transform="translate(-13.581 -49.94)" fill="#9d9d00"/>
        <path id="Контур_4127" data-name="Контур 4127" d="M1129.271,2813.374c-.106.94.427,2.059-.757,2.7C1128.788,2815.177,1127.839,2813.94,1129.271,2813.374Z" transform="translate(-22.71 -31.672)" fill="#9d9d00"/>
        <path id="Контур_4128" data-name="Контур 4128" d="M1134.256,2803.4c-.106.939.427,2.059-.757,2.7C1133.774,2805.2,1132.825,2803.965,1134.256,2803.4Z" transform="translate(-25.753 -25.583)" fill="#9d9d00"/>
        <path id="Контур_4129" data-name="Контур 4129" d="M1139.241,2793.422c-.106.94.427,2.059-.758,2.7C1138.76,2795.225,1137.81,2793.989,1139.241,2793.422Z" transform="translate(-28.796 -19.494)" fill="#9d9d00"/>
        <path id="Контур_4130" data-name="Контур 4130" d="M1104.343,2863.256c-.106.94.427,2.059-.758,2.7C1103.861,2865.06,1102.911,2863.823,1104.343,2863.256Z" transform="translate(-7.495 -62.119)" fill="#9d9d00"/>
        <path id="Контур_4131" data-name="Контур 4131" d="M1144.228,2783.445c-.106.94.427,2.06-.758,2.7C1143.746,2785.249,1142.8,2784.012,1144.228,2783.445Z" transform="translate(-31.84 -13.405)" fill="#9d9d00"/>
        <path id="Контур_4132" data-name="Контур 4132" d="M1149.213,2773.469c-.106.94.427,2.06-.757,2.7C1148.731,2775.272,1147.781,2774.036,1149.213,2773.469Z" transform="translate(-34.882 -7.316)" fill="#9d9d00"/>
        <path id="Контур_4133" data-name="Контур 4133" d="M1119.3,2833.327c-.106.94.427,2.06-.758,2.7C1118.817,2835.131,1117.868,2833.894,1119.3,2833.327Z" transform="translate(-16.624 -43.851)" fill="#9d9d00"/>
        <path id="Контур_4134" data-name="Контур 4134" d="M1124.285,2823.351c-.106.939.427,2.059-.758,2.7C1123.8,2825.154,1122.853,2823.917,1124.285,2823.351Z" transform="translate(-19.667 -37.762)" fill="#9d9d00"/>
        <path id="Контур_4135" data-name="Контур 4135" d="M1109.328,2853.28c-.106.94.427,2.059-.757,2.7C1108.846,2855.083,1107.9,2853.847,1109.328,2853.28Z" transform="translate(-10.538 -56.029)" fill="#9d9d00"/>
        <path id="Контур_4136" data-name="Контур 4136" d="M1091.906,2883.151c2.205.6.865,2.349,1,3.522.1.869.946,2.45-1,2.731Z" transform="translate(-0.402 -74.262)" fill="#818100"/>
        <path id="Контур_4137" data-name="Контур 4137" d="M1163.874,2767.248l.387-.2.426.13c.641,1.717,2.129,2.664,3.434,3.775l.332.695.206.471a4.532,4.532,0,0,1,.325.685c.15.757.82,1.2,1.118,1.87.18.214.052.53.238.745l.31,1.21c.44.669.905,1.322,1.322,2.006l.615,1.877a.436.436,0,0,1-.337.422,1.455,1.455,0,0,1-1.038-.5c-1.169-1.058-1.609-2.569-2.393-3.821-1.4-2.238-1.793-5.126-4.207-6.761C1163.786,2769.293,1162.977,2768.436,1163.874,2767.248Z" transform="translate(-44.089 -3.396)" fill="#ecec31"/>
        <path id="Контур_4138" data-name="Контур 4138" d="M1123.667,2767.476c-.038,2.148,2.1,2.678,3.1,4.055.376.516.868.863.787,1.557a2.315,2.315,0,0,0,1.185,2.428c.164.1.488.2.481.277-.193,2.076,1.389,3.315,2.271,4.88.248,1.584,2.289,2.091,2.292,3.822a2.923,2.923,0,0,0,1.174,2.26,1.834,1.834,0,0,1,.769,1.633,2.922,2.922,0,0,0,1.175,2.255,1.831,1.831,0,0,1,.767,1.631,2.925,2.925,0,0,0,1.175,2.256,1.832,1.832,0,0,1,.768,1.631,2.922,2.922,0,0,0,1.175,2.256,1.833,1.833,0,0,1,.768,1.631,2.922,2.922,0,0,0,1.175,2.256,1.833,1.833,0,0,1,.768,1.632,2.924,2.924,0,0,0,1.177,2.257,1.837,1.837,0,0,1,.766,1.634,2.9,2.9,0,0,0,1.191,2.26,2.256,2.256,0,0,1,.83,1.637,3.056,3.056,0,0,0,.847,2.054c1.556,1.562,1.529,2.2.014,3.762a2.984,2.984,0,0,0-.87,1.238,5.369,5.369,0,0,1-2.12,1.93q-20.461.029-40.92.06a18.694,18.694,0,0,0-2.13.06c-2.834.331-4.685-1.231-4.678-4.028a11.982,11.982,0,0,1,1.409-5.919,54.886,54.886,0,0,0,2.8-5.625c.662-1.72,1.183-3.986,2.847-5.377a1.849,1.849,0,0,0,.714-1.524c-.008-.322-.085-.829.078-.939,1.9-1.273,1.435-3.908,3.088-5.305a1.86,1.86,0,0,0,.719-1.523c-.008-.321-.086-.829.077-.938,1.908-1.271,1.427-3.911,3.083-5.307a1.859,1.859,0,0,0,.724-1.521c-.008-.321-.087-.829.077-.939,1.9-1.275,1.42-3.914,3.078-5.31a1.9,1.9,0,0,0,.733-1.518c0-.383-.068-.976.139-1.117,2.087-1.422,1.444-4.532,3.66-5.857.182-.109.235-.435.347-.66Z" transform="translate(-3.881 -3.623)" fill="#fefe00"/>
        <path id="Контур_4139" data-name="Контур 4139" d="M1107.506,2907.051c7.116.03,14.233.072,21.35.088,7.184.016,14.368,0,21.552.023.719,0,1.568-.307,2.147.489-.431.886-1.235.587-1.885.588q-20.193.023-40.385.01a8.446,8.446,0,0,1-3.779-.7Z" transform="translate(-9.313 -88.849)"/>
        <path id="Контур_4140" data-name="Контур 4140" d="M1225.208,2886.3a5.732,5.732,0,0,1-3.878,4.061c-.032-.135-.066-.27-.1-.4.767-1.62,2.53-2.458,3.235-4.127a6.225,6.225,0,0,0,.017-2.384,5.058,5.058,0,0,0-1.2-1.933,1.307,1.307,0,0,1-.264-.447c-.028-.275,0-.523.317-.62a2.381,2.381,0,0,1,1.875,2.5A2.86,2.86,0,0,1,1225.208,2886.3Z" transform="translate(-79.338 -72.614)" fill="#919176"/>
        <path id="Контур_4141" data-name="Контур 4141" d="M1223.917,2895.191c-.577,1.736-2.005,2.7-3.374,3.713l-.441-.265c.139-1.014,1.021-1.379,1.686-1.934C1222.348,2895.99,1222.544,2894.762,1223.917,2895.191Z" transform="translate(-78.648 -81.557)" fill="#dcdc5e"/>
        <path id="Контур_4142" data-name="Контур 4142" d="M1098.452,2872.415a1.777,1.777,0,0,1,.078.175c.276.85.574,1.709-.186,2.469-.058.058-.425-.039-.465-.138-.371-.927-.54-1.844.4-2.573Z" transform="translate(-3.867 -67.667)" fill="#9d9d00"/>
        <path id="Контур_4143" data-name="Контур 4143" d="M1231.437,2887.33q0-1.674,0-3.349c.733-.423-.176-2.065,1.086-1.827,1.077.2.764,1.467.785,2.34.025,1.031,0,2.063,0,3.1,0,.744-.109,1.614-.958,1.631-.75.015-.5-.887-.634-1.413A1.981,1.981,0,0,0,1231.437,2887.33Z" transform="translate(-85.566 -73.639)" fill="#35351e"/>
        <path id="Контур_4144" data-name="Контур 4144" d="M1222.165,2874.747l-.2.68c-.343.1-.515-.1-.645-.37-.047-.509-.1-.966-.681-1.231a2.19,2.19,0,0,1-1.262-2.656c.4-.209.6.16.886.3a8.017,8.017,0,0,1,1.326,1.775Z" transform="translate(-78.169 -66.91)" fill="#ecec31"/>
        <path id="Контур_4145" data-name="Контур 4145" d="M1211.352,2855.1c-.047-.509-.1-.965-.681-1.23a2.19,2.19,0,0,1-1.262-2.656c.4-.21.6.159.886.3a8,8,0,0,1,1.326,1.776l.615,1.876a.481.481,0,0,1-.184.4C1211.668,2855.642,1211.5,2855.388,1211.352,2855.1Z" transform="translate(-72.083 -54.732)" fill="#ecec31"/>
        <path id="Контур_4146" data-name="Контур 4146" d="M1207,2845.5l-.639-.372c-.058-.5-.1-.966-.68-1.232a2.187,2.187,0,0,1-1.262-2.655c.4-.209.605.16.886.3a8.017,8.017,0,0,1,1.326,1.775l.615,1.877A.3.3,0,0,1,1207,2845.5Z" transform="translate(-69.04 -48.643)" fill="#ecec31"/>
        <path id="Контур_4147" data-name="Контур 4147" d="M1196.4,2825.175c-.047-.509-.1-.965-.681-1.23a2.19,2.19,0,0,1-1.262-2.656c.4-.209.6.16.886.3a8.007,8.007,0,0,1,1.326,1.776l.615,1.876a.479.479,0,0,1-.184.4C1196.711,2825.712,1196.543,2825.458,1196.4,2825.175Z" transform="translate(-62.953 -36.464)" fill="#ecec31"/>
        <path id="Контур_4148" data-name="Контур 4148" d="M1186.421,2805.319c-.047-.508-.1-.964-.682-1.23a2.188,2.188,0,0,1-1.262-2.657l.639.373c.875.245,1.1,1.085,1.573,1.706l.616,1.877a.48.48,0,0,1-.184.4C1186.737,2805.857,1186.569,2805.6,1186.421,2805.319Z" transform="translate(-56.864 -24.383)" fill="#ecec31"/>
        <path id="Контур_4149" data-name="Контур 4149" d="M1214.392,2861.291l.638.372c.875.245,1.1,1.085,1.573,1.705l.615,1.877a.3.3,0,0,1-.246.305l-.639-.372c-.058-.5-.1-.965-.68-1.232A2.183,2.183,0,0,1,1214.392,2861.291Z" transform="translate(-75.123 -60.919)" fill="#ecec31"/>
        <path id="Контур_4150" data-name="Контур 4150" d="M1189.464,2811.409l.639.372c.875.245,1.1,1.086,1.573,1.706l.615,1.877a.3.3,0,0,1-.246.3l-.639-.372c-.058-.5-.1-.965-.68-1.232A2.183,2.183,0,0,1,1189.464,2811.409Z" transform="translate(-59.907 -30.473)" fill="#ecec31"/>
        <path id="Контур_4151" data-name="Контур 4151" d="M1199.435,2831.362l.639.372c.875.245,1.1,1.085,1.573,1.706l.615,1.877a.3.3,0,0,1-.246.3l-.639-.372c-.058-.5-.1-.965-.68-1.232A2.183,2.183,0,0,1,1199.435,2831.362Z" transform="translate(-65.993 -42.651)" fill="#ecec31"/>
        <path id="Контур_4152" data-name="Контур 4152" d="M1208.642,2834.281c-.057.559.087,1.3-.576,1.29s-.529-.756-.515-1.243-.134-1.231.535-1.22C1208.728,2833.118,1208.572,2833.871,1208.642,2834.281Z" transform="translate(-70.976 -43.717)"/>
        <path id="Контур_4153" data-name="Контур 4153" d="M1228.575,2874.28c-.1.529.091,1.284-.643,1.2-.644-.078-.473-.812-.452-1.29.021-.453-.157-1.22.588-1.135C1228.709,2873.125,1228.471,2873.873,1228.575,2874.28Z" transform="translate(-83.129 -68.094)"/>
        <path id="Контур_4154" data-name="Контур 4154" d="M1183.238,2782.369c.508,1.161.723,1.973.055,2.763a.534.534,0,0,1-.468-.106A2.267,2.267,0,0,1,1183.238,2782.369Z" transform="translate(-55.74 -12.748)"/>
        <path id="Контур_4155" data-name="Контур 4155" d="M1188.676,2794.547c-.083.451.105,1.208-.629,1.119-.644-.078-.473-.812-.452-1.291.021-.453-.156-1.221.588-1.134C1188.807,2793.315,1188.623,2794.049,1188.676,2794.547Z" transform="translate(-58.785 -19.38)"/>
        <path id="Контур_4156" data-name="Контур 4156" d="M1223.591,2864.281c-.087.537.088,1.289-.631,1.216-.645-.065-.484-.8-.463-1.283.02-.458-.152-1.221.579-1.151C1223.715,2863.123,1223.495,2863.874,1223.591,2864.281Z" transform="translate(-80.09 -61.997)"/>
        <path id="Контур_4157" data-name="Контур 4157" d="M1193.661,2804.525c-.083.451.105,1.206-.629,1.118-.645-.077-.474-.812-.451-1.29.021-.453-.156-1.22.588-1.134C1193.793,2803.292,1193.608,2804.026,1193.661,2804.525Z" transform="translate(-61.828 -25.47)"/>
        <path id="Контур_4158" data-name="Контур 4158" d="M1197.954,2812.863c1.015.725.712,1.591.413,2.418a.336.336,0,0,1-.612.029A2.163,2.163,0,0,1,1197.954,2812.863Z" transform="translate(-64.834 -31.36)"/>
        <path id="Контур_4159" data-name="Контур 4159" d="M1218.6,2854.342c-.1.521.09,1.28-.655,1.177-.64-.088-.464-.821-.439-1.3.023-.448-.165-1.221.6-1.119C1218.734,2853.186,1218.5,2853.93,1218.6,2854.342Z" transform="translate(-77.038 -55.915)"/>
        <path id="Контур_4160" data-name="Контур 4160" d="M1213.616,2844.353c-.058.479.1,1.226-.583,1.195-.655-.029-.516-.77-.5-1.254s-.138-1.228.548-1.2C1213.711,2843.119,1213.574,2843.861,1213.616,2844.353Z" transform="translate(-74.014 -49.812)"/>
        <path id="Контур_4161" data-name="Контур 4161" d="M1202.939,2822.84c1.016.724.712,1.591.413,2.418a.336.336,0,0,1-.612.029A2.162,2.162,0,0,1,1202.939,2822.84Z" transform="translate(-67.877 -37.45)"/>
        <path id="Контур_4162" data-name="Контур 4162" d="M1202.75,2833.543a2.2,2.2,0,0,1-1.573-1.706c.081-.1.162-.2.244-.306A1.44,1.44,0,0,1,1202.75,2833.543Z" transform="translate(-67.097 -42.755)" fill="#bcbc89"/>
        <path id="Контур_4163" data-name="Контур 4163" d="M1211.148,2851.79c.081-.1.163-.205.245-.306a1.441,1.441,0,0,1,1.329,2.013A2.211,2.211,0,0,1,1211.148,2851.79Z" transform="translate(-73.183 -54.933)" fill="#bcbc89"/>
        <path id="Контур_4164" data-name="Контур 4164" d="M1206.162,2841.814c.081-.1.162-.2.245-.306a1.441,1.441,0,0,1,1.329,2.014A2.212,2.212,0,0,1,1206.162,2841.814Z" transform="translate(-70.139 -48.845)" fill="#bcbc89"/>
        <path id="Контур_4165" data-name="Контур 4165" d="M1217.707,2863.472a2.2,2.2,0,0,1-1.573-1.706c.081-.1.162-.205.244-.306A1.439,1.439,0,0,1,1217.707,2863.472Z" transform="translate(-76.227 -61.022)" fill="#bcbc89"/>
        <path id="Контур_4166" data-name="Контур 4166" d="M1187.794,2803.614a2.2,2.2,0,0,1-1.572-1.706c.08-.1.162-.2.244-.306A1.439,1.439,0,0,1,1187.794,2803.614Z" transform="translate(-57.969 -24.487)" fill="#bcbc89"/>
        <path id="Контур_4167" data-name="Контур 4167" d="M1192.779,2813.59a2.2,2.2,0,0,1-1.572-1.706c.081-.1.162-.2.244-.306A1.439,1.439,0,0,1,1192.779,2813.59Z" transform="translate(-61.011 -30.577)" fill="#bcbc89"/>
        <path id="Контур_4168" data-name="Контур 4168" d="M1221.119,2871.743c.082-.1.162-.2.245-.306a1.441,1.441,0,0,1,1.329,2.014A2.212,2.212,0,0,1,1221.119,2871.743Z" transform="translate(-79.269 -67.112)" fill="#bcbc89"/>
        <path id="Контур_4169" data-name="Контур 4169" d="M1183.077,2793.643c-.907-.362-1.649-.833-1.323-2.007A1.434,1.434,0,0,1,1183.077,2793.643Z" transform="translate(-55.194 -18.404)" fill="#bcbc89"/>
        <path id="Контур_4170" data-name="Контур 4170" d="M1196.191,2821.861c.082-.1.163-.205.245-.306a1.441,1.441,0,0,1,1.329,2.014A2.212,2.212,0,0,1,1196.191,2821.861Z" transform="translate(-64.053 -36.666)" fill="#bcbc89"/>
        <path id="Контур_4171" data-name="Контур 4171" d="M1176.794,2780.774c-.01-.24-.02-.48-.028-.717.212.073.423.143.635.214,1.339.7,1.36,1.841,1.049,3.093-.124-.229-.248-.455-.371-.679A12.409,12.409,0,0,0,1176.794,2780.774Z" transform="translate(-52.197 -11.337)" fill="#77776f"/>
        <path id="Контур_4172" data-name="Контур 4172" d="M1228.821,2903.058c-.174.31-.368.678-.806.545a.677.677,0,0,1-.333-.561.583.583,0,0,1,.777-.545A.443.443,0,0,1,1228.821,2903.058Z" transform="translate(-83.273 -86.054)" fill="#272727"/>
        <path id="Контур_4173" data-name="Контур 4173" d="M1172.86,2768.929a.86.86,0,0,1-.745-.724c-.03-.354.261-.548.6-.544a.636.636,0,0,1,.626.571C1173.408,2768.584,1173.179,2768.8,1172.86,2768.929Z" transform="translate(-49.357 -3.771)" fill="#3b3b38"/>
        <path id="Контур_4174" data-name="Контур 4174" d="M1176.757,2781.9c1,.256,1.58.791,1.285,1.913C1177.208,2783.443,1176.505,2782.991,1176.757,2781.9Z" transform="translate(-52.16 -12.46)" fill="#bcbc89"/>
        <path id="Контур_4175" data-name="Контур 4175" d="M1158.8,2826.056l-.115.565c-.3.586-.352,1.294-.834,1.8-.546.507-.483,1.209-.594,1.857-.209.4-.248.85-.427,1.256-.964.778-1.93,1.9-2.872-.024a7.574,7.574,0,0,0-.39-1.253c-.1-.644-.056-1.338-.6-1.842-.477-.5-.519-1.209-.826-1.792l-.1-.556c-.187-.512-.1-1.091-.4-1.573-.14-.649-.043-1.375-.606-1.89-.481-.51-.526-1.22-.834-1.811l-.1-.56a54.835,54.835,0,0,1,.09-9.5c.488-.694,1.024-.862,1.638-.149.029,1.544-.275,3.069-.258,4.624a18.031,18.031,0,0,0,1.167,5.981c.958,2.7,1.909,5.43,2.694,7.81a36.7,36.7,0,0,1,2.9-6.967,6.639,6.639,0,0,0,.9-3.089,74.805,74.805,0,0,0-.253-8.32c.569-.741,1.109-.61,1.63.054a62.506,62.506,0,0,1,.034,11.615c-.182.892-1.6.949-1.419,2.09A6.8,6.8,0,0,0,1158.8,2826.056Z" transform="translate(-35.822 -29.683)" fill="#89890b"/>
        <path id="Контур_4176" data-name="Контур 4176" d="M1150.222,2806.951c-.856,2.387-.256,4.86-.421,7.289-.057.834-.031,1.674-.045,2.511-.655-3.558-.29-7.142-.184-10.707.031-1.066,1.088-1.652,2.282-1.63,2.053.039,4.108.039,6.162.056.337.217,1.089.086.735.882a1.789,1.789,0,0,1-1.305.589,20.968,20.968,0,0,0-4.547.009A2.536,2.536,0,0,0,1150.222,2806.951Z" transform="translate(-35.479 -26.203)" fill="#e0e032"/>
        <path id="Контур_4177" data-name="Контур 4177" d="M1172.3,2805.207l-.747-.681c1.811-.163,2.666.729,2.666,2.482,0,4.08-.028,8.159-.045,12.239-.154.337-.34.613-.776.4a.332.332,0,0,1,.052-.445,35.586,35.586,0,0,0,.008-12.19C1173.051,2806.418,1172.288,2806.06,1172.3,2805.207Z" transform="translate(-49.013 -26.26)" fill="#e0e032"/>
        <path id="Контур_4178" data-name="Контур 4178" d="M1154.621,2875.9c-.015-1.474-.078-2.949-.032-4.421a2.052,2.052,0,0,1,2.179-2.181c1.471-.046,2.946.017,4.419.032.285.241,1.137.029.686.859a1.447,1.447,0,0,1-.517.229c-1.364-.129-2.735-.436-4.076.135a1.375,1.375,0,0,0-1.44,1.433,7.9,7.9,0,0,0-.126,4.066,1.418,1.418,0,0,1-.223.526C1154.654,2877.052,1154.862,2876.187,1154.621,2875.9Z" transform="translate(-38.651 -65.795)" fill="#e0e032"/>
        <path id="Контур_4179" data-name="Контур 4179" d="M1224.366,2881.245l.645.37a.619.619,0,0,1,.222,0c.408.591.867,1.147,1.269,1.743a6.224,6.224,0,0,1-.021,3.372c-1.026.062-1.327,1.141-2.13,1.515-.157-.936.492-1.412,1.114-1.859,1.18-.85,1.208-1.707.022-2.515A2.361,2.361,0,0,1,1224.366,2881.245Z" transform="translate(-81.211 -73.099)" fill="#ecec31"/>
        <path id="Контур_4180" data-name="Контур 4180" d="M1174.106,2874.852c.017,1.33.039,2.66.051,3.99.016,1.795-.786,2.749-2.67,2.58-.174-.515.249-.744.5-1.057a2.248,2.248,0,0,0,.923-1.664c.558-1.325.229-2.673.108-4.016a1.394,1.394,0,0,1,.227-.52C1174.075,2873.707,1173.866,2874.562,1174.106,2874.852Z" transform="translate(-48.95 -68.696)" fill="#e0e032"/>
        <path id="Контур_4181" data-name="Контур 4181" d="M1161.979,2888.206l-.747.68c-1.329.016-2.659.039-3.989.05-1.8.015-2.748-.79-2.578-2.674l.68.749c.745-.02,1.246.693,2,.657,1.37.618,2.786.172,4.182.187A.878.878,0,0,1,1161.979,2888.206Z" transform="translate(-38.696 -76.161)" fill="#e0e032"/>
        <path id="Контур_4182" data-name="Контур 4182" d="M1151.888,2840.983q.052.9.1,1.8c-.15-.28-.23-.7-.462-.815-2-1.03-1.841-2.692-1.378-4.461l1.014,1.439A8.4,8.4,0,0,0,1151.888,2840.983Z" transform="translate(-35.772 -46.404)" fill="#e0e032"/>
        <path id="Контур_4183" data-name="Контур 4183" d="M1156.808,2855.947q.038.71.077,1.417c-1.816-1.181-2.679-2.715-1.815-4.889l1.014,1.438A8.4,8.4,0,0,0,1156.808,2855.947Z" transform="translate(-38.749 -55.538)" fill="#e0e032"/>
        <path id="Контур_4184" data-name="Контур 4184" d="M1168.466,2853.914l1.013-1.438c.886,2.208-.037,3.73-1.855,4.913q.059-.721.118-1.441A8.421,8.421,0,0,0,1168.466,2853.914Z" transform="translate(-46.617 -55.539)" fill="#e0e032"/>
        <path id="Контур_4185" data-name="Контур 4185" d="M1174.191,2842.712l.668-.375c.293,1.788-1.821,2.023-2.182,3.388q.06-.9.117-1.8C1173.061,2843.294,1173.41,2842.755,1174.191,2842.712Z" transform="translate(-49.701 -49.351)" fill="#e5e532"/>
        <path id="Контур_4186" data-name="Контур 4186" d="M1174.169,2872l-.679-.748a1.236,1.236,0,0,1-1.194-1.195l-.747-.68Q1174.372,2869.181,1174.169,2872Z" transform="translate(-49.013 -65.849)" fill="#e0e032"/>
        <path id="Контур_4187" data-name="Контур 4187" d="M1227.925,2883.943c-.692-.386-1.432-.737-1.27-1.744A1.583,1.583,0,0,1,1227.925,2883.943Z" transform="translate(-82.634 -73.68)" fill="#bcbc83"/>
        <path id="Контур_4188" data-name="Контур 4188" d="M1233.529,2889.584v-5.316h.217v5.3Z" transform="translate(-86.843 -74.944)"/>
        <path id="Контур_4189" data-name="Контур 4189" d="M1154.155,2806.738a14.246,14.246,0,0,1,5.546,0,2.839,2.839,0,0,1,1.105,1.667c.779,1.162.545,2.477.556,3.75.016,1.81-.03,3.621.017,5.431a2.475,2.475,0,0,1-1.069,2.511c-.212.128-.512.371-.51.558.033,2.652-2.515,4.47-2.3,7.18.04.494.057,1.251-.58,1.248s-.546-.753-.586-1.256c-.12-1.484-.2-2.958-1.459-4.059-.584-.512-.433-1.312-.5-2.014-.129-1.349-.2-2.72-1.341-3.715a1.074,1.074,0,0,1-.365-.668c-.121-3-.677-6.017.376-8.965A2.838,2.838,0,0,1,1154.155,2806.738Z" transform="translate(-37.336 -27.456)" fill="#020201"/>
        <path id="Контур_4190" data-name="Контур 4190" d="M1153.624,2806.843c.119.879-.444,1.306-1.1,1.668-.254-.408-.65-.123-.971-.2C1151.729,2807.095,1152.149,2806.222,1153.624,2806.843Z" transform="translate(-36.805 -27.561)" fill="#bebe8d"/>
        <path id="Контур_4191" data-name="Контур 4191" d="M1172.189,2808.307c-.663-.361-1.224-.789-1.106-1.668l.919-.336a1.944,1.944,0,0,1,1.157,1.8C1172.838,2808.183,1172.442,2807.9,1172.189,2808.307Z" transform="translate(-48.719 -27.356)" fill="#bebe8d"/>
        <path id="Контур_4192" data-name="Контур 4192" d="M1153.263,2843.236c-1.041-.394-1.6-.959-.723-2.034C1153.57,2841.6,1153.564,2842.365,1153.263,2843.236Z" transform="translate(-37.147 -48.658)" fill="#cbcb8d"/>
        <path id="Контур_4193" data-name="Контур 4193" d="M1158.249,2858.2c-1.041-.394-1.6-.96-.723-2.033C1158.556,2856.564,1158.55,2857.331,1158.249,2858.2Z" transform="translate(-40.19 -57.792)" fill="#cbcb8d"/>
        <path id="Контур_4194" data-name="Контур 4194" d="M1168.375,2856.166c.869,1.075.319,1.643-.726,2.033C1167.349,2857.329,1167.344,2856.563,1168.375,2856.166Z" transform="translate(-46.526 -57.791)" fill="#cbcb8d"/>
        <path id="Контур_4195" data-name="Контур 4195" d="M1174.137,2842.633a2.461,2.461,0,0,1-1.4,1.215c-.462-1.29.183-1.673,1.34-1.638C1174.1,2842.351,1174.118,2842.492,1174.137,2842.633Z" transform="translate(-49.648 -49.272)" fill="#d0d08e"/>
        <path id="Контур_4196" data-name="Контур 4196" d="M1162.111,2878.256a5.506,5.506,0,0,1-4.657,0q-.716-.719-1.433-1.436a5.514,5.514,0,0,1,0-4.659q.72-.716,1.436-1.436a5.5,5.5,0,0,1,4.657,0l1.432,1.433a5.514,5.514,0,0,1,0,4.659Q1162.828,2877.539,1162.111,2878.256Z" transform="translate(-39.22 -66.364)" fill="#818144"/>
        <path id="Контур_4197" data-name="Контур 4197" d="M1158.258,2871.534c.04,1-.44,1.477-1.437,1.437A1.236,1.236,0,0,1,1158.258,2871.534Z" transform="translate(-40.023 -67.171)" fill="#bebe8d"/>
        <path id="Контур_4198" data-name="Контур 4198" d="M1156.593,2887.175c1-.041,1.473.442,1.433,1.437-.858.152-1.188-.5-1.586-1.044C1156.49,2887.436,1156.542,2887.306,1156.593,2887.175Z" transform="translate(-39.791 -76.716)" fill="#bebe8d"/>
        <path id="Контур_4199" data-name="Контур 4199" d="M1173.89,2872.735c-1,.041-1.473-.439-1.433-1.434l.392-.152,1.194,1.194Z" transform="translate(-49.566 -66.936)" fill="#bebe8d"/>
        <path id="Контур_4200" data-name="Контур 4200" d="M1172.458,2888.607c-.041-1,.442-1.474,1.436-1.434.152.858-.5,1.189-1.044,1.587Z" transform="translate(-49.566 -76.715)" fill="#bebe8d"/>
        <path id="Контур_4201" data-name="Контур 4201" d="M1160.556,2871.394c1.337.024,3.745,2.443,3.763,3.78.019,1.456-2.42,3.887-3.874,3.861s-3.835-2.542-3.763-3.972C1156.75,2873.729,1159.24,2871.37,1160.556,2871.394Z" transform="translate(-39.938 -67.085)" fill="#37371b"/>
        <path id="Контур_4202" data-name="Контур 4202" d="M1161.565,2879.433c-.7-.015-3.07-2.412-3.073-3.108,0-.824,2.451-3.182,3.252-3.124.7.05,3.008,2.54,2.977,3.206C1164.691,2877.053,1162.2,2879.446,1161.565,2879.433Z" transform="translate(-41.043 -68.188)"/>
      </g>
    </g>
    <path id="Контур_4206" data-name="Контур 4206" d="M6.23,18V15.119H.371v-2.4L6.582,3.625h2.3v9.082h1.777v2.412H8.887V18Zm0-5.293V7.814L2.939,12.707ZM16.611,3.625a3.912,3.912,0,0,1,3.252,1.484q1.4,1.758,1.4,5.83t-1.406,5.84a3.905,3.905,0,0,1-3.242,1.465,4.1,4.1,0,0,1-3.369-1.606q-1.279-1.606-1.279-5.728,0-4.043,1.406-5.82A3.905,3.905,0,0,1,16.611,3.625Zm0,2.275a1.371,1.371,0,0,0-.889.317,2.131,2.131,0,0,0-.605,1.138,15.692,15.692,0,0,0-.283,3.584,15.577,15.577,0,0,0,.254,3.462,2.434,2.434,0,0,0,.64,1.255,1.4,1.4,0,0,0,1.772,0,2.131,2.131,0,0,0,.605-1.138,15.553,15.553,0,0,0,.283-3.574,15.577,15.577,0,0,0-.254-3.462,2.468,2.468,0,0,0-.64-1.26A1.352,1.352,0,0,0,16.611,5.9ZM28.477,18V15.119H22.617v-2.4l6.211-9.092h2.3v9.082H32.91v2.412H31.133V18Zm0-5.293V7.814l-3.291,4.893Z" transform="translate(7009 3606)" fill="#fff"/>
  </g>
</svg>
