<svg xmlns="http://www.w3.org/2000/svg" width="960" height="480" viewBox="0 0 960 480">
  <g id="australlia" transform="translate(2457 -2795)">
    <path id="Контур_4117" data-name="Контур 4117" d="M0,0H960V480H0Z" transform="translate(-2457 2795)" fill="none"/>
    <g id="Сгруппировать_91" data-name="Сгруппировать 91" transform="translate(-1815.5 3029.547)">
      <path id="Контур_53" data-name="Контур 53" d="M315.182,2521.324c-.655.488-.652.488-1.049-.069-.075-.1-.162-.2-.238-.307-.37-.513-.493-1.178-1.228-1.461-.249-.738-1.135-1.271-.87-2.187.116-.405-.181-.647-.637-.827a8.065,8.065,0,0,0-1.164-.43.361.361,0,0,1-.221-.271,3.039,3.039,0,0,0-.446-1.6,2.745,2.745,0,0,1-.52-1.385.648.648,0,0,0-.332-.447,28.361,28.361,0,0,0-2.966-1.783.775.775,0,0,1-.5-.575,4.9,4.9,0,0,1-.212-1.448,2.563,2.563,0,0,0-.511-1.936,2.2,2.2,0,0,1-.46-1.578c.028-.426-.092-.863-.068-1.29a1.707,1.707,0,0,0-.73-1.472,1.237,1.237,0,0,0-1.143-.313.556.556,0,0,1-.633-.361,2.291,2.291,0,0,1-.106-.543,6.79,6.79,0,0,0-.35-1.819c-.2-.85-.787-1.579-.964-2.437-.027-.137-.278-.265-.457-.342a.507.507,0,0,0-.375.078.678.678,0,0,0-.25.286c-.255.509-.362,1.057-.635,1.569a10.139,10.139,0,0,0-.473,1.593,6.48,6.48,0,0,0-.434,2.728,2.323,2.323,0,0,1-.126.909c-.222.713-.477,1.421-.735,2.126a13.44,13.44,0,0,1-.577,1.388,1.3,1.3,0,0,1-.989.641,1.859,1.859,0,0,1-1.735-.486,2.092,2.092,0,0,1-.565-.926c-.13,0-.26-.01-.39-.019a2.091,2.091,0,0,1-1.5-.6,5.016,5.016,0,0,0-1.758-1.016,2.654,2.654,0,0,1-.989-.673,6.837,6.837,0,0,0-.732-.67.618.618,0,0,1-.241-.818,3.754,3.754,0,0,0,.662-1.739c-.01-.165.2-.293.424-.365a1.1,1.1,0,0,0,.531-.286,15.06,15.06,0,0,0,.9-1.465c.035-.062-.079-.232-.174-.3a1.022,1.022,0,0,0-.975-.217.943.943,0,0,1-.977-.029c-.2-.136-.394-.009-.594.05s-.439.171-.6.119a17.83,17.83,0,0,1-3.18-.979,6.73,6.73,0,0,0-1.569-.552,1.01,1.01,0,0,0-.41.024.269.269,0,0,0-.166.1c-.03.048-.039.148-.006.177.2.172.413.322.613.491a.353.353,0,0,1,.056.5.348.348,0,0,1-.182.121,3.473,3.473,0,0,1-1.452.226,2.345,2.345,0,0,0-.827.093,4.012,4.012,0,0,0-1.525.994c-.558.629-1.085,1.284-1.63,1.925a.879.879,0,0,0-.125,1.04c.1.219-.227.448-.524.431-.42-.021-.8-.289-1.245-.144a.663.663,0,0,1-.741-.211c-.306-.341-.581-.707-.909-1.027a1.061,1.061,0,0,0-1.141-.3,6.726,6.726,0,0,0-1.36.485,2.813,2.813,0,0,1-1.121.445c-.61.089-.515.7-.882.972a1.612,1.612,0,0,1-.5.34.9.9,0,0,0-.789,1,.943.943,0,0,0,.03.149,1.37,1.37,0,0,1-.04.366.4.4,0,0,1-.428.319c-.213-.008-.425-.042-.636-.035a.47.47,0,0,0-.471.469c0,.015,0,.03,0,.046.039.242.108.48.148.721a.219.219,0,0,1-.078.161.24.24,0,0,1-.339-.013l-.01-.011c-.218-.241-.4-.5-.617-.747a.424.424,0,0,0-.551-.1c-.326.241-.66.47-.973.718a.77.77,0,0,0-.354.649,2.292,2.292,0,0,1-1.016,2.12,3,3,0,0,0-.447.625,3.008,3.008,0,0,1-2.281,1.206c-.636.054-1.269.157-1.9.239-.873.558-2.078.393-2.932,1.011a.85.85,0,0,1-.6.121,2.952,2.952,0,0,0-2.015.387,19.149,19.149,0,0,1-2.448,1.117,1.908,1.908,0,0,0-.913.753c-.238.3-.3-.083-.459-.093a.525.525,0,0,0-.368.076,1.846,1.846,0,0,0-.408.635,3.864,3.864,0,0,0-.094.916,2.242,2.242,0,0,1-.454,1.407,2.054,2.054,0,0,0-.427,1.406,3.514,3.514,0,0,0,.45,1.978,1.661,1.661,0,0,1,.2.527.453.453,0,0,1-.208.485,3.24,3.24,0,0,1-.288.2c-.147.252-.3.5-.444.75a.073.073,0,0,1-.023,0v.039l.033-.03a1.719,1.719,0,0,0,.062.539,2.457,2.457,0,0,1,.3,1.262,4.519,4.519,0,0,0,.449,2.172,5.868,5.868,0,0,1,.375,2.365,6.885,6.885,0,0,0,.315,2.756,1.364,1.364,0,0,1,.03.728c-.09.488-.233.968-.348,1.45a2.618,2.618,0,0,1-1.217,1.676.939.939,0,0,0-.279,1.3.958.958,0,0,0,.164.191,11.218,11.218,0,0,1,.9.787,2.487,2.487,0,0,0,1.646.765,10.27,10.27,0,0,0,1.49.063,1.652,1.652,0,0,0,.813-.185c.96-.643,2.323-.647,3.143-1.51a.691.691,0,0,1,.385-.144,9.309,9.309,0,0,1,2.955-.165,11.169,11.169,0,0,0,2.549.133,1.785,1.785,0,0,0,1.142-.442,9.872,9.872,0,0,1,2.848-1.747,6.305,6.305,0,0,0,.908-.483,2.088,2.088,0,0,1,1.4-.337,7.226,7.226,0,0,0,3.732-.557,6.625,6.625,0,0,1,2.888-.526q1.07.021,2.134.038a1.223,1.223,0,0,1,.927.39,2.3,2.3,0,0,0,1.464.654,7.923,7.923,0,0,1,1.784.577.812.812,0,0,1,.559.734,1.076,1.076,0,0,0,.383,1,1.731,1.731,0,0,1,.6,1.16c.05.43.105.858.147,1.29.018.182,0,.366.006.546a.254.254,0,0,0,.053.18,2.024,2.024,0,0,0,.487.341.483.483,0,0,0,.379-.086c.588-.532,1.136-1.1,1.739-1.622.3-.258.72-.409,1.03-.657.359-.287.651-.635.983-.949a.227.227,0,0,1,.191-.032.219.219,0,0,1,.126.143.7.7,0,0,1-.167.7,3.482,3.482,0,0,0-1.026,1.6,1.933,1.933,0,0,1-1.155,1.253.417.417,0,0,0-.193.313c-.01.1.07.288.145.3a2.843,2.843,0,0,0,.613-.009,1.35,1.35,0,0,0,1.335-.76,2.224,2.224,0,0,1,.188-.333.753.753,0,0,1,.157-.118c.074.08.2.156.214.242a1.728,1.728,0,0,1-.386,1.577c-.15.156-.015.378.2.39.339.023.678.027,1.015.036a.109.109,0,0,0-.005-.041l.1-.089-.046.133h-.048a.425.425,0,0,0,.022.141,3.547,3.547,0,0,1,.161,3.065,1.024,1.024,0,0,0,.1.714c.114.289.325.551.454.835a2.9,2.9,0,0,0,2.2,1.587,4.307,4.307,0,0,1,1.494.674c.28.185.509.433.791.619a.833.833,0,0,0,.8.093,4.473,4.473,0,0,0,2.313-1.552c.065-.114.245-.083.347.027a.218.218,0,0,1,.072.154c-.037.18-.2.43-.122.519a10.812,10.812,0,0,0,1.36,1.651.562.562,0,0,0,.565.091c.743-.577,1.621-.99,2.368-1.551a4.174,4.174,0,0,1,2.556-.789c.354,0,.714.008,1.064-.025.58-.057,1.444-.693,1.466-1.2a11.675,11.675,0,0,1,.721-2.31,4.431,4.431,0,0,1,1.417-2.248,5.686,5.686,0,0,0,1.063-1.381c.37-.6.734-1.2,1.1-1.8a6.239,6.239,0,0,1,2.466-2.488,1.053,1.053,0,0,0,.532-.544c.232-.825,1.161-1.26,1.447-2.032a13.69,13.69,0,0,1,.692-2.32,21.553,21.553,0,0,1,1.344-2.712,2.007,2.007,0,0,0,.3-.871,3.412,3.412,0,0,0-.175-1.83,1.79,1.79,0,0,1-.021-1.273,2.988,2.988,0,0,0,.2-.9,6.27,6.27,0,0,1,.63-2.517.76.76,0,0,0,.1-.354c0-.09-.1-.177-.152-.266A1.324,1.324,0,0,0,315.182,2521.324Z" transform="translate(-244.633 -2496.43)" fill="#fed841" fill-rule="evenodd"/>
      <path id="Контур_91" data-name="Контур 91" d="M297.27,2555.094c-.694.116-1.4.19-2.076.37a1.751,1.751,0,0,1-1.57-.315c-.33-.231-.648-.481-1-.682a1.392,1.392,0,0,0-.594-.117c-.2-.006-.445.295-.474.544-.014.122-.034.243-.039.367-.067,1.1.186,2.222-.3,3.29a2.563,2.563,0,0,0,0,.48c.071.319.229.918.335,1.525.117.668.654.9,1.31,1.028a.647.647,0,0,0,.4-.026,4.162,4.162,0,0,0,.815-.577,1.212,1.212,0,0,1,1.13-.341.593.593,0,0,0,.648-.378,4.115,4.115,0,0,1,1.219-2.1.7.7,0,0,0,.153-.341c.2-.588.384-1.181.57-1.776a3.238,3.238,0,0,0,.066-.364.51.51,0,0,0-.424-.584A.5.5,0,0,0,297.27,2555.094Z" transform="translate(-244.633 -2496.43)" fill="#fed841" fill-rule="evenodd"/>
      <path id="Контур_169" data-name="Контур 169" d="M281.681,2542.164c-.084.065-.1.215-.107.331-.006.032.1.1.157.112.265.069.535.127.676.159.279-.017.421-.022.562-.036a.683.683,0,0,0,.2-.04c.127-.052.243-.119.365-.178-.1-.149-.16-.342-.308-.439A1.364,1.364,0,0,0,281.681,2542.164Z" transform="translate(-244.633 -2496.43)" fill="#fed841" fill-rule="evenodd"/>
      <path id="Контур_252" data-name="Контур 252" d="M291.615,2552.554a2.9,2.9,0,0,0,.144-.322.442.442,0,0,0-.028-.173c-.06-.1-.124-.243-.214-.261a.4.4,0,0,0-.322.146,1.013,1.013,0,0,0-.16.492c0,.079.137.187.24.234a.249.249,0,0,0,.336-.109Z" transform="translate(-244.633 -2496.43)" fill="#fed841" fill-rule="evenodd"/>
      <path id="Контур_286" data-name="Контур 286" d="M298.048,2552.88c-.1.056-.138.19-.2.289a1.362,1.362,0,0,0,.248.255.221.221,0,0,0,.31-.038.213.213,0,0,0,.037-.07.522.522,0,0,0-.041-.326.241.241,0,0,0-.317-.13A.192.192,0,0,0,298.048,2552.88Z" transform="translate(-244.633 -2496.43)" fill="#fed841" fill-rule="evenodd"/>
      <path id="Контур_405" data-name="Контур 405" d="M298.036,2553.9c-.057.02-.145.087-.136.115.04.136.158.18.309.145.052-.044.149-.1.142-.123a.219.219,0,0,0-.268-.156A.214.214,0,0,0,298.036,2553.9Z" transform="translate(-244.633 -2496.43)" fill="#fed841" fill-rule="evenodd"/>
    </g>
    <path id="Контур_4157" data-name="Контур 4157" d="M2635.114,1756.887l16.835,22.348,36.8-39.034-35.906,24.285Z" transform="translate(-4602.314 1423.836)" fill="none" stroke="#fed841" stroke-linecap="round" stroke-linejoin="round" stroke-width="4" stroke-dasharray="5 7"/>
  </g>
</svg>
