<svg xmlns="http://www.w3.org/2000/svg" width="960" height="480" viewBox="0 0 960 480">
  <g id="canada" transform="translate(4555 -3328)">
    <path id="Контур_4117" data-name="Контур 4117" d="M0,0H960V480H0Z" transform="translate(-4555 3328)" fill="none"/>
    <g id="Сгруппировать_87" data-name="Сгруппировать 87" transform="translate(-4341.306 3349.574)">
      <path id="Контур_39" data-name="Контур 39" d="M-96.587,2335.9l-.055-.012a.563.563,0,0,1,0,.058h.08A.175.175,0,0,1-96.587,2335.9Z" transform="translate(183.695 -2283.92)" fill="#fed841" fill-rule="evenodd"/>
      <path id="Контур_40" data-name="Контур 40" d="M-89.149,2350.013l-.049.042.06-.05c-.127.351-.253.7-.383,1.053-.413,1.115-1.192,2.1-1.507,3.251-.073.266-.309.391-.556.524a2.1,2.1,0,0,0-.473.359.546.546,0,0,0,.142.759.517.517,0,0,0,.07.041c.131.048.265.09.4.125.3.1.459.271.424.559a3.251,3.251,0,0,0-.04.369c-.005.443.326.669.827.553a1.782,1.782,0,0,0,.785-.257c.688-.693,1.841-.946,2.3-1.852a.443.443,0,0,1,.37-.069c.434.209.878.436.9.936a.452.452,0,0,0,.307.442c.523.189,1.058.36,1.6.513a.556.556,0,0,0,.4-.07,5.869,5.869,0,0,0,.767-.63c.217-.218.074-.626-.243-.782a.939.939,0,0,0-.2-.064.786.786,0,0,1-.707-.8,1.718,1.718,0,0,0-.62-1.338,2.537,2.537,0,0,1-.661-.717c-.33-.727-1.275-.972-1.647-1.657-.041-.075-.256-.076-.39-.116-.425-.128-.438-.166-.152-.434a9.221,9.221,0,0,0,.693-.676c.061-.071.014-.239-.031-.347s-.2-.129-.348-.058a1.022,1.022,0,0,1-.8.118,3.568,3.568,0,0,0-.839-.056l-.389.338Z" transform="translate(183.695 -2283.92)" fill="#fed841" fill-rule="evenodd"/>
      <path id="Контур_42" data-name="Контур 42" d="M-79.489,2337.789h.057c-.02-.018-.044-.025-.063-.042h0A.109.109,0,0,1-79.489,2337.789Z" transform="translate(183.695 -2283.92)" fill="#fed841" fill-rule="evenodd"/>
      <path id="Контур_43" data-name="Контур 43" d="M-65.427,2400.561c.018-.026.046-.038.058-.068h-.066a.241.241,0,0,1-.006.064Z" transform="translate(183.695 -2283.92)" fill="#fed841" fill-rule="evenodd"/>
      <path id="Контур_941" data-name="Контур 941" d="M-175.6,2369.748v-.011l-.008-.011,0,.011Z" transform="translate(183.695 -2283.92)" fill="#fed841" fill-rule="evenodd"/>
      <path id="Контур_942" data-name="Контур 942" d="M-146.737,2324.436h0Z" transform="translate(183.695 -2283.92)" fill="#fed841" fill-rule="evenodd"/>
      <path id="Контур_943" data-name="Контур 943" d="M-102.956,2355.612v0h0v0Z" transform="translate(183.695 -2283.92)" fill="#fed841" fill-rule="evenodd"/>
      <path id="Контур_944" data-name="Контур 944" d="M-179.207,2310.294h0Z" transform="translate(183.695 -2283.92)" fill="#fed841" fill-rule="evenodd"/>
      <path id="Контур_945" data-name="Контур 945" d="M-83.689,2342.587h0Z" transform="translate(183.695 -2283.92)" fill="#fed841" fill-rule="evenodd"/>
      <path id="Контур_946" data-name="Контур 946" d="M-175.682,2369.625h0l-.006,0h0Z" transform="translate(183.695 -2283.92)" fill="#fed841" fill-rule="evenodd"/>
      <path id="Контур_947" data-name="Контур 947" d="M-144.1,2343.393h0Z" transform="translate(183.695 -2283.92)" fill="#fed841" fill-rule="evenodd"/>
      <path id="Контур_948" data-name="Контур 948" d="M-119.626,2362.874h0Z" transform="translate(183.695 -2283.92)" fill="#fed841" fill-rule="evenodd"/>
      <path id="Контур_949" data-name="Контур 949" d="M-143.943,2343.326h0v0h0Z" transform="translate(183.695 -2283.92)" fill="#fed841" fill-rule="evenodd"/>
      <path id="Контур_950" data-name="Контур 950" d="M-117.459,2388.295h0Z" transform="translate(183.695 -2283.92)" fill="#fed841" fill-rule="evenodd"/>
      <path id="Контур_951" data-name="Контур 951" d="M-141.225,2344.189l-.005,0v0Z" transform="translate(183.695 -2283.92)" fill="#fed841" fill-rule="evenodd"/>
      <path id="Контур_952" data-name="Контур 952" d="M-144.783,2343.652h0l0,0h0Z" transform="translate(183.695 -2283.92)" fill="#fed841" fill-rule="evenodd"/>
      <path id="Контур_953" data-name="Контур 953" d="M-121.416,2390.174l0,0v0l0,0Z" transform="translate(183.695 -2283.92)" fill="#fed841" fill-rule="evenodd"/>
      <path id="Контур_954" data-name="Контур 954" d="M-128.2,2368.165l.005,0v0l-.005,0Z" transform="translate(183.695 -2283.92)" fill="#fed841" fill-rule="evenodd"/>
      <path id="Контур_955" data-name="Контур 955" d="M-128.316,2368.256h0l0,0h0Z" transform="translate(183.695 -2283.92)" fill="#fed841" fill-rule="evenodd"/>
      <path id="Контур_956" data-name="Контур 956" d="M-126.838,2385.817l0,.007,0,.013,0-.013Z" transform="translate(183.695 -2283.92)" fill="#fed841" fill-rule="evenodd"/>
      <path id="Контур_957" data-name="Контур 957" d="M-126.887,2386.156h0Z" transform="translate(183.695 -2283.92)" fill="#fed841" fill-rule="evenodd"/>
      <path id="Контур_958" data-name="Контур 958" d="M-141.173,2365.145l-.006,0h0Z" transform="translate(183.695 -2283.92)" fill="#fed841" fill-rule="evenodd"/>
      <path id="Контур_959" data-name="Контур 959" d="M-56.455,2385.819a.707.707,0,0,0-.089-.53,1.514,1.514,0,0,0-1.5-.77v.02l-.131.06.091-.08h.04a3.1,3.1,0,0,0-.1-.53.871.871,0,0,0-.73-.61c-.2-.03-.419-.02-.63-.04a1.169,1.169,0,0,1-.2-.05.865.865,0,0,1,.25-.17c.19-.08.4-.11.59-.2a.4.4,0,0,0,.2-.51.274.274,0,0,0-.091-.12.876.876,0,0,0-.829-.47c-.14.01-.361.03-.421-.03a5.056,5.056,0,0,0-1.98-1.02.55.55,0,0,1-.28-.26,2.859,2.859,0,0,0-1.24-1.46,7.616,7.616,0,0,1-.68-.7.43.43,0,0,1-.089-.6.22.22,0,0,1,.069-.07c.241-.23.5-.44.741-.66a.474.474,0,0,0,.089-.65c-.01-.01-.01-.02-.02-.03a1.534,1.534,0,0,1-.4-1.37c.039-.13-.141-.35-.29-.46-.281-.22-.08-.6-.44-.8-.281-.16-.031-.46-.121-.69a5.511,5.511,0,0,1-.1-.9,5.088,5.088,0,0,0-.32-1.08,9.089,9.089,0,0,1-.64-2.51,4.5,4.5,0,0,0-.149-.73c-.031-.08-.2-.14-.321-.18a.224.224,0,0,0-.19.05,24.061,24.061,0,0,0-1.62,2.14,3.507,3.507,0,0,1-1.96,1.86,5.629,5.629,0,0,0-.67.45,6.583,6.583,0,0,1-.95.4,1.078,1.078,0,0,1-.99-.2,1.163,1.163,0,0,1-.479-.59,1.252,1.252,0,0,0-.721-.65.867.867,0,0,1-.48-.96c.03-.6.49-1.15.2-1.8-.06-.12.12-.34.2-.51a7.5,7.5,0,0,1,.87-1.67.312.312,0,0,0-.161-.43l-.06-.03c-.64-.07-1.029-.61-1.719-.61a2.153,2.153,0,0,1-.771-.31.461.461,0,0,1-.27-.46c.01-.18.07-.36-.089-.53a3.6,3.6,0,0,1-.851-1.26,2.667,2.667,0,0,0-.57-.77,1.2,1.2,0,0,0-1.459-.44,1.67,1.67,0,0,1-.831.07,6.546,6.546,0,0,1-2.409-.62,3.2,3.2,0,0,0-.981-.35,1.816,1.816,0,0,0-2.05.96,1.22,1.22,0,0,0,.05,1.25.641.641,0,0,1,0,.86,6.367,6.367,0,0,0-.99,1.2c-.24.51.3,1.05.161,1.62a1.312,1.312,0,0,0,.089.73c.17.45-.1.69-.49.9-.179.1-.44.16-.52.31a8.579,8.579,0,0,1-1.79,1.82.691.691,0,0,0-.06.96.289.289,0,0,0,.06.05c.211.25.461.47.66.73a1.913,1.913,0,0,1,.351.66c.14.67.2,1.35.349,2.02.17.74-.44,1.44-.13,2.19.02.06-.11.21-.209.28a7.543,7.543,0,0,0-.87.52,9.1,9.1,0,0,1-3.051,1.67c-.519.19-1.05.37-1.579.55a.7.7,0,0,0-.541.72,9.213,9.213,0,0,1-.029,2.22,8.743,8.743,0,0,0-.18,1.47c-.021.48.07.97.079,1.45a1.039,1.039,0,0,1-.1.53,8.938,8.938,0,0,1-.609.98.417.417,0,0,1-.331.15c-.52-.1-.76.25-1.1.46a.654.654,0,0,1-.75-.13c-.091-.17-.161-.34-.25-.5-.14-.28-.2-.65-.44-.83a7.368,7.368,0,0,1-1.43-2.03.6.6,0,0,1,.019-.7,4.858,4.858,0,0,0,.88-2.64,2.723,2.723,0,0,1,.3-.88c.1-.29.21-.59.31-.88.041-.13-.149-.45-.279-.46-1.11-.21-2.24-.36-3.36-.46a.913.913,0,0,1-.741-.32,5.077,5.077,0,0,0-1.949-1.41,3.358,3.358,0,0,1-1.651-1.39,4.2,4.2,0,0,0-1.779-1.56c-.671-.35-1.351-.68-2.031-1.01a1.554,1.554,0,0,0-1.039-.12,5.216,5.216,0,0,1-1.8.27c-.009.02-.009.03-.019.05l-.081.04.031-.09h.069a2.016,2.016,0,0,0,.52-1.5c-.08-.67-.039-1.34-.07-2.02a2.935,2.935,0,0,0-.12-.72.437.437,0,0,0-.3-.23,5.979,5.979,0,0,0-.84-.07.585.585,0,0,1-.6-.41,1.088,1.088,0,0,1-.049-.54c.1-.35.32-.69.409-1.04a6.431,6.431,0,0,1,2.5-3.93,4.955,4.955,0,0,0,.8-.85,5.626,5.626,0,0,1,2.77-2.18c.56-.45,1.26-.8,1.461-1.51a.38.38,0,0,1,.469-.26c.27.05.55.09.83.12a1.139,1.139,0,0,0,1.28-.99,6.207,6.207,0,0,0-.06-.87h-.06c-.04-.02-.069-.05-.11-.07.06.01.11.02.161.03a.065.065,0,0,1,.009.04,2.109,2.109,0,0,0,.431.05,1.91,1.91,0,0,0,1.719-1.07.432.432,0,0,1,.531-.17c.339.1.649.24.98.34a1.049,1.049,0,0,0,1-.11c1.08-.87,2.149-1.75,3.219-2.65a.451.451,0,0,0,.12-.33.636.636,0,0,1,.31-.63c.491-.34.981-.68,1.46-1.03l.391-.34c.01-.01.02-.01.029-.02.1-.08.19-.16.28-.23.54-.46.55-.47.17-1.08-.029-.06-.06-.11-.089-.17a.191.191,0,0,1,.06-.26.189.189,0,0,1,.1-.03c.651-.09,1.281-.11,1.55.58a.261.261,0,0,0,.151.12,4.175,4.175,0,0,0,3.07.06,7.881,7.881,0,0,0,1.959-1.1,1.638,1.638,0,0,1,.69-.39,1.578,1.578,0,0,0,1.051-.85.936.936,0,0,0,.159-.88,4.187,4.187,0,0,0-.26-.7,1.192,1.192,0,0,1-.07-1.07c.111-.35.171-.71.26-1.06l-.05-.01-.1-.04.149.03v.02a4.947,4.947,0,0,0,.76.09c.8-.05,1.081-.3,1.131-1.02a.9.9,0,0,1,.239-.66c.35-.35.1-.65-.1-.95a1.064,1.064,0,0,1-.841-1.07c.01-.42-.21-.65-.74-.63-.419.01-.52-.26-.57-.56a1.937,1.937,0,0,1-1.27-.37v-.03l-.06-.01.07.06a1.863,1.863,0,0,1-.409.09,1.1,1.1,0,0,0-1.211.81c-.14.52-.55,1.01-.339,1.59a.256.256,0,0,1-.08.33c-.25.21-.49.42-.73.63a1.359,1.359,0,0,0-1.161.94,6.039,6.039,0,0,1-.51.8.877.877,0,0,1-.69.31c.01.01.01.03.02.04a.647.647,0,0,1-.09.08.632.632,0,0,0,.041-.12h.029c-.11-.2-.18-.43-.469-.5-.25-.05-.461.22-.591.67a1,1,0,0,0,.031.72.659.659,0,0,1-.161.69.805.805,0,0,1-.75.23.81.81,0,0,1-.449-.34,5.815,5.815,0,0,1-.281-1.09,1.756,1.756,0,0,1,.72-1.82.929.929,0,0,0,.34-.65,3.18,3.18,0,0,0-.64-2.29c-.079-.13-.42-.13-.56.01a3.742,3.742,0,0,0-1.07,1.36,1.454,1.454,0,0,1-.639.72.341.341,0,0,1-.19.07c-.161.01-.25-.08-.2-.21a3.779,3.779,0,0,0,.359-1.81c-.039-.33.271-.35.521-.45.4-.17.43-.5.1-.72a2.282,2.282,0,0,0-1.1-.54,1.969,1.969,0,0,1-.951-.38c-.14-.09-.2-.2-.09-.31.38-.36.76-.72,1.15-1.07a1.315,1.315,0,0,1,.38-.12c.53-.16.651-.27.56-.6a4.81,4.81,0,0,1,.03-3.44.746.746,0,0,0,.01-.55c-.279-.7-.159-1.47-.55-2.15-.149-.25.01-.44.271-.6.519-.32,1.01-.67,1.519-1.01a1.235,1.235,0,0,0,.6-.94.609.609,0,0,1,.159-.33.485.485,0,0,1,.341-.17,8.615,8.615,0,0,1,.95.39,1.2,1.2,0,0,0,1.2-.09,4.887,4.887,0,0,0,.671-.45c.979-.8,1.959-1.61,2.919-2.43a3.162,3.162,0,0,0,.511-.58.733.733,0,0,0-.321-.98.619.619,0,0,0-.19-.07,4.53,4.53,0,0,1-2.26-.9,1.981,1.981,0,0,0-.779-.28,5.287,5.287,0,0,0-1.9-.01,1.243,1.243,0,0,0-.56.25c-.32.31-.529.73-1.049.86-.261.37-.531.73-.771,1.1-.38.59-.76,1.18-1.1,1.79a2.36,2.36,0,0,0-.38,1.05,6.137,6.137,0,0,1-.761,2.29.8.8,0,0,1-.38.41c-.409.24-.8.51-1.21.75-.36.2-.3.5-.28.79l.05-.01a.221.221,0,0,0,.01.08l.081.04c-.051.06-.07.03-.081-.04l-.06-.04v-.03a3.848,3.848,0,0,0-.94.25,3.114,3.114,0,0,0-1.64,2.23,1.3,1.3,0,0,1-.469.97,3.475,3.475,0,0,0-.291.26,1.393,1.393,0,0,0-.41,1.19,1.984,1.984,0,0,0,.47,1.2,2.187,2.187,0,0,1,.33.6,2.485,2.485,0,0,1,.531.15c.419.22.82.47,1.219.7.05.03.12.09.12.13.01.12-.1.15-.26.18a1.13,1.13,0,0,0-.56.18,10.537,10.537,0,0,0-.9,1c-.171.19-.07.42.269.57a2.05,2.05,0,0,0,.351.09.6.6,0,0,1-.141.65c-.349.31-.719.6-1.09.88a2.514,2.514,0,0,1-1.519.58,1.249,1.249,0,0,0-1.281,1.04c-.12.42-.159.85-.25,1.28-.019.08-.13.16-.19.24a1.592,1.592,0,0,1-.149-.13c-.161-.2-.31-.4-.471-.61-.26-.35-.25-.49.041-.82.38-.45.759-.89,1.139-1.33a.313.313,0,0,0-.13-.42c-.019-.01-.05-.02-.069-.03a.961.961,0,0,1-.991-.93v-.07c.27.06.551.11.82.18a1.157,1.157,0,0,0,.82,0c.45-.18.911-.34,1.351-.54a.365.365,0,0,0,.19-.29c0-.43-.051-.86-.07-1.28-.021-.34-.031-.39.449-.46.661-.1.671-.49.71-.91h-.349a1.762,1.762,0,0,1-1.981-1.06,1.29,1.29,0,0,0-.2-.31.581.581,0,0,0-.58-.08,4.971,4.971,0,0,0-.75.64,3.145,3.145,0,0,1-2.18,1.3,1.058,1.058,0,0,0-.361.19,1.591,1.591,0,0,0-.149.13.353.353,0,0,0-.021.48l.021.02a4.555,4.555,0,0,1,1.909,1.65l-.07-.04.06.05a6.759,6.759,0,0,1-1.019.16c-.38,0-.661.02-.851.37a2.1,2.1,0,0,1-.55.53c-.159.13-.31.25-.3.46a.455.455,0,0,1-.219.48.978.978,0,0,1-.82,0c-.26-.1-.51-.22-.771-.31a1.888,1.888,0,0,0-1.44-.04,2.584,2.584,0,0,1-.609.14,1.4,1.4,0,0,1-.831-.11,2.048,2.048,0,0,1-1.109-.83,1.947,1.947,0,0,0-1.471-.96.759.759,0,0,1-.589-.49,3.479,3.479,0,0,1-.461-1.78,1.991,1.991,0,0,0-.02-.55,1,1,0,0,0-1.04-.77c-.969.14-1.95.26-2.94.31a1.124,1.124,0,0,0-.9.71.69.69,0,0,0,.319.82.572.572,0,0,0,.59.06c.12-.06.22-.19.35-.21.411-.06.851-.07,1.26-.15s.8-.24,1.2-.34c.071-.01.19.11.271.19a.221.221,0,0,1-.1.14,6.994,6.994,0,0,0-1.159.41,3.849,3.849,0,0,1-1.541.58,6.186,6.186,0,0,0-.81.23,1.229,1.229,0,0,0-.85.76,8.627,8.627,0,0,0-.45,1.8.884.884,0,0,1-.31.47c-.14.11-.4.25-.529.2-.25-.09-.12-.3-.01-.46a.824.824,0,0,0,0-.89c-.211-.38-.411-.78-.62-1.17l-.57-.99a.862.862,0,0,0-.721-.32c-.269.06-.54.14-.819.19a7.325,7.325,0,0,1-5.8-1.14.406.406,0,0,1-.029-.51,1.188,1.188,0,0,1,1-.59c.219,0,.429,0,.64-.01.889-.01,1.3-.4,1.129-1.14a3.559,3.559,0,0,0-.459-1.03,1.452,1.452,0,0,0-1.37-.74,2.727,2.727,0,0,1-1.951-.56c-.78-.53-1.539-1.1-2.34-1.6a2.053,2.053,0,0,1-1.069-1.32c-.13-.77-.741-1.14-1.51-1.42a1.421,1.421,0,0,0-1.7.32,2.354,2.354,0,0,1-.651.48,1.56,1.56,0,0,1-.61.09c-.229.02-.469-.23-.349-.35a3.745,3.745,0,0,0,.839-2.04c.01-.05-.06-.11-.11-.15a.212.212,0,0,0-.169-.05,2.157,2.157,0,0,0-.551.26c-.6.42-1.18.88-1.79,1.3a.5.5,0,0,1-.4.05.387.387,0,0,1-.25-.25,3.05,3.05,0,0,1,.069-1.47,6.75,6.75,0,0,0,.25-2.57,1.216,1.216,0,0,0-.18-.52.426.426,0,0,0-.349-.05.93.93,0,0,0-.451.8.861.861,0,0,1-.5.76c-.44.21-.849.45-1.289.65a.727.727,0,0,1-.771-.13c-.09-.08-.18-.14-.27-.21v.01l-.16.02a3.937,3.937,0,0,1-.359.2.212.212,0,0,1-.19,0c-.141-.09-.091-.14.12-.15.149-.01.289-.04.429-.05.04-.03.081-.05.11-.07l.05.04a4.7,4.7,0,0,0,.171-.52.361.361,0,0,0-.241-.45,2.319,2.319,0,0,0-1.449-.05,10.127,10.127,0,0,1-3.26.7,1.86,1.86,0,0,0-.98.28,2.644,2.644,0,0,1-1.96.32.115.115,0,0,0-.04.03l-.061.09.051-.13.05.01a.95.95,0,0,0,.1-.1.456.456,0,0,0,.06-.64c-.01-.01-.019-.01-.019-.02-.19-.22-.361-.24-.721-.06a2.251,2.251,0,0,1-.76.29,7.165,7.165,0,0,0-1.43.3,1.364,1.364,0,0,0-1.07,1.03.29.29,0,0,1-.31.27.2.2,0,0,1-.11-.03c-.289-.17-.58-.35-.88-.52a1.823,1.823,0,0,1-.839-1.03c-.14-.41-.291-.81-.461-1.21-.13-.28-.3-.54-.45-.81a8.465,8.465,0,0,0-1.69-1.07,4.222,4.222,0,0,1-2.12-2,1.407,1.407,0,0,0-.229-.31,1.035,1.035,0,0,0-.7-.37c-.289-.02-.57-.03-.849-.03a2.474,2.474,0,0,1-1.56-.51,7.147,7.147,0,0,0-2.121-1.22,3.275,3.275,0,0,1-1.019-.67,3.2,3.2,0,0,1-.841-1.05,1.1,1.1,0,0,0-1.24-.53c-.349.06-.69.15-1.039.21a.508.508,0,0,1-.531-.21c-.33-.47-.31-1.05-.649-1.52-.041-.06.06-.24.149-.32.14-.16.23-.34.14-.51a.958.958,0,0,0-.4-.4,5.865,5.865,0,0,0-.98-.32,4.526,4.526,0,0,0-.63-.09c-.33-.05-.4-.13-.339-.54.04-.31.079-.59-.32-.73a.036.036,0,0,1,.009.02.807.807,0,0,0-.16-.01l-.609.18c-.081.04-.151.09-.231.13h-.06a1.09,1.09,0,0,1-.079.31.454.454,0,0,1-.581.23l-.09-.06a.577.577,0,0,1-.18-.31.3.3,0,0,1,.161-.1c.25-.03.51-.04.769-.07a.109.109,0,0,1,.01-.05l.281-.08a1.174,1.174,0,0,1,.609-.18l.11-.03a.054.054,0,0,1,.041.02,2.619,2.619,0,0,0-.851-1.24.792.792,0,0,0-.769-.15,4.611,4.611,0,0,0-1.341.55,2.328,2.328,0,0,1-2.02.26c-.19-.05-.37-.09-.56-.14v40.42l5.02,3.93,6.17,6.75,2.421,3.75v2.5l-4.091.5-2.27.78a.181.181,0,0,1-.23.01l-1.429.1a.264.264,0,0,1-.031.11,4.393,4.393,0,0,0-.2.7c-.031.18-.111.41-.02.53.339.42.27.94.539,1.37a.435.435,0,0,0,.33.14.468.468,0,0,0,.331-.17,4.143,4.143,0,0,0,.62-1.69h-.05a.44.44,0,0,0-.02-.1l-.11-.08c.039.01.1.02.11.04s0,.03.01.04l.06.06v.04h.4a.138.138,0,0,0-.029-.04l.089-.08a.471.471,0,0,1-.04.12h-.02c.15.22.3.42.45.64v.01a.206.206,0,0,1,.05-.04c.01.05.01.1.02.14l-.06-.09a.01.01,0,0,0-.01-.01.6.6,0,0,0-.349.55.593.593,0,0,0,.029.18.786.786,0,0,0,.49.57,4.084,4.084,0,0,0,.611.11c.269.05.36.22.19.38a1.843,1.843,0,0,0-.69,1.3c-.01.23-.31.21-.491.29-.269.11-.3.23-.12.4.491.45.46.65-.149.88-.141.06-.281.09-.24.25a.774.774,0,0,0,.889.61,4.7,4.7,0,0,1,1.431-.32c.06,0,.17.04.18.07.009.1.029.24-.031.31a5.7,5.7,0,0,1-.62.49,1.289,1.289,0,0,0-.529,1.15c0,.07.11.15.189.22a.35.35,0,0,0,.1-.01l.059-.09c.081.06.04.08-.059.09l-.05.06c.359.32.7.65,1.05.97a.558.558,0,0,1,.159.65,4.887,4.887,0,0,1-.339.58l-.031-.02v.06l.041-.04c-.01.19-.1.39-.031.55a.711.711,0,0,1-.13.85.919.919,0,0,0-.089.17l.6,1.08a2.378,2.378,0,0,1,1.011.66,2.178,2.178,0,0,0,1.01.65,6.671,6.671,0,0,1,.949.41c.19.1.32.27.241.46a1.388,1.388,0,0,0-.111,1l35.34-.12.75-.85.571,1.87h3.2l1.13,1.24.75-.56.87.96.949-.57.051.01c-.06-.22-.12-.45-.171-.67-.009-.09.12-.2.19-.3.19.35.4.69.57,1.04.01.03.021.07.031.1l1.589.44.93-.11,1.96-.85,7.331,4.68,1.01.39.81,1.25.209.14a3.908,3.908,0,0,0,1.361-.66.858.858,0,0,1,.8-.12,4.6,4.6,0,0,0,.6.19,1.566,1.566,0,0,1,1.45,1.18.984.984,0,0,0,.87.73c.531.09.641.34.651.78a14.946,14.946,0,0,0,.19,1.65c.029.24-.291.41-.58.27a1.442,1.442,0,0,0-.781-.22,16.2,16.2,0,0,0-1.7.15,1.4,1.4,0,0,1-.5.06l.129.69s0,.34-.019.77h.07c.32-.05.74-.09,1.329-.16a1.706,1.706,0,0,1,.991.22l1.12.03c.139-.04.279-.09.42-.13.1-.04.159-.19.25-.28s.169-.26.239-.25a20.916,20.916,0,0,1,3.331.66l2.43-.06s1.32-2.09,2-2.26a6.061,6.061,0,0,0,1.76-1.12l11.339,1.22,4.541-1.73a.829.829,0,0,1,.289-.3,6.889,6.889,0,0,1,2.38-1.17,1.751,1.751,0,0,0,1.3-.87.873.873,0,0,1,.24-.3,12.015,12.015,0,0,1,1.3-.93c.45-.25.97.01,1.46.02a53.126,53.126,0,0,1,5.911.51c.86.11,1.67-.25,2.529-.11a1.873,1.873,0,0,0,.62-.1,3.219,3.219,0,0,0,.581-.23,3.965,3.965,0,0,0,1.429-1.07,1.822,1.822,0,0,1,1.25-.64,9.484,9.484,0,0,1,1.05-.13,5.132,5.132,0,0,0,2.68-1.02.849.849,0,0,0,.45-1.11c0-.01-.01-.01-.01-.02a.846.846,0,0,1-.029-.87A2.155,2.155,0,0,0-56.455,2385.819Zm-41.49-36.59a.277.277,0,0,1,.2.03,5.8,5.8,0,0,1,1.19,1.47c.021.04-.02.1-.02.16-.06.03-.13.09-.17.08a2.159,2.159,0,0,1-.549-.22,2.582,2.582,0,0,1-.831-1.24C-98.175,2349.379-98.1,2349.269-97.945,2349.229Zm-1.719-10.33v-.03l.159-.04-.11.08Zm-7.591,14.03.01.12-.07-.07c-.01-.02-.029-.03-.05-.05A.4.4,0,0,0-107.255,2352.929Zm-.13-.01a.981.981,0,0,1-.69-.25A1.234,1.234,0,0,1-107.385,2352.919Zm-1.76-.72c.01-.03.121-.06.171-.04a1.058,1.058,0,0,1,.75.46v.01c.029-.01.039-.01.07-.02.019.02.039.03.06.05h.01v.01a.01.01,0,0,1-.01-.01l-.111-.01-.019-.02a1.964,1.964,0,0,1-.531.13c-.17,0-.279-.09-.42-.27C-109.224,2352.419-109.175,2352.289-109.145,2352.2Zm-4.079-1.3v.01c.039,0,.079.05.13.07a.339.339,0,0,1-.151.04C-113.435,2350.959-113.425,2350.909-113.224,2350.9Zm-62.38,19.06a.5.5,0,0,1,0-.18v-.03a.01.01,0,0,0-.011-.01h.011v.01a.54.54,0,0,1,.109.21C-175.485,2370.129-175.565,2370.129-175.6,2369.959Zm18.8-42.49c-.029,0-.08-.09-.08-.14a1.4,1.4,0,0,1,0-.29c.02-.35.02-.46.041-.58a.343.343,0,0,1,.109-.13c.011,0,.1.04.1.06.02.28.02.57.041.86C-156.594,2327.4-156.654,2327.489-156.8,2327.469Zm2.961-.83-.12.1a.9.9,0,0,1,.069-.15l.08-.02Zm5.51,8.5a.181.181,0,0,0,.069-.02.183.183,0,0,0,.02-.07c.091.02.07.04-.02.07-.009.02-.009.05-.019.07l-.141.06Zm-4.71,22.34-.071.05.05-.07.1-.08Zm3.25,15.08h-.011a1.034,1.034,0,0,1-.169-.04,1.1,1.1,0,0,1,.239-.08c.03,0,.081.05.11.08A.526.526,0,0,1-149.794,2372.559Zm.289-47.09c-.7,0-1.39-.02-2.079-.02-.051.02-.1.03-.14.05-.151.14-.31.28-.461.42-.039.01-.07.01-.109.02a1.013,1.013,0,0,1-.18.18c-.021.02-.11-.02-.161-.04.07-.14.21-.14.341-.14l.059-.06.461-.43h.19a4.128,4.128,0,0,1,2.23-.16s.02.09.01.1A.355.355,0,0,1-149.505,2325.469Zm2.89,30.15-.109-.09.169.04.031.08Zm.38-12.59v-.01a1.586,1.586,0,0,1-1.77.04c-.289-.15-.339-.28-.14-.4a3.559,3.559,0,0,0,.851-.53,2.527,2.527,0,0,1,1.159-.77.92.92,0,0,0,.63-.69.472.472,0,0,1,.33-.15c.35.01.66.21,1.04.14.27-.05.481-.38.31-.57a2.38,2.38,0,0,0-.6-.5,3.546,3.546,0,0,0-1.44-.31c-.909-.02-1.82-.08-2.729-.14-.051,0-.13-.09-.12-.12a.6.6,0,0,1,.18-.31.8.8,0,0,1,.4-.08c1.07-.04,2.13-.07,3.2-.1a9.458,9.458,0,0,0,2.31-.32,20.484,20.484,0,0,1,2.07-.42,1.9,1.9,0,0,1,.63.02c.12.02.28.11.3.2a.318.318,0,0,1-.14.31c-.579.22-1.18.41-1.769.61a.364.364,0,0,0-.13.48c.039.05.06.12.12.16.1.07.219.14.339.21a2.3,2.3,0,0,0,2.9.08.236.236,0,0,1,.2-.02c.159.06.159.17.109.31a1.3,1.3,0,0,1-.4.64c-.28.19-.59.36-.84.57a1.361,1.361,0,0,0-.289.47c-.291.62-.491.71-1.02.3a1.7,1.7,0,0,0-1.771-.21c-.18.07-.4.23-.43.37-.089.65-.549.92-1.2,1.03.1-.26.221-.53.3-.79.1-.31-.28-.66-.62-.55a6.767,6.767,0,0,0-1.16.43A6.97,6.97,0,0,0-146.235,2343.029Zm4.761,1.3-.031.09a.113.113,0,0,1-.06.08,1.49,1.49,0,0,0-.019.21c-.14-.1-.061-.15.019-.21a.616.616,0,0,1,.01-.13c.021-.01.05-.03.07-.04.03-.12.011-.26.23-.29,0,.01.041.13.02.15h.011l-.011.01v-.01C-141.315,2344.239-141.4,2344.289-141.474,2344.329Zm-2.421,4.61c.111-.05.361-.06.39,0,.2.31.37.64.541.95-.091.09-.151.16-.19.16a1.216,1.216,0,0,1-.991-.87C-144.164,2349.129-144.005,2348.979-143.9,2348.939Zm-.879-5.29a.912.912,0,0,1,.67-.26c.029-.02.06-.03.089-.05.03,0,.051-.01.07-.01-.01.02-.01.04-.019.06h-.14A1.5,1.5,0,0,1-144.774,2343.649Zm-.01,0c-.021.03-.05.05-.07.08-.031,0-.071.01-.11.01a1.533,1.533,0,0,1-.171.18c-.019.02-.1-.02-.149-.03.06-.14.19-.14.32-.15l.06-.06A.554.554,0,0,0-144.784,2343.649Zm.289,15.9.01-.11.18.07Zm3.32,5.6a.454.454,0,0,1-.14.06,3.052,3.052,0,0,1-.08-.31.241.241,0,0,1,.14-.05c.05.02.08.09.11.13A.446.446,0,0,1-141.175,2365.149Zm2.271,7.62a1,1,0,0,0-.081-.1c-.039-.1-.1-.19-.14-.28l.17.27C-138.8,2372.659-138.784,2372.7-138.9,2372.769Zm4.579-8.72c-.48.06-.959.1-1.44.15,0-.03-.009-.05-.009-.08-.211,0-.421.01-.63,0a2.159,2.159,0,0,0-1.69.61,1.628,1.628,0,0,1-.471.34c-.089.04-.25-.04-.37-.08a.193.193,0,0,1,.01-.15,2.24,2.24,0,0,1,.53-.57c.76-.42,1.561-.8,2.361-1.17a.489.489,0,0,1,.389.06,2.1,2.1,0,0,0,1.291.5c.049,0,.119.17.149.27C-134.2,2363.959-134.274,2364.049-134.325,2364.049Zm.51,11.48c-.06-.02-.089-.07-.14-.1.041-.1.051-.22.13-.29a.439.439,0,0,1,.51-.08c.05.02.1.09.091.12A.527.527,0,0,1-133.815,2375.529Zm-.2-6,.01-.01a.173.173,0,0,1-.149-.08.175.175,0,0,1,.019-.16.868.868,0,0,1,.861-.31c.029.01.039.09.069.14A.834.834,0,0,1-134.015,2369.529Zm.791-12.78.06-.13.06.13Zm.739-3.29h-.039a3.052,3.052,0,0,1-.51.5,5.354,5.354,0,0,1-.94.43,11.186,11.186,0,0,0-2.011,1.02,16.293,16.293,0,0,1-2.429,1.13.581.581,0,0,1-.411,0,1.331,1.331,0,0,0-1.509.39,1.744,1.744,0,0,1-1.08.53c-.63.08-1.25.22-1.88.29a1.489,1.489,0,0,1-1.321-.47c-.219-.24-.46-.46-.679-.7-.021-.01.02-.1.049-.11a.294.294,0,0,1,.2-.04,7.705,7.705,0,0,0,.8.2.863.863,0,0,0,.591-.12,5.13,5.13,0,0,0,.88-.8,1.16,1.16,0,0,1,1.11-.38,1.489,1.489,0,0,0,.419-.04.563.563,0,0,0,.49-.52,4.442,4.442,0,0,0-.07-.55c-.079-.37-.16-.73-.25-1.09-.04-.15-.009-.25.13-.27a.311.311,0,0,1,.18.07,5.585,5.585,0,0,1,1.421,1.6,1.216,1.216,0,0,0,.9.42,3.541,3.541,0,0,0,2.58-.67,4.883,4.883,0,0,1,2.321-.85,4.968,4.968,0,0,1,1.02.02c.009-.01.029-.02.039-.04-.02-.12.011-.14.081-.03C-132.4,2353.389-132.455,2353.429-132.485,2353.459Zm.881-11.11a.588.588,0,0,1-.321,0c-.26-.12-.31-.36-.119-.35l.01-.01a1.353,1.353,0,0,1,.349.08c.05.02.07.09.11.14C-131.584,2342.259-131.584,2342.349-131.6,2342.349Zm1.219,5.6a.227.227,0,0,1-.18.03.168.168,0,0,1-.089-.22.161.161,0,0,1,.05-.07h.01c.029-.03.109-.02.169-.02C-130.294,2347.759-130.274,2347.859-130.385,2347.949Zm3.39,2.3h.01c.021-.04.11-.04.17-.06.151.06.2.15.11.28a.173.173,0,0,1-.149.05C-127.015,2350.469-127.075,2350.369-127,2350.249Zm-1.21,17.91h.01a2.722,2.722,0,0,1,.05-.64.665.665,0,0,1,.58-.47.811.811,0,0,1,.37.12c.031.01.031.12,0,.17a2.343,2.343,0,0,1-1,.82c-.01,0-.01,0-.01.01v.07l-.1.01.05-.06c.02,0,.031-.02.05-.02Zm-.23-18.46c.2.01.25.08.13.18-.039.03-.14,0-.2,0l-.1-.11C-128.555,2349.749-128.495,2349.7-128.435,2349.7Zm.12,18.56-.1.11c.01-.04.019-.09.039-.1A.131.131,0,0,1-128.315,2368.259Zm-1-24.1-.039-.12h.089Zm2.471,41.68c-.01.1-.031.21-.041.31-.01-.02-.019-.03-.029-.05.019-.08.049-.17.07-.26v-.02h.01C-126.834,2385.829-126.844,2385.829-126.844,2385.839Zm.209-4.8c-.25.06-.51.1-.769.14l.05.07-.05-.01a2.791,2.791,0,0,1,.229.63,1.365,1.365,0,0,1-.09.69,5.261,5.261,0,0,1-.569.76c-.1.14-.2.16-.27.05a.311.311,0,0,1-.021-.17.32.32,0,0,1,.041-.17c.149-.33.379-.63.259-1.03-.13-.45-.639-.4-.959-.59-.05-.03-.081-.13-.06-.16a.577.577,0,0,1,.269-.19,1.393,1.393,0,0,1,.4.06l.771.11-.031-.05h.031c-.211-.29-.421-.57-.611-.87a1.33,1.33,0,0,1-.05-1.41.574.574,0,0,1,.74-.34.6.6,0,0,1,.221.16,5.2,5.2,0,0,1,.589.72c.01-.01.01-.02.02-.03l.04-.09-.04.14-.02-.02c-.56.44-.55.87.02,1.33C-126.385,2380.859-126.474,2381.009-126.635,2381.039Zm.64-11.69a11.11,11.11,0,0,0-.96.96,9.041,9.041,0,0,0-.509.99,1.053,1.053,0,0,1-.281.23c.01.01.01.03.021.05l-.5.42-.19.03c-.231.12-.471.23-.711.34-.02.01-.11-.05-.12-.1s.01-.13.05-.14c.26-.04.52-.07.781-.11a.654.654,0,0,0,.14-.07l.5-.41.029-.02c-.01-.04-.029-.08-.039-.12-.38-1.5-.581-1.62,1.38-2.6a.456.456,0,0,1,.36.06c.089.07.1.21.119.32A.242.242,0,0,1-126,2369.349Zm2.56,9.08c.04,0,.081.06.13.09-.029.04-.029.11-.07.13a.194.194,0,0,1-.149-.03C-123.654,2378.509-123.615,2378.429-123.435,2378.429Zm-.839,5.62a.88.88,0,0,1-.711-.6c-.059-.18-.109-.36-.16-.54-.11-.47-.34-.94,0-1.41l-.379-.6c.209-.31.4-.63.629-.93h.01a.466.466,0,0,1,.38-.07,1.169,1.169,0,0,1,.93.67,2.666,2.666,0,0,1,.19,1.25c-.07.6-.06,1.22-.079,1.7a4.685,4.685,0,0,1,.17.66c0,.17-.011.42-.131.49-.239.13-.32-.1-.429-.26S-124.1,2384.079-124.274,2384.049Zm.389,3.43a.149.149,0,0,0,.01.07l-.12.02.07-.05c.011-.01.021-.03.04-.04a2.169,2.169,0,0,1,.46-1.68.181.181,0,0,1,.141-.04.24.24,0,0,1,.089.15h.01A1.4,1.4,0,0,1-123.885,2387.479Zm1.051-15.32a1.079,1.079,0,0,1-.33-.12c.08-.08.149-.2.26-.24h.009a.236.236,0,0,1,.3.15l.01.01C-122.575,2372.1-122.664,2372.179-122.834,2372.159Zm.55,5.58v-.09l.139.05Zm1.06-6.51.06-.12.049.12Zm4.469,6.79a.476.476,0,0,1,.171.03c-.02.04-.041.1-.061.1a.47.47,0,0,1-.16-.04C-116.794,2378.079-116.774,2378.019-116.755,2378.019Zm-3.37-21.21v.11l-.159-.05Zm.5,6.07-.039.11-.471.44a.642.642,0,0,1-.089.08l.049-.12.47-.44.08-.07.081-.22.109.05Zm.43-7.29a.452.452,0,0,1-.17-.11c-.76-.64-.69-1.15.25-1.55h.011a2.651,2.651,0,0,1,.8-.16c.091-.01.2.11.3.18-.49.36-.339.91-.539,1.36A.508.508,0,0,1-119.195,2355.589Zm1.06,24.73c-.159-.03-.209-.12-.12-.25a.175.175,0,0,1,.14-.03,1.454,1.454,0,0,1,.17.24A.584.584,0,0,1-118.135,2380.319Zm.611,7.97c-.14-.01-.151-.05-.041-.1a.751.751,0,0,1,.07.08l.031.03Zm1.3.39a.287.287,0,0,1-.171.09,2.382,2.382,0,0,1-1.06-.47c.39.03.791.05,1.19.1C-116.125,2388.419-116.115,2388.569-116.224,2388.679Zm.14-33.26c-.02-.05-.061-.09-.051-.13s.06-.08.091-.12h.01a1.338,1.338,0,0,0,.06.14Zm1.9,1.62a2.244,2.244,0,0,1-.44-.37.306.306,0,0,1,.01-.32h.011a.519.519,0,0,1,.359-.12.507.507,0,0,1,.331.2,2.4,2.4,0,0,1,.1.48C-113.914,2357.1-114.044,2357.139-114.185,2357.039Zm.911,29.98-.181-.05.181-.05Zm2.329,3.58a.461.461,0,0,1-.149.09.288.288,0,0,1-.351-.13.7.7,0,0,1,.171-.95c.039-.03.129-.02.19-.03.1.06.25.12.279.2A.733.733,0,0,1-110.945,2390.6Zm5.24-9.09a2.126,2.126,0,0,1-.24.36v.12l-.17.03.12-.08a.277.277,0,0,0,.05-.07c0-.13-.01-.26,0-.39,0-.17.1-.22.221-.13A.139.139,0,0,1-105.705,2381.509Zm8.13,11.8a.187.187,0,0,1-.149-.08.141.141,0,0,1,.019-.14c.03-.03.1-.03.161-.04.049.04.119.06.149.1C-97.325,2393.269-97.395,2393.329-97.575,2393.309Zm8.32.77a.226.226,0,0,1-.159.02c-.05-.01-.091-.06-.13-.1a.51.51,0,0,1,.149-.08.37.37,0,0,1,.15.05C-89.245,2394.009-89.235,2394.069-89.255,2394.079Zm3.75-5.16c-.289.15-.589.28-.89.42,0,0-.06-.09-.09-.13a.945.945,0,0,1,.81-.47.3.3,0,0,1,.18.06A.1.1,0,0,1-85.5,2388.919Zm3.18-8.96c-.04-.02-.089-.04-.13-.06a.462.462,0,0,1,.161-.03v.01C-82.094,2379.929-82.1,2379.959-82.325,2379.959Zm4.491,2.55a.244.244,0,0,1-.181.04.527.527,0,0,1-.48-.57.5.5,0,0,1,.12-.29,2.274,2.274,0,0,1,.38-.38c.04.11.091.22.13.33s.04.24.1.5C-77.774,2382.169-77.794,2382.339-77.834,2382.509Zm.93-1.3c-.151.02-.171-.01-.051-.09l.09.09c.04.09.071.18.11.28C-76.805,2381.389-76.854,2381.3-76.9,2381.209Zm5,4.86.05-.03.07.05Zm1.11.34.049-.11.05.12Zm2.529-3.06c-.259.09-.519.16-.73.23a3.589,3.589,0,0,0-1.719-.18,1.435,1.435,0,0,1-.551-.21.288.288,0,0,1-.11-.15c0-.05.031-.16.06-.16.341-.04.7.08,1.031-.07a2.766,2.766,0,0,1,2.019.11c.07.02.1.19.12.29C-68.135,2383.259-68.214,2383.329-68.265,2383.349Zm5.6,1.49c-.091-.11-.18-.18-.18-.21a1.746,1.746,0,0,1,1.19-.66c.019,0,.1.1.089.14C-61.735,2384.609-62.294,2384.6-62.664,2384.839Zm-108.5-.26a1.715,1.715,0,0,0-1.411-1.26,4.253,4.253,0,0,1-1.48-.72,8.037,8.037,0,0,0-.83-.58,2,2,0,0,0-.6-.13c-.169-.03-.46.19-.429.33a4.057,4.057,0,0,1,.179,1.1.771.771,0,0,0,.22.5c.3.34.661.64.931,1,.089.11.18.23.269.34l3.341-.01C-171.044,2384.959-171.115,2384.769-171.164,2384.579Z" transform="translate(183.695 -2283.92)" fill="#fed841" fill-rule="evenodd"/>
      <path id="Контур_960" data-name="Контур 960" d="M-107.368,2352.929l0,0-.01,0,.01.006Z" transform="translate(183.695 -2283.92)" fill="#fed841" fill-rule="evenodd"/>
      <path id="Контур_961" data-name="Контур 961" d="M-108.078,2352.669l-.01-.006h-.005l.005,0Z" transform="translate(183.695 -2283.92)" fill="#fed841" fill-rule="evenodd"/>
      <path id="Контур_962" data-name="Контур 962" d="M-107.192,2398.986l0,0,.006,0,0,0Z" transform="translate(183.695 -2283.92)" fill="#fed841" fill-rule="evenodd"/>
      <path id="Контур_963" data-name="Контур 963" d="M-108.222,2352.626l0,0h0l0,0Z" transform="translate(183.695 -2283.92)" fill="#fed841" fill-rule="evenodd"/>
      <path id="Контур_964" data-name="Контур 964" d="M-107.278,2398.994h0l0,0h0Z" transform="translate(183.695 -2283.92)" fill="#fed841" fill-rule="evenodd"/>
      <path id="Контур_965" data-name="Контур 965" d="M-170.96,2388.637h0c-.023-.016-.049-.029-.072-.045Z" transform="translate(183.695 -2283.92)" fill="#fed841" fill-rule="evenodd"/>
      <path id="Контур_47" data-name="Контур 47" d="M-170.12,2386.019a.356.356,0,0,1-.055-.008c.008.017.013.035.022.052l.047.018A.623.623,0,0,1-170.12,2386.019Z" transform="translate(183.695 -2283.92)" fill="#fed841" fill-rule="evenodd"/>
      <path id="Контур_48" data-name="Контур 48" d="M-36.857,2347.09l.049-.009v-.032Z" transform="translate(183.695 -2283.92)" fill="#fed841" fill-rule="evenodd"/>
      <path id="Контур_50" data-name="Контур 50" d="M-36.832,2335.159l-.053-.009v.059l.05-.029A.147.147,0,0,0-36.832,2335.159Z" transform="translate(183.695 -2283.92)" fill="#fed841" fill-rule="evenodd"/>
      <path id="Контур_54" data-name="Контур 54" d="M-62.8,2302.9a.473.473,0,0,0,.07-.04.226.226,0,0,1-.062-.006c-.014.014-.023.032-.038.047Z" transform="translate(183.695 -2283.92)" fill="#fed841" fill-rule="evenodd"/>
      <path id="Контур_55" data-name="Контур 55" d="M-60.564,2297.28a.011.011,0,0,0-.007-.01c-.021.009-.036.023-.058.032v.034C-60.6,2297.317-60.585,2297.3-60.564,2297.28Z" transform="translate(183.695 -2283.92)" fill="#fed841" fill-rule="evenodd"/>
      <path id="Контур_56" data-name="Контур 56" d="M-60.426,2297.962a.957.957,0,0,0-.093,1.045,1.733,1.733,0,0,1,.089,1.429c-.147.405-.2.838-.321,1.252a.454.454,0,0,1-.266.249c-.52.171-.43.545-.436.888h.041c.166.142.331.285.494.427a1.6,1.6,0,0,0,.15.111c.173.065.345.128.519.191a1.109,1.109,0,0,0,.215.006.584.584,0,0,1-.005.072,2.782,2.782,0,0,1,.311.115.16.16,0,0,1,.087.127.2.2,0,0,1-.1.136c-.141.076-.264.036-.3-.107a.906.906,0,0,1-.005-.27l-.056-.021-.154-.058a1.118,1.118,0,0,1-.519-.191c-.067-.024-.136-.048-.2-.075-.162-.141-.324-.281-.483-.422v-.039l-1.261.076a1.3,1.3,0,0,1-.691.225c-.477.04-.951.1-1.428.15a2.7,2.7,0,0,1-1.3,1.526,1.516,1.516,0,0,0-.678,1.1.545.545,0,0,0,.447.549c.135.025.277.015.413.031.657.075.857.268.856.8a4.141,4.141,0,0,1,.014.713,1.146,1.146,0,0,1-.431.808.349.349,0,0,1-.19.049c-.06,0-.167-.027-.174-.055a9.516,9.516,0,0,0-.288-1.248,1.11,1.11,0,0,0-.548-.516,1.8,1.8,0,0,0-1.424-.013.6.6,0,0,0-.3.247,1.324,1.324,0,0,0-.172.522,9.883,9.883,0,0,0,.305,2.109.179.179,0,0,0,.055-.006l-.049.041a.081.081,0,0,0-.006-.036,2.1,2.1,0,0,1-.576.034,5.354,5.354,0,0,0-3.429.677,1.663,1.663,0,0,0-.19.082c-.167.113-.334.226-.491.35-.264.208-.348-.044-.493-.139-.331-.215-.6-.226-.719-.034a.983.983,0,0,0,.109,1.2,7.826,7.826,0,0,0,2.138,1.161,16.35,16.35,0,0,1,2.461,1.062,6.077,6.077,0,0,0,.565.254.759.759,0,0,0,.924-.258,2.525,2.525,0,0,1,.219-.265h-.021l-.054-.054.1.017c-.01.011-.018.023-.029.034a1.264,1.264,0,0,1,.985.057,3.237,3.237,0,0,0,2.356.55,1.3,1.3,0,0,1,.409.072.6.6,0,0,1,.564.634v.013c0,.061-.032.124-.024.183a.491.491,0,0,0,.557.416h.005c.479-.1.951-.211,1.424-.327.334-.08.613-.3,1-.261.818.078,1.251-.449,1.746-.868a.584.584,0,0,0,.1-.16c.332-.521.191-.894-.466-1.165-.19-.078-.4-.119-.436-.334a.723.723,0,0,1,.249-.674,1.9,1.9,0,0,1,.5-.317c.435-.2.886-.378,1.32-.581a2.012,2.012,0,0,0,1.1-1.075c.044-.116.081-.236.126-.352a1.462,1.462,0,0,1,.086-.168.535.535,0,0,1,.674-.316,5.945,5.945,0,0,0,2.082.086.478.478,0,0,0,.409-.538.467.467,0,0,0-.049-.156c-.04-.1-.085-.191-.126-.287a.377.377,0,0,1-.073,0,.171.171,0,0,1-.093-.063l-.252-.029c.131-.123.188-.04.252.029l.142.017c.008.017.016.034.023.051a1.45,1.45,0,0,0,1.542-.559,3.161,3.161,0,0,1,.645-.686,6.2,6.2,0,0,0,.662-.691.677.677,0,0,0,.031-.956c-.012-.013-.025-.025-.038-.037a.962.962,0,0,1-.324-.757l-.048-.016-.123-.073.173.026v.062c.314.105.623.217.941.306a.544.544,0,0,0,.707-.3.584.584,0,0,0,.035-.135.679.679,0,0,0-.371-.792,5.879,5.879,0,0,0-.786-.263,1.225,1.225,0,0,1-.181-.1,1.116,1.116,0,0,1,.284-.25,1.176,1.176,0,0,1,.585-.146,8.165,8.165,0,0,0,1.9.063.692.692,0,0,0,.743-.53c.029-.118.081-.232.122-.348.1.055.212.107.314.165a3.8,3.8,0,0,0,.346.21,1.7,1.7,0,0,0,2.214-.4,8.815,8.815,0,0,1,2.485-1.909,3.623,3.623,0,0,0,1.363-.823,1.679,1.679,0,0,1,.9-.462,18.234,18.234,0,0,1,3.166-1.024c.969-.494,1.949-.977,2.9-1.494.146-.078.2-.307.255-.478.067-.2-.086-.311-.547-.44-.259-.073-.511-.167-.763-.251l-.019.035-.064.087.056-.131.026.009c.1-.2.169-.4.538-.41,1.048-.044,2.1-.146,3.144-.227l3.01-1.329a1.272,1.272,0,0,0,.363-.186,2.641,2.641,0,0,0,.627-.718,2.8,2.8,0,0,0,.192-1.075.848.848,0,0,0-.66-.853c-.3-.091-.446-.228-.412-.528a9.777,9.777,0,0,0,.057-1.28.383.383,0,0,0-.221-.284,12.748,12.748,0,0,0-1.4-.391,1.717,1.717,0,0,0-1.2.129,1.938,1.938,0,0,1-.46.129l-.089.081a.805.805,0,0,1-.119.012,1.79,1.79,0,0,1-.178.171c-.02.015-.1-.024-.146-.039.07-.132.2-.128.324-.133.02-.022.043-.042.066-.063.045-.012.094-.02.143-.03.211-.2.415-.4.638-.585.3-.247.36-.336-.019-.576-.115-.072-.228-.148-.345-.218a.434.434,0,0,0-.182-.091c-.577-.043-1.006-.425-1.554-.51a.834.834,0,0,1-.745-.563.731.731,0,0,0-.61-.453,12.951,12.951,0,0,1-1.646-.295,1.818,1.818,0,0,0-1.6.151c-.355.2-.6.026-.618-.441-.007-.126.059-.282-.075-.313-.754-.173-1.511-.338-2.276-.471a4,4,0,0,0-.848.014.617.617,0,0,0-.554.478c-.054.427-.1.853-.164,1.277-.007.043-.085.1-.141.109a.228.228,0,0,1-.3-.125c0-.01-.007-.019-.01-.029a4.091,4.091,0,0,1-.043-.553c-.005-.061.007-.141-.033-.177-.095-.083-.225-.213-.322-.2-.611.075-.872-.3-1.2-.622a.906.906,0,0,0-.98-.143.754.754,0,0,0-.55.725,6.078,6.078,0,0,0,.115.721c.006.044-.075.117-.132.136a.243.243,0,0,1-.2-.028c-.2-.32-.356-.66-.577-.967a.6.6,0,0,0-.843-.1.594.594,0,0,0-.157.188c-.233.377-.235.386-.547.3-.068-.019-.132-.055-.2-.07-.415-.092-.794.1-.7.423.143.484-.058.743-.478,1.017-.2.13-.238.435-.386.641a.663.663,0,0,1-.919-.051,13.846,13.846,0,0,0-.829-1.481c-.119-.165-.488-.219-.755-.275a.534.534,0,0,0-.581.439.641.641,0,0,1-.641.611.9.9,0,0,0-.4.109c-.1.066-.221.221-.193.295.178.449.393.887.6,1.328h.074l.043.141-.1-.094c-.006-.015-.013-.03-.02-.044a.952.952,0,0,1-.855-.313.674.674,0,0,0-.734-.251.538.538,0,0,1-.561-.122c-.142-.135-.234-.306-.367-.449a.5.5,0,0,0-.7-.117l-.03.023c-.209.163-.392.351-.593.521a.252.252,0,0,1-.356,0l-.02-.022a1.04,1.04,0,0,0-.967-.24,7.4,7.4,0,0,0-2.172.721,2.606,2.606,0,0,0-.469.369.6.6,0,0,0,.027.848.635.635,0,0,0,.157.106,1.371,1.371,0,0,0,.355.1.15.15,0,0,0-.01-.042c.041-.007.08-.011.12-.017.1-.108.195-.219.3-.32a.2.2,0,0,1,.177-.016c.131.08.126.2-.028.252a2.453,2.453,0,0,1-.45.083l-.064.068-.046-.009a4.2,4.2,0,0,0,.153.664c.164.433.184.431.014.585a5.648,5.648,0,0,0-.43.391c-.324.367-.18.767.345,1.011.1.046.189.1.285.147a1.171,1.171,0,0,1-.191.067,3.788,3.788,0,0,0-.414.044c-.413.1-.557.331-.491.677a2.18,2.18,0,0,0,.741,1.271,1.607,1.607,0,0,0,1.3.37c-.005-.015-.011-.03-.017-.044a.641.641,0,0,0,.132-.07.561.561,0,0,0-.086.112h-.03a1.911,1.911,0,0,0,.321.6,3.529,3.529,0,0,0,1.992.869,2.707,2.707,0,0,0,1.533-.345c-.008-.019-.008-.041-.018-.06.066-.026.157-.073.051.045l-.033.015c.068.207.026.455.256.6a3.487,3.487,0,0,0,2.564.492,3.661,3.661,0,0,0,2.508-1.121.865.865,0,0,1,.617-.321c.012-.02.021-.04.033-.059l.045.04a.681.681,0,0,0-.077.019c-.043.085-.088.172-.134.257a1.117,1.117,0,0,0-.089.153.463.463,0,0,0,.273.58c.4.15.9.06,1.223.37h.1l.043.091-.08-.053c-.017-.021-.04-.026-.058-.043a9.074,9.074,0,0,0-4.265.528,2.825,2.825,0,0,1-1.868.055,9.611,9.611,0,0,0-1.254-.182c-.227-.026-.61.229-.626.413-.046.49-.079.981-.117,1.471-.015.17-.085.245-.189.194a.215.215,0,0,1-.1-.145,3.535,3.535,0,0,0-2.3-2.691,1.783,1.783,0,0,1-.183-.1.9.9,0,0,0-.978.1c-.428.369-.843.75-1.262,1.126C-60.409,2297.494-60.275,2297.738-60.426,2297.962Zm-4.47,11.619-.085-.1.133.055.062.064Zm.974-2.99-.107.044.06-.083.1-.05Zm2.238,4.285a.341.341,0,0,1-.037.036c-.017.049-.035.1-.053.146-.052.025-.106.048-.159.074s-.1.056-.159.084l.268-.2c.035-.032.068-.065.1-.1.022-.057.043-.114.064-.17a.337.337,0,0,1-.026.129Zm26.327-14.925a.669.669,0,0,1,.157.032c-.017.029-.036.083-.055.084a.7.7,0,0,1-.157-.033c.017-.03.033-.084.053-.084Zm-22.591-1.981a1,1,0,0,0-.144.075,1.03,1.03,0,0,0,.087-.124l.092-.025Zm6.453,9.024-.028.107-.146-.076Z" transform="translate(183.695 -2283.92)" fill="#fed841" fill-rule="evenodd"/>
      <path id="Контур_57" data-name="Контур 57" d="M-78.786,2337.672c.831.081,1.485.727,2.4.57a.372.372,0,0,1,.192.07,3.988,3.988,0,0,1,.345.207c.329.228.637.484.988.682a.908.908,0,0,0,.6.07,1.1,1.1,0,0,0,.393-.3l-.427-.451c-.007-.017-.02-.024-.028-.038-.309.021-.591,0-.71-.31h-.077l-.085-.083.135.037c.006.02.02.028.026.047a.718.718,0,0,1,.71.31h.075c.141.15.281.3.425.449a.486.486,0,0,0-.046.044c.329-.055.664-.092.988-.169a.969.969,0,0,0,.847-1.047,4.333,4.333,0,0,0-.088-.632c-.022-.007-.041-.016-.063-.024a.318.318,0,0,1,.007-.081c-.341-.3-.333-.332.061-.652v-.041c-.023-.13.011-.146.1-.042a.859.859,0,0,1-.1.079h0c-.02.218-.042.435-.061.652.018.016.025.025.045.042a.437.437,0,0,0,.011.063c.428.162.861.314,1.278.5.1.042.141.193.182.3.019.049-.024.118-.046.176-.11.291-.33.591-.3.872s.388.5.469.78a3.638,3.638,0,0,0,.961,1.615c.153.151.076.363-.139.446a2.817,2.817,0,0,0-.586.2.865.865,0,0,0-.294.454c-.023.078.106.259.2.28.552.121,1.108-.256,1.666-.008a.394.394,0,0,1,.156.115.177.177,0,0,1-.007.251.182.182,0,0,1-.075.043,5.718,5.718,0,0,0-.555.24.342.342,0,0,0-.072.479l.012.016a.72.72,0,0,0,.363.157,1.5,1.5,0,0,0,.407-.084c.563-.128.978-.022,1.139.523a.467.467,0,0,0,.228.3c.684.237.689.681.6,1.217-.1.609-.09,1.23-.16,1.844a.6.6,0,0,1-.469.56,1.807,1.807,0,0,0-1.057.586,5.456,5.456,0,0,1-1.591,1.2c-1.153.709-1.556.787-.816,2.251.038.074-.089.3-.136.3a6.307,6.307,0,0,0-2.047.39,2.675,2.675,0,0,1-2.044-.158c-.371-.177-.745-.352-1.133-.5a.454.454,0,0,0-.376.074,5.829,5.829,0,0,1-1.21,1.022,1.872,1.872,0,0,0-.482.6.9.9,0,0,0,.161,1.043,2.087,2.087,0,0,0,2.452.561,4.215,4.215,0,0,1,.812-.216.69.69,0,0,1,.4.016c.712.368,1.51.139,2.258.255a1.1,1.1,0,0,1,.829.5,14.289,14.289,0,0,0,1,1.618c.277.331.467.57.22.97a.611.611,0,0,0,.11.7,3.762,3.762,0,0,0,1.523,1.2.033.033,0,0,1,0,.014l.044.006-.04-.039a2.964,2.964,0,0,1,1.154.778,4.088,4.088,0,0,0,2.062,1.213,6.492,6.492,0,0,1,1.086.544,7.83,7.83,0,0,0,1.181.363.424.424,0,0,0,.326-.167.942.942,0,0,0,.055-1.043,7.961,7.961,0,0,0-2.017-2.546,1.036,1.036,0,0,1-.37-.948c-.016-.006-.033-.013-.051-.018-.01-.031-.022-.061-.034-.092l-.129-.073c.038.008.1,0,.111.024a.147.147,0,0,1,.018.049l.085.047v.063a3.818,3.818,0,0,1,1.689.984,3.187,3.187,0,0,0,1.337.877,1.651,1.651,0,0,1,.868.777c.193.327.393.651.618.962a.448.448,0,0,0,.337.149.19.19,0,0,0,.176-.2.2.2,0,0,0-.035-.1,1.074,1.074,0,0,1,.1-1.371,2.921,2.921,0,0,1,.8-.828.692.692,0,0,0,.275-.832,2.668,2.668,0,0,0-.157-.533,3.469,3.469,0,0,1-.389-1.974c.051-.423-.2-.672-.573-.9a11.126,11.126,0,0,1-1.121-.833.756.756,0,0,1-.289-.658,1.986,1.986,0,0,0-.526-1.521c-.071-.076-.064-.207-.083-.321l-.048-.006-.072-.072.116.044a.192.192,0,0,1,0,.034,2.343,2.343,0,0,0,.373.045c.615,0,.694-.055.857-.589a2.845,2.845,0,0,1,.219-.5.374.374,0,0,1,.529-.038h0c.29.348.569.7.869,1.048a3.142,3.142,0,0,1,.765,1.5,6.891,6.891,0,0,0,.163.724.657.657,0,0,0,.2.321,3.452,3.452,0,0,0,1.415.77.413.413,0,0,0,.343-.152,10.246,10.246,0,0,0,.336-1.054.666.666,0,0,1,.53-.513c.2-.047.414-.079.612-.141.969-.306,1.343-1.234,2.258-1.624a1.724,1.724,0,0,0,.639-.718.639.639,0,0,0,.055-.518,1.233,1.233,0,0,0-.981-.879,1.1,1.1,0,0,1-.739-.3l.06.034V2350c-.019.015-.033.027-.052.044-.172-.121-.154-.243,0-.367l.048.039v-.08l-.057.034a1.221,1.221,0,0,0-.288-.247,1.308,1.308,0,0,0-.413-.039,4.092,4.092,0,0,1-.414-.009.447.447,0,0,1-.358-.521.5.5,0,0,1,.014-.055c.226-.56.237-.623-.143-.818s-.711-.371-.673-.8c-.393-.121-.794-.225-1.177-.37a1.1,1.1,0,0,1-.667-.685,1.5,1.5,0,0,0-1.293-1.069.242.242,0,0,1-.24-.242.244.244,0,0,1,.1-.192c.414-.415.869-.8.712-1.439-.031-.124.117-.18.284-.137a7.4,7.4,0,0,0,1.018.24.691.691,0,0,0,.529-.2c.089-.126.011-.343-.01-.519a.273.273,0,0,0-.109-.155c-.364-.283-.507-.576-.118-.935a.842.842,0,0,0,.211-1.025,11.333,11.333,0,0,1-.664-1.54,2.044,2.044,0,0,0-1.769-1.6.957.957,0,0,1-.857-.712c-.031-.125-.275-.21-.438-.311v.011l-.1.082.079-.109a.228.228,0,0,1,.026.016,1.252,1.252,0,0,0-.058-1.239,4.552,4.552,0,0,0-.616-.747.876.876,0,0,0-1.123-.185c-.4.2-.566.179-.694-.109-.225-.5-.62-.4-1.038-.351a.347.347,0,0,1-.2-.04c-.135-.083-.083-.16.049-.281a2.878,2.878,0,0,0,.5-.589.345.345,0,0,0-.04-.342c-.124-.141-.352-.219-.456-.366-.162-.232.114-.445.12-.681a.918.918,0,0,0-.437-.807c-.655-.448-1.335-.87-2.006-1.3l-.022-.022h-.012l.064.053a3.041,3.041,0,0,0-1.809.453,1.714,1.714,0,0,1-1.62.066,1.164,1.164,0,0,0-1.25.121c-.007.03-.015.059-.024.088a.924.924,0,0,0-.24.132c.061-.059.127-.119.188-.178l.076-.042c.085-.318.164-.638.262-.955a9.046,9.046,0,0,0,.646-2.434.872.872,0,0,1,.293-.6c-.007-.118-.02-.236-.02-.355,0-.723-.315-.841-.986-1a2.53,2.53,0,0,0-1.047.012,12.978,12.978,0,0,1-2.459.581,2.478,2.478,0,0,0-1.844.762c-.232.228-.574.371-.812.6a1.937,1.937,0,0,0-.584,2.206c.065.182.131.363-.158.413a2.9,2.9,0,0,0-.906.463.608.608,0,0,0-.38.771l0,.005c.114.354.255.7.377,1.057a1.356,1.356,0,0,1,.072.357.181.181,0,0,1-.095.148c-.115.038-.3.1-.357.056a2.15,2.15,0,0,1-.68-2.193c.027-.057.048-.117.079-.171a3.1,3.1,0,0,1,.386-.656,1.633,1.633,0,0,0,.42-1.386.981.981,0,0,1,.4-.829c.2-.172.441-.318.624-.506a7.566,7.566,0,0,1,2.85-1.892.571.571,0,0,0,.284-.26c.05-.1.071-.268.006-.333A1.92,1.92,0,0,0-75,2323.3a4.819,4.819,0,0,0-4.064.379,16.617,16.617,0,0,0-1.684,1.126c-.843.573-1.252,1.506-2.2,2a.92.92,0,0,0-.279.276c-.154.206-.3.419-.435.637s-.189.5-.384.651a6.882,6.882,0,0,0-1.558,2.389c-.24.412-.012.848.524,1.051s1.062.356,1.576.565a1.118,1.118,0,0,1,.437.381.3.3,0,0,1-.02.316.458.458,0,0,1-.363.112c-.377-.163-.724-.382-1.1-.55a.879.879,0,0,0-1.167.427.843.843,0,0,0-.068.213,5.8,5.8,0,0,0,.029.923c.045.461.427.765.724,1.108.246.283.623.258.965.31.209.034.424.039.631.079a.875.875,0,0,1,.669.63,1.446,1.446,0,0,0,1.336.538.607.607,0,0,1,.749.419.654.654,0,0,1,.022.131,2.714,2.714,0,0,1,1.27.359A2.729,2.729,0,0,1-78.786,2337.672Zm10.882,17.847a.82.82,0,0,1-.376-.1c-.026-.011-.039-.1-.017-.141.186-.324.391-.642.573-.967.081-.144.171-.193.315-.112a.363.363,0,0,1,.151.12c.08.163.139.334.183.443-.017.407-.314.67-.829.757Zm9.922-16.125c.155-.034.27.034.274.179a.355.355,0,0,1-.3.367l.017.063-.119.088.067-.132c.016,0,.02-.014.036-.019a4.046,4.046,0,0,1-.127-.444c-.006-.027.092-.089.152-.1Zm-13.281-9.069.184-.174a.393.393,0,0,0-.128.221c-.013-.022-.208.118-.056-.047Zm-7.778,2.4.154.065-.165.053Z" transform="translate(183.695 -2283.92)" fill="#fed841" fill-rule="evenodd"/>
      <path id="Контур_58" data-name="Контур 58" d="M-116.831,2317c.018-.011.038-.014.055-.026h-.04c-.015.013-.031.018-.046.031A.205.205,0,0,0-116.831,2317Z" transform="translate(183.695 -2283.92)" fill="#fed841" fill-rule="evenodd"/>
      <path id="Контур_59" data-name="Контур 59" d="M-116.973,2317a1.9,1.9,0,0,1-.918.289l-1.237.085a.828.828,0,0,1-.219.227,23.117,23.117,0,0,1-2.906,1.14c-.467.173-.9.375-.964.889-.025.212-.236.291-.414.384a8.86,8.86,0,0,0-.91.47c-.383.268-.842.545-.868,1-.017.278.212.568.328.853.024.058.047.117.067.176a.68.68,0,0,0,.607.449c.63.07,1.266.108,1.9.169a.2.2,0,0,1,.128.135c.026.132-.059.229-.221.24-.707.054-1.415.095-2.121.148a2.188,2.188,0,0,0-1.186.367.81.81,0,0,0-.311.457,3.271,3.271,0,0,0,.053.732c.05.657.142.863,1.149,1.066a14.922,14.922,0,0,0,3.556.479,1.214,1.214,0,0,1,.613.12,5.49,5.49,0,0,1,2.076,1.809c.08.136.107.237-.011.309a.344.344,0,0,1-.193.023,10.761,10.761,0,0,1-3.024-.822,4.084,4.084,0,0,0-1.182-.387c-.988-.07-1.985-.073-2.977-.061a1.05,1.05,0,0,0-.938.661,2.592,2.592,0,0,0-.211,1.453,1.921,1.921,0,0,0,1.578,1.779c.469.131.958.221,1.41.389a.5.5,0,0,1,.25.449,7.052,7.052,0,0,1-.444.832.957.957,0,0,0-.134.527,6.065,6.065,0,0,0,.291,1.076.48.48,0,0,0,.309.215,4.193,4.193,0,0,0,.633.053,14.652,14.652,0,0,1,2.964.206,2.305,2.305,0,0,0,1.637-.14c.317-.14.639-.271.954-.414a2.434,2.434,0,0,1,1.434-.24,2.25,2.25,0,0,0,1.6-.362,5.679,5.679,0,0,1,.738-.367.266.266,0,0,1,.36.107.759.759,0,0,1,.094.16c.1.342.43.484.74.618.467.2.251.69.571.942a.594.594,0,0,0,.161.119c.676.186,1.343.413,2.035.536a4.925,4.925,0,0,0,2.111-.026,1,1,0,0,0,.773-.572,1.458,1.458,0,0,0-.271-1.668l-.1.005a.59.59,0,0,1-.427.256.349.349,0,0,1-.2-.017c-.15-.107-.108-.191.107-.209.174-.015.347-.021.524-.029a.726.726,0,0,0,.052-.059c.019.017.025.036.043.053h.009a2.952,2.952,0,0,1,.382-.432.446.446,0,0,1,.566-.044c.307.316.845.374,1.086.749a1.492,1.492,0,0,0,1.236-.89.984.984,0,0,0-.087-1.06,3.468,3.468,0,0,0-.534-.574,1.564,1.564,0,0,1-.576-.969,1.477,1.477,0,0,0-.736-1.053c-.469-.311-.507-.866-.721-1.319a.655.655,0,0,1,.172-.851,2.34,2.34,0,0,0,.9-2,2.212,2.212,0,0,1,.184-.9c.366-.869.778-1.722,1.16-2.585a1.385,1.385,0,0,1,.666-.7,13.857,13.857,0,0,0,2.372-1.566.921.921,0,0,0,.336-.662c.064-.677-.21-1.024-.969-1.212-.41-.1-.817-.22-1.235-.288a1.667,1.667,0,0,0-1.326.476c-.306.237-.21.525-.124.844a6.261,6.261,0,0,1,.13,1.182l.044.07.066.081-.1-.053c0-.033,0-.065-.006-.1a1.781,1.781,0,0,1-.158-.255,1.052,1.052,0,0,0-.712-.636,3.315,3.315,0,0,1-.6-.192.861.861,0,0,0-1.191.255c-.015.024-.03.049-.043.075a4.819,4.819,0,0,0-.5.812,14.778,14.778,0,0,1-.968,2.243,13.9,13.9,0,0,0-.839,2.271c-.026.057-.049.116-.079.171s-.065.109-.093.164a.486.486,0,0,1-.53.2c-.175-.052-.382-.3-.34-.422a16.823,16.823,0,0,1,.695-1.934,3.356,3.356,0,0,0,.138-2.7,1.349,1.349,0,0,0-.354-.44c-.178-.176-.652-.094-.708.122-.1.416-.189.836-.283,1.255-.05.224-.21.361-.421.3a7.588,7.588,0,0,0-1.9-.172c-.2,0-.289-.035-.216-.114.038-.04.121-.045.182-.074.308-.145.627-.277.919-.441a.532.532,0,0,0,.167-.668,3.793,3.793,0,0,0-1.072-1.131.991.991,0,0,0-1.326-.1,5.455,5.455,0,0,0-.611.5.725.725,0,0,1-.576.152c-.221-.024-.2-.108.07-.438.327-.4.659-.8.955-1.216a.738.738,0,0,0-.312-.977,2.419,2.419,0,0,0-.37-.182l.07-.059h-.064a.1.1,0,0,1-.006.042C-116.045,2316.946-116.538,2316.9-116.973,2317Z" transform="translate(183.695 -2283.92)" fill="#fed841" fill-rule="evenodd"/>
      <path id="Контур_65" data-name="Контур 65" d="M-71.251,2304.767a1.341,1.341,0,0,0,.774.246,2.357,2.357,0,0,1,1.422.229.7.7,0,0,0,.767-.08c.214-.16.438-.311.659-.465l-.052.039c.023.016.044.033.065.048a.367.367,0,0,0-.01-.075,4.46,4.46,0,0,0,1.344-.792,4.708,4.708,0,0,1,1.188-.693c.108-.183.219-.365.323-.548a1.105,1.105,0,0,1,.973-.478l.013-.007v-.029q-.045-.222.119-.047l-.119.075c-.013.51.022.549.518.63.1.017.208.023.312.031.348-.354.436-.858.867-1.155.386-.264.858-.464.9-.954a2.068,2.068,0,0,0-.448-1.745,1.808,1.808,0,0,1-.228-.309.393.393,0,0,1,.056-.508,3.29,3.29,0,0,1,.951-.882c0-.409-.2-.813.008-1.235a2.029,2.029,0,0,0,.222-.884c-.008-.459-.624-.446-.873-.726a4.264,4.264,0,0,0-1.038-.623.654.654,0,0,1-.287-.461,9.872,9.872,0,0,1,.062-1.469c.05-.428.178-.849.249-1.276.113-.691-.34-1.168-.854-1.611a1.792,1.792,0,0,0-1.4-.261.632.632,0,0,0-.545.492c-.04.171.083.318.346.412s.523.167.768.279a.193.193,0,0,1,.109.25.192.192,0,0,1-.048.071c-.039.05-.092.123-.143.127-.345.024-.7.007-1.038.05a9.428,9.428,0,0,0-1.023.216.86.86,0,0,0-.614.878c.058.237.221.454.288.689.025.09-.071.216-.137.312a.227.227,0,0,1-.2.013.777.777,0,0,0-.957-.1,1.554,1.554,0,0,1-1.173.3c-.478-.059-.563.3-.48.616a1.823,1.823,0,0,0,.494.8,1.332,1.332,0,0,1,.509.925c.02,0,.035.008.055.008a.4.4,0,0,1,.142.069l.314.041c-.136.083-.224.02-.314-.041l-.192-.025c0-.018,0-.033,0-.051a2.887,2.887,0,0,1-1.108-.42.489.489,0,0,0-.558.107c-.636.967-.849,2.081-1.437,3.067-.207.348,0,.712.354.968a2.3,2.3,0,0,0,1.157.419,1.225,1.225,0,0,1,.557.236.367.367,0,0,1,.107.331.414.414,0,0,1-.226.272.994.994,0,0,1-.407-.018c-1-.114-1.528.155-1.823.868a6.863,6.863,0,0,0-.414,1.8A2.006,2.006,0,0,0-71.251,2304.767Z" transform="translate(183.695 -2283.92)" fill="#fed841" fill-rule="evenodd"/>
      <path id="Контур_66" data-name="Контур 66" d="M-64.987,2303.226c-.011.017-.02.035-.031.052h.043c.007-.024.019-.044.027-.068Z" transform="translate(183.695 -2283.92)" fill="#fed841" fill-rule="evenodd"/>
      <path id="Контур_69" data-name="Контур 69" d="M-132.173,2320.246c-.012.493-.025.986-.033,1.479,0,.15.266.36.416.356a5.166,5.166,0,0,0,2.2-.6.371.371,0,0,1-.028-.031l.1-.059-.064.086h0a1,1,0,0,0,.83.415,1.663,1.663,0,0,0,.984-.261,4,4,0,0,0,.579-.525c.257-.29.453-.622.731-.9a2.1,2.1,0,0,1,1.554-.8,1.847,1.847,0,0,0,.912-.416c.326-.226.575-.537.895-.771a1.566,1.566,0,0,1,.726-.325,14.431,14.431,0,0,0,2.245-.471,6.841,6.841,0,0,1,.831-.1l-.065.05h.027c.007-.011.016-.021.024-.032a2.084,2.084,0,0,1,1.206-.37c.312-.017.624,0,.939,0a1.993,1.993,0,0,1,1.27-.375,13.591,13.591,0,0,0-.028-2.908,1.859,1.859,0,0,0-.8-1.27,1.382,1.382,0,0,0-.987-.265,2.32,2.32,0,0,1-1.553-.514,3.757,3.757,0,0,1-.8-.6,1.887,1.887,0,0,0-2-.729q-.957.06-1.916.026a7.452,7.452,0,0,0-1.052.115.72.72,0,0,0-.584.494,5.7,5.7,0,0,0-.194,1.093,1.184,1.184,0,0,1-.592.93c-.674.453-1.308.949-1.972,1.415-.343.241-.631.488-.624.914a.414.414,0,0,1-.214.3,28.817,28.817,0,0,0-3.156,2.166c-.222.151-.524.281-.624.482-.168.336.276.514.435.769A2.215,2.215,0,0,1-132.173,2320.246Z" transform="translate(183.695 -2283.92)" fill="#fed841" fill-rule="evenodd"/>
      <path id="Контур_72" data-name="Контур 72" d="M-65.069,2317.673a1.436,1.436,0,0,1-.512-.554,1.011,1.011,0,0,0-1.031-.523,3.319,3.319,0,0,1-1.858-.278,1.219,1.219,0,0,0-.623-.044c-.916.077-1.837.139-2.745.268-.568.081-1.1.288-1.46-.328-.131-.224-.469-.233-.738-.314a2.239,2.239,0,0,1-1.756-1.442c-.1-.37-.389-.477-.74-.557-.243-.055-.223-.086-.017-.192a3.972,3.972,0,0,0,.607-.44h-.009l-.074-.044.124.014c-.014.01-.026.022-.041.031a3.321,3.321,0,0,0,1.257.046c.146-.039.311-.343.231-.458a1.02,1.02,0,0,0-.227-.306.969.969,0,0,1-.465-1.124c.068-.331-.4-.736-.774-.777-.351-.039-.709-.016-1.061-.053a.713.713,0,0,1-.651-.407c-.091-.233-.153-.476-.248-.707-.071-.172-.124-.39-.272-.488a7.755,7.755,0,0,0-1.68-1.121,1.679,1.679,0,0,0-1.6.185c-.293.2-.524.519-.413.807a7.958,7.958,0,0,1,.5,2.152.43.43,0,0,0,.259.265c.584.214,1.179.405,1.771.6.556.188.591.236.585.632-.008.368-.033.739-.008,1.106a1.1,1.1,0,0,1-.6,1.111,3.08,3.08,0,0,0-.845.823,3.339,3.339,0,0,0-.629,2.47c.038.586.9.545,1.212.958a.781.781,0,0,0,.145.136,1.4,1.4,0,0,0,1.573.128,1.5,1.5,0,0,1,.387-.15c.171-.031.238.057.2.215a1.232,1.232,0,0,0-.1.536.759.759,0,0,0,.613.468,10.534,10.534,0,0,0,2.077.368c1.367.008,2.606.611,3.979.565a1.836,1.836,0,0,1,.753.309,2.745,2.745,0,0,0,1.629.311c.42-.052.852-.022,1.272-.067a1.178,1.178,0,0,0,.571-.211,4.811,4.811,0,0,1,1.215-.736.521.521,0,0,0,.336-.617.884.884,0,0,1,.246-.668,1.175,1.175,0,0,0-.007-1.661A1.175,1.175,0,0,0-65.069,2317.673Z" transform="translate(183.695 -2283.92)" fill="#fed841" fill-rule="evenodd"/>
      <path id="Контур_73" data-name="Контур 73" d="M-101.885,2309.621c-.623-.109-1.251-.218-1.87-.352-.088-.019-.224-.219-.195-.257.378-.525-.026-1.087.11-1.571-.034-.474-.029-.907-.1-1.331s-.4-.607-.864-.7c-.418-.087-.407-.122-.407-.479a.8.8,0,0,0-.669-.913.881.881,0,0,0-.091-.008,1.63,1.63,0,0,0-1.234.121,13.83,13.83,0,0,1-1.842.888,3.419,3.419,0,0,0-.557.545c.086.469-.261.6-.681.761a2.865,2.865,0,0,0-.784.6.2.2,0,0,0-.043.279.2.2,0,0,0,.063.056c.225.144.478.257.717.388.152.084.188.184.087.261a.311.311,0,0,1-.195.045c-.488-.054-.975-.156-1.464-.164a1.135,1.135,0,0,0-1.017.818.631.631,0,0,0,.318.8c.277.194.556.384.841.571a2.27,2.27,0,0,0,2.3.481.552.552,0,0,1,.4,0,3.987,3.987,0,0,0,1.645.319c.057,0,.11.062.162.1a.95.95,0,0,1-.193.076c-.91.13-1.822.254-2.732.384a.653.653,0,0,0-.507.527,1.093,1.093,0,0,0,.7,1.234,2.858,2.858,0,0,0,.8.229c.422.042.854-.006,1.276.031a3.867,3.867,0,0,0,2.243-.439,2.121,2.121,0,0,1,.773-.278,8.92,8.92,0,0,0,1.89-.242.747.747,0,0,1,.4.038,13.721,13.721,0,0,1,1.376.469,1.7,1.7,0,0,0,1.025.124c.278-.05.557-.1.841-.128a1.977,1.977,0,0,0,1.113-.5c.657-.558,1.236-1.18,1.936-1.7a2.008,2.008,0,0,0,.451-.621,1.06,1.06,0,0,0-.459-1.426.532.532,0,0,0-.051-.024.687.687,0,0,0-.4-.048.958.958,0,0,0-.657.435c-.1.142-.221.2-.335.09-.254-.256-.818-.349-.634-.852-.225-.249-.438-.489-.092-.8a.827.827,0,0,0,.285-.678,2.8,2.8,0,0,1,.387-1.6c.1-.175,0-.358-.164-.5a.645.645,0,0,0-.777-.026q-.866.539-1.718,1.1a.782.782,0,0,0-.346.826,2.987,2.987,0,0,0,.129.542c.124.369-.1.577-.429.746-.06.031-.117.071-.177.1a.565.565,0,0,0-.3.741.645.645,0,0,0,.029.059,3.064,3.064,0,0,1,.135.349.441.441,0,0,1-.367.5A.473.473,0,0,1-101.885,2309.621Z" transform="translate(183.695 -2283.92)" fill="#fed841" fill-rule="evenodd"/>
      <path id="Контур_79" data-name="Контур 79" d="M-90.659,2321.017a.531.531,0,0,0,.262-.643.744.744,0,0,0-.61-.464c-.485-.07-.989-.054-1.478-.118a3.781,3.781,0,0,1-.727-.228v-.008l-.062-.013.047.05a2.953,2.953,0,0,0-.445-.391,1.059,1.059,0,0,0-.557-.188,4.616,4.616,0,0,0-1.027.207.824.824,0,0,0-.487.314,2.2,2.2,0,0,1-.974.922.414.414,0,0,0-.145.506,1.609,1.609,0,0,0,.216.519c.459.62.209,1.176-.162,1.733a.419.419,0,0,1-.544.073,3.406,3.406,0,0,1-.653-1.152.679.679,0,0,0-.686-.339,1.27,1.27,0,0,0-1.409,1.115v.006c-.048.49-.1.98-.124,1.471a.432.432,0,0,0,.323.432,1.484,1.484,0,0,1,.936.952,6.312,6.312,0,0,1,.637,2.322,1.519,1.519,0,0,0,.6,1.15.646.646,0,0,0,.761.083,6.865,6.865,0,0,1,.955-.722,10.486,10.486,0,0,1,1.19-.359,8.9,8.9,0,0,0,1.138-.5.881.881,0,0,0,.4-.4,3.76,3.76,0,0,1,1.087-1.559,1.143,1.143,0,0,0,.287-1.22c-.084-.3-.228-.583-.326-.879a1.391,1.391,0,0,0-.81-.811c-.17-.08-.166-.2.025-.267.391-.146.791-.272,1.185-.408.282-.1.51-.282.527-.53C-91.272,2321.28-90.947,2321.185-90.659,2321.017Z" transform="translate(183.695 -2283.92)" fill="#fed841" fill-rule="evenodd"/>
      <path id="Контур_81" data-name="Контур 81" d="M-48.74,2397.149l.041.042h.007A.259.259,0,0,0-48.74,2397.149Z" transform="translate(183.695 -2283.92)" fill="#fed841" fill-rule="evenodd"/>
      <path id="Контур_82" data-name="Контур 82" d="M-49.519,2394.369a.667.667,0,0,0-.081-.5,1.717,1.717,0,0,0-.449-.383.526.526,0,0,0-.564-.125c-.188.084-.375.169-.557.262a2.059,2.059,0,0,1-1.434.068c-.273-.059-.378-.213-.334-.56.008-.061.037-.119.041-.18a.569.569,0,0,0-.489-.639.471.471,0,0,0-.064,0,3.918,3.918,0,0,0-.564-.013.369.369,0,0,1-.021.045l-.07.057.021-.1h.07a3.04,3.04,0,0,1,1.077-1.29,4.672,4.672,0,0,0,.937-1.21.6.6,0,0,0,.05-.325c0-.1-.371-.187-.575-.145a3.347,3.347,0,0,0-1.792.917,20.625,20.625,0,0,0-2.612,3.355,2.906,2.906,0,0,1-1.64,1.337c-.249.079-.228.265-.093.429.2.24.144.436-.087.639a8.633,8.633,0,0,0-.686.682c-.116.125.014.423.188.461a2.228,2.228,0,0,0,.6.118,6.821,6.821,0,0,1,2.11.074,3.908,3.908,0,0,0,1.671.022c.6-.117,1.072.244,1.6.4a.183.183,0,0,1-.015.153c-.186.18-.4.337-.57.528a.308.308,0,0,0-.008.322.5.5,0,0,0,.352.154.888.888,0,0,0,.717-.338c.363-.494,1.051-.6,1.51-.981.006,0,.143.077.136.109-.051.3-.136.6-.176.9a.364.364,0,0,0,.112.321,3.2,3.2,0,0,0,1.308.556.856.856,0,0,0,.724-.3c.185-.4.345-.8.529-1.2.151-.327-.03-.554-.254-.772-.033,0-.064.013-.1.02-.027.032-.056.067-.085.1.013-.031.013-.078.037-.089a.161.161,0,0,1,.049-.01l.053-.064a.923.923,0,0,0-.884-.228.171.171,0,0,1-.192-.147.16.16,0,0,1,.014-.094,1.5,1.5,0,0,1,.285-.481c.177-.187.4-.339.593-.515a.171.171,0,0,0,.022-.158c-.048-.136-.165-.179-.335-.166-.19.014-.423.16-.561-.049-.116-.174.008-.346.128-.5S-49.572,2394.53-49.519,2394.369Z" transform="translate(183.695 -2283.92)" fill="#fed841" fill-rule="evenodd"/>
      <path id="Контур_83" data-name="Контур 83" d="M-116.711,2303.5a6.018,6.018,0,0,1,1.477.479,2.637,2.637,0,0,1,.772.6.872.872,0,0,0,.976.107c.345-.214.657-.468,1-.678a.537.537,0,0,1,.383-.006c.219.075.42.092.562-.078.333-.4.614-.831.972-1.21a13.215,13.215,0,0,1,1.182-1.048.772.772,0,0,1,.354-.092c.181-.027.191.211,0,.481-.3.42-.608.83-.893,1.257a.746.746,0,0,0,.014.717.571.571,0,0,0,.707.232,1.406,1.406,0,0,0,.471-.349,1.415,1.415,0,0,1,1.178-.685,1.969,1.969,0,0,0,.6-.183c.186-.083.434-.173.5-.317.329-.674,1.224-1.03,1.336-1.831.019-.139.267-.273.438-.372a4.743,4.743,0,0,1,.576-.23.514.514,0,0,0,.323-.449,4.773,4.773,0,0,0,0-.737c-.015-.261-.254-.613-.408-.584a1.193,1.193,0,0,0-.555.216c-.277.251-.527.411-.738.247a3.452,3.452,0,0,0-1.776-.475,1.651,1.651,0,0,0-1.213.234,15.9,15.9,0,0,1-4.682,2.128,12.1,12.1,0,0,1-1.174.4,5.348,5.348,0,0,0-1.933.723,1.378,1.378,0,0,0-.721,1.257A.429.429,0,0,0-116.711,2303.5Z" transform="translate(183.695 -2283.92)" fill="#fed841" fill-rule="evenodd"/>
      <path id="Контур_85" data-name="Контур 85" d="M-92.238,2306.879a3.122,3.122,0,0,0-.339.666,2.316,2.316,0,0,1-.482,1.192.432.432,0,0,0-.112.34c.1.589.388,1.166.089,1.777-.018.034.185.145.28.223s.288.179.274.241c-.144.622.328.732.847.791.63.072,1.264.12,1.894.185a.259.259,0,0,1,.141.088c-.054.107-.1.258-.2.3a7.38,7.38,0,0,1-.8.231.829.829,0,0,0-.639.664,6.415,6.415,0,0,0-.1.73.6.6,0,0,0,.439.568c.542.14,1.083.283,1.634.392a1.4,1.4,0,0,0,1.416-.606,2.315,2.315,0,0,0,.131-.348,1.141,1.141,0,0,1,1.1-.681,7.261,7.261,0,0,1,.5-1.1,9.233,9.233,0,0,1,.869-1.015,1.354,1.354,0,0,0,.136-.138c.326-.53.658-1.058.964-1.6a.441.441,0,0,0-.006-.349,5.082,5.082,0,0,0-.336-.663.456.456,0,0,0-.5-.231,1.126,1.126,0,0,1-1.183-.449,3.835,3.835,0,0,0-1.724,0,1.6,1.6,0,0,0-.446.976q.012.641,0,1.281a.221.221,0,0,1-.073.165c-.092.061-.162-.007-.226-.155-.2-.453-.389-.907-.616-1.349-.04-.079-.232-.138-.354-.137a.478.478,0,0,0-.351.145c-.3.536-.569,1.082-.849,1.627l.038.052-.119.021.071-.052.011-.02c-.225-.293-.42-.585-.22-.967.085-.163.217-.385.154-.519a2.836,2.836,0,0,1-.223-1.426.764.764,0,0,0-.085-.358,3.942,3.942,0,0,0-.284-.488A.531.531,0,0,0-92.238,2306.879Z" transform="translate(183.695 -2283.92)" fill="#fed841" fill-rule="evenodd"/>
      <path id="Контур_88" data-name="Контур 88" d="M-85.929,2299.968a3.071,3.071,0,0,1,1.145.281.382.382,0,0,0,.009.058c.016-.01.029-.022.044-.031.192.148.378.3.585.438.882.567,1.337,1.223.756,2.187-.176.291,0,.6.3.806a1.138,1.138,0,0,0,1.177.1,2.017,2.017,0,0,0,1.056-1.318,2.91,2.91,0,0,1,1.133-1.912,1.56,1.56,0,0,0,.43-.621,1.033,1.033,0,0,0-.2-1.361c-.2-.177-.351-.368-.22-.642a.874.874,0,0,0,.06-.361c.012-.855-.379-1.181-1.276-.841-.131.049-.264.086-.4.128v.031c.016.145-.025.159-.124.043l.127-.074a6.738,6.738,0,0,0,.11-1.069,1.159,1.159,0,0,0-1.236-1.047,6.359,6.359,0,0,1-1.266.009.6.6,0,0,0-.367.159c-.429.337-.826.682-.6,1.272.055.148-.046.343-.089.514-.1.375-.092.392.437.61v-.024c.024-.006.048-.014.071-.022.014-.045.026-.089.033-.088.116.013.1.047-.033.088-.007.024-.015.048-.019.067l-.048-.021a4.028,4.028,0,0,1,.116.7,1.472,1.472,0,0,1-.147.523.36.36,0,0,1-.444.249l-.045-.016c-.25-.108-.486-.244-.74-.341a.573.573,0,0,0-.579.122,1.272,1.272,0,0,0-.343.446.656.656,0,0,0,.28.884A.667.667,0,0,0-85.929,2299.968Z" transform="translate(183.695 -2283.92)" fill="#fed841" fill-rule="evenodd"/>
      <path id="Контур_96" data-name="Контур 96" d="M-69.372,2326.566a1.618,1.618,0,0,1,.013,1.223c-.207.688.669,1.337,1.356,1.292.412-.026.819-.136,1.232-.162a1,1,0,0,1,.853.289c.487.034.974.07,1.461.1.171.01.43-.214.422-.347a7.835,7.835,0,0,0-.325-2.006,1.891,1.891,0,0,0-1.573-1.35,7.31,7.31,0,0,1-2.176-.7.586.586,0,0,0-.706.236c-.169.242-.331.49-.5.735C-69.341,2326.1-69.46,2326.366-69.372,2326.566Z" transform="translate(183.695 -2283.92)" fill="#fed841" fill-rule="evenodd"/>
      <path id="Контур_97" data-name="Контур 97" d="M-69.353,2325.873v-.011c-.016.014-.023.032-.037.046v.015A.518.518,0,0,0-69.353,2325.873Z" transform="translate(183.695 -2283.92)" fill="#fed841" fill-rule="evenodd"/>
      <path id="Контур_99" data-name="Контур 99" d="M-79,2303.964c.053.278.286.409.576.474a6.71,6.71,0,0,0,2.3.073.9.9,0,0,0,.477-.339c.23-.277.178-.677.489-.928l.047.036a.6.6,0,0,0,0-.085l-.057.043a.967.967,0,0,0,.035-1.367l0,0a6.521,6.521,0,0,1-1-1.623,2.968,2.968,0,0,0-.328-.473.831.831,0,0,0-.951-.122,2.989,2.989,0,0,0-1.336,2.407c.027.409-.219.679-.357,1.013C-79.217,2303.326-79.061,2303.665-79,2303.964Z" transform="translate(183.695 -2283.92)" fill="#fed841" fill-rule="evenodd"/>
      <path id="Контур_103" data-name="Контур 103" d="M-86.211,2315.446a.715.715,0,0,0-.143,1,.747.747,0,0,0,.143.143c.506.417,1.049.8,1.587,1.186a1.739,1.739,0,0,0,.385.145.859.859,0,0,0,1.063-.337c.208-.451.4-.907.574-1.37a2.355,2.355,0,0,0,.131-.719,1.6,1.6,0,0,0-.641-1.306,1.47,1.47,0,0,0-1-.209c-.207,0-.414.017-.619.026A7.244,7.244,0,0,1-86.211,2315.446Z" transform="translate(183.695 -2283.92)" fill="#fed841" fill-rule="evenodd"/>
      <path id="Контур_104" data-name="Контур 104" d="M-84.705,2314.007c.013-.02.031-.037.043-.058l-.107.026c.016.014.035.018.052.032Z" transform="translate(183.695 -2283.92)" fill="#fed841" fill-rule="evenodd"/>
      <path id="Контур_107" data-name="Контур 107" d="M-96.518,2296.8a2.046,2.046,0,0,1,1.4.708c.57,0,.794.465,1.209.677a1.432,1.432,0,0,0,1.969-.473,1.43,1.43,0,0,0,.143-.311c.042-.241.056-.485.082-.728.01-.061.025-.121.029-.182.041-.606-.345-.946-1.005-.853a9.5,9.5,0,0,1-1.877.146,6.716,6.716,0,0,0-1.455.151,1.3,1.3,0,0,0-.543.257.407.407,0,0,0-.142.321C-96.7,2296.615-96.608,2296.782-96.518,2296.8Z" transform="translate(183.695 -2283.92)" fill="#fed841" fill-rule="evenodd"/>
      <path id="Контур_111" data-name="Контур 111" d="M-73.278,2346.17c-.157.545.229.98.884,1a2.456,2.456,0,0,0,2.521-1.335c.139-.281.264-.568.384-.855a.8.8,0,0,0-.4-.792,1.578,1.578,0,0,0-1.6-.015,4.664,4.664,0,0,0-1.734,1.819A.783.783,0,0,0-73.278,2346.17Z" transform="translate(183.695 -2283.92)" fill="#fed841" fill-rule="evenodd"/>
      <path id="Контур_112" data-name="Контур 112" d="M-179.248,2372.335a.8.8,0,0,0-.755.22,1.3,1.3,0,0,0-.352.857c.01.364.07.727.108,1.089h-.049a5.3,5.3,0,0,1,.106.906,3.474,3.474,0,0,0,.68,2.1.867.867,0,0,0,.323.22.268.268,0,0,0,.189,0c.059-.027.146-.1.134-.134a3.774,3.774,0,0,1,.25-2.872c.192-.527.437-1.042.63-1.568a.328.328,0,0,0-.138-.313A10.911,10.911,0,0,0-179.248,2372.335Z" transform="translate(183.695 -2283.92)" fill="#fed841" fill-rule="evenodd"/>
      <path id="Контур_115" data-name="Контур 115" d="M-76.193,2307.344a1.734,1.734,0,0,0,.907-.42.4.4,0,0,0,.02-.493,5.033,5.033,0,0,0-2.9-1.315,1.16,1.16,0,0,0-1.144.642.577.577,0,0,0,.2.66,7.881,7.881,0,0,0,2.711.924A1.289,1.289,0,0,0-76.193,2307.344Z" transform="translate(183.695 -2283.92)" fill="#fed841" fill-rule="evenodd"/>
      <path id="Контур_127" data-name="Контур 127" d="M-86.049,2359.228a.362.362,0,0,0,.021-.345.487.487,0,0,0-.283-.238,2.079,2.079,0,0,0-.451-.055c-.456.018-.742.01-1.02.046a1.345,1.345,0,0,0-.579.179,7.05,7.05,0,0,0-.917.755.418.418,0,0,0-.062.519c.1.165.181.348.423.368a2.655,2.655,0,0,0,.834.012A4.169,4.169,0,0,0-86.049,2359.228Z" transform="translate(183.695 -2283.92)" fill="#fed841" fill-rule="evenodd"/>
      <path id="Контур_129" data-name="Контур 129" d="M-66.531,2392.094a2.446,2.446,0,0,0-.315.083c-.155.059-.126.306.049.467.1.087.2.166.3.257a3.329,3.329,0,0,0,1.289.911c.522.165,1.068.277,1.6.4a.313.313,0,0,0,.2-.027,1.126,1.126,0,0,0,.277-.223.176.176,0,0,0-.017-.177A4.844,4.844,0,0,0-66.531,2392.094Z" transform="translate(183.695 -2283.92)" fill="#fed841" fill-rule="evenodd"/>
      <path id="Контур_131" data-name="Контур 131" d="M-110.62,2304.975c-.024-.046-.036-.118-.077-.134a.851.851,0,0,0-.385-.1,7.045,7.045,0,0,0-2.987,1.23c-.284.2-.209.57.132.751a.79.79,0,0,0,.782.084c.842-.534,1.656-1.1,2.476-1.66C-110.635,2305.114-110.638,2305.031-110.62,2304.975Z" transform="translate(183.695 -2283.92)" fill="#fed841" fill-rule="evenodd"/>
      <path id="Контур_143" data-name="Контур 143" d="M-90.611,2304.783a.5.5,0,0,0,.561-.064,4.184,4.184,0,0,0,.54-1.984,2.209,2.209,0,0,0-.054-.487.37.37,0,0,0-.246-.232.427.427,0,0,0-.34.147,14.993,14.993,0,0,0-.774,1.482,1.22,1.22,0,0,0-.038.715A.959.959,0,0,0-90.611,2304.783Z" transform="translate(183.695 -2283.92)" fill="#fed841" fill-rule="evenodd"/>
      <path id="Контур_145" data-name="Контур 145" d="M-83.537,2360.344a1.405,1.405,0,0,0-.75,1.721c.052.143.272.241.4.344.172-.054.339-.062.409-.138.263-.28.5-.58.735-.88a1.724,1.724,0,0,0,.159-.332.572.572,0,0,0-.178-.659A.747.747,0,0,0-83.537,2360.344Z" transform="translate(183.695 -2283.92)" fill="#fed841" fill-rule="evenodd"/>
      <path id="Контур_147" data-name="Контур 147" d="M-67.6,2399.757l-.052-.014c0,.015.007.027.007.042.026,0,.044.01.071.011A.438.438,0,0,0-67.6,2399.757Z" transform="translate(183.695 -2283.92)" fill="#fed841" fill-rule="evenodd"/>
      <path id="Контур_148" data-name="Контур 148" d="M-66.315,2400.5l.826-.011c.094-1.126.175-.861-.843-1.263a3.9,3.9,0,0,1-1.6-.81.933.933,0,0,0-.339.13.153.153,0,0,0-.028.16c.229.352.469.7.705,1.047.23.058.462.109.689.18A.839.839,0,0,1-66.315,2400.5Z" transform="translate(183.695 -2283.92)" fill="#fed841" fill-rule="evenodd"/>
      <path id="Контур_149" data-name="Контур 149" d="M-66.289,2400.5h-.058c.024.01.047.023.069.034h.009C-66.271,2400.522-66.283,2400.522-66.289,2400.5Z" transform="translate(183.695 -2283.92)" fill="#fed841" fill-rule="evenodd"/>
      <path id="Контур_154" data-name="Контур 154" d="M-74.488,2294.9a.4.4,0,0,0,.553.029,2.719,2.719,0,0,0,.781-1.078.407.407,0,0,0-.107-.333,1.007,1.007,0,0,0-.744-.3c-.631.109-1.217.608-.769,1.2C-74.661,2294.564-74.588,2294.74-74.488,2294.9Z" transform="translate(183.695 -2283.92)" fill="#fed841" fill-rule="evenodd"/>
      <path id="Контур_155" data-name="Контур 155" d="M-73.773,2308.9c0,.043.067.1.119.131a1.067,1.067,0,0,0,.986.062.9.9,0,0,0,.571-.652.868.868,0,0,0-.856-.881h-.037a.623.623,0,0,0-.354.153A1.612,1.612,0,0,0-73.773,2308.9Z" transform="translate(183.695 -2283.92)" fill="#fed841" fill-rule="evenodd"/>
      <path id="Контур_158" data-name="Контур 158" d="M-86.022,2302.9a1.139,1.139,0,0,0,1.086.708.574.574,0,0,0,.631-.509.566.566,0,0,0,0-.058,1.081,1.081,0,0,0-1.1-.9C-85.818,2302.136-86.176,2302.572-86.022,2302.9Z" transform="translate(183.695 -2283.92)" fill="#fed841" fill-rule="evenodd"/>
      <path id="Контур_159" data-name="Контур 159" d="M-99.657,2299.153l-.051.044.058-.043c-.084.234-.156.471-.257.7a.783.783,0,0,0,.1.871c.2.25.42.493.626.74a1.089,1.089,0,0,0,.721.339,7.668,7.668,0,0,0,.843.073,1.8,1.8,0,0,0,1.318-.493,1.69,1.69,0,0,0,.6-.953c.042-.281.269-.4.528-.52a9.228,9.228,0,0,0,.887-.464.206.206,0,0,0,.072-.281.209.209,0,0,0-.048-.055c-.085-.094-.167-.224-.282-.258a12,12,0,0,0-2.7-.466,3.516,3.516,0,0,0-2.022.422l.045-.04-.045.039h0l-.186.163.186-.163c-.028-.352-.039-.708-.092-1.058-.031-.2-.4-.348-.66-.3a.731.731,0,0,0-.577.455.939.939,0,0,0,.062.866A1.074,1.074,0,0,0-99.657,2299.153Z" transform="translate(183.695 -2283.92)" fill="#fed841" fill-rule="evenodd"/>
      <path id="Контур_161" data-name="Контур 161" d="M-88.351,2377.148a1.757,1.757,0,0,0,1.191-.685.4.4,0,0,0-.014-.347.555.555,0,0,0-.651-.332c-.27.068-.538.145-.8.226a.425.425,0,0,0-.334.5.415.415,0,0,0,.023.076,1.178,1.178,0,0,0-.009.188A.524.524,0,0,0-88.351,2377.148Z" transform="translate(183.695 -2283.92)" fill="#fed841" fill-rule="evenodd"/>
      <path id="Контур_163" data-name="Контур 163" d="M-91.26,2319.676a2.184,2.184,0,0,0,.718-.332c.085-.054.1-.211.108-.324,0-.033-.094-.09-.157-.109a4.788,4.788,0,0,0-1.659-.029.853.853,0,0,0-.81.676A4.181,4.181,0,0,0-91.26,2319.676Z" transform="translate(183.695 -2283.92)" fill="#fed841" fill-rule="evenodd"/>
      <path id="Контур_164" data-name="Контур 164" d="M-96.28,2313.211a.922.922,0,0,0,.884-.323.714.714,0,0,0-.01-.842.293.293,0,0,0-.336-.147,1.409,1.409,0,0,0-1,.8C-96.8,2312.865-96.513,2313.179-96.28,2313.211Z" transform="translate(183.695 -2283.92)" fill="#fed841" fill-rule="evenodd"/>
      <path id="Контур_166" data-name="Контур 166" d="M-80.037,2357.787c-.212.122-.172.435.117.785a1.077,1.077,0,0,0,.285.247.543.543,0,0,0,.572.042,2.351,2.351,0,0,0,.359-.347.635.635,0,0,0-.376-.64A.975.975,0,0,0-80.037,2357.787Z" transform="translate(183.695 -2283.92)" fill="#fed841" fill-rule="evenodd"/>
      <path id="Контур_167" data-name="Контур 167" d="M-93.934,2383.377a.922.922,0,0,0-.378.394.3.3,0,0,0,.114.3c.312.114.645.183.828.232a1.581,1.581,0,0,0,.356.017,1.382,1.382,0,0,0,.36-.148c.124-.081.11-.356,0-.494A1.114,1.114,0,0,0-93.934,2383.377Z" transform="translate(183.695 -2283.92)" fill="#fed841" fill-rule="evenodd"/>
      <path id="Контур_179" data-name="Контур 179" d="M-72.982,2340.655c-.118.066-.241.126-.361.189-.329.217-.83.2-1.049.565a.534.534,0,0,0-.034.33.2.2,0,0,0,.151.114,1.322,1.322,0,0,0,.6-.018,8.471,8.471,0,0,0,.984-.676.327.327,0,0,0,.091-.455l-.019-.026A.3.3,0,0,0-72.982,2340.655Z" transform="translate(183.695 -2283.92)" fill="#fed841" fill-rule="evenodd"/>
      <path id="Контур_181" data-name="Контур 181" d="M-67.761,2346.107c.108-.033.178-.163.265-.249-.023-.114-.007-.25-.075-.335a1.014,1.014,0,0,0-.892-.366.488.488,0,0,0-.458.3.387.387,0,0,0,.184.477A1.121,1.121,0,0,0-67.761,2346.107Z" transform="translate(183.695 -2283.92)" fill="#fed841" fill-rule="evenodd"/>
      <path id="Контур_190" data-name="Контур 190" d="M-8.233,2292.016a3.347,3.347,0,0,0,.479.092c.093-.08.284-.172.335-.3a.508.508,0,0,0-.27-.666.5.5,0,0,0-.12-.034.589.589,0,0,0-.641.325.394.394,0,0,0,.128.542A.43.43,0,0,0-8.233,2292.016Z" transform="translate(183.695 -2283.92)" fill="#fed841" fill-rule="evenodd"/>
      <path id="Контур_205" data-name="Контур 205" d="M-104.5,2336.208a3.249,3.249,0,0,0-.726.316.546.546,0,0,0-.213.638.233.233,0,0,0,.286.163l.038-.014a1.626,1.626,0,0,0,.881-.929c-.033-.049-.052-.108-.1-.139A.227.227,0,0,0-104.5,2336.208Z" transform="translate(183.695 -2283.92)" fill="#fed841" fill-rule="evenodd"/>
      <path id="Контур_207" data-name="Контур 207" d="M-66.569,2366.952a2.366,2.366,0,0,0-.406.4c-.036.041-.043.15-.012.175a2.449,2.449,0,0,0,.361.193,2.716,2.716,0,0,0,.49-.3.381.381,0,0,0,.081-.332.365.365,0,0,0-.5-.147Z" transform="translate(183.695 -2283.92)" fill="#fed841" fill-rule="evenodd"/>
      <path id="Контур_209" data-name="Контур 209" d="M-87.031,2307.471a.227.227,0,0,0-.149-.112,1.356,1.356,0,0,0-1.144.178c-.066.051-.085.251-.034.288a2.807,2.807,0,0,0,.51.246c.258-.146.519-.288.773-.441A.153.153,0,0,0-87.031,2307.471Z" transform="translate(183.695 -2283.92)" fill="#fed841" fill-rule="evenodd"/>
      <path id="Контур_210" data-name="Контур 210" d="M-87.843,2308.068l-.065.037.05-.01.019-.024Z" transform="translate(183.695 -2283.92)" fill="#fed841" fill-rule="evenodd"/>
      <path id="Контур_211" data-name="Контур 211" d="M-85.337,2349.49c-.082.061-.216.114-.24.193a.413.413,0,0,0,.041.343,4.569,4.569,0,0,0,.525.535.281.281,0,0,0,.2.033c.159-.035.22-.133.175-.262A1.151,1.151,0,0,0-85.337,2349.49Z" transform="translate(183.695 -2283.92)" fill="#fed841" fill-rule="evenodd"/>
      <path id="Контур_212" data-name="Контур 212" d="M-60.71,2364.24a.6.6,0,0,0-.317.088.944.944,0,0,0-.336.427.654.654,0,0,0,.2.457.429.429,0,0,0,.354.1,1.606,1.606,0,0,0,.327-.366c-.044-.218-.074-.392-.119-.563C-60.619,2364.33-60.679,2364.239-60.71,2364.24Z" transform="translate(183.695 -2283.92)" fill="#fed841" fill-rule="evenodd"/>
      <path id="Контур_216" data-name="Контур 216" d="M-103.957,2302.694c-.032.089.061.223.128.325a.6.6,0,0,0,.531.218.386.386,0,0,0,.408-.321c-.056-.1-.082-.256-.173-.3a1.423,1.423,0,0,0-.578-.114A.408.408,0,0,0-103.957,2302.694Z" transform="translate(183.695 -2283.92)" fill="#fed841" fill-rule="evenodd"/>
      <path id="Контур_220" data-name="Контур 220" d="M-85.264,2314.09c.149-.048.305-.079.46-.115a2.113,2.113,0,0,0-1.667-.3C-86.156,2314.375-86.134,2314.372-85.264,2314.09Z" transform="translate(183.695 -2283.92)" fill="#fed841" fill-rule="evenodd"/>
      <path id="Контур_221" data-name="Контур 221" d="M-86.485,2313.672c-.009-.017-.012-.029-.021-.047h-.035a.517.517,0,0,1-.021.049Z" transform="translate(183.695 -2283.92)" fill="#fed841" fill-rule="evenodd"/>
      <path id="Контур_228" data-name="Контур 228" d="M-77.848,2357.407a.2.2,0,0,0-.191.208.2.2,0,0,0,.018.076.77.77,0,0,0,.542.5c.144.025.33-.113.475-.169a.74.74,0,0,0-.019-.235A.724.724,0,0,0-77.848,2357.407Z" transform="translate(183.695 -2283.92)" fill="#fed841" fill-rule="evenodd"/>
      <path id="Контур_239" data-name="Контур 239" d="M-70.308,2340.99c0-.048-.213-.13-.316-.119-.2.022-.394.141-.4.325,0,.132.131.266.2.394.188-.056.374-.063.417-.135A.8.8,0,0,0-70.308,2340.99Z" transform="translate(183.695 -2283.92)" fill="#fed841" fill-rule="evenodd"/>
      <path id="Контур_256" data-name="Контур 256" d="M-11.6,2294.394c.051-.043.129-.078.144-.127a.388.388,0,0,0-.227-.5.365.365,0,0,0-.131-.025.281.281,0,0,0-.172.056c-.142.1-.138.3.039.46A1.137,1.137,0,0,0-11.6,2294.394Z" transform="translate(183.695 -2283.92)" fill="#fed841" fill-rule="evenodd"/>
      <path id="Контур_264" data-name="Контур 264" d="M-82.409,2312.824a.375.375,0,0,0-.431.313.382.382,0,0,0,.011.168.208.208,0,0,0,.141.124c.239.03.568-.256.425-.486A.257.257,0,0,0-82.409,2312.824Z" transform="translate(183.695 -2283.92)" fill="#fed841" fill-rule="evenodd"/>
      <path id="Контур_266" data-name="Контур 266" d="M-84.125,2336.315c-.11.114.081.334.306.37a.653.653,0,0,0,.779-.379,5.637,5.637,0,0,0-.748-.15A.5.5,0,0,0-84.125,2336.315Z" transform="translate(183.695 -2283.92)" fill="#fed841" fill-rule="evenodd"/>
      <path id="Контур_267" data-name="Контур 267" d="M-83.018,2336.3l.062.014a.078.078,0,0,0-.007-.018c0-.006-.024-.02-.035-.031A.4.4,0,0,1-83.018,2336.3Z" transform="translate(183.695 -2283.92)" fill="#fed841" fill-rule="evenodd"/>
      <path id="Контур_268" data-name="Контур 268" d="M-49.583,2312.645a.6.6,0,0,0-.576-.147.3.3,0,0,0-.163.1.175.175,0,0,0-.027.158.454.454,0,0,0,.49.25c.112-.011.207-.125.311-.193C-49.555,2312.757-49.542,2312.684-49.583,2312.645Z" transform="translate(183.695 -2283.92)" fill="#fed841" fill-rule="evenodd"/>
      <path id="Контур_273" data-name="Контур 273" d="M-178.58,2370.388c-.048-.234-.2-.384-.345-.338a.3.3,0,0,0-.125.405.357.357,0,0,0,.025.04c.044.078.192.11.293.163C-178.685,2370.569-178.633,2370.479-178.58,2370.388Z" transform="translate(183.695 -2283.92)" fill="#fed841" fill-rule="evenodd"/>
      <path id="Контур_276" data-name="Контур 276" d="M-61.927,2316.63h.043c-.008-.019,0-.03,0-.048l-.037.014A.185.185,0,0,0-61.927,2316.63Z" transform="translate(183.695 -2283.92)" fill="#fed841" fill-rule="evenodd"/>
      <path id="Контур_277" data-name="Контур 277" d="M-62.39,2317.214c.117.007.31-.044.347-.115a1.581,1.581,0,0,0,.1-.469.526.526,0,0,0-.5.142C-62.609,2316.933-62.583,2317.2-62.39,2317.214Z" transform="translate(183.695 -2283.92)" fill="#fed841" fill-rule="evenodd"/>
      <path id="Контур_280" data-name="Контур 280" d="M-33.015,2343.6c-.042-.151-.151-.206-.316-.147-.058.022-.141.069-.145.109-.012.1-.028.258.036.3a2.439,2.439,0,0,0,.487.2,2.3,2.3,0,0,0-.012-.289A1.135,1.135,0,0,0-33.015,2343.6Z" transform="translate(183.695 -2283.92)" fill="#fed841" fill-rule="evenodd"/>
      <path id="Контур_284" data-name="Контур 284" d="M-10.228,2291.946c.152.01.213-.1.176-.244a2.211,2.211,0,0,0-.269-.249.283.283,0,0,0-.2.029c-.142.074-.168.194-.045.3A.625.625,0,0,0-10.228,2291.946Z" transform="translate(183.695 -2283.92)" fill="#fed841" fill-rule="evenodd"/>
      <path id="Контур_290" data-name="Контур 290" d="M-108.6,2337.364a.271.271,0,0,0,.162.108c.157.033.274-.035.283-.178s-.1-.2-.269-.189C-108.606,2337.134-108.674,2337.226-108.6,2337.364Z" transform="translate(183.695 -2283.92)" fill="#fed841" fill-rule="evenodd"/>
      <path id="Контур_297" data-name="Контур 297" d="M-35.227,2338.985c.018-.1-.054-.208-.087-.313a1.036,1.036,0,0,0-.311.15c-.1.1-.05.23.094.29S-35.251,2339.12-35.227,2338.985Z" transform="translate(183.695 -2283.92)" fill="#fed841" fill-rule="evenodd"/>
      <path id="Контур_300" data-name="Контур 300" d="M-71.765,2339.66c-.074-.1-.2-.1-.318-.01a.655.655,0,0,0-.107.128l.278.123C-71.75,2339.867-71.684,2339.777-71.765,2339.66Z" transform="translate(183.695 -2283.92)" fill="#fed841" fill-rule="evenodd"/>
      <path id="Контур_314" data-name="Контур 314" d="M-91.466,2322.958c-.1.057-.256.1-.275.173a.352.352,0,0,0,.109.306c.122.1.413-.075.383-.251C-91.262,2323.1-91.39,2323.034-91.466,2322.958Z" transform="translate(183.695 -2283.92)" fill="#fed841" fill-rule="evenodd"/>
      <path id="Контур_320" data-name="Контур 320" d="M-68.441,2360.789c-.1.025-.249.14-.247.211.005.089.122.2.222.256a.226.226,0,0,0,.306-.083.315.315,0,0,0,.018-.041,1.3,1.3,0,0,0,.058-.32A1.041,1.041,0,0,0-68.441,2360.789Z" transform="translate(183.695 -2283.92)" fill="#fed841" fill-rule="evenodd"/>
      <path id="Контур_328" data-name="Контур 328" d="M-86.244,2317.779c.019,0,.041-.077.04-.118,0-.013-.067-.027-.1-.04C-86.392,2317.73-86.371,2317.79-86.244,2317.779Z" transform="translate(183.695 -2283.92)" fill="#fed841" fill-rule="evenodd"/>
      <path id="Контур_329" data-name="Контур 329" d="M-105.4,2317.968c.022.016.094-.017.144-.028-.015-.032-.027-.091-.044-.092C-105.464,2317.841-105.5,2317.89-105.4,2317.968Z" transform="translate(183.695 -2283.92)" fill="#fed841" fill-rule="evenodd"/>
      <path id="Контур_333" data-name="Контур 333" d="M-161.13,2322.162h-.057l.008.014c.008.008.018.013.026.022A.273.273,0,0,0-161.13,2322.162Z" transform="translate(183.695 -2283.92)" fill="#fed841" fill-rule="evenodd"/>
      <path id="Контур_334" data-name="Контур 334" d="M-160.618,2322.1a.156.156,0,0,0,.022-.115c-.113-.028-.253-.091-.335-.056s-.14.141-.2.228a3.157,3.157,0,0,0,.34.015A.3.3,0,0,0-160.618,2322.1Z" transform="translate(183.695 -2283.92)" fill="#fed841" fill-rule="evenodd"/>
      <path id="Контур_337" data-name="Контур 337" d="M-74.383,2343.72l-.05-.108-.054.1Z" transform="translate(183.695 -2283.92)" fill="#fed841" fill-rule="evenodd"/>
      <path id="Контур_342" data-name="Контур 342" d="M-84.974,2300.621c.234-.042.215-.177.189-.314a2.384,2.384,0,0,0-.25.182C-85.052,2300.5-84.985,2300.623-84.974,2300.621Z" transform="translate(183.695 -2283.92)" fill="#fed841" fill-rule="evenodd"/>
      <path id="Контур_347" data-name="Контур 347" d="M-102.03,2331.183c.034-.008.046-.079.067-.12-.028-.039-.049-.1-.09-.112a.151.151,0,0,0-.122.062C-102.211,2331.143-102.151,2331.21-102.03,2331.183Z" transform="translate(183.695 -2283.92)" fill="#fed841" fill-rule="evenodd"/>
      <path id="Контур_348" data-name="Контур 348" d="M-74.787,2303.617a.151.151,0,0,0-.012-.161,1.682,1.682,0,0,0-.236-.175,1.527,1.527,0,0,0,0,.253C-75.007,2303.7-74.906,2303.738-74.787,2303.617Z" transform="translate(183.695 -2283.92)" fill="#fed841" fill-rule="evenodd"/>
      <path id="Контур_352" data-name="Контур 352" d="M-67.38,2305.1c.017-.051.063-.125.04-.145a2.016,2.016,0,0,0-.237-.175C-67.565,2304.913-67.578,2305.049-67.38,2305.1Z" transform="translate(183.695 -2283.92)" fill="#fed841" fill-rule="evenodd"/>
      <path id="Контур_359" data-name="Контур 359" d="M-105.023,2334.452c.017-.018.037-.035.053-.053-.011-.019-.032-.03-.043-.048h-.016C-105.026,2334.387-105.025,2334.42-105.023,2334.452Z" transform="translate(183.695 -2283.92)" fill="#fed841" fill-rule="evenodd"/>
      <path id="Контур_360" data-name="Контур 360" d="M-105.065,2334.883c.035-.01.052-.108.053-.165,0-.089-.008-.176-.016-.265a1.1,1.1,0,0,0-.2.238C-105.3,2334.843-105.229,2334.927-105.065,2334.883Z" transform="translate(183.695 -2283.92)" fill="#fed841" fill-rule="evenodd"/>
      <path id="Контур_366" data-name="Контур 366" d="M-33.806,2337.757v.044a.059.059,0,0,0,.022-.009l.031-.039Z" transform="translate(183.695 -2283.92)" fill="#fed841" fill-rule="evenodd"/>
      <path id="Контур_367" data-name="Контур 367" d="M-34.154,2337.432a1.38,1.38,0,0,0-.321.165,1.264,1.264,0,0,0,.319.163,1.2,1.2,0,0,0,.337,0v-.335A1.261,1.261,0,0,0-34.154,2337.432Z" transform="translate(183.695 -2283.92)" fill="#fed841" fill-rule="evenodd"/>
      <path id="Контур_368" data-name="Контур 368" d="M-48.124,2312.723a1.971,1.971,0,0,0-.309-.141c-.027-.009-.132.078-.125.106.031.132.141.177.29.143Z" transform="translate(183.695 -2283.92)" fill="#fed841" fill-rule="evenodd"/>
      <path id="Контур_411" data-name="Контур 411" d="M-36.986,2335.287c-.054.1,0,.174.107.231,0-.1,0-.206-.008-.309A.251.251,0,0,0-36.986,2335.287Z" transform="translate(183.695 -2283.92)" fill="#fed841" fill-rule="evenodd"/>
      <path id="Контур_412" data-name="Контур 412" d="M-77.234,2339.967l-.065.049.019.03.03.013Z" transform="translate(183.695 -2283.92)" fill="#fed841" fill-rule="evenodd"/>
      <path id="Контур_434" data-name="Контур 434" d="M-36.1,2299.482l.13.065h0c.017-.016.033-.033.051-.048Z" transform="translate(183.695 -2283.92)" fill="#fed841" fill-rule="evenodd"/>
      <path id="Контур_444" data-name="Контур 444" d="M-85.967,2308l-.164.042c.013.016.03.029.045.046h0Z" transform="translate(183.695 -2283.92)" fill="#fed841" fill-rule="evenodd"/>
      <path id="Контур_451" data-name="Контур 451" d="M-174.249,2379.214l.237.111C-174.016,2379.207-173.992,2379.053-174.249,2379.214Z" transform="translate(183.695 -2283.92)" fill="#fed841" fill-rule="evenodd"/>
      <path id="Контур_452" data-name="Контур 452" d="M-52.656,2349.7v.285C-52.5,2349.857-52.5,2349.815-52.656,2349.7Z" transform="translate(183.695 -2283.92)" fill="#fed841" fill-rule="evenodd"/>
      <path id="Контур_455" data-name="Контур 455" d="M-61.752,2316.383a.151.151,0,0,0-.139.162.169.169,0,0,0,.008.038l.26-.1C-61.668,2316.446-61.722,2316.376-61.752,2316.383Z" transform="translate(183.695 -2283.92)" fill="#fed841" fill-rule="evenodd"/>
      <path id="Контур_456" data-name="Контур 456" d="M-89.3,2317.215l-.052-.121-.085.107Z" transform="translate(183.695 -2283.92)" fill="#fed841" fill-rule="evenodd"/>
    </g>
    <path id="Контур_4140" data-name="Контур 4140" d="M2635.114,1756.887l16.835,22.348,36.8-39.034-35.906,24.285Z" transform="translate(-7132.34 2001.373)" fill="none" stroke="#fed841" stroke-linecap="round" stroke-linejoin="round" stroke-width="4" stroke-dasharray="5 7"/>
  </g>
</svg>
