<svg xmlns="http://www.w3.org/2000/svg" width="960" height="480" viewBox="0 0 960 480">
  <g id="lat.america" transform="translate(4555 -2795)">
    <path id="Контур_4117" data-name="Контур 4117" d="M0,0H960V480H0Z" transform="translate(-4555 2795)" fill="none"/>
    <g id="Сгруппировать_86" data-name="Сгруппировать 86" transform="translate(-4326.046 2956.536)">
      <path id="Контур_38" data-name="Контур 38" d="M-49.144,2478.514a.239.239,0,0,1,.013-.059H-49.2a.58.58,0,0,1,.035.047A.04.04,0,0,1-49.144,2478.514Z" transform="translate(168.435 -2424.419)" fill="#fed841" fill-rule="evenodd"/>
      <path id="Контур_41" data-name="Контур 41" d="M-77.289,2575.355c-.007.015-.014.027-.021.041a.468.468,0,0,1,.074,0c-.013-.018-.022-.025-.039-.046Z" transform="translate(168.435 -2424.419)" fill="#fed841" fill-rule="evenodd"/>
      <path id="Контур_44" data-name="Контур 44" d="M-73.78,2577.585h-.013c-.012.011-.022.026-.034.039Z" transform="translate(168.435 -2424.419)" fill="#fed841" fill-rule="evenodd"/>
      <path id="Контур_966" data-name="Контур 966" d="M-28.072,2489.493q-.45-1.227-1-2.426a.819.819,0,0,0-.45-.37,2.608,2.608,0,0,0-1.017-.231A2.257,2.257,0,0,1-32.1,2486c-.543-.4-1.32-.537-1.719-1.074a6.821,6.821,0,0,0-2.7-1.751,2.923,2.923,0,0,0-1.431-.313,20.019,20.019,0,0,1-5.05-.592,1.282,1.282,0,0,0-.617.053c-.265.082-.507.222-.765.327a.367.367,0,0,1-.479-.2l-.008-.02a5.131,5.131,0,0,0-.377-.864,1.06,1.06,0,0,0-.617-.467,9.011,9.011,0,0,1-2.558-.862,6.925,6.925,0,0,0-2.056-.46,1.407,1.407,0,0,0-1.432.589.224.224,0,0,1-.165.094c-.139,0-.182-.1-.14-.248.034-.119.063-.243.1-.36a.727.727,0,0,0-.522-.885l-.032-.007c-.518-.177-1.06-.3-1.592-.448-.026.1-.053.211-.078.316a.111.111,0,0,1,.036,0l.065.06-.11-.029a.16.16,0,0,1,.009-.033,2.059,2.059,0,0,0-1.653.339c-.163-.294-.479-.322-.8-.344a3.632,3.632,0,0,1,1.634-.733c.147-.464.312-.924.429-1.394a.889.889,0,0,0-.19-.879c-.267-.283-.424-.625-.725-.905a3.626,3.626,0,0,1-1.15-1.951,1.685,1.685,0,0,0-.572-.974,7.978,7.978,0,0,0-4.011-2.325,2.323,2.323,0,0,1-.592-.2,5.036,5.036,0,0,0-2.28-.36c-.781.021-1.564,0-2.346-.022a1.458,1.458,0,0,1-.6-.164,7.333,7.333,0,0,0-2.191-1.1c-.1-.015-.2-.169-.242-.272a1.778,1.778,0,0,0-.518-.8c-.453-.391-.878-.808-1.371-1.157a3.777,3.777,0,0,0-1.116-.516,6.221,6.221,0,0,0-1.053-.114c-.223-.025-.407-.122-.395-.337.029-.58-.313-.914-.9-1.129-.524-.193-1.04-.4-1.543-.628-.174-.077-.389-.212-.432-.354-.066-.224.22-.242.4-.3a1.677,1.677,0,0,0,.2-.066c.15-.06.209-.159.14-.276a.313.313,0,0,0-.176-.1,5.569,5.569,0,0,0-1.9-.071,1.188,1.188,0,0,1-.934-.344.241.241,0,0,0-.338.043.228.228,0,0,0-.026.042c-.094.164-.091.4-.229.506a2.289,2.289,0,0,1-2.53.355,2.421,2.421,0,0,0-1.617-.292c-.634.06-1.274.083-1.915.112a.612.612,0,0,1-.636-.387,1.044,1.044,0,0,1-.04-.183.964.964,0,0,0-.839-.744c-.277-.054-.556-.1-.839-.133a1.12,1.12,0,0,1-1.06-.778.5.5,0,0,0-.45-.331.845.845,0,0,0-.689.359.906.906,0,0,0-.13.348c-.029.432-.3.661-.758.78-.339.087-.658.236-.986.352-.2.071-.358.009-.507-.215-.106-.159-.222-.331-.031-.5.3-.26.613-.507.9-.771.158-.144.035-.54-.208-.641a1.262,1.262,0,0,0-.6-.11,2.47,2.47,0,0,0-1.313.577,3.72,3.72,0,0,1-1.624.851,4.531,4.531,0,0,0-1.984.59c-.076.06-.277.009-.417-.006a1.376,1.376,0,0,0-1.122.428,2.392,2.392,0,0,0-.835,1.27,1.337,1.337,0,0,1-.734,1.053,5.538,5.538,0,0,0-1.117.855,1.526,1.526,0,0,0-.263.623h0l.031.005v.11l-.047-.066c.007-.017.01-.035.016-.049h0a1.094,1.094,0,0,1-.347-.113c-.375-.28-.744-.569-1.092-.873a3.469,3.469,0,0,0-1.292-.656c-.159.384-.335.766-.52,1.149a1.579,1.579,0,0,1,.565.951,1.9,1.9,0,0,0,.518,1.183c.4.432.482,1.03.966,1.43a.7.7,0,0,1,.144.513,17.685,17.685,0,0,1-.05,2.392,1.355,1.355,0,0,0,.308,1.2.391.391,0,0,1-.031.521,3.65,3.65,0,0,1-1.591,1.454,2.232,2.232,0,0,0-1.452,1.5,1.288,1.288,0,0,1-.781.83c-.378.168-.758.337-1.118.533a.508.508,0,0,0-.212.308,5.321,5.321,0,0,1-1.087,2.551c-.072.1-.208.205-.216.313a6.821,6.821,0,0,0-.051,1.833c.1.471.639.773,1.161.979.032.013.12-.052.163-.092.089-.092.164-.193.244-.291a.839.839,0,0,1,.1.291.951.951,0,0,1-.424.816c-.4.255-.838.466-1.214.746a1.355,1.355,0,0,0-.669,1.63,4.665,4.665,0,0,1,.238.9,1.022,1.022,0,0,1-.074.538c-.159.36.017.6.338.775.422.228.862.431,1.3.631a2.223,2.223,0,0,1,1.191,1.018,2.686,2.686,0,0,0,.855,1.041,1.334,1.334,0,0,1,.488.593c.25.784.82,1.439,1.122,2.2a11.632,11.632,0,0,0,1.718,2.744c.713.918,1.341,1.884,1.992,2.838a.754.754,0,0,1,.173.517c-.138.573.233.952.611,1.318a29.17,29.17,0,0,0,4.224,2.788,5.18,5.18,0,0,0,.986.337,7.494,7.494,0,0,1,2.19,1.136c.8.707,1.682,1.327,2.539,1.97a.946.946,0,0,1,.371.643,8.9,8.9,0,0,0,.121.919,3.067,3.067,0,0,1,.062,1.826,1.178,1.178,0,0,0,.079.726,5.545,5.545,0,0,1-.031,3.642,1.036,1.036,0,0,0-.055.54c.507,1.826.229,3.684.309,5.526a6.453,6.453,0,0,1-.18,1.471c-.117.608-.258,1.214-.434,1.813a1.476,1.476,0,0,0,.012,1.082,1.962,1.962,0,0,1-.031,1.635,1.839,1.839,0,0,0-.017,1.621c.338.7.124,1.47.446,2.181.143.313-.026.729-.007,1.095a3.873,3.873,0,0,0,.158.912,1.282,1.282,0,0,1-.052.9,10.221,10.221,0,0,0-.392,1.245q-.565,2.072-1.11,4.153a1.054,1.054,0,0,1-.369.648.77.77,0,0,0-.284,1.05.738.738,0,0,0,.084.118c.466.641.506,1.412.97,2.048a1.457,1.457,0,0,1,.017,1.761,1.43,1.43,0,0,0-.223,1.062,7.2,7.2,0,0,1,.026,1.109,1.806,1.806,0,0,0,.481,1.2c.17.2.352.389.528.584-.769-.023-.9.042-1.063.564a1.27,1.27,0,0,0-.114.526c.09.594.221,1.187.342,1.778.039.191.531.3.708.164a.987.987,0,0,0,.482-.766,6.269,6.269,0,0,1,.071-1.254,1.3,1.3,0,0,0-.407-1,1.441,1.441,0,0,0,1-.161c.253-.115.309-.056.387.235.046.176.178.349.168.516a19.187,19.187,0,0,0-.179,2.358,9.684,9.684,0,0,1-.217,2.34.874.874,0,0,0,.078.708,1.816,1.816,0,0,1-.046,2.094.232.232,0,0,1-.291.149.276.276,0,0,1-.039-.017c-.061-.026-.139-.06-.159-.107-.1-.213-.177-.428-.264-.642a1.168,1.168,0,0,0-1.252.756,7.229,7.229,0,0,1-.84,1.641c-.04.077.048.245.133.319a.463.463,0,0,0,.355.1c.188-.057.357-.265.525-.256a7.12,7.12,0,0,1,1.221.192.557.557,0,0,1,.377.592,3.01,3.01,0,0,0-.156,1.408l.056-.01a.451.451,0,0,0,.027.07c.047.014.089.026.087.034-.023.078-.055.051-.087-.034-.027-.009-.056-.016-.078-.025v-.035a2.074,2.074,0,0,0-1.081.367.63.63,0,0,0-.307.624,3.044,3.044,0,0,0,.211.69c.074.161.305.288.324.444.028.231-.054.479.145.677a1.384,1.384,0,0,0,.272.192l.088-.038-.045.071-.043-.031a4.425,4.425,0,0,1-.038.514c-.1.53-.1.521.414.79.322.167.629.351.941.532v.039c.011,0,.022-.006.034-.007.268.392.271.45.006.715l-.05-.011v.064l.067-.05a5.359,5.359,0,0,1,.031,1.8c-.087.25.16.435.485.44a.44.44,0,0,0,.5-.364.483.483,0,0,0,0-.085,3.777,3.777,0,0,1,.235-1.343h0v0c-.008,0-.012-.016-.022-.023l-.076-.107.128.061a.53.53,0,0,0-.03.069h0a.831.831,0,0,1,.324.622.888.888,0,0,0,.3.666c.211.2.316.4.093.646a.864.864,0,0,1-.658.392,1.821,1.821,0,0,0-.417-.018.552.552,0,0,0-.3.215c-.077.119,0,.247.143.288a2.383,2.383,0,0,0,.6.147c.7.031.868.529,1.151.93-.149.352.036.568.364.761.446.255.867.546,1.3.823a.506.506,0,0,0,.109-.008c0,.038.031.058.042.09a.479.479,0,0,1,.265.241.46.46,0,0,0,.1.039l.048.086-.1-.044c-.008-.031-.034-.052-.048-.081a.388.388,0,0,1-.265-.241.474.474,0,0,0-.093-.044l-.058-.038a2.864,2.864,0,0,1-1.709-.317.969.969,0,0,0-.4-.081c-.05,0-.155.076-.15.111.014.114.029.273.114.325a13.271,13.271,0,0,1,2.445,1.7,2.719,2.719,0,0,0,1.1.5,2.726,2.726,0,0,0,.807,0c.074-.138.143-.278.224-.414a.2.2,0,0,1,.145-.093c.164,0,.179.083.116.225a.738.738,0,0,0-.023.292,3.5,3.5,0,0,0,.363.1c.448.094.78.26.649.738-.038.142.034.247.2.278a1.355,1.355,0,0,1,1.021.812c.118.237.423.277.706.29.247-.268.414-.6.8-.747.154-.062.3-.038.355.092a.769.769,0,0,1,.035.353c-.022.24-.072.508.191.657a2.25,2.25,0,0,0,.766.251,4.306,4.306,0,0,0,.611-.059c.274,0,.55.029.824.047.449.026.455.016.318-.536l-.062.016a.312.312,0,0,0-.015-.086l-.086-.051c.048-.059.073-.024.086.051.024.012.048.027.07.039a.048.048,0,0,0,.007.031c.385-.1.768-.2,1.154-.289a.6.6,0,0,0,.5-.517c.025-.146.171-.167.339-.143.271.041.606.161.807.07a10.079,10.079,0,0,0,1.341-.827c.025-.015,0-.12-.034-.161-.2-.232-.53-.1-.776-.194-.905-.33-1.8-.686-2.694-1.041a.968.968,0,0,1-.34-.212c-.4-.421-.97-.688-1.363-1.137a1.637,1.637,0,0,1-.4-.794c-.175-.8-.658-1.141-1.586-1.177-.247-.011-.5.007-.743.016v0h0c-.01.02-.021.039-.033.058-.033.006-.055.021-.087.029h0c-.037.17-.051.376-.156.422-.712.294-.693.851-.759,1.392a.431.431,0,0,1-.045.172c-.025.04-.1.1-.132.091-.056-.022-.133-.081-.135-.128a3.483,3.483,0,0,1,.008-.722,1.452,1.452,0,0,1,1.219-1.227h0c.006-.029.013-.06.02-.087h.1v0h0c.168-.321.347-.624.883-.481a.5.5,0,0,0,.207.026.742.742,0,0,0,.353-.153.313.313,0,0,0,.009-.322,12.668,12.668,0,0,1-.957-1.2,8.958,8.958,0,0,1-.514-1.4,1.239,1.239,0,0,1,.331-1.378,3.925,3.925,0,0,1,.593-.515,1.464,1.464,0,0,0,.745-1.437,1.51,1.51,0,0,1,.585-1.328,15.66,15.66,0,0,0,1.222-1.262,1.016,1.016,0,0,0,.263-.868c-.027-.182-.046-.368-.091-.548-.128-.509-.349-.938-1.074-.956a1.7,1.7,0,0,1-.965-.346c-.326-.235-.676-.449-.991-.7a1.123,1.123,0,0,1-.413-1.534,1.118,1.118,0,0,1,.213-.266,2.618,2.618,0,0,1,.753-.628c.422-.219.9-.347,1.351-.532.117-.047.278-.147.29-.237.069-.534.583-1.006.283-1.593a1.635,1.635,0,0,1-.12-.542,1.408,1.408,0,0,1,.525-1.34,7.116,7.116,0,0,0,.734-.8h-.009l-.053-.065a1.861,1.861,0,0,1-.492-.067c-.141-.046-.121-.187.017-.266.05-.032.169-.054.186-.033a4.266,4.266,0,0,1,.289.366.617.617,0,0,1,.115.007c-.019.018-.035.042-.053.061a2.172,2.172,0,0,0,.409.054c.508-.034.837-.336.756-.708a7.811,7.811,0,0,0-.277-.888.476.476,0,0,0-.546-.182c-.131.049-.245.126-.374.176a1.046,1.046,0,0,1-1.411-.444,1.078,1.078,0,0,1-.066-.156c-.1-.359-.182-.721-.28-1.082-.032-.117-.09-.229-.127-.345-.062-.2.317-.465.584-.382a8,8,0,0,1,1.17.421,2.853,2.853,0,0,0,1.652.232c.593-.072,1.271-.644,1.257-1.112-.011-.366-.164-.731-.156-1.1a10.2,10.2,0,0,1,.2-1.266c.008-.056-.04-.119-.062-.179a2.946,2.946,0,0,1-.115-.356c-.085-.4.127-.635.536-.56a8.809,8.809,0,0,0,4.6-.346c.4-.141.81-.238,1.2-.389.664-.257,1.231-.57,1.391-1.287A6.266,6.266,0,0,1-63,2539.8a4.126,4.126,0,0,0,.236-.709.764.764,0,0,0-.413-.785c-.183-.094-.386-.155-.569-.247a.482.482,0,0,1-.26-.478,1.524,1.524,0,0,1,.124-.54c.218-.489-.033-.82-.429-1.138a15.938,15.938,0,0,1-1.44-.946h0l0,0a1.067,1.067,0,0,1-.111-.011c-.005-.033-.008-.066-.014-.1h0c-.034-.027-.068-.056-.1-.084.032.013.082.026.1.051v.033h0l.066.06c.018.019.041.033.059.051h0l0,0a7.769,7.769,0,0,1,2.969.577,1.6,1.6,0,0,0,.617.107c.424.025.849.031,1.275.034a2.774,2.774,0,0,0,2.491-1.153c.287-.42.417-.929.884-1.251a2.457,2.457,0,0,0,.948-1.414l.528-1.79.042.045c.009-.02.014-.041.021-.06l-.035.006c-.169-.513-.1-.746.333-.968a2.331,2.331,0,0,1,.513-.14,3.433,3.433,0,0,1,.6-1.316.491.491,0,0,1,.338-.17c.081,0,.186.143.227.238a3.864,3.864,0,0,1,.147.5.885.885,0,0,0,.718-.579,17.464,17.464,0,0,1,2.08-3.434,2,2,0,0,0,.372-2.442,1.017,1.017,0,0,1-.1-.358,2.633,2.633,0,0,1,1.063-2.84c.433-.317.854-.653,1.249-1.008a6.057,6.057,0,0,1,2.333-1.254,3.208,3.208,0,0,0,1.255-.611c.3-.261.687-.44.791-.846.017-.071.238-.16.338-.139a3.793,3.793,0,0,0,1.261-.054c.41-.047.841.039,1.262.033a2.573,2.573,0,0,0,2.06-.763c.239-.276.718-.383,1.059-.6a.567.567,0,0,0,.29-.647,1.045,1.045,0,0,1,.145-.891c.422-.645.789-1.318,1.257-1.933a1.994,1.994,0,0,0,.471-1.568,1.538,1.538,0,0,1,.219-1.257,3.655,3.655,0,0,0,.7-2.294c.05-.987.05-1.978.049-2.967,0-.676-.063-1.353-.057-2.031a.784.784,0,0,1,.472-.783,3.106,3.106,0,0,0,1.871-1.914,4.626,4.626,0,0,1,.283-.5,3.817,3.817,0,0,1,1.124-1.333,20.676,20.676,0,0,0,1.666-1.436,5.245,5.245,0,0,0,1.249-1.712A5.01,5.01,0,0,0-28.072,2489.493Zm-64.375-25.654h0c-.02.132-.326.361-.428.313a.894.894,0,0,1-.306-.22c-.347-.465-.308-.637.289-1.227.068-.068.232-.067.354-.077.02,0,.065.1.074.154.027.176.044.351.072.593C-92.4,2463.489-92.423,2463.667-92.447,2463.839Zm4.223,99.282c-.033-.019-.086-.033-.092-.055a.245.245,0,0,1,.006-.156c.06-.126.119-.1.137.068,0,.046-.035.094-.052.142Zm.546-59.008c0-.018-.019-.031-.025-.049a1.643,1.643,0,0,1-1.392-.788c-.047-.066.027-.207.065-.309a.215.215,0,0,1,.169-.009c.436.329.975.583,1.159,1.106.027,0,.049.008.077.008.034.029.068.056.1.086-.052-.017-.1-.029-.153-.046Zm3.963,66.015h0c-.007.021-.014.044-.02.066l-.132.053.082-.1c.024-.007.048-.014.071-.023l.022-.078C-83.6,2570.067-83.624,2570.1-83.715,2570.128Zm1.136,1.857a2.869,2.869,0,0,1-.361.144.21.21,0,0,1-.165-.076c-.1-.13-.044-.233.135-.247a1.682,1.682,0,0,1,.4.045.732.732,0,0,1-.01.132Zm.377,2.165c-.021,0-.031-.062-.046-.094.05-.01.1-.022.149-.031.014.034.029.067.043.1a.453.453,0,0,1-.147.023Zm1.042-1.43v0c-.011.02-.023.039-.034.061a.6.6,0,0,0-.1.045.366.366,0,0,1-.28.244c-.014.03-.044.045-.052.08l-.1.069.045-.112c.046,0,.065-.027.1-.037a.5.5,0,0,1,.28-.244c.011-.034.037-.054.042-.092a.631.631,0,0,0,.086-.014l.054-.093C-81.016,2572.68-81.053,2572.707-81.16,2572.72Zm3.075.941v0a.252.252,0,0,1,.346.071c.016.027-.033.11-.074.14-.1.077-.219.139-.328.207a.569.569,0,0,1-.179-.026C-78.456,2573.994-78.33,2573.779-78.085,2573.661Zm-1.379,1.33v0c.007.028.016.057.021.087.265.123.529.244.794.369a.163.163,0,0,1,.043-.015.249.249,0,0,0,.038-.013,1.509,1.509,0,0,1,0-.269.2.2,0,0,1,.216-.183.209.209,0,0,1,.049.011.335.335,0,0,1,.159.086c.11.111.074.2-.093.259-.11.035-.219.066-.329.1v.065l-.084-.036a2.955,2.955,0,0,1-.319.1.326.326,0,0,1-.411-.206l-.006-.02a2,2,0,0,1-.058-.241l-.076-.036c-.016-.025-.036-.047-.05-.072-.129-.013-.269-.006-.293-.174,0-.007.14-.044.154-.028a1.443,1.443,0,0,1,.139.2A.463.463,0,0,1-79.464,2574.991Zm1.828-107.566.08-.113.024.138Zm3.2,60.731-.338-.118a.834.834,0,0,1,.166-.092.4.4,0,0,1,.2,0,.433.433,0,0,1,.141.115c-.063.032-.115.063-.169.094Zm9.887-57.212a.227.227,0,0,1-.055-.029h0c-.034-.017-.036-.078-.053-.12.1-.039.2-.075.3-.115.019.048.066.1.052.141A.194.194,0,0,1-64.549,2470.944Zm8.259,8.675v0a.623.623,0,0,1-.708.119.339.339,0,0,1-.13-.459,1.918,1.918,0,0,1,.259-.378,1.483,1.483,0,0,0,.069.27.375.375,0,0,0,.474.211,1.507,1.507,0,0,0,.252-.1A2.081,2.081,0,0,1-56.29,2479.619Zm2.127,2.035v0c.006-.039,0-.1.021-.113a2,2,0,0,1,.36-.125.176.176,0,0,1,.1.112.156.156,0,0,1-.1.118A2.879,2.879,0,0,1-54.163,2481.654Zm.553,4.163v0a.153.153,0,0,1-.115-.01c-.11-.144-.209-.293-.314-.442-.09-.13-.064-.233.089-.28.037-.011.128.052.156.1.094.15.172.309.24.433A1.1,1.1,0,0,1-53.61,2485.817Zm1.463,21.461-.148-.049.149-.05Z" transform="translate(168.435 -2424.419)" fill="#fed841" fill-rule="evenodd"/>
      <path id="Контур_967" data-name="Контур 967" d="M-78.147,2571.219h0v0h0Z" transform="translate(168.435 -2424.419)" fill="#fed841" fill-rule="evenodd"/>
      <rect id="Прямоугольник_94" data-name="Прямоугольник 94" transform="translate(90.168 146.887)" fill="#fed841"/>
      <path id="Контур_968" data-name="Контур 968" d="M-65.881,2534.845Z" transform="translate(168.435 -2424.419)" fill="#fed841" fill-rule="evenodd"/>
      <path id="Контур_969" data-name="Контур 969" d="M-65.756,2534.956l0,0h0l0,0Z" transform="translate(168.435 -2424.419)" fill="#fed841" fill-rule="evenodd"/>
      <path id="Контур_970" data-name="Контур 970" d="M-102.17,2465.409h0Z" transform="translate(168.435 -2424.419)" fill="#fed841" fill-rule="evenodd"/>
      <path id="Контур_971" data-name="Контур 971" d="M-86.758,2567.625h0Z" transform="translate(168.435 -2424.419)" fill="#fed841" fill-rule="evenodd"/>
      <path id="Контур_187" data-name="Контур 187" d="M-48.73,2528.253l.031-.011a.156.156,0,0,0-.012-.039.187.187,0,0,0-.029.008A.209.209,0,0,0-48.73,2528.253Z" transform="translate(168.435 -2424.419)" fill="#fed841" fill-rule="evenodd"/>
      <path id="Контур_189" data-name="Контур 189" d="M-50.05,2528.993l.048-.047a.367.367,0,0,0-.053.011c-.018,0-.013.033-.017.05Z" transform="translate(168.435 -2424.419)" fill="#fed841" fill-rule="evenodd"/>
      <path id="Контур_254" data-name="Контур 254" d="M-85.628,2555.129c.05-.027.11-.087.1-.133a.662.662,0,0,0-.338-.581c-.1.065-.256.11-.291.194-.1.237.028.419.34.538A.274.274,0,0,0-85.628,2555.129Z" transform="translate(168.435 -2424.419)" fill="#fed841" fill-rule="evenodd"/>
      <path id="Контур_281" data-name="Контур 281" d="M-84.809,2556.1a.5.5,0,0,0-.33-.18.19.19,0,0,0-.209.169.186.186,0,0,0,.009.081c.055.211.124.42.188.629a2.1,2.1,0,0,0,.362-.363A.352.352,0,0,0-84.809,2556.1Z" transform="translate(168.435 -2424.419)" fill="#fed841" fill-rule="evenodd"/>
      <path id="Контур_282" data-name="Контур 282" d="M-85.146,2556.8c-.012.011-.026.021-.038.033l.017.041a.241.241,0,0,1,.042,0Z" transform="translate(168.435 -2424.419)" fill="#fed841" fill-rule="evenodd"/>
      <path id="Контур_287" data-name="Контур 287" d="M-84.434,2566.61a.236.236,0,0,0-.142.3.237.237,0,0,0,.142.142,3,3,0,0,0,.523.127c0-.233,0-.464.009-.7A3.036,3.036,0,0,0-84.434,2566.61Z" transform="translate(168.435 -2424.419)" fill="#fed841" fill-rule="evenodd"/>
      <path id="Контур_326" data-name="Контур 326" d="M-118.544,2430.984c0-.018-.014-.028-.009-.05l-.036.013a.035.035,0,0,1-.007.026Z" transform="translate(168.435 -2424.419)" fill="#fed841" fill-rule="evenodd"/>
      <path id="Контур_388" data-name="Контур 388" d="M-50,2478.126a.274.274,0,0,1-.026-.043l-.04.008a.133.133,0,0,1-.01.034Z" transform="translate(168.435 -2424.419)" fill="#fed841" fill-rule="evenodd"/>
      <path id="Контур_410" data-name="Контур 410" d="M-63.664,2576.01c.04.014.107-.036.162-.06-.046-.031-.1-.092-.139-.087C-63.854,2575.887-63.864,2575.95-63.664,2576.01Z" transform="translate(168.435 -2424.419)" fill="#fed841" fill-rule="evenodd"/>
      <g id="Сгруппировать_65" data-name="Сгруппировать 65" transform="translate(49.894 6.564)">
        <path id="Контур_92" data-name="Контур 92" d="M-93.431,2446.9a.371.371,0,0,0,.222-.474.374.374,0,0,0-.1-.151,2.2,2.2,0,0,0-.623-.481c-1.416-.559-2.788-1.2-4.257-1.659a7.959,7.959,0,0,1-1.342-.548,6.421,6.421,0,0,0-1.528-.64,1.807,1.807,0,0,1-.74-.339,2.993,2.993,0,0,0-2.142-.677,4.28,4.28,0,0,1-1.634-.315,1.916,1.916,0,0,0-1.024-.153,21.346,21.346,0,0,0-2.882.636,5.2,5.2,0,0,0-1.9,1.674s.093.1.143.1a2.211,2.211,0,0,0,.822-.065,32.152,32.152,0,0,0,3.092-1.174.666.666,0,0,1,.738.188,1.054,1.054,0,0,0,.784.557c.487.087.979.155,1.463.25a4.178,4.178,0,0,1,1.009.256,5.918,5.918,0,0,0,2.029.516.935.935,0,0,1,.81.523,1.877,1.877,0,0,0,1.645,1.013,1.035,1.035,0,0,1,.192.071c.209.072.262.238.131.453-.067.107-.15.206-.223.313a.329.329,0,0,0,.038.463.329.329,0,0,0,.262.075c.5.025.993.008,1.848.008C-95.717,2447.648-94.591,2447.157-93.431,2446.9Z" transform="translate(118.541 -2430.983)" fill="#fed841" fill-rule="evenodd"/>
        <path id="Контур_95" data-name="Контур 95" d="M-92.149,2450.086c.421-.017.843-.084,1.264-.074a12.57,12.57,0,0,1,1.474.138c.452.067.621.487.993.656a.587.587,0,0,0,.389,0,.707.707,0,0,0,.312-.233,1.4,1.4,0,0,1,1.432-.6,1.236,1.236,0,0,0,.621-.061,3.682,3.682,0,0,1,2.468-.147,1.233,1.233,0,0,0,.412-.08,1.158,1.158,0,0,0,.393-.4c.038-.071-.061-.262-.16-.315a22.023,22.023,0,0,1-2.221-1.4,2.216,2.216,0,0,0-.77-.29,5.371,5.371,0,0,0-2.919-.07,1.245,1.245,0,0,1-1-.205,3.249,3.249,0,0,0-.353-.2.79.79,0,0,0-.876.359.3.3,0,0,0-.008.424.3.3,0,0,0,.076.057c.506.264.475.721.6,1.124.067.211,0,.282-.375.135s-.494.119-.735.159c-.547.091-1.109.123-1.661.2-.068.009-.165.211-.137.294A.8.8,0,0,0-92.149,2450.086Z" transform="translate(118.541 -2430.983)" fill="#fed841" fill-rule="evenodd"/>
        <path id="Контур_135" data-name="Контур 135" d="M-98.9,2449.353c-.263.039-.68.088-1.089.174-.159.032-.219.179-.14.282a2.2,2.2,0,0,0,2.529.829c.2-.053.392-.123.586-.192a.317.317,0,0,0,.162-.418.283.283,0,0,0-.023-.043A2.3,2.3,0,0,0-98.9,2449.353Z" transform="translate(118.541 -2430.983)" fill="#fed841" fill-rule="evenodd"/>
        <path id="Контур_140" data-name="Контур 140" d="M-77.874,2449.5a5.5,5.5,0,0,0-.925-.093,7.985,7.985,0,0,0-1.123.152c-.151.034-.267.251-.351.406-.068.128.112.383.265.438a1.972,1.972,0,0,0,.38.139,3.124,3.124,0,0,0,2.17-.4c.136-.084.166-.212.051-.32A1.248,1.248,0,0,0-77.874,2449.5Z" transform="translate(118.541 -2430.983)" fill="#fed841" fill-rule="evenodd"/>
        <path id="Контур_176" data-name="Контур 176" d="M-70.773,2462.484a.429.429,0,0,0,.4.46.432.432,0,0,0,.089,0,.712.712,0,0,0,.742-.538.587.587,0,0,0-.506-.658l-.043,0a.546.546,0,0,0-.62.376A3.248,3.248,0,0,0-70.773,2462.484Z" transform="translate(118.541 -2430.983)" fill="#fed841" fill-rule="evenodd"/>
        <path id="Контур_226" data-name="Контур 226" d="M-69.4,2455.383a.432.432,0,0,0-.361-.078.3.3,0,0,0-.124.3,1.161,1.161,0,0,0,.374.4c.045.029.219-.089.382-.159A2.163,2.163,0,0,0-69.4,2455.383Z" transform="translate(118.541 -2430.983)" fill="#fed841" fill-rule="evenodd"/>
        <path id="Контур_227" data-name="Контур 227" d="M-69.689,2452.885c-.087-.077-.171-.216-.262-.217a.672.672,0,0,0-.677.343c-.035.072.072.273.158.3A.676.676,0,0,0-69.689,2452.885Z" transform="translate(118.541 -2430.983)" fill="#fed841" fill-rule="evenodd"/>
        <path id="Контур_229" data-name="Контур 229" d="M-98.653,2438.625a.478.478,0,0,0-.388.537.428.428,0,0,0,.409.317.325.325,0,0,0,.372-.268.418.418,0,0,0,0-.05C-98.278,2438.867-98.455,2438.632-98.653,2438.625Z" transform="translate(118.541 -2430.983)" fill="#fed841" fill-rule="evenodd"/>
        <path id="Контур_230" data-name="Контур 230" d="M-96.695,2436.57a.584.584,0,0,0,.074-.823.58.58,0,0,0-.274-.183c-.058.017-.154.021-.168.053a.857.857,0,0,0,.174.969C-96.865,2436.612-96.741,2436.6-96.695,2436.57Z" transform="translate(118.541 -2430.983)" fill="#fed841" fill-rule="evenodd"/>
        <path id="Контур_231" data-name="Контур 231" d="M-99.371,2435.587c-.067.057-.043.2-.027.309.005.036.1.088.158.094a1.141,1.141,0,0,0,.77-.26c.046-.027.044-.113.066-.17a.508.508,0,0,0-.171-.11A.9.9,0,0,0-99.371,2435.587Z" transform="translate(118.541 -2430.983)" fill="#fed841" fill-rule="evenodd"/>
        <path id="Контур_232" data-name="Контур 232" d="M-90.761,2445.416c.059-.019.153-.081.146-.111a.5.5,0,0,0-.124-.308.462.462,0,0,0-.55.008c-.092.064-.187.209-.163.29s.2.13.3.192C-91.021,2445.47-90.89,2445.446-90.761,2445.416Z" transform="translate(118.541 -2430.983)" fill="#fed841" fill-rule="evenodd"/>
        <path id="Контур_261" data-name="Контур 261" d="M-69.234,2456.975c-.022-.134-.113-.2-.27-.162a.222.222,0,0,0-.132.117c-.053.126.008.247.15.242C-69.4,2457.168-69.317,2457.046-69.234,2456.975Z" transform="translate(118.541 -2430.983)" fill="#fed841" fill-rule="evenodd"/>
        <path id="Контур_293" data-name="Контур 293" d="M-93.908,2439.953c-.091-.073-.182-.143-.269-.213a1.409,1.409,0,0,0-.1.291c0,.035.079.1.128.107C-93.989,2440.156-93.908,2440.084-93.908,2439.953Z" transform="translate(118.541 -2430.983)" fill="#fed841" fill-rule="evenodd"/>
        <path id="Контур_294" data-name="Контур 294" d="M-98.1,2440.654c.084-.051.12-.168.178-.257l-.227-.248c-.085.075-.217.14-.245.225C-98.446,2440.555-98.237,2440.739-98.1,2440.654Z" transform="translate(118.541 -2430.983)" fill="#fed841" fill-rule="evenodd"/>
        <path id="Контур_295" data-name="Контур 295" d="M-92.189,2442.518a.086.086,0,0,0-.008-.044l-.07-.037a.254.254,0,0,1,.015.083A.453.453,0,0,1-92.189,2442.518Z" transform="translate(118.541 -2430.983)" fill="#fed841" fill-rule="evenodd"/>
        <path id="Контур_296" data-name="Контур 296" d="M-91.776,2442.863a.312.312,0,0,0,.119-.128c.044-.125-.029-.213-.2-.229a2,2,0,0,0-.331.012,1.158,1.158,0,0,0,.076.294A.21.21,0,0,0-91.776,2442.863Z" transform="translate(118.541 -2430.983)" fill="#fed841" fill-rule="evenodd"/>
        <path id="Контур_298" data-name="Контур 298" d="M-108.115,2443.992a.213.213,0,0,0,.089.288.227.227,0,0,0,.051.019.255.255,0,0,0,.345-.1l.007-.014c-.048-.109-.06-.256-.151-.316a.235.235,0,0,0-.322.083A.2.2,0,0,0-108.115,2443.992Z" transform="translate(118.541 -2430.983)" fill="#fed841" fill-rule="evenodd"/>
        <path id="Контур_299" data-name="Контур 299" d="M-66.825,2457.9c-.022.136.065.23.224.244.046,0,.1-.065.151-.1.026-.146-.044-.234-.206-.229C-66.715,2457.814-66.818,2457.861-66.825,2457.9Z" transform="translate(118.541 -2430.983)" fill="#fed841" fill-rule="evenodd"/>
        <path id="Контур_327" data-name="Контур 327" d="M-118.256,2431.365c.166.069.288.035.334-.114a.168.168,0,0,0-.068-.158c-.181-.048-.367-.076-.551-.11A.375.375,0,0,0-118.256,2431.365Z" transform="translate(118.541 -2430.983)" fill="#fed841" fill-rule="evenodd"/>
        <path id="Контур_362" data-name="Контур 362" d="M-69.972,2454.535c.034-.008.05-.081.072-.125-.03-.041-.052-.1-.1-.116a.156.156,0,0,0-.13.057C-70.164,2454.489-70.1,2454.56-69.972,2454.535Z" transform="translate(118.541 -2430.983)" fill="#fed841" fill-rule="evenodd"/>
        <path id="Контур_370" data-name="Контур 370" d="M-93.736,2441.538c-.038.039-.1.076-.1.119a.365.365,0,0,0,.07.143c.036-.039.1-.077.1-.118A.4.4,0,0,0-93.736,2441.538Z" transform="translate(118.541 -2430.983)" fill="#fed841" fill-rule="evenodd"/>
        <path id="Контур_379" data-name="Контур 379" d="M-70.71,2459.76c.155.093.235.071.22-.071,0-.02-.106-.045-.161-.039C-70.675,2459.653-70.69,2459.723-70.71,2459.76Z" transform="translate(118.541 -2430.983)" fill="#fed841" fill-rule="evenodd"/>
        <path id="Контур_419" data-name="Контур 419" d="M-92.356,2442.392c.028.013.058.03.086.044C-92.284,2442.363-92.308,2442.331-92.356,2442.392Z" transform="translate(118.541 -2430.983)" fill="#fed841" fill-rule="evenodd"/>
      </g>
      <path id="Контур_420" data-name="Контур 420" d="M-73.154,2450.1l.118.017-.042-.11Z" transform="translate(168.435 -2424.419)" fill="#fed841" fill-rule="evenodd"/>
      <path id="Контур_458" data-name="Контур 458" d="M-76.892,2575.4h.077v-.036a.139.139,0,0,1-.036-.01A.59.59,0,0,1-76.892,2575.4Z" transform="translate(168.435 -2424.419)" fill="#fed841" fill-rule="evenodd"/>
      <path id="Контур_459" data-name="Контур 459" d="M-76.9,2575.4h-.333C-77.091,2575.566-77.052,2575.566-76.9,2575.4Z" transform="translate(168.435 -2424.419)" fill="#fed841" fill-rule="evenodd"/>
      <g id="Сгруппировать_66" data-name="Сгруппировать 66">
        <path id="Контур_972" data-name="Контур 972" d="M-107.755,2463.919c-.25.12-.519.2-.76.32a1.77,1.77,0,0,1-1.79.14,3.714,3.714,0,0,1-2.529-1.51,14.074,14.074,0,0,1-1.01-1.4,1.081,1.081,0,0,1-.161-.52,2.388,2.388,0,0,1,.45-1.77,1.142,1.142,0,0,0,.25-.69,5.508,5.508,0,0,1,.42-1.78,6.616,6.616,0,0,0,.171-1.82.372.372,0,0,0-.221-.29,5.125,5.125,0,0,0-.779-.27.11.11,0,0,1,.05.04l-.12.03.07-.07a2.659,2.659,0,0,0-1.63-.66,10.042,10.042,0,0,1-1.9-.21,12.141,12.141,0,0,0-2.1.16c-.56-.03-1.13.08-1.7.08a6.041,6.041,0,0,1-1.04-.14c-.181-.03-.241-.17-.14-.26a2.225,2.225,0,0,0,.87-2,4.011,4.011,0,0,1,.13-1.1.378.378,0,0,1,.39-.36.8.8,0,0,0,.849-.68,4.654,4.654,0,0,0,.18-1.28,1.85,1.85,0,0,1,.62-1.51,9.122,9.122,0,0,0,.781-.87,2.287,2.287,0,0,0,.24-.52c.12-.31-.261-.8-.651-.81a6.488,6.488,0,0,0-2.519.17,5.831,5.831,0,0,1-2.07.32,1.41,1.41,0,0,0-1.31.81,4.911,4.911,0,0,0-.37.86,4.16,4.16,0,0,1-1.51,2.37c-.26.72-.791.71-1.49.47a2.153,2.153,0,0,0-1.041.04c-.69.16-1.339.42-2.029.55a1.653,1.653,0,0,1-1.581-.31,2.84,2.84,0,0,0-1.26-.67,1.843,1.843,0,0,1-1.169-1,6.278,6.278,0,0,0-1.211-1.73,1.564,1.564,0,0,1-.419-.84c-.11-.54-.24-1.09-.331-1.63a5.2,5.2,0,0,1-.089-1.11,21.484,21.484,0,0,1,.56-3.85,1.586,1.586,0,0,1,.07-.25l-1.531-.29-9.1-9.63h-1.771a6.7,6.7,0,0,1-1.619,1.81c-.87.56-2.521-1.92-3.011-2.7a8.743,8.743,0,0,0-2.14-1.82l-.99-1.12-3.65-.11.26,1.12-6.659-.56-1.641-.65a6.424,6.424,0,0,0,.24.73,21.045,21.045,0,0,1,1.151,3.36,1.409,1.409,0,0,0,.659.93,6.13,6.13,0,0,1,1.51,1.78.919.919,0,0,1-.07,1.06.7.7,0,0,1-.719.28.762.762,0,0,0-.211.03.356.356,0,0,0-.229.44v.01a3.044,3.044,0,0,0,1.479,1.29,8.849,8.849,0,0,1,2.161,1.47,1.006,1.006,0,0,1,.389.83,4,4,0,0,1-.1.92.914.914,0,0,0,.37.99,12.834,12.834,0,0,1,2.971,2.87c.12.2.509.2.759.03a.743.743,0,0,0,.37-.81,2.843,2.843,0,0,0-.74-1.11,10.653,10.653,0,0,1-1.26-1.92,9.392,9.392,0,0,1-.339-.88c-.11-.48-.161-.98-.271-1.46-.13-.57-.789-.84-1.01-1.4a9.685,9.685,0,0,0-1.25-2.33,23.066,23.066,0,0,0-1.649-2.38.91.91,0,0,1-.25-.5,6.066,6.066,0,0,1-.021-2.75.232.232,0,0,1,.25-.19c.021.01.05.02.07.03.391.14.78.3,1.16.46a1.085,1.085,0,0,1,.741.82,11.222,11.222,0,0,0,.61,2.35,11.916,11.916,0,0,0,2.12,3.2c.169.19.44.37.5.58a2.481,2.481,0,0,0,1.109,1.32,11.214,11.214,0,0,1,.95.73.341.341,0,0,1,.081.48l-.021.02c-.08.1-.15.21-.229.31a.58.58,0,0,0,.089.8.185.185,0,0,1,.06.04,9.584,9.584,0,0,0,1.24.72,1.124,1.124,0,0,1,.82.98c.02.2.27.42.46.59a9.366,9.366,0,0,1,3.441,5.21.91.91,0,0,1-.021.54,2.227,2.227,0,0,1-.36.68c-.5.6-.289,1.14.071,1.72a2.307,2.307,0,0,0,1.369,1.1,2.941,2.941,0,0,1,1.511.98,2.636,2.636,0,0,0,1.6.86c.271.06.56.07.831.15a2.081,2.081,0,0,1,.75.32,8,8,0,0,0,3.13,1.52,7.324,7.324,0,0,1,1.75.68,9.825,9.825,0,0,0,1.979.67c2.351.62,2.36.62,4.711-.13a1.824,1.824,0,0,1,1.8.24,34.824,34.824,0,0,1,3.341,2.59,2.417,2.417,0,0,0,1.649.77,14.375,14.375,0,0,1,2.68.58,9.37,9.37,0,0,0,3.1.59.486.486,0,0,1,.49.28,4.973,4.973,0,0,0,1.13,1.34c.45.47.959.92,1.38,1.41a1,1,0,0,1,.279,1.03c-.229.6.14.94.781,1.1a3.619,3.619,0,0,0,.81.16,1.112,1.112,0,0,1,.6.11c.5.34,1.06.65,1.211,1.25.159.67.779.82,1.43.92a1.492,1.492,0,0,0,.63-.06,1.659,1.659,0,0,1,1.739.42,12.366,12.366,0,0,0,1.341.89c.459.36.73.31,1.3-.07a.481.481,0,0,0,.209-.64c-.009,0-.009-.01-.009-.01-.08-.17-.19-.4,0-.51a6.156,6.156,0,0,0,1.279-1.22.735.735,0,0,1,.581,0,1.426,1.426,0,0,1,.549.31c.19-.39.36-.77.521-1.15a2.613,2.613,0,0,0-.38-.09A3.754,3.754,0,0,0-107.755,2463.919Z" transform="translate(168.435 -2424.419)" fill="#fed841" fill-rule="evenodd"/>
        <path id="Контур_973" data-name="Контур 973" d="M-116.435,2460.759c-.05.04-.089.11-.149.12-.4.11-.851-.22-.8-.58a.257.257,0,0,1,.14-.13.83.83,0,0,1,.82.42C-116.395,2460.629-116.435,2460.7-116.435,2460.759Z" transform="translate(168.435 -2424.419)" fill="#fed841" fill-rule="evenodd"/>
      </g>
    </g>
    <path id="Контур_4139" data-name="Контур 4139" d="M2635.114,1756.887l16.835,22.348,36.8-39.034-35.906,24.285Z" transform="translate(-7132.34 1423.836)" fill="#fed841"/>
  </g>
</svg>
