<?xml version="1.0" encoding="utf-8"?>
<!-- Generator: Adobe Illustrator 24.1.0, SVG Export Plug-In . SVG Version: 6.00 Build 0)  -->
<svg version="1.1" id="Слой_1" xmlns="http://www.w3.org/2000/svg" xmlns:xlink="http://www.w3.org/1999/xlink" x="0px" y="0px"
	 viewBox="0 0 960 480" style="enable-background:new 0 0 960 480;" xml:space="preserve">
<style type="text/css">
	.st0{fill:#FFFFFF;}
	.st1{fill:none;stroke:#FED841;stroke-width:4;stroke-linecap:round;stroke-linejoin:round;stroke-dasharray:5,7;}
	.st2{fill-opacity:0;}
	.st3{fill:#FED841;}
	.st4{fill:none;}
</style>
<g id="russia" transform="translate(2457 -2262)">
	<g id="Компонент_3_475" transform="translate(-1967.2 2289.05)">
		<circle id="Эллипс_11" class="st0" cx="19.7" cy="331.9" r="12.5"/>
		<path id="Контур_547" class="st1" d="M0,314.1l16.8,22.3l36.8-39l-35.9,24.3L0,314.1z"/>
		<path id="Контур_548" class="st2" d="M0,314.1l16.8,22.3l36.8-39l-35.9,24.3L0,314.1z"/>
		<g>
			<path class="st3" d="M49.1,5.5c0,0.2,0.1,0.3,0.4,0.3c0.2,0,0.4,0,0.6,0.1c0.4,0.3,0.9,0.4,1.4,0.4c0.1,0,0.1,0,0.2,0.1
				c0.1,0.1,0,0.1-0.2,0.2c-0.3,0-0.6,0.1-0.8,0.1c-0.3,0-0.5,0.2-0.7,0.4c-0.1,0.1,0,0.3,0.3,0.6c0.4,0.3,0.8,0.7,1.2,1
				c0.1,0.1,0.3,0.1,0.4,0.1c0.8-0.1,1.3-0.8,1.2-1.5l0,0V7.2C53,7,52.9,6.9,53,6.7c0-0.1,0.1-0.1,0.1-0.1c0.1,0,0.2,0,0.2,0
				c0.3,0.3,0.6,0.7,0.5,1.2c0,0.2-0.1,0.5-0.1,0.7c-0.1,0.6-0.1,0.7,0.5,0.7c0.5,0,1,0.2,1.3,0.6c0.4,0.6,1.1,0.9,1.8,0.8
				c1.2,0,2.4,0.1,3.6,0.4c0.2,0.1,0.4,0.1,0.6,0c0.5-0.2,1-0.5,1.4-0.8c0.2-0.2,0.2-0.5,0-0.7c-0.1-0.1-0.2-0.2-0.3-0.3
				c-0.2-0.2-0.4-0.3-0.7-0.4c-0.2-0.1-0.4-0.4-0.3-0.6c0.1-0.6-0.5-0.9-0.6-1.3C60.7,6,60,5.3,59.1,5c-0.4-0.2-0.8-0.2-1.2,0
				c-0.3,0.2-0.7,0.2-0.9,0c-0.4-0.3-1-0.2-1.4,0.1c-0.1,0.1-0.2,0.1-0.3,0.2v0.1h-0.1c-0.3,0.3-0.6,0.6-0.9,0.8
				c-0.1,0.1-0.2,0.1-0.3,0c0,0,0,0,0-0.1s0-0.1,0-0.2c0.3-0.4,0.8-0.6,1.3-0.6h0.1h0.1c0.1-0.5-0.1-1.1-0.6-1.4
				c-0.4-0.3-0.7-0.8-0.7-1.3c0-0.3-0.3-0.5-0.5-0.5C52.9,2,52.1,1.6,51.6,1c-0.3-0.2-0.6-0.4-0.9-0.5c-0.3-0.1-0.6,0-0.7,0.2
				c-0.1,0.5-0.4,0.9-0.6,1.4c-0.5,0.6-0.6,1.4-0.3,2.1C49.1,4.3,49.2,4.9,49.1,5.5z"/>
			<path class="st3" d="M120.4,10.2c0.3,0.4,0.7,0.7,0.7,1.3c0,0.1,0.2,0.3,0.4,0.4c0.4,0.2,0.7,0.4,1.1,0.5
				c0.5,0.1,0.9,0.3,1.3,0.6c0.3,0.3,0.7,0.4,1.2,0.3c0.3,0,0.7,0,1.1,0c0.2,0,0.4-0.2,0.5-0.3c0.2-0.3,0.2-0.6,0.5-0.7
				c0.3-0.2,0.5-0.4,0.7-0.7c0.4-0.5,1-0.8,1.6-0.6c0.2,0,0.4,0,0.6-0.1c0.2-0.1,0.3-0.2,0.5-0.4c0.1-0.1,0.1-0.2,0.1-0.3
				c0-0.2,0.2-0.3,0.3-0.4c0.1-0.1,0.2-0.1,0.3-0.2c0.1-0.1,0.2-0.3,0.3-0.5c0-0.2,0-0.5,0-0.7c-0.1-0.3-0.2-0.6-0.4-0.8
				c0.2-0.6-0.2-0.8-0.7-0.9c-0.9-0.2-1.8-0.3-2.7-0.5c-0.1,0-0.1,0-0.2,0c-0.2,0.1-0.4,0.2-0.5,0.3c-0.1,0.1-0.1,0.2,0,0.3
				c0.4,0.5,0.6,1.1,0.6,1.7c0,0.2,0,0.3,0.1,0.5h0.1l0.1,0.1L127.9,9V8.9c-0.1,0-0.2-0.1-0.3-0.2c-0.5-0.5-0.8-1.2-0.9-1.8
				c0-0.5-0.4-0.6-0.8-0.7S125.1,6,124.7,6c-0.1,0-0.3,0.1-0.3,0.2c-0.1,0.2-0.2,0.4-0.3,0.7c0,0.3,0,0.7,0,1l0,0l0,0h0.1
				C123.9,7.9,124,8,124,8c-0.1-0.1-0.2-0.1-0.2-0.2l0,0l0,0l0,0c-0.6-0.1-1.2-0.3-1.6-0.7c-0.4-0.3-1-0.6-1.5-0.6
				c-0.3,0-0.5,0.1-0.7,0.3c-0.2,0.5-0.3,0.9-0.5,1.4c-0.1,0.2-0.1,0.4,0,0.5C119.8,9.3,120.1,9.7,120.4,10.2z M128.1,9.3L128.1,9.3
				L128.1,9.3L128.1,9.3c-0.1,0-0.1,0-0.1-0.1C128,9.3,128.1,9.3,128.1,9.3z M124.3,8.1L124.3,8.1L124.3,8.1L124.3,8.1L124.1,8
				C124.1,8.1,124.2,8.1,124.3,8.1z"/>
			<path class="st3" d="M65,9.6c0,0.1,0.1,0.2,0.1,0.3c0,0.3-0.1,0.5-0.1,0.8c0.2,0.7,0.3,1.3,0.5,2c0.1,0.5,0.4,0.9,0.8,1.3
				c0.1,0.1,0.3,0.1,0.4,0.1S67,14,67,13.9c0.6-0.8,1.4-1.4,2.3-1.8c0.4-0.2,0.8-0.5,1.1-0.8c0.2-0.2,0.4-0.5,0.6-0.8
				c0.1-0.2,0.1-0.4,0-0.5c-0.1-0.3-0.3-0.5-0.5-0.8c-0.2-0.4-0.6-0.7-1.1-0.8c-0.7-0.2-1.3-0.5-1.9-0.8c-0.7-0.2-1.3-0.4-1.9-0.7
				c-0.3-0.1-0.5-0.2-0.8-0.2c-0.1,0-0.3,0-0.4,0.1c-0.3,0.6-0.6,1.1-0.2,1.7C64.6,8.8,64.8,9.2,65,9.6z"/>
			<path class="st3" d="M134.7,7.9c1,0.4,2.1,0.6,3.2,0.7c0.3,0,0.6-0.1,0.9-0.1c0.5-0.1,1-0.4,1.2-1c0.1-0.2,0.1-0.4,0-0.5
				c-0.3-0.5-0.9-0.8-1.5-0.8c-0.5,0-1,0.2-1.4,0.3c-0.6,0-1.1-0.1-1.7-0.1c-0.1,0-0.3,0-0.4,0.1c-0.3,0.1-0.7,0.2-1,0.1
				c-0.2,0-0.3,0.3-0.2,0.4C133.9,7.4,134.2,7.7,134.7,7.9z"/>
			<path class="st3" d="M132.1,18.1c0.1,0,0.1,0.1,0.2,0c0.6-0.3,1.3-0.5,2-0.4c0.8,0,1.5-0.1,2.3-0.2c0.2,0,0.4-0.2,0.4-0.5
				c0-0.1,0-0.2-0.1-0.2c-0.4-0.6-0.9-1-1.6-1.2c-0.3-0.1-0.7-0.2-1-0.3c-0.3,0-0.7-0.1-1.1,0c-0.3,0-0.6,0.2-0.8,0.6
				c-0.1,0.4-0.2,0.7-0.3,1.5c0,0-0.1,0.3-0.2,0.7C132,18,132.1,18,132.1,18.1z"/>
			<path class="st3" d="M209.2,59.3c-0.2-0.1-0.4-0.2-0.6-0.1c-0.2,0.1-0.3,0.2-0.5,0.3c-0.3,0.2-0.4,0.5-0.3,0.8
				c0.1,0.4,0.3,0.8,0.4,1.2c0,0,0.1,0,0.1,0.1l0.1-0.1c0.2-0.5,0.5-0.9,0.9-1.2C209.6,59.9,209.5,59.5,209.2,59.3z"/>
			<path class="st3" d="M130.5,14.2c-0.2-0.1-0.4,0-0.6,0.1c-0.1,0.1-0.2,0.3-0.2,0.5c0.1,0.5,0.4,1,0.9,1.1c0.2,0.1,0.4,0,0.5-0.2
				s0.1-0.3,0.2-0.5C131.3,14.7,131,14.3,130.5,14.2z"/>
			<path class="st3" d="M208.9,86.5c-0.1,0-0.2,0-0.4,0.1c-0.1,0-0.1,0.1-0.2,0.1c-0.3,0.5-0.5,1-0.7,1.5c-0.1,0.1,0.1,0.3,0.2,0.5
				c0,0,0.1,0,0.2,0.1c0.1,0,0.2-0.1,0.3-0.2c0.5-0.5,0.7-1.2,0.6-1.8C209,86.6,208.9,86.5,208.9,86.5z"/>
			<path class="st3" d="M119.1,11.7c0.1-0.1,0.2-0.2,0.3-0.3c0-0.2-0.1-0.3-0.1-0.5c-0.2-0.5-0.6-0.9-1.1-1c-0.1,0-0.3-0.1-0.4-0.2
				c-0.1-0.1-0.3-0.1-0.3,0l0,0l0,0c0,0.1,0,0.1,0,0.2c0.5,0.6,1,1.2,1.5,1.7C118.9,11.7,119,11.7,119.1,11.7z"/>
			<path class="st3" d="M172.4,79.4c-0.1,0.2,0.1,0.5,0.5,0.6c0.1,0,0.3,0.1,0.4,0.1c0.2-0.1,0.3-0.2,0.4-0.3
				c0.2-0.3,0.1-0.7-0.4-0.9C173,78.8,172.5,79,172.4,79.4z"/>
			<path class="st3" d="M52.7,38.4c-0.1-0.1-0.3-0.1-0.4,0c-0.4,0.2-0.5,0.6-0.3,1c0,0,0,0.1,0.1,0.1c0.2,0.2,0.6,0.3,0.9,0.2
				c0.1,0,0.2-0.1,0.3-0.2C53.4,39.1,53.1,38.6,52.7,38.4z"/>
			<path class="st3" d="M64.2,19.3c0.5,0.1,1-0.2,1.1-0.8l0,0c-0.1-0.1-0.1-0.2-0.2-0.3c-0.1,0-0.1,0-0.2,0
				c-0.3,0.2-0.6,0.3-0.8,0.5C64,18.8,64,18.9,64,19C64,19.1,64,19.2,64.2,19.3z"/>
			<path class="st3" d="M75.2,10.7c0.1,0,0.1-0.1,0.1-0.1c-0.1-0.1-0.1-0.3-0.2-0.3c-0.5-0.1-1.1,0.2-1.6-0.1
				c-0.1,0-0.1,0.1-0.1,0.1s0,0.1,0,0.2C73.8,11,74.6,11.1,75.2,10.7z"/>
			<path class="st3" d="M50.9,29.2c0,0.2,0.2,0.4,0.4,0.4c0.2,0.1,0.4-0.1,0.4-0.4c-0.1-0.1-0.1-0.3-0.2-0.4
				C51.3,28.6,50.8,28.9,50.9,29.2z"/>
			<path class="st3" d="M55.9,20c0.1,0,0.3-0.1,0.3-0.1c0.1-0.2,0-0.3-0.2-0.4c-0.1-0.1-0.3,0-0.3,0.1l0,0
				C55.7,19.7,55.7,19.9,55.9,20L55.9,20z"/>
			<path class="st3" d="M124.2,17.1c0.1,0.4,0.5,0.5,0.9,0.4l0.1-0.1c0-0.1,0-0.1-0.1-0.2C124.9,17.1,124.5,17,124.2,17.1z"/>
			<path class="st3" d="M66.2,20.4c-0.1,0-0.1,0.1-0.1,0.1c0,0.1,0,0.2,0.2,0.2c0.1,0,0.2-0.1,0.2-0.2c0,0,0,0,0-0.1
				C66.5,20.4,66.4,20.4,66.2,20.4C66.3,20.4,66.3,20.4,66.2,20.4z"/>
			<path class="st3" d="M207.1,86.5L207.1,86.5c0.1,0.2,0.2,0.2,0.2,0C207.3,86.4,207.2,86.4,207.1,86.5
				C207.3,86.5,207.2,86.5,207.1,86.5z"/>
			<path class="st3" d="M171.5,79.6l0.1,0.1c0.1,0,0.2-0.1,0.2-0.2l-0.1-0.1C171.6,79.4,171.5,79.5,171.5,79.6z"/>
			<path class="st3" d="M57.2,30.9c0.1-0.1,0.1-0.2-0.1-0.2v0.1C57.1,30.9,57.2,30.9,57.2,30.9z"/>
			<polygon class="st3" points="57.1,32.2 56.9,32.1 56.9,32.2 			"/>
			<path class="st3" d="M49.5,32.6c-0.1,0.1,0,0.2,0.1,0.3c0.1,0,0.1-0.1,0.1-0.1C49.7,32.7,49.7,32.6,49.5,32.6
				C49.6,32.5,49.6,32.5,49.5,32.6C49.6,32.5,49.6,32.6,49.5,32.6z"/>
			<path class="st3" d="M55.6,34L55.6,34L55.6,34C55.6,33.9,55.5,33.9,55.6,34z"/>
			<path class="st3" d="M123.6,17l0.1,0.1c0.1,0,0.2,0,0.4,0c0-0.1-0.1-0.2-0.2-0.3C123.8,16.8,123.7,16.8,123.6,17z"/>
			<path class="st3" d="M124.1,17.1L124.1,17.1C124.2,17.1,124.2,17.1,124.1,17.1L124.1,17.1C124.1,17.1,124.2,17.1,124.1,17.1z"/>
			<path class="st3" d="M51.3,27v-0.1c-0.1,0-0.1,0-0.2,0C50.9,26.9,51,27,51.3,27C51.2,27.1,51.3,27,51.3,27z"/>
			<path class="st3" d="M49.9,27.4c0,0,0.1,0,0.2,0c0,0,0-0.1,0.1-0.1C49.9,27.2,49.9,27.2,49.9,27.4z"/>
			<path class="st3" d="M190.6,93.2C190.6,93.2,190.7,93.3,190.6,93.2C190.7,93.2,190.7,93.2,190.6,93.2L190.6,93.2L190.6,93.2z"/>
			<path class="st3" d="M191,93.6c0-0.2-0.2-0.3-0.4-0.3C190.7,93.4,190.9,93.6,191,93.6z"/>
			<polygon class="st3" points="67.4,19.8 67.6,19.8 67.5,19.7 67.4,19.7 			"/>
			<path class="st3" d="M111.2,22.6l0.1-0.1l-0.1-0.1l-0.1,0.1C111.1,22.5,111.1,22.6,111.2,22.6z"/>
			<polygon class="st3" points="54.6,34 54.4,34 54.6,34.1 			"/>
			<path class="st3" d="M207.8,64.3C207.8,64.4,207.8,64.4,207.8,64.3C207.9,64.4,207.9,64.4,207.8,64.3
				C207.9,64.3,207.8,64.3,207.8,64.3z"/>
			<path class="st3" d="M207.7,64.2L207.7,64.2L207.7,64.2C207.8,64.3,207.8,64.3,207.7,64.2L207.7,64.2z"/>
			<path class="st3" d="M140.3,23.1C140.2,23.1,140.2,23.1,140.3,23.1C140.2,23.2,140.2,23.2,140.3,23.1L140.3,23.1L140.3,23.1
				L140.3,23.1L140.3,23.1z"/>
			<path class="st3" d="M227.9,27v-0.1l0-0.2l0-0.1c-0.1-0.5-0.3-1.7-1.5-2.3c-0.1-0.7-0.5-1.4-1-1.9c0.2-0.3,0.3-0.7,0.4-1.1
				c0.3-0.8,0-1.8-0.7-2.5c-0.1-0.1-0.2-0.3-0.2-0.6c0-1.4-1-2.3-2.4-2.3h-0.2c-0.7-0.2-1.4-0.3-2.1-0.4c0,0-0.1-0.1-0.2-0.1
				l-0.1-0.1c-0.4-0.1-0.8-0.3-1.2-0.3c-0.7,0-1.4,0.3-2.1,0.8l-0.1,0.1c-0.2,0.2-0.4,0.3-0.5,0.3c-0.3,0.1-0.6,0.2-0.9,0.4
				c-0.8-0.5-1.9-0.8-2.9-0.8h-1l-0.1,0l-0.3-0.1c-0.6-0.1-1.3-0.2-2-0.2h-0.4c-0.6,0-1.2-0.1-1.7-0.2c-0.6-0.2-1.2-0.2-1.6-0.2
				c-0.5,0-0.9,0.1-1.3,0.2c-0.6-0.4-1.4-0.7-2.1-0.7c-1.8-0.3-3.4-0.5-4.9-0.5h-0.4c-0.5-0.1-0.8-0.1-1.2-0.1
				c-0.9,0-1.9,0.2-2.8,0.6l-0.1,0.1c-0.3,0.2-0.7,0.3-1.2,0.4l0,0c-0.2,0-0.4,0-0.6,0.1c-0.1,0-0.3,0-0.4,0l-0.2,0
				c-0.3,0.1-0.5,0.1-0.9,0.1c-0.4,0-0.9,0-1.3,0.1c-0.6,0-1.1,0.4-1.5,0.9l-0.1,0.2c0,0.1-0.1,0.2-0.2,0.3c-0.1,0-0.2,0-0.3,0h-0.5
				l-0.1,0c-1.2,0.2-2.5,1.3-2.5,2.6v0.3c-0.4,0.1-0.7,0.1-1,0.2l-0.4,0.1c0,0-0.1,0-0.1,0c0,0-0.8,0-0.8,0c-0.2,0-0.6,0-1,0.2
				l-0.1,0.1c-0.3,0.2-0.6,0.3-0.9,0.4c-0.5,0.2-1,0.5-1.6,0.8c-0.7,0.3-1.3,0.5-1.9,0.6c-0.6-1.3-1.6-2.3-2.9-2.9
				c-0.1,0-0.1-0.1-0.1-0.1c0,0,0.1,0,0.1,0.1c0,0-0.1,0-0.1,0l-0.1-0.1c-1-0.7-2.2-1.1-3.5-1.1c-1,0-1.8,0.2-2.4,0.5
				c-0.1,0-0.2,0.1-0.3,0.1l-0.3,0.1c-1.5,0.5-2.7,1.1-3.7,1.7c-0.2,0.1-0.4,0.2-0.5,0.4c-0.4-0.4-0.9-0.7-1.5-0.8
				c-0.2-0.1-0.4-0.1-0.6-0.3l-0.1-0.1c-0.4-0.2-0.9-0.2-1.1-0.2c-0.3,0-0.7,0.1-1,0.2c-0.2-0.1-0.4-0.1-0.6-0.1
				c-0.1-0.5-0.4-1-0.9-1.4l-0.3-0.3l-0.2-0.1c-0.9-0.6-1.9-0.9-3-0.9c-0.3,0-0.7,0-1.1,0.2l-0.3,0.1c-0.1,0-0.2,0-0.3,0.1
				c-0.2,0-0.4,0.1-0.6,0.1c-0.5,0.1-1,0.4-1.5,0.7l0,0l0,0c-0.6-0.1-1.3-0.2-2-0.2h-0.7c-1,0-2,0.1-2.9,0.2h0l-0.2,0
				c-0.3,0.1-0.5,0.1-0.9,0.1c-0.3,0-0.8,0-1.1-0.1l-0.2,0h-0.2c-0.6,0-1.2,0.2-1.7,0.5c-0.6,0.5-1,1.1-1,1.7l0.1,0.1v0.6l0.1,0.4
				c0,0,0,0.1,0,0.1c-0.3,0.5-0.3,1-0.2,1.6c0.1,0.6,0.4,1.2,0.8,1.6c-0.2,0-0.4,0-0.6,0h-0.4c-1.1,0-2.1,0.5-2.7,1.4
				c-0.4,0-0.7-0.1-1-0.4l-0.2-0.1c-0.1,0-0.1-0.1-0.1-0.1c-0.1-0.1-0.2-0.1-0.4-0.2l-0.5-0.1h-0.1c-0.5,0-1,0.3-1.1,0.3l-0.1,0.1
				c-0.6,0.4-0.9,1-0.9,1.6c0,0,0,0.4,0,0.4c-0.1-0.2-0.3-0.4-0.6-0.5c-0.2-0.6-0.6-1.5-1.4-2.1c-0.2-0.2-0.4-0.3-0.6-0.4
				c-0.2-0.4-0.5-0.7-0.6-0.8c-0.1-0.1-0.2-0.2-0.3-0.2c0,0-0.1,0-0.1-0.1c0,0,0,0,0.1,0.1l-0.3-0.4c-0.2-0.1-0.3-0.3-0.4-0.4
				c-0.2-0.2-0.4-0.4-0.7-0.6l-0.2-0.1l-0.2-0.1c-1.2-0.6-2.4-0.9-3.8-1c-0.4,0-0.7,0.1-1,0.2l-0.2,0.1c-0.6-0.2-1.2-0.2-1.9-0.2
				c-0.4,0-1,0-1.6,0.1c-0.6,0.1-1,0.4-1.3,0.6c-0.7,0.4-1.2,1-1.3,1.6c-0.1,0.4-0.2,0.9,0.1,1.6c-0.1,0-0.2,0.1-0.4,0.1
				c0,0,0,0-0.1,0c-0.2-0.2-0.7-0.5-1.4-0.5c-0.3,0-0.6,0.1-0.8,0.1c-0.5-0.8-1.4-1.3-2.3-1.3h-0.3l-0.2,0l-0.9,0.2
				c-0.5,0.1-0.9,0.1-1.4,0.2c-0.3,0.1-0.6,0.1-1,0.2c-0.5,0.1-1.1,0.2-1.6,0.4c-0.2,0.1-0.5,0.2-0.7,0.3l-0.4-0.2l-0.2-0.1
				l-0.4-0.1h-0.6l-0.7,0.3l-0.2,0.2c-0.5-0.5-1.1-0.6-1.5-0.6c0,0,0,0-0.1,0c0-0.1,0.1-0.2,0.1-0.3l0.1-0.3v-0.1
				c0.1-0.5,0.2-0.9,0.3-1.3c0.4-1.2,0.3-2.5-0.3-3.5l-0.5-0.4c-0.1,0-0.2-0.1-0.4-0.6c-0.2-0.7-0.6-1.2-1.1-1.4
				c-0.4-0.3-0.8-0.6-1-0.8l-0.1-0.1l-0.2-0.2L95,15c-0.5-0.3-1-0.5-1.5-0.5c-0.1,0-0.3,0-0.4,0c-0.3-0.2-0.8-0.4-1.2-0.6
				c-0.4-0.2-0.8-0.3-1.1-0.5c-0.5-0.4-1.1-0.5-1.8-0.5c-0.6,0-1.2,0.2-1.6,0.4c-0.6,0.3-1.3,0.6-1.8,0.8c-0.5-0.6-1.2-0.9-2-0.9
				h-0.3L83,13.3c0,0-0.1,0-0.1,0c-0.3-0.7-1-1.1-1.3-1.4l-0.1-0.1l-0.2-0.1l-0.5-0.2l-0.2-0.1l-2.1-0.3l-0.1,0h-0.3
				c-0.6,0-1.2,0.2-1.6,0.6c-0.4,0.3-0.7,0.6-0.8,0.9c-0.8,1.4-1.1,2.9-0.9,4.4v0.1c0,0.7,0.1,1.3,0.4,1.8c-0.3,0.2-0.6,0.5-0.7,0.8
				c-0.1,0.1-0.1,0.3-0.2,0.5c-0.3-0.1-0.6-0.2-1-0.2c-1,0-1.8,0.4-2.3,1h-0.1l-0.1,0c-0.9,0.1-1.6,0.5-2.3,1.2
				c-0.2,0.2-0.7,0.7-0.9,1.6c0,0,0,0.2,0,0.2c-0.8,0.2-1.5,0.7-2.2,1.3l-0.4,0.4c-0.2,0.2-0.6,0.6-0.8,1.1
				c-0.8,0.3-1.2,0.9-1.3,1.3c-0.4,0.4-0.7,0.8-0.9,1.2c-0.5,1.1-0.2,2.3-0.1,2.8l0.1,0.1c0.2,0.3,0.4,0.7,0.8,1
				c-0.6,0.2-1.3,0.4-1.9,0.5l-0.5,0.3l0,0c0,0,0,0,0,0c-0.1,0-0.3,0.1-0.5,0.1c-1.2,0.4-1.6,1.1-1.9,1.7l-0.1,0.2
				c-0.1,0.5-0.3,1.4,0.3,2.3c-0.6,0-1.2,0.2-1.6,0.5c-0.2,0.2-0.5,0.4-0.7,0.6c-0.2-0.2-0.5-0.4-0.8-0.6c-0.4-0.3-0.9-0.3-1.1-0.3
				l-0.2,0l-0.4,0.1l-0.3,0.1c-1,0.4-1.5,1.6-1.2,2.6l0.1,0.1c0,0.1,0.1,0.1,0.1,0.1l0.1,0.3c0,0.1,0.1,0.2,0.1,0.3
				c-0.7,0.8-0.9,1.9-0.7,2.8v0.5c0,0.5,0.2,0.9,0.4,1.2l0.1,0.2l0.2,0.3c0.2,0.2,0.5,0.4,0.7,0.6c0.2,0.1,0.3,0.3,0.4,0.4l0.3,0.2
				l0.1,0c0.1,0.1,0.3,0.3,0.5,0.4c0,0.4,0,0.9,0.1,1.3v0.1l0.1,0.4c0.1,0.3,0.2,0.5,0.3,0.7c0.1,0.2,0.2,0.4,0.3,0.7l0.2,0.3
				l0.7,1.1l0.2,0.3l0.1,0.2l0.4,0.4l0.3,0.2c0.1,0.1,0.4,0.2,0.7,0.2l0.1,0.4l0.3,0.5l5.7,5l0.2,9l-0.6,3.8l0,0.2v0.4l0,0.2
				c0.3,1.1,0.6,2.3,0.8,3.5c0,1.2,0.6,5.5,0.8,6.5l0.3,4.4l0.2,7.3c0,0.8-0.1,1.5-0.2,2c-2,0.3-6.4,1.2-7.5,1.4l-5.4-0.3l-3.3-1
				l-0.3,0h-0.6l-0.3,0.1l-7.2,2.4l-0.4,0.3l-0.7,0.8l-0.2,0.5l-1,5.6l-0.4,1.3l0.1,0.8l0.8,1.2l0,0c-0.2,0.1-0.4,0.3-0.6,0.5
				c-0.3,0.4-0.5,0.8-0.5,1.2l-0.6,0.6l-0.3,0.5l-0.1,0.5l0.1,0.6l0.4,1l0.3,0.4c0.3,0.2,0.5,0.4,0.6,0.7c0.6,1,1.5,1.8,2.6,2.2
				c0.1,0.8,0.5,1.6,1,2.2c0,0,0,0,0,0l0,0.2c0,0.4,0,0.9,0.2,1.5c0.2,0.7,0.8,1.3,1.4,1.7c0.1,0.1,0.1,0.2,0.2,0.3l0.2,0.3l0.6,0.6
				l0.1,0.1c0,0.5,0.1,1,0.2,1.4l0.2,0.5l0.6,0.7l0.4,0.3l9.4,3.2l0.6,0l1.2-0.4l0.5-0.4l3.9-6.7l2.9-0.9l4.4,2l0.9,0l1.4-0.7
				l0.5-0.7l1.5-8.4l5-5.2l12.9-6h0.9l0.8-0.4l0.9-1.3l0.1-0.9l-0.2-0.6l6.2-4.6l7.7,1.8l0.4,0l0.7-0.1l0.4-0.1l12.7-7.6l14.6,2.5
				l0.2,0h8.8l0.5-0.1l0.9-0.5l0.4-0.4l0.6-1l0.1-0.4l0.1-0.7l0-0.4l-1.2-5.3l7.3,1.4l9.6,5.8l7.4,5.6l3.3,13.1l0.8,0.7l1.5,0.3
				l-0.1,0.2c-0.2-0.1-0.3-0.2-0.4-0.2c0.1,0.1,0.3,0.2,0.4,0.3c0,0,0.1,0,0.1,0.1c0.1,0.1,0.3,0.2,0.5,0.3c0.6,0.3,1.2,0.3,1.6,0.3
				c0.6,0,1-0.1,1.3-0.3c0.8-0.3,1.4-0.7,1.9-1.2l0.1-0.1c0.7-0.7,1.2-1.6,1.6-2.5c0.6-1.2,1.2-2.3,1.5-3.5l0-0.1
				c0.9-1.3,1.4-2.7,1.4-4.2c0.1-0.5,0.2-0.9,0.3-1.3c0.1-0.5,0.2-1,0.3-1.5l0-0.1c0.1-0.1,0.1-0.3,0.2-0.4l0.1,0.1
				c0.1,0.9,0.4,1.7,0.8,2.4c0.1,0.2,0.1,0.2,0.1,0.3c0,0.3,0,0.7,0.1,1.1c0.2,0.8,0.7,1.6,1.5,2.1c0.1,0.1,0.2,0.1,0.2,0.1l0.5,0.3
				l0.4,0.1l0.2,0c0.6,0,1.3-0.2,1.8-0.7c0.2,0,0.3,0,0.4,0c0.7,0,1.3-0.3,1.7-0.9l0.1-0.2c0.1-0.2,0.5-0.8,0.4-1.5
				c0-0.2,0-0.5-0.2-0.8c-0.3-0.9-0.9-1.5-1.7-1.9c0,0-0.1-0.1-0.2-0.3c-0.2-0.4-0.6-0.7-1-1c-0.1-0.1-0.1-0.3-0.2-0.5
				c0-0.3-0.1-0.5-0.1-0.7l0.1,0l0.9-0.8l0.3-0.6c0.2-0.9-0.1-1.8-0.6-2.4c-1.1-1.9-2.5-3.8-4.1-5.7l-0.6-0.7
				c-0.1-0.1-0.2-0.3-0.2-0.4c0-0.7-0.2-1.4-0.5-1.9c-0.1-0.1-0.1-0.3-0.2-0.4c-0.1-0.1-0.1-0.2-0.2-0.3l-0.1-0.2
				c-0.4-0.7-0.8-1.5-1.7-2c0-0.1-0.1-0.1-0.1-0.2c-0.1-0.1-0.1-0.1-0.1-0.2l-0.1-0.2c-0.5-0.8-1.4-1.3-2.5-1.4l-0.2,0
				c-0.9,0-1.5,0.6-1.7,0.8c-0.3,0.3-0.5,0.6-0.6,0.9c-0.2-0.1-0.3-0.2-0.5-0.3c-0.5-0.3-1-0.5-1.7-0.5h-1.1c-0.6,0-1.1,0.2-1.5,0.4
				c-0.4-0.2-0.8-0.3-1.1-0.3l-0.2,0l0,0c-0.3-0.3-0.6-0.5-1-0.7c0.5-0.8,0.8-1.6,0.8-2.3c0.2-1.2,0.5-2.1,0.9-2.7
				c0.7-1.1,1-2.4,0.9-3.8c0.5-0.7,0.7-1.4,0.6-2.2l0.1,0c0.8-0.2,1.7-0.5,2.4-0.7c0.2,0.1,0.5,0.2,0.9,0.2c0.7,0,1.4-0.3,1.9-0.9
				c0.8,0,1.7-0.1,2.5-0.3c0.8-0.2,1.4-0.7,1.7-1.4c0,0,0,0,0-0.1c0.1,0,0.5,0,0.6,0c0.1,0.4,0.4,0.8,0.8,1.1
				c0.5,0.5,1.2,0.7,1.9,0.7c0.2,0,0.6,0,1-0.2c0.9-0.3,1.7-0.8,2.3-1.3h0c0.8,0,1.5-0.3,2-0.8l0,0c1.3-0.9,1.3-2,1.1-2.7
				c-0.3-1.2-1.2-1.6-1.8-1.8l0,0c0.3-0.7,0.6-1.6,0.5-2.6V55c0.3-0.1,0.7-0.2,1-0.4l0.2-0.1l0,0c0.3,0.9,0.9,1.7,1.8,2.1
				c0.4,0.2,0.7,0.4,1,0.5l0.4,0.1l0.5,0.1l0.2,0c0.3,0,0.6-0.1,0.9-0.2c0,0.4-0.1,0.8-0.3,1.2l0,0.1l-0.1,0.2
				c-0.1,0.3-0.2,0.7-0.2,1v0.8c0,0.2,0,0.4,0,0.6c0,0.5,0,1.1,0,1.8c0,0,0,0.2-0.1,0.3c-0.3,0.3-0.4,0.5-0.5,0.7l-0.1,0.1
				c-0.5,0.3-1.1,0.8-1.2,1.7c-0.2,0.9,0.3,1.5,0.6,1.8c0,0,0,0,0,0c0,0.1,0,0.1-0.1,0.2c-0.1,0.1-0.1,0.3-0.2,0.4
				c-0.3,0.8-0.4,1.6-0.2,2.4l0,0.1c0.2,0.8,0.5,1.7,0.8,2.3c1.1,2.7,2.6,5.1,4.2,6.9c0.1,0.1,0.1,0.1,0.2,0.2
				c0.1,0.1,0.2,0.3,0.3,0.4c0.1,0.1,0.3,0.3,0.4,0.5c0.1,0.1,0.1,0.2,0.2,0.3c0.4,0.6,0.7,1.1,1.3,1.6l0.2,0.1
				c0.1,0.1,0.3,0.3,0.5,0.6l0.1,0.1c0.1,0.1,0.1,0.2,0.2,0.3c0.1,0.2,0.2,0.4,0.3,0.6l0.2,0.5c0.4,0.8,1.2,1.5,2,1.8l0.2,0.1
				l0.3,0.1l0.5,0.1l0.2,0c0.4,0,0.8-0.2,1-0.3l0.3-0.2l0.1-0.1c0.6-0.5,0.9-1,1.1-1.7c0,0,0-0.1,0.1-0.1c0.8-1.3,0.9-2.9,0.4-4.4
				c0,0,0,0,0.1,0c0.6-0.3,1.1-0.9,1.1-1.5c0.2-0.6,0-1.3-0.4-1.8l0,0c0-0.1-0.1-0.2-0.2-0.3c0,0-0.1-0.1-0.1-0.2c0,0,0-0.1,0-0.1
				c0-0.1,0-0.2,0-0.4c0,0,0.1,0,0.1-0.1c0.1-0.1,0.3-0.1,0.4-0.1l0.5-0.3l0,0c1.1-0.9,1.4-2.3,0.7-3.5l-0.1-0.2l-0.1-0.1
				c-0.2-0.3-0.5-0.6-0.8-0.8c-0.1-0.1-0.2-0.2-0.4-0.4c0,0-0.1-0.1-0.1-0.1c0.4-0.2,0.7-0.6,0.9-1c0.4-0.7,0.4-1.6,0-2.4
				c-0.2-0.3-0.4-0.6-0.6-0.8c-0.1-0.1-0.1-0.1-0.2-0.2c0,0-0.1-0.1-0.1-0.1c-0.3-0.6-0.8-1.1-1.4-1.3c0-0.3,0-0.6-0.1-0.9
				c-0.1-0.5-0.4-1-0.9-1.5l-0.1-0.1c-0.7-0.6-1.4-0.9-2.2-0.9c0,0,0,0,0,0c0.1-1.1,0-2.1-0.4-3.1c0.2-0.1,0.4-0.2,0.6-0.3
				c0.2,0.1,0.5,0.1,0.7,0.1c0.6,0,1.3-0.3,1.8-0.8l0.2-0.2l0.2-0.3l0.1-0.2l0.1-0.1c0-0.1,0.2-0.6,0.2-1c0,0,0-0.1,0-0.1l0.1-0.1
				c0.1-0.1,0.2-0.1,0.3-0.2l0.2,0.1c0.1,0.1,0.3,0.2,0.4,0.3l0.3,0.2l0.2,0.1c0,0,0.1,0,0.1,0.1c0.2,0.1,0.4,0.3,0.7,0.4
				c0.5,0.2,0.8,0.2,1.2,0.2c1.2,0,2.2-0.9,2.4-2.1l0-0.1v-0.2c0-0.5-0.1-0.8-0.2-1.1c0,0,0-0.1,0-0.1c0.1-0.2,0.1-0.3,0.1-0.5
				c0-0.1,0-0.2,0.1-0.3c0.2-0.8,0.3-1.5,0.4-2.3c0.1-0.7,0.3-1.2,0.6-1.6c0.5-0.6,0.8-1.4,1-1.8c0.2-0.5,0.5-0.9,0.9-1.2h1.4
				c0.3,0,0.8,0,1.1-0.1c0.7-0.2,1.6-0.8,1.7-1.7c0.4-1.5-0.2-3-1.4-4.1c-0.1-0.1-0.1-0.2-0.2-0.2c0-0.1-0.1-0.1-0.1-0.2
				c-0.3-0.4-0.7-0.9-1.4-1.1c0,0-0.1,0-0.1-0.1c-0.1-0.1-0.3-0.1-0.4-0.2c-0.3-0.2-0.5-0.3-0.8-0.4c0,0,0,0,0,0
				c-0.3-0.8-1-1.4-1.8-1.7c-0.1-0.1-0.2-0.3-0.3-0.4c0.2-0.4,0.3-0.9,0.3-1.3c0.1-0.8,0.1-1.6,0.1-2.5c0-0.6-0.1-1-0.4-1.5
				c0.2-0.2,0.4-0.5,0.6-0.7c0.6,0.5,1.4,0.9,2.1,0.9c0.6,0,1-0.1,1.5-0.4c0.1,0,0.2-0.1,0.2-0.1h1.4c0.5,0,1-0.2,1.3-0.3
				c0.3-0.1,0.6-0.2,0.9-0.4c0.6-0.1,1.1-0.4,1.4-0.8C227.8,28,228,27.6,227.9,27z M54.5,113.8c-0.3,0.4-0.8,0.6-1.3,0.5
				s-0.9-0.2-1.4-0.4c-0.2-0.1-0.4-0.3-0.4-0.6c-0.2-1.2,1.3-2.3,2.5-2.2c0.3,0,0.5,0.1,0.7,0.4c0.1,0.3,0.3,0.6,0.4,0.8
				C54.9,112.8,54.7,113.3,54.5,113.8z M82.1,26.5c0,0.2,0.1,0.3,0.1,0.5C82.1,26.8,82.1,26.7,82.1,26.5z M85,26.4
				C85.1,26.3,85.1,26.3,85,26.4C85.1,26.4,85.1,26.4,85,26.4z M146.6,20.2c0.1-0.1,0.1-0.1,0.2-0.1l0,0c-0.1,0-0.1,0-0.1,0.1
				C146.6,20.3,146.6,20.3,146.6,20.2C146.6,20.2,146.6,20.2,146.6,20.2z M146.4,20.9c-0.1,0.1-0.1,0.1-0.2,0.1
				c-0.2,0-0.3-0.1-0.3-0.2c-0.1-0.3,0-0.4,0.3-0.5c-0.3,0.1-0.3,0.2-0.3,0.5c0.1,0.1,0.2,0.2,0.3,0.2
				C146.3,21,146.3,20.9,146.4,20.9c0.1-0.1,0.3-0.3,0.4-0.4C146.7,20.7,146.5,20.8,146.4,20.9z"/>
			<polygon class="st3" points="148.4,21.3 148.4,21.3 148.4,21.3 			"/>
			<polygon class="st3" points="83.7,28.6 83.7,28.6 83.7,28.6 			"/>
			<path class="st3" d="M148.8,21.9c0.1-0.3-0.1-0.5-0.5-0.6c-0.1,0.4-0.1,0.8-0.2,1.1l0.1,0.1h0.1h0.1
				C148.6,22.3,148.7,22.1,148.8,21.9z"/>
			<path class="st3" d="M148.4,21.3C148.4,21.2,148.4,21.2,148.4,21.3l-0.1-0.1L148.4,21.3C148.3,21.3,148.3,21.3,148.4,21.3z"/>
			<path class="st3" d="M146.8,20.1L146.8,20.1L146.8,20.1z"/>
			<path class="st3" d="M77.4,21.9l-0.1-0.1C77.2,21.9,77.3,21.9,77.4,21.9l0.4,0.4l0.1,0.1v-0.1L77.4,21.9z"/>
			<polygon class="st3" points="80.4,15.9 80.5,15.8 80.4,15.8 			"/>
			<path class="st3" d="M84.2,29l-0.4-0.4l0,0c0,0,0,0,0,0.1L84.2,29c0.1,0.1,0.3,0.3,0.4,0.4l0.1,0.1v-0.1L84.2,29z"/>
			<path class="st3" d="M82.2,26.4L82.2,26.4L82,26.3L82.2,26.4L82.2,26.4z"/>
		</g>
	</g>
	<path id="Контур_4117" class="st4" d="M-2457,2262h960v480h-960V2262z"/>
</g>
</svg>
