<?xml version="1.0" encoding="utf-8"?>
<!-- Generator: Adobe Illustrator 24.1.0, SVG Export Plug-In . SVG Version: 6.00 Build 0)  -->
<svg version="1.1" id="Слой_1" xmlns="http://www.w3.org/2000/svg" xmlns:xlink="http://www.w3.org/1999/xlink" x="0px" y="0px"
	 viewBox="0 0 960 480" style="enable-background:new 0 0 960 480;" xml:space="preserve">
<style type="text/css">
	.st0{fill:none;}
	.st1{fill:none;stroke:#000000;stroke-width:4;stroke-linecap:round;stroke-linejoin:round;stroke-opacity:0;stroke-dasharray:5,7;}
	.st2{fill:#FED841;}
</style>
<g id="russia" transform="translate(2457 -2262)">
	<path id="Контур_4117" class="st0" d="M-2457,2262h960v480h-960V2262z"/>
	<g id="Компонент_3_375" transform="translate(-1967.199 2289.05)">
		<path id="Контур_547" class="st1" d="M0,314.1l16.8,22.3l36.8-39l-35.9,24.3L0,314.1z"/>
		<path id="Контур_548" class="st2" d="M0,314.1l16.8,22.3l36.8-39l-35.9,24.3L0,314.1z"/>
	</g>
	<g>
		<path class="st2" d="M-1918.1,2294.6c0,0.2,0.1,0.3,0.4,0.3c0.2,0,0.4,0,0.6,0.1c0.4,0.3,0.9,0.4,1.4,0.4c0.1,0,0.1,0,0.2,0.1
			c0.1,0.1,0,0.1-0.2,0.2c-0.3,0-0.6,0.1-0.8,0.1c-0.3,0-0.5,0.2-0.7,0.4c-0.1,0.1,0,0.3,0.3,0.6c0.4,0.3,0.8,0.7,1.2,1
			c0.1,0.1,0.3,0.1,0.4,0.1c0.8-0.1,1.3-0.8,1.2-1.5l0,0v-0.1c-0.1-0.2-0.2-0.3-0.1-0.5c0-0.1,0.1-0.1,0.1-0.1c0.1,0,0.2,0,0.2,0
			c0.3,0.3,0.6,0.7,0.5,1.2c0,0.2-0.1,0.5-0.1,0.7c-0.1,0.6-0.1,0.7,0.5,0.7c0.5,0,1,0.2,1.3,0.6c0.4,0.6,1.1,0.9,1.8,0.8
			c1.2,0,2.4,0.1,3.6,0.4c0.2,0.1,0.4,0.1,0.6,0c0.5-0.2,1-0.5,1.4-0.8c0.2-0.2,0.2-0.5,0-0.7c-0.1-0.1-0.2-0.2-0.3-0.3
			c-0.2-0.2-0.4-0.3-0.7-0.4c-0.2-0.1-0.4-0.4-0.3-0.6c0.1-0.6-0.5-0.9-0.6-1.3c-0.3-0.9-1-1.6-1.9-1.9c-0.4-0.2-0.8-0.2-1.2,0
			c-0.3,0.2-0.7,0.2-0.9,0c-0.4-0.3-1-0.2-1.4,0.1c-0.1,0.1-0.2,0.1-0.3,0.2v0.1h-0.1c-0.3,0.3-0.6,0.6-0.9,0.8
			c-0.1,0.1-0.2,0.1-0.3,0c0,0,0,0,0-0.1c0-0.1,0-0.1,0-0.2c0.3-0.4,0.8-0.6,1.3-0.6h0.1h0.1c0.1-0.5-0.1-1.1-0.6-1.4
			c-0.4-0.3-0.7-0.8-0.7-1.3c0-0.3-0.3-0.5-0.5-0.5c-0.8-0.1-1.6-0.5-2.1-1.1c-0.3-0.2-0.6-0.4-0.9-0.5c-0.3-0.1-0.6,0-0.7,0.2
			c-0.1,0.5-0.4,0.9-0.6,1.4c-0.5,0.6-0.6,1.4-0.3,2.1C-1918.1,2293.4-1918,2293.9-1918.1,2294.6z"/>
		<path class="st2" d="M-1846.8,2299.3c0.3,0.4,0.7,0.7,0.7,1.3c0,0.1,0.2,0.3,0.4,0.4c0.4,0.2,0.7,0.4,1.1,0.5
			c0.5,0.1,0.9,0.3,1.3,0.6c0.3,0.3,0.7,0.4,1.2,0.3c0.3,0,0.7,0,1.1,0c0.2,0,0.4-0.2,0.5-0.3c0.2-0.3,0.2-0.6,0.5-0.7
			c0.3-0.2,0.5-0.4,0.7-0.7c0.4-0.5,1-0.8,1.6-0.6c0.2,0,0.4,0,0.6-0.1c0.2-0.1,0.3-0.2,0.5-0.4c0.1-0.1,0.1-0.2,0.1-0.3
			c0-0.2,0.2-0.3,0.3-0.4c0.1-0.1,0.2-0.1,0.3-0.2c0.1-0.1,0.2-0.3,0.3-0.5c0-0.2,0-0.5,0-0.7c-0.1-0.3-0.2-0.6-0.4-0.8
			c0.2-0.6-0.2-0.8-0.7-0.9c-0.9-0.2-1.8-0.3-2.7-0.5c-0.1,0-0.1,0-0.2,0c-0.2,0.1-0.4,0.2-0.5,0.3c-0.1,0.1-0.1,0.2,0,0.3
			c0.4,0.5,0.6,1.1,0.6,1.7c0,0.2,0,0.3,0.1,0.5h0.1l0.1,0.1l-0.1-0.1v-0.1c-0.1,0-0.2-0.1-0.3-0.2c-0.5-0.5-0.8-1.2-0.9-1.8
			c0-0.5-0.4-0.6-0.8-0.7c-0.4-0.1-0.8-0.2-1.2-0.2c-0.1,0-0.3,0.1-0.3,0.2c-0.1,0.2-0.2,0.4-0.3,0.7c0,0.3,0,0.7,0,1l0,0l0,0h0.1
			c-0.3,0-0.2,0.1-0.2,0.1c-0.1-0.1-0.2-0.1-0.2-0.2l0,0l0,0l0,0c-0.6-0.1-1.2-0.3-1.6-0.7c-0.4-0.3-1-0.6-1.5-0.6
			c-0.3,0-0.5,0.1-0.7,0.3c-0.2,0.5-0.3,0.9-0.5,1.4c-0.1,0.2-0.1,0.4,0,0.5C-1847.4,2298.4-1847.1,2298.8-1846.8,2299.3z
			 M-1839.1,2298.4L-1839.1,2298.4L-1839.1,2298.4L-1839.1,2298.4c-0.1,0-0.1,0-0.1-0.1C-1839.2,2298.4-1839.1,2298.4-1839.1,2298.4
			z M-1842.9,2297.2L-1842.9,2297.2L-1842.9,2297.2L-1842.9,2297.2l-0.2-0.1C-1843.1,2297.2-1843,2297.2-1842.9,2297.2z"/>
		<path class="st2" d="M-1902.2,2298.7c0,0.1,0.1,0.2,0.1,0.3c0,0.3-0.1,0.5-0.1,0.8c0.2,0.7,0.3,1.3,0.5,2c0.1,0.5,0.4,0.9,0.8,1.3
			c0.1,0.1,0.3,0.1,0.4,0.1c0.1,0,0.3-0.1,0.3-0.2c0.6-0.8,1.4-1.4,2.3-1.8c0.4-0.2,0.8-0.5,1.1-0.8c0.2-0.2,0.4-0.5,0.6-0.8
			c0.1-0.2,0.1-0.4,0-0.5c-0.1-0.3-0.3-0.5-0.5-0.8c-0.2-0.4-0.6-0.7-1.1-0.8c-0.7-0.2-1.3-0.5-1.9-0.8c-0.7-0.2-1.3-0.4-1.9-0.7
			c-0.3-0.1-0.5-0.2-0.8-0.2c-0.1,0-0.3,0-0.4,0.1c-0.3,0.6-0.6,1.1-0.2,1.7C-1902.6,2297.9-1902.4,2298.3-1902.2,2298.7z"/>
		<path class="st2" d="M-1832.5,2296.9c1,0.4,2.1,0.6,3.2,0.7c0.3,0,0.6-0.1,0.9-0.1c0.5-0.1,1-0.4,1.2-1c0.1-0.2,0.1-0.4,0-0.5
			c-0.3-0.5-0.9-0.8-1.5-0.8c-0.5,0-1,0.2-1.4,0.3c-0.6,0-1.1-0.1-1.7-0.1c-0.1,0-0.3,0-0.4,0.1c-0.3,0.1-0.7,0.2-1,0.1
			c-0.2,0-0.3,0.3-0.2,0.4C-1833.3,2296.4-1833,2296.8-1832.5,2296.9z"/>
		<path class="st2" d="M-1835.1,2307.2c0.1,0,0.1,0.1,0.2,0c0.6-0.3,1.3-0.5,2-0.4c0.8,0,1.5-0.1,2.3-0.2c0.2,0,0.4-0.2,0.4-0.5
			c0-0.1,0-0.2-0.1-0.2c-0.4-0.6-0.9-1-1.6-1.2c-0.3-0.1-0.7-0.2-1-0.3c-0.3,0-0.7-0.1-1.1,0c-0.3,0-0.6,0.2-0.8,0.6
			c-0.1,0.4-0.2,0.7-0.3,1.5c0,0-0.1,0.3-0.2,0.7C-1835.2,2307.1-1835.1,2307.1-1835.1,2307.2z"/>
		<path class="st2" d="M-1758,2348.4c-0.2-0.1-0.4-0.2-0.6-0.1c-0.2,0.1-0.3,0.2-0.5,0.3c-0.3,0.2-0.4,0.5-0.3,0.8
			c0.1,0.4,0.3,0.8,0.4,1.2c0,0,0.1,0,0.1,0.1l0.1-0.1c0.2-0.5,0.5-0.9,0.9-1.2C-1757.6,2348.9-1757.7,2348.6-1758,2348.4z"/>
		<path class="st2" d="M-1836.7,2303.3c-0.2-0.1-0.4,0-0.6,0.1c-0.1,0.1-0.2,0.3-0.2,0.5c0.1,0.5,0.4,1,0.9,1.1
			c0.2,0.1,0.4,0,0.5-0.2s0.1-0.3,0.2-0.5C-1835.9,2303.8-1836.2,2303.4-1836.7,2303.3z"/>
		<path class="st2" d="M-1758.3,2375.6c-0.1,0-0.2,0-0.4,0.1c-0.1,0-0.1,0.1-0.2,0.1c-0.3,0.5-0.5,1-0.7,1.5
			c-0.1,0.1,0.1,0.3,0.2,0.5c0,0,0.1,0,0.2,0.1c0.1,0,0.2-0.1,0.3-0.2c0.5-0.5,0.7-1.2,0.6-1.8
			C-1758.2,2375.7-1758.3,2375.6-1758.3,2375.6z"/>
		<path class="st2" d="M-1848.1,2300.8c0.1-0.1,0.2-0.2,0.3-0.3c0-0.2-0.1-0.3-0.1-0.5c-0.2-0.5-0.6-0.9-1.1-1
			c-0.1,0-0.3-0.1-0.4-0.2c-0.1-0.1-0.3-0.1-0.3,0l0,0l0,0c0,0.1,0,0.1,0,0.2C-1849.2,2299.6-1848.7,2300.2-1848.1,2300.8
			C-1848.3,2300.8-1848.2,2300.8-1848.1,2300.8z"/>
		<path class="st2" d="M-1794.8,2368.4c-0.1,0.2,0.1,0.5,0.5,0.6c0.1,0,0.3,0.1,0.4,0.1c0.2-0.1,0.3-0.2,0.4-0.3
			c0.2-0.3,0.1-0.7-0.4-0.9C-1794.2,2367.9-1794.7,2368.1-1794.8,2368.4z"/>
		<path class="st2" d="M-1914.5,2327.4c-0.1-0.1-0.3-0.1-0.4,0c-0.4,0.2-0.5,0.6-0.3,1c0,0,0,0.1,0.1,0.1c0.2,0.2,0.6,0.3,0.9,0.2
			c0.1,0,0.2-0.1,0.3-0.2C-1913.8,2328.2-1914.1,2327.7-1914.5,2327.4z"/>
		<path class="st2" d="M-1903,2308.4c0.5,0.1,1-0.2,1.1-0.8l0,0c-0.1-0.1-0.1-0.2-0.2-0.3c-0.1,0-0.1,0-0.2,0
			c-0.3,0.2-0.6,0.3-0.8,0.5c-0.1,0.1-0.1,0.2-0.1,0.3S-1903.2,2308.3-1903,2308.4z"/>
		<path class="st2" d="M-1892,2299.8c0.1,0,0.1-0.1,0.1-0.1c-0.1-0.1-0.1-0.3-0.2-0.3c-0.5-0.1-1.1,0.2-1.6-0.1
			c-0.1,0-0.1,0.1-0.1,0.1s0,0.1,0,0.2C-1893.4,2300.1-1892.6,2300.2-1892,2299.8z"/>
		<path class="st2" d="M-1916.3,2318.3c0,0.2,0.2,0.4,0.4,0.4c0.2,0.1,0.4-0.1,0.4-0.4c-0.1-0.1-0.1-0.3-0.2-0.4
			C-1915.9,2317.7-1916.4,2317.9-1916.3,2318.3z"/>
		<path class="st2" d="M-1911.3,2309.1c0.1,0,0.3-0.1,0.3-0.1c0.1-0.2,0-0.3-0.2-0.4c-0.1-0.1-0.3,0-0.3,0.1l0,0
			C-1911.5,2308.8-1911.5,2308.9-1911.3,2309.1L-1911.3,2309.1z"/>
		<path class="st2" d="M-1843,2306.2c0.1,0.4,0.5,0.5,0.9,0.4l0.1-0.1c0-0.1,0-0.1-0.1-0.2
			C-1842.3,2306.2-1842.7,2306.1-1843,2306.2z"/>
		<path class="st2" d="M-1901,2309.4c-0.1,0-0.1,0.1-0.1,0.1c0,0.1,0,0.2,0.2,0.2c0.1,0,0.2-0.1,0.2-0.2c0,0,0,0,0-0.1
			C-1900.7,2309.4-1900.8,2309.4-1901,2309.4C-1900.9,2309.4-1900.9,2309.4-1901,2309.4z"/>
		<path class="st2" d="M-1760.1,2375.6v0.1c0.1,0.1,0.2,0.1,0.2-0.1c0-0.1-0.1-0.1-0.1-0.1
			C-1759.9,2375.6-1760,2375.6-1760.1,2375.6z"/>
		<path class="st2" d="M-1795.7,2368.7L-1795.7,2368.7c0.2,0.1,0.3,0,0.3-0.1l-0.1-0.1C-1795.6,2368.4-1795.7,2368.6-1795.7,2368.7z
			"/>
		<path class="st2" d="M-1910,2319.9c0.1-0.1,0.1-0.2-0.1-0.2L-1910,2319.9C-1910.1,2319.9-1910,2319.9-1910,2319.9z"/>
		<polygon class="st2" points="-1910.1,2321.3 -1910.3,2321.2 -1910.3,2321.3 		"/>
		<path class="st2" d="M-1917.7,2321.7c-0.1,0.1,0,0.2,0.1,0.3c0.1,0,0.1-0.1,0.1-0.1c0-0.1,0-0.2-0.1-0.3c0,0,0,0-0.1,0
			C-1917.6,2321.6-1917.6,2321.7-1917.7,2321.7z"/>
		<path class="st2" d="M-1911.6,2323.1L-1911.6,2323.1l0.1-0.1C-1911.6,2322.9-1911.7,2322.9-1911.6,2323.1z"/>
		<path class="st2" d="M-1843.6,2306.1l0.1,0.1c0.1,0,0.2,0,0.4,0c0-0.1-0.1-0.2-0.2-0.3
			C-1843.4,2305.9-1843.5,2305.9-1843.6,2306.1z"/>
		<path class="st2" d="M-1843.1,2306.2L-1843.1,2306.2C-1843,2306.2-1843,2306.2-1843.1,2306.2L-1843.1,2306.2
			C-1843.1,2306.2-1843,2306.2-1843.1,2306.2z"/>
		<path class="st2" d="M-1915.9,2316.1v-0.1c-0.1,0-0.1,0-0.2,0c-0.2,0-0.1,0.1,0.1,0.1C-1916,2316.2-1915.9,2316.1-1915.9,2316.1z"
			/>
		<path class="st2" d="M-1917.3,2316.4c0,0,0.1,0,0.2,0c0,0,0-0.1,0.1-0.1C-1917.3,2316.3-1917.3,2316.3-1917.3,2316.4z"/>
		<path class="st2" d="M-1776.6,2382.3C-1776.6,2382.3-1776.5,2382.4-1776.6,2382.3C-1776.5,2382.3-1776.5,2382.3-1776.6,2382.3
			L-1776.6,2382.3L-1776.6,2382.3z"/>
		<path class="st2" d="M-1776.2,2382.7c0-0.2-0.2-0.3-0.4-0.3C-1776.5,2382.4-1776.3,2382.7-1776.2,2382.7z"/>
		<polygon class="st2" points="-1899.8,2308.9 -1899.6,2308.9 -1899.7,2308.8 -1899.8,2308.8 		"/>
		<path class="st2" d="M-1856,2311.7l0.1-0.1l-0.1-0.1l-0.1,0.1C-1856.1,2311.6-1856.1,2311.7-1856,2311.7z"/>
		<polygon class="st2" points="-1912.6,2323.1 -1912.8,2323.1 -1912.6,2323.2 		"/>
		<path class="st2" d="M-1759.4,2353.4C-1759.4,2353.4-1759.4,2353.4-1759.4,2353.4C-1759.3,2353.4-1759.3,2353.4-1759.4,2353.4
			C-1759.3,2353.4-1759.4,2353.4-1759.4,2353.4z"/>
		<path class="st2" d="M-1759.5,2353.3L-1759.5,2353.3L-1759.5,2353.3C-1759.4,2353.4-1759.4,2353.4-1759.5,2353.3L-1759.5,2353.3z"
			/>
		<path class="st2" d="M-1826.9,2312.2C-1827,2312.2-1827,2312.2-1826.9,2312.2C-1827,2312.3-1827,2312.3-1826.9,2312.2
			L-1826.9,2312.2L-1826.9,2312.2L-1826.9,2312.2L-1826.9,2312.2z"/>
		<path class="st2" d="M-1739.3,2316.1v-0.1l0-0.2l0-0.1c-0.1-0.5-0.3-1.7-1.5-2.3c-0.1-0.7-0.5-1.4-1-1.9c0.2-0.3,0.3-0.7,0.4-1.1
			c0.3-0.8,0-1.8-0.7-2.5c-0.1-0.1-0.2-0.3-0.2-0.6c0-1.4-1-2.3-2.4-2.3h-0.2c-0.7-0.2-1.4-0.3-2.1-0.4c0,0-0.1-0.1-0.2-0.1
			l-0.1-0.1c-0.4-0.1-0.8-0.3-1.2-0.3c-0.7,0-1.4,0.3-2.1,0.8l-0.1,0.1c-0.2,0.2-0.4,0.3-0.5,0.3c-0.3,0.1-0.6,0.2-0.9,0.4
			c-0.8-0.5-1.9-0.8-2.9-0.8h-1l-0.1,0l-0.3-0.1c-0.6-0.1-1.3-0.2-2-0.2h-0.4c-0.6,0-1.2-0.1-1.7-0.2c-0.6-0.2-1.2-0.2-1.6-0.2
			c-0.5,0-0.9,0.1-1.3,0.2c-0.6-0.4-1.4-0.7-2.1-0.7c-1.8-0.3-3.4-0.5-4.9-0.5h-0.4c-0.5-0.1-0.8-0.1-1.2-0.1
			c-0.9,0-1.9,0.2-2.8,0.6l-0.1,0.1c-0.3,0.2-0.7,0.3-1.2,0.4l0,0c-0.2,0-0.4,0-0.6,0.1c-0.1,0-0.3,0-0.4,0l-0.2,0
			c-0.3,0.1-0.5,0.1-0.9,0.1c-0.4,0-0.9,0-1.3,0.1c-0.6,0-1.1,0.4-1.5,0.9l-0.1,0.2c0,0.1-0.1,0.2-0.2,0.3c-0.1,0-0.2,0-0.3,0h-0.5
			l-0.1,0c-1.2,0.2-2.5,1.3-2.5,2.6v0.3c-0.4,0.1-0.7,0.1-1,0.2l-0.4,0.1c0,0-0.1,0-0.1,0c0,0-0.8,0-0.8,0c-0.2,0-0.6,0-1,0.2
			l-0.1,0.1c-0.3,0.2-0.6,0.3-0.9,0.4c-0.5,0.2-1,0.5-1.6,0.8c-0.7,0.3-1.3,0.5-1.9,0.6c-0.6-1.3-1.6-2.3-2.9-2.9
			c-0.1,0-0.1-0.1-0.1-0.1c0,0,0.1,0,0.1,0.1c0,0-0.1,0-0.1,0l-0.1-0.1c-1-0.7-2.2-1.1-3.5-1.1c-1,0-1.8,0.2-2.4,0.5
			c-0.1,0-0.2,0.1-0.3,0.1l-0.3,0.1c-1.5,0.5-2.7,1.1-3.7,1.7c-0.2,0.1-0.4,0.2-0.5,0.4c-0.4-0.4-0.9-0.7-1.5-0.8
			c-0.2-0.1-0.4-0.1-0.6-0.3l-0.1-0.1c-0.4-0.2-0.9-0.2-1.1-0.2c-0.3,0-0.7,0.1-1,0.2c-0.2-0.1-0.4-0.1-0.6-0.1
			c-0.1-0.5-0.4-1-0.9-1.4l-0.3-0.3l-0.2-0.1c-0.9-0.6-1.9-0.9-3-0.9c-0.3,0-0.7,0-1.1,0.2l-0.3,0.1c-0.1,0-0.2,0-0.3,0.1
			c-0.2,0-0.4,0.1-0.6,0.1c-0.5,0.1-1,0.4-1.5,0.7l0,0l0,0c-0.6-0.1-1.3-0.2-2-0.2h-0.7c-1,0-2,0.1-2.9,0.2h0l-0.2,0
			c-0.3,0.1-0.5,0.1-0.9,0.1c-0.3,0-0.8,0-1.1-0.1l-0.2,0h-0.2c-0.6,0-1.2,0.2-1.7,0.5c-0.6,0.5-1,1.1-1,1.7l0.1,0.1v0.6l0.1,0.4
			c0,0,0,0.1,0,0.1c-0.3,0.5-0.3,1-0.2,1.6c0.1,0.6,0.4,1.2,0.8,1.6c-0.2,0-0.4,0-0.6,0h-0.4c-1.1,0-2.1,0.5-2.7,1.4
			c-0.4,0-0.7-0.1-1-0.4l-0.2-0.1c-0.1,0-0.1-0.1-0.1-0.1c-0.1-0.1-0.2-0.1-0.4-0.2l-0.5-0.1h-0.1c-0.5,0-1,0.3-1.1,0.3l-0.1,0.1
			c-0.6,0.4-0.9,1-0.9,1.6c0,0,0,0.4,0,0.4c-0.1-0.2-0.3-0.4-0.6-0.5c-0.2-0.6-0.6-1.5-1.4-2.1c-0.2-0.2-0.4-0.3-0.6-0.4
			c-0.2-0.4-0.5-0.7-0.6-0.8c-0.1-0.1-0.2-0.2-0.3-0.2c0,0-0.1,0-0.1-0.1c0,0,0,0,0.1,0.1l-0.3-0.4c-0.2-0.1-0.3-0.3-0.4-0.4
			c-0.2-0.2-0.4-0.4-0.7-0.6l-0.2-0.1l-0.2-0.1c-1.2-0.6-2.4-0.9-3.8-1c-0.4,0-0.7,0.1-1,0.2l-0.2,0.1c-0.6-0.2-1.2-0.2-1.9-0.2
			c-0.4,0-1,0-1.6,0.1c-0.6,0.1-1,0.4-1.3,0.6c-0.7,0.4-1.2,1-1.3,1.6c-0.1,0.4-0.2,0.9,0.1,1.6c-0.1,0-0.2,0.1-0.4,0.1
			c0,0,0,0-0.1,0c-0.2-0.2-0.7-0.5-1.4-0.5c-0.3,0-0.6,0.1-0.8,0.1c-0.5-0.8-1.4-1.3-2.3-1.3h-0.3l-0.2,0l-0.9,0.2
			c-0.5,0.1-0.9,0.1-1.4,0.2c-0.3,0.1-0.6,0.1-1,0.2c-0.5,0.1-1.1,0.2-1.6,0.4c-0.2,0.1-0.5,0.2-0.7,0.3l-0.4-0.2l-0.2-0.1l-0.4-0.1
			h-0.6l-0.7,0.3l-0.2,0.2c-0.5-0.5-1.1-0.6-1.5-0.6c0,0,0,0-0.1,0c0-0.1,0.1-0.2,0.1-0.3l0.1-0.3v-0.1c0.1-0.5,0.2-0.9,0.3-1.3
			c0.4-1.2,0.3-2.5-0.3-3.5l-0.5-0.4c-0.1,0-0.2-0.1-0.4-0.6c-0.2-0.7-0.6-1.2-1.1-1.4c-0.4-0.3-0.8-0.6-1-0.8l-0.1-0.1l-0.2-0.2
			l-0.2-0.1c-0.5-0.3-1-0.5-1.5-0.5c-0.1,0-0.3,0-0.4,0c-0.3-0.2-0.8-0.4-1.2-0.6c-0.4-0.2-0.8-0.3-1.1-0.5
			c-0.5-0.4-1.1-0.5-1.8-0.5c-0.6,0-1.2,0.2-1.6,0.4c-0.6,0.3-1.3,0.6-1.8,0.8c-0.5-0.6-1.2-0.9-2-0.9h-0.3l-0.3,0.1
			c0,0-0.1,0-0.1,0c-0.3-0.7-1-1.1-1.3-1.4l-0.1-0.1l-0.2-0.1l-0.5-0.2l-0.2-0.1l-2.1-0.3l-0.1,0h-0.3c-0.6,0-1.2,0.2-1.6,0.6
			c-0.4,0.3-0.7,0.6-0.8,0.9c-0.8,1.4-1.1,2.9-0.9,4.4v0.1c0,0.7,0.1,1.3,0.4,1.8c-0.3,0.2-0.6,0.5-0.7,0.8
			c-0.1,0.1-0.1,0.3-0.2,0.5c-0.3-0.1-0.6-0.2-1-0.2c-1,0-1.8,0.4-2.3,1h-0.1l-0.1,0c-0.9,0.1-1.6,0.5-2.3,1.2
			c-0.2,0.2-0.7,0.7-0.9,1.6c0,0,0,0.2,0,0.2c-0.8,0.2-1.5,0.7-2.2,1.3l-0.4,0.4c-0.2,0.2-0.6,0.6-0.8,1.1c-0.8,0.3-1.2,0.9-1.3,1.3
			c-0.4,0.4-0.7,0.8-0.9,1.2c-0.5,1.1-0.2,2.3-0.1,2.8l0.1,0.1c0.2,0.3,0.4,0.7,0.8,1c-0.6,0.2-1.3,0.4-1.9,0.5l-0.5,0.3l0,0
			c0,0,0,0,0,0c-0.1,0-0.3,0.1-0.5,0.1c-1.2,0.4-1.6,1.1-1.9,1.7l-0.1,0.2c-0.1,0.5-0.3,1.4,0.3,2.3c-0.6,0-1.2,0.2-1.6,0.5
			c-0.2,0.2-0.5,0.4-0.7,0.6c-0.2-0.2-0.5-0.4-0.8-0.6c-0.4-0.3-0.9-0.3-1.1-0.3l-0.2,0l-0.4,0.1l-0.3,0.1c-1,0.4-1.5,1.6-1.2,2.6
			l0.1,0.1c0,0.1,0.1,0.1,0.1,0.1l0.1,0.3c0,0.1,0.1,0.2,0.1,0.3c-0.7,0.8-0.9,1.9-0.7,2.8v0.5c0,0.5,0.2,0.9,0.4,1.2l0.1,0.2
			l0.2,0.3c0.2,0.2,0.5,0.4,0.7,0.6c0.2,0.1,0.3,0.3,0.4,0.4l0.3,0.2l0.1,0c0.1,0.1,0.3,0.3,0.5,0.4c0,0.4,0,0.9,0.1,1.3v0.1
			l0.1,0.4c0.1,0.3,0.2,0.5,0.3,0.7c0.1,0.2,0.2,0.4,0.3,0.7l0.2,0.3l0.7,1.1l0.2,0.3l0.1,0.2l0.4,0.4l0.3,0.2
			c0.1,0.1,0.4,0.2,0.7,0.2l0.1,0.4l0.3,0.5l5.7,5l0.2,9l-0.6,3.8l0,0.2v0.4l0,0.2c0.3,1.1,0.6,2.3,0.8,3.5c0,1.2,0.6,5.5,0.8,6.5
			l0.3,4.4l0.2,7.3c0,0.8-0.1,1.5-0.2,2c-2,0.3-6.4,1.2-7.5,1.4l-5.4-0.3l-3.3-1l-0.3,0h-0.6l-0.3,0.1l-7.2,2.4l-0.4,0.3l-0.7,0.8
			l-0.2,0.5l-1,5.6l-0.4,1.3l0.1,0.8l0.8,1.2l0,0c-0.2,0.1-0.4,0.3-0.6,0.5c-0.3,0.4-0.5,0.8-0.5,1.2l-0.6,0.6l-0.3,0.5l-0.1,0.5
			l0.1,0.6l0.4,1l0.3,0.4c0.3,0.2,0.5,0.4,0.6,0.7c0.6,1,1.5,1.8,2.6,2.2c0.1,0.8,0.5,1.6,1,2.2c0,0,0,0,0,0l0,0.2
			c0,0.4,0,0.9,0.2,1.5c0.2,0.7,0.8,1.3,1.4,1.7c0.1,0.1,0.1,0.2,0.2,0.3l0.2,0.3l0.6,0.6l0.1,0.1c0,0.5,0.1,1,0.2,1.4l0.2,0.5
			l0.6,0.7l0.4,0.3l9.4,3.2l0.6,0l1.2-0.4l0.5-0.4l3.9-6.7l2.9-0.9l4.4,2l0.9,0l1.4-0.7l0.5-0.7l1.5-8.4l5-5.2l12.9-6h0.9l0.8-0.4
			l0.9-1.3l0.1-0.9l-0.2-0.6l6.2-4.6l7.7,1.8l0.4,0l0.7-0.1l0.4-0.1l12.7-7.6l14.6,2.5l0.2,0h8.8l0.5-0.1l0.9-0.5l0.4-0.4l0.6-1
			l0.1-0.4l0.1-0.7l0-0.4l-1.2-5.3l7.3,1.4l9.6,5.8l7.4,5.6l3.3,13.1l0.8,0.7l1.5,0.3l-0.1,0.2c-0.2-0.1-0.3-0.2-0.4-0.2
			c0.1,0.1,0.3,0.2,0.4,0.3c0,0,0.1,0,0.1,0.1c0.1,0.1,0.3,0.2,0.5,0.3c0.6,0.3,1.2,0.3,1.6,0.3c0.6,0,1-0.1,1.3-0.3
			c0.8-0.3,1.4-0.7,1.9-1.2l0.1-0.1c0.7-0.7,1.2-1.6,1.6-2.5c0.6-1.2,1.2-2.3,1.5-3.5l0-0.1c0.9-1.3,1.4-2.7,1.4-4.2
			c0.1-0.5,0.2-0.9,0.3-1.3c0.1-0.5,0.2-1,0.3-1.5l0-0.1c0.1-0.1,0.1-0.3,0.2-0.4l0.1,0.1c0.1,0.9,0.4,1.7,0.8,2.4
			c0.1,0.2,0.1,0.2,0.1,0.3c0,0.3,0,0.7,0.1,1.1c0.2,0.8,0.7,1.6,1.5,2.1c0.1,0.1,0.2,0.1,0.2,0.1l0.5,0.3l0.4,0.1l0.2,0
			c0.6,0,1.3-0.2,1.8-0.7c0.2,0,0.3,0,0.4,0c0.7,0,1.3-0.3,1.7-0.9l0.1-0.2c0.1-0.2,0.5-0.8,0.4-1.5c0-0.2,0-0.5-0.2-0.8
			c-0.3-0.9-0.9-1.5-1.7-1.9c0,0-0.1-0.1-0.2-0.3c-0.2-0.4-0.6-0.7-1-1c-0.1-0.1-0.1-0.3-0.2-0.5c0-0.3-0.1-0.5-0.1-0.7l0.1,0
			l0.9-0.8l0.3-0.6c0.2-0.9-0.1-1.8-0.6-2.4c-1.1-1.9-2.5-3.8-4.1-5.7l-0.6-0.7c-0.1-0.1-0.2-0.3-0.2-0.4c0-0.7-0.2-1.4-0.5-1.9
			c-0.1-0.1-0.1-0.3-0.2-0.4c-0.1-0.1-0.1-0.2-0.2-0.3l-0.1-0.2c-0.4-0.7-0.8-1.5-1.7-2c0-0.1-0.1-0.1-0.1-0.2
			c-0.1-0.1-0.1-0.1-0.1-0.2l-0.1-0.2c-0.5-0.8-1.4-1.3-2.5-1.4l-0.2,0c-0.9,0-1.5,0.6-1.7,0.8c-0.3,0.3-0.5,0.6-0.6,0.9
			c-0.2-0.1-0.3-0.2-0.5-0.3c-0.5-0.3-1-0.5-1.7-0.5h-1.1c-0.6,0-1.1,0.2-1.5,0.4c-0.4-0.2-0.8-0.3-1.1-0.3l-0.2,0l0,0
			c-0.3-0.3-0.6-0.5-1-0.7c0.5-0.8,0.8-1.6,0.8-2.3c0.2-1.2,0.5-2.1,0.9-2.7c0.7-1.1,1-2.4,0.9-3.8c0.5-0.7,0.7-1.4,0.6-2.2l0.1,0
			c0.8-0.2,1.7-0.5,2.4-0.7c0.2,0.1,0.5,0.2,0.9,0.2c0.7,0,1.4-0.3,1.9-0.9c0.8,0,1.7-0.1,2.5-0.3c0.8-0.2,1.4-0.7,1.7-1.4
			c0,0,0,0,0-0.1c0.1,0,0.5,0,0.6,0c0.1,0.4,0.4,0.8,0.8,1.1c0.5,0.5,1.2,0.7,1.9,0.7c0.2,0,0.6,0,1-0.2c0.9-0.3,1.7-0.8,2.3-1.3h0
			c0.8,0,1.5-0.3,2-0.8l0,0c1.3-0.9,1.3-2,1.1-2.7c-0.3-1.2-1.2-1.6-1.8-1.8l0,0c0.3-0.7,0.6-1.6,0.5-2.6v-1.4
			c0.3-0.1,0.7-0.2,1-0.4l0.2-0.1l0,0c0.3,0.9,0.9,1.7,1.8,2.1c0.4,0.2,0.7,0.4,1,0.5l0.4,0.1l0.5,0.1l0.2,0c0.3,0,0.6-0.1,0.9-0.2
			c0,0.4-0.1,0.8-0.3,1.2l0,0.1l-0.1,0.2c-0.1,0.3-0.2,0.7-0.2,1v0.8c0,0.2,0,0.4,0,0.6c0,0.5,0,1.1,0,1.8c0,0,0,0.2-0.1,0.3
			c-0.3,0.3-0.4,0.5-0.5,0.7l-0.1,0.1c-0.5,0.3-1.1,0.8-1.2,1.7c-0.2,0.9,0.3,1.5,0.6,1.8c0,0,0,0,0,0c0,0.1,0,0.1-0.1,0.2
			c-0.1,0.1-0.1,0.3-0.2,0.4c-0.3,0.8-0.4,1.6-0.2,2.4l0,0.1c0.2,0.8,0.5,1.7,0.8,2.3c1.1,2.7,2.6,5.1,4.2,6.9
			c0.1,0.1,0.1,0.1,0.2,0.2c0.1,0.1,0.2,0.3,0.3,0.4c0.1,0.1,0.3,0.3,0.4,0.5c0.1,0.1,0.1,0.2,0.2,0.3c0.4,0.6,0.7,1.1,1.3,1.6
			l0.2,0.1c0.1,0.1,0.3,0.3,0.5,0.6l0.1,0.1c0.1,0.1,0.1,0.2,0.2,0.3c0.1,0.2,0.2,0.4,0.3,0.6l0.2,0.5c0.4,0.8,1.2,1.5,2,1.8
			l0.2,0.1l0.3,0.1l0.5,0.1l0.2,0c0.4,0,0.8-0.2,1-0.3l0.3-0.2l0.1-0.1c0.6-0.5,0.9-1,1.1-1.7c0,0,0-0.1,0.1-0.1
			c0.8-1.3,0.9-2.9,0.4-4.4c0,0,0,0,0.1,0c0.6-0.3,1.1-0.9,1.1-1.5c0.2-0.6,0-1.3-0.4-1.8l0,0c0-0.1-0.1-0.2-0.2-0.3
			c0,0-0.1-0.1-0.1-0.2c0,0,0-0.1,0-0.1c0-0.1,0-0.2,0-0.4c0,0,0.1,0,0.1-0.1c0.1-0.1,0.3-0.1,0.4-0.1l0.5-0.3l0,0
			c1.1-0.9,1.4-2.3,0.7-3.5l-0.1-0.2l-0.1-0.1c-0.2-0.3-0.5-0.6-0.8-0.8c-0.1-0.1-0.2-0.2-0.4-0.4c0,0-0.1-0.1-0.1-0.1
			c0.4-0.2,0.7-0.6,0.9-1c0.4-0.7,0.4-1.6,0-2.4c-0.2-0.3-0.4-0.6-0.6-0.8c-0.1-0.1-0.1-0.1-0.2-0.2c0,0-0.1-0.1-0.1-0.1
			c-0.3-0.6-0.8-1.1-1.4-1.3c0-0.3,0-0.6-0.1-0.9c-0.1-0.5-0.4-1-0.9-1.5l-0.1-0.1c-0.7-0.6-1.4-0.9-2.2-0.9c0,0,0,0,0,0
			c0.1-1.1,0-2.1-0.4-3.1c0.2-0.1,0.4-0.2,0.6-0.3c0.2,0.1,0.5,0.1,0.7,0.1c0.6,0,1.3-0.3,1.8-0.8l0.2-0.2l0.2-0.3l0.1-0.2l0.1-0.1
			c0-0.1,0.2-0.6,0.2-1c0,0,0-0.1,0-0.1l0.1-0.1c0.1-0.1,0.2-0.1,0.3-0.2l0.2,0.1c0.1,0.1,0.3,0.2,0.4,0.3l0.3,0.2l0.2,0.1
			c0,0,0.1,0,0.1,0.1c0.2,0.1,0.4,0.3,0.7,0.4c0.5,0.2,0.8,0.2,1.2,0.2c1.2,0,2.2-0.9,2.4-2.1l0-0.1v-0.2c0-0.5-0.1-0.8-0.2-1.1
			c0,0,0-0.1,0-0.1c0.1-0.2,0.1-0.3,0.1-0.5c0-0.1,0-0.2,0.1-0.3c0.2-0.8,0.3-1.5,0.4-2.3c0.1-0.7,0.3-1.2,0.6-1.6
			c0.5-0.6,0.8-1.4,1-1.8c0.2-0.5,0.5-0.9,0.9-1.2h1.4c0.3,0,0.8,0,1.1-0.1c0.7-0.2,1.6-0.8,1.7-1.7c0.4-1.5-0.2-3-1.4-4.1
			c-0.1-0.1-0.1-0.2-0.2-0.2c0-0.1-0.1-0.1-0.1-0.2c-0.3-0.4-0.7-0.9-1.4-1.1c0,0-0.1,0-0.1-0.1c-0.1-0.1-0.3-0.1-0.4-0.2
			c-0.3-0.2-0.5-0.3-0.8-0.4c0,0,0,0,0,0c-0.3-0.8-1-1.4-1.8-1.7c-0.1-0.1-0.2-0.3-0.3-0.4c0.2-0.4,0.3-0.9,0.3-1.3
			c0.1-0.8,0.1-1.6,0.1-2.5c0-0.6-0.1-1-0.4-1.5c0.2-0.2,0.4-0.5,0.6-0.7c0.6,0.5,1.4,0.9,2.1,0.9c0.6,0,1-0.1,1.5-0.4
			c0.1,0,0.2-0.1,0.2-0.1h1.4c0.5,0,1-0.2,1.3-0.3c0.3-0.1,0.6-0.2,0.9-0.4c0.6-0.1,1.1-0.4,1.4-0.8
			C-1739.4,2317.1-1739.2,2316.7-1739.3,2316.1z M-1912.7,2402.9c-0.3,0.4-0.8,0.6-1.3,0.5c-0.5-0.1-0.9-0.2-1.4-0.4
			c-0.2-0.1-0.4-0.3-0.4-0.6c-0.2-1.2,1.3-2.3,2.5-2.2c0.3,0,0.5,0.1,0.7,0.4c0.1,0.3,0.3,0.6,0.4,0.8
			C-1912.3,2401.9-1912.5,2402.4-1912.7,2402.9z M-1885.1,2315.6c0,0.2,0.1,0.3,0.1,0.5C-1885.1,2315.9-1885.1,2315.8-1885.1,2315.6
			z M-1882.2,2315.4C-1882.1,2315.4-1882.1,2315.4-1882.2,2315.4C-1882.1,2315.4-1882.1,2315.4-1882.2,2315.4z M-1820.6,2309.3
			c0.1-0.1,0.1-0.1,0.2-0.1l0,0C-1820.5,2309.2-1820.5,2309.2-1820.6,2309.3c0,0.1,0,0.1,0,0.1
			C-1820.6,2309.3-1820.6,2309.3-1820.6,2309.3z M-1820.8,2309.9c-0.1,0.1-0.1,0.1-0.2,0.1c-0.2,0-0.3-0.1-0.3-0.2
			c-0.1-0.3,0-0.4,0.3-0.5c-0.3,0.1-0.3,0.2-0.3,0.5c0.1,0.1,0.2,0.2,0.3,0.2C-1820.9,2310.1-1820.9,2309.9-1820.8,2309.9
			c0.1-0.1,0.3-0.3,0.4-0.4C-1820.5,2309.8-1820.7,2309.9-1820.8,2309.9z"/>
		<polygon class="st2" points="-1818.8,2310.4 -1818.8,2310.4 -1818.8,2310.4 		"/>
		<polygon class="st2" points="-1883.5,2317.7 -1883.5,2317.7 -1883.5,2317.7 		"/>
		<path class="st2" d="M-1818.4,2310.9c0.1-0.3-0.1-0.5-0.5-0.6c-0.1,0.4-0.1,0.8-0.2,1.1l0.1,0.1h0.1h0.1
			C-1818.6,2311.4-1818.5,2311.2-1818.4,2310.9z"/>
		<path class="st2" d="M-1818.8,2310.4C-1818.8,2310.3-1818.8,2310.3-1818.8,2310.4l-0.1-0.1L-1818.8,2310.4
			C-1818.9,2310.4-1818.9,2310.4-1818.8,2310.4z"/>
		<path class="st2" d="M-1820.4,2309.2L-1820.4,2309.2L-1820.4,2309.2z"/>
		<path class="st2" d="M-1889.8,2310.9L-1889.8,2310.9C-1890,2310.9-1889.9,2310.9-1889.8,2310.9l0.4,0.4l0.1,0.1v-0.1
			L-1889.8,2310.9z"/>
		<polygon class="st2" points="-1886.8,2304.9 -1886.7,2304.9 -1886.8,2304.9 		"/>
		<path class="st2" d="M-1883,2318.1l-0.4-0.4l0,0c0,0,0,0,0,0.1L-1883,2318.1c0.1,0.1,0.3,0.3,0.4,0.4l0.1,0.1v-0.1L-1883,2318.1z"
			/>
		<path class="st2" d="M-1885,2315.4L-1885,2315.4l-0.2-0.1L-1885,2315.4L-1885,2315.4z"/>
	</g>
</g>
</svg>
