<?xml version="1.0" encoding="utf-8"?>
<!-- Generator: Adobe Illustrator 24.1.0, SVG Export Plug-In . SVG Version: 6.00 Build 0)  -->
<svg version="1.1" id="Слой_1" xmlns="http://www.w3.org/2000/svg" xmlns:xlink="http://www.w3.org/1999/xlink" x="0px" y="0px"
	 viewBox="0 0 960 480" style="enable-background:new 0 0 960 480;" xml:space="preserve">
<style type="text/css">
	.st0{fill:none;}
	.st1{fill-rule:evenodd;clip-rule:evenodd;fill:#FED841;}
	.st2{fill:none;stroke:#FED841;stroke-width:4;stroke-linecap:round;stroke-linejoin:round;stroke-dasharray:5,7;}
</style>
<g id="usa" transform="translate(4555 -2262)">
	<path id="Контур_4117" class="st0" d="M-4555,2262h960v480h-960V2262z"/>
	<g>
		<path class="st1" d="M-4380.8,2331.8c0.4,0,0.8,0.2,1,0.6c0.1,0.3,0.3,0.7,0.5,1c0.1,0.2,0.3,0.2,0.5,0.2c0.4-0.1,0.8-0.2,1.2-0.3
			c0.1,0,0.1-0.1,0.2-0.1c0-0.1,0-0.1,0-0.2c-0.3-0.4-0.5-0.8-0.7-1.3c-0.2-0.6-0.7-1-1.3-1c-0.3,0-0.6-0.3-0.9-0.5
			c-0.1,0-0.3,0-0.4,0c-0.3,0.2-0.6,0.5-0.8,0.9c0,0.2,0,0.4,0.2,0.5C-4381.2,2331.7-4381,2331.7-4380.8,2331.8z"/>
		<path class="st1" d="M-4379.8,2345.3c0.4-0.1,0.7-0.6,0.7-1c-0.1-0.3-0.4-0.4-0.7-0.5c-0.5,0.1-1.1,0.1-1.7,0.3
			c-0.1,0-0.2,0.2-0.2,0.3c0,0.3,0.1,0.5,0.3,0.6C-4381,2345.4-4380.4,2345.5-4379.8,2345.3z"/>
		<path class="st1" d="M-4391.7,2363.8c-0.1,0-0.3,0-0.4,0.1c-0.5,0.5-1,1-1.6,1.5c0,0,0,0.1,0,0.1c0,0.1,0.1,0.1,0.2,0.1
			c0.8,0,1.5-0.3,2.1-0.8c0.1-0.1,0.2-0.3,0.2-0.4C-4391.2,2364.1-4391.5,2363.8-4391.7,2363.8z"/>
		<path class="st1" d="M-4394.9,2364.9c-0.2,0-0.4,0-0.6,0.1c-0.6,0.3-1.1,0.8-1.5,1.3c-0.1,0.1-0.1,0.2,0.1,0.3c0.1,0,0.1,0,0.2,0
			c0.8-0.2,1.5-0.7,2-1.2c0,0,0-0.1,0-0.2C-4394.7,2365.1-4394.8,2364.9-4394.9,2364.9z"/>
		<path class="st1" d="M-4362.8,2354.2c-0.3,0.3-0.8,0.5-0.9,0.9c0.5,0.1,0.9,0.1,1.4,0c0.1,0,0.2-0.1,0.3-0.2
			c0.1-0.1,0.1-0.5-0.1-0.7C-4362.2,2354.1-4362.5,2354.1-4362.8,2354.2z"/>
		<path class="st1" d="M-4363.3,2355.5c-0.1-0.1-0.3-0.2-0.4-0.3c0,0,0,0,0,0c0,0,0,0-0.1,0l0.1,0.1c-0.3,0.2-0.6,0.3-1,0.3
			c-0.3-0.1-0.7,0-0.8,0.3c-0.1,0.1-0.2,0.2-0.3,0.2c-0.1,0-0.1,0-0.2,0c-1.5,0.2-1.8,0.5-1.8,1.8c0,0.2,0.1,0.4,0.3,0.5
			c0.1,0.1,0.2,0.3,0.3,0.5c0.1,0.1,0.2,0.1,0.4,0.1c0.7-0.6,1.6-1.1,2.5-1.3c0.4-0.1,0.7-0.5,1.2-0.7c0.3-0.2,0.4-0.5,0.3-0.8
			C-4362.9,2355.7-4363.1,2355.6-4363.3,2355.5z"/>
		<path class="st1" d="M-4390.5,2363.6c0,0,0.1,0.1,0.1,0.1l0.1-0.1c0,0-0.1-0.1-0.1-0.1
			C-4390.4,2363.6-4390.5,2363.6-4390.5,2363.6z"/>
		<path class="st1" d="M-4379.5,2362.3L-4379.5,2362.3L-4379.5,2362.3C-4379.5,2362.2-4379.5,2362.3-4379.5,2362.3z"/>
		<path class="st1" d="M-4379.6,2362.4l0-0.1C-4379.7,2362.3-4379.7,2362.4-4379.6,2362.4z"/>
		<path class="st1" d="M-4372.7,2358.5C-4372.7,2358.5-4372.7,2358.5-4372.7,2358.5L-4372.7,2358.5L-4372.7,2358.5L-4372.7,2358.5z"
			/>
		<g>
			<path class="st1" d="M-4222.9,2399c-0.1-0.1-0.2-0.1-0.2-0.2c0.1-0.2,0.1-0.6-0.1-0.9l0,0l-0.1-0.2c-0.3-0.4-0.7-0.6-1.2-0.6
				c-0.2,0-0.3,0-0.5,0.1l-0.3,0.2c-0.7,0.5-1.3,1.2-1.8,1.8c-0.2,0-0.4-0.1-0.5-0.1l-0.3,0.2c0,0-0.1,0-0.1-0.1l-0.3-0.1l-0.1,0
				c-0.1,0-0.3,0-0.4-0.1l-0.1-0.2l-0.3,0.2l-0.6-0.7c-0.1,0-0.2-0.1-0.2-0.1l0-0.2c-0.1-0.4,0-0.7,0.1-1c0.1-0.3,0.2-0.6,0.1-0.9
				c0.1-0.1,0.3-0.2,0.4-0.3c0.6-0.5,0.8-1.3,0.4-2.1c-0.2-0.3-0.4-0.6-0.8-0.9c-0.6-0.4-1.3-0.6-2.1-0.6c-0.2,0-0.5,0-0.6,0.1
				c-1.9,0.3-3.6,0.8-5.3,1.6l-0.2-0.3l-4.3,1.6l-11.1-1.2l-0.8,0.3c-0.4,0.4-0.9,0.7-1.4,0.9c-0.6,0.2-1.4,1-2.2,2.2l-3.8,0.1
				l-2.3,0l-1.1,0l-1.4,0l-0.1-0.7l-0.6-2.8l-0.4-0.6l-1.8-1.2l-0.7-1.1l-0.5-0.4l-0.9-0.4l-7.2-4.6l-0.9-0.1l-1.8,0.8l-0.6,0.1
				l-2-0.6l-0.1,0l-0.7,0.1l-0.2,0.1l-0.3-0.4l-1.3-0.1l0,0l-0.5-0.6l-0.7-0.3h-2.5l-0.4-1.2l-1.7-0.4l-0.5,0.5l-38.7,0.1l-0.8,1.6
				c0.3,0.4,0.7,0.8,1.1,1.2c0.4,0.4,0.7,0.8,1,1.1c-0.2,0.3-0.4,0.8-0.4,1.2l0,0.4c0,0.7,0,1.4,0,2c0,0.8-0.1,1.7-0.5,2.4
				c-0.5,1-0.9,2-1.3,3.2c-0.2,0.9-0.6,1.6-1.1,2.3c-0.7,0.9-1,2-1,3.1c0,0.1,0,0.3,0,0.4l0,0.2c0.1,0.7-0.1,1.5-0.6,2.1
				c-0.5,0.6-0.6,1.4-0.2,2.1c0.2,0.3,0.3,0.8,0.1,1.1l0,0.1c-0.1,0.4-0.1,0.8,0,1.2c0,0.3,0.1,0.6,0.2,0.9c0.3,0.6,0.5,1.1,0.8,1.6
				l0.1,0.1c0.1,0.1,0.2,0.3,0.4,0.4c0,0,0,0,0,0.1c-0.1,0.4-0.1,0.7,0,1.1l0,0.1c0,0.1,0.1,0.3,0.2,0.4c0.1,0.3,0.2,0.4,0.2,0.4
				c-0.3,0.6,0,1.1,0.1,1.4c0.3,0.7,0.7,1.4,1.1,2.1c0.1,0.1,0.1,0.3,0.1,0.4c-0.1,1,0.4,1.7,1.2,1.8c1,0.2,2,0.7,2.9,1.3l0.2,0.1
				c0.4,0.2,0.7,0.6,0.8,1.1c0,0.5,0.1,1,0.3,1.4l0.6,0.6l1.6,0.6l0.3,0.1l6.7,0.6l0.9-1.1l2.1,0.1l0.7,0.8l0.2,0.2
				c0.7,0.4,1.3,0.9,1.9,1.6c2,3.2,3.2,3.2,3.5,3.2c0.3,0,0.6-0.1,0.9-0.3c0.6-0.5,1.1-1,1.5-1.6h0.8l8.8,9.3l0.5,0.3l1.5,0.3
				l1.1-0.6c0,0,0-0.1,0.1-0.1c0.6-0.7,0.9-1.6,0.8-2.5c0-0.7,0.1-1.4,0.4-2l0-0.1c0.1-0.4,0.5-0.8,0.9-0.8c1.1-0.1,2.2-0.6,3.1-1.3
				c0.5-0.3,1-0.5,1.6-0.6c0.1,0,0.3-0.1,0.4-0.1c0.2,0,0.4,0,0.6,0.1c0.3,0.1,0.7,0.2,1.1,0.2c0.3,0,0.6,0,0.9-0.2
				c0.5,0.7,1.4,1.1,2.2,1.1c0.3,0,0.6,0,0.9-0.1c0.4-0.1,0.9-0.3,1.3-0.4l0.5-0.5c0.1-0.3,0.2-0.7,0.3-1.1c0.2,0,0.4-0.1,0.6-0.1
				c0.4,0,0.8,0,1.2,0c0.6,0,1.1,0,1.7,0.1l0.2,0c0.1,0,0.2,0,0.3,0c0.7,0,1.3,0.2,1.8,0.7c0.3,0.3,0.8,0.4,1.2,0.4
				c0.3,0,0.6-0.1,0.8-0.2c0,0,0.5-0.2,0.6-0.2c0.3,0.4,0.7,0.7,1,1.1l0.1,0.1c0,0.1-0.1,0.2-0.1,0.3c-0.4,0.7-0.3,1.5,0.1,2.1
				c0.4,1,0.9,1.9,1.4,2.8c0.3,0.6,0.7,1,1.2,1.5c0.3,0.3,0.8,0.5,1.2,0.5c0.6,0,1.1-0.2,1.5-0.7c0.6-0.9,1-1.9,1.1-2.8
				c0.1-0.3,0-0.6-0.1-0.9c-0.1-0.2-0.2-0.4-0.2-0.6c-0.1-0.2-0.2-0.5-0.2-0.7c-0.1-0.4-0.1-0.9-0.2-1.4c0-0.2-0.1-0.3-0.1-0.5
				c-0.5-1.2-0.6-2.5-0.3-3.8l0-0.1c0,0,0-0.1,0.1-0.1c0.5-0.7,1.3-1.2,2-1.4c0.1,0,0.3-0.1,0.4-0.1l0.1,0c0.6-0.2,1.1-0.5,1.4-0.9
				c0.1-0.1,0.3-0.3,0.4-0.4c0.1-0.1,0.2-0.2,0.3-0.3c0.1-0.1,0.2-0.1,0.2-0.1c0.6-0.2,1.2-0.5,1.6-0.9c0.4-0.4,1-0.6,1.5-0.7
				c0.7-0.1,1.3-0.5,1.5-1.2c0.3-0.1,0.5-0.3,0.7-0.5c0.6-0.5,0.7-1.2,0.4-1.8c0.3-0.6,0.3-1.2,0.1-1.8c0.3-0.1,0.5-0.2,0.7-0.4
				l0.1-0.2c0.3-0.4,0.7-0.8,1-1.4c0.2-0.3,0.3-0.7,0.3-1c0.3-0.1,0.7-0.3,0.9-0.6c0.7-0.6,1.3-1.4,1.5-2.5c0.1,0,0.1,0,0.3,0
				c0.5,0,0.9-0.1,1.5-0.2c0.3-0.1,0.5-0.2,0.8-0.3c0.2-0.1,0.4-0.3,0.5-0.5c0.3,0,0.7-0.1,1-0.2c0.5-0.1,0.9-0.2,1.4-0.2
				c0,0,0,0,0,0c0.5,0,0.8-0.2,1-0.4l0.1-0.1c0.2-0.1,0.8-0.5,0.7-1.2c0-0.7-0.6-1.1-0.9-1.2c0.1-0.3,0.2-0.6,0.3-0.8
				c0.2-0.5,0.7-0.9,1.1-1c0.6-0.2,1.1-0.4,1.7-0.8c0.1-0.1,0.1-0.1,0.3-0.1c0,0,0.1,0,0.1,0c0.8,0,1.7-0.2,2.5-0.4
				c0,0.1,0,0.3,0,0.4c0.2,0.7,0.6,1.2,1.3,1.5c0.2,0.1,0.5,0.2,0.7,0.2c0.1,0,0.2,0,0.4-0.1c1-0.3,1.9-0.9,2.6-1.7l0.1-0.1
				c0,0,0.1-0.1,0.2-0.1c0,0,0.5,0,0.5,0c1-0.3,2-0.6,3-0.9l1.2-0.4l0.7-0.7c0,0.1-0.1,0.2-0.2,0.2c0.1,0,0.2,0,0.2,0
				c0.2,0,0.5-0.1,0.8-0.2c0.2-0.1,0.3-0.1,0.5-0.2l0.1-0.1c0.1,0,0.2-0.1,0.2-0.1l0.1-0.1c0.5-0.3,0.7-0.8,0.7-1.1
				C-4222.4,2399.6-4222.6,2399.2-4222.9,2399z"/>
			<path class="st1" d="M-4335.6,2368.6l1.4-0.1l0.1-0.8l0.3,0.7l2.2-0.7l4-0.5l0.9-1v-2.5l-0.2-0.5l-2.4-3.8l-0.1-0.1l-6.2-6.8
				l-0.1-0.1l-4.6-3.6v-39.9l-0.8-1c-0.2,0-0.4-0.1-0.6-0.2c-0.2-0.1-0.5-0.1-0.7-0.1c-0.8,0-1.5,0.3-1.9,0.8
				c-0.2,0.2-0.3,0.4-0.4,0.6c-0.3,0.1-0.7,0.1-1,0.1c-0.1,0-0.2,0-0.3,0c-0.3-0.1-0.5-0.1-0.8-0.1c-0.7,0-1.4,0.2-2.1,0.6
				c-1.3,0.6-2.6,1.4-3.8,2.3l-0.1,0.1c-0.1,0.1-0.2,0.2-0.3,0.2c-0.9,0.4-1.7,0.8-2.4,0.8c-0.4,0-0.7-0.1-1.1-0.2
				c-0.1-0.1-0.2-0.1-0.4-0.1c-0.3-0.1-0.6-0.2-0.8-0.2c-0.7,0-1.3,0.3-1.8,0.9c-0.2,0.3-0.5,0.6-0.8,0.8c-0.9,0.5-1.3,1.7-0.8,2.7
				l0,0c0.1,0.2,0.1,0.4,0.2,0.5c0.1,0.2,0.1,0.5,0.3,0.8c0.4,0.8,0.4,1.7-0.1,2.4c-0.2,0.3-0.3,0.7-0.2,1.1
				c0.1,0.5,0.4,0.9,0.8,1.1c0,0,0.1,0,0.1,0c0,0.1,0,0.1,0,0.2c-0.1,0.5-0.1,1-0.1,1.6c0,0.1,0,0.1,0,0.2c-0.1,0-0.2,0.1-0.2,0.1
				c0,0-0.1,0-0.1,0c0,0-0.1,0-0.2-0.1c-0.2-0.1-0.4-0.2-0.6-0.3c0,0,0,0,0-0.1c0.3-0.5,0.4-1,0.1-1.6c-0.3-0.6-0.9-1-1.5-1
				c-0.1,0-0.3,0-0.4,0c-0.5,0-1,0-1.4,0.1c-0.6,0-1.1,0.3-1.6,0.7c0,0-0.1,0-0.1,0c0,0-0.3,0-0.3,0c-0.4,0-0.8,0.1-1.3,0.2
				c-1,0.3-1.9,0.6-2.8,1.1c-0.7,0.3-1.1,1.1-0.9,1.9c0.1,0.2,0.1,0.3,0.3,0.5c0.1,0.1,0.2,0.3,0.4,0.4c-0.1,0.1-0.1,0.2-0.2,0.3
				c-0.2,0.5-0.4,1.1-0.7,1.6l-0.1,0.1c-0.2,0.5-0.1,1.1,0.2,1.5c0.6,0.9,1.6,1.5,2.7,1.5c0.1,0,0.3,0,0.5,0c0.1,0,0.3,0,0.4,0
				c0.4,0,0.7,0.1,1,0.3c0.4,0.3,0.8,0.4,1.3,0.4c0.3,0,0.7-0.1,0.9-0.2c0.1-0.1,0.3-0.1,0.5-0.2c-0.2,0.4-0.4,0.9-0.5,1.3
				c-0.2,0.3-0.5,0.6-0.9,0.6c-0.2-0.1-0.4-0.2-0.6-0.4c-0.1-0.2-0.4-0.5-1-0.5c-0.2,0-1,0.1-1.2,1.1c-0.1,0.3-0.4,0.4-0.6,0.5
				c-0.4-0.5-1-0.9-1.6-0.9c-0.3,0-0.6,0.1-0.9,0.2l-0.1,0.1c-0.8,0.4-1.8,0.9-2.2,2c-1.1,0.7-2.2,1.5-3.2,2.3
				c-1.1,0.6-1.6,1.9-1.2,3c0.1,0.3,0.2,0.6,0.2,0.8c-0.8,0.8-1.1,1.9-0.6,2.9c0.1,0.2,0.1,0.4,0.2,0.7c0.1,0.2,0.1,0.4,0.2,0.6
				c0.2,0.6,0.7,1,1.3,1.1c0.3,0.1,0.6,0.1,0.9,0.1c0.1,0,0.1,0,0.2,0c0,0,0.2,0,0.2,0c0,0,0,0,0,0c-0.6,0.4-0.9,1.3-0.6,2
				c0,0.1-0.1,0.1-0.2,0.2l-0.1,0.1c-0.3,0.5-0.3,1-0.2,1.2c0.1,0.4,0.5,0.6,0.9,0.8c0.3,0.1,0.7,0.2,1.1,0.2c0.4,0,0.8-0.1,1.1-0.3
				c0.3,0.2,0.5,0.3,0.5,0.4c0.1,0.6,0.6,1,1.2,1c0.2,0,0.4,0,0.6-0.1c-0.6,1.2-1.6,2.1-2.8,2.6c-0.3,0.1-0.5,0.2-0.7,0.4
				c-0.2,0.1-0.4,0.3-0.7,0.3c-0.6,0.2-1.1,0.4-1.5,0.7c-0.3,0.2-0.6,0.3-0.9,0.4c-0.6,0.2-1.1,0.6-1.5,1.1
				c-0.2-0.1-0.5-0.1-0.8-0.1c-0.6,0-1.2,0.2-1.7,0.5c-0.5,0.3-1,0.6-1.5,1c-0.6,0.4-1.2,0.7-1.9,0.7c-0.2,0-0.4,0-0.7,0.1
				c-0.1,0-0.3,0-0.5,0c-0.9,0.1-1.7,0.6-2.2,1.4l-0.1,0.1c-0.2,0.5-0.1,1,0.2,1.4c0.3,0.3,0.6,0.5,1.1,0.5l0.1,0
				c0.3,0,0.5,0,0.8-0.1c0.3-0.1,0.6-0.1,1-0.1l0.1,0c0.5,0,0.9-0.2,1.3-0.4l0.1-0.1c0.3-0.2,0.6-0.4,0.9-0.4l0.2,0
				c0.7,0,1.3-0.2,1.9-0.6c0.2,0.2,0.4,0.3,0.7,0.3c0.6,0,0.9-0.4,1.1-0.7c0.4-0.1,0.8-0.1,1.2-0.2l0.1,0c0.1,0,0.3,0,0.4,0
				c0.4,0,0.7-0.2,0.9-0.3c0.2-0.2,0.5-0.3,0.8-0.4l0.1,0c0.1,0,0.2-0.1,0.4-0.1c0.5-0.2,1.2-0.4,1.7-1.1l0.1,0
				c0.3-0.1,0.6-0.3,0.9-0.4c0.1,0,0.2,0,0.3,0l0.9-0.4c0,0,0-0.1,0.1-0.1c0.4-0.1,0.8-0.3,1.1-0.5c0.7-0.2,1.3-0.7,1.5-1.3l0.1-0.1
				c0.9-0.5,1.8-0.9,2.7-1.2c0.9-0.2,1.8-0.6,2.4-1.4c0.2-0.1,0.3-0.2,0.6-0.4c0.1-0.1,0.2-0.1,0.3-0.2c0.1-0.1,0.3-0.1,0.3-0.2
				c0.8-0.3,1.3-1.3,0.9-2.2l0,0l-0.1-0.2c0,0-0.1-0.1-0.1-0.1c0.1,0,0.1,0,0.2,0c0,0,0.1,0,0.1,0c0.2,0,0.3,0.1,0.5,0.1
				c0.1,0,0.2,0,0.3,0c-0.3,0.4-0.3,1,0,1.4l0.1,0.1l0,0c0.2,0.3,0.6,0.7,1.3,0.7c0.5,0,1-0.1,1.4-0.3c0.6-0.3,1.2-0.5,1.8-0.6
				c0.3-0.1,0.7-0.2,1-0.3l0.1-0.1c0.4-0.2,0.8-0.3,1.2-0.3c0.1,0,0.1,0,0.1,0c0,0,0.2,0,0.2,0c0.4,0,0.6-0.1,0.8-0.2l0.1-0.1
				c0.3-0.1,0.6-0.3,0.9-0.6l0.2,0.1h0.4l0.9-0.7c0.2-0.4,0.2-0.8,0.1-1c0.1,0,0.1,0,0.2,0c0.3,1,1,1.7,1.9,1.9
				c0.2,0.1,0.4,0.2,0.5,0.4l0.1,0.1c0,0.1,0.1,0.3,0.2,0.4c0.3,0.5,0.8,0.8,1.3,0.9c0.3,0.1,0.7,0.1,1,0.1l0.1,0
				c0.4,0,0.7,0.1,1.1,0.4c0.1,0.1,0.3,0.2,0.4,0.2c0.1,0.1,0.2,0.2,0.3,0.3c0.4,0.4,0.9,0.7,1.5,0.8c0,0.5,0.2,0.9,0.7,1.2
				c0,0,0.1,0.1,0.1,0.1c0.1,0.2,0.3,0.4,0.7,0.6c0,0.2,0.1,0.5,0.1,0.7c0.1,0.8,0.6,1.5,1.1,2c0.1,0.1,0.2,0.2,0.4,0.3
				c-0.2,0.5-0.3,1-0.2,1.5c0,0,0.1,0.7,0.2,0.9l0,0v0.1l0,0c0,0,0,0.1,0,0.1l0.1,0l0.5,0.2l-0.3,0.4c0,0-0.1-0.1,0-0.2
				c-0.3,0.7-0.4,1.6-0.3,2.3c0.1,0.4,0.3,0.7,0.7,0.9l0.3,0c0.1,0.3,0.3,0.5,0.6,0.6c0,0.1,0.1,0.3,0.2,0.4l0.1,0.1
				c0,0,0-0.1,0-0.1L-4335.6,2368.6z M-4334.4,2361.7C-4334.4,2361.7-4334.4,2361.7-4334.4,2361.7
				C-4334.4,2361.7-4334.4,2361.7-4334.4,2361.7C-4334.4,2361.7-4334.4,2361.7-4334.4,2361.7z"/>
		</g>
	</g>
	<path id="Контур_4138" class="st2" d="M-4497.2,2603.2l16.8,22.3l36.8-39l-35.9,24.3L-4497.2,2603.2z"/>
</g>
</svg>
