<svg xmlns="http://www.w3.org/2000/svg" width="70.624" height="70.624" viewBox="0 0 70.624 70.624">
  <path id="Контур_544" data-name="Контур 544" d="M-531.279,1508.732V1503.4a7.77,7.77,0,0,0,.258-1.048,35.226,35.226,0,0,1,24.918-30.086c2.451-.749,4.984-.985,7.468-1.51h5.336a5.386,5.386,0,0,0,.888.247,35.216,35.216,0,0,1,30.244,24.926c.751,2.452.985,4.986,1.512,7.471v5.336a9.707,9.707,0,0,0-.261,1.048c-2.036,14.905-10.262,24.776-24.32,29.9a50.751,50.751,0,0,1-8.063,1.7h-5.336a9.512,9.512,0,0,0-1.044-.26c-14.705-1.993-24.534-10.056-29.753-23.872C-530.47,1514.5-530.733,1511.584-531.279,1508.732Zm7.264-13.47c.989.1,1.866.2,2.746.269a14.592,14.592,0,0,1,3.831.721c1.621.593,1.971,1.456,1.262,3.056-.506,1.141-1.169,2.219-1.6,3.386-1.065,2.892-.534,4.886,2.069,6.491,2.119,1.306,3.323,2.905,3.181,5.426a5.825,5.825,0,0,0,.089.936c.444,4.13,1.466,8,4.829,10.832.85.714,1.657,2.124,2.785,1.575,1.081-.525.675-2.064.618-3.184a33.548,33.548,0,0,1,.182-8.719c.7-3.366,2.195-5.919,5.387-7.359a14.084,14.084,0,0,0,1.489-.864,5.111,5.111,0,0,0,2.3-3.033c1.346-4.444.034-7.732-4.276-9.372-3.833-1.459-7.79-2.715-12.035-2.076-1.383.208-2.234-.651-2.946-1.684a1.713,1.713,0,0,1-.07-2.3c2.73-2.783,4.936-6.073,8.113-8.421,1.945-1.437,3.9-2.858,6.162-4.513C-509.018,1476.992-520,1484.269-524.015,1495.262Zm58.2,10.86a29.707,29.707,0,0,0-1.752-10.12,30.222,30.222,0,0,0-17.554-18.067c-1.042-.429-1.634-.265-2.138.722a4.974,4.974,0,0,0,.645,4.573c1.029,1.282,2.276.994,3.551.5a8.794,8.794,0,0,1,.863-.361c.708-.189,1.437-.851,2.138-.011a2.057,2.057,0,0,1,.137,2.737,28.506,28.506,0,0,1-2.279,2.577c-1.814,1.892-2.908,3.992-1.836,6.645,1.162,2.876,2.8,5.453,6.255,5.593,2.913.118,4.155,1.788,4.894,4.2a22.212,22.212,0,0,1-.373,13.541,5.433,5.433,0,0,0,.174,4.519c.716,1.316.962,1.328,1.814.112A29.856,29.856,0,0,0-465.819,1506.122Zm-39.4,28.545a8.54,8.54,0,0,0,.911.369,29.767,29.767,0,0,0,22.443-2.384c.834-.442,2.327-.727,2.222-1.64-.133-1.146-1.581-1.529-2.678-1.855a14.817,14.817,0,0,0-10.528.773,27.181,27.181,0,0,1-7.781,2.239A7.492,7.492,0,0,0-505.217,1534.667Z" transform="translate(531.279 -1470.752)" fill="#fff"/>
</svg>
