<svg id="Слой_1" data-name="Слой 1" xmlns="http://www.w3.org/2000/svg" viewBox="0 0 1080 540"><defs><style>.cls-1{fill-rule:evenodd;}.cls-2{fill:#fed841;}.cls-3{fill:#e7335d;}.cls-4{fill:#fff;}</style></defs><polyline class="cls-1" points="540 540 1080 540 1080 0 540 0"/><rect class="cls-2" width="540" height="540"/><path class="cls-3" d="M63.81,235.15H60.39l-2.11-5H56.12v5H52.93V221.81h6.35a4.07,4.07,0,0,1,2.07.56,4,4,0,0,1,1.52,1.52,4.07,4.07,0,0,1,.56,2.07,4,4,0,0,1-.51,2,4.31,4.31,0,0,1-1.38,1.5ZM60.05,225a1.22,1.22,0,0,0-.88-.44H56v2.82h3.13a1.28,1.28,0,0,0,.88-.46,1.4,1.4,0,0,0,.36-1A1.39,1.39,0,0,0,60.05,225Z"/><path class="cls-3" d="M74.29,222.72a6.72,6.72,0,0,1,2.45,2.46,6.8,6.8,0,0,1,0,6.76,6.77,6.77,0,0,1-2.45,2.45,6.73,6.73,0,0,1-6.76,0,6.74,6.74,0,0,1,0-11.67,6.73,6.73,0,0,1,6.76,0Zm-1.64,8.84a3.46,3.46,0,0,0,1.26-1.26,3.46,3.46,0,0,0,0-3.48,3.51,3.51,0,0,0-1.26-1.28,3.46,3.46,0,0,0-3.48,0,3.47,3.47,0,0,0-1.27,1.28,3.46,3.46,0,0,0,0,3.48,3.41,3.41,0,0,0,1.27,1.26,3.46,3.46,0,0,0,3.48,0Z"/><path class="cls-3" d="M89.88,221.83v8.24a5.12,5.12,0,0,1-.71,2.64,5.24,5.24,0,0,1-4.57,2.62h-.3a5.11,5.11,0,0,1-2.64-.7,5.2,5.2,0,0,1-1.92-1.92,5.11,5.11,0,0,1-.7-2.64v-8.24h3.15v7.49a3.16,3.16,0,0,0,.56,1.94,1.8,1.8,0,0,0,1.55.77h.3a1.84,1.84,0,0,0,1.53-.78,3.08,3.08,0,0,0,.6-1.93v-7.49Z"/><path class="cls-3" d="M99.41,221.81h3.4v13.34h-3.4L95.49,228v7.15H92.08V221.81h3.41L99.41,229Z"/><path class="cls-3" d="M109.54,221.76a7.57,7.57,0,0,1,2,.49,5.58,5.58,0,0,1,1.83,1.15,6.44,6.44,0,0,1,1.63,2.29,6.71,6.71,0,0,1,.58,2.74,6.55,6.55,0,0,1-.74,3.08,6,6,0,0,1-2.06,2.35,7.29,7.29,0,0,1-2.71,1.07,19.89,19.89,0,0,1-3.37.25l-1.55,0h-1.47V221.66h3.42A24.31,24.31,0,0,1,109.54,221.76Zm2.81,6.67a3.48,3.48,0,0,0-.46-1.71,3.62,3.62,0,0,0-1.23-1.29,3.42,3.42,0,0,0-1.71-.51h-1.84v7a14.06,14.06,0,0,0,2.32-.16,3.88,3.88,0,0,0,1.76-.74,3,3,0,0,0,1.06-1.76A4,4,0,0,0,112.35,228.43Z"/><path class="cls-3" d="M127.48,221.81H129v13.34h-3.39v-9.43l-1.85.58V223l1.85-.58Z"/><path class="cls-3" d="M58.42,247.58h2.26v19.49h-5V253.29l-2.7.85v-4.85l2.7-.85Z"/><path class="cls-3" d="M77.18,259.3h2.7v4.16h-2.7v3.61H72.72v-3.61H63v-4.58l9-11.27h.69v0h4.46V259.3Zm-9.23,0h4.77v-5.87Z"/><path class="cls-3" d="M92.54,254.87a6.84,6.84,0,0,1,2.33,2.42,6.53,6.53,0,0,1-.08,6.58,7.12,7.12,0,0,1-12.13,0,6.35,6.35,0,0,1-.93-3.36h4.1a2.92,2.92,0,0,0,5,1.92,2.78,2.78,0,0,0,.85-2.06,2.92,2.92,0,0,0-2.91-2.92h-.12a2.92,2.92,0,0,0-1.43.44,2.54,2.54,0,0,0-.69.58H82l.17-.69,2.2-10.14h10v4.16H87.71l-.61,2.29.36-.11a4.32,4.32,0,0,1,.77-.14,7.43,7.43,0,0,1,1.07,0A7.07,7.07,0,0,1,92.54,254.87Z"/><path class="cls-3" d="M108.31,248.88a9,9,0,0,1,2.92,3.58,11.84,11.84,0,0,1,0,9.88,9,9,0,0,1-2.92,3.6,6.78,6.78,0,0,1-8,0,9.23,9.23,0,0,1-2.94-3.6,11.74,11.74,0,0,1,0-9.88,9.24,9.24,0,0,1,2.94-3.58,6.78,6.78,0,0,1,8,0ZM106,261.43a4.07,4.07,0,0,0,1.21-1.69,6,6,0,0,0,.44-2.34,5.87,5.87,0,0,0-.45-2.33,4.52,4.52,0,0,0-1.21-1.7,2.54,2.54,0,0,0-3.35,0,4.45,4.45,0,0,0-1.23,1.7,5.87,5.87,0,0,0-.45,2.33,6,6,0,0,0,.45,2.34,4.19,4.19,0,0,0,1.23,1.69,2.56,2.56,0,0,0,3.36,0Z"/><path class="cls-3" d="M114.18,255.52h10.88V259H114.18Zm7.19-3.69v10.89h-3.5V251.83Z"/><path class="cls-3" d="M145.38,248.4a6,6,0,0,1,3,5.25,5.91,5.91,0,0,1-.81,3,6,6,0,0,1-2.21,2.21,5.91,5.91,0,0,1-3,.81h-4.63v7.36h-4.66V247.58h9.29A5.83,5.83,0,0,1,145.38,248.4Zm-1.9,3.83a1.88,1.88,0,0,0-1.31-.65H137.6v4.13h4.57a1.83,1.83,0,0,0,1.31-.67,2.1,2.1,0,0,0,.54-1.42A2,2,0,0,0,143.48,252.23Z"/><path class="cls-3" d="M160.58,247.78l6.36,19.29h-4.79l-1.27-3.94h-6l-1.24,3.94h-4.82l6.39-19.29Zm-4.44,11.33h3.47l-1.73-5.46Z"/><path class="cls-3" d="M183.72,267.07h-5l-3.08-7.36h-3.17v7.36h-4.66V247.58h9.29a5.89,5.89,0,0,1,3,.82,6,6,0,0,1,2.21,2.21,6,6,0,0,1,.07,5.95,6.21,6.21,0,0,1-2,2.19Zm-5.48-14.84a1.84,1.84,0,0,0-1.3-.65h-4.57v4.13h4.57a2,2,0,0,0,1.3-.67,2.11,2.11,0,0,0,.52-1.42A2.07,2.07,0,0,0,178.24,252.23Z"/><path class="cls-3" d="M199.92,247.58v5h-5v14.53h-5V252.54h-5v-5h15Z"/><path class="cls-3" d="M206.15,247.58v19.49h-5V247.58Z"/><path class="cls-3" d="M219.67,262.07a5.33,5.33,0,0,0,1.65-1.09l3.37,3.36a10,10,0,0,1-3.17,2.14,9.78,9.78,0,0,1-3.81.76,9.61,9.61,0,0,1-4.93-1.32,9.94,9.94,0,0,1-3.58-3.59,9.9,9.9,0,0,1,0-9.88,9.81,9.81,0,0,1,3.58-3.6,9.89,9.89,0,0,1,8.74-.56,9.83,9.83,0,0,1,3.17,2.13l-3.37,3.36a5.3,5.3,0,0,0-1.65-1.08,5,5,0,0,0-4.49.29,5.13,5.13,0,0,0-1.84,1.86,4.93,4.93,0,0,0-.69,2.55,4.83,4.83,0,0,0,.69,2.53,5.18,5.18,0,0,0,1.84,1.85,5,5,0,0,0,4.49.29Z"/><path class="cls-3" d="M230.8,247.58v19.49h-5V247.58Z"/><path class="cls-3" d="M245.42,248.4a6,6,0,0,1,2.2,2.2,6.13,6.13,0,0,1,0,6.09,6.06,6.06,0,0,1-2.2,2.21,6,6,0,0,1-3,.81h-4.63v7.36h-4.65V247.58h9.28A5.89,5.89,0,0,1,245.42,248.4Zm-1.9,3.83a1.9,1.9,0,0,0-1.31-.65h-4.58v4.13h4.58a1.85,1.85,0,0,0,1.31-.67,2.14,2.14,0,0,0,.53-1.42A2,2,0,0,0,243.52,252.23Z"/><path class="cls-3" d="M260.61,247.78,267,267.07h-4.8l-1.26-3.94h-6l-1.24,3.94h-4.82l6.39-19.29Zm-4.43,11.33h3.47l-1.74-5.46Z"/><path class="cls-3" d="M278.58,247.58h4.95v19.49h-4.95l-5.73-10.45v10.45h-5V247.58h5L278.58,258Z"/><path class="cls-3" d="M300,247.58v5h-5v14.53h-5V252.54h-5v-5h15Z"/><path class="cls-3" d="M310.12,253.76v-.36a1.74,1.74,0,0,0-.67-1.37,2.51,2.51,0,0,0-1.64-.56,2.67,2.67,0,0,0-1.7.56,1.71,1.71,0,0,0-.7,1.37,1.27,1.27,0,0,0,.72,1.19,5.88,5.88,0,0,0,1.87.77c.13,0,.27,0,.43.08l.48.11a9.54,9.54,0,0,1,3.94,1.63l.25.22a6,6,0,0,1,1.31,1.9,5.38,5.38,0,0,1-.06,4.57,6.14,6.14,0,0,1-1.56,2,7.52,7.52,0,0,1-2.31,1.31,8.3,8.3,0,0,1-5.39,0,7.59,7.59,0,0,1-2.3-1.31,6.31,6.31,0,0,1-1.57-2,5.28,5.28,0,0,1-.55-2.37v-.36h4.82v.36a1.73,1.73,0,0,0,.68,1.37,2.45,2.45,0,0,0,1.61.56,2.65,2.65,0,0,0,1.69-.56,1.71,1.71,0,0,0,.71-1.37,1.59,1.59,0,0,0-.75-1.21,3.3,3.3,0,0,0-.77-.41,10.84,10.84,0,0,0-1.07-.33l-.91-.22q-1.51-.39-2.37-.69a4.69,4.69,0,0,1-1.57-.94l-.11-.11a6.09,6.09,0,0,1-1.45-1.93,5.22,5.22,0,0,1-.51-2.26,5.28,5.28,0,0,1,.55-2.37,6.39,6.39,0,0,1,1.57-2,7.39,7.39,0,0,1,2.3-1.31,8.12,8.12,0,0,1,5.39,0,7.32,7.32,0,0,1,2.31,1.31,6.21,6.21,0,0,1,1.56,2,5.41,5.41,0,0,1,.54,2.37v.36Z"/><path class="cls-3" d="M323.15,263.87l-2,5.74H317l2-5.74Zm-2.31-5.48a2.23,2.23,0,0,0,1.61-.66,2.16,2.16,0,0,0,.67-1.6,2.23,2.23,0,0,0-.66-1.63,2.28,2.28,0,0,0-3.22,0,2.15,2.15,0,0,0-.63,1.62,2.43,2.43,0,0,0,.68,1.6A2.08,2.08,0,0,0,320.84,258.39Z"/><path class="cls-3" d="M60.62,320.2a3.75,3.75,0,0,0,1.13-.74l2.3,2.3a6.8,6.8,0,0,1-2.17,1.46,6.72,6.72,0,0,1-6-.39,6.69,6.69,0,0,1-2.45-2.45,6.73,6.73,0,0,1,0-6.76,6.65,6.65,0,0,1,2.45-2.46,6.48,6.48,0,0,1,3.37-.91,6.67,6.67,0,0,1,2.6.52,6.8,6.8,0,0,1,2.17,1.46l-2.3,2.3a3.75,3.75,0,0,0-1.13-.74,3.41,3.41,0,0,0-1.34-.27,3.26,3.26,0,0,0-1.73.47,3.59,3.59,0,0,0-1.27,1.27,3.45,3.45,0,0,0-.47,1.75,3.38,3.38,0,0,0,.47,1.73A3.57,3.57,0,0,0,57.55,320a3.27,3.27,0,0,0,1.73.48A3.42,3.42,0,0,0,60.62,320.2Z"/><path class="cls-3" d="M74.29,311.2a6.72,6.72,0,0,1,2.45,2.46,6.8,6.8,0,0,1,0,6.76,6.77,6.77,0,0,1-2.45,2.45,6.8,6.8,0,0,1-6.76,0,6.74,6.74,0,0,1,0-11.67,6.73,6.73,0,0,1,6.76,0ZM72.65,320a3.46,3.46,0,0,0,1.26-1.26,3.46,3.46,0,0,0,0-3.48A3.51,3.51,0,0,0,72.65,314a3.46,3.46,0,0,0-3.48,0,3.47,3.47,0,0,0-1.27,1.28,3.46,3.46,0,0,0,0,3.48A3.41,3.41,0,0,0,69.17,320a3.46,3.46,0,0,0,3.48,0Z"/><path class="cls-3" d="M86.37,310.29h3.39v13.33H86.37l-3.92-7.14v7.14H79V310.29h3.41l3.92,7.15Z"/><path class="cls-3" d="M100.7,310.29v3.4H97.29v9.93H93.87v-9.93H90.46v-3.4H100.7Z"/><path class="cls-3" d="M111.31,320.74v2.88h-9.07V310.29h8.9v2.89h-5.49v2.33h4.62v2.89h-4.62v2.34Z"/><path class="cls-3" d="M119.74,310.29h3.39v13.33h-3.39l-3.93-7.14v7.14H112.4V310.29h3.41l3.93,7.15Z"/><path class="cls-3" d="M134.06,310.29v3.4h-3.41v9.93h-3.41v-9.93h-3.41v-3.4h10.23Z"/><path class="cls-3" d="M136.17,317.31a1.7,1.7,0,0,1-.47-1.1,1.43,1.43,0,0,1,.44-1.1,1.45,1.45,0,0,1,1.09-.46,1.54,1.54,0,0,1,1.56,1.56,1.47,1.47,0,0,1-.46,1.1,1.53,1.53,0,0,1-1.1.45A1.41,1.41,0,0,1,136.17,317.31Zm0,5.86a1.67,1.67,0,0,1-.47-1.09,1.42,1.42,0,0,1,.44-1.1,1.46,1.46,0,0,1,1.09-.47,1.48,1.48,0,0,1,1.11.46,1.51,1.51,0,0,1,.45,1.11,1.45,1.45,0,0,1-.46,1.09,1.49,1.49,0,0,1-1.1.45A1.38,1.38,0,0,1,136.17,323.17Z"/><path class="cls-3" d="M67.51,354.05v4.41H53.29v-4l2.9-2.21,4.05-3.06,1.49-1.13.13-.11a2.62,2.62,0,0,0,.68-.91,2.78,2.78,0,0,0,.23-1.1,2.42,2.42,0,0,0-.58-1.66,2.61,2.61,0,0,0-.82-.63,2.27,2.27,0,0,0-1-.22,2.2,2.2,0,0,0-1.46.52,2.13,2.13,0,0,0-.75,1.05H53.29a7,7,0,0,1,1.26-3.11,7.2,7.2,0,0,1,2.53-2.22,7.16,7.16,0,0,1,5.93-.33,7.12,7.12,0,0,1,2.19,1.36l.19.17a7.91,7.91,0,0,1,1.16,1.43,6.61,6.61,0,0,1,.77,3.22,7.69,7.69,0,0,1-.58,2.93A7.46,7.46,0,0,1,65,351.08a9,9,0,0,1-.86.71l-2.34,1.74-.69.52Z"/><path class="cls-3" d="M79.82,346.5a6.64,6.64,0,0,1,2.08,2.36,6.29,6.29,0,0,1,.76,3,6.41,6.41,0,0,1-.93,3.37,7.14,7.14,0,0,1-12.13,0,6.41,6.41,0,0,1-.93-3.37,6.28,6.28,0,0,1,1.21-3.77l6-9.1H81l-4.16,6.26A7.07,7.07,0,0,1,79.82,346.5Zm-2.23,7.28a2.5,2.5,0,0,0,.8-1.88,2.44,2.44,0,0,0-.8-1.84,2.64,2.64,0,0,0-1.93-.77,2.69,2.69,0,0,0-1.94.77,2.45,2.45,0,0,0-.81,1.84,2.51,2.51,0,0,0,.81,1.88,2.74,2.74,0,0,0,1.94.77A2.68,2.68,0,0,0,77.59,353.78Z"/><path class="cls-3" d="M98.89,350.69h2.7v4.16h-2.7v3.61H94.43v-3.61h-9.7v-4.57l9-11.28h.69v0h4.46v11.71Zm-9.23,0h4.77v-5.87Z"/><path class="cls-3" d="M122.61,338.92H128l-6.36,19.54h-6.06l-6.34-19.54h5.46l3.93,12.18Z"/><path class="cls-3" d="M135,339v19.48h-5V339Z"/><path class="cls-3" d="M145.86,338.91a11.34,11.34,0,0,1,2.94.7,8.49,8.49,0,0,1,2.68,1.68,9.74,9.74,0,0,1,2.39,3.35,10,10,0,0,1,.84,4,9.4,9.4,0,0,1-1.08,4.49,8.9,8.9,0,0,1-3,3.45,10.64,10.64,0,0,1-4,1.56,28.68,28.68,0,0,1-4.92.37l-2.26,0c-.47,0-1.19,0-2.15,0v-19.7h5C143.69,338.76,144.87,338.81,145.86,338.91Zm4.11,9.74a5,5,0,0,0-.66-2.49,5.2,5.2,0,0,0-1.81-1.89,4.78,4.78,0,0,0-2.49-.75h-2.7V353.7a20.68,20.68,0,0,0,3.4-.24,5.69,5.69,0,0,0,2.56-1.09,4.26,4.26,0,0,0,1.56-2.56A5.62,5.62,0,0,0,150,348.65Z"/><path class="cls-3" d="M169.45,354.25v4.21H156.2V339h13v4.21h-8v3.42h6.75v4.22h-6.75v3.42Z"/><path class="cls-3" d="M186.36,340.3a9.84,9.84,0,0,1,3.59,3.6,9.9,9.9,0,0,1,0,9.88,9.86,9.86,0,0,1-3.59,3.58,9.82,9.82,0,0,1-9.87,0,9.74,9.74,0,0,1-3.6-3.58,9.86,9.86,0,0,1,13.47-13.48ZM184,353.23a5.26,5.26,0,0,0,1.84-1.85,4.87,4.87,0,0,0,.69-2.54,4.92,4.92,0,0,0-.69-2.54,5.16,5.16,0,0,0-1.84-1.87,5,5,0,0,0-5.09,0A5.13,5.13,0,0,0,177,346.3a4.92,4.92,0,0,0-.69,2.54,4.87,4.87,0,0,0,.69,2.54,5.23,5.23,0,0,0,1.86,1.85,5,5,0,0,0,5.09,0Z"/><path class="cls-3" d="M201.32,345.15v-.36a1.7,1.7,0,0,0-.67-1.36,2.46,2.46,0,0,0-1.64-.57,2.58,2.58,0,0,0-1.69.57,1.69,1.69,0,0,0-.71,1.36,1.27,1.27,0,0,0,.72,1.19,6,6,0,0,0,1.87.77c.13,0,.27,0,.43.08l.48.11a9.48,9.48,0,0,1,3.94,1.63l.25.22a5.92,5.92,0,0,1,1.31,1.9,5.4,5.4,0,0,1-.06,4.58,6.18,6.18,0,0,1-1.55,2,7.26,7.26,0,0,1-2.32,1.31,8.14,8.14,0,0,1-2.7.45,8,8,0,0,1-2.68-.45,7.32,7.32,0,0,1-2.31-1.31,6.54,6.54,0,0,1-1.57-2,5.49,5.49,0,0,1-.55-2.37v-.36h4.83v.36a1.7,1.7,0,0,0,.67,1.36,2.42,2.42,0,0,0,1.61.57,2.62,2.62,0,0,0,1.7-.57,1.68,1.68,0,0,0,.7-1.36,1.61,1.61,0,0,0-.74-1.22,3.38,3.38,0,0,0-.78-.41,10.84,10.84,0,0,0-1.07-.33l-.91-.22q-1.51-.39-2.37-.69a4.63,4.63,0,0,1-1.57-.94l-.11-.11a6.24,6.24,0,0,1-1.45-1.93,5.19,5.19,0,0,1-.51-2.26,5.42,5.42,0,0,1,.55-2.37,6.54,6.54,0,0,1,1.57-2,7.32,7.32,0,0,1,2.31-1.31,8,8,0,0,1,2.68-.45,8.14,8.14,0,0,1,2.7.45,7.26,7.26,0,0,1,2.32,1.31,6.18,6.18,0,0,1,1.55,2,5.41,5.41,0,0,1,.54,2.37v.36Z"/><path class="cls-3" d="M209.29,355.07h4.65l-2,6.23h-4.1Z"/><path class="cls-3" d="M231.67,346.27a6.81,6.81,0,0,1,2.33,2.41,6.55,6.55,0,0,1-.08,6.59,7.14,7.14,0,0,1-12.13,0,6.41,6.41,0,0,1-.93-3.37H225a2.91,2.91,0,0,0,2.89,2.76,2.85,2.85,0,0,0,2.07-.84,2.76,2.76,0,0,0,.86-2.05,2.94,2.94,0,0,0-2.93-2.93h-.11a2.84,2.84,0,0,0-1.43.45,2.66,2.66,0,0,0-.69.57h-4.49l.17-.69L223.5,339h10v4.16h-6.7l-.6,2.29.36-.11a5.47,5.47,0,0,1,.77-.14,7.5,7.5,0,0,1,1.07,0A7,7,0,0,1,231.67,346.27Z"/><path class="cls-3" d="M250.14,354.05v4.41H235.93v-4l2.89-2.21,4.05-3.06,1.49-1.13.14-.11a2.72,2.72,0,0,0,.67-.91,2.62,2.62,0,0,0,.23-1.1,2.46,2.46,0,0,0-.57-1.66,2.65,2.65,0,0,0-.83-.63,2.24,2.24,0,0,0-1-.22,2.21,2.21,0,0,0-1.46.52,2.13,2.13,0,0,0-.75,1.05h-4.87a6.89,6.89,0,0,1,1.25-3.11,7.29,7.29,0,0,1,2.53-2.22,7.13,7.13,0,0,1,8.12,1l.19.17a7.91,7.91,0,0,1,1.16,1.43,6.61,6.61,0,0,1,.77,3.22,7.69,7.69,0,0,1-.58,2.93,7.33,7.33,0,0,1-1.79,2.59,10.78,10.78,0,0,1-.85.71l-2.35,1.74-.68.52Z"/><path class="cls-3" d="M265.6,350.69h2.7v4.16h-2.7v3.61h-4.47v-3.61h-9.69v-4.57l9-11.28h.68v0h4.47v11.71Zm-9.23,0h4.76v-5.87Z"/><path class="cls-3" d="M288.11,339.17l6.36,19.29h-4.79l-1.27-3.94h-6l-1.24,3.94h-4.82l6.39-19.29Zm-4.44,11.33h3.47L285.41,345Z"/><path class="cls-3" d="M311.25,358.46h-5l-3.08-7.36H300v7.36h-4.66V339h9.29a6,6,0,0,1,3,.81,5.91,5.91,0,0,1,2.22,2.22A6.08,6.08,0,0,1,310,348a6.33,6.33,0,0,1-2,2.19Zm-5.48-14.84a1.88,1.88,0,0,0-1.3-.65H299.9v4.14h4.57a2,2,0,0,0,1.3-.68,2.06,2.06,0,0,0,.52-1.42A2,2,0,0,0,305.77,343.62Z"/><path class="cls-3" d="M327.45,339v5h-5v14.52h-5V343.94h-5v-5h15Z"/><path class="cls-3" d="M333.68,339v19.48h-5V339Z"/><path class="cls-3" d="M347.2,353.46a5.32,5.32,0,0,0,1.66-1.09l3.36,3.37a10,10,0,0,1-3.17,2.13,9.89,9.89,0,0,1-8.74-.56,9.94,9.94,0,0,1-3.58-3.59,9.58,9.58,0,0,1-1.32-4.93,9.71,9.71,0,0,1,1.32-5,10,10,0,0,1,3.58-3.6,9.89,9.89,0,0,1,8.74-.56,10,10,0,0,1,3.17,2.13l-3.36,3.37a5.5,5.5,0,0,0-1.66-1.09,5,5,0,0,0-4.49.29,5.21,5.21,0,0,0-1.84,1.86,5,5,0,0,0,0,5.09,5.23,5.23,0,0,0,1.84,1.84,5,5,0,0,0,4.49.29Z"/><path class="cls-3" d="M358.33,353.78H366v4.68H353.38V339h4.95Z"/><path class="cls-3" d="M381.15,354.25v4.21H367.89V339h13v4.21h-8v3.42h6.75v4.22h-6.75v3.42Z"/><path class="cls-3" d="M392.72,345.15v-.36a1.71,1.71,0,0,0-.68-1.36,2.46,2.46,0,0,0-1.64-.57,2.6,2.6,0,0,0-1.69.57,1.68,1.68,0,0,0-.7,1.36,1.27,1.27,0,0,0,.71,1.19,6,6,0,0,0,1.88.77c.12,0,.27,0,.42.08l.49.11a9.49,9.49,0,0,1,3.93,1.63l.25.22a5.92,5.92,0,0,1,1.31,1.9,5.51,5.51,0,0,1,.48,2.21,5.61,5.61,0,0,1-.53,2.37,6.21,6.21,0,0,1-1.56,2,7.32,7.32,0,0,1-2.31,1.31,8.24,8.24,0,0,1-2.71.45,8,8,0,0,1-2.68-.45,7.39,7.39,0,0,1-2.3-1.31,6.39,6.39,0,0,1-1.57-2,5.35,5.35,0,0,1-.55-2.37v-.36h4.82v.36a1.7,1.7,0,0,0,.67,1.36,2.42,2.42,0,0,0,1.61.57,2.61,2.61,0,0,0,1.7-.57,1.68,1.68,0,0,0,.7-1.36,1.61,1.61,0,0,0-.74-1.22,3.3,3.3,0,0,0-.77-.41q-.45-.16-1.08-.33l-.91-.22q-1.51-.39-2.37-.69a4.63,4.63,0,0,1-1.57-.94l-.11-.11a6.21,6.21,0,0,1-1.44-1.93,5.19,5.19,0,0,1-.51-2.26,5.28,5.28,0,0,1,.55-2.37,6.39,6.39,0,0,1,1.57-2,7.39,7.39,0,0,1,2.3-1.31,8,8,0,0,1,2.68-.45,8.24,8.24,0,0,1,2.71.45,7.32,7.32,0,0,1,2.31,1.31,6.21,6.21,0,0,1,1.56,2,5.54,5.54,0,0,1,.53,2.37v.36Z"/><path class="cls-3" d="M405.75,355.27l-2,5.73h-4.13l2-5.73Zm-2.31-5.49a2.23,2.23,0,0,0,1.61-.66,2.14,2.14,0,0,0,.67-1.6,2.24,2.24,0,0,0-.66-1.63,2.2,2.2,0,0,0-1.62-.66,2.25,2.25,0,0,0-2.24,2.29,2.47,2.47,0,0,0,.69,1.6A2.06,2.06,0,0,0,403.44,349.78Z"/><path class="cls-3" d="M63,419.57a3.72,3.72,0,0,1,.43,1.78,3.78,3.78,0,0,1-.51,1.92,3.88,3.88,0,0,1-3.32,1.93H52.93V411.84h6a3.67,3.67,0,0,1,1.94.53,3.91,3.91,0,0,1,1.37,1.4,3.75,3.75,0,0,1,.23,3.27,3.66,3.66,0,0,1-.73,1.18A3.78,3.78,0,0,1,63,419.57ZM59.46,415a1.31,1.31,0,0,0-1-.4H56v2.83h2.45a2.93,2.93,0,0,0,.45-.08,1.09,1.09,0,0,0,.34-.19,1.32,1.32,0,0,0,.44-.5,1.53,1.53,0,0,0,.15-.67A1.38,1.38,0,0,0,59.46,415Zm.57,7a1.29,1.29,0,0,0,.38-1,1.34,1.34,0,0,0-.32-.9,1.41,1.41,0,0,0-.81-.48c-.07,0-1,0-2.67,0H56v2.83h3A1.36,1.36,0,0,0,60,422Z"/><path class="cls-3" d="M67.93,411.86V425.2H64.54V411.86Z"/><path class="cls-3" d="M78.94,411.86v3.4H75.53v9.94H72.12v-9.94H68.71v-3.4H78.94Z"/><path class="cls-3" d="M88.18,421.77a3.75,3.75,0,0,0,1.13-.74l2.3,2.3a6.64,6.64,0,0,1-2.17,1.46,6.72,6.72,0,0,1-6-.39A6.69,6.69,0,0,1,81,422a6.48,6.48,0,0,1-.91-3.37,6.58,6.58,0,0,1,.91-3.39,6.65,6.65,0,0,1,2.45-2.46,6.58,6.58,0,0,1,3.37-.91,6.67,6.67,0,0,1,2.6.52,6.83,6.83,0,0,1,2.17,1.47l-2.3,2.3a3.6,3.6,0,0,0-1.13-.75,3.41,3.41,0,0,0-1.34-.27,3.26,3.26,0,0,0-1.73.47,3.49,3.49,0,0,0-1.26,1.27,3.36,3.36,0,0,0-.48,1.75,3.27,3.27,0,0,0,.48,1.73,3.46,3.46,0,0,0,1.26,1.26,3.35,3.35,0,0,0,3.07.2Z"/><path class="cls-3" d="M101.85,412.77a6.74,6.74,0,0,1,3.35,5.84,6.58,6.58,0,0,1-.9,3.38,6.77,6.77,0,0,1-2.45,2.45,6.73,6.73,0,0,1-6.76,0,6.74,6.74,0,0,1,0-11.67,6.73,6.73,0,0,1,6.76,0Zm-1.64,8.84a3.54,3.54,0,0,0,1.26-1.26,3.46,3.46,0,0,0,0-3.48,3.57,3.57,0,0,0-1.26-1.27,3.39,3.39,0,0,0-3.48,0,3.44,3.44,0,0,0-1.27,1.27,3.39,3.39,0,0,0,0,3.48,3.41,3.41,0,0,0,1.27,1.26,3.46,3.46,0,0,0,3.48,0Z"/><path class="cls-3" d="M110,411.86V425.2H106.6V411.86Z"/><path class="cls-3" d="M118.28,411.86h3.4V425.2h-3.4l-3.92-7.15v7.15H111V411.86h3.41l3.92,7.15Z"/><path class="cls-3" d="M132.61,411.86v3.4H129.2v9.94h-3.41v-9.94h-3.42v-3.4h10.24Z"/><path class="cls-3" d="M141.09,412l4.36,13.2h-3.28l-.87-2.7h-4.13l-.85,2.7H133L137.4,412Zm-3,7.75h2.37L139.25,416Z"/><path class="cls-3" d="M149.16,422h5.24v3.21h-8.63V411.86h3.39Z"/><path class="cls-3" d="M162.37,418.46l4,6.74h-3.77l-3.28-5.38v5.38h-3.39V411.86h3.39v5.21l3.28-5.21h3.77Z"/><path class="cls-3" d="M186.1,412.42a4.13,4.13,0,0,1,1.51,1.51,4.23,4.23,0,0,1,0,4.17,4.18,4.18,0,0,1-1.51,1.5,4,4,0,0,1-2.09.56h-3.16v5h-3.19V411.86H184A4.09,4.09,0,0,1,186.1,412.42ZM184.8,415a1.3,1.3,0,0,0-.9-.44h-3.13v2.83h3.13a1.29,1.29,0,0,0,.9-.47,1.44,1.44,0,0,0,.36-1A1.39,1.39,0,0,0,184.8,415Z"/><path class="cls-3" d="M200.15,425.2h-3.41l-2.11-5h-2.17v5h-3.19V411.86h6.36a4.14,4.14,0,0,1,4.14,4.15,3.91,3.91,0,0,1-.51,2,4.19,4.19,0,0,1-1.37,1.5ZM196.4,415a1.26,1.26,0,0,0-.89-.44h-3.13v2.83h3.13a1.37,1.37,0,0,0,.89-.47,1.46,1.46,0,0,0,0-1.92Z"/><path class="cls-3" d="M210.63,412.77a6.65,6.65,0,0,1,2.45,2.46,6.57,6.57,0,0,1,.91,3.38,6.49,6.49,0,0,1-.91,3.38,6.69,6.69,0,0,1-2.45,2.45,6.48,6.48,0,0,1-3.37.91,6.58,6.58,0,0,1-3.39-.91,6.8,6.8,0,0,1-2.46-2.45,6.58,6.58,0,0,1-.9-3.38,6.66,6.66,0,0,1,.9-3.38,6.75,6.75,0,0,1,2.46-2.46,6.58,6.58,0,0,1,3.39-.91A6.48,6.48,0,0,1,210.63,412.77ZM209,421.61a3.46,3.46,0,0,0,1.26-1.26,3.39,3.39,0,0,0,0-3.48A3.49,3.49,0,0,0,209,415.6a3.29,3.29,0,0,0-1.73-.48,3.36,3.36,0,0,0-1.75.48,3.59,3.59,0,0,0-1.27,1.27,3.46,3.46,0,0,0,0,3.48,3.57,3.57,0,0,0,1.27,1.26,3.36,3.36,0,0,0,1.75.47A3.29,3.29,0,0,0,209,421.61Z"/><path class="cls-3" d="M225.66,411.86h3.39V425.2h-3.39v-7.53l-1.66,3-.08.15h-3.39l-.1-.15-.22-.43-1.42-2.59v7.53h-3.41V411.86h3.41l3.43,5.68Z"/><path class="cls-3" d="M239.64,412.77a6.65,6.65,0,0,1,2.45,2.46,6.57,6.57,0,0,1,.91,3.38,6.49,6.49,0,0,1-.91,3.38,6.69,6.69,0,0,1-2.45,2.45,6.71,6.71,0,0,1-6.75,0,6.75,6.75,0,0,1-2.47-2.45,6.58,6.58,0,0,1-.9-3.38,6.7,6.7,0,0,1,3.37-5.84,6.71,6.71,0,0,1,6.75,0ZM238,421.61a3.46,3.46,0,0,0,1.26-1.26,3.39,3.39,0,0,0,0-3.48A3.49,3.49,0,0,0,238,415.6a3.27,3.27,0,0,0-1.73-.48,3.36,3.36,0,0,0-1.75.48,3.59,3.59,0,0,0-1.27,1.27,3.46,3.46,0,0,0,0,3.48,3.57,3.57,0,0,0,1.27,1.26,3.36,3.36,0,0,0,1.75.47A3.26,3.26,0,0,0,238,421.61Z"/><path class="cls-3" d="M254.44,411.86v3.4H251v9.94h-3.41v-9.94H244.2v-3.4h10.24Z"/><path class="cls-3" d="M259.38,411.86V425.2H256V411.86Z"/><path class="cls-3" d="M270.09,412.77a6.74,6.74,0,0,1,3.35,5.84,6.58,6.58,0,0,1-.9,3.38,6.77,6.77,0,0,1-2.45,2.45,6.73,6.73,0,0,1-6.76,0,6.65,6.65,0,0,1-2.46-2.45,6.49,6.49,0,0,1-.91-3.38,6.75,6.75,0,0,1,10.13-5.84Zm-1.64,8.84a3.62,3.62,0,0,0,1.26-1.26,3.46,3.46,0,0,0,0-3.48,3.65,3.65,0,0,0-1.26-1.27,3.39,3.39,0,0,0-3.48,0,3.44,3.44,0,0,0-1.27,1.27,3.39,3.39,0,0,0,0,3.48,3.41,3.41,0,0,0,1.27,1.26,3.46,3.46,0,0,0,3.48,0Z"/><path class="cls-3" d="M282.17,411.86h3.39V425.2h-3.39l-3.92-7.15v7.15h-3.41V411.86h3.41l3.92,7.15Z"/><path class="cls-3" d="M287,418.88a1.69,1.69,0,0,1-.47-1.09,1.49,1.49,0,0,1,.44-1.11,1.45,1.45,0,0,1,1.09-.46,1.54,1.54,0,0,1,1.56,1.57,1.47,1.47,0,0,1-.46,1.09,1.52,1.52,0,0,1-1.1.45A1.41,1.41,0,0,1,287,418.88Zm0,5.87a1.72,1.72,0,0,1-.47-1.1,1.55,1.55,0,0,1,1.53-1.57,1.55,1.55,0,0,1,1.56,1.57,1.49,1.49,0,0,1-.46,1.1,1.52,1.52,0,0,1-1.1.45A1.41,1.41,0,0,1,287,424.75Z"/><path class="cls-3" d="M66.74,444.52,63.54,448a6.86,6.86,0,0,1,2.33,2.4A6.45,6.45,0,0,1,65.8,457a6.79,6.79,0,0,1-2.54,2.45,7.24,7.24,0,0,1-7,0A6.82,6.82,0,0,1,53.68,457a6.41,6.41,0,0,1-.94-3.36h4.49a2.29,2.29,0,0,0,.73,1.69,2.47,2.47,0,0,0,1.78.7,2.43,2.43,0,0,0,1.75-.7,2.25,2.25,0,0,0,.73-1.69v-.06a2.66,2.66,0,0,0-.26-1.11,4.34,4.34,0,0,0-1.2-1.51A7.61,7.61,0,0,0,59,449.73v-2.35l.44-.49L61,445.21l.64-.69H53.41v-3.81H66.74Z"/><path class="cls-3" d="M83,452.26h2.7v4.17H83V460H78.5v-3.61H68.81v-4.58l9-11.27h.68v0H83v11.71Zm-9.23,0H78.5v-5.87Z"/><path class="cls-3" d="M101.51,444.52,98.31,448a6.86,6.86,0,0,1,2.33,2.4,6.45,6.45,0,0,1-.07,6.59A6.75,6.75,0,0,1,98,459.4a7.22,7.22,0,0,1-7,0A6.75,6.75,0,0,1,88.45,457a6.41,6.41,0,0,1-.94-3.36H92a2.29,2.29,0,0,0,.73,1.69,2.47,2.47,0,0,0,1.78.7,2.43,2.43,0,0,0,1.75-.7,2.25,2.25,0,0,0,.73-1.69v-.06a2.66,2.66,0,0,0-.26-1.11,4.34,4.34,0,0,0-1.2-1.51,7.83,7.83,0,0,0-1.79-1.18v-2.35l.44-.49,1.54-1.68.64-.69H88.17v-3.81h13.34Z"/><path class="cls-3" d="M122.13,441.36a6,6,0,0,1,2.2,2.21,6.06,6.06,0,0,1,0,6.09,6,6,0,0,1-2.2,2.2,5.85,5.85,0,0,1-3,.82h-4.63V460H109.8V440.55h9.29A5.94,5.94,0,0,1,122.13,441.36Zm-1.9,3.83a1.87,1.87,0,0,0-1.31-.64h-4.57v4.13h4.57a1.84,1.84,0,0,0,1.31-.68,2.08,2.08,0,0,0,.54-1.42A2,2,0,0,0,120.23,445.19Z"/><path class="cls-3" d="M137.32,440.74l6.37,19.3h-4.8l-1.26-3.94h-6L130.35,460h-4.82l6.39-19.3Zm-4.43,11.33h3.47l-1.74-5.46Z"/><path class="cls-3" d="M160.47,460h-5l-3.09-7.36h-3.16V460h-4.66V440.55h9.28a6.06,6.06,0,0,1,5.25,3,6,6,0,0,1,.82,3,5.84,5.84,0,0,1-.75,2.91,6.3,6.3,0,0,1-2,2.19ZM155,445.19a1.83,1.83,0,0,0-1.29-.64h-4.58v4.13h4.58A2,2,0,0,0,155,448a2.13,2.13,0,0,0,0-2.81Z"/><path class="cls-3" d="M176.67,440.55v5h-5V460h-5V445.51h-5v-5h15Z"/><path class="cls-3" d="M182.89,440.55V460h-5V440.55Z"/><path class="cls-3" d="M196.42,455a5,5,0,0,0,1.65-1.09l3.36,3.37a9.86,9.86,0,0,1-11.9,1.57A9.91,9.91,0,0,1,186,455.3a9.92,9.92,0,0,1,0-9.89,9.86,9.86,0,0,1,3.58-3.59,9.52,9.52,0,0,1,4.93-1.33,9.64,9.64,0,0,1,3.81.76,9.87,9.87,0,0,1,3.16,2.14l-3.36,3.36a5.33,5.33,0,0,0-1.65-1.09,5.05,5.05,0,0,0-2-.4,4.83,4.83,0,0,0-2.53.69,5.23,5.23,0,0,0-1.85,1.86,4.93,4.93,0,0,0-.69,2.55,4.87,4.87,0,0,0,.69,2.54,5.18,5.18,0,0,0,1.85,1.84,5,5,0,0,0,4.49.29Z"/><path class="cls-3" d="M207.55,440.55V460h-5V440.55Z"/><path class="cls-3" d="M222.17,441.36a6.06,6.06,0,0,1,2.2,2.21,6.13,6.13,0,0,1,0,6.09,6,6,0,0,1-2.2,2.2,5.89,5.89,0,0,1-3,.82h-4.63V460h-4.65V440.55h9.28A6,6,0,0,1,222.17,441.36Zm-1.91,3.83a1.85,1.85,0,0,0-1.3-.64h-4.58v4.13H219a1.82,1.82,0,0,0,1.3-.68,2.08,2.08,0,0,0,.54-1.42A2,2,0,0,0,220.26,445.19Z"/><path class="cls-3" d="M237.36,440.74l6.36,19.3h-4.79l-1.27-3.94h-6L230.39,460h-4.82l6.39-19.3Zm-4.44,11.33h3.48l-1.74-5.46Z"/><path class="cls-3" d="M255.32,440.55h5V460h-5l-5.73-10.45V460h-5V440.55h5L255.32,451Z"/><path class="cls-3" d="M276.7,440.55v5h-5V460h-5V445.51h-5v-5h15Z"/><path class="cls-3" d="M286.87,446.72v-.36a1.73,1.73,0,0,0-.68-1.36,2.44,2.44,0,0,0-1.64-.57,2.6,2.6,0,0,0-1.69.57,1.69,1.69,0,0,0-.7,1.36,1.27,1.27,0,0,0,.71,1.19,6.05,6.05,0,0,0,1.88.77l.42.08.49.11a9.54,9.54,0,0,1,3.94,1.63l.24.22a5.76,5.76,0,0,1,1.31,1.9,5.54,5.54,0,0,1,.48,2.21,5.4,5.4,0,0,1-.53,2.37,6.21,6.21,0,0,1-1.56,2,7.32,7.32,0,0,1-2.31,1.31,8.23,8.23,0,0,1-2.7.46,8,8,0,0,1-2.69-.46,7.39,7.39,0,0,1-2.3-1.31,6.39,6.39,0,0,1-1.57-2,5.28,5.28,0,0,1-.55-2.37v-.36h4.82v.36a1.71,1.71,0,0,0,.68,1.36,2.4,2.4,0,0,0,1.61.57,2.6,2.6,0,0,0,1.69-.57,1.68,1.68,0,0,0,.7-1.36,1.56,1.56,0,0,0-.74-1.21,3,3,0,0,0-.77-.42,10.32,10.32,0,0,0-1.08-.33l-.9-.22q-1.53-.39-2.37-.69a4.66,4.66,0,0,1-1.57-.93l-.12-.12a6.21,6.21,0,0,1-1.44-1.93,5.19,5.19,0,0,1-.51-2.26A5.35,5.35,0,0,1,278,444a6.39,6.39,0,0,1,1.57-2,7.39,7.39,0,0,1,2.3-1.31,8,8,0,0,1,2.69-.45,8.22,8.22,0,0,1,2.7.45,7.32,7.32,0,0,1,2.31,1.31,6.21,6.21,0,0,1,1.56,2,5.46,5.46,0,0,1,.53,2.37v.36Z"/><path class="cls-3" d="M294.83,456.65h4.66l-2,6.23h-4.11Z"/><path class="cls-3" d="M320.4,444.52,317.2,448a7,7,0,0,1,2.33,2.4,6.29,6.29,0,0,1,.87,3.23,6.41,6.41,0,0,1-.94,3.36,6.75,6.75,0,0,1-2.55,2.45,7.22,7.22,0,0,1-7,0,6.75,6.75,0,0,1-2.55-2.45,6.32,6.32,0,0,1-.94-3.36h4.49a2.25,2.25,0,0,0,.73,1.69,2.47,2.47,0,0,0,1.78.7,2.43,2.43,0,0,0,1.75-.7,2.29,2.29,0,0,0,.73-1.69v-.06a2.66,2.66,0,0,0-.26-1.11,4.59,4.59,0,0,0-1.2-1.51,7.83,7.83,0,0,0-1.79-1.18v-2.35l.44-.49,1.54-1.68.63-.69h-8.18v-3.81H320.4Z"/><path class="cls-3" d="M328,440.55h2.26V460h-5V446.25l-2.7.86v-4.85l2.7-.86Z"/><path class="cls-3" d="M346.21,440.74l-5,19.49H336L340,445.15h-7.5v-4.41h13.75Z"/><path class="cls-3" d="M358.14,448.07a6.73,6.73,0,0,1,2.08,2.36,6.49,6.49,0,0,1-.18,6.41,6.75,6.75,0,0,1-2.55,2.45,7.22,7.22,0,0,1-7,0,6.75,6.75,0,0,1-2.55-2.45,6.41,6.41,0,0,1-.94-3.36,6.3,6.3,0,0,1,1.22-3.78l6-9.1h5.12l-4.16,6.26A7.19,7.19,0,0,1,358.14,448.07Zm-2.23,7.28a2.51,2.51,0,0,0,.8-1.87,2.48,2.48,0,0,0-.8-1.85,2.7,2.7,0,0,0-1.93-.77,2.74,2.74,0,0,0-1.94.77,2.46,2.46,0,0,0-.81,1.85,2.48,2.48,0,0,0,.81,1.87,2.69,2.69,0,0,0,1.94.77A2.66,2.66,0,0,0,355.91,455.35Z"/><path class="cls-3" d="M381.6,441.36a6,6,0,0,1,2.2,2.21,6.06,6.06,0,0,1,0,6.09,6,6,0,0,1-2.2,2.2,5.85,5.85,0,0,1-3,.82h-4.63V460h-4.66V440.55h9.29A5.94,5.94,0,0,1,381.6,441.36Zm-1.9,3.83a1.87,1.87,0,0,0-1.31-.64h-4.57v4.13h4.57a1.84,1.84,0,0,0,1.31-.68,2.08,2.08,0,0,0,.54-1.42A2,2,0,0,0,379.7,445.19Z"/><path class="cls-3" d="M400.9,441.87a9.81,9.81,0,0,1,3.58,3.6,9.9,9.9,0,0,1,0,9.88,9.83,9.83,0,0,1-3.58,3.58,9.52,9.52,0,0,1-4.93,1.33,9.62,9.62,0,0,1-5-1.33,9.78,9.78,0,0,1-3.59-3.58,9.9,9.9,0,0,1,0-9.88,9.81,9.81,0,0,1,8.54-4.92A9.61,9.61,0,0,1,400.9,441.87Zm-2.4,12.93a5.21,5.21,0,0,0,1.85-1.85,4.83,4.83,0,0,0,.69-2.53,4.93,4.93,0,0,0-.69-2.55A5.08,5.08,0,0,0,398.5,446a4.83,4.83,0,0,0-2.53-.69,4.93,4.93,0,0,0-2.55.69,5.1,5.1,0,0,0-1.86,1.86,4.93,4.93,0,0,0-.69,2.55,4.83,4.83,0,0,0,.69,2.53,5.23,5.23,0,0,0,1.86,1.85,4.93,4.93,0,0,0,2.55.69A4.83,4.83,0,0,0,398.5,454.8Z"/><path class="cls-3" d="M415.86,446.72v-.36a1.73,1.73,0,0,0-.68-1.36,2.42,2.42,0,0,0-1.63-.57,2.61,2.61,0,0,0-1.7.57,1.69,1.69,0,0,0-.7,1.36,1.27,1.27,0,0,0,.71,1.19,6.05,6.05,0,0,0,1.88.77l.43.08.48.11a9.54,9.54,0,0,1,3.94,1.63l.25.22a5.89,5.89,0,0,1,1.3,1.9,5.35,5.35,0,0,1-.05,4.58,6.21,6.21,0,0,1-1.56,2,7.32,7.32,0,0,1-2.31,1.31,8.23,8.23,0,0,1-2.7.46,8,8,0,0,1-2.69-.46,7.39,7.39,0,0,1-2.3-1.31,6.39,6.39,0,0,1-1.57-2,5.28,5.28,0,0,1-.55-2.37v-.36h4.82v.36a1.71,1.71,0,0,0,.68,1.36,2.4,2.4,0,0,0,1.61.57,2.6,2.6,0,0,0,1.69-.57,1.69,1.69,0,0,0,.71-1.36,1.58,1.58,0,0,0-.75-1.21,3,3,0,0,0-.77-.42,10.84,10.84,0,0,0-1.07-.33l-.91-.22q-1.51-.39-2.37-.69a4.66,4.66,0,0,1-1.57-.93l-.11-.12a6.09,6.09,0,0,1-1.45-1.93,5.19,5.19,0,0,1-.51-2.26A5.35,5.35,0,0,1,407,444a6.39,6.39,0,0,1,1.57-2,7.39,7.39,0,0,1,2.3-1.31,8,8,0,0,1,2.69-.45,8.22,8.22,0,0,1,2.7.45,7.32,7.32,0,0,1,2.31,1.31,6.21,6.21,0,0,1,1.56,2,5.47,5.47,0,0,1,.54,2.37v.36Z"/><path class="cls-3" d="M437.57,440.55v5h-5V460h-5V445.51h-5v-5h15Z"/><path class="cls-3" d="M447.73,446.72v-.36a1.72,1.72,0,0,0-.67-1.36,2.46,2.46,0,0,0-1.64-.57,2.6,2.6,0,0,0-1.69.57,1.7,1.7,0,0,0-.71,1.36,1.26,1.26,0,0,0,.72,1.19,6,6,0,0,0,1.87.77l.43.08.48.11a9.48,9.48,0,0,1,3.94,1.63l.25.22a5.92,5.92,0,0,1,1.31,1.9,5.45,5.45,0,0,1,0,4.58,6.21,6.21,0,0,1-1.56,2,7.26,7.26,0,0,1-2.32,1.31,8.15,8.15,0,0,1-2.7.46,8,8,0,0,1-2.68-.46,7.28,7.28,0,0,1-2.3-1.31,6.25,6.25,0,0,1-1.57-2,5.28,5.28,0,0,1-.55-2.37v-.36h4.82v.36a1.7,1.7,0,0,0,.67,1.36,2.42,2.42,0,0,0,1.61.57,2.61,2.61,0,0,0,1.7-.57,1.68,1.68,0,0,0,.7-1.36,1.59,1.59,0,0,0-.74-1.21,3,3,0,0,0-.77-.42q-.45-.16-1.08-.33l-.91-.22q-1.52-.39-2.37-.69a4.76,4.76,0,0,1-1.57-.93l-.11-.12a6.06,6.06,0,0,1-1.44-1.93,5.19,5.19,0,0,1-.51-2.26,5.35,5.35,0,0,1,.55-2.37,6.25,6.25,0,0,1,1.57-2,7.28,7.28,0,0,1,2.3-1.31,8,8,0,0,1,2.68-.45,8.14,8.14,0,0,1,2.7.45,7.26,7.26,0,0,1,2.32,1.31,6.21,6.21,0,0,1,1.56,2,5.61,5.61,0,0,1,.53,2.37v.36Z"/><path class="cls-3" d="M460.77,456.84l-2,5.73H454.6l2-5.73Zm-2.32-5.49a2.23,2.23,0,0,0,1.62-.66,2.28,2.28,0,0,0,0-3.22,2.21,2.21,0,0,0-1.63-.66,2.14,2.14,0,0,0-1.59.67,2.1,2.1,0,0,0-.64,1.61,2.47,2.47,0,0,0,.69,1.6A2.06,2.06,0,0,0,458.45,451.35Z"/><path class="cls-3" d="M627.83,225.23V225a1,1,0,0,0-.37-.75,1.31,1.31,0,0,0-.89-.31,1.39,1.39,0,0,0-.93.31.94.94,0,0,0-.39.75.69.69,0,0,0,.4.65,3.26,3.26,0,0,0,1,.42l.24.05.26.06a5.14,5.14,0,0,1,2.16.89l.13.12a3.18,3.18,0,0,1,.72,1,2.9,2.9,0,0,1,.26,1.21,3,3,0,0,1-.29,1.3,3.43,3.43,0,0,1-.85,1.1,4.31,4.31,0,0,1-1.27.72,4.59,4.59,0,0,1-1.48.24,4.53,4.53,0,0,1-1.47-.24,4.13,4.13,0,0,1-1.26-.72,3.47,3.47,0,0,1-.86-1.1,3,3,0,0,1-.3-1.3v-.2h2.64v.2a.91.91,0,0,0,.37.74,1.3,1.3,0,0,0,.88.31,1.43,1.43,0,0,0,.93-.31.83.83,0,0,0,0-1.41,1.58,1.58,0,0,0-.43-.22l-.58-.19-.5-.12c-.56-.14-1-.26-1.3-.37a2.64,2.64,0,0,1-.86-.52l-.06-.06a3.3,3.3,0,0,1-.79-1,2.84,2.84,0,0,1-.28-1.24,2.92,2.92,0,0,1,.3-1.3,3.47,3.47,0,0,1,.86-1.1,4.13,4.13,0,0,1,1.26-.72,4.28,4.28,0,0,1,1.47-.25,4.27,4.27,0,0,1,2.75,1,3.43,3.43,0,0,1,.85,1.1,2.91,2.91,0,0,1,.29,1.3v.2Z"/><path class="cls-3" d="M639,222.57a5.29,5.29,0,0,1,2,2,5.39,5.39,0,0,1-2,7.37,5.16,5.16,0,0,1-2.7.73,5.22,5.22,0,0,1-2.71-.73,5.37,5.37,0,0,1-2-2,5.44,5.44,0,0,1,0-5.41,5.39,5.39,0,0,1,2-2,5.22,5.22,0,0,1,2.71-.73A5.16,5.16,0,0,1,639,222.57Zm-1.31,7.08a2.87,2.87,0,0,0,1-1,2.71,2.71,0,0,0,.38-1.39,2.75,2.75,0,0,0-.38-1.4,2.82,2.82,0,0,0-1-1,2.68,2.68,0,0,0-1.39-.37,2.74,2.74,0,0,0-1.4.37,2.82,2.82,0,0,0-1,1,2.66,2.66,0,0,0-.38,1.4,2.62,2.62,0,0,0,.38,1.39,2.87,2.87,0,0,0,1,1,2.75,2.75,0,0,0,1.4.38A2.69,2.69,0,0,0,637.69,229.65Z"/><path class="cls-3" d="M648.34,229.78a3.27,3.27,0,0,0,.91-.6l1.84,1.84a5.5,5.5,0,0,1-1.74,1.17,5.39,5.39,0,0,1-6.74-7.68,5.29,5.29,0,0,1,2-2,5.16,5.16,0,0,1,2.7-.73,5.22,5.22,0,0,1,2.08.42,5.34,5.34,0,0,1,1.74,1.17l-1.84,1.84a3.27,3.27,0,0,0-.91-.6,2.81,2.81,0,0,0-1.07-.22,2.69,2.69,0,0,0-1.39.38,2.82,2.82,0,0,0-1,1,2.75,2.75,0,0,0,0,2.79,2.87,2.87,0,0,0,1,1,2.69,2.69,0,0,0,1.39.38A2.81,2.81,0,0,0,648.34,229.78Z"/><path class="cls-3" d="M654.51,221.84v10.68H651.8V221.84Z"/><path class="cls-3" d="M661.45,222l3.49,10.57h-2.63l-.69-2.16h-3.3l-.68,2.16H655L658.5,222Zm-2.43,6.2h1.91l-1-3Z"/><path class="cls-3" d="M668.21,230h4.2v2.57H665.5V221.84h2.71Z"/><path class="cls-3" d="M682.34,221.84h2.71v10.68h-2.71l-3.14-5.73v5.73h-2.73V221.84h2.73l3.14,5.72Z"/><path class="cls-3" d="M693.34,230.21v2.31h-7.26V221.84h7.12v2.31h-4.39V226h3.7v2.31h-3.7v1.88Z"/><path class="cls-3" d="M702.36,221.84v2.72h-2.73v8H696.9v-8h-2.73v-2.72h8.19Z"/><path class="cls-3" d="M712.5,221.84h2.35v10.68h-2.71L709.39,228l-2.76,4.55h-2.72V221.84h2.72v6l1.33-2.42.07-.12h2.72l.06.12,1.33,2.42v-6Z"/><path class="cls-3" d="M724.06,222.57a5.43,5.43,0,0,1,2.69,4.68,5.4,5.4,0,0,1-2.69,4.66,5.38,5.38,0,0,1-5.41,0,5.39,5.39,0,0,1,0-9.34,5.38,5.38,0,0,1,5.41,0Zm-1.31,7.08a3,3,0,0,0,1-1,2.71,2.71,0,0,0,.38-1.39,2.75,2.75,0,0,0-.38-1.4,2.9,2.9,0,0,0-1-1,2.81,2.81,0,0,0-2.79,0,2.77,2.77,0,0,0-1,1,2.74,2.74,0,0,0-.37,1.4,2.71,2.71,0,0,0,.37,1.39,2.82,2.82,0,0,0,1,1,2.75,2.75,0,0,0,2.79,0Z"/><path class="cls-3" d="M736,232.52h-2.73l-1.69-4h-1.74v4h-2.55V221.84h5.09a3.23,3.23,0,0,1,1.66.45,3.2,3.2,0,0,1,1.21,1.21,3.31,3.31,0,0,1,0,3.26,3.42,3.42,0,0,1-1.1,1.2Zm-3-8.13a1,1,0,0,0-.71-.36h-2.51v2.27h2.51a1.1,1.1,0,0,0,.71-.37,1.15,1.15,0,0,0,.28-.78A1.1,1.1,0,0,0,733,224.39Z"/><path class="cls-3" d="M742,227.13l3.19,5.39h-3l-2.63-4.31v4.31h-2.71V221.84h2.71V226l2.63-4.17h3Z"/><path class="cls-3" d="M751.33,225.23V225a1,1,0,0,0-.37-.75,1.35,1.35,0,0,0-.9-.31,1.43,1.43,0,0,0-.93.31,1,1,0,0,0-.38.75.69.69,0,0,0,.39.65,3.23,3.23,0,0,0,1,.42l.23.05.26.06a5.08,5.08,0,0,1,2.16.89l.14.12a3.15,3.15,0,0,1,.71,1,2.91,2.91,0,0,1,.27,1.21,3,3,0,0,1-.3,1.3,3.3,3.3,0,0,1-.85,1.1,4.07,4.07,0,0,1-1.27.72,4.65,4.65,0,0,1-2.95,0,4.38,4.38,0,0,1-1.26-.72,3.47,3.47,0,0,1-.86-1.1,3,3,0,0,1-.3-1.3v-.2h2.64v.2a.94.94,0,0,0,.37.74,1.32,1.32,0,0,0,.88.31,1.39,1.39,0,0,0,.93-.31.82.82,0,0,0,0-1.41,1.67,1.67,0,0,0-.42-.22l-.59-.19-.5-.12c-.55-.14-1-.26-1.3-.37a2.64,2.64,0,0,1-.86-.52l-.06-.06a3.46,3.46,0,0,1-.79-1,2.84,2.84,0,0,1-.28-1.24,2.92,2.92,0,0,1,.3-1.3,3.47,3.47,0,0,1,.86-1.1,4.38,4.38,0,0,1,1.26-.72,4.48,4.48,0,0,1,2.95,0,4.07,4.07,0,0,1,1.27.72,3.3,3.3,0,0,1,.85,1.1,2.92,2.92,0,0,1,.3,1.3v.2Z"/><path class="cls-3" d="M755.14,227.46a1.33,1.33,0,0,1-.37-.88,1.17,1.17,0,0,1,.34-.88,1.18,1.18,0,0,1,.88-.37,1.23,1.23,0,0,1,1.25,1.25,1.16,1.16,0,0,1-.37.88,1.22,1.22,0,0,1-.88.36A1.14,1.14,0,0,1,755.14,227.46Zm0,4.69a1.33,1.33,0,0,1-.37-.87,1.15,1.15,0,0,1,.34-.88A1.18,1.18,0,0,1,756,230a1.23,1.23,0,0,1,1.25,1.25,1.16,1.16,0,0,1-.37.87,1.19,1.19,0,0,1-.88.37A1.11,1.11,0,0,1,755.14,232.15Z"/><path class="cls-3" d="M636.13,249.42l-3,3.26a6.43,6.43,0,0,1,2.2,2.26,6,6,0,0,1,.82,3.06,6.05,6.05,0,0,1-.88,3.18,6.55,6.55,0,0,1-2.41,2.32,6.86,6.86,0,0,1-6.65,0,6.55,6.55,0,0,1-2.41-2.32,6.06,6.06,0,0,1-.89-3.18h4.25a2.14,2.14,0,0,0,.69,1.6,2.34,2.34,0,0,0,1.68.66,2.31,2.31,0,0,0,1.66-.66,2.14,2.14,0,0,0,.69-1.6v-.06a2.51,2.51,0,0,0-.25-1.05,4,4,0,0,0-1.13-1.42,7.4,7.4,0,0,0-1.7-1.13v-2.21l.42-.47,1.46-1.59.6-.65h-7.74v-3.6h12.61Z"/><path class="cls-3" d="M648.51,252.78a6.39,6.39,0,0,1,2,2.23,6.12,6.12,0,0,1-.17,6.06,6.5,6.5,0,0,1-2.41,2.33,6.91,6.91,0,0,1-6.64,0,6.5,6.5,0,0,1-2.41-2.33,6.12,6.12,0,0,1,.26-6.75l5.7-8.61h4.85l-3.93,5.92A6.77,6.77,0,0,1,648.51,252.78Zm-2.11,6.88a2.42,2.42,0,0,0,0-3.52,2.55,2.55,0,0,0-1.82-.73,2.61,2.61,0,0,0-1.84.73,2.4,2.4,0,0,0,0,3.52,2.58,2.58,0,0,0,1.84.74A2.51,2.51,0,0,0,646.4,259.66Z"/><path class="cls-3" d="M665.1,255.88a5.91,5.91,0,0,1-.33,5.44,6.08,6.08,0,0,1-2.3,2.2,6.53,6.53,0,0,1-6.3,0,6.08,6.08,0,0,1-2.3-2.2,5.88,5.88,0,0,1-.34-5.44,6.08,6.08,0,0,1,1.42-1.95,5,5,0,0,1-.35-5.74,5.61,5.61,0,0,1,7.47-1.9,5.39,5.39,0,0,1,2,1.9,5.08,5.08,0,0,1-.34,5.74A6,6,0,0,1,665.1,255.88Zm-4,4.08a2.27,2.27,0,0,0,.71-1.68,2.24,2.24,0,0,0-.49-1.43A2.37,2.37,0,0,0,660,256a2.27,2.27,0,0,0-.68-.1,2.52,2.52,0,0,0-.7.1,2.37,2.37,0,0,0-1.28.84,2.24,2.24,0,0,0-.49,1.43,2.27,2.27,0,0,0,.71,1.68,2.42,2.42,0,0,0,1.76.7A2.39,2.39,0,0,0,661.07,260Zm-3.22-8.3a2,2,0,0,0,.67.63,2.05,2.05,0,0,0,.81.18,2.3,2.3,0,0,0,.81-.18,1.58,1.58,0,0,0,.66-.62,1.6,1.6,0,0,0,.25-.87,1.54,1.54,0,0,0-.51-1.16,1.69,1.69,0,0,0-1.21-.49,1.76,1.76,0,0,0-1.24.49,1.57,1.57,0,0,0-.5,1.16A1.48,1.48,0,0,0,657.85,251.66Z"/><path class="cls-3" d="M679.74,245.84,675,264.28H670.1L673.82,250h-7.09v-4.18h13Z"/><path class="cls-3" d="M690.7,252.56a6.41,6.41,0,0,1,2.2,2.28,6.14,6.14,0,0,1-.08,6.23,6.5,6.5,0,0,1-2.41,2.33,6.93,6.93,0,0,1-6.65,0,6.57,6.57,0,0,1-2.41-2.33,6,6,0,0,1-.88-3.18h3.88a2.75,2.75,0,0,0,2.74,2.61,2.69,2.69,0,0,0,1.95-.8,2.6,2.6,0,0,0,.81-1.94,2.77,2.77,0,0,0-2.76-2.76H687a2.73,2.73,0,0,0-1.35.41,2.61,2.61,0,0,0-.65.55h-4.25l.15-.65,2.09-9.6h9.49v3.94h-6.34l-.57,2.17.34-.11a4.08,4.08,0,0,1,.73-.13,8.31,8.31,0,0,1,1,0A6.73,6.73,0,0,1,690.7,252.56Z"/><path class="cls-3" d="M711.89,246.43a5.64,5.64,0,0,1,2.08,2.09,5.77,5.77,0,0,1,0,5.76,5.71,5.71,0,0,1-2.08,2.09,5.65,5.65,0,0,1-2.88.77h-4.38v7h-4.41V245.66H709A5.65,5.65,0,0,1,711.89,246.43Zm-1.8,3.62a1.82,1.82,0,0,0-1.24-.61h-4.32v3.91h4.32a1.73,1.73,0,0,0,1.24-.63,2,2,0,0,0,.51-1.35A1.92,1.92,0,0,0,710.09,250.05Z"/><path class="cls-3" d="M730.15,246.91a9.29,9.29,0,0,1,3.38,3.41,9.35,9.35,0,0,1,0,9.34,9.24,9.24,0,0,1-3.38,3.39,9.3,9.3,0,0,1-9.35,0,9.21,9.21,0,0,1-3.4-3.39,9.35,9.35,0,0,1,0-9.34,9.27,9.27,0,0,1,3.4-3.41,9.37,9.37,0,0,1,9.35,0Zm-2.27,12.23a4.94,4.94,0,0,0,1.75-1.74,4.77,4.77,0,0,0,0-4.81,5,5,0,0,0-1.75-1.77,4.65,4.65,0,0,0-2.4-.65,4.71,4.71,0,0,0-2.41.65,4.9,4.9,0,0,0-1.76,1.77,4.77,4.77,0,0,0,0,4.81,4.81,4.81,0,0,0,1.76,1.74,4.62,4.62,0,0,0,2.41.66A4.56,4.56,0,0,0,727.88,259.14Z"/><path class="cls-3" d="M744.3,251.5v-.34a1.63,1.63,0,0,0-.64-1.29,2.37,2.37,0,0,0-1.55-.53,2.49,2.49,0,0,0-1.6.53,1.6,1.6,0,0,0-.67,1.29,1.21,1.21,0,0,0,.68,1.13,6,6,0,0,0,1.77.73,3.92,3.92,0,0,1,.41.07l.45.11a9,9,0,0,1,3.73,1.54l.23.2a5.67,5.67,0,0,1,1.24,1.8,5.08,5.08,0,0,1-.05,4.33,5.84,5.84,0,0,1-1.47,1.91,7.18,7.18,0,0,1-2.19,1.24,7.86,7.86,0,0,1-2.56.43,7.74,7.74,0,0,1-2.54-.43,7,7,0,0,1-2.17-1.24,5.9,5.9,0,0,1-1.49-1.91,5,5,0,0,1-.52-2.24v-.34h4.56v.34a1.61,1.61,0,0,0,.64,1.29,2.26,2.26,0,0,0,1.52.54,2.49,2.49,0,0,0,1.61-.54,1.61,1.61,0,0,0,.66-1.29,1.51,1.51,0,0,0-.7-1.15,3.6,3.6,0,0,0-.73-.39c-.28-.1-.62-.21-1-.31l-.86-.21c-1-.24-1.7-.46-2.24-.65a4.58,4.58,0,0,1-1.49-.89l-.1-.1a5.86,5.86,0,0,1-1.37-1.83,5,5,0,0,1-.48-2.14,5,5,0,0,1,.52-2.24,5.87,5.87,0,0,1,1.49-1.9,6.77,6.77,0,0,1,2.17-1.24,7.49,7.49,0,0,1,2.54-.43,7.6,7.6,0,0,1,2.56.43,7,7,0,0,1,2.19,1.24,5.8,5.8,0,0,1,1.47,1.9,5.13,5.13,0,0,1,.51,2.24v.34Z"/><path class="cls-3" d="M764.84,245.66v4.69h-4.72V264.1H755.4V250.35h-4.72v-4.69h14.16Z"/><path class="cls-3" d="M774.45,251.5v-.34a1.65,1.65,0,0,0-.63-1.29,2.4,2.4,0,0,0-1.56-.53,2.51,2.51,0,0,0-1.6.53,1.62,1.62,0,0,0-.66,1.29,1.2,1.2,0,0,0,.67,1.13,6.12,6.12,0,0,0,1.78.73,3.77,3.77,0,0,1,.4.07l.46.11a8.83,8.83,0,0,1,3.72,1.54l.24.2a5.84,5.84,0,0,1,1.24,1.8,5.28,5.28,0,0,1,.45,2.09,5.13,5.13,0,0,1-.51,2.24A5.7,5.7,0,0,1,777,263a7,7,0,0,1-2.19,1.24,7.8,7.8,0,0,1-2.55.43,7.65,7.65,0,0,1-2.54-.43,7,7,0,0,1-2.18-1.24,6,6,0,0,1-1.49-1.91,5.14,5.14,0,0,1-.52-2.24v-.34h4.56v.34a1.64,1.64,0,0,0,.64,1.29,2.31,2.31,0,0,0,1.53.54,2.46,2.46,0,0,0,1.6-.54,1.61,1.61,0,0,0,.66-1.29,1.51,1.51,0,0,0-.7-1.15,3.35,3.35,0,0,0-.73-.39,10,10,0,0,0-1-.31l-.85-.21c-1-.24-1.71-.46-2.25-.65a4.53,4.53,0,0,1-1.48-.89l-.11-.1A5.83,5.83,0,0,1,766,253.3a4.83,4.83,0,0,1-.49-2.14,5.14,5.14,0,0,1,.52-2.24,6,6,0,0,1,1.49-1.9,6.82,6.82,0,0,1,2.18-1.24,7.41,7.41,0,0,1,2.54-.43,7.55,7.55,0,0,1,2.55.43A6.76,6.76,0,0,1,777,247a5.67,5.67,0,0,1,1.47,1.9,5.13,5.13,0,0,1,.51,2.24v.34Z"/><path class="cls-3" d="M797.57,245.84l6,18.26h-4.53l-1.2-3.73h-5.71L791,264.1h-4.56l6-18.26Zm-4.19,10.72h3.28L795,251.4Z"/><path class="cls-3" d="M814.57,245.66h4.69V264.1h-4.69l-5.43-9.88v9.88h-4.71V245.66h4.71l5.43,9.88Z"/><path class="cls-3" d="M829,245.6a10.45,10.45,0,0,1,2.77.66,8.11,8.11,0,0,1,2.55,1.59,9.26,9.26,0,0,1,2.25,3.17,9.48,9.48,0,0,1,.8,3.79,8.93,8.93,0,0,1-1,4.25,8.51,8.51,0,0,1-2.85,3.27,10.26,10.26,0,0,1-3.76,1.47,27.89,27.89,0,0,1-4.65.35l-2.14,0-2,0V245.45h4.72A32.34,32.34,0,0,1,829,245.6Zm3.88,9.21a4.81,4.81,0,0,0-.62-2.36,5,5,0,0,0-1.71-1.78,4.59,4.59,0,0,0-2.36-.71h-2.55v9.63a19.81,19.81,0,0,0,3.22-.23,5.39,5.39,0,0,0,2.42-1,4.05,4.05,0,0,0,1.47-2.42A5,5,0,0,0,832.86,254.81Z"/><path class="cls-3" d="M860.67,264.1H856l-2.92-7h-3v7h-4.41V245.66h8.79a5.63,5.63,0,0,1,2.86.77,5.74,5.74,0,0,1,2.17,7.72,6,6,0,0,1-1.91,2.07Zm-5.18-14.05a1.78,1.78,0,0,0-1.23-.61h-4.33v3.91h4.33a1.85,1.85,0,0,0,1.23-.63,2,2,0,0,0,.49-1.35A2,2,0,0,0,855.49,250.05Z"/><path class="cls-3" d="M874.64,260.11v4H862.11V245.66h12.3v4h-7.59v3.24h6.39v4h-6.39v3.24Z"/><path class="cls-3" d="M888.83,246.43a5.66,5.66,0,0,1,2.09,2.09,5.77,5.77,0,0,1,0,5.76,5.74,5.74,0,0,1-2.09,2.09,5.59,5.59,0,0,1-2.88.77h-4.37v7h-4.41V245.66H886A5.59,5.59,0,0,1,888.83,246.43Zm-1.8,3.62a1.8,1.8,0,0,0-1.23-.61h-4.33v3.91h4.33a1.71,1.71,0,0,0,1.23-.63,2,2,0,0,0,.51-1.35A1.87,1.87,0,0,0,887,250.05Z"/><path class="cls-3" d="M907.09,246.91a9.36,9.36,0,0,1,4.64,8.09,9.09,9.09,0,0,1-1.25,4.66,9.19,9.19,0,0,1-3.39,3.39,9.28,9.28,0,0,1-9.34,0,9.21,9.21,0,0,1-3.4-3.39,9.35,9.35,0,0,1,0-9.34,9.27,9.27,0,0,1,3.4-3.41,9.35,9.35,0,0,1,9.34,0Zm-2.26,12.23a4.84,4.84,0,0,0,1.74-1.74,4.77,4.77,0,0,0,0-4.81,4.92,4.92,0,0,0-1.74-1.77,4.77,4.77,0,0,0-4.81,0,4.9,4.9,0,0,0-1.76,1.77,4.77,4.77,0,0,0,0,4.81,4.81,4.81,0,0,0,1.76,1.74,4.71,4.71,0,0,0,4.81,0Z"/><path class="cls-3" d="M921.24,251.5v-.34a1.65,1.65,0,0,0-.63-1.29,2.4,2.4,0,0,0-1.56-.53,2.51,2.51,0,0,0-1.6.53,1.62,1.62,0,0,0-.66,1.29,1.2,1.2,0,0,0,.68,1.13,5.93,5.93,0,0,0,1.77.73,3.77,3.77,0,0,1,.4.07l.46.11a8.83,8.83,0,0,1,3.72,1.54l.24.2a5.84,5.84,0,0,1,1.24,1.8,5.17,5.17,0,0,1,0,4.33,5.87,5.87,0,0,1-1.48,1.91,7,7,0,0,1-2.19,1.24,7.76,7.76,0,0,1-2.55.43,7.65,7.65,0,0,1-2.54-.43,7,7,0,0,1-2.18-1.24,6,6,0,0,1-1.49-1.91,5.14,5.14,0,0,1-.52-2.24v-.34h4.57v.34a1.63,1.63,0,0,0,.63,1.29,2.31,2.31,0,0,0,1.53.54,2.46,2.46,0,0,0,1.6-.54,1.62,1.62,0,0,0,.67-1.29,1.52,1.52,0,0,0-.71-1.15,3.35,3.35,0,0,0-.73-.39,10.5,10.5,0,0,0-1-.31l-.86-.21c-1-.24-1.71-.46-2.25-.65a4.53,4.53,0,0,1-1.48-.89l-.11-.1a5.83,5.83,0,0,1-1.36-1.83,4.83,4.83,0,0,1-.49-2.14,5.14,5.14,0,0,1,.52-2.24,6,6,0,0,1,1.49-1.9,6.82,6.82,0,0,1,2.18-1.24,7.41,7.41,0,0,1,2.54-.43,7.5,7.5,0,0,1,2.55.43,6.76,6.76,0,0,1,2.19,1.24,5.83,5.83,0,0,1,1.48,1.9,5.27,5.27,0,0,1,.5,2.24v.34Z"/><path class="cls-3" d="M941.78,245.66v4.69h-4.71V264.1h-4.72V250.35h-4.72v-4.69h14.15Z"/><path class="cls-3" d="M951.4,251.5v-.34a1.63,1.63,0,0,0-.64-1.29,2.35,2.35,0,0,0-1.55-.53,2.51,2.51,0,0,0-1.6.53,1.63,1.63,0,0,0-.67,1.29,1.21,1.21,0,0,0,.68,1.13,6.17,6.17,0,0,0,1.77.73,3.92,3.92,0,0,1,.41.07l.45.11a8.89,8.89,0,0,1,3.73,1.54l.24.2a5.65,5.65,0,0,1,1.23,1.8,5.08,5.08,0,0,1-.05,4.33,5.84,5.84,0,0,1-1.47,1.91,7,7,0,0,1-2.19,1.24,7.86,7.86,0,0,1-2.56.43,7.74,7.74,0,0,1-2.54-.43,7.08,7.08,0,0,1-2.17-1.24,5.9,5.9,0,0,1-1.49-1.91,5,5,0,0,1-.52-2.24v-.34H947v.34a1.64,1.64,0,0,0,.64,1.29,2.28,2.28,0,0,0,1.52.54,2.47,2.47,0,0,0,1.61-.54,1.61,1.61,0,0,0,.66-1.29,1.51,1.51,0,0,0-.7-1.15,3.35,3.35,0,0,0-.73-.39c-.28-.1-.62-.21-1-.31l-.86-.21c-.95-.24-1.7-.46-2.24-.65a4.43,4.43,0,0,1-1.48-.89l-.11-.1a6,6,0,0,1-1.37-1.83,5,5,0,0,1-.48-2.14,5,5,0,0,1,.52-2.24,5.87,5.87,0,0,1,1.49-1.9,6.88,6.88,0,0,1,2.17-1.24,7.49,7.49,0,0,1,2.54-.43,7.6,7.6,0,0,1,2.56.43,6.76,6.76,0,0,1,2.19,1.24,5.8,5.8,0,0,1,1.47,1.9,5.13,5.13,0,0,1,.51,2.24v.34Z"/><path class="cls-3" d="M958.93,260.89h4.41l-1.93,5.89h-3.88Z"/><path class="cls-3" d="M628.26,281.34h2.14v18.44h-4.69v-13l-2.56.81V283l2.56-.81Z"/><path class="cls-3" d="M643,288.46a6.48,6.48,0,0,1,2,2.23,6.14,6.14,0,0,1-.17,6.07,6.68,6.68,0,0,1-5.73,3.18,6.72,6.72,0,0,1-3.33-.86,6.63,6.63,0,0,1-2.41-2.32,6.07,6.07,0,0,1-.89-3.19,6,6,0,0,1,1.15-3.57l5.71-8.6h4.85l-3.94,5.92A6.61,6.61,0,0,1,643,288.46Zm-2.11,6.89a2.4,2.4,0,0,0,.76-1.78,2.35,2.35,0,0,0-.76-1.74,2.5,2.5,0,0,0-1.82-.73,2.55,2.55,0,0,0-1.84.73,2.29,2.29,0,0,0-.77,1.74,2.34,2.34,0,0,0,.77,1.78,2.55,2.55,0,0,0,1.84.73A2.5,2.5,0,0,0,640.93,295.35Z"/><path class="cls-3" d="M652.92,281.34h2.14v18.44h-4.69v-13l-2.56.81V283l2.56-.81Z"/><path class="cls-3" d="M668.56,282.57a8.69,8.69,0,0,1,2.76,3.39,11.22,11.22,0,0,1,0,9.35,8.65,8.65,0,0,1-2.76,3.4,6.42,6.42,0,0,1-7.61,0,8.69,8.69,0,0,1-2.78-3.4,11.12,11.12,0,0,1,0-9.35,8.73,8.73,0,0,1,2.78-3.39,6.42,6.42,0,0,1,7.61,0Zm-2.22,11.88a3.9,3.9,0,0,0,1.15-1.61,5.69,5.69,0,0,0,.42-2.21,5.6,5.6,0,0,0-.43-2.2,4.24,4.24,0,0,0-1.15-1.61,2.4,2.4,0,0,0-1.58-.6,2.47,2.47,0,0,0-1.59.6,4.26,4.26,0,0,0-1.16,1.61,5.6,5.6,0,0,0-.43,2.2,5.69,5.69,0,0,0,.43,2.21,4.11,4.11,0,0,0,1.16,1.61,2.51,2.51,0,0,0,1.59.59A2.47,2.47,0,0,0,666.34,294.45Z"/><path class="cls-3" d="M685,282.57a8.62,8.62,0,0,1,2.77,3.39,10.85,10.85,0,0,1,1,4.67,11,11,0,0,1-1,4.68,8.58,8.58,0,0,1-2.77,3.4,6.42,6.42,0,0,1-7.61,0,8.67,8.67,0,0,1-2.77-3.4,11.12,11.12,0,0,1,0-9.35,8.71,8.71,0,0,1,2.77-3.39,6.42,6.42,0,0,1,7.61,0Zm-2.21,11.88a3.88,3.88,0,0,0,1.14-1.61,5.69,5.69,0,0,0,.42-2.21,5.43,5.43,0,0,0-.43-2.2,4.33,4.33,0,0,0-1.14-1.61,2.42,2.42,0,0,0-1.58-.6,2.45,2.45,0,0,0-1.59.6,4.06,4.06,0,0,0-1.16,1.61,5.43,5.43,0,0,0-.43,2.2,5.51,5.51,0,0,0,.43,2.21,3.92,3.92,0,0,0,1.16,1.61,2.44,2.44,0,0,0,3.18,0Z"/><path class="cls-3" d="M706.69,295.05a5.17,5.17,0,0,0,1.56-1l3.18,3.18a9.46,9.46,0,0,1-3,2,9.35,9.35,0,0,1-8.27-.53,9.39,9.39,0,0,1-3.38-3.39,9.3,9.3,0,0,1,0-9.35,9.29,9.29,0,0,1,3.38-3.41,9.35,9.35,0,0,1,8.27-.53,9.46,9.46,0,0,1,3,2l-3.18,3.18a5.36,5.36,0,0,0-1.56-1,4.71,4.71,0,0,0-1.85-.38,4.56,4.56,0,0,0-2.4.66,4.92,4.92,0,0,0-1.75,1.76,4.71,4.71,0,0,0-.65,2.41,4.65,4.65,0,0,0,.65,2.4,4.94,4.94,0,0,0,1.75,1.74,4.56,4.56,0,0,0,2.4.66A4.71,4.71,0,0,0,706.69,295.05Z"/><path class="cls-3" d="M726,282.6a9.35,9.35,0,0,1,3.39,12.75,9.34,9.34,0,0,1-3.39,3.39,9.35,9.35,0,0,1-9.34,0,9.29,9.29,0,0,1-3.4-3.39A9.32,9.32,0,0,1,726,282.6Zm-2.27,12.23a5,5,0,0,0,1.75-1.75,4.65,4.65,0,0,0,.65-2.4,4.71,4.71,0,0,0-.65-2.41,4.84,4.84,0,0,0-1.75-1.76,4.54,4.54,0,0,0-2.39-.65,4.65,4.65,0,0,0-2.42.65,4.84,4.84,0,0,0-1.75,1.76,4.62,4.62,0,0,0-.66,2.41,4.56,4.56,0,0,0,.66,2.4,5,5,0,0,0,1.75,1.75,4.75,4.75,0,0,0,2.42.65A4.64,4.64,0,0,0,723.73,294.83Z"/><path class="cls-3" d="M745.94,281.34h4.69v18.44h-4.69v-10.4l-2.29,4.17-.11.21h-4.69l-.13-.21-.31-.6-2-3.57v10.4h-4.72V281.34h4.72l4.75,7.85Z"/><path class="cls-3" d="M766.53,281.34h4.69v18.44h-4.69v-10.4l-2.29,4.17-.11.21h-4.69l-.13-.21L759,293l-2-3.57v10.4h-4.72V281.34H757l4.75,7.85Z"/><path class="cls-3" d="M785.45,295.79v4H772.92V281.34h12.3v4h-7.59v3.24H784v4h-6.39v3.23Z"/><path class="cls-3" d="M798.12,281.34h4.69v18.44h-4.69l-5.42-9.88v9.88H788V281.34h4.72l5.42,9.89Z"/><path class="cls-3" d="M818.35,281.34V286h-4.72v13.74h-4.72V286h-4.72v-4.7h14.16Z"/><path class="cls-3" d="M828,287.18v-.33a1.6,1.6,0,0,0-.64-1.29,2.31,2.31,0,0,0-1.55-.54,2.46,2.46,0,0,0-1.6.54,1.6,1.6,0,0,0-.67,1.29,1.2,1.2,0,0,0,.68,1.12,5.9,5.9,0,0,0,1.77.73,3.68,3.68,0,0,1,.41.08l.46.1a9,9,0,0,1,3.72,1.54l.24.21a5.61,5.61,0,0,1,1.24,1.8,5.13,5.13,0,0,1-.06,4.33,5.91,5.91,0,0,1-1.47,1.9,7,7,0,0,1-2.19,1.24,7.59,7.59,0,0,1-2.55.43,7.5,7.5,0,0,1-2.55-.43,7.08,7.08,0,0,1-2.17-1.24,6.12,6.12,0,0,1-1.49-1.9,5.19,5.19,0,0,1-.52-2.25v-.34h4.56v.34a1.66,1.66,0,0,0,.64,1.3,2.35,2.35,0,0,0,1.53.53,2.51,2.51,0,0,0,1.6-.53,1.62,1.62,0,0,0,.66-1.3,1.48,1.48,0,0,0-.7-1.14,3,3,0,0,0-.73-.4c-.28-.1-.62-.2-1-.31l-.86-.21c-1-.24-1.7-.46-2.24-.65a4.58,4.58,0,0,1-1.48-.88l-.11-.11A6,6,0,0,1,819.5,289a4.91,4.91,0,0,1-.48-2.13,5.11,5.11,0,0,1,.52-2.24A6,6,0,0,1,821,282.7a7.08,7.08,0,0,1,2.17-1.24,7.5,7.5,0,0,1,2.55-.43,7.59,7.59,0,0,1,2.55.43,7,7,0,0,1,2.19,1.24,5.84,5.84,0,0,1,1.47,1.91,5.1,5.1,0,0,1,.51,2.24v.33Z"/><path class="cls-3" d="M840.29,296.76l-1.93,5.42h-3.91l1.93-5.42Zm-2.19-5.19a2.12,2.12,0,0,0,1.53-.63,2.05,2.05,0,0,0,.63-1.51,2.14,2.14,0,0,0-3.67-1.53,2,2,0,0,0-.6,1.53,2.29,2.29,0,0,0,.65,1.51A2,2,0,0,0,838.1,291.57Z"/><path class="cls-3" d="M625.68,349.72v10.67H623V349.72Z"/><path class="cls-3" d="M632.93,349.72h2.72v10.67h-2.72l-3.13-5.72v5.72h-2.74V349.72h2.74l3.13,5.72Z"/><path class="cls-3" d="M645.67,353.1v-.2a.91.91,0,0,0-.37-.74,1.35,1.35,0,0,0-.9-.31,1.43,1.43,0,0,0-.93.31.92.92,0,0,0-.38.74.68.68,0,0,0,.39.65,3.46,3.46,0,0,0,1,.43l.23,0,.26.06a5.21,5.21,0,0,1,2.16.89l.14.12a3.34,3.34,0,0,1,.72,1,3.14,3.14,0,0,1,.26,1.21,3,3,0,0,1-.29,1.3,3.33,3.33,0,0,1-.86,1.1,3.94,3.94,0,0,1-1.26.72,4.64,4.64,0,0,1-1.48.25,4.45,4.45,0,0,1-1.47-.25,4.1,4.1,0,0,1-1.27-.72,3.43,3.43,0,0,1-.85-1.1,2.8,2.8,0,0,1-.31-1.3v-.2h2.64v.2a1,1,0,0,0,.37.75,1.32,1.32,0,0,0,.89.31,1.38,1.38,0,0,0,.92-.31.94.94,0,0,0,.39-.75.87.87,0,0,0-.41-.66,1.69,1.69,0,0,0-.42-.23c-.16-.06-.36-.12-.59-.18l-.5-.12c-.55-.14-1-.27-1.29-.38a2.66,2.66,0,0,1-.87-.51l0-.06a3.37,3.37,0,0,1-.8-1.06,2.92,2.92,0,0,1-.28-1.24,2.86,2.86,0,0,1,.31-1.3,3.43,3.43,0,0,1,.85-1.1,4.31,4.31,0,0,1,1.27-.72,4.44,4.44,0,0,1,1.47-.24,4.64,4.64,0,0,1,1.48.24,4.13,4.13,0,0,1,1.26.72,3.33,3.33,0,0,1,.86,1.1,3.12,3.12,0,0,1,.29,1.3v.2Z"/><path class="cls-3" d="M656.29,358.08v2.31H649V349.72h7.12V352h-4.39v1.87h3.69v2.31h-3.69v1.87Z"/><path class="cls-3" d="M662.83,349.82l3.48,10.57h-2.62l-.7-2.16h-3.3l-.68,2.16h-2.64l3.5-10.57ZM660.4,356h1.9l-.95-3Z"/><path class="cls-3" d="M675.58,360.39h-2.73l-1.69-4h-1.74v4h-2.55V349.72H672a3.35,3.35,0,0,1,1.66.44,3.29,3.29,0,0,1,1.21,1.22,3.29,3.29,0,0,1,0,3.25,3.42,3.42,0,0,1-1.1,1.2Zm-3-8.13a1,1,0,0,0-.71-.35h-2.5v2.26h2.5a1,1,0,0,0,.71-.37,1.11,1.11,0,0,0,.29-.78A1.08,1.08,0,0,0,672.57,352.26Z"/><path class="cls-3" d="M682.64,357.65a3,3,0,0,0,.91-.59l1.84,1.84a5.67,5.67,0,0,1-1.74,1.17,5.4,5.4,0,0,1-2.08.41,5.25,5.25,0,0,1-2.7-.72,5.52,5.52,0,0,1-2-2,5.46,5.46,0,0,1,0-5.42,5.47,5.47,0,0,1,2-2,5.25,5.25,0,0,1,2.7-.72,5.4,5.4,0,0,1,2.08.41,5.67,5.67,0,0,1,1.74,1.17l-1.84,1.84a3,3,0,0,0-.91-.59,2.63,2.63,0,0,0-1.07-.22,2.69,2.69,0,0,0-1.39.38,2.82,2.82,0,0,0-1,1,2.73,2.73,0,0,0,0,2.78,2.87,2.87,0,0,0,1,1,2.69,2.69,0,0,0,1.39.38A2.63,2.63,0,0,0,682.64,357.65Z"/><path class="cls-3" d="M691.86,349.72h2.72v10.67h-2.72v-4h-3.05v4H686.1V349.72h2.71v4h3.05Z"/><path class="cls-3" d="M707.16,360.39h-2.73l-1.69-4H701v4h-2.55V349.72h5.09a3.35,3.35,0,0,1,1.66.44,3.32,3.32,0,0,1,1.25,4.47,3.42,3.42,0,0,1-1.1,1.2Zm-3-8.13a1,1,0,0,0-.71-.35h-2.51v2.26h2.51a1.06,1.06,0,0,0,.71-.37,1.15,1.15,0,0,0,.28-.78A1.12,1.12,0,0,0,704.16,352.26Z"/><path class="cls-3" d="M715.32,358.08v2.31h-7.26V349.72h7.13V352H710.8v1.87h3.69v2.31H710.8v1.87Z"/><path class="cls-3" d="M721.18,353.1v-.2a.94.94,0,0,0-.37-.74,1.35,1.35,0,0,0-.9-.31,1.43,1.43,0,0,0-.93.31.9.9,0,0,0-.38.74.68.68,0,0,0,.39.65,3.46,3.46,0,0,0,1,.43l.23,0,.26.06a5.21,5.21,0,0,1,2.16.89l.14.12a3.15,3.15,0,0,1,.71,1,3,3,0,0,1,.27,1.21,2.92,2.92,0,0,1-.3,1.3,3.3,3.3,0,0,1-.85,1.1,3.88,3.88,0,0,1-1.27.72,4.48,4.48,0,0,1-3,0,3.94,3.94,0,0,1-1.26-.72,3.47,3.47,0,0,1-.86-1.1,2.92,2.92,0,0,1-.3-1.3v-.2h2.64v.2a1,1,0,0,0,.37.75,1.32,1.32,0,0,0,.88.31,1.41,1.41,0,0,0,.93-.31.94.94,0,0,0,.39-.75.87.87,0,0,0-.41-.66,1.69,1.69,0,0,0-.42-.23c-.16-.06-.36-.12-.59-.18l-.5-.12c-.55-.14-1-.27-1.3-.38a2.61,2.61,0,0,1-.86-.51l-.06-.06a3.34,3.34,0,0,1-.79-1.06,2.78,2.78,0,0,1-.28-1.24,3,3,0,0,1,.3-1.3,3.47,3.47,0,0,1,.86-1.1,4.13,4.13,0,0,1,1.26-.72,4.65,4.65,0,0,1,3,0,4.07,4.07,0,0,1,1.27.72,3.3,3.3,0,0,1,.85,1.1,3,3,0,0,1,.3,1.3v.2Z"/><path class="cls-3" d="M733.22,349.73v6.6a4.07,4.07,0,0,1-.57,2.11,4.14,4.14,0,0,1-1.54,1.54,4.2,4.2,0,0,1-2.12.56h-.24a4.16,4.16,0,0,1-3.64-2.1,4.07,4.07,0,0,1-.57-2.11v-6.6h2.52v6a2.5,2.5,0,0,0,.46,1.55,1.45,1.45,0,0,0,1.23.62H729a1.46,1.46,0,0,0,1.23-.63,2.44,2.44,0,0,0,.48-1.54v-6Z"/><path class="cls-3" d="M736.87,357.82h4.19v2.57h-6.91V349.72h2.72Z"/><path class="cls-3" d="M750.42,349.72v2.72h-2.73v7.95H745v-7.95h-2.73v-2.72h8.19Z"/><path class="cls-3" d="M756.85,353.1v-.2a.91.91,0,0,0-.37-.74,1.35,1.35,0,0,0-.9-.31,1.43,1.43,0,0,0-.93.31.92.92,0,0,0-.38.74.68.68,0,0,0,.39.65,3.46,3.46,0,0,0,1,.43l.23,0,.26.06a5.21,5.21,0,0,1,2.16.89l.14.12a3.34,3.34,0,0,1,.72,1,3.14,3.14,0,0,1,.26,1.21,3,3,0,0,1-.29,1.3,3.33,3.33,0,0,1-.86,1.1,3.94,3.94,0,0,1-1.26.72,4.64,4.64,0,0,1-1.48.25,4.45,4.45,0,0,1-1.47-.25,3.94,3.94,0,0,1-1.26-.72,3.33,3.33,0,0,1-.86-1.1,2.8,2.8,0,0,1-.31-1.3v-.2h2.64v.2a1,1,0,0,0,.37.75,1.32,1.32,0,0,0,.89.31,1.43,1.43,0,0,0,.93-.31,1,1,0,0,0,.38-.75.87.87,0,0,0-.41-.66,1.69,1.69,0,0,0-.42-.23c-.16-.06-.36-.12-.59-.18l-.5-.12c-.55-.14-1-.27-1.29-.38a2.66,2.66,0,0,1-.87-.51l0-.06a3.37,3.37,0,0,1-.8-1.06,2.92,2.92,0,0,1-.28-1.24,2.86,2.86,0,0,1,.31-1.3,3.33,3.33,0,0,1,.86-1.1,4.13,4.13,0,0,1,1.26-.72,4.44,4.44,0,0,1,1.47-.24,4.64,4.64,0,0,1,1.48.24,4.13,4.13,0,0,1,1.26.72,3.33,3.33,0,0,1,.86,1.1,3.12,3.12,0,0,1,.29,1.3v.2Z"/><path class="cls-3" d="M771.76,352h-4.71v1.87h3.77v2.31h-3.77v4.18h-2.72V349.72h7.43Z"/><path class="cls-3" d="M780.37,350.44a5.37,5.37,0,0,1,2,2,5.25,5.25,0,0,1,.73,2.71,5.16,5.16,0,0,1-.73,2.7,5.41,5.41,0,0,1-7.37,2,5.39,5.39,0,0,1-2-2,5.25,5.25,0,0,1-.72-2.7,5.34,5.34,0,0,1,.72-2.71,5.47,5.47,0,0,1,2-2,5.34,5.34,0,0,1,2.71-.72A5.25,5.25,0,0,1,780.37,350.44Zm-1.31,7.08a2.87,2.87,0,0,0,1-1,2.73,2.73,0,0,0,0-2.78,2.82,2.82,0,0,0-1-1,2.73,2.73,0,0,0-2.78,0,2.77,2.77,0,0,0-1,1,2.73,2.73,0,0,0,0,2.78,2.82,2.82,0,0,0,1,1,2.73,2.73,0,0,0,2.78,0Z"/><path class="cls-3" d="M792.26,360.39h-2.73l-1.69-4h-1.73v4h-2.55V349.72h5.08A3.31,3.31,0,0,1,792,353a3.14,3.14,0,0,1-.41,1.59,3.33,3.33,0,0,1-1.1,1.2Zm-3-8.13a1,1,0,0,0-.71-.35h-2.5v2.26h2.5a1.06,1.06,0,0,0,.71-.37,1.16,1.16,0,0,0,.29-.78A1.13,1.13,0,0,0,789.26,352.26Z"/><path class="cls-3" d="M801.09,355l3.18,5.39h-3l-2.63-4.3v4.3h-2.71V349.72h2.71v4.16l2.63-4.16h3Z"/><path class="cls-3" d="M812.77,358.08v2.31h-7.26V349.72h7.12V352h-4.39v1.87h3.7v2.31h-3.7v1.87Z"/><path class="cls-3" d="M819.43,349.72h2.71L819,356v4.35h-2.71V356l-3.14-6.32h2.71l1.78,3.64Z"/><path class="cls-3" d="M831.94,349.72h2.35v10.67h-2.72l-2.74-4.54-2.77,4.54h-2.71V349.72h2.71v6l1.33-2.42.08-.11h2.71l.06.11,1.33,2.42v-6Z"/><path class="cls-3" d="M843.49,350.44a5.37,5.37,0,0,1,2,2,5.25,5.25,0,0,1,.73,2.71,5.16,5.16,0,0,1-.73,2.7,5.41,5.41,0,0,1-7.37,2,5.39,5.39,0,0,1-2-2,5.25,5.25,0,0,1-.72-2.7,5.34,5.34,0,0,1,.72-2.71,5.47,5.47,0,0,1,2-2,5.34,5.34,0,0,1,2.71-.72A5.25,5.25,0,0,1,843.49,350.44Zm-1.31,7.08a2.87,2.87,0,0,0,1-1,2.73,2.73,0,0,0,0-2.78,2.82,2.82,0,0,0-1-1,2.73,2.73,0,0,0-2.78,0,2.77,2.77,0,0,0-1,1,2.73,2.73,0,0,0,0,2.78,2.82,2.82,0,0,0,1,1,2.73,2.73,0,0,0,2.78,0Z"/><path class="cls-3" d="M855.38,360.39h-2.73l-1.69-4h-1.73v4h-2.55V349.72h5.08a3.31,3.31,0,0,1,3.32,3.32,3.25,3.25,0,0,1-.41,1.59,3.42,3.42,0,0,1-1.1,1.2Zm-3-8.13a1,1,0,0,0-.71-.35h-2.51v2.26h2.51a1.06,1.06,0,0,0,.71-.37,1.16,1.16,0,0,0,.29-.78A1.13,1.13,0,0,0,852.38,352.26Z"/><path class="cls-3" d="M861,349.68a6,6,0,0,1,1.6.38A4.45,4.45,0,0,1,864,351a5.21,5.21,0,0,1,1.31,1.83,5.43,5.43,0,0,1,.46,2.2,5.26,5.26,0,0,1-.59,2.46,4.84,4.84,0,0,1-1.65,1.88,5.73,5.73,0,0,1-2.18.86,16.32,16.32,0,0,1-2.69.2h-1.23l-1.18,0V349.6H859A18.54,18.54,0,0,1,861,349.68Zm2.24,5.34a2.75,2.75,0,0,0-.36-1.37,2.79,2.79,0,0,0-1-1,2.52,2.52,0,0,0-1.36-.41H859v5.57a11.12,11.12,0,0,0,1.86-.13,3.15,3.15,0,0,0,1.41-.59,2.42,2.42,0,0,0,.85-1.41A3,3,0,0,0,863.21,355Z"/><path class="cls-3" d="M872.13,353.1v-.2a.91.91,0,0,0-.37-.74,1.31,1.31,0,0,0-.9-.31,1.38,1.38,0,0,0-.92.31.91.91,0,0,0-.39.74.68.68,0,0,0,.39.65,3.71,3.71,0,0,0,1,.43l.24,0,.26.06a5.34,5.34,0,0,1,2.16.89l.13.12a3.34,3.34,0,0,1,.72,1,3,3,0,0,1,.26,1.21,2.91,2.91,0,0,1-.29,1.3,3.43,3.43,0,0,1-.85,1.1,4.1,4.1,0,0,1-1.27.72,4.6,4.6,0,0,1-1.48.25,4.54,4.54,0,0,1-1.47-.25,3.94,3.94,0,0,1-1.26-.72,3.47,3.47,0,0,1-.86-1.1,2.92,2.92,0,0,1-.3-1.3v-.2h2.64v.2a1,1,0,0,0,.37.75,1.3,1.3,0,0,0,.88.31,1.43,1.43,0,0,0,.93-.31.93.93,0,0,0,.38-.75.86.86,0,0,0-.4-.66,1.76,1.76,0,0,0-.43-.23,5.89,5.89,0,0,0-.58-.18l-.5-.12c-.56-.14-1-.27-1.3-.38a2.61,2.61,0,0,1-.86-.51l-.06-.06a3.34,3.34,0,0,1-.79-1.06,2.78,2.78,0,0,1-.28-1.24,3,3,0,0,1,.3-1.3,3.47,3.47,0,0,1,.86-1.1,4.13,4.13,0,0,1,1.26-.72,4.53,4.53,0,0,1,1.47-.24,4.59,4.59,0,0,1,1.48.24,4.31,4.31,0,0,1,1.27.72,3.43,3.43,0,0,1,.85,1.1,3,3,0,0,1,.29,1.3v.2Z"/><path class="cls-3" d="M628.11,373.54V392h-4.7V373.54Z"/><path class="cls-3" d="M647.65,386.38a9.61,9.61,0,0,1-1.95,3l1.64,2.61-3.6,2.25-1.59-2.59a9.35,9.35,0,0,1-3.1.53,9,9,0,0,1-4.66-1.26,9.19,9.19,0,0,1-3.39-3.39,9,9,0,0,1-1.25-4.66,9.13,9.13,0,0,1,1.25-4.69,9.29,9.29,0,0,1,3.39-3.4,9.33,9.33,0,0,1,9.33,0,9.44,9.44,0,0,1,3.39,3.4,9.23,9.23,0,0,1,1.25,4.69A9,9,0,0,1,647.65,386.38Zm-12.76-1.14a4.81,4.81,0,0,0,1.75,1.75,4.79,4.79,0,0,0,4.82,0,4.81,4.81,0,0,0,1.75-1.75,4.7,4.7,0,0,0,.64-2.39,4.81,4.81,0,0,0-2.39-4.18,4.79,4.79,0,0,0-4.82,0,4.77,4.77,0,0,0-2.38,4.18A4.69,4.69,0,0,0,634.89,385.24Z"/><path class="cls-3" d="M649.66,391.22a2.56,2.56,0,0,1-.7-1.8,2.33,2.33,0,0,1,.71-1.7,2.45,2.45,0,0,1,3.46,0,2.45,2.45,0,0,1,0,3.49,2.38,2.38,0,0,1-1.75.73A2.27,2.27,0,0,1,649.66,391.22Z"/><path class="cls-3" d="M665.61,387.24a5,5,0,0,0,1.57-1l3.18,3.18a9.39,9.39,0,0,1-3,2,9.33,9.33,0,0,1-8.26-.53,9.34,9.34,0,0,1-3.39-3.39,9.37,9.37,0,0,1,0-9.35,9.14,9.14,0,0,1,3.39-3.4,9,9,0,0,1,4.66-1.26,9.11,9.11,0,0,1,3.6.72,9.39,9.39,0,0,1,3,2l-3.18,3.18a5.41,5.41,0,0,0-1.57-1,4.71,4.71,0,0,0-1.85-.38,4.56,4.56,0,0,0-2.4.66,4.81,4.81,0,0,0-1.74,1.76,4.61,4.61,0,0,0-.65,2.41,4.55,4.55,0,0,0,.65,2.4,4.94,4.94,0,0,0,1.74,1.75,4.65,4.65,0,0,0,2.4.65A4.71,4.71,0,0,0,665.61,387.24Z"/><path class="cls-3" d="M681,373.72l6,18.25h-4.53l-1.2-3.73h-5.71L674.45,392h-4.56l6-18.25Zm-4.19,10.72h3.28l-1.64-5.17Z"/><path class="cls-3" d="M696.32,379.38V379a1.63,1.63,0,0,0-.64-1.29,2.34,2.34,0,0,0-1.55-.54,2.49,2.49,0,0,0-1.61.54,1.59,1.59,0,0,0-.66,1.29,1.2,1.2,0,0,0,.68,1.12,5.45,5.45,0,0,0,1.77.73,3.53,3.53,0,0,1,.4.08l.46.1a9.09,9.09,0,0,1,3.73,1.54l.23.21a5.61,5.61,0,0,1,1.24,1.8,5.23,5.23,0,0,1,.46,2.09,5.13,5.13,0,0,1-.51,2.24,5.7,5.7,0,0,1-1.48,1.9,7,7,0,0,1-2.18,1.24,7.6,7.6,0,0,1-2.56.43,7.45,7.45,0,0,1-2.54-.43,7.13,7.13,0,0,1-2.18-1.24,6,6,0,0,1-1.48-1.9,5,5,0,0,1-.52-2.24v-.34h4.56v.34a1.63,1.63,0,0,0,.64,1.29,2.31,2.31,0,0,0,1.52.53,2.49,2.49,0,0,0,1.6-.53,1.6,1.6,0,0,0,.67-1.29,1.49,1.49,0,0,0-.71-1.15,2.53,2.53,0,0,0-.73-.39,9.46,9.46,0,0,0-1-.32l-.86-.2c-1-.25-1.7-.46-2.24-.66a4.45,4.45,0,0,1-1.49-.88l-.1-.11a5.94,5.94,0,0,1-1.37-1.82,5,5,0,0,1-.48-2.14,5,5,0,0,1,.52-2.24,6,6,0,0,1,1.48-1.91,7.13,7.13,0,0,1,2.18-1.24,7.7,7.7,0,0,1,2.54-.43,7.86,7.86,0,0,1,2.56.43,7,7,0,0,1,2.18,1.24,5.74,5.74,0,0,1,1.48,1.91,5.13,5.13,0,0,1,.51,2.24v.34Z"/><path class="cls-3" d="M712.92,373.54h4.69V392h-4.69v-6.88h-5.27V392H703V373.54h4.69v6.85h5.27Z"/><path class="cls-3" d="M739.79,374.79a9.37,9.37,0,0,1,3.39,3.4,9.37,9.37,0,0,1,0,9.35,9.42,9.42,0,0,1-3.39,3.39,9.35,9.35,0,0,1-9.34,0,9.21,9.21,0,0,1-3.4-3.39,9.3,9.3,0,0,1,0-9.35,9.17,9.17,0,0,1,3.4-3.4,9.35,9.35,0,0,1,9.34,0ZM737.52,387a5.06,5.06,0,0,0,1.75-1.75,4.65,4.65,0,0,0,.65-2.4,4.71,4.71,0,0,0-.65-2.41,4.92,4.92,0,0,0-1.75-1.76,4.64,4.64,0,0,0-2.39-.65,4.75,4.75,0,0,0-2.42.65,4.87,4.87,0,0,0-1.76,1.76,4.71,4.71,0,0,0-.65,2.41,4.65,4.65,0,0,0,.65,2.4,5,5,0,0,0,1.76,1.75,4.75,4.75,0,0,0,2.42.65A4.64,4.64,0,0,0,737.52,387Z"/><path class="cls-3" d="M755.66,373.54h4.7V392h-4.7l-5.42-9.88V392h-4.72V373.54h4.72l5.42,9.88Z"/><path class="cls-3" d="M775.05,373.54h2.14V392H772.5v-13l-2.55.81v-4.59l2.55-.81Z"/><path class="cls-3" d="M780,391.22a2.56,2.56,0,0,1-.7-1.8,2.29,2.29,0,0,1,.71-1.7,2.45,2.45,0,0,1,3.46,0,2.45,2.45,0,0,1,0,3.49,2.38,2.38,0,0,1-1.75.73A2.27,2.27,0,0,1,780,391.22Z"/><path class="cls-3" d="M785.48,391.22a2.56,2.56,0,0,1-.7-1.8,2.29,2.29,0,0,1,.71-1.7,2.45,2.45,0,0,1,3.46,0,2.45,2.45,0,0,1,0,3.49,2.38,2.38,0,0,1-1.75.73A2.27,2.27,0,0,1,785.48,391.22Z"/><path class="cls-3" d="M791,391.22a2.57,2.57,0,0,1-.71-1.8,2.3,2.3,0,0,1,.72-1.7A2.46,2.46,0,1,1,792.7,392,2.27,2.27,0,0,1,791,391.22Z"/><path class="cls-3" d="M801.14,373.54h2.14V392h-4.69v-13l-2.56.81v-4.59l2.56-.81Z"/><path class="cls-3" d="M816.78,374.76a8.59,8.59,0,0,1,2.76,3.39,11.22,11.22,0,0,1,0,9.35,8.41,8.41,0,0,1-2.76,3.4,6.38,6.38,0,0,1-7.61,0,8.71,8.71,0,0,1-2.78-3.4,11.22,11.22,0,0,1,0-9.35,8.89,8.89,0,0,1,2.78-3.39,6.42,6.42,0,0,1,7.61,0Zm-2.21,11.88a3.94,3.94,0,0,0,1.14-1.6,5.77,5.77,0,0,0,.42-2.22,5.47,5.47,0,0,0-.43-2.2,4.24,4.24,0,0,0-1.15-1.61,2.38,2.38,0,0,0-1.57-.6,2.43,2.43,0,0,0-1.59.6,4.06,4.06,0,0,0-1.16,1.61,5.47,5.47,0,0,0-.43,2.2,5.6,5.6,0,0,0,.43,2.22,3.88,3.88,0,0,0,1.16,1.6,2.47,2.47,0,0,0,1.59.59A2.51,2.51,0,0,0,814.57,386.64Z"/><path class="cls-3" d="M822.33,381.05h10.3v3.31h-10.3Zm6.8-3.5v10.3h-3.31v-10.3Z"/><path class="cls-3" d="M853.23,374.31a5.71,5.71,0,0,1,2.09,2.08,5.77,5.77,0,0,1,0,5.76,5.74,5.74,0,0,1-2.09,2.09,5.65,5.65,0,0,1-2.88.77H846v7h-4.4V373.54h8.78A5.55,5.55,0,0,1,853.23,374.31Zm-1.8,3.62a1.78,1.78,0,0,0-1.23-.61h-4.33v3.91h4.33a1.78,1.78,0,0,0,1.23-.64,2,2,0,0,0,.51-1.34A1.88,1.88,0,0,0,851.43,377.93Z"/><path class="cls-3" d="M867.6,373.72l6,18.25h-4.53l-1.2-3.73h-5.71L861,392h-4.56l6-18.25Zm-4.19,10.72h3.28l-1.64-5.17Z"/><path class="cls-3" d="M892.57,382.85a9,9,0,0,1-1.25,4.66,9.37,9.37,0,0,1-8.08,4.65,9,9,0,0,1-4.66-1.26,9.19,9.19,0,0,1-3.39-3.39,9,9,0,0,1-1.25-4.66,9.13,9.13,0,0,1,1.25-4.69,9.29,9.29,0,0,1,3.39-3.4,9.27,9.27,0,0,1,11.28,1.51l-4.19,2.4a4.81,4.81,0,0,0-4.83,0,4.89,4.89,0,0,0-1.74,1.76,4.65,4.65,0,0,0-.65,2.42,4.52,4.52,0,0,0,.65,2.39,4.86,4.86,0,0,0,1.74,1.75,4.58,4.58,0,0,0,2.4.65,4.65,4.65,0,0,0,2.53-.71,4.88,4.88,0,0,0,1.77-1.92h-5.78v-4.33h10.55A9.62,9.62,0,0,1,892.57,382.85Z"/><path class="cls-3" d="M906.21,388v4H893.67V373.54H906v4h-7.58v3.23h6.38v4h-6.38V388Z"/><path class="cls-3" d="M917.15,379.38V379a1.6,1.6,0,0,0-.64-1.29,2.31,2.31,0,0,0-1.55-.54,2.46,2.46,0,0,0-1.6.54,1.6,1.6,0,0,0-.67,1.29,1.2,1.2,0,0,0,.68,1.12,5.65,5.65,0,0,0,1.77.73,3.68,3.68,0,0,1,.41.08l.46.1a9,9,0,0,1,3.72,1.54l.24.21a5.61,5.61,0,0,1,1.24,1.8,5.21,5.21,0,0,1,.45,2.09,5.13,5.13,0,0,1-.51,2.24,5.67,5.67,0,0,1-1.47,1.9,7,7,0,0,1-2.19,1.24,7.59,7.59,0,0,1-2.55.43,7.5,7.5,0,0,1-2.55-.43,7.08,7.08,0,0,1-2.17-1.24,6,6,0,0,1-1.49-1.9,5.14,5.14,0,0,1-.52-2.24v-.34h4.56v.34a1.66,1.66,0,0,0,.64,1.29,2.35,2.35,0,0,0,1.53.53,2.51,2.51,0,0,0,1.6-.53,1.62,1.62,0,0,0,.66-1.29,1.48,1.48,0,0,0-.7-1.15,2.67,2.67,0,0,0-.73-.39,10.54,10.54,0,0,0-1-.32l-.86-.2c-.95-.25-1.7-.46-2.24-.66a4.4,4.4,0,0,1-1.48-.88l-.11-.11a6.1,6.1,0,0,1-1.37-1.82,5,5,0,0,1-.48-2.14,5.14,5.14,0,0,1,.52-2.24,6,6,0,0,1,1.49-1.91,7.08,7.08,0,0,1,2.17-1.24,7.76,7.76,0,0,1,2.55-.43,7.85,7.85,0,0,1,2.55.43,7,7,0,0,1,2.19,1.24,5.7,5.7,0,0,1,1.47,1.91,5.13,5.13,0,0,1,.51,2.24v.34Z"/><path class="cls-3" d="M929.48,389l-1.93,5.42h-3.91l1.93-5.42Zm-2.19-5.19a2.12,2.12,0,0,0,1.53-.63,2,2,0,0,0,.63-1.51,2.12,2.12,0,0,0-2.16-2.16,2.05,2.05,0,0,0-1.51.63,2,2,0,0,0-.6,1.53,2.27,2.27,0,0,0,.65,1.51A2,2,0,0,0,927.29,383.76Z"/><path class="cls-3" d="M636.42,453.12H639v3.94h-2.56v3.42H632.2v-3.42H623v-4.33l8.52-10.66h.65v0h4.22v11.08Zm-8.73,0h4.51v-5.55Z"/><path class="cls-3" d="M650.66,442.79a6.65,6.65,0,0,1,2.42,2.32,6.24,6.24,0,0,1-.26,6.79l-5.71,8.58h-4.85l3.93-5.92a6.77,6.77,0,0,1-2.78-1.15,6.39,6.39,0,0,1-2-2.23,6.14,6.14,0,0,1,.17-6.07,6.55,6.55,0,0,1,2.41-2.32,6.84,6.84,0,0,1,6.64,0Zm-5.14,7.28a2.5,2.5,0,0,0,1.82.73,2.57,2.57,0,0,0,1.84-.73,2.37,2.37,0,0,0,.77-1.77,2.32,2.32,0,0,0-.77-1.76,2.6,2.6,0,0,0-1.84-.72,2.54,2.54,0,0,0-1.82.72,2.31,2.31,0,0,0-.76,1.76A2.36,2.36,0,0,0,645.52,450.07Z"/><path class="cls-3" d="M665.87,443.26a8.65,8.65,0,0,1,2.77,3.4,11.3,11.3,0,0,1,0,9.34,8.62,8.62,0,0,1-2.77,3.41,6.42,6.42,0,0,1-7.61,0,8.7,8.7,0,0,1-2.77-3.41,11.1,11.1,0,0,1,0-9.34,8.74,8.74,0,0,1,2.77-3.4,6.42,6.42,0,0,1,7.61,0Zm-2.21,11.88a3.85,3.85,0,0,0,1.14-1.6,5.77,5.77,0,0,0,.42-2.22,5.47,5.47,0,0,0-.43-2.2,4.32,4.32,0,0,0-1.15-1.61,2.43,2.43,0,0,0-1.57-.6,2.48,2.48,0,0,0-1.59.6,4.13,4.13,0,0,0-1.16,1.61,5.47,5.47,0,0,0-.43,2.2,5.6,5.6,0,0,0,.43,2.22,3.88,3.88,0,0,0,1.16,1.6,2.47,2.47,0,0,0,1.59.59A2.51,2.51,0,0,0,663.66,455.14Z"/><path class="cls-3" d="M690,442.81a5.68,5.68,0,0,1,2.08,2.08,5.73,5.73,0,0,1-5,8.62h-4.38v7H678.3V442h8.79A5.65,5.65,0,0,1,690,442.81Zm-1.8,3.62a1.78,1.78,0,0,0-1.24-.61h-4.32v3.91h4.32a1.74,1.74,0,0,0,1.24-.64,2,2,0,0,0,.51-1.34A1.9,1.9,0,0,0,688.17,446.43Z"/><path class="cls-3" d="M704.34,442.22l6,18.26h-4.53l-1.2-3.73h-5.71l-1.17,3.73h-4.56l6-18.26Zm-4.19,10.72h3.28l-1.64-5.16Z"/><path class="cls-3" d="M729.31,451.35a9.15,9.15,0,0,1-1.25,4.67,9.37,9.37,0,0,1-3.4,3.39,9.19,9.19,0,0,1-4.68,1.25,9.07,9.07,0,0,1-4.66-1.25,9.34,9.34,0,0,1-3.39-3.39,9.3,9.3,0,0,1,0-9.35,9.24,9.24,0,0,1,3.39-3.41A9.07,9.07,0,0,1,720,442a9.16,9.16,0,0,1,6.62,2.77l-4.2,2.4a4.73,4.73,0,0,0-4.82,0,4.81,4.81,0,0,0-1.74,1.76,4.71,4.71,0,0,0,0,4.81,4.84,4.84,0,0,0,1.74,1.74,4.56,4.56,0,0,0,2.4.66,4.68,4.68,0,0,0,2.53-.72,5,5,0,0,0,1.77-1.92H718.5v-4.33h10.55A10.39,10.39,0,0,1,729.31,451.35Z"/><path class="cls-3" d="M742.94,456.49v4H730.41V442h12.3v4h-7.59v3.23h6.39v4h-6.39v3.24Z"/><path class="cls-3" d="M753.89,447.88v-.34a1.63,1.63,0,0,0-.64-1.29,2.32,2.32,0,0,0-1.55-.54,2.46,2.46,0,0,0-1.6.54,1.63,1.63,0,0,0-.67,1.29,1.19,1.19,0,0,0,.68,1.12,5.65,5.65,0,0,0,1.77.73l.41.08.45.11a9.11,9.11,0,0,1,3.73,1.53l.24.21a5.65,5.65,0,0,1,1.23,1.8,5.08,5.08,0,0,1-.05,4.33,5.94,5.94,0,0,1-1.47,1.91,6.93,6.93,0,0,1-2.19,1.23,7.6,7.6,0,0,1-2.56.43,7.49,7.49,0,0,1-2.54-.43,7.05,7.05,0,0,1-2.17-1.23,6,6,0,0,1-1.49-1.91,5,5,0,0,1-.52-2.24v-.34h4.56v.34a1.63,1.63,0,0,0,.64,1.29,2.33,2.33,0,0,0,1.52.53,2.52,2.52,0,0,0,1.61-.53,1.62,1.62,0,0,0,.66-1.29,1.49,1.49,0,0,0-.7-1.15,2.67,2.67,0,0,0-.73-.39c-.28-.1-.62-.21-1-.31l-.86-.21c-1-.25-1.7-.46-2.24-.65a4.43,4.43,0,0,1-1.48-.89l-.11-.11a5.71,5.71,0,0,1-1.37-1.82,5,5,0,0,1-.48-2.14,5,5,0,0,1,.52-2.24,6,6,0,0,1,1.49-1.91,7.05,7.05,0,0,1,2.17-1.23,7.49,7.49,0,0,1,2.54-.43,7.6,7.6,0,0,1,2.56.43,6.93,6.93,0,0,1,2.19,1.23,5.94,5.94,0,0,1,1.47,1.91,5.13,5.13,0,0,1,.51,2.24v.34Z"/><path class="cls-3" d="M779.51,443.29a9.33,9.33,0,0,1,4.64,8.08A9.1,9.1,0,0,1,782.9,456a9.26,9.26,0,0,1-3.39,3.39,9.35,9.35,0,0,1-9.34,0,9.14,9.14,0,0,1-3.4-3.39,9,9,0,0,1-1.26-4.67,9.33,9.33,0,0,1,14-8.08Zm-2.27,12.23a5,5,0,0,0,1.75-1.75,4.65,4.65,0,0,0,.65-2.4A4.74,4.74,0,0,0,779,449a5,5,0,0,0-1.75-1.76,4.64,4.64,0,0,0-2.39-.65,4.75,4.75,0,0,0-2.42.65,5,5,0,0,0-1.76,1.76,4.74,4.74,0,0,0-.65,2.41,4.65,4.65,0,0,0,.65,2.4,4.92,4.92,0,0,0,1.76,1.75,4.65,4.65,0,0,0,2.42.65A4.54,4.54,0,0,0,777.24,455.52Z"/><path class="cls-3" d="M795.38,442h4.7v18.44h-4.7L790,450.59v9.89h-4.72V442H790l5.42,9.88Z"/><path class="cls-3" d="M823.82,452.69a5.32,5.32,0,0,1-2,7,5.36,5.36,0,0,1-2.67.75h-9.21V442h8.37a5.14,5.14,0,0,1,2.69.73,5.38,5.38,0,0,1,1.89,1.93,5.15,5.15,0,0,1,.69,2.61,5.08,5.08,0,0,1-.37,1.92,5.25,5.25,0,0,1-1,1.63A5.25,5.25,0,0,1,823.82,452.69ZM819,446.36a1.82,1.82,0,0,0-1.34-.57h-3.39v3.92h3.39a4.28,4.28,0,0,0,.62-.11,1.51,1.51,0,0,0,.47-.26,2,2,0,0,0,.6-.7,2,2,0,0,0,.21-.92A1.85,1.85,0,0,0,819,446.36Zm.78,9.73a1.81,1.81,0,0,0,.53-1.38,1.91,1.91,0,0,0-1.56-1.9c-.11,0-1.34,0-3.7,0h-.78v3.91h4.17A1.85,1.85,0,0,0,819.74,456.09Z"/><path class="cls-3" d="M839.85,443.29a9.37,9.37,0,0,1,3.39,3.4,9.22,9.22,0,0,1,1.25,4.68,9.1,9.1,0,0,1-1.25,4.67,9.34,9.34,0,0,1-3.39,3.39,9.37,9.37,0,0,1-9.35,0,9.29,9.29,0,0,1-3.4-3.39,9.1,9.1,0,0,1-1.25-4.67,9.22,9.22,0,0,1,1.25-4.68,9.32,9.32,0,0,1,3.4-3.4,9.37,9.37,0,0,1,9.35,0Zm-2.27,12.23a5,5,0,0,0,1.75-1.75,4.65,4.65,0,0,0,.65-2.4,4.74,4.74,0,0,0-.65-2.41,5,5,0,0,0-1.75-1.76,4.65,4.65,0,0,0-2.4-.65,4.71,4.71,0,0,0-2.41.65A5,5,0,0,0,831,449a4.74,4.74,0,0,0-.65,2.41,4.65,4.65,0,0,0,.65,2.4,4.92,4.92,0,0,0,1.76,1.75,4.61,4.61,0,0,0,2.41.65A4.55,4.55,0,0,0,837.58,455.52Z"/><path class="cls-3" d="M860.57,442.07v11.39a7.11,7.11,0,0,1-1,3.65,7.27,7.27,0,0,1-2.66,2.65,7.17,7.17,0,0,1-3.66,1h-.42a7.13,7.13,0,0,1-3.65-1,7.29,7.29,0,0,1-2.64-2.65,7.11,7.11,0,0,1-1-3.65V442.07h4.35v10.35a4.41,4.41,0,0,0,.78,2.68,2.51,2.51,0,0,0,2.14,1.07h.42a2.53,2.53,0,0,0,2.12-1.08,4.27,4.27,0,0,0,.82-2.67V442.07Z"/><path class="cls-3" d="M872.19,442h4.7v18.44h-4.7l-5.42-9.89v9.89h-4.72V442h4.72l5.42,9.88Z"/><path class="cls-3" d="M892.42,442v4.69H887.7v13.75H883V446.73h-4.71V442h14.15Z"/><path class="cls-3" d="M903.42,442h4.69L902.69,453v7.51H898V453L892.57,442h4.69l3.08,6.28Z"/><path class="cls-3" d="M930.81,442v4.69h-4.72v13.75h-4.72V446.73h-4.71V442h14.15Z"/><path class="cls-3" d="M942,442h4.7v18.44H942v-6.89H936.7v6.89H932V442h4.69v6.86H942Z"/><path class="cls-3" d="M963.52,460.48H958.8l-2.92-7h-3v7h-4.41V442h8.78a5.66,5.66,0,0,1,2.87.77,5.57,5.57,0,0,1,2.1,2.1,5.64,5.64,0,0,1,.77,2.87,5.58,5.58,0,0,1-.71,2.75,6,6,0,0,1-1.9,2.07Zm-5.19-14.05a1.74,1.74,0,0,0-1.22-.61h-4.33v3.91h4.33a1.82,1.82,0,0,0,1.22-.64,2,2,0,0,0,0-2.66Z"/><path class="cls-3" d="M977.49,456.49v4H965V442h12.31v4h-7.59v3.23h6.39v4h-6.39v3.24Z"/><path class="cls-3" d="M989.61,442.22l6,18.26H991.1l-1.2-3.73h-5.71L983,460.48h-4.57l6-18.26Zm-4.2,10.72h3.29l-1.65-5.16Z"/><path class="cls-3" d="M1004.54,442a11,11,0,0,1,2.78.67,8.07,8.07,0,0,1,2.54,1.59,9.1,9.1,0,0,1,2.26,3.17,9.44,9.44,0,0,1,.79,3.79,8.93,8.93,0,0,1-1,4.25,8.24,8.24,0,0,1-2.85,3.26,10.06,10.06,0,0,1-3.75,1.48,27.93,27.93,0,0,1-4.66.35l-2.13,0c-.45,0-1.13,0-2,0V441.83h4.72C1002.48,441.83,1003.61,441.88,1004.54,442Zm3.89,9.22a4.72,4.72,0,0,0-.63-2.36,4.92,4.92,0,0,0-1.7-1.78,4.53,4.53,0,0,0-2.36-.71h-2.56V456a19.72,19.72,0,0,0,3.22-.23,5.42,5.42,0,0,0,2.43-1,4.08,4.08,0,0,0,1.47-2.42A5.74,5.74,0,0,0,1008.43,451.19Z"/><path class="cls-3" d="M1020,457.45l-1.93,5.43h-3.91l1.93-5.43Zm-2.19-5.19a2.15,2.15,0,0,0,1.53-.62,2.08,2.08,0,0,0,.63-1.52,2.12,2.12,0,0,0-2.16-2.16,2,2,0,0,0-1.51.64,2,2,0,0,0-.6,1.52,2.31,2.31,0,0,0,.65,1.52A2,2,0,0,0,1017.81,452.26Z"/><path class="cls-4" d="M74.13,58v84.79H52.55V58Z"/><path class="cls-4" d="M164.5,117.09a44.42,44.42,0,0,1-9,13.74l7.55,12-16.54,10.31-7.31-11.87a43.39,43.39,0,0,1-14.26,2.4,41.69,41.69,0,0,1-21.46-5.76,42.89,42.89,0,0,1-15.58-15.59,43.05,43.05,0,0,1,0-43,42.68,42.68,0,0,1,15.58-15.65,42.84,42.84,0,0,1,42.91,0A42.6,42.6,0,0,1,162,79.32a42.78,42.78,0,0,1,2.52,37.77Zm-58.67-5.21a22.16,22.16,0,0,0,8,8,22,22,0,0,0,22.18,0,22.24,22.24,0,0,0,8-8,21.61,21.61,0,0,0,2.93-11,22.13,22.13,0,0,0-11-19.19,22.06,22.06,0,0,0-22.18,0,22.17,22.17,0,0,0-11,19.19A21.52,21.52,0,0,0,105.83,111.88Z"/><path class="cls-4" d="M176.25,139.34a11.74,11.74,0,0,1-3.24-8.28,10.53,10.53,0,0,1,3.3-7.79,10.79,10.79,0,0,1,7.85-3.24,11.4,11.4,0,0,1,0,22.79A10.39,10.39,0,0,1,176.25,139.34Z"/><path class="cls-4" d="M252.48,121.05a23.66,23.66,0,0,0,7.19-4.74l14.62,14.63a43,43,0,0,1-13.78,9.3,43,43,0,0,1-38-2.46,42.89,42.89,0,0,1-15.58-15.59,43.05,43.05,0,0,1,0-43,42.68,42.68,0,0,1,15.58-15.65,43,43,0,0,1,38-2.46,43,43,0,0,1,13.78,9.29L259.67,85a23.82,23.82,0,0,0-7.19-4.73A21.49,21.49,0,0,0,244,78.54a21.15,21.15,0,0,0-11,3,22.56,22.56,0,0,0-8,8.09,21.49,21.49,0,0,0-3,11.09,21.18,21.18,0,0,0,3,11,22.87,22.87,0,0,0,8,8,21.15,21.15,0,0,0,11,3A21.49,21.49,0,0,0,252.48,121.05Z"/><path class="cls-4" d="M326,58.87l27.69,83.95H332.78l-5.51-17.15H301l-5.39,17.15h-21l27.81-83.95Zm-19.3,49.29h15.11l-7.55-23.75Z"/><path class="cls-4" d="M395.71,84.89V83.33a7.49,7.49,0,0,0-2.94-5.93,10.73,10.73,0,0,0-7.13-2.46,11.4,11.4,0,0,0-7.37,2.46,7.39,7.39,0,0,0-3.06,5.93,5.5,5.5,0,0,0,3.12,5.16,26,26,0,0,0,8.15,3.36q.84.12,1.86.36l2.1.48q12.82,3.12,17.14,7.07l1.07,1a25.71,25.71,0,0,1,5.7,8.28,23.45,23.45,0,0,1-.24,19.91,26.77,26.77,0,0,1-6.77,8.75,32.17,32.17,0,0,1-10.07,5.7,35.19,35.19,0,0,1-11.75,2,34.61,34.61,0,0,1-11.68-2,32.1,32.1,0,0,1-10-5.7,27.24,27.24,0,0,1-6.83-8.75,23.25,23.25,0,0,1-2.4-10.32V117h21v1.56a7.49,7.49,0,0,0,2.94,5.94,10.58,10.58,0,0,0,7,2.46,11.36,11.36,0,0,0,7.37-2.46,7.39,7.39,0,0,0,3.06-5.94q0-2.76-3.24-5.27a13.34,13.34,0,0,0-3.35-1.8,48.23,48.23,0,0,0-4.68-1.44l-3.95-1q-6.6-1.68-10.31-3a20.69,20.69,0,0,1-6.83-4.08l-.48-.48a26.62,26.62,0,0,1-6.29-8.39,22.68,22.68,0,0,1-2.22-9.84A23.24,23.24,0,0,1,357,73a27.24,27.24,0,0,1,6.83-8.75,32.1,32.1,0,0,1,10-5.7,34.61,34.61,0,0,1,11.68-2,35.19,35.19,0,0,1,11.75,2,32.17,32.17,0,0,1,10.07,5.7A26.77,26.77,0,0,1,414.11,73a23.73,23.73,0,0,1,2.34,10.31v1.56Z"/><path class="cls-4" d="M469.43,58H491v84.79H469.43V111.16H445.21v31.66H423.64V58h21.57V89.57h24.22Z"/><path d="M368,177.45V212.8h-9V186.45h-10.1V212.8h-9V177.45Z"/><path d="M394.35,178.92a11,11,0,0,1,4,4,11,11,0,0,1-4,15.05,10.67,10.67,0,0,1-5.52,1.48h-8.4V212.8H372V177.45h16.85A10.76,10.76,0,0,1,394.35,178.92Zm-3.45,7a3.43,3.43,0,0,0-2.37-1.17h-8.3v7.5h8.3A3.38,3.38,0,0,0,390.9,191a3.82,3.82,0,0,0,1-2.57A3.65,3.65,0,0,0,390.9,185.87Z"/><path d="M428.68,179.85a17.83,17.83,0,0,1,6.5,6.52,17.94,17.94,0,0,1,0,17.93,17.93,17.93,0,0,1-6.5,6.5,17.94,17.94,0,0,1-17.93,0,17.83,17.83,0,0,1-6.52-6.5,17.94,17.94,0,0,1,0-17.93,17.73,17.73,0,0,1,6.52-6.52,17.94,17.94,0,0,1,17.93,0Zm-4.35,23.45a9.6,9.6,0,0,0,3.35-3.35,8.88,8.88,0,0,0,1.25-4.6,9,9,0,0,0-1.25-4.63,9.49,9.49,0,0,0-3.35-3.37,8.78,8.78,0,0,0-4.6-1.25,8.91,8.91,0,0,0-4.63,1.25,9.31,9.31,0,0,0-3.37,3.37,8.91,8.91,0,0,0-1.25,4.63,8.78,8.78,0,0,0,1.25,4.6,9.41,9.41,0,0,0,3.37,3.35,9,9,0,0,0,4.63,1.25A8.88,8.88,0,0,0,424.33,203.3Z"/><path d="M449,190.8h8.39a10.8,10.8,0,0,1,5.53,1.47,11,11,0,0,1,4,4,11,11,0,0,1-4,15,10.71,10.71,0,0,1-5.53,1.48H440.58V177.45h24.59v7.65H449Zm0,14.75h8.09a3.44,3.44,0,0,0,2.38-1.18,3.63,3.63,0,0,0,1-2.52,3.83,3.83,0,0,0-1-2.58,3.33,3.33,0,0,0-2.38-1.22H449Z"/><path d="M489.83,177.8l11.54,35h-8.7l-2.3-7.15H479.42l-2.25,7.15h-8.75l11.6-35Zm-8.06,20.55h6.31l-3.16-9.9Z"/><path class="cls-2" d="M756.49,87.65V123h-9V96.65h-10.1V123h-9V87.65Z"/><path class="cls-2" d="M782.87,89.12a11,11,0,0,1,4,4,11.12,11.12,0,0,1,0,11,11,11,0,0,1-4,4,10.83,10.83,0,0,1-5.53,1.48h-8.4V123h-8.45V87.65h16.85A10.82,10.82,0,0,1,782.87,89.12Zm-3.45,6.95A3.41,3.41,0,0,0,777,94.9h-8.3v7.5H777a3.4,3.4,0,0,0,2.38-1.23,3.81,3.81,0,0,0,1-2.57A3.64,3.64,0,0,0,779.42,96.07Z"/><path class="cls-2" d="M817.19,90.05a17.83,17.83,0,0,1,6.5,6.52,17.94,17.94,0,0,1,0,17.93,17.93,17.93,0,0,1-6.5,6.5,17.93,17.93,0,0,1-17.92,0,17.85,17.85,0,0,1-6.53-6.5,17.94,17.94,0,0,1,0-17.93,17.76,17.76,0,0,1,6.53-6.52,17.93,17.93,0,0,1,17.92,0Zm-4.35,23.45a9.51,9.51,0,0,0,3.35-3.35,8.88,8.88,0,0,0,1.25-4.6,9,9,0,0,0-1.25-4.63,9.33,9.33,0,0,0-3.35-3.37,8.76,8.76,0,0,0-4.6-1.25,8.85,8.85,0,0,0-4.62,1.25,9.26,9.26,0,0,0-3.38,3.37,9,9,0,0,0-1.25,4.63,8.88,8.88,0,0,0,1.25,4.6,9.44,9.44,0,0,0,3.38,3.35,9,9,0,0,0,4.62,1.25A8.85,8.85,0,0,0,812.84,113.5Z"/><path class="cls-2" d="M837.54,101h8.4a10.82,10.82,0,0,1,5.53,1.47,11,11,0,0,1,4,4,11.12,11.12,0,0,1,0,11,11,11,0,0,1-4,4,10.83,10.83,0,0,1-5.53,1.48H829.09V87.65h24.6V95.3H837.54Zm0,14.75h8.1a3.46,3.46,0,0,0,2.38-1.18,3.64,3.64,0,0,0,1-2.52,3.82,3.82,0,0,0-1-2.58,3.35,3.35,0,0,0-2.38-1.22h-8.1Z"/><path class="cls-2" d="M878.34,88l11.55,35h-8.7l-2.3-7.15H867.94L865.69,123h-8.75l11.6-35Zm-8.05,20.55h6.3l-3.15-9.9Z"/></svg>