<svg xmlns="http://www.w3.org/2000/svg" width="42.271" height="42.271" viewBox="0 0 42.271 42.271">
  <g id="isntagram__x2C__social__x2C__media_x2C__icon_x2C_" transform="translate(-16 -16)">
    <path id="Контур_4073" data-name="Контур 4073" d="M52.854,16H21.418A5.438,5.438,0,0,0,16,21.418V52.853a5.438,5.438,0,0,0,5.418,5.418H52.854a5.438,5.438,0,0,0,5.418-5.418V21.418A5.438,5.438,0,0,0,52.854,16ZM51.226,34.24V45.79a5.434,5.434,0,0,1-5.438,5.436H28.479a5.429,5.429,0,0,1-5.434-5.436V28.479a5.427,5.427,0,0,1,5.434-5.434H45.788a5.431,5.431,0,0,1,5.438,5.434Z" fill="#fff" fill-rule="evenodd"/>
    <path id="Контур_4074" data-name="Контур 4074" d="M204.556,209.546a4.949,4.949,0,0,0,4.325-7.386,5.086,5.086,0,0,0-.3-.472,4.95,4.95,0,0,0-8.052,0,5.15,5.15,0,0,0-.3.472,4.914,4.914,0,0,0-.642,2.422A4.972,4.972,0,0,0,204.556,209.546Z" transform="translate(-167.421 -167.448)" fill="#fff" fill-rule="evenodd"/>
    <path id="Контур_4075" data-name="Контур 4075" d="M329.537,137.476v-4.783l-.619,0-4.158.013.016,4.782Z" transform="translate(-281.569 -106.416)" fill="#fff" fill-rule="evenodd"/>
    <path id="Контур_4076" data-name="Контур 4076" d="M145.777,223.8a7.714,7.714,0,1,1-14.837,0,8.277,8.277,0,0,1,.272-.8H127v11.56a2.709,2.709,0,0,0,2.7,2.706h17.309a2.712,2.712,0,0,0,2.708-2.706V223H145.5A8.143,8.143,0,0,1,145.777,223.8Z" transform="translate(-101.225 -188.77)" fill="#fff" fill-rule="evenodd"/>
  </g>
</svg>
